<svg width="26" height="31" viewBox="0 0 26 31" fill="none" xmlns="http://www.w3.org/2000/svg">
<path d="M11.7746 13.2223L10.3925 17.7581C10.2751 18.1438 10.3824 18.5624 10.6718 18.8469C10.8834 19.0551 11.1678 19.1678 11.4587 19.1678C11.5656 19.1678 11.6732 19.1528 11.7782 19.1214L16.3875 17.7616C16.564 17.7096 16.7248 17.6155 16.8549 17.4871L25.3055 9.17065C25.5142 8.96529 25.6315 8.68647 25.6315 8.39626C25.6315 8.10604 25.5142 7.82723 25.3055 7.62187L22.0779 4.44588C21.6432 4.01804 20.9389 4.01804 20.5042 4.44588L12.0539 12.7623C11.9235 12.8907 11.8279 13.0483 11.7746 13.2223ZM13.8262 14.1157L21.291 6.76904L22.9445 8.39626L15.4797 15.743L13.1183 16.4396L13.8262 14.1157Z" fill="#636363"/>
<path d="M24.8877 14.7122C24.2729 14.7122 23.7747 15.2028 23.7747 15.8075V23.1093C23.7747 24.1161 22.9426 24.9347 21.9198 24.9347H7.08075C6.05803 24.9347 5.22586 24.1161 5.22586 23.1093V8.50572C5.22586 7.49887 6.05803 6.68028 7.08075 6.68028H14.5003C15.1151 6.68028 15.6132 6.18969 15.6132 5.58501C15.6132 4.98034 15.1151 4.48975 14.5003 4.48975H7.08075C4.83062 4.48975 3 6.29166 3 8.50572V23.1093C3 25.3233 4.83062 27.1253 7.08075 27.1253H21.9198C24.17 27.1253 26.0006 25.3233 26.0006 23.1093V15.8075C26.0006 15.2028 25.5025 14.7122 24.8877 14.7122Z" fill="#636363"/>
<circle cx="6" cy="24.875" r="6" fill="#296FE2"/>
<path fill-rule="evenodd" clip-rule="evenodd" d="M5.99935 20.7207C6.45816 20.7207 6.83009 21.0926 6.83009 21.5513V24.0433H9.32266C9.78146 24.0433 10.1534 24.4151 10.1534 24.8739C10.1534 25.3326 9.78146 25.7045 9.32266 25.7045H6.83009V28.1978C6.83009 28.6565 6.45816 29.0284 5.99935 29.0284C5.54055 29.0284 5.16861 28.6565 5.16861 28.1978V25.7045H2.67644C2.21764 25.7045 1.8457 25.3326 1.8457 24.8739C1.8457 24.4151 2.21764 24.0433 2.67644 24.0433H5.16861V21.5513C5.16861 21.0926 5.54055 20.7207 5.99935 20.7207Z" fill="white"/>
</svg>
