<svg width="31" height="30" viewBox="0 0 31 30" fill="none" xmlns="http://www.w3.org/2000/svg">
<circle cx="15.5" cy="15" r="15" fill="white"/>
<circle cx="15.5" cy="15" r="14.5" stroke="#3F3F3F" stroke-opacity="0.8"/>
<path fill-rule="evenodd" clip-rule="evenodd" d="M3.1084 14.9994C3.10882 9.08815 7.28487 4.00038 13.0826 2.84755C18.8804 1.69471 24.6852 4.79788 26.947 10.2593C29.2088 15.7207 27.2977 22.0193 22.3825 25.3031C17.4673 28.587 10.9168 27.9415 6.73712 23.7614C4.41346 21.4375 3.10816 18.2857 3.1084 14.9994Z" stroke="#959595" stroke-linecap="round" stroke-linejoin="round"/>
<path d="M10.8535 14C10.3012 14 9.85352 14.4477 9.85352 15C9.85352 15.5523 10.3012 16 10.8535 16V14ZM15.5 16C16.0523 16 16.5 15.5523 16.5 15C16.5 14.4477 16.0523 14 15.5 14V16ZM15.4999 14C14.9476 14 14.4999 14.4477 14.4999 15C14.4999 15.5523 14.9476 16 15.4999 16V14ZM20.1464 16C20.6987 16 21.1464 15.5523 21.1464 15C21.1464 14.4477 20.6987 14 20.1464 14V16ZM16.4995 15C16.4995 14.4477 16.0518 14 15.4995 14C14.9472 14 14.4995 14.4477 14.4995 15H16.4995ZM14.4995 19.6465C14.4995 20.1988 14.9472 20.6465 15.4995 20.6465C16.0518 20.6465 16.4995 20.1988 16.4995 19.6465H14.4995ZM14.4995 15C14.4995 15.5523 14.9472 16 15.4995 16C16.0518 16 16.4995 15.5523 16.4995 15H14.4995ZM16.4995 10.3535C16.4995 9.80123 16.0518 9.35352 15.4995 9.35352C14.9472 9.35352 14.4995 9.80123 14.4995 10.3535H16.4995ZM10.8535 16H15.5V14H10.8535V16ZM15.4999 16H20.1464V14H15.4999V16ZM14.4995 15V19.6465H16.4995V15H14.4995ZM16.4995 15V10.3535H14.4995V15H16.4995Z" fill="#656565"/>
</svg>
