<svg width="27" height="27" viewBox="0 0 27 27" fill="none" xmlns="http://www.w3.org/2000/svg">
<path d="M10.2108 6.335H10.5715V11.219C10.5715 11.4475 10.7546 11.6329 10.9803 11.6329H17.649C17.8747 11.6329 18.0578 11.4475 18.0578 11.219V6.335H18.4185C18.5948 6.335 18.7513 6.22138 18.8066 6.05223C18.8627 5.88308 18.8049 5.69599 18.664 5.5892L14.5777 2.49324C14.4317 2.38303 14.2334 2.38218 14.0883 2.49238L9.9665 5.58835C9.82474 5.69514 9.76695 5.88137 9.82221 6.05138C9.8779 6.22053 10.0344 6.335 10.2108 6.335ZM14.9207 10.8038H13.7828V9.35878C13.7828 9.04269 14.0389 8.7847 14.3541 8.7847C14.5038 8.7847 14.6447 8.84407 14.7553 8.9547C14.8599 9.05892 14.9211 9.20586 14.9211 9.35835L14.9207 10.8038ZM14.3317 3.34155L17.1891 5.50634H11.4494L14.3317 3.34155ZM11.3899 6.335H17.2393V10.8042H15.7387V9.35921C15.7387 8.9846 15.5881 8.62152 15.329 8.36652C15.0679 8.10211 14.7219 7.95688 14.3532 7.95688C13.5871 7.95688 12.964 8.58607 12.964 9.35921V10.8042H11.3899V6.335ZM2.78269 13.9126H10.2108C10.4365 13.9126 10.6204 13.7272 10.6204 13.4987C10.6204 13.2702 10.4365 13.0839 10.2108 13.0839H2.78269C2.55699 13.0839 2.37305 13.2702 2.37305 13.4987C2.37305 13.7272 2.55699 13.9126 2.78269 13.9126ZM2.78269 16.7993H10.2108C10.4365 16.7993 10.6204 16.6139 10.6204 16.3845C10.6204 16.156 10.4365 15.9706 10.2108 15.9706H2.78269C2.55699 15.9706 2.37305 16.156 2.37305 16.3845C2.37305 16.6139 2.55699 16.7993 2.78269 16.7993ZM10.6204 19.2712C10.6204 19.0426 10.4365 18.8573 10.2108 18.8573H2.78269C2.55699 18.8573 2.37305 19.0426 2.37305 19.2712C2.37305 19.5005 2.55699 19.6859 2.78269 19.6859H10.2108C10.4365 19.6855 10.6204 19.5005 10.6204 19.2712Z" fill="url(#paint0_linear_4933_4432)"/>
<path d="M26.4798 6.74423L25.9103 6.16758C25.2412 5.49098 24.1789 5.46364 23.5423 6.10736L21.5497 8.12477V1.68595C21.5497 0.755624 20.8026 0 19.8846 0H8.01913C8.01069 0 8.00436 0.00341718 7.99592 0.00427147C7.95795 0.00598006 7.92083 0.0132416 7.88455 0.0269103C7.87316 0.0311818 7.86134 0.0337447 7.8508 0.0392976C7.8065 0.0593735 7.76431 0.0850024 7.72972 0.120883L0.119393 7.8262C0.0839545 7.86122 0.0594853 7.90266 0.0396569 7.94708C0.0337505 7.95947 0.0307974 7.97314 0.0257348 7.98638C0.014344 8.0214 0.00759387 8.05643 0.00506258 8.09231C0.00421882 8.10128 0 8.10982 0 8.11879V25.314C0 26.2444 0.746731 27 1.66517 27H19.8846C20.8026 27 21.5497 26.2439 21.5497 25.314V14.1941L25.4791 10.2157C25.48 10.2157 25.48 10.2148 25.48 10.2148L26.5389 9.14181C27.1759 8.49767 27.1498 7.42169 26.4798 6.74423ZM4.50317 4.55895L7.60948 1.41386V6.84675C7.60948 7.3196 7.22979 7.70446 6.76234 7.70446H1.39685L4.50317 4.55895ZM20.7317 25.314C20.7317 25.7869 20.352 26.1718 19.8846 26.1718H1.66517C1.19814 26.1718 0.818029 25.7873 0.818029 25.314V8.5327H6.76234C7.68036 8.5327 8.42751 7.77665 8.42751 6.84675V0.827385H19.8841C20.3512 0.827385 20.7313 1.21267 20.7313 1.68595V8.95344L11.4937 18.3071C11.4452 18.3554 11.4098 18.4165 11.39 18.4831L10.3821 21.952C10.3399 22.0972 10.3796 22.2548 10.485 22.3616C10.5627 22.4411 10.6673 22.4833 10.7744 22.4833C10.8132 22.4833 10.8521 22.4774 10.8896 22.4658L14.3166 21.4454C14.3824 21.4262 14.4419 21.3903 14.4904 21.3411L20.7313 15.0224L20.7317 25.314ZM12.0502 19.1482L13.6593 20.7782L11.3794 21.4573L12.0502 19.1482ZM20.8553 13.726C20.8528 13.7277 20.8511 13.7302 20.8485 13.7319L14.3528 20.3092L12.513 18.4455L22.7715 8.05899L23.4026 8.69801L21.2848 10.8414C21.1249 11.0033 21.1249 11.266 21.2848 11.4271C21.3645 11.5078 21.4696 11.5488 21.5742 11.5488C21.6788 11.5488 21.7834 11.5078 21.8636 11.4271L23.9814 9.28363L24.6117 9.92264L20.8553 13.726ZM25.9605 8.55619L25.1901 9.33702L23.3503 7.47337L24.1207 6.6934C24.4379 6.37219 24.9817 6.3991 25.3319 6.75363L25.9014 7.33028C26.2516 7.68438 26.2786 8.23498 25.9605 8.55619Z" fill="url(#paint1_linear_4933_4432)"/>
<defs>
<linearGradient id="paint0_linear_4933_4432" x1="10.6004" y1="2.41016" x2="10.6004" y2="27.2441" gradientUnits="userSpaceOnUse">
<stop stop-color="#00C7BB"/>
<stop offset="1" stop-color="#FF0000"/>
</linearGradient>
<linearGradient id="paint1_linear_4933_4432" x1="13.5" y1="0" x2="13.5" y2="38.8125" gradientUnits="userSpaceOnUse">
<stop stop-color="#00C7BB"/>
<stop offset="1" stop-color="#FF0000"/>
</linearGradient>
</defs>
</svg>
