<svg width="74" height="72" viewBox="0 0 74 72" fill="none" xmlns="http://www.w3.org/2000/svg">
<path fill-rule="evenodd" clip-rule="evenodd" d="M47.3303 69.2891C53.8832 67.302 59.708 63.4631 64.0578 58.235C68.8534 52.471 71.594 45.3335 71.8637 37.9072C72.1335 30.481 69.9176 23.1713 65.5524 17.089C61.1872 11.0067 54.9111 6.48412 47.6774 4.20935C40.4438 1.93455 32.6487 2.0321 25.4769 4.48716C18.3052 6.94219 12.1494 11.6203 7.94468 17.8098C3.73999 23.9993 1.71598 31.362 2.17982 38.7791C2.60053 45.5065 5.04708 51.9456 9.18811 57.2949L9.47781 57.052C5.39226 51.7649 2.978 45.4035 2.56235 38.757C2.10343 31.4184 4.10608 24.1342 8.26549 18.0114C12.4249 11.8886 18.5134 7.26213 25.6054 4.83442C32.6973 2.4067 40.4053 2.31025 47.5584 4.55968C54.7115 6.80914 60.9189 11.2817 65.237 17.2984C69.5552 23.3151 71.7476 30.5468 71.4807 37.8944C71.2139 45.242 68.5023 52.3031 63.7586 58.0047C59.4616 63.1694 53.7101 66.9627 47.2405 68.9299L47.3303 69.2891ZM47.8345 71.3044C54.8333 69.2078 61.0561 65.1213 65.6966 59.5438C70.7832 53.43 73.6905 45.8588 73.9767 37.9809C74.2628 30.103 71.9121 22.3491 67.2819 15.8975C62.6517 9.44595 55.995 4.64947 48.3236 2.237C40.6522 -0.175464 32.3854 -0.0720174 24.7795 2.53163C17.1737 5.13528 10.6446 10.0968 6.18462 16.6621C1.7246 23.2274 -0.422535 31.0376 0.0694991 38.9058C0.518359 46.0833 3.141 52.951 7.57932 58.6442C7.984 59.1633 8.40379 59.6727 8.8384 60.1716C8.86246 60.1992 8.88655 60.2268 8.9107 60.2544L12.4119 57.3179C12.3908 57.2939 12.3697 57.2698 12.3487 57.2457C7.79584 52.0191 5.1014 45.4861 4.67266 38.6303C4.24195 31.7428 6.12146 24.9061 10.0256 19.1591C13.9297 13.4121 19.6449 9.06905 26.3027 6.78994C32.9606 4.51082 40.197 4.42027 46.9122 6.53203C53.6275 8.6438 59.4544 12.8424 63.5075 18.4899C67.5606 24.1373 69.6183 30.9247 69.3678 37.8207C69.1173 44.7167 66.5724 51.3441 62.1198 56.6959C57.6768 62.036 51.5768 65.8147 44.7434 67.4606C44.7285 67.4642 44.7136 67.4678 44.6988 67.4713L45.795 71.8535C45.8117 71.8495 45.8285 71.8455 45.8452 71.8415C46.5147 71.6802 47.178 71.5011 47.8345 71.3044Z" fill="#E5DE29"/>
</svg>
