<svg width="25" height="25" viewBox="0 0 25 25" fill="none" xmlns="http://www.w3.org/2000/svg">
<path d="M9.45343 5.86703H9.78742V10.3893C9.78742 10.6009 9.95696 10.7725 10.1659 10.7725H16.3407C16.5496 10.7725 16.7192 10.6009 16.7192 10.3893V5.86703H17.0532C17.2164 5.86703 17.3614 5.76182 17.4125 5.6052C17.4645 5.44858 17.411 5.27535 17.2805 5.17647L13.4969 2.30984C13.3617 2.2078 13.1781 2.20701 13.0437 2.30905L9.22726 5.17568C9.09601 5.27456 9.04249 5.447 9.09366 5.60441C9.14523 5.76103 9.29015 5.86703 9.45343 5.86703ZM13.8144 10.0048H12.7609V8.66682C12.7609 8.37415 12.998 8.13526 13.2898 8.13526C13.4285 8.13526 13.559 8.19024 13.6613 8.29267C13.7582 8.38918 13.8148 8.52523 13.8148 8.66643L13.8144 10.0048ZM13.2691 3.09531L15.9149 5.09974H10.6003L13.2691 3.09531ZM10.5452 5.86703H15.9614V10.0052H14.5719V8.66722C14.5719 8.32036 14.4324 7.98418 14.1926 7.74806C13.9508 7.50324 13.6305 7.36877 13.289 7.36877C12.5797 7.36877 12.0027 7.95135 12.0027 8.66722V10.0052H10.5452V5.86703ZM2.57559 12.8833H9.45343C9.66242 12.8833 9.83274 12.7117 9.83274 12.5001C9.83274 12.2885 9.66242 12.116 9.45343 12.116H2.57559C2.3666 12.116 2.19629 12.2885 2.19629 12.5001C2.19629 12.7117 2.3666 12.8833 2.57559 12.8833ZM2.57559 15.5562H9.45343C9.66242 15.5562 9.83274 15.3845 9.83274 15.1721C9.83274 14.9605 9.66242 14.7889 9.45343 14.7889H2.57559C2.3666 14.7889 2.19629 14.9605 2.19629 15.1721C2.19629 15.3845 2.3666 15.5562 2.57559 15.5562ZM9.83274 17.845C9.83274 17.6334 9.66242 17.4617 9.45343 17.4617H2.57559C2.3666 17.4617 2.19629 17.6334 2.19629 17.845C2.19629 18.0573 2.3666 18.229 2.57559 18.229H9.45343C9.66242 18.2286 9.83274 18.0573 9.83274 17.845Z" fill="#636363"/>
<path d="M24.5184 6.24466L23.991 5.71073C23.3715 5.08424 22.3879 5.05893 21.7984 5.65496L19.9534 7.52294V1.56107C19.9534 0.699652 19.2616 0 18.4116 0H7.42512C7.41731 0 7.41145 0.00316405 7.40363 0.00395507C7.36848 0.0055371 7.3341 0.0122607 7.30051 0.0249169C7.28996 0.028872 7.27902 0.031245 7.26926 0.0363866C7.22824 0.0549755 7.18918 0.0787059 7.15715 0.111928L0.110549 7.24648C0.0777356 7.27891 0.055079 7.31728 0.0367193 7.35841C0.0312505 7.36988 0.0285161 7.38253 0.0238285 7.39479C0.0132815 7.42723 0.00703136 7.45966 0.00468757 7.49288C0.00390631 7.50119 0 7.5091 0 7.5174V23.4389C0 24.3003 0.691417 25 1.54182 25H18.4116C19.2616 25 19.9534 24.3 19.9534 23.4389V13.1427L23.5918 9.45895C23.5926 9.45895 23.5926 9.45815 23.5926 9.45815L24.573 8.46464C25.1629 7.86822 25.1387 6.87193 24.5184 6.24466ZM4.1696 4.22125L7.04582 1.30913V6.33958C7.04582 6.77741 6.69425 7.13376 6.26143 7.13376H1.29338L4.1696 4.22125ZM19.196 23.4389C19.196 23.8768 18.8444 24.2331 18.4116 24.2331H1.54182C1.10939 24.2331 0.757434 23.8772 0.757434 23.4389V7.90065H6.26143C7.11144 7.90065 7.80325 7.2006 7.80325 6.33958V0.766097H18.4112C18.8437 0.766097 19.1956 1.12284 19.1956 1.56107V8.29022L10.6424 16.951C10.5974 16.9957 10.5646 17.0523 10.5463 17.114L9.61304 20.3259C9.57398 20.4604 9.6107 20.6063 9.70836 20.7052C9.78023 20.7788 9.87711 20.8179 9.97633 20.8179C10.0123 20.8179 10.0482 20.8124 10.083 20.8017L13.2561 19.8568C13.317 19.839 13.3721 19.8058 13.417 19.7603L19.1956 13.9096L19.196 23.4389ZM11.1576 17.7298L12.6475 19.239L10.5365 19.8679L11.1576 17.7298ZM19.3105 12.7092C19.3081 12.7108 19.3066 12.7132 19.3042 12.7148L13.2897 18.8048L11.5861 17.0792L21.0847 7.46203L21.6691 8.05371L19.7081 10.0384C19.5601 10.1883 19.5601 10.4315 19.7081 10.5806C19.782 10.6554 19.8792 10.6933 19.9761 10.6933C20.073 10.6933 20.1699 10.6554 20.2441 10.5806L22.205 8.59595L22.7886 9.18763L19.3105 12.7092ZM24.0375 7.9224L23.3242 8.64539L21.6207 6.91979L22.334 6.1976C22.6277 5.90017 23.1312 5.92509 23.4555 6.25336L23.9828 6.7873C24.307 7.11517 24.332 7.62498 24.0375 7.9224Z" fill="#636363"/>
</svg>
