<svg width="28" height="28" viewBox="0 0 28 28" fill="none" xmlns="http://www.w3.org/2000/svg">
<path d="M2.2998 26.9998V13.9998C2.2998 11.5485 2.2998 10.3228 3.06133 9.56133C3.82285 8.7998 5.0485 8.7998 7.4998 8.7998C9.95111 8.7998 11.1768 8.7998 11.9383 9.56133C12.6998 10.3228 12.6998 11.5485 12.6998 13.9998" stroke="url(#paint0_linear_5864_4472)" stroke-width="1.7"/>
<path d="M25.6998 27V8.50362C25.6998 6.76052 25.6998 5.88897 25.2368 5.22087C24.7738 4.55277 23.9578 4.24675 22.3256 3.63471C19.1338 2.43777 17.5379 1.83931 16.4189 2.61481C15.2998 3.39031 15.2998 5.09475 15.2998 8.50362V14" stroke="url(#paint1_linear_5864_4472)" stroke-width="1.7"/>
<path d="M3.59961 8.8V6.85C3.59961 5.62435 3.59961 5.01152 3.98037 4.63076C4.36113 4.25 4.97396 4.25 6.19961 4.25H8.79961C10.0253 4.25 10.6381 4.25 11.0188 4.63076C11.3996 5.01152 11.3996 5.62435 11.3996 6.85V8.8" stroke="#AF3E3B" stroke-width="1.7" stroke-linecap="round"/>
<path d="M7.5 3.6V1" stroke="#AF3E3B" stroke-width="1.7" stroke-linecap="round"/>
<path d="M27 27L1 27" stroke="#0FBBB0" stroke-width="1.7" stroke-linecap="round"/>
<path d="M11.4004 17.8999H16.6004" stroke="url(#paint2_linear_5864_4472)" stroke-width="1.7" stroke-linecap="round"/>
<path d="M11.4004 21.7998H16.6004" stroke="url(#paint3_linear_5864_4472)" stroke-width="1.7" stroke-linecap="round"/>
<path d="M20.5 27V19.2C20.5 16.7487 20.5 15.523 19.7385 14.7615C18.977 14 17.7513 14 15.3 14H12.7C10.2487 14 9.02304 14 8.26152 14.7615C7.5 15.523 7.5 16.7487 7.5 19.2V27" stroke="url(#paint4_linear_5864_4472)" stroke-width="1.7"/>
<defs>
<linearGradient id="paint0_linear_5864_4472" x1="7.4998" y1="8.7998" x2="7.4998" y2="26.9998" gradientUnits="userSpaceOnUse">
<stop stop-color="#AF3E3B"/>
<stop offset="1" stop-color="#03C5B9"/>
</linearGradient>
<linearGradient id="paint1_linear_5864_4472" x1="20.4998" y1="2.2666" x2="20.4998" y2="27" gradientUnits="userSpaceOnUse">
<stop stop-color="#AF3E3B"/>
<stop offset="1" stop-color="#03C5B9"/>
</linearGradient>
<linearGradient id="paint2_linear_5864_4472" x1="14.0004" y1="17.8999" x2="14.0004" y2="18.8999" gradientUnits="userSpaceOnUse">
<stop stop-color="#AF3E3B"/>
<stop offset="1" stop-color="#03C5B9"/>
</linearGradient>
<linearGradient id="paint3_linear_5864_4472" x1="14.0004" y1="21.7998" x2="14.0004" y2="22.7998" gradientUnits="userSpaceOnUse">
<stop stop-color="#AF3E3B"/>
<stop offset="1" stop-color="#03C5B9"/>
</linearGradient>
<linearGradient id="paint4_linear_5864_4472" x1="14" y1="14" x2="14" y2="27" gradientUnits="userSpaceOnUse">
<stop stop-color="#AF3E3B"/>
<stop offset="1" stop-color="#03C5B9"/>
</linearGradient>
</defs>
</svg>
