<svg width="22" height="29" viewBox="0 0 22 29" fill="none" xmlns="http://www.w3.org/2000/svg">
<path d="M1.38395 29.001C1.50029 29.001 1.61186 28.9541 1.69412 28.8708C1.77638 28.7874 1.8226 28.6743 1.8226 28.5564V23.6461C1.8226 22.6743 2.33405 21.7586 3.15694 21.2589L6.59063 19.1705L8.47504 21.5576C8.51366 21.6064 8.56197 21.6464 8.61683 21.6751C8.67169 21.7037 8.73188 21.7203 8.79349 21.7239L8.81806 21.7248C8.93386 21.7248 9.04615 21.6785 9.12861 21.595L10.1577 20.5521V28.5564C10.1577 28.6743 10.2039 28.7874 10.2861 28.8708C10.3684 28.9541 10.48 29.001 10.5963 29.001C10.7126 29.001 10.8242 28.9541 10.9065 28.8708C10.9887 28.7874 11.035 28.6743 11.035 28.5564V19.6692L11.0341 19.6639L11.4727 19.2185L11.9122 19.6639L11.9114 19.6692V28.5564C11.9114 28.6743 11.9576 28.7874 12.0398 28.8708C12.1221 28.9541 12.2337 29.001 12.35 29.001C12.4663 29.001 12.5779 28.9541 12.6602 28.8708C12.7424 28.7874 12.7886 28.6743 12.7886 28.5564V20.5521L13.8177 21.595C13.8585 21.6362 13.9069 21.6689 13.9602 21.6912C14.0135 21.7135 14.0706 21.7249 14.1283 21.7248L14.1528 21.7239C14.2144 21.7203 14.2746 21.7037 14.3295 21.6751C14.3843 21.6464 14.4326 21.6064 14.4713 21.5576L16.3557 19.1705L19.7902 21.2589C20.1957 21.5076 20.5313 21.8578 20.7646 22.2758C20.998 22.6939 21.1213 23.1658 21.1228 23.6461V28.5564C21.1228 28.6743 21.169 28.7874 21.2513 28.8708C21.3336 28.9541 21.4451 29.001 21.5615 29.001C21.6778 29.001 21.7894 28.9541 21.8716 28.8708C21.9539 28.7874 22.0001 28.6743 22.0001 28.5564V23.6461C22.0001 22.3631 21.3255 21.1567 20.2403 20.497L16.5329 18.2431L15.1433 16.6784C15.0854 16.6157 15.0106 16.5718 14.9281 16.5522C14.8457 16.5326 14.7594 16.5381 14.6801 16.5681V14.9918C15.3665 14.4825 15.925 13.8165 16.3101 13.0477C16.6953 12.2789 16.8963 11.429 16.897 10.5669V8.47218L17.5804 4.6127C17.6442 4.26165 17.6381 3.90119 17.5623 3.55258C17.4865 3.20397 17.3426 2.87427 17.1391 2.58293C16.9373 2.29033 16.6797 2.04165 16.3815 1.85154C16.0833 1.66143 15.7506 1.53375 15.4029 1.47603L10.1761 0.593179C9.80191 0.529943 9.41862 0.550077 9.05289 0.652181C8.68716 0.754285 8.34777 0.935907 8.05833 1.18442C7.56452 1.60924 7.24508 2.20566 7.16262 2.85677C6.64502 2.95457 6.17655 3.23463 5.8388 3.65783C5.62907 3.91974 5.47999 4.22601 5.40256 4.55406C5.32513 4.88211 5.32131 5.2236 5.39139 5.55334L6.03707 8.61621C6.03794 8.62244 6.04233 8.6251 6.04321 8.62955V10.566C6.04321 12.3806 6.91874 13.9889 8.2601 14.9909V16.5663C8.18123 16.5378 8.09586 16.533 8.01439 16.5528C7.93292 16.5725 7.85887 16.6158 7.80128 16.6775L6.41254 18.2414L2.70514 20.4961C2.16969 20.8239 1.72653 21.2859 1.41831 21.8376C1.1101 22.3893 0.947202 23.0121 0.945312 23.6461V28.5564C0.945312 28.6743 0.991527 28.7874 1.07379 28.8708C1.15605 28.9541 1.26762 29.001 1.38395 29.001ZM15.6767 18.6068L14.0914 20.6152L12.2219 18.7206L14.7108 17.5194L15.6767 18.6068ZM6.52045 4.21795C6.64718 4.05845 6.80767 3.92986 6.99004 3.84168C7.17241 3.7535 7.372 3.70799 7.57407 3.70851C7.8162 3.70851 8.01271 3.44978 8.01271 3.2044C8.01225 2.97352 8.05676 2.74481 8.14371 2.53141C8.23065 2.318 8.35831 2.12408 8.51936 1.96078C8.68041 1.79748 8.87169 1.66801 9.08222 1.57979C9.29276 1.49157 9.5184 1.44634 9.74622 1.44669C9.84204 1.44677 9.93769 1.4548 10.0322 1.4707L15.2591 2.35355C15.7328 2.43357 16.1451 2.69674 16.4215 3.09415C16.6978 3.49246 16.8031 3.97523 16.7162 4.45444L16.1697 7.54043L15.2345 6.46642V5.51067C15.2345 5.39277 15.1883 5.2797 15.106 5.19633C15.0238 5.11296 14.9122 5.06613 14.7959 5.06613H8.1443C8.02797 5.06613 7.9164 5.11296 7.83414 5.19633C7.75187 5.2797 7.70566 5.39277 7.70566 5.51067V6.46376L6.71433 7.57955L6.24849 5.36841C6.1634 4.96122 6.26253 4.54157 6.52045 4.21795ZM6.92049 10.566V8.67667L8.47065 6.93141C8.54308 6.84994 8.58309 6.74412 8.58294 6.63446V5.9552H14.3572V6.63446C14.3572 6.74293 14.3958 6.84784 14.4669 6.92874L16.0197 8.71135V10.566C16.0194 11.3209 15.8362 12.0642 15.4862 12.7306C15.1362 13.397 14.6302 13.9662 14.0125 14.3881L14.0107 14.389C13.7955 14.5327 13.5686 14.6576 13.3326 14.7624C13.2247 14.8113 13.1124 14.8495 13.0009 14.8895C12.7356 14.9857 12.4622 15.0574 12.1842 15.1038C12.1035 15.1171 12.021 15.1207 11.9394 15.1287C11.6267 15.1607 11.3117 15.1607 10.999 15.1287C10.9183 15.1198 10.8358 15.1171 10.756 15.1038C10.4785 15.0573 10.2058 14.9856 9.94098 14.8895C9.82869 14.8495 9.71552 14.8104 9.60586 14.7615C9.37105 14.6571 9.14537 14.5328 8.93122 14.3899L8.92508 14.3863C8.30811 13.9643 7.80272 13.3953 7.45323 12.7292C7.10374 12.0631 6.92081 11.3203 6.92049 10.566ZM9.59094 15.7191C9.6427 15.7377 9.69271 15.7591 9.74447 15.776C10.3003 15.9669 10.8832 16.0648 11.4701 16.0658C12.0567 16.0648 12.6393 15.967 13.1948 15.776C13.2475 15.7582 13.2983 15.7377 13.351 15.7182C13.4712 15.6728 13.5905 15.6248 13.7072 15.5715C13.7387 15.5572 13.7721 15.5466 13.8037 15.5315V16.9718L11.4727 18.0973L9.13739 16.97V15.5323C9.16809 15.5475 9.20055 15.5572 9.23126 15.5715C9.34881 15.6248 9.469 15.6737 9.59094 15.7191ZM8.23466 17.5194L10.7235 18.7206L8.85402 20.6152L7.26877 18.6068L8.23466 17.5194Z" fill="url(#paint0_linear_5864_14006)"/>
<path d="M5.7498 29.0005C5.86656 29.0005 5.97854 28.9538 6.06111 28.8705C6.14367 28.7872 6.19006 28.6743 6.19006 28.5565V26.4764C6.19096 25.5606 5.85132 24.6776 5.23821 24.0021L4.57166 23.2658C4.53263 23.2227 4.48558 23.1878 4.43317 23.163C4.38076 23.1383 4.32404 23.1242 4.26623 23.1215C4.20843 23.1189 4.15067 23.1278 4.09626 23.1477C4.04185 23.1675 3.99186 23.198 3.94913 23.2374C3.90641 23.2767 3.87179 23.3242 3.84725 23.3771C3.82271 23.4299 3.80873 23.4871 3.80611 23.5455C3.8035 23.6038 3.81229 23.662 3.832 23.7169C3.8517 23.7718 3.88193 23.8222 3.92096 23.8653L4.58751 24.6016C5.05249 25.1133 5.31016 25.7823 5.30954 26.4764V28.5565C5.30954 28.6743 5.35592 28.7872 5.43848 28.8705C5.52105 28.9538 5.63303 29.0005 5.7498 29.0005ZM18.3747 23.2658L17.7081 24.003C17.0951 24.6782 16.7554 25.5608 16.7563 26.4764V28.5565C16.7563 28.6743 16.8027 28.7872 16.8852 28.8705C16.9678 28.9538 17.0798 29.0005 17.1966 29.0005C17.3133 29.0005 17.4253 28.9538 17.5079 28.8705C17.5904 28.7872 17.6368 28.6743 17.6368 28.5565V26.4764C17.6368 25.781 17.893 25.1149 18.358 24.6016L19.0245 23.8653C19.0635 23.8223 19.0938 23.7719 19.1135 23.7171C19.1332 23.6622 19.1421 23.604 19.1395 23.5458C19.1369 23.4875 19.123 23.4303 19.0985 23.3775C19.074 23.3246 19.0394 23.2772 18.9968 23.2378C18.9541 23.1985 18.9042 23.168 18.8498 23.1481C18.7955 23.1282 18.7378 23.1193 18.68 23.1219C18.6222 23.1245 18.5655 23.1385 18.5131 23.1632C18.4608 23.1879 18.4137 23.2228 18.3747 23.2658Z" fill="url(#paint1_linear_5864_14006)"/>
<path d="M1.38395 28.4448C1.50029 28.4448 1.61186 28.398 1.69412 28.3146C1.77638 28.2313 1.8226 28.1182 1.8226 28.0003V23.0899C1.8226 22.1182 2.33405 21.2024 3.15694 20.7027L6.59063 18.6143L8.47504 21.0015C8.51366 21.0502 8.56197 21.0903 8.61683 21.1189C8.67169 21.1475 8.73188 21.1642 8.79349 21.1677L8.81806 21.1686C8.93386 21.1686 9.04615 21.1224 9.12861 21.0388L10.1577 19.9959V28.0003C10.1577 28.1182 10.2039 28.2313 10.2861 28.3146C10.3684 28.398 10.48 28.4448 10.5963 28.4448C10.7126 28.4448 10.8242 28.398 10.9065 28.3146C10.9887 28.2313 11.035 28.1182 11.035 28.0003V19.1131L11.0341 19.1077L11.4727 18.6623L11.9122 19.1077L11.9114 19.1131V28.0003C11.9114 28.1182 11.9576 28.2313 12.0398 28.3146C12.1221 28.398 12.2337 28.4448 12.35 28.4448C12.4663 28.4448 12.5779 28.398 12.6602 28.3146C12.7424 28.2313 12.7886 28.1182 12.7886 28.0003V19.9959L13.8177 21.0388C13.8585 21.0801 13.9069 21.1128 13.9602 21.135C14.0135 21.1573 14.0706 21.1687 14.1283 21.1686L14.1528 21.1677C14.2144 21.1642 14.2746 21.1475 14.3295 21.1189C14.3843 21.0903 14.4326 21.0502 14.4713 21.0015L16.3557 18.6143L19.7902 20.7027C20.1957 20.9514 20.5313 21.3016 20.7646 21.7197C20.998 22.1377 21.1213 22.6096 21.1228 23.0899V28.0003C21.1228 28.1182 21.169 28.2313 21.2513 28.3146C21.3336 28.398 21.4451 28.4448 21.5615 28.4448C21.6778 28.4448 21.7894 28.398 21.8716 28.3146C21.9539 28.2313 22.0001 28.1182 22.0001 28.0003V23.0899C22.0001 21.807 21.3255 20.6005 20.2403 19.9408L16.5329 17.687L15.1433 16.1222C15.0854 16.0596 15.0106 16.0157 14.9281 15.996C14.8457 15.9764 14.7594 15.982 14.6801 16.012V14.4356C15.3665 13.9263 15.925 13.2603 16.3101 12.4916C16.6953 11.7228 16.8963 10.8729 16.897 10.0107V7.91603L17.5804 4.05655C17.6442 3.7055 17.6381 3.34504 17.5623 2.99643C17.4865 2.64782 17.3426 2.31812 17.1391 2.02678C16.9373 1.73418 16.6797 1.48549 16.3815 1.29539C16.0833 1.10528 15.7506 0.977602 15.4029 0.919881L10.1761 0.0370271C9.80191 -0.0262095 9.41862 -0.00607563 9.05289 0.0960283C8.68716 0.198132 8.34777 0.379755 8.05833 0.628264C7.56452 1.05309 7.24508 1.64951 7.16262 2.30062C6.64502 2.39842 6.17655 2.67848 5.8388 3.10168C5.62907 3.36359 5.47999 3.66986 5.40256 3.99791C5.32513 4.32596 5.32131 4.66744 5.39139 4.99719L6.03707 8.06006C6.03794 8.06629 6.04233 8.06895 6.04321 8.0734V10.0098C6.04321 11.8244 6.91874 13.4328 8.2601 14.4347V16.0102C8.18123 15.9816 8.09586 15.9769 8.01439 15.9966C7.93292 16.0163 7.85887 16.0597 7.80128 16.1213L6.41254 17.6852L2.70514 19.9399C2.16969 20.2677 1.72653 20.7297 1.41831 21.2814C1.1101 21.8331 0.947202 22.4559 0.945312 23.0899V28.0003C0.945312 28.1182 0.991527 28.2313 1.07379 28.3146C1.15605 28.398 1.26762 28.4448 1.38395 28.4448ZM15.6767 18.0506L14.0914 20.059L12.2219 18.1644L14.7108 16.9633L15.6767 18.0506ZM6.52045 3.6618C6.64718 3.5023 6.80767 3.37371 6.99004 3.28553C7.17241 3.19735 7.372 3.15184 7.57407 3.15235C7.8162 3.15235 8.01271 2.89363 8.01271 2.64825C8.01225 2.41737 8.05676 2.18866 8.14371 1.97525C8.23065 1.76185 8.35831 1.56793 8.51936 1.40463C8.68041 1.24133 8.87169 1.11186 9.08222 1.02364C9.29276 0.935421 9.5184 0.89019 9.74622 0.890541C9.84204 0.890615 9.93769 0.898644 10.0322 0.914547L15.2591 1.7974C15.7328 1.87742 16.1451 2.14058 16.4215 2.538C16.6978 2.93631 16.8031 3.41908 16.7162 3.89829L16.1697 6.98428L15.2345 5.91027V4.95451C15.2345 4.83661 15.1883 4.72354 15.106 4.64018C15.0238 4.55681 14.9122 4.50997 14.7959 4.50997H8.1443C8.02797 4.50997 7.9164 4.55681 7.83414 4.64018C7.75187 4.72354 7.70566 4.83661 7.70566 4.95451V5.9076L6.71433 7.0234L6.24849 4.81226C6.1634 4.40506 6.26253 3.98542 6.52045 3.6618ZM6.92049 10.0098V8.12052L8.47065 6.37526C8.54308 6.29378 8.58309 6.18797 8.58294 6.07831V5.39905H14.3572V6.07831C14.3572 6.18678 14.3958 6.29169 14.4669 6.37259L16.0197 8.15519V10.0098C16.0194 10.7647 15.8362 11.508 15.4862 12.1745C15.1362 12.8409 14.6302 13.41 14.0125 13.832L14.0107 13.8328C13.7955 13.9765 13.5686 14.1015 13.3326 14.2063C13.2247 14.2552 13.1124 14.2934 13.0009 14.3334C12.7356 14.4295 12.4622 14.5012 12.1842 14.5477C12.1035 14.561 12.021 14.5646 11.9394 14.5726C11.6267 14.6046 11.3117 14.6046 10.999 14.5726C10.9183 14.5637 10.8358 14.561 10.756 14.5477C10.4785 14.5011 10.2058 14.4294 9.94098 14.3334C9.82869 14.2934 9.71552 14.2543 9.60586 14.2054C9.37105 14.101 9.14537 13.9766 8.93122 13.8337L8.92508 13.8302C8.30811 13.4081 7.80272 12.8391 7.45323 12.173C7.10374 11.507 6.92081 10.7642 6.92049 10.0098ZM9.59094 15.1629C9.6427 15.1816 9.69271 15.2029 9.74447 15.2198C10.3003 15.4107 10.8832 15.5086 11.4701 15.5096C12.0567 15.5087 12.6393 15.4108 13.1948 15.2198C13.2475 15.202 13.2983 15.1816 13.351 15.162C13.4712 15.1167 13.5905 15.0687 13.7072 15.0153C13.7387 15.0011 13.7721 14.9904 13.8037 14.9753V16.4156L11.4727 17.5412L9.13739 16.4138V14.9762C9.16809 14.9913 9.20055 15.0011 9.23126 15.0153C9.34881 15.0687 9.469 15.1176 9.59094 15.1629ZM8.23466 16.9633L10.7235 18.1644L8.85402 20.059L7.26877 18.0506L8.23466 16.9633Z" fill="url(#paint2_linear_5864_14006)"/>
<defs>
<linearGradient id="paint0_linear_5864_14006" x1="11.4727" y1="0.557129" x2="11.4727" y2="29.001" gradientUnits="userSpaceOnUse">
<stop stop-color="#1A8E48"/>
<stop offset="1" stop-color="#303030"/>
</linearGradient>
<linearGradient id="paint1_linear_5864_14006" x1="11.4728" y1="23.1211" x2="11.4728" y2="29.0005" gradientUnits="userSpaceOnUse">
<stop stop-color="#1A8E48"/>
<stop offset="1" stop-color="#303030"/>
</linearGradient>
<linearGradient id="paint2_linear_5864_14006" x1="11.4727" y1="0.000976563" x2="11.4727" y2="28.4448" gradientUnits="userSpaceOnUse">
<stop stop-color="#1A8E48"/>
<stop offset="1" stop-color="#303030"/>
</linearGradient>
</defs>
</svg>
