<svg width="20" height="27" viewBox="0 0 20 27" fill="none" xmlns="http://www.w3.org/2000/svg">
<path d="M0.416667 27.0005C0.527174 27.0005 0.633154 26.9561 0.711294 26.8769C0.789435 26.7978 0.833333 26.6905 0.833333 26.5786V21.9175C0.833333 20.9951 1.31917 20.1258 2.10083 19.6516L5.3625 17.6692L7.1525 19.9351C7.18919 19.9814 7.23508 20.0194 7.28719 20.0466C7.3393 20.0738 7.39647 20.0896 7.455 20.0929L7.47833 20.0938C7.58833 20.0938 7.695 20.0499 7.77333 19.9706L8.75083 18.9806V26.5786C8.75083 26.6905 8.79473 26.7978 8.87287 26.8769C8.95101 26.9561 9.05699 27.0005 9.1675 27.0005C9.27801 27.0005 9.38399 26.9561 9.46213 26.8769C9.54027 26.7978 9.58417 26.6905 9.58417 26.5786V18.1426L9.58333 18.1375L10 17.7147L10.4175 18.1375L10.4167 18.1426V26.5786C10.4167 26.6905 10.4606 26.7978 10.5387 26.8769C10.6168 26.9561 10.7228 27.0005 10.8333 27.0005C10.9438 27.0005 11.0498 26.9561 11.128 26.8769C11.2061 26.7978 11.25 26.6905 11.25 26.5786V18.9806L12.2275 19.9706C12.2663 20.0097 12.3123 20.0408 12.3629 20.0619C12.4135 20.083 12.4677 20.0939 12.5225 20.0938L12.5458 20.0929C12.6044 20.0896 12.6615 20.0738 12.7136 20.0466C12.7658 20.0194 12.8116 19.9814 12.8483 19.9351L14.6383 17.6692L17.9008 19.6516C18.286 19.8876 18.6047 20.22 18.8264 20.6169C19.0481 21.0137 19.1653 21.4616 19.1667 21.9175V26.5786C19.1667 26.6905 19.2106 26.7978 19.2887 26.8769C19.3668 26.9561 19.4728 27.0005 19.5833 27.0005C19.6938 27.0005 19.7998 26.9561 19.878 26.8769C19.9561 26.7978 20 26.6905 20 26.5786V21.9175C20 20.6997 19.3592 19.5545 18.3283 18.9283L14.8067 16.7889L13.4867 15.3036C13.4317 15.2441 13.3606 15.2025 13.2823 15.1839C13.204 15.1652 13.122 15.1705 13.0467 15.199V13.7027C13.6987 13.2192 14.2292 12.5871 14.595 11.8573C14.9609 11.1276 15.1519 10.3208 15.1525 9.50243V7.51412L15.8017 3.85061C15.8624 3.51739 15.8565 3.17523 15.7845 2.84432C15.7125 2.51342 15.5758 2.20046 15.3825 1.92392C15.1908 1.64617 14.9461 1.41011 14.6628 1.22966C14.3796 1.04921 14.0636 0.928012 13.7333 0.873221L8.76833 0.0351965C8.4129 -0.0248291 8.04881 -0.00571755 7.7014 0.0912018C7.354 0.188121 7.03161 0.360522 6.75667 0.596412C6.2876 0.999669 5.98416 1.5658 5.90583 2.18385C5.41417 2.27668 4.96917 2.54252 4.64833 2.94423C4.44911 3.19284 4.3075 3.48356 4.23395 3.79495C4.16039 4.10635 4.15677 4.43049 4.22333 4.74349L4.83667 7.65084C4.8375 7.65675 4.84167 7.65928 4.8425 7.6635V9.50159C4.8425 11.2241 5.67417 12.7507 6.94833 13.7018V15.1973C6.87341 15.1701 6.79232 15.1657 6.71493 15.1844C6.63754 15.2031 6.5672 15.2443 6.5125 15.3028L5.19333 16.7873L1.67167 18.9275C1.16304 19.2386 0.742081 19.6772 0.449304 20.2009C0.156527 20.7245 0.00179444 21.3157 0 21.9175V26.5786C0 26.6905 0.0438988 26.7978 0.122039 26.8769C0.200179 26.9561 0.30616 27.0005 0.416667 27.0005ZM13.9933 17.1341L12.4875 19.0406L10.7117 17.2421L13.0758 16.102L13.9933 17.1341ZM5.29583 3.47591C5.41622 3.32451 5.56866 3.20245 5.7419 3.11875C5.91513 3.03505 6.10473 2.99184 6.29667 2.99234C6.52667 2.99234 6.71333 2.74675 6.71333 2.51383C6.71289 2.29467 6.75518 2.07758 6.83777 1.87501C6.92035 1.67243 7.04162 1.48837 7.1946 1.33336C7.34758 1.17835 7.52928 1.05545 7.72927 0.971712C7.92925 0.887972 8.14359 0.845038 8.36 0.845372C8.45102 0.845442 8.54188 0.853063 8.63167 0.868158L13.5967 1.70618C14.0467 1.78214 14.4383 2.03194 14.7008 2.40918C14.9633 2.78726 15.0633 3.24551 14.9808 3.70039L14.4617 6.62968L13.5733 5.61021V4.70299C13.5733 4.59107 13.5294 4.48374 13.4513 4.40461C13.3732 4.32548 13.2672 4.28102 13.1567 4.28102H6.83833C6.72783 4.28102 6.62185 4.32548 6.54371 4.40461C6.46557 4.48374 6.42167 4.59107 6.42167 4.70299V5.60768L5.48 6.66682L5.0375 4.56796C4.95667 4.18144 5.05083 3.7831 5.29583 3.47591ZM5.67583 9.50159V7.70823L7.14833 6.05159C7.21713 5.97425 7.25514 5.87381 7.255 5.76972V5.12495H12.74V5.76972C12.74 5.87268 12.7767 5.97226 12.8442 6.04906L14.3192 7.74114V9.50159C14.3189 10.2182 14.1448 10.9237 13.8124 11.5563C13.48 12.1889 12.9993 12.7291 12.4125 13.1297L12.4108 13.1305C12.2064 13.2669 11.9909 13.3855 11.7667 13.4849C11.6642 13.5314 11.5575 13.5676 11.4517 13.6056C11.1996 13.6969 10.9399 13.7649 10.6758 13.809C10.5992 13.8217 10.5208 13.825 10.4433 13.8326C10.1463 13.863 9.84702 13.863 9.55 13.8326C9.47333 13.8242 9.395 13.8217 9.31917 13.809C9.05562 13.7648 8.79652 13.6968 8.545 13.6056C8.43833 13.5676 8.33083 13.5305 8.22667 13.4841C8.00362 13.385 7.78925 13.267 7.58583 13.1313L7.58 13.128C6.99393 12.7273 6.51387 12.1872 6.18188 11.555C5.8499 10.9227 5.67614 10.2177 5.67583 9.50159ZM8.2125 14.393C8.26167 14.4107 8.30917 14.431 8.35833 14.447C8.88634 14.6283 9.43998 14.7212 9.9975 14.7221C10.5547 14.7213 11.1081 14.6283 11.6358 14.447C11.6858 14.4302 11.7342 14.4107 11.7842 14.3922C11.8983 14.3491 12.0117 14.3036 12.1225 14.2529C12.1525 14.2394 12.1842 14.2293 12.2142 14.2149V15.5821L10 16.6505L7.78167 15.5804V14.2158C7.81083 14.2301 7.84167 14.2394 7.87083 14.2529C7.9825 14.3036 8.09667 14.35 8.2125 14.393ZM6.92417 16.102L9.28833 17.2421L7.5125 19.0406L6.00667 17.1341L6.92417 16.102Z" fill="url(#paint0_linear_4933_21576)"/>
<path d="M4.58311 27.0008C4.69362 27.0008 4.7996 26.9564 4.87774 26.8773C4.95588 26.7981 4.99978 26.6908 4.99978 26.5789V24.6024C5.00064 23.7321 4.67919 22.8931 4.09894 22.2512L3.46811 21.5516C3.43118 21.5106 3.38664 21.4774 3.33704 21.4539C3.28745 21.4304 3.23376 21.417 3.17905 21.4145C3.12434 21.412 3.06968 21.4204 3.01819 21.4393C2.9667 21.4582 2.91938 21.4872 2.87894 21.5246C2.83851 21.562 2.80574 21.6071 2.78252 21.6573C2.75929 21.7075 2.74607 21.7619 2.74359 21.8173C2.74111 21.8727 2.74944 21.9281 2.76809 21.9802C2.78674 22.0324 2.81534 22.0803 2.85228 22.1212L3.48311 22.8208C3.92318 23.3071 4.16703 23.9428 4.16644 24.6024V26.5789C4.16644 26.6908 4.21034 26.7981 4.28848 26.8773C4.36662 26.9564 4.4726 27.0008 4.58311 27.0008ZM16.5314 21.5516L15.9006 22.252C15.3204 22.8937 14.999 23.7324 14.9998 24.6024V26.5789C14.9998 26.6908 15.0437 26.7981 15.1218 26.8773C15.2 26.9564 15.3059 27.0008 15.4164 27.0008C15.527 27.0008 15.6329 26.9564 15.7111 26.8773C15.7892 26.7981 15.8331 26.6908 15.8331 26.5789V24.6024C15.8331 23.9416 16.0756 23.3086 16.5156 22.8208L17.1464 22.1212C17.1834 22.0803 17.212 22.0325 17.2307 21.9804C17.2493 21.9283 17.2577 21.873 17.2553 21.8176C17.2528 21.7622 17.2396 21.7079 17.2165 21.6577C17.1933 21.6075 17.1606 21.5624 17.1202 21.525C17.0798 21.4876 17.0326 21.4586 16.9811 21.4397C16.9297 21.4208 16.8751 21.4123 16.8204 21.4148C16.7657 21.4173 16.7121 21.4306 16.6625 21.4541C16.6129 21.4775 16.5684 21.5107 16.5314 21.5516Z" fill="url(#paint1_linear_4933_21576)"/>
<defs>
<linearGradient id="paint0_linear_4933_21576" x1="10" y1="0.000976562" x2="10" y2="27.0005" gradientUnits="userSpaceOnUse">
<stop stop-color="#1A8E48"/>
<stop offset="1" stop-color="#303030"/>
</linearGradient>
<linearGradient id="paint1_linear_4933_21576" x1="9.99942" y1="21.4141" x2="9.99942" y2="27.0008" gradientUnits="userSpaceOnUse">
<stop stop-color="#1A8E48"/>
<stop offset="1" stop-color="#303030"/>
</linearGradient>
</defs>
</svg>
