<svg width="27" height="28" viewBox="0 0 27 28" fill="none" xmlns="http://www.w3.org/2000/svg">
<path d="M24.8374 10.6121V9.95311C24.8366 9.38508 24.6557 8.833 24.3223 8.38158C23.989 7.93015 23.5218 7.6043 22.9922 7.45403V6.15327C23.2378 5.96294 23.4371 5.71607 23.5744 5.43221C23.7117 5.14835 23.7832 4.83531 23.7832 4.51791V2.11778C23.7826 1.57545 23.5741 1.0555 23.2033 0.672018C22.8326 0.288532 22.33 0.0728231 21.8057 0.0722167H19.0107C18.9058 0.0722167 18.8052 0.11532 18.7311 0.192043C18.6569 0.268767 18.6152 0.372826 18.6152 0.481329V4.51791C18.6153 4.83531 18.6867 5.14835 18.824 5.43221C18.9613 5.71607 19.1607 5.96294 19.4062 6.15327V7.67495C19.2803 7.75689 19.1637 7.85314 19.0585 7.96193L16.5294 10.5805H13.8518C13.6799 10.5804 13.5086 10.6024 13.3418 10.6458V10.499C13.3429 10.0643 13.2097 9.64072 12.9616 9.28996C12.7135 8.9392 12.3634 8.67967 11.9626 8.54925L10.058 7.92385C9.97788 7.89777 9.90788 7.84586 9.85827 7.77572C9.80865 7.70557 9.78201 7.62086 9.78223 7.53394V6.68637C10.0321 6.43553 10.2306 6.13534 10.3662 5.80362C10.5018 5.4719 10.5716 5.11539 10.5714 4.75525V0.68414C10.5712 0.503011 10.5016 0.329363 10.3778 0.20129C10.2539 0.0732178 10.0861 0.00117867 9.91095 0.000976562H7.07469C6.61858 0.00151075 6.1813 0.189168 5.85878 0.522779C5.53627 0.85639 5.35485 1.30871 5.35433 1.78051V4.75519C5.3542 5.11534 5.42399 5.47185 5.55956 5.80357C5.69513 6.13529 5.89372 6.43547 6.14355 6.68631V7.53389C6.14377 7.62081 6.11712 7.70553 6.06749 7.77567C6.01787 7.84582 5.94786 7.89772 5.8677 7.9238L3.9632 8.54925C3.56238 8.67965 3.21236 8.93918 2.96424 9.28993C2.71611 9.64068 2.58288 10.0643 2.58398 10.4989V12.3336H0.395508C0.290613 12.3336 0.190014 12.3767 0.115842 12.4534C0.0416695 12.5301 0 12.6342 0 12.7427L0 13.6606C0.000304145 13.9144 0.0764944 14.1618 0.218118 14.3689C0.359741 14.576 0.559859 14.7328 0.791016 14.8176V27.0842C0.791253 27.3084 0.877446 27.5233 1.03068 27.6818C1.18392 27.8403 1.39169 27.9295 1.6084 27.9297H2.76855C2.85156 27.9297 2.93246 27.9027 2.9998 27.8525C3.06714 27.8023 3.11751 27.7315 3.14376 27.65L3.75448 25.7548C3.78066 25.6733 3.83102 25.6024 3.89838 25.5522C3.96575 25.5019 4.0467 25.475 4.12973 25.4751H14.0637C14.1467 25.475 14.2276 25.502 14.295 25.5522C14.3624 25.6024 14.4127 25.6733 14.4389 25.7548L15.0495 27.65C15.0758 27.7315 15.1262 27.8023 15.1935 27.8525C15.2609 27.9027 15.3418 27.9297 15.4248 27.9297H16.585C16.8017 27.9295 17.0094 27.8403 17.1627 27.6818C17.3159 27.5233 17.4021 27.3084 17.4023 27.0842V19.5809H20.2549L21.2551 27.6439C21.2674 27.7426 21.3139 27.8333 21.3861 27.899C21.4583 27.9647 21.5512 28.001 21.6474 28.001H23.4404C23.4965 28.001 23.5519 27.9886 23.6031 27.9648C23.6542 27.9409 23.6998 27.906 23.7369 27.8625C23.7741 27.819 23.8018 27.7678 23.8183 27.7123C23.8348 27.6569 23.8398 27.5984 23.8328 27.5409L22.8657 19.5809H23.4404C24.3842 19.5798 25.2889 19.1915 25.9563 18.5012C26.6236 17.811 26.9989 16.8751 27 15.8989V13.226C26.9992 12.5954 26.781 11.9857 26.3846 11.5066C25.9882 11.0274 25.4396 10.7103 24.8374 10.6121ZM19.4062 0.890442H21.8057C22.1202 0.890803 22.4218 1.02023 22.6443 1.25032C22.8667 1.48041 22.9918 1.79238 22.9922 2.11778V2.4838L22.99 2.48522C22.7037 2.67591 22.3673 2.77016 22.0272 2.75499C21.687 2.73982 21.3597 2.61598 21.0904 2.4005L19.4205 1.06172C19.4159 1.05801 19.411 1.05491 19.4062 1.05141V0.890442ZM19.4062 2.08549L20.6058 3.04718C20.94 3.31464 21.3357 3.48769 21.754 3.54936C22.1724 3.61103 22.599 3.5592 22.9922 3.39896V4.51791C22.9918 4.84331 22.8667 5.15528 22.6443 5.38537C22.4218 5.61546 22.1202 5.74488 21.8057 5.74525H20.5928C20.2782 5.74488 19.9766 5.61546 19.7542 5.38537C19.5317 5.15528 19.4066 4.84331 19.4062 4.51791V2.08549ZM22.2012 6.52229V7.36211H20.4575C20.3705 7.36227 20.2835 7.36828 20.1973 7.38011V6.52223C20.3274 6.54966 20.4599 6.56345 20.5928 6.56342H21.8057C21.9385 6.56345 22.071 6.54971 22.2012 6.52229ZM19.6181 8.54019C19.728 8.42575 19.8588 8.33501 20.0029 8.27323C20.147 8.21146 20.3015 8.17989 20.4575 8.18034H22.3324C22.7868 8.18087 23.2224 8.36782 23.5437 8.70018C23.865 9.03253 24.0458 9.48314 24.0463 9.95316V15.2989C24.0459 15.6243 23.9208 15.9363 23.6984 16.1664C23.4759 16.3965 23.1744 16.5259 22.8598 16.5262H17.4023V14.8176C17.6335 14.7328 17.8336 14.576 17.9752 14.3689C18.1169 14.1618 18.1931 13.9144 18.1934 13.6606V12.9353C18.2593 12.8892 18.3209 12.8366 18.3772 12.7784L20.2943 10.7965C20.368 10.7197 20.4092 10.6158 20.409 10.5076C20.4088 10.3994 20.3672 10.2957 20.2933 10.2192C20.2193 10.1426 20.1191 10.0995 20.0145 10.0993C19.9099 10.099 19.8095 10.1416 19.7352 10.2177L19.111 10.863L18.2769 9.92878L19.6181 8.54019ZM13.8518 11.3986H16.6933C16.7453 11.3986 16.7968 11.388 16.8448 11.3675C16.8928 11.3469 16.9364 11.3167 16.9731 11.2787L17.7173 10.5081L18.5511 11.4419L17.818 12.1997C17.7429 12.2777 17.6433 12.3252 17.5372 12.3336H12.6129C12.6973 12.0623 12.8627 11.8257 13.0853 11.6577C13.308 11.4897 13.5763 11.399 13.8518 11.3986ZM6.14535 1.78051C6.14563 1.52564 6.24363 1.2813 6.41785 1.10108C6.59208 0.920864 6.8283 0.819491 7.07469 0.819202H9.78049V2.86902C9.45012 2.98927 9.09514 3.01822 8.75064 2.95302C8.55628 2.90882 8.36938 2.83491 8.19608 2.73374C7.96573 2.60201 7.71774 2.50642 7.46023 2.45009C7.02104 2.36763 6.56885 2.40087 6.14535 2.54675V1.78051ZM6.14535 3.4151C6.56828 3.23635 6.9583 3.18169 7.30724 3.25288C7.49345 3.29536 7.67247 3.36639 7.83839 3.4636C8.07538 3.59877 8.33035 3.69705 8.59507 3.75527C8.98787 3.83416 9.39269 3.82207 9.78043 3.71987V4.75519C9.78043 5.25382 9.58894 5.73202 9.24809 6.0846C8.90723 6.43718 8.44493 6.63526 7.96289 6.63526C7.48085 6.63526 7.01855 6.43718 6.67769 6.0846C6.33684 5.73202 6.14535 5.25382 6.14535 4.75519V3.4151ZM9.20505 8.23734C8.40773 8.56665 7.51853 8.5662 6.72152 8.23609C6.86046 8.03015 6.93483 7.78501 6.93457 7.53389V7.23463C7.25942 7.37906 7.60931 7.45354 7.96289 7.45354C8.31648 7.45354 8.66636 7.37906 8.99121 7.23463V7.53389C8.99093 7.78553 9.0656 8.03115 9.20505 8.23734ZM3.375 10.4989C3.37433 10.2381 3.45426 9.98396 3.60313 9.7735C3.752 9.56304 3.96202 9.40732 4.20251 9.32907L5.94011 8.7585C6.55827 9.11478 7.25413 9.30195 7.96178 9.30229C7.99131 9.30229 8.02116 9.30196 8.05112 9.30131C8.72909 9.28589 9.39318 9.09958 9.98578 8.75855L11.7233 9.32913C11.9637 9.40738 12.1737 9.56309 12.3226 9.77352C12.4715 9.98396 12.5514 10.2381 12.5508 10.4989V11.0517C12.1603 11.3726 11.8933 11.8271 11.7981 12.3335H10.9688V11.4186C10.9688 11.3101 10.9271 11.206 10.8529 11.1293C10.7787 11.0526 10.6781 11.0095 10.5732 11.0095C10.4683 11.0095 10.3677 11.0526 10.2936 11.1293C10.2194 11.206 10.1777 11.3101 10.1777 11.4186V12.3335H5.74805V11.4186C5.74805 11.3101 5.70638 11.206 5.63221 11.1293C5.55803 11.0526 5.45743 11.0095 5.35254 11.0095C5.24764 11.0095 5.14705 11.0526 5.07287 11.1293C4.9987 11.206 4.95703 11.3101 4.95703 11.4186V12.3335H3.375V10.4989ZM16.6113 27.0842C16.6113 27.0915 16.6085 27.0984 16.6036 27.1035C16.5987 27.1086 16.592 27.1115 16.585 27.1115H15.7099L15.1893 25.496C15.1107 25.2515 14.9597 25.0388 14.7576 24.8882C14.5555 24.7376 14.3127 24.6566 14.0636 24.6568H4.12973C3.88064 24.6566 3.63781 24.7376 3.43574 24.8882C3.23367 25.0389 3.08262 25.2516 3.00407 25.4961L2.48347 27.1115H1.6084C1.60141 27.1115 1.5947 27.1086 1.58975 27.1035C1.58481 27.0984 1.58203 27.0915 1.58203 27.0842V14.888H16.6113V27.0842ZM17.0068 14.0698H1.18652C1.08166 14.0696 0.981128 14.0265 0.906981 13.9498C0.832833 13.8731 0.791127 13.7691 0.791016 13.6606V13.1518H12.1206C12.132 13.1529 12.1436 13.1536 12.1553 13.1536H17.4023V13.6606C17.4022 13.7691 17.3605 13.8731 17.2864 13.9498C17.2122 14.0265 17.1117 14.0696 17.0068 14.0698ZM22.9921 27.1828H21.9955L21.0524 19.5809H22.0685L22.9921 27.1828ZM26.209 15.8989C26.2081 16.6581 25.9162 17.386 25.3972 17.9229C24.8781 18.4598 24.1744 18.7618 23.4404 18.7627H17.4023V17.3444H22.8598C23.3841 17.3438 23.8868 17.1281 24.2575 16.7446C24.6282 16.3611 24.8368 15.8412 24.8374 15.2988V11.4453C25.2268 11.5382 25.5744 11.7648 25.8235 12.0882C26.0725 12.4115 26.2084 12.8126 26.209 13.226V15.8989Z" fill="url(#paint0_linear_4933_20711)"/>
<defs>
<linearGradient id="paint0_linear_4933_20711" x1="13.5" y1="0.000976562" x2="13.5" y2="28.001" gradientUnits="userSpaceOnUse">
<stop stop-color="#0053F3"/>
<stop offset="1" stop-color="#303030"/>
</linearGradient>
</defs>
</svg>
