<svg width="27" height="29" viewBox="0 0 27 29" fill="none" xmlns="http://www.w3.org/2000/svg">
<path d="M24.8373 10.6524V9.99095C24.8365 9.42077 24.6556 8.86659 24.3223 8.41345C23.989 7.96031 23.5217 7.63322 22.9921 7.48237V6.17667C23.2377 5.98562 23.437 5.7378 23.5743 5.45286C23.7116 5.16793 23.7831 4.8537 23.7831 4.53509V2.12583C23.7826 1.58144 23.574 1.05951 23.2033 0.67457C22.8326 0.289626 22.3299 0.0730963 21.8056 0.0724876H19.0107C18.9058 0.0724876 18.8052 0.115754 18.731 0.19277C18.6569 0.269785 18.6152 0.37424 18.6152 0.483156V4.53509C18.6152 4.8537 18.6867 5.16793 18.824 5.45286C18.9613 5.7378 19.1606 5.98562 19.4062 6.17667V7.70413C19.2803 7.78638 19.1637 7.88301 19.0585 7.9922L16.5293 10.6207H13.8518C13.6798 10.6207 13.5085 10.6427 13.3418 10.6863V10.5389C13.3429 10.1026 13.2097 9.67738 12.9615 9.32529C12.7134 8.97319 12.3634 8.71267 11.9626 8.58176L10.058 7.95398C9.97785 7.9278 9.90786 7.8757 9.85824 7.80528C9.80863 7.73487 9.78198 7.64984 9.7822 7.56259V6.71179C10.032 6.46 10.2306 6.15867 10.3662 5.82569C10.5018 5.49271 10.5716 5.13484 10.5714 4.77333V0.686738C10.5712 0.50492 10.5016 0.330612 10.3777 0.202052C10.2539 0.0734925 10.086 0.00117944 9.91093 0.000976562H7.07467C6.61856 0.00151278 6.18128 0.189884 5.85877 0.524764C5.53625 0.859643 5.35483 1.31368 5.35432 1.78728V4.77327C5.35419 5.13479 5.42398 5.49265 5.55955 5.82563C5.69512 6.15862 5.89371 6.45994 6.14354 6.71174V7.56253C6.14376 7.64979 6.1171 7.73483 6.06748 7.80524C6.01785 7.87565 5.94785 7.92775 5.86769 7.95393L3.96319 8.58176C3.56237 8.71266 3.21235 8.97317 2.96423 9.32525C2.7161 9.67734 2.58287 10.1026 2.58398 10.5388V12.3805H0.395507C0.290612 12.3805 0.190013 12.4238 0.115841 12.5008C0.0416693 12.5778 0 12.6823 0 12.7912L0 13.7126C0.000304145 13.9673 0.0764942 14.2156 0.218117 14.4235C0.35974 14.6315 0.559857 14.7888 0.791014 14.874V27.1872C0.791251 27.4123 0.877444 27.628 1.03068 27.7871C1.18392 27.9462 1.39168 28.0357 1.60839 28.0359H2.76855C2.85155 28.0359 2.93246 28.0088 2.9998 27.9584C3.06714 27.908 3.1175 27.8369 3.14375 27.7552L3.75447 25.8527C3.78065 25.7709 3.83101 25.6997 3.89837 25.6493C3.96574 25.5989 4.04669 25.5718 4.12972 25.5719H14.0636C14.1467 25.5719 14.2276 25.5989 14.295 25.6493C14.3623 25.6998 14.4127 25.7709 14.4388 25.8527L15.0495 27.7552C15.0758 27.8369 15.1261 27.9081 15.1935 27.9585C15.2608 28.0088 15.3417 28.036 15.4248 28.0359H16.5849C16.8016 28.0357 17.0094 27.9462 17.1626 27.7871C17.3159 27.628 17.4021 27.4123 17.4023 27.1872V19.6554H20.2549L21.2551 27.749C21.2673 27.8481 21.3139 27.9391 21.3861 28.0051C21.4583 28.0711 21.5512 28.1075 21.6474 28.1075H23.4403C23.4964 28.1075 23.5519 28.0951 23.603 28.0711C23.6541 28.0471 23.6998 28.0121 23.7369 27.9685C23.774 27.9248 23.8017 27.8734 23.8183 27.8177C23.8348 27.7621 23.8397 27.7034 23.8327 27.6456L22.8656 19.6554H23.4404C24.3841 19.6543 25.2889 19.2645 25.9562 18.5716C26.6235 17.8787 26.9989 16.9392 26.9999 15.9593V13.2763C26.9991 12.6433 26.7809 12.0313 26.3845 11.5503C25.9881 11.0694 25.4395 10.751 24.8373 10.6524ZM19.4062 0.893825H21.8056C22.1202 0.894187 22.4218 1.0241 22.6442 1.25507C22.8667 1.48604 22.9918 1.79919 22.9921 2.12583V2.49324L22.9899 2.49467C22.7036 2.68609 22.3673 2.78069 22.0271 2.76547C21.6869 2.75024 21.3597 2.62592 21.0903 2.40963L19.4205 1.06576C19.4159 1.06203 19.4109 1.05891 19.4062 1.05541V0.893825ZM19.4062 2.09342L20.6057 3.05876C20.94 3.32724 21.3356 3.50095 21.754 3.56285C22.1723 3.62476 22.599 3.57273 22.9921 3.41188V4.53509C22.9918 4.86172 22.8667 5.17488 22.6442 5.40585C22.4218 5.63681 22.1202 5.76673 21.8056 5.76709H20.5927C20.2781 5.76673 19.9766 5.63681 19.7541 5.40585C19.5317 5.17488 19.4065 4.86172 19.4062 4.53509V2.09342ZM22.2011 6.54709V7.39011H20.4575C20.3704 7.39027 20.2835 7.3963 20.1972 7.40818V6.54703C20.3274 6.57456 20.4599 6.58841 20.5927 6.58837H21.8056C21.9384 6.58841 22.0709 6.57462 22.2011 6.54709ZM19.618 8.57267C19.728 8.45779 19.8588 8.3667 20.0029 8.30469C20.147 8.24269 20.3015 8.21099 20.4575 8.21145H22.3324C22.7868 8.21198 23.2224 8.39964 23.5437 8.73326C23.865 9.06688 24.0457 9.5192 24.0462 9.99101V15.3571C24.0459 15.6837 23.9208 15.9969 23.6983 16.2278C23.4759 16.4588 23.1743 16.5887 22.8597 16.5891H17.4023V14.874C17.6335 14.7888 17.8336 14.6315 17.9752 14.4235C18.1168 14.2156 18.193 13.9673 18.1933 13.7126V12.9845C18.2593 12.9382 18.3209 12.8854 18.3772 12.827L20.2942 10.8375C20.3679 10.7604 20.4092 10.6562 20.409 10.5476C20.4088 10.439 20.3671 10.3349 20.2932 10.258C20.2193 10.1812 20.119 10.1379 20.0144 10.1377C19.9099 10.1374 19.8094 10.1801 19.7351 10.2566L19.1109 10.9043L18.2768 9.96653L19.618 8.57267ZM13.8518 11.442H16.6933C16.7453 11.442 16.7967 11.4314 16.8447 11.4107C16.8927 11.39 16.9364 11.3597 16.9731 11.3216L17.7173 10.5481L18.551 11.4854L17.818 12.2461C17.7429 12.3243 17.6432 12.372 17.5371 12.3805H12.6128C12.6973 12.1082 12.8627 11.8706 13.0853 11.702C13.3079 11.5334 13.5763 11.4424 13.8518 11.442ZM6.14533 1.78728C6.14561 1.53144 6.24361 1.28617 6.41784 1.10526C6.59206 0.924362 6.82828 0.822604 7.07467 0.822314H9.78046V2.87993C9.4501 3.00063 9.09511 3.0297 8.75062 2.96425C8.55626 2.91988 8.36936 2.84569 8.19606 2.74413C7.96571 2.6119 7.71772 2.51594 7.46021 2.4594C7.02102 2.37663 6.56883 2.41 6.14533 2.55643V1.78728ZM6.14533 3.42809C6.56826 3.24865 6.95828 3.19379 7.30723 3.26524C7.49343 3.30789 7.67245 3.37919 7.83837 3.47677C8.07536 3.61245 8.33033 3.7111 8.59505 3.76954C8.98785 3.84874 9.39266 3.8366 9.78041 3.73401V4.77327C9.78041 5.27379 9.58892 5.75381 9.24806 6.10774C8.90721 6.46166 8.44491 6.66049 7.96287 6.66049C7.48083 6.66049 7.01853 6.46166 6.67768 6.10774C6.33682 5.75381 6.14533 5.27379 6.14533 4.77327V3.42809ZM9.20502 8.26867C8.40771 8.59923 7.51851 8.59877 6.72151 8.26741C6.86044 8.06069 6.93481 7.81461 6.93455 7.56253V7.26214C7.2594 7.40711 7.60929 7.48188 7.96287 7.48188C8.31645 7.48188 8.66634 7.40711 8.99119 7.26214V7.56253C8.99091 7.81513 9.06557 8.06169 9.20502 8.26867ZM3.37499 10.5388C3.37432 10.2771 3.45425 10.0219 3.60312 9.81067C3.75199 9.59941 3.96201 9.44309 4.2025 9.36455L5.94009 8.7918C6.55826 9.14944 7.25411 9.33733 7.96176 9.33766C7.99129 9.33766 8.02114 9.33733 8.0511 9.33668C8.72907 9.3212 9.39316 9.13419 9.98576 8.79186L11.7232 9.3646C11.9637 9.44315 12.1737 9.59945 12.3226 9.81069C12.4714 10.0219 12.5514 10.277 12.5507 10.5388V11.0937C12.1602 11.4158 11.8933 11.8721 11.798 12.3804H10.9687V11.462C10.9687 11.3531 10.9271 11.2487 10.8529 11.1716C10.7787 11.0946 10.6781 11.0514 10.5732 11.0514C10.4683 11.0514 10.3677 11.0946 10.2935 11.1716C10.2194 11.2487 10.1777 11.3531 10.1777 11.462V12.3804H5.74803V11.462C5.74803 11.3531 5.70636 11.2487 5.63219 11.1716C5.55802 11.0946 5.45742 11.0514 5.35253 11.0514C5.24763 11.0514 5.14703 11.0946 5.07286 11.1716C4.99869 11.2487 4.95702 11.3531 4.95702 11.462V12.3804H3.37499V10.5388ZM16.6113 27.1872C16.6113 27.1945 16.6085 27.2015 16.6036 27.2066C16.5986 27.2117 16.5919 27.2146 16.5849 27.2146H15.7098L15.1893 25.593C15.1107 25.3475 14.9596 25.1341 14.7576 24.9828C14.5555 24.8316 14.3127 24.7504 14.0636 24.7506H4.12972C3.88063 24.7504 3.6378 24.8316 3.43573 24.9829C3.23366 25.1341 3.08261 25.3476 3.00406 25.593L2.48347 27.2146H1.60839C1.6014 27.2146 1.59469 27.2117 1.58975 27.2066C1.58481 27.2015 1.58203 27.1945 1.58203 27.1872V14.9446H16.6113V27.1872ZM17.0068 14.1233H1.18652C1.08166 14.1231 0.981126 14.0798 0.906978 14.0029C0.83283 13.9259 0.791125 13.8215 0.791014 13.7126V13.2018H12.1205C12.132 13.2029 12.1435 13.2036 12.1552 13.2036H17.4023V13.7126C17.4022 13.8215 17.3605 13.9259 17.2863 14.0029C17.2122 14.0798 17.1117 14.1231 17.0068 14.1233ZM22.9921 27.2861H21.9954L21.0524 19.6554H22.0684L22.9921 27.2861ZM26.2089 15.9593C26.2081 16.7215 25.9161 17.4522 25.3971 17.9911C24.8781 18.53 24.1744 18.8331 23.4404 18.834H17.4023V17.4104H22.8598C23.3841 17.4098 23.8867 17.1932 24.2574 16.8083C24.6282 16.4233 24.8367 15.9014 24.8373 15.357V11.4888C25.2268 11.5821 25.5743 11.8095 25.8234 12.1341C26.0725 12.4587 26.2084 12.8613 26.2089 13.2763V15.9593Z" fill="url(#paint0_linear_5864_1522)"/>
<path d="M24.8373 11.0948V10.4333C24.8365 9.86315 24.6556 9.30898 24.3223 8.85583C23.989 8.40269 23.5217 8.0756 22.9921 7.92476V6.61905C23.2377 6.428 23.437 6.18018 23.5743 5.89525C23.7116 5.61031 23.7831 5.29608 23.7831 4.97747V2.56821C23.7826 2.02382 23.574 1.5019 23.2033 1.11695C22.8326 0.732008 22.3299 0.515479 21.8056 0.51487H19.0107C18.9058 0.51487 18.8052 0.558137 18.731 0.635152C18.6569 0.712168 18.6152 0.816623 18.6152 0.925539V4.97747C18.6152 5.29608 18.6867 5.61031 18.824 5.89525C18.9613 6.18018 19.1606 6.428 19.4062 6.61905V8.14652C19.2803 8.22876 19.1637 8.32539 19.0585 8.43459L16.5293 11.0631H13.8518C13.6798 11.0631 13.5085 11.0851 13.3418 11.1287V10.9813C13.3429 10.545 13.2097 10.1198 12.9615 9.76767C12.7134 9.41558 12.3634 9.15506 11.9626 9.02414L10.058 8.39637C9.97785 8.37018 9.90786 8.31808 9.85824 8.24767C9.80863 8.17725 9.78198 8.09222 9.7822 8.00497V7.15418C10.032 6.90238 10.2306 6.60106 10.3662 6.26807C10.5018 5.93509 10.5716 5.57723 10.5714 5.21571V1.12912C10.5712 0.947303 10.5016 0.772995 10.3777 0.644435C10.2539 0.515875 10.086 0.443562 9.91093 0.443359H7.07467C6.61856 0.443896 6.18128 0.632267 5.85877 0.967146C5.53625 1.30203 5.35483 1.75607 5.35432 2.22966V5.21566C5.35419 5.57717 5.42398 5.93503 5.55955 6.26802C5.69512 6.601 5.89371 6.90233 6.14354 7.15412V8.00492C6.14376 8.09217 6.1171 8.17721 6.06748 8.24762C6.01785 8.31804 5.94785 8.37013 5.86769 8.39631L3.96319 9.02414C3.56237 9.15504 3.21235 9.41555 2.96423 9.76764C2.7161 10.1197 2.58287 10.5449 2.58398 10.9812V12.8229H0.395507C0.290612 12.8229 0.190013 12.8661 0.115841 12.9432C0.0416693 13.0202 0 13.1246 0 13.2335L0 14.155C0.000304145 14.4097 0.0764942 14.658 0.218117 14.8659C0.35974 15.0739 0.559857 15.2312 0.791014 15.3163V27.6296C0.791251 27.8546 0.877444 28.0704 1.03068 28.2295C1.18392 28.3886 1.39168 28.4781 1.60839 28.4783H2.76855C2.85155 28.4783 2.93246 28.4512 2.9998 28.4008C3.06714 28.3504 3.1175 28.2793 3.14375 28.1975L3.75447 26.2951C3.78065 26.2133 3.83101 26.1421 3.89837 26.0917C3.96574 26.0413 4.04669 26.0142 4.12972 26.0143H14.0636C14.1467 26.0142 14.2276 26.0413 14.295 26.0917C14.3623 26.1421 14.4127 26.2133 14.4388 26.2951L15.0495 28.1975C15.0758 28.2793 15.1261 28.3504 15.1935 28.4008C15.2608 28.4512 15.3417 28.4783 15.4248 28.4783H16.5849C16.8016 28.4781 17.0094 28.3886 17.1626 28.2295C17.3159 28.0704 17.4021 27.8546 17.4023 27.6296V20.0977H20.2549L21.2551 28.1914C21.2673 28.2905 21.3139 28.3815 21.3861 28.4475C21.4583 28.5134 21.5512 28.5498 21.6474 28.5498H23.4403C23.4964 28.5498 23.5519 28.5374 23.603 28.5135C23.6541 28.4895 23.6998 28.4545 23.7369 28.4108C23.774 28.3672 23.8017 28.3158 23.8183 28.2601C23.8348 28.2045 23.8397 28.1458 23.8327 28.088L22.8656 20.0977H23.4404C24.3841 20.0966 25.2889 19.7069 25.9562 19.014C26.6235 18.3211 26.9989 17.3816 26.9999 16.4017V13.7187C26.9991 13.0857 26.7809 12.4737 26.3845 11.9927C25.9881 11.5118 25.4395 11.1934 24.8373 11.0948ZM19.4062 1.33621H21.8056C22.1202 1.33657 22.4218 1.46649 22.6442 1.69745C22.8667 1.92842 22.9918 2.24158 22.9921 2.56821V2.93562L22.9899 2.93705C22.7036 3.12847 22.3673 3.22308 22.0271 3.20785C21.6869 3.19262 21.3597 3.06831 21.0903 2.85201L19.4205 1.50814C19.4159 1.50442 19.4109 1.5013 19.4062 1.49779V1.33621ZM19.4062 2.5358L20.6057 3.50114C20.94 3.76963 21.3356 3.94333 21.754 4.00524C22.1723 4.06714 22.599 4.01512 22.9921 3.85426V4.97747C22.9918 5.30411 22.8667 5.61726 22.6442 5.84823C22.4218 6.0792 22.1202 6.20911 21.8056 6.20947H20.5927C20.2781 6.20911 19.9766 6.0792 19.7541 5.84823C19.5317 5.61726 19.4065 5.30411 19.4062 4.97747V2.5358ZM22.2011 6.98947V7.83249H20.4575C20.3704 7.83265 20.2835 7.83869 20.1972 7.85056V6.98942C20.3274 7.01694 20.4599 7.03079 20.5927 7.03076H21.8056C21.9384 7.03079 22.0709 7.017 22.2011 6.98947ZM19.618 9.01505C19.728 8.90017 19.8588 8.80908 20.0029 8.74708C20.147 8.68507 20.3015 8.65338 20.4575 8.65383H22.3324C22.7868 8.65436 23.2224 8.84203 23.5437 9.17564C23.865 9.50926 24.0457 9.96159 24.0462 10.4334V15.7995C24.0459 16.1261 23.9208 16.4393 23.6983 16.6702C23.4759 16.9012 23.1743 17.0311 22.8597 17.0315H17.4023V15.3163C17.6335 15.2312 17.8336 15.0739 17.9752 14.8659C18.1168 14.658 18.193 14.4097 18.1933 14.155V13.4269C18.2593 13.3806 18.3209 13.3278 18.3772 13.2694L20.2942 11.2799C20.3679 11.2028 20.4092 11.0985 20.409 10.9899C20.4088 10.8813 20.3671 10.7772 20.2932 10.7004C20.2193 10.6236 20.119 10.5803 20.0144 10.58C19.9099 10.5798 19.8094 10.6225 19.7351 10.699L19.1109 11.3467L18.2768 10.4089L19.618 9.01505ZM13.8518 11.8844H16.6933C16.7453 11.8844 16.7967 11.8737 16.8447 11.8531C16.8927 11.8324 16.9364 11.8021 16.9731 11.764L17.7173 10.9905L18.551 11.9278L17.818 12.6885C17.7429 12.7667 17.6432 12.8144 17.5371 12.8229H12.6128C12.6973 12.5505 12.8627 12.313 13.0853 12.1444C13.3079 11.9758 13.5763 11.8847 13.8518 11.8844ZM6.14533 2.22966C6.14561 1.97382 6.24361 1.72855 6.41784 1.54765C6.59206 1.36674 6.82828 1.26499 7.07467 1.2647H9.78046V3.32231C9.4501 3.44301 9.09511 3.47208 8.75062 3.40663C8.55626 3.36226 8.36936 3.28807 8.19606 3.18652C7.96571 3.05428 7.71772 2.95833 7.46021 2.90179C7.02102 2.81901 6.56883 2.85238 6.14533 2.99881V2.22966ZM6.14533 3.87047C6.56826 3.69104 6.95828 3.63617 7.30723 3.70763C7.49343 3.75028 7.67245 3.82157 7.83837 3.91915C8.07536 4.05483 8.33033 4.15349 8.59505 4.21193C8.98785 4.29112 9.39266 4.27899 9.78041 4.17639V5.21566C9.78041 5.71618 9.58892 6.1962 9.24806 6.55012C8.90721 6.90404 8.44491 7.10287 7.96287 7.10287C7.48083 7.10287 7.01853 6.90404 6.67768 6.55012C6.33682 6.1962 6.14533 5.71618 6.14533 5.21566V3.87047ZM9.20502 8.71105C8.40771 9.04161 7.51851 9.04116 6.72151 8.70979C6.86044 8.50307 6.93481 8.257 6.93455 8.00492V7.70453C7.2594 7.8495 7.60929 7.92426 7.96287 7.92426C8.31645 7.92426 8.66634 7.8495 8.99119 7.70453V8.00492C8.99091 8.25751 9.06557 8.50407 9.20502 8.71105ZM3.37499 10.9812C3.37432 10.7195 3.45425 10.4643 3.60312 10.2531C3.75199 10.0418 3.96201 9.88548 4.2025 9.80693L5.94009 9.23419C6.55826 9.59183 7.25411 9.77971 7.96176 9.78005C7.99129 9.78005 8.02114 9.77972 8.0511 9.77906C8.72907 9.76358 9.39316 9.57657 9.98576 9.23424L11.7232 9.80699C11.9637 9.88553 12.1737 10.0418 12.3226 10.2531C12.4714 10.4643 12.5514 10.7194 12.5507 10.9812V11.5361C12.1602 11.8582 11.8933 12.3145 11.798 12.8228H10.9687V11.9044C10.9687 11.7955 10.9271 11.691 10.8529 11.614C10.7787 11.537 10.6781 11.4937 10.5732 11.4937C10.4683 11.4937 10.3677 11.537 10.2935 11.614C10.2194 11.691 10.1777 11.7955 10.1777 11.9044V12.8228H5.74803V11.9044C5.74803 11.7955 5.70636 11.691 5.63219 11.614C5.55802 11.537 5.45742 11.4937 5.35253 11.4937C5.24763 11.4937 5.14703 11.537 5.07286 11.614C4.99869 11.691 4.95702 11.7955 4.95702 11.9044V12.8228H3.37499V10.9812ZM16.6113 27.6296C16.6113 27.6369 16.6085 27.6438 16.6036 27.649C16.5986 27.6541 16.5919 27.657 16.5849 27.657H15.7098L15.1893 26.0353C15.1107 25.7899 14.9596 25.5764 14.7576 25.4252C14.5555 25.274 14.3127 25.1927 14.0636 25.193H4.12972C3.88063 25.1927 3.6378 25.274 3.43573 25.4252C3.23366 25.5765 3.08261 25.79 3.00406 26.0354L2.48347 27.657H1.60839C1.6014 27.657 1.59469 27.6541 1.58975 27.649C1.58481 27.6438 1.58203 27.6369 1.58203 27.6296V15.387H16.6113V27.6296ZM17.0068 14.5656H1.18652C1.08166 14.5655 0.981126 14.5222 0.906978 14.4452C0.83283 14.3682 0.791125 14.2639 0.791014 14.155V13.6442H12.1205C12.132 13.6453 12.1435 13.646 12.1552 13.646H17.4023V14.155C17.4022 14.2639 17.3605 14.3682 17.2863 14.4452C17.2122 14.5222 17.1117 14.5655 17.0068 14.5656ZM22.9921 27.7285H21.9954L21.0524 20.0977H22.0684L22.9921 27.7285ZM26.2089 16.4017C26.2081 17.1639 25.9161 17.8945 25.3971 18.4335C24.8781 18.9724 24.1744 19.2755 23.4404 19.2764H17.4023V17.8528H22.8598C23.3841 17.8521 23.8867 17.6356 24.2574 17.2507C24.6282 16.8657 24.8367 16.3438 24.8373 15.7994V11.9312C25.2268 12.0245 25.5743 12.2519 25.8234 12.5765C26.0725 12.9011 26.2084 13.3037 26.2089 13.7187V16.4017Z" fill="url(#paint1_linear_5864_1522)"/>
<defs>
<linearGradient id="paint0_linear_5864_1522" x1="13.5" y1="0.000976562" x2="13.5" y2="28.1075" gradientUnits="userSpaceOnUse">
<stop stop-color="#0053F3"/>
<stop offset="1" stop-color="#303030"/>
</linearGradient>
<linearGradient id="paint1_linear_5864_1522" x1="13.5" y1="0.443359" x2="13.5" y2="28.5498" gradientUnits="userSpaceOnUse">
<stop stop-color="#0053F3"/>
<stop offset="1" stop-color="#303030"/>
</linearGradient>
</defs>
</svg>
