<svg width="35" height="26" viewBox="0 0 35 26" fill="none" xmlns="http://www.w3.org/2000/svg">
<rect width="35" height="26" rx="10" fill="#CF2E2E"/>
<path d="M12.5618 11.3565C12.6661 11.3287 12.7722 11.3096 12.88 11.2991C12.9879 11.2887 13.094 11.2835 13.1983 11.2835C13.4313 11.2835 13.6713 11.3183 13.9183 11.3878C14.1687 11.4539 14.4192 11.553 14.6696 11.6852L14.0905 13.2139C13.9235 13.1409 13.7653 13.0852 13.6157 13.047C13.4661 13.0052 13.3253 12.9843 13.1931 12.9843C13.1026 12.9843 13 12.9948 12.8853 13.0157C12.774 13.0261 12.654 13.0591 12.5253 13.1148C12.3966 13.167 12.2679 13.2348 12.1392 13.3183C12.014 13.4017 11.8922 13.4991 11.774 13.6104C11.6557 13.7183 11.5496 13.833 11.4557 13.9548C11.3653 14.0765 11.2905 14.2035 11.2313 14.3357C11.1722 14.4643 11.1392 14.5896 11.1322 14.7113C11.1253 14.8087 11.1531 14.8887 11.2157 14.9513C11.2783 15.0104 11.3618 15.0626 11.4661 15.1078C11.5705 15.1496 11.6887 15.1878 11.8209 15.2226C11.9531 15.2539 12.087 15.2904 12.2226 15.3322L12.374 15.3687C12.5966 15.4209 12.8174 15.48 13.0366 15.5461C13.2592 15.6122 13.4592 15.7061 13.6366 15.8278C13.814 15.9461 13.9566 16.1026 14.0644 16.2974C14.1757 16.4922 14.2313 16.7443 14.2313 17.0539C14.2313 17.1165 14.2279 17.1809 14.2209 17.247C14.2174 17.3165 14.2087 17.3878 14.1948 17.4609C14.16 17.6487 14.0974 17.8313 14.007 18.0087C13.9166 18.1896 13.8018 18.36 13.6626 18.52C13.527 18.6835 13.3687 18.8348 13.1879 18.9739C13.0105 19.1165 12.8157 19.2435 12.6035 19.3548C12.2035 19.553 11.7461 19.7061 11.2313 19.8139C10.7166 19.9252 10.1635 19.9809 9.57221 19.9809C8.86265 19.9809 8.23656 19.8765 7.69395 19.6678C7.15135 19.4626 6.70091 19.1617 6.34265 18.7652C6.07135 18.4417 5.87135 18.087 5.74265 17.7009C5.61743 17.3148 5.55482 16.9113 5.55482 16.4904C5.55482 16.4 5.5583 16.3096 5.56526 16.2191C5.57221 16.1287 5.57917 16.0435 5.58613 15.9635C5.60004 15.713 5.62787 15.4678 5.66961 15.2278C5.71135 14.9843 5.7583 14.7565 5.81048 14.5443C5.86613 14.3287 5.92526 14.1304 5.98787 13.9496C6.05048 13.7652 6.10787 13.6052 6.16004 13.4696C6.21221 13.3304 6.25569 13.2209 6.29048 13.1409C6.32874 13.0574 6.35135 13.007 6.3583 12.9896L7.66787 13.5374C7.58091 13.7426 7.49743 13.9443 7.41743 14.1426C7.34091 14.3374 7.27135 14.5391 7.20874 14.7478C7.14961 14.953 7.09917 15.1704 7.05743 15.4C7.01917 15.6296 6.99482 15.88 6.98439 16.1513C6.98091 16.1896 6.97743 16.2313 6.97395 16.2765C6.97048 16.3217 6.96874 16.3617 6.96874 16.3965C6.96874 16.6157 7.00178 16.8313 7.06787 17.0435C7.13743 17.2557 7.25048 17.447 7.407 17.6174C7.50091 17.7252 7.62265 17.8191 7.77221 17.8991C7.92526 17.9826 8.09743 18.0522 8.28874 18.1078C8.48004 18.167 8.68526 18.2104 8.90439 18.2383C9.12352 18.2696 9.34613 18.2852 9.57221 18.2852C10.014 18.2852 10.4261 18.2539 10.8087 18.1913C11.1948 18.1322 11.534 18.0522 11.8261 17.9513C12.1183 17.8539 12.3531 17.7391 12.5305 17.607C12.7113 17.4783 12.8157 17.3461 12.8435 17.2104C12.8366 17.2104 12.8157 17.207 12.7809 17.2C12.7461 17.193 12.7009 17.1826 12.6453 17.1687C12.5931 17.1583 12.5322 17.1443 12.4626 17.127C12.3966 17.113 12.327 17.0974 12.254 17.08L11.9722 17.0174C11.6626 16.9409 11.3705 16.8522 11.0957 16.7513C10.8244 16.6539 10.5861 16.5235 10.3809 16.36C10.1792 16.2 10.0174 15.9983 9.89569 15.7548C9.77743 15.5078 9.7183 15.1965 9.7183 14.8209C9.73569 14.4209 9.81917 14.0313 9.96874 13.6522C10.1183 13.273 10.32 12.927 10.574 12.6139C10.8279 12.3009 11.1235 12.0348 11.4609 11.8157C11.8018 11.593 12.1705 11.44 12.567 11.3565H12.5618ZM18.3853 12.4887C18.5175 12.8643 18.6323 13.2313 18.7297 13.5896C18.7714 13.7461 18.8132 13.9096 18.8549 14.08C18.8966 14.247 18.9332 14.4157 18.9645 14.5861C18.9992 14.753 19.0271 14.9183 19.0479 15.0817C19.0688 15.2417 19.0792 15.3913 19.0792 15.5304C19.0792 15.8574 19.034 16.1757 18.9436 16.4852C18.8566 16.7983 18.7314 17.1009 18.5679 17.393C18.4079 17.6852 18.2166 17.9652 17.994 18.233C17.7714 18.5043 17.5245 18.7583 17.2532 18.9948C16.9818 19.2313 16.6914 19.4504 16.3818 19.6522C16.0723 19.8574 15.7523 20.0417 15.4218 20.2052L14.4723 18.8852C14.7227 18.76 14.9766 18.6174 15.234 18.4574C15.4879 18.3009 15.7314 18.1322 15.9645 17.9513C16.201 17.7704 16.4201 17.5809 16.6218 17.3826C16.8271 17.1843 17.0045 16.9826 17.154 16.7774C17.3071 16.5722 17.4271 16.3635 17.514 16.1513C17.601 15.9426 17.6445 15.7374 17.6445 15.5357C17.6445 15.3896 17.6236 15.2313 17.5818 15.0609C17.5436 14.8904 17.4897 14.7078 17.4201 14.513C17.354 14.3148 17.274 14.1061 17.1801 13.887C17.0862 13.6643 16.9853 13.4278 16.8775 13.1774L18.3853 12.4887ZM19.3219 18.3843C19.8123 18.287 20.2558 18.1635 20.6523 18.0139C21.0523 17.8678 21.4019 17.7026 21.701 17.5183C22.0036 17.3374 22.2523 17.1443 22.4471 16.9391C22.6419 16.7339 22.781 16.5252 22.8645 16.313C22.7149 16.313 22.5636 16.3096 22.4106 16.3026C22.2575 16.2991 22.1271 16.2939 22.0193 16.287C21.6158 16.2522 21.2471 16.1617 20.9132 16.0157C20.5793 15.873 20.3132 15.6783 20.1149 15.4313C19.9688 15.2435 19.8645 15.04 19.8019 14.8209C19.7427 14.6017 19.7132 14.3704 19.7132 14.127C19.7132 13.9391 19.7306 13.7513 19.7653 13.5635C19.8001 13.3722 19.8488 13.1878 19.9114 13.0104C19.974 12.8296 20.0471 12.6591 20.1306 12.4991C20.2175 12.3391 20.3097 12.193 20.4071 12.0609C20.6158 11.8 20.8436 11.6035 21.0906 11.4713C21.341 11.3357 21.6036 11.2678 21.8784 11.2678C22.4662 11.2678 22.9967 11.5252 23.4697 12.04C23.6158 12.2035 23.748 12.3843 23.8662 12.5826C23.9845 12.7809 24.0888 12.993 24.1793 13.2191C24.2697 13.4417 24.3427 13.6748 24.3984 13.9183C24.4575 14.1617 24.4975 14.4104 24.5184 14.6643H24.6175C24.7323 14.6643 24.8401 14.6852 24.941 14.727C25.0419 14.7687 25.1288 14.8278 25.2019 14.9043C25.2784 14.9774 25.3393 15.0643 25.3845 15.1652C25.4297 15.2661 25.4523 15.3757 25.4523 15.4939C25.4523 15.6052 25.4297 15.7113 25.3845 15.8122C25.3393 15.9096 25.2784 15.9948 25.2019 16.0678C25.1288 16.1443 25.0419 16.2035 24.941 16.2452C24.8401 16.2904 24.7323 16.313 24.6175 16.313H24.388C24.2523 16.8243 24.0349 17.287 23.7358 17.7009C23.4401 18.1148 23.0853 18.4765 22.6714 18.7861C22.261 19.0957 21.8019 19.3513 21.294 19.553C20.7897 19.7548 20.261 19.8991 19.708 19.9861L19.3219 18.3843ZM21.8784 12.9217C21.8019 12.9217 21.7167 12.9565 21.6227 13.0261C21.5323 13.0922 21.4471 13.1774 21.3671 13.2817C21.2871 13.3861 21.2193 13.5026 21.1636 13.6313C21.1114 13.76 21.0853 13.8852 21.0853 14.007C21.0853 14.1252 21.1184 14.2226 21.1845 14.2991C21.2506 14.3757 21.334 14.4383 21.4349 14.487C21.5393 14.5322 21.6523 14.567 21.774 14.5913C21.8958 14.6122 22.014 14.6278 22.1288 14.6383C22.1914 14.6452 22.2593 14.6504 22.3323 14.6539C22.4088 14.6539 22.4871 14.6539 22.5671 14.6539C22.6471 14.6539 22.7253 14.6557 22.8019 14.6591C22.8819 14.6591 22.9549 14.6609 23.021 14.6643C22.9967 14.4939 22.9584 14.3339 22.9062 14.1843C22.854 14.0348 22.7949 13.8957 22.7288 13.767C22.6662 13.6383 22.5967 13.5235 22.5201 13.4226C22.4471 13.3183 22.3758 13.2278 22.3062 13.1513C22.2819 13.127 22.2506 13.1009 22.2123 13.073C22.1775 13.0452 22.141 13.0209 22.1027 13C22.0645 12.9757 22.0245 12.9565 21.9827 12.9426C21.9445 12.9287 21.9097 12.9217 21.8784 12.9217ZM23.7733 15.4887C23.7733 15.3739 23.7959 15.2661 23.8411 15.1652C23.8828 15.0643 23.942 14.9774 24.0185 14.9043C24.0915 14.8278 24.1802 14.7687 24.2846 14.727C24.3855 14.6852 24.4933 14.6643 24.6081 14.6643C24.7368 14.6643 24.895 14.6626 25.0828 14.6591C25.2742 14.6522 25.4776 14.6417 25.6933 14.6278C25.9089 14.6139 26.1281 14.5965 26.3507 14.5757C26.5768 14.5548 26.7907 14.527 26.9924 14.4922C27.1976 14.4574 27.382 14.4174 27.5455 14.3722C27.7124 14.3235 27.8428 14.2678 27.9368 14.2052C27.5855 14.2435 27.262 14.2591 26.9663 14.2522C26.6707 14.2417 26.4063 14.2122 26.1733 14.1635C25.9402 14.1148 25.7402 14.0487 25.5733 13.9652C25.4098 13.8783 25.2846 13.7791 25.1976 13.6678V13.673C25.1037 13.5548 25.015 13.3965 24.9315 13.1983C24.8515 13 24.8115 12.7548 24.8115 12.4626C24.8115 12.3061 24.822 12.16 24.8428 12.0243C24.9472 11.433 25.1559 10.9443 25.4689 10.5583L25.4637 10.5635C25.6515 10.313 25.8637 10.127 26.1002 10.0052C26.3368 9.88 26.5855 9.81739 26.8463 9.81739C27.1107 9.81739 27.3715 9.88174 27.6289 10.0104C27.8863 10.1391 28.1194 10.313 28.3281 10.5322C28.4776 10.7026 28.6115 10.8957 28.7298 11.1113C28.8515 11.327 28.9542 11.5565 29.0376 11.8C29.1246 12.0435 29.1907 12.2974 29.2359 12.5617C29.2846 12.8226 29.3089 13.0852 29.3089 13.3496C29.3089 13.4296 29.3072 13.5096 29.3037 13.5896C29.3002 13.6661 29.295 13.7391 29.2881 13.8087C29.2463 14.1704 29.1542 14.4835 29.0115 14.7478C28.8689 15.0087 28.6863 15.2313 28.4637 15.4157C28.2446 15.6 27.9924 15.7496 27.7072 15.8643C27.422 15.9791 27.1159 16.0696 26.7889 16.1357C26.462 16.2017 26.1194 16.247 25.7611 16.2713C25.4063 16.2957 25.0481 16.3096 24.6863 16.313H24.5976C24.4828 16.313 24.375 16.2904 24.2742 16.2452C24.1733 16.2035 24.0863 16.1461 24.0133 16.073C23.9402 16 23.8828 15.913 23.8411 15.8122C23.7959 15.7113 23.7733 15.6035 23.7733 15.4887ZM26.8359 11.4765C26.7559 11.473 26.6742 11.4974 26.5907 11.5496C26.5107 11.5983 26.4359 11.6643 26.3663 11.7478C26.3002 11.8313 26.2446 11.927 26.1994 12.0348C26.1576 12.1426 26.1368 12.2522 26.1368 12.3635C26.1368 12.4609 26.1594 12.5478 26.2046 12.6243C26.2289 12.6661 26.2776 12.7026 26.3507 12.7339C26.4272 12.7617 26.5159 12.7861 26.6168 12.807C26.7211 12.8243 26.8324 12.84 26.9507 12.8539C27.0689 12.8643 27.182 12.8713 27.2898 12.8748C27.3976 12.8783 27.495 12.8783 27.582 12.8748C27.6724 12.8713 27.7385 12.8661 27.7802 12.8591C27.7489 12.7026 27.7072 12.5443 27.655 12.3843C27.6063 12.2243 27.5437 12.0783 27.4672 11.9461C27.3907 11.8139 27.3002 11.7043 27.1959 11.6174C27.0915 11.5304 26.9715 11.4835 26.8359 11.4765ZM26.6324 6.84348L27.7907 8.00174L26.6324 9.16L25.4742 8.00174L26.6324 6.84348Z" fill="white"/>
</svg>
