<svg width="24" height="25" viewBox="0 0 24 25" fill="none" xmlns="http://www.w3.org/2000/svg">
<path d="M21 7.5V17.5C21 20.5 19.5 22.5 16 22.5H8C4.5 22.5 3 20.5 3 17.5V7.5C3 4.5 4.5 2.5 8 2.5H16C19.5 2.5 21 4.5 21 7.5Z" stroke="url(#paint0_linear_5172_11425)" stroke-width="1.5" stroke-miterlimit="10" stroke-linecap="round" stroke-linejoin="round"/>
<path d="M15.5 2.5V10.36C15.5 10.8 14.98 11.02 14.66 10.73L12.34 8.59003C12.15 8.41003 11.85 8.41003 11.66 8.59003L9.34003 10.73C9.02003 11.02 8.5 10.8 8.5 10.36V2.5H15.5Z" stroke="url(#paint1_linear_5172_11425)" stroke-width="1.5" stroke-miterlimit="10" stroke-linecap="round" stroke-linejoin="round"/>
<path d="M13.25 14.5H17.5" stroke="url(#paint2_linear_5172_11425)" stroke-width="1.5" stroke-miterlimit="10" stroke-linecap="round" stroke-linejoin="round"/>
<path d="M9 18.5H17.5" stroke="url(#paint3_linear_5172_11425)" stroke-width="1.5" stroke-miterlimit="10" stroke-linecap="round" stroke-linejoin="round"/>
<defs>
<linearGradient id="paint0_linear_5172_11425" x1="12" y1="2.5" x2="12" y2="22.5" gradientUnits="userSpaceOnUse">
<stop stop-color="#FF9900"/>
<stop offset="1" stop-color="#636363"/>
</linearGradient>
<linearGradient id="paint1_linear_5172_11425" x1="12" y1="2.5" x2="12" y2="10.8613" gradientUnits="userSpaceOnUse">
<stop stop-color="#FF9900"/>
<stop offset="1" stop-color="#636363"/>
</linearGradient>
<linearGradient id="paint2_linear_5172_11425" x1="15.375" y1="14.5" x2="15.375" y2="15.5" gradientUnits="userSpaceOnUse">
<stop stop-color="#FF9900"/>
<stop offset="1" stop-color="#636363"/>
</linearGradient>
<linearGradient id="paint3_linear_5172_11425" x1="13.25" y1="18.5" x2="13.25" y2="19.5" gradientUnits="userSpaceOnUse">
<stop stop-color="#FF9900"/>
<stop offset="1" stop-color="#636363"/>
</linearGradient>
</defs>
</svg>
