<svg width="10" height="9" viewBox="0 0 10 9" fill="none" xmlns="http://www.w3.org/2000/svg">
<path d="M0.662576 4.74961C0.458746 4.93591 0.444536 5.25217 0.630837 5.456C0.817138 5.65983 1.1334 5.67404 1.33723 5.48774L0.662576 4.74961ZM5.06001 1.40771L5.39734 1.03865C5.20633 0.86407 4.91369 0.86407 4.72268 1.03865L5.06001 1.40771ZM8.78279 5.48774C8.98662 5.67404 9.30288 5.65983 9.48918 5.456C9.67548 5.25217 9.66127 4.93591 9.45745 4.74961L8.78279 5.48774ZM1.33896 7.22304C1.13514 7.40934 1.12094 7.72561 1.30724 7.92943C1.49355 8.13325 1.80982 8.14745 2.01364 7.96115L1.33896 7.22304ZM5.05953 4.49963L5.39687 4.13057C5.20586 3.95598 4.9132 3.95598 4.72219 4.13057L5.05953 4.49963ZM8.10542 7.96115C8.30925 8.14746 8.62551 8.13325 8.81182 7.92943C8.99812 7.72561 8.98392 7.40934 8.7801 7.22304L8.10542 7.96115ZM1.33723 5.48774L5.39734 1.77678L4.72268 1.03865L0.662576 4.74961L1.33723 5.48774ZM4.72268 1.77678L8.78279 5.48774L9.45745 4.74961L5.39734 1.03865L4.72268 1.77678ZM2.01364 7.96115L5.39687 4.86868L4.72219 4.13057L1.33896 7.22304L2.01364 7.96115ZM4.72219 4.86868L8.10542 7.96115L8.7801 7.22304L5.39687 4.13057L4.72219 4.86868Z" fill="url(#paint0_linear_4261_21784)"/>
<defs>
<linearGradient id="paint0_linear_4261_21784" x1="9.12012" y1="4.4999" x2="0.999904" y2="4.4999" gradientUnits="userSpaceOnUse">
<stop stop-color="#4C8CED"/>
<stop offset="1" stop-color="#38D165"/>
</linearGradient>
</defs>
</svg>
