<svg width="32" height="19" viewBox="0 0 32 19" fill="none" xmlns="http://www.w3.org/2000/svg">
<path d="M2 7.30957V11.6954" stroke="url(#paint0_linear_4929_111562)" stroke-width="3"/>
<path d="M7.84766 7.30957V11.6954" stroke="url(#paint1_linear_4929_111562)" stroke-width="3"/>
<path d="M13.6953 7.30957V11.6954V7.30957Z" fill="url(#paint2_linear_4929_111562)"/>
<path d="M13.6953 7.30957V11.6954" stroke="url(#paint3_linear_4929_111562)" stroke-width="3"/>
<path d="M16.6191 11.6954L25.3895 11.689L25.3908 7.30957L16.6204 7.31599L16.6191 11.6954Z" fill="url(#paint4_radial_4929_111562)"/>
<path d="M30.3208 8.30938C30.7736 8.7201 30.9999 8.92546 31.0836 9.16692C31.1571 9.37903 31.1571 9.60969 31.0836 9.8218C30.9999 10.0633 30.7736 10.2686 30.3209 10.6793L25.2392 15.2897C24.3924 16.058 23.969 16.4422 23.6087 16.4582C23.2957 16.4722 22.9943 16.3387 22.7944 16.0975C22.5642 15.8199 22.5642 15.2482 22.5642 14.1047L22.5642 4.884C22.5642 3.74056 22.5642 3.16884 22.7944 2.8912C22.9943 2.65006 23.2957 2.51655 23.6087 2.53049C23.969 2.54655 24.3924 2.9307 25.2392 3.69902L30.3208 8.30938Z" fill="url(#paint5_radial_4929_111562)"/>
<defs>
<linearGradient id="paint0_linear_4929_111562" x1="0.5" y1="9.49976" x2="3.5" y2="9.49976" gradientUnits="userSpaceOnUse">
<stop stop-color="#4C8CED"/>
<stop offset="1" stop-color="#3CA2B5"/>
</linearGradient>
<linearGradient id="paint1_linear_4929_111562" x1="5" y1="9.49976" x2="9.5" y2="9.49976" gradientUnits="userSpaceOnUse">
<stop offset="0.17609" stop-color="#3EA6B2"/>
<stop offset="1" stop-color="#3394C4"/>
</linearGradient>
<linearGradient id="paint2_linear_4929_111562" x1="14.556" y1="9.3883" x2="13.6953" y2="9.3883" gradientUnits="userSpaceOnUse">
<stop stop-color="#636363"/>
<stop offset="1" stop-color="#C9C9C9"/>
</linearGradient>
<linearGradient id="paint3_linear_4929_111562" x1="14" y1="9.49976" x2="5.5" y2="9.49976" gradientUnits="userSpaceOnUse">
<stop stop-color="#42ACAD"/>
<stop offset="0.518091" stop-color="#1B6EEB"/>
</linearGradient>
<radialGradient id="paint4_radial_4929_111562" cx="0" cy="0" r="1" gradientUnits="userSpaceOnUse" gradientTransform="translate(22.5 9.49975) rotate(180) scale(14 17.0406)">
<stop stop-color="#41B2A2"/>
<stop offset="1" stop-color="#4C8CED"/>
</radialGradient>
<radialGradient id="paint5_radial_4929_111562" cx="0" cy="0" r="1" gradientUnits="userSpaceOnUse" gradientTransform="translate(31 9.5) rotate(-180) scale(13.5 20.9135)">
<stop stop-color="#38D165"/>
<stop offset="1" stop-color="#4C8CED"/>
</radialGradient>
</defs>
</svg>
