<svg width="13" height="9" viewBox="0 0 13 9" fill="none" xmlns="http://www.w3.org/2000/svg">
<path fill-rule="evenodd" clip-rule="evenodd" d="M0.686176 2.99723C0.951072 2.75263 1.40076 2.73558 1.69058 2.95915L6.5 6.66913L11.3094 2.95915C11.5992 2.73558 12.0489 2.75263 12.3138 2.99723C12.5787 3.24183 12.5585 3.62136 12.2687 3.84493L6.97964 7.92491C6.70805 8.13441 6.29195 8.13441 6.02036 7.92491L0.731303 3.84493C0.441484 3.62136 0.421279 3.24183 0.686176 2.99723ZM1.56902 0.277233C1.83393 0.0326376 2.28361 0.0155973 2.57343 0.239171L6.50107 3.26913L10.4287 0.239171C10.7185 0.0155974 11.1682 0.0326376 11.4331 0.277233C11.698 0.521828 11.6778 0.901354 11.388 1.12493L6.98072 4.52491C6.70914 4.73443 6.29301 4.73443 6.02142 4.52491L1.61412 1.12493C1.32431 0.901354 1.30412 0.521828 1.56902 0.277233Z" fill="#A6A6A6"/>
</svg>
