<svg width="17" height="17" viewBox="0 0 17 17" fill="none" xmlns="http://www.w3.org/2000/svg">
<path d="M7.29867 16.391C7.19049 16.391 7.08475 16.3575 6.99481 16.2949C6.90487 16.2323 6.83477 16.1433 6.79338 16.0391C6.75198 15.935 6.74115 15.8204 6.76225 15.7098C6.78335 15.5993 6.83543 15.4977 6.91191 15.418L13.884 8.15333C14.2184 7.80488 14.4836 7.39122 14.6646 6.93596C14.8456 6.48069 14.9388 5.99274 14.9388 5.49997C14.9388 5.00719 14.8456 4.51924 14.6646 4.06398C14.4836 3.60871 14.2184 3.19505 13.884 2.8466C13.5496 2.49816 13.1526 2.22176 12.7156 2.03318C12.2787 1.8446 11.8104 1.74754 11.3375 1.74754C10.8646 1.74754 10.3963 1.8446 9.95934 2.03318C9.52241 2.22176 9.12541 2.49816 8.791 2.8466L2.74126 9.15026C2.52725 9.37329 2.3575 9.63805 2.24169 9.92944C2.12589 10.2208 2.06629 10.5331 2.06632 10.8485C2.06634 11.1639 2.12599 11.4762 2.24184 11.7675C2.35769 12.0589 2.52749 12.3236 2.74153 12.5466C2.95557 12.7696 3.20967 12.9465 3.48932 13.0672C3.76897 13.1878 4.06869 13.2499 4.37136 13.2499C4.67404 13.2499 4.97375 13.1877 5.25338 13.067C5.53301 12.9463 5.78708 12.7694 6.00108 12.5463L12.0503 6.24325C12.1439 6.14568 12.2182 6.02984 12.2689 5.90236C12.3196 5.77487 12.3456 5.63824 12.3456 5.50025C12.3456 5.36226 12.3196 5.22563 12.2689 5.09814C12.2182 4.97066 12.1439 4.85482 12.0503 4.75725C11.9566 4.65968 11.8455 4.58228 11.7231 4.52948C11.6008 4.47667 11.4696 4.44949 11.3372 4.44949C11.2048 4.44949 11.0736 4.47667 10.9513 4.52948C10.829 4.58228 10.7178 4.65968 10.6241 4.75725L5.49124 10.105C5.44078 10.1595 5.38041 10.2029 5.31367 10.2328C5.24693 10.2626 5.17515 10.2784 5.10251 10.279C5.02988 10.2797 4.95784 10.2652 4.89061 10.2366C4.82338 10.2079 4.76231 10.1656 4.71094 10.1121C4.65958 10.0586 4.61896 9.99492 4.59145 9.92487C4.56395 9.85482 4.55011 9.77976 4.55074 9.70408C4.55137 9.62839 4.56646 9.5536 4.59513 9.48405C4.6238 9.41451 4.66547 9.35161 4.71772 9.29903L9.85062 3.95127C10.0458 3.74785 10.2776 3.58649 10.5327 3.47641C10.7877 3.36632 11.0611 3.30966 11.3372 3.30966C11.6133 3.30966 11.8867 3.36632 12.1417 3.47641C12.3968 3.58649 12.6286 3.74785 12.8238 3.95127C13.019 4.15468 13.1739 4.39617 13.2795 4.66195C13.3852 4.92772 13.4396 5.21258 13.4396 5.50025C13.4396 5.78792 13.3852 6.07278 13.2795 6.33855C13.1739 6.60433 13.019 6.84582 12.8238 7.04923L6.77241 13.3523C6.45699 13.682 6.08229 13.9436 5.66975 14.1222C5.25721 14.3008 4.81492 14.3929 4.36818 14.3933C3.92144 14.3936 3.47901 14.3022 3.06621 14.1243C2.65341 13.9463 2.27832 13.6853 1.96241 13.3562C1.6465 13.027 1.39596 12.6362 1.22513 12.2061C1.05429 11.776 0.966506 11.315 0.966798 10.8495C0.967089 10.3841 1.05545 9.92319 1.22683 9.49331C1.3982 9.06344 1.64923 8.67298 1.96555 8.34428L8.01748 2.04119C8.89793 1.12379 10.0921 0.608398 11.3372 0.608398C12.5823 0.608398 13.7765 1.12379 14.6569 2.04119C15.5374 2.95859 16.032 4.20285 16.032 5.50025C16.032 6.79765 15.5374 8.04191 14.6569 8.95931L7.68543 16.224C7.58286 16.3309 7.44374 16.391 7.29867 16.391Z" fill="#636363"/>
</svg>
