<svg width="20" height="27" viewBox="0 0 20 27" fill="none" xmlns="http://www.w3.org/2000/svg">
<ellipse cx="10" cy="24.6538" rx="3.5" ry="1.5" fill="#CDCDCD" fill-opacity="0.8"/>
<path d="M16.363 3.59607C14.6619 1.92432 12.3769 0.992071 10 1.00005C7.62309 0.992071 5.33812 1.92432 3.63704 3.59607C2.8034 4.40951 2.14044 5.38323 1.68747 6.45949C1.2345 7.53575 1.00074 8.69264 1.00005 9.86157C0.991715 12.3344 1.93714 14.714 3.63704 16.4986L10 23.1538L16.363 16.4986C18.0629 14.714 19.0083 12.3344 18.9999 9.86157C18.9993 8.69264 18.7655 7.53575 18.3125 6.45949C17.8596 5.38323 17.1966 4.40951 16.363 3.59607ZM10 13.0839C8.33901 13.0839 7.00002 11.7346 7.00002 10.062C6.99949 9.66514 7.07674 9.27211 7.22732 8.90541C7.37791 8.53871 7.59889 8.20553 7.87758 7.92498C8.15627 7.64443 8.4872 7.42203 8.85141 7.27051C9.21562 7.11899 9.60594 7.04133 10 7.042C11.661 7.042 13 8.39136 13 10.062C13.0006 10.4589 12.9235 10.8521 12.773 11.219C12.6225 11.5858 12.4015 11.9192 12.1228 12.1999C11.8441 12.4807 11.5132 12.7033 11.1489 12.855C10.7846 13.0067 10.3942 13.0845 10 13.0839Z" fill="#FF0000" stroke="white" stroke-width="2"/>
</svg>
