<svg width="77" height="25" viewBox="0 0 77 25" fill="none" xmlns="http://www.w3.org/2000/svg">
<rect x="0.6" y="6.1" width="68.8" height="12.8" rx="4.9" fill="white"/>
<rect x="0.6" y="6.1" width="68.8" height="12.8" rx="4.9" stroke="#303030" stroke-width="0.2"/>
<path d="M13.7139 15H7.01465C6.8584 15 6.78027 14.8535 6.78027 14.5605V13.1543C7.02116 12.7051 7.41667 12.3519 7.9668 12.0947V13.2178C7.9668 13.4066 8.08073 13.501 8.30859 13.501H11.5215V12.6709C11.6191 12.4854 11.7933 12.2835 12.0439 12.0654C12.2816 11.8571 12.5029 11.7057 12.708 11.6113V13.501H13.7139V15ZM10.3984 16.3525C10.3984 16.5316 10.3398 16.6813 10.2227 16.8018C10.1055 16.9255 9.95736 16.9873 9.77832 16.9873C9.60905 16.9873 9.45931 16.9238 9.3291 16.7969C9.20215 16.6732 9.13867 16.5251 9.13867 16.3525C9.13867 16.1768 9.20052 16.0286 9.32422 15.9082C9.45117 15.791 9.60254 15.7324 9.77832 15.7324C9.94759 15.7324 10.0924 15.7943 10.2129 15.918C10.3366 16.0417 10.3984 16.1865 10.3984 16.3525ZM18.0303 15H17.332C17.3353 15.306 17.236 15.4801 17.0342 15.5225L16.624 15H13.3037V13.501H15.6328C15.5645 13.3089 15.4489 13.112 15.2861 12.9102C15.0876 12.6595 14.9118 12.5342 14.7588 12.5342C14.6644 12.5342 14.5163 12.5977 14.3145 12.7246C14.1875 12.5846 14.124 12.3324 14.124 11.9678C14.124 11.7236 14.194 11.5153 14.334 11.3428C14.474 11.167 14.6628 11.0791 14.9004 11.0791C15.278 11.0791 15.6995 11.4583 16.165 12.2168C16.4808 12.7344 16.7314 13.1624 16.917 13.501H18.0303V15ZM15.1885 9.65332C15.1885 9.8291 15.1266 9.97884 15.0029 10.1025C14.8825 10.223 14.7344 10.2832 14.5586 10.2832C14.3828 10.2832 14.2347 10.223 14.1143 10.1025C13.9938 9.97884 13.9336 9.8291 13.9336 9.65332C13.9336 9.48079 13.9954 9.33105 14.1191 9.2041C14.2428 9.07715 14.3893 9.01367 14.5586 9.01367C14.7376 9.01367 14.8874 9.07552 15.0078 9.19922C15.1283 9.32292 15.1885 9.47428 15.1885 9.65332ZM21.458 10.3857C21.458 10.5648 21.3962 10.7161 21.2725 10.8398C21.1488 10.9603 20.9974 11.0205 20.8184 11.0205C20.6393 11.0205 20.4896 10.9603 20.3691 10.8398C20.2487 10.7161 20.1885 10.5648 20.1885 10.3857C20.1885 10.2067 20.2487 10.0586 20.3691 9.94141C20.4896 9.82096 20.6393 9.76074 20.8184 9.76074C20.9941 9.76074 21.1439 9.82096 21.2676 9.94141C21.3945 10.0618 21.458 10.21 21.458 10.3857ZM19.666 10.3857C19.666 10.5615 19.6058 10.7113 19.4854 10.835C19.3649 10.9587 19.2168 11.0205 19.041 11.0205C18.862 11.0205 18.7122 10.9603 18.5918 10.8398C18.4714 10.7161 18.4111 10.5648 18.4111 10.3857C18.4111 10.2067 18.4714 10.0586 18.5918 9.94141C18.7122 9.82096 18.862 9.76074 19.041 9.76074C19.2201 9.76074 19.3682 9.82096 19.4854 9.94141C19.6058 10.0586 19.666 10.2067 19.666 10.3857ZM22.127 15H17.5469V13.501H19.7295V12.6709C19.8239 12.4886 19.998 12.2884 20.252 12.0703C20.4863 11.8685 20.7077 11.7155 20.916 11.6113V13.501H22.127V15ZM24.0801 10.415C24.0801 10.5908 24.0182 10.7406 23.8945 10.8643C23.7741 10.9847 23.626 11.0449 23.4502 11.0449C23.2712 11.0449 23.1214 10.9847 23.001 10.8643C22.8805 10.7438 22.8203 10.5941 22.8203 10.415C22.8203 10.2393 22.8805 10.0911 23.001 9.9707C23.1247 9.85026 23.2744 9.79004 23.4502 9.79004C23.626 9.79004 23.7741 9.85026 23.8945 9.9707C24.0182 10.0911 24.0801 10.2393 24.0801 10.415ZM25.3447 15H21.6729V13.501H22.957V12.6709C23.0612 12.4788 23.2337 12.277 23.4746 12.0654C23.7155 11.8538 23.9385 11.7025 24.1436 11.6113V13.501H25.3447V15ZM29.0752 15H24.8369V13.501H25.999C25.999 13.0811 26.1064 12.7148 26.3213 12.4023C26.5524 12.0573 26.8649 11.8522 27.2588 11.7871C27.3988 11.7643 27.7536 11.7106 28.3232 11.626C28.4795 11.4079 28.5788 11.2793 28.6211 11.2402C28.7318 11.1393 28.8831 11.0889 29.0752 11.0889V15ZM27.9473 13.501V12.7393C27.6413 12.7393 27.4264 12.7881 27.3027 12.8857C27.1595 12.9997 27.0879 13.2048 27.0879 13.501H27.9473ZM41.1748 15H36.4727C36.3913 15.6641 36.1195 16.1833 35.6572 16.5576C35.2113 16.9189 34.6481 17.0996 33.9678 17.0996C33.3656 17.0996 32.887 16.9124 32.5322 16.5381C32.1839 16.1735 32.0098 15.6885 32.0098 15.083C32.0098 14.738 32.0798 14.4727 32.2197 14.2871C32.363 14.1016 32.599 13.9502 32.9277 13.833C32.9408 14.458 32.988 14.8779 33.0693 15.0928C33.2223 15.5029 33.5511 15.708 34.0557 15.708C34.3584 15.708 34.6123 15.5973 34.8174 15.376C35.0485 15.1253 35.1641 14.8665 35.1641 14.5996V12.9883C35.2292 12.8353 35.4326 12.6807 35.7744 12.5244C36.0934 12.3812 36.349 12.3079 36.541 12.3047V13.501H37.1172V12.4902C37.179 12.3307 37.3548 12.1826 37.6445 12.0459C37.9115 11.9222 38.141 11.8587 38.333 11.8555V13.501H38.9092V12.0752C38.9092 11.984 39.0866 11.8441 39.4414 11.6553C39.7539 11.486 40.0192 11.4014 40.2373 11.4014V13.501H41.1748V15ZM43.333 15H40.7061V13.501H43.333V15ZM45.2666 10.4248C45.2666 10.5973 45.2048 10.7454 45.0811 10.8691C44.9574 10.9928 44.8092 11.0547 44.6367 11.0547C44.4609 11.0547 44.3112 10.9945 44.1875 10.874C44.0671 10.7503 44.0068 10.6006 44.0068 10.4248C44.0068 10.2458 44.0671 10.096 44.1875 9.97559C44.3079 9.85514 44.4577 9.79492 44.6367 9.79492C44.8158 9.79492 44.9655 9.85514 45.0859 9.97559C45.2064 10.096 45.2666 10.2458 45.2666 10.4248ZM45.3154 14.541C45.3154 14.847 45.1657 15 44.8662 15H42.874V13.501H44.1289V12.6709C44.2266 12.4854 44.4007 12.2835 44.6514 12.0654C44.889 11.8571 45.1104 11.7057 45.3154 11.6113V14.541ZM47.6934 15H46.5068V9.28711C46.5915 9.11458 46.7656 8.91439 47.0293 8.68652C47.2702 8.47493 47.4915 8.32031 47.6934 8.22266V15ZM51.0918 15C51.0918 15.4329 50.986 15.7926 50.7744 16.0791C50.5368 16.4014 50.208 16.5625 49.7881 16.5625C49.4626 16.5625 49.1794 16.4437 48.9385 16.2061C48.7008 15.9684 48.582 15.6885 48.582 15.3662C48.582 15.3467 48.5853 15.2848 48.5918 15.1807C48.7415 15.2816 48.9336 15.332 49.168 15.332C49.5651 15.332 49.7637 15.2214 49.7637 15V13.501C49.8906 13.2796 50.0827 13.0566 50.3398 12.832C50.6165 12.5944 50.8672 12.4479 51.0918 12.3926V15ZM50.9746 9.50195C50.9746 9.67773 50.9128 9.82747 50.7891 9.95117C50.6654 10.0716 50.5156 10.1318 50.3398 10.1318C50.1608 10.1318 50.0111 10.0716 49.8906 9.95117C49.7734 9.83073 49.7148 9.68099 49.7148 9.50195C49.7148 9.32617 49.7751 9.17806 49.8955 9.05762C50.016 8.93717 50.1641 8.87695 50.3398 8.87695C50.5156 8.87695 50.6654 8.93717 50.7891 9.05762C50.9128 9.17806 50.9746 9.32617 50.9746 9.50195ZM51.873 11.0059C51.873 11.1816 51.8128 11.3314 51.6924 11.4551C51.5719 11.5755 51.4238 11.6357 51.248 11.6357C51.069 11.6357 50.9176 11.5755 50.7939 11.4551C50.6735 11.3346 50.6133 11.1849 50.6133 11.0059C50.6133 10.8268 50.6735 10.6787 50.7939 10.5615C50.9176 10.4411 51.069 10.3809 51.248 10.3809C51.4238 10.3809 51.5719 10.4427 51.6924 10.5664C51.8128 10.6868 51.873 10.8333 51.873 11.0059ZM50.0957 11.0059C50.0957 11.1816 50.0339 11.3314 49.9102 11.4551C49.7865 11.5755 49.6367 11.6357 49.4609 11.6357C49.2819 11.6357 49.1322 11.5771 49.0117 11.46C48.8945 11.3395 48.8359 11.1882 48.8359 11.0059C48.8359 10.8333 48.8962 10.6868 49.0166 10.5664C49.137 10.4427 49.2852 10.3809 49.4609 10.3809C49.6367 10.3809 49.7865 10.4427 49.9102 10.5664C50.0339 10.6868 50.0957 10.8333 50.0957 11.0059ZM55.6865 8.06641L55.623 8.60352C55.1868 8.93555 54.7588 9.10156 54.3389 9.10156C54.1729 9.10156 53.9303 9.05436 53.6113 8.95996C53.2956 8.8623 53.0547 8.81348 52.8887 8.81348C52.5892 8.81348 52.2539 8.88509 51.8828 9.02832L52.0439 8.44727C52.4281 8.24219 52.7568 8.13965 53.0303 8.13965C53.2061 8.13965 53.4616 8.18522 53.7969 8.27637C54.1322 8.36751 54.3861 8.41309 54.5586 8.41309C54.9004 8.41309 55.2764 8.29753 55.6865 8.06641ZM54.0264 15H52.835V10.5713C52.9131 10.4053 53.0872 10.2067 53.3574 9.97559C53.6048 9.764 53.8278 9.611 54.0264 9.5166V15Z" fill="#303030"/>
<path fill-rule="evenodd" clip-rule="evenodd" d="M67.9988 24.367L60.0508 19.7734V3.14893L67.9988 7.74253L75.9469 3.14893V19.7734L67.9988 24.367Z" fill="#8D8D8D"/>
<path fill-rule="evenodd" clip-rule="evenodd" d="M59.5 20.0875V2.19678L68 7.10938L76.5 2.19678V20.0875L68 25.0001L59.5 20.0875ZM68 7.74248L60.0519 3.14888V19.7733L68 24.367L75.9481 19.7733V3.14888L68 7.74248Z" fill="#101010"/>
<path d="M68 8.94229L75.9481 4.36084V19.7734L68 24.3671V8.94229Z" fill="#434343"/>
<path fill-rule="evenodd" clip-rule="evenodd" d="M74.9402 17.6201L67.9995 21.6326L61.0503 17.6202L61.0449 18.1412L67.9911 22.152L67.9911 22.1537L67.9926 22.1528L67.9941 22.1537L67.9941 22.152L74.9403 18.1412L74.9402 17.6201Z" fill="#101010"/>
<path fill-rule="evenodd" clip-rule="evenodd" d="M74.9402 12.7534L67.9995 16.7659L61.0503 12.7535L61.0449 13.2745L67.9911 17.2853L67.9911 17.287L67.9926 17.2861L67.9941 17.287L67.9941 17.2853L74.9403 13.2745L74.9402 12.7534Z" fill="#101010"/>
<path fill-rule="evenodd" clip-rule="evenodd" d="M74.9402 14.7422L67.9995 18.7547L61.0503 14.7422L61.0449 15.2633L67.9911 19.274L67.9911 19.2758L67.9926 19.2749L67.9941 19.2757L67.9941 19.274L74.9403 15.2633L74.9402 14.7422Z" fill="white"/>
<path fill-rule="evenodd" clip-rule="evenodd" d="M74.9402 9.87549L67.9995 13.888L61.0503 9.87554L61.0449 10.3966L67.9911 14.4073L67.9911 14.4091L67.9926 14.4082L67.9941 14.409L67.9941 14.4073L74.9403 10.3966L74.9402 9.87549Z" fill="white"/>
<path fill-rule="evenodd" clip-rule="evenodd" d="M74.9402 15.8706L67.9995 19.8831L67.9995 19.8849L61.0503 15.8724L61.0449 17.1794L67.9909 21.19L67.9909 21.1915L67.9922 21.1908L67.9941 21.1919L67.9941 21.1897L74.94 17.179L74.9402 15.8706Z" fill="#BDBDBD"/>
<path fill-rule="evenodd" clip-rule="evenodd" d="M74.9402 11.0034L67.9995 15.0159L67.9995 15.0177L61.0503 11.0052L61.0449 12.3122L67.9909 16.3229L67.9909 16.3243L67.9922 16.3236L67.9941 16.3247L67.9941 16.3225L74.94 12.3119L74.9402 11.0034Z" fill="#BDBDBD"/>
<path d="M67.7958 0.134739C67.8712 -0.0449132 68.1281 -0.0449128 68.2035 0.134739L69.656 3.59469C69.6878 3.67043 69.7597 3.72218 69.8422 3.72873L73.6123 4.02819C73.808 4.04374 73.8874 4.28578 73.7382 4.41236L70.8658 6.85018C70.803 6.90355 70.7755 6.98728 70.7947 7.06706L71.6723 10.7121C71.7178 10.9014 71.51 11.0509 71.3424 10.9495L68.1147 8.99623C68.0441 8.95347 67.9552 8.95347 67.8846 8.99623L64.6569 10.9495C64.4893 11.0509 64.2815 10.9014 64.327 10.7121L65.2046 7.06706C65.2238 6.98728 65.1963 6.90355 65.1335 6.85018L62.2611 4.41236C62.1119 4.28578 62.1913 4.04374 62.387 4.02819L66.1571 3.72873C66.2396 3.72218 66.3115 3.67043 66.3433 3.59469L67.7958 0.134739Z" fill="url(#paint0_radial_4261_41180)"/>
<path fill-rule="evenodd" clip-rule="evenodd" d="M67.9996 0.788341L66.751 3.7627C66.6556 3.98991 66.44 4.14515 66.1924 4.16482L62.9514 4.42225L65.4207 6.51793C65.6093 6.67802 65.6917 6.92921 65.6341 7.16857L64.8797 10.302L67.6544 8.62288C67.8664 8.49461 68.1329 8.49461 68.3449 8.62288L71.1196 10.302L70.3652 7.16857C70.3076 6.92921 70.39 6.67802 70.5786 6.51793L73.0479 4.42225L69.8069 4.16482C69.5593 4.14515 69.3437 3.98991 69.2483 3.7627L67.9996 0.788341ZM68.2035 0.134739C68.1281 -0.0449128 67.8712 -0.0449132 67.7958 0.134739L66.3433 3.59469C66.3115 3.67043 66.2396 3.72218 66.1571 3.72873L62.387 4.02819C62.1913 4.04374 62.1119 4.28578 62.2611 4.41236L65.1335 6.85018C65.1963 6.90355 65.2238 6.98728 65.2046 7.06706L64.327 10.7121C64.2815 10.9014 64.4893 11.0509 64.6569 10.9495L67.8846 8.99623C67.9552 8.95347 68.0441 8.95347 68.1147 8.99623L71.3424 10.9495C71.51 11.0509 71.7178 10.9014 71.6723 10.7121L70.7947 7.06706C70.7755 6.98728 70.803 6.90355 70.8658 6.85018L73.7382 4.41236C73.8874 4.28578 73.808 4.04374 73.6123 4.02819L69.8422 3.72873C69.7597 3.72218 69.6878 3.67043 69.656 3.59469L68.2035 0.134739Z" fill="black"/>
<defs>
<radialGradient id="paint0_radial_4261_41180" cx="0" cy="0" r="1" gradientUnits="userSpaceOnUse" gradientTransform="translate(67.9997 6.04737) rotate(90) scale(6.39823 6.45779)">
<stop stop-color="#FEE744"/>
<stop offset="0.455" stop-color="#FCC628"/>
</radialGradient>
</defs>
</svg>
