<svg width="130" height="47" viewBox="0 0 130 47" fill="none" xmlns="http://www.w3.org/2000/svg">
<path d="M61.7354 17.8114V16.7054C61.734 15.7519 61.4191 14.8252 60.8389 14.0674C60.2587 13.3097 59.4453 12.7627 58.5234 12.5105V10.3271C58.9509 10.0076 59.2979 9.59319 59.5369 9.11671C59.7759 8.64024 59.9004 8.11478 59.9004 7.58199V3.55321C59.8994 2.64286 59.5364 1.7701 58.891 1.12639C58.2457 0.482682 57.3707 0.1206 56.458 0.119582H51.5928C51.4102 0.119582 51.2351 0.191933 51.1059 0.320719C50.9768 0.449505 50.9043 0.624176 50.9043 0.806307V7.58199C50.9043 8.11478 51.0288 8.64024 51.2678 9.11671C51.5068 9.59319 51.8538 10.0076 52.2812 10.3271V12.8813C52.0621 13.0188 51.8591 13.1804 51.6759 13.363L47.2734 17.7584H42.6125C42.3131 17.7584 42.0149 17.7952 41.7246 17.8681V17.6216C41.7266 16.8921 41.4947 16.181 41.0628 15.5922C40.6308 15.0034 40.0216 14.5678 39.3238 14.3489L36.0084 13.2991C35.8689 13.2553 35.7471 13.1682 35.6607 13.0505C35.5743 12.9327 35.5279 12.7905 35.5283 12.6446V11.2219C35.9632 10.8009 36.3089 10.297 36.5449 9.74016C36.7809 9.18334 36.9024 8.58491 36.9022 7.98038V1.14674C36.9018 0.842701 36.7805 0.55122 36.565 0.336241C36.3494 0.121262 36.0572 0.000339247 35.7524 0H30.8152C30.0212 0.000896675 29.26 0.315893 28.6986 0.875883C28.1372 1.43587 27.8214 2.19513 27.8205 2.98707V7.98029C27.8203 8.58482 27.9418 9.18324 28.1778 9.74006C28.4137 10.2969 28.7594 10.8008 29.1943 11.2218V12.6445C29.1947 12.7904 29.1483 12.9326 29.0619 13.0504C28.9755 13.1681 28.8537 13.2552 28.7141 13.299L25.3989 14.3489C24.7012 14.5678 24.0919 15.0034 23.66 15.5922C23.228 16.1809 22.9961 16.892 22.998 17.6215V20.7012H19.1885C19.0059 20.7012 18.8308 20.7735 18.7017 20.9023C18.5725 21.0311 18.5 21.2058 18.5 21.3879V22.9287C18.5005 23.3546 18.6332 23.7699 18.8797 24.1176C19.1262 24.4653 19.4746 24.7284 19.877 24.8708V45.4612C19.8774 45.8375 20.0274 46.1982 20.2942 46.4643C20.5609 46.7303 20.9226 46.88 21.2998 46.8804H23.3193C23.4638 46.8804 23.6047 46.8351 23.7219 46.7508C23.8391 46.6665 23.9268 46.5476 23.9725 46.4109L25.0356 43.2296C25.0812 43.0928 25.1688 42.9738 25.2861 42.8895C25.4033 42.8052 25.5443 42.7599 25.6888 42.7601H42.9812C43.1257 42.7599 43.2666 42.8052 43.3839 42.8895C43.5011 42.9738 43.5888 43.0928 43.6343 43.2296L44.6974 46.4109C44.7431 46.5476 44.8307 46.6666 44.948 46.7508C45.0652 46.8351 45.2061 46.8804 45.3506 46.8804H47.3701C47.7474 46.88 48.109 46.7303 48.3758 46.4643C48.6425 46.1982 48.7926 45.8375 48.793 45.4612V32.8663H53.7585L55.4996 46.4006C55.5209 46.5663 55.602 46.7185 55.7277 46.8288C55.8534 46.9391 56.0151 47 56.1825 47H59.3036C59.4013 47 59.4978 46.9793 59.5868 46.9392C59.6758 46.8991 59.7553 46.8406 59.8199 46.7676C59.8845 46.6945 59.9328 46.6086 59.9615 46.5155C59.9903 46.4224 59.9989 46.3243 59.9867 46.2277L58.3032 32.8663H59.3037C60.9465 32.8644 62.5215 32.2127 63.6831 31.054C64.8447 29.8953 65.4982 28.3244 65.5 26.6858V22.1992C65.4986 21.1406 65.1188 20.1172 64.4288 19.313C63.7387 18.5087 62.7837 17.9763 61.7354 17.8114ZM52.2812 1.49303H56.458C57.0056 1.49364 57.5306 1.71089 57.9178 2.09711C58.305 2.48334 58.5228 3.007 58.5234 3.55321V4.1676L58.5196 4.16998C58.0213 4.49007 57.4357 4.64828 56.8436 4.62281C56.2514 4.59735 55.6817 4.38947 55.2129 4.02778L52.3061 1.78054C52.298 1.77431 52.2895 1.76909 52.2812 1.76323V1.49303ZM52.2812 3.499L54.3694 5.11326C54.9512 5.56222 55.6399 5.8527 56.3681 5.95621C57.0964 6.05973 57.8391 5.97273 58.5234 5.70375V7.58199C58.5228 8.1282 58.305 8.65186 57.9178 9.03809C57.5306 9.42431 57.0056 9.64156 56.458 9.64217H54.3467C53.7991 9.64156 53.2741 9.42431 52.8869 9.03809C52.4997 8.65186 52.2819 8.1282 52.2812 7.58199V3.499ZM57.1465 10.9465V12.3562H54.1112C53.9597 12.3565 53.8084 12.3666 53.6582 12.3864V10.9464C53.8848 10.9924 54.1154 11.0156 54.3467 11.0155H56.458C56.6892 11.0156 56.9199 10.9925 57.1465 10.9465ZM52.65 14.3337C52.8414 14.1416 53.0691 13.9893 53.3199 13.8856C53.5707 13.7819 53.8397 13.7289 54.1112 13.7296H57.375C58.1659 13.7305 58.9243 14.0444 59.4836 14.6022C60.0429 15.1601 60.3575 15.9165 60.3584 16.7055V25.6787C60.3578 26.2249 60.14 26.7485 59.7527 27.1348C59.3655 27.521 58.8405 27.7382 58.2929 27.7388H48.793V24.8708C49.1954 24.7284 49.5437 24.4653 49.7902 24.1176C50.0368 23.7699 50.1694 23.3546 50.1699 22.9287V21.7112C50.2848 21.6338 50.392 21.5456 50.49 21.4478L53.8271 18.121C53.9553 17.9921 54.0271 17.8177 54.0268 17.6361C54.0265 17.4545 53.954 17.2804 53.8253 17.152C53.6966 17.0235 53.5221 16.9511 53.34 16.9507C53.158 16.9502 52.9831 17.0217 52.8538 17.1495L51.7673 18.2327L50.3153 16.6645L52.65 14.3337ZM42.6125 19.1318H47.5588C47.6492 19.1318 47.7388 19.114 47.8224 19.0795C47.906 19.0449 47.9819 18.9943 48.0458 18.9304L49.3413 17.637L50.7926 19.2044L49.5166 20.4764C49.3859 20.6073 49.2124 20.687 49.0277 20.7012H40.4557C40.6027 20.2458 40.8907 19.8486 41.2782 19.5666C41.6657 19.2846 42.1328 19.1324 42.6125 19.1318ZM29.1975 2.98707C29.1979 2.55926 29.3685 2.14911 29.6718 1.8466C29.9751 1.5441 30.3863 1.37393 30.8152 1.37345H35.5253V4.81422C34.9502 5.01606 34.3323 5.06466 33.7326 4.95522C33.3943 4.88102 33.0689 4.75696 32.7673 4.58714C32.3663 4.36602 31.9346 4.20556 31.4863 4.11101C30.7218 3.97259 29.9347 4.02839 29.1975 4.27326V2.98707ZM29.1975 5.73086C29.9337 5.4308 30.6126 5.33906 31.22 5.45855C31.5442 5.52987 31.8558 5.64908 32.1446 5.81226C32.5571 6.03915 33.001 6.20412 33.4618 6.30184C34.1456 6.43427 34.8502 6.41398 35.5252 6.24242V7.98029C35.5252 8.81727 35.1919 9.61996 34.5985 10.2118C34.0052 10.8036 33.2004 11.1361 32.3613 11.1361C31.5222 11.1361 30.7175 10.8036 30.1241 10.2118C29.5308 9.61996 29.1975 8.81727 29.1975 7.98029V5.73086ZM34.5236 13.8253C33.1357 14.3781 31.5878 14.3773 30.2004 13.8232C30.4423 13.4775 30.5717 13.0661 30.5713 12.6445V12.1422C31.1368 12.3846 31.7458 12.5097 32.3613 12.5097C32.9768 12.5097 33.5859 12.3846 34.1514 12.1422V12.6445C34.1509 13.0669 34.2809 13.4792 34.5236 13.8253ZM24.375 17.6215C24.3738 17.1838 24.513 16.7572 24.7721 16.4039C25.0313 16.0506 25.3968 15.7892 25.8155 15.6579L28.8402 14.7001C29.9163 15.2982 31.1276 15.6124 32.3594 15.6129C32.4108 15.6129 32.4628 15.6124 32.5149 15.6113C33.6951 15.5854 34.8511 15.2727 35.8827 14.7002L38.9072 15.658C39.3258 15.7893 39.6913 16.0507 39.9505 16.4039C40.2096 16.7571 40.3488 17.1837 40.3477 17.6215V18.5494C39.6679 19.088 39.2032 19.8511 39.0373 20.7011H37.5938V19.1653C37.5938 18.9832 37.5212 18.8085 37.3921 18.6797C37.263 18.5509 37.0879 18.4786 36.9053 18.4786C36.7227 18.4786 36.5476 18.5509 36.4184 18.6797C36.2893 18.8085 36.2168 18.9832 36.2168 19.1653V20.7011H28.5059V19.1653C28.5059 18.9832 28.4333 18.8085 28.3042 18.6797C28.1751 18.5509 28 18.4786 27.8174 18.4786C27.6348 18.4786 27.4597 18.5509 27.3306 18.6797C27.2014 18.8085 27.1289 18.9832 27.1289 19.1653V20.7011H24.375V17.6215ZM47.416 45.4612C47.416 45.4733 47.4112 45.485 47.4026 45.4936C47.394 45.5021 47.3823 45.507 47.3701 45.507H45.8468L44.9406 42.7952C44.8038 42.3848 44.5409 42.0278 44.1892 41.775C43.8374 41.5221 43.4147 41.3862 42.9811 41.3866H25.6888C25.2552 41.3862 24.8325 41.5221 24.4807 41.775C24.129 42.0279 23.866 42.3849 23.7293 42.7953L22.8231 45.507H21.2998C21.2876 45.507 21.276 45.5021 21.2673 45.4936C21.2587 45.485 21.2539 45.4733 21.2539 45.4612V24.9889H47.416V45.4612ZM48.1045 23.6155H20.5654C20.3829 23.6153 20.2079 23.5429 20.0788 23.4141C19.9497 23.2854 19.8771 23.1108 19.877 22.9287V22.0746H39.5988C39.6187 22.0764 39.6388 22.0777 39.6592 22.0777H48.793V22.9287C48.7928 23.1108 48.7202 23.2854 48.5911 23.4141C48.462 23.5429 48.287 23.6153 48.1045 23.6155ZM58.5233 45.6265H56.7884L55.1468 32.8663H56.9155L58.5233 45.6265ZM64.123 26.6858C64.1216 27.9602 63.6134 29.1821 62.7099 30.0833C61.8064 30.9845 60.5814 31.4914 59.3037 31.4928H48.793V29.1122H58.293C59.2057 29.1112 60.0807 28.7491 60.726 28.1054C61.3714 27.4617 61.7344 26.5889 61.7354 25.6786V19.2101C62.4134 19.3661 63.0184 19.7464 63.452 20.2892C63.8855 20.832 64.1221 21.5052 64.123 22.1992V26.6858Z" fill="#303030"/>
<path d="M89.7063 16.853C89.3573 16.853 89.0631 16.7861 88.8237 16.6522C88.5883 16.5183 88.3935 16.3499 88.2393 16.147C88.1541 16.2565 88.0628 16.3559 87.9654 16.4452C87.868 16.5304 87.7524 16.6035 87.6184 16.6643C87.4886 16.7293 87.3344 16.778 87.1558 16.8104C86.9813 16.8429 86.7724 16.8591 86.5289 16.8591C86.3584 16.8591 86.2022 16.847 86.0602 16.8226C85.9182 16.7983 85.7883 16.7678 85.6706 16.7313C85.6666 17.2061 85.5935 17.6383 85.4515 18.0278C85.3135 18.4174 85.1228 18.7664 84.8793 19.0748C84.6399 19.3832 84.3579 19.651 84.0332 19.8783C83.7086 20.1055 83.3596 20.2922 82.9863 20.4383C82.6129 20.5884 82.2213 20.7 81.8115 20.773C81.4057 20.8461 81.0019 20.8826 80.6002 20.8826C79.9793 20.8826 79.4051 20.7791 78.8776 20.5722C78.35 20.3693 77.8935 20.0812 77.508 19.7078C77.1266 19.3386 76.8283 18.8922 76.6132 18.3687C76.3982 17.8493 76.2906 17.2751 76.2906 16.6461C76.3028 16.2809 76.3515 15.9075 76.4367 15.5261C76.526 15.1446 76.6376 14.7713 76.7715 14.4061C76.9095 14.0409 77.0616 13.6939 77.228 13.3652C77.3984 13.0325 77.5709 12.7342 77.7454 12.4704L79.0724 13.487C78.9263 13.7264 78.7863 13.98 78.6524 14.2478C78.5184 14.5157 78.4008 14.7875 78.2993 15.0635C78.2019 15.3354 78.1228 15.6093 78.0619 15.8852C78.0011 16.1612 77.9706 16.427 77.9706 16.6826C77.9584 16.991 78.0173 17.2812 78.1471 17.553C78.2811 17.829 78.4657 18.0684 78.7011 18.2713C78.9405 18.4783 79.2205 18.6406 79.5411 18.7583C79.8616 18.88 80.2066 18.9409 80.5758 18.9409C80.8558 18.9409 81.1338 18.9206 81.4097 18.88C81.6897 18.8435 81.9555 18.7806 82.2071 18.6913C82.4628 18.6061 82.7002 18.4945 82.9193 18.3565C83.1384 18.2226 83.3271 18.0583 83.4854 17.8635C83.6477 17.6687 83.7735 17.4414 83.8628 17.1817C83.9561 16.9261 84.0028 16.6339 84.0028 16.3052C84.0028 16.0617 83.9663 15.8081 83.8932 15.5443C83.8202 15.2765 83.7228 15.0046 83.6011 14.7287C83.4834 14.4487 83.3474 14.1646 83.1932 13.8765C83.0431 13.5884 82.8869 13.3003 82.7245 13.0122L84.4106 12.1113C84.5567 12.4603 84.7089 12.8032 84.8671 13.14C85.0254 13.4768 85.1897 13.7791 85.3602 14.047C85.5306 14.3107 85.7071 14.5238 85.8897 14.6861C86.0724 14.8443 86.2611 14.9194 86.4558 14.9113C86.6182 14.9072 86.746 14.8626 86.8393 14.7774C86.9367 14.6922 87.0118 14.5806 87.0645 14.4426C87.1173 14.3046 87.1518 14.1464 87.168 13.9678C87.1842 13.7893 87.1924 13.6026 87.1924 13.4078C87.1883 13.2374 87.1822 13.0629 87.1741 12.8843C87.166 12.7017 87.1599 12.5252 87.1558 12.3548L88.8845 12.1174C88.8845 12.231 88.8886 12.3812 88.8967 12.5678C88.9089 12.7504 88.9271 12.9472 88.9515 13.1583C88.9799 13.3693 89.0164 13.5823 89.0611 13.7974C89.1097 14.0125 89.1706 14.2072 89.2437 14.3817C89.3167 14.5522 89.404 14.6922 89.5054 14.8017C89.6069 14.9113 89.7266 14.9661 89.8645 14.9661C89.9984 14.9661 90.1161 14.9052 90.2176 14.7835C90.3231 14.6577 90.4103 14.4974 90.4793 14.3026C90.5524 14.1078 90.6051 13.8928 90.6376 13.6574C90.6741 13.418 90.6924 13.1846 90.6924 12.9574C90.6924 12.8681 90.6903 12.8052 90.6863 12.7687C90.6863 12.7281 90.6863 12.6936 90.6863 12.6652C90.6863 12.6328 90.6842 12.5962 90.6802 12.5557C90.6802 12.511 90.6802 12.44 90.6802 12.3426L92.3297 12.1052L92.3724 12.5861V12.58C92.3805 12.6855 92.3886 12.7829 92.3967 12.8722C92.4089 12.9614 92.4211 13.0548 92.4332 13.1522C92.4454 13.2455 92.4596 13.347 92.4758 13.4565C92.4921 13.5661 92.5103 13.6939 92.5306 13.84C92.555 14.0267 92.6077 14.189 92.6889 14.327C92.77 14.4649 92.8654 14.5806 92.975 14.6739C93.0845 14.7632 93.2002 14.8301 93.3219 14.8748C93.4437 14.9194 93.5593 14.9417 93.6689 14.9417H93.7419C93.8921 14.9417 94.028 14.9681 94.1497 15.0209C94.2755 15.0696 94.3831 15.1386 94.4724 15.2278C94.5616 15.313 94.6306 15.4145 94.6793 15.5322C94.728 15.6499 94.7524 15.7757 94.7524 15.9096C94.7524 16.0435 94.728 16.1693 94.6793 16.287C94.6306 16.4046 94.5616 16.5061 94.4724 16.5913C94.3831 16.6765 94.2755 16.7435 94.1497 16.7922C94.024 16.8449 93.884 16.8713 93.7297 16.8713C93.2753 16.8713 92.8755 16.7983 92.5306 16.6522C92.1857 16.5101 91.8915 16.2809 91.648 15.9643C91.4289 16.2443 91.155 16.4614 90.8263 16.6157C90.4976 16.7739 90.1242 16.853 89.7063 16.853ZM92.7222 15.9035C92.7222 15.7696 92.7486 15.6438 92.8013 15.5261C92.85 15.4084 92.917 15.307 93.0022 15.2217C93.0874 15.1325 93.1889 15.0635 93.3066 15.0148C93.4242 14.9661 93.55 14.9417 93.684 14.9417H94.3109H94.5848C94.735 14.9417 94.8912 14.9357 95.0535 14.9235C95.2199 14.9113 95.3741 14.887 95.5161 14.8504C95.6622 14.8139 95.79 14.7632 95.8996 14.6983C96.0132 14.6333 96.0944 14.5461 96.1431 14.4365C96.1755 14.3635 96.1918 14.2539 96.1918 14.1078C96.1918 14.0104 96.1634 13.8643 96.1066 13.6696C96.0498 13.4748 95.9747 13.2597 95.8813 13.0243C95.788 12.7849 95.6825 12.5354 95.5648 12.2757C95.4471 12.0159 95.3274 11.7704 95.2057 11.5391L96.9466 10.6748C97.0602 10.9304 97.1718 11.2023 97.2813 11.4904C97.395 11.7786 97.4964 12.0707 97.5857 12.367C97.675 12.6632 97.746 12.9594 97.7987 13.2557C97.8555 13.5478 97.884 13.8278 97.884 14.0957C97.884 14.5055 97.8109 14.8809 97.6648 15.2217C97.4944 15.6032 97.2611 15.9197 96.9648 16.1713C96.6686 16.4188 96.3135 16.6014 95.8996 16.7191C95.6561 16.7881 95.4228 16.8287 95.1996 16.8409C94.9764 16.8571 94.7674 16.8652 94.5726 16.8652H93.7387H93.684C93.55 16.8652 93.4242 16.8409 93.3066 16.7922C93.1889 16.7435 93.0874 16.6745 93.0022 16.5852C92.917 16.5 92.85 16.3986 92.8013 16.2809C92.7486 16.1632 92.7222 16.0374 92.7222 15.9035ZM95.7353 7.23565L97.0866 8.58696L95.7353 9.93826L94.384 8.58696L95.7353 7.23565ZM98.7865 16.8835C98.8068 16.5507 98.8271 16.2058 98.8474 15.8487C98.8676 15.4916 98.8839 15.1386 98.8961 14.7896C98.9123 14.4406 98.9224 14.1017 98.9265 13.773C98.9305 13.4443 98.9265 13.142 98.9143 12.8661C98.89 12.2899 98.8656 11.7846 98.8413 11.3504C98.821 10.9122 98.7987 10.5246 98.7743 10.1878C98.754 9.85101 98.7317 9.55681 98.7074 9.30522C98.6871 9.04957 98.6647 8.81623 98.6404 8.60522C98.6161 8.3942 98.5897 8.19739 98.5613 8.01478C98.5329 7.82812 98.5024 7.63536 98.47 7.43652L100.351 6.81565C100.44 7.35942 100.511 7.90725 100.564 8.45913C100.621 9.01101 100.663 9.54058 100.692 10.0478C100.72 10.551 100.738 11.0197 100.746 11.4539C100.759 11.8881 100.765 12.2594 100.765 12.5678C100.765 12.8478 100.763 13.1501 100.759 13.4748C100.759 13.7994 100.755 14.1362 100.746 14.4852C100.742 14.8342 100.734 15.1872 100.722 15.5443C100.71 15.9014 100.692 16.2504 100.667 16.5913L98.7865 16.8835ZM105.323 12.4035C105.477 12.8417 105.611 13.2699 105.725 13.6878C105.773 13.8704 105.822 14.0612 105.871 14.26C105.919 14.4548 105.962 14.6516 105.998 14.8504C106.039 15.0452 106.071 15.238 106.096 15.4287C106.12 15.6154 106.132 15.7899 106.132 15.9522C106.132 16.3336 106.08 16.7049 105.974 17.0661C105.873 17.4313 105.727 17.7843 105.536 18.1252C105.349 18.4661 105.126 18.7928 104.866 19.1052C104.607 19.4217 104.318 19.718 104.002 19.9939C103.685 20.2699 103.347 20.5255 102.985 20.7609C102.624 21.0003 102.251 21.2154 101.865 21.4061L100.758 19.8661C101.05 19.72 101.344 19.5536 101.64 19.367C101.94 19.1843 102.227 18.9875 102.498 18.7765C102.774 18.5655 103.03 18.3443 103.265 18.113C103.505 17.8817 103.712 17.6464 103.886 17.407C104.065 17.1675 104.205 16.9241 104.306 16.6765C104.408 16.433 104.458 16.1936 104.458 15.9583C104.458 15.7878 104.434 15.6032 104.385 15.4043C104.341 15.2055 104.278 14.9925 104.197 14.7652C104.12 14.5339 104.026 14.2904 103.917 14.0348C103.807 13.7751 103.689 13.4991 103.564 13.207L105.323 12.4035ZM106.473 10.0843L105.305 11.2591L104.148 10.1026L103.004 11.247L101.823 10.0722L102.991 8.89739L104.148 10.0539L105.292 8.90957L106.473 10.0843ZM103.065 8.31913L104.148 7.23565L105.238 8.32522L104.154 9.4087L103.065 8.31913ZM108.189 16.8835C108.209 16.571 108.228 16.2443 108.244 15.9035C108.264 15.5626 108.28 15.2258 108.292 14.893C108.305 14.5603 108.315 14.2377 108.323 13.9252C108.331 13.6087 108.335 13.3206 108.335 13.0609C108.335 12.3832 108.325 11.8009 108.305 11.3139C108.284 10.827 108.26 10.411 108.232 10.0661C108.203 9.7171 108.171 9.42696 108.134 9.19565C108.102 8.96029 108.071 8.75333 108.043 8.57478L107.964 8.11217L109.857 7.50956C109.873 7.56638 109.887 7.61913 109.899 7.66783C109.912 7.71652 109.922 7.77536 109.93 7.84435C109.942 7.90928 109.954 7.99043 109.966 8.08783C109.983 8.18522 109.999 8.31304 110.015 8.4713C110.031 8.62956 110.05 8.82232 110.07 9.04956C110.094 9.27681 110.123 9.55478 110.155 9.88348C110.175 10.2 110.192 10.4841 110.204 10.7357C110.22 10.9872 110.232 11.2328 110.24 11.4722C110.248 11.7116 110.255 11.9591 110.259 12.2148C110.263 12.4664 110.265 12.7525 110.265 13.073C110.265 13.6006 110.257 14.1606 110.24 14.753C110.224 15.3414 110.194 15.9603 110.149 16.6096L108.189 16.8835ZM106.564 7.13826C106.564 7.11391 106.578 7.06928 106.606 7.00435C106.631 6.93536 106.661 6.86232 106.698 6.78522C106.73 6.70812 106.763 6.6371 106.795 6.57217C106.828 6.50319 106.85 6.45855 106.862 6.43826C107.008 6.21507 107.179 6.03246 107.373 5.89043C107.572 5.74841 107.769 5.65507 107.964 5.61043C108.004 5.60232 108.055 5.59826 108.116 5.59826C108.177 5.5942 108.226 5.59217 108.262 5.59217C108.457 5.59217 108.633 5.61652 108.792 5.66522C108.95 5.70985 109.092 5.76058 109.218 5.81739L109.406 5.9087C109.475 5.94116 109.544 5.97159 109.613 6C109.682 6.02435 109.755 6.03855 109.832 6.04261C109.897 6.04667 109.964 6.03043 110.033 5.99391C110.102 5.95739 110.169 5.9087 110.234 5.84783C110.303 5.7829 110.368 5.71188 110.429 5.63478C110.494 5.55768 110.555 5.48058 110.612 5.40348L111.561 6.01826C111.557 6.03043 111.535 6.06898 111.494 6.13391C111.454 6.19478 111.395 6.26985 111.318 6.35913C111.245 6.44841 111.155 6.54377 111.05 6.64522C110.948 6.74261 110.833 6.83391 110.703 6.91913C110.573 7.00029 110.431 7.06725 110.277 7.12C110.127 7.17275 109.966 7.1971 109.796 7.19304C109.67 7.20116 109.542 7.17681 109.412 7.12C109.283 7.05913 109.149 6.99623 109.011 6.9313C108.877 6.86232 108.739 6.80551 108.597 6.76087C108.455 6.71217 108.307 6.70406 108.152 6.73652C108.059 6.75681 107.982 6.79333 107.921 6.84609C107.864 6.89478 107.816 6.95362 107.775 7.02261C107.735 7.08754 107.7 7.15855 107.672 7.23565C107.643 7.31275 107.613 7.38783 107.58 7.46087L106.564 7.13826ZM85.1889 37.9113C85.2863 37.9154 85.3837 37.9194 85.4811 37.9235C85.5825 37.9235 85.6779 37.9235 85.7672 37.9235C86.0878 37.9235 86.3941 37.9113 86.6863 37.887C86.9785 37.8626 87.2483 37.8301 87.4959 37.7896C87.7434 37.749 87.9605 37.7064 88.1472 37.6617C88.3379 37.613 88.4901 37.5664 88.6037 37.5217H88.5976C88.8086 37.4325 88.9628 37.3533 89.0602 37.2843C89.1576 37.2154 89.2225 37.1626 89.255 37.1261C89.3159 37.0571 89.3585 36.9861 89.3828 36.913C89.4112 36.8359 89.4254 36.7568 89.4254 36.6757C89.4254 36.5012 89.3585 36.3145 89.2246 36.1157C89.0907 35.9128 88.9182 35.7078 88.7072 35.5009C88.5002 35.2939 88.2689 35.087 88.0133 34.88C87.7617 34.673 87.5162 34.4742 87.2767 34.2835L86.0046 33.2365L86.2054 31.4348L91.6959 29.0426L92.4507 30.8322L88.1594 32.6643C88.3866 32.8551 88.6159 33.0519 88.8472 33.2548C89.0825 33.4577 89.3078 33.6667 89.5228 33.8817C89.7379 34.0928 89.9388 34.3099 90.1254 34.533C90.3162 34.7522 90.4805 34.9774 90.6185 35.2087C90.7605 35.4359 90.8721 35.6672 90.9533 35.9026C91.0344 36.138 91.075 36.3774 91.075 36.6209C91.075 36.8887 91.0283 37.1606 90.935 37.4365C90.8457 37.7125 90.6976 37.9965 90.4907 38.2887H90.4967C90.4724 38.3252 90.4298 38.378 90.3689 38.447C90.3121 38.5159 90.233 38.593 90.1315 38.6783C90.0341 38.7635 89.9124 38.8548 89.7663 38.9522C89.6202 39.0455 89.4478 39.1388 89.2489 39.2322C88.6889 39.4797 88.1249 39.6461 87.5567 39.7313C86.9886 39.8165 86.4104 39.8591 85.822 39.8591H85.6941C85.6089 39.8591 85.5217 39.8591 85.4324 39.8591C85.3431 39.8591 85.2559 39.8551 85.1707 39.847C84.4118 39.8388 83.7321 39.7901 83.1315 39.7009C82.5309 39.6157 82.0034 39.4878 81.5489 39.3174C80.6278 38.9603 79.9947 38.4368 79.6498 37.747V37.753C79.455 37.3757 79.3576 36.9577 79.3576 36.4991C79.3576 36.3003 79.382 36.0852 79.4307 35.8539C79.4794 35.6226 79.5422 35.3974 79.6194 35.1783C79.668 35.0646 79.7086 34.9693 79.7411 34.8922C79.7776 34.8151 79.8121 34.7441 79.8446 34.6791C79.877 34.6142 79.9136 34.5493 79.9541 34.4843C79.9947 34.4194 80.0454 34.3403 80.1063 34.247L81.5489 35.3C81.4921 35.4014 81.4292 35.5049 81.3602 35.6104C81.2953 35.7159 81.2344 35.8235 81.1776 35.933C81.1249 36.0426 81.0802 36.1542 81.0437 36.2678C81.0072 36.3814 80.9889 36.4951 80.9889 36.6087C80.9889 36.767 81.0437 36.909 81.1533 37.0348C81.2669 37.1565 81.4211 37.2641 81.6159 37.3574C81.8147 37.4467 82.046 37.5238 82.3098 37.5887C82.5776 37.6536 82.8657 37.7084 83.1741 37.753C83.4866 37.7977 83.8133 37.8322 84.1541 37.8565C84.495 37.8809 84.8379 37.8991 85.1828 37.9113H85.1889ZM100.662 37.7713C100.771 37.8322 100.885 37.8748 101.003 37.8991C101.124 37.9194 101.244 37.9336 101.362 37.9417C101.492 37.9417 101.616 37.9681 101.733 38.0209C101.851 38.0696 101.952 38.1365 102.038 38.2217C102.127 38.307 102.198 38.4084 102.251 38.5261C102.303 38.6438 102.33 38.7696 102.33 38.9035C102.33 39.0374 102.303 39.1632 102.251 39.2809C102.198 39.3986 102.127 39.5 102.038 39.5852C101.952 39.6745 101.851 39.7435 101.733 39.7922C101.616 39.8409 101.492 39.8652 101.362 39.8652H101.307C101.202 39.8652 101.066 39.8591 100.899 39.847C100.737 39.8348 100.56 39.8003 100.37 39.7435C100.179 39.6907 99.9842 39.6096 99.7854 39.5C99.5865 39.3945 99.3999 39.2443 99.2254 39.0496C98.99 39.2728 98.7283 39.4635 98.4401 39.6217C98.1561 39.78 97.8538 39.9099 97.5332 40.0113C97.2126 40.1168 96.8819 40.1939 96.541 40.2426C96.2001 40.2913 95.8573 40.3157 95.5123 40.3157C95.3175 40.3157 95.1106 40.3035 94.8915 40.2791C94.6764 40.2588 94.4349 40.2203 94.1671 40.1635L94.7088 38.3496C94.8955 38.3739 95.072 38.3942 95.2384 38.4104C95.4088 38.4226 95.5651 38.4287 95.7071 38.4287C95.837 38.4287 95.9668 38.4226 96.0967 38.4104C96.2265 38.3983 96.3544 38.3759 96.4801 38.3435C96.3584 37.9052 96.2123 37.4751 96.0419 37.053C95.8715 36.627 95.6868 36.2171 95.488 35.8235C95.2891 35.4299 95.0842 35.0545 94.8732 34.6974C94.6622 34.3403 94.4532 34.0096 94.2462 33.7052C94.0433 33.4009 93.8486 33.1249 93.6619 32.8774C93.4793 32.6258 93.317 32.4107 93.1749 32.2322L94.5445 30.8139L96.2123 33.4983C96.4071 33.8513 96.5917 34.2104 96.7662 34.5757C96.9448 34.9409 97.1091 35.302 97.2593 35.6591C97.4135 36.0122 97.5494 36.3551 97.6671 36.6878C97.7888 37.0206 97.8903 37.329 97.9715 37.613C98.1297 37.4832 98.2677 37.3371 98.3854 37.1748C98.5071 37.0125 98.57 36.8461 98.5741 36.6757C98.5294 36.0467 98.4746 35.4339 98.4097 34.8374C98.3448 34.2368 98.2758 33.6626 98.2028 33.1148C98.1338 32.567 98.0628 32.0496 97.9897 31.5626C97.9167 31.0757 97.8497 30.6293 97.7888 30.2235L99.6758 29.8704C99.6758 29.8786 99.6819 29.9496 99.6941 30.0835C99.7103 30.2133 99.7306 30.3939 99.7549 30.6252C99.7833 30.8525 99.8138 31.1223 99.8462 31.4348C99.8787 31.7432 99.9132 32.078 99.9497 32.4391C99.9903 32.7962 100.029 33.1716 100.065 33.5652C100.106 33.9548 100.142 34.3484 100.175 34.7461C100.211 35.1397 100.244 35.5293 100.272 35.9148C100.305 36.2962 100.331 36.6574 100.351 36.9983C100.364 37.1809 100.4 37.3452 100.461 37.4913C100.526 37.6333 100.593 37.7267 100.662 37.7713ZM100.345 38.9035C100.345 38.7696 100.369 38.6458 100.418 38.5322C100.467 38.4186 100.534 38.3191 100.619 38.2339C100.704 38.1487 100.806 38.0817 100.923 38.033C101.037 37.9803 101.161 37.9499 101.295 37.9417C101.567 37.9417 101.802 37.889 102.001 37.7835C102.204 37.678 102.382 37.54 102.536 37.3696C102.691 37.1991 102.829 37.0084 102.95 36.7974C103.072 36.5864 103.188 36.3754 103.297 36.1643V36.1704C103.403 35.9513 103.514 35.7342 103.632 35.5191C103.754 35.3041 103.886 35.1052 104.028 34.9226C104.247 34.667 104.492 34.4701 104.764 34.3322C105.036 34.1901 105.326 34.1191 105.635 34.1191C106 34.1191 106.331 34.1942 106.627 34.3443C106.927 34.4945 107.199 34.7096 107.443 34.9896C107.625 35.2087 107.773 35.4603 107.887 35.7443C108 36.0243 108.076 36.3226 108.112 36.6391V36.627C108.136 36.7852 108.149 36.9658 108.149 37.1687C108.149 37.3878 108.128 37.6029 108.088 37.8139C108.051 38.0209 107.998 38.2177 107.929 38.4043C107.796 38.7452 107.603 39.0313 107.351 39.2626C107.104 39.4899 106.834 39.6461 106.542 39.7313C106.444 39.7597 106.347 39.778 106.249 39.7861C106.156 39.7983 106.057 39.8043 105.951 39.8043C105.769 39.8043 105.574 39.782 105.367 39.7374C105.164 39.6928 104.963 39.6319 104.764 39.5548C104.683 39.5183 104.592 39.4757 104.49 39.427C104.389 39.3742 104.281 39.3174 104.168 39.2565C104.058 39.1957 103.949 39.1328 103.839 39.0678C103.729 39.0029 103.628 38.94 103.535 38.8791C103.372 39.0293 103.21 39.1652 103.048 39.287C102.885 39.4087 102.715 39.5122 102.536 39.5974C102.358 39.6826 102.167 39.7475 101.964 39.7922C101.761 39.8409 101.54 39.8652 101.301 39.8652C101.167 39.8652 101.043 39.8388 100.929 39.7861C100.812 39.7374 100.71 39.6704 100.625 39.5852C100.536 39.5 100.467 39.3986 100.418 39.2809C100.369 39.1632 100.345 39.0374 100.345 38.9035ZM104.661 37.3026C104.787 37.3838 104.935 37.4629 105.105 37.54C105.28 37.6171 105.452 37.6861 105.623 37.747C105.793 37.8078 105.949 37.8586 106.091 37.8991C106.237 37.9357 106.347 37.9539 106.42 37.9539C106.436 37.9539 106.452 37.9539 106.469 37.9539C106.489 37.9499 106.509 37.9458 106.529 37.9417C106.578 37.9296 106.625 37.8687 106.669 37.7591C106.718 37.6455 106.736 37.4913 106.724 37.2965C106.724 37.1667 106.688 37.0246 106.615 36.8704C106.542 36.7122 106.446 36.5661 106.329 36.4322C106.211 36.2942 106.075 36.1806 105.921 36.0913C105.771 35.998 105.616 35.9513 105.458 35.9513C105.401 35.9513 105.328 36.0325 105.239 36.1948C105.15 36.3571 105.02 36.5986 104.849 36.9191V36.913L104.661 37.3026ZM108.999 39.8835C109.02 39.5507 109.04 39.2058 109.06 38.8487C109.081 38.4916 109.097 38.1386 109.109 37.7896C109.125 37.4406 109.135 37.1017 109.139 36.773C109.143 36.4443 109.139 36.142 109.127 35.8661C109.103 35.2899 109.079 34.7846 109.054 34.3504C109.034 33.9122 109.012 33.5246 108.987 33.1878C108.967 32.851 108.945 32.5568 108.92 32.3052C108.9 32.0496 108.878 31.8162 108.853 31.6052C108.829 31.3942 108.803 31.1974 108.774 31.0148C108.746 30.8281 108.715 30.6354 108.683 30.4365L110.564 29.8157C110.653 30.3594 110.724 30.9072 110.777 31.4591C110.834 32.011 110.876 32.5406 110.905 33.0478C110.933 33.551 110.951 34.0197 110.959 34.4539C110.972 34.8881 110.978 35.2594 110.978 35.5678C110.978 35.8478 110.976 36.1501 110.972 36.4748C110.972 36.7994 110.967 37.1362 110.959 37.4852C110.955 37.8342 110.947 38.1872 110.935 38.5443C110.923 38.9014 110.905 39.2504 110.88 39.5913L108.999 39.8835Z" fill="#303030"/>
</svg>
