<svg width="179" height="76" viewBox="0 0 179 76" fill="none" xmlns="http://www.w3.org/2000/svg">
<rect x="0.75" y="0.75" width="177.5" height="74.5" rx="9.25" fill="white"/>
<rect x="0.75" y="0.75" width="177.5" height="74.5" rx="9.25" stroke="url(#paint0_linear_4574_22150)" stroke-width="1.5"/>
<path d="M82.7354 32.3114V31.2054C82.734 30.2519 82.4191 29.3252 81.8389 28.5674C81.2587 27.8097 80.4453 27.2627 79.5234 27.0105V24.8271C79.9509 24.5076 80.2979 24.0932 80.5369 23.6167C80.7759 23.1402 80.9004 22.6148 80.9004 22.082V18.0532C80.8994 17.1429 80.5364 16.2701 79.891 15.6264C79.2457 14.9827 78.3707 14.6206 77.458 14.6196H72.5928C72.4102 14.6196 72.2351 14.6919 72.1059 14.8207C71.9768 14.9495 71.9043 15.1242 71.9043 15.3063V22.082C71.9043 22.6148 72.0288 23.1402 72.2678 23.6167C72.5068 24.0932 72.8538 24.5076 73.2812 24.8271V27.3813C73.0621 27.5188 72.8591 27.6804 72.6759 27.863L68.2734 32.2584H63.6125C63.3131 32.2584 63.0149 32.2952 62.7246 32.3681V32.1216C62.7266 31.3921 62.4947 30.681 62.0628 30.0922C61.6308 29.5034 61.0216 29.0678 60.3238 28.8489L57.0084 27.7991C56.8689 27.7553 56.7471 27.6682 56.6607 27.5505C56.5743 27.4327 56.5279 27.2905 56.5283 27.1446V25.7219C56.9632 25.3009 57.3089 24.797 57.5449 24.2402C57.7809 23.6833 57.9024 23.0849 57.9022 22.4804V15.6467C57.9018 15.3427 57.7805 15.0512 57.565 14.8362C57.3494 14.6213 57.0572 14.5003 56.7524 14.5H51.8152C51.0212 14.5009 50.26 14.8159 49.6986 15.3759C49.1372 15.9359 48.8214 16.6951 48.8205 17.4871V22.4803C48.8203 23.0848 48.9418 23.6832 49.1778 24.2401C49.4137 24.7969 49.7594 25.3008 50.1943 25.7218V27.1445C50.1947 27.2904 50.1483 27.4326 50.0619 27.5504C49.9755 27.6681 49.8537 27.7552 49.7141 27.799L46.3989 28.8489C45.7012 29.0678 45.0919 29.5034 44.66 30.0922C44.228 30.6809 43.9961 31.392 43.998 32.1215V35.2012H40.1885C40.0059 35.2012 39.8308 35.2735 39.7017 35.4023C39.5725 35.5311 39.5 35.7058 39.5 35.8879V37.4287C39.5005 37.8546 39.6332 38.2699 39.8797 38.6176C40.1262 38.9653 40.4746 39.2284 40.877 39.3708V59.9612C40.8774 60.3375 41.0274 60.6982 41.2942 60.9643C41.5609 61.2303 41.9226 61.38 42.2998 61.3804H44.3193C44.4638 61.3804 44.6047 61.3351 44.7219 61.2508C44.8391 61.1665 44.9268 61.0476 44.9725 60.9109L46.0356 57.7296C46.0812 57.5928 46.1688 57.4738 46.2861 57.3895C46.4033 57.3052 46.5443 57.2599 46.6888 57.2601H63.9812C64.1257 57.2599 64.2666 57.3052 64.3839 57.3895C64.5011 57.4738 64.5888 57.5928 64.6343 57.7296L65.6974 60.9109C65.7431 61.0476 65.8307 61.1666 65.948 61.2508C66.0652 61.3351 66.2061 61.3804 66.3506 61.3804H68.3701C68.7474 61.38 69.109 61.2303 69.3758 60.9643C69.6425 60.6982 69.7926 60.3375 69.793 59.9612V47.3663H74.7585L76.4996 60.9006C76.5209 61.0663 76.602 61.2185 76.7277 61.3288C76.8534 61.4391 77.0151 61.5 77.1825 61.5H80.3036C80.4013 61.5 80.4978 61.4793 80.5868 61.4392C80.6758 61.3991 80.7553 61.3406 80.8199 61.2676C80.8845 61.1945 80.9328 61.1086 80.9615 61.0155C80.9903 60.9224 80.9989 60.8243 80.9867 60.7277L79.3032 47.3663H80.3037C81.9465 47.3644 83.5215 46.7127 84.6831 45.554C85.8447 44.3953 86.4982 42.8244 86.5 41.1858V36.6992C86.4986 35.6406 86.1188 34.6172 85.4288 33.813C84.7387 33.0087 83.7837 32.4763 82.7354 32.3114ZM73.2812 15.993H77.458C78.0056 15.9936 78.5306 16.2109 78.9178 16.5971C79.305 16.9833 79.5228 17.507 79.5234 18.0532V18.6676L79.5196 18.67C79.0213 18.9901 78.4357 19.1483 77.8436 19.1228C77.2514 19.0973 76.6817 18.8895 76.2129 18.5278L73.3061 16.2805C73.298 16.2743 73.2895 16.2691 73.2812 16.2632V15.993ZM73.2812 17.999L75.3694 19.6133C75.9512 20.0622 76.6399 20.3527 77.3681 20.4562C78.0964 20.5597 78.8391 20.4727 79.5234 20.2038V22.082C79.5228 22.6282 79.305 23.1519 78.9178 23.5381C78.5306 23.9243 78.0056 24.1416 77.458 24.1422H75.3467C74.7991 24.1416 74.2741 23.9243 73.8869 23.5381C73.4997 23.1519 73.2819 22.6282 73.2812 22.082V17.999ZM78.1465 25.4465V26.8562H75.1112C74.9597 26.8565 74.8084 26.8666 74.6582 26.8864V25.4464C74.8848 25.4924 75.1154 25.5156 75.3467 25.5155H77.458C77.6892 25.5156 77.9199 25.4925 78.1465 25.4465ZM73.65 28.8337C73.8414 28.6416 74.0691 28.4893 74.3199 28.3856C74.5707 28.2819 74.8397 28.2289 75.1112 28.2296H78.375C79.1659 28.2305 79.9243 28.5444 80.4836 29.1022C81.0429 29.6601 81.3575 30.4165 81.3584 31.2055V40.1787C81.3578 40.7249 81.14 41.2485 80.7527 41.6348C80.3655 42.021 79.8405 42.2382 79.2929 42.2388H69.793V39.3708C70.1954 39.2284 70.5437 38.9653 70.7902 38.6176C71.0368 38.2699 71.1694 37.8546 71.1699 37.4287V36.2112C71.2848 36.1338 71.392 36.0456 71.49 35.9478L74.8271 32.621C74.9553 32.4921 75.0271 32.3177 75.0268 32.1361C75.0265 31.9545 74.954 31.7804 74.8253 31.652C74.6966 31.5235 74.5221 31.4511 74.34 31.4507C74.158 31.4502 73.9831 31.5217 73.8538 31.6495L72.7673 32.7327L71.3153 31.1645L73.65 28.8337ZM63.6125 33.6318H68.5588C68.6492 33.6318 68.7388 33.614 68.8224 33.5795C68.906 33.5449 68.9819 33.4943 69.0458 33.4304L70.3413 32.137L71.7926 33.7044L70.5166 34.9764C70.3859 35.1073 70.2124 35.187 70.0277 35.2012H61.4557C61.6027 34.7458 61.8907 34.3486 62.2782 34.0666C62.6657 33.7846 63.1328 33.6324 63.6125 33.6318ZM50.1975 17.4871C50.1979 17.0593 50.3685 16.6491 50.6718 16.3466C50.9751 16.0441 51.3863 15.8739 51.8152 15.8734H56.5253V19.3142C55.9502 19.5161 55.3323 19.5647 54.7326 19.4552C54.3943 19.381 54.0689 19.257 53.7673 19.0871C53.3663 18.866 52.9346 18.7056 52.4863 18.611C51.7218 18.4726 50.9347 18.5284 50.1975 18.7733V17.4871ZM50.1975 20.2309C50.9337 19.9308 51.6126 19.8391 52.22 19.9585C52.5442 20.0299 52.8558 20.1491 53.1446 20.3123C53.5571 20.5391 54.001 20.7041 54.4618 20.8018C55.1456 20.9343 55.8502 20.914 56.5252 20.7424V22.4803C56.5252 23.3173 56.1919 24.12 55.5985 24.7118C55.0052 25.3036 54.2004 25.6361 53.3613 25.6361C52.5222 25.6361 51.7175 25.3036 51.1241 24.7118C50.5308 24.12 50.1975 23.3173 50.1975 22.4803V20.2309ZM55.5236 28.3253C54.1357 28.8781 52.5878 28.8773 51.2004 28.3232C51.4423 27.9775 51.5717 27.5661 51.5713 27.1445V26.6422C52.1368 26.8846 52.7458 27.0097 53.3613 27.0097C53.9768 27.0097 54.5859 26.8846 55.1514 26.6422V27.1445C55.1509 27.5669 55.2809 27.9792 55.5236 28.3253ZM45.375 32.1215C45.3738 31.6838 45.513 31.2572 45.7721 30.9039C46.0313 30.5506 46.3968 30.2892 46.8155 30.1579L49.8402 29.2001C50.9163 29.7982 52.1276 30.1124 53.3594 30.1129C53.4108 30.1129 53.4628 30.1124 53.5149 30.1113C54.6951 30.0854 55.8511 29.7727 56.8827 29.2002L59.9072 30.158C60.3258 30.2893 60.6913 30.5507 60.9505 30.9039C61.2096 31.2571 61.3488 31.6837 61.3477 32.1215V33.0494C60.6679 33.588 60.2032 34.3511 60.0373 35.2011H58.5938V33.6653C58.5938 33.4832 58.5212 33.3085 58.3921 33.1797C58.263 33.0509 58.0879 32.9786 57.9053 32.9786C57.7227 32.9786 57.5476 33.0509 57.4184 33.1797C57.2893 33.3085 57.2168 33.4832 57.2168 33.6653V35.2011H49.5059V33.6653C49.5059 33.4832 49.4333 33.3085 49.3042 33.1797C49.1751 33.0509 49 32.9786 48.8174 32.9786C48.6348 32.9786 48.4597 33.0509 48.3306 33.1797C48.2014 33.3085 48.1289 33.4832 48.1289 33.6653V35.2011H45.375V32.1215ZM68.416 59.9612C68.416 59.9733 68.4112 59.985 68.4026 59.9936C68.394 60.0021 68.3823 60.007 68.3701 60.007H66.8468L65.9406 57.2952C65.8038 56.8848 65.5409 56.5278 65.1892 56.275C64.8374 56.0221 64.4147 55.8862 63.9811 55.8866H46.6888C46.2552 55.8862 45.8325 56.0221 45.4807 56.275C45.129 56.5279 44.866 56.8849 44.7293 57.2953L43.8231 60.007H42.2998C42.2876 60.007 42.276 60.0021 42.2673 59.9936C42.2587 59.985 42.2539 59.9733 42.2539 59.9612V39.4889H68.416V59.9612ZM69.1045 38.1155H41.5654C41.3829 38.1153 41.2079 38.0429 41.0788 37.9141C40.9497 37.7854 40.8771 37.6108 40.877 37.4287V36.5746H60.5988C60.6187 36.5764 60.6388 36.5777 60.6592 36.5777H69.793V37.4287C69.7928 37.6108 69.7202 37.7854 69.5911 37.9141C69.462 38.0429 69.287 38.1153 69.1045 38.1155ZM79.5233 60.1265H77.7884L76.1468 47.3663H77.9155L79.5233 60.1265ZM85.123 41.1858C85.1216 42.4602 84.6134 43.6821 83.7099 44.5833C82.8064 45.4845 81.5814 45.9914 80.3037 45.9928H69.793V43.6122H79.293C80.2057 43.6112 81.0807 43.2491 81.726 42.6054C82.3714 41.9617 82.7344 41.0889 82.7354 40.1786V33.7101C83.4134 33.8661 84.0184 34.2464 84.452 34.7892C84.8855 35.332 85.1221 36.0052 85.123 36.6992V41.1858Z" fill="#303030"/>
<path d="M115.384 30.353C115.035 30.353 114.741 30.2861 114.501 30.1522C114.266 30.0183 114.071 29.8499 113.917 29.647C113.832 29.7565 113.741 29.8559 113.643 29.9452C113.546 30.0304 113.43 30.1035 113.296 30.1643C113.166 30.2293 113.012 30.278 112.834 30.3104C112.659 30.3429 112.45 30.3591 112.207 30.3591C112.036 30.3591 111.88 30.347 111.738 30.3226C111.596 30.2983 111.466 30.2678 111.348 30.2313C111.344 30.7061 111.271 31.1383 111.129 31.5278C110.991 31.9174 110.801 32.2664 110.557 32.5748C110.318 32.8832 110.036 33.151 109.711 33.3783C109.386 33.6055 109.037 33.7922 108.664 33.9383C108.291 34.0884 107.899 34.2 107.489 34.273C107.083 34.3461 106.68 34.3826 106.278 34.3826C105.657 34.3826 105.083 34.2791 104.555 34.0722C104.028 33.8693 103.571 33.5812 103.186 33.2078C102.804 32.8386 102.506 32.3922 102.291 31.8687C102.076 31.3493 101.968 30.7751 101.968 30.1461C101.981 29.7809 102.029 29.4075 102.114 29.0261C102.204 28.6446 102.315 28.2713 102.449 27.9061C102.587 27.5409 102.739 27.1939 102.906 26.8652C103.076 26.5325 103.249 26.2342 103.423 25.9704L104.75 26.987C104.604 27.2264 104.464 27.48 104.33 27.7478C104.196 28.0157 104.078 28.2875 103.977 28.5635C103.88 28.8354 103.801 29.1093 103.74 29.3852C103.679 29.6612 103.648 29.927 103.648 30.1826C103.636 30.491 103.695 30.7812 103.825 31.053C103.959 31.329 104.143 31.5684 104.379 31.7713C104.618 31.9783 104.898 32.1406 105.219 32.2583C105.539 32.38 105.884 32.4409 106.254 32.4409C106.534 32.4409 106.812 32.4206 107.087 32.38C107.367 32.3435 107.633 32.2806 107.885 32.1913C108.141 32.1061 108.378 31.9945 108.597 31.8565C108.816 31.7226 109.005 31.5583 109.163 31.3635C109.325 31.1687 109.451 30.9414 109.541 30.6817C109.634 30.4261 109.681 30.1339 109.681 29.8052C109.681 29.5617 109.644 29.3081 109.571 29.0443C109.498 28.7765 109.401 28.5046 109.279 28.2287C109.161 27.9487 109.025 27.6646 108.871 27.3765C108.721 27.0884 108.565 26.8003 108.402 26.5122L110.088 25.6113C110.234 25.9603 110.387 26.3032 110.545 26.64C110.703 26.9768 110.867 27.2791 111.038 27.547C111.208 27.8107 111.385 28.0238 111.567 28.1861C111.75 28.3443 111.939 28.4194 112.134 28.4113C112.296 28.4072 112.424 28.3626 112.517 28.2774C112.614 28.1922 112.69 28.0806 112.742 27.9426C112.795 27.8046 112.83 27.6464 112.846 27.4678C112.862 27.2893 112.87 27.1026 112.87 26.9078C112.866 26.7374 112.86 26.5629 112.852 26.3843C112.844 26.2017 112.838 26.0252 112.834 25.8548L114.562 25.6174C114.562 25.731 114.566 25.8812 114.574 26.0678C114.587 26.2504 114.605 26.4472 114.629 26.6583C114.658 26.8693 114.694 27.0823 114.739 27.2974C114.787 27.5125 114.848 27.7072 114.921 27.8817C114.994 28.0522 115.082 28.1922 115.183 28.3017C115.285 28.4113 115.404 28.4661 115.542 28.4661C115.676 28.4661 115.794 28.4052 115.895 28.2835C116.001 28.1577 116.088 27.9974 116.157 27.8026C116.23 27.6078 116.283 27.3928 116.315 27.1574C116.352 26.918 116.37 26.6846 116.37 26.4574C116.37 26.3681 116.368 26.3052 116.364 26.2687C116.364 26.2281 116.364 26.1936 116.364 26.1652C116.364 26.1328 116.362 26.0962 116.358 26.0557C116.358 26.011 116.358 25.94 116.358 25.8426L118.007 25.6052L118.05 26.0861V26.08C118.058 26.1855 118.066 26.2829 118.074 26.3722C118.087 26.4614 118.099 26.5548 118.111 26.6522C118.123 26.7455 118.137 26.847 118.154 26.9565C118.17 27.0661 118.188 27.1939 118.208 27.34C118.233 27.5267 118.285 27.689 118.367 27.827C118.448 27.9649 118.543 28.0806 118.653 28.1739C118.762 28.2632 118.878 28.3301 119 28.3748C119.121 28.4194 119.237 28.4417 119.347 28.4417H119.42C119.57 28.4417 119.706 28.4681 119.827 28.5209C119.953 28.5696 120.061 28.6386 120.15 28.7278C120.239 28.813 120.308 28.9145 120.357 29.0322C120.406 29.1499 120.43 29.2757 120.43 29.4096C120.43 29.5435 120.406 29.6693 120.357 29.787C120.308 29.9046 120.239 30.0061 120.15 30.0913C120.061 30.1765 119.953 30.2435 119.827 30.2922C119.702 30.3449 119.562 30.3713 119.407 30.3713C118.953 30.3713 118.553 30.2983 118.208 30.1522C117.863 30.0101 117.569 29.7809 117.326 29.4643C117.107 29.7443 116.833 29.9614 116.504 30.1157C116.175 30.2739 115.802 30.353 115.384 30.353ZM118.4 29.4035C118.4 29.2696 118.426 29.1438 118.479 29.0261C118.528 28.9084 118.595 28.807 118.68 28.7217C118.765 28.6325 118.867 28.5635 118.984 28.5148C119.102 28.4661 119.228 28.4417 119.362 28.4417H119.989H120.263C120.413 28.4417 120.569 28.4357 120.731 28.4235C120.898 28.4113 121.052 28.387 121.194 28.3504C121.34 28.3139 121.468 28.2632 121.577 28.1983C121.691 28.1333 121.772 28.0461 121.821 27.9365C121.853 27.8635 121.87 27.7539 121.87 27.6078C121.87 27.5104 121.841 27.3643 121.784 27.1696C121.727 26.9748 121.652 26.7597 121.559 26.5243C121.466 26.2849 121.36 26.0354 121.243 25.7757C121.125 25.5159 121.005 25.2704 120.883 25.0391L122.624 24.1748C122.738 24.4304 122.85 24.7023 122.959 24.9904C123.073 25.2786 123.174 25.5707 123.263 25.867C123.353 26.1632 123.424 26.4594 123.476 26.7557C123.533 27.0478 123.562 27.3278 123.562 27.5957C123.562 28.0055 123.489 28.3809 123.343 28.7217C123.172 29.1032 122.939 29.4197 122.643 29.6713C122.346 29.9188 121.991 30.1014 121.577 30.2191C121.334 30.2881 121.101 30.3287 120.877 30.3409C120.654 30.3571 120.445 30.3652 120.25 30.3652H119.416H119.362C119.228 30.3652 119.102 30.3409 118.984 30.2922C118.867 30.2435 118.765 30.1745 118.68 30.0852C118.595 30 118.528 29.8986 118.479 29.7809C118.426 29.6632 118.4 29.5374 118.4 29.4035ZM121.413 20.7357L122.764 22.087L121.413 23.4383L120.062 22.087L121.413 20.7357ZM124.464 30.3835C124.485 30.0507 124.505 29.7058 124.525 29.3487C124.545 28.9916 124.562 28.6386 124.574 28.2896C124.59 27.9406 124.6 27.6017 124.604 27.273C124.608 26.9443 124.604 26.642 124.592 26.3661C124.568 25.7899 124.543 25.2846 124.519 24.8504C124.499 24.4122 124.476 24.0246 124.452 23.6878C124.432 23.351 124.409 23.0568 124.385 22.8052C124.365 22.5496 124.342 22.3162 124.318 22.1052C124.294 21.8942 124.267 21.6974 124.239 21.5148C124.211 21.3281 124.18 21.1354 124.148 20.9365L126.029 20.3157C126.118 20.8594 126.189 21.4072 126.242 21.9591C126.298 22.511 126.341 23.0406 126.369 23.5478C126.398 24.051 126.416 24.5197 126.424 24.9539C126.436 25.3881 126.442 25.7594 126.442 26.0678C126.442 26.3478 126.44 26.6501 126.436 26.9748C126.436 27.2994 126.432 27.6362 126.424 27.9852C126.42 28.3342 126.412 28.6872 126.4 29.0443C126.388 29.4014 126.369 29.7504 126.345 30.0913L124.464 30.3835ZM131 25.9035C131.155 26.3417 131.289 26.7699 131.402 27.1878C131.451 27.3704 131.5 27.5612 131.548 27.76C131.597 27.9548 131.64 28.1516 131.676 28.3504C131.717 28.5452 131.749 28.738 131.774 28.9287C131.798 29.1154 131.81 29.2899 131.81 29.4522C131.81 29.8336 131.757 30.2049 131.652 30.5661C131.55 30.9313 131.404 31.2843 131.214 31.6252C131.027 31.9661 130.804 32.2928 130.544 32.6052C130.284 32.9217 129.996 33.218 129.68 33.4939C129.363 33.7699 129.024 34.0255 128.663 34.2609C128.302 34.5003 127.929 34.7154 127.543 34.9061L126.435 33.3661C126.727 33.22 127.022 33.0536 127.318 32.867C127.618 32.6843 127.904 32.4875 128.176 32.2765C128.452 32.0655 128.708 31.8443 128.943 31.613C129.183 31.3817 129.389 31.1464 129.564 30.907C129.743 30.6675 129.883 30.4241 129.984 30.1765C130.085 29.933 130.136 29.6936 130.136 29.4583C130.136 29.2878 130.112 29.1032 130.063 28.9043C130.018 28.7055 129.956 28.4925 129.874 28.2652C129.797 28.0339 129.704 27.7904 129.594 27.5348C129.485 27.2751 129.367 26.9991 129.241 26.707L131 25.9035ZM132.151 23.5843L130.982 24.7591L129.826 23.6026L128.681 24.747L127.5 23.5722L128.669 22.3974L129.826 23.5539L130.97 22.4096L132.151 23.5843ZM128.742 21.8191L129.826 20.7357L130.915 21.8252L129.832 22.9087L128.742 21.8191ZM133.867 30.3835C133.887 30.071 133.905 29.7443 133.922 29.4035C133.942 29.0626 133.958 28.7258 133.97 28.393C133.982 28.0603 133.993 27.7377 134.001 27.4252C134.009 27.1087 134.013 26.8206 134.013 26.5609C134.013 25.8832 134.003 25.3009 133.982 24.8139C133.962 24.327 133.938 23.911 133.909 23.5661C133.881 23.2171 133.848 22.927 133.812 22.6957C133.779 22.4603 133.749 22.2533 133.721 22.0748L133.642 21.6122L135.535 21.0096C135.551 21.0664 135.565 21.1191 135.577 21.1678C135.589 21.2165 135.599 21.2754 135.608 21.3443C135.62 21.4093 135.632 21.4904 135.644 21.5878C135.66 21.6852 135.677 21.813 135.693 21.9713C135.709 22.1296 135.727 22.3223 135.748 22.5496C135.772 22.7768 135.8 23.0548 135.833 23.3835C135.853 23.7 135.869 23.9841 135.882 24.2357C135.898 24.4872 135.91 24.7328 135.918 24.9722C135.926 25.2116 135.932 25.4591 135.936 25.7148C135.94 25.9664 135.942 26.2525 135.942 26.573C135.942 27.1006 135.934 27.6606 135.918 28.253C135.902 28.8414 135.871 29.4603 135.827 30.1096L133.867 30.3835ZM132.242 20.6383C132.242 20.6139 132.256 20.5693 132.284 20.5043C132.308 20.4354 132.339 20.3623 132.375 20.2852C132.408 20.2081 132.44 20.1371 132.473 20.0722C132.505 20.0032 132.528 19.9586 132.54 19.9383C132.686 19.7151 132.856 19.5325 133.051 19.3904C133.25 19.2484 133.447 19.1551 133.642 19.1104C133.682 19.1023 133.733 19.0983 133.794 19.0983C133.855 19.0942 133.903 19.0922 133.94 19.0922C134.135 19.0922 134.311 19.1165 134.469 19.1652C134.628 19.2099 134.77 19.2606 134.895 19.3174L135.084 19.4087C135.153 19.4412 135.222 19.4716 135.291 19.5C135.36 19.5243 135.433 19.5386 135.51 19.5426C135.575 19.5467 135.642 19.5304 135.711 19.4939C135.78 19.4574 135.847 19.4087 135.912 19.3478C135.981 19.2829 136.046 19.2119 136.107 19.1348C136.172 19.0577 136.233 18.9806 136.289 18.9035L137.239 19.5183C137.235 19.5304 137.213 19.569 137.172 19.6339C137.131 19.6948 137.073 19.7699 136.995 19.8591C136.922 19.9484 136.833 20.0438 136.728 20.1452C136.626 20.2426 136.511 20.3339 136.381 20.4191C136.251 20.5003 136.109 20.5672 135.955 20.62C135.804 20.6728 135.644 20.6971 135.474 20.693C135.348 20.7012 135.22 20.6768 135.09 20.62C134.96 20.5591 134.826 20.4962 134.688 20.4313C134.555 20.3623 134.417 20.3055 134.275 20.2609C134.133 20.2122 133.984 20.2041 133.83 20.2365C133.737 20.2568 133.66 20.2933 133.599 20.3461C133.542 20.3948 133.493 20.4536 133.453 20.5226C133.412 20.5875 133.378 20.6586 133.349 20.7357C133.321 20.8128 133.291 20.8878 133.258 20.9609L132.242 20.6383ZM109.315 51.4113C109.412 51.4154 109.51 51.4194 109.607 51.4235C109.709 51.4235 109.804 51.4235 109.893 51.4235C110.214 51.4235 110.52 51.4113 110.812 51.387C111.104 51.3626 111.374 51.3301 111.622 51.2896C111.869 51.249 112.086 51.2064 112.273 51.1617C112.464 51.113 112.616 51.0664 112.73 51.0217H112.724C112.935 50.9325 113.089 50.8533 113.186 50.7843C113.284 50.7154 113.349 50.6626 113.381 50.6261C113.442 50.5571 113.484 50.4861 113.509 50.413C113.537 50.3359 113.551 50.2568 113.551 50.1757C113.551 50.0012 113.484 49.8145 113.351 49.6157C113.217 49.4128 113.044 49.2078 112.833 49.0009C112.626 48.7939 112.395 48.587 112.139 48.38C111.888 48.173 111.642 47.9742 111.403 47.7835L110.131 46.7365L110.331 44.9348L115.822 42.5426L116.577 44.3322L112.285 46.1643C112.513 46.3551 112.742 46.5519 112.973 46.7548C113.209 46.9577 113.434 47.1667 113.649 47.3817C113.864 47.5928 114.065 47.8099 114.251 48.033C114.442 48.2522 114.606 48.4774 114.744 48.7087C114.886 48.9359 114.998 49.1672 115.079 49.4026C115.16 49.638 115.201 49.8774 115.201 50.1209C115.201 50.3887 115.154 50.6606 115.061 50.9365C114.972 51.2125 114.824 51.4965 114.617 51.7887H114.623C114.598 51.8252 114.556 51.878 114.495 51.947C114.438 52.0159 114.359 52.093 114.258 52.1783C114.16 52.2635 114.038 52.3548 113.892 52.4522C113.746 52.5455 113.574 52.6388 113.375 52.7322C112.815 52.9797 112.251 53.1461 111.683 53.2313C111.115 53.3165 110.536 53.3591 109.948 53.3591H109.82C109.735 53.3591 109.648 53.3591 109.558 53.3591C109.469 53.3591 109.382 53.3551 109.297 53.347C108.538 53.3388 107.858 53.2901 107.258 53.2009C106.657 53.1157 106.129 52.9878 105.675 52.8174C104.754 52.4603 104.121 51.9368 103.776 51.247V51.253C103.581 50.8757 103.484 50.4577 103.484 49.9991C103.484 49.8003 103.508 49.5852 103.557 49.3539C103.605 49.1226 103.668 48.8974 103.745 48.6783C103.794 48.5646 103.835 48.4693 103.867 48.3922C103.904 48.3151 103.938 48.2441 103.971 48.1791C104.003 48.1142 104.04 48.0493 104.08 47.9843C104.121 47.9194 104.171 47.8403 104.232 47.747L105.675 48.8C105.618 48.9014 105.555 49.0049 105.486 49.1104C105.421 49.2159 105.36 49.3235 105.304 49.433C105.251 49.5426 105.206 49.6542 105.17 49.7678C105.133 49.8814 105.115 49.9951 105.115 50.1087C105.115 50.267 105.17 50.409 105.279 50.5348C105.393 50.6565 105.547 50.7641 105.742 50.8574C105.941 50.9467 106.172 51.0238 106.436 51.0887C106.704 51.1536 106.992 51.2084 107.3 51.253C107.613 51.2977 107.939 51.3322 108.28 51.3565C108.621 51.3809 108.964 51.3991 109.309 51.4113H109.315ZM124.788 51.2713C124.897 51.3322 125.011 51.3748 125.129 51.3991C125.25 51.4194 125.37 51.4336 125.488 51.4417C125.618 51.4417 125.741 51.4681 125.859 51.5209C125.977 51.5696 126.078 51.6365 126.164 51.7217C126.253 51.807 126.324 51.9084 126.377 52.0261C126.429 52.1438 126.456 52.2696 126.456 52.4035C126.456 52.5374 126.429 52.6632 126.377 52.7809C126.324 52.8986 126.253 53 126.164 53.0852C126.078 53.1745 125.977 53.2435 125.859 53.2922C125.741 53.3409 125.618 53.3652 125.488 53.3652H125.433C125.328 53.3652 125.192 53.3591 125.025 53.347C124.863 53.3348 124.686 53.3003 124.496 53.2435C124.305 53.1907 124.11 53.1096 123.911 53C123.713 52.8945 123.526 52.7443 123.351 52.5496C123.116 52.7728 122.854 52.9635 122.566 53.1217C122.282 53.28 121.98 53.4099 121.659 53.5113C121.339 53.6168 121.008 53.6939 120.667 53.7426C120.326 53.7913 119.983 53.8157 119.638 53.8157C119.444 53.8157 119.237 53.8035 119.017 53.7791C118.802 53.7588 118.561 53.7203 118.293 53.6635L118.835 51.8496C119.021 51.8739 119.198 51.8942 119.364 51.9104C119.535 51.9226 119.691 51.9287 119.833 51.9287C119.963 51.9287 120.093 51.9226 120.223 51.9104C120.353 51.8983 120.48 51.8759 120.606 51.8435C120.484 51.4052 120.338 50.9751 120.168 50.553C119.997 50.127 119.813 49.7171 119.614 49.3235C119.415 48.9299 119.21 48.5545 118.999 48.1974C118.788 47.8403 118.579 47.5096 118.372 47.2052C118.169 46.9009 117.975 46.6249 117.788 46.3774C117.605 46.1258 117.443 45.9107 117.301 45.7322L118.67 44.3139L120.338 46.9983C120.533 47.3513 120.718 47.7104 120.892 48.0757C121.071 48.4409 121.235 48.802 121.385 49.1591C121.539 49.5122 121.675 49.8551 121.793 50.1878C121.915 50.5206 122.016 50.829 122.097 51.113C122.256 50.9832 122.394 50.8371 122.511 50.6748C122.633 50.5125 122.696 50.3461 122.7 50.1757C122.655 49.5467 122.601 48.9339 122.536 48.3374C122.471 47.7368 122.402 47.1626 122.329 46.6148C122.26 46.067 122.189 45.5496 122.116 45.0626C122.043 44.5757 121.976 44.1293 121.915 43.7235L123.802 43.3704C123.802 43.3786 123.808 43.4496 123.82 43.5835C123.836 43.7133 123.857 43.8939 123.881 44.1252C123.909 44.3525 123.94 44.6223 123.972 44.9348C124.005 45.2432 124.039 45.578 124.076 45.9391C124.116 46.2962 124.155 46.6716 124.191 47.0652C124.232 47.4548 124.268 47.8484 124.301 48.2461C124.337 48.6397 124.37 49.0293 124.398 49.4148C124.431 49.7962 124.457 50.1574 124.477 50.4983C124.49 50.6809 124.526 50.8452 124.587 50.9913C124.652 51.1333 124.719 51.2267 124.788 51.2713ZM124.471 52.4035C124.471 52.2696 124.495 52.1458 124.544 52.0322C124.593 51.9186 124.66 51.8191 124.745 51.7339C124.83 51.6487 124.932 51.5817 125.049 51.533C125.163 51.4803 125.287 51.4499 125.421 51.4417C125.693 51.4417 125.928 51.389 126.127 51.2835C126.33 51.178 126.508 51.04 126.662 50.8696C126.817 50.6991 126.955 50.5084 127.076 50.2974C127.198 50.0864 127.314 49.8754 127.423 49.6643V49.6704C127.529 49.4513 127.64 49.2342 127.758 49.0191C127.88 48.8041 128.012 48.6052 128.154 48.4226C128.373 48.167 128.618 47.9701 128.89 47.8322C129.162 47.6901 129.452 47.6191 129.761 47.6191C130.126 47.6191 130.457 47.6942 130.753 47.8443C131.053 47.9945 131.325 48.2096 131.568 48.4896C131.751 48.7087 131.899 48.9603 132.013 49.2443C132.126 49.5243 132.202 49.8226 132.238 50.1391V50.127C132.262 50.2852 132.275 50.4658 132.275 50.6687C132.275 50.8878 132.254 51.1029 132.214 51.3139C132.177 51.5209 132.124 51.7177 132.055 51.9043C131.922 52.2452 131.729 52.5313 131.477 52.7626C131.23 52.9899 130.96 53.1461 130.668 53.2313C130.57 53.2597 130.473 53.278 130.375 53.2861C130.282 53.2983 130.183 53.3043 130.077 53.3043C129.895 53.3043 129.7 53.282 129.493 53.2374C129.29 53.1928 129.089 53.1319 128.89 53.0548C128.809 53.0183 128.718 52.9757 128.616 52.927C128.515 52.8742 128.407 52.8174 128.294 52.7565C128.184 52.6957 128.075 52.6328 127.965 52.5678C127.855 52.5029 127.754 52.44 127.661 52.3791C127.498 52.5293 127.336 52.6652 127.174 52.787C127.011 52.9087 126.841 53.0122 126.662 53.0974C126.484 53.1826 126.293 53.2475 126.09 53.2922C125.887 53.3409 125.666 53.3652 125.427 53.3652C125.293 53.3652 125.169 53.3388 125.055 53.2861C124.938 53.2374 124.836 53.1704 124.751 53.0852C124.662 53 124.593 52.8986 124.544 52.7809C124.495 52.6632 124.471 52.5374 124.471 52.4035ZM128.787 50.8026C128.913 50.8838 129.061 50.9629 129.231 51.04C129.406 51.1171 129.578 51.1861 129.748 51.247C129.919 51.3078 130.075 51.3586 130.217 51.3991C130.363 51.4357 130.473 51.4539 130.546 51.4539C130.562 51.4539 130.578 51.4539 130.595 51.4539C130.615 51.4499 130.635 51.4458 130.655 51.4417C130.704 51.4296 130.751 51.3687 130.795 51.2591C130.844 51.1455 130.862 50.9913 130.85 50.7965C130.85 50.6667 130.814 50.5246 130.741 50.3704C130.668 50.2122 130.572 50.0661 130.455 49.9322C130.337 49.7942 130.201 49.6806 130.047 49.5913C129.897 49.498 129.742 49.4513 129.584 49.4513C129.527 49.4513 129.454 49.5325 129.365 49.6948C129.276 49.8571 129.146 50.0986 128.975 50.4191V50.413L128.787 50.8026ZM133.125 53.3835C133.146 53.0507 133.166 52.7058 133.186 52.3487C133.207 51.9916 133.223 51.6386 133.235 51.2896C133.251 50.9406 133.261 50.6017 133.265 50.273C133.269 49.9443 133.265 49.642 133.253 49.3661C133.229 48.7899 133.204 48.2846 133.18 47.8504C133.16 47.4122 133.138 47.0246 133.113 46.6878C133.093 46.351 133.071 46.0568 133.046 45.8052C133.026 45.5496 133.004 45.3162 132.979 45.1052C132.955 44.8942 132.929 44.6974 132.9 44.5148C132.872 44.3281 132.841 44.1354 132.809 43.9365L134.69 43.3157C134.779 43.8594 134.85 44.4072 134.903 44.9591C134.96 45.511 135.002 46.0406 135.031 46.5478C135.059 47.051 135.077 47.5197 135.085 47.9539C135.098 48.3881 135.104 48.7594 135.104 49.0678C135.104 49.3478 135.102 49.6501 135.098 49.9748C135.098 50.2994 135.093 50.6362 135.085 50.9852C135.081 51.3342 135.073 51.6872 135.061 52.0443C135.049 52.4014 135.031 52.7504 135.006 53.0913L133.125 53.3835Z" fill="#303030"/>
<defs>
<linearGradient id="paint0_linear_4574_22150" x1="6.19103" y1="5.2" x2="159.19" y2="98.0094" gradientUnits="userSpaceOnUse">
<stop stop-color="#EAEAEA"/>
<stop offset="1" stop-color="#BDBDBD"/>
</linearGradient>
</defs>
</svg>
