<svg width="147" height="90" viewBox="0 0 147 90" fill="none" xmlns="http://www.w3.org/2000/svg">
<rect x="0.75" y="0.75" width="145.5" height="88.5" rx="9.25" fill="white" stroke="url(#paint0_linear_2611_50764)" stroke-width="1.5"/>
<path d="M69.7354 38.8114V37.7054C69.734 36.7519 69.4191 35.8252 68.8389 35.0674C68.2587 34.3097 67.4453 33.7627 66.5234 33.5105V31.3271C66.9509 31.0076 67.2979 30.5932 67.5369 30.1167C67.7759 29.6402 67.9004 29.1148 67.9004 28.582V24.5532C67.8994 23.6429 67.5364 22.7701 66.891 22.1264C66.2457 21.4827 65.3707 21.1206 64.458 21.1196H59.5928C59.4102 21.1196 59.2351 21.1919 59.1059 21.3207C58.9768 21.4495 58.9043 21.6242 58.9043 21.8063V28.582C58.9043 29.1148 59.0288 29.6402 59.2678 30.1167C59.5068 30.5932 59.8538 31.0076 60.2812 31.3271V33.8813C60.0621 34.0188 59.8591 34.1804 59.6759 34.363L55.2734 38.7584H50.6125C50.3131 38.7584 50.0149 38.7952 49.7246 38.8681V38.6216C49.7266 37.8921 49.4947 37.181 49.0628 36.5922C48.6308 36.0034 48.0216 35.5678 47.3238 35.3489L44.0084 34.2991C43.8689 34.2553 43.7471 34.1682 43.6607 34.0505C43.5743 33.9327 43.5279 33.7905 43.5283 33.6446V32.2219C43.9632 31.8009 44.3089 31.297 44.5449 30.7402C44.7809 30.1833 44.9024 29.5849 44.9022 28.9804V22.1467C44.9018 21.8427 44.7805 21.5512 44.565 21.3362C44.3494 21.1213 44.0572 21.0003 43.7524 21H38.8152C38.0212 21.0009 37.26 21.3159 36.6986 21.8759C36.1372 22.4359 35.8214 23.1951 35.8205 23.9871V28.9803C35.8203 29.5848 35.9418 30.1832 36.1778 30.7401C36.4137 31.2969 36.7594 31.8008 37.1943 32.2218V33.6445C37.1947 33.7904 37.1483 33.9326 37.0619 34.0504C36.9755 34.1681 36.8537 34.2552 36.7141 34.299L33.3989 35.3489C32.7012 35.5678 32.0919 36.0034 31.66 36.5922C31.228 37.1809 30.9961 37.892 30.998 38.6215V41.7012H27.1885C27.0059 41.7012 26.8308 41.7735 26.7017 41.9023C26.5725 42.0311 26.5 42.2058 26.5 42.3879V43.9287C26.5005 44.3546 26.6332 44.7699 26.8797 45.1176C27.1262 45.4653 27.4746 45.7284 27.877 45.8708V66.4612C27.8774 66.8375 28.0274 67.1982 28.2942 67.4643C28.5609 67.7303 28.9226 67.88 29.2998 67.8804H31.3193C31.4638 67.8804 31.6047 67.8351 31.7219 67.7508C31.8391 67.6665 31.9268 67.5476 31.9725 67.4109L33.0356 64.2296C33.0812 64.0928 33.1688 63.9738 33.2861 63.8895C33.4033 63.8052 33.5443 63.7599 33.6888 63.7601H50.9812C51.1257 63.7599 51.2666 63.8052 51.3839 63.8895C51.5011 63.9738 51.5888 64.0928 51.6343 64.2296L52.6974 67.4109C52.7431 67.5476 52.8307 67.6666 52.948 67.7508C53.0652 67.8351 53.2061 67.8804 53.3506 67.8804H55.3701C55.7474 67.88 56.109 67.7303 56.3758 67.4643C56.6425 67.1982 56.7926 66.8375 56.793 66.4612V53.8663H61.7585L63.4996 67.4006C63.5209 67.5663 63.602 67.7185 63.7277 67.8288C63.8534 67.9391 64.0151 68 64.1825 68H67.3036C67.4013 68 67.4978 67.9793 67.5868 67.9392C67.6758 67.8991 67.7553 67.8406 67.8199 67.7676C67.8845 67.6945 67.9328 67.6086 67.9615 67.5155C67.9903 67.4224 67.9989 67.3243 67.9867 67.2277L66.3032 53.8663H67.3037C68.9465 53.8644 70.5215 53.2127 71.6831 52.054C72.8447 50.8953 73.4982 49.3244 73.5 47.6858V43.1992C73.4986 42.1406 73.1188 41.1172 72.4288 40.313C71.7387 39.5087 70.7837 38.9763 69.7354 38.8114ZM60.2812 22.493H64.458C65.0056 22.4936 65.5306 22.7109 65.9178 23.0971C66.305 23.4833 66.5228 24.007 66.5234 24.5532V25.1676L66.5196 25.17C66.0213 25.4901 65.4357 25.6483 64.8436 25.6228C64.2514 25.5973 63.6817 25.3895 63.2129 25.0278L60.3061 22.7805C60.298 22.7743 60.2895 22.7691 60.2812 22.7632V22.493ZM60.2812 24.499L62.3694 26.1133C62.9512 26.5622 63.6399 26.8527 64.3681 26.9562C65.0964 27.0597 65.8391 26.9727 66.5234 26.7038V28.582C66.5228 29.1282 66.305 29.6519 65.9178 30.0381C65.5306 30.4243 65.0056 30.6416 64.458 30.6422H62.3467C61.7991 30.6416 61.2741 30.4243 60.8869 30.0381C60.4997 29.6519 60.2819 29.1282 60.2812 28.582V24.499ZM65.1465 31.9465V33.3562H62.1112C61.9597 33.3565 61.8084 33.3666 61.6582 33.3864V31.9464C61.8848 31.9924 62.1154 32.0156 62.3467 32.0155H64.458C64.6892 32.0156 64.9199 31.9925 65.1465 31.9465ZM60.65 35.3337C60.8414 35.1416 61.0691 34.9893 61.3199 34.8856C61.5707 34.7819 61.8397 34.7289 62.1112 34.7296H65.375C66.1659 34.7305 66.9243 35.0444 67.4836 35.6022C68.0429 36.1601 68.3575 36.9165 68.3584 37.7055V46.6787C68.3578 47.2249 68.14 47.7485 67.7527 48.1348C67.3655 48.521 66.8405 48.7382 66.2929 48.7388H56.793V45.8708C57.1954 45.7284 57.5437 45.4653 57.7902 45.1176C58.0368 44.7699 58.1694 44.3546 58.1699 43.9287V42.7112C58.2848 42.6338 58.392 42.5456 58.49 42.4478L61.8271 39.121C61.9553 38.9921 62.0271 38.8177 62.0268 38.6361C62.0265 38.4545 61.954 38.2804 61.8253 38.152C61.6966 38.0235 61.5221 37.9511 61.34 37.9507C61.158 37.9502 60.9831 38.0217 60.8538 38.1495L59.7673 39.2327L58.3153 37.6645L60.65 35.3337ZM50.6125 40.1318H55.5588C55.6492 40.1318 55.7388 40.114 55.8224 40.0795C55.906 40.0449 55.9819 39.9943 56.0458 39.9304L57.3413 38.637L58.7926 40.2044L57.5166 41.4764C57.3859 41.6073 57.2124 41.687 57.0277 41.7012H48.4557C48.6027 41.2458 48.8907 40.8486 49.2782 40.5666C49.6657 40.2846 50.1328 40.1324 50.6125 40.1318ZM37.1975 23.9871C37.1979 23.5593 37.3685 23.1491 37.6718 22.8466C37.9751 22.5441 38.3863 22.3739 38.8152 22.3734H43.5253V25.8142C42.9502 26.0161 42.3323 26.0647 41.7326 25.9552C41.3943 25.881 41.0689 25.757 40.7673 25.5871C40.3663 25.366 39.9346 25.2056 39.4863 25.111C38.7218 24.9726 37.9347 25.0284 37.1975 25.2733V23.9871ZM37.1975 26.7309C37.9337 26.4308 38.6126 26.3391 39.22 26.4585C39.5442 26.5299 39.8558 26.6491 40.1446 26.8123C40.5571 27.0391 41.001 27.2041 41.4618 27.3018C42.1456 27.4343 42.8502 27.414 43.5252 27.2424V28.9803C43.5252 29.8173 43.1919 30.62 42.5985 31.2118C42.0052 31.8036 41.2004 32.1361 40.3613 32.1361C39.5222 32.1361 38.7175 31.8036 38.1241 31.2118C37.5308 30.62 37.1975 29.8173 37.1975 28.9803V26.7309ZM42.5236 34.8253C41.1357 35.3781 39.5878 35.3773 38.2004 34.8232C38.4423 34.4775 38.5717 34.0661 38.5713 33.6445V33.1422C39.1368 33.3846 39.7458 33.5097 40.3613 33.5097C40.9768 33.5097 41.5859 33.3846 42.1514 33.1422V33.6445C42.1509 34.0669 42.2809 34.4792 42.5236 34.8253ZM32.375 38.6215C32.3738 38.1838 32.513 37.7572 32.7721 37.4039C33.0313 37.0506 33.3968 36.7892 33.8155 36.6579L36.8402 35.7001C37.9163 36.2982 39.1276 36.6124 40.3594 36.6129C40.4108 36.6129 40.4628 36.6124 40.5149 36.6113C41.6951 36.5854 42.8511 36.2727 43.8827 35.7002L46.9072 36.658C47.3258 36.7893 47.6913 37.0507 47.9505 37.4039C48.2096 37.7571 48.3488 38.1837 48.3477 38.6215V39.5494C47.6679 40.088 47.2032 40.8511 47.0373 41.7011H45.5938V40.1653C45.5938 39.9832 45.5212 39.8085 45.3921 39.6797C45.263 39.5509 45.0879 39.4786 44.9053 39.4786C44.7227 39.4786 44.5476 39.5509 44.4184 39.6797C44.2893 39.8085 44.2168 39.9832 44.2168 40.1653V41.7011H36.5059V40.1653C36.5059 39.9832 36.4333 39.8085 36.3042 39.6797C36.1751 39.5509 36 39.4786 35.8174 39.4786C35.6348 39.4786 35.4597 39.5509 35.3306 39.6797C35.2014 39.8085 35.1289 39.9832 35.1289 40.1653V41.7011H32.375V38.6215ZM55.416 66.4612C55.416 66.4733 55.4112 66.485 55.4026 66.4936C55.394 66.5021 55.3823 66.507 55.3701 66.507H53.8468L52.9406 63.7952C52.8038 63.3848 52.5409 63.0278 52.1892 62.775C51.8374 62.5221 51.4147 62.3862 50.9811 62.3866H33.6888C33.2552 62.3862 32.8325 62.5221 32.4807 62.775C32.129 63.0279 31.866 63.3849 31.7293 63.7953L30.8231 66.507H29.2998C29.2876 66.507 29.276 66.5021 29.2673 66.4936C29.2587 66.485 29.2539 66.4733 29.2539 66.4612V45.9889H55.416V66.4612ZM56.1045 44.6155H28.5654C28.3829 44.6153 28.2079 44.5429 28.0788 44.4141C27.9497 44.2854 27.8771 44.1108 27.877 43.9287V43.0746H47.5988C47.6187 43.0764 47.6388 43.0777 47.6592 43.0777H56.793V43.9287C56.7928 44.1108 56.7202 44.2854 56.5911 44.4141C56.462 44.5429 56.287 44.6153 56.1045 44.6155ZM66.5233 66.6265H64.7884L63.1468 53.8663H64.9155L66.5233 66.6265ZM72.123 47.6858C72.1216 48.9602 71.6134 50.1821 70.7099 51.0833C69.8064 51.9845 68.5814 52.4914 67.3037 52.4928H56.793V50.1122H66.293C67.2057 50.1112 68.0807 49.7491 68.726 49.1054C69.3714 48.4617 69.7344 47.5889 69.7354 46.6786V40.2101C70.4134 40.3661 71.0184 40.7464 71.452 41.2892C71.8855 41.832 72.1221 42.5052 72.123 43.1992V47.6858Z" fill="#303030"/>
<path d="M97.7063 37.853C97.3573 37.853 97.0631 37.7861 96.8237 37.6522C96.5883 37.5183 96.3935 37.3499 96.2393 37.147C96.1541 37.2565 96.0628 37.3559 95.9654 37.4452C95.868 37.5304 95.7524 37.6035 95.6184 37.6643C95.4886 37.7293 95.3344 37.778 95.1558 37.8104C94.9813 37.8429 94.7724 37.8591 94.5289 37.8591C94.3584 37.8591 94.2022 37.847 94.0602 37.8226C93.9182 37.7983 93.7883 37.7678 93.6706 37.7313C93.6666 38.2061 93.5935 38.6383 93.4515 39.0278C93.3135 39.4174 93.1228 39.7664 92.8793 40.0748C92.6399 40.3832 92.3579 40.651 92.0332 40.8783C91.7086 41.1055 91.3596 41.2922 90.9863 41.4383C90.6129 41.5884 90.2213 41.7 89.8115 41.773C89.4057 41.8461 89.0019 41.8826 88.6002 41.8826C87.9793 41.8826 87.4051 41.7791 86.8776 41.5722C86.35 41.3693 85.8935 41.0812 85.508 40.7078C85.1266 40.3386 84.8283 39.8922 84.6132 39.3687C84.3982 38.8493 84.2906 38.2751 84.2906 37.6461C84.3028 37.2809 84.3515 36.9075 84.4367 36.5261C84.526 36.1446 84.6376 35.7713 84.7715 35.4061C84.9095 35.0409 85.0616 34.6939 85.228 34.3652C85.3984 34.0325 85.5709 33.7342 85.7454 33.4704L87.0724 34.487C86.9263 34.7264 86.7863 34.98 86.6524 35.2478C86.5184 35.5157 86.4008 35.7875 86.2993 36.0635C86.2019 36.3354 86.1228 36.6093 86.0619 36.8852C86.0011 37.1612 85.9706 37.427 85.9706 37.6826C85.9584 37.991 86.0173 38.2812 86.1471 38.553C86.2811 38.829 86.4657 39.0684 86.7011 39.2713C86.9405 39.4783 87.2205 39.6406 87.5411 39.7583C87.8616 39.88 88.2066 39.9409 88.5758 39.9409C88.8558 39.9409 89.1338 39.9206 89.4097 39.88C89.6897 39.8435 89.9555 39.7806 90.2071 39.6913C90.4628 39.6061 90.7002 39.4945 90.9193 39.3565C91.1384 39.2226 91.3271 39.0583 91.4854 38.8635C91.6477 38.6687 91.7735 38.4414 91.8628 38.1817C91.9561 37.9261 92.0028 37.6339 92.0028 37.3052C92.0028 37.0617 91.9663 36.8081 91.8932 36.5443C91.8202 36.2765 91.7228 36.0046 91.6011 35.7287C91.4834 35.4487 91.3474 35.1646 91.1932 34.8765C91.0431 34.5884 90.8869 34.3003 90.7245 34.0122L92.4106 33.1113C92.5567 33.4603 92.7089 33.8032 92.8671 34.14C93.0254 34.4768 93.1897 34.7791 93.3602 35.047C93.5306 35.3107 93.7071 35.5238 93.8897 35.6861C94.0724 35.8443 94.2611 35.9194 94.4558 35.9113C94.6182 35.9072 94.746 35.8626 94.8393 35.7774C94.9367 35.6922 95.0118 35.5806 95.0645 35.4426C95.1173 35.3046 95.1518 35.1464 95.168 34.9678C95.1842 34.7893 95.1924 34.6026 95.1924 34.4078C95.1883 34.2374 95.1822 34.0629 95.1741 33.8843C95.166 33.7017 95.1599 33.5252 95.1558 33.3548L96.8845 33.1174C96.8845 33.231 96.8886 33.3812 96.8967 33.5678C96.9089 33.7504 96.9271 33.9472 96.9515 34.1583C96.9799 34.3693 97.0164 34.5823 97.0611 34.7974C97.1097 35.0125 97.1706 35.2072 97.2437 35.3817C97.3167 35.5522 97.404 35.6922 97.5054 35.8017C97.6069 35.9113 97.7266 35.9661 97.8645 35.9661C97.9984 35.9661 98.1161 35.9052 98.2176 35.7835C98.3231 35.6577 98.4103 35.4974 98.4793 35.3026C98.5524 35.1078 98.6051 34.8928 98.6376 34.6574C98.6741 34.418 98.6924 34.1846 98.6924 33.9574C98.6924 33.8681 98.6903 33.8052 98.6863 33.7687C98.6863 33.7281 98.6863 33.6936 98.6863 33.6652C98.6863 33.6328 98.6842 33.5962 98.6802 33.5557C98.6802 33.511 98.6802 33.44 98.6802 33.3426L100.33 33.1052L100.372 33.5861V33.58C100.38 33.6855 100.389 33.7829 100.397 33.8722C100.409 33.9614 100.421 34.0548 100.433 34.1522C100.445 34.2455 100.46 34.347 100.476 34.4565C100.492 34.5661 100.51 34.6939 100.531 34.84C100.555 35.0267 100.608 35.189 100.689 35.327C100.77 35.4649 100.865 35.5806 100.975 35.6739C101.085 35.7632 101.2 35.8301 101.322 35.8748C101.444 35.9194 101.559 35.9417 101.669 35.9417H101.742C101.892 35.9417 102.028 35.9681 102.15 36.0209C102.276 36.0696 102.383 36.1386 102.472 36.2278C102.562 36.313 102.631 36.4145 102.679 36.5322C102.728 36.6499 102.752 36.7757 102.752 36.9096C102.752 37.0435 102.728 37.1693 102.679 37.287C102.631 37.4046 102.562 37.5061 102.472 37.5913C102.383 37.6765 102.276 37.7435 102.15 37.7922C102.024 37.8449 101.884 37.8713 101.73 37.8713C101.275 37.8713 100.876 37.7983 100.531 37.6522C100.186 37.5101 99.8915 37.2809 99.648 36.9643C99.4289 37.2443 99.155 37.4614 98.8263 37.6157C98.4976 37.7739 98.1242 37.853 97.7063 37.853ZM100.722 36.9035C100.722 36.7696 100.749 36.6438 100.801 36.5261C100.85 36.4084 100.917 36.307 101.002 36.2217C101.087 36.1325 101.189 36.0635 101.307 36.0148C101.424 35.9661 101.55 35.9417 101.684 35.9417H102.311H102.585C102.735 35.9417 102.891 35.9357 103.054 35.9235C103.22 35.9113 103.374 35.887 103.516 35.8504C103.662 35.8139 103.79 35.7632 103.9 35.6983C104.013 35.6333 104.094 35.5461 104.143 35.4365C104.176 35.3635 104.192 35.2539 104.192 35.1078C104.192 35.0104 104.163 34.8643 104.107 34.6696C104.05 34.4748 103.975 34.2597 103.881 34.0243C103.788 33.7849 103.683 33.5354 103.565 33.2757C103.447 33.0159 103.327 32.7704 103.206 32.5391L104.947 31.6748C105.06 31.9304 105.172 32.2023 105.281 32.4904C105.395 32.7786 105.496 33.0707 105.586 33.367C105.675 33.6632 105.746 33.9594 105.799 34.2557C105.856 34.5478 105.884 34.8278 105.884 35.0957C105.884 35.5055 105.811 35.8809 105.665 36.2217C105.494 36.6032 105.261 36.9197 104.965 37.1713C104.669 37.4188 104.314 37.6014 103.9 37.7191C103.656 37.7881 103.423 37.8287 103.2 37.8409C102.976 37.8571 102.767 37.8652 102.573 37.8652H101.739H101.684C101.55 37.8652 101.424 37.8409 101.307 37.7922C101.189 37.7435 101.087 37.6745 101.002 37.5852C100.917 37.5 100.85 37.3986 100.801 37.2809C100.749 37.1632 100.722 37.0374 100.722 36.9035ZM103.735 28.2357L105.087 29.587L103.735 30.9383L102.384 29.587L103.735 28.2357ZM106.786 37.8835C106.807 37.5507 106.827 37.2058 106.847 36.8487C106.868 36.4916 106.884 36.1386 106.896 35.7896C106.912 35.4406 106.922 35.1017 106.926 34.773C106.931 34.4443 106.926 34.142 106.914 33.8661C106.89 33.2899 106.866 32.7846 106.841 32.3504C106.821 31.9122 106.799 31.5246 106.774 31.1878C106.754 30.851 106.732 30.5568 106.707 30.3052C106.687 30.0496 106.665 29.8162 106.64 29.6052C106.616 29.3942 106.59 29.1974 106.561 29.0148C106.533 28.8281 106.502 28.6354 106.47 28.4365L108.351 27.8157C108.44 28.3594 108.511 28.9072 108.564 29.4591C108.621 30.011 108.663 30.5406 108.692 31.0478C108.72 31.551 108.738 32.0197 108.746 32.4539C108.759 32.8881 108.765 33.2594 108.765 33.5678C108.765 33.8478 108.763 34.1501 108.759 34.4748C108.759 34.7994 108.755 35.1362 108.746 35.4852C108.742 35.8342 108.734 36.1872 108.722 36.5443C108.71 36.9014 108.692 37.2504 108.667 37.5913L106.786 37.8835ZM113.323 33.4035C113.477 33.8417 113.611 34.2699 113.725 34.6878C113.773 34.8704 113.822 35.0612 113.871 35.26C113.919 35.4548 113.962 35.6516 113.998 35.8504C114.039 36.0452 114.071 36.238 114.096 36.4287C114.12 36.6154 114.132 36.7899 114.132 36.9522C114.132 37.3336 114.08 37.7049 113.974 38.0661C113.873 38.4313 113.727 38.7843 113.536 39.1252C113.349 39.4661 113.126 39.7928 112.866 40.1052C112.607 40.4217 112.318 40.718 112.002 40.9939C111.685 41.2699 111.347 41.5255 110.985 41.7609C110.624 42.0003 110.251 42.2154 109.865 42.4061L108.758 40.8661C109.05 40.72 109.344 40.5536 109.64 40.367C109.94 40.1843 110.227 39.9875 110.498 39.7765C110.774 39.5655 111.03 39.3443 111.265 39.113C111.505 38.8817 111.712 38.6464 111.886 38.407C112.065 38.1675 112.205 37.9241 112.306 37.6765C112.408 37.433 112.458 37.1936 112.458 36.9583C112.458 36.7878 112.434 36.6032 112.385 36.4043C112.341 36.2055 112.278 35.9925 112.197 35.7652C112.12 35.5339 112.026 35.2904 111.917 35.0348C111.807 34.7751 111.689 34.4991 111.564 34.207L113.323 33.4035ZM114.473 31.0843L113.305 32.2591L112.148 31.1026L111.004 32.247L109.823 31.0722L110.991 29.8974L112.148 31.0539L113.292 29.9096L114.473 31.0843ZM111.065 29.3191L112.148 28.2357L113.238 29.3252L112.154 30.4087L111.065 29.3191ZM116.189 37.8835C116.209 37.571 116.228 37.2443 116.244 36.9035C116.264 36.5626 116.28 36.2258 116.292 35.893C116.305 35.5603 116.315 35.2377 116.323 34.9252C116.331 34.6087 116.335 34.3206 116.335 34.0609C116.335 33.3832 116.325 32.8009 116.305 32.3139C116.284 31.827 116.26 31.411 116.232 31.0661C116.203 30.7171 116.171 30.427 116.134 30.1957C116.102 29.9603 116.071 29.7533 116.043 29.5748L115.964 29.1122L117.857 28.5096C117.873 28.5664 117.887 28.6191 117.899 28.6678C117.912 28.7165 117.922 28.7754 117.93 28.8443C117.942 28.9093 117.954 28.9904 117.966 29.0878C117.983 29.1852 117.999 29.313 118.015 29.4713C118.031 29.6296 118.05 29.8223 118.07 30.0496C118.094 30.2768 118.123 30.5548 118.155 30.8835C118.175 31.2 118.192 31.4841 118.204 31.7357C118.22 31.9872 118.232 32.2328 118.24 32.4722C118.248 32.7116 118.255 32.9591 118.259 33.2148C118.263 33.4664 118.265 33.7525 118.265 34.073C118.265 34.6006 118.257 35.1606 118.24 35.753C118.224 36.3414 118.194 36.9603 118.149 37.6096L116.189 37.8835ZM114.564 28.1383C114.564 28.1139 114.578 28.0693 114.606 28.0043C114.631 27.9354 114.661 27.8623 114.698 27.7852C114.73 27.7081 114.763 27.6371 114.795 27.5722C114.828 27.5032 114.85 27.4586 114.862 27.4383C115.008 27.2151 115.179 27.0325 115.373 26.8904C115.572 26.7484 115.769 26.6551 115.964 26.6104C116.004 26.6023 116.055 26.5983 116.116 26.5983C116.177 26.5942 116.226 26.5922 116.262 26.5922C116.457 26.5922 116.633 26.6165 116.792 26.6652C116.95 26.7099 117.092 26.7606 117.218 26.8174L117.406 26.9087C117.475 26.9412 117.544 26.9716 117.613 27C117.682 27.0243 117.755 27.0386 117.832 27.0426C117.897 27.0467 117.964 27.0304 118.033 26.9939C118.102 26.9574 118.169 26.9087 118.234 26.8478C118.303 26.7829 118.368 26.7119 118.429 26.6348C118.494 26.5577 118.555 26.4806 118.612 26.4035L119.561 27.0183C119.557 27.0304 119.535 27.069 119.494 27.1339C119.454 27.1948 119.395 27.2699 119.318 27.3591C119.245 27.4484 119.155 27.5438 119.05 27.6452C118.948 27.7426 118.833 27.8339 118.703 27.9191C118.573 28.0003 118.431 28.0672 118.277 28.12C118.127 28.1728 117.966 28.1971 117.796 28.193C117.67 28.2012 117.542 28.1768 117.412 28.12C117.283 28.0591 117.149 27.9962 117.011 27.9313C116.877 27.8623 116.739 27.8055 116.597 27.7609C116.455 27.7122 116.307 27.7041 116.152 27.7365C116.059 27.7568 115.982 27.7933 115.921 27.8461C115.864 27.8948 115.816 27.9536 115.775 28.0226C115.735 28.0875 115.7 28.1586 115.672 28.2357C115.643 28.3128 115.613 28.3878 115.58 28.4609L114.564 28.1383ZM93.1889 58.9113C93.2863 58.9154 93.3837 58.9194 93.4811 58.9235C93.5825 58.9235 93.6779 58.9235 93.7672 58.9235C94.0878 58.9235 94.3941 58.9113 94.6863 58.887C94.9785 58.8626 95.2483 58.8301 95.4959 58.7896C95.7434 58.749 95.9605 58.7064 96.1472 58.6617C96.3379 58.613 96.4901 58.5664 96.6037 58.5217H96.5976C96.8086 58.4325 96.9628 58.3533 97.0602 58.2843C97.1576 58.2154 97.2225 58.1626 97.255 58.1261C97.3159 58.0571 97.3585 57.9861 97.3828 57.913C97.4112 57.8359 97.4254 57.7568 97.4254 57.6757C97.4254 57.5012 97.3585 57.3145 97.2246 57.1157C97.0907 56.9128 96.9182 56.7078 96.7072 56.5009C96.5002 56.2939 96.2689 56.087 96.0133 55.88C95.7617 55.673 95.5162 55.4742 95.2767 55.2835L94.0046 54.2365L94.2054 52.4348L99.6959 50.0426L100.451 51.8322L96.1594 53.6643C96.3866 53.8551 96.6159 54.0519 96.8472 54.2548C97.0825 54.4577 97.3078 54.6667 97.5228 54.8817C97.7379 55.0928 97.9388 55.3099 98.1254 55.533C98.3162 55.7522 98.4805 55.9774 98.6185 56.2087C98.7605 56.4359 98.8721 56.6672 98.9533 56.9026C99.0344 57.138 99.075 57.3774 99.075 57.6209C99.075 57.8887 99.0283 58.1606 98.935 58.4365C98.8457 58.7125 98.6976 58.9965 98.4907 59.2887H98.4967C98.4724 59.3252 98.4298 59.378 98.3689 59.447C98.3121 59.5159 98.233 59.593 98.1315 59.6783C98.0341 59.7635 97.9124 59.8548 97.7663 59.9522C97.6202 60.0455 97.4478 60.1388 97.2489 60.2322C96.6889 60.4797 96.1249 60.6461 95.5567 60.7313C94.9886 60.8165 94.4104 60.8591 93.822 60.8591H93.6941C93.6089 60.8591 93.5217 60.8591 93.4324 60.8591C93.3431 60.8591 93.2559 60.8551 93.1707 60.847C92.4118 60.8388 91.7321 60.7901 91.1315 60.7009C90.5309 60.6157 90.0034 60.4878 89.5489 60.3174C88.6278 59.9603 87.9947 59.4368 87.6498 58.747V58.753C87.455 58.3757 87.3576 57.9577 87.3576 57.4991C87.3576 57.3003 87.382 57.0852 87.4307 56.8539C87.4794 56.6226 87.5422 56.3974 87.6194 56.1783C87.668 56.0646 87.7086 55.9693 87.7411 55.8922C87.7776 55.8151 87.8121 55.7441 87.8446 55.6791C87.877 55.6142 87.9136 55.5493 87.9541 55.4843C87.9947 55.4194 88.0454 55.3403 88.1063 55.247L89.5489 56.3C89.4921 56.4014 89.4292 56.5049 89.3602 56.6104C89.2953 56.7159 89.2344 56.8235 89.1776 56.933C89.1249 57.0426 89.0802 57.1542 89.0437 57.2678C89.0072 57.3814 88.9889 57.4951 88.9889 57.6087C88.9889 57.767 89.0437 57.909 89.1533 58.0348C89.2669 58.1565 89.4211 58.2641 89.6159 58.3574C89.8147 58.4467 90.046 58.5238 90.3098 58.5887C90.5776 58.6536 90.8657 58.7084 91.1741 58.753C91.4866 58.7977 91.8133 58.8322 92.1541 58.8565C92.495 58.8809 92.8379 58.8991 93.1828 58.9113H93.1889ZM108.662 58.7713C108.771 58.8322 108.885 58.8748 109.003 58.8991C109.124 58.9194 109.244 58.9336 109.362 58.9417C109.492 58.9417 109.616 58.9681 109.733 59.0209C109.851 59.0696 109.952 59.1365 110.038 59.2217C110.127 59.307 110.198 59.4084 110.251 59.5261C110.303 59.6438 110.33 59.7696 110.33 59.9035C110.33 60.0374 110.303 60.1632 110.251 60.2809C110.198 60.3986 110.127 60.5 110.038 60.5852C109.952 60.6745 109.851 60.7435 109.733 60.7922C109.616 60.8409 109.492 60.8652 109.362 60.8652H109.307C109.202 60.8652 109.066 60.8591 108.899 60.847C108.737 60.8348 108.56 60.8003 108.37 60.7435C108.179 60.6907 107.984 60.6096 107.785 60.5C107.587 60.3945 107.4 60.2443 107.225 60.0496C106.99 60.2728 106.728 60.4635 106.44 60.6217C106.156 60.78 105.854 60.9099 105.533 61.0113C105.213 61.1168 104.882 61.1939 104.541 61.2426C104.2 61.2913 103.857 61.3157 103.512 61.3157C103.318 61.3157 103.111 61.3035 102.891 61.2791C102.676 61.2588 102.435 61.2203 102.167 61.1635L102.709 59.3496C102.896 59.3739 103.072 59.3942 103.238 59.4104C103.409 59.4226 103.565 59.4287 103.707 59.4287C103.837 59.4287 103.967 59.4226 104.097 59.4104C104.227 59.3983 104.354 59.3759 104.48 59.3435C104.358 58.9052 104.212 58.4751 104.042 58.053C103.871 57.627 103.687 57.2171 103.488 56.8235C103.289 56.4299 103.084 56.0545 102.873 55.6974C102.662 55.3403 102.453 55.0096 102.246 54.7052C102.043 54.4009 101.849 54.1249 101.662 53.8774C101.479 53.6258 101.317 53.4107 101.175 53.2322L102.544 51.8139L104.212 54.4983C104.407 54.8513 104.592 55.2104 104.766 55.5757C104.945 55.9409 105.109 56.302 105.259 56.6591C105.413 57.0122 105.549 57.3551 105.667 57.6878C105.789 58.0206 105.89 58.329 105.971 58.613C106.13 58.4832 106.268 58.3371 106.385 58.1748C106.507 58.0125 106.57 57.8461 106.574 57.6757C106.529 57.0467 106.475 56.4339 106.41 55.8374C106.345 55.2368 106.276 54.6626 106.203 54.1148C106.134 53.567 106.063 53.0496 105.99 52.5626C105.917 52.0757 105.85 51.6293 105.789 51.2235L107.676 50.8704C107.676 50.8786 107.682 50.9496 107.694 51.0835C107.71 51.2133 107.731 51.3939 107.755 51.6252C107.783 51.8525 107.814 52.1223 107.846 52.4348C107.879 52.7432 107.913 53.078 107.95 53.4391C107.99 53.7962 108.029 54.1716 108.065 54.5652C108.106 54.9548 108.142 55.3484 108.175 55.7461C108.211 56.1397 108.244 56.5293 108.272 56.9148C108.305 57.2962 108.331 57.6574 108.351 57.9983C108.364 58.1809 108.4 58.3452 108.461 58.4913C108.526 58.6333 108.593 58.7267 108.662 58.7713ZM108.345 59.9035C108.345 59.7696 108.369 59.6458 108.418 59.5322C108.467 59.4186 108.534 59.3191 108.619 59.2339C108.704 59.1487 108.806 59.0817 108.923 59.033C109.037 58.9803 109.161 58.9499 109.295 58.9417C109.567 58.9417 109.802 58.889 110.001 58.7835C110.204 58.678 110.382 58.54 110.536 58.3696C110.691 58.1991 110.829 58.0084 110.95 57.7974C111.072 57.5864 111.188 57.3754 111.297 57.1643V57.1704C111.403 56.9513 111.514 56.7342 111.632 56.5191C111.754 56.3041 111.886 56.1052 112.028 55.9226C112.247 55.667 112.492 55.4701 112.764 55.3322C113.036 55.1901 113.326 55.1191 113.635 55.1191C114 55.1191 114.331 55.1942 114.627 55.3443C114.927 55.4945 115.199 55.7096 115.443 55.9896C115.625 56.2087 115.773 56.4603 115.887 56.7443C116 57.0243 116.076 57.3226 116.112 57.6391V57.627C116.136 57.7852 116.149 57.9658 116.149 58.1687C116.149 58.3878 116.128 58.6029 116.088 58.8139C116.051 59.0209 115.998 59.2177 115.929 59.4043C115.796 59.7452 115.603 60.0313 115.351 60.2626C115.104 60.4899 114.834 60.6461 114.542 60.7313C114.444 60.7597 114.347 60.778 114.249 60.7861C114.156 60.7983 114.057 60.8043 113.951 60.8043C113.769 60.8043 113.574 60.782 113.367 60.7374C113.164 60.6928 112.963 60.6319 112.764 60.5548C112.683 60.5183 112.592 60.4757 112.49 60.427C112.389 60.3742 112.281 60.3174 112.168 60.2565C112.058 60.1957 111.949 60.1328 111.839 60.0678C111.729 60.0029 111.628 59.94 111.535 59.8791C111.372 60.0293 111.21 60.1652 111.048 60.287C110.885 60.4087 110.715 60.5122 110.536 60.5974C110.358 60.6826 110.167 60.7475 109.964 60.7922C109.761 60.8409 109.54 60.8652 109.301 60.8652C109.167 60.8652 109.043 60.8388 108.929 60.7861C108.812 60.7374 108.71 60.6704 108.625 60.5852C108.536 60.5 108.467 60.3986 108.418 60.2809C108.369 60.1632 108.345 60.0374 108.345 59.9035ZM112.661 58.3026C112.787 58.3838 112.935 58.4629 113.105 58.54C113.28 58.6171 113.452 58.6861 113.623 58.747C113.793 58.8078 113.949 58.8586 114.091 58.8991C114.237 58.9357 114.347 58.9539 114.42 58.9539C114.436 58.9539 114.452 58.9539 114.469 58.9539C114.489 58.9499 114.509 58.9458 114.529 58.9417C114.578 58.9296 114.625 58.8687 114.669 58.7591C114.718 58.6455 114.736 58.4913 114.724 58.2965C114.724 58.1667 114.688 58.0246 114.615 57.8704C114.542 57.7122 114.446 57.5661 114.329 57.4322C114.211 57.2942 114.075 57.1806 113.921 57.0913C113.771 56.998 113.616 56.9513 113.458 56.9513C113.401 56.9513 113.328 57.0325 113.239 57.1948C113.15 57.3571 113.02 57.5986 112.849 57.9191V57.913L112.661 58.3026ZM116.999 60.8835C117.02 60.5507 117.04 60.2058 117.06 59.8487C117.081 59.4916 117.097 59.1386 117.109 58.7896C117.125 58.4406 117.135 58.1017 117.139 57.773C117.143 57.4443 117.139 57.142 117.127 56.8661C117.103 56.2899 117.079 55.7846 117.054 55.3504C117.034 54.9122 117.012 54.5246 116.987 54.1878C116.967 53.851 116.945 53.5568 116.92 53.3052C116.9 53.0496 116.878 52.8162 116.853 52.6052C116.829 52.3942 116.803 52.1974 116.774 52.0148C116.746 51.8281 116.715 51.6354 116.683 51.4365L118.564 50.8157C118.653 51.3594 118.724 51.9072 118.777 52.4591C118.834 53.011 118.876 53.5406 118.905 54.0478C118.933 54.551 118.951 55.0197 118.959 55.4539C118.972 55.8881 118.978 56.2594 118.978 56.5678C118.978 56.8478 118.976 57.1501 118.972 57.4748C118.972 57.7994 118.967 58.1362 118.959 58.4852C118.955 58.8342 118.947 59.1872 118.935 59.5443C118.923 59.9014 118.905 60.2504 118.88 60.5913L116.999 60.8835Z" fill="#303030"/>
<defs>
<linearGradient id="paint0_linear_2611_50764" x1="5.08426" y1="6.15789" x2="151.122" y2="67.5913" gradientUnits="userSpaceOnUse">
<stop stop-color="#EAEAEA"/>
<stop offset="1" stop-color="#BDBDBD"/>
</linearGradient>
</defs>
</svg>
