<svg width="372" height="306" viewBox="0 0 372 306" fill="none" xmlns="http://www.w3.org/2000/svg">
<g filter="url(#filter0_i_4261_44351)">
<g clip-path="url(#clip0_4261_44351)">
<rect width="372" height="306" rx="10" fill="white"/>
<path d="M358.452 314.98C358.452 314.98 355.772 309.325 352.506 307.535C349.239 305.746 345.768 308.766 345.768 308.766C345.768 308.766 345.763 307.3 344.632 306.73C343.498 306.171 341.957 307.681 341.957 307.681C341.957 307.681 341.71 304.212 339.224 302.198C336.751 300.175 330.901 304.537 330.901 304.537C330.901 304.537 331.324 302.447 329.973 301.309C328.62 300.181 326.018 301.044 326.018 301.044C326.018 301.044 326.828 297.59 326.19 297.264C325.561 296.951 323.905 297.551 323.905 297.551C323.905 297.551 324.372 296.055 323.943 295.45C323.524 294.847 322.312 295.322 321.331 296.041C320.348 296.77 318.862 296.724 319.202 294.461C319.554 292.19 316.793 289.598 314.208 290.363L310.1 298.254C309.512 298.094 308.934 297.948 308.344 297.799L308.342 297.81C296.662 294.974 284.649 294.559 284.649 294.559C292.451 296.231 300.216 298.054 307.957 300.008L307.97 299.999C308.331 300.085 308.69 300.182 309.049 300.279C325.681 304.524 342.165 309.42 358.452 314.98Z" fill="url(#paint0_linear_4261_44351)"/>
<path d="M11.9658 309.994C11.9658 309.994 14.9657 304.503 18.3293 302.903C21.6929 301.303 24.9851 304.518 24.9851 304.518C24.9851 304.518 25.0744 303.055 26.2367 302.55C27.4002 302.057 28.8528 303.653 28.8528 303.653C28.8528 303.653 29.2983 300.204 31.8956 298.336C34.4806 296.458 40.0706 301.149 40.0706 301.149C40.0706 301.149 39.7678 299.038 41.1819 297.979C42.5973 296.93 45.1461 297.941 45.1461 297.941C45.1461 297.941 44.5348 294.447 45.1908 294.158C45.837 293.881 47.4556 294.575 47.4556 294.575C47.4556 294.575 47.0747 293.055 47.5385 292.475C47.9912 291.897 49.174 292.441 50.1122 293.215C51.0517 293.999 52.5374 294.038 52.3282 291.76C52.1064 289.472 55.0115 287.043 57.5487 287.954L61.1976 296.068C61.7936 295.943 62.3796 295.829 62.9768 295.715L62.9781 295.726C74.8012 293.564 86.8182 293.839 86.8182 293.839C78.9331 295.06 71.0772 296.435 63.2367 297.943L63.2243 297.933C62.8588 297.998 62.4945 298.074 62.1303 298.15C45.2824 301.435 28.5451 305.377 11.9658 309.994Z" fill="url(#paint1_linear_4261_44351)"/>
<path d="M82.8418 305.533H255.789C198.503 290.878 140.139 290.878 82.8418 305.533Z" fill="url(#paint2_linear_4261_44351)"/>
<path d="M142.688 287.994C122.676 289.248 102.708 291.435 82.8418 294.544C82.8418 288.604 85.6494 287.716 88.0302 286.684C90.4223 285.64 91.1972 279.523 94.847 279.156C98.5081 278.79 100.069 281.11 100.069 281.11C99.5189 278.768 101.147 276.503 105.022 276.503C108.683 276.503 114.231 281.699 114.231 281.699C114.231 281.699 117.016 279.645 119.06 279.512C121.227 279.378 125.09 282.154 127.898 283.286C130.706 284.408 132.323 281.321 135.523 281.954C138.724 282.587 142.688 287.994 142.688 287.994Z" fill="url(#paint3_linear_4261_44351)"/>
<path d="M175.304 159.22H166.746V181.801H175.304V159.22Z" fill="url(#paint4_linear_4261_44351)"/>
<path d="M164.498 158.354V160.575L175.302 159.22V157L164.498 158.354Z" fill="#00BD61"/>
<path d="M183.512 181.802V159.376" stroke="url(#paint5_linear_4261_44351)" stroke-width="2" stroke-miterlimit="10"/>
<path d="M175.301 157V159.22L186.992 160.331V158.11L175.301 157Z" fill="#0B9C55"/>
<path d="M182.502 201.341V286.704C167.33 286.593 152.169 287.026 137.02 287.992V201.341H182.502Z" fill="url(#paint6_linear_4261_44351)"/>
<path d="M228.119 287.981V201.341" stroke="url(#paint7_linear_4261_44351)" stroke-width="2" stroke-miterlimit="10"/>
<path d="M157.502 173.84L127.461 200.163V202.384L184.039 197.943L214.081 171.62V169.399L157.502 173.84Z" fill="url(#paint8_linear_4261_44351)"/>
<path d="M216.327 172.365V172.621L209.297 178.771L228.119 203.562H238.327V201.342L216.327 172.365Z" fill="url(#paint9_linear_4261_44351)"/>
<path d="M141.838 287.729C146.274 287.485 150.721 287.274 155.157 287.118V256.499H141.838V287.729Z" fill="white"/>
<path d="M151.912 274.185C152.532 274.185 153.035 273.688 153.035 273.075C153.035 272.462 152.532 271.965 151.912 271.965C151.292 271.965 150.789 272.462 150.789 273.075C150.789 273.688 151.292 274.185 151.912 274.185Z" fill="url(#paint10_linear_4261_44351)"/>
<path d="M176.908 256.231H163.33V277.07H176.908V256.231Z" fill="white"/>
<path d="M170.127 256.231V277.07" stroke="url(#paint11_linear_4261_44351)" stroke-miterlimit="10"/>
<path d="M163.33 266.656H176.908" stroke="url(#paint12_linear_4261_44351)" stroke-miterlimit="10"/>
<path d="M176.908 216.794H163.33V237.632H176.908V216.794Z" fill="white"/>
<path d="M163.33 234.701H176.908" stroke="url(#paint13_linear_4261_44351)" stroke-miterlimit="10"/>
<path d="M170.127 234.702V216.794" stroke="url(#paint14_linear_4261_44351)" stroke-miterlimit="10"/>
<path d="M156.189 216.794H142.611V237.632H156.189V216.794Z" fill="white"/>
<path d="M142.611 234.701H156.189" stroke="url(#paint15_linear_4261_44351)" stroke-miterlimit="10"/>
<path d="M149.395 234.702V216.794" stroke="url(#paint16_linear_4261_44351)" stroke-miterlimit="10"/>
<path d="M193.978 273.646H187.24V275.866H193.978V273.646Z" fill="url(#paint17_linear_4261_44351)"/>
<path d="M199.144 245.238H192.406V247.459H199.144V245.238Z" fill="url(#paint18_linear_4261_44351)"/>
<path d="M219.728 226.099H212.99V228.319H219.728V226.099Z" fill="url(#paint19_linear_4261_44351)"/>
<path d="M215.271 199.107H208.533V201.328H215.271V199.107Z" fill="url(#paint20_linear_4261_44351)"/>
<path d="M217.08 267.297H210.342V269.517H217.08V267.297Z" fill="url(#paint21_linear_4261_44351)"/>
<path d="M220.447 263.965H213.709V266.185H220.447V263.965Z" fill="url(#paint22_linear_4261_44351)"/>
<path d="M193.986 219.561H200.725V217.34H193.986V219.561Z" fill="url(#paint23_linear_4261_44351)"/>
<path d="M190.617 216.233H197.355V214.013H190.617V216.233Z" fill="url(#paint24_linear_4261_44351)"/>
<path d="M264.784 290.891C264.784 290.891 263.897 279.067 263.897 273.527H260.359C260.359 273.527 260.584 286.839 259.461 290.891H264.784Z" fill="#AA692E"/>
<path d="M262.121 276.182C250.587 276.182 247.319 269.732 247.634 265.391C247.948 261.039 251.295 245.385 252.249 240.533C253.215 235.682 253.855 215.243 262.839 215.032C271.824 214.821 271.745 234.916 272.161 240.744C272.576 246.573 278.921 263.737 277.967 268.477C277.012 273.218 271.026 276.182 262.121 276.182Z" fill="url(#paint25_linear_4261_44351)"/>
<path d="M284.99 294.544C284.99 294.544 281.374 289.438 277.847 288.239C274.321 287.04 271.424 290.614 271.424 290.614C271.424 290.614 271.165 289.171 269.952 288.805C268.74 288.449 267.482 290.204 267.482 290.204C267.482 290.204 266.64 286.829 263.843 285.274C261.058 283.709 256.049 289.016 256.049 289.016C256.049 289.016 256.105 286.884 254.578 285.996C253.051 285.119 250.636 286.418 250.636 286.418C250.636 286.418 250.838 282.876 250.153 282.665C249.48 282.465 247.952 283.343 247.952 283.343C247.952 283.343 248.154 281.788 247.627 281.266C247.11 280.745 245.998 281.422 245.156 282.299C244.314 283.187 242.842 283.398 242.786 281.111C242.741 278.813 239.574 276.737 237.16 277.936L234.476 286.418C233.869 286.362 233.274 286.318 232.668 286.273V286.285C220.674 285.507 208.77 287.173 208.77 287.173C216.743 287.472 224.705 287.928 232.668 288.516L232.679 288.505C233.05 288.527 233.42 288.56 233.791 288.594C250.906 289.904 267.987 291.88 284.99 294.544Z" fill="url(#paint26_linear_4261_44351)"/>
<path d="M75.3281 71.3125C73.651 71.3125 72.5052 70.7031 71.8906 69.4844C69.6719 69.1823 68.2188 68.8854 67.5312 68.5938C65.9271 67.9271 65.125 66.7552 65.125 65.0781C65.125 63.8281 65.849 62.4167 67.2969 60.8438C68.7552 59.2604 70.0781 58.4688 71.2656 58.4688C72.7865 58.4688 73.8385 59.1302 74.4219 60.4531C74.7969 61.3281 74.9844 62.6094 74.9844 64.2969C74.9844 64.4635 74.9844 64.6927 74.9844 64.9844C74.9844 65.276 74.9844 65.4792 74.9844 65.5938C74.9844 66.3333 75.0781 66.7708 75.2656 66.9062C75.4531 67.0417 75.9479 67.0833 76.75 67.0312V71.3125H75.3281ZM71.3281 63.125C71.3281 62.8229 71.3177 62.6719 71.2969 62.6719C71.1302 62.6719 70.7083 62.9896 70.0312 63.625C69.3542 64.25 69.0156 64.6302 69.0156 64.7656C69.0156 64.9323 69.3542 65.099 70.0312 65.2656C70.3438 65.349 70.776 65.4323 71.3281 65.5156V63.125ZM78.0938 60.2031V56.3125H81.6406V60.2031H78.0938ZM78 71.3125H75.4688V67C76.125 67.1146 76.6823 67.1719 77.1406 67.1719C78.2344 67.1719 78.7812 66.8594 78.7812 66.2344C78.7812 65.901 78.5781 64.9062 78.1719 63.25L81.8438 62.4219C82.4375 64.4427 82.7344 65.9896 82.7344 67.0625C82.7344 68.4688 82.2344 69.5573 81.2344 70.3281C80.3802 70.9844 79.3021 71.3125 78 71.3125ZM89.8594 71.3125C89.3906 71.3125 87.8333 71.1406 85.1875 70.7969V55.4844H89.0469V66.9844C89.2656 67.026 89.9271 67.0469 91.0312 67.0469V71.3125H89.8594ZM89.8438 71.3125V67.0469H96.2812V71.3125H89.8438ZM95.1562 71.3125V67.0469H101.594V71.3125H95.1562ZM106.141 59.4688V55.5781H109.844V59.4688H106.141ZM111.094 68.5781C110.594 68.9115 109.854 69.3802 108.875 69.9844C107.312 70.8698 104.958 71.3125 101.812 71.3125H100.438V67.0469C103.833 67.0469 106.656 66.5625 108.906 65.5938L105.625 64.8125L105.422 65.5781L101.594 64.5L102.828 59.9688L114.719 62.9375V66.8281C113.344 67.3594 112.135 67.9427 111.094 68.5781ZM122.938 71.3125V67.0469H129.375V71.3125H122.938ZM136.062 71.3125V67.0469H142.5V71.3125H136.062ZM149.188 71.3125V67.0469H155.625V71.3125H149.188ZM154.5 71.3125V67.0469H160.938V71.3125H154.5ZM169.953 71.3125C168.578 71.3125 167.333 70.8906 166.219 70.0469C165.062 70.8906 163.458 71.3125 161.406 71.3125H159.781V67.0469L162.203 67.0625C163.234 67.0729 163.75 66.9115 163.75 66.5781C163.75 66.099 162.391 63.901 159.672 59.9844L166.609 53.6719L169.25 56.8281L165 60.6562C167.427 64.9167 168.995 67.0469 169.703 67.0469H170.859V71.3125H169.953ZM169.688 71.3125V67.0469H176.125V71.3125H169.688ZM175 71.3125V67.0469H181.438V71.3125H175ZM180.312 71.3125V67.0469H186.75V71.3125H180.312ZM188.094 71.3125H185.531V67C186.198 67.1146 186.76 67.1719 187.219 67.1719C188.312 67.1719 188.859 66.8594 188.859 66.2344C188.859 65.901 188.661 64.9062 188.266 63.25L191.984 62.4219C192.578 64.4427 192.875 65.9896 192.875 67.0625C192.875 68.4688 192.37 69.5573 191.359 70.3281C190.495 70.9844 189.406 71.3125 188.094 71.3125ZM193.812 77.875H190.328L190.359 74.0781H193.859L193.812 77.875ZM189.891 77.875H186.391L186.422 74.0781H189.922L189.891 77.875ZM206.234 70.375C205.047 69.3021 204.401 68.7031 204.297 68.5781C203.609 67.7865 203.266 66.974 203.266 66.1406C203.266 65.4427 203.536 64.5885 204.078 63.5781C204.557 62.6927 205.094 61.9375 205.688 61.3125L206.859 62.3125C206.401 63.1667 206.172 63.7812 206.172 64.1562C206.172 64.6771 206.979 65.6719 208.594 67.1406L206.234 70.375ZM227.531 71.3125L228 73.9531C224.823 76.349 221.656 77.5469 218.5 77.5469C216.135 77.5469 214.24 76.9062 212.812 75.625C211.302 74.2604 210.547 72.3646 210.547 69.9375C210.547 67.7604 211.214 65.5 212.547 63.1562L216.359 64.7656C215.214 66.9844 214.641 68.7344 214.641 70.0156C214.641 71.0781 215.036 71.901 215.828 72.4844C216.536 73.0156 217.458 73.2812 218.594 73.2812C220.323 73.2812 222.333 72.5833 224.625 71.1875C222.958 70.6042 221.599 69.7344 220.547 68.5781L222.609 65.0312C223.526 65.9375 224.547 66.526 225.672 66.7969C226.38 66.9635 227.578 67.0469 229.266 67.0469V71.3125H227.531ZM230.75 60.2031V56.3125H234.297V60.2031H230.75ZM230.656 71.3125H228.125V67C228.781 67.1146 229.339 67.1719 229.797 67.1719C230.891 67.1719 231.438 66.8594 231.438 66.2344C231.438 65.901 231.234 64.9062 230.828 63.25L234.5 62.4219C235.094 64.4427 235.391 65.9896 235.391 67.0625C235.391 68.4688 234.891 69.5573 233.891 70.3281C233.036 70.9844 231.958 71.3125 230.656 71.3125ZM238.578 71.3125V55.5156H242.188V71.3125H238.578ZM255.781 71.3125C255.229 71.3229 254.792 71.2292 254.469 71.0312V71.1562C254.49 72.9479 253.51 74.5573 251.531 75.9844C251.01 76.3698 249.286 77.3229 246.359 78.8438L244.531 75.1406C246.958 73.9115 248.203 73.2812 248.266 73.25C249.839 72.25 250.625 71.2135 250.625 70.1406C250.625 69.4844 250.469 68.724 250.156 67.8594C249.865 67.1406 249.573 66.4167 249.281 65.6875L253.062 64.2656C253.219 64.6719 253.375 65.0833 253.531 65.5C253.771 66.0833 253.99 66.4635 254.188 66.6406C254.49 66.9219 255.297 67.0573 256.609 67.0469V71.3125H255.781ZM257.906 71.3125H255.344V67C256.01 67.1146 256.573 67.1719 257.031 67.1719C258.125 67.1719 258.672 66.8594 258.672 66.2344C258.672 65.901 258.474 64.9062 258.078 63.25L261.797 62.4219C262.391 64.4427 262.688 65.9896 262.688 67.0625C262.688 68.4688 262.182 69.5573 261.172 70.3281C260.307 70.9844 259.219 71.3125 257.906 71.3125ZM263.625 77.875H260.141L260.172 74.0781H263.672L263.625 77.875ZM259.703 77.875H256.203L256.234 74.0781H259.734L259.703 77.875ZM266.578 71.3125V55.5156H270.188V71.3125H266.578ZM291.594 71.3125C291.042 71.3229 290.604 71.2292 290.281 71.0312V71.1562C290.302 72.9479 289.323 74.5573 287.344 75.9844C286.823 76.3698 285.099 77.3229 282.172 78.8438L280.344 75.1406C282.771 73.9115 284.016 73.2812 284.078 73.25C285.651 72.25 286.438 71.2135 286.438 70.1406C286.438 69.4844 286.281 68.724 285.969 67.8594C285.677 67.1406 285.385 66.4167 285.094 65.6875L288.875 64.2656C289.031 64.6719 289.188 65.0833 289.344 65.5C289.583 66.0833 289.802 66.4635 290 66.6406C290.302 66.9219 291.109 67.0573 292.422 67.0469V71.3125H291.594ZM303.719 71.3281C302.469 71.3281 300.396 70.9531 297.5 70.2031C296.156 70.9427 294.062 71.3125 291.219 71.3125V67.0469C292.177 67.0469 292.953 66.9844 293.547 66.8594C292.88 64.2969 292.547 62.5312 292.547 61.5625C292.547 60.5 292.906 59.5573 293.625 58.7344C294.354 57.901 295.229 57.4844 296.25 57.4844C297 57.4844 298.062 57.8281 299.438 58.5156C300.927 59.2656 301.859 60.0052 302.234 60.7344L305.203 59.9062C305.651 61.25 306.094 62.599 306.531 63.9531C307.01 65.5781 307.25 66.9688 307.25 68.125C307.25 69.1667 306.891 69.9792 306.172 70.5625C305.526 71.0729 304.708 71.3281 303.719 71.3281ZM302.469 64.5781C302.073 64.8698 301.49 65.7188 300.719 67.125C301.917 67.3333 302.693 67.4375 303.047 67.4375C303.214 67.4375 303.297 67.3854 303.297 67.2812C303.297 66.9583 303.203 66.4896 303.016 65.875C302.839 65.25 302.656 64.8177 302.469 64.5781ZM296.438 61.625C296.417 61.6354 296.406 61.7188 296.406 61.875C296.406 62.4167 296.469 63.0312 296.594 63.7188C296.771 64.6458 297.005 65.1615 297.297 65.2656C297.661 65.099 298.198 64.3594 298.906 63.0469C297.938 62.4427 297.115 61.9688 296.438 61.625Z" fill="#636363"/>
<path d="M118.734 112.195L119.027 113.846C117.042 115.343 115.062 116.092 113.09 116.092C111.612 116.092 110.427 115.691 109.535 114.891C108.591 114.038 108.119 112.853 108.119 111.336C108.119 109.975 108.536 108.562 109.369 107.098L111.752 108.104C111.036 109.49 110.678 110.584 110.678 111.385C110.678 112.049 110.925 112.563 111.42 112.928C111.863 113.26 112.439 113.426 113.148 113.426C114.229 113.426 115.486 112.99 116.918 112.117C115.876 111.753 115.027 111.209 114.369 110.486L115.658 108.27C116.231 108.836 116.869 109.204 117.572 109.373C118.015 109.477 118.764 109.529 119.818 109.529V112.195H118.734ZM120.668 112.195H119.066V109.5C119.483 109.572 119.835 109.607 120.121 109.607C120.805 109.607 121.146 109.412 121.146 109.021C121.146 108.813 121.023 108.191 120.775 107.156L123.1 106.639C123.471 107.902 123.656 108.868 123.656 109.539C123.656 110.418 123.34 111.098 122.709 111.58C122.169 111.99 121.488 112.195 120.668 112.195ZM124.242 116.297H122.064L122.084 113.924H124.271L124.242 116.297ZM121.791 116.297H119.604L119.623 113.924H121.811L121.791 116.297ZM128.549 112.195C128.256 112.195 127.283 112.088 125.629 111.873V102.303H128.041V109.49C128.178 109.516 128.591 109.529 129.281 109.529V112.195H128.549ZM130.082 112.195H128.48V109.5C128.897 109.572 129.249 109.607 129.535 109.607C130.219 109.607 130.561 109.412 130.561 109.021C130.561 108.813 130.437 108.191 130.189 107.156L132.514 106.639C132.885 107.902 133.07 108.868 133.07 109.539C133.07 110.418 132.755 111.098 132.123 111.58C131.583 111.99 130.902 112.195 130.082 112.195ZM133.656 116.297H131.479L131.498 113.924H133.686L133.656 116.297ZM131.205 116.297H129.018L129.037 113.924H131.225L131.205 116.297ZM139.105 114.881C138.702 115.167 137.618 115.743 135.854 116.609L134.77 114.334C135.388 114.035 136.003 113.735 136.615 113.436C137.39 113.032 137.96 112.658 138.324 112.312C137.204 112.143 136.436 111.945 136.02 111.717C135.258 111.3 134.877 110.6 134.877 109.617C134.877 108.901 135.349 108.042 136.293 107.039C137.243 106.03 138.057 105.525 138.734 105.525C139.418 105.525 139.975 105.828 140.404 106.434C140.788 106.98 140.98 107.615 140.98 108.338V111.902C140.98 113.009 140.355 114.002 139.105 114.881ZM138.715 108.523C138.715 108.335 138.708 108.24 138.695 108.24C137.999 108.631 137.497 109.07 137.191 109.559C137.393 109.708 137.901 109.842 138.715 109.959V108.523ZM146.498 114.334C146.068 114.673 145.515 115.021 144.838 115.379C144.258 115.672 143.679 115.968 143.1 116.268L141.967 113.934C142.729 113.556 143.49 113.178 144.252 112.801C145.274 112.182 145.785 111.561 145.785 110.936C145.785 110.454 145.495 109.484 144.916 108.025L147.299 107.156C147.924 108.882 148.236 110.151 148.236 110.965C148.236 112.299 147.657 113.423 146.498 114.334ZM160.521 112.195C159.473 112.195 158.757 111.814 158.373 111.053C156.986 110.864 156.078 110.678 155.648 110.496C154.646 110.079 154.145 109.347 154.145 108.299C154.145 107.518 154.597 106.635 155.502 105.652C156.413 104.663 157.24 104.168 157.982 104.168C158.933 104.168 159.59 104.581 159.955 105.408C160.189 105.955 160.307 106.756 160.307 107.811C160.307 107.915 160.307 108.058 160.307 108.24C160.307 108.423 160.307 108.549 160.307 108.621C160.307 109.083 160.365 109.357 160.482 109.441C160.6 109.526 160.909 109.552 161.41 109.52V112.195H160.521ZM158.021 107.078C158.021 106.889 158.015 106.795 158.002 106.795C157.898 106.795 157.634 106.993 157.211 107.391C156.788 107.781 156.576 108.019 156.576 108.104C156.576 108.208 156.788 108.312 157.211 108.416C157.406 108.468 157.676 108.52 158.021 108.572V107.078ZM162.25 105.252V102.82H164.467V105.252H162.25ZM162.191 112.195H160.609V109.5C161.02 109.572 161.368 109.607 161.654 109.607C162.338 109.607 162.68 109.412 162.68 109.021C162.68 108.813 162.553 108.191 162.299 107.156L164.594 106.639C164.965 107.902 165.15 108.868 165.15 109.539C165.15 110.418 164.838 111.098 164.213 111.58C163.679 111.99 163.005 112.195 162.191 112.195ZM169.604 112.195C169.311 112.195 168.337 112.088 166.684 111.873V102.303H169.096V109.49C169.232 109.516 169.646 109.529 170.336 109.529V112.195H169.604ZM173.139 104.793V102.361H175.453V104.793H173.139ZM176.234 110.486C175.922 110.695 175.46 110.988 174.848 111.365C173.871 111.919 172.4 112.195 170.434 112.195H169.574V109.529C171.697 109.529 173.461 109.227 174.867 108.621L172.816 108.133L172.689 108.611L170.297 107.938L171.068 105.105L178.5 106.961V109.393C177.641 109.725 176.885 110.089 176.234 110.486ZM187.982 112.195C187.689 112.195 186.716 112.088 185.062 111.873V102.303H187.475V109.49C187.611 109.516 188.025 109.529 188.715 109.529V112.195H187.982ZM189.535 112.195H187.953V109.5C188.363 109.572 188.712 109.607 188.998 109.607C189.682 109.607 190.023 109.412 190.023 109.021C190.023 108.813 189.896 108.191 189.643 107.156L191.938 106.639C192.309 107.902 192.494 108.868 192.494 109.539C192.494 110.418 192.182 111.098 191.557 111.58C191.023 111.99 190.349 112.195 189.535 112.195ZM189.369 116.336V113.748H191.771V116.336H189.369ZM201.83 112.195C201.537 112.195 200.564 112.088 198.91 111.873V102.303H201.322V109.49C201.459 109.516 201.872 109.529 202.562 109.529V112.195H201.83ZM210.795 112.195C210.046 112.195 209.512 112.033 209.193 111.707C208.777 112.43 208.083 112.791 207.113 112.791C206.697 112.791 206.231 112.625 205.717 112.293C205.554 112.189 205.15 111.88 204.506 111.365C203.979 111.925 203.077 112.202 201.801 112.195V109.529C202.465 109.529 203.012 109.337 203.441 108.953C203.715 108.712 204.034 108.276 204.398 107.645C204.789 106.98 205.115 106.518 205.375 106.258C205.824 105.809 206.355 105.584 206.967 105.584C207.748 105.584 208.295 105.893 208.607 106.512C208.686 106.661 208.858 107.293 209.125 108.406C209.236 108.868 209.395 109.184 209.604 109.354C209.766 109.49 210.02 109.559 210.365 109.559C210.281 109.559 210.548 109.546 211.166 109.52V112.195H210.795ZM206.82 108.143C206.586 108.253 206.251 108.696 205.814 109.471C206.205 109.764 206.651 110.063 207.152 110.369L207.27 110.311L207.318 110.164C207.292 108.947 207.126 108.273 206.82 108.143ZM215.424 102.84V100.428H217.787V102.84H215.424ZM216.83 105.574V103.162H219.184V105.574H216.83ZM214.076 105.574V103.162H216.43V105.574H214.076ZM219.066 112.195C218.155 112.195 217.527 111.974 217.182 111.531C216.732 111.974 216.199 112.195 215.58 112.195C214.87 112.195 214.258 111.919 213.744 111.365C213.477 111.736 213.064 111.98 212.504 112.098C212.198 112.163 211.706 112.195 211.029 112.195H210.453V109.52C210.98 109.539 211.316 109.539 211.459 109.52C211.921 109.461 212.152 109.282 212.152 108.982C212.152 108.755 212.071 108.377 211.908 107.85L214.428 107.352C214.512 107.762 214.597 108.175 214.682 108.592C214.851 109.217 215.056 109.529 215.297 109.529C215.603 109.529 215.827 109.227 215.971 108.621C215.984 108.569 216.046 108.139 216.156 107.332L218.627 107.781L218.373 109.324C218.438 109.461 218.643 109.529 218.988 109.529C219.574 109.529 219.867 109.37 219.867 109.051C219.867 109.038 219.711 108.406 219.398 107.156L221.869 106.59C221.993 107.072 222.117 107.557 222.24 108.045C222.37 108.611 222.436 109.103 222.436 109.52C222.436 110.372 222.051 111.049 221.283 111.551C220.632 111.98 219.893 112.195 219.066 112.195ZM234.76 112.195C233.712 112.195 232.995 111.814 232.611 111.053C231.225 110.864 230.316 110.678 229.887 110.496C228.884 110.079 228.383 109.347 228.383 108.299C228.383 107.518 228.835 106.635 229.74 105.652C230.652 104.663 231.479 104.168 232.221 104.168C233.171 104.168 233.829 104.581 234.193 105.408C234.428 105.955 234.545 106.756 234.545 107.811C234.545 107.915 234.545 108.058 234.545 108.24C234.545 108.423 234.545 108.549 234.545 108.621C234.545 109.083 234.604 109.357 234.721 109.441C234.838 109.526 235.147 109.552 235.648 109.52V112.195H234.76ZM232.26 107.078C232.26 106.889 232.253 106.795 232.24 106.795C232.136 106.795 231.872 106.993 231.449 107.391C231.026 107.781 230.814 108.019 230.814 108.104C230.814 108.208 231.026 108.312 231.449 108.416C231.645 108.468 231.915 108.52 232.26 108.572V107.078ZM240.414 112.195C239.451 112.195 238.764 111.954 238.354 111.473C237.917 111.954 237.162 112.195 236.088 112.195H234.848V109.52L235.756 109.549C236.4 109.568 236.723 109.318 236.723 108.797C236.723 107.938 236.625 106.912 236.43 105.721C236.247 104.705 236.068 103.689 235.893 102.674L238.373 102.254L239.369 108.934C239.415 109.227 239.6 109.412 239.926 109.49C240.076 109.523 240.404 109.536 240.912 109.529V112.195H240.414ZM248.334 112.264C245.508 112.264 243.842 111.912 243.334 111.209C242.976 111.671 242.488 111.967 241.869 112.098C241.557 112.163 240.98 112.195 240.141 112.195V109.529H240.805C241.312 109.536 241.566 109.347 241.566 108.963C241.566 108.748 241.42 108.104 241.127 107.029L243.764 106.385C243.868 107.029 244.011 107.765 244.193 108.592C245.105 107.765 246.091 107.039 247.152 106.414C248.474 105.633 249.564 105.242 250.424 105.242C251.212 105.242 251.853 105.496 252.348 106.004C252.849 106.512 253.1 107.169 253.1 107.977C253.1 109.643 252.686 110.799 251.859 111.443C251.156 111.99 249.981 112.264 248.334 112.264ZM250.053 108.035C249.695 108.035 248.692 108.533 247.045 109.529H249.32C250.089 109.529 250.473 109.165 250.473 108.436C250.473 108.169 250.333 108.035 250.053 108.035ZM257.572 112.195C257.279 112.195 256.306 112.088 254.652 111.873V102.303H257.064V109.49C257.201 109.516 257.615 109.529 258.305 109.529V112.195H257.572ZM260.199 102.859V100.408H262.484V102.859H260.199ZM260.209 109.529C258.809 109.178 258.109 108.41 258.109 107.225C258.109 106.43 258.51 105.561 259.311 104.617C260.111 103.673 260.889 103.201 261.645 103.201C262.354 103.201 262.901 103.475 263.285 104.021C263.63 104.51 263.803 105.128 263.803 105.877V108.68C263.803 109.962 263.617 110.848 263.246 111.336C262.823 111.909 262.012 112.195 260.814 112.195H257.543V109.529H260.209ZM261.635 106.102C261.635 105.854 261.625 105.708 261.605 105.662C261.378 105.786 261.12 106.001 260.834 106.307C260.548 106.613 260.349 106.883 260.238 107.117C260.323 107.228 260.788 107.365 261.635 107.527V106.102Z" fill="#A6A6A6"/>
</g>
<rect x="0.5" y="0.5" width="371" height="305" rx="9.5" stroke="url(#paint27_linear_4261_44351)"/>
</g>
<defs>
<filter id="filter0_i_4261_44351" x="-3" y="0" width="375" height="308" filterUnits="userSpaceOnUse" color-interpolation-filters="sRGB">
<feFlood flood-opacity="0" result="BackgroundImageFix"/>
<feBlend mode="normal" in="SourceGraphic" in2="BackgroundImageFix" result="shape"/>
<feColorMatrix in="SourceAlpha" type="matrix" values="0 0 0 0 0 0 0 0 0 0 0 0 0 0 0 0 0 0 127 0" result="hardAlpha"/>
<feOffset dx="-3" dy="2"/>
<feGaussianBlur stdDeviation="2"/>
<feComposite in2="hardAlpha" operator="arithmetic" k2="-1" k3="1"/>
<feColorMatrix type="matrix" values="0 0 0 0 0 0 0 0 0 0 0 0 0 0 0 0 0 0 0.25 0"/>
<feBlend mode="normal" in2="shape" result="effect1_innerShadow_4261_44351"/>
</filter>
<linearGradient id="paint0_linear_4261_44351" x1="323.843" y1="291.695" x2="320.914" y2="308.4" gradientUnits="userSpaceOnUse">
<stop stop-color="#3FB59D"/>
<stop offset="1" stop-color="#36D859"/>
</linearGradient>
<linearGradient id="paint1_linear_4261_44351" x1="47.8536" y1="288.732" x2="49.8191" y2="305.577" gradientUnits="userSpaceOnUse">
<stop stop-color="#3FB59D"/>
<stop offset="1" stop-color="#36D859"/>
</linearGradient>
<linearGradient id="paint2_linear_4261_44351" x1="169.316" y1="294.542" x2="169.316" y2="305.533" gradientUnits="userSpaceOnUse">
<stop stop-color="#43A9B5"/>
<stop offset="1" stop-color="#36D859"/>
</linearGradient>
<linearGradient id="paint3_linear_4261_44351" x1="112.765" y1="276.503" x2="112.765" y2="294.544" gradientUnits="userSpaceOnUse">
<stop stop-color="#3FB59D"/>
<stop offset="1" stop-color="#36D859"/>
</linearGradient>
<linearGradient id="paint4_linear_4261_44351" x1="171.025" y1="159.22" x2="171.025" y2="181.801" gradientUnits="userSpaceOnUse">
<stop stop-color="#4C8CED"/>
<stop offset="1" stop-color="#636363"/>
</linearGradient>
<linearGradient id="paint5_linear_4261_44351" x1="184.012" y1="159.376" x2="184.012" y2="181.802" gradientUnits="userSpaceOnUse">
<stop stop-color="#4C8CED"/>
<stop offset="1" stop-color="#36D859"/>
</linearGradient>
<linearGradient id="paint6_linear_4261_44351" x1="137.02" y1="201.341" x2="220.166" y2="238.643" gradientUnits="userSpaceOnUse">
<stop offset="0.501277" stop-color="#4C8CED"/>
<stop offset="0.975863" stop-color="#636363"/>
</linearGradient>
<linearGradient id="paint7_linear_4261_44351" x1="228.619" y1="201.341" x2="228.619" y2="287.981" gradientUnits="userSpaceOnUse">
<stop stop-color="#4C8CED"/>
<stop offset="1" stop-color="#36D859"/>
</linearGradient>
<linearGradient id="paint8_linear_4261_44351" x1="127.461" y1="169.399" x2="149.4" y2="227.014" gradientUnits="userSpaceOnUse">
<stop offset="0.534668" stop-color="#4C8CED"/>
<stop offset="0.931288" stop-color="#636363"/>
</linearGradient>
<linearGradient id="paint9_linear_4261_44351" x1="209.297" y1="172.365" x2="253.557" y2="200.625" gradientUnits="userSpaceOnUse">
<stop offset="0.281083" stop-color="#4C8CED"/>
<stop offset="1" stop-color="#636363"/>
</linearGradient>
<linearGradient id="paint10_linear_4261_44351" x1="151.912" y1="271.965" x2="151.912" y2="274.185" gradientUnits="userSpaceOnUse">
<stop stop-color="#4C8CED"/>
<stop offset="1" stop-color="#36D859"/>
</linearGradient>
<linearGradient id="paint11_linear_4261_44351" x1="170.627" y1="256.231" x2="170.627" y2="277.07" gradientUnits="userSpaceOnUse">
<stop stop-color="#4C8CED"/>
<stop offset="1" stop-color="#36D859"/>
</linearGradient>
<linearGradient id="paint12_linear_4261_44351" x1="170.119" y1="266.656" x2="170.119" y2="267.656" gradientUnits="userSpaceOnUse">
<stop stop-color="#4C8CED"/>
<stop offset="1" stop-color="#36D859"/>
</linearGradient>
<linearGradient id="paint13_linear_4261_44351" x1="170.119" y1="234.701" x2="170.119" y2="235.701" gradientUnits="userSpaceOnUse">
<stop stop-color="#4C8CED"/>
<stop offset="1" stop-color="#36D859"/>
</linearGradient>
<linearGradient id="paint14_linear_4261_44351" x1="170.627" y1="216.794" x2="170.627" y2="234.702" gradientUnits="userSpaceOnUse">
<stop stop-color="#4C8CED"/>
<stop offset="1" stop-color="#36D859"/>
</linearGradient>
<linearGradient id="paint15_linear_4261_44351" x1="149.4" y1="234.701" x2="149.4" y2="235.701" gradientUnits="userSpaceOnUse">
<stop stop-color="#4C8CED"/>
<stop offset="1" stop-color="#36D859"/>
</linearGradient>
<linearGradient id="paint16_linear_4261_44351" x1="149.895" y1="216.794" x2="149.895" y2="234.702" gradientUnits="userSpaceOnUse">
<stop stop-color="#4C8CED"/>
<stop offset="1" stop-color="#36D859"/>
</linearGradient>
<linearGradient id="paint17_linear_4261_44351" x1="190.609" y1="273.646" x2="190.609" y2="275.866" gradientUnits="userSpaceOnUse">
<stop stop-color="#4C8CED"/>
<stop offset="1" stop-color="#36D859"/>
</linearGradient>
<linearGradient id="paint18_linear_4261_44351" x1="195.775" y1="245.238" x2="195.775" y2="247.459" gradientUnits="userSpaceOnUse">
<stop stop-color="#4C8CED"/>
<stop offset="1" stop-color="#36D859"/>
</linearGradient>
<linearGradient id="paint19_linear_4261_44351" x1="216.359" y1="226.099" x2="216.359" y2="228.319" gradientUnits="userSpaceOnUse">
<stop stop-color="#4C8CED"/>
<stop offset="1" stop-color="#36D859"/>
</linearGradient>
<linearGradient id="paint20_linear_4261_44351" x1="211.902" y1="199.107" x2="211.902" y2="201.328" gradientUnits="userSpaceOnUse">
<stop stop-color="#4C8CED"/>
<stop offset="1" stop-color="#36D859"/>
</linearGradient>
<linearGradient id="paint21_linear_4261_44351" x1="213.711" y1="267.297" x2="213.711" y2="269.517" gradientUnits="userSpaceOnUse">
<stop stop-color="#4C8CED"/>
<stop offset="1" stop-color="#36D859"/>
</linearGradient>
<linearGradient id="paint22_linear_4261_44351" x1="217.078" y1="263.965" x2="217.078" y2="266.185" gradientUnits="userSpaceOnUse">
<stop stop-color="#4C8CED"/>
<stop offset="1" stop-color="#36D859"/>
</linearGradient>
<linearGradient id="paint23_linear_4261_44351" x1="197.356" y1="219.561" x2="197.356" y2="217.34" gradientUnits="userSpaceOnUse">
<stop stop-color="#4C8CED"/>
<stop offset="1" stop-color="#36D859"/>
</linearGradient>
<linearGradient id="paint24_linear_4261_44351" x1="193.986" y1="216.233" x2="193.986" y2="214.013" gradientUnits="userSpaceOnUse">
<stop stop-color="#4C8CED"/>
<stop offset="1" stop-color="#36D859"/>
</linearGradient>
<linearGradient id="paint25_linear_4261_44351" x1="262.839" y1="215.03" x2="262.839" y2="276.182" gradientUnits="userSpaceOnUse">
<stop stop-color="#41B2A3"/>
<stop offset="1" stop-color="#36D859"/>
</linearGradient>
<linearGradient id="paint26_linear_4261_44351" x1="246.88" y1="277.585" x2="246.88" y2="294.544" gradientUnits="userSpaceOnUse">
<stop stop-color="#40B59D"/>
<stop offset="1" stop-color="#36D859"/>
</linearGradient>
<linearGradient id="paint27_linear_4261_44351" x1="3.33799" y1="306" x2="401.949" y2="259.934" gradientUnits="userSpaceOnUse">
<stop stop-color="#BFC4F8"/>
<stop offset="1" stop-color="#FCFCFC"/>
</linearGradient>
<clipPath id="clip0_4261_44351">
<rect width="372" height="306" rx="10" fill="white"/>
</clipPath>
</defs>
</svg>
