<svg width="325" height="220" viewBox="0 0 325 220" fill="none" xmlns="http://www.w3.org/2000/svg">
<g filter="url(#filter0_d_1471_19150)">
<path d="M239.754 122.605L278.273 77.6969L316.791 122.605V202.942H239.754V122.605Z" fill="url(#paint0_linear_1471_19150)"/>
<path d="M239.755 122.604H145.582V202.941H239.755V122.604Z" fill="url(#paint1_linear_1471_19150)"/>
<path style="mix-blend-mode:multiply" d="M147.582 136.795H241.679V127.876L147.582 127.876V136.795Z" fill="url(#paint2_linear_1471_19150)"/>
<path style="mix-blend-mode:multiply" d="M316.791 124.823V136.978L278.273 92.0702L239.754 136.978V124.823L278.273 79.9152L316.791 124.823Z" fill="url(#paint3_linear_1471_19150)"/>
<path d="M141.092 122.605H240.755L279.273 77.6969H179.614L141.092 122.605Z" fill="url(#paint4_linear_1471_19150)"/>
<path d="M239.679 122.604H140.092V129.936H239.679V122.604Z" fill="url(#paint5_linear_1471_19150)"/>
<path d="M240.679 122.691L279.273 77.6969L320.827 126.142V133.548L279.273 85.1039L240.679 130.094V122.691Z" fill="url(#paint6_linear_1471_19150)"/>
<path d="M192.783 108.023L166.656 138.483H218.906L192.783 108.023Z" fill="url(#paint7_linear_1471_19150)"/>
<path d="M190.783 108.023L209.65 130.022H216.907L236.286 108.023H190.783Z" fill="url(#paint8_linear_1471_19150)"/>
<path d="M202.526 158.332H177.245V202.946H202.526V158.332Z" fill="url(#paint9_linear_1471_19150)"/>
<path d="M179.18 202.942H177.249V158.332L179.18 160.145V202.942Z" fill="url(#paint10_linear_1471_19150)"/>
<path d="M204.526 160.145H181.18L179.249 158.332H204.526V160.145Z" fill="url(#paint11_linear_1471_19150)"/>
<path d="M184.627 181.782C185.492 181.782 186.193 181.08 186.193 180.216C186.193 179.351 185.492 178.65 184.627 178.65C183.762 178.65 183.061 179.351 183.061 180.216C183.061 181.08 183.762 181.782 184.627 181.782Z" fill="url(#paint12_linear_1471_19150)"/>
<path d="M262.251 176.539H294.288V145.657H262.251V176.539Z" fill="url(#paint13_linear_1471_19150)"/>
<path d="M285.856 147.197L263.499 169.049V172.446L289.328 147.197H285.856Z" fill="url(#paint14_linear_1471_19150)"/>
<path d="M291.245 147.197L263.499 174.32V175.911L292.876 147.197H291.245Z" fill="url(#paint15_linear_1471_19150)"/>
<path d="M292.646 176.539H294.288V145.656L292.646 147.197V176.539Z" fill="url(#paint16_linear_1471_19150)"/>
<path d="M262.255 147.197H292.646L294.287 145.656H262.255V147.197Z" fill="url(#paint17_linear_1471_19150)"/>
<path d="M292.646 174.998H263.896V147.197L262.255 145.656V176.539H294.287L292.646 174.998Z" fill="url(#paint18_linear_1471_19150)"/>
<path d="M279.104 145.653H277.442V176.535H279.104V145.653Z" fill="url(#paint19_linear_1471_19150)"/>
<path d="M293.714 161.926V160.263H262.832V161.926H293.714Z" fill="url(#paint20_linear_1471_19150)"/>
<path d="M296.222 176.539H259.969V179.452H296.222V176.539Z" fill="url(#paint21_linear_1471_19150)"/>
<path d="M154.372 175.972H172.032V159.238H154.372V175.972Z" fill="url(#paint22_linear_1471_19150)"/>
<path d="M164.918 159.238L152.372 171.504V174.901L168.394 159.238H164.918Z" fill="url(#paint23_linear_1471_19150)"/>
<path d="M170.031 159.51L153.189 175.973H154.82L170.031 161.105V159.51Z" fill="url(#paint24_linear_1471_19150)"/>
<path d="M168.387 175.972H170.032V159.238L168.387 160.778V175.972Z" fill="url(#paint25_linear_1471_19150)"/>
<path d="M152.372 160.778H168.386L170.031 159.238H152.372V160.778Z" fill="url(#paint26_linear_1471_19150)"/>
<path d="M168.386 174.431H154.013V160.778L152.372 159.238V175.972H170.028L168.386 174.431Z" fill="url(#paint27_linear_1471_19150)"/>
<path d="M213.628 175.972H231.288V159.238H213.628V175.972Z" fill="url(#paint28_linear_1471_19150)"/>
<path d="M226.177 159.238L213.628 171.504V174.901L229.65 159.238H226.177Z" fill="url(#paint29_linear_1471_19150)"/>
<path d="M231.287 159.51L214.449 175.973H216.076L231.287 161.105V159.51Z" fill="url(#paint30_linear_1471_19150)"/>
<path d="M229.646 175.972H231.287V159.238L229.646 160.778V175.972Z" fill="url(#paint31_linear_1471_19150)"/>
<path d="M213.628 160.778H229.646L231.288 159.238H213.628V160.778Z" fill="url(#paint32_linear_1471_19150)"/>
<path d="M227.646 174.431H213.269V160.778L211.628 159.238V175.972H229.288L227.646 174.431Z" fill="url(#paint33_linear_1471_19150)"/>
<path d="M203.35 154.755C206.797 150.291 205.973 143.878 201.509 140.432C197.045 136.985 190.633 137.809 187.186 142.273C183.739 146.737 184.564 153.15 189.027 156.596C193.491 160.043 199.904 159.218 203.35 154.755Z" fill="url(#paint34_linear_1471_19150)"/>
<path d="M199.45 144.27C201.653 140.064 200.03 134.869 195.824 132.665C191.619 130.462 186.423 132.085 184.22 136.291C182.017 140.496 183.64 145.692 187.845 147.895C192.051 150.099 197.247 148.475 199.45 144.27Z" fill="url(#paint35_linear_1471_19150)"/>
<path d="M196.632 133.153L184.717 145.065C185.305 145.949 186.05 146.718 186.917 147.333L198.9 135.353C198.287 134.485 197.518 133.739 196.632 133.153Z" fill="url(#paint36_linear_1471_19150)"/>
<path d="M199.745 136.837L188.4 148.179C188.943 148.419 189.508 148.602 190.088 148.727L200.294 138.521C200.17 137.942 199.986 137.378 199.745 136.837Z" fill="url(#paint37_linear_1471_19150)"/>
<path style="mix-blend-mode:multiply" d="M190.783 115.462L209.238 136.977H215.616L190.783 108.023L165.95 136.977H172.328L190.783 115.462Z" fill="url(#paint38_linear_1471_19150)"/>
<path d="M14.5317 0H101.559C104.354 0 107.033 1.10997 109.009 3.08573C110.985 5.06149 112.095 7.74119 112.095 10.5353V192.41C112.095 195.204 110.985 197.884 109.009 199.859C107.033 201.835 104.354 202.945 101.559 202.945H14.5317C13.1487 202.945 11.7792 202.673 10.5014 202.143C9.22362 201.614 8.06265 200.838 7.08469 199.86C6.10672 198.882 5.33091 197.721 4.80164 196.444C4.27237 195.166 4 193.796 4 192.413V10.5318C4 7.73857 5.1096 5.05976 7.08469 3.08468C9.05977 1.10959 11.7385 0 14.5317 0Z" fill="url(#paint39_linear_1471_19150)"/>
<path d="M23.9705 0H110.998C113.791 0 116.47 1.10959 118.445 3.08468C120.42 5.05976 121.53 7.73857 121.53 10.5318V192.41C121.53 195.204 120.42 197.884 118.444 199.859C116.468 201.835 113.789 202.945 110.995 202.945H23.9705C22.5875 202.945 21.218 202.673 19.9402 202.143C18.6624 201.614 17.5014 200.838 16.5234 199.86C15.5454 198.882 14.7697 197.721 14.2404 196.444C13.7112 195.166 13.4387 193.796 13.4387 192.413V10.5318C13.4387 7.73857 14.5483 5.05976 16.5234 3.08468C18.4985 1.10959 21.1773 0 23.9705 0Z" fill="url(#paint40_linear_1471_19150)"/>
<path d="M110.998 5.73358H91.0347C90.6546 5.73358 90.29 5.8846 90.0212 6.15341C89.7524 6.42222 89.6013 6.78681 89.6013 7.16696V10.8149C89.6013 12.4128 88.9668 13.9454 87.8373 15.0756C86.7077 16.2059 85.1755 16.8413 83.5775 16.8423H51.3911C49.7937 16.8413 48.2621 16.2064 47.1327 15.0769C46.0032 13.9474 45.3682 12.4158 45.3673 10.8185V7.16696C45.3673 6.78681 45.2162 6.42222 44.9474 6.15341C44.6786 5.8846 44.314 5.73358 43.9339 5.73358H23.9705C22.6941 5.73358 21.47 6.24062 20.5675 7.14316C19.6649 8.04569 19.158 9.26978 19.158 10.5462V176.976C19.158 178.252 19.6649 179.476 20.5675 180.379C21.47 181.281 22.6941 181.788 23.9705 181.788H110.998C112.276 181.788 113.5 181.281 114.404 180.378C115.307 179.475 115.814 178.25 115.814 176.972V10.5318C115.811 9.25732 115.301 8.03635 114.398 7.13681C113.496 6.23728 112.273 5.73263 110.998 5.73358Z" fill="url(#paint41_linear_1471_19150)"/>
<path d="M78.6684 8.1675H56.3006C55.9884 8.18443 55.6946 8.32036 55.4796 8.54733C55.2646 8.77429 55.1448 9.07503 55.1448 9.38767C55.1448 9.7003 55.2646 10.001 55.4796 10.228C55.6946 10.455 55.9884 10.5909 56.3006 10.6078H78.6684C78.8342 10.6168 79.0001 10.5919 79.156 10.5347C79.3118 10.4774 79.4544 10.389 79.575 10.2748C79.6955 10.1606 79.7915 10.0231 79.8571 9.87053C79.9227 9.718 79.9566 9.55371 79.9566 9.38767C79.9566 9.22163 79.9227 9.05732 79.8571 8.9048C79.7915 8.75227 79.6955 8.61472 79.575 8.50053C79.4544 8.38635 79.3118 8.29792 79.156 8.24066C79.0001 8.1834 78.8342 8.15851 78.6684 8.1675Z" fill="url(#paint42_linear_1471_19150)"/>
<path d="M78.2416 186.125H56.7409C55.3992 186.161 54.1243 186.718 53.1878 187.68C52.2513 188.641 51.7273 189.931 51.7273 191.273C51.7273 192.615 52.2513 193.904 53.1878 194.866C54.1243 195.827 55.3992 196.385 56.7409 196.42H78.2416C78.929 196.439 79.6131 196.319 80.2535 196.068C80.8939 195.818 81.4776 195.441 81.9703 194.962C82.4629 194.482 82.8544 193.908 83.1218 193.275C83.3891 192.641 83.5268 191.96 83.5268 191.273C83.5268 190.585 83.3891 189.904 83.1218 189.271C82.8544 188.637 82.4629 188.064 81.9703 187.584C81.4776 187.104 80.8939 186.728 80.2535 186.477C79.6131 186.227 78.929 186.107 78.2416 186.125Z" fill="url(#paint43_linear_1471_19150)"/>
<path d="M115.814 168.157V157.582L73.9418 152.809L70.3583 135.738C75.4028 133.196 79.6433 129.304 82.6085 124.496C85.5736 119.688 87.1472 114.152 87.154 108.503C87.154 107.597 87.1074 106.712 87.0321 105.823L115.847 99.3727V83.9782L88.2756 39.4717L115.847 33.3011V22.5507L42.4074 38.9665L35.4125 5.73358H24.6622L34.1906 50.9459L19.1401 43.9045V55.5041L36.914 63.7855L40.8343 82.38C35.1195 85.826 30.6945 91.0534 28.2395 97.2589C25.7845 103.464 25.4354 110.304 27.2459 116.727L19.1581 118.537V129.287L31.7001 126.481L31.5496 125.808C34.353 129.869 38.1001 133.189 42.4693 135.483C46.8384 137.776 51.699 138.975 56.6337 138.977C57.8434 138.974 59.052 138.9 60.253 138.755L69.3156 181.756H80.0659L76.2423 163.613L115.814 168.157ZM77.3891 41.9013L107.472 90.4642L84.2801 95.6566C81.4113 89.468 76.5504 84.4198 70.4745 81.3192C64.3987 78.2186 57.4587 77.2446 50.7641 78.5529L44.5862 49.2474L77.3891 41.9013ZM56.6051 128.499C52.6481 128.499 48.7799 127.326 45.4898 125.127C42.1997 122.929 39.6353 119.804 38.1212 116.148C36.6071 112.492 36.2111 108.469 36.9834 104.588C37.7556 100.707 39.6614 97.1424 42.4597 94.3446C45.258 91.5468 48.8231 89.6417 52.7042 88.8701C56.5853 88.0986 60.6081 88.4953 64.2637 90.0101C67.9193 91.5249 71.0436 94.0897 73.2415 97.3802C75.4394 100.671 76.6122 104.539 76.6114 108.496C76.6058 113.799 74.497 118.883 70.7477 122.633C66.9985 126.383 61.9149 128.492 56.6122 128.499H56.6051Z" fill="url(#paint44_linear_1471_19150)"/>
<path d="M47.037 149.846C46.8749 147.438 45.8039 145.181 44.0409 143.533C42.2779 141.885 39.9545 140.968 37.5409 140.968C35.1273 140.968 32.8039 141.885 31.0409 143.533C29.2779 145.181 28.2069 147.438 28.0448 149.846C27.6291 158.088 34.7709 165.169 36.9425 167.122C37.1115 167.276 37.332 167.361 37.5607 167.361C37.7894 167.361 38.0098 167.276 38.1788 167.122C40.3109 165.169 47.4527 158.095 47.037 149.846Z" fill="url(#paint45_linear_1471_19150)"/>
<path d="M37.5199 157.359C41.3771 157.359 44.504 154.233 44.504 150.375C44.504 146.518 41.3771 143.391 37.5199 143.391C33.6626 143.391 30.5356 146.518 30.5356 150.375C30.5356 154.233 33.6626 157.359 37.5199 157.359Z" fill="url(#paint46_linear_1471_19150)"/>
<path d="M42.3034 149.483L37.7489 145.616C37.6904 145.568 37.6169 145.542 37.541 145.542C37.4651 145.542 37.3917 145.568 37.3332 145.616L32.732 149.465C32.7062 149.485 32.6873 149.513 32.6782 149.544C32.6691 149.576 32.6702 149.609 32.6814 149.64C32.6925 149.67 32.7132 149.697 32.7403 149.715C32.7675 149.733 32.7997 149.742 32.8324 149.741H33.4164V154.228C33.4173 154.309 33.45 154.388 33.5075 154.446C33.565 154.504 33.6429 154.537 33.7247 154.539H36.1686C36.2014 154.54 36.2339 154.534 36.2643 154.521C36.2947 154.509 36.3224 154.491 36.3458 154.468C36.3691 154.445 36.3876 154.418 36.4003 154.387C36.4129 154.357 36.4194 154.325 36.4194 154.292V151.508C36.4194 151.427 36.4515 151.349 36.5087 151.292C36.5658 151.235 36.6432 151.203 36.724 151.203H38.3151C38.3959 151.203 38.4733 151.235 38.5305 151.292C38.5876 151.349 38.6196 151.427 38.6196 151.508V154.299C38.6196 154.365 38.6457 154.428 38.6921 154.474C38.7384 154.52 38.8014 154.546 38.8669 154.546H41.3108C41.3929 154.546 41.4717 154.514 41.53 154.456C41.5884 154.399 41.6216 154.32 41.6226 154.238V149.748H42.2067C42.2365 149.746 42.2653 149.736 42.2892 149.718C42.3132 149.7 42.3315 149.675 42.3417 149.647C42.352 149.619 42.3539 149.589 42.3471 149.559C42.3403 149.53 42.3251 149.504 42.3034 149.483Z" fill="url(#paint47_linear_1471_19150)"/>
<path d="M67.5629 36.2352C67.4008 33.8271 66.3298 31.5706 64.5668 29.9223C62.8037 28.2739 60.4803 27.357 58.0668 27.357C55.6532 27.357 53.3298 28.2739 51.5668 29.9223C49.8038 31.5706 48.7328 33.8271 48.5706 36.2352C48.155 44.4772 55.2968 51.5581 57.4684 53.5111C57.6381 53.6637 57.8582 53.7481 58.0865 53.7481C58.3147 53.7481 58.5349 53.6637 58.7046 53.5111C60.8368 51.5581 67.9786 44.4843 67.5629 36.2352Z" fill="url(#paint48_linear_1471_19150)"/>
<path d="M64.9091 37.8661C65.5231 34.058 62.9338 30.4732 59.1258 29.8592C55.3178 29.2451 51.7329 31.8344 51.1189 35.6424C50.5049 39.4505 53.0941 43.0353 56.9022 43.6493C60.7102 44.2634 64.295 41.6741 64.9091 37.8661Z" fill="url(#paint49_linear_1471_19150)"/>
<path d="M62.8332 35.871L58.2643 32.008C58.2065 31.9583 58.1327 31.931 58.0564 31.931C57.9802 31.931 57.9065 31.9583 57.8487 32.008L53.2654 35.8566C53.2403 35.8773 53.2221 35.9052 53.2134 35.9365C53.2048 35.9679 53.206 36.0011 53.217 36.0317C53.228 36.0623 53.2482 36.0888 53.2749 36.1075C53.3015 36.1262 53.3332 36.1362 53.3658 36.1361H53.9498V40.6262C53.9508 40.7076 53.9836 40.7855 54.0412 40.8431C54.0987 40.9007 54.1766 40.9334 54.258 40.9344H56.7019C56.7347 40.9348 56.7673 40.9288 56.7977 40.9166C56.8281 40.9044 56.8557 40.8862 56.879 40.8632C56.9024 40.8402 56.921 40.8128 56.9336 40.7826C56.9463 40.7523 56.9528 40.7199 56.9528 40.6871V37.8956C56.9537 37.8154 56.9862 37.7389 57.0433 37.6825C57.1003 37.6262 57.1772 37.5946 57.2573 37.5946H58.8484C58.888 37.5941 58.9275 37.6016 58.9642 37.6165C59.0009 37.6315 59.0343 37.6536 59.0624 37.6817C59.0904 37.7097 59.1125 37.7431 59.1274 37.7798C59.1424 37.8166 59.1499 37.8559 59.1494 37.8956V40.6871C59.1489 40.7199 59.155 40.7524 59.1672 40.7828C59.1794 40.8132 59.1975 40.8409 59.2205 40.8643C59.2435 40.8876 59.271 40.9061 59.3012 40.9188C59.3314 40.9314 59.3639 40.938 59.3966 40.9379H61.8406C61.8812 40.9384 61.9215 40.9308 61.9591 40.9155C61.9967 40.9002 62.0308 40.8775 62.0596 40.8488C62.0883 40.82 62.111 40.7859 62.1263 40.7483C62.1416 40.7107 62.1493 40.6704 62.1488 40.6298V36.1433H62.7329C62.7638 36.1418 62.7936 36.1312 62.8185 36.1129C62.8434 36.0946 62.8624 36.0694 62.8731 36.0403C62.8838 36.0113 62.8857 35.9797 62.8786 35.9496C62.8715 35.9195 62.8557 35.8922 62.8332 35.871Z" fill="url(#paint50_linear_1471_19150)"/>
<path d="M115.815 52.8277C103.303 53.7792 91.6129 59.421 83.0836 68.6237C74.5542 77.8264 69.8152 89.9109 69.8152 102.458C69.8152 115.006 74.5542 127.09 83.0836 136.293C91.6129 145.496 103.303 151.138 115.815 152.089V52.8277Z" fill="#FCFBFC"/>
<mask id="mask0_1471_19150" style="mask-type:luminance" maskUnits="userSpaceOnUse" x="69" y="52" width="47" height="101">
<path d="M115.815 52.8268C103.304 53.7783 91.6132 59.4201 83.0838 68.6228C74.5545 77.8255 69.8154 89.9101 69.8154 102.458C69.8154 115.005 74.5545 127.09 83.0838 136.292C91.6132 145.495 103.304 151.137 115.815 152.088V52.8268Z" fill="white"/>
</mask>
<g mask="url(#mask0_1471_19150)">
<path d="M133.169 194.875V180.505L76.2354 174.016L71.344 150.813C78.2024 147.358 83.9677 142.068 87.9984 135.531C92.029 128.995 94.1669 121.468 94.1741 113.789C94.1741 112.56 94.1097 111.348 94.0057 110.144L133.169 101.379V80.4662L95.6971 19.9812L133.169 11.5923V-3.03893L33.4203 19.2895L23.8956 -25.8942H9.3038L22.2543 35.5512L1.79999 25.987V41.7542L25.9238 53.0349L31.2488 78.3054C23.4823 82.9894 17.4687 90.094 14.132 98.5276C10.7953 106.961 10.3203 116.257 12.7797 124.987L1.78564 127.449V142.084L18.8106 138.274L18.6028 137.353C22.8777 143.57 28.7736 148.496 35.6505 151.599C42.5275 154.701 50.1228 155.861 57.6122 154.952L69.9286 213.401H84.5204L79.3244 188.74L133.169 194.875ZM80.9477 23.2923L121.835 89.2958L90.3004 96.3516C86.4069 87.9381 79.803 81.0742 71.546 76.859C63.289 72.6437 53.8564 71.3209 44.7584 73.1022L36.3623 33.2722L80.9477 23.2923ZM52.7101 140.987C47.3329 140.987 42.0764 139.393 37.6054 136.405C33.1345 133.418 29.6498 129.172 27.592 124.204C25.5342 119.236 24.9958 113.769 26.0449 108.495C27.0939 103.221 29.6833 98.3771 33.4855 94.5749C37.2878 90.7726 42.1321 88.1832 47.406 87.1342C52.6799 86.0852 58.1464 86.6236 63.1143 88.6813C68.0822 90.7391 72.3283 94.2238 75.3157 98.6948C78.3031 103.166 79.8977 108.422 79.8977 113.799C79.8826 121.004 77.0129 127.91 71.9172 133.003C66.8215 138.097 59.915 140.964 52.7101 140.976V140.987Z" fill="url(#paint51_linear_1471_19150)"/>
</g>
<path d="M114.94 85.1857H114.904C114.589 79.4737 112.098 74.0996 107.943 70.1676C103.787 66.2356 98.284 64.0444 92.5634 64.0444C86.8428 64.0444 81.3394 66.2356 77.1842 70.1676C73.0291 74.0996 70.5379 79.4737 70.2224 85.1857H70.1865C69.2083 104.583 86.0003 121.21 91.1103 125.804C91.5087 126.164 92.0265 126.363 92.5634 126.363C93.1003 126.363 93.618 126.164 94.0165 125.804C99.1265 121.21 115.919 104.583 114.94 85.1857Z" fill="#4C8CED"/>
<path d="M108.862 89.0594C110.295 80.1032 104.196 71.681 95.2399 70.2481C86.2836 68.8151 77.8615 74.914 76.4286 83.8702C74.9956 92.8265 81.0945 101.249 90.0507 102.682C99.0069 104.114 107.429 98.0156 108.862 89.0594Z" fill="url(#paint52_linear_1471_19150)"/>
<path d="M103.813 84.3292L93.0631 75.2452C92.9265 75.1309 92.7539 75.0682 92.5757 75.0682C92.3976 75.0682 92.225 75.1309 92.0884 75.2452L81.3094 84.2898C81.2415 84.334 81.1906 84.4 81.1651 84.4769C81.1395 84.5538 81.1407 84.6371 81.1686 84.7132C81.1964 84.7893 81.2492 84.8537 81.3184 84.8959C81.3876 84.9381 81.4691 84.9556 81.5495 84.9456H82.9184V95.4952C82.9184 95.6853 82.9938 95.8676 83.1283 96.002C83.2627 96.1364 83.445 96.2119 83.6351 96.2119H89.3686C89.5229 96.2119 89.6709 96.1509 89.7803 96.0421C89.8897 95.9333 89.9517 95.7857 89.9526 95.6314V89.0665C89.9526 88.8764 90.0282 88.6942 90.1626 88.5598C90.297 88.4253 90.4793 88.3498 90.6693 88.3498H94.414C94.6041 88.3498 94.7864 88.4253 94.9208 88.5598C95.0552 88.6942 95.1307 88.8764 95.1307 89.0665V95.6278C95.1302 95.7043 95.145 95.7802 95.1739 95.8511C95.2029 95.9219 95.2455 95.9863 95.2995 96.0406C95.3534 96.0949 95.4176 96.138 95.4883 96.1674C95.5589 96.1968 95.6347 96.2119 95.7113 96.2119H101.445C101.635 96.2119 101.817 96.1364 101.952 96.002C102.086 95.8676 102.161 95.6853 102.161 95.4952L102.183 84.9456H103.555C103.628 84.9475 103.699 84.9275 103.76 84.8883C103.82 84.849 103.868 84.7924 103.895 84.7257C103.923 84.659 103.93 84.5855 103.916 84.5148C103.901 84.444 103.865 84.3793 103.813 84.3292Z" fill="url(#paint53_linear_1471_19150)"/>
<path d="M162.674 117.151L153.621 132.832L192.689 155.388L201.742 139.707L162.674 117.151Z" fill="url(#paint54_linear_1471_19150)"/>
<path style="mix-blend-mode:multiply" d="M182.606 128.409L171.827 122.195L168.244 128.388C167.946 128.947 167.641 129.502 167.323 130.054C167.004 130.606 166.674 131.15 166.341 131.684L162.757 137.877L173.561 144.09C177.258 139.285 180.303 134.013 182.617 128.409H182.606Z" fill="url(#paint55_linear_1471_19150)"/>
<path d="M187.514 134.24L180.84 145.8C179.04 148.918 180.108 152.904 183.226 154.704L227.598 180.323C230.716 182.123 234.702 181.054 236.502 177.937L243.176 166.377C244.976 163.259 243.908 159.273 240.79 157.473L196.419 131.854C193.301 130.054 189.314 131.123 187.514 134.24Z" fill="url(#paint56_linear_1471_19150)"/>
<path d="M57.2431 66.7469C51.1599 77.2808 48.337 89.382 49.1313 101.52C49.9256 113.659 54.3016 125.289 61.7058 134.94C69.11 144.591 79.2099 151.83 90.7283 155.741C102.247 159.652 114.666 160.06 126.416 156.912C138.166 153.765 148.719 147.204 156.74 138.059C164.761 128.914 169.89 117.596 171.479 105.536C173.067 93.4759 171.044 81.2156 165.665 70.3055C160.285 59.3954 151.791 50.3255 141.257 44.2428C134.263 40.2038 126.542 37.5819 118.535 36.5269C110.527 35.4719 102.391 36.0045 94.5892 38.0942C86.7877 40.1839 79.4743 43.7899 73.0664 48.7061C66.6585 53.6224 61.2818 59.7526 57.2431 66.7469ZM153.599 122.387C148.677 130.911 141.338 137.785 132.51 142.138C123.681 146.491 113.761 148.129 104.002 146.843C94.2429 145.558 85.0842 141.408 77.6841 134.918C70.284 128.427 64.9748 119.888 62.4278 110.38C59.8808 100.872 60.2104 90.8226 63.3751 81.5021C66.5397 72.1816 72.3971 64.0088 80.2067 58.0173C88.0163 52.0258 97.4271 48.4847 107.249 47.8418C117.071 47.1989 126.864 49.4831 135.388 54.4055C146.817 61.0058 155.157 71.876 158.572 84.6249C161.987 97.3737 160.198 110.957 153.599 122.387Z" fill="url(#paint57_linear_1471_19150)"/>
<path style="mix-blend-mode:soft-light" d="M145.572 132.572C165.007 113.136 165.007 81.6257 145.572 62.1905C126.136 42.7553 94.6258 42.7553 75.1906 62.1905C55.7554 81.6257 55.7553 113.136 75.1905 132.572C94.6257 152.007 126.136 152.007 145.572 132.572Z" fill="url(#paint58_linear_1471_19150)"/>
<path style="mix-blend-mode:screen" d="M92.5 103C101.613 103 109 95.6127 109 86.5C109 77.3873 101.613 70 92.5 70C83.3873 70 76 77.3873 76 86.5C76 95.6127 83.3873 103 92.5 103Z" fill="url(#paint59_linear_1471_19150)"/>
<line x1="125" y1="207" x2="319.934" y2="207" stroke="url(#paint60_linear_1471_19150)" stroke-width="10"/>
</g>
<defs>
<filter id="filter0_d_1471_19150" x="0" y="0" width="324.827" height="220" filterUnits="userSpaceOnUse" color-interpolation-filters="sRGB">
<feFlood flood-opacity="0" result="BackgroundImageFix"/>
<feColorMatrix in="SourceAlpha" type="matrix" values="0 0 0 0 0 0 0 0 0 0 0 0 0 0 0 0 0 0 127 0" result="hardAlpha"/>
<feOffset dy="4"/>
<feGaussianBlur stdDeviation="2"/>
<feComposite in2="hardAlpha" operator="out"/>
<feColorMatrix type="matrix" values="0 0 0 0 0 0 0 0 0 0 0 0 0 0 0 0 0 0 0.25 0"/>
<feBlend mode="normal" in2="BackgroundImageFix" result="effect1_dropShadow_1471_19150"/>
<feBlend mode="normal" in="SourceGraphic" in2="effect1_dropShadow_1471_19150" result="shape"/>
</filter>
<linearGradient id="paint0_linear_1471_19150" x1="287.955" y1="349.215" x2="277.406" y2="146.119" gradientUnits="userSpaceOnUse">
<stop stop-color="white"/>
<stop offset="1" stop-color="#CFDAF4"/>
</linearGradient>
<linearGradient id="paint1_linear_1471_19150" x1="191.862" y1="109.739" x2="193.202" y2="197.993" gradientUnits="userSpaceOnUse">
<stop stop-color="#8393CE"/>
<stop offset="1" stop-color="#B5BDE1"/>
</linearGradient>
<linearGradient id="paint2_linear_1471_19150" x1="195.779" y1="159.568" x2="193.776" y2="112.102" gradientUnits="userSpaceOnUse">
<stop stop-color="white"/>
<stop offset="1" stop-color="#CFDAF4"/>
</linearGradient>
<linearGradient id="paint3_linear_1471_19150" x1="278.904" y1="204.347" x2="278.237" y2="126.79" gradientUnits="userSpaceOnUse">
<stop stop-color="white"/>
<stop offset="1" stop-color="#CFDAF4"/>
</linearGradient>
<linearGradient id="paint4_linear_1471_19150" x1="208.937" y1="101.358" x2="273.79" y2="38.5119" gradientUnits="userSpaceOnUse">
<stop stop-color="#1D3253"/>
<stop offset="1" stop-color="#334FA8"/>
</linearGradient>
<linearGradient id="paint5_linear_1471_19150" x1="172.243" y1="112.868" x2="241.776" y2="165.684" gradientUnits="userSpaceOnUse">
<stop stop-color="#CFDAF4"/>
<stop offset="1" stop-color="#A0AFDE"/>
</linearGradient>
<linearGradient id="paint6_linear_1471_19150" x1="328.474" y1="123.092" x2="238.941" y2="98.0008" gradientUnits="userSpaceOnUse">
<stop stop-color="white"/>
<stop offset="1" stop-color="#CFDAF4"/>
</linearGradient>
<linearGradient id="paint7_linear_1471_19150" x1="192.289" y1="105.798" x2="193.894" y2="211.843" gradientUnits="userSpaceOnUse">
<stop stop-color="#8393CE"/>
<stop offset="1" stop-color="#B5BDE1"/>
</linearGradient>
<linearGradient id="paint8_linear_1471_19150" x1="184.53" y1="89.8264" x2="268.085" y2="153.293" gradientUnits="userSpaceOnUse">
<stop stop-color="#CFDAF4"/>
<stop offset="1" stop-color="#A0AFDE"/>
</linearGradient>
<linearGradient id="paint9_linear_1471_19150" x1="189.823" y1="162.772" x2="190.027" y2="220.247" gradientUnits="userSpaceOnUse">
<stop stop-color="#424161"/>
<stop offset="1" stop-color="#5B60A3"/>
</linearGradient>
<linearGradient id="paint10_linear_1471_19150" x1="175.446" y1="157.644" x2="181.875" y2="213.205" gradientUnits="userSpaceOnUse">
<stop stop-color="#8393CE"/>
<stop offset="1" stop-color="#5B60A3"/>
</linearGradient>
<linearGradient id="paint11_linear_1471_19150" x1="199.706" y1="146.696" x2="183.864" y2="172.107" gradientUnits="userSpaceOnUse">
<stop stop-color="#8393CE"/>
<stop offset="1" stop-color="#5B60A3"/>
</linearGradient>
<linearGradient id="paint12_linear_1471_19150" x1="185.917" y1="177.671" x2="181.803" y2="185.806" gradientUnits="userSpaceOnUse">
<stop stop-color="#8393CE"/>
<stop offset="1" stop-color="#5B60A3"/>
</linearGradient>
<linearGradient id="paint13_linear_1471_19150" x1="278.27" y1="174.489" x2="278.27" y2="139.819" gradientUnits="userSpaceOnUse">
<stop stop-color="#CFDAF4"/>
<stop offset="1" stop-color="#A0AFDE"/>
</linearGradient>
<linearGradient id="paint14_linear_1471_19150" x1="277.345" y1="203.184" x2="275.532" y2="118.708" gradientUnits="userSpaceOnUse">
<stop stop-color="white"/>
<stop offset="1" stop-color="#CFDAF4"/>
</linearGradient>
<linearGradient id="paint15_linear_1471_19150" x1="279.198" y1="208.646" x2="276.926" y2="102.776" gradientUnits="userSpaceOnUse">
<stop stop-color="white"/>
<stop offset="1" stop-color="#CFDAF4"/>
</linearGradient>
<linearGradient id="paint16_linear_1471_19150" x1="292.829" y1="175.858" x2="294.431" y2="140.865" gradientUnits="userSpaceOnUse">
<stop stop-color="#424161"/>
<stop offset="1" stop-color="#5B60A3"/>
</linearGradient>
<linearGradient id="paint17_linear_1471_19150" x1="292.159" y1="130.387" x2="272.697" y2="151.784" gradientUnits="userSpaceOnUse">
<stop stop-color="#8393CE"/>
<stop offset="1" stop-color="#5B60A3"/>
</linearGradient>
<linearGradient id="paint18_linear_1471_19150" x1="277.402" y1="132.555" x2="278.477" y2="186.949" gradientUnits="userSpaceOnUse">
<stop stop-color="#424161"/>
<stop offset="1" stop-color="#5B60A3"/>
</linearGradient>
<linearGradient id="paint19_linear_1471_19150" x1="300.226" y1="136.967" x2="280.761" y2="158.364" gradientUnits="userSpaceOnUse">
<stop stop-color="#8393CE"/>
<stop offset="1" stop-color="#5B60A3"/>
</linearGradient>
<linearGradient id="paint20_linear_1471_19150" x1="278.037" y1="143.478" x2="278.632" y2="188.054" gradientUnits="userSpaceOnUse">
<stop stop-color="#424161"/>
<stop offset="1" stop-color="#5B60A3"/>
</linearGradient>
<linearGradient id="paint21_linear_1471_19150" x1="278.176" y1="173.776" x2="277.879" y2="188.934" gradientUnits="userSpaceOnUse">
<stop stop-color="#8393CE"/>
<stop offset="1" stop-color="#B5BDE1"/>
</linearGradient>
<linearGradient id="paint22_linear_1471_19150" x1="163.198" y1="174.861" x2="163.198" y2="156.077" gradientUnits="userSpaceOnUse">
<stop stop-color="#CFDAF4"/>
<stop offset="1" stop-color="#A0AFDE"/>
</linearGradient>
<linearGradient id="paint23_linear_1471_19150" x1="161.281" y1="208.947" x2="159.467" y2="124.474" gradientUnits="userSpaceOnUse">
<stop stop-color="white"/>
<stop offset="1" stop-color="#CFDAF4"/>
</linearGradient>
<linearGradient id="paint24_linear_1471_19150" x1="162.614" y1="214.423" x2="160.342" y2="108.55" gradientUnits="userSpaceOnUse">
<stop stop-color="white"/>
<stop offset="1" stop-color="#CFDAF4"/>
</linearGradient>
<linearGradient id="paint25_linear_1471_19150" x1="168.878" y1="175.621" x2="169.748" y2="156.622" gradientUnits="userSpaceOnUse">
<stop stop-color="#424161"/>
<stop offset="1" stop-color="#5B60A3"/>
</linearGradient>
<linearGradient id="paint26_linear_1471_19150" x1="169.007" y1="150.659" x2="157.837" y2="162.936" gradientUnits="userSpaceOnUse">
<stop stop-color="#8393CE"/>
<stop offset="1" stop-color="#5B60A3"/>
</linearGradient>
<linearGradient id="paint27_linear_1471_19150" x1="160.729" y1="152.135" x2="161.313" y2="181.62" gradientUnits="userSpaceOnUse">
<stop stop-color="#424161"/>
<stop offset="1" stop-color="#5B60A3"/>
</linearGradient>
<linearGradient id="paint28_linear_1471_19150" x1="222.462" y1="174.861" x2="222.462" y2="156.077" gradientUnits="userSpaceOnUse">
<stop stop-color="#CFDAF4"/>
<stop offset="1" stop-color="#A0AFDE"/>
</linearGradient>
<linearGradient id="paint29_linear_1471_19150" x1="222.537" y1="208.947" x2="220.723" y2="124.474" gradientUnits="userSpaceOnUse">
<stop stop-color="white"/>
<stop offset="1" stop-color="#CFDAF4"/>
</linearGradient>
<linearGradient id="paint30_linear_1471_19150" x1="223.87" y1="214.423" x2="221.598" y2="108.55" gradientUnits="userSpaceOnUse">
<stop stop-color="white"/>
<stop offset="1" stop-color="#CFDAF4"/>
</linearGradient>
<linearGradient id="paint31_linear_1471_19150" x1="230.134" y1="175.621" x2="231.004" y2="156.622" gradientUnits="userSpaceOnUse">
<stop stop-color="#424161"/>
<stop offset="1" stop-color="#5B60A3"/>
</linearGradient>
<linearGradient id="paint32_linear_1471_19150" x1="230.263" y1="150.659" x2="219.093" y2="162.936" gradientUnits="userSpaceOnUse">
<stop stop-color="#8393CE"/>
<stop offset="1" stop-color="#5B60A3"/>
</linearGradient>
<linearGradient id="paint33_linear_1471_19150" x1="219.985" y1="152.135" x2="220.569" y2="181.62" gradientUnits="userSpaceOnUse">
<stop stop-color="#424161"/>
<stop offset="1" stop-color="#5B60A3"/>
</linearGradient>
<linearGradient id="paint34_linear_1471_19150" x1="210.348" y1="129.719" x2="193.166" y2="151.189" gradientUnits="userSpaceOnUse">
<stop stop-color="#8393CE"/>
<stop offset="1" stop-color="#5B60A3"/>
</linearGradient>
<linearGradient id="paint35_linear_1471_19150" x1="191.867" y1="148.299" x2="191.756" y2="128.096" gradientUnits="userSpaceOnUse">
<stop stop-color="#CFDAF4"/>
<stop offset="1" stop-color="#A0AFDE"/>
</linearGradient>
<linearGradient id="paint36_linear_1471_19150" x1="176.195" y1="158.086" x2="216.167" y2="115.552" gradientUnits="userSpaceOnUse">
<stop stop-color="white"/>
<stop offset="1" stop-color="#CFDAF4"/>
</linearGradient>
<linearGradient id="paint37_linear_1471_19150" x1="179.062" y1="160.908" x2="218.987" y2="118.422" gradientUnits="userSpaceOnUse">
<stop stop-color="white"/>
<stop offset="1" stop-color="#CFDAF4"/>
</linearGradient>
<linearGradient id="paint38_linear_1471_19150" x1="190.389" y1="151.476" x2="191.263" y2="119.286" gradientUnits="userSpaceOnUse">
<stop stop-color="white"/>
<stop offset="1" stop-color="#CFDAF4"/>
</linearGradient>
<linearGradient id="paint39_linear_1471_19150" x1="54.5445" y1="205.898" x2="62.1092" y2="-19.7555" gradientUnits="userSpaceOnUse">
<stop stop-color="#5B60A3"/>
<stop offset="1" stop-color="#424161"/>
</linearGradient>
<linearGradient id="paint40_linear_1471_19150" x1="68.1365" y1="22.2855" x2="66.2444" y2="252.984" gradientUnits="userSpaceOnUse">
<stop stop-color="#8393CE"/>
<stop offset="1" stop-color="#B5BDE1"/>
</linearGradient>
<linearGradient id="paint41_linear_1471_19150" x1="109.78" y1="-18.4654" x2="15.2305" y2="232.401" gradientUnits="userSpaceOnUse">
<stop stop-color="white"/>
<stop offset="1" stop-color="#CFDAF4"/>
</linearGradient>
<linearGradient id="paint42_linear_1471_19150" x1="67.7676" y1="25.4397" x2="67.1369" y2="-10.4879" gradientUnits="userSpaceOnUse">
<stop stop-color="#5B60A3"/>
<stop offset="1" stop-color="#424161"/>
</linearGradient>
<linearGradient id="paint43_linear_1471_19150" x1="67.4841" y1="200.391" x2="67.4841" y2="165.094" gradientUnits="userSpaceOnUse">
<stop stop-color="#5B60A3"/>
<stop offset="1" stop-color="#424161"/>
</linearGradient>
<linearGradient id="paint44_linear_1471_19150" x1="55.4906" y1="205.346" x2="102.764" y2="-186.085" gradientUnits="userSpaceOnUse">
<stop stop-color="#CFDAF4"/>
<stop offset="1" stop-color="#A0AFDE"/>
</linearGradient>
<linearGradient id="paint45_linear_1471_19150" x1="45.5965" y1="141.152" x2="8.01687" y2="190.579" gradientUnits="userSpaceOnUse">
<stop stop-color="#424161"/>
<stop offset="1" stop-color="#5B60A3"/>
</linearGradient>
<linearGradient id="paint46_linear_1471_19150" x1="43.0921" y1="142.732" x2="31.4746" y2="158.675" gradientUnits="userSpaceOnUse">
<stop stop-color="white"/>
<stop offset="1" stop-color="#CFDAF4"/>
</linearGradient>
<linearGradient id="paint47_linear_1471_19150" x1="32.4095" y1="155.74" x2="50.979" y2="140.646" gradientUnits="userSpaceOnUse">
<stop stop-color="#424161"/>
<stop offset="1" stop-color="#5B60A3"/>
</linearGradient>
<linearGradient id="paint48_linear_1471_19150" x1="66.1224" y1="27.5418" x2="28.5392" y2="76.9683" gradientUnits="userSpaceOnUse">
<stop stop-color="#424161"/>
<stop offset="1" stop-color="#5B60A3"/>
</linearGradient>
<linearGradient id="paint49_linear_1471_19150" x1="63.5804" y1="29.143" x2="51.9629" y2="45.0858" gradientUnits="userSpaceOnUse">
<stop stop-color="white"/>
<stop offset="1" stop-color="#CFDAF4"/>
</linearGradient>
<linearGradient id="paint50_linear_1471_19150" x1="52.9321" y1="42.1312" x2="71.5051" y2="27.0342" gradientUnits="userSpaceOnUse">
<stop stop-color="#424161"/>
<stop offset="1" stop-color="#5B60A3"/>
</linearGradient>
<linearGradient id="paint51_linear_1471_19150" x1="51.1835" y1="245.419" x2="115.431" y2="-286.576" gradientUnits="userSpaceOnUse">
<stop stop-color="#CFDAF4"/>
<stop offset="1" stop-color="#A0AFDE"/>
</linearGradient>
<linearGradient id="paint52_linear_1471_19150" x1="105.759" y1="68.4038" x2="78.4463" y2="105.887" gradientUnits="userSpaceOnUse">
<stop stop-color="#C2D6A9"/>
<stop offset="1" stop-color="#F3F3F3"/>
</linearGradient>
<linearGradient id="paint53_linear_1471_19150" x1="80.5461" y1="99.05" x2="124.21" y2="63.556" gradientUnits="userSpaceOnUse">
<stop stop-color="#429F56"/>
<stop offset="1" stop-color="#FADB81"/>
</linearGradient>
<linearGradient id="paint54_linear_1471_19150" x1="189.182" y1="142.907" x2="159.34" y2="125.678" gradientUnits="userSpaceOnUse">
<stop stop-color="white"/>
<stop offset="1" stop-color="#CFDAF4"/>
</linearGradient>
<linearGradient id="paint55_linear_1471_19150" x1="187.232" y1="134.982" x2="178.204" y2="129.793" gradientUnits="userSpaceOnUse">
<stop stop-color="white"/>
<stop offset="1" stop-color="#CFDAF4"/>
</linearGradient>
<linearGradient id="paint56_linear_1471_19150" x1="209.891" y1="169.603" x2="218.16" y2="115.504" gradientUnits="userSpaceOnUse">
<stop stop-color="#81D715"/>
<stop offset="1" stop-color="#1766AF"/>
</linearGradient>
<linearGradient id="paint57_linear_1471_19150" x1="61.4716" y1="157.72" x2="162.751" y2="33.3313" gradientUnits="userSpaceOnUse">
<stop stop-color="#1766AF"/>
<stop offset="1" stop-color="#81D715"/>
</linearGradient>
<linearGradient id="paint58_linear_1471_19150" x1="157.27" y1="68.7813" x2="53.6575" y2="131.786" gradientUnits="userSpaceOnUse">
<stop stop-color="white"/>
<stop offset="1" stop-color="#CFDAF4" stop-opacity="0"/>
</linearGradient>
<linearGradient id="paint59_linear_1471_19150" x1="104.688" y1="82.8381" x2="71.8402" y2="92.8771" gradientUnits="userSpaceOnUse">
<stop stop-color="white" stop-opacity="0.5"/>
<stop offset="1" stop-color="#CFDAF4" stop-opacity="0"/>
</linearGradient>
<linearGradient id="paint60_linear_1471_19150" x1="222.445" y1="202.044" x2="222.543" y2="212.043" gradientUnits="userSpaceOnUse">
<stop stop-color="#334FA8"/>
<stop offset="1" stop-color="#429F56"/>
</linearGradient>
</defs>
</svg>
