<svg width="83" height="29" viewBox="0 0 83 29" fill="none" xmlns="http://www.w3.org/2000/svg">
<path d="M-491 -51.0001C-491 -52.1046 -490.105 -53 -489 -53H1278C1279.1 -53 1280 -52.1046 1280 -51V3185C1280 3186.1 1279.1 3187 1278 3187H-489C-490.105 3187 -491 3186.1 -491 3185V-51.0001Z" fill="#C5C5C5"/>
<path d="M-489 -52H1278V-54H-489V-52ZM1279 -51V3185H1281V-51H1279ZM1278 3186H-489V3188H1278V3186ZM-490 3185V-51.0001H-492V3185H-490ZM-489 3186C-489.552 3186 -490 3185.55 -490 3185H-492C-492 3186.66 -490.657 3188 -489 3188V3186ZM1279 3185C1279 3185.55 1278.55 3186 1278 3186V3188C1279.66 3188 1281 3186.66 1281 3185H1279ZM1278 -52C1278.55 -52 1279 -51.5523 1279 -51H1281C1281 -52.6569 1279.66 -54 1278 -54V-52ZM-489 -54C-490.657 -54 -492 -52.657 -492 -51.0001H-490C-490 -51.5523 -489.552 -52 -489 -52V-54Z" fill="black" fill-opacity="0.1"/>
<mask id="path-3-inside-1_4261_15470" fill="white">
<path fill-rule="evenodd" clip-rule="evenodd" d="M9.75001 0C4.36523 0 0 4.36523 0 9.75001V19.25C0 24.6348 4.36523 29 9.75001 29H34.7235C37.0938 32.9796 40.4844 35.9025 41.5567 36.0003C41.9291 36.0003 43.1244 35.4401 44.8346 33.6557C46.0078 32.4371 47.2659 30.8201 48.3168 29H73.25C78.6348 29 83 24.6348 83 19.25V9.75001C83 4.36523 78.6348 0 73.25 0H9.75001Z"/>
</mask>
<path fill-rule="evenodd" clip-rule="evenodd" d="M9.75001 0C4.36523 0 0 4.36523 0 9.75001V19.25C0 24.6348 4.36523 29 9.75001 29H34.7235C37.0938 32.9796 40.4844 35.9025 41.5567 36.0003C41.9291 36.0003 43.1244 35.4401 44.8346 33.6557C46.0078 32.4371 47.2659 30.8201 48.3168 29H73.25C78.6348 29 83 24.6348 83 19.25V9.75001C83 4.36523 78.6348 0 73.25 0H9.75001Z" fill="#04C95F"/>
<path d="M34.7235 29L36.1196 28.1685L35.6471 27.375H34.7235V29ZM41.5567 36.0003L41.409 37.6186L41.4827 37.6253H41.5567V36.0003ZM44.8346 33.6557L43.664 32.5286L43.6614 32.5313L44.8346 33.6557ZM48.3168 29V27.375H47.3787L46.9096 28.1874L48.3168 29ZM1.625 9.75001C1.625 5.26269 5.26269 1.625 9.75001 1.625V-1.625C3.46776 -1.625 -1.625 3.46777 -1.625 9.75001H1.625ZM1.625 19.25V9.75001H-1.625V19.25H1.625ZM9.75001 27.375C5.26269 27.375 1.625 23.7373 1.625 19.25H-1.625C-1.625 25.5322 3.46776 30.625 9.75001 30.625V27.375ZM34.7235 27.375H9.75001V30.625H34.7235V27.375ZM33.3274 29.8315C34.592 31.9547 36.1241 33.7912 37.4951 35.1219C38.18 35.7867 38.8476 36.3475 39.4453 36.7611C39.7434 36.9674 40.0465 37.1527 40.3429 37.2966C40.6152 37.4287 40.9907 37.5804 41.409 37.6186L41.7043 34.382C41.8546 34.3957 41.8896 34.4347 41.762 34.3728C41.6585 34.3225 41.5023 34.2323 41.2947 34.0887C40.881 33.8023 40.3517 33.3654 39.7587 32.7898C38.5737 31.6397 37.2254 30.0249 36.1196 28.1685L33.3274 29.8315ZM41.5567 37.6253C41.9751 37.6253 42.3588 37.4908 42.6155 37.3828C42.9147 37.2569 43.2382 37.0813 43.579 36.86C44.2627 36.416 45.084 35.7439 46.0078 34.78L43.6614 32.5313C42.8749 33.3519 42.2435 33.8521 41.8089 34.1343C41.5906 34.2761 41.4385 34.3521 41.3554 34.387C41.2299 34.4398 41.3244 34.3753 41.5567 34.3753V37.6253ZM46.0052 34.7827C47.2666 33.4727 48.6051 31.7506 49.7241 29.8126L46.9096 28.1874C45.9268 29.8895 44.7491 31.4016 43.664 32.5286L46.0052 34.7827ZM73.25 27.375H48.3168V30.625H73.25V27.375ZM81.375 19.25C81.375 23.7373 77.7373 27.375 73.25 27.375V30.625C79.5322 30.625 84.625 25.5322 84.625 19.25H81.375ZM81.375 9.75001V19.25H84.625V9.75001H81.375ZM73.25 1.625C77.7373 1.625 81.375 5.26269 81.375 9.75001H84.625C84.625 3.46777 79.5322 -1.625 73.25 -1.625V1.625ZM9.75001 1.625H73.25V-1.625H9.75001V1.625Z" fill="white" mask="url(#path-3-inside-1_4261_15470)"/>
</svg>
