<svg width="22" height="21" viewBox="0 0 22 21" fill="none" xmlns="http://www.w3.org/2000/svg">
<path fill-rule="evenodd" clip-rule="evenodd" d="M18.117 4.06357H3.88394C3.32246 4.06357 2.86729 4.51874 2.86729 5.08022V17.28C2.86729 17.8415 3.32246 18.2967 3.88394 18.2967H18.117C18.6785 18.2967 19.1337 17.8415 19.1337 17.28V5.08022C19.1337 4.51874 18.6785 4.06357 18.117 4.06357ZM3.88394 2.03027C2.19949 2.03027 0.833984 3.39578 0.833984 5.08022V17.28C0.833984 18.9645 2.19949 20.33 3.88394 20.33H18.117C19.8015 20.33 21.167 18.9645 21.167 17.28V5.08022C21.167 3.39578 19.8015 2.03027 18.117 2.03027H3.88394Z" fill="#636363"/>
<path fill-rule="evenodd" clip-rule="evenodd" d="M8.96504 10.165C8.40356 10.165 7.94839 10.6202 7.94839 11.1817C7.94839 11.7432 8.40356 12.1983 8.96504 12.1983H16.0816C16.6431 12.1983 17.0982 11.7432 17.0982 11.1817C17.0982 10.6202 16.6431 10.165 16.0816 10.165H8.96504ZM5.91509 14.2316C5.35361 14.2316 4.89844 14.6868 4.89844 15.2483C4.89844 15.8098 5.35361 16.2649 5.91509 16.2649H12.015C12.5765 16.2649 13.0316 15.8098 13.0316 15.2483C13.0316 14.6868 12.5765 14.2316 12.015 14.2316H5.91509Z" fill="#A6A6A6"/>
<path fill-rule="evenodd" clip-rule="evenodd" d="M5.91509 0C5.35361 0 4.89844 0.45517 4.89844 1.01665V5.08325C4.89844 5.64473 5.35361 6.0999 5.91509 6.0999C6.47657 6.0999 6.93174 5.64473 6.93174 5.08325V1.01665C6.93174 0.45517 6.47657 0 5.91509 0ZM16.0816 0C15.5201 0 15.0649 0.45517 15.0649 1.01665V5.08325C15.0649 5.64473 15.5201 6.0999 16.0816 6.0999C16.6431 6.0999 17.0982 5.64473 17.0982 5.08325V1.01665C17.0982 0.45517 16.6431 0 16.0816 0Z" fill="#636363"/>
</svg>
