<svg width="26" height="25" viewBox="0 0 26 25" fill="none" xmlns="http://www.w3.org/2000/svg">
<path fill-rule="evenodd" clip-rule="evenodd" d="M6.69582 1.47246C5.3905 1.64004 4.19085 2.27728 3.32118 3.26511C2.45083 4.25372 1.97066 5.52569 1.97059 6.84284C1.97059 11.2684 3.72864 15.5127 6.85799 18.642C9.98732 21.7714 14.2316 23.5294 18.6572 23.5294M6.69582 1.47246C6.75683 1.46545 6.81849 1.47827 6.87168 1.50903C6.92538 1.54008 6.96753 1.58775 6.99179 1.64484L9.56635 7.65217C9.58515 7.69605 9.59282 7.7439 9.58866 7.79146C9.58449 7.83902 9.56863 7.88482 9.54249 7.92476L7.4135 11.1778L7.41225 11.1797C7.24579 11.4318 7.14738 11.7227 7.1266 12.0241C7.10576 12.3262 7.16366 12.6286 7.29464 12.9017L7.29711 12.9068C8.43249 15.228 10.314 17.101 12.6404 18.2258L12.6456 18.2283C12.9203 18.3585 13.2242 18.4149 13.5274 18.392C13.8299 18.3691 14.1212 18.268 14.3728 18.0987L14.3746 18.0975L17.5784 15.9611C17.6185 15.9344 17.6646 15.9181 17.7125 15.9137C17.7605 15.9093 17.8088 15.9169 17.8531 15.9359L23.853 18.5073L23.8552 18.5082C23.9123 18.5325 23.9599 18.5746 23.991 18.6283C24.0217 18.6815 24.0345 18.7431 24.0275 18.8041C23.86 20.1095 23.2227 21.3091 22.2349 22.1788C21.2463 23.0492 19.9743 23.5293 18.6572 23.5294M6.51739 0.0127261C6.89549 -0.0330301 7.27822 0.0453305 7.60791 0.236003C7.93723 0.426459 8.19582 0.718667 8.34481 1.06868L8.34531 1.06987L10.918 7.07287C11.0324 7.33965 11.079 7.63056 11.0536 7.91969C11.0283 8.20883 10.9319 8.48722 10.773 8.73008L8.63965 11.9897C8.61288 12.0301 8.59704 12.0768 8.5937 12.1252C8.59041 12.1729 8.59939 12.2207 8.61976 12.264C9.61008 14.2867 11.2499 15.9191 13.2772 16.9002C13.3207 16.9205 13.3686 16.9292 13.4165 16.9256C13.465 16.9219 13.5117 16.9056 13.5521 16.8784L13.5554 16.8762L16.7625 14.7376C17.0061 14.5752 17.2864 14.4761 17.578 14.4493C17.8696 14.4225 18.1632 14.4689 18.4323 14.5842L24.4301 17.1547C24.7803 17.3036 25.0735 17.5626 25.264 17.8921C25.4547 18.2218 25.533 18.6045 25.4873 18.9826L25.4867 18.9875C25.2744 20.6488 24.4638 22.1759 23.2066 23.2826C21.9495 24.3893 20.3321 24.9999 18.6572 25C13.8417 25 9.22326 23.087 5.81812 19.6819C2.41299 16.2767 0.5 11.6584 0.5 6.8428C0.500088 5.16792 1.11066 3.55047 2.2174 2.29336C3.32414 1.03625 4.85115 0.225647 6.51252 0.0133321L6.51739 0.0127261ZM15.8229 1.52774C15.9283 1.13558 16.3317 0.903175 16.7239 1.00864C18.5856 1.50934 20.2831 2.49043 21.6463 3.85366C23.0096 5.21688 23.9907 6.91437 24.4914 8.7761C24.5968 9.16826 24.3644 9.57166 23.9723 9.67713C23.5801 9.7826 23.1767 9.55019 23.0712 9.15803C22.6375 7.54514 21.7875 6.07453 20.6065 4.89352C19.4255 3.7125 17.9549 2.86254 16.342 2.42877C15.9498 2.3233 15.7174 1.9199 15.8229 1.52774ZM14.7616 5.48832C14.8671 5.09616 15.2705 4.86375 15.6627 4.96922C16.8295 5.28302 17.8933 5.8979 18.7477 6.75228C19.6021 7.60665 20.217 8.67053 20.5308 9.83734C20.6362 10.2295 20.4038 10.6329 20.0117 10.7384C19.6195 10.8438 19.2161 10.6114 19.1107 10.2193C18.8638 9.3013 18.38 8.46431 17.7079 7.79214C17.0357 7.11997 16.1987 6.63622 15.2807 6.38934C14.8886 6.28388 14.6562 5.88047 14.7616 5.48832Z" fill="#636363"/>
</svg>
