<svg width="12" height="13" viewBox="0 0 12 13" fill="none" xmlns="http://www.w3.org/2000/svg">
<path fill-rule="evenodd" clip-rule="evenodd" d="M2.97399 1.20678C2.34744 1.28722 1.77161 1.59309 1.35417 2.06725C0.936396 2.54179 0.705916 3.15233 0.705882 3.78456C0.705882 5.90883 1.54975 7.94608 3.05183 9.44817C4.55392 10.9502 6.59117 11.7941 8.71544 11.7941M2.97399 1.20678C3.00328 1.20342 3.03288 1.20957 3.05841 1.22433C3.08418 1.23924 3.10442 1.26212 3.11606 1.28953L4.35185 4.17304C4.36087 4.1941 4.36455 4.21707 4.36255 4.2399C4.36056 4.26273 4.35294 4.28471 4.34039 4.30389L3.31848 5.86534L3.31788 5.86625C3.23798 5.98725 3.19074 6.12688 3.18077 6.27155C3.17077 6.41659 3.19856 6.56174 3.26143 6.69282L3.26261 6.69527C3.8076 7.80945 4.71074 8.70848 5.82738 9.24839L5.82988 9.24958C5.96176 9.31207 6.10764 9.33915 6.25316 9.32814C6.39833 9.31715 6.53816 9.26865 6.65894 9.18737L6.6598 9.18679L8.19762 8.16134C8.21686 8.14852 8.23899 8.14069 8.26201 8.13858C8.28503 8.13646 8.30822 8.14012 8.32947 8.14923L11.2094 9.3835L11.2105 9.38394C11.2379 9.39559 11.2608 9.41582 11.2757 9.44159C11.2904 9.46712 11.2966 9.49671 11.2932 9.52599C11.2128 10.1525 10.9069 10.7284 10.4327 11.1458C9.95822 11.5636 9.34766 11.7941 8.71544 11.7941M2.88835 0.506109C3.06983 0.484146 3.25354 0.521759 3.4118 0.613281C3.56987 0.7047 3.69399 0.84496 3.76551 1.01297L3.76575 1.01354L5.00065 3.89498C5.05553 4.02303 5.0779 4.16267 5.06575 4.30145C5.0536 4.44024 5.00732 4.57387 4.93103 4.69044L3.90703 6.25506C3.89418 6.27447 3.88658 6.29688 3.88498 6.3201C3.8834 6.34301 3.88771 6.36594 3.89748 6.3867C4.37284 7.35763 5.15996 8.14118 6.13305 8.61211C6.15392 8.62182 6.17694 8.626 6.1999 8.62427C6.2232 8.62251 6.24563 8.61471 6.26499 8.60164L6.26659 8.60057L7.80601 7.57405C7.92294 7.49608 8.05748 7.44851 8.19744 7.43565C8.33739 7.4228 8.47835 7.44506 8.60753 7.50042L11.4865 8.73425C11.6545 8.80575 11.7953 8.93007 11.8867 9.0882C11.9782 9.24645 12.0159 9.43016 11.9939 9.61165L11.9936 9.61399C11.8917 10.4114 11.5026 11.1444 10.8992 11.6756C10.2958 12.2069 9.51942 12.5 8.71548 12.5C6.40399 12.5 4.18716 11.5818 2.5527 9.9473C0.918233 8.31284 0 6.09603 0 3.78454C4.22702e-05 2.9806 0.293119 2.20423 0.824354 1.60081C1.35559 0.997399 2.08855 0.60831 2.88601 0.506399L2.88835 0.506109ZM7.35498 1.23332C7.40561 1.04508 7.59924 0.933524 7.78747 0.984148C8.68111 1.22448 9.4959 1.69541 10.1502 2.34975C10.8046 3.0041 11.2755 3.8189 11.5159 4.71253C11.5665 4.90076 11.4549 5.0944 11.2667 5.14502C11.0784 5.19565 10.8848 5.08409 10.8342 4.89585C10.626 4.12167 10.218 3.41578 9.65111 2.84889C9.08423 2.282 8.37834 1.87402 7.60415 1.66581C7.41591 1.61518 7.30436 1.42155 7.35498 1.23332ZM6.84559 3.13439C6.89621 2.94616 7.08984 2.8346 7.27808 2.88522C7.83815 3.03585 8.34881 3.33099 8.75891 3.74109C9.16901 4.15119 9.46415 4.66185 9.61477 5.22192C9.6654 5.41016 9.55384 5.60379 9.36561 5.65441C9.17737 5.70504 8.98374 5.59348 8.93312 5.40525C8.81461 4.96462 8.58241 4.56287 8.25977 4.24023C7.93713 3.91759 7.53538 3.68539 7.09475 3.56688C6.90652 3.51626 6.79496 3.32263 6.84559 3.13439Z" fill="#636363"/>
</svg>
