<svg width="28" height="28" viewBox="0 0 28 28" fill="none" xmlns="http://www.w3.org/2000/svg">
<path fill-rule="evenodd" clip-rule="evenodd" d="M3.19111 6.77904C-0.38826 12.1359 0.496291 19.3063 5.27022 23.6328C10.0441 27.9593 17.2669 28.1363 22.2471 24.0489C27.2272 19.9615 28.462 12.8431 25.1494 7.31723C21.8368 1.79142 14.9763 -0.474349 9.02415 1.99164C6.6492 2.97559 4.61931 4.6416 3.19111 6.77904Z" stroke="#00BD61" stroke-width="2" stroke-linecap="round" stroke-linejoin="round"/>
<path fill-rule="evenodd" clip-rule="evenodd" d="M8.31504 8.76588C9.13215 7.90423 9.42928 7.66281 9.76912 7.55139C10.0121 7.48687 10.2672 7.48304 10.512 7.54025C10.8314 7.6331 10.9149 7.70367 11.9623 8.74731C12.8909 9.66468 12.9744 9.7631 13.0617 9.94323C13.2309 10.2583 13.2573 10.6307 13.1341 10.9664C13.0431 11.2209 12.9094 11.3899 12.3523 11.9507L11.9809 12.3221C11.8827 12.4202 11.8601 12.5709 11.9252 12.6935C12.7364 14.0743 13.8871 15.2249 15.2679 16.0361C15.4267 16.1205 15.6218 16.0927 15.7507 15.9674L16.1017 15.622C16.3169 15.3965 16.545 15.1838 16.7851 14.985C17.1611 14.7553 17.6286 14.7343 18.0238 14.9293C18.2095 15.0203 18.2819 15.0797 19.2327 16.0268C20.2114 17.0018 20.2393 17.0333 20.347 17.2562C20.5515 17.6259 20.5515 18.0749 20.347 18.4447C20.2411 18.6527 20.178 18.7288 19.6264 19.2915C19.294 19.6313 18.982 19.9451 18.9319 19.9878C18.4777 20.3639 17.8949 20.5484 17.307 20.5022C16.2317 20.4044 15.1909 20.0722 14.2577 19.5292C12.1899 18.4337 10.4297 16.8376 9.13772 14.8866C8.85832 14.4787 8.61001 14.0504 8.3949 13.6053C7.81325 12.6084 7.51288 11.4724 7.52579 10.3184C7.56591 9.71482 7.85105 9.15393 8.31504 8.76588Z" stroke="#00BD61" stroke-width="2" stroke-linecap="round" stroke-linejoin="round"/>
</svg>
