<svg width="380" height="366" viewBox="0 0 380 366" fill="none" xmlns="http://www.w3.org/2000/svg">
<g filter="url(#filter0_d_4261_40415)">
<rect x="4" y="4" width="372" height="358" rx="15" fill="white" shape-rendering="crispEdges"/>
<path d="M28.8359 38.4062V35.5234H31.6719V38.4062H28.8359ZM25.5078 38.4062V35.5234H28.3555V38.4062H25.5078ZM35.9609 45.4961C35.3672 45.9883 34.4141 46.2344 33.1016 46.2344H24.4766C23.4453 46.2344 22.5586 45.9766 21.8164 45.4609C20.9414 44.8594 20.5039 44.0312 20.5039 42.9766C20.5039 42.6406 20.5625 42.2031 20.6797 41.6641C20.7422 41.3906 20.8242 40.8984 20.9258 40.1875L24.1367 40.7266C23.9258 41.7422 23.8203 42.2617 23.8203 42.2852C23.8203 42.7852 24.4297 43.0352 25.6484 43.0352H31.9648C33.1367 43.0352 33.7227 42.7578 33.7227 42.2031C33.7227 42.0703 33.6211 41.5781 33.418 40.7266L36.5703 40.1641C36.6016 40.3594 36.6562 40.8242 36.7344 41.5586C36.7812 41.9336 36.8438 42.2109 36.9219 42.3906C37.1094 42.8281 37.6992 43.043 38.6914 43.0352V46.2344C37.3164 46.2422 36.4062 45.9961 35.9609 45.4961ZM44.3398 46.2344C43.3711 46.2344 42.5664 45.9805 41.9258 45.4727C41.2227 45.9805 40.2383 46.2344 38.9727 46.2344H37.7773V43.0234C39.2773 43.0703 40.0273 42.9102 40.0273 42.543C40.0273 42.3945 39.9102 41.7617 39.6758 40.6445L42.5703 39.9062C42.5938 40.0391 42.6914 40.6133 42.8633 41.6289C42.9336 42.043 43.0156 42.332 43.1094 42.4961C43.3281 42.8555 44.0781 43.0352 45.3594 43.0352V46.2344H44.3398ZM41.3984 51.1562V48.3086H44.0586V51.1562H41.3984ZM38.4453 51.1562V48.3086H41.0938V51.1562H38.4453ZM45.3125 46.2344H44.5039V43.0352C45.7695 43.0586 46.4023 42.7422 46.4023 42.0859C46.4023 41.0625 46.2773 39.8438 46.0273 38.4297C45.8008 37.2266 45.5742 36.0234 45.3477 34.8203L48.2422 34.3047C48.5156 35.7891 48.7891 37.2734 49.0625 38.7578C49.3672 40.5078 49.5195 42.0117 49.5195 43.2695C49.5195 44.3477 49.0078 45.1445 47.9844 45.6602C47.2344 46.043 46.3438 46.2344 45.3125 46.2344ZM54.7109 46.2344C54.3594 46.2344 53.1914 46.1055 51.207 45.8477V34.3633H54.1016V42.9883C54.2656 43.0195 54.7617 43.0352 55.5898 43.0352V46.2344H54.7109ZM63.5117 46.2344H62.375C60.9297 46.2344 59.8672 45.8359 59.1875 45.0391C58.3359 45.8359 57.2188 46.2344 55.8359 46.2344H54.6758V43.0352C56.1914 43.0352 57.2266 42.8555 57.7812 42.4961C57.1797 41.9414 56.4141 41.582 55.4844 41.418L55.7188 38.9688C59.1562 38.9531 61.5 39.0391 62.75 39.2266C62.75 40.6875 62.2695 41.8594 61.3086 42.7422C61.7383 42.9453 62.4805 43.043 63.5352 43.0352L63.5117 46.2344ZM65.7617 35.0312V32.0898H68.5039V35.0312H65.7617ZM65.7734 43.0352C64.0938 42.6133 63.2539 41.6914 63.2539 40.2695C63.2539 39.3164 63.7344 38.2734 64.6953 37.1406C65.6562 36.0078 66.5898 35.4414 67.4961 35.4414C68.3477 35.4414 69.0039 35.7695 69.4648 36.4258C69.8789 37.0117 70.0859 37.7539 70.0859 38.6523V42.0156C70.0859 43.5547 69.8633 44.6172 69.418 45.2031C68.9102 45.8906 67.9375 46.2344 66.5 46.2344H62.5742V43.0352H65.7734ZM67.4844 38.9219C67.4844 38.625 67.4727 38.4492 67.4492 38.3945C67.1758 38.543 66.8672 38.8008 66.5234 39.168C66.1797 39.5352 65.9414 39.8594 65.8086 40.1406C65.9102 40.2734 66.4688 40.4375 67.4844 40.6328V38.9219ZM83.3047 41.9336V38.9922H86.1289V41.9336H83.3047ZM87.5234 49.8789C85.5625 50.5508 84.0391 50.8867 82.9531 50.8867C81.5234 50.8867 80.3438 50.4375 79.4141 49.5391C78.4609 48.6172 77.9844 47.4219 77.9844 45.9531C77.9844 45.0078 78.1602 43.9219 78.5117 42.6953C78.8555 41.6484 79.1992 40.6016 79.543 39.5547L82.543 40.3164C82.2695 41.1836 81.9961 42.0508 81.7227 42.918C81.4414 43.9414 81.3008 44.8398 81.3008 45.6133C81.3008 46.2148 81.5039 46.6992 81.9102 47.0664C82.3164 47.4336 82.8281 47.6172 83.4453 47.6172C84.1641 47.6172 85.0469 47.4453 86.0938 47.1016C86.9531 46.7812 87.8125 46.4609 88.6719 46.1406L87.1602 39.8008L90.1367 39.1797L92.1523 48.1445C91.1523 48.5352 89.6094 49.1133 87.5234 49.8789ZM94.7891 46.2344V34.3867H97.4961V46.2344H94.7891ZM101.691 39.2031V36.2852H104.434V39.2031H101.691ZM107.773 46.2344C107.32 46.2344 106.965 46.1641 106.707 46.0234C106.73 47 106.379 47.8945 105.652 48.707C105.105 49.332 104.289 49.9492 103.203 50.5586C102.344 50.9961 101.484 51.4375 100.625 51.8828L99.2539 49.1055C101.043 48.2148 101.98 47.7461 102.066 47.6992C103.238 46.957 103.824 46.1758 103.824 45.3555C103.824 44.8633 103.707 44.293 103.473 43.6445C103.254 43.1055 103.035 42.5625 102.816 42.0156L105.652 40.9492C105.77 41.2539 105.887 41.5625 106.004 41.875C106.184 42.3125 106.348 42.5977 106.496 42.7305C106.73 42.9414 107.336 43.043 108.312 43.0352V46.2344H107.773ZM113.973 46.2344C113.004 46.2344 112.199 45.9805 111.559 45.4727C110.855 45.9805 109.871 46.2344 108.605 46.2344H107.41V43.0234C108.91 43.0703 109.66 42.9102 109.66 42.543C109.66 42.3945 109.543 41.7617 109.309 40.6445L112.203 39.9062C112.227 40.0391 112.324 40.6133 112.496 41.6289C112.566 42.043 112.648 42.332 112.742 42.4961C112.961 42.8555 113.711 43.0352 114.992 43.0352V46.2344H113.973ZM111.031 51.1562V48.3086H113.691V51.1562H111.031ZM108.078 51.1562V48.3086H110.727V51.1562H108.078ZM120.383 46.9492C119.852 46.9492 119.277 46.7539 118.66 46.3633C118.457 46.2305 117.957 45.8477 117.16 45.2148C116.77 45.668 116.305 45.9648 115.766 46.1055C115.398 46.1992 114.848 46.2422 114.113 46.2344V43.0352C114.582 43.0352 114.902 43.0117 115.074 42.9648C115.34 42.8867 115.609 42.6914 115.883 42.3789C116.086 42.1445 116.438 41.6094 116.938 40.7734C117.406 39.9922 117.824 39.4297 118.191 39.0859C118.77 38.5469 119.43 38.2773 120.172 38.2773C121.156 38.2773 121.934 39.0156 122.504 40.4922C122.941 41.6406 123.16 42.8438 123.16 44.1016C123.16 44.8906 122.883 45.5625 122.328 46.1172C121.781 46.6719 121.133 46.9492 120.383 46.9492ZM119.902 41.3711C119.629 41.5039 119.23 42.0312 118.707 42.9531C119.387 43.4219 119.961 43.7852 120.43 44.043C120.492 44.0195 120.523 43.9648 120.523 43.8789C120.523 43.5117 120.473 43.0664 120.371 42.543C120.246 41.8477 120.09 41.457 119.902 41.3711Z" fill="#303030"/>
<path d="M21.747 96.6574C21.747 96.069 21.7429 95.4725 21.7348 94.8678C21.7307 94.2632 21.7145 93.6646 21.6861 93.0722C21.6577 92.4757 21.6151 91.8933 21.5583 91.3252C21.5055 90.7571 21.4304 90.2113 21.333 89.6878C21.2397 89.1603 21.122 88.6652 20.98 88.2026C20.838 87.7359 20.6635 87.3119 20.4565 86.9304L22.167 85.8652C22.3983 86.2264 22.591 86.6058 22.7452 87.0035C22.8994 87.4012 23.0293 87.813 23.1348 88.2391C23.2403 88.6612 23.3275 89.0974 23.3965 89.5478C23.4696 89.9983 23.5365 90.4548 23.5974 90.9174C23.642 91.2786 23.6765 91.6661 23.7009 92.08C23.7293 92.4939 23.7516 92.9159 23.7678 93.3461C23.7841 93.7722 23.7942 94.1962 23.7983 94.6183C23.8023 95.0362 23.8043 95.4278 23.8043 95.793V96.0791V96.6574H21.747ZM30.2617 92.0009C29.9411 92.0009 29.6267 91.9725 29.3183 91.9157C29.0098 91.8548 28.7156 91.7554 28.4356 91.6174C28.4884 92.0962 28.529 92.5588 28.5574 93.0052C28.5898 93.4516 28.6142 93.8858 28.6304 94.3078C28.6507 94.7299 28.6629 95.1417 28.6669 95.5435C28.671 95.9412 28.673 96.3368 28.673 96.7304H26.6217C26.6217 95.8296 26.6035 94.9388 26.5669 94.0583C26.5304 93.1736 26.4554 92.3255 26.3417 91.5139C26.2281 90.7023 26.0617 89.9394 25.8426 89.2252C25.6275 88.507 25.3374 87.8617 24.9722 87.2896L26.7069 86.2C26.849 86.4394 26.9829 86.6667 27.1087 86.8817C27.2345 87.0928 27.344 87.3017 27.4374 87.5087C27.5754 87.3139 27.7356 87.1333 27.9183 86.967C28.1049 86.8006 28.3058 86.6586 28.5209 86.5409C28.7359 86.4191 28.9611 86.3217 29.1965 86.2487C29.4319 86.1716 29.6693 86.1229 29.9087 86.1026C29.9696 86.0986 30.0385 86.0965 30.1156 86.0965C30.1968 86.0965 30.2698 86.0965 30.3348 86.0965C30.5255 86.0965 30.7183 86.1067 30.913 86.127C31.1078 86.1472 31.3026 86.1878 31.4974 86.2487C31.6962 86.3096 31.893 86.3988 32.0878 86.5165C32.2826 86.6301 32.4733 86.7803 32.66 86.967L31.5887 88.653C31.5887 88.649 31.538 88.6206 31.4365 88.5678C31.3391 88.5151 31.2133 88.4562 31.0591 88.3913C30.909 88.3264 30.7406 88.2696 30.5539 88.2209C30.3672 88.1722 30.1867 88.1499 30.0122 88.1539C29.9148 88.1661 29.8052 88.1925 29.6835 88.233C29.5617 88.2696 29.44 88.3162 29.3183 88.373C29.1965 88.4258 29.0788 88.4887 28.9652 88.5617C28.8516 88.6348 28.7522 88.7099 28.6669 88.787C28.5858 88.8641 28.5209 88.9452 28.4722 89.0304C28.4275 89.1157 28.4133 89.1988 28.4296 89.28V89.2739C28.4539 89.4119 28.531 89.5275 28.6609 89.6209C28.7948 89.7101 28.951 89.7812 29.1296 89.8339C29.3122 89.8867 29.5009 89.9232 29.6956 89.9435C29.8945 89.9638 30.0751 89.9739 30.2374 89.9739C30.3916 89.9739 30.56 89.9617 30.7426 89.9374C30.9252 89.913 31.1119 89.8765 31.3026 89.8278C31.4933 89.7791 31.68 89.7183 31.8626 89.6452C32.0452 89.5681 32.2156 89.4809 32.3739 89.3835L33.2322 90.9904C32.7087 91.3759 32.1974 91.6417 31.6983 91.7878C31.1991 91.9299 30.7203 92.0009 30.2617 92.0009ZM35.8023 93.2548C35.8023 93.3928 35.8267 93.5226 35.8754 93.6443C35.9281 93.762 35.9991 93.8675 36.0884 93.9609C36.1817 94.0501 36.2872 94.1212 36.4049 94.1739C36.5267 94.2226 36.6565 94.247 36.7945 94.247C36.9365 94.247 37.0684 94.2226 37.1901 94.1739C37.3119 94.1212 37.4174 94.0501 37.5067 93.9609C37.6 93.8675 37.673 93.762 37.7258 93.6443C37.7826 93.5226 37.811 93.3928 37.811 93.2548C37.811 93.1128 37.7826 92.9809 37.7258 92.8591C37.673 92.7374 37.6 92.6319 37.5067 92.5426C37.4174 92.4493 37.3119 92.3762 37.1901 92.3235C37.0684 92.2667 36.9365 92.2383 36.7945 92.2383C36.6565 92.2383 36.5267 92.2667 36.4049 92.3235C36.2872 92.3762 36.1817 92.4493 36.0884 92.5426C35.9991 92.6319 35.9281 92.7374 35.8754 92.8591C35.8267 92.9809 35.8023 93.1128 35.8023 93.2548ZM34.2927 93.2548C34.2927 92.9099 34.3577 92.5852 34.4875 92.2809C34.6214 91.9725 34.8 91.7046 35.0232 91.4774C35.2504 91.2501 35.5162 91.0696 35.8206 90.9357C36.1249 90.8017 36.4496 90.7348 36.7945 90.7348C37.1394 90.7348 37.464 90.8017 37.7684 90.9357C38.0768 91.0696 38.3446 91.2501 38.5719 91.4774C38.7991 91.7046 38.9797 91.9725 39.1136 92.2809C39.2475 92.5852 39.3145 92.9099 39.3145 93.2548C39.3145 93.5997 39.2475 93.9243 39.1136 94.2287C38.9797 94.533 38.7991 94.7988 38.5719 95.0261C38.3446 95.2493 38.0768 95.4278 37.7684 95.5617C37.464 95.6916 37.1394 95.7565 36.7945 95.7565C36.4496 95.7565 36.1249 95.6916 35.8206 95.5617C35.5162 95.4278 35.2504 95.2493 35.0232 95.0261C34.8 94.7988 34.6214 94.533 34.4875 94.2287C34.3577 93.9243 34.2927 93.5997 34.2927 93.2548ZM46.7147 86.0113C46.7633 86.3319 46.8019 86.6261 46.8303 86.8939C46.8587 87.1617 46.8729 87.4093 46.8729 87.6365C46.8729 88.0788 46.8141 88.509 46.6964 88.927C46.5787 89.3409 46.3596 89.7507 46.039 90.1565C45.7712 90.473 45.4567 90.7104 45.0955 90.8687C44.7384 91.027 44.3407 91.1061 43.9025 91.1061C43.7889 91.1061 43.6773 91.1041 43.5677 91.1C43.4581 91.0919 43.3526 91.0777 43.2512 91.0574C43.3039 91.52 43.3445 91.9988 43.3729 92.4939C43.4013 92.989 43.4216 93.4861 43.4338 93.9852C43.45 94.4803 43.4581 94.9672 43.4581 95.4461C43.4622 95.9249 43.4642 96.3733 43.4642 96.7913H41.4068C41.4068 96.0406 41.3987 95.2858 41.3825 94.527C41.3662 93.7681 41.3297 93.0336 41.2729 92.3235C41.2202 91.6133 41.139 90.9417 41.0294 90.3087C40.9239 89.6757 40.7819 89.1096 40.6033 88.6104V88.6165L40.4573 88.2635L40.4147 88.1539H40.4207L40.3964 88.093V88.0991C40.3518 87.9896 40.297 87.8658 40.232 87.7278C40.1712 87.5858 40.0718 87.3951 39.9338 87.1557L41.6625 86.06C41.7558 86.2061 41.8349 86.338 41.8999 86.4557C41.9648 86.5733 42.0216 86.6829 42.0703 86.7843C42.119 86.8858 42.1616 86.9812 42.1981 87.0704C42.2387 87.1557 42.2773 87.2409 42.3138 87.3261L42.4903 87.7643C42.5715 87.951 42.6567 88.1255 42.746 88.2878C42.8352 88.4501 42.9347 88.5901 43.0442 88.7078C43.1538 88.8214 43.2776 88.9107 43.4155 88.9757C43.5576 89.0406 43.7199 89.071 43.9025 89.067C44.1378 89.0588 44.3164 89.0041 44.4381 88.9026C44.5599 88.8012 44.6491 88.6733 44.706 88.5191C44.7628 88.3649 44.7932 88.1925 44.7973 88.0017C44.8054 87.811 44.8094 87.6264 44.8094 87.4478C44.8094 87.2814 44.7993 87.1171 44.779 86.9548C44.7587 86.7884 44.7303 86.5936 44.6938 86.3704L46.7147 86.0113ZM96.5623 86.0113C96.611 86.3319 96.6496 86.6261 96.678 86.8939C96.7064 87.1617 96.7206 87.4093 96.7206 87.6365C96.7206 88.0788 96.6617 88.509 96.544 88.927C96.4264 89.3409 96.2072 89.7507 95.8867 90.1565C95.6188 90.473 95.3043 90.7104 94.9432 90.8687C94.5861 91.027 94.1884 91.1061 93.7501 91.1061C93.6365 91.1061 93.5249 91.1041 93.4154 91.1C93.3058 91.0919 93.2003 91.0777 93.0988 91.0574C93.1516 91.52 93.1922 91.9988 93.2206 92.4939C93.249 92.989 93.2693 93.4861 93.2814 93.9852C93.2977 94.4803 93.3058 94.9672 93.3058 95.4461C93.3098 95.9249 93.3119 96.3733 93.3119 96.7913H91.2545C91.2545 96.0406 91.2464 95.2858 91.2301 94.527C91.2139 93.7681 91.1774 93.0336 91.1206 92.3235C91.0678 91.6133 90.9867 90.9417 90.8771 90.3087C90.7716 89.6757 90.6296 89.1096 90.451 88.6104V88.6165L90.3049 88.2635L90.2623 88.1539H90.2684L90.244 88.093V88.0991C90.1994 87.9896 90.1446 87.8658 90.0797 87.7278C90.0188 87.5858 89.9194 87.3951 89.7814 87.1557L91.5101 86.06C91.6035 86.2061 91.6826 86.338 91.7475 86.4557C91.8125 86.5733 91.8693 86.6829 91.918 86.7843C91.9667 86.8858 92.0093 86.9812 92.0458 87.0704C92.0864 87.1557 92.1249 87.2409 92.1614 87.3261L92.338 87.7643C92.4191 87.951 92.5043 88.1255 92.5936 88.2878C92.6829 88.4501 92.7823 88.5901 92.8919 88.7078C93.0014 88.8214 93.1252 88.9107 93.2632 88.9757C93.4052 89.0406 93.5675 89.071 93.7501 89.067C93.9855 89.0588 94.164 89.0041 94.2858 88.9026C94.4075 88.8012 94.4968 88.6733 94.5536 88.5191C94.6104 88.3649 94.6409 88.1925 94.6449 88.0017C94.653 87.811 94.6571 87.6264 94.6571 87.4478C94.6571 87.2814 94.6469 87.1171 94.6267 86.9548C94.6064 86.7884 94.578 86.5936 94.5414 86.3704L96.5623 86.0113ZM103.484 96.8583C103.167 96.8583 102.867 96.7913 102.583 96.6574C102.303 96.5275 102.063 96.3551 101.865 96.14C101.645 96.3632 101.396 96.5377 101.116 96.6635C100.836 96.7893 100.534 96.8522 100.209 96.8522C99.86 96.8522 99.5434 96.7751 99.2594 96.6209C98.9753 96.4707 98.7278 96.2759 98.5168 96.0365C98.3058 95.7971 98.1333 95.5313 97.9994 95.2391C97.8695 94.9429 97.7802 94.6507 97.7316 94.3626C97.7113 94.249 97.6971 94.1313 97.6889 94.0096C97.6808 93.8838 97.6768 93.7559 97.6768 93.6261C97.6768 93.3826 97.691 93.133 97.7194 92.8774C97.7518 92.6217 97.7985 92.3661 97.8594 92.1104C97.9405 91.7614 98.046 91.4104 98.1759 91.0574C98.3058 90.7003 98.464 90.331 98.6507 89.9496C98.8414 89.5681 99.0585 89.1664 99.302 88.7443C99.5455 88.3223 99.8194 87.8719 100.124 87.393C100.079 87.3403 100.028 87.2896 99.9716 87.2409C99.9188 87.1881 99.8721 87.1394 99.8316 87.0948L101.268 85.6583C101.309 85.7029 101.357 85.7536 101.414 85.8104C101.471 85.8672 101.532 85.9261 101.597 85.987C101.662 86.0478 101.725 86.1087 101.785 86.1696C101.85 86.2304 101.909 86.2852 101.962 86.3339V86.3278C101.986 86.3481 102.011 86.3704 102.035 86.3948C102.059 86.4191 102.082 86.4435 102.102 86.4678C102.447 86.7884 102.788 87.1171 103.125 87.4539C103.465 87.7907 103.792 88.1559 104.105 88.5496C104.531 89.0893 104.902 89.6554 105.219 90.2478C105.539 90.8362 105.799 91.4328 105.998 92.0374C106.067 92.2525 106.117 92.4817 106.15 92.7252C106.186 92.9687 106.205 93.2162 106.205 93.4678C106.205 93.8858 106.152 94.2936 106.046 94.6913C105.945 95.0849 105.785 95.44 105.565 95.7565C105.346 96.073 105.064 96.3307 104.719 96.5296C104.379 96.7325 103.971 96.842 103.496 96.8583H103.484ZM102.808 92.5791C102.808 92.7577 102.816 92.9707 102.832 93.2183C102.849 93.4658 102.881 93.7052 102.93 93.9365C102.983 94.1638 103.05 94.3626 103.131 94.533C103.216 94.6994 103.325 94.7928 103.459 94.813C103.585 94.7887 103.705 94.7339 103.819 94.6487C103.932 94.5635 104.032 94.46 104.117 94.3383C104.202 94.2165 104.269 94.0846 104.318 93.9426C104.366 93.7965 104.391 93.6525 104.391 93.5104C104.391 93.3603 104.379 93.2081 104.354 93.0539C104.33 92.8997 104.303 92.7638 104.275 92.6461H104.281C104.147 92.2443 103.973 91.8649 103.758 91.5078C103.543 91.1507 103.309 90.8139 103.058 90.4974C102.806 90.1809 102.546 89.8867 102.279 89.6148C102.015 89.3388 101.767 89.0832 101.536 88.8478L101.451 88.7687C101.248 89.0446 101.045 89.3449 100.842 89.6696C100.643 89.9942 100.459 90.3229 100.288 90.6557C100.118 90.9884 99.9655 91.3151 99.8316 91.6357C99.7017 91.9562 99.6043 92.2525 99.5394 92.5243C99.5029 92.707 99.4724 92.9058 99.4481 93.1209C99.4278 93.3319 99.4176 93.5368 99.4176 93.7357C99.4176 93.8817 99.4379 94.0197 99.4785 94.1496C99.5231 94.2754 99.582 94.387 99.655 94.4843C99.7281 94.5817 99.8113 94.6588 99.9046 94.7157C99.9979 94.7684 100.099 94.7948 100.209 94.7948C100.266 94.7948 100.327 94.7765 100.392 94.74C100.461 94.6994 100.527 94.6446 100.592 94.5757C100.661 94.5067 100.726 94.4235 100.787 94.3261C100.848 94.2246 100.899 94.111 100.939 93.9852C100.988 93.8188 101.027 93.6565 101.055 93.4983C101.087 93.3359 101.116 93.1919 101.14 93.0661C101.148 92.993 101.156 92.9099 101.165 92.8165C101.177 92.7191 101.189 92.6359 101.201 92.567L102.808 92.5791Z" fill="#636363"/>
<path d="M55.0396 93.5226C55.2101 93.6322 55.4089 93.7417 55.6362 93.8513C55.8675 93.9609 56.1028 94.0623 56.3422 94.1557C56.5857 94.2449 56.8211 94.318 57.0483 94.3748C57.2756 94.4316 57.4724 94.46 57.6388 94.46C57.6996 94.46 57.7788 94.458 57.8762 94.4539C57.9735 94.4458 58.075 94.4336 58.1805 94.4174C58.2901 94.3971 58.3996 94.3728 58.5092 94.3443C58.6188 94.3119 58.7182 94.2713 58.8075 94.2226C58.9008 94.1739 58.9759 94.1171 59.0327 94.0522C59.0895 93.9832 59.1199 93.902 59.124 93.8087C59.128 93.6504 59.0793 93.4719 58.9779 93.273C58.8805 93.0742 58.7466 92.8672 58.5762 92.6522C58.4098 92.433 58.215 92.2139 57.9918 91.9948C57.7727 91.7716 57.5454 91.5586 57.3101 91.3557C57.0747 91.1487 56.8393 90.958 56.604 90.7835C56.3686 90.6049 56.1515 90.4528 55.9527 90.327L57.0301 88.7261C57.4237 89.002 57.8133 89.3104 58.1988 89.6513C58.5883 89.9922 58.9475 90.3554 59.2762 90.7409C59.6049 91.1223 59.8889 91.518 60.1283 91.9278C60.3678 92.3377 60.5402 92.7475 60.6457 93.1574C60.6782 93.2751 60.7005 93.3948 60.7127 93.5165C60.7249 93.6342 60.7309 93.7478 60.7309 93.8574C60.7309 94.2348 60.6579 94.5817 60.5118 94.8983C60.3657 95.2107 60.1608 95.4826 59.897 95.7139C59.6373 95.9412 59.3249 96.1177 58.9596 96.2435C58.5944 96.3693 58.1927 96.4322 57.7544 96.4322C57.722 96.4322 57.6895 96.4301 57.657 96.4261C57.6246 96.4261 57.5921 96.4261 57.5596 96.4261C57.2796 96.4261 56.9915 96.3957 56.6953 96.3348C56.4031 96.278 56.113 96.2009 55.8249 96.1035C55.5408 96.0061 55.2628 95.8925 54.9909 95.7626C54.7231 95.6328 54.4735 95.4968 54.2422 95.3548L55.0396 93.5226ZM61.7142 96.3835C61.7345 96.0507 61.7548 95.7058 61.7751 95.3487C61.7954 94.9916 61.8116 94.6386 61.8238 94.2896C61.84 93.9406 61.8502 93.6017 61.8542 93.273C61.8583 92.9443 61.8542 92.642 61.842 92.3661C61.8177 91.7899 61.7934 91.2846 61.769 90.8504C61.7487 90.4122 61.7264 90.0246 61.702 89.6878C61.6818 89.351 61.6594 89.0568 61.6351 88.8052C61.6148 88.5496 61.5925 88.3162 61.5681 88.1052C61.5438 87.8942 61.5174 87.6974 61.489 87.5148C61.4606 87.3281 61.4302 87.1354 61.3977 86.9365L63.2786 86.3157C63.3678 86.8594 63.4389 87.4072 63.4916 87.9591C63.5484 88.511 63.591 89.0406 63.6194 89.5478C63.6478 90.051 63.6661 90.5197 63.6742 90.9539C63.6864 91.3881 63.6925 91.7594 63.6925 92.0678C63.6925 92.3478 63.6905 92.6501 63.6864 92.9748C63.6864 93.2994 63.6823 93.6362 63.6742 93.9852C63.6702 94.3342 63.662 94.6872 63.6499 95.0443C63.6377 95.4014 63.6194 95.7504 63.5951 96.0913L61.7142 96.3835ZM65.1705 93.5226C65.3409 93.6322 65.5398 93.7417 65.767 93.8513C65.9983 93.9609 66.2337 94.0623 66.4731 94.1557C66.7166 94.2449 66.9519 94.318 67.1792 94.3748C67.4064 94.4316 67.6032 94.46 67.7696 94.46C67.8305 94.46 67.9096 94.458 68.007 94.4539C68.1044 94.4458 68.2059 94.4336 68.3114 94.4174C68.4209 94.3971 68.5305 94.3728 68.6401 94.3443C68.7496 94.3119 68.849 94.2713 68.9383 94.2226C69.0317 94.1739 69.1067 94.1171 69.1635 94.0522C69.2204 93.9832 69.2508 93.902 69.2548 93.8087C69.2589 93.6504 69.2102 93.4719 69.1088 93.273C69.0114 93.0742 68.8775 92.8672 68.707 92.6522C68.5406 92.433 68.3459 92.2139 68.1227 91.9948C67.9035 91.7716 67.6763 91.5586 67.4409 91.3557C67.2056 91.1487 66.9702 90.958 66.7348 90.7835C66.4995 90.6049 66.2824 90.4528 66.0835 90.327L67.1609 88.7261C67.5546 89.002 67.9441 89.3104 68.3296 89.6513C68.7192 89.9922 69.0783 90.3554 69.407 90.7409C69.7357 91.1223 70.0198 91.518 70.2592 91.9278C70.4986 92.3377 70.6711 92.7475 70.7766 93.1574C70.809 93.2751 70.8314 93.3948 70.8435 93.5165C70.8557 93.6342 70.8618 93.7478 70.8618 93.8574C70.8618 94.2348 70.7888 94.5817 70.6427 94.8983C70.4966 95.2107 70.2917 95.4826 70.0279 95.7139C69.7682 95.9412 69.4557 96.1177 69.0905 96.2435C68.7253 96.3693 68.3235 96.4322 67.8853 96.4322C67.8528 96.4322 67.8204 96.4301 67.7879 96.4261C67.7554 96.4261 67.723 96.4261 67.6905 96.4261C67.4105 96.4261 67.1224 96.3957 66.8261 96.3348C66.534 96.278 66.2438 96.2009 65.9557 96.1035C65.6717 96.0061 65.3937 95.8925 65.1218 95.7626C64.854 95.6328 64.6044 95.4968 64.3731 95.3548L65.1705 93.5226ZM76.0938 96.3652C76.0045 96.3652 75.8787 96.3591 75.7164 96.347C75.5541 96.3348 75.3796 96.2901 75.1929 96.213C75.1036 96.7162 74.9352 97.193 74.6877 97.6435C74.4442 98.098 74.1419 98.522 73.7807 98.9157C73.4196 99.3133 73.0077 99.6786 72.5451 100.011C72.0825 100.344 71.5894 100.642 71.066 100.906L69.952 99.3661C70.2402 99.22 70.5303 99.0597 70.8225 98.8852C71.1146 98.7148 71.3926 98.5322 71.6564 98.3374C71.9242 98.1467 72.1717 97.9458 72.399 97.7348C72.6303 97.5278 72.8312 97.3128 73.0016 97.0896C73.172 96.8664 73.306 96.6371 73.4033 96.4017C73.5007 96.1704 73.5494 95.9351 73.5494 95.6957C73.5494 95.6835 73.5474 95.6652 73.5433 95.6409C73.5433 95.6165 73.5433 95.5922 73.5433 95.5678C73.5433 95.5435 73.5413 95.5252 73.5373 95.513C73.5373 95.5009 73.5373 95.5029 73.5373 95.5191V95.5252C73.5088 95.2899 73.4683 95.0646 73.4155 94.8496C73.3628 94.6345 73.2958 94.4154 73.2146 94.1922C73.1375 93.969 73.0462 93.7357 72.9407 93.4922C72.8352 93.2446 72.7175 92.9748 72.5877 92.6826L74.3468 91.9157C74.5091 92.4026 74.6613 92.8084 74.8033 93.133C74.9454 93.4577 75.0833 93.7174 75.2173 93.9122C75.3552 94.107 75.4932 94.2449 75.6312 94.3261C75.7691 94.4032 75.9152 94.4417 76.0694 94.4417H76.0999C76.2338 94.4417 76.3596 94.4681 76.4773 94.5209C76.5949 94.5736 76.6964 94.6446 76.7816 94.7339C76.8709 94.8191 76.9399 94.9206 76.9886 95.0383C77.0413 95.1559 77.0677 95.2797 77.0677 95.4096C77.0677 95.5435 77.0413 95.6693 76.9886 95.787C76.9399 95.9046 76.8709 96.0061 76.7816 96.0913C76.6964 96.1765 76.5949 96.2435 76.4773 96.2922C76.3596 96.3409 76.2317 96.3652 76.0938 96.3652ZM75.0854 95.4035C75.0854 95.2696 75.1097 95.1458 75.1584 95.0322C75.2071 94.9186 75.2741 94.8191 75.3593 94.7339C75.4445 94.6487 75.5459 94.5817 75.6636 94.533C75.7772 94.4803 75.901 94.4499 76.0349 94.4417C76.3068 94.4417 76.5422 94.389 76.741 94.2835C76.9439 94.178 77.1225 94.04 77.2767 93.8696C77.4309 93.6991 77.5688 93.5084 77.6906 93.2974C77.8123 93.0864 77.928 92.8754 78.0375 92.6643V92.6704C78.143 92.4513 78.2546 92.2342 78.3723 92.0191C78.4941 91.8041 78.6259 91.6052 78.768 91.4226C78.9871 91.167 79.2326 90.9701 79.5045 90.8322C79.7764 90.6901 80.0665 90.6191 80.3749 90.6191C80.7401 90.6191 81.0709 90.6942 81.3671 90.8443C81.6674 90.9945 81.9393 91.2096 82.1828 91.4896C82.3654 91.7087 82.5135 91.9603 82.6271 92.2443C82.7407 92.5243 82.8158 92.8226 82.8523 93.1391V93.127C82.8767 93.2852 82.8888 93.4658 82.8888 93.6687C82.8888 93.8878 82.8686 94.1029 82.828 94.3139C82.7915 94.5209 82.7387 94.7177 82.6697 94.9043C82.5358 95.2452 82.343 95.5313 82.0915 95.7626C81.8439 95.9899 81.5741 96.1461 81.2819 96.2313C81.1845 96.2597 81.0871 96.278 80.9897 96.2861C80.8964 96.2983 80.797 96.3043 80.6915 96.3043C80.5088 96.3043 80.3141 96.282 80.1071 96.2374C79.9042 96.1928 79.7033 96.1319 79.5045 96.0548C79.4233 96.0183 79.332 95.9757 79.2306 95.927C79.1291 95.8742 79.0216 95.8174 78.908 95.7565C78.7984 95.6957 78.6888 95.6328 78.5793 95.5678C78.4697 95.5029 78.3683 95.44 78.2749 95.3791C78.1126 95.5293 77.9503 95.6652 77.788 95.787C77.6257 95.9087 77.4552 96.0122 77.2767 96.0974C77.0981 96.1826 76.9074 96.2475 76.7045 96.2922C76.5016 96.3409 76.2804 96.3652 76.041 96.3652C75.9071 96.3652 75.7833 96.3388 75.6697 96.2861C75.552 96.2374 75.4506 96.1704 75.3654 96.0852C75.2761 96 75.2071 95.8986 75.1584 95.7809C75.1097 95.6632 75.0854 95.5374 75.0854 95.4035ZM79.401 93.8026C79.5268 93.8838 79.6749 93.9629 79.8454 94.04C80.0199 94.1171 80.1923 94.1861 80.3628 94.247C80.5332 94.3078 80.6894 94.3586 80.8315 94.3991C80.9775 94.4357 81.0871 94.4539 81.1601 94.4539C81.1764 94.4539 81.1926 94.4539 81.2088 94.4539C81.2291 94.4499 81.2494 94.4458 81.2697 94.4417C81.3184 94.4296 81.3651 94.3687 81.4097 94.2591C81.4584 94.1455 81.4767 93.9913 81.4645 93.7965C81.4645 93.6667 81.428 93.5246 81.3549 93.3704C81.2819 93.2122 81.1865 93.0661 81.0688 92.9322C80.9512 92.7942 80.8152 92.6806 80.661 92.5913C80.5109 92.498 80.3567 92.4513 80.1984 92.4513C80.1416 92.4513 80.0686 92.5325 79.9793 92.6948C79.89 92.8571 79.7601 93.0986 79.5897 93.4191V93.413L79.401 93.8026Z" fill="#FF7A00"/>
<rect x="195" y="81" width="163" height="20" rx="10" fill="#F5F4F6"/>
<rect x="195" y="81" width="39" height="20" rx="10" fill="#FF764C"/>
<path d="M210.575 93.6367H208.784C208.342 93.6367 207.966 93.4772 207.656 93.1582C207.351 92.8346 207.198 92.4404 207.198 91.9756C207.198 91.4925 207.422 91.0026 207.868 90.5059C208.014 90.3372 208.422 89.9658 209.092 89.3916L208.716 88.8447L209.974 87.9834C210.416 88.626 210.858 89.2708 211.3 89.918C211.869 90.8203 212.154 91.5153 212.154 92.0029C212.154 92.4769 212.002 92.8688 211.696 93.1787C211.396 93.484 211.022 93.6367 210.575 93.6367ZM209.892 90.834C209.276 91.4264 208.969 91.7728 208.969 91.873C208.969 91.9141 209.044 91.9346 209.194 91.9346H210.233C210.356 91.9346 210.423 91.8822 210.432 91.7773C210.299 91.5085 210.119 91.194 209.892 90.834ZM215.34 93.6367C215.135 93.6367 214.453 93.5615 213.296 93.4111V86.7119H214.984V91.7432C215.08 91.7614 215.369 91.7705 215.853 91.7705V93.6367H215.34ZM218.963 94.0537C218.653 94.0537 218.318 93.9398 217.958 93.7119C217.84 93.6344 217.548 93.4111 217.083 93.042C216.855 93.3063 216.584 93.4795 216.27 93.5615C216.055 93.6162 215.734 93.6413 215.306 93.6367V91.7705C215.579 91.7705 215.766 91.7568 215.866 91.7295C216.021 91.6839 216.178 91.57 216.338 91.3877C216.456 91.251 216.661 90.9388 216.953 90.4512C217.227 89.9954 217.47 89.6673 217.685 89.4668C218.022 89.1523 218.407 88.9951 218.84 88.9951C219.414 88.9951 219.868 89.4258 220.2 90.2871C220.455 90.957 220.583 91.6589 220.583 92.3926C220.583 92.8529 220.421 93.2448 220.098 93.5684C219.779 93.8919 219.4 94.0537 218.963 94.0537ZM218.683 90.7998C218.523 90.8773 218.291 91.1849 217.985 91.7227C218.382 91.9961 218.717 92.208 218.99 92.3584C219.027 92.3447 219.045 92.3128 219.045 92.2627C219.045 92.0485 219.015 91.7887 218.956 91.4834C218.883 91.0778 218.792 90.8499 218.683 90.7998Z" fill="white"/>
<path d="M263.367 95.6367C262.633 95.6367 262.132 95.3701 261.863 94.8369C260.893 94.7048 260.257 94.5749 259.956 94.4473C259.254 94.1556 258.903 93.6429 258.903 92.9092C258.903 92.3623 259.22 91.7448 259.854 91.0566C260.492 90.3639 261.07 90.0176 261.59 90.0176C262.255 90.0176 262.715 90.307 262.971 90.8857C263.135 91.2686 263.217 91.8291 263.217 92.5674C263.217 92.6403 263.217 92.7406 263.217 92.8682C263.217 92.9958 263.217 93.0846 263.217 93.1348C263.217 93.4583 263.258 93.6497 263.34 93.709C263.422 93.7682 263.638 93.7865 263.989 93.7637V95.6367H263.367ZM261.617 92.0547C261.617 91.9225 261.613 91.8564 261.604 91.8564C261.531 91.8564 261.346 91.9954 261.05 92.2734C260.754 92.5469 260.605 92.7132 260.605 92.7725C260.605 92.8454 260.754 92.9183 261.05 92.9912C261.187 93.0277 261.376 93.0641 261.617 93.1006V92.0547ZM265.329 91.0566V89.416H266.881V91.0566H265.329ZM263.6 91.0566V89.416H265.145V91.0566H263.6ZM267.257 95.6367C266.692 95.6367 266.222 95.4886 265.849 95.1924C265.438 95.4886 264.864 95.6367 264.126 95.6367H263.429V93.7637C264.304 93.791 264.741 93.6976 264.741 93.4834C264.741 93.3968 264.673 93.0277 264.536 92.376L266.225 91.9453C266.238 92.0228 266.295 92.3577 266.396 92.9502C266.437 93.1917 266.484 93.3604 266.539 93.4561C266.667 93.6657 267.104 93.7705 267.852 93.7705V95.6367H267.257ZM269.062 90.0244V88.3223H270.654V90.0244H269.062ZM271.078 95.6367C270.818 95.6367 270.547 95.5273 270.265 95.3086C269.978 95.5273 269.597 95.6367 269.123 95.6367H267.353V93.7705H268.118C267.909 93.5335 267.804 93.2738 267.804 92.9912C267.804 92.5446 268.086 92.0456 268.651 91.4941C269.216 90.9382 269.709 90.6602 270.128 90.6602C271.012 90.6602 271.454 91.3939 271.454 92.8613C271.454 93.0117 271.45 93.3148 271.44 93.7705H272.083V95.6367H271.078ZM269.95 92.5879C269.95 92.515 269.939 92.4535 269.916 92.4033C269.638 92.5765 269.444 92.8089 269.335 93.1006C269.385 93.2282 269.59 93.4196 269.95 93.6748V92.5879ZM277.046 95.6436C276.499 95.6436 275.592 95.4795 274.325 95.1514C273.737 95.4749 272.821 95.6367 271.577 95.6367V93.7705C271.996 93.7705 272.336 93.7432 272.596 93.6885C272.304 92.5674 272.158 91.7949 272.158 91.3711C272.158 90.9062 272.315 90.4938 272.63 90.1338C272.949 89.7692 273.332 89.5869 273.778 89.5869C274.106 89.5869 274.571 89.7373 275.173 90.0381C275.825 90.3662 276.232 90.6898 276.396 91.0088L277.695 90.6465C277.891 91.2344 278.085 91.8245 278.276 92.417C278.486 93.1279 278.591 93.7363 278.591 94.2422C278.591 94.6979 278.434 95.0534 278.119 95.3086C277.837 95.5319 277.479 95.6436 277.046 95.6436ZM276.499 92.6904C276.326 92.818 276.071 93.1895 275.733 93.8047C276.257 93.8958 276.597 93.9414 276.752 93.9414C276.825 93.9414 276.861 93.9186 276.861 93.873C276.861 93.7318 276.82 93.5267 276.738 93.2578C276.661 92.9844 276.581 92.7952 276.499 92.6904ZM273.86 91.3984C273.851 91.403 273.847 91.4395 273.847 91.5078C273.847 91.7448 273.874 92.0137 273.929 92.3145C274.006 92.7201 274.109 92.9456 274.236 92.9912C274.396 92.9183 274.631 92.5947 274.94 92.0205C274.517 91.7562 274.157 91.5488 273.86 91.3984Z" fill="#636363"/>
<path d="M324.552 91.0156V89.3135H326.131V91.0156H324.552ZM326.473 97.1338C326.172 97.3708 325.785 97.6146 325.311 97.8652C324.905 98.0703 324.499 98.2777 324.094 98.4873L323.301 96.8535C324.326 96.3431 324.857 96.0765 324.894 96.0537C325.614 95.6162 325.974 95.1833 325.974 94.7549C325.974 94.4632 325.771 93.7842 325.365 92.7178L327.033 92.1094C327.471 93.2897 327.689 94.1784 327.689 94.7754C327.689 95.7096 327.284 96.4958 326.473 97.1338ZM331.606 97.5166C331.324 97.7171 330.565 98.1204 329.33 98.7266L328.571 97.1338C329.004 96.9242 329.435 96.7145 329.863 96.5049C330.406 96.2223 330.804 95.9603 331.06 95.7188C330.276 95.6003 329.738 95.4613 329.446 95.3018C328.913 95.0101 328.646 94.5202 328.646 93.832C328.646 93.3307 328.977 92.7292 329.638 92.0273C330.303 91.321 330.873 90.9678 331.347 90.9678C331.825 90.9678 332.215 91.1797 332.516 91.6035C332.785 91.9863 332.919 92.4307 332.919 92.9365V95.4316C332.919 96.2064 332.481 96.9014 331.606 97.5166ZM331.333 93.0664C331.333 92.9342 331.328 92.8682 331.319 92.8682C330.832 93.1416 330.481 93.4492 330.267 93.791C330.408 93.8958 330.763 93.9893 331.333 94.0713V93.0664ZM336.781 97.1338C336.48 97.3708 336.093 97.6146 335.619 97.8652C335.214 98.0703 334.808 98.2777 334.402 98.4873L333.609 96.8535C334.143 96.5892 334.676 96.3249 335.209 96.0605C335.924 95.6276 336.282 95.1924 336.282 94.7549C336.282 94.4176 336.079 93.7386 335.674 92.7178L337.342 92.1094C337.779 93.3171 337.998 94.2057 337.998 94.7754C337.998 95.7096 337.592 96.4958 336.781 97.1338Z" fill="#636363"/>
<path d="M33.1687 272.034C28.3527 288.386 22.3829 291.338 20 290.77V332.5H359V246.485C343.574 246.485 340.188 201.349 323.633 211.569C309.513 220.285 314.603 245.634 296.919 250.744C279.235 255.853 284.879 279.699 270.958 283.957C257.037 288.215 256.284 279.699 248.759 271.183C241.234 262.666 236.719 263.518 230.699 264.37C224.679 265.221 213.016 283.106 205.114 281.402C197.213 279.699 193.827 260.112 190.441 237.118C187.054 214.124 184.044 200.498 182.916 196.239L182.887 196.13C181.742 191.809 179.08 181.762 170.499 181.762C161.846 181.762 151.687 209.014 141.528 202.201C131.37 195.388 125.726 155.361 122.34 145.993C118.953 136.625 115.567 133.219 109.171 134.922C102.775 136.625 94.4972 163.877 92.9922 167.284C91.4872 170.69 88.4772 178.355 81.3285 178.355C74.1798 178.355 70.4173 194.536 67.4073 206.459C64.3973 218.382 61.3873 230.304 57.6249 236.266C53.8624 242.227 53.4861 239.672 48.5949 241.376C43.7037 243.079 39.1887 251.595 33.1687 272.034Z" fill="url(#paint0_linear_4261_40415)"/>
<path d="M20 291.135C22.3829 291.704 28.3527 288.745 33.1687 272.355C39.1887 251.869 43.7037 243.332 48.5949 241.625C53.4861 239.918 53.8624 242.479 57.6249 236.503C61.3873 230.528 64.3973 218.577 67.4073 206.627C70.4173 194.676 74.1798 178.457 81.3285 178.457C88.4772 178.457 91.4872 170.775 92.9922 167.36C94.4972 163.946 102.775 136.63 109.171 134.923C115.567 133.216 118.953 136.63 122.34 146.02C125.726 155.41 131.37 195.53 141.528 202.359C151.687 209.188 161.846 181.872 170.499 181.872C179.153 181.872 181.787 192.115 182.916 196.384C184.044 200.652 187.054 214.31 190.441 237.357C193.827 260.405 197.213 280.038 205.114 281.745C213.016 283.453 224.679 265.527 230.699 264.673C236.719 263.819 241.234 262.966 248.759 271.502C256.284 280.038 257.037 288.574 270.958 284.306C284.879 280.038 279.235 256.137 296.919 251.015C314.603 245.893 309.513 220.485 323.633 211.749C340.188 201.505 343.574 246.747 359 246.747" stroke="#FF7A00"/>
<path d="M22.8435 325.495C22.6765 325.495 22.4783 325.474 22.2487 325.432C22.0226 325.39 21.7965 325.338 21.5704 325.276C21.3443 325.21 21.1374 325.137 20.9496 325.057C20.7617 324.977 20.6243 324.897 20.5374 324.817L20.9652 323.836C21.0939 323.919 21.2487 324.001 21.4296 324.081C21.6104 324.157 21.8035 324.225 22.0087 324.284C22.2139 324.34 22.4243 324.382 22.64 324.41C22.8591 324.437 23.0696 324.443 23.2713 324.425C23.473 324.408 23.6609 324.364 23.8348 324.295C24.0087 324.225 24.1548 324.119 24.273 323.977C24.367 323.869 24.3791 323.667 24.3096 323.371C24.2713 323.201 24.2087 323.023 24.1217 322.839C24.0383 322.651 23.9357 322.465 23.8139 322.281C23.6957 322.093 23.5635 321.91 23.4174 321.733C23.2713 321.556 23.1183 321.392 22.9583 321.243C22.8017 321.09 22.6417 320.954 22.4783 320.836C22.3148 320.717 22.1548 320.623 21.9983 320.554L22.4209 319.604C22.6261 319.698 22.833 319.82 23.0417 319.97C23.2504 320.119 23.4522 320.288 23.647 320.476C23.8452 320.663 24.033 320.867 24.2104 321.086C24.3913 321.302 24.5548 321.526 24.7009 321.759C24.847 321.989 24.9739 322.22 25.0817 322.453C25.1896 322.686 25.2696 322.914 25.3217 323.137C25.3635 323.331 25.3843 323.507 25.3843 323.663C25.3843 323.82 25.3687 323.959 25.3374 324.081C25.3096 324.203 25.2713 324.309 25.2226 324.399C25.1739 324.49 25.1217 324.568 25.0661 324.634C24.7461 325.02 24.2991 325.276 23.7252 325.401C23.593 325.436 23.4539 325.46 23.3078 325.474C23.1617 325.488 23.007 325.495 22.8435 325.495ZM27.8028 317.262C27.9559 318.677 28.0446 319.943 28.0689 321.06C28.1072 322.903 28.0793 324.399 27.9854 325.547L26.9576 325.49C27.0689 323.942 27.1037 322.643 27.0619 321.592C26.9924 319.905 26.8985 318.514 26.7802 317.418L27.8028 317.262ZM31.5271 325.495C31.3601 325.495 31.1619 325.474 30.9323 325.432C30.7062 325.39 30.4801 325.338 30.254 325.276C30.0279 325.21 29.821 325.137 29.6332 325.057C29.4453 324.977 29.3079 324.897 29.221 324.817L29.6488 323.836C29.7775 323.919 29.9323 324.001 30.1132 324.081C30.294 324.157 30.4871 324.225 30.6923 324.284C30.8975 324.34 31.1079 324.382 31.3236 324.41C31.5427 324.437 31.7532 324.443 31.9549 324.425C32.1566 324.408 32.3445 324.364 32.5184 324.295C32.6923 324.225 32.8384 324.119 32.9566 323.977C33.0506 323.869 33.0627 323.667 32.9932 323.371C32.9549 323.201 32.8923 323.023 32.8053 322.839C32.7219 322.651 32.6192 322.465 32.4975 322.281C32.3792 322.093 32.2471 321.91 32.101 321.733C31.9549 321.556 31.8019 321.392 31.6419 321.243C31.4853 321.09 31.3253 320.954 31.1619 320.836C30.9984 320.717 30.8384 320.623 30.6819 320.554L31.1045 319.604C31.3097 319.698 31.5166 319.82 31.7253 319.97C31.934 320.119 32.1358 320.288 32.3306 320.476C32.5288 320.663 32.7166 320.867 32.894 321.086C33.0749 321.302 33.2384 321.526 33.3845 321.759C33.5306 321.989 33.6575 322.22 33.7653 322.453C33.8732 322.686 33.9532 322.914 34.0053 323.137C34.0471 323.331 34.0679 323.507 34.0679 323.663C34.0679 323.82 34.0523 323.959 34.021 324.081C33.9932 324.203 33.9549 324.309 33.9062 324.399C33.8575 324.49 33.8053 324.568 33.7497 324.634C33.4297 325.02 32.9827 325.276 32.4088 325.401C32.2766 325.436 32.1375 325.46 31.9914 325.474C31.8453 325.488 31.6906 325.495 31.5271 325.495ZM37.8273 325.14C37.8273 325.443 37.7821 325.737 37.6916 326.022C37.6047 326.307 37.4812 326.582 37.3212 326.846C37.1647 327.11 36.9768 327.361 36.7577 327.597C36.5421 327.837 36.3055 328.063 36.0481 328.276C35.7942 328.488 35.5247 328.683 35.2394 328.86C34.9577 329.041 34.6708 329.204 34.3786 329.35L33.9299 328.427C34.1803 328.298 34.429 328.157 34.676 328.004C34.9229 327.851 35.156 327.686 35.3751 327.509C35.5942 327.331 35.796 327.143 35.9803 326.945C36.1647 326.747 36.3194 326.54 36.4447 326.324C36.5734 326.109 36.669 325.884 36.7316 325.651C36.7942 325.422 36.8134 325.183 36.789 324.937V324.947C36.7647 324.749 36.7264 324.537 36.6742 324.31C36.6255 324.081 36.5699 323.857 36.5073 323.637C36.4481 323.418 36.389 323.213 36.3299 323.022C36.2742 322.827 36.2255 322.665 36.1838 322.537L37.1647 322.234C37.2968 322.637 37.4255 322.982 37.5508 323.267C37.6794 323.549 37.8099 323.78 37.9421 323.961C38.0777 324.138 38.2186 324.269 38.3647 324.352C38.5108 324.436 38.6708 324.477 38.8447 324.477H38.8708C38.9438 324.477 39.0116 324.491 39.0742 324.519C39.1368 324.547 39.1908 324.585 39.236 324.634C39.2847 324.679 39.3212 324.733 39.3455 324.796C39.3734 324.858 39.3873 324.924 39.3873 324.994C39.3873 325.14 39.3368 325.262 39.236 325.359C39.1386 325.453 39.0168 325.5 38.8708 325.5H38.8655C38.8168 325.5 38.7525 325.498 38.6725 325.495C38.596 325.491 38.509 325.477 38.4116 325.453C38.3177 325.429 38.2203 325.39 38.1194 325.338C38.0186 325.286 37.9212 325.213 37.8273 325.119V325.14ZM38.2934 324.989C38.2934 324.843 38.3438 324.721 38.4447 324.623C38.5455 324.526 38.669 324.477 38.8151 324.477H39.8481C40.3142 324.477 40.7768 324.434 41.236 324.347C41.6986 324.257 42.1542 324.138 42.6029 323.992C43.0516 323.846 43.4899 323.679 43.9177 323.491C44.3455 323.303 44.7577 323.11 45.1542 322.912C44.9177 322.829 44.6881 322.738 44.4655 322.641C44.2464 322.543 44.0307 322.444 43.8186 322.343C43.6551 322.267 43.4951 322.194 43.3386 322.124C43.1855 322.051 43.0377 321.987 42.8951 321.931C42.7525 321.876 42.6151 321.832 42.4829 321.801C42.3542 321.766 42.236 321.749 42.1281 321.749C41.9855 321.749 41.8499 321.78 41.7212 321.843C41.5925 321.905 41.4725 321.985 41.3612 322.083C41.2534 322.177 41.156 322.279 41.069 322.39C40.9821 322.498 40.9073 322.601 40.8447 322.698C40.7855 322.792 40.7386 322.872 40.7038 322.938C40.669 323.001 40.6516 323.034 40.6516 323.037L39.7125 322.615C39.716 322.608 39.7299 322.578 39.7542 322.526C39.7821 322.47 39.8203 322.401 39.869 322.317C39.9177 322.23 39.9786 322.135 40.0516 322.03C40.1247 321.923 40.2081 321.813 40.3021 321.702C40.5699 321.375 40.8568 321.13 41.1629 320.966C41.4725 320.803 41.7942 320.721 42.1281 320.721C42.2951 320.721 42.4655 320.74 42.6394 320.778C42.8134 320.817 42.989 320.869 43.1664 320.935C43.3438 320.997 43.5229 321.07 43.7038 321.154C43.8881 321.237 44.0742 321.323 44.2621 321.41C44.4673 321.507 44.6742 321.603 44.8829 321.697C45.0951 321.79 45.3073 321.876 45.5194 321.952C45.7316 322.025 45.9438 322.084 46.156 322.13C46.3681 322.175 46.5821 322.197 46.7977 322.197L46.996 323.189C46.7525 323.29 46.509 323.399 46.2655 323.517C46.0255 323.632 45.7768 323.754 45.5194 323.883C45.1368 324.074 44.7247 324.265 44.2829 324.457C43.8447 324.648 43.3838 324.822 42.9003 324.978C42.4203 325.131 41.9229 325.257 41.4081 325.354C40.8934 325.451 40.3734 325.5 39.8481 325.5H38.8568H38.8151C38.7421 325.5 38.6742 325.488 38.6116 325.463C38.549 325.436 38.4951 325.399 38.4499 325.354C38.4012 325.305 38.3629 325.25 38.3351 325.187C38.3073 325.124 38.2934 325.058 38.2934 324.989ZM42.7594 318.796L41.909 319.646L41.0534 318.79L41.9038 317.94L42.7594 318.796Z" fill="#A6A6A6"/>
<path d="M90.2609 325.14C90.2609 325.443 90.2157 325.737 90.1252 326.022C90.0383 326.307 89.9148 326.582 89.7548 326.846C89.5983 327.11 89.4104 327.361 89.1913 327.597C88.9757 327.837 88.7391 328.063 88.4817 328.276C88.2278 328.488 87.9583 328.683 87.673 328.86C87.3913 329.041 87.1043 329.204 86.8122 329.35L86.3635 328.427C86.6139 328.298 86.8626 328.157 87.1096 328.004C87.3565 327.851 87.5896 327.686 87.8087 327.509C88.0278 327.331 88.2296 327.143 88.4139 326.945C88.5983 326.747 88.753 326.54 88.8783 326.324C89.007 326.109 89.1026 325.884 89.1652 325.651C89.2278 325.422 89.247 325.183 89.2226 324.937V324.947C89.1983 324.749 89.16 324.537 89.1078 324.31C89.0591 324.081 89.0035 323.857 88.9409 323.637C88.8817 323.418 88.8226 323.213 88.7635 323.022C88.7078 322.827 88.6591 322.665 88.6174 322.537L89.5983 322.234C89.7304 322.637 89.8591 322.982 89.9843 323.267C90.113 323.549 90.2435 323.78 90.3757 323.961C90.5113 324.138 90.6522 324.269 90.7983 324.352C90.9443 324.436 91.1043 324.477 91.2783 324.477H91.3043C91.3774 324.477 91.4452 324.491 91.5078 324.519C91.5704 324.547 91.6243 324.585 91.6696 324.634C91.7183 324.679 91.7548 324.733 91.7791 324.796C91.807 324.858 91.8209 324.924 91.8209 324.994C91.8209 325.14 91.7704 325.262 91.6696 325.359C91.5722 325.453 91.4504 325.5 91.3043 325.5H91.2991C91.2504 325.5 91.1861 325.498 91.1061 325.495C91.0296 325.491 90.9426 325.477 90.8452 325.453C90.7513 325.429 90.6539 325.39 90.553 325.338C90.4522 325.286 90.3548 325.213 90.2609 325.119V325.14ZM90.7061 324.989C90.7061 324.843 90.7548 324.721 90.8522 324.623C90.9496 324.523 91.0713 324.472 91.2174 324.472H91.6139C91.9061 324.472 92.1861 324.455 92.4539 324.42C92.7217 324.385 92.9565 324.321 93.1583 324.227C93.3635 324.133 93.5252 324.006 93.6435 323.846C93.7617 323.683 93.8156 323.474 93.8052 323.22C93.7983 323.025 93.7809 322.823 93.753 322.615C93.7287 322.406 93.6783 322.168 93.6017 321.9L94.5774 321.623C94.6087 321.745 94.6383 321.874 94.6661 322.01C94.6939 322.142 94.7183 322.277 94.7391 322.417C94.76 322.556 94.7774 322.697 94.7913 322.839C94.8087 322.978 94.8209 323.116 94.8278 323.251C94.8348 323.38 94.8504 323.516 94.8748 323.658C94.8991 323.801 94.9426 323.933 95.0052 324.055C95.0678 324.177 95.153 324.277 95.2609 324.357C95.3722 324.437 95.5165 324.477 95.6939 324.477C95.84 324.477 95.9635 324.526 96.0643 324.623C96.1652 324.721 96.2156 324.843 96.2156 324.989C96.2156 325.062 96.2017 325.13 96.1739 325.192C96.1461 325.251 96.1078 325.305 96.0591 325.354C96.0139 325.399 95.96 325.436 95.8974 325.463C95.8383 325.488 95.7739 325.5 95.7043 325.5C95.353 325.5 95.0626 325.437 94.833 325.312C94.6035 325.183 94.4156 325.023 94.2696 324.832C94.1443 324.954 93.9826 325.058 93.7843 325.145C93.5861 325.229 93.3669 325.297 93.1269 325.349C92.8904 325.401 92.6417 325.439 92.3809 325.463C92.12 325.488 91.8643 325.5 91.6139 325.5H91.2174C91.0713 325.5 90.9496 325.451 90.8522 325.354C90.7548 325.257 90.7061 325.135 90.7061 324.989ZM92.8765 327.483L92.0313 328.328L91.1756 327.477L92.0209 326.627L92.8765 327.483ZM95.0156 327.488L94.1704 328.338L93.3148 327.483L94.16 326.637L95.0156 327.488ZM97.73 318.999L96.8848 319.844L96.0291 318.994L96.8744 318.143L97.73 318.999ZM99.8691 319.004L99.0239 319.855L98.1683 318.999L99.0135 318.154L99.8691 319.004ZM95.0378 324.989C95.0378 324.843 95.0883 324.721 95.1891 324.623C95.2865 324.526 95.4065 324.477 95.5491 324.477H96.1283C96.25 324.481 96.3822 324.483 96.5248 324.483C96.6674 324.479 96.8118 324.47 96.9578 324.457C97.1039 324.443 97.2465 324.423 97.3857 324.399C97.5283 324.371 97.6587 324.335 97.777 324.29C97.8952 324.241 97.9996 324.182 98.09 324.112C98.1804 324.043 98.2483 323.959 98.2935 323.862C98.3631 323.712 98.3822 323.5 98.3509 323.225C98.3231 322.947 98.2535 322.623 98.1422 322.255C98.1039 322.143 98.0587 322.023 98.0065 321.895C97.9578 321.763 97.9091 321.641 97.8604 321.53C97.8048 321.397 97.7474 321.267 97.6883 321.138L98.617 320.679C98.617 320.683 98.6326 320.719 98.6639 320.789C98.6987 320.855 98.7404 320.945 98.7891 321.06C98.8378 321.175 98.8918 321.309 98.9509 321.462C99.01 321.611 99.0657 321.771 99.1178 321.942C99.4413 322.94 99.4813 323.719 99.2378 324.279C98.9909 324.839 98.5526 325.208 97.9231 325.385C97.8291 325.413 97.7091 325.436 97.5631 325.453C97.417 325.467 97.2674 325.477 97.1144 325.484C96.9613 325.491 96.8152 325.497 96.6761 325.5C96.537 325.5 96.4291 325.5 96.3526 325.5H95.5961H95.5491C95.4065 325.5 95.2865 325.451 95.1891 325.354C95.0883 325.257 95.0378 325.135 95.0378 324.989Z" fill="#A6A6A6"/>
<path d="M140.819 323.377C140.965 323.47 141.136 323.564 141.33 323.658C141.529 323.752 141.73 323.839 141.936 323.919C142.144 323.996 142.346 324.058 142.541 324.107C142.736 324.156 142.904 324.18 143.047 324.18C143.099 324.18 143.167 324.178 143.25 324.175C143.334 324.168 143.421 324.157 143.511 324.143C143.605 324.126 143.699 324.105 143.793 324.081C143.887 324.053 143.972 324.018 144.049 323.977C144.129 323.935 144.193 323.886 144.242 323.83C144.29 323.771 144.317 323.702 144.32 323.622C144.323 323.486 144.282 323.333 144.195 323.163C144.111 322.992 143.997 322.815 143.85 322.63C143.708 322.443 143.541 322.255 143.35 322.067C143.162 321.876 142.967 321.693 142.765 321.519C142.563 321.342 142.362 321.178 142.16 321.029C141.958 320.876 141.772 320.745 141.602 320.637L142.525 319.265C142.863 319.502 143.197 319.766 143.527 320.058C143.861 320.35 144.169 320.662 144.45 320.992C144.732 321.319 144.976 321.658 145.181 322.01C145.386 322.361 145.534 322.712 145.624 323.063C145.652 323.164 145.671 323.267 145.682 323.371C145.692 323.472 145.697 323.57 145.697 323.663C145.697 323.987 145.635 324.284 145.51 324.556C145.384 324.823 145.209 325.057 144.983 325.255C144.76 325.45 144.492 325.601 144.179 325.709C143.866 325.817 143.522 325.87 143.146 325.87C143.118 325.87 143.09 325.869 143.063 325.865C143.035 325.865 143.007 325.865 142.979 325.865C142.739 325.865 142.492 325.839 142.238 325.787C141.988 325.738 141.739 325.672 141.492 325.589C141.249 325.505 141.01 325.408 140.777 325.297C140.548 325.185 140.334 325.069 140.136 324.947L140.819 323.377ZM146.54 325.829C146.558 325.543 146.575 325.248 146.592 324.942C146.61 324.636 146.624 324.333 146.634 324.034C146.648 323.735 146.657 323.444 146.66 323.163C146.664 322.881 146.66 322.622 146.65 322.385C146.629 321.891 146.608 321.458 146.587 321.086C146.57 320.71 146.551 320.378 146.53 320.09C146.512 319.801 146.493 319.549 146.472 319.333C146.455 319.114 146.436 318.914 146.415 318.733C146.394 318.552 146.372 318.383 146.347 318.227C146.323 318.067 146.297 317.902 146.269 317.731L147.881 317.199C147.958 317.665 148.018 318.135 148.064 318.608C148.112 319.081 148.149 319.535 148.173 319.97C148.198 320.401 148.213 320.803 148.22 321.175C148.231 321.547 148.236 321.865 148.236 322.13C148.236 322.37 148.234 322.629 148.231 322.907C148.231 323.185 148.227 323.474 148.22 323.773C148.217 324.072 148.21 324.375 148.199 324.681C148.189 324.987 148.173 325.286 148.152 325.578L146.54 325.829ZM149.503 323.377C149.649 323.47 149.819 323.564 150.014 323.658C150.212 323.752 150.414 323.839 150.619 323.919C150.828 323.996 151.03 324.058 151.224 324.107C151.419 324.156 151.588 324.18 151.731 324.18C151.783 324.18 151.851 324.178 151.934 324.175C152.018 324.168 152.104 324.157 152.195 324.143C152.289 324.126 152.383 324.105 152.477 324.081C152.571 324.053 152.656 324.018 152.732 323.977C152.812 323.935 152.877 323.886 152.925 323.83C152.974 323.771 153 323.702 153.004 323.622C153.007 323.486 152.965 323.333 152.878 323.163C152.795 322.992 152.68 322.815 152.534 322.63C152.391 322.443 152.224 322.255 152.033 322.067C151.845 321.876 151.651 321.693 151.449 321.519C151.247 321.342 151.045 321.178 150.844 321.029C150.642 320.876 150.456 320.745 150.285 320.637L151.209 319.265C151.546 319.502 151.88 319.766 152.211 320.058C152.544 320.35 152.852 320.662 153.134 320.992C153.416 321.319 153.659 321.658 153.864 322.01C154.07 322.361 154.218 322.712 154.308 323.063C154.336 323.164 154.355 323.267 154.365 323.371C154.376 323.472 154.381 323.57 154.381 323.663C154.381 323.987 154.318 324.284 154.193 324.556C154.068 324.823 153.892 325.057 153.666 325.255C153.444 325.45 153.176 325.601 152.863 325.709C152.55 325.817 152.205 325.87 151.83 325.87C151.802 325.87 151.774 325.869 151.746 325.865C151.718 325.865 151.691 325.865 151.663 325.865C151.423 325.865 151.176 325.839 150.922 325.787C150.671 325.738 150.423 325.672 150.176 325.589C149.932 325.505 149.694 325.408 149.461 325.297C149.231 325.185 149.018 325.069 148.819 324.947L149.503 323.377ZM158.866 325.813C158.789 325.813 158.681 325.808 158.542 325.797C158.403 325.787 158.253 325.749 158.093 325.683C158.017 326.114 157.872 326.523 157.66 326.909C157.452 327.298 157.192 327.662 156.883 327.999C156.573 328.34 156.22 328.653 155.824 328.938C155.427 329.223 155.005 329.479 154.556 329.705L153.601 328.385C153.848 328.26 154.097 328.123 154.347 327.973C154.598 327.827 154.836 327.67 155.062 327.503C155.292 327.34 155.504 327.168 155.699 326.987C155.897 326.81 156.069 326.625 156.215 326.434C156.361 326.243 156.476 326.046 156.559 325.844C156.643 325.646 156.685 325.444 156.685 325.239C156.685 325.229 156.683 325.213 156.679 325.192C156.679 325.171 156.679 325.15 156.679 325.13C156.679 325.109 156.678 325.093 156.674 325.083C156.674 325.072 156.674 325.074 156.674 325.088V325.093C156.65 324.891 156.615 324.698 156.57 324.514C156.525 324.33 156.467 324.142 156.398 323.95C156.332 323.759 156.253 323.559 156.163 323.35C156.072 323.138 155.972 322.907 155.86 322.657L157.368 321.999C157.507 322.417 157.638 322.764 157.759 323.043C157.881 323.321 157.999 323.543 158.114 323.71C158.232 323.877 158.351 323.996 158.469 324.065C158.587 324.131 158.712 324.164 158.845 324.164H158.871C158.986 324.164 159.093 324.187 159.194 324.232C159.295 324.277 159.382 324.338 159.455 324.415C159.532 324.488 159.591 324.575 159.632 324.676C159.678 324.777 159.7 324.883 159.7 324.994C159.7 325.109 159.678 325.217 159.632 325.317C159.591 325.418 159.532 325.505 159.455 325.578C159.382 325.651 159.295 325.709 159.194 325.75C159.093 325.792 158.984 325.813 158.866 325.813ZM158.001 324.989C158.001 324.874 158.022 324.768 158.064 324.67C158.106 324.573 158.163 324.488 158.236 324.415C158.309 324.342 158.396 324.284 158.497 324.243C158.594 324.197 158.7 324.171 158.815 324.164C159.048 324.164 159.25 324.119 159.42 324.029C159.594 323.938 159.747 323.82 159.879 323.674C160.012 323.528 160.13 323.364 160.234 323.183C160.339 323.003 160.438 322.822 160.532 322.641V322.646C160.622 322.458 160.718 322.272 160.819 322.088C160.923 321.903 161.036 321.733 161.158 321.577C161.346 321.357 161.556 321.189 161.789 321.07C162.022 320.949 162.271 320.888 162.535 320.888C162.848 320.888 163.132 320.952 163.386 321.081C163.643 321.21 163.876 321.394 164.085 321.634C164.241 321.822 164.368 322.037 164.466 322.281C164.563 322.521 164.627 322.777 164.659 323.048V323.037C164.679 323.173 164.69 323.328 164.69 323.502C164.69 323.69 164.672 323.874 164.638 324.055C164.606 324.232 164.561 324.401 164.502 324.561C164.387 324.853 164.222 325.098 164.006 325.297C163.794 325.491 163.563 325.625 163.312 325.698C163.229 325.723 163.146 325.738 163.062 325.745C162.982 325.756 162.897 325.761 162.806 325.761C162.65 325.761 162.483 325.742 162.306 325.703C162.132 325.665 161.959 325.613 161.789 325.547C161.719 325.516 161.641 325.479 161.554 325.437C161.467 325.392 161.375 325.343 161.278 325.291C161.184 325.239 161.09 325.185 160.996 325.13C160.902 325.074 160.815 325.02 160.735 324.968C160.596 325.097 160.457 325.213 160.318 325.317C160.179 325.422 160.032 325.51 159.879 325.583C159.726 325.657 159.563 325.712 159.389 325.75C159.215 325.792 159.026 325.813 158.82 325.813C158.706 325.813 158.599 325.79 158.502 325.745C158.401 325.703 158.314 325.646 158.241 325.573C158.165 325.5 158.106 325.413 158.064 325.312C158.022 325.211 158.001 325.103 158.001 324.989ZM161.7 323.617C161.808 323.686 161.935 323.754 162.081 323.82C162.231 323.886 162.379 323.945 162.525 323.997C162.671 324.05 162.805 324.093 162.926 324.128C163.052 324.159 163.146 324.175 163.208 324.175C163.222 324.175 163.236 324.175 163.25 324.175C163.267 324.171 163.285 324.168 163.302 324.164C163.344 324.154 163.384 324.102 163.422 324.008C163.464 323.91 163.479 323.778 163.469 323.611C163.469 323.5 163.438 323.378 163.375 323.246C163.312 323.11 163.231 322.985 163.13 322.87C163.029 322.752 162.912 322.655 162.78 322.578C162.652 322.498 162.519 322.458 162.384 322.458C162.335 322.458 162.272 322.528 162.196 322.667C162.119 322.806 162.008 323.013 161.862 323.288V323.283L161.7 323.617Z" fill="#FF764C"/>
<path d="M207.577 322.109C207.675 322.432 207.767 322.752 207.854 323.069C207.889 323.204 207.925 323.345 207.963 323.491C208.002 323.637 208.037 323.783 208.068 323.93C208.103 324.076 208.132 324.218 208.157 324.357C208.181 324.493 208.2 324.62 208.214 324.738C208.217 324.777 208.221 324.82 208.224 324.869C208.228 324.917 208.23 324.971 208.23 325.03C208.23 325.333 208.184 325.627 208.094 325.912C208.007 326.197 207.883 326.47 207.723 326.731C207.567 326.996 207.379 327.248 207.16 327.488C206.944 327.728 206.708 327.952 206.45 328.161C206.197 328.373 205.927 328.57 205.642 328.75C205.36 328.931 205.073 329.093 204.781 329.236L204.327 328.317C204.692 328.137 205.047 327.926 205.391 327.686C205.736 327.45 206.042 327.19 206.31 326.909C206.581 326.627 206.798 326.328 206.962 326.011C207.125 325.695 207.207 325.368 207.207 325.03C207.207 325.013 207.205 324.985 207.202 324.947C207.198 324.905 207.195 324.865 207.191 324.827V324.832C207.181 324.724 207.163 324.608 207.139 324.483C207.115 324.354 207.087 324.223 207.056 324.091C207.024 323.956 206.991 323.822 206.957 323.69C206.922 323.554 206.887 323.423 206.852 323.298C206.769 323.006 206.68 322.714 206.586 322.422L207.577 322.109ZM209.262 328.156C209.798 328.048 210.278 327.898 210.702 327.707C211.127 327.516 211.49 327.3 211.793 327.06C212.095 326.82 212.334 326.564 212.508 326.293C212.685 326.025 212.793 325.761 212.831 325.5C212.685 325.503 212.511 325.503 212.309 325.5C212.111 325.5 211.916 325.491 211.725 325.474C210.97 325.425 210.412 325.178 210.05 324.733C209.89 324.531 209.788 324.298 209.742 324.034C209.701 323.77 209.699 323.5 209.737 323.225C209.779 322.947 209.854 322.679 209.962 322.422C210.069 322.161 210.196 321.937 210.342 321.749C210.516 321.53 210.708 321.364 210.916 321.253C211.125 321.138 211.341 321.081 211.563 321.081C212.057 321.081 212.511 321.303 212.925 321.749C213.071 321.912 213.203 322.097 213.322 322.302C213.44 322.507 213.541 322.728 213.624 322.964C213.708 323.197 213.774 323.443 213.822 323.7C213.871 323.954 213.899 324.213 213.906 324.477H214.297C214.37 324.477 214.438 324.491 214.501 324.519C214.563 324.543 214.617 324.58 214.662 324.629C214.711 324.674 214.749 324.728 214.777 324.79C214.805 324.853 214.819 324.921 214.819 324.994C214.819 325.063 214.805 325.13 214.777 325.192C214.749 325.251 214.711 325.305 214.662 325.354C214.617 325.399 214.563 325.436 214.501 325.463C214.438 325.488 214.37 325.5 214.297 325.5H213.828C213.723 326.015 213.534 326.479 213.259 326.893C212.988 327.31 212.657 327.674 212.268 327.983C211.882 328.293 211.45 328.547 210.974 328.745C210.497 328.943 210.007 329.083 209.502 329.163L209.262 328.156ZM211.563 322.109C211.462 322.109 211.367 322.149 211.276 322.229C211.186 322.305 211.104 322.404 211.031 322.526C210.962 322.648 210.902 322.785 210.854 322.938C210.805 323.088 210.77 323.237 210.749 323.387C210.732 323.533 210.732 323.67 210.749 323.799C210.767 323.924 210.805 324.023 210.864 324.097C210.916 324.166 210.982 324.223 211.062 324.269C211.142 324.31 211.226 324.345 211.313 324.373C211.4 324.397 211.485 324.417 211.569 324.43C211.655 324.441 211.73 324.448 211.793 324.451C212.012 324.465 212.212 324.47 212.393 324.467C212.577 324.463 212.737 324.457 212.873 324.446C212.862 324.227 212.836 324.018 212.795 323.82C212.753 323.618 212.699 323.432 212.633 323.262C212.57 323.091 212.497 322.938 212.414 322.803C212.33 322.663 212.245 322.543 212.158 322.443C212.123 322.408 212.083 322.371 212.038 322.333C211.996 322.291 211.949 322.255 211.897 322.223C211.849 322.189 211.795 322.161 211.735 322.14C211.68 322.119 211.622 322.109 211.563 322.109ZM216.03 327.3L215.185 328.145L214.329 327.295L215.175 326.444L216.03 327.3ZM218.169 327.305L217.324 328.156L216.469 327.3L217.314 326.455L218.169 327.305ZM213.516 324.989C213.516 324.843 213.566 324.721 213.667 324.623C213.764 324.526 213.884 324.477 214.027 324.477H214.606C214.728 324.481 214.86 324.483 215.003 324.483C215.145 324.479 215.289 324.47 215.436 324.457C215.582 324.443 215.724 324.423 215.863 324.399C216.006 324.371 216.136 324.335 216.255 324.29C216.373 324.241 216.477 324.182 216.568 324.112C216.658 324.043 216.726 323.959 216.771 323.862C216.841 323.712 216.86 323.5 216.829 323.225C216.801 322.947 216.731 322.623 216.62 322.255C216.582 322.143 216.536 322.023 216.484 321.895C216.436 321.763 216.387 321.641 216.338 321.53C216.283 321.397 216.225 321.267 216.166 321.138L217.095 320.679C217.095 320.683 217.11 320.719 217.142 320.789C217.176 320.855 217.218 320.945 217.267 321.06C217.316 321.175 217.369 321.309 217.429 321.462C217.488 321.611 217.543 321.771 217.596 321.942C217.919 322.94 217.959 323.719 217.716 324.279C217.469 324.839 217.03 325.208 216.401 325.385C216.307 325.413 216.187 325.436 216.041 325.453C215.895 325.467 215.745 325.477 215.592 325.484C215.439 325.491 215.293 325.497 215.154 325.5C215.015 325.5 214.907 325.5 214.83 325.5H214.074H214.027C213.884 325.5 213.764 325.451 213.667 325.354C213.566 325.257 213.516 325.135 213.516 324.989ZM222.077 325.14C222.077 325.443 222.032 325.737 221.942 326.022C221.855 326.307 221.731 326.582 221.571 326.846C221.415 327.11 221.227 327.361 221.008 327.597C220.792 327.837 220.556 328.063 220.298 328.276C220.044 328.488 219.775 328.683 219.489 328.86C219.208 329.041 218.921 329.204 218.629 329.35L218.18 328.427C218.43 328.298 218.679 328.157 218.926 328.004C219.173 327.851 219.406 327.686 219.625 327.509C219.844 327.331 220.046 327.143 220.23 326.945C220.415 326.747 220.569 326.54 220.695 326.324C220.823 326.109 220.919 325.884 220.982 325.651C221.044 325.422 221.063 325.183 221.039 324.937V324.947C221.015 324.749 220.976 324.537 220.924 324.31C220.876 324.081 220.82 323.857 220.757 323.637C220.698 323.418 220.639 323.213 220.58 323.022C220.524 322.827 220.476 322.665 220.434 322.537L221.415 322.234C221.547 322.637 221.676 322.982 221.801 323.267C221.929 323.549 222.06 323.78 222.192 323.961C222.328 324.138 222.469 324.269 222.615 324.352C222.761 324.436 222.921 324.477 223.095 324.477H223.121C223.194 324.477 223.262 324.491 223.324 324.519C223.387 324.547 223.441 324.585 223.486 324.634C223.535 324.679 223.571 324.733 223.596 324.796C223.623 324.858 223.637 324.924 223.637 324.994C223.637 325.14 223.587 325.262 223.486 325.359C223.389 325.453 223.267 325.5 223.121 325.5H223.116C223.067 325.5 223.002 325.498 222.922 325.495C222.846 325.491 222.759 325.477 222.662 325.453C222.568 325.429 222.47 325.39 222.369 325.338C222.269 325.286 222.171 325.213 222.077 325.119V325.14ZM225.898 321.822C225.801 321.832 225.703 321.884 225.606 321.978C225.509 322.069 225.416 322.187 225.329 322.333C225.246 322.476 225.169 322.637 225.1 322.818C225.03 322.999 224.973 323.183 224.928 323.371C224.882 323.559 224.849 323.745 224.829 323.93C224.811 324.11 224.813 324.272 224.834 324.415C225.063 324.443 225.27 324.415 225.455 324.331C225.639 324.244 225.797 324.124 225.929 323.971C226.062 323.815 226.162 323.637 226.232 323.439C226.305 323.241 226.342 323.041 226.342 322.839C226.345 322.637 226.31 322.446 226.237 322.265C226.168 322.084 226.055 321.937 225.898 321.822ZM222.554 324.989C222.554 324.846 222.602 324.726 222.7 324.629C222.797 324.528 222.919 324.477 223.065 324.477H223.806C223.796 324.276 223.806 324.044 223.837 323.783C223.872 323.523 223.928 323.255 224.004 322.98C224.081 322.705 224.176 322.437 224.291 322.177C224.409 321.912 224.547 321.676 224.703 321.467C224.863 321.255 225.042 321.083 225.241 320.95C225.439 320.815 225.656 320.742 225.893 320.731C226.095 320.721 226.276 320.771 226.436 320.883C226.599 320.994 226.74 321.142 226.858 321.326C226.976 321.507 227.072 321.714 227.145 321.947C227.218 322.177 227.269 322.41 227.296 322.646C227.324 322.879 227.326 323.103 227.302 323.319C227.281 323.531 227.236 323.709 227.166 323.851C227.086 324.081 226.975 324.284 226.832 324.462C226.693 324.639 226.531 324.792 226.347 324.921C226.162 325.05 225.961 325.156 225.742 325.239C225.526 325.323 225.302 325.383 225.069 325.422C225.11 325.523 225.164 325.646 225.23 325.792C225.3 325.938 225.378 326.084 225.465 326.23C225.552 326.377 225.646 326.512 225.747 326.637C225.851 326.766 225.959 326.863 226.07 326.93C226.053 326.71 226.072 326.497 226.128 326.288C226.183 326.083 226.267 325.89 226.378 325.709C226.489 325.528 226.623 325.363 226.78 325.213C226.936 325.06 227.107 324.93 227.291 324.822C227.476 324.714 227.667 324.63 227.865 324.571C228.067 324.509 228.269 324.477 228.47 324.477C228.616 324.477 228.738 324.528 228.836 324.629C228.936 324.726 228.987 324.846 228.987 324.989C228.987 325.135 228.936 325.257 228.836 325.354C228.738 325.451 228.616 325.5 228.47 325.5H228.429C228.237 325.507 228.055 325.556 227.881 325.646C227.71 325.737 227.557 325.853 227.422 325.996C227.289 326.138 227.182 326.3 227.098 326.481C227.015 326.662 226.966 326.848 226.952 327.039C226.938 327.234 226.964 327.425 227.03 327.613C227.096 327.804 227.211 327.98 227.375 328.14L226.722 328.933C226.354 328.71 226.025 328.467 225.736 328.203C225.448 327.938 225.194 327.663 224.975 327.378C224.756 327.093 224.569 326.803 224.416 326.507C224.263 326.211 224.14 325.919 224.046 325.63L223.999 325.5H223.065C222.919 325.5 222.797 325.451 222.7 325.354C222.602 325.257 222.554 325.135 222.554 324.989ZM227.993 324.994C227.993 324.928 228.005 324.865 228.029 324.806C228.054 324.743 228.088 324.69 228.134 324.644C228.175 324.596 228.226 324.557 228.285 324.53C228.344 324.502 228.407 324.484 228.473 324.477C228.678 324.477 228.862 324.437 229.026 324.357C229.193 324.277 229.339 324.171 229.464 324.039C229.593 323.903 229.706 323.749 229.803 323.575C229.9 323.401 229.984 323.22 230.054 323.032C230.123 322.841 230.18 322.65 230.226 322.458C230.274 322.263 230.316 322.081 230.351 321.91L231.384 322.13C231.356 322.213 231.321 322.321 231.28 322.453C231.241 322.585 231.203 322.728 231.165 322.881C231.127 323.03 231.094 323.185 231.066 323.345C231.038 323.502 231.024 323.648 231.024 323.783C231.024 323.877 231.033 323.97 231.05 324.06C231.067 324.147 231.097 324.225 231.139 324.295C231.18 324.364 231.238 324.42 231.311 324.462C231.384 324.503 231.476 324.524 231.587 324.524C231.765 324.524 231.923 324.476 232.062 324.378C232.205 324.281 232.33 324.154 232.438 323.997C232.549 323.841 232.645 323.663 232.725 323.465C232.805 323.267 232.873 323.065 232.928 322.86C232.987 322.655 233.036 322.457 233.074 322.265C233.113 322.07 233.142 321.902 233.163 321.759L234.165 321.942C234.165 321.942 234.154 321.999 234.134 322.114C234.116 322.225 234.094 322.363 234.066 322.526C234.041 322.686 234.019 322.858 233.998 323.043C233.977 323.223 233.967 323.385 233.967 323.528C233.967 323.657 233.975 323.78 233.993 323.898C234.014 324.013 234.045 324.116 234.087 324.206C234.132 324.293 234.189 324.366 234.259 324.425C234.332 324.481 234.42 324.514 234.525 324.524C234.685 324.545 234.817 324.543 234.921 324.519C235.029 324.495 235.114 324.463 235.177 324.425C235.24 324.383 235.285 324.34 235.313 324.295C235.344 324.25 235.365 324.217 235.375 324.196H235.37C235.419 324.119 235.452 324.032 235.469 323.935C235.49 323.837 235.5 323.733 235.5 323.622C235.5 323.423 235.473 323.21 235.417 322.98C235.365 322.75 235.3 322.526 235.224 322.307C235.151 322.084 235.073 321.879 234.989 321.691C234.909 321.5 234.841 321.349 234.786 321.237L235.699 320.757C235.716 320.792 235.749 320.86 235.798 320.961C235.847 321.058 235.902 321.18 235.965 321.326C236.027 321.469 236.092 321.63 236.158 321.811C236.227 321.992 236.29 322.183 236.346 322.385C236.401 322.583 236.447 322.787 236.481 322.996C236.52 323.204 236.539 323.408 236.539 323.606C236.539 323.905 236.497 324.177 236.414 324.42C236.33 324.66 236.205 324.865 236.038 325.036C235.871 325.206 235.66 325.338 235.407 325.432C235.156 325.523 234.862 325.566 234.525 325.563C234.389 325.563 234.255 325.542 234.123 325.5C233.991 325.458 233.864 325.403 233.742 325.333C233.62 325.26 233.507 325.177 233.403 325.083C233.299 324.985 233.21 324.881 233.137 324.77C232.928 325.013 232.692 325.206 232.427 325.349C232.163 325.491 231.883 325.563 231.587 325.563C231.459 325.563 231.325 325.545 231.186 325.51C231.05 325.479 230.92 325.43 230.794 325.364C230.669 325.298 230.554 325.217 230.45 325.119C230.349 325.022 230.271 324.909 230.215 324.78C230.007 324.999 229.77 325.173 229.506 325.302C229.241 325.43 228.925 325.498 228.556 325.505H228.473C228.407 325.502 228.344 325.486 228.285 325.458C228.226 325.43 228.175 325.394 228.134 325.349C228.088 325.303 228.054 325.251 228.029 325.192C228.005 325.13 227.993 325.063 227.993 324.994ZM233.56 319.297L234.405 318.451L235.26 319.307L234.415 320.152L233.56 319.297ZM231.269 319.291L232.114 318.441L232.97 319.297L232.125 320.147L231.269 319.291ZM232.527 317.721L233.299 316.949L234.076 317.726L233.304 318.498L232.527 317.721Z" fill="#A6A6A6"/>
<path d="M281.261 325.14C281.261 325.443 281.216 325.737 281.125 326.022C281.038 326.307 280.915 326.582 280.755 326.846C280.598 327.11 280.41 327.361 280.191 327.597C279.976 327.837 279.739 328.063 279.482 328.276C279.228 328.488 278.958 328.683 278.673 328.86C278.391 329.041 278.104 329.204 277.812 329.35L277.363 328.427C277.614 328.298 277.863 328.157 278.11 328.004C278.357 327.851 278.59 327.686 278.809 327.509C279.028 327.331 279.23 327.143 279.414 326.945C279.598 326.747 279.753 326.54 279.878 326.324C280.007 326.109 280.103 325.884 280.165 325.651C280.228 325.422 280.247 325.183 280.223 324.937V324.947C280.198 324.749 280.16 324.537 280.108 324.31C280.059 324.081 280.003 323.857 279.941 323.637C279.882 323.418 279.823 323.213 279.763 323.022C279.708 322.827 279.659 322.665 279.617 322.537L280.598 322.234C280.73 322.637 280.859 322.982 280.984 323.267C281.113 323.549 281.243 323.78 281.376 323.961C281.511 324.138 281.652 324.269 281.798 324.352C281.944 324.436 282.104 324.477 282.278 324.477H282.304C282.377 324.477 282.445 324.491 282.508 324.519C282.57 324.547 282.624 324.585 282.67 324.634C282.718 324.679 282.755 324.733 282.779 324.796C282.807 324.858 282.821 324.924 282.821 324.994C282.821 325.14 282.77 325.262 282.67 325.359C282.572 325.453 282.45 325.5 282.304 325.5H282.299C282.25 325.5 282.186 325.498 282.106 325.495C282.03 325.491 281.943 325.477 281.845 325.453C281.751 325.429 281.654 325.39 281.553 325.338C281.452 325.286 281.355 325.213 281.261 325.119V325.14ZM285.082 321.822C284.984 321.832 284.887 321.884 284.79 321.978C284.692 322.069 284.6 322.187 284.513 322.333C284.43 322.476 284.353 322.637 284.283 322.818C284.214 322.999 284.157 323.183 284.111 323.371C284.066 323.559 284.033 323.745 284.012 323.93C283.995 324.11 283.997 324.272 284.017 324.415C284.247 324.443 284.454 324.415 284.638 324.331C284.823 324.244 284.981 324.124 285.113 323.971C285.245 323.815 285.346 323.637 285.416 323.439C285.489 323.241 285.525 323.041 285.525 322.839C285.529 322.637 285.494 322.446 285.421 322.265C285.351 322.084 285.238 321.937 285.082 321.822ZM281.737 324.989C281.737 324.846 281.786 324.726 281.883 324.629C281.981 324.528 282.103 324.477 282.249 324.477H282.99C282.979 324.276 282.99 324.044 283.021 323.783C283.056 323.523 283.111 323.255 283.188 322.98C283.264 322.705 283.36 322.437 283.475 322.177C283.593 321.912 283.73 321.676 283.887 321.467C284.047 321.255 284.226 321.083 284.424 320.95C284.623 320.815 284.84 320.742 285.077 320.731C285.278 320.721 285.459 320.771 285.619 320.883C285.783 320.994 285.923 321.142 286.042 321.326C286.16 321.507 286.256 321.714 286.329 321.947C286.402 322.177 286.452 322.41 286.48 322.646C286.508 322.879 286.51 323.103 286.485 323.319C286.464 323.531 286.419 323.709 286.35 323.851C286.27 324.081 286.158 324.284 286.016 324.462C285.877 324.639 285.715 324.792 285.53 324.921C285.346 325.05 285.144 325.156 284.925 325.239C284.71 325.323 284.485 325.383 284.252 325.422C284.294 325.523 284.348 325.646 284.414 325.792C284.483 325.938 284.562 326.084 284.649 326.23C284.736 326.377 284.83 326.512 284.93 326.637C285.035 326.766 285.143 326.863 285.254 326.93C285.237 326.71 285.256 326.497 285.311 326.288C285.367 326.083 285.45 325.89 285.562 325.709C285.673 325.528 285.807 325.363 285.963 325.213C286.12 325.06 286.29 324.93 286.475 324.822C286.659 324.714 286.85 324.63 287.049 324.571C287.25 324.509 287.452 324.477 287.654 324.477C287.8 324.477 287.922 324.528 288.019 324.629C288.12 324.726 288.17 324.846 288.17 324.989C288.17 325.135 288.12 325.257 288.019 325.354C287.922 325.451 287.8 325.5 287.654 325.5H287.612C287.421 325.507 287.238 325.556 287.064 325.646C286.894 325.737 286.741 325.853 286.605 325.996C286.473 326.138 286.365 326.3 286.282 326.481C286.198 326.662 286.15 326.848 286.136 327.039C286.122 327.234 286.148 327.425 286.214 327.613C286.28 327.804 286.395 327.98 286.558 328.14L285.906 328.933C285.537 328.71 285.209 328.467 284.92 328.203C284.631 327.938 284.377 327.663 284.158 327.378C283.939 327.093 283.753 326.803 283.6 326.507C283.447 326.211 283.323 325.919 283.23 325.63L283.183 325.5H282.249C282.103 325.5 281.981 325.451 281.883 325.354C281.786 325.257 281.737 325.135 281.737 324.989ZM287.15 324.989C287.15 324.846 287.199 324.728 287.296 324.634C287.394 324.537 287.514 324.484 287.656 324.477H287.661C287.954 324.477 288.201 324.43 288.402 324.337C288.604 324.239 288.78 324.112 288.929 323.956C289.079 323.796 289.209 323.615 289.321 323.413C289.432 323.208 289.541 322.997 289.649 322.782C289.74 322.594 289.83 322.415 289.921 322.244C290.011 322.074 290.115 321.917 290.234 321.775C290.547 321.392 290.926 321.201 291.371 321.201C291.896 321.201 292.333 321.411 292.681 321.832C292.959 322.166 293.126 322.585 293.181 323.09C293.216 323.33 293.221 323.564 293.197 323.794C293.173 324.023 293.122 324.241 293.046 324.446C292.945 324.697 292.811 324.903 292.644 325.067C292.477 325.227 292.284 325.337 292.065 325.396C291.675 325.5 291.235 325.453 290.745 325.255C290.408 325.123 290.055 324.921 289.686 324.65C289.661 324.674 289.644 324.69 289.634 324.697C289.115 325.232 288.458 325.5 287.661 325.5H287.656C287.514 325.5 287.394 325.451 287.296 325.354C287.199 325.253 287.15 325.131 287.15 324.989ZM290.286 323.804C290.602 324.037 290.891 324.206 291.152 324.31C291.413 324.415 291.63 324.443 291.804 324.394C291.863 324.38 291.921 324.34 291.976 324.274C292.032 324.208 292.079 324.123 292.117 324.018C292.159 323.914 292.187 323.794 292.201 323.658C292.218 323.523 292.216 323.377 292.195 323.22C292.192 323.196 292.183 323.154 292.169 323.095C292.155 323.036 292.135 322.97 292.107 322.897C292.082 322.823 292.049 322.749 292.008 322.672C291.966 322.592 291.915 322.521 291.856 322.458C291.797 322.392 291.728 322.338 291.648 322.297C291.568 322.255 291.475 322.234 291.371 322.234C291.301 322.234 291.235 322.255 291.173 322.297C291.114 322.335 291.053 322.396 290.99 322.479C290.931 322.563 290.867 322.667 290.797 322.792C290.731 322.917 290.655 323.065 290.568 323.236L290.286 323.804Z" fill="#A6A6A6"/>
<path d="M337.866 329.09C336.944 329.09 336.191 328.829 335.607 328.307C335.332 328.067 335.11 327.785 334.939 327.462C334.772 327.138 334.661 326.783 334.605 326.397C334.57 326.185 334.555 325.971 334.558 325.756C334.562 325.543 334.576 325.338 334.6 325.14C334.624 324.942 334.657 324.756 334.699 324.582C334.741 324.404 334.783 324.246 334.824 324.107C334.932 323.752 335.049 323.45 335.174 323.199C335.303 322.945 335.409 322.757 335.492 322.636L336.322 323.246C336.277 323.309 336.224 323.399 336.165 323.517C336.106 323.632 336.045 323.768 335.983 323.924C335.923 324.077 335.866 324.248 335.81 324.436C335.755 324.623 335.708 324.82 335.67 325.025C335.635 325.227 335.612 325.432 335.602 325.641C335.591 325.85 335.6 326.053 335.628 326.251C335.642 326.342 335.67 326.448 335.711 326.57C335.753 326.691 335.812 326.817 335.889 326.945C335.969 327.074 336.068 327.201 336.186 327.326C336.308 327.455 336.454 327.57 336.624 327.67C336.798 327.775 336.998 327.86 337.224 327.926C337.454 327.996 337.718 328.037 338.017 328.051C338.035 328.051 338.042 328.051 338.038 328.051C338.035 328.055 338.03 328.057 338.023 328.057C338.016 328.057 338.01 328.057 338.007 328.057C338.003 328.057 338.01 328.055 338.028 328.051C338.765 328.02 339.36 327.874 339.812 327.613C340.264 327.352 340.57 326.98 340.73 326.497C340.821 326.197 340.868 325.897 340.871 325.594C340.878 325.291 340.857 325.001 340.809 324.723C340.763 324.444 340.699 324.185 340.616 323.945C340.536 323.702 340.456 323.491 340.376 323.314C340.296 323.133 340.226 322.992 340.167 322.891C340.108 322.787 340.077 322.735 340.073 322.735L340.939 322.182C340.95 322.199 340.993 322.272 341.07 322.401C341.146 322.53 341.233 322.703 341.33 322.923C341.428 323.138 341.525 323.392 341.623 323.684C341.72 323.973 341.795 324.286 341.847 324.623C341.899 324.961 341.918 325.316 341.904 325.688C341.894 326.06 341.828 326.434 341.706 326.81C341.605 327.137 341.456 327.43 341.257 327.691C341.059 327.956 340.814 328.183 340.522 328.375C340.205 328.594 339.843 328.761 339.437 328.876C339.03 328.99 338.574 329.06 338.07 329.084C338.035 329.084 338 329.084 337.965 329.084C337.93 329.088 337.897 329.09 337.866 329.09ZM339.123 322.156L338.273 323.006L337.417 322.15L338.268 321.3L339.123 322.156ZM345.715 325.5C345.333 325.5 345.004 325.455 344.729 325.364C344.458 325.274 344.228 325.135 344.041 324.947C343.926 324.832 343.837 324.709 343.774 324.577C343.715 324.444 343.67 324.314 343.639 324.185C343.611 324.057 343.595 323.935 343.592 323.82C343.588 323.702 343.587 323.601 343.587 323.517V323.418C343.587 323.415 343.588 323.352 343.592 323.23C343.595 323.105 343.597 322.938 343.597 322.73C343.601 322.517 343.602 322.274 343.602 321.999C343.602 321.724 343.601 321.434 343.597 321.128C343.597 320.829 343.594 320.517 343.587 320.194C343.58 319.87 343.569 319.557 343.555 319.255C343.541 318.952 343.522 318.674 343.498 318.42C343.474 318.163 343.446 317.952 343.414 317.789L344.437 317.601C344.468 317.778 344.496 317.996 344.521 318.253C344.545 318.51 344.564 318.79 344.578 319.093C344.595 319.396 344.607 319.712 344.614 320.043C344.621 320.37 344.625 320.69 344.625 321.003C344.628 321.309 344.63 321.603 344.63 321.884C344.63 322.166 344.63 322.417 344.63 322.636C344.63 322.855 344.628 323.036 344.625 323.178C344.625 323.321 344.625 323.406 344.625 323.434V323.528C344.621 323.681 344.627 323.817 344.641 323.935C344.654 324.05 344.701 324.145 344.781 324.222C344.938 324.385 345.234 324.469 345.668 324.472H345.715C345.785 324.472 345.851 324.486 345.914 324.514C345.976 324.542 346.03 324.58 346.075 324.629C346.124 324.674 346.162 324.728 346.19 324.79C346.218 324.853 346.232 324.919 346.232 324.989C346.232 325.135 346.181 325.257 346.081 325.354C345.98 325.451 345.858 325.5 345.715 325.5ZM345.159 324.989C345.159 324.843 345.21 324.721 345.311 324.623C345.408 324.526 345.528 324.477 345.671 324.477H346.208C346.392 324.484 346.57 324.484 346.74 324.477C346.911 324.467 347.067 324.441 347.21 324.399C347.352 324.357 347.477 324.295 347.585 324.211C347.697 324.124 347.787 324.008 347.857 323.862C347.926 323.712 347.945 323.5 347.914 323.225C347.886 322.947 347.817 322.623 347.705 322.255C347.667 322.143 347.622 322.023 347.57 321.895C347.521 321.763 347.472 321.641 347.424 321.53C347.368 321.397 347.311 321.267 347.251 321.138L348.18 320.679C348.18 320.683 348.196 320.719 348.227 320.789C348.262 320.855 348.304 320.945 348.352 321.06C348.401 321.175 348.455 321.309 348.514 321.462C348.573 321.611 348.629 321.771 348.681 321.942C349.004 322.94 349.044 323.719 348.801 324.279C348.554 324.839 348.116 325.208 347.486 325.385C347.298 325.441 347.114 325.474 346.933 325.484C346.756 325.495 346.589 325.5 346.432 325.5H345.717H345.671C345.528 325.5 345.408 325.451 345.311 325.354C345.21 325.257 345.159 325.135 345.159 324.989ZM348.091 327.462L347.241 328.312L346.385 327.457L347.236 326.606L348.091 327.462ZM351.759 317.95C351.877 319.338 351.947 320.59 351.968 321.707C352.006 323.55 351.978 324.815 351.884 325.5L350.857 325.443C350.954 324.361 350.989 323.293 350.961 322.239C350.912 320.417 350.837 319.039 350.737 318.107L351.759 317.95ZM349.229 317.543C349.232 317.537 349.241 317.514 349.255 317.476C349.269 317.434 349.288 317.387 349.312 317.335C349.333 317.279 349.357 317.222 349.385 317.163C349.41 317.1 349.436 317.044 349.464 316.996C349.575 316.818 349.704 316.677 349.85 316.573C349.996 316.465 350.147 316.397 350.304 316.37C350.338 316.363 350.377 316.359 350.418 316.359C350.46 316.356 350.497 316.354 350.528 316.354C350.681 316.354 350.818 316.373 350.94 316.411C351.065 316.45 351.182 316.491 351.29 316.537C351.384 316.575 351.476 316.608 351.566 316.636C351.66 316.663 351.761 316.679 351.869 316.683C351.952 316.686 352.034 316.667 352.114 316.625C352.194 316.583 352.267 316.535 352.333 316.479C352.399 316.423 352.457 316.368 352.505 316.312C352.554 316.257 352.589 316.215 352.61 316.187L353.204 316.573C353.201 316.58 353.184 316.606 353.152 316.651C353.121 316.697 353.076 316.752 353.017 316.818C352.961 316.881 352.893 316.949 352.813 317.022C352.733 317.091 352.643 317.156 352.542 317.215C352.444 317.274 352.337 317.323 352.218 317.361C352.1 317.399 351.975 317.417 351.843 317.413C351.704 317.41 351.573 317.39 351.451 317.356C351.33 317.321 351.217 317.284 351.112 317.246L351.029 317.215C350.917 317.173 350.815 317.138 350.721 317.11C350.627 317.083 350.526 317.077 350.418 317.095C350.356 317.102 350.297 317.133 350.241 317.189C350.185 317.241 350.135 317.303 350.09 317.377C350.048 317.446 350.011 317.517 349.98 317.59C349.952 317.66 349.931 317.716 349.917 317.757L349.229 317.543Z" fill="#A6A6A6"/>
</g>
<defs>
<filter id="filter0_d_4261_40415" x="0" y="0" width="380" height="366" filterUnits="userSpaceOnUse" color-interpolation-filters="sRGB">
<feFlood flood-opacity="0" result="BackgroundImageFix"/>
<feColorMatrix in="SourceAlpha" type="matrix" values="0 0 0 0 0 0 0 0 0 0 0 0 0 0 0 0 0 0 127 0" result="hardAlpha"/>
<feOffset/>
<feGaussianBlur stdDeviation="2"/>
<feComposite in2="hardAlpha" operator="out"/>
<feColorMatrix type="matrix" values="0 0 0 0 0 0 0 0 0 0 0 0 0 0 0 0 0 0 0.15 0"/>
<feBlend mode="normal" in2="BackgroundImageFix" result="effect1_dropShadow_4261_40415"/>
<feBlend mode="normal" in="SourceGraphic" in2="effect1_dropShadow_4261_40415" result="shape"/>
</filter>
<linearGradient id="paint0_linear_4261_40415" x1="183.668" y1="39.9692" x2="181.741" y2="303.963" gradientUnits="userSpaceOnUse">
<stop stop-color="#FF764C" stop-opacity="0.24"/>
<stop offset="1" stop-color="#FF7E07" stop-opacity="0"/>
</linearGradient>
</defs>
</svg>
