<svg width="22" height="22" viewBox="0 0 22 22" fill="none" xmlns="http://www.w3.org/2000/svg">
<path fill-rule="evenodd" clip-rule="evenodd" d="M1 10.9997C1.00034 6.22924 4.37046 2.12335 9.04934 1.19299C13.7282 0.262639 18.4127 2.76694 20.238 7.17437C22.0634 11.5818 20.5211 16.6648 16.5544 19.3149C12.5878 21.965 7.30149 21.4441 3.92842 18.0707C2.0532 16.1953 0.999809 13.6518 1 10.9997Z" stroke="url(#paint0_linear_5185_21803)" stroke-width="1.5" stroke-linecap="round" stroke-linejoin="round"/>
<path d="M9.13832 15.6557C8.85214 15.6557 8.56596 15.5455 8.34003 15.3093L5.3276 12.1604C4.8908 11.7038 4.8908 10.948 5.3276 10.4914C5.7644 10.0348 6.48738 10.0348 6.92419 10.4914L9.13832 12.8059L14.3649 7.34245C14.8017 6.88585 15.5247 6.88585 15.9615 7.34245C16.3983 7.79905 16.3983 8.5548 15.9615 9.0114L9.93661 15.3093C9.71068 15.5455 9.4245 15.6557 9.13832 15.6557Z" fill="url(#paint1_linear_5185_21803)"/>
<defs>
<linearGradient id="paint0_linear_5185_21803" x1="11" y1="1" x2="11" y2="21" gradientUnits="userSpaceOnUse">
<stop stop-color="#FF9900"/>
<stop offset="1" stop-color="#636363"/>
</linearGradient>
<linearGradient id="paint1_linear_5185_21803" x1="10.6445" y1="7" x2="10.6445" y2="15.6557" gradientUnits="userSpaceOnUse">
<stop stop-color="#FF9900"/>
<stop offset="1" stop-color="#636363"/>
</linearGradient>
</defs>
</svg>
