<svg width="206" height="133" viewBox="0 0 206 133" fill="none" xmlns="http://www.w3.org/2000/svg">
<path d="M25.1072 51.4035C22.8984 54.1431 19.6033 58.2517 14.342 59.8807C11.4485 60.7689 8.59685 60.7328 6.0659 60.7328C3.93656 60.6952 1.72771 60.6952 1.00397 61.3249C0.281664 61.9545 0.241238 64.0644 0.241238 66.0632C0.241238 67.36 0.2008 68.8403 0 70.322C0.884098 72.6168 1.40558 73.3201 1.72772 73.4313C2.45003 73.7649 5.06187 73.024 6.62782 72.5792C10.6048 71.4686 16.6317 69.766 21.1707 74.2458C22.7771 75.8011 23.4604 77.615 23.9833 78.948C24.1032 79.244 24.2636 79.6874 24.4239 79.9834C24.9873 79.9473 26.1112 79.6513 27.5573 78.8729C31.1327 76.9853 36.3549 74.2082 41.8589 76.4669C45.4342 77.911 49.5326 81.65 48.6889 91.0168C48.0851 97.7552 46.9612 104.381 45.3548 110.897C46.5596 110.712 47.7644 110.639 49.0501 110.675C50.8573 110.75 52.5041 111.046 53.9502 111.304L68.3731 114.008C71.8676 114.674 76.6883 115.562 80.3836 118.709C81.428 119.598 82.3526 120.598 83.1154 121.486C83.6383 122.078 84.4415 122.966 84.924 123.337C85.0843 123.3 85.2851 123.188 85.4859 123.152C86.1692 122.892 86.8915 122.67 87.6153 122.485C95.6083 120.634 101.876 126.891 104.246 129.26C106.456 131.482 107.981 132.518 109.026 133C109.468 132.444 109.91 131.889 110.352 131.371C111.196 130.37 111.999 129.408 112.36 128.556C113.566 125.892 111.838 122.819 108.865 118.043C106.496 114.193 103.804 109.787 103.322 104.826C102.84 99.9388 104.608 95.2367 108.344 91.2017C112.964 86.241 120.354 82.8717 127.586 82.4269C132.407 82.1309 136.625 82.9093 140.039 84.6856C143.092 86.3146 145.301 88.6094 147.23 90.6457C149.037 92.5346 150.604 94.1637 152.292 94.7933C153.497 95.2006 155.184 95.2366 156.991 95.2742C159.682 95.3478 162.736 95.4215 165.829 96.6432C167.396 97.2729 168.682 98.0874 169.766 98.8283C170.208 99.1243 170.65 99.4204 171.132 99.6803C176.194 102.567 183.666 101.864 194.593 97.5328C198.931 95.8287 203.51 93.6452 204.676 90.4608C205.439 88.3134 204.836 85.3889 204.153 82.3157C203.39 78.7992 202.587 74.9866 203.51 71.135C203.47 71.0253 203.431 70.9502 203.39 70.839C203.269 70.3581 200.979 69.4699 197.967 69.8396C197.083 69.9508 196.159 70.0996 195.276 70.2469C191.299 70.9141 186.316 71.7286 181.536 69.6172C178.885 68.4706 177.038 66.7304 175.43 65.2126C174.385 64.2493 173.422 63.3611 172.538 62.8802C170.047 61.5473 166.19 62.6578 163.661 63.9908C161.651 65.0638 159.723 66.4704 157.715 67.9521C155.867 69.2851 153.979 70.6917 151.85 71.9496C143.574 76.8366 131.161 78.9104 122.163 72.468C117.945 69.4324 115.333 65.1014 113.003 61.2512C109.991 56.2905 107.942 53.2535 104.769 52.6989C103.161 52.4029 101.033 52.8462 98.7821 53.291C95.2472 53.9943 91.2701 54.7727 86.9724 53.5134C82.7542 52.2541 79.8621 49.4033 77.5724 47.1086L76.6478 46.2204C69.2168 39.001 58.8113 34.1877 48.0851 32.9659L47.0016 32.8547C44.7119 32.6323 42.1001 32.3362 39.5287 31.2632C37.2795 30.3375 35.5517 29.0421 34.0262 27.894C33.1017 27.1907 32.2176 26.5249 31.4144 26.1177C27.6786 24.1551 22.2556 25.1169 16.5508 26.4137C15.908 26.561 14.6627 26.821 14.342 27.0795C14.342 27.117 14.3016 27.5604 14.4619 27.8204C14.8231 28.45 15.8675 28.967 16.9929 29.0421C17.3945 29.0782 17.7961 29.0782 18.1977 29.0782C19.6437 29.1158 21.4119 29.1533 23.3405 29.8191C28.9643 31.8178 31.0128 37.5193 30.1287 42.1479C29.4454 45.998 26.9549 49.1073 25.1072 51.4035Z" fill="url(#paint0_linear_2611_73526)"/>
<path fill-rule="evenodd" clip-rule="evenodd" d="M81.8407 72.2485C81.8407 75.9756 78.8193 78.997 75.0922 78.997C71.3651 78.997 68.3438 75.9756 68.3438 72.2485C68.3438 68.5214 71.3651 65.5 75.0922 65.5C76.882 65.5 78.5985 66.211 79.8641 67.4766C81.1297 68.7422 81.8407 70.4587 81.8407 72.2485Z" stroke="#303030" stroke-width="3" stroke-linecap="round" stroke-linejoin="round"/>
<path d="M76.5906 78.9978C76.5906 78.1694 75.9191 77.4978 75.0906 77.4978C74.2622 77.4978 73.5906 78.1694 73.5906 78.9978H76.5906ZM73.5906 89.1205C73.5906 89.949 74.2622 90.6205 75.0906 90.6205C75.9191 90.6205 76.5906 89.949 76.5906 89.1205H73.5906ZM74.9317 68.0803C74.108 68.1682 73.5114 68.9072 73.5993 69.7309C73.6871 70.5547 74.4261 71.1512 75.2499 71.0634L74.9317 68.0803ZM77.0354 72.1133C77.359 72.8759 78.2396 73.2317 79.0022 72.908C79.7648 72.5843 80.1206 71.7037 79.7969 70.9411L77.0354 72.1133ZM70.0153 87.2379C70.8394 87.1529 71.4385 86.4159 71.3535 85.5919C71.2684 84.7678 70.5315 84.1687 69.7074 84.2538L70.0153 87.2379ZM64.3715 87.4431L63.6565 86.1245C63.6212 86.1436 63.5866 86.1642 63.5529 86.1862L64.3715 87.4431ZM63.6359 89.8051L62.4814 90.7627C62.5333 90.8253 62.5903 90.8836 62.6517 90.937L63.6359 89.8051ZM67.9802 91.779L68.307 90.315C68.2668 90.3061 68.2263 90.2987 68.1855 90.2931L67.9802 91.779ZM75.0915 92.4943L75.1198 90.9946C75.1008 90.9942 75.0818 90.9942 75.0628 90.9946L75.0915 92.4943ZM82.2027 91.7773L81.9953 90.2917C81.9551 90.2973 81.9152 90.3046 81.8756 90.3134L82.2027 91.7773ZM86.547 89.7949L87.5333 90.9251C87.5931 90.8729 87.6487 90.816 87.6995 90.755L86.547 89.7949ZM85.8114 87.433L86.6327 86.1777C86.5974 86.1547 86.5612 86.1331 86.5241 86.1131L85.8114 87.433ZM80.4731 84.2535C79.649 84.1698 78.9129 84.7701 78.8292 85.5942C78.7455 86.4184 79.3458 87.1544 80.1699 87.2382L80.4731 84.2535ZM73.5906 78.9978V89.1205H76.5906V78.9978H73.5906ZM75.2499 71.0634C76.0113 70.9822 76.7362 71.4085 77.0354 72.1133L79.7969 70.9411C78.9817 69.0206 77.0064 67.859 74.9317 68.0803L75.2499 71.0634ZM69.7074 84.2538C67.5869 84.4726 65.5305 85.1083 63.6565 86.1245L65.0865 88.7617C66.613 87.934 68.288 87.4162 70.0153 87.2379L69.7074 84.2538ZM63.5529 86.1862C62.8543 86.6411 62.1746 87.2793 61.901 88.1577C61.5934 89.1451 61.9048 90.0675 62.4814 90.7627L64.7905 88.8475C64.7387 88.785 64.755 88.7821 64.77 88.842C64.7876 88.9124 64.7835 88.9912 64.7652 89.05C64.7505 89.0972 64.7421 89.0821 64.8058 89.0107C64.8703 88.9384 64.9891 88.8309 65.1901 88.7L63.5529 86.1862ZM62.6517 90.937C64.0973 92.1939 65.8775 93.0027 67.775 93.2649L68.1855 90.2931C66.865 90.1107 65.6261 89.5477 64.6201 88.6731L62.6517 90.937ZM67.6535 93.243C70.1036 93.7898 72.6102 94.042 75.1201 93.9941L75.0628 90.9946C72.7919 91.038 70.5238 90.8098 68.307 90.315L67.6535 93.243ZM75.0632 93.9941C77.5731 94.0414 80.0798 93.7887 82.5298 93.2412L81.8756 90.3134C79.6588 90.8088 77.3908 91.0374 75.1198 90.9946L75.0632 93.9941ZM82.41 93.2629C84.3086 92.9979 86.0889 92.1855 87.5333 90.9251L85.5608 88.6648C84.5556 89.5419 83.3166 90.1073 81.9953 90.2917L82.41 93.2629ZM87.6995 90.755C88.2783 90.0601 88.5896 89.1375 88.282 88.1501C88.0087 87.2729 87.3302 86.6341 86.6327 86.1777L84.9902 88.6882C85.1916 88.82 85.311 88.9282 85.3761 89.0013C85.4404 89.0735 85.4323 89.0892 85.4177 89.0424C85.3995 88.9839 85.3952 88.9047 85.4131 88.833C85.4284 88.772 85.4455 88.7736 85.3945 88.8349L87.6995 90.755ZM86.5241 86.1131C84.6492 85.1008 82.5929 84.4689 80.4731 84.2535L80.1699 87.2382C81.8966 87.4136 83.5716 87.9283 85.0988 88.7529L86.5241 86.1131Z" fill="#303030"/>
<path d="M131.202 41.7696C130.602 41.7696 129.985 41.7391 129.35 41.6783C128.724 41.6261 128.102 41.5174 127.485 41.3522C126.867 41.1957 126.272 40.9783 125.698 40.7C125.124 40.4217 124.589 40.0609 124.093 39.6174C123.598 39.1826 123.167 38.7 122.802 38.1696C122.445 37.6478 122.15 37.0913 121.915 36.5C121.68 35.9087 121.502 35.2913 121.38 34.6478C121.267 34.0043 121.211 33.3478 121.211 32.6783C121.211 31.2522 121.437 29.813 121.889 28.3609C122.35 26.9087 123.028 25.5043 123.924 24.1478L126.859 26.2609C126.685 26.4957 126.48 26.8478 126.245 27.3174C126.011 27.787 125.785 28.3217 125.567 28.9217C125.35 29.5217 125.167 30.1609 125.019 30.8391C124.872 31.5087 124.798 32.1565 124.798 32.7826C124.798 33.5043 124.959 34.1565 125.28 34.7391C125.611 35.3217 126.045 35.8217 126.585 36.2391C127.132 36.6565 127.759 36.9826 128.463 37.2174C129.176 37.4522 129.915 37.5783 130.68 37.5957C131.298 37.6043 131.898 37.5522 132.48 37.4391C133.063 37.3261 133.615 37.1609 134.137 36.9435C134.659 36.7261 135.132 36.4609 135.559 36.1478C135.993 35.8348 136.363 35.4826 136.667 35.0913C136.98 34.7087 137.215 34.2913 137.372 33.8391C137.537 33.387 137.606 32.913 137.58 32.4174C137.563 32.0435 137.493 31.6217 137.372 31.1522C137.25 30.6826 137.102 30.2043 136.928 29.7174C136.763 29.2217 136.576 28.7348 136.367 28.2565C136.167 27.7783 135.976 27.3391 135.793 26.9391C135.619 26.5304 135.467 26.1826 135.337 25.8957C135.206 25.6087 135.124 25.413 135.089 25.3087L138.637 23.3391C138.663 23.3739 138.737 23.5304 138.859 23.8087C138.989 24.087 139.141 24.4478 139.315 24.8913C139.498 25.3261 139.689 25.8261 139.889 26.3913C140.089 26.9565 140.276 27.5478 140.45 28.1652C140.632 28.7826 140.789 29.4087 140.919 30.0435C141.05 30.6783 141.132 31.2826 141.167 31.8565C141.176 31.9261 141.18 32.0087 141.18 32.1043C141.18 32.2087 141.18 32.2957 141.18 32.3652C141.18 33.1391 141.093 33.9087 140.919 34.6739C140.745 35.4391 140.476 36.1696 140.111 36.8652C139.754 37.5696 139.302 38.2174 138.754 38.8087C138.215 39.4087 137.576 39.9261 136.837 40.3609C136.098 40.8043 135.259 41.1478 134.319 41.3913C133.38 41.6435 132.341 41.7696 131.202 41.7696ZM131.202 20.2348L134.098 23.1304L131.202 26.0261L128.306 23.1304L131.202 20.2348ZM143.306 32.8217C143.349 32.1087 143.393 31.3696 143.436 30.6043C143.48 29.8391 143.514 29.0826 143.54 28.3348C143.575 27.587 143.597 26.8609 143.606 26.1565C143.614 25.4522 143.606 24.8043 143.58 24.213C143.527 22.9783 143.475 21.8957 143.423 20.9652C143.38 20.0261 143.332 19.1957 143.28 18.4739C143.236 17.7522 143.188 17.1217 143.136 16.5826C143.093 16.0348 143.045 15.5348 142.993 15.0826C142.94 14.6304 142.884 14.2087 142.823 13.8174C142.762 13.4174 142.697 13.0043 142.627 12.5783L146.658 11.2478C146.849 12.413 147.001 13.587 147.114 14.7696C147.236 15.9522 147.327 17.087 147.388 18.1739C147.449 19.2522 147.488 20.2565 147.506 21.187C147.532 22.1174 147.545 22.913 147.545 23.5739C147.545 24.1739 147.54 24.8217 147.532 25.5174C147.532 26.213 147.523 26.9348 147.506 27.6826C147.497 28.4304 147.48 29.187 147.453 29.9522C147.427 30.7174 147.388 31.4652 147.336 32.1957L143.306 32.8217ZM159.412 32.7826C159.221 32.7826 158.951 32.7696 158.603 32.7435C158.255 32.7174 157.881 32.6217 157.481 32.4565C157.29 33.5348 156.929 34.5565 156.399 35.5217C155.877 36.4957 155.229 37.4043 154.455 38.2478C153.681 39.1 152.799 39.8826 151.808 40.5957C150.816 41.3087 149.76 41.9478 148.638 42.513L146.251 39.213C146.868 38.9 147.49 38.5565 148.116 38.1826C148.742 37.8174 149.338 37.4261 149.903 37.0087C150.477 36.6 151.008 36.1696 151.494 35.7174C151.99 35.2739 152.421 34.813 152.786 34.3348C153.151 33.8565 153.438 33.3652 153.647 32.8609C153.855 32.3652 153.96 31.8609 153.96 31.3478C153.96 31.3217 153.955 31.2826 153.947 31.2304C153.947 31.1783 153.947 31.1261 153.947 31.0739C153.947 31.0217 153.942 30.9826 153.934 30.9565C153.934 30.9304 153.934 30.9348 153.934 30.9696V30.9826C153.873 30.4783 153.786 29.9957 153.673 29.5348C153.56 29.0739 153.416 28.6043 153.242 28.1261C153.077 27.6478 152.881 27.1478 152.655 26.6261C152.429 26.0957 152.177 25.5174 151.899 24.8913L155.668 23.2478C156.016 24.2913 156.342 25.1609 156.647 25.8565C156.951 26.5522 157.247 27.1087 157.534 27.5261C157.829 27.9435 158.125 28.2391 158.421 28.413C158.716 28.5783 159.029 28.6609 159.36 28.6609H159.425C159.712 28.6609 159.981 28.7174 160.234 28.8304C160.486 28.9435 160.703 29.0957 160.886 29.287C161.077 29.4696 161.225 29.687 161.329 29.9391C161.442 30.1913 161.499 30.4565 161.499 30.7348C161.499 31.0217 161.442 31.2913 161.329 31.5435C161.225 31.7957 161.077 32.013 160.886 32.1957C160.703 32.3783 160.486 32.5217 160.234 32.6261C159.981 32.7304 159.708 32.7826 159.412 32.7826ZM157.225 30.7217C157.225 30.4348 157.277 30.1652 157.381 29.913C157.486 29.6609 157.634 29.4435 157.825 29.2609C158.008 29.0783 158.225 28.9348 158.477 28.8304C158.729 28.7174 158.999 28.6609 159.286 28.6609H159.964C159.99 28.087 160.077 27.4652 160.225 26.7957C160.381 26.1174 160.59 25.4391 160.851 24.7609C161.112 24.0739 161.421 23.413 161.777 22.7783C162.134 22.1348 162.525 21.5609 162.951 21.0565C163.386 20.5522 163.855 20.1435 164.36 19.8304C164.864 19.5087 165.39 19.3304 165.938 19.2957C166.521 19.3043 167.06 19.4696 167.555 19.7913C168.06 20.1043 168.494 20.5174 168.86 21.0304C169.225 21.5435 169.512 22.1261 169.721 22.7783C169.929 23.4304 170.034 24.0913 170.034 24.7609C170.034 25.5522 169.86 26.3217 169.512 27.0696C169.173 27.8174 168.721 28.5174 168.155 29.1696C167.599 29.813 166.964 30.3957 166.251 30.9174C165.547 31.4304 164.829 31.8522 164.099 32.1826C164.16 32.3913 164.286 32.6391 164.477 32.9261C164.677 33.2217 164.899 33.5174 165.142 33.813C165.394 34.1087 165.647 34.387 165.899 34.6478C166.151 34.9087 166.364 35.1174 166.538 35.2739C166.529 34.7696 166.603 34.2522 166.76 33.7217C166.916 33.2 167.134 32.6957 167.412 32.2087C167.699 31.7217 168.034 31.2652 168.416 30.8391C168.799 30.4043 169.208 30.0261 169.642 29.7043C170.086 29.3826 170.542 29.1304 171.012 28.9478C171.481 28.7565 171.947 28.6609 172.408 28.6609C172.694 28.6609 172.964 28.7174 173.216 28.8304C173.468 28.9348 173.686 29.0783 173.868 29.2609C174.06 29.4435 174.208 29.6609 174.312 29.913C174.425 30.1652 174.481 30.4348 174.481 30.7217C174.481 31.0087 174.425 31.2783 174.312 31.5304C174.208 31.7826 174.06 32 173.868 32.1826C173.686 32.3739 173.468 32.5217 173.216 32.6261C172.964 32.7304 172.694 32.7826 172.408 32.7826H172.355C171.973 32.8348 171.603 32.9609 171.247 33.1609C170.89 33.3696 170.573 33.6261 170.294 33.9304C170.025 34.2435 169.808 34.587 169.642 34.9609C169.477 35.3435 169.394 35.7304 169.394 36.1217C169.394 36.2957 169.408 36.4565 169.434 36.6043C169.46 36.7609 169.508 36.9174 169.577 37.0739C169.647 37.2304 169.738 37.3957 169.851 37.5696C169.973 37.7435 170.125 37.9304 170.308 38.1304L167.921 41.0391C166.877 40.4043 165.96 39.7565 165.168 39.0957C164.377 38.4348 163.69 37.7565 163.108 37.0609C162.534 36.3739 162.047 35.6739 161.647 34.9609C161.255 34.2478 160.934 33.5217 160.681 32.7826H160.629H159.286C158.999 32.7826 158.729 32.7304 158.477 32.6261C158.225 32.5217 158.008 32.3739 157.825 32.1826C157.634 32 157.486 31.7826 157.381 31.5304C157.277 31.2783 157.225 31.0087 157.225 30.7217ZM166.721 25.3348C166.738 25.0913 166.734 24.8348 166.708 24.5652C166.69 24.287 166.647 24.0217 166.577 23.7696C166.516 23.5087 166.429 23.2739 166.316 23.0652C166.203 22.8565 166.064 22.7 165.899 22.5957C165.734 22.6826 165.551 22.8478 165.351 23.0913C165.16 23.3348 164.964 23.6304 164.764 23.9783C164.564 24.3261 164.368 24.7087 164.177 25.1261C163.994 25.5348 163.829 25.9522 163.681 26.3783C163.534 26.8043 163.412 27.2217 163.316 27.6304C163.229 28.0304 163.181 28.3913 163.173 28.713C163.547 28.6435 163.934 28.5043 164.334 28.2957C164.742 28.0783 165.116 27.8174 165.455 27.513C165.803 27.2 166.094 26.8565 166.329 26.4826C166.564 26.1087 166.694 25.7261 166.721 25.3348ZM182.921 15.7609L180.416 18.2783L177.938 15.8L175.486 18.2522L172.955 15.7348L175.46 13.2174L177.938 15.6957L180.39 13.2435L182.921 15.7609ZM169.864 30.7217C169.864 30.4348 169.921 30.1652 170.034 29.913C170.138 29.6609 170.281 29.4435 170.464 29.2609C170.647 29.0696 170.864 28.9217 171.116 28.8174C171.368 28.713 171.638 28.6609 171.925 28.6609H173.373H173.999C174.39 28.6609 174.821 28.6435 175.29 28.6087C175.76 28.5739 176.212 28.5174 176.647 28.4391C177.081 28.3609 177.473 28.2565 177.821 28.1261C178.177 27.987 178.438 27.813 178.603 27.6043C178.699 27.4565 178.747 27.2565 178.747 27.0043C178.747 26.6304 178.655 26.187 178.473 25.6739C178.299 25.1609 178.09 24.6391 177.847 24.1087C177.603 23.5783 177.351 23.0696 177.09 22.5826C176.838 22.0957 176.634 21.6913 176.477 21.3696L180.195 19.5435C180.464 20.013 180.725 20.5696 180.977 21.213C181.229 21.8478 181.455 22.5043 181.655 23.1826C181.855 23.8522 182.016 24.513 182.138 25.1652C182.26 25.8087 182.321 26.3696 182.321 26.8478C182.321 27.7261 182.164 28.5304 181.851 29.2609C181.486 30.0783 180.986 30.7565 180.351 31.2957C179.716 31.8261 178.955 32.2174 178.068 32.4696C177.808 32.5391 177.481 32.5957 177.09 32.6391C176.699 32.6826 176.303 32.713 175.903 32.7304C175.503 32.7565 175.125 32.7696 174.768 32.7696C174.412 32.7783 174.134 32.7826 173.934 32.7826H172.042H171.925C171.638 32.7826 171.368 32.7304 171.116 32.6261C170.864 32.5217 170.647 32.3739 170.464 32.1826C170.281 32 170.138 31.7826 170.034 31.5304C169.921 31.2783 169.864 31.0087 169.864 30.7217Z" fill="#303030"/>
<defs>
<linearGradient id="paint0_linear_2611_73526" x1="102.516" y1="25" x2="102.516" y2="133" gradientUnits="userSpaceOnUse">
<stop stop-color="#53D37F"/>
<stop offset="1" stop-color="#98CCDB"/>
</linearGradient>
</defs>
</svg>
