<svg width="23" height="24" viewBox="0 0 23 24" fill="none" xmlns="http://www.w3.org/2000/svg">
<path fill-rule="evenodd" clip-rule="evenodd" d="M3.99805 4.14286V19.8571C3.99805 21.5929 5.34108 23 6.99779 23H18.9968C20.6535 23 21.9965 21.5929 21.9965 19.8571V4.14286C21.9965 2.4071 20.6535 1 18.9968 1H6.99779C5.34108 1 3.99805 2.4071 3.99805 4.14286Z" stroke="url(#paint0_linear_5212_13579)" stroke-width="1.5" stroke-linecap="round" stroke-linejoin="round"/>
<path fill-rule="evenodd" clip-rule="evenodd" d="M15.9975 8.85721C15.9975 10.593 14.6545 12.0001 12.9978 12.0001C11.3411 12.0001 9.99805 10.593 9.99805 8.85721C9.99805 7.12146 11.3411 5.71436 12.9978 5.71436C14.6545 5.71436 15.9975 7.12146 15.9975 8.85721Z" stroke="url(#paint1_linear_5212_13579)" stroke-width="1.5" stroke-linecap="round" stroke-linejoin="round"/>
<path d="M3.5384 19.2665C3.21224 19.5218 3.15483 19.9932 3.41016 20.3193C3.66549 20.6455 4.13688 20.7029 4.46304 20.4476L3.5384 19.2665ZM21.5368 20.4476C21.863 20.7029 22.3344 20.6455 22.5897 20.3193C22.8451 19.9932 22.7876 19.5218 22.4615 19.2665L21.5368 20.4476ZM1 6.53564C0.585786 6.53564 0.25 6.87143 0.25 7.28564C0.25 7.69986 0.585786 8.03564 1 8.03564V6.53564ZM3.99974 8.03564C4.41395 8.03564 4.74974 7.69986 4.74974 7.28564C4.74974 6.87143 4.41395 6.53564 3.99974 6.53564V8.03564ZM1 11.2501C0.585786 11.2501 0.25 11.5859 0.25 12.0001C0.25 12.4143 0.585786 12.7501 1 12.7501V11.2501ZM3.99974 12.7501C4.41395 12.7501 4.74974 12.4143 4.74974 12.0001C4.74974 11.5859 4.41395 11.2501 3.99974 11.2501V12.7501ZM1 15.9642C0.585786 15.9642 0.25 16.2999 0.25 16.7142C0.25 17.1284 0.585786 17.4642 1 17.4642V15.9642ZM3.99974 17.4642C4.41395 17.4642 4.74974 17.1284 4.74974 16.7142C4.74974 16.2999 4.41395 15.9642 3.99974 15.9642V17.4642ZM4.46304 20.4476C9.52833 16.4822 16.4715 16.4822 21.5368 20.4476L22.4615 19.2665C16.8531 14.8759 9.14681 14.8759 3.5384 19.2665L4.46304 20.4476ZM1 8.03564H3.99974V6.53564H1V8.03564ZM1 12.7501H3.99974V11.2501H1V12.7501ZM1 17.4642H3.99974V15.9642H1V17.4642Z" fill="url(#paint2_linear_5212_13579)"/>
<defs>
<linearGradient id="paint0_linear_5212_13579" x1="12.9973" y1="1" x2="12.9973" y2="23" gradientUnits="userSpaceOnUse">
<stop stop-color="#5ADA1D"/>
<stop offset="1" stop-color="#303030"/>
</linearGradient>
<linearGradient id="paint1_linear_5212_13579" x1="12.9978" y1="5.71436" x2="12.9978" y2="12.0001" gradientUnits="userSpaceOnUse">
<stop stop-color="#5ADA1D"/>
<stop offset="1" stop-color="#303030"/>
</linearGradient>
<linearGradient id="paint2_linear_5212_13579" x1="11.4996" y1="7.28564" x2="11.4996" y2="19.8568" gradientUnits="userSpaceOnUse">
<stop stop-color="#5ADA1D"/>
<stop offset="1" stop-color="#303030"/>
</linearGradient>
</defs>
</svg>
