<svg width="25" height="24" viewBox="0 0 25 24" fill="none" xmlns="http://www.w3.org/2000/svg">
<path fill-rule="evenodd" clip-rule="evenodd" d="M12.5004 9.7998C13.1079 9.7998 13.6004 10.2544 13.6004 10.8152V17.5844C13.6004 18.1452 13.1079 18.5998 12.5004 18.5998C11.8929 18.5998 11.4004 18.1452 11.4004 17.5844V10.8152C11.4004 10.2544 11.8929 9.7998 12.5004 9.7998Z" fill="#00BD61"/>
<path fill-rule="evenodd" clip-rule="evenodd" d="M8.09961 14.2001C8.09961 13.5926 8.55421 13.1001 9.11499 13.1001H15.8842C16.445 13.1001 16.8996 13.5926 16.8996 14.2001C16.8996 14.8076 16.445 15.3001 15.8842 15.3001H9.11499C8.55421 15.3001 8.09961 14.8076 8.09961 14.2001Z" fill="#00BD61"/>
<path d="M23.5 10.9V17.5C23.5 21.9 22.4 23 18 23H7C2.6 23 1.5 21.9 1.5 17.5V6.5C1.5 2.1 2.6 1 7 1H8.65C10.3 1 10.663 1.484 11.29 2.32L12.94 4.52C13.358 5.07 13.6 5.4 14.7 5.4H18C22.4 5.4 23.5 6.5 23.5 10.9Z" stroke="#636363" stroke-width="2" stroke-miterlimit="10"/>
</svg>
