<svg width="16" height="22" viewBox="0 0 16 22" fill="none" xmlns="http://www.w3.org/2000/svg">
<path d="M5.96181 10.9148C5.66935 10.6215 5.19448 10.6207 4.90115 10.9132C4.60782 11.2057 4.6071 11.6805 4.89956 11.9739L5.96181 10.9148ZM7.11556 14.1965C7.40802 14.4899 7.88289 14.4906 8.17622 14.1981C8.46955 13.9057 8.47027 13.4308 8.17781 13.1375L7.11556 14.1965ZM4.89956 15.3601C4.6071 15.6535 4.60782 16.1283 4.90115 16.4208C5.19448 16.7132 5.66935 16.7125 5.96181 16.4192L4.89956 15.3601ZM8.17781 14.1965C8.47027 13.9032 8.46955 13.4283 8.17622 13.1359C7.88289 12.8434 7.40802 12.8441 7.11556 13.1375L8.17781 14.1965ZM10.3938 11.9739C10.6863 11.6805 10.6856 11.2057 10.3922 10.9132C10.0989 10.6207 9.62402 10.6215 9.33157 10.9148L10.3938 11.9739ZM7.11556 13.1375C6.82311 13.4308 6.82382 13.9057 7.11715 14.1981C7.41049 14.4906 7.88536 14.4899 8.17781 14.1965L7.11556 13.1375ZM9.33157 16.4192C9.62402 16.7125 10.0989 16.7132 10.3922 16.4208C10.6856 16.1283 10.6863 15.6535 10.3938 15.3601L9.33157 16.4192ZM8.17781 13.1375C7.88536 12.8441 7.41049 12.8434 7.11715 13.1359C6.82382 13.4283 6.82311 13.9032 7.11556 14.1965L8.17781 13.1375ZM9.98898 2.41699C10.4032 2.41699 10.739 2.08121 10.739 1.66699C10.739 1.25278 10.4032 0.916992 9.98898 0.916992V2.41699ZM5.5583 0.916992C5.14408 0.916992 4.8083 1.25278 4.8083 1.66699C4.8083 2.08121 5.14408 2.41699 5.5583 2.41699V0.916992ZM14.2934 5.08366C14.7076 5.08366 15.0434 4.74787 15.0434 4.33366C15.0434 3.91945 14.7076 3.58366 14.2934 3.58366V5.08366ZM1 3.58366C0.585786 3.58366 0.25 3.91945 0.25 4.33366C0.25 4.74787 0.585786 5.08366 1 5.08366V3.58366ZM1.97338 19.3573L1.44226 19.8869H1.44226L1.97338 19.3573ZM1 17.0003H1.75H1ZM4.89956 11.9739L7.11556 14.1965L8.17781 13.1375L5.96181 10.9148L4.89956 11.9739ZM5.96181 16.4192L8.17781 14.1965L7.11556 13.1375L4.89956 15.3601L5.96181 16.4192ZM9.33157 10.9148L7.11556 13.1375L8.17781 14.1965L10.3938 11.9739L9.33157 10.9148ZM10.3938 15.3601L8.17781 13.1375L7.11556 14.1965L9.33157 16.4192L10.3938 15.3601ZM9.98898 0.916992H5.5583V2.41699H9.98898V0.916992ZM14.2934 3.58366H1V5.08366H14.2934V3.58366ZM2.10734 7.75033H13.186V6.25033H2.10734V7.75033ZM13.186 7.75033C13.3813 7.75033 13.5434 7.90968 13.5434 8.11099H15.0434C15.0434 7.0855 14.2139 6.25033 13.186 6.25033V7.75033ZM13.5434 8.11099V17.0003H15.0434V8.11099H13.5434ZM13.5434 17.0003C13.5434 18.4292 12.3891 19.5837 10.97 19.5837V21.0837C13.2218 21.0837 15.0434 19.2534 15.0434 17.0003H13.5434ZM10.97 19.5837H4.32334V21.0837H10.97V19.5837ZM4.32334 19.5837C3.64158 19.5837 2.98728 19.312 2.50451 18.8278L1.44226 19.8869C2.20599 20.6529 3.2423 21.0837 4.32334 21.0837V19.5837ZM2.50451 18.8278C2.02166 18.3435 1.75 17.6862 1.75 17.0003H0.25C0.25 18.0826 0.678609 19.1209 1.44226 19.8869L2.50451 18.8278ZM1.75 17.0003V8.11099H0.25V17.0003H1.75ZM1.75 8.11099C1.75 7.90968 1.91211 7.75033 2.10734 7.75033V6.25033C1.07944 6.25033 0.25 7.0855 0.25 8.11099H1.75Z" fill="#CF2E2E"/>
</svg>
