<svg width="35" height="35" viewBox="0 0 35 35" fill="none" xmlns="http://www.w3.org/2000/svg">
<circle cx="17.2488" cy="17.2488" r="17.2488" fill="#CF2E2E"/>
<path d="M19.5568 17.5002L25.8228 11.2488C26.0972 10.9744 26.2514 10.6022 26.2514 10.2141C26.2514 9.82609 26.0972 9.45393 25.8228 9.17953C25.5484 8.90513 25.1762 8.75098 24.7882 8.75098C24.4001 8.75098 24.028 8.90513 23.7536 9.17953L17.5022 15.4455L11.2508 9.17953C10.9764 8.90513 10.6042 8.75098 10.2161 8.75098C9.82809 8.75098 9.45592 8.90513 9.18153 9.17953C8.90713 9.45393 8.75298 9.82609 8.75298 10.2141C8.75298 10.6022 8.90713 10.9744 9.18153 11.2488L15.4475 17.5002L9.18153 23.7516C9.04495 23.887 8.93654 24.0482 8.86256 24.2258C8.78858 24.4034 8.75049 24.5938 8.75049 24.7862C8.75049 24.9786 8.78858 25.169 8.86256 25.3466C8.93654 25.5242 9.04495 25.6853 9.18153 25.8208C9.31699 25.9574 9.47816 26.0658 9.65574 26.1398C9.83331 26.2138 10.0238 26.2518 10.2161 26.2518C10.4085 26.2518 10.599 26.2138 10.7765 26.1398C10.9541 26.0658 11.1153 25.9574 11.2508 25.8208L17.5022 19.5548L23.7536 25.8208C23.889 25.9574 24.0502 26.0658 24.2278 26.1398C24.4054 26.2138 24.5958 26.2518 24.7882 26.2518C24.9806 26.2518 25.171 26.2138 25.3486 26.1398C25.5262 26.0658 25.6873 25.9574 25.8228 25.8208C25.9594 25.6853 26.0678 25.5242 26.1418 25.3466C26.2158 25.169 26.2538 24.9786 26.2538 24.7862C26.2538 24.5938 26.2158 24.4034 26.1418 24.2258C26.0678 24.0482 25.9594 23.887 25.8228 23.7516L19.5568 17.5002Z" fill="white"/>
</svg>
