<svg width="18" height="27" viewBox="0 0 18 27" fill="none" xmlns="http://www.w3.org/2000/svg">
<path d="M7.06505 13.3888C6.68822 12.9851 6.05543 12.9633 5.65168 13.3401C5.24792 13.7169 5.22609 14.3497 5.60292 14.7535L7.06505 13.3888ZM8.27012 17.6113C8.64695 18.015 9.27974 18.0369 9.68349 17.66C10.0872 17.2832 10.1091 16.6504 9.73225 16.2467L8.27012 17.6113ZM5.60292 19.104C5.22609 19.5078 5.24792 20.1406 5.65168 20.5174C6.05543 20.8942 6.68822 20.8724 7.06505 20.4687L5.60292 19.104ZM9.73225 17.6109C10.1091 17.2071 10.0872 16.5743 9.68349 16.1975C9.27974 15.8207 8.64695 15.8425 8.27012 16.2462L9.73225 17.6109ZM12.3983 14.7535C12.7751 14.3497 12.7533 13.7169 12.3495 13.3401C11.9457 12.9633 11.313 12.9851 10.9361 13.3888L12.3983 14.7535ZM8.26893 16.2467C7.89211 16.6504 7.91394 17.2832 8.31769 17.66C8.72145 18.0369 9.35424 18.015 9.73107 17.6113L8.26893 16.2467ZM10.9361 20.4687C11.313 20.8724 11.9457 20.8942 12.3495 20.5174C12.7533 20.1406 12.7751 19.5078 12.3983 19.104L10.9361 20.4687ZM9.73107 16.2462C9.35424 15.8425 8.72145 15.8207 8.31769 16.1975C7.91394 16.5743 7.89211 17.2071 8.26893 17.6109L9.73107 16.2462ZM11.8191 2.5C12.3714 2.5 12.8191 2.05228 12.8191 1.5C12.8191 0.947715 12.3714 0.5 11.8191 0.5V2.5ZM6.48633 0.5C5.93404 0.5 5.48633 0.947715 5.48633 1.5C5.48633 2.05228 5.93404 2.5 6.48633 2.5V0.5ZM17 5.92843C17.5523 5.92843 18 5.48072 18 4.92843C18 4.37615 17.5523 3.92843 17 3.92843V5.92843ZM1 3.92843C0.447715 3.92843 0 4.37615 0 4.92843C0 5.48072 0.447715 5.92843 1 5.92843V3.92843ZM2.17157 24.2445L1.44051 24.9268L1.44051 24.9268L2.17157 24.2445ZM1 21.2139H2H1ZM5.60292 14.7535L8.27012 17.6113L9.73225 16.2467L7.06505 13.3888L5.60292 14.7535ZM7.06505 20.4687L9.73225 17.6109L8.27012 16.2462L5.60292 19.104L7.06505 20.4687ZM10.9361 13.3888L8.26893 16.2467L9.73107 17.6113L12.3983 14.7535L10.9361 13.3888ZM12.3983 19.104L9.73107 16.2462L8.26893 17.6109L10.9361 20.4687L12.3983 19.104ZM11.8191 0.5H6.48633V2.5H11.8191V0.5ZM17 3.92843H1V5.92843H17V3.92843ZM2.3328 9.35637H15.6672V7.35637H2.3328V9.35637ZM15.6672 9.35637C15.7871 9.35637 16 9.48188 16 9.78442H18C18 8.50958 17.0195 7.35637 15.6672 7.35637V9.35637ZM16 9.78442V21.2139H18V9.78442H16ZM16 21.2139C16 23.0948 14.593 24.4998 13 24.4998V26.4998C15.8253 26.4998 18 24.0671 18 21.2139H16ZM13 24.4998H5V26.4998H13V24.4998ZM5 24.4998C4.2275 24.4998 3.47142 24.1716 2.90264 23.5622L1.44051 24.9268C2.37202 25.9248 3.65077 26.4998 5 26.4998V24.4998ZM2.90264 23.5622C2.33168 22.9504 2 22.1068 2 21.2139H0C0 22.5944 0.511175 23.931 1.44051 24.9268L2.90264 23.5622ZM2 21.2139V9.78442H0V21.2139H2ZM2 9.78442C2 9.48188 2.21289 9.35637 2.3328 9.35637V7.35637C0.98054 7.35637 0 8.50958 0 9.78442H2Z" fill="#636363"/>
</svg>
