<svg width="19" height="16" viewBox="0 0 19 16" fill="none" xmlns="http://www.w3.org/2000/svg">
<path d="M18.2796 7.12822C18.6852 6.75344 18.7103 6.12077 18.3355 5.71511C17.9607 5.30945 17.328 5.28442 16.9224 5.6592L18.2796 7.12822ZM9.30049 14.0624L8.6219 14.7969C9.00505 15.1509 9.59594 15.1509 9.97909 14.7969L9.30049 14.0624ZM1.6786 5.6592C1.27294 5.28442 0.640271 5.30945 0.265491 5.71511C-0.109289 6.12077 -0.0842573 6.75344 0.321401 7.12822L1.6786 5.6592ZM16.8958 2.01576C17.3015 1.64097 17.3265 1.0083 16.9517 0.602651C16.5769 0.197003 15.9442 0.17199 15.5386 0.546781L16.8958 2.01576ZM9.30053 7.67183L8.62191 8.40632C9.00507 8.76033 9.59599 8.76033 9.97915 8.40632L9.30053 7.67183ZM3.06247 0.546781C2.65682 0.17199 2.02415 0.197004 1.64936 0.602652C1.27457 1.0083 1.29958 1.64097 1.70523 2.01576L3.06247 0.546781ZM16.9224 5.6592L8.6219 13.3279L9.97909 14.7969L18.2796 7.12822L16.9224 5.6592ZM9.97909 13.3279L1.6786 5.6592L0.321401 7.12822L8.6219 14.7969L9.97909 13.3279ZM15.5386 0.546781L8.62191 6.93734L9.97915 8.40632L16.8958 2.01576L15.5386 0.546781ZM9.97915 6.93734L3.06247 0.546781L1.70523 2.01576L8.62191 8.40632L9.97915 6.93734Z" fill="url(#paint0_linear_1325_9414)"/>
<defs>
<linearGradient id="paint0_linear_1325_9414" x1="1" y1="7.67182" x2="17.601" y2="7.67182" gradientUnits="userSpaceOnUse">
<stop stop-color="#4C8CED"/>
<stop offset="1" stop-color="#38D165"/>
</linearGradient>
</defs>
</svg>
