<svg width="19" height="15" viewBox="0 0 19 15" fill="none" xmlns="http://www.w3.org/2000/svg">
<path d="M17.7231 7.28907C18.2327 6.82332 18.2682 6.03266 17.8025 5.52308C17.3367 5.01351 16.546 4.97799 16.0365 5.44374L17.7231 7.28907ZM9.43989 13.1665L8.59657 14.0892C9.07408 14.5256 9.8057 14.5256 10.2832 14.0892L9.43989 13.1665ZM2.84332 5.44374C2.33375 4.97799 1.54309 5.01351 1.07733 5.52309C0.611582 6.03266 0.647106 6.82332 1.15668 7.28907L2.84332 5.44374ZM16.4838 2.75597C16.9933 2.2902 17.0289 1.49954 16.5631 0.98998C16.0973 0.480419 15.3067 0.444918 14.7971 0.910686L16.4838 2.75597ZM9.44088 7.50007L8.59754 8.42272C9.07506 8.85919 9.80671 8.85919 10.2842 8.42272L9.44088 7.50007ZM4.08467 0.910686C3.57511 0.444919 2.78445 0.48042 2.31869 0.989981C1.85292 1.49954 1.88842 2.2902 2.39798 2.75597L4.08467 0.910686ZM16.0365 5.44374L8.59657 12.2438L10.2832 14.0892L17.7231 7.28907L16.0365 5.44374ZM10.2832 12.2438L2.84332 5.44374L1.15668 7.28907L8.59657 14.0892L10.2832 12.2438ZM14.7971 0.910686L8.59754 6.57743L10.2842 8.42272L16.4838 2.75597L14.7971 0.910686ZM10.2842 6.57743L4.08467 0.910686L2.39798 2.75597L8.59754 8.42272L10.2842 6.57743Z" fill="url(#paint0_linear_3104_5784)"/>
<defs>
<linearGradient id="paint0_linear_3104_5784" x1="2" y1="7.49992" x2="16.8798" y2="7.49992" gradientUnits="userSpaceOnUse">
<stop stop-color="#4C8CED"/>
<stop offset="1" stop-color="#38D165"/>
</linearGradient>
</defs>
</svg>
