<svg width="20" height="21" viewBox="0 0 20 21" fill="none" xmlns="http://www.w3.org/2000/svg">
<path fill-rule="evenodd" clip-rule="evenodd" d="M16.4598 1.16167L18.4442 2.74188C18.6359 2.92225 18.7439 3.17417 18.7425 3.43733C18.741 3.7005 18.6302 3.95122 18.4366 4.12947L16.9286 5.93398L11.7977 12.0533C11.708 12.1561 11.5883 12.2283 11.4556 12.2599L8.79442 12.8631C8.44529 12.8805 8.14135 12.6268 8.09619 12.2802V9.54552C8.10525 9.41369 8.15836 9.28872 8.24699 9.1907L13.2829 3.49714L15.0113 1.43286C15.3533 0.984619 15.9788 0.867508 16.4598 1.16167Z" stroke="#303030" stroke-width="1.5" stroke-linecap="round" stroke-linejoin="round"/>
<path d="M9.27868 4.1179C9.69289 4.1179 10.0287 3.78211 10.0287 3.3679C10.0287 2.95368 9.69289 2.6179 9.27868 2.6179V4.1179ZM5.7305 3.3679V2.61789L5.7287 2.6179L5.7305 3.3679ZM1.00001 8.11993H1.75001L1.75001 8.11832L1.00001 8.11993ZM1.00001 15.248L1.75001 15.2496V15.248H1.00001ZM5.7305 20L5.7287 20.75H5.7305V20ZM12.8269 20V20.75L12.8287 20.75L12.8269 20ZM17.5574 15.248L16.8073 15.248L16.8074 15.2496L17.5574 15.248ZM18.3074 10.4959C18.3074 10.0817 17.9716 9.74594 17.5574 9.74594C17.1431 9.74594 16.8074 10.0817 16.8074 10.4959H18.3074ZM13.9763 3.21098C13.8182 2.8281 13.3797 2.64586 12.9969 2.80391C12.614 2.96197 12.4317 3.40048 12.5898 3.78335L13.9763 3.21098ZM17.0907 6.66126C17.4951 6.57185 17.7505 6.1715 17.6611 5.76705C17.5717 5.3626 17.1714 5.10721 16.7669 5.19662L17.0907 6.66126ZM4.54824 15.6866C4.13403 15.6866 3.79824 16.0224 3.79824 16.4366C3.79824 16.8508 4.13403 17.1866 4.54824 17.1866V15.6866ZM14.0105 17.1866C14.4247 17.1866 14.7605 16.8508 14.7605 16.4366C14.7605 16.0224 14.4247 15.6866 14.0105 15.6866V17.1866ZM9.27868 2.6179H5.7305V4.1179H9.27868V2.6179ZM5.7287 2.6179C2.69618 2.62519 0.243521 5.08901 0.250013 8.12153L1.75001 8.11832C1.74529 5.91407 3.52805 4.12319 5.7323 4.11789L5.7287 2.6179ZM0.250011 8.11993V15.248H1.75001V8.11993H0.250011ZM0.250013 15.2464C0.243521 18.2789 2.69618 20.7427 5.7287 20.75L5.7323 19.25C3.52805 19.2447 1.74529 17.4538 1.75001 15.2496L0.250013 15.2464ZM5.7305 20.75H12.8269V19.25H5.7305V20.75ZM12.8287 20.75C15.8612 20.7427 18.3138 18.2789 18.3073 15.2464L16.8074 15.2496C16.8121 17.4538 15.0293 19.2447 12.8251 19.25L12.8287 20.75ZM18.3074 15.248V10.4959H16.8074V15.248H18.3074ZM12.5898 3.78335C12.8277 4.3597 13.3154 5.17965 14.04 5.81013C14.7783 6.45247 15.8224 6.94162 17.0907 6.66126L16.7669 5.19662C16.0976 5.34457 15.5229 5.11204 15.0247 4.67852C14.5128 4.23314 14.1464 3.62305 13.9763 3.21098L12.5898 3.78335ZM4.54824 17.1866H14.0105V15.6866H4.54824V17.1866Z" fill="#303030"/>
</svg>
