<svg width="17" height="17" viewBox="0 0 17 17" fill="none" xmlns="http://www.w3.org/2000/svg">
<g opacity="0.7">
<path d="M16.2494 8.68678C16.2494 12.7954 12.8485 16.1348 8.6423 16.1348C4.43614 16.1348 1.03516 12.7954 1.03516 8.68678C1.03516 4.57815 4.43614 1.23877 8.6423 1.23877C12.8485 1.23877 16.2494 4.57815 16.2494 8.68678Z" fill="white" stroke="#B7B7B7" stroke-width="0.5"/>
<path d="M7.66664 7.84404L7.17202 9.43441C7.13001 9.56967 7.16839 9.71643 7.27198 9.81618C7.3477 9.88919 7.44947 9.92869 7.55358 9.92869C7.59183 9.92869 7.63034 9.92344 7.66793 9.91244L9.31749 9.43565C9.38063 9.4174 9.4382 9.3844 9.48474 9.3394L12.509 6.42343C12.5837 6.35143 12.6257 6.25367 12.6257 6.15191C12.6257 6.05015 12.5837 5.95239 12.509 5.88039L11.3539 4.76681C11.1983 4.61679 10.9463 4.61679 10.7907 4.76681L7.7666 7.68278C7.71992 7.72778 7.6857 7.78303 7.66664 7.84404ZM8.40086 8.15731L11.0723 5.58137L11.6641 6.15191L8.99259 8.72785L8.14751 8.97212L8.40086 8.15731Z" fill="#636363"/>
<path d="M12.3594 8.3665C12.1394 8.3665 11.9611 8.53851 11.9611 8.75052V11.3107C11.9611 11.6637 11.6633 11.9508 11.2973 11.9508H5.98676C5.62076 11.9508 5.32295 11.6637 5.32295 11.3107V6.19033C5.32295 5.8373 5.62076 5.55028 5.98676 5.55028H8.64203C8.86205 5.55028 9.04032 5.37827 9.04032 5.16626C9.04032 4.95424 8.86205 4.78223 8.64203 4.78223H5.98676C5.1815 4.78223 4.52637 5.41402 4.52637 6.19033V11.3107C4.52637 12.087 5.1815 12.7188 5.98676 12.7188H11.2973C12.1026 12.7188 12.7577 12.087 12.7577 11.3107V8.75052C12.7577 8.53851 12.5794 8.3665 12.3594 8.3665Z" fill="#636363"/>
</g>
</svg>
