<svg width="265" height="170" viewBox="0 0 265 170" fill="none" xmlns="http://www.w3.org/2000/svg">
<path d="M197.189 102.549L229.407 64.9875L261.625 102.549V169.745H197.189V102.549Z" fill="url(#paint0_linear_2280_27282)"/>
<path d="M197.19 102.548H118.422V169.744H197.19V102.548Z" fill="url(#paint1_linear_2280_27282)"/>
<path style="mix-blend-mode:multiply" d="M120.094 114.418L198.8 114.418V106.958L120.094 106.958V114.418Z" fill="url(#paint2_linear_2280_27282)"/>
<path style="mix-blend-mode:multiply" d="M261.625 104.405V114.572L229.407 77.01L197.189 114.572V104.405L229.407 66.8433L261.625 104.405Z" fill="url(#paint3_linear_2280_27282)"/>
<path d="M114.666 102.549H198.026L230.244 64.9875H146.887L114.666 102.549Z" fill="url(#paint4_linear_2280_27282)"/>
<path d="M197.127 102.548H113.83V108.68H197.127V102.548Z" fill="url(#paint5_linear_2280_27282)"/>
<path d="M197.963 102.621L230.244 64.9875L265 105.508V111.703L230.244 71.1829L197.963 108.814V102.621Z" fill="url(#paint6_linear_2280_27282)"/>
<path d="M157.902 90.3528L136.049 115.83H179.752L157.902 90.3528Z" fill="url(#paint7_linear_2280_27282)"/>
<path d="M156.229 90.3528L172.01 108.753H178.079L194.288 90.3528H156.229Z" fill="url(#paint8_linear_2280_27282)"/>
<path d="M166.051 132.432H144.906V169.748H166.051V132.432Z" fill="url(#paint9_linear_2280_27282)"/>
<path d="M146.524 169.745H144.908V132.432L146.524 133.949V169.745Z" fill="url(#paint10_linear_2280_27282)"/>
<path d="M167.724 133.949H148.197L146.581 132.432H167.724V133.949Z" fill="url(#paint11_linear_2280_27282)"/>
<path d="M151.08 152.046C151.803 152.046 152.389 151.46 152.389 150.737C152.389 150.013 151.803 149.427 151.08 149.427C150.356 149.427 149.77 150.013 149.77 150.737C149.77 151.46 150.356 152.046 151.08 152.046Z" fill="url(#paint12_linear_2280_27282)"/>
<path d="M216.007 147.661H242.802V121.83H216.007V147.661Z" fill="url(#paint13_linear_2280_27282)"/>
<path d="M235.75 123.119L217.05 141.396V144.237L238.654 123.119H235.75Z" fill="url(#paint14_linear_2280_27282)"/>
<path d="M240.257 123.119L217.05 145.805V147.136L241.621 123.119H240.257Z" fill="url(#paint15_linear_2280_27282)"/>
<path d="M241.429 147.66H242.802V121.83L241.429 123.118V147.66Z" fill="url(#paint16_linear_2280_27282)"/>
<path d="M216.009 123.118H241.429L242.802 121.83H216.009V123.118Z" fill="url(#paint17_linear_2280_27282)"/>
<path d="M241.429 146.371H217.382V123.118L216.009 121.83V147.66H242.802L241.429 146.371Z" fill="url(#paint18_linear_2280_27282)"/>
<path d="M230.102 121.826H228.712V147.657H230.102V121.826Z" fill="url(#paint19_linear_2280_27282)"/>
<path d="M242.323 135.438V134.048H216.492V135.438H242.323Z" fill="url(#paint20_linear_2280_27282)"/>
<path d="M244.42 147.661H214.097V150.097H244.42V147.661Z" fill="url(#paint21_linear_2280_27282)"/>
<path d="M125.774 147.187H140.545V133.19H125.774V147.187Z" fill="url(#paint22_linear_2280_27282)"/>
<path d="M134.595 133.19L124.101 143.45V146.291L137.502 133.19H134.595Z" fill="url(#paint23_linear_2280_27282)"/>
<path d="M138.872 133.417L124.785 147.186H126.149L138.872 134.751V133.417Z" fill="url(#paint24_linear_2280_27282)"/>
<path d="M137.496 147.187H138.872V133.19L137.496 134.479V147.187Z" fill="url(#paint25_linear_2280_27282)"/>
<path d="M124.101 134.479H137.496L138.872 133.19H124.101V134.479Z" fill="url(#paint26_linear_2280_27282)"/>
<path d="M137.496 145.898H125.474V134.479L124.101 133.19V147.187H138.869L137.496 145.898Z" fill="url(#paint27_linear_2280_27282)"/>
<path d="M175.337 147.187H190.108V133.19H175.337V147.187Z" fill="url(#paint28_linear_2280_27282)"/>
<path d="M185.834 133.19L175.337 143.45V146.291L188.738 133.19H185.834Z" fill="url(#paint29_linear_2280_27282)"/>
<path d="M190.108 133.417L176.023 147.186H177.384L190.108 134.751V133.417Z" fill="url(#paint30_linear_2280_27282)"/>
<path d="M188.735 147.187H190.108V133.19L188.735 134.479V147.187Z" fill="url(#paint31_linear_2280_27282)"/>
<path d="M175.337 134.479H188.735L190.108 133.19H175.337V134.479Z" fill="url(#paint32_linear_2280_27282)"/>
<path d="M187.062 145.898H175.037V134.479L173.664 133.19V147.187H188.435L187.062 145.898Z" fill="url(#paint33_linear_2280_27282)"/>
<path d="M166.74 129.44C169.623 125.706 168.934 120.343 165.2 117.46C161.466 114.577 156.103 115.266 153.22 119C150.337 122.734 151.027 128.097 154.76 130.98C158.494 133.863 163.857 133.173 166.74 129.44Z" fill="url(#paint34_linear_2280_27282)"/>
<path d="M163.478 120.67C165.321 117.153 163.963 112.807 160.446 110.964C156.928 109.121 152.582 110.479 150.739 113.997C148.897 117.514 150.254 121.86 153.772 123.703C157.29 125.546 161.635 124.188 163.478 120.67Z" fill="url(#paint35_linear_2280_27282)"/>
<path d="M161.121 111.371L151.155 121.334C151.647 122.074 152.271 122.717 152.995 123.231L163.018 113.211C162.506 112.485 161.862 111.861 161.121 111.371Z" fill="url(#paint36_linear_2280_27282)"/>
<path d="M163.725 114.454L154.236 123.94C154.69 124.141 155.163 124.295 155.648 124.399L164.184 115.863C164.08 115.378 163.926 114.906 163.725 114.454Z" fill="url(#paint37_linear_2280_27282)"/>
<path style="mix-blend-mode:multiply" d="M156.229 96.5751L171.665 114.571H177L156.229 90.3528L135.458 114.571H140.793L156.229 96.5751Z" fill="url(#paint38_linear_2280_27282)"/>
<path d="M8.80893 0H81.6006C83.9376 0 86.179 0.928398 87.8316 2.58096C89.4842 4.23352 90.4125 6.47488 90.4125 8.81196V160.935C90.4125 163.272 89.4842 165.514 87.8316 167.166C86.179 168.819 83.9376 169.747 81.6006 169.747H8.80893C7.65212 169.747 6.50664 169.519 5.43789 169.077C4.36913 168.634 3.39808 167.985 2.58009 167.167C1.7621 166.349 1.1132 165.378 0.670506 164.309C0.227815 163.24 0 162.095 0 160.938V8.80897C0 6.47269 0.928091 4.23208 2.58009 2.58008C4.23209 0.928082 6.47265 0 8.80893 0Z" fill="url(#paint39_linear_2280_27282)"/>
<path d="M16.704 0H89.4956C91.8319 0 94.0724 0.928082 95.7244 2.58008C97.3764 4.23208 98.3046 6.47269 98.3046 8.80897V160.935C98.3046 163.272 97.3761 165.514 95.7235 167.166C94.071 168.819 91.8297 169.747 89.4927 169.747H16.704C15.5472 169.747 14.4017 169.519 13.333 169.077C12.2642 168.634 11.2931 167.985 10.4751 167.167C9.65712 166.349 9.00829 165.378 8.5656 164.309C8.12291 163.24 7.89502 162.095 7.89502 160.938V8.80897C7.89502 6.47269 8.82311 4.23208 10.4751 2.58008C12.1271 0.928082 14.3677 0 16.704 0Z" fill="url(#paint40_linear_2280_27282)"/>
<path d="M89.4952 4.79639H72.7973C72.4794 4.79639 72.1744 4.9227 71.9496 5.14754C71.7248 5.37238 71.5984 5.67732 71.5984 5.99529V9.04651C71.5984 10.3831 71.0677 11.6649 70.1229 12.6103C69.1781 13.5556 67.8965 14.0871 66.56 14.0879H39.6386C38.3026 14.0871 37.0215 13.556 36.0768 12.6113C35.1321 11.6666 34.601 10.3855 34.6002 9.04951V5.99529C34.6002 5.67732 34.4739 5.37238 34.249 5.14754C34.0242 4.9227 33.7193 4.79639 33.4013 4.79639H16.7035C15.6359 4.79639 14.612 5.22049 13.8572 5.97538C13.1023 6.73028 12.6782 7.75413 12.6782 8.82171V148.027C12.6782 149.094 13.1023 150.118 13.8572 150.873C14.612 151.628 15.6359 152.052 16.7035 152.052H89.4952C90.5635 152.052 91.5881 151.628 92.3436 150.872C93.099 150.117 93.5235 149.092 93.5235 148.024V8.80973C93.5203 7.74371 93.0944 6.72247 92.3392 5.97008C91.584 5.21769 90.5612 4.79559 89.4952 4.79639Z" fill="url(#paint41_linear_2280_27282)"/>
<path d="M62.4542 6.83182H43.7453C43.4842 6.84598 43.2384 6.95967 43.0586 7.14951C42.8788 7.33935 42.7786 7.5909 42.7786 7.85239C42.7786 8.11388 42.8788 8.36543 43.0586 8.55527C43.2384 8.74511 43.4842 8.8588 43.7453 8.87296H62.4542C62.5929 8.88048 62.7316 8.85965 62.862 8.81176C62.9924 8.76386 63.1116 8.68991 63.2124 8.5944C63.3133 8.49889 63.3936 8.38384 63.4484 8.25626C63.5033 8.12869 63.5316 7.99127 63.5316 7.85239C63.5316 7.71351 63.5033 7.57608 63.4484 7.44851C63.3936 7.32093 63.3133 7.20588 63.2124 7.11037C63.1116 7.01487 62.9924 6.94091 62.862 6.89301C62.7316 6.84512 62.5929 6.8243 62.4542 6.83182Z" fill="url(#paint42_linear_2280_27282)"/>
<path d="M62.0972 155.679H44.1136C42.9914 155.708 41.925 156.175 41.1418 156.979C40.3585 157.783 39.9202 158.861 39.9202 159.984C39.9202 161.107 40.3585 162.185 41.1418 162.989C41.925 163.793 42.9914 164.26 44.1136 164.29H62.0972C62.6722 164.305 63.2444 164.205 63.78 163.995C64.3157 163.786 64.8039 163.471 65.216 163.07C65.628 162.668 65.9555 162.188 66.1791 161.659C66.4027 161.129 66.5179 160.559 66.5179 159.984C66.5179 159.409 66.4027 158.84 66.1791 158.31C65.9555 157.78 65.628 157.3 65.216 156.899C64.8039 156.497 64.3157 156.183 63.78 155.973C63.2444 155.763 62.6722 155.663 62.0972 155.679Z" fill="url(#paint43_linear_2280_27282)"/>
<path d="M93.5238 140.65V131.806L58.5007 127.813L55.5035 113.534C59.7228 111.408 63.2696 108.153 65.7497 104.132C68.2298 100.11 69.546 95.4797 69.5517 90.755C69.5517 89.9967 69.5127 89.2563 69.4498 88.513L93.5507 83.1179V70.2417L70.4898 33.0156L93.5507 27.8544V18.8626L32.1248 32.593L26.2741 4.79639H17.2823L25.2521 42.6129L12.6636 36.7233V46.4254L27.53 53.3521L30.809 68.9049C26.029 71.7872 22.3279 76.1596 20.2745 81.3499C18.2211 86.5402 17.9291 92.2613 19.4434 97.6337L12.6786 99.1473V108.139L23.169 105.792L23.0431 105.229C25.3879 108.626 28.5221 111.402 32.1765 113.321C35.831 115.24 39.8965 116.243 44.0239 116.244C45.0358 116.241 46.0466 116.179 47.0512 116.058L54.6313 152.025H63.6231L60.425 136.85L93.5238 140.65ZM61.3841 35.0478L86.5461 75.6667L67.1479 80.0098C64.7484 74.8334 60.6826 70.6111 55.6006 68.0176C50.5187 65.4242 44.714 64.6095 39.1144 65.7038L33.9472 41.1922L61.3841 35.0478ZM44 107.48C40.6903 107.48 37.4548 106.498 34.7029 104.659C31.951 102.821 29.8062 100.207 28.5397 97.149C27.2733 94.0912 26.9421 90.7264 27.588 87.4803C28.2339 84.2342 29.8279 81.2525 32.1685 78.9124C34.509 76.5723 37.491 74.9788 40.7372 74.3334C43.9834 73.6881 47.3481 74.0199 50.4058 75.2869C53.4634 76.5539 56.0767 78.6992 57.915 81.4514C59.7534 84.2037 60.7343 87.4392 60.7337 90.749C60.7289 95.1843 58.9651 99.4366 55.8292 102.573C52.6932 105.71 48.4412 107.474 44.0059 107.48H44Z" fill="url(#paint44_linear_2280_27282)"/>
<path d="M35.997 125.333C35.8614 123.319 34.9656 121.432 33.491 120.053C32.0163 118.674 30.073 117.907 28.0542 117.907C26.0355 117.907 24.0922 118.674 22.6175 120.053C21.1429 121.432 20.2471 123.319 20.1115 125.333C19.7638 132.227 25.7374 138.15 27.5537 139.783C27.6951 139.912 27.8795 139.984 28.0708 139.984C28.2621 139.984 28.4464 139.912 28.5878 139.783C30.3711 138.15 36.3447 132.233 35.997 125.333Z" fill="url(#paint45_linear_2280_27282)"/>
<path d="M28.0366 131.618C31.2628 131.618 33.8782 129.003 33.8782 125.776C33.8782 122.55 31.2628 119.935 28.0366 119.935C24.8103 119.935 22.1948 122.55 22.1948 125.776C22.1948 129.003 24.8103 131.618 28.0366 131.618Z" fill="url(#paint46_linear_2280_27282)"/>
<path d="M32.038 125.03L28.2285 121.796C28.1796 121.756 28.1181 121.733 28.0546 121.733C27.9911 121.733 27.9297 121.756 27.8808 121.796L24.0323 125.015C24.0107 125.032 23.9949 125.055 23.9873 125.081C23.9797 125.107 23.9806 125.135 23.9899 125.161C23.9993 125.187 24.0165 125.209 24.0392 125.224C24.0619 125.239 24.0889 125.247 24.1162 125.246H24.6047V128.998C24.6055 129.067 24.6328 129.132 24.6809 129.181C24.729 129.23 24.7941 129.258 24.8625 129.259H26.9067C26.9341 129.26 26.9613 129.255 26.9867 129.244C27.0122 129.234 27.0354 129.219 27.0549 129.2C27.0744 129.18 27.0899 129.157 27.1005 129.132C27.111 129.107 27.1165 129.08 27.1165 129.052V126.723C27.1165 126.656 27.1434 126.591 27.1911 126.543C27.2389 126.496 27.3036 126.469 27.3712 126.469H28.7021C28.7696 126.469 28.8344 126.496 28.8822 126.543C28.93 126.591 28.9568 126.656 28.9568 126.723V129.058C28.9568 129.113 28.9786 129.166 29.0174 129.205C29.0562 129.243 29.1088 129.265 29.1636 129.265H31.2077C31.2764 129.265 31.3423 129.238 31.3911 129.19C31.4399 129.142 31.4677 129.076 31.4685 129.007V125.252H31.957C31.982 125.25 32.0061 125.241 32.0261 125.226C32.0462 125.211 32.0614 125.191 32.07 125.167C32.0786 125.144 32.0802 125.118 32.0745 125.094C32.0688 125.07 32.0561 125.047 32.038 125.03Z" fill="url(#paint47_linear_2280_27282)"/>
<path d="M53.1652 30.3083C53.0296 28.2941 52.1338 26.4067 50.6592 25.028C49.1845 23.6493 47.2412 22.8823 45.2225 22.8823C43.2037 22.8823 41.2604 23.6493 39.7857 25.028C38.3111 26.4067 37.4153 28.2941 37.2797 30.3083C36.932 37.202 42.9056 43.1246 44.7219 44.7581C44.8639 44.8857 45.048 44.9563 45.2389 44.9563C45.4298 44.9563 45.614 44.8857 45.756 44.7581C47.5394 43.1246 53.5129 37.208 53.1652 30.3083Z" fill="url(#paint48_linear_2280_27282)"/>
<path d="M50.9457 31.6716C51.4593 28.4865 49.2936 25.4881 46.1085 24.9745C42.9234 24.4609 39.925 26.6266 39.4114 29.8117C38.8978 32.9968 41.0635 35.9952 44.2486 36.5088C47.4338 37.0224 50.4322 34.8567 50.9457 31.6716Z" fill="url(#paint49_linear_2280_27282)"/>
<path d="M49.2091 30.0037L45.3876 26.7727C45.3392 26.7311 45.2775 26.7083 45.2137 26.7083C45.1499 26.7083 45.0883 26.7311 45.0399 26.7727L41.2064 29.9917C41.1854 30.009 41.1702 30.0324 41.163 30.0586C41.1557 30.0848 41.1568 30.1126 41.166 30.1382C41.1751 30.1638 41.1921 30.1859 41.2143 30.2016C41.2366 30.2172 41.2632 30.2256 41.2904 30.2255H41.7789V33.9811C41.7797 34.0492 41.8071 34.1143 41.8553 34.1625C41.9034 34.2107 41.9685 34.2381 42.0367 34.2389H44.0808C44.1082 34.2393 44.1354 34.2342 44.1609 34.224C44.1863 34.2138 44.2094 34.1986 44.2289 34.1794C44.2485 34.1601 44.264 34.1372 44.2746 34.1119C44.2852 34.0866 44.2906 34.0595 44.2906 34.0321V31.6972C44.2914 31.6301 44.3186 31.5661 44.3663 31.519C44.414 31.4718 44.4783 31.4454 44.5453 31.4454H45.8761C45.9093 31.445 45.9423 31.4513 45.973 31.4638C46.0037 31.4763 46.0316 31.4948 46.0551 31.5183C46.0786 31.5417 46.097 31.5696 46.1095 31.6004C46.1221 31.6311 46.1283 31.664 46.1279 31.6972V34.0321C46.1275 34.0595 46.1325 34.0867 46.1428 34.1121C46.153 34.1376 46.1682 34.1607 46.1874 34.1802C46.2066 34.1998 46.2296 34.2153 46.2549 34.2258C46.2802 34.2364 46.3073 34.2419 46.3347 34.2419H48.3789C48.4128 34.2423 48.4466 34.2359 48.478 34.2231C48.5095 34.2103 48.538 34.1913 48.562 34.1673C48.586 34.1432 48.605 34.1147 48.6179 34.0832C48.6307 34.0518 48.6371 34.0181 48.6367 33.9841V30.2315H49.1252C49.151 30.2303 49.176 30.2214 49.1968 30.2061C49.2177 30.1908 49.2335 30.1697 49.2425 30.1454C49.2514 30.1211 49.253 30.0947 49.2471 30.0695C49.2411 30.0443 49.228 30.0215 49.2091 30.0037Z" fill="url(#paint50_linear_2280_27282)"/>
<path d="M93.5237 44.1865C83.0589 44.9824 73.2809 49.7013 66.1468 57.3986C59.0126 65.0959 55.0488 75.2037 55.0488 85.6987C55.0488 96.1936 59.0126 106.301 66.1468 113.999C73.2809 121.696 83.0589 126.415 93.5237 127.211V44.1865Z" fill="#FCFBFC"/>
<mask id="mask0_2280_27282" style="mask-type:luminance" maskUnits="userSpaceOnUse" x="55" y="44" width="39" height="84">
<path d="M93.5242 44.1833C83.0594 44.9793 73.2814 49.6982 66.1472 57.3955C59.0131 65.0928 55.0493 75.2005 55.0493 85.6955C55.0493 96.1904 59.0131 106.298 66.1472 113.996C73.2814 121.693 83.0594 126.412 93.5242 127.208V44.1833Z" fill="white"/>
</mask>
<g mask="url(#mask0_2280_27282)">
<path d="M108.039 162.996V150.977L60.4189 145.549L56.3277 126.141C62.0642 123.252 66.8864 118.827 70.2577 113.36C73.629 107.892 75.4172 101.597 75.4232 95.1735C75.4232 94.1454 75.3693 93.1324 75.2824 92.1253L108.039 84.794V67.3019L76.6971 16.7111L108.039 9.69449V-2.54335L24.6076 16.1326L16.6409 -21.6599H4.43604L15.2681 29.7342L-1.84029 21.7345V34.9225L18.3373 44.3579L22.7913 65.4946C16.2952 69.4124 11.2653 75.3549 8.47444 82.4089C5.68359 89.4629 5.28625 97.2382 7.34337 104.54L-1.85229 106.599V118.84L12.3877 115.654L12.2139 114.884C15.7895 120.083 20.7209 124.204 26.473 126.799C32.225 129.394 38.5778 130.363 44.8421 129.603L55.1438 178.492H67.3486L63.0026 157.864L108.039 162.996ZM64.3604 19.4806L98.5591 74.6872L72.1832 80.5888C68.9266 73.5516 63.403 67.8105 56.4966 64.2848C49.5903 60.7591 41.7007 59.6526 34.091 61.1426L27.0683 27.8279L64.3604 19.4806ZM40.7419 117.923C36.2443 117.923 31.8477 116.589 28.1081 114.09C24.3685 111.592 21.4538 108.04 19.7326 103.885C18.0115 99.7296 17.5612 95.1573 18.4386 90.7461C19.316 86.3349 21.4818 82.283 24.6621 79.1027C27.8424 75.9224 31.8943 73.7566 36.3055 72.8792C40.7167 72.0018 45.289 72.4521 49.4442 74.1732C53.5994 75.8944 57.151 78.8091 59.6497 82.5487C62.1484 86.2883 63.4822 90.6849 63.4822 95.1825C63.4695 101.209 61.0692 106.985 56.8071 111.245C52.545 115.506 46.7683 117.903 40.7419 117.914V117.923Z" fill="url(#paint51_linear_2280_27282)"/>
</g>
<path d="M92.7926 71.2513H92.7626C92.4988 66.4737 90.4151 61.9787 86.9396 58.6899C83.4642 55.4011 78.8611 53.5684 74.0762 53.5684C69.2913 53.5684 64.6882 55.4011 61.2128 58.6899C57.7373 61.9787 55.6536 66.4737 55.3898 71.2513H55.3598C54.5415 87.4755 68.5867 101.383 72.8608 105.225C73.194 105.526 73.6272 105.693 74.0762 105.693C74.5253 105.693 74.9583 105.526 75.2916 105.225C79.5657 101.383 93.6109 87.4755 92.7926 71.2513Z" fill="#4C8CED"/>
<path d="M87.7085 74.4917C88.907 67.0005 83.8059 59.9561 76.3147 58.7575C68.8235 57.559 61.7791 62.6602 60.5806 70.1513C59.382 77.6425 64.4832 84.6869 71.9744 85.8855C79.4655 87.084 86.5099 81.9828 87.7085 74.4917Z" fill="url(#paint52_linear_2280_27282)"/>
<path d="M83.4857 70.5346L74.494 62.9366C74.3797 62.841 74.2353 62.7886 74.0863 62.7886C73.9373 62.7886 73.793 62.841 73.6786 62.9366L64.6629 70.5016C64.6061 70.5387 64.5636 70.5938 64.5422 70.6582C64.5208 70.7225 64.5218 70.7921 64.5451 70.8558C64.5684 70.9194 64.6126 70.9733 64.6705 71.0086C64.7283 71.0439 64.7965 71.0585 64.8637 71.0502H66.0087V79.8741C66.0087 80.0331 66.0718 80.1856 66.1842 80.298C66.2967 80.4104 66.4492 80.4736 66.6081 80.4736H71.4038C71.5328 80.4736 71.6566 80.4225 71.7481 80.3315C71.8397 80.2406 71.8915 80.1171 71.8923 79.988V74.497C71.8923 74.338 71.9555 74.1856 72.0679 74.0731C72.1803 73.9607 72.3328 73.8976 72.4917 73.8976H75.6239C75.7829 73.8976 75.9354 73.9607 76.0478 74.0731C76.1602 74.1856 76.2233 74.338 76.2233 74.497V79.985C76.2229 80.049 76.2352 80.1125 76.2595 80.1717C76.2837 80.231 76.3194 80.2849 76.3645 80.3303C76.4096 80.3757 76.4633 80.4117 76.5224 80.4363C76.5815 80.4609 76.6449 80.4736 76.7089 80.4736H81.5045C81.6635 80.4736 81.816 80.4104 81.9284 80.298C82.0408 80.1856 82.104 80.0331 82.104 79.8741L82.122 71.0502H83.27C83.3304 71.0517 83.3899 71.035 83.4406 71.0022C83.4914 70.9694 83.531 70.922 83.5543 70.8663C83.5777 70.8105 83.5835 70.749 83.5713 70.6898C83.5591 70.6307 83.5292 70.5766 83.4857 70.5346Z" fill="url(#paint53_linear_2280_27282)"/>
<path d="M132.718 97.9872L125.146 111.103L157.823 129.97L165.395 116.854L132.718 97.9872Z" fill="url(#paint54_linear_2280_27282)"/>
<path style="mix-blend-mode:multiply" d="M149.389 107.404L140.374 102.207L137.376 107.386C137.128 107.853 136.873 108.318 136.606 108.78C136.339 109.241 136.064 109.697 135.785 110.143L132.788 115.323L141.824 120.52C144.916 116.501 147.463 112.091 149.398 107.404H149.389Z" fill="url(#paint55_linear_2280_27282)"/>
<path d="M153.495 112.281L147.913 121.95C146.407 124.558 147.3 127.892 149.908 129.398L187.022 150.825C189.629 152.331 192.964 151.437 194.469 148.83L200.052 139.161C201.557 136.553 200.664 133.219 198.056 131.713L160.943 110.286C158.335 108.78 155 109.674 153.495 112.281Z" fill="url(#paint56_linear_2280_27282)"/>
<path d="M44.5336 55.8284C39.4455 64.6391 37.0843 74.7608 37.7487 84.9135C38.4131 95.0662 42.0733 104.794 48.2663 112.866C54.4593 120.939 62.9071 126.994 72.5412 130.265C82.1754 133.536 92.5632 133.877 102.391 131.245C112.219 128.612 121.046 123.124 127.755 115.475C134.464 107.826 138.754 98.3596 140.082 88.2723C141.411 78.1851 139.719 67.9303 135.219 58.8049C130.72 49.6795 123.616 42.0932 114.805 37.0056C108.955 33.6272 102.497 31.4342 95.799 30.5518C89.1016 29.6694 82.2959 30.1149 75.7706 31.8627C69.2453 33.6106 63.1282 36.6267 57.7685 40.7387C52.4089 44.8508 47.9116 49.9783 44.5336 55.8284ZM125.127 102.367C121.01 109.497 114.872 115.246 107.488 118.887C100.104 122.528 91.8059 123.898 83.6434 122.823C75.4809 121.748 67.8205 118.276 61.6309 112.848C55.4413 107.419 51.0005 100.277 48.8702 92.3241C46.7398 84.3715 47.0155 75.9658 49.6625 68.1699C52.3095 60.374 57.2087 53.5382 63.7408 48.5268C70.2729 43.5154 78.1443 40.5536 86.3597 40.0158C94.5751 39.4781 102.766 41.3886 109.895 45.5058C119.455 51.0264 126.43 60.1184 129.287 70.7819C132.143 81.4453 130.647 92.8067 125.127 102.367Z" fill="url(#paint57_linear_2280_27282)"/>
<path style="mix-blend-mode:soft-light" d="M118.413 110.885C134.669 94.6292 134.669 68.2731 118.413 52.0171C102.157 35.7611 75.8011 35.7611 59.5452 52.0171C43.2892 68.2731 43.2892 94.6292 59.5451 110.885C75.8011 127.141 102.157 127.141 118.413 110.885Z" fill="url(#paint58_linear_2280_27282)"/>
<path style="mix-blend-mode:screen" d="M74.0231 86.1512C81.6452 86.1512 87.824 79.9723 87.824 72.3502C87.824 64.7282 81.6452 58.5493 74.0231 58.5493C66.4011 58.5493 60.2222 64.7282 60.2222 72.3502C60.2222 79.9723 66.4011 86.1512 74.0231 86.1512Z" fill="url(#paint59_linear_2280_27282)"/>
<defs>
<linearGradient id="paint0_linear_2280_27282" x1="237.506" y1="292.09" x2="228.682" y2="122.217" gradientUnits="userSpaceOnUse">
<stop stop-color="white"/>
<stop offset="1" stop-color="#CFDAF4"/>
</linearGradient>
<linearGradient id="paint1_linear_2280_27282" x1="157.131" y1="91.7877" x2="158.252" y2="165.604" gradientUnits="userSpaceOnUse">
<stop stop-color="#8393CE"/>
<stop offset="1" stop-color="#B5BDE1"/>
</linearGradient>
<linearGradient id="paint2_linear_2280_27282" x1="160.408" y1="133.466" x2="158.732" y2="93.7638" gradientUnits="userSpaceOnUse">
<stop stop-color="white"/>
<stop offset="1" stop-color="#CFDAF4"/>
</linearGradient>
<linearGradient id="paint3_linear_2280_27282" x1="229.935" y1="170.92" x2="229.377" y2="106.05" gradientUnits="userSpaceOnUse">
<stop stop-color="white"/>
<stop offset="1" stop-color="#CFDAF4"/>
</linearGradient>
<linearGradient id="paint4_linear_2280_27282" x1="171.413" y1="84.7785" x2="225.658" y2="32.2125" gradientUnits="userSpaceOnUse">
<stop stop-color="#1D3253"/>
<stop offset="1" stop-color="#334FA8"/>
</linearGradient>
<linearGradient id="paint5_linear_2280_27282" x1="140.721" y1="94.4043" x2="198.88" y2="138.581" gradientUnits="userSpaceOnUse">
<stop stop-color="#CFDAF4"/>
<stop offset="1" stop-color="#A0AFDE"/>
</linearGradient>
<linearGradient id="paint6_linear_2280_27282" x1="271.396" y1="102.957" x2="196.51" y2="81.9701" gradientUnits="userSpaceOnUse">
<stop stop-color="white"/>
<stop offset="1" stop-color="#CFDAF4"/>
</linearGradient>
<linearGradient id="paint7_linear_2280_27282" x1="157.488" y1="88.4915" x2="158.831" y2="177.19" gradientUnits="userSpaceOnUse">
<stop stop-color="#8393CE"/>
<stop offset="1" stop-color="#B5BDE1"/>
</linearGradient>
<linearGradient id="paint8_linear_2280_27282" x1="150.999" y1="75.1327" x2="220.886" y2="128.217" gradientUnits="userSpaceOnUse">
<stop stop-color="#CFDAF4"/>
<stop offset="1" stop-color="#A0AFDE"/>
</linearGradient>
<linearGradient id="paint9_linear_2280_27282" x1="155.426" y1="136.145" x2="155.597" y2="184.219" gradientUnits="userSpaceOnUse">
<stop stop-color="#424161"/>
<stop offset="1" stop-color="#5B60A3"/>
</linearGradient>
<linearGradient id="paint10_linear_2280_27282" x1="143.401" y1="131.856" x2="148.778" y2="178.329" gradientUnits="userSpaceOnUse">
<stop stop-color="#8393CE"/>
<stop offset="1" stop-color="#5B60A3"/>
</linearGradient>
<linearGradient id="paint11_linear_2280_27282" x1="163.693" y1="122.7" x2="150.442" y2="143.953" gradientUnits="userSpaceOnUse">
<stop stop-color="#8393CE"/>
<stop offset="1" stop-color="#5B60A3"/>
</linearGradient>
<linearGradient id="paint12_linear_2280_27282" x1="152.159" y1="148.608" x2="148.718" y2="155.412" gradientUnits="userSpaceOnUse">
<stop stop-color="#8393CE"/>
<stop offset="1" stop-color="#5B60A3"/>
</linearGradient>
<linearGradient id="paint13_linear_2280_27282" x1="229.404" y1="145.946" x2="229.404" y2="116.948" gradientUnits="userSpaceOnUse">
<stop stop-color="#CFDAF4"/>
<stop offset="1" stop-color="#A0AFDE"/>
</linearGradient>
<linearGradient id="paint14_linear_2280_27282" x1="228.631" y1="169.948" x2="227.114" y2="99.2904" gradientUnits="userSpaceOnUse">
<stop stop-color="white"/>
<stop offset="1" stop-color="#CFDAF4"/>
</linearGradient>
<linearGradient id="paint15_linear_2280_27282" x1="230.181" y1="174.516" x2="228.28" y2="85.9645" gradientUnits="userSpaceOnUse">
<stop stop-color="white"/>
<stop offset="1" stop-color="#CFDAF4"/>
</linearGradient>
<linearGradient id="paint16_linear_2280_27282" x1="241.582" y1="147.091" x2="242.922" y2="117.822" gradientUnits="userSpaceOnUse">
<stop stop-color="#424161"/>
<stop offset="1" stop-color="#5B60A3"/>
</linearGradient>
<linearGradient id="paint17_linear_2280_27282" x1="241.021" y1="109.058" x2="224.743" y2="126.955" gradientUnits="userSpaceOnUse">
<stop stop-color="#8393CE"/>
<stop offset="1" stop-color="#5B60A3"/>
</linearGradient>
<linearGradient id="paint18_linear_2280_27282" x1="228.679" y1="110.872" x2="229.578" y2="156.367" gradientUnits="userSpaceOnUse">
<stop stop-color="#424161"/>
<stop offset="1" stop-color="#5B60A3"/>
</linearGradient>
<linearGradient id="paint19_linear_2280_27282" x1="247.769" y1="114.561" x2="231.488" y2="132.458" gradientUnits="userSpaceOnUse">
<stop stop-color="#8393CE"/>
<stop offset="1" stop-color="#5B60A3"/>
</linearGradient>
<linearGradient id="paint20_linear_2280_27282" x1="229.21" y1="120.008" x2="229.707" y2="157.292" gradientUnits="userSpaceOnUse">
<stop stop-color="#424161"/>
<stop offset="1" stop-color="#5B60A3"/>
</linearGradient>
<linearGradient id="paint21_linear_2280_27282" x1="229.326" y1="145.35" x2="229.077" y2="158.028" gradientUnits="userSpaceOnUse">
<stop stop-color="#8393CE"/>
<stop offset="1" stop-color="#B5BDE1"/>
</linearGradient>
<linearGradient id="paint22_linear_2280_27282" x1="133.157" y1="146.258" x2="133.157" y2="130.546" gradientUnits="userSpaceOnUse">
<stop stop-color="#CFDAF4"/>
<stop offset="1" stop-color="#A0AFDE"/>
</linearGradient>
<linearGradient id="paint23_linear_2280_27282" x1="131.553" y1="174.768" x2="130.036" y2="104.113" gradientUnits="userSpaceOnUse">
<stop stop-color="white"/>
<stop offset="1" stop-color="#CFDAF4"/>
</linearGradient>
<linearGradient id="paint24_linear_2280_27282" x1="132.668" y1="179.347" x2="130.767" y2="90.7929" gradientUnits="userSpaceOnUse">
<stop stop-color="white"/>
<stop offset="1" stop-color="#CFDAF4"/>
</linearGradient>
<linearGradient id="paint25_linear_2280_27282" x1="137.907" y1="146.893" x2="138.635" y2="131.002" gradientUnits="userSpaceOnUse">
<stop stop-color="#424161"/>
<stop offset="1" stop-color="#5B60A3"/>
</linearGradient>
<linearGradient id="paint26_linear_2280_27282" x1="138.015" y1="126.015" x2="128.672" y2="136.283" gradientUnits="userSpaceOnUse">
<stop stop-color="#8393CE"/>
<stop offset="1" stop-color="#5B60A3"/>
</linearGradient>
<linearGradient id="paint27_linear_2280_27282" x1="131.091" y1="127.249" x2="131.579" y2="151.911" gradientUnits="userSpaceOnUse">
<stop stop-color="#424161"/>
<stop offset="1" stop-color="#5B60A3"/>
</linearGradient>
<linearGradient id="paint28_linear_2280_27282" x1="182.725" y1="146.258" x2="182.725" y2="130.546" gradientUnits="userSpaceOnUse">
<stop stop-color="#CFDAF4"/>
<stop offset="1" stop-color="#A0AFDE"/>
</linearGradient>
<linearGradient id="paint29_linear_2280_27282" x1="182.788" y1="174.768" x2="181.272" y2="104.113" gradientUnits="userSpaceOnUse">
<stop stop-color="white"/>
<stop offset="1" stop-color="#CFDAF4"/>
</linearGradient>
<linearGradient id="paint30_linear_2280_27282" x1="183.903" y1="179.347" x2="182.003" y2="90.7929" gradientUnits="userSpaceOnUse">
<stop stop-color="white"/>
<stop offset="1" stop-color="#CFDAF4"/>
</linearGradient>
<linearGradient id="paint31_linear_2280_27282" x1="189.143" y1="146.893" x2="189.871" y2="131.002" gradientUnits="userSpaceOnUse">
<stop stop-color="#424161"/>
<stop offset="1" stop-color="#5B60A3"/>
</linearGradient>
<linearGradient id="paint32_linear_2280_27282" x1="189.251" y1="126.015" x2="179.908" y2="136.283" gradientUnits="userSpaceOnUse">
<stop stop-color="#8393CE"/>
<stop offset="1" stop-color="#5B60A3"/>
</linearGradient>
<linearGradient id="paint33_linear_2280_27282" x1="180.654" y1="127.249" x2="181.142" y2="151.911" gradientUnits="userSpaceOnUse">
<stop stop-color="#424161"/>
<stop offset="1" stop-color="#5B60A3"/>
</linearGradient>
<linearGradient id="paint34_linear_2280_27282" x1="172.593" y1="108.5" x2="158.222" y2="126.457" gradientUnits="userSpaceOnUse">
<stop stop-color="#8393CE"/>
<stop offset="1" stop-color="#5B60A3"/>
</linearGradient>
<linearGradient id="paint35_linear_2280_27282" x1="157.136" y1="124.041" x2="157.043" y2="107.142" gradientUnits="userSpaceOnUse">
<stop stop-color="#CFDAF4"/>
<stop offset="1" stop-color="#A0AFDE"/>
</linearGradient>
<linearGradient id="paint36_linear_2280_27282" x1="144.027" y1="132.226" x2="177.461" y2="96.6489" gradientUnits="userSpaceOnUse">
<stop stop-color="white"/>
<stop offset="1" stop-color="#CFDAF4"/>
</linearGradient>
<linearGradient id="paint37_linear_2280_27282" x1="146.425" y1="134.587" x2="179.819" y2="99.0511" gradientUnits="userSpaceOnUse">
<stop stop-color="white"/>
<stop offset="1" stop-color="#CFDAF4"/>
</linearGradient>
<linearGradient id="paint38_linear_2280_27282" x1="155.899" y1="126.698" x2="156.63" y2="99.7732" gradientUnits="userSpaceOnUse">
<stop stop-color="white"/>
<stop offset="1" stop-color="#CFDAF4"/>
</linearGradient>
<linearGradient id="paint39_linear_2280_27282" x1="42.2764" y1="172.217" x2="48.6037" y2="-16.5239" gradientUnits="userSpaceOnUse">
<stop stop-color="#5B60A3"/>
<stop offset="1" stop-color="#424161"/>
</linearGradient>
<linearGradient id="paint40_linear_2280_27282" x1="53.6453" y1="18.64" x2="52.0627" y2="211.601" gradientUnits="userSpaceOnUse">
<stop stop-color="#8393CE"/>
<stop offset="1" stop-color="#B5BDE1"/>
</linearGradient>
<linearGradient id="paint41_linear_2280_27282" x1="88.4761" y1="-15.4441" x2="9.39323" y2="194.385" gradientUnits="userSpaceOnUse">
<stop stop-color="white"/>
<stop offset="1" stop-color="#CFDAF4"/>
</linearGradient>
<linearGradient id="paint42_linear_2280_27282" x1="53.3366" y1="21.2786" x2="52.809" y2="-8.77194" gradientUnits="userSpaceOnUse">
<stop stop-color="#5B60A3"/>
<stop offset="1" stop-color="#424161"/>
</linearGradient>
<linearGradient id="paint43_linear_2280_27282" x1="53.0994" y1="167.611" x2="53.0994" y2="138.088" gradientUnits="userSpaceOnUse">
<stop stop-color="#5B60A3"/>
<stop offset="1" stop-color="#424161"/>
</linearGradient>
<linearGradient id="paint44_linear_2280_27282" x1="43.0678" y1="171.756" x2="82.6078" y2="-155.644" gradientUnits="userSpaceOnUse">
<stop stop-color="#CFDAF4"/>
<stop offset="1" stop-color="#A0AFDE"/>
</linearGradient>
<linearGradient id="paint45_linear_2280_27282" x1="34.7921" y1="118.062" x2="3.35978" y2="159.403" gradientUnits="userSpaceOnUse">
<stop stop-color="#424161"/>
<stop offset="1" stop-color="#5B60A3"/>
</linearGradient>
<linearGradient id="paint46_linear_2280_27282" x1="32.6973" y1="119.383" x2="22.9802" y2="132.718" gradientUnits="userSpaceOnUse">
<stop stop-color="white"/>
<stop offset="1" stop-color="#CFDAF4"/>
</linearGradient>
<linearGradient id="paint47_linear_2280_27282" x1="23.7625" y1="130.263" x2="39.2944" y2="117.639" gradientUnits="userSpaceOnUse">
<stop stop-color="#424161"/>
<stop offset="1" stop-color="#5B60A3"/>
</linearGradient>
<linearGradient id="paint48_linear_2280_27282" x1="51.9603" y1="23.0369" x2="20.525" y2="64.3782" gradientUnits="userSpaceOnUse">
<stop stop-color="#424161"/>
<stop offset="1" stop-color="#5B60A3"/>
</linearGradient>
<linearGradient id="paint49_linear_2280_27282" x1="49.8344" y1="24.3755" x2="40.1173" y2="37.7103" gradientUnits="userSpaceOnUse">
<stop stop-color="white"/>
<stop offset="1" stop-color="#CFDAF4"/>
</linearGradient>
<linearGradient id="paint50_linear_2280_27282" x1="40.9276" y1="35.24" x2="56.4625" y2="22.6125" gradientUnits="userSpaceOnUse">
<stop stop-color="#424161"/>
<stop offset="1" stop-color="#5B60A3"/>
</linearGradient>
<linearGradient id="paint51_linear_2280_27282" x1="39.465" y1="205.272" x2="93.203" y2="-239.699" gradientUnits="userSpaceOnUse">
<stop stop-color="#CFDAF4"/>
<stop offset="1" stop-color="#A0AFDE"/>
</linearGradient>
<linearGradient id="paint52_linear_2280_27282" x1="85.1135" y1="57.2149" x2="62.2682" y2="88.5663" gradientUnits="userSpaceOnUse">
<stop stop-color="#C2D6A9"/>
<stop offset="1" stop-color="#F3F3F3"/>
</linearGradient>
<linearGradient id="paint53_linear_2280_27282" x1="64.0245" y1="82.8474" x2="100.546" y2="53.1595" gradientUnits="userSpaceOnUse">
<stop stop-color="#429F56"/>
<stop offset="1" stop-color="#FADB81"/>
</linearGradient>
<linearGradient id="paint54_linear_2280_27282" x1="154.89" y1="119.53" x2="129.929" y2="105.119" gradientUnits="userSpaceOnUse">
<stop stop-color="white"/>
<stop offset="1" stop-color="#CFDAF4"/>
</linearGradient>
<linearGradient id="paint55_linear_2280_27282" x1="153.259" y1="112.901" x2="145.707" y2="108.561" gradientUnits="userSpaceOnUse">
<stop stop-color="white"/>
<stop offset="1" stop-color="#CFDAF4"/>
</linearGradient>
<linearGradient id="paint56_linear_2280_27282" x1="172.211" y1="141.859" x2="179.128" y2="96.6102" gradientUnits="userSpaceOnUse">
<stop stop-color="#81D715"/>
<stop offset="1" stop-color="#1766AF"/>
</linearGradient>
<linearGradient id="paint57_linear_2280_27282" x1="48.0704" y1="131.92" x2="132.782" y2="27.8789" gradientUnits="userSpaceOnUse">
<stop stop-color="#1766AF"/>
<stop offset="1" stop-color="#81D715"/>
</linearGradient>
<linearGradient id="paint58_linear_2280_27282" x1="128.198" y1="57.5298" x2="41.5345" y2="110.228" gradientUnits="userSpaceOnUse">
<stop stop-color="white"/>
<stop offset="1" stop-color="#CFDAF4" stop-opacity="0"/>
</linearGradient>
<linearGradient id="paint59_linear_2280_27282" x1="84.2173" y1="69.2874" x2="56.7428" y2="77.6842" gradientUnits="userSpaceOnUse">
<stop stop-color="white" stop-opacity="0.5"/>
<stop offset="1" stop-color="#CFDAF4" stop-opacity="0"/>
</linearGradient>
</defs>
</svg>
