<svg width="30" height="30" viewBox="0 0 30 30" fill="none" xmlns="http://www.w3.org/2000/svg">
<rect x="0.5" y="0.5" width="29" height="28.8226" rx="9.5" fill="white" stroke="#E2E2E2"/>
<path d="M11 7.45581C10.2044 7.45581 9.44129 7.77001 8.87868 8.32929C8.31607 8.88858 8 9.64713 8 10.4381V12.6748H9.5V10.4381C9.5 10.0426 9.65804 9.66332 9.93934 9.38368C10.2206 9.10404 10.6022 8.94694 11 8.94694H20C20.3978 8.94694 20.7794 9.10404 21.0607 9.38368C21.342 9.66332 21.5 10.0426 21.5 10.4381V19.3848C21.5 19.7803 21.342 20.1596 21.0607 20.4392C20.7794 20.7189 20.3978 20.876 20 20.876H11C10.6022 20.876 10.2206 20.7189 9.93934 20.4392C9.65804 20.1596 9.5 19.7803 9.5 19.3848V17.1482H8V19.3848C8 20.1758 8.31607 20.9343 8.87868 21.4936C9.44129 22.0529 10.2044 22.3671 11 22.3671H20C20.7956 22.3671 21.5587 22.0529 22.1213 21.4936C22.6839 20.9343 23 20.1758 23 19.3848V10.4381C23 9.64713 22.6839 8.88858 22.1213 8.32929C21.5587 7.77001 20.7956 7.45581 20 7.45581H11Z" fill="#636363"/>
<path d="M8.75 14.1658C8.55109 14.1658 8.36032 14.2443 8.21967 14.3841C8.07902 14.5239 8 14.7136 8 14.9113C8 15.1091 8.07902 15.2987 8.21967 15.4385C8.36032 15.5783 8.55109 15.6569 8.75 15.6569H15.9365L14.0352 17.5476C13.8986 17.6883 13.823 17.8766 13.8247 18.0721C13.8265 18.2676 13.9053 18.4546 14.0444 18.5928C14.1834 18.731 14.3716 18.8094 14.5682 18.8111C14.7648 18.8128 14.9543 18.7377 15.0958 18.6019L18.2428 15.4735C18.3238 15.4036 18.3888 15.3173 18.4333 15.2203C18.4778 15.1233 18.5009 15.0179 18.5009 14.9113C18.5009 14.8047 18.4778 14.6993 18.4333 14.6023C18.3888 14.5054 18.3238 14.419 18.2428 14.3492L15.095 11.2208C15.0258 11.1496 14.9431 11.0928 14.8516 11.0537C14.7601 11.0146 14.6616 10.9941 14.5621 10.9932C14.4625 10.9923 14.3637 11.0112 14.2715 11.0487C14.1794 11.0862 14.0956 11.1415 14.0252 11.2115C13.9548 11.2815 13.8991 11.3648 13.8614 11.4564C13.8237 11.548 13.8047 11.6462 13.8056 11.7452C13.8064 11.8442 13.8271 11.942 13.8664 12.033C13.9057 12.124 13.9629 12.2062 14.0345 12.275L15.9365 14.1658H8.75Z" fill="#9C4040"/>
</svg>
