<svg width="25" height="26" viewBox="0 0 25 26" fill="none" xmlns="http://www.w3.org/2000/svg">
<path fill-rule="evenodd" clip-rule="evenodd" d="M17.1541 17.8408L18.0057 17.2475C18.5815 16.8478 18.8274 16.0983 18.6115 15.4114C18.4615 14.9492 18.1197 14.5745 17.6819 14.3996C17.2441 14.2247 16.7523 14.2622 16.3445 14.5058C15.5349 14.9867 14.4374 15.6362 13.7717 16.0359C13.214 16.3669 12.8721 16.9852 12.8721 17.6534V24.4296C12.8721 24.7731 13.142 25.0541 13.4718 25.0541C13.8017 25.0541 14.0716 24.7731 14.0716 24.4296V17.6534C14.0716 17.4348 14.1855 17.2287 14.3654 17.1226L16.9382 15.5925C17.0342 15.5363 17.1481 15.5238 17.2561 15.5675C17.358 15.6112 17.442 15.6986 17.472 15.8048C17.52 15.9547 17.466 16.1171 17.34 16.2045L16.1346 17.0414C15.9667 17.16 15.8647 17.3536 15.8647 17.5597V18.8088C15.8647 19.0149 15.9667 19.2148 16.1346 19.3272C16.3025 19.4458 16.5124 19.4646 16.6983 19.3834C16.6983 19.3834 18.6115 18.5527 19.649 18.1031C20.2487 17.8408 20.6685 17.2787 20.7705 16.6105L21.1363 14.1248C21.1603 13.9437 21.3162 13.8063 21.4901 13.8063C21.5921 13.8063 21.688 13.85 21.754 13.9187C21.826 13.9937 21.862 14.0936 21.862 14.1935V18.7963C21.862 19.3084 21.5741 19.7706 21.1243 19.9829L17.526 21.6504C16.8783 21.9502 16.4644 22.6184 16.4644 23.3491V24.4171C16.4644 24.7606 16.7343 25.0416 17.0642 25.0416C17.394 25.0416 17.6639 24.7606 17.6639 24.4171V23.3491C17.6639 23.1056 17.8018 22.887 18.0117 22.7933L21.6101 21.1258C22.4917 20.7199 23.0614 19.8081 23.0614 18.7963V14.1935C23.0614 13.7563 22.8935 13.3379 22.5996 13.0319C22.3057 12.7259 21.9039 12.551 21.4841 12.551C20.7165 12.551 20.0628 13.1381 19.9428 13.925C19.8349 14.6619 19.679 15.7174 19.577 16.4106C19.541 16.6479 19.3911 16.8478 19.1812 16.9352L17.1481 17.8158L17.1541 17.8408ZM7.39065 17.8408L5.35759 16.9602C5.14768 16.8665 4.99775 16.6667 4.96177 16.4356L4.59594 13.9499C4.48199 13.1568 3.82829 12.576 3.05465 12.576C2.63485 12.576 2.23303 12.7508 1.93917 13.0569C1.6453 13.3629 1.47738 13.7813 1.47738 14.2185V18.8213C1.47738 19.8268 2.04712 20.7386 2.92871 21.1508L6.52705 22.8183C6.73695 22.9182 6.87488 23.1368 6.87488 23.3741V24.4421C6.87488 24.7856 7.14476 25.0666 7.47461 25.0666C7.80445 25.0666 8.07433 24.7856 8.07433 24.4421V23.3741C8.07433 22.6372 7.66052 21.9752 7.01282 21.6754L3.41448 20.0079C2.96469 19.8018 2.67683 19.3334 2.67683 18.8213V14.2185C2.67683 14.1123 2.71881 14.0124 2.78478 13.9437C2.85075 13.875 2.9527 13.8313 3.04865 13.8313C3.22257 13.8313 3.3785 13.9687 3.40249 14.1498L3.76832 16.6354C3.86428 17.3037 4.29008 17.8658 4.8898 18.1281C5.92732 18.5777 7.84044 19.4084 7.84044 19.4084C8.02635 19.4895 8.23625 19.4646 8.40418 19.3521C8.5721 19.2335 8.67405 19.0399 8.67405 18.8338V17.5847C8.67405 17.3786 8.5721 17.1788 8.40418 17.0664L7.19873 16.2295C7.07279 16.1421 7.01882 15.9797 7.0668 15.8298C7.10278 15.7236 7.18074 15.6362 7.2827 15.5925C7.38465 15.5487 7.50459 15.5612 7.60055 15.6174L10.1734 17.1476C10.3533 17.2537 10.4672 17.4598 10.4672 17.6784V24.4546C10.4672 24.7981 10.7371 25.0791 11.0669 25.0791C11.3968 25.0791 11.6667 24.7981 11.6667 24.4546V17.6784C11.6667 17.0102 11.3248 16.3919 10.7671 16.0609C10.0954 15.6612 8.9979 15.0117 8.19427 14.5308C7.78646 14.2872 7.29469 14.2497 6.85689 14.4246C6.4191 14.5995 6.07725 14.9679 5.92732 15.4363C5.70543 16.1233 5.95731 16.8728 6.53304 17.2725L7.38465 17.8658L7.39065 17.8408ZM10.4732 8.82254C10.1434 8.82254 9.8735 9.10358 9.8735 9.44708C9.8735 9.79057 10.1434 10.0716 10.4732 10.0716C10.4732 11.1083 11.2768 11.9452 12.2724 11.9452C13.2679 11.9452 14.0716 11.1083 14.0716 10.0716C14.4014 10.0716 14.6713 9.79057 14.6713 9.44708C14.6713 9.10358 14.4014 8.82254 14.0716 8.82254V8.40411C15.4869 7.70463 16.4704 6.19327 16.4704 4.45082C16.4704 2.04013 14.5873 0.0791016 12.2724 0.0791016C9.95746 0.0791016 8.07433 2.04013 8.07433 4.45082C8.07433 6.19327 9.05787 7.69839 10.4732 8.40411V8.82254ZM5.14768 3.51403C5.05173 3.37038 4.90779 3.27046 4.73987 3.24548C4.36804 3.18927 3.98422 3.18927 3.61239 3.24548C3.44447 3.27046 3.29454 3.37038 3.20458 3.51403L2.90472 3.97618C2.90472 3.97618 2.86874 3.99491 2.84475 4.00116L2.31699 3.89499C2.14907 3.86376 1.98115 3.90124 1.84321 4.00741C1.53735 4.24473 1.27348 4.52577 1.04558 4.83803C0.943628 4.98167 0.907644 5.15654 0.93763 5.33141L1.03958 5.881C1.03958 5.881 1.02159 5.91847 1.01559 5.93721L0.571799 6.24947C0.433863 6.3494 0.337908 6.49929 0.313919 6.67416C0.259944 7.06137 0.259944 7.46107 0.313919 7.84828C0.337908 8.02314 0.433863 8.17928 0.571799 8.27296L1.01559 8.58522C1.01559 8.58522 1.03359 8.62269 1.03958 8.64768L0.93763 9.19726C0.907644 9.37213 0.93763 9.547 1.04558 9.69064C1.27348 10.0092 1.54335 10.2839 1.84321 10.5213C1.98115 10.6274 2.14907 10.6649 2.31699 10.6337L2.84475 10.5275C2.84475 10.5275 2.88073 10.5463 2.89872 10.5525L3.19858 11.0147C3.29454 11.1583 3.43847 11.2582 3.6064 11.2832C3.97822 11.3394 4.36205 11.3394 4.73387 11.2832C4.9018 11.2582 5.05173 11.1583 5.14169 11.0147L5.44155 10.5525C5.44155 10.5525 5.47753 10.5338 5.50152 10.5275L6.02928 10.6337C6.1972 10.6649 6.36512 10.6274 6.50306 10.5213C6.80891 10.2839 7.07279 10.0029 7.30069 9.69064C7.40264 9.547 7.43862 9.37213 7.40864 9.19726L7.30668 8.64768C7.30668 8.64768 7.32468 8.6102 7.33067 8.59147L7.77447 8.2792C7.9124 8.17928 8.00836 8.02939 8.03235 7.85452C8.08632 7.46731 8.08632 7.06761 8.03235 6.6804C8.00836 6.50553 7.9124 6.3494 7.77447 6.25572L7.33067 5.94345C7.33067 5.94345 7.31268 5.90598 7.30668 5.881L7.40864 5.33141C7.43862 5.15654 7.40264 4.98167 7.30069 4.83803C7.07279 4.51952 6.80292 4.24473 6.50306 4.00741C6.36512 3.90124 6.1972 3.86376 6.02928 3.89499L5.50152 4.00116C5.50152 4.00116 5.46554 3.98242 5.44754 3.97618L5.14768 3.51403ZM12.8721 10.0716C12.8721 10.4151 12.6022 10.6961 12.2724 10.6961C11.9425 10.6961 11.6727 10.4151 11.6727 10.0716H12.8721ZM21.1903 3.52027C21.0823 3.32042 20.8844 3.20176 20.6685 3.20176C20.4526 3.20176 20.2487 3.32667 20.1467 3.52027L19.2592 5.18153L17.544 5.58747C17.34 5.63743 17.1721 5.79357 17.1062 5.99966C17.0402 6.20576 17.0822 6.43683 17.2201 6.59921L18.4016 8.04188L18.2216 9.97168C18.2036 10.1965 18.2936 10.4089 18.4735 10.54C18.6474 10.6712 18.8753 10.6899 19.0732 10.5962L20.6745 9.82804L22.2758 10.5962C22.4677 10.6899 22.7016 10.6649 22.8755 10.54C23.0494 10.4089 23.1454 10.1965 23.1274 9.97168L22.9475 8.04188L24.1289 6.59921C24.2668 6.43059 24.3088 6.20576 24.2429 5.99966C24.1769 5.79357 24.009 5.63743 23.8051 5.58747L22.0898 5.18153L21.2023 3.52027H21.1903ZM4.31407 4.45082L4.56595 4.83803C4.63792 4.95045 4.74587 5.03788 4.87181 5.0816C4.97376 5.11283 5.06972 5.15654 5.16567 5.20651C5.28562 5.26896 5.41756 5.2877 5.5495 5.26271L5.98729 5.17528C6.05326 5.23773 6.11923 5.30643 6.17921 5.37513L6.09524 5.83104C6.07126 5.96843 6.09524 6.10583 6.14922 6.23074C6.1972 6.33066 6.23918 6.43059 6.26916 6.53676C6.31114 6.66791 6.39511 6.78033 6.50306 6.85527L6.87488 7.11757C6.87488 7.21125 6.87488 7.31118 6.87488 7.40486L6.50306 7.66716C6.39511 7.7421 6.31114 7.85452 6.26916 7.98567C6.23918 8.09184 6.1972 8.19177 6.14922 8.29169C6.08925 8.4166 6.07126 8.554 6.09524 8.69139L6.17921 9.1473C6.11923 9.216 6.05326 9.2847 5.98729 9.34715L5.5495 9.25972C5.41756 9.23474 5.28562 9.25972 5.16567 9.31592C5.06972 9.36589 4.97376 9.4096 4.87181 9.44083C4.74587 9.48455 4.63792 9.57198 4.56595 9.6844L4.31407 10.0716C4.22411 10.0716 4.12815 10.0716 4.0382 10.0716L3.78631 9.6844C3.71435 9.57198 3.6064 9.48455 3.48045 9.44083C3.3785 9.4096 3.28255 9.36589 3.18659 9.31592C3.06665 9.25347 2.93471 9.23474 2.80277 9.25972L2.36497 9.34715C2.299 9.2847 2.23303 9.216 2.17306 9.1473L2.25702 8.69139C2.28101 8.554 2.26302 8.4166 2.20305 8.29169C2.15507 8.19177 2.11309 8.09184 2.0831 7.98567C2.04112 7.85452 1.95716 7.7421 1.84921 7.66716L1.47738 7.40486C1.47738 7.31118 1.47738 7.21125 1.47738 7.11757L1.84921 6.85527C1.95716 6.78033 2.04112 6.66791 2.0831 6.53676C2.11309 6.43059 2.15507 6.33066 2.20305 6.23074C2.26302 6.10583 2.28101 5.96843 2.25702 5.83104L2.17306 5.37513C2.23303 5.30643 2.299 5.23773 2.36497 5.17528L2.80277 5.26271C2.93471 5.2877 3.06665 5.26896 3.18659 5.20651C3.28255 5.15654 3.3785 5.11283 3.48045 5.0816C3.6064 5.03788 3.71435 4.95045 3.78631 4.83803L4.0382 4.45082H4.31407ZM20.6685 5.10658L21.1663 6.03089C21.2502 6.18702 21.3942 6.29944 21.5561 6.33691L22.5696 6.57423L21.868 7.43608C21.76 7.56724 21.712 7.72961 21.724 7.90448L21.826 9.01615L20.9204 8.57898C20.7585 8.50403 20.5785 8.50403 20.4166 8.57898L19.511 9.01615L19.613 7.90448C19.631 7.73586 19.577 7.56724 19.4691 7.43608L18.7674 6.57423L19.7809 6.33691C19.9488 6.29944 20.0868 6.18702 20.1707 6.03089L20.6685 5.10658ZM4.17613 5.69364C3.34852 5.69364 2.67683 6.39312 2.67683 7.25497C2.67683 8.11682 3.34852 8.8163 4.17613 8.8163C5.00375 8.8163 5.67544 8.11682 5.67544 7.25497C5.67544 6.39312 5.00375 5.69364 4.17613 5.69364ZM12.8721 8.8163H11.6727V7.97943C11.6727 7.71712 11.5107 7.4798 11.2709 7.39237C10.1074 6.96144 9.27377 5.80606 9.27377 4.44458C9.27377 2.72087 10.6172 1.32192 12.2724 1.32192C13.9276 1.32192 15.271 2.72087 15.271 4.44458C15.271 5.80606 14.4374 6.96144 13.2739 7.39237C13.034 7.4798 12.8721 7.71712 12.8721 7.97943V8.8163ZM4.17613 6.9427C4.34405 6.9427 4.47599 7.0801 4.47599 7.25497C4.47599 7.42984 4.34405 7.56724 4.17613 7.56724C4.00821 7.56724 3.87627 7.42984 3.87627 7.25497C3.87627 7.0801 4.00821 6.9427 4.17613 6.9427ZM11.6727 5.25022V6.31817C11.6727 6.66166 11.9425 6.9427 12.2724 6.9427C12.6022 6.9427 12.8721 6.66166 12.8721 6.31817V5.25022C13.3999 5.00666 13.7717 4.45707 13.7717 3.82005C13.7717 2.95819 13.1 2.25872 12.2724 2.25872C11.4448 2.25872 10.7731 2.95819 10.7731 3.82005C10.7731 4.45707 11.1449 5.0129 11.6727 5.25022ZM12.2724 3.50778C12.4403 3.50778 12.5722 3.64518 12.5722 3.82005C12.5722 3.99491 12.4403 4.13231 12.2724 4.13231C12.1045 4.13231 11.9725 3.99491 11.9725 3.82005C11.9725 3.64518 12.1045 3.50778 12.2724 3.50778Z" fill="url(#paint0_linear_4803_16138)"/>
<defs>
<linearGradient id="paint0_linear_4803_16138" x1="12.2734" y1="0.0791016" x2="12.2734" y2="25.0791" gradientUnits="userSpaceOnUse">
<stop stop-color="#296FE2"/>
<stop offset="1" stop-color="#303030"/>
</linearGradient>
</defs>
</svg>
