<svg width="22" height="23" viewBox="0 0 22 23" fill="none" xmlns="http://www.w3.org/2000/svg">
<path fill-rule="evenodd" clip-rule="evenodd" d="M15.474 16.3407L16.2546 15.7949C16.7824 15.4272 17.0078 14.7377 16.8099 14.1057C16.6724 13.6805 16.3591 13.3357 15.9577 13.1749C15.5564 13.014 15.1056 13.0485 14.7318 13.2725C13.9897 13.715 12.9836 14.3125 12.3734 14.6802C11.8621 14.9848 11.5488 15.5536 11.5488 16.1684V22.4025C11.5488 22.7185 11.7962 22.977 12.0985 22.977C12.4009 22.977 12.6483 22.7185 12.6483 22.4025V16.1684C12.6483 15.9673 12.7527 15.7777 12.9177 15.68L15.2761 14.2723C15.364 14.2206 15.4685 14.2091 15.5674 14.2493C15.6609 14.2895 15.7378 14.37 15.7653 14.4677C15.8093 14.6055 15.7598 14.7549 15.6444 14.8354L14.5394 15.6053C14.3855 15.7145 14.292 15.8926 14.292 16.0822V17.2313C14.292 17.4209 14.3855 17.6048 14.5394 17.7082C14.6933 17.8174 14.8857 17.8346 15.0562 17.7599C15.0562 17.7599 16.8098 16.9958 17.7609 16.5821C18.3107 16.3407 18.6955 15.8236 18.7889 15.2088L19.1243 12.9221C19.1463 12.7554 19.2892 12.629 19.4486 12.629C19.5421 12.629 19.63 12.6692 19.6905 12.7325C19.7565 12.8014 19.7895 12.8933 19.7895 12.9853V17.2198C19.7895 17.691 19.5256 18.1162 19.1133 18.3115L15.8148 19.8456C15.2211 20.1214 14.8418 20.7362 14.8418 21.4084V22.391C14.8418 22.707 15.0891 22.9655 15.3915 22.9655C15.6939 22.9655 15.9413 22.707 15.9413 22.391V21.4084C15.9413 21.1844 16.0677 20.9833 16.2601 20.8971L19.5586 19.363C20.3667 18.9895 20.889 18.1506 20.889 17.2198V12.9853C20.889 12.5831 20.735 12.1981 20.4657 11.9166C20.1963 11.635 19.828 11.4741 19.4431 11.4741C18.7395 11.4741 18.1402 12.0142 18.0303 12.7382C17.9313 13.4162 17.7884 14.3872 17.6949 15.025C17.662 15.2433 17.5245 15.4272 17.3321 15.5076L15.4685 16.3178L15.474 16.3407ZM6.52411 16.3407L4.66047 15.5306C4.46806 15.4444 4.33062 15.2606 4.29764 15.048L3.96229 12.7612C3.85784 12.0315 3.25862 11.4971 2.54945 11.4971C2.16462 11.4971 1.79629 11.658 1.52692 11.9395C1.25754 12.2211 1.10361 12.606 1.10361 13.0082V17.2428C1.10361 18.1679 1.62587 19.0067 2.434 19.386L5.73247 20.9201C5.92488 21.012 6.05133 21.2131 6.05133 21.4314V22.4139C6.05133 22.73 6.29871 22.9885 6.60107 22.9885C6.90343 22.9885 7.15082 22.73 7.15082 22.4139V21.4314C7.15082 20.7534 6.77149 20.1444 6.17777 19.8686L2.87929 18.3345C2.46698 18.1449 2.20311 17.714 2.20311 17.2428V13.0082C2.20311 12.9106 2.24159 12.8186 2.30206 12.7554C2.36253 12.6922 2.45599 12.652 2.54395 12.652C2.70337 12.652 2.84631 12.7784 2.8683 12.945L3.20364 15.2318C3.2916 15.8466 3.68192 16.3637 4.23167 16.605C5.18273 17.0187 6.93642 17.7829 6.93642 17.7829C7.10684 17.8576 7.29925 17.8346 7.45318 17.7312C7.60711 17.622 7.70056 17.4439 7.70056 17.2543V16.1052C7.70056 15.9156 7.60711 15.7317 7.45318 15.6283L6.34819 14.8584C6.23274 14.7779 6.18326 14.6285 6.22724 14.4906C6.26023 14.393 6.3317 14.3125 6.42515 14.2723C6.51861 14.2321 6.62856 14.2436 6.71652 14.2953L9.07493 15.703C9.23985 15.8007 9.3443 15.9903 9.3443 16.1914V22.4254C9.3443 22.7414 9.59169 23 9.89405 23C10.1964 23 10.4438 22.7414 10.4438 22.4254V16.1914C10.4438 15.5766 10.1304 15.0077 9.61918 14.7032C9.00346 14.3355 7.99743 13.7379 7.26077 13.2955C6.88694 13.0714 6.43615 13.037 6.03483 13.1979C5.63352 13.3587 5.32016 13.6977 5.18273 14.1287C4.97932 14.7607 5.21022 15.4502 5.73797 15.8179L6.51861 16.3637L6.52411 16.3407ZM9.3498 8.04397C9.04744 8.04397 8.80005 8.30252 8.80005 8.61854C8.80005 8.93455 9.04744 9.19311 9.3498 9.19311C9.3498 10.1469 10.0865 10.9168 10.999 10.9168C11.9116 10.9168 12.6483 10.1469 12.6483 9.19311C12.9506 9.19311 13.198 8.93455 13.198 8.61854C13.198 8.30252 12.9506 8.04397 12.6483 8.04397V7.65901C13.9457 7.01549 14.8473 5.62503 14.8473 4.02198C14.8473 1.80415 13.1211 0 10.999 0C8.87702 0 7.15082 1.80415 7.15082 4.02198C7.15082 5.62503 8.0524 7.00974 9.3498 7.65901V8.04397ZM4.46806 3.16013C4.3801 3.02798 4.24816 2.93605 4.09423 2.91307C3.75339 2.86135 3.40155 2.86135 3.06071 2.91307C2.90678 2.93605 2.76934 3.02798 2.68688 3.16013L2.41201 3.58531C2.41201 3.58531 2.37902 3.60255 2.35703 3.60829L1.87326 3.51062C1.71933 3.48189 1.5654 3.51636 1.43896 3.61404C1.15859 3.83238 0.916701 4.09093 0.707798 4.37822C0.614341 4.51037 0.581356 4.67125 0.608843 4.83213L0.7023 5.33775C0.7023 5.33775 0.685808 5.37222 0.68031 5.38946L0.273498 5.67674C0.147057 5.76867 0.0590977 5.90657 0.0371078 6.06745C-0.0123693 6.42368 -0.0123693 6.79141 0.0371078 7.14764C0.0590977 7.30852 0.147057 7.45216 0.273498 7.53835L0.68031 7.82563C0.68031 7.82563 0.696803 7.86011 0.7023 7.88309L0.608843 8.38871C0.581356 8.54959 0.608844 8.71047 0.707798 8.84262C0.916701 9.13565 1.16409 9.38846 1.43896 9.6068C1.5654 9.70447 1.71933 9.73895 1.87326 9.71022L2.35703 9.61254C2.35703 9.61254 2.39002 9.62978 2.40651 9.63552L2.68138 10.0607C2.76934 10.1929 2.90128 10.2848 3.05521 10.3078C3.39605 10.3595 3.74789 10.3595 4.08873 10.3078C4.24266 10.2848 4.3801 10.1929 4.46256 10.0607L4.73743 9.63552C4.73743 9.63552 4.77042 9.61829 4.79241 9.61254L5.27618 9.71022C5.43011 9.73895 5.58404 9.70447 5.71048 9.6068C5.99085 9.38846 6.23274 9.1299 6.44165 8.84262C6.5351 8.71047 6.56809 8.54959 6.5406 8.38871L6.44714 7.88309C6.44714 7.88309 6.46364 7.84861 6.46913 7.83138L6.87594 7.54409C7.00239 7.45216 7.09035 7.31427 7.11234 7.15339C7.16181 6.79715 7.16181 6.42943 7.11234 6.0732C7.09035 5.91232 7.00239 5.76867 6.87594 5.68249L6.46913 5.3952C6.46913 5.3952 6.45264 5.36073 6.44714 5.33775L6.5406 4.83213C6.56809 4.67125 6.5351 4.51037 6.44165 4.37822C6.23274 4.08519 5.98536 3.83238 5.71048 3.61404C5.58404 3.51636 5.43011 3.48189 5.27618 3.51062L4.79241 3.60829C4.79241 3.60829 4.75942 3.59106 4.74293 3.58531L4.46806 3.16013ZM11.5488 9.19311C11.5488 9.50912 11.3014 9.76767 10.999 9.76767C10.6967 9.76767 10.4493 9.50912 10.4493 9.19311H11.5488ZM19.1738 3.16588C19.0748 2.98201 18.8934 2.87285 18.6955 2.87285C18.4976 2.87285 18.3107 2.98776 18.2172 3.16588L17.4036 4.69423L15.8313 5.0677C15.6444 5.11367 15.4905 5.25731 15.43 5.44691C15.3695 5.63652 15.408 5.84911 15.5344 5.9985L16.6174 7.32576L16.4525 9.10117C16.436 9.30802 16.5185 9.50337 16.6834 9.62403C16.8428 9.74469 17.0517 9.76193 17.2332 9.67574L18.701 8.96902L20.1688 9.67574C20.3447 9.76193 20.5591 9.73895 20.7185 9.62403C20.878 9.50337 20.9659 9.30802 20.9494 9.10117L20.7845 7.32576L21.8675 5.9985C21.994 5.84337 22.0324 5.63652 21.972 5.44691C21.9115 5.25731 21.7576 5.11367 21.5706 5.0677L19.9984 4.69423L19.1848 3.16588H19.1738ZM3.70391 4.02198L3.9348 4.37822C4.00077 4.48164 4.09973 4.56208 4.21518 4.6023C4.30863 4.63103 4.39659 4.67125 4.48455 4.71721C4.5945 4.77467 4.71544 4.79191 4.83639 4.76892L5.2377 4.68848C5.29817 4.74594 5.35865 4.80914 5.41362 4.87235L5.33666 5.29178C5.31467 5.41819 5.33666 5.54459 5.38613 5.65951C5.43011 5.75144 5.4686 5.84337 5.49608 5.94104C5.53456 6.0617 5.61153 6.16513 5.71048 6.23408L6.05133 6.47539C6.05133 6.56158 6.05133 6.65351 6.05133 6.7397L5.71048 6.98101C5.61153 7.04996 5.53456 7.15339 5.49608 7.27404C5.4686 7.37172 5.43011 7.46365 5.38613 7.55558C5.33116 7.6705 5.31467 7.7969 5.33666 7.92331L5.41362 8.34274C5.35865 8.40595 5.29817 8.46915 5.2377 8.52661L4.83639 8.44617C4.71544 8.42318 4.5945 8.44617 4.48455 8.49788C4.39659 8.54384 4.30863 8.58406 4.21518 8.61279C4.09973 8.65301 4.00077 8.73345 3.9348 8.83687L3.70391 9.19311C3.62145 9.19311 3.53349 9.19311 3.45103 9.19311L3.22014 8.83687C3.15417 8.73345 3.05521 8.65301 2.93977 8.61279C2.84631 8.58406 2.75835 8.54384 2.67039 8.49788C2.56044 8.44042 2.4395 8.42318 2.31855 8.44617L1.91724 8.52661C1.85677 8.46915 1.79629 8.40595 1.74132 8.34274L1.81828 7.92331C1.84027 7.7969 1.82378 7.6705 1.76881 7.55558C1.72483 7.46365 1.68635 7.37172 1.65886 7.27404C1.62038 7.15339 1.54341 7.04996 1.44446 6.98101L1.10361 6.7397C1.10361 6.65351 1.10361 6.56158 1.10361 6.47539L1.44446 6.23408C1.54341 6.16513 1.62038 6.0617 1.65886 5.94104C1.68635 5.84337 1.72483 5.75144 1.76881 5.65951C1.82378 5.54459 1.84027 5.41819 1.81828 5.29178L1.74132 4.87235C1.79629 4.80914 1.85677 4.74594 1.91724 4.68848L2.31855 4.76892C2.4395 4.79191 2.56044 4.77467 2.67039 4.71721C2.75835 4.67125 2.84631 4.63103 2.93977 4.6023C3.05521 4.56208 3.15417 4.48164 3.22014 4.37822L3.45103 4.02198H3.70391ZM18.6955 4.62528L19.1518 5.47564C19.2287 5.61929 19.3607 5.72271 19.5091 5.75718L20.4382 5.97552L19.795 6.76842C19.696 6.88908 19.652 7.03847 19.663 7.19935L19.7565 8.22208L18.9264 7.81989C18.7779 7.75094 18.613 7.75094 18.4646 7.81989L17.6345 8.22208L17.7279 7.19935C17.7444 7.04422 17.6949 6.88908 17.596 6.76842L16.9528 5.97552L17.8819 5.75718C18.0358 5.72271 18.1622 5.61929 18.2392 5.47564L18.6955 4.62528ZM3.57747 5.16538C2.81882 5.16538 2.20311 5.80889 2.20311 6.6018C2.20311 7.3947 2.81882 8.03822 3.57747 8.03822C4.33612 8.03822 4.95183 7.3947 4.95183 6.6018C4.95183 5.80889 4.33612 5.16538 3.57747 5.16538ZM11.5488 8.03822H10.4493V7.2683C10.4493 7.02698 10.3009 6.80864 10.081 6.7282C9.01446 6.33175 8.25031 5.2688 8.25031 4.01624C8.25031 2.43043 9.48174 1.14339 10.999 1.14339C12.5163 1.14339 13.7478 2.43043 13.7478 4.01624C13.7478 5.2688 12.9836 6.33175 11.9171 6.7282C11.6972 6.80864 11.5488 7.02698 11.5488 7.2683V8.03822ZM3.57747 6.31451C3.7314 6.31451 3.85234 6.44092 3.85234 6.6018C3.85234 6.76268 3.7314 6.88908 3.57747 6.88908C3.42354 6.88908 3.3026 6.76268 3.3026 6.6018C3.3026 6.44092 3.42354 6.31451 3.57747 6.31451ZM10.4493 4.75743V5.73995C10.4493 6.05596 10.6967 6.31451 10.999 6.31451C11.3014 6.31451 11.5488 6.05596 11.5488 5.73995V4.75743C12.0326 4.53335 12.3734 4.02773 12.3734 3.44167C12.3734 2.64876 11.7577 2.00525 10.999 2.00525C10.2404 2.00525 9.62467 2.64876 9.62467 3.44167C9.62467 4.02773 9.96552 4.5391 10.4493 4.75743ZM10.999 3.15438C11.153 3.15438 11.2739 3.28079 11.2739 3.44167C11.2739 3.60255 11.153 3.72895 10.999 3.72895C10.8451 3.72895 10.7242 3.60255 10.7242 3.44167C10.7242 3.28079 10.8451 3.15438 10.999 3.15438Z" fill="url(#paint0_linear_5172_11199)"/>
<defs>
<linearGradient id="paint0_linear_5172_11199" x1="11" y1="0" x2="11" y2="23" gradientUnits="userSpaceOnUse">
<stop stop-color="#FF9900"/>
<stop offset="1" stop-color="#636363"/>
</linearGradient>
</defs>
</svg>
