<svg width="22" height="16" viewBox="0 0 22 16" fill="none" xmlns="http://www.w3.org/2000/svg">
<path fill-rule="evenodd" clip-rule="evenodd" d="M20.2638 8C20.2638 11.6549 16.0804 14.6185 10.92 14.6185C5.75953 14.6185 1.57617 11.6549 1.57617 8C1.57617 4.3451 5.75953 1.38147 10.92 1.38147C16.0804 1.38147 20.2638 4.3451 20.2638 8Z" stroke="#636363" stroke-width="2" stroke-linecap="round" stroke-linejoin="round"/>
<path fill-rule="evenodd" clip-rule="evenodd" d="M13.2553 8.00023C13.2841 8.94054 12.8453 9.82335 12.1107 10.3029C11.3761 10.7825 10.4626 10.7825 9.72795 10.3029C8.99333 9.82335 8.55452 8.94054 8.58337 8.00023C8.55452 7.05992 8.99333 6.17711 9.72795 5.69754C10.4626 5.21797 11.3761 5.21797 12.1107 5.69754C12.8453 6.17711 13.2841 7.05992 13.2553 8.00023V8.00023Z" stroke="#636363" stroke-width="2" stroke-linecap="round" stroke-linejoin="round"/>
</svg>
