<svg width="373" height="80" viewBox="0 0 373 80" fill="none" xmlns="http://www.w3.org/2000/svg">
<rect x="0.5" y="0.5" width="111" height="79" rx="9.5" fill="white"/>
<rect x="0.5" y="0.5" width="111" height="79" rx="9.5" stroke="#A6A6A6"/>
<path d="M51.6237 34.7487L50.1654 34.0195L48.707 34.7487V31.832H51.6237V34.7487Z" fill="#BFBFBF"/>
<path d="M63.2917 34.7487L61.8333 34.0195L60.375 34.7487V31.832H63.2917V34.7487Z" fill="#BFBFBF"/>
<path d="M50.1667 21.6237L48.7083 20.8945L47.25 21.6237V18.707H50.1667V21.6237Z" fill="#BFBFBF"/>
<path d="M67.6667 21.6237L66.2083 20.8945L64.75 21.6237V18.707H67.6667V21.6237Z" fill="#BFBFBF"/>
<path d="M60.3737 21.6237L58.9154 20.8945L57.457 21.6237V18.707H60.3737V21.6237Z" fill="#BFBFBF"/>
<path d="M64.0221 15.7917L62.5638 15.0625L61.1055 15.7917V12.875H64.0221V15.7917Z" fill="#BFBFBF"/>
<path d="M72.7708 8.5H69.8542C69.6608 8.5 69.4753 8.57682 69.3386 8.71357C69.2018 8.85031 69.125 9.03578 69.125 9.22917V17.9792H66.9375V12.875C66.9375 12.6816 66.8607 12.4961 66.7239 12.3594C66.5872 12.2227 66.4017 12.1458 66.2083 12.1458H58.9167C58.7233 12.1458 58.5378 12.2227 58.4011 12.3594C58.2643 12.4961 58.1875 12.6816 58.1875 12.875V17.9792H55.2708C55.0774 17.9792 54.892 18.056 54.7552 18.1927C54.6185 18.3295 54.5417 18.5149 54.5417 18.7083V23.8125H53.0833V18.7083C53.0833 18.5149 53.0065 18.3295 52.8698 18.1927C52.733 18.056 52.5476 17.9792 52.3542 17.9792H45.0625C44.8691 17.9792 44.6836 18.056 44.5469 18.1927C44.4102 18.3295 44.3333 18.5149 44.3333 18.7083V23.8125H42.875V9.22917C42.875 9.03578 42.7982 8.85031 42.6614 8.71357C42.5247 8.57682 42.3392 8.5 42.1458 8.5H39.2292C39.0358 8.5 38.8503 8.57682 38.7136 8.71357C38.5768 8.85031 38.5 9.03578 38.5 9.22917V42.7708C38.5 42.9642 38.5768 43.1497 38.7136 43.2864C38.8503 43.4232 39.0358 43.5 39.2292 43.5H42.1458C42.3392 43.5 42.5247 43.4232 42.6614 43.2864C42.7982 43.1497 42.875 42.9642 42.875 42.7708V41.3125H69.125V42.7708C69.125 42.9642 69.2018 43.1497 69.3386 43.2864C69.4753 43.4232 69.6608 43.5 69.8542 43.5H72.7708C72.9642 43.5 73.1497 43.4232 73.2864 43.2864C73.4232 43.1497 73.5 42.9642 73.5 42.7708V9.22917C73.5 9.03578 73.4232 8.85031 73.2864 8.71357C73.1497 8.57682 72.9642 8.5 72.7708 8.5ZM41.4167 42.0417H39.9583V9.95833H41.4167V42.0417ZM59.6458 13.6042H65.4792V17.9792H59.6458V13.6042ZM56 19.4375H61.8333V23.8125H56V19.4375ZM45.7917 19.4375H51.625V23.8125H45.7917V19.4375ZM69.125 39.8542H42.875V38.3958H69.125V39.8542ZM47.25 36.9375V32.5625H53.0833V36.9375H47.25ZM58.9167 36.9375V32.5625H64.75V36.9375H58.9167ZM69.125 36.9375H66.2083V31.8333C66.2083 31.6399 66.1315 31.4545 65.9948 31.3177C65.858 31.181 65.6726 31.1042 65.4792 31.1042H58.1875C57.9941 31.1042 57.8086 31.181 57.6719 31.3177C57.5352 31.4545 57.4583 31.6399 57.4583 31.8333V36.9375H54.5417V31.8333C54.5417 31.6399 54.4648 31.4545 54.3281 31.3177C54.1914 31.181 54.0059 31.1042 53.8125 31.1042H46.5208C46.3274 31.1042 46.142 31.181 46.0052 31.3177C45.8685 31.4545 45.7917 31.6399 45.7917 31.8333V36.9375H42.875V28.1875H69.125V36.9375ZM69.125 26.7292H42.875V25.2708H69.125V26.7292ZM69.125 23.8125H63.2917V19.4375H69.125V23.8125ZM72.0417 42.0417H70.5833V9.95833H72.0417V42.0417Z" fill="url(#paint0_linear_2611_60186)"/>
<path d="M45.645 58.0826C45.7667 58.0501 45.8905 58.0278 46.0163 58.0157C46.1421 58.0035 46.2659 57.9974 46.3876 57.9974C46.6595 57.9974 46.9395 58.038 47.2276 58.1191C47.5198 58.1962 47.812 58.3119 48.1041 58.4661L47.4285 60.2496C47.2337 60.1643 47.0491 60.0994 46.8746 60.0548C46.7001 60.0061 46.5357 59.9817 46.3815 59.9817C46.276 59.9817 46.1563 59.9939 46.0224 60.0183C45.8925 60.0304 45.7525 60.069 45.6024 60.1339C45.4522 60.1948 45.3021 60.2739 45.1519 60.3713C45.0059 60.4687 44.8638 60.5823 44.7259 60.7122C44.5879 60.838 44.4641 60.9719 44.3546 61.1139C44.2491 61.2559 44.1618 61.4041 44.0928 61.5583C44.0238 61.7084 43.9853 61.8545 43.9772 61.9965C43.9691 62.1101 44.0015 62.2035 44.0746 62.2765C44.1476 62.3455 44.245 62.4064 44.3667 62.4591C44.4885 62.5078 44.6264 62.5525 44.7806 62.593C44.9348 62.6296 45.0911 62.6722 45.2493 62.7209L45.4259 62.7635C45.6856 62.8243 45.9433 62.8933 46.1989 62.9704C46.4586 63.0475 46.692 63.1571 46.8989 63.2991C47.1059 63.4371 47.2722 63.6197 47.398 63.847C47.5279 64.0742 47.5928 64.3684 47.5928 64.7296C47.5928 64.8026 47.5888 64.8777 47.5806 64.9548C47.5766 65.0359 47.5664 65.1191 47.5502 65.2043C47.5096 65.4235 47.4366 65.6365 47.3311 65.8435C47.2256 66.0545 47.0917 66.2533 46.9293 66.44C46.7711 66.6307 46.5864 66.8072 46.3754 66.9696C46.1685 67.1359 45.9412 67.2841 45.6937 67.4139C45.227 67.6452 44.6934 67.8238 44.0928 67.9496C43.4922 68.0794 42.847 68.1443 42.1572 68.1443C41.3293 68.1443 40.5989 68.0226 39.9659 67.7791C39.3328 67.5397 38.8073 67.1887 38.3893 66.7261C38.0728 66.3487 37.8395 65.9348 37.6893 65.4843C37.5433 65.0339 37.4702 64.5632 37.4702 64.0722C37.4702 63.9667 37.4743 63.8612 37.4824 63.7557C37.4905 63.6501 37.4986 63.5507 37.5067 63.4574C37.523 63.1652 37.5554 62.8791 37.6041 62.5991C37.6528 62.3151 37.7076 62.0493 37.7685 61.8017C37.8334 61.5501 37.9024 61.3188 37.9754 61.1078C38.0485 60.8928 38.1154 60.7061 38.1763 60.5478C38.2372 60.3855 38.2879 60.2577 38.3285 60.1643C38.3731 60.067 38.3995 60.0081 38.4076 59.9878L39.9354 60.627C39.834 60.8664 39.7366 61.1017 39.6433 61.333C39.554 61.5603 39.4728 61.7957 39.3998 62.0391C39.3308 62.2786 39.2719 62.5322 39.2233 62.8C39.1786 63.0678 39.1502 63.36 39.138 63.6765C39.134 63.7212 39.1299 63.7699 39.1259 63.8226C39.1218 63.8754 39.1198 63.922 39.1198 63.9626C39.1198 64.2183 39.1583 64.4699 39.2354 64.7174C39.3166 64.9649 39.4485 65.1881 39.6311 65.387C39.7406 65.5128 39.8827 65.6223 40.0572 65.7157C40.2357 65.813 40.4366 65.8942 40.6598 65.9591C40.883 66.0281 41.1224 66.0788 41.378 66.1113C41.6337 66.1478 41.8934 66.1661 42.1572 66.1661C42.6725 66.1661 43.1534 66.1296 43.5998 66.0565C44.0502 65.9875 44.4459 65.8942 44.7867 65.7765C45.1276 65.6629 45.4015 65.529 45.6085 65.3748C45.8195 65.2246 45.9412 65.0704 45.9737 64.9122C45.9656 64.9122 45.9412 64.9081 45.9006 64.9C45.8601 64.8919 45.8073 64.8797 45.7424 64.8635C45.6815 64.8513 45.6105 64.8351 45.5293 64.8148C45.4522 64.7986 45.3711 64.7803 45.2859 64.76L44.9572 64.687C44.596 64.5977 44.2551 64.4942 43.9346 64.3765C43.618 64.2629 43.3401 64.1107 43.1006 63.92C42.8653 63.7333 42.6766 63.498 42.5346 63.2139C42.3966 62.9258 42.3276 62.5626 42.3276 62.1243C42.3479 61.6577 42.4453 61.2032 42.6198 60.7609C42.7943 60.3186 43.0296 59.9148 43.3259 59.5496C43.6221 59.1843 43.967 58.8739 44.3606 58.6183C44.7583 58.3586 45.1885 58.18 45.6511 58.0826H45.645ZM52.4391 59.4035C52.5933 59.8417 52.7272 60.2699 52.8409 60.6878C52.8896 60.8704 52.9383 61.0612 52.987 61.26C53.0357 61.4548 53.0783 61.6516 53.1148 61.8504C53.1554 62.0452 53.1878 62.238 53.2122 62.4287C53.2365 62.6154 53.2487 62.7899 53.2487 62.9522C53.2487 63.3336 53.1959 63.7049 53.0904 64.0661C52.989 64.4313 52.8429 64.7843 52.6522 65.1252C52.4655 65.4661 52.2423 65.7928 51.9826 66.1052C51.7229 66.4217 51.4348 66.718 51.1183 66.9939C50.8017 67.2699 50.4629 67.5255 50.1017 67.7609C49.7406 68.0003 49.3672 68.2154 48.9817 68.4061L47.8739 66.8661C48.1661 66.72 48.4623 66.5536 48.7626 66.367C49.0588 66.1843 49.3429 65.9875 49.6148 65.7765C49.8907 65.5655 50.1464 65.3443 50.3817 65.113C50.6212 64.8817 50.8281 64.6464 51.0026 64.407C51.1812 64.1675 51.3212 63.9241 51.4226 63.6765C51.5241 63.433 51.5748 63.1936 51.5748 62.9583C51.5748 62.7878 51.5504 62.6032 51.5017 62.4043C51.4571 62.2055 51.3942 61.9925 51.313 61.7652C51.2359 61.5339 51.1426 61.2904 51.033 61.0348C50.9235 60.7751 50.8058 60.4991 50.68 60.207L52.4391 59.4035ZM57.1718 63.8652C56.6726 63.8652 56.2445 63.8023 55.8874 63.6765C55.5303 63.5548 55.2219 63.3661 54.9622 63.1104C54.7999 62.9481 54.6741 62.7777 54.5848 62.5991C54.4996 62.4206 54.4367 62.2461 54.3961 62.0757C54.3596 61.9012 54.3373 61.7368 54.3292 61.5826C54.3251 61.4284 54.3231 61.2965 54.3231 61.187V61.0957C54.3271 60.9455 54.3312 60.7304 54.3352 60.4504C54.3434 60.1664 54.3474 59.8336 54.3474 59.4522C54.3474 59.0707 54.3454 58.6507 54.3413 58.1922C54.3373 57.7336 54.3251 57.2771 54.3048 56.8226C54.2886 56.3641 54.2622 55.9238 54.2257 55.5017C54.1932 55.0797 54.1465 54.7125 54.0857 54.4L55.9057 53.8461C55.9584 54.1139 56.001 54.4304 56.0335 54.7957C56.066 55.1568 56.0923 55.5362 56.1126 55.9339C56.137 56.3316 56.1532 56.7313 56.1613 57.133C56.1735 57.5348 56.1816 57.9081 56.1857 58.253C56.1897 58.5574 56.1776 58.8557 56.1492 59.1478C56.1248 59.4359 56.1045 59.72 56.0883 60C56.0721 60.2759 56.0721 60.5458 56.0883 60.8096C56.1086 61.0693 56.1654 61.3229 56.2587 61.5704C56.2952 61.6638 56.3399 61.7348 56.3926 61.7835C56.4494 61.8322 56.5144 61.8687 56.5874 61.893C56.6605 61.9133 56.7396 61.9255 56.8248 61.9296C56.9141 61.9336 57.0115 61.9357 57.117 61.9357H57.1718C57.3016 61.9357 57.4254 61.962 57.5431 62.0148C57.6607 62.0675 57.7622 62.1386 57.8474 62.2278C57.9367 62.313 58.0077 62.4145 58.0605 62.5322C58.1132 62.6499 58.1396 62.7736 58.1396 62.9035C58.1396 63.0374 58.1132 63.1632 58.0605 63.2809C58.0077 63.3986 57.9367 63.5 57.8474 63.5852C57.7622 63.6745 57.6607 63.7435 57.5431 63.7922C57.4254 63.8409 57.3016 63.8652 57.1718 63.8652ZM56.1699 62.9035C56.1699 62.7696 56.1963 62.6438 56.2491 62.5261C56.3018 62.4084 56.3749 62.307 56.4682 62.2217C56.5575 62.1365 56.663 62.0696 56.7847 62.0209C56.9024 61.9681 57.0282 61.9417 57.1621 61.9417H62.6891C62.8189 61.9417 62.9427 61.9681 63.0604 62.0209C63.1781 62.0696 63.2795 62.1365 63.3647 62.2217C63.454 62.307 63.525 62.4084 63.5778 62.5261C63.6305 62.6438 63.6569 62.7696 63.6569 62.9035C63.6569 63.0374 63.6305 63.1632 63.5778 63.2809C63.525 63.3986 63.454 63.5 63.3647 63.5852C63.2795 63.6745 63.1781 63.7435 63.0604 63.7922C62.9427 63.8409 62.8189 63.8652 62.6891 63.8652H57.156C57.0262 63.8652 56.9024 63.8409 56.7847 63.7922C56.663 63.7435 56.5575 63.6745 56.4682 63.5852C56.3749 63.5 56.3018 63.3986 56.2491 63.2809C56.1963 63.1632 56.1699 63.0374 56.1699 62.9035ZM61.7238 62.9035C61.7238 62.7696 61.7482 62.6438 61.7969 62.5261C61.8455 62.4084 61.9145 62.307 62.0038 62.2217C62.089 62.1365 62.1905 62.0696 62.3082 62.0209C62.4258 61.9681 62.5516 61.9417 62.6855 61.9417H62.789C63.3531 61.9417 63.7792 61.8525 64.0673 61.6739C64.3554 61.4913 64.4995 61.2154 64.4995 60.8461C64.4995 60.773 64.4995 60.7081 64.4995 60.6513C64.5035 60.5945 64.4974 60.5214 64.4812 60.4322C64.469 60.3388 64.4426 60.2191 64.4021 60.073C64.3655 59.9229 64.3087 59.718 64.2316 59.4583L65.9664 59.0383C66.0516 59.2817 66.1267 59.5557 66.1916 59.86C66.2566 60.1603 66.289 60.489 66.289 60.8461C66.289 60.9638 66.2992 61.0875 66.3195 61.2174C66.3438 61.3432 66.3803 61.4609 66.429 61.5704C66.4818 61.6759 66.5508 61.7652 66.636 61.8383C66.7253 61.9072 66.8369 61.9417 66.9708 61.9417C67.1006 61.9417 67.2244 61.9681 67.3421 62.0209C67.4597 62.0696 67.5612 62.1365 67.6464 62.2217C67.7357 62.307 67.8067 62.4084 67.8595 62.5261C67.9122 62.6438 67.9386 62.7696 67.9386 62.9035C67.9386 63.0374 67.9122 63.1632 67.8595 63.2809C67.8108 63.3986 67.7418 63.5 67.6525 63.5852C67.5632 63.6745 67.4597 63.7435 67.3421 63.7922C67.2284 63.8409 67.1067 63.8652 66.9769 63.8652C66.5873 63.8652 66.2545 63.8084 65.9786 63.6948C65.7026 63.5852 65.4653 63.4371 65.2664 63.2504C64.9742 63.4614 64.6253 63.6157 64.2195 63.713C63.8177 63.8145 63.3409 63.8652 62.789 63.8652H62.6855C62.5516 63.8652 62.4258 63.8409 62.3082 63.7922C62.1905 63.7435 62.089 63.6745 62.0038 63.5852C61.9145 63.5 61.8455 63.3986 61.7969 63.2809C61.7482 63.1632 61.7238 63.0374 61.7238 62.9035ZM65.0229 64.3278L66.3742 65.6791L65.0229 67.0304L63.6716 65.6791L65.0229 64.3278ZM66.0562 62.9035C66.0562 62.7696 66.0826 62.6438 66.1353 62.5261C66.184 62.4084 66.251 62.307 66.3362 62.2217C66.4214 62.1325 66.5229 62.0635 66.6405 62.0148C66.7582 61.9661 66.884 61.9417 67.0179 61.9417H67.6449H67.9188C68.069 61.9417 68.2252 61.9357 68.3875 61.9235C68.5539 61.9113 68.7081 61.887 68.8501 61.8504C68.9962 61.8139 69.124 61.7632 69.2336 61.6983C69.3472 61.6333 69.4284 61.5461 69.4771 61.4365C69.5095 61.3635 69.5258 61.2539 69.5258 61.1078C69.5258 61.0104 69.4974 60.8643 69.4405 60.6696C69.3837 60.4748 69.3087 60.2597 69.2153 60.0243C69.122 59.7849 69.0165 59.5354 68.8988 59.2757C68.7811 59.0159 68.6614 58.7704 68.5397 58.5391L70.2805 57.6748C70.3942 57.9304 70.5058 58.2023 70.6153 58.4904C70.729 58.7786 70.8304 59.0707 70.9197 59.367C71.009 59.6632 71.08 59.9594 71.1327 60.2557C71.1895 60.5478 71.2179 60.8278 71.2179 61.0957C71.2179 61.5055 71.1449 61.8809 70.9988 62.2217C70.8284 62.6032 70.595 62.9197 70.2988 63.1713C70.0026 63.4188 69.6475 63.6014 69.2336 63.7191C68.9901 63.7881 68.7568 63.8287 68.5336 63.8409C68.3104 63.8571 68.1014 63.8652 67.9066 63.8652H67.0727H67.0179C66.884 63.8652 66.7582 63.8409 66.6405 63.7922C66.5229 63.7435 66.4214 63.6745 66.3362 63.5852C66.251 63.5 66.184 63.3986 66.1353 63.2809C66.0826 63.1632 66.0562 63.0374 66.0562 62.9035ZM69.0692 54.2357L70.4205 55.587L69.0692 56.9383L67.7179 55.587L69.0692 54.2357ZM72.1205 63.8835C72.1408 63.5507 72.1611 63.2058 72.1813 62.8487C72.2016 62.4916 72.2179 62.1386 72.23 61.7896C72.2463 61.4406 72.2564 61.1017 72.2605 60.773C72.2645 60.4443 72.2605 60.142 72.2483 59.8661C72.224 59.2899 72.1996 58.7846 72.1753 58.3504C72.155 57.9122 72.1326 57.5246 72.1083 57.1878C72.088 56.851 72.0657 56.5568 72.0413 56.3052C72.0211 56.0496 71.9987 55.8162 71.9744 55.6052C71.95 55.3942 71.9237 55.1974 71.8953 55.0148C71.8668 54.8281 71.8364 54.6354 71.804 54.4365L73.6848 53.8157C73.7741 54.3594 73.8451 54.9072 73.8979 55.4591C73.9547 56.011 73.9973 56.5406 74.0257 57.0478C74.0541 57.551 74.0724 58.0197 74.0805 58.4539C74.0926 58.8881 74.0987 59.2594 74.0987 59.5678C74.0987 59.8478 74.0967 60.1501 74.0926 60.4748C74.0926 60.7994 74.0886 61.1362 74.0805 61.4852C74.0764 61.8342 74.0683 62.1872 74.0561 62.5443C74.044 62.9014 74.0257 63.2504 74.0013 63.5913L72.1205 63.8835Z" fill="#636363"/>
<rect x="130.5" y="0.5" width="111" height="79" rx="9.5" fill="white"/>
<rect x="130.5" y="0.5" width="111" height="79" rx="9.5" stroke="#A6A6A6"/>
<path d="M203.246 19.7558L186.311 8.59345C186.219 8.5325 186.111 8.5 186 8.5C185.889 8.5 185.781 8.5325 185.689 8.59345L168.754 19.7558C168.676 19.8072 168.612 19.8772 168.568 19.9594C168.523 20.0416 168.5 20.1336 168.5 20.227V23.9422C168.5 24.0442 168.528 24.1442 168.58 24.2317C168.632 24.3192 168.707 24.3909 168.797 24.4393C168.887 24.4876 168.989 24.5107 169.091 24.5061C169.192 24.5016 169.291 24.4695 169.377 24.4134L171.768 22.8369V42.9355C171.768 43.0852 171.828 43.2288 171.934 43.3347C172.04 43.4405 172.183 43.5 172.333 43.5H199.667C199.817 43.5 199.96 43.4405 200.066 43.3347C200.172 43.2288 200.232 43.0852 200.232 42.9355V22.8369L202.623 24.4134C202.709 24.4697 202.807 24.5018 202.91 24.5064C203.012 24.5111 203.113 24.488 203.203 24.4396C203.293 24.3913 203.368 24.3195 203.42 24.2319C203.473 24.1443 203.5 24.0442 203.5 23.9422V20.227C203.5 20.1336 203.477 20.0416 203.432 19.9594C203.388 19.8772 203.324 19.8072 203.246 19.7558ZM176.583 24.1872V22.6318H195.417V24.1872H176.583ZM177.461 27.7094H194.539V28.9739H177.461V27.7094ZM194.539 25.3162V26.5804H177.461V25.3162H194.539ZM180.606 42.371V40.8829H182.298V42.371H180.606ZM180.571 36.8877H192.405V39.7543H179.452V36.8877H180.571ZM181.32 35.7586L182.127 32.9315H189.731L190.538 35.7586H181.32ZM188.429 40.8829V42.371H183.428V40.8829H188.429ZM189.559 42.371V40.8829H191.251V42.371H189.559ZM192.382 42.371V40.8829H192.97C193.12 40.8829 193.264 40.8234 193.37 40.7176C193.476 40.6117 193.535 40.4681 193.535 40.3184V36.3231C193.535 36.1734 193.476 36.0298 193.37 35.924C193.264 35.8181 193.12 35.7586 192.97 35.7586H191.713L190.701 32.2124C190.667 32.0943 190.596 31.9905 190.498 31.9165C190.4 31.8426 190.281 31.8026 190.158 31.8025H181.7C181.447 31.8025 181.225 31.9696 181.156 32.2124L180.144 35.7586H178.887C178.737 35.7586 178.594 35.8181 178.488 35.924C178.382 36.0298 178.322 36.1734 178.322 36.3231V40.3188C178.322 40.4685 178.382 40.6121 178.488 40.7179C178.594 40.8238 178.737 40.8833 178.887 40.8833H179.476V42.371H177.461V30.1029H194.539V42.371H192.382ZM199.101 42.371H195.67V25.3162H195.983C196.133 25.3162 196.276 25.2568 196.382 25.1509C196.488 25.045 196.548 24.9014 196.548 24.7517V22.0673C196.548 21.9176 196.488 21.774 196.382 21.6681C196.276 21.5622 196.133 21.5028 195.983 21.5028H176.017C175.867 21.5028 175.724 21.5622 175.618 21.6681C175.512 21.774 175.452 21.9176 175.452 22.0673V24.7517C175.452 24.9014 175.512 25.045 175.618 25.1509C175.724 25.2568 175.867 25.3162 176.017 25.3162H176.33V42.371H172.899V22.0917L186 13.4562L199.101 22.0917V42.371ZM202.369 22.8933L199.978 21.3172L199.978 21.3168L186.311 12.3087C186.219 12.2478 186.111 12.2153 186 12.2153C185.889 12.2153 185.781 12.2478 185.689 12.3087L172.022 21.3168L172.022 21.3172L169.631 22.8933V20.5307L186 9.74092L202.369 20.5307V22.8933Z" fill="url(#paint1_linear_2611_60186)"/>
<path d="M181.084 37.7568H183.079V38.8859H181.084V37.7568ZM188.779 37.7568H190.774V38.8859H188.779V37.7568Z" fill="#A6A6A6"/>
<path d="M164.288 62.9035C164.288 62.7696 164.314 62.6438 164.367 62.5261C164.42 62.4084 164.493 62.307 164.586 62.2217C164.676 62.1365 164.781 62.0696 164.903 62.0209C165.021 61.9681 165.146 61.9417 165.28 61.9417H170.807C170.937 61.9417 171.061 61.9681 171.179 62.0209C171.296 62.0696 171.398 62.1365 171.483 62.2217C171.572 62.307 171.643 62.4084 171.696 62.5261C171.749 62.6438 171.775 62.7696 171.775 62.9035C171.775 63.0374 171.749 63.1632 171.696 63.2809C171.643 63.3986 171.572 63.5 171.483 63.5852C171.398 63.6745 171.296 63.7435 171.179 63.7922C171.061 63.8409 170.937 63.8652 170.807 63.8652H165.274C165.144 63.8652 165.021 63.8409 164.903 63.7922C164.781 63.7435 164.676 63.6745 164.586 63.5852C164.493 63.5 164.42 63.3986 164.367 63.2809C164.314 63.1632 164.288 63.0374 164.288 62.9035ZM169.842 62.9035C169.842 62.7696 169.868 62.6438 169.921 62.5261C169.97 62.4084 170.039 62.307 170.128 62.2217C170.217 62.1365 170.321 62.0696 170.438 62.0209C170.556 61.9681 170.68 61.9417 170.81 61.9417H170.865H172.873C172.991 61.9417 173.125 61.9174 173.275 61.8687C173.429 61.82 173.575 61.7571 173.713 61.68C173.851 61.5988 173.971 61.5096 174.072 61.4122C174.174 61.3107 174.233 61.2093 174.249 61.1078C174.261 60.9049 174.225 60.6858 174.139 60.4504C174.054 60.2151 173.934 59.9757 173.78 59.7322C173.63 59.4846 173.456 59.2391 173.257 58.9957C173.058 58.7481 172.851 58.5128 172.636 58.2896C172.421 58.0664 172.206 57.8594 171.991 57.6687C171.776 57.478 171.577 57.3136 171.394 57.1757L171.558 55.5017L177.152 53.1583L177.858 54.8322L173.238 56.7191C173.518 56.9788 173.772 57.2325 173.999 57.48C174.227 57.7235 174.434 57.967 174.62 58.2104C174.811 58.4539 174.983 58.6994 175.138 58.947C175.296 59.1945 175.442 59.4481 175.576 59.7078L175.637 59.8174L175.631 59.8113C175.724 59.9817 175.815 60.1522 175.905 60.3226C175.998 60.489 176.097 60.6574 176.203 60.8278C176.3 60.982 176.406 61.1261 176.519 61.26C176.637 61.3899 176.765 61.5055 176.903 61.607C177.041 61.7084 177.187 61.7896 177.341 61.8504C177.499 61.9072 177.668 61.9377 177.846 61.9417H177.84H178.096C178.23 61.9417 178.356 61.9681 178.473 62.0209C178.591 62.0696 178.692 62.1365 178.778 62.2217C178.867 62.307 178.936 62.4084 178.985 62.5261C179.033 62.6438 179.058 62.7696 179.058 62.9035C179.058 63.0374 179.033 63.1632 178.985 63.2809C178.936 63.3986 178.867 63.5 178.778 63.5852C178.692 63.6745 178.591 63.7435 178.473 63.7922C178.356 63.8409 178.23 63.8652 178.096 63.8652H178.047C177.739 63.8652 177.463 63.8449 177.219 63.8043C176.98 63.7638 176.743 63.7049 176.507 63.6278C176.264 63.5386 176.036 63.4188 175.825 63.2687C175.614 63.1186 175.418 62.9501 175.235 62.7635C175.19 62.8203 175.14 62.8791 175.083 62.94C175.026 63.0009 174.969 63.0597 174.912 63.1165C174.758 63.2545 174.596 63.3701 174.425 63.4635C174.255 63.5528 174.081 63.6258 173.902 63.6826C173.723 63.7435 173.541 63.7861 173.354 63.8104C173.167 63.8388 172.981 63.8571 172.794 63.8652H170.81C170.68 63.8652 170.556 63.8409 170.438 63.7922C170.321 63.7435 170.217 63.6745 170.128 63.5852C170.039 63.5 169.97 63.3986 169.921 63.2809C169.868 63.1632 169.842 63.0374 169.842 62.9035ZM176.629 52.5009L171.589 54.6313L171.638 53.7183L176.294 51.7765L176.629 52.5009ZM177.129 62.9035C177.129 62.7696 177.153 62.6438 177.202 62.5261C177.251 62.4084 177.32 62.307 177.409 62.2217C177.494 62.1365 177.596 62.0696 177.713 62.0209C177.831 61.9681 177.957 61.9417 178.091 61.9417H178.194C178.758 61.9417 179.184 61.8525 179.473 61.6739C179.761 61.4913 179.905 61.2154 179.905 60.8461C179.905 60.773 179.905 60.7081 179.905 60.6513C179.909 60.5945 179.903 60.5214 179.886 60.4322C179.874 60.3388 179.848 60.2191 179.807 60.073C179.771 59.9229 179.714 59.718 179.637 59.4583L181.372 59.0383C181.457 59.2817 181.532 59.5557 181.597 59.86C181.662 60.1603 181.694 60.489 181.694 60.8461C181.694 60.9638 181.704 61.0875 181.725 61.2174C181.749 61.3432 181.786 61.4609 181.834 61.5704C181.887 61.6759 181.956 61.7652 182.041 61.8383C182.131 61.9072 182.242 61.9417 182.376 61.9417C182.506 61.9417 182.63 61.9681 182.747 62.0209C182.865 62.0696 182.966 62.1365 183.052 62.2217C183.141 62.307 183.212 62.4084 183.265 62.5261C183.317 62.6438 183.344 62.7696 183.344 62.9035C183.344 63.0374 183.317 63.1632 183.265 63.2809C183.216 63.3986 183.147 63.5 183.058 63.5852C182.969 63.6745 182.865 63.7435 182.747 63.7922C182.634 63.8409 182.512 63.8652 182.382 63.8652C181.993 63.8652 181.66 63.8084 181.384 63.6948C181.108 63.5852 180.871 63.4371 180.672 63.2504C180.38 63.4614 180.031 63.6157 179.625 63.713C179.223 63.8145 178.746 63.8652 178.194 63.8652H178.091C177.957 63.8652 177.831 63.8409 177.713 63.7922C177.596 63.7435 177.494 63.6745 177.409 63.5852C177.32 63.5 177.251 63.3986 177.202 63.2809C177.153 63.1632 177.129 63.0374 177.129 62.9035ZM180.459 55.3374L181.81 56.6887L180.459 58.04L179.107 56.6887L180.459 55.3374ZM181.379 62.9035C181.379 62.7696 181.404 62.6438 181.452 62.5261C181.501 62.4084 181.57 62.307 181.659 62.2217C181.745 62.1325 181.846 62.0635 181.964 62.0148C182.081 61.9661 182.207 61.9417 182.341 61.9417H182.804C183.096 61.9417 183.376 61.9296 183.644 61.9052C183.916 61.8809 184.155 61.8301 184.362 61.753C184.569 61.6719 184.735 61.5603 184.861 61.4183C184.991 61.2722 185.06 61.0794 185.068 60.84C185.072 60.7507 185.072 60.6777 185.068 60.6209C185.068 60.56 185.058 60.489 185.038 60.4078C185.017 60.3226 184.987 60.213 184.946 60.0791C184.91 59.9412 184.857 59.7484 184.788 59.5009L186.559 59.0017C186.637 59.1965 186.708 59.4542 186.772 59.7748C186.837 60.0954 186.886 60.4464 186.919 60.8278C186.927 60.9496 186.941 61.0754 186.961 61.2052C186.981 61.3351 187.014 61.4548 187.059 61.5643C187.107 61.6739 187.172 61.7652 187.253 61.8383C187.335 61.9072 187.44 61.9417 187.57 61.9417C187.704 61.9417 187.83 61.9661 187.947 62.0148C188.065 62.0635 188.166 62.1325 188.252 62.2217C188.341 62.307 188.41 62.4084 188.459 62.5261C188.511 62.6438 188.538 62.7696 188.538 62.9035C188.538 63.0374 188.511 63.1632 188.459 63.2809C188.41 63.3986 188.341 63.5 188.252 63.5852C188.162 63.6745 188.059 63.7435 187.941 63.7922C187.828 63.8409 187.706 63.8652 187.576 63.8652C187.186 63.8652 186.852 63.8043 186.572 63.6826C186.296 63.5649 186.058 63.4107 185.859 63.22C185.677 63.3417 185.466 63.4432 185.226 63.5243C184.991 63.6055 184.739 63.6704 184.472 63.7191C184.204 63.7719 183.928 63.8084 183.644 63.8287C183.36 63.853 183.08 63.8652 182.804 63.8652H182.341C182.207 63.8652 182.081 63.8409 181.964 63.7922C181.846 63.7435 181.745 63.6745 181.659 63.5852C181.57 63.5 181.501 63.3986 181.452 63.2809C181.404 63.1632 181.379 63.0374 181.379 62.9035ZM187.205 66.0504L186.036 67.2252L184.879 66.0687L183.735 67.213L182.554 66.0383L183.723 64.8635L184.879 66.02L186.024 64.8757L187.205 66.0504ZM186.531 62.9096C186.531 62.7716 186.555 62.6438 186.604 62.5261C186.652 62.4084 186.723 62.307 186.817 62.2217C186.906 62.1325 187.013 62.0635 187.139 62.0148C187.261 61.9661 187.399 61.9417 187.553 61.9417H187.894H188.192C188.411 61.9417 188.653 61.9397 188.917 61.9357C189.18 61.9275 189.434 61.9072 189.678 61.8748C189.925 61.8383 190.146 61.7855 190.341 61.7165C190.54 61.6475 190.684 61.5522 190.773 61.4304C190.895 61.2438 190.956 61.0307 190.956 60.7913C190.956 60.7101 190.948 60.629 190.931 60.5478C190.919 60.4626 190.903 60.3754 190.883 60.2861C190.854 60.1846 190.793 60.0629 190.7 59.9209C190.611 59.7748 190.495 59.6165 190.353 59.4461C190.211 59.2716 190.049 59.089 189.866 58.8983C189.684 58.7035 189.489 58.5067 189.282 58.3078C189.075 58.1049 188.858 57.9041 188.631 57.7052C188.403 57.5064 188.176 57.3136 187.949 57.127L188.138 55.4713L193.251 53.1948L193.987 54.8261L189.945 56.7009C190.144 56.8388 190.349 57.0032 190.56 57.1939C190.771 57.3846 190.976 57.5936 191.175 57.8209C191.374 58.0441 191.56 58.2814 191.735 58.533C191.909 58.7846 192.062 59.0423 192.191 59.3061C192.321 59.5699 192.423 59.8357 192.496 60.1035C192.573 60.3713 192.609 60.633 192.605 60.8887C192.601 61.193 192.561 61.4771 192.484 61.7409C192.406 62.0006 192.311 62.2339 192.198 62.4409C191.775 63.1957 191.08 63.6562 190.11 63.8226L190.116 63.8165C190.006 63.8368 189.903 63.851 189.805 63.8591C189.708 63.8672 189.613 63.8713 189.519 63.8713L187.553 63.8652C187.403 63.8652 187.265 63.8409 187.139 63.7922C187.013 63.7435 186.906 63.6745 186.817 63.5852C186.727 63.5 186.658 63.4006 186.61 63.287C186.557 63.1693 186.531 63.0435 186.531 62.9096ZM196.774 59.4035C196.928 59.8417 197.062 60.2699 197.176 60.6878C197.225 60.8704 197.273 61.0612 197.322 61.26C197.371 61.4548 197.413 61.6516 197.45 61.8504C197.49 62.0452 197.523 62.238 197.547 62.4287C197.571 62.6154 197.584 62.7899 197.584 62.9522C197.584 63.3336 197.531 63.7049 197.425 64.0661C197.324 64.4313 197.178 64.7843 196.987 65.1252C196.8 65.4661 196.577 65.7928 196.318 66.1052C196.058 66.4217 195.77 66.718 195.453 66.9939C195.137 67.2699 194.798 67.5255 194.437 67.7609C194.076 68.0003 193.702 68.2154 193.317 68.4061L192.209 66.8661C192.501 66.72 192.797 66.5536 193.098 66.367C193.394 66.1843 193.678 65.9875 193.95 65.7765C194.226 65.5655 194.481 65.3443 194.717 65.113C194.956 64.8817 195.163 64.6464 195.338 64.407C195.516 64.1675 195.656 63.9241 195.758 63.6765C195.859 63.433 195.91 63.1936 195.91 62.9583C195.91 62.7878 195.885 62.6032 195.837 62.4043C195.792 62.2055 195.729 61.9925 195.648 61.7652C195.571 61.5339 195.478 61.2904 195.368 61.0348C195.258 60.7751 195.141 60.4991 195.015 60.207L196.774 59.4035ZM201.507 63.8652C201.008 63.8652 200.579 63.8023 200.222 63.6765C199.865 63.5548 199.557 63.3661 199.297 63.1104C199.135 62.9481 199.009 62.7777 198.92 62.5991C198.835 62.4206 198.772 62.2461 198.731 62.0757C198.695 61.9012 198.672 61.7368 198.664 61.5826C198.66 61.4284 198.658 61.2965 198.658 61.187V61.0957C198.662 60.9455 198.666 60.7304 198.67 60.4504C198.678 60.1664 198.682 59.8336 198.682 59.4522C198.682 59.0707 198.68 58.6507 198.676 58.1922C198.672 57.7336 198.66 57.2771 198.64 56.8226C198.624 56.3641 198.597 55.9238 198.561 55.5017C198.528 55.0797 198.482 54.7125 198.421 54.4L200.241 53.8461C200.293 54.1139 200.336 54.4304 200.368 54.7957C200.401 55.1568 200.427 55.5362 200.448 55.9339C200.472 56.3316 200.488 56.7313 200.496 57.133C200.508 57.5348 200.517 57.9081 200.521 58.253C200.525 58.5574 200.513 58.8557 200.484 59.1478C200.46 59.4359 200.439 59.72 200.423 60C200.407 60.2759 200.407 60.5458 200.423 60.8096C200.444 61.0693 200.5 61.3229 200.594 61.5704C200.63 61.6638 200.675 61.7348 200.728 61.7835C200.784 61.8322 200.849 61.8687 200.922 61.893C200.995 61.9133 201.075 61.9255 201.16 61.9296C201.249 61.9336 201.346 61.9357 201.452 61.9357H201.507C201.637 61.9357 201.76 61.962 201.878 62.0148C201.996 62.0675 202.097 62.1386 202.182 62.2278C202.272 62.313 202.343 62.4145 202.395 62.5322C202.448 62.6499 202.475 62.7736 202.475 62.9035C202.475 63.0374 202.448 63.1632 202.395 63.2809C202.343 63.3986 202.272 63.5 202.182 63.5852C202.097 63.6745 201.996 63.7435 201.878 63.7922C201.76 63.8409 201.637 63.8652 201.507 63.8652ZM200.535 62.9035C200.535 62.7696 200.562 62.6438 200.614 62.5261C200.663 62.4084 200.73 62.307 200.815 62.2217C200.901 62.1325 201.002 62.0635 201.12 62.0148C201.237 61.9661 201.363 61.9417 201.497 61.9417H202.173H202.465C202.648 61.9417 202.848 61.9336 203.068 61.9174C203.287 61.9012 203.498 61.8748 203.701 61.8383C203.903 61.8017 204.086 61.753 204.248 61.6922C204.415 61.6272 204.536 61.5461 204.614 61.4487C204.658 61.3797 204.681 61.2864 204.681 61.1687C204.681 60.9942 204.638 60.7872 204.553 60.5478C204.472 60.3084 204.374 60.0649 204.261 59.8174C204.147 59.5699 204.029 59.3325 203.908 59.1052C203.79 58.878 203.694 58.6893 203.621 58.5391L205.356 57.687C205.482 57.9061 205.604 58.1658 205.721 58.4661C205.839 58.7623 205.945 59.0687 206.038 59.3852C206.131 59.6977 206.206 60.0061 206.263 60.3104C206.32 60.6107 206.348 60.8725 206.348 61.0957C206.348 61.5055 206.275 61.8809 206.129 62.2217C205.959 62.6032 205.725 62.9197 205.429 63.1713C205.133 63.4188 204.778 63.6014 204.364 63.7191C204.242 63.7516 204.09 63.778 203.908 63.7983C203.725 63.8186 203.54 63.8328 203.354 63.8409C203.167 63.853 202.99 63.8591 202.824 63.8591C202.658 63.8632 202.528 63.8652 202.434 63.8652H201.552H201.497C201.363 63.8652 201.237 63.8409 201.12 63.7922C201.002 63.7435 200.901 63.6745 200.815 63.5852C200.73 63.5 200.663 63.3986 200.614 63.2809C200.562 63.1632 200.535 63.0374 200.535 62.9035ZM205.119 66.9696L203.974 65.8252L202.818 66.9817L201.649 65.807L202.83 64.6322L203.974 65.7765L205.131 64.62L206.3 65.7948L205.119 66.9696ZM203.981 66.4704L205.064 67.5539L203.974 68.6435L202.891 67.56L203.981 66.4704Z" fill="#636363"/>
<rect x="260.5" y="0.5" width="111" height="79" rx="9.5" fill="white"/>
<rect x="260.5" y="0.5" width="111" height="79" rx="9.5" stroke="#E2E2E2"/>
<path d="M331.171 9H300.829C299.545 9 298.5 9.9244 298.5 11.0606V42.4848C298.5 42.7693 298.761 43 299.082 43C328.424 43 303.563 43 332.918 43C333.239 43 333.5 42.7693 333.5 42.4848V11.0606C333.5 9.9244 332.455 9 331.171 9ZM303.678 41.9697V15.6414C303.678 15.3574 303.939 15.1262 304.26 15.1262H313.671V41.9697L303.678 41.9697ZM314.836 41.9697V15.1262H317.165V41.9697L314.836 41.9697ZM318.329 41.9697V15.1262H327.74C328.061 15.1262 328.322 15.3574 328.322 15.6414V41.9697L318.329 41.9697ZM332.335 41.9697H329.487V15.6414C329.487 14.7892 328.703 14.0959 327.74 14.0959C299.945 14.0938 331.175 14.0958 304.26 14.0959C303.297 14.0959 302.513 14.7892 302.513 15.6414V41.9697H299.665V11.0606C299.665 10.4924 300.187 10.0303 300.829 10.0303H331.171C331.813 10.0303 332.335 10.4924 332.335 11.0606L332.335 41.9697Z" fill="#E2E2E2"/>
<path d="M311.147 20.5218L309.09 18.7021C308.985 18.6088 308.839 18.551 308.678 18.551C308.517 18.551 308.372 18.6088 308.266 18.7021L306.21 20.5218C305.982 20.7231 305.982 21.0493 306.21 21.2503C306.437 21.4515 306.806 21.4515 307.033 21.2503L308.096 20.3099V24.0057C308.096 24.2902 308.357 24.5208 308.678 24.5208C309 24.5208 309.26 24.2902 309.26 24.0057V20.3098L310.324 21.2503C310.551 21.4515 310.919 21.4515 311.147 21.2503C311.374 21.0491 311.374 20.7231 311.147 20.5218ZM324.975 21.8218L323.912 22.7621V19.0662C323.912 18.7817 323.651 18.551 323.33 18.551C323.008 18.551 322.747 18.7817 322.747 19.0662V22.7621L321.685 21.8218C321.457 21.6206 321.089 21.6206 320.861 21.8218C320.634 22.023 320.634 22.349 320.861 22.5503L322.918 24.3697C323.025 24.465 323.177 24.5208 323.33 24.5208C323.482 24.5208 323.634 24.465 323.742 24.3697L325.798 22.5503C326.026 22.349 326.026 22.023 325.798 21.8218C325.571 21.6206 325.202 21.6206 324.975 21.8218ZM313.964 11.0342C313.321 11.0342 312.798 11.4938 312.798 12.0661C312.798 12.6351 313.321 13.0948 313.964 13.0948C314.607 13.0948 315.13 12.6351 315.13 12.0661C315.13 11.4938 314.607 11.0342 313.964 11.0342ZM318.044 11.0342C317.4 11.0342 316.877 11.4938 316.877 12.0661C316.877 12.6351 317.4 13.0948 318.044 13.0948C318.687 13.0948 319.21 12.6351 319.21 12.0661C319.21 11.4938 318.687 11.0342 318.044 11.0342Z" fill="#E2E2E2"/>
<path d="M297.161 58.9035C297.315 59.3417 297.449 59.7699 297.563 60.1878C297.611 60.3704 297.66 60.5612 297.709 60.76C297.757 60.9548 297.8 61.1516 297.836 61.3504C297.877 61.5452 297.91 61.738 297.934 61.9287C297.958 62.1154 297.97 62.2899 297.97 62.4522C297.97 62.8336 297.918 63.2049 297.812 63.5661C297.711 63.9313 297.565 64.2843 297.374 64.6252C297.187 64.9661 296.964 65.2928 296.704 65.6052C296.445 65.9217 296.156 66.218 295.84 66.4939C295.523 66.7699 295.185 67.0255 294.823 67.2609C294.462 67.5003 294.089 67.7154 293.703 67.9061L292.596 66.3661C292.888 66.22 293.184 66.0536 293.484 65.867C293.781 65.6843 294.065 65.4875 294.336 65.2765C294.612 65.0655 294.868 64.8443 295.103 64.613C295.343 64.3817 295.55 64.1464 295.724 63.907C295.903 63.6675 296.043 63.4241 296.144 63.1765C296.246 62.933 296.296 62.6936 296.296 62.4583C296.296 62.2878 296.272 62.1032 296.223 61.9043C296.179 61.7055 296.116 61.4925 296.035 61.2652C295.958 61.0339 295.864 60.7904 295.755 60.5348C295.645 60.2751 295.527 59.9991 295.402 59.707L297.161 58.9035ZM298.253 65.7817C298.826 65.6681 299.343 65.5241 299.806 65.3496C300.272 65.1791 300.68 64.9864 301.029 64.7713C301.382 64.5603 301.672 64.3351 301.9 64.0957C302.127 63.8562 302.289 63.6128 302.386 63.3652C302.212 63.3652 302.035 63.3612 301.857 63.353C301.678 63.349 301.526 63.3429 301.4 63.3348C300.93 63.2942 300.5 63.1887 300.11 63.0183C299.72 62.8519 299.41 62.6246 299.179 62.3365C299.008 62.1174 298.886 61.88 298.813 61.6243C298.744 61.3687 298.71 61.0988 298.71 60.8148C298.71 60.5957 298.73 60.3765 298.771 60.1574C298.811 59.9342 298.868 59.7191 298.941 59.5122C299.014 59.3012 299.1 59.1023 299.197 58.9157C299.298 58.729 299.406 58.5586 299.52 58.4043C299.763 58.1 300.029 57.8707 300.317 57.7165C300.609 57.5583 300.915 57.4791 301.236 57.4791C301.922 57.4791 302.541 57.7794 303.093 58.38C303.263 58.5707 303.417 58.7817 303.555 59.013C303.693 59.2443 303.815 59.4919 303.92 59.7557C304.026 60.0154 304.111 60.2872 304.176 60.5713C304.245 60.8554 304.292 61.1455 304.316 61.4417H304.432C304.566 61.4417 304.691 61.4661 304.809 61.5148C304.927 61.5635 305.028 61.6325 305.113 61.7217C305.203 61.807 305.274 61.9084 305.326 62.0261C305.379 62.1438 305.406 62.2716 305.406 62.4096C305.406 62.5394 305.379 62.6632 305.326 62.7809C305.274 62.8945 305.203 62.9939 305.113 63.0791C305.028 63.1684 304.927 63.2374 304.809 63.2861C304.691 63.3388 304.566 63.3652 304.432 63.3652H304.164C304.006 63.9617 303.752 64.5014 303.403 64.9843C303.058 65.4672 302.644 65.8893 302.161 66.2504C301.682 66.6116 301.147 66.9099 300.554 67.1452C299.966 67.3806 299.349 67.549 298.704 67.6504L298.253 65.7817ZM301.236 59.4087C301.147 59.4087 301.047 59.4493 300.938 59.5304C300.832 59.6075 300.733 59.707 300.64 59.8287C300.546 59.9504 300.467 60.0864 300.402 60.2365C300.341 60.3867 300.311 60.5328 300.311 60.6748C300.311 60.8128 300.349 60.9264 300.426 61.0157C300.504 61.1049 300.601 61.178 300.719 61.2348C300.84 61.2875 300.972 61.3281 301.114 61.3565C301.256 61.3809 301.394 61.3991 301.528 61.4113C301.601 61.4194 301.68 61.4255 301.766 61.4296C301.855 61.4296 301.946 61.4296 302.04 61.4296C302.133 61.4296 302.224 61.4316 302.313 61.4357C302.407 61.4357 302.492 61.4377 302.569 61.4417C302.541 61.2429 302.496 61.0562 302.435 60.8817C302.374 60.7072 302.305 60.5449 302.228 60.3948C302.155 60.2446 302.074 60.1107 301.985 59.993C301.9 59.8713 301.816 59.7658 301.735 59.6765C301.707 59.6481 301.67 59.6177 301.626 59.5852C301.585 59.5528 301.542 59.5243 301.498 59.5C301.453 59.4716 301.406 59.4493 301.358 59.433C301.313 59.4168 301.273 59.4087 301.236 59.4087ZM303.404 62.4035C303.404 62.2777 303.431 62.158 303.483 62.0443C303.536 61.9307 303.609 61.8313 303.702 61.7461C303.792 61.6568 303.899 61.5858 304.025 61.533C304.147 61.4803 304.279 61.4499 304.421 61.4417C304.636 61.4417 304.837 61.4072 305.023 61.3383C305.21 61.2652 305.386 61.1272 305.553 60.9243C305.719 60.7214 305.875 60.4354 306.022 60.0661C306.168 59.6968 306.308 59.2139 306.442 58.6174L308.061 58.8487C308.073 58.8 308.065 58.8264 308.036 58.9278C308.012 59.0293 307.982 59.1733 307.945 59.36C307.913 59.5426 307.88 59.7496 307.848 59.9809C307.819 60.2081 307.805 60.4272 307.805 60.6383C307.809 60.8452 307.833 61.0258 307.878 61.18C307.927 61.3301 308.01 61.4194 308.128 61.4478C308.253 61.4803 308.375 61.4559 308.493 61.3748C308.611 61.2896 308.722 61.1699 308.828 61.0157C308.933 60.8574 309.031 60.6748 309.12 60.4678C309.209 60.2568 309.29 60.0417 309.363 59.8226C309.436 59.6035 309.499 59.3884 309.552 59.1774C309.605 58.9664 309.645 58.7797 309.674 58.6174L311.281 58.8487C311.273 58.9501 311.258 59.0861 311.238 59.2565C311.218 59.4229 311.202 59.6014 311.189 59.7922C311.177 59.9829 311.171 60.1757 311.171 60.3704C311.175 60.5612 311.197 60.7357 311.238 60.8939C311.279 61.0481 311.342 61.1759 311.427 61.2774C311.512 61.3748 311.63 61.4235 311.78 61.4235C311.914 61.4235 312.029 61.3788 312.127 61.2896C312.224 61.2003 312.305 61.0846 312.37 60.9426C312.439 60.7965 312.494 60.6322 312.535 60.4496C312.575 60.2629 312.606 60.0742 312.626 59.8835C312.646 59.6928 312.656 59.5081 312.656 59.3296C312.656 59.147 312.65 58.9867 312.638 58.8487L314.282 58.6174L314.482 60.3339C314.507 60.5206 314.56 60.6829 314.641 60.8209C314.722 60.9588 314.817 61.0745 314.927 61.1678C315.036 61.2571 315.152 61.3261 315.274 61.3748C315.395 61.4194 315.511 61.4417 315.621 61.4417H315.694C315.844 61.4417 315.98 61.4661 316.102 61.5148C316.227 61.5635 316.335 61.6325 316.424 61.7217C316.513 61.807 316.582 61.9084 316.631 62.0261C316.68 62.1438 316.704 62.2696 316.704 62.4035C316.704 62.5374 316.68 62.6632 316.631 62.7809C316.582 62.8986 316.511 63 316.418 63.0852C316.329 63.1704 316.215 63.2374 316.077 63.2861C315.943 63.3388 315.791 63.3652 315.621 63.3652C315.227 63.3652 314.856 63.2962 314.507 63.1583C314.158 63.0203 313.855 62.787 313.6 62.4583C313.575 62.4907 313.551 62.5191 313.527 62.5435C313.502 62.5678 313.48 62.5922 313.46 62.6165V62.6104C313.241 62.8417 312.987 63.0243 312.699 63.1583C312.415 63.2962 312.108 63.3652 311.78 63.3652C311.411 63.3652 311.07 63.2861 310.757 63.1278C310.449 62.9696 310.191 62.7545 309.984 62.4826C309.741 62.7504 309.465 62.9675 309.156 63.1339C308.848 63.3003 308.509 63.3835 308.14 63.3835C307.795 63.3835 307.474 63.3064 307.178 63.1522C306.882 62.998 306.636 62.787 306.442 62.5191C306.222 62.8235 305.951 63.0406 305.626 63.1704C305.305 63.3003 304.908 63.3652 304.433 63.3652C304.279 63.3652 304.139 63.3388 304.013 63.2861C303.887 63.2374 303.78 63.1704 303.69 63.0852C303.601 63 303.532 62.8986 303.483 62.7809C303.431 62.6632 303.404 62.5374 303.404 62.4035ZM314.688 62.4035C314.688 62.2696 314.714 62.1438 314.767 62.0261C314.816 61.9084 314.883 61.807 314.968 61.7217C315.053 61.6325 315.155 61.5635 315.272 61.5148C315.39 61.4661 315.516 61.4417 315.65 61.4417H316.277H316.551C316.701 61.4417 316.857 61.4357 317.019 61.4235C317.186 61.4113 317.34 61.387 317.482 61.3504C317.628 61.3139 317.756 61.2632 317.865 61.1983C317.979 61.1333 318.06 61.0461 318.109 60.9365C318.141 60.8635 318.158 60.7539 318.158 60.6078C318.158 60.5104 318.129 60.3643 318.072 60.1696C318.016 59.9748 317.94 59.7597 317.847 59.5243C317.754 59.2849 317.648 59.0354 317.531 58.7757C317.413 58.5159 317.293 58.2704 317.172 58.0391L318.912 57.1748C319.026 57.4304 319.138 57.7023 319.247 57.9904C319.361 58.2786 319.462 58.5707 319.552 58.867C319.641 59.1632 319.712 59.4594 319.765 59.7557C319.821 60.0478 319.85 60.3278 319.85 60.5957C319.85 61.0055 319.777 61.3809 319.631 61.7217C319.46 62.1032 319.227 62.4197 318.931 62.6713C318.634 62.9188 318.279 63.1014 317.865 63.2191C317.622 63.2881 317.389 63.3287 317.165 63.3409C316.942 63.3571 316.733 63.3652 316.538 63.3652H315.705H315.65C315.516 63.3652 315.39 63.3409 315.272 63.2922C315.155 63.2435 315.053 63.1745 314.968 63.0852C314.883 63 314.816 62.8986 314.767 62.7809C314.714 62.6632 314.688 62.5374 314.688 62.4035ZM317.701 53.7357L319.052 55.087L317.701 56.4383L316.35 55.087L317.701 53.7357ZM323.796 63.3652C323.297 63.3652 322.869 63.3023 322.511 63.1765C322.154 63.0548 321.846 62.8661 321.586 62.6104C321.424 62.4481 321.298 62.2777 321.209 62.0991C321.124 61.9206 321.061 61.7461 321.02 61.5757C320.984 61.4012 320.961 61.2368 320.953 61.0826C320.949 60.9284 320.947 60.7965 320.947 60.687V60.5957C320.951 60.4455 320.955 60.2304 320.959 59.9504C320.967 59.6664 320.971 59.3336 320.971 58.9522C320.971 58.5707 320.969 58.1507 320.965 57.6922C320.961 57.2336 320.949 56.7771 320.929 56.3226C320.913 55.8641 320.886 55.4238 320.85 55.0017C320.817 54.5797 320.771 54.2125 320.71 53.9L322.53 53.3461C322.582 53.6139 322.625 53.9304 322.658 54.2957C322.69 54.6568 322.716 55.0362 322.737 55.4339C322.761 55.8316 322.777 56.2313 322.785 56.633C322.798 57.0348 322.806 57.4081 322.81 57.753C322.814 58.0574 322.802 58.3557 322.773 58.6478C322.749 58.9359 322.729 59.22 322.712 59.5C322.696 59.7759 322.696 60.0458 322.712 60.3096C322.733 60.5693 322.789 60.8229 322.883 61.0704C322.919 61.1638 322.964 61.2348 323.017 61.2835C323.073 61.3322 323.138 61.3687 323.211 61.393C323.284 61.4133 323.364 61.4255 323.449 61.4296C323.538 61.4336 323.635 61.4357 323.741 61.4357H323.796C323.926 61.4357 324.049 61.462 324.167 61.5148C324.285 61.5675 324.386 61.6386 324.471 61.7278C324.561 61.813 324.632 61.9145 324.684 62.0322C324.737 62.1499 324.764 62.2736 324.764 62.4035C324.764 62.5374 324.737 62.6632 324.684 62.7809C324.632 62.8986 324.561 63 324.471 63.0852C324.386 63.1745 324.285 63.2435 324.167 63.2922C324.049 63.3409 323.926 63.3652 323.796 63.3652ZM322.861 62.4096C322.861 62.2838 322.885 62.1641 322.934 62.0504C322.983 61.9368 323.048 61.8374 323.129 61.7522C323.21 61.6629 323.307 61.5919 323.421 61.5391C323.53 61.4823 323.648 61.4499 323.774 61.4417C324.078 61.4417 324.334 61.3606 324.541 61.1983C324.752 61.0319 324.933 60.8148 325.083 60.547C325.233 60.2791 325.361 59.9748 325.466 59.6339C325.572 59.289 325.671 58.938 325.764 58.5809L327.384 58.873C327.351 59.0151 327.31 59.1814 327.262 59.3722C327.217 59.5588 327.175 59.7536 327.134 59.9565C327.097 60.1594 327.067 60.3583 327.043 60.553C327.018 60.7438 327.012 60.9122 327.024 61.0583C327.041 61.2043 327.079 61.32 327.14 61.4052C327.201 61.4864 327.294 61.5168 327.42 61.4965C327.582 61.4843 327.728 61.4275 327.858 61.3261C327.992 61.2246 328.112 61.0948 328.217 60.9365C328.323 60.7783 328.416 60.5997 328.497 60.4009C328.579 60.202 328.648 59.9971 328.704 59.7861C328.765 59.5751 328.814 59.3661 328.85 59.1591C328.891 58.9522 328.924 58.7635 328.948 58.593L330.494 58.8548C330.49 58.9765 330.476 59.1267 330.451 59.3052C330.427 59.4838 330.405 59.6725 330.384 59.8713C330.364 60.0661 330.354 60.2629 330.354 60.4617C330.354 60.6565 330.376 60.833 330.421 60.9913C330.466 61.1455 330.539 61.2713 330.64 61.3687C330.746 61.4661 330.892 61.5148 331.078 61.5148C331.192 61.5148 331.308 61.4965 331.425 61.46C331.543 61.4194 331.648 61.3646 331.742 61.2957C331.835 61.2226 331.91 61.1374 331.967 61.04C332.028 60.9426 332.058 60.833 332.058 60.7113C332.058 60.5003 332.024 60.269 331.955 60.0174C331.886 59.7617 331.803 59.5101 331.705 59.2626C331.608 59.011 331.504 58.7736 331.395 58.5504C331.289 58.3272 331.2 58.1386 331.127 57.9843L332.637 57.1383C332.661 57.191 332.704 57.2843 332.764 57.4183C332.825 57.5481 332.894 57.7064 332.971 57.893C333.048 58.0797 333.128 58.2907 333.209 58.5261C333.294 58.7574 333.371 58.9988 333.44 59.2504C333.509 59.502 333.566 59.7597 333.61 60.0235C333.655 60.2872 333.677 60.5429 333.677 60.7904C333.677 61.1962 333.621 61.5614 333.507 61.8861C333.397 62.2107 333.229 62.4867 333.002 62.7139C332.779 62.9412 332.497 63.1177 332.156 63.2435C331.819 63.3693 331.423 63.4342 330.969 63.4383C330.75 63.4383 330.551 63.4159 330.372 63.3713C330.194 63.3307 330.033 63.2719 329.891 63.1948C329.749 63.1217 329.621 63.0345 329.508 62.933C329.398 62.8316 329.301 62.7241 329.216 62.6104C329.118 62.7362 329.013 62.8499 328.899 62.9513C328.79 63.0487 328.662 63.1319 328.516 63.2009C328.374 63.2739 328.213 63.3307 328.035 63.3713C327.856 63.4119 327.653 63.4342 327.426 63.4383C327.227 63.4423 327.047 63.4241 326.884 63.3835C326.726 63.347 326.58 63.2922 326.446 63.2191C326.312 63.1461 326.19 63.0588 326.081 62.9574C325.975 62.8519 325.876 62.7362 325.783 62.6104C325.697 62.7159 325.6 62.8154 325.49 62.9087C325.381 62.998 325.251 63.0771 325.101 63.1461C324.951 63.2151 324.776 63.2699 324.577 63.3104C324.379 63.351 324.147 63.3713 323.884 63.3713H323.774C323.648 63.3632 323.53 63.3328 323.421 63.28C323.307 63.2272 323.21 63.1583 323.129 63.073C323.048 62.9878 322.983 62.8884 322.934 62.7748C322.885 62.6612 322.861 62.5394 322.861 62.4096ZM334.967 63.3835C334.988 63.071 335.006 62.7443 335.022 62.4035C335.042 62.0626 335.059 61.7258 335.071 61.393C335.083 61.0603 335.093 60.7377 335.101 60.4252C335.109 60.1087 335.113 59.8206 335.113 59.5609C335.113 58.8832 335.103 58.3009 335.083 57.8139C335.063 57.327 335.038 56.911 335.01 56.5661C334.982 56.2171 334.949 55.927 334.913 55.6957C334.88 55.4603 334.85 55.2533 334.821 55.0748L334.742 54.6122L336.635 54.0096C336.651 54.0664 336.666 54.1191 336.678 54.1678C336.69 54.2165 336.7 54.2754 336.708 54.3443C336.72 54.4093 336.733 54.4904 336.745 54.5878C336.761 54.6852 336.777 54.813 336.793 54.9713C336.81 55.1296 336.828 55.3223 336.848 55.5496C336.873 55.7768 336.901 56.0548 336.933 56.3835C336.954 56.7 336.97 56.9841 336.982 57.2357C336.998 57.4872 337.011 57.7328 337.019 57.9722C337.027 58.2116 337.033 58.4591 337.037 58.7148C337.041 58.9664 337.043 59.2525 337.043 59.573C337.043 60.1006 337.035 60.6606 337.019 61.253C337.002 61.8414 336.972 62.4603 336.927 63.1096L334.967 63.3835ZM333.342 53.6383C333.342 53.6139 333.356 53.5693 333.385 53.5043C333.409 53.4354 333.439 53.3623 333.476 53.2852C333.508 53.2081 333.541 53.1371 333.573 53.0722C333.606 53.0032 333.628 52.9586 333.64 52.9383C333.786 52.7151 333.957 52.5325 334.152 52.3904C334.351 52.2484 334.547 52.1551 334.742 52.1104C334.783 52.1023 334.833 52.0983 334.894 52.0983C334.955 52.0942 335.004 52.0922 335.04 52.0922C335.235 52.0922 335.412 52.1165 335.57 52.1652C335.728 52.2099 335.87 52.2606 335.996 52.3174L336.185 52.4087C336.254 52.4412 336.323 52.4716 336.392 52.5C336.461 52.5243 336.534 52.5386 336.611 52.5426C336.676 52.5467 336.743 52.5304 336.812 52.4939C336.881 52.4574 336.948 52.4087 337.013 52.3478C337.082 52.2829 337.146 52.2119 337.207 52.1348C337.272 52.0577 337.333 51.9806 337.39 51.9035L338.339 52.5183C338.335 52.5304 338.313 52.569 338.273 52.6339C338.232 52.6948 338.173 52.7699 338.096 52.8591C338.023 52.9484 337.934 53.0438 337.828 53.1452C337.727 53.2426 337.611 53.3339 337.481 53.4191C337.351 53.5003 337.209 53.5672 337.055 53.62C336.905 53.6728 336.745 53.6971 336.574 53.693C336.448 53.7012 336.321 53.6768 336.191 53.62C336.061 53.5591 335.927 53.4962 335.789 53.4313C335.655 53.3623 335.517 53.3055 335.375 53.2609C335.233 53.2122 335.085 53.2041 334.931 53.2365C334.837 53.2568 334.76 53.2933 334.699 53.3461C334.643 53.3948 334.594 53.4536 334.553 53.5226C334.513 53.5875 334.478 53.6586 334.45 53.7357C334.422 53.8128 334.391 53.8878 334.359 53.9609L333.342 53.6383Z" fill="#E2E2E2"/>
<defs>
<linearGradient id="paint0_linear_2611_60186" x1="56" y1="8.5" x2="56" y2="43.5" gradientUnits="userSpaceOnUse">
<stop stop-color="#4C8CED"/>
<stop offset="1" stop-color="#429F56"/>
</linearGradient>
<linearGradient id="paint1_linear_2611_60186" x1="186" y1="8.5" x2="186" y2="43.5" gradientUnits="userSpaceOnUse">
<stop stop-color="#4C8CED"/>
<stop offset="1" stop-color="#429F56"/>
</linearGradient>
</defs>
</svg>
