<svg width="19" height="20" viewBox="0 0 19 20" fill="none" xmlns="http://www.w3.org/2000/svg">
<path d="M16.6136 1H6.13444C6.08243 1 6.03043 1 5.97842 1.02624H5.95242C5.90042 1.05249 5.87441 1.05249 5.82241 1.07873C5.7964 1.07873 5.7964 1.10497 5.7704 1.10497C5.7184 1.13121 5.69239 1.1837 5.64039 1.20994L2.15602 5.38253C2.10401 5.43502 2.07801 5.4875 2.05201 5.56623C2.05201 5.59247 2.05201 5.61872 2.026 5.61872C2.026 5.6712 2 5.69745 2 5.74993V18.2415C2 18.5826 2.28603 18.8713 2.62407 18.8713H16.6136C16.9516 18.8713 17.2376 18.5826 17.2376 18.2415V1.62982C17.2376 1.28867 16.9516 1 16.6136 1ZM5.51037 3.36184V5.17259H3.97621L5.51037 3.36184ZM15.9895 17.6379H3.24813V6.43224H6.10844C6.44647 6.43224 6.7325 6.14357 6.7325 5.80242V2.25965H15.9895V17.6379Z" fill="#303030"/>
<path d="M4.95482 7.83643C4.6143 7.83643 4.32617 8.12663 4.32617 8.46961C4.32617 8.81258 4.6143 9.10279 4.95482 9.10279H14.0441C14.3846 9.10279 14.6727 8.81258 14.6727 8.46961C14.6727 8.12663 14.3846 7.83643 14.0441 7.83643H4.95482ZM14.0179 10.8968H4.95482C4.6143 10.8968 4.32617 11.187 4.32617 11.53C4.32617 11.873 4.6143 12.1632 4.95482 12.1632H14.0441C14.3846 12.1632 14.6727 11.873 14.6727 11.53C14.6465 11.187 14.3846 10.8968 14.0179 10.8968Z" fill="#303030"/>
</svg>
