<svg width="14" height="14" viewBox="0 0 14 14" fill="none" xmlns="http://www.w3.org/2000/svg">
<path d="M1.13965 2.6247H3.35527C3.4314 3.05926 3.65832 3.45306 3.99612 3.73683C4.33393 4.0206 4.76097 4.17616 5.20215 4.17616C5.64332 4.17616 6.07037 4.0206 6.40817 3.73683C6.74598 3.45306 6.9729 3.05926 7.04902 2.6247H13.6396C13.7225 2.6247 13.802 2.59178 13.8606 2.53317C13.9192 2.47457 13.9521 2.39508 13.9521 2.3122C13.9521 2.22932 13.9192 2.14984 13.8606 2.09123C13.802 2.03263 13.7225 1.9997 13.6396 1.9997H7.04902C6.9729 1.56515 6.74598 1.17135 6.40817 0.887578C6.07037 0.603809 5.64332 0.448242 5.20215 0.448242C4.76097 0.448242 4.33393 0.603809 3.99612 0.887578C3.65832 1.17135 3.4314 1.56515 3.35527 1.9997H1.13965C1.05677 1.9997 0.977283 2.03263 0.918678 2.09123C0.860072 2.14984 0.827148 2.22932 0.827148 2.3122C0.827148 2.39508 0.860072 2.47457 0.918678 2.53317C0.977283 2.59178 1.05677 2.6247 1.13965 2.6247ZM5.20215 1.0622C5.44938 1.0622 5.69105 1.13551 5.89661 1.27287C6.10217 1.41022 6.26239 1.60544 6.357 1.83385C6.45161 2.06226 6.47636 2.31359 6.42813 2.55607C6.3799 2.79854 6.26085 3.02127 6.08603 3.19609C5.91122 3.3709 5.68849 3.48995 5.44601 3.53818C5.20354 3.58642 4.9522 3.56166 4.72379 3.46705C4.49539 3.37244 4.30016 3.21223 4.16281 3.00667C4.02546 2.8011 3.95215 2.55943 3.95215 2.3122C3.95215 1.98068 4.08384 1.66274 4.31826 1.42832C4.55269 1.1939 4.87063 1.0622 5.20215 1.0622ZM13.6396 6.6872H11.424C11.3479 6.25265 11.121 5.85885 10.7832 5.57508C10.4454 5.29131 10.0183 5.13574 9.57715 5.13574C9.13597 5.13574 8.70893 5.29131 8.37112 5.57508C8.03332 5.85885 7.8064 6.25265 7.73027 6.6872H1.13965C1.05677 6.6872 0.977283 6.72013 0.918678 6.77873C0.860072 6.83734 0.827148 6.91682 0.827148 6.9997C0.827148 7.08258 0.860072 7.16207 0.918678 7.22067C0.977283 7.27928 1.05677 7.3122 1.13965 7.3122H7.73027C7.8064 7.74676 8.03332 8.14056 8.37112 8.42433C8.70893 8.7081 9.13597 8.86366 9.57715 8.86366C10.0183 8.86366 10.4454 8.7081 10.7832 8.42433C11.121 8.14056 11.3479 7.74676 11.424 7.3122H13.6396C13.7225 7.3122 13.802 7.27928 13.8606 7.22067C13.9192 7.16207 13.9521 7.08258 13.9521 6.9997C13.9521 6.91682 13.9192 6.83734 13.8606 6.77873C13.802 6.72013 13.7225 6.6872 13.6396 6.6872ZM9.57715 8.2497C9.32992 8.2497 9.08825 8.17639 8.88269 8.03904C8.67712 7.90169 8.51691 7.70646 8.4223 7.47806C8.32769 7.24965 8.30294 6.99832 8.35117 6.75584C8.3994 6.51336 8.51845 6.29064 8.69326 6.11582C8.86808 5.941 9.09081 5.82195 9.33329 5.77372C9.57576 5.72549 9.8271 5.75024 10.0555 5.84485C10.2839 5.93946 10.4791 6.09968 10.6165 6.30524C10.7538 6.5108 10.8271 6.75248 10.8271 6.9997C10.8271 7.33122 10.6955 7.64917 10.461 7.88359C10.2266 8.11801 9.90867 8.2497 9.57715 8.2497ZM13.6396 11.3747H7.04902C6.9729 10.9401 6.74598 10.5463 6.40817 10.2626C6.07037 9.97881 5.64332 9.82324 5.20215 9.82324C4.76097 9.82324 4.33393 9.97881 3.99612 10.2626C3.65832 10.5463 3.4314 10.9401 3.35527 11.3747H1.13965C1.05677 11.3747 0.977283 11.4076 0.918678 11.4662C0.860072 11.5248 0.827148 11.6043 0.827148 11.6872C0.827148 11.7701 0.860072 11.8496 0.918678 11.9082C0.977283 11.9668 1.05677 11.9997 1.13965 11.9997H3.35527C3.4314 12.4343 3.65832 12.8281 3.99612 13.1118C4.33393 13.3956 4.76097 13.5512 5.20215 13.5512C5.64332 13.5512 6.07037 13.3956 6.40817 13.1118C6.74598 12.8281 6.9729 12.4343 7.04902 11.9997H13.6396C13.7225 11.9997 13.802 11.9668 13.8606 11.9082C13.9192 11.8496 13.9521 11.7701 13.9521 11.6872C13.9521 11.6043 13.9192 11.5248 13.8606 11.4662C13.802 11.4076 13.7225 11.3747 13.6396 11.3747ZM5.20215 12.9372C4.95492 12.9372 4.71325 12.8639 4.50769 12.7265C4.30212 12.5892 4.14191 12.394 4.0473 12.1656C3.95269 11.9371 3.92794 11.6858 3.97617 11.4433C4.0244 11.2009 4.14345 10.9781 4.31826 10.8033C4.49308 10.6285 4.71581 10.5095 4.95829 10.4612C5.20076 10.413 5.4521 10.4377 5.6805 10.5324C5.90891 10.627 6.10413 10.7872 6.24149 10.9927C6.37884 11.1983 6.45215 11.44 6.45215 11.6872C6.45215 12.0187 6.32045 12.3367 6.08603 12.5711C5.85161 12.8055 5.53367 12.9372 5.20215 12.9372Z" fill="#636363"/>
</svg>
