<svg width="31" height="31" viewBox="0 0 31 31" fill="none" xmlns="http://www.w3.org/2000/svg">
<g filter="url(#filter0_d_5644_14910)">
<path fill-rule="evenodd" clip-rule="evenodd" d="M15.5004 2C21.4634 2.00043 26.5958 6.21308 27.7588 12.0617C28.9217 17.9103 25.7913 23.7659 20.282 26.0476C14.7728 28.3292 8.41894 26.4014 5.10633 21.443C1.79371 16.4847 2.44488 9.87686 6.66161 5.66053C9.00587 3.3165 12.1853 1.99976 15.5004 2Z" stroke="#636363" stroke-width="1.5" stroke-linecap="round" stroke-linejoin="round"/>
<path d="M11.3455 9.28227C11.0526 8.98932 10.5778 8.98923 10.2848 9.28207C9.99187 9.5749 9.99178 10.0498 10.2846 10.3427L11.3455 9.28227ZM14.9701 15.03C15.2629 15.3229 15.7378 15.323 16.0307 15.0302C16.3237 14.7374 16.3238 14.2625 16.0309 13.9695L14.9701 15.03ZM16.0306 13.9695C15.7376 13.6767 15.2627 13.6769 14.9699 13.9699C14.6771 14.2629 14.6773 14.7377 14.9703 15.0305L16.0306 13.9695ZM19.6593 19.716C19.9523 20.0088 20.4272 20.0086 20.72 19.7156C21.0128 19.4226 21.0126 18.9477 20.7196 18.6549L19.6593 19.716ZM16.0309 15.0302C16.3238 14.7373 16.3237 14.2624 16.0307 13.9696C15.7378 13.6767 15.2629 13.6768 14.9701 13.9698L16.0309 15.0302ZM10.2846 18.657C9.99178 18.95 9.99187 19.4249 10.2848 19.7177C10.5778 20.0105 11.0526 20.0104 11.3455 19.7175L10.2846 18.657ZM14.9702 13.9693C14.6773 14.2622 14.6772 14.737 14.97 15.03C15.2628 15.3229 15.7377 15.323 16.0307 15.0302L14.9702 13.9693ZM20.7197 10.3429C21.0126 10.0501 21.0127 9.57522 20.7199 9.28227C20.427 8.98932 19.9522 8.98923 19.6592 9.28207L20.7197 10.3429ZM10.2846 10.3427L14.9701 15.03L16.0309 13.9695L11.3455 9.28227L10.2846 10.3427ZM14.9703 15.0305L19.6593 19.716L20.7196 18.6549L16.0306 13.9695L14.9703 15.0305ZM14.9701 13.9698L10.2846 18.657L11.3455 19.7175L16.0309 15.0302L14.9701 13.9698ZM16.0307 15.0302L20.7197 10.3429L19.6592 9.28207L14.9702 13.9693L16.0307 15.0302Z" fill="#A90000"/>
</g>
<defs>
<filter id="filter0_d_5644_14910" x="0.25" y="0.25" width="30.5" height="30.5" filterUnits="userSpaceOnUse" color-interpolation-filters="sRGB">
<feFlood flood-opacity="0" result="BackgroundImageFix"/>
<feColorMatrix in="SourceAlpha" type="matrix" values="0 0 0 0 0 0 0 0 0 0 0 0 0 0 0 0 0 0 127 0" result="hardAlpha"/>
<feOffset dy="1"/>
<feGaussianBlur stdDeviation="1"/>
<feComposite in2="hardAlpha" operator="out"/>
<feColorMatrix type="matrix" values="0 0 0 0 0 0 0 0 0 0 0 0 0 0 0 0 0 0 0.25 0"/>
<feBlend mode="normal" in2="BackgroundImageFix" result="effect1_dropShadow_5644_14910"/>
<feBlend mode="normal" in="SourceGraphic" in2="effect1_dropShadow_5644_14910" result="shape"/>
</filter>
</defs>
</svg>
