<svg width="278" height="42" viewBox="0 0 278 42" fill="none" xmlns="http://www.w3.org/2000/svg">
<g filter="url(#filter0_b_1442_19043)">
<path d="M0 0H278V34C278 38.4183 274.418 42 270 42H8.00001C3.58173 42 0 38.4183 0 34V0Z" fill="white" fill-opacity="0.7"/>
<path d="M20.7739 24.8652C20.2423 24.8652 19.7208 24.7638 19.2095 24.5609C18.7023 24.358 18.2316 24.0313 17.7974 23.5809L18.8991 22.0287C19.0979 22.2113 19.2907 22.3614 19.4774 22.4791C19.664 22.5928 19.8426 22.682 20.013 22.747C20.1834 22.8119 20.3437 22.8565 20.4939 22.8809C20.6481 22.9052 20.7921 22.9174 20.926 22.9174C20.9869 22.9174 21.0559 22.9154 21.133 22.9113C21.2101 22.9072 21.2872 22.9012 21.3643 22.893C21.4414 22.8809 21.5165 22.8667 21.5895 22.8504C21.6626 22.8342 21.7295 22.8139 21.7904 22.7896C22.0014 22.7003 22.1678 22.611 22.2895 22.5217C22.1353 22.1484 21.9669 21.7609 21.7843 21.3591C21.6058 20.9533 21.4252 20.5475 21.2426 20.1417C21.06 19.7319 20.8794 19.3261 20.7008 18.9243C20.5223 18.5226 20.3559 18.1371 20.2017 17.7678L21.9791 17.0252L22.5208 18.34C22.6953 18.7701 22.9043 19.2814 23.1478 19.8739C23.3913 20.4623 23.6713 21.1299 23.9878 21.8765C24.0608 22.0551 24.1278 22.2113 24.1887 22.3452C24.2495 22.4791 24.3205 22.5907 24.4017 22.68C24.4869 22.7693 24.5863 22.8362 24.7 22.8809C24.8176 22.9214 24.9678 22.9417 25.1504 22.9417C25.2802 22.9417 25.404 22.9661 25.5217 23.0148C25.6394 23.0635 25.7408 23.1325 25.826 23.2217C25.9153 23.307 25.9863 23.4084 26.0391 23.5261C26.0918 23.6438 26.1182 23.7696 26.1182 23.9035C26.1182 24.0374 26.0918 24.1632 26.0391 24.2809C25.9863 24.3986 25.9153 24.5 25.826 24.5852C25.7408 24.6745 25.6394 24.7435 25.5217 24.7922C25.404 24.8409 25.2802 24.8652 25.1504 24.8652C24.9029 24.8652 24.6837 24.849 24.493 24.8165C24.3063 24.7841 24.1379 24.7374 23.9878 24.6765C23.8417 24.6197 23.7098 24.5507 23.5921 24.4696C23.4785 24.3843 23.371 24.291 23.2695 24.1896C23.16 24.2626 23.0443 24.3336 22.9226 24.4026C22.8008 24.4675 22.6608 24.5325 22.5026 24.5974C22.2591 24.6907 21.9953 24.7577 21.7113 24.7983C21.4313 24.8429 21.1188 24.8652 20.7739 24.8652ZM24.148 23.9035C24.148 23.7696 24.1723 23.6438 24.221 23.5261C24.2697 23.4084 24.3387 23.307 24.428 23.2217C24.5132 23.1325 24.6147 23.0635 24.7323 23.0148C24.85 22.9661 24.9758 22.9417 25.1097 22.9417H25.5723C25.8645 22.9417 26.1445 22.9296 26.4123 22.9052C26.6842 22.8809 26.9236 22.8301 27.1306 22.753C27.3376 22.6719 27.5039 22.5603 27.6297 22.4183C27.7596 22.2722 27.8286 22.0794 27.8367 21.84C27.8407 21.7507 27.8407 21.6777 27.8367 21.6209C27.8367 21.56 27.8265 21.489 27.8063 21.4078C27.786 21.3226 27.7555 21.213 27.715 21.0791C27.6784 20.9412 27.6257 20.7484 27.5567 20.5009L29.328 20.0017C29.4051 20.1965 29.4761 20.4542 29.541 20.7748C29.606 21.0954 29.6547 21.4464 29.6871 21.8278C29.6952 21.9496 29.7094 22.0754 29.7297 22.2052C29.75 22.3351 29.7825 22.4548 29.8271 22.5643C29.8758 22.6739 29.9407 22.7652 30.0219 22.8383C30.1031 22.9072 30.2086 22.9417 30.3384 22.9417C30.4723 22.9417 30.5981 22.9661 30.7158 23.0148C30.8335 23.0635 30.935 23.1325 31.0202 23.2217C31.1094 23.307 31.1784 23.4084 31.2271 23.5261C31.2799 23.6438 31.3063 23.7696 31.3063 23.9035C31.3063 24.0374 31.2799 24.1632 31.2271 24.2809C31.1784 24.3986 31.1094 24.5 31.0202 24.5852C30.9309 24.6745 30.8274 24.7435 30.7097 24.7922C30.5961 24.8409 30.4744 24.8652 30.3445 24.8652C29.955 24.8652 29.6202 24.8043 29.3402 24.6826C29.0642 24.5649 28.8268 24.4107 28.628 24.22C28.4454 24.3417 28.2344 24.4432 27.995 24.5243C27.7596 24.6055 27.508 24.6704 27.2402 24.7191C26.9723 24.7719 26.6964 24.8084 26.4123 24.8287C26.1283 24.853 25.8483 24.8652 25.5723 24.8652H25.1097C24.9758 24.8652 24.85 24.8409 24.7323 24.7922C24.6147 24.7435 24.5132 24.6745 24.428 24.5852C24.3387 24.5 24.2697 24.3986 24.221 24.2809C24.1723 24.1632 24.148 24.0374 24.148 23.9035ZM29.9732 27.0504L28.8045 28.2252L27.648 27.0687L26.5036 28.213L25.3228 27.0383L26.4915 25.8635L27.648 27.02L28.7923 25.8757L29.9732 27.0504ZM29.3843 23.9035C29.3843 23.7696 29.4107 23.6438 29.4635 23.5261C29.5122 23.4084 29.5791 23.307 29.6643 23.2217C29.7495 23.1325 29.851 23.0635 29.9687 23.0148C30.0864 22.9661 30.2122 22.9417 30.3461 22.9417H30.973H31.2469C31.3971 22.9417 31.5533 22.9357 31.7156 22.9235C31.882 22.9113 32.0362 22.887 32.1782 22.8504C32.3243 22.8139 32.4522 22.7632 32.5617 22.6983C32.6753 22.6333 32.7565 22.5461 32.8052 22.4365C32.8377 22.3635 32.8539 22.2539 32.8539 22.1078C32.8539 22.0104 32.8255 21.8643 32.7687 21.6696C32.7119 21.4748 32.6368 21.2597 32.5435 21.0243C32.4501 20.7849 32.3446 20.5354 32.2269 20.2757C32.1093 20.0159 31.9895 19.7704 31.8678 19.5391L33.6087 18.6748C33.7223 18.9304 33.8339 19.2023 33.9435 19.4904C34.0571 19.7786 34.1585 20.0707 34.2478 20.367C34.3371 20.6632 34.4081 20.9594 34.4608 21.2557C34.5177 21.5478 34.5461 21.8278 34.5461 22.0957C34.5461 22.5055 34.473 22.8809 34.3269 23.2217C34.1565 23.6032 33.9232 23.9197 33.6269 24.1713C33.3307 24.4188 32.9756 24.6014 32.5617 24.7191C32.3182 24.7881 32.0849 24.8287 31.8617 24.8409C31.6385 24.8571 31.4295 24.8652 31.2348 24.8652H30.4008H30.3461C30.2122 24.8652 30.0864 24.8409 29.9687 24.7922C29.851 24.7435 29.7495 24.6745 29.6643 24.5852C29.5791 24.5 29.5122 24.3986 29.4635 24.2809C29.4107 24.1632 29.3843 24.0374 29.3843 23.9035ZM32.3974 15.2357L33.7487 16.587L32.3974 17.9383L31.0461 16.587L32.3974 15.2357ZM39.6973 24.8652C39.608 24.8652 39.4822 24.8591 39.3199 24.847C39.1576 24.8348 38.9831 24.7901 38.7964 24.713C38.7071 25.2162 38.5387 25.693 38.2912 26.1435C38.0477 26.598 37.7454 27.022 37.3842 27.4157C37.0231 27.8133 36.6112 28.1786 36.1486 28.5113C35.686 28.8441 35.1929 29.1423 34.6695 29.4061L33.5556 27.8661C33.8437 27.72 34.1338 27.5597 34.426 27.3852C34.7182 27.2148 34.9961 27.0322 35.2599 26.8374C35.5277 26.6467 35.7753 26.4458 36.0025 26.2348C36.2338 26.0278 36.4347 25.8128 36.6051 25.5896C36.7756 25.3664 36.9095 25.1371 37.0069 24.9017C37.1042 24.6704 37.1529 24.4351 37.1529 24.1957C37.1529 24.1835 37.1509 24.1652 37.1469 24.1409C37.1469 24.1165 37.1469 24.0922 37.1469 24.0678C37.1469 24.0435 37.1448 24.0252 37.1408 24.013C37.1408 24.0009 37.1408 24.0029 37.1408 24.0191V24.0252C37.1124 23.7899 37.0718 23.5646 37.019 23.3496C36.9663 23.1345 36.8993 22.9154 36.8182 22.6922C36.7411 22.469 36.6498 22.2357 36.5442 21.9922C36.4387 21.7446 36.3211 21.4748 36.1912 21.1826L37.9503 20.4157C38.1127 20.9026 38.2648 21.3084 38.4069 21.633C38.5489 21.9577 38.6869 22.2174 38.8208 22.4122C38.9587 22.607 39.0967 22.7449 39.2347 22.8261C39.3727 22.9032 39.5187 22.9417 39.6729 22.9417H39.7034C39.8373 22.9417 39.9631 22.9681 40.0808 23.0209C40.1985 23.0736 40.2999 23.1446 40.3851 23.2339C40.4744 23.3191 40.5434 23.4206 40.5921 23.5383C40.6448 23.6559 40.6712 23.7797 40.6712 23.9096C40.6712 24.0435 40.6448 24.1693 40.5921 24.287C40.5434 24.4046 40.4744 24.5061 40.3851 24.5913C40.2999 24.6765 40.1985 24.7435 40.0808 24.7922C39.9631 24.8409 39.8353 24.8652 39.6973 24.8652ZM37.0008 16.7513L38.3521 18.1026L37.0008 19.4539L35.6495 18.1026L37.0008 16.7513ZM38.6675 23.9035C38.6675 23.7696 38.6939 23.6438 38.7467 23.5261C38.7954 23.4084 38.8623 23.307 38.9475 23.2217C39.0327 23.1325 39.1342 23.0635 39.2519 23.0148C39.3696 22.9661 39.4954 22.9417 39.6293 22.9417H40.2562H40.5301C40.6803 22.9417 40.8365 22.9357 40.9988 22.9235C41.1652 22.9113 41.3194 22.887 41.4614 22.8504C41.6075 22.8139 41.7354 22.7632 41.8449 22.6983C41.9585 22.6333 42.0397 22.5461 42.0884 22.4365C42.1209 22.3635 42.1371 22.2539 42.1371 22.1078C42.1371 22.0104 42.1087 21.8643 42.0519 21.6696C41.9951 21.4748 41.92 21.2597 41.8267 21.0243C41.7333 20.7849 41.6278 20.5354 41.5101 20.2757C41.3925 20.0159 41.2727 19.7704 41.151 19.5391L42.8919 18.6748C43.0055 18.9304 43.1171 19.2023 43.2267 19.4904C43.3403 19.7786 43.4417 20.0707 43.531 20.367C43.6203 20.6632 43.6913 20.9594 43.744 21.2557C43.8009 21.5478 43.8293 21.8278 43.8293 22.0957C43.8293 22.5055 43.7562 22.8809 43.6101 23.2217C43.4397 23.6032 43.2064 23.9197 42.9101 24.1713C42.6139 24.4188 42.2588 24.6014 41.8449 24.7191C41.6014 24.7881 41.3681 24.8287 41.1449 24.8409C40.9217 24.8571 40.7127 24.8652 40.518 24.8652H39.684H39.6293C39.4954 24.8652 39.3696 24.8409 39.2519 24.7922C39.1342 24.7435 39.0327 24.6745 38.9475 24.5852C38.8623 24.5 38.7954 24.3986 38.7467 24.2809C38.6939 24.1632 38.6675 24.0374 38.6675 23.9035ZM41.431 25.4191L42.7823 26.7704L41.431 28.1217L40.0797 26.7704L41.431 25.4191ZM50.7761 24.013C50.1999 24.013 49.7048 23.9359 49.2909 23.7817C48.877 23.6235 48.5483 23.4023 48.3048 23.1183C48.1628 22.9357 48.0593 22.7388 47.9944 22.5278C47.9335 22.3128 47.9031 22.1078 47.9031 21.913C47.9031 21.7426 47.9173 21.5884 47.9457 21.4504C47.9741 21.3125 48.0086 21.1948 48.0492 21.0974C48.2115 20.7565 48.4104 20.4583 48.6457 20.2026C48.8851 19.947 49.1327 19.7258 49.3883 19.5391C49.648 19.3484 49.9037 19.1901 50.1553 19.0643C50.4109 18.9386 50.6382 18.8351 50.837 18.7539C50.8289 18.6606 50.8208 18.5652 50.8127 18.4678C50.8086 18.3704 50.8025 18.2771 50.7944 18.1878L50.764 17.8043L52.6631 17.3965C52.6672 17.433 52.6753 17.5183 52.6875 17.6522C52.7037 17.7861 52.7199 17.9464 52.7361 18.133C52.7564 18.3157 52.7767 18.5125 52.797 18.7235C52.8214 18.9304 52.8417 19.1252 52.8579 19.3078C52.8782 19.4904 52.8944 19.6487 52.9066 19.7826C52.9228 19.9165 52.933 19.9977 52.937 20.0261C52.9979 20.5252 53.0486 20.9351 53.0892 21.2557C53.1338 21.5762 53.1704 21.8319 53.1988 22.0226C53.2312 22.2093 53.2576 22.3452 53.2779 22.4304C53.2982 22.5116 53.3144 22.5664 53.3266 22.5948C53.3875 22.7246 53.4788 22.8159 53.6005 22.8687C53.7263 22.9174 53.8927 22.9417 54.0996 22.9417C54.2295 22.9417 54.3532 22.9661 54.4709 23.0148C54.5886 23.0635 54.6901 23.1325 54.7753 23.2217C54.8646 23.307 54.9356 23.4084 54.9883 23.5261C55.0411 23.6438 55.0675 23.7696 55.0675 23.9035C55.0675 24.0374 55.0411 24.1632 54.9883 24.2809C54.9356 24.3986 54.8646 24.5 54.7753 24.5852C54.6901 24.6704 54.5886 24.7374 54.4709 24.7861C54.3532 24.8388 54.2295 24.8652 54.0996 24.8652C54.0144 24.8652 53.919 24.8612 53.8135 24.853C53.708 24.849 53.5964 24.8368 53.4788 24.8165C53.3651 24.8003 53.2454 24.7739 53.1196 24.7374C52.9979 24.7049 52.8761 24.6603 52.7544 24.6035C52.584 24.5223 52.4338 24.431 52.304 24.3296C52.1782 24.2241 52.0564 24.0922 51.9388 23.9339C51.7318 23.9623 51.5309 23.9826 51.3361 23.9948C51.1454 24.007 50.9588 24.013 50.7761 24.013ZM50.7396 22.1017C50.8248 22.1017 50.9121 22.0997 51.0014 22.0957C51.0947 22.0875 51.184 22.0794 51.2692 22.0713C51.2489 21.9333 51.2266 21.7791 51.2022 21.6087C51.1819 21.4383 51.1617 21.2557 51.1414 21.0609L51.0805 20.5009C50.9263 20.578 50.7538 20.6713 50.5631 20.7809C50.3724 20.8864 50.1918 21 50.0214 21.1217C49.855 21.2394 49.715 21.3612 49.6014 21.487C49.4877 21.6087 49.4309 21.7223 49.4309 21.8278C49.4309 21.8806 49.4756 21.9252 49.5648 21.9617C49.6582 21.9942 49.7718 22.0226 49.9057 22.047C50.0396 22.0672 50.1817 22.0814 50.3318 22.0896C50.4819 22.0977 50.6179 22.1017 50.7396 22.1017ZM53.0914 23.9035C53.0914 23.7696 53.1177 23.6438 53.1705 23.5261C53.2192 23.4084 53.2861 23.307 53.3714 23.2217C53.4566 23.1325 53.558 23.0635 53.6757 23.0148C53.7934 22.9661 53.9192 22.9417 54.0531 22.9417H54.6801H54.954C55.1041 22.9417 55.2603 22.9357 55.4227 22.9235C55.589 22.9113 55.7432 22.887 55.8853 22.8504C56.0314 22.8139 56.1592 22.7632 56.2687 22.6983C56.3824 22.6333 56.4635 22.5461 56.5122 22.4365C56.5447 22.3635 56.5609 22.2539 56.5609 22.1078C56.5609 22.0104 56.5325 21.8643 56.4757 21.6696C56.4189 21.4748 56.3438 21.2597 56.2505 21.0243C56.1572 20.7849 56.0516 20.5354 55.934 20.2757C55.8163 20.0159 55.6966 19.7704 55.5748 19.5391L57.3157 18.6748C57.4293 18.9304 57.5409 19.2023 57.6505 19.4904C57.7641 19.7786 57.8656 20.0707 57.9548 20.367C58.0441 20.6632 58.1151 20.9594 58.1679 21.2557C58.2247 21.5478 58.2531 21.8278 58.2531 22.0957C58.2531 22.5055 58.1801 22.8809 58.034 23.2217C57.8635 23.6032 57.6302 23.9197 57.334 24.1713C57.0377 24.4188 56.6827 24.6014 56.2687 24.7191C56.0253 24.7881 55.7919 24.8287 55.5687 24.8409C55.3456 24.8571 55.1366 24.8652 54.9418 24.8652H54.1079H54.0531C53.9192 24.8652 53.7934 24.8409 53.6757 24.7922C53.558 24.7435 53.4566 24.6745 53.3714 24.5852C53.2861 24.5 53.2192 24.3986 53.1705 24.2809C53.1177 24.1632 53.0914 24.0374 53.0914 23.9035ZM55.8548 25.4191L57.2061 26.7704L55.8548 28.1217L54.5035 26.7704L55.8548 25.4191ZM63.5547 24.8652C63.4654 24.8652 63.3396 24.8591 63.1773 24.847C63.015 24.8348 62.8405 24.7901 62.6538 24.713C62.5646 25.2162 62.3962 25.693 62.1486 26.1435C61.9051 26.598 61.6028 27.022 61.2417 27.4157C60.8805 27.8133 60.4686 28.1786 60.006 28.5113C59.5434 28.8441 59.0504 29.1423 58.5269 29.4061L57.413 27.8661C57.7011 27.72 57.9912 27.5597 58.2834 27.3852C58.5756 27.2148 58.8536 27.0322 59.1173 26.8374C59.3851 26.6467 59.6327 26.4458 59.8599 26.2348C60.0912 26.0278 60.2921 25.8128 60.4625 25.5896C60.633 25.3664 60.7669 25.1371 60.8643 24.9017C60.9617 24.6704 61.0104 24.4351 61.0104 24.1957C61.0104 24.1835 61.0083 24.1652 61.0043 24.1409C61.0043 24.1165 61.0043 24.0922 61.0043 24.0678C61.0043 24.0435 61.0023 24.0252 60.9982 24.013C60.9982 24.0009 60.9982 24.0029 60.9982 24.0191V24.0252C60.9698 23.7899 60.9292 23.5646 60.8765 23.3496C60.8237 23.1345 60.7567 22.9154 60.6756 22.6922C60.5985 22.469 60.5072 22.2357 60.4017 21.9922C60.2962 21.7446 60.1785 21.4748 60.0486 21.1826L61.8078 20.4157C61.9701 20.9026 62.1223 21.3084 62.2643 21.633C62.4063 21.9577 62.5443 22.2174 62.6782 22.4122C62.8162 22.607 62.9541 22.7449 63.0921 22.8261C63.2301 22.9032 63.3762 22.9417 63.5304 22.9417H63.5608C63.6947 22.9417 63.8205 22.9681 63.9382 23.0209C64.0559 23.0736 64.1573 23.1446 64.2425 23.2339C64.3318 23.3191 64.4008 23.4206 64.4495 23.5383C64.5023 23.6559 64.5286 23.7797 64.5286 23.9096C64.5286 24.0435 64.5023 24.1693 64.4495 24.287C64.4008 24.4046 64.3318 24.5061 64.2425 24.5913C64.1573 24.6765 64.0559 24.7435 63.9382 24.7922C63.8205 24.8409 63.6927 24.8652 63.5547 24.8652ZM62.5341 23.9035C62.5341 23.7696 62.5605 23.6438 62.6133 23.5261C62.662 23.4084 62.7309 23.307 62.8202 23.2217C62.9095 23.1325 63.013 23.0635 63.1306 23.0148C63.2483 22.9661 63.3721 22.9417 63.502 22.9417C63.7008 22.9417 63.8712 22.9275 64.0133 22.8991C64.1553 22.8707 64.273 22.8362 64.3663 22.7957C64.4637 22.751 64.5408 22.7043 64.5976 22.6557C64.6544 22.6029 64.6991 22.5542 64.7315 22.5096L64.7254 22.5157C64.7822 22.4304 64.8391 22.333 64.8959 22.2235C64.9527 22.1099 65.0135 21.9597 65.0785 21.773C65.1475 21.5864 65.2205 21.351 65.2976 21.067C65.3788 20.7788 65.4701 20.4197 65.5715 19.9896L67.1663 20.507C67.1257 20.6612 67.0872 20.8093 67.0506 20.9513C67.0141 21.0893 66.9878 21.2252 66.9715 21.3591C66.9593 21.493 66.9593 21.627 66.9715 21.7609C66.9837 21.8948 67.0182 22.0348 67.075 22.1809C67.2454 21.8968 67.424 21.6168 67.6106 21.3409C67.7973 21.0609 67.9982 20.7971 68.2133 20.5496C68.4324 20.298 68.6678 20.0646 68.9193 19.8496C69.1709 19.6345 69.4469 19.4499 69.7472 19.2957C70.0515 19.1374 70.3822 19.0136 70.7393 18.9243C71.0964 18.831 71.4901 18.7823 71.9202 18.7783C72.4153 18.7742 72.8515 18.8574 73.2289 19.0278C73.6063 19.1942 73.9208 19.4154 74.1724 19.6913C74.428 19.9632 74.6167 20.2736 74.7385 20.6226C74.8602 20.9675 74.913 21.3125 74.8967 21.6574C74.8764 22.0875 74.7649 22.4893 74.562 22.8626C74.3631 23.2359 74.1034 23.5565 73.7828 23.8243C73.4866 24.0557 73.1559 24.2464 72.7906 24.3965C72.4295 24.5467 72.0562 24.6643 71.6706 24.7496C71.2892 24.8388 70.9057 24.8997 70.5202 24.9322C70.1388 24.9687 69.7796 24.987 69.4428 24.987C69.0451 24.987 68.688 24.9748 68.3715 24.9504C68.055 24.9261 67.7588 24.8774 67.4828 24.8043C67.2109 24.7354 66.9533 24.6359 66.7098 24.5061C66.4704 24.3803 66.2289 24.2139 65.9854 24.007C65.6933 24.2991 65.3483 24.5142 64.9506 24.6522C64.557 24.7901 64.0924 24.8612 63.5567 24.8652H63.502C63.3721 24.8652 63.2483 24.8409 63.1306 24.7922C63.013 24.7435 62.9095 24.6745 62.8202 24.5852C62.7309 24.5 62.662 24.3986 62.6133 24.2809C62.5605 24.1632 62.5341 24.0374 62.5341 23.9035ZM71.8959 20.7139C71.5063 20.7139 71.1309 20.791 70.7698 20.9452C70.4086 21.0954 70.0779 21.2841 69.7776 21.5113C69.4814 21.7386 69.2196 21.982 68.9924 22.2417C68.7692 22.5014 68.5967 22.7409 68.475 22.96C68.6333 22.9681 68.8118 22.9742 69.0106 22.9783C69.2095 22.9823 69.4022 22.9843 69.5889 22.9843C69.8405 22.9843 70.1002 22.9783 70.368 22.9661C70.6399 22.9499 70.9057 22.9235 71.1654 22.887C71.4292 22.8464 71.6808 22.7916 71.9202 22.7226C72.1637 22.6536 72.3828 22.5664 72.5776 22.4609C72.7764 22.3513 72.9449 22.2214 73.0828 22.0713C73.2249 21.9212 73.3243 21.7446 73.3811 21.5417C73.3405 21.2577 73.1883 21.0487 72.9246 20.9148C72.6649 20.7809 72.322 20.7139 71.8959 20.7139ZM71.3724 15.1565L72.7237 16.5078L71.3724 17.8591L70.0211 16.5078L71.3724 15.1565ZM81.784 24.013C81.2077 24.013 80.7127 23.9359 80.2987 23.7817C79.8848 23.6235 79.5561 23.4023 79.3127 23.1183C79.1706 22.9357 79.0671 22.7388 79.0022 22.5278C78.9414 22.3128 78.9109 22.1078 78.9109 21.913C78.9109 21.7426 78.9251 21.5884 78.9535 21.4504C78.9819 21.3125 79.0164 21.1948 79.057 21.0974C79.2193 20.7565 79.4182 20.4583 79.6535 20.2026C79.8929 19.947 80.1405 19.7258 80.3961 19.5391C80.6558 19.3484 80.9115 19.1901 81.1631 19.0643C81.4187 18.9386 81.646 18.8351 81.8448 18.7539C81.8367 18.6606 81.8286 18.5652 81.8205 18.4678C81.8164 18.3704 81.8103 18.2771 81.8022 18.1878L81.7718 17.8043L83.6709 17.3965C83.675 17.433 83.6831 17.5183 83.6953 17.6522C83.7115 17.7861 83.7277 17.9464 83.744 18.133C83.7643 18.3157 83.7845 18.5125 83.8048 18.7235C83.8292 18.9304 83.8495 19.1252 83.8657 19.3078C83.886 19.4904 83.9022 19.6487 83.9144 19.7826C83.9306 19.9165 83.9408 19.9977 83.9448 20.0261C84.0057 20.5252 84.0564 20.9351 84.097 21.2557C84.1416 21.5762 84.1782 21.8319 84.2066 22.0226C84.239 22.2093 84.2654 22.3452 84.2857 22.4304C84.306 22.5116 84.3222 22.5664 84.3344 22.5948C84.3953 22.7246 84.4866 22.8159 84.6083 22.8687C84.7341 22.9174 84.9005 22.9417 85.1074 22.9417C85.2373 22.9417 85.3611 22.9661 85.4787 23.0148C85.5964 23.0635 85.6979 23.1325 85.7831 23.2217C85.8724 23.307 85.9434 23.4084 85.9961 23.5261C86.0489 23.6438 86.0753 23.7696 86.0753 23.9035C86.0753 24.0374 86.0489 24.1632 85.9961 24.2809C85.9434 24.3986 85.8724 24.5 85.7831 24.5852C85.6979 24.6704 85.5964 24.7374 85.4787 24.7861C85.3611 24.8388 85.2373 24.8652 85.1074 24.8652C85.0222 24.8652 84.9269 24.8612 84.8214 24.853C84.7158 24.849 84.6043 24.8368 84.4866 24.8165C84.3729 24.8003 84.2532 24.7739 84.1274 24.7374C84.0057 24.7049 83.884 24.6603 83.7622 24.6035C83.5918 24.5223 83.4416 24.431 83.3118 24.3296C83.186 24.2241 83.0643 24.0922 82.9466 23.9339C82.7396 23.9623 82.5387 23.9826 82.344 23.9948C82.1532 24.007 81.9666 24.013 81.784 24.013ZM81.7474 22.1017C81.8327 22.1017 81.9199 22.0997 82.0092 22.0957C82.1025 22.0875 82.1918 22.0794 82.277 22.0713C82.2567 21.9333 82.2344 21.7791 82.21 21.6087C82.1898 21.4383 82.1695 21.2557 82.1492 21.0609L82.0883 20.5009C81.9341 20.578 81.7616 20.6713 81.5709 20.7809C81.3802 20.8864 81.1996 21 81.0292 21.1217C80.8628 21.2394 80.7228 21.3612 80.6092 21.487C80.4956 21.6087 80.4387 21.7223 80.4387 21.8278C80.4387 21.8806 80.4834 21.9252 80.5727 21.9617C80.666 21.9942 80.7796 22.0226 80.9135 22.047C81.0474 22.0672 81.1895 22.0814 81.3396 22.0896C81.4898 22.0977 81.6257 22.1017 81.7474 22.1017ZM84.1235 23.9035C84.1235 23.7777 84.1499 23.658 84.2026 23.5443C84.2554 23.4307 84.3284 23.3313 84.4218 23.2461C84.5111 23.1568 84.6186 23.0858 84.7444 23.033C84.8661 22.9803 84.998 22.9499 85.14 22.9417C85.3551 22.9417 85.556 22.9072 85.7426 22.8383C85.9293 22.7652 86.1058 22.6272 86.2722 22.4243C86.4386 22.2214 86.5948 21.9354 86.7409 21.5661C86.887 21.1968 87.027 20.7139 87.1609 20.1174L88.78 20.3487C88.7922 20.3 88.7841 20.3264 88.7557 20.4278C88.7313 20.5293 88.7009 20.6733 88.6644 20.86C88.6319 21.0426 88.5995 21.2496 88.567 21.4809C88.5386 21.7081 88.5244 21.9272 88.5244 22.1383C88.5284 22.3452 88.5528 22.5258 88.5974 22.68C88.6461 22.8301 88.7293 22.9194 88.847 22.9478C88.9728 22.9803 89.0945 22.9559 89.2122 22.8748C89.3299 22.7896 89.4415 22.6699 89.547 22.5157C89.6525 22.3574 89.7499 22.1748 89.8392 21.9678C89.9284 21.7568 90.0096 21.5417 90.0826 21.3226C90.1557 21.1035 90.2186 20.8884 90.2713 20.6774C90.3241 20.4664 90.3647 20.2797 90.3931 20.1174L92 20.3487C91.9919 20.4501 91.9777 20.5861 91.9574 20.7565C91.9371 20.9229 91.9209 21.1014 91.9087 21.2922C91.8966 21.4829 91.8905 21.6757 91.8905 21.8704C91.8945 22.0612 91.9168 22.2357 91.9574 22.3939C91.998 22.5481 92.0609 22.6759 92.1461 22.7774C92.2313 22.8748 92.349 22.9235 92.4992 22.9235C92.6331 22.9235 92.7487 22.8788 92.8461 22.7896C92.9435 22.7003 93.0247 22.5846 93.0896 22.4426C93.1586 22.2965 93.2134 22.1322 93.254 21.9496C93.2945 21.7629 93.325 21.5742 93.3453 21.3835C93.3655 21.1928 93.3757 21.0081 93.3757 20.8296C93.3757 20.647 93.3696 20.4867 93.3574 20.3487L95.0009 20.1174L95.2018 21.8339C95.2261 22.0206 95.2789 22.1829 95.36 22.3209C95.4412 22.4588 95.5366 22.5745 95.6461 22.6678C95.7557 22.7571 95.8713 22.8261 95.9931 22.8748C96.1148 22.9194 96.2305 22.9417 96.34 22.9417H96.4131C96.5632 22.9417 96.6992 22.9661 96.8209 23.0148C96.9467 23.0635 97.0542 23.1325 97.1435 23.2217C97.2328 23.307 97.3018 23.4084 97.3505 23.5261C97.3992 23.6438 97.4235 23.7696 97.4235 23.9035C97.4235 24.0374 97.3992 24.1632 97.3505 24.2809C97.3018 24.3986 97.2308 24.5 97.1374 24.5852C97.0482 24.6704 96.9345 24.7374 96.7966 24.7861C96.6626 24.8388 96.5105 24.8652 96.34 24.8652C95.9464 24.8652 95.5751 24.7962 95.2261 24.6583C94.8771 24.5203 94.5748 24.287 94.3192 23.9583C94.2948 23.9907 94.2705 24.0191 94.2461 24.0435C94.2218 24.0678 94.1995 24.0922 94.1792 24.1165V24.1104C93.96 24.3417 93.7064 24.5243 93.4183 24.6583C93.1342 24.7962 92.8279 24.8652 92.4992 24.8652C92.1299 24.8652 91.789 24.7861 91.4766 24.6278C91.1682 24.4696 90.9105 24.2545 90.7035 23.9826C90.46 24.2504 90.1841 24.4675 89.8757 24.6339C89.5673 24.8003 89.2284 24.8835 88.8592 24.8835C88.5142 24.8835 88.1937 24.8064 87.8974 24.6522C87.6012 24.498 87.3557 24.287 87.1609 24.0191C86.9418 24.3235 86.6699 24.5406 86.3453 24.6704C86.0247 24.8003 85.627 24.8652 85.1522 24.8652C84.998 24.8652 84.858 24.8388 84.7322 24.7861C84.6064 24.7374 84.4989 24.6704 84.4096 24.5852C84.3203 24.5 84.2513 24.3986 84.2026 24.2809C84.1499 24.1632 84.1235 24.0374 84.1235 23.9035ZM93.54 17.64L92.3713 18.8148L91.2148 17.6583L90.0705 18.8026L88.8896 17.6278L90.0583 16.453L91.2148 17.6096L92.3592 16.4652L93.54 17.64ZM90.1313 15.8748L91.2148 14.7913L92.3044 15.8809L91.2209 16.9643L90.1313 15.8748ZM95.6856 23.9035C95.6856 23.7655 95.71 23.6377 95.7587 23.52C95.8074 23.4023 95.8763 23.3009 95.9656 23.2157C96.0508 23.1304 96.1523 23.0635 96.27 23.0148C96.3876 22.9661 96.5134 22.9417 96.6474 22.9417H97.0613C97.1424 22.9417 97.2236 22.9438 97.3047 22.9478C97.3859 22.9478 97.4671 22.9478 97.5482 22.9478C97.6213 22.9478 97.67 22.9499 97.6943 22.9539C97.7187 22.9539 97.7349 22.9559 97.743 22.96C97.7552 22.96 97.7674 22.96 97.7795 22.96C97.7958 22.96 97.8282 22.9559 97.8769 22.9478C97.8039 22.8667 97.7329 22.7733 97.6639 22.6678C97.599 22.5623 97.5381 22.4487 97.4813 22.327C97.4285 22.2012 97.3839 22.0693 97.3474 21.9313C97.3108 21.7893 97.2885 21.6412 97.2804 21.487C97.2845 21.1055 97.3494 20.7383 97.4752 20.3852C97.601 20.0281 97.7795 19.7035 98.0108 19.4113C98.2665 19.0948 98.5607 18.8472 98.8934 18.6687C99.2262 18.4901 99.5711 18.409 99.9282 18.4252C100.281 18.4414 100.61 18.5328 100.914 18.6991C101.219 18.8655 101.48 19.0806 101.7 19.3443C101.923 19.6081 102.097 19.9084 102.223 20.2452C102.353 20.578 102.418 20.9209 102.418 21.2739C102.418 21.5539 102.371 21.8299 102.278 22.1017C102.184 22.3696 102.067 22.6252 101.925 22.8687C102.12 22.889 102.322 22.9072 102.533 22.9235C102.749 22.9357 102.937 22.9417 103.1 22.9417C103.238 22.9417 103.365 22.9661 103.483 23.0148C103.601 23.0635 103.702 23.1304 103.787 23.2157C103.877 23.3009 103.946 23.4023 103.994 23.52C104.043 23.6377 104.067 23.7655 104.067 23.9035C104.067 24.0374 104.043 24.1632 103.994 24.2809C103.946 24.3986 103.877 24.5 103.787 24.5852C103.702 24.6745 103.601 24.7435 103.483 24.7922C103.365 24.8409 103.238 24.8652 103.1 24.8652H103.045C102.915 24.8652 102.773 24.8612 102.619 24.853C102.464 24.849 102.31 24.8429 102.156 24.8348C102.002 24.8267 101.85 24.8145 101.7 24.7983C101.553 24.7861 101.422 24.7719 101.304 24.7557C101.085 24.7232 100.862 24.6806 100.634 24.6278C100.411 24.5751 100.178 24.4899 99.9343 24.3722C99.7842 24.4574 99.5833 24.5304 99.3317 24.5913C99.0842 24.6562 98.8123 24.707 98.5161 24.7435C98.2198 24.7841 97.9134 24.8145 97.5969 24.8348C97.2804 24.8551 96.9801 24.8652 96.6961 24.8652H96.6474C96.5134 24.8652 96.3876 24.8409 96.27 24.7922C96.1523 24.7435 96.0508 24.6745 95.9656 24.5852C95.8763 24.5 95.8074 24.3986 95.7587 24.2809C95.71 24.1632 95.6856 24.0374 95.6856 23.9035ZM100.805 21.4139C100.805 21.2841 100.772 21.1603 100.707 21.0426C100.646 20.9249 100.569 20.8194 100.476 20.7261C100.387 20.6328 100.289 20.5557 100.184 20.4948C100.078 20.4299 99.983 20.3852 99.8978 20.3609C99.8045 20.3812 99.6969 20.4177 99.5752 20.4704C99.4575 20.5232 99.3439 20.5983 99.2343 20.6957C99.1288 20.789 99.0395 20.9046 98.9665 21.0426C98.8934 21.1765 98.8569 21.3368 98.8569 21.5235C98.8569 21.5843 98.8874 21.6696 98.9482 21.7791C99.0132 21.8846 99.0943 21.9942 99.1917 22.1078C99.2932 22.2174 99.4068 22.3209 99.5326 22.4183C99.6624 22.5116 99.7943 22.5786 99.9282 22.6191C100.03 22.5623 100.133 22.4852 100.239 22.3878C100.344 22.2864 100.438 22.1809 100.519 22.0713C100.604 21.9577 100.673 21.8441 100.726 21.7304C100.778 21.6128 100.805 21.5072 100.805 21.4139ZM102.144 16.3252L100.975 17.5L99.8187 16.3435L98.6743 17.4878L97.4934 16.313L98.6621 15.1383L99.8187 16.2948L100.963 15.1504L102.144 16.3252ZM102.187 23.9035C102.187 23.7696 102.213 23.6438 102.266 23.5261C102.315 23.4084 102.382 23.307 102.467 23.2217C102.552 23.1325 102.654 23.0635 102.771 23.0148C102.889 22.9661 103.015 22.9417 103.149 22.9417H103.776H104.05C104.2 22.9417 104.356 22.9357 104.518 22.9235C104.685 22.9113 104.839 22.887 104.981 22.8504C105.127 22.8139 105.255 22.7632 105.364 22.6983C105.478 22.6333 105.559 22.5461 105.608 22.4365C105.64 22.3635 105.657 22.2539 105.657 22.1078C105.657 22.0104 105.628 21.8643 105.571 21.6696C105.515 21.4748 105.44 21.2597 105.346 21.0243C105.253 20.7849 105.147 20.5354 105.03 20.2757C104.912 20.0159 104.792 19.7704 104.671 19.5391L106.411 18.6748C106.525 18.9304 106.637 19.2023 106.746 19.4904C106.86 19.7786 106.961 20.0707 107.051 20.367C107.14 20.6632 107.211 20.9594 107.264 21.2557C107.32 21.5478 107.349 21.8278 107.349 22.0957C107.349 22.5055 107.276 22.8809 107.13 23.2217C106.959 23.6032 106.726 23.9197 106.43 24.1713C106.133 24.4188 105.778 24.6014 105.364 24.7191C105.121 24.7881 104.888 24.8287 104.664 24.8409C104.441 24.8571 104.232 24.8652 104.037 24.8652H103.204H103.149C103.015 24.8652 102.889 24.8409 102.771 24.7922C102.654 24.7435 102.552 24.6745 102.467 24.5852C102.382 24.5 102.315 24.3986 102.266 24.2809C102.213 24.1632 102.187 24.0374 102.187 23.9035ZM105.2 15.2357L106.551 16.587L105.2 17.9383L103.849 16.587L105.2 15.2357ZM113.987 20.9087C113.902 20.8925 113.804 20.9229 113.695 21C113.589 21.073 113.488 21.1745 113.391 21.3043C113.297 21.4301 113.218 21.5701 113.153 21.7243C113.092 21.8786 113.062 22.0267 113.062 22.1687C113.062 22.3026 113.1 22.4142 113.177 22.5035C113.255 22.5928 113.352 22.6658 113.47 22.7226C113.591 22.7794 113.723 22.822 113.865 22.8504C114.011 22.8788 114.151 22.8991 114.285 22.9113H114.279C114.385 22.9194 114.504 22.9255 114.638 22.9296C114.776 22.9296 114.91 22.9296 115.04 22.9296C115.081 22.9296 115.111 22.9316 115.131 22.9357C115.156 22.9357 115.176 22.9357 115.192 22.9357C115.208 22.9357 115.225 22.9357 115.241 22.9357C115.261 22.9357 115.29 22.9336 115.326 22.9296C115.265 22.678 115.192 22.4386 115.107 22.2113C115.026 21.98 114.931 21.773 114.821 21.5904C114.711 21.4078 114.588 21.2577 114.45 21.14C114.312 21.0183 114.157 20.9412 113.987 20.9087ZM111.004 27.2817C111.577 27.1681 112.098 27.0241 112.569 26.8496C113.039 26.6791 113.451 26.4864 113.804 26.2713C114.162 26.0603 114.456 25.8351 114.687 25.5957C114.922 25.3562 115.089 25.1128 115.186 24.8652C115.012 24.8652 114.827 24.8612 114.632 24.853C114.437 24.849 114.277 24.8429 114.151 24.8348C113.681 24.7942 113.251 24.6887 112.861 24.5183C112.471 24.3519 112.161 24.1246 111.93 23.8365C111.759 23.6174 111.637 23.38 111.564 23.1243C111.495 22.8687 111.461 22.5988 111.461 22.3148C111.461 22.0957 111.481 21.8765 111.522 21.6574C111.562 21.4342 111.619 21.2191 111.692 21.0122C111.765 20.8012 111.851 20.6023 111.948 20.4157C112.049 20.229 112.157 20.0586 112.271 19.9043C112.514 19.6 112.78 19.3707 113.068 19.2165C113.36 19.0583 113.666 18.9791 113.987 18.9791C114.673 18.9791 115.292 19.2794 115.844 19.88C116.038 20.0991 116.213 20.3446 116.367 20.6165C116.521 20.8884 116.651 21.1786 116.757 21.487C116.866 21.7913 116.949 22.1119 117.006 22.4487C117.063 22.7814 117.091 23.1203 117.091 23.4652C117.091 23.5707 117.087 23.6762 117.079 23.7817C117.075 23.8872 117.069 23.9867 117.061 24.08C117.012 24.5548 116.905 24.9991 116.738 25.413C116.576 25.831 116.365 26.2145 116.105 26.5635C115.85 26.9165 115.551 27.2351 115.211 27.5191C114.87 27.8072 114.498 28.0588 114.097 28.2739C113.699 28.493 113.277 28.6757 112.831 28.8217C112.384 28.9678 111.926 29.0774 111.455 29.1504L111.004 27.2817ZM120.672 20.4035C120.826 20.8417 120.96 21.2699 121.073 21.6878C121.122 21.8704 121.171 22.0612 121.219 22.26C121.268 22.4548 121.311 22.6516 121.347 22.8504C121.388 23.0452 121.42 23.238 121.445 23.4287C121.469 23.6154 121.481 23.7899 121.481 23.9522C121.481 24.3336 121.428 24.7049 121.323 25.0661C121.221 25.4313 121.075 25.7843 120.885 26.1252C120.698 26.4661 120.475 26.7928 120.215 27.1052C119.955 27.4217 119.667 27.718 119.351 27.9939C119.034 28.2699 118.695 28.5255 118.334 28.7609C117.973 29.0003 117.6 29.2154 117.214 29.4061L116.106 27.8661C116.399 27.72 116.695 27.5536 116.995 27.367C117.291 27.1843 117.575 26.9875 117.847 26.7765C118.123 26.5655 118.379 26.3443 118.614 26.113C118.854 25.8817 119.061 25.6464 119.235 25.407C119.414 25.1675 119.554 24.9241 119.655 24.6765C119.756 24.433 119.807 24.1936 119.807 23.9583C119.807 23.7878 119.783 23.6032 119.734 23.4043C119.69 23.2055 119.627 22.9925 119.545 22.7652C119.468 22.5339 119.375 22.2904 119.265 22.0348C119.156 21.7751 119.038 21.4991 118.912 21.207L120.672 20.4035ZM129.996 28.8339C129.618 28.8339 129.229 28.8116 128.827 28.767C128.429 28.7264 128.044 28.6472 127.67 28.5296C127.301 28.4119 126.956 28.2455 126.636 28.0304C126.315 27.8194 126.045 27.5435 125.826 27.2026C125.619 26.8739 125.459 26.5128 125.345 26.1191C125.231 25.7255 125.175 25.2852 125.175 24.7983C125.175 24.4412 125.189 24.1023 125.217 23.7817C125.25 23.4571 125.298 23.1365 125.363 22.82C125.428 22.5035 125.511 22.1829 125.613 21.8583C125.718 21.5336 125.844 21.1887 125.99 20.8235L127.555 21.4748C127.437 21.767 127.336 22.0307 127.25 22.2661C127.169 22.5014 127.1 22.7165 127.043 22.9113C126.987 23.102 126.942 23.2786 126.909 23.4409C126.877 23.6032 126.853 23.7594 126.836 23.9096C126.82 24.0557 126.81 24.2017 126.806 24.3478C126.802 24.4899 126.8 24.64 126.8 24.7983C126.8 25.1026 126.849 25.3664 126.946 25.5896C127.043 25.8128 127.175 26.0014 127.342 26.1557C127.508 26.3099 127.699 26.4357 127.914 26.533C128.133 26.6345 128.36 26.7116 128.596 26.7643C128.831 26.8171 129.068 26.8536 129.308 26.8739C129.551 26.8942 129.78 26.9043 129.996 26.9043C130.101 26.9043 130.257 26.8962 130.464 26.88C130.671 26.8678 130.896 26.8435 131.14 26.807C131.387 26.7745 131.639 26.7299 131.895 26.673C132.154 26.6162 132.39 26.5452 132.601 26.46C132.812 26.3788 132.984 26.2814 133.118 26.1678C133.252 26.0583 133.319 25.9284 133.319 25.7783C133.319 25.762 133.285 25.7336 133.216 25.693C133.151 25.6525 133.059 25.6038 132.942 25.547C132.828 25.4942 132.694 25.4333 132.54 25.3643C132.39 25.2994 132.227 25.2325 132.053 25.1635H132.059C131.864 25.1026 131.659 25.0499 131.444 25.0052C131.233 24.9646 131.024 24.9281 130.817 24.8957C130.785 24.8916 130.742 24.8855 130.689 24.8774C130.641 24.8693 130.59 24.8591 130.537 24.847C130.485 24.8388 130.432 24.8287 130.379 24.8165C130.33 24.8084 130.29 24.8003 130.257 24.7922L130.507 22.9417H135.389C135.518 22.9417 135.642 22.9661 135.76 23.0148C135.878 23.0635 135.979 23.1325 136.064 23.2217C136.154 23.307 136.225 23.4084 136.277 23.5261C136.33 23.6438 136.356 23.7696 136.356 23.9035C136.356 24.0374 136.33 24.1632 136.277 24.2809C136.225 24.3986 136.154 24.5 136.064 24.5852C135.979 24.6745 135.878 24.7435 135.76 24.7922C135.642 24.8409 135.518 24.8652 135.389 24.8652H134.713C134.798 25.0275 134.859 25.1899 134.896 25.3522C134.936 25.5186 134.958 25.6606 134.962 25.7783C134.942 26.1597 134.845 26.4986 134.67 26.7948C134.5 27.0951 134.279 27.3588 134.007 27.5861C133.735 27.8133 133.427 28.0061 133.082 28.1643C132.737 28.3226 132.384 28.4504 132.022 28.5478C131.661 28.6493 131.304 28.7223 130.951 28.767C130.602 28.8116 130.284 28.8339 129.996 28.8339ZM134.48 23.9035C134.48 23.7696 134.506 23.6438 134.559 23.5261C134.608 23.4084 134.675 23.307 134.76 23.2217C134.845 23.1325 134.947 23.0635 135.064 23.0148C135.182 22.9661 135.308 22.9417 135.442 22.9417H136.069H136.343C136.493 22.9417 136.649 22.9357 136.811 22.9235C136.978 22.9113 137.132 22.887 137.274 22.8504C137.42 22.8139 137.548 22.7632 137.657 22.6983C137.771 22.6333 137.852 22.5461 137.901 22.4365C137.933 22.3635 137.95 22.2539 137.95 22.1078C137.95 22.0104 137.921 21.8643 137.864 21.6696C137.808 21.4748 137.732 21.2597 137.639 21.0243C137.546 20.7849 137.44 20.5354 137.323 20.2757C137.205 20.0159 137.085 19.7704 136.964 19.5391L138.704 18.6748C138.818 18.9304 138.93 19.2023 139.039 19.4904C139.153 19.7786 139.254 20.0707 139.344 20.367C139.433 20.6632 139.504 20.9594 139.557 21.2557C139.613 21.5478 139.642 21.8278 139.642 22.0957C139.642 22.5055 139.569 22.8809 139.423 23.2217C139.252 23.6032 139.019 23.9197 138.723 24.1713C138.426 24.4188 138.071 24.6014 137.657 24.7191C137.414 24.7881 137.181 24.8287 136.957 24.8409C136.734 24.8571 136.525 24.8652 136.33 24.8652H135.497H135.442C135.308 24.8652 135.182 24.8409 135.064 24.7922C134.947 24.7435 134.845 24.6745 134.76 24.5852C134.675 24.5 134.608 24.3986 134.559 24.2809C134.506 24.1632 134.48 24.0374 134.48 23.9035ZM137.244 25.4191L138.595 26.7704L137.244 28.1217L135.892 26.7704L137.244 25.4191ZM143.738 24.8652C143.239 24.8652 142.811 24.8023 142.454 24.6765C142.097 24.5548 141.788 24.3661 141.529 24.1104C141.366 23.9481 141.24 23.7777 141.151 23.5991C141.066 23.4206 141.003 23.2461 140.963 23.0757C140.926 22.9012 140.904 22.7368 140.896 22.5826C140.892 22.4284 140.889 22.2965 140.889 22.187V22.0957C140.894 21.9455 140.898 21.7304 140.902 21.4504C140.91 21.1664 140.914 20.8336 140.914 20.4522C140.914 20.0707 140.912 19.6507 140.908 19.1922C140.904 18.7336 140.892 18.2771 140.871 17.8226C140.855 17.3641 140.829 16.9238 140.792 16.5017C140.76 16.0797 140.713 15.7125 140.652 15.4L142.472 14.8461C142.525 15.1139 142.567 15.4304 142.6 15.7957C142.632 16.1568 142.659 16.5362 142.679 16.9339C142.703 17.3316 142.72 17.7313 142.728 18.133C142.74 18.5348 142.748 18.9081 142.752 19.253C142.756 19.5574 142.744 19.8557 142.716 20.1478C142.691 20.4359 142.671 20.72 142.655 21C142.638 21.2759 142.638 21.5458 142.655 21.8096C142.675 22.0693 142.732 22.3229 142.825 22.5704C142.862 22.6638 142.906 22.7348 142.959 22.7835C143.016 22.8322 143.081 22.8687 143.154 22.893C143.227 22.9133 143.306 22.9255 143.391 22.9296C143.48 22.9336 143.578 22.9357 143.683 22.9357H143.738C143.868 22.9357 143.992 22.962 144.109 23.0148C144.227 23.0675 144.329 23.1386 144.414 23.2278C144.503 23.313 144.574 23.4145 144.627 23.5322C144.68 23.6499 144.706 23.7736 144.706 23.9035C144.706 24.0374 144.68 24.1632 144.627 24.2809C144.574 24.3986 144.503 24.5 144.414 24.5852C144.329 24.6745 144.227 24.7435 144.109 24.7922C143.992 24.8409 143.868 24.8652 143.738 24.8652ZM142.761 23.9096C142.761 23.7797 142.787 23.6559 142.84 23.5383C142.889 23.4206 142.958 23.3191 143.047 23.2339C143.132 23.1446 143.233 23.0736 143.351 23.0209C143.469 22.9681 143.595 22.9417 143.729 22.9417H144.842C145.289 22.9417 145.77 22.8991 146.285 22.8139C146.8 22.7246 147.316 22.609 147.831 22.467C148.351 22.3249 148.852 22.1667 149.335 21.9922C149.822 21.8136 150.258 21.633 150.643 21.4504C150.392 21.3896 150.112 21.3043 149.803 21.1948C149.495 21.0852 149.182 20.9777 148.866 20.8722C148.549 20.7667 148.241 20.6774 147.941 20.6043C147.644 20.5272 147.379 20.4907 147.143 20.4948C146.993 20.4988 146.847 20.5313 146.705 20.5922C146.567 20.649 146.437 20.722 146.315 20.8113C146.198 20.8965 146.09 20.9899 145.993 21.0913C145.9 21.1887 145.818 21.282 145.749 21.3713C145.68 21.4565 145.626 21.5296 145.585 21.5904C145.549 21.6472 145.53 21.6757 145.53 21.6757L144.088 20.8478C144.25 20.5475 144.445 20.2594 144.672 19.9835C144.899 19.7035 145.147 19.458 145.415 19.247C145.682 19.0319 145.962 18.8614 146.255 18.7357C146.551 18.6099 146.847 18.549 147.143 18.553C147.362 18.5571 147.58 18.5835 147.795 18.6322C148.014 18.6809 148.233 18.7438 148.452 18.8209C148.671 18.8939 148.892 18.9812 149.115 19.0826C149.339 19.18 149.564 19.2814 149.791 19.387C150.022 19.5006 150.278 19.6122 150.558 19.7217C150.842 19.8313 151.136 19.9287 151.441 20.0139C151.749 20.0991 152.062 20.1681 152.378 20.2209C152.699 20.2736 153.011 20.3 153.315 20.3L152.999 22.0957C152.906 22.1362 152.8 22.1849 152.682 22.2417C152.569 22.2945 152.467 22.3432 152.378 22.3878L152.22 22.467C152.313 22.5765 152.431 22.6638 152.573 22.7287C152.719 22.7936 152.867 22.8423 153.017 22.8748C153.171 22.9032 153.318 22.9214 153.455 22.9296C153.598 22.9377 153.709 22.9417 153.79 22.9417H153.875C154.009 22.9417 154.135 22.9681 154.253 23.0209C154.371 23.0736 154.472 23.1446 154.557 23.2339C154.646 23.3191 154.715 23.4206 154.764 23.5383C154.817 23.6559 154.843 23.7797 154.843 23.9096C154.843 24.0435 154.817 24.1693 154.764 24.287C154.715 24.4046 154.646 24.5061 154.557 24.5913C154.472 24.6765 154.371 24.7435 154.253 24.7922C154.135 24.8409 154.009 24.8652 153.875 24.8652H153.79C153.401 24.8652 153.033 24.8307 152.689 24.7617C152.348 24.6928 152.035 24.5933 151.751 24.4635C151.471 24.3296 151.222 24.1693 151.002 23.9826C150.783 23.7919 150.603 23.5768 150.461 23.3374C150.059 23.5322 149.641 23.7229 149.207 23.9096C148.773 24.0922 148.322 24.2545 147.855 24.3965C147.389 24.5386 146.904 24.6522 146.401 24.7374C145.902 24.8267 145.382 24.8713 144.842 24.8713L143.729 24.8652C143.595 24.8652 143.469 24.8409 143.351 24.7922C143.233 24.7435 143.132 24.6765 143.047 24.5913C142.958 24.5061 142.889 24.4046 142.84 24.287C142.787 24.1693 142.761 24.0435 142.761 23.9096ZM147.113 15.327L148.464 16.6783L147.113 18.0296L145.762 16.6783L147.113 15.327ZM152.882 23.9035C152.882 23.7696 152.907 23.6438 152.955 23.5261C153.004 23.4084 153.073 23.307 153.162 23.2217C153.248 23.1325 153.349 23.0635 153.467 23.0148C153.584 22.9661 153.71 22.9417 153.844 22.9417H154.307C154.599 22.9417 154.879 22.9296 155.147 22.9052C155.419 22.8809 155.658 22.8301 155.865 22.753C156.072 22.6719 156.238 22.5603 156.364 22.4183C156.494 22.2722 156.563 22.0794 156.571 21.84C156.575 21.7507 156.575 21.6777 156.571 21.6209C156.571 21.56 156.561 21.489 156.541 21.4078C156.52 21.3226 156.49 21.213 156.449 21.0791C156.413 20.9412 156.36 20.7484 156.291 20.5009L158.062 20.0017C158.139 20.1965 158.21 20.4542 158.275 20.7748C158.34 21.0954 158.389 21.4464 158.422 21.8278C158.43 21.9496 158.444 22.0754 158.464 22.2052C158.484 22.3351 158.517 22.4548 158.562 22.5643C158.61 22.6739 158.675 22.7652 158.756 22.8383C158.837 22.9072 158.943 22.9417 159.073 22.9417C159.207 22.9417 159.333 22.9661 159.45 23.0148C159.568 23.0635 159.669 23.1325 159.755 23.2217C159.844 23.307 159.913 23.4084 159.962 23.5261C160.014 23.6438 160.041 23.7696 160.041 23.9035C160.041 24.0374 160.014 24.1632 159.962 24.2809C159.913 24.3986 159.844 24.5 159.755 24.5852C159.665 24.6745 159.562 24.7435 159.444 24.7922C159.33 24.8409 159.209 24.8652 159.079 24.8652C158.689 24.8652 158.355 24.8043 158.075 24.6826C157.799 24.5649 157.561 24.4107 157.362 24.22C157.18 24.3417 156.969 24.4432 156.729 24.5243C156.494 24.6055 156.242 24.6704 155.975 24.7191C155.707 24.7719 155.431 24.8084 155.147 24.8287C154.863 24.853 154.583 24.8652 154.307 24.8652H153.844C153.71 24.8652 153.584 24.8409 153.467 24.7922C153.349 24.7435 153.248 24.6745 153.162 24.5852C153.073 24.5 153.004 24.3986 152.955 24.2809C152.907 24.1632 152.882 24.0374 152.882 23.9035ZM158.927 18.0357L157.758 19.2104L156.602 18.0539L155.457 19.1983L154.276 18.0235L155.445 16.8487L156.602 18.0052L157.746 16.8609L158.927 18.0357ZM158.173 23.9035C158.173 23.7696 158.2 23.6438 158.253 23.5261C158.301 23.4084 158.368 23.307 158.453 23.2217C158.539 23.1325 158.64 23.0635 158.758 23.0148C158.875 22.9661 159.001 22.9417 159.135 22.9417H159.762H160.036C160.186 22.9417 160.342 22.9357 160.505 22.9235C160.671 22.9113 160.825 22.887 160.967 22.8504C161.113 22.8139 161.241 22.7632 161.351 22.6983C161.464 22.6333 161.546 22.5461 161.594 22.4365C161.627 22.3635 161.643 22.2539 161.643 22.1078C161.643 22.0104 161.615 21.8643 161.558 21.6696C161.501 21.4748 161.426 21.2597 161.333 21.0243C161.239 20.7849 161.134 20.5354 161.016 20.2757C160.898 20.0159 160.779 19.7704 160.657 19.5391L162.398 18.6748C162.511 18.9304 162.623 19.2023 162.733 19.4904C162.846 19.7786 162.948 20.0707 163.037 20.367C163.126 20.6632 163.197 20.9594 163.25 21.2557C163.307 21.5478 163.335 21.8278 163.335 22.0957C163.335 22.5055 163.262 22.8809 163.116 23.2217C162.946 23.6032 162.712 23.9197 162.416 24.1713C162.12 24.4188 161.765 24.6014 161.351 24.7191C161.107 24.7881 160.874 24.8287 160.651 24.8409C160.428 24.8571 160.219 24.8652 160.024 24.8652H159.19H159.135C159.001 24.8652 158.875 24.8409 158.758 24.7922C158.64 24.7435 158.539 24.6745 158.453 24.5852C158.368 24.5 158.301 24.3986 158.253 24.2809C158.2 24.1632 158.173 24.0374 158.173 23.9035ZM161.186 15.2357L162.538 16.587L161.186 17.9383L159.835 16.587L161.186 15.2357ZM164.238 24.8835C164.258 24.5507 164.278 24.2058 164.299 23.8487C164.319 23.4916 164.335 23.1386 164.347 22.7896C164.363 22.4406 164.374 22.1017 164.378 21.773C164.382 21.4443 164.378 21.142 164.365 20.8661C164.341 20.2899 164.317 19.7846 164.292 19.3504C164.272 18.9122 164.25 18.5246 164.225 18.1878C164.205 17.851 164.183 17.5568 164.159 17.3052C164.138 17.0496 164.116 16.8162 164.092 16.6052C164.067 16.3942 164.041 16.1974 164.012 16.0148C163.984 15.8281 163.954 15.6354 163.921 15.4365L165.802 14.8157C165.891 15.3594 165.962 15.9072 166.015 16.4591C166.072 17.011 166.114 17.5406 166.143 18.0478C166.171 18.551 166.19 19.0197 166.198 19.4539C166.21 19.8881 166.216 20.2594 166.216 20.5678C166.216 20.8478 166.214 21.1501 166.21 21.4748C166.21 21.7994 166.206 22.1362 166.198 22.4852C166.194 22.8342 166.185 23.1872 166.173 23.5443C166.161 23.9014 166.143 24.2504 166.119 24.5913L164.238 24.8835ZM185.299 18.4435C185.324 18.4922 185.366 18.5814 185.427 18.7113C185.492 18.8371 185.565 18.9913 185.646 19.1739C185.727 19.3525 185.813 19.5533 185.902 19.7765C185.991 19.9997 186.072 20.2351 186.145 20.4826C186.218 20.7261 186.277 20.9757 186.322 21.2313C186.37 21.4829 186.395 21.7304 186.395 21.9739C186.391 22.3757 186.33 22.751 186.212 23.1C186.099 23.449 185.93 23.7533 185.707 24.013C185.484 24.2687 185.208 24.4716 184.879 24.6217C184.55 24.7719 184.171 24.847 183.741 24.847C183.368 24.847 183.061 24.7841 182.822 24.6583C182.586 24.5325 182.392 24.36 182.237 24.1409C182.152 24.2504 182.061 24.3499 181.964 24.4391C181.866 24.5243 181.75 24.5974 181.617 24.6583C181.487 24.7232 181.333 24.7719 181.154 24.8043C180.979 24.8368 180.77 24.853 180.527 24.853C180.357 24.853 180.2 24.8409 180.058 24.8165C179.916 24.7922 179.786 24.7617 179.669 24.7252C179.665 25.2 179.592 25.6322 179.45 26.0217C179.312 26.4113 179.121 26.7603 178.877 27.0687C178.638 27.3771 178.356 27.6449 178.031 27.8722C177.707 28.0994 177.358 28.2861 176.984 28.4322C176.611 28.5823 176.219 28.6939 175.81 28.767C175.404 28.84 175 28.8765 174.598 28.8765C173.977 28.8765 173.403 28.773 172.876 28.5661C172.348 28.3632 171.892 28.0751 171.506 27.7017C171.125 27.3325 170.826 26.8861 170.611 26.3626C170.396 25.8432 170.289 25.269 170.289 24.64C170.301 24.2748 170.35 23.9014 170.435 23.52C170.524 23.1386 170.636 22.7652 170.77 22.4C170.908 22.0348 171.06 21.6878 171.226 21.3591C171.397 21.0264 171.569 20.7281 171.744 20.4643L173.07 21.487C172.924 21.7264 172.782 21.98 172.644 22.2478C172.506 22.5116 172.385 22.7835 172.279 23.0635C172.174 23.3394 172.088 23.6154 172.024 23.8913C171.959 24.1672 171.926 24.433 171.926 24.6887C171.914 24.9971 171.975 25.2872 172.109 25.5591C172.247 25.831 172.435 26.0684 172.675 26.2713C172.918 26.4783 173.202 26.6406 173.527 26.7583C173.856 26.8759 174.205 26.9348 174.574 26.9348C174.992 26.9348 175.377 26.8962 175.73 26.8191C176.088 26.742 176.402 26.6345 176.674 26.4965C176.95 26.3626 177.181 26.1983 177.368 26.0035C177.555 25.8128 177.688 25.6017 177.77 25.3704L177.764 25.3765C177.865 25.0438 177.916 24.7009 177.916 24.3478C177.916 24.0759 177.877 23.8 177.8 23.52C177.723 23.24 177.624 22.958 177.502 22.6739C177.38 22.3858 177.244 22.0977 177.094 21.8096C176.948 21.5174 176.804 21.2252 176.662 20.933L178.33 19.9957C178.435 20.2351 178.541 20.4765 178.646 20.72C178.752 20.9635 178.857 21.1968 178.963 21.42C179.072 21.6391 179.184 21.8441 179.297 22.0348C179.411 22.2255 179.529 22.3899 179.65 22.5278C179.772 22.6617 179.898 22.7632 180.028 22.8322C180.162 22.9012 180.304 22.9255 180.454 22.9052C180.624 22.8809 180.762 22.822 180.868 22.7287C180.973 22.6313 181.053 22.5116 181.105 22.3696C181.162 22.2275 181.197 22.0693 181.209 21.8948C181.225 21.7162 181.229 21.5357 181.221 21.353C181.213 21.1704 181.199 20.9899 181.178 20.8113C181.162 20.6328 181.148 20.4684 181.136 20.3183L182.816 20.093C182.844 20.2188 182.868 20.371 182.889 20.5496C182.909 20.7241 182.931 20.9087 182.956 21.1035C182.984 21.2983 183.019 21.4951 183.059 21.6939C183.1 21.8928 183.155 22.0774 183.224 22.2478C183.293 22.4183 183.378 22.5664 183.479 22.6922C183.581 22.818 183.708 22.9072 183.863 22.96C183.988 22.96 184.106 22.9377 184.216 22.893C184.325 22.8443 184.421 22.7754 184.502 22.6861C184.583 22.5968 184.646 22.4872 184.69 22.3574C184.739 22.2235 184.764 22.0693 184.764 21.8948C184.764 21.7487 184.735 21.5803 184.678 21.3896C184.626 21.1948 184.553 20.9858 184.459 20.7626C184.366 20.5394 184.256 20.3061 184.131 20.0626C184.009 19.8151 183.879 19.5655 183.741 19.3139L185.299 18.4435ZM190.111 20.4035C190.265 20.8417 190.399 21.2699 190.513 21.6878C190.561 21.8704 190.61 22.0612 190.659 22.26C190.708 22.4548 190.75 22.6516 190.787 22.8504C190.827 23.0452 190.86 23.238 190.884 23.4287C190.908 23.6154 190.921 23.7899 190.921 23.9522C190.921 24.3336 190.868 24.7049 190.762 25.0661C190.661 25.4313 190.515 25.7843 190.324 26.1252C190.137 26.4661 189.914 26.7928 189.654 27.1052C189.395 27.4217 189.107 27.718 188.79 27.9939C188.474 28.2699 188.135 28.5255 187.774 28.7609C187.412 29.0003 187.039 29.2154 186.654 29.4061L185.546 27.8661C185.838 27.72 186.134 27.5536 186.434 27.367C186.731 27.1843 187.015 26.9875 187.287 26.7765C187.563 26.5655 187.818 26.3443 188.054 26.113C188.293 25.8817 188.5 25.6464 188.674 25.407C188.853 25.1675 188.993 24.9241 189.094 24.6765C189.196 24.433 189.247 24.1936 189.247 23.9583C189.247 23.7878 189.222 23.6032 189.174 23.4043C189.129 23.2055 189.066 22.9925 188.985 22.7652C188.908 22.5339 188.814 22.2904 188.705 22.0348C188.595 21.7751 188.478 21.4991 188.352 21.207L190.111 20.4035ZM191.989 22.0226C192.159 22.1322 192.358 22.2417 192.585 22.3513C192.817 22.4609 193.052 22.5623 193.291 22.6557C193.535 22.7449 193.77 22.818 193.998 22.8748C194.225 22.9316 194.422 22.96 194.588 22.96C194.649 22.96 194.728 22.958 194.825 22.9539C194.923 22.9458 195.024 22.9336 195.13 22.9174C195.239 22.8971 195.349 22.8728 195.458 22.8443C195.568 22.8119 195.667 22.7713 195.757 22.7226C195.85 22.6739 195.925 22.6171 195.982 22.5522C196.039 22.4832 196.069 22.402 196.073 22.3087C196.077 22.1504 196.029 21.9719 195.927 21.773C195.83 21.5742 195.696 21.3672 195.525 21.1522C195.359 20.933 195.164 20.7139 194.941 20.4948C194.722 20.2716 194.495 20.0586 194.259 19.8557C194.024 19.6487 193.789 19.458 193.553 19.2835C193.318 19.1049 193.101 18.9528 192.902 18.827L193.979 17.2261C194.373 17.502 194.762 17.8104 195.148 18.1513C195.538 18.4922 195.897 18.8554 196.225 19.2409C196.554 19.6223 196.838 20.018 197.078 20.4278C197.317 20.8377 197.489 21.2475 197.595 21.6574C197.627 21.7751 197.65 21.8948 197.662 22.0165C197.674 22.1342 197.68 22.2478 197.68 22.3574C197.68 22.7348 197.607 23.0817 197.461 23.3983C197.315 23.7107 197.11 23.9826 196.846 24.2139C196.587 24.4412 196.274 24.6177 195.909 24.7435C195.544 24.8693 195.142 24.9322 194.704 24.9322C194.671 24.9322 194.639 24.9301 194.606 24.9261C194.574 24.9261 194.541 24.9261 194.509 24.9261C194.229 24.9261 193.941 24.8957 193.645 24.8348C193.352 24.778 193.062 24.7009 192.774 24.6035C192.49 24.5061 192.212 24.3925 191.94 24.2626C191.672 24.1328 191.423 23.9968 191.191 23.8548L191.989 22.0226ZM199.138 24.8835C199.159 24.571 199.177 24.2443 199.193 23.9035C199.213 23.5626 199.23 23.2258 199.242 22.893C199.254 22.5603 199.264 22.2377 199.272 21.9252C199.28 21.6087 199.284 21.3206 199.284 21.0609C199.284 20.3832 199.274 19.8009 199.254 19.3139C199.234 18.827 199.209 18.411 199.181 18.0661C199.152 17.7171 199.12 17.427 199.083 17.1957C199.051 16.9603 199.021 16.7533 198.992 16.5748L198.913 16.1122L200.806 15.5096C200.822 15.5664 200.836 15.6191 200.849 15.6678C200.861 15.7165 200.871 15.7754 200.879 15.8443C200.891 15.9093 200.903 15.9904 200.916 16.0878C200.932 16.1852 200.948 16.313 200.964 16.4713C200.981 16.6296 200.999 16.8223 201.019 17.0496C201.043 17.2768 201.072 17.5548 201.104 17.8835C201.125 18.2 201.141 18.4841 201.153 18.7357C201.169 18.9872 201.181 19.2328 201.19 19.4722C201.198 19.7116 201.204 19.9591 201.208 20.2148C201.212 20.4664 201.214 20.7525 201.214 21.073C201.214 21.6006 201.206 22.1606 201.19 22.753C201.173 23.3414 201.143 23.9603 201.098 24.6096L199.138 24.8835ZM197.513 15.1383C197.513 15.1139 197.527 15.0693 197.556 15.0043C197.58 14.9354 197.61 14.8623 197.647 14.7852C197.679 14.7081 197.712 14.6371 197.744 14.5722C197.777 14.5032 197.799 14.4586 197.811 14.4383C197.957 14.2151 198.128 14.0325 198.323 13.8904C198.521 13.7484 198.718 13.6551 198.913 13.6104C198.954 13.6023 199.004 13.5983 199.065 13.5983C199.126 13.5942 199.175 13.5922 199.211 13.5922C199.406 13.5922 199.583 13.6165 199.741 13.6652C199.899 13.7099 200.041 13.7606 200.167 13.8174L200.356 13.9087C200.425 13.9412 200.494 13.9716 200.563 14C200.632 14.0243 200.705 14.0386 200.782 14.0426C200.847 14.0467 200.914 14.0304 200.983 13.9939C201.052 13.9574 201.119 13.9087 201.183 13.8478C201.252 13.7829 201.317 13.7119 201.378 13.6348C201.443 13.5577 201.504 13.4806 201.561 13.4035L202.51 14.0183C202.506 14.0304 202.484 14.069 202.443 14.1339C202.403 14.1948 202.344 14.2699 202.267 14.3591C202.194 14.4484 202.105 14.5438 201.999 14.6452C201.898 14.7426 201.782 14.8339 201.652 14.9191C201.522 15.0003 201.38 15.0672 201.226 15.12C201.076 15.1728 200.916 15.1971 200.745 15.193C200.619 15.2012 200.492 15.1768 200.362 15.12C200.232 15.0591 200.098 14.9962 199.96 14.9313C199.826 14.8623 199.688 14.8055 199.546 14.7609C199.404 14.7122 199.256 14.7041 199.102 14.7365C199.008 14.7568 198.931 14.7933 198.87 14.8461C198.814 14.8948 198.765 14.9536 198.724 15.0226C198.684 15.0875 198.649 15.1586 198.621 15.2357C198.592 15.3128 198.562 15.3878 198.53 15.4609L197.513 15.1383ZM210.814 24.8652C210.725 24.8652 210.599 24.8591 210.437 24.847C210.275 24.8348 210.1 24.7901 209.914 24.713C209.824 25.2162 209.656 25.693 209.408 26.1435C209.165 26.598 208.863 27.022 208.501 27.4157C208.14 27.8133 207.728 28.1786 207.266 28.5113C206.803 28.8441 206.31 29.1423 205.787 29.4061L204.673 27.8661C204.961 27.72 205.251 27.5597 205.543 27.3852C205.835 27.2148 206.113 27.0322 206.377 26.8374C206.645 26.6467 206.892 26.4458 207.12 26.2348C207.351 26.0278 207.552 25.8128 207.722 25.5896C207.893 25.3664 208.027 25.1371 208.124 24.9017C208.221 24.6704 208.27 24.4351 208.27 24.1957C208.27 24.1835 208.268 24.1652 208.264 24.1409C208.264 24.1165 208.264 24.0922 208.264 24.0678C208.264 24.0435 208.262 24.0252 208.258 24.013C208.258 24.0009 208.258 24.0029 208.258 24.0191V24.0252C208.23 23.7899 208.189 23.5646 208.136 23.3496C208.083 23.1345 208.017 22.9154 207.935 22.6922C207.858 22.469 207.767 22.2357 207.661 21.9922C207.556 21.7446 207.438 21.4748 207.308 21.1826L209.068 20.4157C209.23 20.9026 209.382 21.3084 209.524 21.633C209.666 21.9577 209.804 22.2174 209.938 22.4122C210.076 22.607 210.214 22.7449 210.352 22.8261C210.49 22.9032 210.636 22.9417 210.79 22.9417H210.821C210.954 22.9417 211.08 22.9681 211.198 23.0209C211.316 23.0736 211.417 23.1446 211.502 23.2339C211.592 23.3191 211.661 23.4206 211.709 23.5383C211.762 23.6559 211.788 23.7797 211.788 23.9096C211.788 24.0435 211.762 24.1693 211.709 24.287C211.661 24.4046 211.592 24.5061 211.502 24.5913C211.417 24.6765 211.316 24.7435 211.198 24.7922C211.08 24.8409 210.952 24.8652 210.814 24.8652ZM221.682 26.953L220.513 28.1278L219.357 26.9713L218.212 28.1157L217.031 26.9409L218.2 25.7661L219.357 26.9226L220.501 25.7783L221.682 26.953ZM209.757 23.9035C209.757 23.7696 209.782 23.6438 209.83 23.5261C209.879 23.4084 209.948 23.307 210.037 23.2217C210.123 23.1325 210.224 23.0635 210.342 23.0148C210.459 22.9661 210.585 22.9417 210.719 22.9417H211.182C211.474 22.9417 211.754 22.9296 212.022 22.9052C212.294 22.8809 212.533 22.8301 212.74 22.753C212.947 22.6719 213.113 22.5603 213.239 22.4183C213.369 22.2722 213.438 22.0794 213.446 21.84C213.45 21.7507 213.45 21.6777 213.446 21.6209C213.446 21.56 213.436 21.489 213.416 21.4078C213.395 21.3226 213.365 21.213 213.324 21.0791C213.288 20.9412 213.235 20.7484 213.166 20.5009L214.937 20.0017C215.014 20.1965 215.085 20.4542 215.15 20.7748C215.215 21.0954 215.264 21.4464 215.297 21.8278C215.305 21.9496 215.319 22.0754 215.339 22.2052C215.359 22.3351 215.392 22.4548 215.437 22.5643C215.485 22.6739 215.55 22.7652 215.631 22.8383C215.712 22.9072 215.818 22.9417 215.948 22.9417C216.082 22.9417 216.208 22.9661 216.325 23.0148C216.443 23.0635 216.544 23.1325 216.63 23.2217C216.719 23.307 216.788 23.4084 216.837 23.5261C216.889 23.6438 216.916 23.7696 216.916 23.9035C216.916 24.0374 216.889 24.1632 216.837 24.2809C216.788 24.3986 216.719 24.5 216.63 24.5852C216.54 24.6745 216.437 24.7435 216.319 24.7922C216.205 24.8409 216.084 24.8652 215.954 24.8652C215.564 24.8652 215.23 24.8043 214.95 24.6826C214.674 24.5649 214.436 24.4107 214.237 24.22C214.055 24.3417 213.844 24.4432 213.604 24.5243C213.369 24.6055 213.117 24.6704 212.85 24.7191C212.582 24.7719 212.306 24.8084 212.022 24.8287C211.738 24.853 211.458 24.8652 211.182 24.8652H210.719C210.585 24.8652 210.459 24.8409 210.342 24.7922C210.224 24.7435 210.123 24.6745 210.037 24.5852C209.948 24.5 209.879 24.3986 209.83 24.2809C209.782 24.1632 209.757 24.0374 209.757 23.9035ZM215.583 27.4765L214.414 28.6513L213.257 27.4948L212.113 28.6391L210.932 27.4643L212.101 26.2896L213.257 27.4461L214.402 26.3017L215.583 27.4765ZM215.357 23.9035C215.357 23.7696 215.382 23.6438 215.43 23.5261C215.479 23.4084 215.546 23.307 215.631 23.2217C215.721 23.1325 215.824 23.0635 215.942 23.0148C216.059 22.9661 216.185 22.9417 216.319 22.9417H216.782C217.074 22.9417 217.354 22.9296 217.622 22.9052C217.894 22.8809 218.133 22.8301 218.34 22.753C218.547 22.6719 218.713 22.5603 218.839 22.4183C218.969 22.2722 219.038 22.0794 219.046 21.84C219.05 21.7507 219.05 21.6777 219.046 21.6209C219.046 21.56 219.036 21.489 219.016 21.4078C218.995 21.3226 218.965 21.213 218.924 21.0791C218.888 20.9412 218.835 20.7484 218.766 20.5009L220.537 20.0017C220.614 20.1965 220.685 20.4542 220.75 20.7748C220.815 21.0954 220.864 21.4464 220.897 21.8278C220.905 21.9496 220.919 22.0754 220.939 22.2052C220.959 22.3351 220.992 22.4548 221.037 22.5643C221.085 22.6739 221.15 22.7652 221.231 22.8383C221.312 22.9072 221.418 22.9417 221.548 22.9417C221.682 22.9417 221.808 22.9661 221.925 23.0148C222.043 23.0635 222.144 23.1325 222.23 23.2217C222.319 23.307 222.388 23.4084 222.437 23.5261C222.489 23.6438 222.516 23.7696 222.516 23.9035C222.516 24.0374 222.489 24.1632 222.437 24.2809C222.388 24.3986 222.319 24.5 222.23 24.5852C222.14 24.6745 222.037 24.7435 221.919 24.7922C221.805 24.8409 221.684 24.8652 221.554 24.8652C221.164 24.8652 220.83 24.8043 220.55 24.6826C220.274 24.5649 220.036 24.4107 219.837 24.22C219.655 24.3417 219.444 24.4432 219.204 24.5243C218.969 24.6055 218.717 24.6704 218.45 24.7191C218.182 24.7719 217.906 24.8084 217.622 24.8287C217.338 24.853 217.058 24.8652 216.782 24.8652H216.319C216.185 24.8652 216.059 24.8409 215.942 24.7922C215.824 24.7435 215.721 24.6745 215.631 24.5852C215.546 24.5 215.479 24.3986 215.43 24.2809C215.382 24.1632 215.357 24.0374 215.357 23.9035ZM228.742 22.9417C228.872 22.9417 228.995 22.9681 229.113 23.0209C229.231 23.0736 229.332 23.1446 229.417 23.2339C229.507 23.3191 229.578 23.4206 229.631 23.5383C229.683 23.6559 229.71 23.7817 229.71 23.9157C229.71 24.0496 229.683 24.1754 229.631 24.293C229.578 24.4067 229.507 24.5061 229.417 24.5913C229.332 24.6806 229.231 24.7496 229.113 24.7983C228.995 24.847 228.872 24.8713 228.742 24.8713C228.421 24.8713 228.109 24.8612 227.804 24.8409C227.5 24.8206 227.206 24.782 226.922 24.7252C226.642 24.6684 226.376 24.5893 226.124 24.4878C225.873 24.3823 225.64 24.2464 225.424 24.08C225.185 24.2261 224.915 24.3499 224.615 24.4513C224.315 24.5528 224.002 24.6339 223.677 24.6948C223.353 24.7597 223.026 24.8043 222.697 24.8287C222.369 24.8571 222.06 24.8713 221.772 24.8713C221.642 24.8713 221.519 24.847 221.401 24.7983C221.283 24.7496 221.18 24.6806 221.091 24.5913C221.001 24.5061 220.932 24.4067 220.884 24.293C220.831 24.1754 220.804 24.0496 220.804 23.9157C220.804 23.7817 220.831 23.6559 220.884 23.5383C220.932 23.4206 221.001 23.3191 221.091 23.2339C221.18 23.1446 221.283 23.0736 221.401 23.0209C221.519 22.9681 221.642 22.9417 221.772 22.9417C221.914 22.9417 222.062 22.9377 222.217 22.9296C222.375 22.9214 222.533 22.9113 222.691 22.8991C222.85 22.8829 223.006 22.8626 223.16 22.8383C223.314 22.8139 223.46 22.7855 223.598 22.753C223.554 22.7125 223.513 22.6739 223.477 22.6374C223.44 22.5968 223.402 22.5562 223.361 22.5157H223.367C223.148 22.2965 222.923 22.0713 222.691 21.84C222.464 21.6087 222.211 21.3652 221.931 21.1096L222.028 19.6852C222.267 19.4742 222.515 19.2957 222.771 19.1496C223.026 18.9994 223.278 18.8757 223.525 18.7783C223.777 18.6809 224.016 18.6058 224.244 18.553C224.475 18.5003 224.682 18.4638 224.864 18.4435C224.954 18.4354 225.049 18.4293 225.151 18.4252C225.252 18.4171 225.351 18.413 225.449 18.413C225.765 18.413 226.09 18.4455 226.423 18.5104C226.76 18.5754 227.064 18.6646 227.336 18.7783C227.571 18.8878 227.768 19.0116 227.926 19.1496C228.084 19.2875 228.21 19.4255 228.304 19.5635C228.397 19.7014 228.464 19.8354 228.504 19.9652C228.549 20.0951 228.573 20.2046 228.577 20.2939C228.59 20.4765 228.565 20.6774 228.504 20.8965C228.444 21.1116 228.354 21.3328 228.237 21.56C228.123 21.7832 227.987 22.0043 227.829 22.2235C227.671 22.4386 227.5 22.6374 227.317 22.82C227.748 22.9012 228.222 22.9417 228.742 22.9417ZM225.449 20.3061C225.351 20.3061 225.228 20.3142 225.077 20.3304C224.927 20.3426 224.771 20.3609 224.609 20.3852C224.446 20.4096 224.288 20.438 224.134 20.4704C223.984 20.5029 223.856 20.5374 223.751 20.5739L225.424 22.0043C225.542 21.9191 225.676 21.8136 225.826 21.6878C225.98 21.562 226.131 21.4322 226.277 21.2983C226.423 21.1603 226.555 21.0243 226.672 20.8904C226.794 20.7565 226.883 20.6388 226.94 20.5374C226.847 20.4968 226.737 20.4623 226.611 20.4339C226.486 20.4014 226.354 20.3771 226.216 20.3609C226.082 20.3406 225.948 20.3264 225.814 20.3183C225.68 20.3101 225.558 20.3061 225.449 20.3061ZM225.357 14.98L226.709 16.3313L225.357 17.6826L224.006 16.3313L225.357 14.98ZM233.734 16.9217L232.566 18.0965L231.409 16.94L230.265 18.0843L229.084 16.9096L230.253 15.7348L231.409 16.8913L232.554 15.747L233.734 16.9217ZM227.641 23.9035C227.641 23.7696 227.668 23.6438 227.721 23.5261C227.769 23.4084 227.836 23.307 227.921 23.2217C228.007 23.1325 228.108 23.0635 228.226 23.0148C228.343 22.9661 228.469 22.9417 228.603 22.9417H229.279H229.571C229.754 22.9417 229.954 22.9336 230.174 22.9174C230.393 22.9012 230.604 22.8748 230.807 22.8383C231.01 22.8017 231.192 22.753 231.354 22.6922C231.521 22.6272 231.643 22.5461 231.72 22.4487C231.764 22.3797 231.787 22.2864 231.787 22.1687C231.787 21.9942 231.744 21.7872 231.659 21.5478C231.578 21.3084 231.48 21.0649 231.367 20.8174C231.253 20.5699 231.135 20.3325 231.014 20.1052C230.896 19.878 230.801 19.6893 230.727 19.5391L232.462 18.687C232.588 18.9061 232.71 19.1658 232.827 19.4661C232.945 19.7623 233.051 20.0687 233.144 20.3852C233.237 20.6977 233.312 21.0061 233.369 21.3104C233.426 21.6107 233.454 21.8725 233.454 22.0957C233.454 22.5055 233.381 22.8809 233.235 23.2217C233.065 23.6032 232.832 23.9197 232.535 24.1713C232.239 24.4188 231.884 24.6014 231.47 24.7191C231.348 24.7516 231.196 24.778 231.014 24.7983C230.831 24.8186 230.646 24.8328 230.46 24.8409C230.273 24.853 230.096 24.8591 229.93 24.8591C229.764 24.8632 229.634 24.8652 229.541 24.8652H228.658H228.603C228.469 24.8652 228.343 24.8409 228.226 24.7922C228.108 24.7435 228.007 24.6745 227.921 24.5852C227.836 24.5 227.769 24.3986 227.721 24.2809C227.668 24.1632 227.641 24.0374 227.641 23.9035ZM245.387 19.0826C245.509 19.0501 245.633 19.0278 245.758 19.0157C245.884 19.0035 246.008 18.9974 246.13 18.9974C246.402 18.9974 246.682 19.038 246.97 19.1191C247.262 19.1962 247.554 19.3119 247.846 19.4661L247.171 21.2496C246.976 21.1643 246.791 21.0994 246.617 21.0548C246.442 21.0061 246.278 20.9817 246.124 20.9817C246.018 20.9817 245.898 20.9939 245.765 21.0183C245.635 21.0304 245.495 21.069 245.345 21.1339C245.194 21.1948 245.044 21.2739 244.894 21.3713C244.748 21.4687 244.606 21.5823 244.468 21.7122C244.33 21.838 244.206 21.9719 244.097 22.1139C243.991 22.2559 243.904 22.4041 243.835 22.5583C243.766 22.7084 243.727 22.8545 243.719 22.9965C243.711 23.1101 243.744 23.2035 243.817 23.2765C243.89 23.3455 243.987 23.4064 244.109 23.4591C244.231 23.5078 244.369 23.5525 244.523 23.593C244.677 23.6296 244.833 23.6722 244.992 23.7209L245.168 23.7635C245.428 23.8243 245.685 23.8933 245.941 23.9704C246.201 24.0475 246.434 24.1571 246.641 24.2991C246.848 24.4371 247.014 24.6197 247.14 24.847C247.27 25.0742 247.335 25.3684 247.335 25.7296C247.335 25.8026 247.331 25.8777 247.323 25.9548C247.319 26.0359 247.309 26.1191 247.292 26.2043C247.252 26.4235 247.179 26.6365 247.073 26.8435C246.968 27.0545 246.834 27.2533 246.672 27.44C246.513 27.6307 246.329 27.8072 246.118 27.9696C245.911 28.1359 245.683 28.2841 245.436 28.4139C244.969 28.6452 244.436 28.8238 243.835 28.9496C243.234 29.0794 242.589 29.1443 241.899 29.1443C241.072 29.1443 240.341 29.0226 239.708 28.7791C239.075 28.5397 238.549 28.1887 238.132 27.7261C237.815 27.3487 237.582 26.9348 237.432 26.4843C237.285 26.0339 237.212 25.5632 237.212 25.0722C237.212 24.9667 237.216 24.8612 237.225 24.7557C237.233 24.6501 237.241 24.5507 237.249 24.4574C237.265 24.1652 237.298 23.8791 237.346 23.5991C237.395 23.3151 237.45 23.0493 237.511 22.8017C237.576 22.5501 237.645 22.3188 237.718 22.1078C237.791 21.8928 237.858 21.7061 237.918 21.5478C237.979 21.3855 238.03 21.2577 238.071 21.1643C238.115 21.067 238.142 21.0081 238.15 20.9878L239.678 21.627C239.576 21.8664 239.479 22.1017 239.385 22.333C239.296 22.5603 239.215 22.7957 239.142 23.0391C239.073 23.2786 239.014 23.5322 238.965 23.8C238.921 24.0678 238.892 24.36 238.88 24.6765C238.876 24.7212 238.872 24.7699 238.868 24.8226C238.864 24.8754 238.862 24.922 238.862 24.9626C238.862 25.2183 238.901 25.4699 238.978 25.7174C239.059 25.9649 239.191 26.1881 239.373 26.387C239.483 26.5128 239.625 26.6223 239.799 26.7157C239.978 26.813 240.179 26.8942 240.402 26.9591C240.625 27.0281 240.865 27.0788 241.12 27.1113C241.376 27.1478 241.636 27.1661 241.899 27.1661C242.415 27.1661 242.896 27.1296 243.342 27.0565C243.792 26.9875 244.188 26.8942 244.529 26.7765C244.87 26.6629 245.144 26.529 245.351 26.3748C245.562 26.2246 245.683 26.0704 245.716 25.9122C245.708 25.9122 245.683 25.9081 245.643 25.9C245.602 25.8919 245.549 25.8797 245.485 25.8635C245.424 25.8513 245.353 25.8351 245.272 25.8148C245.194 25.7986 245.113 25.7803 245.028 25.76L244.699 25.687C244.338 25.5977 243.997 25.4942 243.677 25.3765C243.36 25.2629 243.082 25.1107 242.843 24.92C242.607 24.7333 242.419 24.498 242.277 24.2139C242.139 23.9258 242.07 23.5626 242.07 23.1243C242.09 22.6577 242.187 22.2032 242.362 21.7609C242.536 21.3186 242.772 20.9148 243.068 20.5496C243.364 20.1843 243.709 19.8739 244.103 19.6183C244.501 19.3586 244.931 19.18 245.393 19.0826H245.387ZM248.593 24.8835C248.613 24.5507 248.634 24.2058 248.654 23.8487C248.674 23.4916 248.691 23.1386 248.703 22.7896C248.719 22.4406 248.729 22.1017 248.733 21.773C248.737 21.4443 248.733 21.142 248.721 20.8661C248.697 20.2899 248.672 19.7846 248.648 19.3504C248.628 18.9122 248.605 18.5246 248.581 18.1878C248.561 17.851 248.538 17.5568 248.514 17.3052C248.494 17.0496 248.471 16.8162 248.447 16.6052C248.423 16.3942 248.396 16.1974 248.368 16.0148C248.34 15.8281 248.309 15.6354 248.277 15.4365L250.157 14.8157C250.247 15.3594 250.318 15.9072 250.371 16.4591C250.427 17.011 250.47 17.5406 250.498 18.0478C250.527 18.551 250.545 19.0197 250.553 19.4539C250.565 19.8881 250.571 20.2594 250.571 20.5678C250.571 20.8478 250.569 21.1501 250.565 21.4748C250.565 21.7994 250.561 22.1362 250.553 22.4852C250.549 22.8342 250.541 23.1872 250.529 23.5443C250.517 23.9014 250.498 24.2504 250.474 24.5913L248.593 24.8835ZM256.109 24.8652C256.02 24.8652 255.894 24.8591 255.732 24.847C255.57 24.8348 255.395 24.7901 255.209 24.713C255.119 25.2162 254.951 25.693 254.703 26.1435C254.46 26.598 254.158 27.022 253.796 27.4157C253.435 27.8133 253.023 28.1786 252.561 28.5113C252.098 28.8441 251.605 29.1423 251.082 29.4061L249.968 27.8661C250.256 27.72 250.546 27.5597 250.838 27.3852C251.13 27.2148 251.408 27.0322 251.672 26.8374C251.94 26.6467 252.187 26.4458 252.415 26.2348C252.646 26.0278 252.847 25.8128 253.017 25.5896C253.188 25.3664 253.322 25.1371 253.419 24.9017C253.516 24.6704 253.565 24.4351 253.565 24.1957C253.565 24.1835 253.563 24.1652 253.559 24.1409C253.559 24.1165 253.559 24.0922 253.559 24.0678C253.559 24.0435 253.557 24.0252 253.553 24.013C253.553 24.0009 253.553 24.0029 253.553 24.0191V24.0252C253.524 23.7899 253.484 23.5646 253.431 23.3496C253.378 23.1345 253.311 22.9154 253.23 22.6922C253.153 22.469 253.062 22.2357 252.956 21.9922C252.851 21.7446 252.733 21.4748 252.603 21.1826L254.362 20.4157C254.525 20.9026 254.677 21.3084 254.819 21.633C254.961 21.9577 255.099 22.2174 255.233 22.4122C255.371 22.607 255.509 22.7449 255.647 22.8261C255.785 22.9032 255.931 22.9417 256.085 22.9417H256.115C256.249 22.9417 256.375 22.9681 256.493 23.0209C256.611 23.0736 256.712 23.1446 256.797 23.2339C256.887 23.3191 256.955 23.4206 257.004 23.5383C257.057 23.6559 257.083 23.7797 257.083 23.9096C257.083 24.0435 257.057 24.1693 257.004 24.287C256.955 24.4046 256.887 24.5061 256.797 24.5913C256.712 24.6765 256.611 24.7435 256.493 24.7922C256.375 24.8409 256.247 24.8652 256.109 24.8652ZM255.052 23.9035C255.052 23.7696 255.079 23.6438 255.131 23.5261C255.18 23.4084 255.247 23.307 255.332 23.2217C255.418 23.1325 255.519 23.0635 255.637 23.0148C255.754 22.9661 255.88 22.9417 256.014 22.9417H256.641H256.915C257.065 22.9417 257.221 22.9357 257.384 22.9235C257.55 22.9113 257.704 22.887 257.846 22.8504C257.992 22.8139 258.12 22.7632 258.23 22.6983C258.343 22.6333 258.424 22.5461 258.473 22.4365C258.506 22.3635 258.522 22.2539 258.522 22.1078C258.522 22.0104 258.493 21.8643 258.437 21.6696C258.38 21.4748 258.305 21.2597 258.211 21.0243C258.118 20.7849 258.013 20.5354 257.895 20.2757C257.777 20.0159 257.658 19.7704 257.536 19.5391L259.277 18.6748C259.39 18.9304 259.502 19.2023 259.611 19.4904C259.725 19.7786 259.826 20.0707 259.916 20.367C260.005 20.6632 260.076 20.9594 260.129 21.2557C260.186 21.5478 260.214 21.8278 260.214 22.0957C260.214 22.5055 260.141 22.8809 259.995 23.2217C259.824 23.6032 259.591 23.9197 259.295 24.1713C258.999 24.4188 258.644 24.6014 258.23 24.7191C257.986 24.7881 257.753 24.8287 257.53 24.8409C257.306 24.8571 257.098 24.8652 256.903 24.8652H256.069H256.014C255.88 24.8652 255.754 24.8409 255.637 24.7922C255.519 24.7435 255.418 24.6745 255.332 24.5852C255.247 24.5 255.18 24.3986 255.131 24.2809C255.079 24.1632 255.052 24.0374 255.052 23.9035ZM257.816 25.4191L259.167 26.7704L257.816 28.1217L256.464 26.7704L257.816 25.4191Z" fill="#9C4040"/>
</g>
<defs>
<filter id="filter0_b_1442_19043" x="-4" y="-4" width="286" height="50" filterUnits="userSpaceOnUse" color-interpolation-filters="sRGB">
<feFlood flood-opacity="0" result="BackgroundImageFix"/>
<feGaussianBlur in="BackgroundImageFix" stdDeviation="2"/>
<feComposite in2="SourceAlpha" operator="in" result="effect1_backgroundBlur_1442_19043"/>
<feBlend mode="normal" in="SourceGraphic" in2="effect1_backgroundBlur_1442_19043" result="shape"/>
</filter>
</defs>
</svg>
