<svg width="20" height="20" viewBox="0 0 20 20" fill="none" xmlns="http://www.w3.org/2000/svg">
<path d="M16.7094 1.6875H3.29062C2.4 1.6875 1.6875 2.4 1.6875 3.29062V16.7687C1.6875 17.6 2.4 18.3125 3.29062 18.3125H16.7687C17.6594 18.3125 18.3719 17.6 18.3719 16.7094V3.29062C18.3125 2.4 17.6 1.6875 16.7094 1.6875ZM3.29062 2.875H16.7687C16.9469 2.875 17.125 3.05312 17.125 3.29062V6.79375L15.8781 5.54688C15.2844 4.95312 14.275 4.95312 13.6219 5.54688L10.5938 8.575L9.34687 7.32812C8.75312 6.73438 7.74375 6.73438 7.09063 7.32812L2.875 11.5438V3.29062C2.875 3.05312 3.05312 2.875 3.29062 2.875ZM16.7094 17.125H3.29062C3.05312 17.125 2.875 16.9469 2.875 16.7094V13.2062L7.92188 8.15937C8.1 7.98125 8.3375 7.98125 8.45625 8.15937L13.6813 13.3844C13.8 13.5031 13.9781 13.5625 14.0969 13.5625C14.2156 13.5625 14.3938 13.5031 14.5125 13.3844C14.75 13.1469 14.75 12.7906 14.5125 12.5531L11.425 9.40625L14.4531 6.37812C14.6313 6.2 14.8687 6.2 14.9875 6.37812L16.9469 8.3375C17.0063 8.39687 17.0062 8.39688 17.0656 8.39688V16.7094C17.125 16.9469 16.9469 17.125 16.7094 17.125Z" fill="#303030"/>
<path d="M5.78516 5.84375H5.84453C6.20078 5.84375 6.43828 5.60625 6.43828 5.25C6.43828 4.89375 6.14141 4.65625 5.84453 4.65625H5.78516C5.42891 4.65625 5.19141 4.89375 5.19141 5.25C5.19141 5.60625 5.42891 5.84375 5.78516 5.84375Z" fill="#303030"/>
</svg>
