<svg width="136" height="76" viewBox="0 0 136 76" fill="none" xmlns="http://www.w3.org/2000/svg">
<rect x="1.70764" y="0.75" width="133.326" height="74.5" rx="9.25" fill="white" stroke="url(#paint0_linear_1325_8592)" stroke-width="1.5"/>
<path d="M12.2208 52.7727V24.3637H20.1419C20.442 24.3637 20.7298 24.2439 20.942 24.0308C21.1542 23.8177 21.2734 23.5287 21.2734 23.2273V15.2727H42.7734C43.0736 15.2727 43.3614 15.3925 43.5736 15.6056C43.7858 15.8187 43.905 16.1077 43.905 16.4091V31.1818H46.1682V16.4091C46.1682 15.505 45.8105 14.6378 45.1739 13.9985C44.5372 13.3592 43.6738 13 42.7734 13H20.1419C19.9929 12.9992 19.8453 13.0278 19.7074 13.0844C19.5696 13.1409 19.4442 13.2242 19.3384 13.3296L10.2858 22.4205C10.1809 22.5267 10.098 22.6526 10.0417 22.791C9.98534 22.9295 9.9568 23.0777 9.95766 23.2273V52.7727C9.95766 53.6769 10.3153 54.544 10.952 55.1833C11.5886 55.8226 12.4521 56.1818 13.3524 56.1818H29.1266V53.9091H13.3524C13.0523 53.9091 12.7645 53.7894 12.5522 53.5763C12.34 53.3632 12.2208 53.0741 12.2208 52.7727ZM13.8163 22.0909L19.0103 16.875V22.0909H13.8163ZM16.7471 27.7727H29.1945V30.0455H16.7471V27.7727ZM23.5366 22.0909H29.1945V24.3637H23.5366V22.0909ZM16.7471 33.4546H29.1945V35.7273H16.7471V33.4546ZM16.7471 39.1364H29.1945V41.4091H16.7471V39.1364ZM16.7471 44.8182H29.1945V47.0909H16.7471V44.8182ZM49.5629 33.4546H35.984C35.0836 33.4546 34.2202 33.8137 33.5835 34.4531C32.9469 35.0924 32.5892 35.9595 32.5892 36.8636V59.5909C32.5892 60.4951 32.9469 61.3622 33.5835 62.0015C34.2202 62.6408 35.0836 63 35.984 63H49.5629C50.4632 63 51.3267 62.6408 51.9633 62.0015C52.6 61.3622 52.9576 60.4951 52.9576 59.5909V36.8636C52.9576 35.9595 52.6 35.0924 51.9633 34.4531C51.3267 33.8137 50.4632 33.4546 49.5629 33.4546ZM50.6945 59.5909C50.6945 59.8923 50.5753 60.1813 50.3631 60.3944C50.1508 60.6076 49.863 60.7273 49.5629 60.7273H35.984C35.6839 60.7273 35.396 60.6076 35.1838 60.3944C34.9716 60.1813 34.8524 59.8923 34.8524 59.5909V36.8636C34.8524 36.5623 34.9716 36.2732 35.1838 36.0601C35.396 35.847 35.6839 35.7273 35.984 35.7273H49.5629C49.863 35.7273 50.1508 35.847 50.3631 36.0601C50.5753 36.2732 50.6945 36.5623 50.6945 36.8636V59.5909ZM47.2997 38H38.2471C37.947 38 37.6592 38.1197 37.447 38.3328C37.2348 38.546 37.1155 38.835 37.1155 39.1364V43.6818C37.1155 43.9832 37.2348 44.2722 37.447 44.4854C37.6592 44.6985 37.947 44.8182 38.2471 44.8182H47.2997C47.5999 44.8182 47.8877 44.6985 48.0999 44.4854C48.3121 44.2722 48.4313 43.9832 48.4313 43.6818V39.1364C48.4313 38.835 48.3121 38.546 48.0999 38.3328C47.8877 38.1197 47.5999 38 47.2997 38ZM46.1682 42.5455H39.3787V40.2727H46.1682V42.5455ZM37.1155 47.0909H41.6419V49.3636H37.1155V47.0909ZM43.905 47.0909H48.4313V49.3636H43.905V47.0909ZM37.1155 51.6364H41.6419V53.9091H37.1155V51.6364ZM43.905 51.6364H48.4313V53.9091H43.905V51.6364ZM37.1155 56.1818H41.6419V58.4545H37.1155V56.1818ZM43.905 56.1818H48.4313V58.4545H43.905V56.1818ZM34.8524 22.0909V23.2273H38.2471C38.5472 23.2273 38.8351 23.347 39.0473 23.5601C39.2595 23.7732 39.3787 24.0623 39.3787 24.3637V27.7727C39.3787 28.0741 39.2595 28.3632 39.0473 28.5763C38.8351 28.7894 38.5472 28.9091 38.2471 28.9091H37.1155V30.0455H34.8524V28.9091H32.5892V26.6364H37.1155V25.5H33.7208C33.4207 25.5 33.1329 25.3803 32.9207 25.1672C32.7084 24.9541 32.5892 24.665 32.5892 24.3637V20.9546C32.5892 20.6532 32.7084 20.3641 32.9207 20.151C33.1329 19.9379 33.4207 19.8182 33.7208 19.8182H34.8524V18.6818H37.1155V19.8182H39.3787V22.0909H34.8524Z" fill="#303030"/>
<path d="M77.3578 27.513C76.7816 27.513 76.2865 27.4359 75.8726 27.2817C75.4587 27.1235 75.13 26.9023 74.8865 26.6183C74.7445 26.4357 74.641 26.2388 74.5761 26.0278C74.5152 25.8128 74.4848 25.6078 74.4848 25.413C74.4848 25.2426 74.499 25.0884 74.5274 24.9504C74.5558 24.8125 74.5903 24.6948 74.6309 24.5974C74.7932 24.2565 74.992 23.9583 75.2274 23.7026C75.4668 23.447 75.7143 23.2258 75.97 23.0391C76.2297 22.8484 76.4853 22.6901 76.7369 22.5643C76.9926 22.4386 77.2198 22.3351 77.4187 22.2539C77.4106 22.1606 77.4025 22.0652 77.3943 21.9678C77.3903 21.8704 77.3842 21.7771 77.3761 21.6878L77.3456 21.3043L79.2448 20.8965C79.2488 20.933 79.2569 21.0183 79.2691 21.1522C79.2853 21.2861 79.3016 21.4464 79.3178 21.633C79.3381 21.8157 79.3584 22.0125 79.3787 22.2235C79.403 22.4304 79.4233 22.6252 79.4396 22.8078C79.4598 22.9904 79.4761 23.1487 79.4882 23.2826C79.5045 23.4165 79.5146 23.4977 79.5187 23.5261C79.5796 24.0252 79.6303 24.4351 79.6709 24.7557C79.7155 25.0762 79.752 25.3319 79.7804 25.5226C79.8129 25.7093 79.8393 25.8452 79.8596 25.9304C79.8798 26.0116 79.8961 26.0664 79.9082 26.0948C79.9691 26.2246 80.0604 26.3159 80.1822 26.3687C80.308 26.4174 80.4743 26.4417 80.6813 26.4417C80.8111 26.4417 80.9349 26.4661 81.0526 26.5148C81.1703 26.5635 81.2717 26.6325 81.3569 26.7217C81.4462 26.807 81.5172 26.9084 81.57 27.0261C81.6227 27.1438 81.6491 27.2696 81.6491 27.4035C81.6491 27.5374 81.6227 27.6632 81.57 27.7809C81.5172 27.8986 81.4462 28 81.3569 28.0852C81.2717 28.1704 81.1703 28.2374 81.0526 28.2861C80.9349 28.3388 80.8111 28.3652 80.6813 28.3652C80.5961 28.3652 80.5007 28.3612 80.3952 28.353C80.2897 28.349 80.1781 28.3368 80.0604 28.3165C79.9468 28.3003 79.8271 28.2739 79.7013 28.2374C79.5796 28.2049 79.4578 28.1603 79.3361 28.1035C79.1656 28.0223 79.0155 27.931 78.8856 27.8296C78.7598 27.7241 78.6381 27.5922 78.5204 27.4339C78.3135 27.4623 78.1126 27.4826 77.9178 27.4948C77.7271 27.507 77.5404 27.513 77.3578 27.513ZM77.3213 25.6017C77.4065 25.6017 77.4938 25.5997 77.583 25.5957C77.6764 25.5875 77.7656 25.5794 77.8509 25.5713C77.8306 25.4333 77.8082 25.2791 77.7839 25.1087C77.7636 24.9383 77.7433 24.7557 77.723 24.5609L77.6622 24.0009C77.508 24.078 77.3355 24.1713 77.1448 24.2809C76.954 24.3864 76.7735 24.5 76.603 24.6217C76.4367 24.7394 76.2967 24.8612 76.183 24.987C76.0694 25.1087 76.0126 25.2223 76.0126 25.3278C76.0126 25.3806 76.0572 25.4252 76.1465 25.4617C76.2398 25.4942 76.3535 25.5226 76.4874 25.547C76.6213 25.5672 76.7633 25.5814 76.9135 25.5896C77.0636 25.5977 77.1996 25.6017 77.3213 25.6017ZM79.7156 27.4035C79.7156 27.2696 79.74 27.1438 79.7887 27.0261C79.8374 26.9084 79.9064 26.807 79.9956 26.7217C80.0808 26.6365 80.1823 26.5696 80.3 26.5209C80.4177 26.4681 80.5435 26.4417 80.6774 26.4417H80.7808C81.3449 26.4417 81.771 26.3525 82.0591 26.1739C82.3472 25.9913 82.4913 25.7154 82.4913 25.3461C82.4913 25.273 82.4913 25.2081 82.4913 25.1513C82.4953 25.0945 82.4893 25.0214 82.473 24.9322C82.4608 24.8388 82.4345 24.7191 82.3939 24.573C82.3574 24.4229 82.3006 24.218 82.2235 23.9583L83.9582 23.5383C84.0435 23.7817 84.1185 24.0557 84.1835 24.36C84.2484 24.6603 84.2808 24.989 84.2808 25.3461C84.2808 25.4638 84.291 25.5875 84.3113 25.7174C84.3356 25.8432 84.3722 25.9609 84.4208 26.0704C84.4736 26.1759 84.5426 26.2652 84.6278 26.3383C84.7171 26.4072 84.8287 26.4417 84.9626 26.4417C85.0924 26.4417 85.2162 26.4681 85.3339 26.5209C85.4516 26.5696 85.553 26.6365 85.6382 26.7217C85.7275 26.807 85.7985 26.9084 85.8513 27.0261C85.904 27.1438 85.9304 27.2696 85.9304 27.4035C85.9304 27.5374 85.904 27.6632 85.8513 27.7809C85.8026 27.8986 85.7336 28 85.6443 28.0852C85.555 28.1745 85.4516 28.2435 85.3339 28.2922C85.2203 28.3409 85.0985 28.3652 84.9687 28.3652C84.5791 28.3652 84.2464 28.3084 83.9704 28.1948C83.6945 28.0852 83.4571 27.9371 83.2582 27.7504C82.9661 27.9614 82.6171 28.1157 82.2113 28.213C81.8095 28.3145 81.3327 28.3652 80.7808 28.3652H80.6774C80.5435 28.3652 80.4177 28.3409 80.3 28.2922C80.1823 28.2435 80.0808 28.1745 79.9956 28.0852C79.9064 28 79.8374 27.8986 79.7887 27.7809C79.74 27.6632 79.7156 27.5374 79.7156 27.4035ZM83.0148 28.8278L84.3661 30.1791L83.0148 31.5304L81.6635 30.1791L83.0148 28.8278ZM84.1272 27.4096C84.1272 27.2838 84.1515 27.1641 84.2002 27.0504C84.2489 26.9368 84.3138 26.8374 84.395 26.7522C84.4761 26.6629 84.5735 26.5919 84.6872 26.5391C84.7967 26.4823 84.9144 26.4499 85.0402 26.4417C85.3445 26.4417 85.6002 26.3606 85.8072 26.1983C86.0182 26.0319 86.1987 25.8148 86.3489 25.547C86.499 25.2791 86.6269 24.9748 86.7324 24.6339C86.8379 24.289 86.9373 23.938 87.0306 23.5809L88.6498 23.873C88.6173 24.0151 88.5767 24.1814 88.528 24.3722C88.4834 24.5588 88.4408 24.7536 88.4002 24.9565C88.3637 25.1594 88.3332 25.3583 88.3089 25.553C88.2845 25.7438 88.2785 25.9122 88.2906 26.0583C88.3069 26.2043 88.3454 26.32 88.4063 26.4052C88.4672 26.4864 88.5605 26.5168 88.6863 26.4965C88.8486 26.4843 88.9947 26.4275 89.1245 26.3261C89.2585 26.2246 89.3782 26.0948 89.4837 25.9365C89.5892 25.7783 89.6825 25.5997 89.7637 25.4009C89.8448 25.202 89.9138 24.9971 89.9706 24.7861C90.0315 24.5751 90.0802 24.3661 90.1167 24.1591C90.1573 23.9522 90.1898 23.7635 90.2141 23.593L91.7602 23.8548C91.7561 23.9765 91.7419 24.1267 91.7176 24.3052C91.6932 24.4838 91.6709 24.6725 91.6506 24.8713C91.6303 25.0661 91.6202 25.2629 91.6202 25.4617C91.6202 25.6565 91.6425 25.833 91.6872 25.9913C91.7318 26.1455 91.8048 26.2713 91.9063 26.3687C92.0118 26.4661 92.1579 26.5148 92.3445 26.5148C92.4582 26.5148 92.5738 26.4965 92.6915 26.46C92.8092 26.4194 92.9147 26.3646 93.008 26.2957C93.1014 26.2226 93.1764 26.1374 93.2332 26.04C93.2941 25.9426 93.3245 25.833 93.3245 25.7113C93.3245 25.5003 93.29 25.269 93.2211 25.0174C93.1521 24.7617 93.0689 24.5101 92.9715 24.2626C92.8741 24.011 92.7706 23.7736 92.6611 23.5504C92.5556 23.3272 92.4663 23.1386 92.3932 22.9843L93.9028 22.1383C93.9272 22.191 93.9698 22.2843 94.0306 22.4183C94.0915 22.5481 94.1605 22.7064 94.2376 22.893C94.3147 23.0797 94.3938 23.2907 94.475 23.5261C94.5602 23.7574 94.6373 23.9988 94.7063 24.2504C94.7753 24.502 94.8321 24.7597 94.8767 25.0235C94.9214 25.2872 94.9437 25.5429 94.9437 25.7904C94.9437 26.1962 94.8869 26.5614 94.7732 26.8861C94.6637 27.2107 94.4953 27.4867 94.268 27.7139C94.0448 27.9412 93.7628 28.1177 93.4219 28.2435C93.0851 28.3693 92.6895 28.4342 92.235 28.4383C92.0158 28.4383 91.817 28.4159 91.6385 28.3713C91.4599 28.3307 91.2996 28.2719 91.1576 28.1948C91.0156 28.1217 90.8877 28.0345 90.7741 27.933C90.6645 27.8316 90.5672 27.7241 90.4819 27.6104C90.3845 27.7362 90.279 27.8499 90.1654 27.9513C90.0558 28.0487 89.928 28.1319 89.7819 28.2009C89.6399 28.2739 89.4796 28.3307 89.3011 28.3713C89.1225 28.4119 88.9196 28.4342 88.6924 28.4383C88.4935 28.4423 88.3129 28.4241 88.1506 28.3835C87.9924 28.347 87.8463 28.2922 87.7124 28.2191C87.5785 28.1461 87.4567 28.0588 87.3472 27.9574C87.2416 27.8519 87.1422 27.7362 87.0489 27.6104C86.9637 27.7159 86.8663 27.8154 86.7567 27.9087C86.6472 27.998 86.5173 28.0771 86.3672 28.1461C86.217 28.2151 86.0425 28.2699 85.8437 28.3104C85.6448 28.351 85.4135 28.3713 85.1498 28.3713H85.0402C84.9144 28.3632 84.7967 28.3328 84.6872 28.28C84.5735 28.2272 84.4761 28.1583 84.395 28.073C84.3138 27.9878 84.2489 27.8884 84.2002 27.7748C84.1515 27.6612 84.1272 27.5394 84.1272 27.4096ZM98.8023 28.3652C98.3031 28.3652 97.875 28.3023 97.5179 28.1765C97.1608 28.0548 96.8524 27.8661 96.5927 27.6104C96.4304 27.4481 96.3046 27.2777 96.2153 27.0991C96.1301 26.9206 96.0672 26.7461 96.0266 26.5757C95.9901 26.4012 95.9678 26.2368 95.9596 26.0826C95.9556 25.9284 95.9536 25.7965 95.9536 25.687V25.5957C95.9576 25.4455 95.9617 25.2304 95.9657 24.9504C95.9739 24.6664 95.9779 24.3336 95.9779 23.9522C95.9779 23.5707 95.9759 23.1507 95.9718 22.6922C95.9678 22.2336 95.9556 21.7771 95.9353 21.3226C95.9191 20.8641 95.8927 20.4238 95.8562 20.0017C95.8237 19.5797 95.777 19.2125 95.7162 18.9L97.5362 18.3461C97.5889 18.6139 97.6315 18.9304 97.664 19.2957C97.6965 19.6568 97.7228 20.0362 97.7431 20.4339C97.7675 20.8316 97.7837 21.2313 97.7918 21.633C97.804 22.0348 97.8121 22.4081 97.8162 22.753C97.8202 23.0574 97.8081 23.3557 97.7796 23.6478C97.7553 23.9359 97.735 24.22 97.7188 24.5C97.7025 24.7759 97.7025 25.0458 97.7188 25.3096C97.7391 25.5693 97.7959 25.8229 97.8892 26.0704C97.9257 26.1638 97.9704 26.2348 98.0231 26.2835C98.0799 26.3322 98.1449 26.3687 98.2179 26.393C98.291 26.4133 98.3701 26.4255 98.4553 26.4296C98.5446 26.4336 98.642 26.4357 98.7475 26.4357H98.8023C98.9321 26.4357 99.0559 26.462 99.1736 26.5148C99.2912 26.5675 99.3927 26.6386 99.4779 26.7278C99.5672 26.813 99.6382 26.9145 99.691 27.0322C99.7437 27.1499 99.7701 27.2736 99.7701 27.4035C99.7701 27.5374 99.7437 27.6632 99.691 27.7809C99.6382 27.8986 99.5672 28 99.4779 28.0852C99.3927 28.1745 99.2912 28.2435 99.1736 28.2922C99.0559 28.3409 98.9321 28.3652 98.8023 28.3652ZM97.8248 27.4096C97.8248 27.2797 97.8512 27.1559 97.9039 27.0383C97.9526 26.9206 98.0216 26.8191 98.1109 26.7339C98.1961 26.6446 98.2975 26.5736 98.4152 26.5209C98.5329 26.4681 98.6587 26.4417 98.7926 26.4417H99.9065C100.353 26.4417 100.834 26.3991 101.349 26.3139C101.864 26.2246 102.38 26.109 102.895 25.967C103.415 25.8249 103.916 25.6667 104.399 25.4922C104.886 25.3136 105.322 25.133 105.707 24.9504C105.456 24.8896 105.176 24.8043 104.867 24.6948C104.559 24.5852 104.247 24.4777 103.93 24.3722C103.613 24.2667 103.305 24.1774 103.005 24.1043C102.709 24.0272 102.443 23.9907 102.207 23.9948C102.057 23.9988 101.911 24.0313 101.769 24.0922C101.631 24.149 101.501 24.222 101.38 24.3113C101.262 24.3965 101.154 24.4899 101.057 24.5913C100.964 24.6887 100.882 24.782 100.813 24.8713C100.744 24.9565 100.69 25.0296 100.649 25.0904C100.613 25.1472 100.594 25.1757 100.594 25.1757L99.1517 24.3478C99.3141 24.0475 99.5088 23.7594 99.7361 23.4835C99.9633 23.2035 100.211 22.958 100.479 22.747C100.747 22.5319 101.027 22.3614 101.319 22.2357C101.615 22.1099 101.911 22.049 102.207 22.053C102.427 22.0571 102.644 22.0835 102.859 22.1322C103.078 22.1809 103.297 22.2438 103.516 22.3209C103.735 22.3939 103.956 22.4812 104.18 22.5826C104.403 22.68 104.628 22.7814 104.855 22.887C105.087 23.0006 105.342 23.1122 105.622 23.2217C105.906 23.3313 106.2 23.4287 106.505 23.5139C106.813 23.5991 107.126 23.6681 107.442 23.7209C107.763 23.7736 108.075 23.8 108.38 23.8L108.063 25.5957C107.97 25.6362 107.864 25.6849 107.747 25.7417C107.633 25.7945 107.531 25.8432 107.442 25.8878L107.284 25.967C107.377 26.0765 107.495 26.1638 107.637 26.2287C107.783 26.2936 107.931 26.3423 108.081 26.3748C108.236 26.4032 108.382 26.4214 108.52 26.4296C108.662 26.4377 108.773 26.4417 108.854 26.4417H108.94C109.073 26.4417 109.199 26.4681 109.317 26.5209C109.435 26.5736 109.536 26.6446 109.621 26.7339C109.711 26.8191 109.78 26.9206 109.828 27.0383C109.881 27.1559 109.907 27.2797 109.907 27.4096C109.907 27.5435 109.881 27.6693 109.828 27.787C109.78 27.9046 109.711 28.0061 109.621 28.0913C109.536 28.1765 109.435 28.2435 109.317 28.2922C109.199 28.3409 109.073 28.3652 108.94 28.3652H108.854C108.465 28.3652 108.098 28.3307 107.753 28.2617C107.412 28.1928 107.099 28.0933 106.815 27.9635C106.535 27.8296 106.286 27.6693 106.067 27.4826C105.847 27.2919 105.667 27.0768 105.525 26.8374C105.123 27.0322 104.705 27.2229 104.271 27.4096C103.837 27.5922 103.386 27.7545 102.92 27.8965C102.453 28.0386 101.968 28.1522 101.465 28.2374C100.966 28.3267 100.446 28.3713 99.9065 28.3713L98.7926 28.3652C98.6587 28.3652 98.5329 28.3409 98.4152 28.2922C98.2975 28.2435 98.1961 28.1765 98.1109 28.0913C98.0216 28.0061 97.9526 27.9046 97.9039 27.787C97.8512 27.6693 97.8248 27.5435 97.8248 27.4096ZM107.981 27.4035C107.981 27.2696 108.006 27.1458 108.055 27.0322C108.103 26.9186 108.17 26.8191 108.255 26.7339C108.341 26.6487 108.442 26.5817 108.56 26.533C108.673 26.4803 108.797 26.4499 108.931 26.4417C109.203 26.4417 109.438 26.389 109.637 26.2835C109.84 26.178 110.019 26.04 110.173 25.8696C110.327 25.6991 110.465 25.5084 110.587 25.2974C110.708 25.0864 110.824 24.8754 110.934 24.6643V24.6704C111.039 24.4513 111.151 24.2342 111.268 24.0191C111.39 23.8041 111.522 23.6052 111.664 23.4226C111.883 23.167 112.129 22.9701 112.401 22.8322C112.672 22.6901 112.963 22.6191 113.271 22.6191C113.636 22.6191 113.967 22.6942 114.263 22.8443C114.564 22.9945 114.835 23.2096 115.079 23.4896C115.261 23.7087 115.41 23.9603 115.523 24.2443C115.637 24.5243 115.712 24.8226 115.748 25.1391V25.127C115.773 25.2852 115.785 25.4658 115.785 25.6687C115.785 25.8878 115.765 26.1029 115.724 26.3139C115.688 26.5209 115.635 26.7177 115.566 26.9043C115.432 27.2452 115.239 27.5313 114.988 27.7626C114.74 27.9899 114.47 28.1461 114.178 28.2313C114.081 28.2597 113.983 28.278 113.886 28.2861C113.792 28.2983 113.693 28.3043 113.588 28.3043C113.405 28.3043 113.21 28.282 113.003 28.2374C112.8 28.1928 112.599 28.1319 112.401 28.0548C112.319 28.0183 112.228 27.9757 112.127 27.927C112.025 27.8742 111.918 27.8174 111.804 27.7565C111.695 27.6957 111.585 27.6328 111.475 27.5678C111.366 27.5029 111.264 27.44 111.171 27.3791C111.009 27.5293 110.846 27.6652 110.684 27.787C110.522 27.9087 110.351 28.0122 110.173 28.0974C109.994 28.1826 109.804 28.2475 109.601 28.2922C109.398 28.3409 109.177 28.3652 108.937 28.3652C108.803 28.3652 108.679 28.3388 108.566 28.2861C108.448 28.2374 108.347 28.1704 108.261 28.0852C108.172 28 108.103 27.8986 108.055 27.7809C108.006 27.6632 107.981 27.5374 107.981 27.4035ZM112.297 25.8026C112.423 25.8838 112.571 25.9629 112.741 26.04C112.916 26.1171 113.088 26.1861 113.259 26.247C113.429 26.3078 113.586 26.3586 113.728 26.3991C113.874 26.4357 113.983 26.4539 114.056 26.4539C114.072 26.4539 114.089 26.4539 114.105 26.4539C114.125 26.4499 114.146 26.4458 114.166 26.4417C114.215 26.4296 114.261 26.3687 114.306 26.2591C114.355 26.1455 114.373 25.9913 114.361 25.7965C114.361 25.6667 114.324 25.5246 114.251 25.3704C114.178 25.2122 114.083 25.0661 113.965 24.9322C113.847 24.7942 113.711 24.6806 113.557 24.5913C113.407 24.498 113.253 24.4513 113.095 24.4513C113.038 24.4513 112.965 24.5325 112.875 24.6948C112.786 24.8571 112.656 25.0986 112.486 25.4191V25.413L112.297 25.8026ZM65.945 51.3652C65.9247 51.3652 65.8679 51.3612 65.7745 51.353C65.6853 51.349 65.5737 51.3368 65.4398 51.3165C65.3099 51.2962 65.1618 51.2638 64.9954 51.2191C64.8331 51.1745 64.6687 51.1136 64.5024 51.0365C64.06 50.8255 63.7171 50.5374 63.4737 50.1722C63.2302 49.8029 63.1085 49.3748 63.1085 48.8878C63.1085 48.0762 63.4676 47.2342 64.1858 46.3617C64.2427 46.2928 64.2893 46.2359 64.3258 46.1913C64.3664 46.1467 64.4029 46.1061 64.4354 46.0696C64.4679 46.033 64.4983 46.0006 64.5267 45.9722C64.5592 45.9397 64.5957 45.9032 64.6363 45.8626C64.5876 45.822 64.5389 45.7835 64.4902 45.747C64.4456 45.7104 64.407 45.6759 64.3745 45.6435L64.265 45.5461L65.4763 44.067C65.6832 44.2212 65.9308 44.4301 66.2189 44.6939C66.507 44.9536 66.8398 45.2864 67.2171 45.6922C68.2682 46.8893 68.7937 47.9545 68.7937 48.8878C68.7937 49.3667 68.678 49.7907 68.4467 50.16C68.2195 50.5293 67.9029 50.8194 67.4971 51.0304C67.3551 51.0994 67.209 51.1542 67.0589 51.1948C66.9128 51.2394 66.7708 51.2739 66.6328 51.2983C66.4948 51.3226 66.365 51.3388 66.2432 51.347C66.1256 51.3591 66.0261 51.3652 65.945 51.3652ZM67.1258 48.8878C67.1258 48.762 67.0853 48.62 67.0041 48.4617C66.9229 48.3035 66.8154 48.1391 66.6815 47.9687C66.5516 47.7942 66.4056 47.6197 66.2432 47.4452C66.0809 47.2667 65.9186 47.0962 65.7563 46.9339C65.6467 47.0557 65.5311 47.1936 65.4093 47.3478C65.2876 47.498 65.176 47.6583 65.0745 47.8287C64.9731 47.9991 64.8899 48.1757 64.825 48.3583C64.76 48.5368 64.7316 48.7133 64.7398 48.8878C64.7438 48.9852 64.7905 49.0704 64.8798 49.1435C64.969 49.2165 65.0745 49.2754 65.1963 49.32C65.3221 49.3646 65.454 49.3991 65.5919 49.4235C65.7299 49.4438 65.8476 49.4539 65.945 49.4539C66.0667 49.4539 66.1966 49.4458 66.3345 49.4296C66.4766 49.4093 66.6044 49.3768 66.718 49.3322C66.8357 49.2875 66.9331 49.2287 67.0102 49.1557C67.0873 49.0826 67.1258 48.9933 67.1258 48.8878ZM72.3655 46.9035C72.5197 47.3417 72.6536 47.7699 72.7673 48.1878C72.816 48.3704 72.8647 48.5612 72.9133 48.76C72.962 48.9548 73.0047 49.1516 73.0412 49.3504C73.0818 49.5452 73.1142 49.738 73.1386 49.9287C73.1629 50.1154 73.1751 50.2899 73.1751 50.4522C73.1751 50.8336 73.1223 51.2049 73.0168 51.5661C72.9154 51.9313 72.7693 52.2843 72.5786 52.6252C72.3919 52.9661 72.1687 53.2928 71.909 53.6052C71.6493 53.9217 71.3612 54.218 71.0447 54.4939C70.7281 54.7699 70.3893 55.0255 70.0281 55.2609C69.667 55.5003 69.2936 55.7154 68.9081 55.9061L67.8003 54.3661C68.0925 54.22 68.3887 54.0536 68.689 53.867C68.9852 53.6843 69.2693 53.4875 69.5412 53.2765C69.8171 53.0655 70.0728 52.8443 70.3081 52.613C70.5476 52.3817 70.7545 52.1464 70.929 51.907C71.1076 51.6675 71.2476 51.4241 71.349 51.1765C71.4504 50.933 71.5012 50.6936 71.5012 50.4583C71.5012 50.2878 71.4768 50.1032 71.4281 49.9043C71.3835 49.7055 71.3206 49.4925 71.2394 49.2652C71.1623 49.0339 71.069 48.7904 70.9594 48.5348C70.8499 48.2751 70.7322 47.9991 70.6064 47.707L72.3655 46.9035ZM77.0982 51.3652C76.599 51.3652 76.1709 51.3023 75.8138 51.1765C75.4567 51.0548 75.1483 50.8661 74.8886 50.6104C74.7263 50.4481 74.6005 50.2777 74.5112 50.0991C74.426 49.9206 74.3631 49.7461 74.3225 49.5757C74.286 49.4012 74.2637 49.2368 74.2555 49.0826C74.2515 48.9284 74.2495 48.7965 74.2495 48.687V48.5957C74.2535 48.4455 74.2576 48.2304 74.2616 47.9504C74.2697 47.6664 74.2738 47.3336 74.2738 46.9522C74.2738 46.5707 74.2718 46.1507 74.2677 45.6922C74.2637 45.2336 74.2515 44.7771 74.2312 44.3226C74.215 43.8641 74.1886 43.4238 74.1521 43.0017C74.1196 42.5797 74.0729 42.2125 74.0121 41.9L75.8321 41.3461C75.8848 41.6139 75.9274 41.9304 75.9599 42.2957C75.9924 42.6568 76.0187 43.0362 76.039 43.4339C76.0634 43.8316 76.0796 44.2313 76.0877 44.633C76.0999 45.0348 76.108 45.4081 76.1121 45.753C76.1161 46.0574 76.104 46.3557 76.0755 46.6478C76.0512 46.9359 76.0309 47.22 76.0147 47.5C75.9984 47.7759 75.9984 48.0458 76.0147 48.3096C76.035 48.5693 76.0918 48.8229 76.1851 49.0704C76.2216 49.1638 76.2663 49.2348 76.319 49.2835C76.3758 49.3322 76.4408 49.3687 76.5138 49.393C76.5869 49.4133 76.666 49.4255 76.7512 49.4296C76.8405 49.4336 76.9379 49.4357 77.0434 49.4357H77.0982C77.228 49.4357 77.3518 49.462 77.4695 49.5148C77.5871 49.5675 77.6886 49.6386 77.7738 49.7278C77.8631 49.813 77.9341 49.9145 77.9869 50.0322C78.0396 50.1499 78.066 50.2736 78.066 50.4035C78.066 50.5374 78.0396 50.6632 77.9869 50.7809C77.9341 50.8986 77.8631 51 77.7738 51.0852C77.6886 51.1745 77.5871 51.2435 77.4695 51.2922C77.3518 51.3409 77.228 51.3652 77.0982 51.3652ZM76.1085 50.4035C76.1085 50.2696 76.1349 50.1438 76.1876 50.0261C76.2363 49.9084 76.3053 49.807 76.3946 49.7217C76.4798 49.6325 76.5833 49.5635 76.705 49.5148C76.8227 49.4661 76.9485 49.4417 77.0824 49.4417H78.2511C78.9085 49.4417 79.5111 49.4032 80.0589 49.3261C80.6108 49.2449 81.1262 49.1374 81.605 49.0035C82.0839 48.8696 82.5363 48.7154 82.9624 48.5409C83.3926 48.3623 83.8146 48.1777 84.2285 47.987C83.9526 47.9099 83.6746 47.8145 83.3946 47.7009C83.1186 47.5872 82.8407 47.4777 82.5607 47.3722C82.2847 47.2667 82.0088 47.1774 81.7328 47.1043C81.4569 47.0272 81.183 46.9887 80.9111 46.9887C80.7244 46.9887 80.5418 47.0394 80.3633 47.1409C80.1847 47.2423 80.0224 47.358 79.8763 47.4878C79.7302 47.6177 79.6065 47.7455 79.505 47.8713C79.4076 47.993 79.3468 48.0762 79.3224 48.1209L77.9163 47.2139C78.0705 46.942 78.2531 46.6762 78.4642 46.4165C78.6752 46.1568 78.9065 45.9275 79.1581 45.7287C79.4137 45.5258 79.6876 45.3635 79.9798 45.2417C80.276 45.12 80.5865 45.0591 80.9111 45.0591C81.1505 45.0591 81.39 45.0855 81.6294 45.1383C81.8688 45.187 82.1062 45.2519 82.3415 45.333C82.581 45.4142 82.8163 45.5075 83.0476 45.613C83.2789 45.7145 83.5082 45.818 83.7355 45.9235C83.9546 46.0249 84.1717 46.1264 84.3868 46.2278C84.6059 46.3252 84.8311 46.4165 85.0624 46.5017C85.2937 46.5829 85.5331 46.6499 85.7807 46.7026C86.0282 46.7554 86.29 46.7838 86.5659 46.7878L86.4137 48.6565L85.5494 49.0704C85.1963 49.2409 84.8453 49.4174 84.4963 49.6C84.1473 49.7786 83.7902 49.953 83.425 50.1235C83.0639 50.2899 82.6905 50.4501 82.305 50.6043C81.9236 50.7545 81.5218 50.8864 81.0998 51C80.6778 51.1096 80.2314 51.1968 79.7607 51.2617C79.29 51.3307 78.7868 51.3652 78.2511 51.3652H77.1311H77.0824C76.9485 51.3652 76.8227 51.3388 76.705 51.2861C76.5833 51.2374 76.4798 51.1704 76.3946 51.0852C76.3053 51 76.2363 50.8986 76.1876 50.7809C76.1349 50.6632 76.1085 50.5374 76.1085 50.4035ZM81.7085 51.8522L83.0598 53.2035L81.7085 54.5548L80.3572 53.2035L81.7085 51.8522ZM87.2754 51.3835C87.2957 51.0507 87.316 50.7058 87.3362 50.3487C87.3565 49.9916 87.3728 49.6386 87.3849 49.2896C87.4012 48.9406 87.4113 48.6017 87.4154 48.273C87.4194 47.9443 87.4154 47.642 87.4032 47.3661C87.3789 46.7899 87.3545 46.2846 87.3302 45.8504C87.3099 45.4122 87.2876 45.0246 87.2632 44.6878C87.2429 44.351 87.2206 44.0568 87.1962 43.8052C87.176 43.5496 87.1536 43.3162 87.1293 43.1052C87.1049 42.8942 87.0786 42.6974 87.0502 42.5148C87.0218 42.3281 86.9913 42.1354 86.9589 41.9365L88.8397 41.3157C88.929 41.8594 89 42.4072 89.0528 42.9591C89.1096 43.511 89.1522 44.0406 89.1806 44.5478C89.209 45.051 89.2273 45.5197 89.2354 45.9539C89.2476 46.3881 89.2536 46.7594 89.2536 47.0678C89.2536 47.3478 89.2516 47.6501 89.2476 47.9748C89.2476 48.2994 89.2435 48.6362 89.2354 48.9852C89.2313 49.3342 89.2232 49.6872 89.211 50.0443C89.1989 50.4014 89.1806 50.7504 89.1562 51.0913L87.2754 51.3835ZM96.2787 47.4087C96.1934 47.3925 96.096 47.4229 95.9865 47.5C95.881 47.573 95.7795 47.6745 95.6821 47.8043C95.5888 47.9301 95.5097 48.0701 95.4447 48.2243C95.3839 48.3786 95.3534 48.5267 95.3534 48.6687C95.3534 48.8026 95.392 48.9142 95.4691 49.0035C95.5462 49.0928 95.6436 49.1658 95.7613 49.2226C95.883 49.2794 96.0149 49.322 96.1569 49.3504C96.303 49.3788 96.443 49.3991 96.5769 49.4113H96.5708C96.6763 49.4194 96.796 49.4255 96.93 49.4296C97.0679 49.4296 97.2018 49.4296 97.3317 49.4296C97.3723 49.4296 97.4027 49.4316 97.423 49.4357C97.4473 49.4357 97.4676 49.4357 97.4839 49.4357C97.5001 49.4357 97.5163 49.4357 97.5326 49.4357C97.5529 49.4357 97.5813 49.4336 97.6178 49.4296C97.5569 49.178 97.4839 48.9386 97.3987 48.7113C97.3175 48.48 97.2221 48.273 97.1126 48.0904C97.003 47.9078 96.8792 47.7577 96.7413 47.64C96.6033 47.5183 96.4491 47.4412 96.2787 47.4087ZM93.296 53.7817C93.8682 53.6681 94.3897 53.5241 94.8604 53.3496C95.3311 53.1791 95.743 52.9864 96.096 52.7713C96.4531 52.5603 96.7473 52.3351 96.9787 52.0957C97.214 51.8562 97.3804 51.6128 97.4778 51.3652C97.3033 51.3652 97.1187 51.3612 96.9239 51.353C96.7291 51.349 96.5688 51.3429 96.443 51.3348C95.9723 51.2942 95.5421 51.1887 95.1526 51.0183C94.763 50.8519 94.4526 50.6246 94.2213 50.3365C94.0508 50.1174 93.9291 49.88 93.856 49.6243C93.7871 49.3687 93.7526 49.0988 93.7526 48.8148C93.7526 48.5957 93.7729 48.3765 93.8134 48.1574C93.854 47.9342 93.9108 47.7191 93.9839 47.5122C94.0569 47.3012 94.1421 47.1023 94.2395 46.9157C94.341 46.729 94.4485 46.5586 94.5621 46.4043C94.8056 46.1 95.0714 45.8707 95.3595 45.7165C95.6517 45.5583 95.9581 45.4791 96.2787 45.4791C96.9645 45.4791 97.5833 45.7794 98.1352 46.38C98.33 46.5991 98.5045 46.8446 98.6587 47.1165C98.8129 47.3884 98.9427 47.6786 99.0482 47.987C99.1578 48.2913 99.241 48.6119 99.2978 48.9487C99.3546 49.2814 99.383 49.6203 99.383 49.9652C99.383 50.0707 99.3789 50.1762 99.3708 50.2817C99.3668 50.3872 99.3607 50.4867 99.3526 50.58C99.3039 51.0548 99.1963 51.4991 99.03 51.913C98.8676 52.331 98.6566 52.7145 98.3969 53.0635C98.1413 53.4165 97.843 53.7351 97.5021 54.0191C97.1613 54.3072 96.79 54.5588 96.3882 54.7739C95.9905 54.993 95.5685 55.1757 95.1221 55.3217C94.6758 55.4678 94.2172 55.5774 93.7465 55.6504L93.296 53.7817ZM113.264 51.3652C112.891 51.3652 112.528 51.3064 112.175 51.1887C112.162 51.5174 112.118 51.8522 112.041 52.193C111.964 52.5339 111.852 52.8606 111.706 53.173C111.564 53.4896 111.383 53.7817 111.164 54.0496C110.949 54.3174 110.695 54.5446 110.403 54.7313C109.989 54.9991 109.535 55.202 109.04 55.34C108.549 55.478 107.987 55.547 107.354 55.547C106.648 55.547 106.041 55.4617 105.534 55.2913C105.03 55.1249 104.592 54.8814 104.219 54.5609C103.992 54.358 103.793 54.1328 103.622 53.8852C103.456 53.6417 103.318 53.382 103.208 53.1061C103.099 52.8342 103.016 52.5481 102.959 52.2478C102.906 51.9516 102.88 51.6493 102.88 51.3409C102.88 50.9919 102.904 50.6612 102.953 50.3487C103.001 50.0322 103.077 49.7157 103.178 49.3991C103.279 49.0826 103.405 48.758 103.555 48.4252C103.71 48.0925 103.89 47.7333 104.097 47.3478L105.467 48.3339C105.349 48.5449 105.235 48.7823 105.126 49.0461C105.016 49.3058 104.919 49.5757 104.834 49.8557C104.752 50.1316 104.686 50.4075 104.633 50.6835C104.584 50.9594 104.56 51.2171 104.56 51.4565C104.56 51.773 104.637 52.0632 104.791 52.327C104.945 52.5907 105.148 52.8159 105.4 53.0026C105.655 53.1933 105.946 53.3414 106.27 53.447C106.595 53.5565 106.93 53.6133 107.275 53.6174C107.749 53.6255 108.184 53.587 108.577 53.5017C108.971 53.4206 109.31 53.2887 109.594 53.1061C109.878 52.9235 110.097 52.6881 110.251 52.4C110.409 52.1119 110.488 51.7649 110.488 51.3591C110.488 51.1238 110.454 50.8742 110.385 50.6104C110.316 50.3426 110.225 50.0667 110.111 49.7826C110.001 49.4945 109.872 49.2003 109.721 48.9C109.575 48.5957 109.423 48.2852 109.265 47.9687L110.927 46.9157L111.541 48.1026C111.708 48.4394 111.868 48.6991 112.022 48.8817C112.181 49.0603 112.333 49.1922 112.479 49.2774C112.625 49.3586 112.763 49.4072 112.893 49.4235C113.027 49.4357 113.15 49.4417 113.264 49.4417C113.398 49.4417 113.524 49.4661 113.641 49.5148C113.759 49.5635 113.861 49.6325 113.946 49.7217C114.035 49.807 114.104 49.9084 114.153 50.0261C114.206 50.1438 114.232 50.2696 114.232 50.4035C114.232 50.5374 114.206 50.6632 114.153 50.7809C114.104 50.8986 114.035 51 113.946 51.0852C113.861 51.1704 113.759 51.2374 113.641 51.2861C113.524 51.3388 113.398 51.3652 113.264 51.3652ZM107.457 45.4913L108.808 46.8426L107.457 48.1939L106.106 46.8426L107.457 45.4913ZM112.283 50.3974C112.283 50.2635 112.309 50.1397 112.362 50.0261C112.411 49.9084 112.477 49.807 112.563 49.7217C112.648 49.6325 112.749 49.5635 112.867 49.5148C112.985 49.4661 113.111 49.4417 113.244 49.4417H113.299C113.36 49.4417 113.417 49.4417 113.47 49.4417C113.526 49.4417 113.589 49.4397 113.658 49.4357C113.731 49.4316 113.817 49.4275 113.914 49.4235C114.015 49.4194 114.141 49.4133 114.291 49.4052C114.149 49.1617 114.042 48.9041 113.969 48.6322C113.896 48.3562 113.859 48.0783 113.859 47.7983C113.859 47.5872 113.88 47.3762 113.92 47.1652C113.961 46.9542 114.022 46.7533 114.103 46.5626C114.184 46.3678 114.285 46.1852 114.407 46.0148C114.529 45.8403 114.673 45.682 114.839 45.54L114.523 45.3635L115.697 43.6348C115.872 43.7565 116.081 43.8803 116.324 44.0061C116.568 44.1319 116.824 44.2577 117.091 44.3835C117.359 44.5052 117.627 44.6249 117.895 44.7426C118.167 44.8562 118.416 44.9638 118.644 45.0652C119.029 45.2438 119.37 45.402 119.666 45.54C119.966 45.6739 120.236 45.8078 120.476 45.9417C120.715 46.0716 120.93 46.2096 121.121 46.3557C121.312 46.5017 121.49 46.6722 121.657 46.867C121.868 47.1348 122.02 47.427 122.113 47.7435C122.206 48.06 122.253 48.3664 122.253 48.6626C122.253 49.1171 122.135 49.5472 121.9 49.953C121.669 50.3548 121.326 50.6916 120.871 50.9635C120.746 51.0365 120.589 51.0994 120.403 51.1522C120.22 51.2049 120.027 51.2475 119.824 51.28C119.626 51.3165 119.429 51.3429 119.234 51.3591C119.039 51.3754 118.869 51.3835 118.723 51.3835C118.552 51.3835 118.368 51.3754 118.169 51.3591C117.97 51.347 117.769 51.3246 117.566 51.2922C117.367 51.2638 117.173 51.2252 116.982 51.1765C116.791 51.1278 116.617 51.071 116.458 51.0061C116.264 51.0629 116.038 51.1136 115.783 51.1583C115.531 51.2029 115.265 51.2394 114.985 51.2678C114.705 51.3003 114.421 51.3246 114.133 51.3409C113.845 51.3571 113.567 51.3652 113.299 51.3652H113.244C113.111 51.3652 112.985 51.3388 112.867 51.2861C112.749 51.2374 112.648 51.1684 112.563 51.0791C112.477 50.9939 112.411 50.8925 112.362 50.7748C112.309 50.6571 112.283 50.5313 112.283 50.3974ZM116.708 46.4591C116.578 46.4388 116.438 46.4774 116.288 46.5748C116.142 46.6722 116.008 46.798 115.886 46.9522C115.764 47.1064 115.667 47.2768 115.594 47.4635C115.521 47.6461 115.493 47.8165 115.509 47.9748V47.9687C115.521 48.0742 115.562 48.1838 115.631 48.2974C115.7 48.407 115.781 48.5145 115.874 48.62C115.971 48.7214 116.075 48.8128 116.184 48.8939C116.294 48.971 116.395 49.0278 116.489 49.0643C116.643 49.0481 116.793 49.0116 116.939 48.9548C117.089 48.898 117.223 48.8128 117.341 48.6991C117.459 48.5855 117.554 48.4394 117.627 48.2609C117.7 48.0823 117.737 47.8632 117.737 47.6035C117.737 47.4696 117.698 47.3377 117.621 47.2078C117.548 47.078 117.459 46.9603 117.353 46.8548C117.248 46.7452 117.134 46.6559 117.012 46.587C116.895 46.5139 116.793 46.4713 116.708 46.4591ZM119.337 47.4696C119.337 47.64 119.317 47.8186 119.277 48.0052C119.236 48.1919 119.181 48.3765 119.112 48.5591C119.043 48.7417 118.964 48.9203 118.875 49.0948C118.79 49.2652 118.698 49.4235 118.601 49.5696H118.656C118.952 49.5696 119.224 49.5594 119.471 49.5391C119.723 49.5148 119.94 49.4701 120.123 49.4052C120.305 49.3362 120.449 49.2429 120.555 49.1252C120.664 49.0035 120.729 48.8432 120.75 48.6443C120.758 48.547 120.717 48.4414 120.628 48.3278C120.539 48.2101 120.423 48.0945 120.281 47.9809C120.143 47.8632 119.989 47.7496 119.818 47.64C119.648 47.5304 119.488 47.433 119.337 47.3478V47.4696ZM126 46.9035C126.154 47.3417 126.288 47.7699 126.402 48.1878C126.451 48.3704 126.499 48.5612 126.548 48.76C126.597 48.9548 126.639 49.1516 126.676 49.3504C126.717 49.5452 126.749 49.738 126.773 49.9287C126.798 50.1154 126.81 50.2899 126.81 50.4522C126.81 50.8336 126.757 51.2049 126.652 51.5661C126.55 51.9313 126.404 52.2843 126.213 52.6252C126.027 52.9661 125.803 53.2928 125.544 53.6052C125.284 53.9217 124.996 54.218 124.679 54.4939C124.363 54.7699 124.024 55.0255 123.663 55.2609C123.302 55.5003 122.928 55.7154 122.543 55.9061L121.435 54.3661C121.727 54.22 122.023 54.0536 122.324 53.867C122.62 53.6843 122.904 53.4875 123.176 53.2765C123.452 53.0655 123.708 52.8443 123.943 52.613C124.182 52.3817 124.389 52.1464 124.564 51.907C124.742 51.6675 124.882 51.4241 124.984 51.1765C125.085 50.933 125.136 50.6936 125.136 50.4583C125.136 50.2878 125.112 50.1032 125.063 49.9043C125.018 49.7055 124.955 49.4925 124.874 49.2652C124.797 49.0339 124.704 48.7904 124.594 48.5348C124.485 48.2751 124.367 47.9991 124.241 47.707L126 46.9035Z" fill="#303030"/>
<defs>
<linearGradient id="paint0_linear_1325_8592" x1="5.62085" y1="5.2" x2="136.041" y2="64.7894" gradientUnits="userSpaceOnUse">
<stop stop-color="#EAEAEA"/>
<stop offset="1" stop-color="#BDBDBD"/>
</linearGradient>
</defs>
</svg>
