<svg width="181" height="98" viewBox="0 0 181 98" fill="none" xmlns="http://www.w3.org/2000/svg">
<rect x="0.75" y="0.75" width="179.399" height="96.5" rx="9.25" fill="white" stroke="url(#paint0_linear_1325_9239)" stroke-width="1.5"/>
<path d="M51.2945 35.5826C51.4162 35.5501 51.54 35.5278 51.6658 35.5157C51.7916 35.5035 51.9153 35.4974 52.0371 35.4974C52.309 35.4974 52.589 35.538 52.8771 35.6191C53.1693 35.6962 53.4614 35.8119 53.7536 35.9661L53.078 37.7496C52.8832 37.6643 52.6985 37.5994 52.524 37.5548C52.3495 37.5061 52.1852 37.4817 52.031 37.4817C51.9255 37.4817 51.8058 37.4939 51.6719 37.5183C51.542 37.5304 51.402 37.569 51.2519 37.6339C51.1017 37.6948 50.9516 37.7739 50.8014 37.8713C50.6553 37.9687 50.5133 38.0823 50.3753 38.2122C50.2374 38.338 50.1136 38.4719 50.004 38.6139C49.8985 38.7559 49.8113 38.9041 49.7423 39.0583C49.6733 39.2084 49.6348 39.3545 49.6266 39.4965C49.6185 39.6101 49.651 39.7035 49.724 39.7765C49.7971 39.8455 49.8945 39.9064 50.0162 39.9591C50.138 40.0078 50.2759 40.0525 50.4301 40.093C50.5843 40.1296 50.7406 40.1722 50.8988 40.2209L51.0753 40.2635C51.3351 40.3243 51.5927 40.3933 51.8484 40.4704C52.1081 40.5475 52.3414 40.6571 52.5484 40.7991C52.7553 40.9371 52.9217 41.1197 53.0475 41.347C53.1774 41.5742 53.2423 41.8684 53.2423 42.2296C53.2423 42.3026 53.2382 42.3777 53.2301 42.4548C53.2261 42.5359 53.2159 42.6191 53.1997 42.7043C53.1591 42.9235 53.0861 43.1365 52.9806 43.3435C52.8751 43.5545 52.7411 43.7533 52.5788 43.94C52.4206 44.1307 52.2359 44.3072 52.0249 44.4696C51.818 44.6359 51.5907 44.7841 51.3432 44.9139C50.8765 45.1452 50.3429 45.3238 49.7423 45.4496C49.1417 45.5794 48.4965 45.6443 47.8067 45.6443C46.9788 45.6443 46.2484 45.5226 45.6153 45.2791C44.9823 45.0397 44.4568 44.6887 44.0388 44.2261C43.7223 43.8487 43.489 43.4348 43.3388 42.9843C43.1927 42.5339 43.1197 42.0632 43.1197 41.5722C43.1197 41.4667 43.1238 41.3612 43.1319 41.2557C43.14 41.1501 43.1481 41.0507 43.1562 40.9574C43.1724 40.6652 43.2049 40.3791 43.2536 40.0991C43.3023 39.8151 43.3571 39.5493 43.418 39.3017C43.4829 39.0501 43.5519 38.8188 43.6249 38.6078C43.698 38.3928 43.7649 38.2061 43.8258 38.0478C43.8866 37.8855 43.9374 37.7577 43.978 37.6643C44.0226 37.567 44.049 37.5081 44.0571 37.4878L45.5849 38.127C45.4835 38.3664 45.3861 38.6017 45.2927 38.833C45.2035 39.0603 45.1223 39.2957 45.0493 39.5391C44.9803 39.7786 44.9214 40.0322 44.8727 40.3C44.8281 40.5678 44.7997 40.86 44.7875 41.1765C44.7835 41.2212 44.7794 41.2699 44.7753 41.3226C44.7713 41.3754 44.7693 41.422 44.7693 41.4626C44.7693 41.7183 44.8078 41.9699 44.8849 42.2174C44.9661 42.4649 45.098 42.6881 45.2806 42.887C45.3901 43.0128 45.5322 43.1223 45.7066 43.2157C45.8852 43.313 46.0861 43.3942 46.3093 43.4591C46.5324 43.5281 46.7719 43.5788 47.0275 43.6113C47.2832 43.6478 47.5429 43.6661 47.8067 43.6661C48.322 43.6661 48.8029 43.6296 49.2493 43.5565C49.6997 43.4875 50.0953 43.3942 50.4362 43.2765C50.7771 43.1629 51.051 43.029 51.258 42.8748C51.469 42.7246 51.5907 42.5704 51.6232 42.4122C51.6151 42.4122 51.5907 42.4081 51.5501 42.4C51.5095 42.3919 51.4568 42.3797 51.3919 42.3635C51.331 42.3513 51.26 42.3351 51.1788 42.3148C51.1017 42.2986 51.0206 42.2803 50.9353 42.26L50.6066 42.187C50.2455 42.0977 49.9046 41.9942 49.584 41.8765C49.2675 41.7629 48.9895 41.6107 48.7501 41.42C48.5148 41.2333 48.3261 40.998 48.184 40.7139C48.0461 40.4258 47.9771 40.0626 47.9771 39.6243C47.9974 39.1577 48.0948 38.7032 48.2693 38.2609C48.4438 37.8186 48.6791 37.4148 48.9753 37.0496C49.2716 36.6843 49.6165 36.3739 50.0101 36.1183C50.4078 35.8586 50.838 35.68 51.3006 35.5826H51.2945ZM56.9839 41.3652C56.4523 41.3652 55.9309 41.2638 55.4196 41.0609C54.9123 40.858 54.4416 40.5313 54.0074 40.0809L55.1091 38.5287C55.308 38.7113 55.5007 38.8614 55.6874 38.9791C55.874 39.0928 56.0526 39.182 56.223 39.247C56.3935 39.3119 56.5538 39.3565 56.7039 39.3809C56.8581 39.4052 57.0022 39.4174 57.1361 39.4174C57.1969 39.4174 57.2659 39.4154 57.343 39.4113C57.4201 39.4072 57.4972 39.4012 57.5743 39.393C57.6514 39.3809 57.7265 39.3667 57.7996 39.3504C57.8726 39.3342 57.9396 39.3139 58.0004 39.2896C58.2114 39.2003 58.3778 39.111 58.4996 39.0217C58.3454 38.6484 58.1769 38.2609 57.9943 37.8591C57.8158 37.4533 57.6352 37.0475 57.4526 36.6417C57.27 36.2319 57.0894 35.8261 56.9109 35.4243C56.7323 35.0226 56.5659 34.6371 56.4117 34.2678L58.1891 33.5252L58.7309 34.84C58.9054 35.2701 59.1143 35.7814 59.3578 36.3739C59.6013 36.9623 59.8813 37.6299 60.1978 38.3765C60.2709 38.5551 60.3378 38.7113 60.3987 38.8452C60.4596 38.9791 60.5306 39.0907 60.6117 39.18C60.6969 39.2693 60.7964 39.3362 60.91 39.3809C61.0277 39.4214 61.1778 39.4417 61.3604 39.4417C61.4903 39.4417 61.614 39.4661 61.7317 39.5148C61.8494 39.5635 61.9509 39.6325 62.0361 39.7217C62.1254 39.807 62.1964 39.9084 62.2491 40.0261C62.3019 40.1438 62.3282 40.2696 62.3282 40.4035C62.3282 40.5374 62.3019 40.6632 62.2491 40.7809C62.1964 40.8986 62.1254 41 62.0361 41.0852C61.9509 41.1745 61.8494 41.2435 61.7317 41.2922C61.614 41.3409 61.4903 41.3652 61.3604 41.3652C61.1129 41.3652 60.8938 41.349 60.703 41.3165C60.5164 41.2841 60.348 41.2374 60.1978 41.1765C60.0517 41.1197 59.9198 41.0507 59.8022 40.9696C59.6885 40.8843 59.581 40.791 59.4796 40.6896C59.37 40.7626 59.2543 40.8336 59.1326 40.9026C59.0109 40.9675 58.8709 41.0325 58.7126 41.0974C58.4691 41.1907 58.2054 41.2577 57.9213 41.2983C57.6413 41.3429 57.3288 41.3652 56.9839 41.3652ZM60.3824 40.4035C60.3824 40.2696 60.4088 40.1438 60.4615 40.0261C60.5102 39.9084 60.5792 39.807 60.6685 39.7217C60.7537 39.6325 60.8572 39.5635 60.9789 39.5148C61.0966 39.4661 61.2224 39.4417 61.3563 39.4417H62.525C63.1824 39.4417 63.785 39.4032 64.3328 39.3261C64.8847 39.2449 65.4001 39.1374 65.8789 39.0035C66.3577 38.8696 66.8102 38.7154 67.2363 38.5409C67.6664 38.3623 68.0885 38.1777 68.5024 37.987C68.2264 37.9099 67.9485 37.8145 67.6685 37.7009C67.3925 37.5872 67.1145 37.4777 66.8345 37.3722C66.5586 37.2667 66.2827 37.1774 66.0067 37.1043C65.7308 37.0272 65.4569 36.9887 65.185 36.9887C64.9983 36.9887 64.8157 37.0394 64.6372 37.1409C64.4586 37.2423 64.2963 37.358 64.1502 37.4878C64.0041 37.6177 63.8803 37.7455 63.7789 37.8713C63.6815 37.993 63.6206 38.0762 63.5963 38.1209L62.1902 37.2139C62.3444 36.942 62.527 36.6762 62.738 36.4165C62.949 36.1568 63.1803 35.9275 63.4319 35.7287C63.6876 35.5258 63.9615 35.3635 64.2537 35.2417C64.5499 35.12 64.8603 35.0591 65.185 35.0591C65.4244 35.0591 65.6638 35.0855 65.9032 35.1383C66.1427 35.187 66.3801 35.2519 66.6154 35.333C66.8548 35.4142 67.0902 35.5075 67.3215 35.613C67.5528 35.7145 67.7821 35.818 68.0093 35.9235C68.2285 36.0249 68.4456 36.1264 68.6606 36.2278C68.8798 36.3252 69.105 36.4165 69.3363 36.5017C69.5676 36.5829 69.807 36.6499 70.0545 36.7026C70.3021 36.7554 70.5638 36.7838 70.8398 36.7878L70.6876 38.6565L69.8232 39.0704C69.4702 39.2409 69.1192 39.4174 68.7702 39.6C68.4212 39.7786 68.0641 39.953 67.6989 40.1235C67.3377 40.2899 66.9644 40.4501 66.5789 40.6043C66.1974 40.7545 65.7957 40.8864 65.3737 41C64.9516 41.1096 64.5053 41.1968 64.0345 41.2617C63.5638 41.3307 63.0606 41.3652 62.525 41.3652H61.405H61.3563C61.2224 41.3652 61.0966 41.3388 60.9789 41.2861C60.8572 41.2374 60.7537 41.1704 60.6685 41.0852C60.5792 41 60.5102 40.8986 60.4615 40.7809C60.4088 40.6632 60.3824 40.5374 60.3824 40.4035ZM71.5493 41.3835C71.5695 41.0507 71.5898 40.7058 71.6101 40.3487C71.6304 39.9916 71.6466 39.6386 71.6588 39.2896C71.675 38.9406 71.6852 38.6017 71.6893 38.273C71.6933 37.9443 71.6893 37.642 71.6771 37.3661C71.6527 36.7899 71.6284 36.2846 71.604 35.8504C71.5837 35.4122 71.5614 35.0246 71.5371 34.6878C71.5168 34.351 71.4945 34.0568 71.4701 33.8052C71.4498 33.5496 71.4275 33.3162 71.4032 33.1052C71.3788 32.8942 71.3524 32.6974 71.324 32.5148C71.2956 32.3281 71.2652 32.1354 71.2327 31.9365L73.1136 31.3157C73.2029 31.8594 73.2739 32.4072 73.3266 32.9591C73.3835 33.511 73.4261 34.0406 73.4545 34.5478C73.4829 35.051 73.5011 35.5197 73.5093 35.9539C73.5214 36.3881 73.5275 36.7594 73.5275 37.0678C73.5275 37.3478 73.5255 37.6501 73.5214 37.9748C73.5214 38.2994 73.5174 38.6362 73.5093 38.9852C73.5052 39.3342 73.4971 39.6872 73.4849 40.0443C73.4727 40.4014 73.4545 40.7504 73.4301 41.0913L71.5493 41.3835ZM77.2029 37.4087C77.1177 37.3925 77.0203 37.4229 76.9107 37.5C76.8052 37.573 76.7038 37.6745 76.6064 37.8043C76.5131 37.9301 76.4339 38.0701 76.369 38.2243C76.3081 38.3786 76.2777 38.5267 76.2777 38.6687C76.2777 38.8026 76.3163 38.9142 76.3934 39.0035C76.4705 39.0928 76.5678 39.1658 76.6855 39.2226C76.8073 39.2794 76.9391 39.322 77.0812 39.3504C77.2273 39.3788 77.3673 39.3991 77.5012 39.4113H77.4951C77.6006 39.4194 77.7203 39.4255 77.8542 39.4296C77.9922 39.4296 78.1261 39.4296 78.256 39.4296C78.2965 39.4296 78.327 39.4316 78.3473 39.4357C78.3716 39.4357 78.3919 39.4357 78.4081 39.4357C78.4244 39.4357 78.4406 39.4357 78.4568 39.4357C78.4771 39.4357 78.5055 39.4336 78.542 39.4296C78.4812 39.178 78.4081 38.9386 78.3229 38.7113C78.2418 38.48 78.1464 38.273 78.0368 38.0904C77.9273 37.9078 77.8035 37.7577 77.6655 37.64C77.5276 37.5183 77.3734 37.4412 77.2029 37.4087ZM74.2203 43.7817C74.7925 43.6681 75.3139 43.5241 75.7847 43.3496C76.2554 43.1791 76.6673 42.9864 77.0203 42.7713C77.3774 42.5603 77.6716 42.3351 77.9029 42.0957C78.1383 41.8562 78.3047 41.6128 78.402 41.3652C78.2276 41.3652 78.0429 41.3612 77.8481 41.353C77.6534 41.349 77.4931 41.3429 77.3673 41.3348C76.8965 41.2942 76.4664 41.1887 76.0768 41.0183C75.6873 40.8519 75.3768 40.6246 75.1455 40.3365C74.9751 40.1174 74.8534 39.88 74.7803 39.6243C74.7113 39.3687 74.6768 39.0988 74.6768 38.8148C74.6768 38.5957 74.6971 38.3765 74.7377 38.1574C74.7783 37.9342 74.8351 37.7191 74.9081 37.5122C74.9812 37.3012 75.0664 37.1023 75.1638 36.9157C75.2652 36.729 75.3728 36.5586 75.4864 36.4043C75.7299 36.1 75.9957 35.8707 76.2838 35.7165C76.576 35.5583 76.8823 35.4791 77.2029 35.4791C77.8887 35.4791 78.5076 35.7794 79.0594 36.38C79.2542 36.5991 79.4287 36.8446 79.5829 37.1165C79.7371 37.3884 79.867 37.6786 79.9725 37.987C80.082 38.2913 80.1652 38.6119 80.222 38.9487C80.2789 39.2814 80.3073 39.6203 80.3073 39.9652C80.3073 40.0707 80.3032 40.1762 80.2951 40.2817C80.291 40.3872 80.2849 40.4867 80.2768 40.58C80.2281 41.0548 80.1206 41.4991 79.9542 41.913C79.7919 42.331 79.5809 42.7145 79.3212 43.0635C79.0655 43.4165 78.7673 43.7351 78.4264 44.0191C78.0855 44.3072 77.7142 44.5588 77.3125 44.7739C76.9148 44.993 76.4928 45.1757 76.0464 45.3217C75.6 45.4678 75.1415 45.5774 74.6707 45.6504L74.2203 43.7817ZM90.0492 41.8583C89.7327 41.8583 89.4324 41.7913 89.1484 41.6574C88.8684 41.5275 88.6289 41.3551 88.4301 41.14C88.211 41.3632 87.9614 41.5377 87.6814 41.6635C87.4014 41.7893 87.0991 41.8522 86.7744 41.8522C86.4255 41.8522 86.1089 41.7751 85.8249 41.6209C85.5408 41.4707 85.2933 41.2759 85.0823 41.0365C84.8713 40.7971 84.6988 40.5313 84.5649 40.2391C84.435 39.9429 84.3457 39.6507 84.2971 39.3626C84.2768 39.249 84.2626 39.1313 84.2544 39.0096C84.2463 38.8838 84.2423 38.7559 84.2423 38.6261C84.2423 38.3826 84.2565 38.133 84.2849 37.8774C84.3173 37.6217 84.364 37.3661 84.4249 37.1104C84.506 36.7614 84.6115 36.4104 84.7414 36.0574C84.8713 35.7003 85.0295 35.331 85.2162 34.9496C85.4069 34.5681 85.624 34.1664 85.8675 33.7443C86.111 33.3223 86.3849 32.8719 86.6892 32.393C86.6446 32.3403 86.5939 32.2896 86.5371 32.2409C86.4843 32.1881 86.4376 32.1394 86.3971 32.0948L87.8336 30.6583C87.8742 30.7029 87.9228 30.7536 87.9797 30.8104C88.0365 30.8672 88.0973 30.9261 88.1623 30.987C88.2272 31.0478 88.2901 31.1087 88.351 31.1696C88.4159 31.2304 88.4747 31.2852 88.5275 31.3339V31.3278C88.5518 31.3481 88.5762 31.3704 88.6005 31.3948C88.6249 31.4191 88.6472 31.4435 88.6675 31.4678C89.0124 31.7884 89.3533 32.1171 89.6901 32.4539C90.031 32.7907 90.3576 33.1559 90.6701 33.5496C91.0962 34.0893 91.4675 34.6554 91.784 35.2478C92.1046 35.8362 92.3643 36.4328 92.5631 37.0374C92.6321 37.2525 92.6828 37.4817 92.7153 37.7252C92.7518 37.9687 92.7701 38.2162 92.7701 38.4678C92.7701 38.8858 92.7173 39.2936 92.6118 39.6913C92.5104 40.0849 92.3501 40.44 92.131 40.7565C91.9118 41.073 91.6298 41.3307 91.2849 41.5296C90.944 41.7325 90.5362 41.842 90.0614 41.8583H90.0492ZM89.3736 37.5791C89.3736 37.7577 89.3817 37.9707 89.3979 38.2183C89.4142 38.4658 89.4466 38.7052 89.4953 38.9365C89.5481 39.1638 89.615 39.3626 89.6962 39.533C89.7814 39.6994 89.891 39.7928 90.0249 39.813C90.1507 39.7887 90.2704 39.7339 90.384 39.6487C90.4976 39.5635 90.5971 39.46 90.6823 39.3383C90.7675 39.2165 90.8344 39.0846 90.8831 38.9426C90.9318 38.7965 90.9562 38.6525 90.9562 38.5104C90.9562 38.3603 90.944 38.2081 90.9197 38.0539C90.8953 37.8997 90.8689 37.7638 90.8405 37.6461H90.8466C90.7127 37.2443 90.5382 36.8649 90.3231 36.5078C90.1081 36.1507 89.8747 35.8139 89.6231 35.4974C89.3715 35.1809 89.1118 34.8867 88.844 34.6148C88.5802 34.3388 88.3327 34.0832 88.1014 33.8478L88.0162 33.7687C87.8133 34.0446 87.6104 34.3449 87.4075 34.6696C87.2086 34.9942 87.024 35.3229 86.8536 35.6557C86.6831 35.9884 86.531 36.3151 86.3971 36.6357C86.2672 36.9562 86.1698 37.2525 86.1049 37.5243C86.0684 37.707 86.0379 37.9058 86.0136 38.1209C85.9933 38.3319 85.9831 38.5368 85.9831 38.7357C85.9831 38.8817 86.0034 39.0197 86.044 39.1496C86.0886 39.2754 86.1475 39.387 86.2205 39.4843C86.2936 39.5817 86.3768 39.6588 86.4701 39.7157C86.5634 39.7684 86.6649 39.7948 86.7744 39.7948C86.8313 39.7948 86.8921 39.7765 86.9571 39.74C87.026 39.6994 87.093 39.6446 87.1579 39.5757C87.2269 39.5067 87.2918 39.4235 87.3527 39.3261C87.4136 39.2246 87.4643 39.111 87.5049 38.9852C87.5536 38.8188 87.5921 38.6565 87.6205 38.4983C87.653 38.3359 87.6814 38.1919 87.7057 38.0661C87.7139 37.993 87.722 37.9099 87.7301 37.8165C87.7423 37.7191 87.7544 37.6359 87.7666 37.567L89.3736 37.5791ZM95.3073 38.2548C95.3073 38.3928 95.3316 38.5226 95.3803 38.6443C95.4331 38.762 95.5041 38.8675 95.5933 38.9609C95.6867 39.0501 95.7922 39.1212 95.9099 39.1739C96.0316 39.2226 96.1615 39.247 96.2994 39.247C96.4415 39.247 96.5733 39.2226 96.6951 39.1739C96.8168 39.1212 96.9223 39.0501 97.0116 38.9609C97.1049 38.8675 97.178 38.762 97.2307 38.6443C97.2876 38.5226 97.316 38.3928 97.316 38.2548C97.316 38.1128 97.2876 37.9809 97.2307 37.8591C97.178 37.7374 97.1049 37.6319 97.0116 37.5426C96.9223 37.4493 96.8168 37.3762 96.6951 37.3235C96.5733 37.2667 96.4415 37.2383 96.2994 37.2383C96.1615 37.2383 96.0316 37.2667 95.9099 37.3235C95.7922 37.3762 95.6867 37.4493 95.5933 37.5426C95.5041 37.6319 95.4331 37.7374 95.3803 37.8591C95.3316 37.9809 95.3073 38.1128 95.3073 38.2548ZM93.7977 38.2548C93.7977 37.9099 93.8626 37.5852 93.9925 37.2809C94.1264 36.9725 94.3049 36.7046 94.5281 36.4774C94.7554 36.2501 95.0212 36.0696 95.3255 35.9357C95.6299 35.8017 95.9545 35.7348 96.2994 35.7348C96.6444 35.7348 96.969 35.8017 97.2733 35.9357C97.5818 36.0696 97.8496 36.2501 98.0768 36.4774C98.3041 36.7046 98.4847 36.9725 98.6186 37.2809C98.7525 37.5852 98.8194 37.9099 98.8194 38.2548C98.8194 38.5997 98.7525 38.9243 98.6186 39.2287C98.4847 39.533 98.3041 39.7988 98.0768 40.0261C97.8496 40.2493 97.5818 40.4278 97.2733 40.5617C96.969 40.6916 96.6444 40.7565 96.2994 40.7565C95.9545 40.7565 95.6299 40.6916 95.3255 40.5617C95.0212 40.4278 94.7554 40.2493 94.5281 40.0261C94.3049 39.7988 94.1264 39.533 93.9925 39.2287C93.8626 38.9243 93.7977 38.5997 93.7977 38.2548ZM101.46 38.2548C101.46 38.3928 101.484 38.5226 101.533 38.6443C101.585 38.762 101.656 38.8675 101.746 38.9609C101.839 39.0501 101.945 39.1212 102.062 39.1739C102.184 39.2226 102.314 39.247 102.452 39.247C102.594 39.247 102.726 39.2226 102.847 39.1739C102.969 39.1212 103.075 39.0501 103.164 38.9609C103.257 38.8675 103.33 38.762 103.383 38.6443C103.44 38.5226 103.468 38.3928 103.468 38.2548C103.468 38.1128 103.44 37.9809 103.383 37.8591C103.33 37.7374 103.257 37.6319 103.164 37.5426C103.075 37.4493 102.969 37.3762 102.847 37.3235C102.726 37.2667 102.594 37.2383 102.452 37.2383C102.314 37.2383 102.184 37.2667 102.062 37.3235C101.945 37.3762 101.839 37.4493 101.746 37.5426C101.656 37.6319 101.585 37.7374 101.533 37.8591C101.484 37.9809 101.46 38.1128 101.46 38.2548ZM99.95 38.2548C99.95 37.9099 100.015 37.5852 100.145 37.2809C100.279 36.9725 100.457 36.7046 100.68 36.4774C100.908 36.2501 101.174 36.0696 101.478 35.9357C101.782 35.8017 102.107 35.7348 102.452 35.7348C102.797 35.7348 103.121 35.8017 103.426 35.9357C103.734 36.0696 104.002 36.2501 104.229 36.4774C104.456 36.7046 104.637 36.9725 104.771 37.2809C104.905 37.5852 104.972 37.9099 104.972 38.2548C104.972 38.5997 104.905 38.9243 104.771 39.2287C104.637 39.533 104.456 39.7988 104.229 40.0261C104.002 40.2493 103.734 40.4278 103.426 40.5617C103.121 40.6916 102.797 40.7565 102.452 40.7565C102.107 40.7565 101.782 40.6916 101.478 40.5617C101.174 40.4278 100.908 40.2493 100.68 40.0261C100.457 39.7988 100.279 39.533 100.145 39.2287C100.015 38.9243 99.95 38.5997 99.95 38.2548ZM111.783 41.3652C111.763 41.3652 111.706 41.3612 111.613 41.353C111.524 41.349 111.412 41.3368 111.278 41.3165C111.148 41.2962 111 41.2638 110.834 41.2191C110.671 41.1745 110.507 41.1136 110.341 41.0365C109.898 40.8255 109.555 40.5374 109.312 40.1722C109.069 39.8029 108.947 39.3748 108.947 38.8878C108.947 38.0762 109.306 37.2342 110.024 36.3617C110.081 36.2928 110.128 36.2359 110.164 36.1913C110.205 36.1467 110.241 36.1061 110.274 36.0696C110.306 36.033 110.337 36.0006 110.365 35.9722C110.398 35.9397 110.434 35.9032 110.475 35.8626C110.426 35.822 110.377 35.7835 110.329 35.747C110.284 35.7104 110.245 35.6759 110.213 35.6435L110.103 35.5461L111.315 34.067C111.522 34.2212 111.769 34.4301 112.057 34.6939C112.345 34.9536 112.678 35.2864 113.055 35.6922C114.106 36.8893 114.632 37.9545 114.632 38.8878C114.632 39.3667 114.516 39.7907 114.285 40.16C114.058 40.5293 113.741 40.8194 113.335 41.0304C113.193 41.0994 113.047 41.1542 112.897 41.1948C112.751 41.2394 112.609 41.2739 112.471 41.2983C112.333 41.3226 112.203 41.3388 112.082 41.347C111.964 41.3591 111.864 41.3652 111.783 41.3652ZM112.964 38.8878C112.964 38.762 112.924 38.62 112.842 38.4617C112.761 38.3035 112.654 38.1391 112.52 37.9687C112.39 37.7942 112.244 37.6197 112.082 37.4452C111.919 37.2667 111.757 37.0962 111.595 36.9339C111.485 37.0557 111.369 37.1936 111.248 37.3478C111.126 37.498 111.014 37.6583 110.913 37.8287C110.811 37.9991 110.728 38.1757 110.663 38.3583C110.598 38.5368 110.57 38.7133 110.578 38.8878C110.582 38.9852 110.629 39.0704 110.718 39.1435C110.807 39.2165 110.913 39.2754 111.035 39.32C111.16 39.3646 111.292 39.3991 111.43 39.4235C111.568 39.4438 111.686 39.4539 111.783 39.4539C111.905 39.4539 112.035 39.4458 112.173 39.4296C112.315 39.4093 112.443 39.3768 112.556 39.3322C112.674 39.2875 112.771 39.2287 112.849 39.1557C112.926 39.0826 112.964 38.9933 112.964 38.8878ZM118.8 36.9035C118.955 37.3417 119.088 37.7699 119.202 38.1878C119.251 38.3704 119.299 38.5612 119.348 38.76C119.397 38.9548 119.439 39.1516 119.476 39.3504C119.517 39.5452 119.549 39.738 119.573 39.9287C119.598 40.1154 119.61 40.2899 119.61 40.4522C119.61 40.8336 119.557 41.2049 119.452 41.5661C119.35 41.9313 119.204 42.2843 119.013 42.6252C118.827 42.9661 118.604 43.2928 118.344 43.6052C118.084 43.9217 117.796 44.218 117.479 44.4939C117.163 44.7699 116.824 45.0255 116.463 45.2609C116.102 45.5003 115.728 45.7154 115.343 45.9061L114.235 44.3661C114.527 44.22 114.822 44.0536 115.118 43.867C115.418 43.6843 115.704 43.4875 115.976 43.2765C116.252 43.0655 116.508 42.8443 116.743 42.613C116.982 42.3817 117.189 42.1464 117.364 41.907C117.542 41.6675 117.682 41.4241 117.784 41.1765C117.885 40.933 117.936 40.6936 117.936 40.4583C117.936 40.2878 117.912 40.1032 117.863 39.9043C117.818 39.7055 117.755 39.4925 117.674 39.2652C117.597 39.0339 117.504 38.7904 117.394 38.5348C117.285 38.2751 117.167 37.9991 117.041 37.707L118.8 36.9035ZM119.951 34.5843L118.782 35.7591L117.626 34.6026L116.481 35.747L115.3 34.5722L116.469 33.3974L117.626 34.5539L118.77 33.4096L119.951 34.5843ZM116.542 32.8191L117.626 31.7357L118.715 32.8252L117.632 33.9087L116.542 32.8191ZM123.578 37.4087C123.493 37.3925 123.395 37.4229 123.286 37.5C123.18 37.573 123.079 37.6745 122.981 37.8043C122.888 37.9301 122.809 38.0701 122.744 38.2243C122.683 38.3786 122.653 38.5267 122.653 38.6687C122.653 38.8026 122.691 38.9142 122.768 39.0035C122.845 39.0928 122.943 39.1658 123.061 39.2226C123.182 39.2794 123.314 39.322 123.456 39.3504C123.602 39.3788 123.742 39.3991 123.876 39.4113H123.87C123.976 39.4194 124.095 39.4255 124.229 39.4296C124.367 39.4296 124.501 39.4296 124.631 39.4296C124.672 39.4296 124.702 39.4316 124.722 39.4357C124.747 39.4357 124.767 39.4357 124.783 39.4357C124.799 39.4357 124.816 39.4357 124.832 39.4357C124.852 39.4357 124.881 39.4336 124.917 39.4296C124.856 39.178 124.783 38.9386 124.698 38.7113C124.617 38.48 124.521 38.273 124.412 38.0904C124.302 37.9078 124.178 37.7577 124.041 37.64C123.903 37.5183 123.748 37.4412 123.578 37.4087ZM120.595 43.7817C121.167 43.6681 121.689 43.5241 122.16 43.3496C122.63 43.1791 123.042 42.9864 123.395 42.7713C123.752 42.5603 124.047 42.3351 124.278 42.0957C124.513 41.8562 124.68 41.6128 124.777 41.3652C124.603 41.3652 124.418 41.3612 124.223 41.353C124.028 41.349 123.868 41.3429 123.742 41.3348C123.272 41.2942 122.841 41.1887 122.452 41.0183C122.062 40.8519 121.752 40.6246 121.521 40.3365C121.35 40.1174 121.228 39.88 121.155 39.6243C121.086 39.3687 121.052 39.0988 121.052 38.8148C121.052 38.5957 121.072 38.3765 121.113 38.1574C121.153 37.9342 121.21 37.7191 121.283 37.5122C121.356 37.3012 121.441 37.1023 121.539 36.9157C121.64 36.729 121.748 36.5586 121.861 36.4043C122.105 36.1 122.371 35.8707 122.659 35.7165C122.951 35.5583 123.257 35.4791 123.578 35.4791C124.264 35.4791 124.883 35.7794 125.434 36.38C125.629 36.5991 125.804 36.8446 125.958 37.1165C126.112 37.3884 126.242 37.6786 126.347 37.987C126.457 38.2913 126.54 38.6119 126.597 38.9487C126.654 39.2814 126.682 39.6203 126.682 39.9652C126.682 40.0707 126.678 40.1762 126.67 40.2817C126.666 40.3872 126.66 40.4867 126.652 40.58C126.603 41.0548 126.496 41.4991 126.329 41.913C126.167 42.331 125.956 42.7145 125.696 43.0635C125.441 43.4165 125.142 43.7351 124.801 44.0191C124.461 44.3072 124.089 44.5588 123.687 44.7739C123.29 44.993 122.868 45.1757 122.421 45.3217C121.975 45.4678 121.516 45.5774 121.046 45.6504L120.595 43.7817ZM131.839 41.3652C131.75 41.3652 131.624 41.3591 131.462 41.347C131.299 41.3348 131.125 41.2901 130.938 41.213C130.849 41.7162 130.68 42.193 130.433 42.6435C130.189 43.098 129.887 43.522 129.526 43.9157C129.165 44.3133 128.753 44.6786 128.29 45.0113C127.828 45.3441 127.335 45.6423 126.811 45.9061L125.697 44.3661C125.985 44.22 126.275 44.0597 126.568 43.8852C126.86 43.7148 127.138 43.5322 127.402 43.3374C127.669 43.1467 127.917 42.9458 128.144 42.7348C128.375 42.5278 128.576 42.3128 128.747 42.0896C128.917 41.8664 129.051 41.6371 129.149 41.4017C129.246 41.1704 129.295 40.9351 129.295 40.6957C129.295 40.6835 129.293 40.6652 129.289 40.6409C129.289 40.6165 129.289 40.5922 129.289 40.5678C129.289 40.5435 129.286 40.5252 129.282 40.513C129.282 40.5009 129.282 40.5029 129.282 40.5191V40.5252C129.254 40.2899 129.213 40.0646 129.161 39.8496C129.108 39.6345 129.041 39.4154 128.96 39.1922C128.883 38.969 128.791 38.7357 128.686 38.4922C128.58 38.2446 128.463 37.9748 128.333 37.6826L130.092 36.9157C130.254 37.4026 130.406 37.8084 130.549 38.133C130.691 38.4577 130.829 38.7174 130.962 38.9122C131.1 39.107 131.238 39.2449 131.376 39.3261C131.514 39.4032 131.66 39.4417 131.815 39.4417H131.845C131.979 39.4417 132.105 39.4681 132.222 39.5209C132.34 39.5736 132.442 39.6446 132.527 39.7339C132.616 39.8191 132.685 39.9206 132.734 40.0383C132.786 40.1559 132.813 40.2797 132.813 40.4096C132.813 40.5435 132.786 40.6693 132.734 40.787C132.685 40.9046 132.616 41.0061 132.527 41.0913C132.442 41.1765 132.34 41.2435 132.222 41.2922C132.105 41.3409 131.977 41.3652 131.839 41.3652ZM130.824 40.4035C130.824 40.2696 130.851 40.1438 130.904 40.0261C130.952 39.9084 131.019 39.807 131.104 39.7217C131.19 39.6325 131.291 39.5635 131.409 39.5148C131.526 39.4661 131.652 39.4417 131.786 39.4417H132.462H132.754C132.937 39.4417 133.138 39.4336 133.357 39.4174C133.576 39.4012 133.787 39.3748 133.99 39.3383C134.193 39.3017 134.375 39.253 134.538 39.1922C134.704 39.1272 134.826 39.0461 134.903 38.9487C134.947 38.8797 134.97 38.7864 134.97 38.6687C134.97 38.4942 134.927 38.2872 134.842 38.0478C134.761 37.8084 134.663 37.5649 134.55 37.3174C134.436 37.0699 134.318 36.8325 134.197 36.6052C134.079 36.378 133.984 36.1893 133.911 36.0391L135.645 35.187C135.771 35.4061 135.893 35.6658 136.011 35.9661C136.128 36.2623 136.234 36.5687 136.327 36.8852C136.42 37.1977 136.495 37.5061 136.552 37.8104C136.609 38.1107 136.638 38.3725 136.638 38.5957C136.638 39.0055 136.564 39.3809 136.418 39.7217C136.248 40.1032 136.015 40.4197 135.718 40.6713C135.422 40.9188 135.067 41.1014 134.653 41.2191C134.531 41.2516 134.379 41.278 134.197 41.2983C134.014 41.3186 133.829 41.3328 133.643 41.3409C133.456 41.353 133.28 41.3591 133.113 41.3591C132.947 41.3632 132.817 41.3652 132.724 41.3652H131.841H131.786C131.652 41.3652 131.526 41.3409 131.409 41.2922C131.291 41.2435 131.19 41.1745 131.104 41.0852C131.019 41 130.952 40.8986 130.904 40.7809C130.851 40.6632 130.824 40.5374 130.824 40.4035ZM135.408 44.4696L134.264 43.3252L133.107 44.4817L131.938 43.307L133.119 42.1322L134.264 43.2765L135.42 42.12L136.589 43.2948L135.408 44.4696ZM134.27 43.9704L135.353 45.0539L134.264 46.1435L133.18 45.06L134.27 43.9704ZM38.2124 64.3652C37.6808 64.3652 37.1594 64.2638 36.6481 64.0609C36.1408 63.858 35.6701 63.5313 35.2359 63.0809L36.3376 61.5287C36.5365 61.7113 36.7292 61.8614 36.9159 61.9791C37.1026 62.0928 37.2811 62.182 37.4515 62.247C37.622 62.3119 37.7823 62.3565 37.9324 62.3809C38.0866 62.4052 38.2307 62.4174 38.3646 62.4174C38.4255 62.4174 38.4944 62.4154 38.5715 62.4113C38.6486 62.4072 38.7258 62.4012 38.8029 62.393C38.88 62.3809 38.955 62.3667 39.0281 62.3504C39.1011 62.3342 39.1681 62.3139 39.2289 62.2896C39.44 62.2003 39.6063 62.111 39.7281 62.0217C39.5739 61.6484 39.4055 61.2609 39.2229 60.8591C39.0443 60.4533 38.8637 60.0475 38.6811 59.6417C38.4985 59.2319 38.3179 58.8261 38.1394 58.4243C37.9608 58.0226 37.7944 57.6371 37.6402 57.2678L39.4176 56.5252L39.9594 57.84C40.1339 58.2701 40.3429 58.7814 40.5863 59.3739C40.8298 59.9623 41.1098 60.6299 41.4263 61.3765C41.4994 61.5551 41.5663 61.7113 41.6272 61.8452C41.6881 61.9791 41.7591 62.0907 41.8402 62.18C41.9255 62.2693 42.0249 62.3362 42.1385 62.3809C42.2562 62.4214 42.4063 62.4417 42.5889 62.4417C42.7188 62.4417 42.8426 62.4661 42.9602 62.5148C43.0779 62.5635 43.1794 62.6325 43.2646 62.7217C43.3539 62.807 43.4249 62.9084 43.4776 63.0261C43.5304 63.1438 43.5568 63.2696 43.5568 63.4035C43.5568 63.5374 43.5304 63.6632 43.4776 63.7809C43.4249 63.8986 43.3539 64 43.2646 64.0852C43.1794 64.1745 43.0779 64.2435 42.9602 64.2922C42.8426 64.3409 42.7188 64.3652 42.5889 64.3652C42.3414 64.3652 42.1223 64.349 41.9315 64.3165C41.7449 64.2841 41.5765 64.2374 41.4263 64.1765C41.2802 64.1197 41.1484 64.0507 41.0307 63.9696C40.9171 63.8843 40.8095 63.791 40.7081 63.6896C40.5985 63.7626 40.4829 63.8336 40.3611 63.9026C40.2394 63.9675 40.0994 64.0325 39.9411 64.0974C39.6976 64.1907 39.4339 64.2577 39.1498 64.2983C38.8698 64.3429 38.5573 64.3652 38.2124 64.3652ZM41.6231 63.4035C41.6231 63.2696 41.6474 63.1438 41.6961 63.0261C41.7448 62.9084 41.8138 62.807 41.9031 62.7217C41.9883 62.6365 42.0897 62.5696 42.2074 62.5209C42.3251 62.4681 42.4509 62.4417 42.5848 62.4417H42.9013C42.9135 62.1739 42.9541 61.8838 43.0231 61.5713C43.0961 61.2548 43.1935 60.9383 43.3152 60.6217C43.437 60.3012 43.581 59.9928 43.7474 59.6965C43.9138 59.3962 44.0964 59.1284 44.2952 58.893C44.4981 58.6577 44.7173 58.467 44.9526 58.3209C45.188 58.1707 45.4335 58.0875 45.6891 58.0713C45.961 58.0754 46.2126 58.1525 46.4439 58.3026C46.6793 58.4487 46.8822 58.6414 47.0526 58.8809C47.2231 59.1203 47.357 59.3922 47.4544 59.6965C47.5518 60.0009 47.6005 60.3093 47.6005 60.6217C47.6005 60.991 47.5193 61.3501 47.357 61.6991C47.1987 62.0481 46.9877 62.3748 46.7239 62.6791C46.4642 62.9794 46.168 63.2513 45.8352 63.4948C45.5065 63.7342 45.1718 63.931 44.8309 64.0852C44.8593 64.1826 44.9181 64.2983 45.0074 64.4322C45.1007 64.5701 45.2042 64.7081 45.3178 64.8461C45.4355 64.9841 45.5532 65.1139 45.6709 65.2357C45.7886 65.3574 45.888 65.4548 45.9691 65.5278C45.9651 65.2925 45.9996 65.051 46.0726 64.8035C46.1457 64.56 46.2471 64.3246 46.377 64.0974C46.5109 63.8701 46.6671 63.6571 46.8457 63.4583C47.0242 63.2554 47.2149 63.0788 47.4178 62.9287C47.6248 62.7786 47.8378 62.6609 48.057 62.5757C48.2761 62.4864 48.4932 62.4417 48.7083 62.4417C48.8422 62.4417 48.968 62.4681 49.0857 62.5209C49.2034 62.5696 49.3048 62.6365 49.39 62.7217C49.4793 62.807 49.5483 62.9084 49.597 63.0261C49.6497 63.1438 49.6761 63.2696 49.6761 63.4035C49.6761 63.5374 49.6497 63.6632 49.597 63.7809C49.5483 63.8986 49.4793 64 49.39 64.0852C49.3048 64.1745 49.2034 64.2435 49.0857 64.2922C48.968 64.3409 48.8422 64.3652 48.7083 64.3652H48.6839C48.5054 64.3896 48.3329 64.4484 48.1665 64.5417C48.0002 64.6391 47.852 64.7588 47.7222 64.9009C47.5964 65.047 47.4949 65.2072 47.4178 65.3817C47.3407 65.5603 47.3022 65.7409 47.3022 65.9235C47.3022 66.0046 47.3083 66.0797 47.3205 66.1487C47.3326 66.2217 47.3549 66.2948 47.3874 66.3678C47.4199 66.4409 47.4625 66.518 47.5152 66.5991C47.572 66.6803 47.6431 66.7675 47.7283 66.8609L46.6144 68.2183C46.1274 67.922 45.6993 67.6197 45.33 67.3113C44.9607 67.0029 44.6402 66.6864 44.3683 66.3617C44.1005 66.0412 43.8732 65.7145 43.6865 65.3817C43.5039 65.049 43.3538 64.7101 43.2361 64.3652H43.2118H42.5848C42.4509 64.3652 42.3251 64.3409 42.2074 64.2922C42.0897 64.2435 41.9883 64.1745 41.9031 64.0852C41.8138 64 41.7448 63.8986 41.6961 63.7809C41.6474 63.6632 41.6231 63.5374 41.6231 63.4035ZM46.0544 60.8896C46.0625 60.7759 46.0605 60.6562 46.0483 60.5304C46.0402 60.4006 46.0199 60.2768 45.9874 60.1591C45.959 60.0374 45.9184 59.9278 45.8657 59.8304C45.8129 59.733 45.748 59.66 45.6709 59.6113C45.5938 59.6519 45.5086 59.729 45.4152 59.8426C45.326 59.9562 45.2347 60.0942 45.1413 60.2565C45.048 60.4188 44.9567 60.5974 44.8674 60.7922C44.7822 60.9829 44.7051 61.1777 44.6361 61.3765C44.5671 61.5754 44.5103 61.7701 44.4657 61.9609C44.4251 62.1475 44.4028 62.3159 44.3987 62.4661C44.5732 62.4336 44.7538 62.3687 44.9405 62.2713C45.1312 62.1699 45.3057 62.0481 45.4639 61.9061C45.6263 61.76 45.7622 61.5997 45.8718 61.4252C45.9813 61.2507 46.0422 61.0722 46.0544 60.8896ZM47.7222 63.4035C47.7222 63.2777 47.7486 63.158 47.8013 63.0443C47.8541 62.9307 47.9271 62.8313 48.0205 62.7461C48.1098 62.6568 48.2173 62.5858 48.3431 62.533C48.4648 62.4803 48.5967 62.4499 48.7387 62.4417C48.9538 62.4417 49.1547 62.4072 49.3413 62.3383C49.528 62.2652 49.7045 62.1272 49.8709 61.9243C50.0373 61.7214 50.1935 61.4354 50.3396 61.0661C50.4857 60.6968 50.6257 60.2139 50.7596 59.6174L52.3787 59.8487C52.3909 59.8 52.3828 59.8264 52.3544 59.9278C52.33 60.0293 52.2996 60.1733 52.2631 60.36C52.2306 60.5426 52.1982 60.7496 52.1657 60.9809C52.1373 61.2081 52.1231 61.4272 52.1231 61.6383C52.1271 61.8452 52.1515 62.0258 52.1961 62.18C52.2448 62.3301 52.328 62.4194 52.4457 62.4478C52.5715 62.4803 52.6932 62.4559 52.8109 62.3748C52.9286 62.2896 53.0402 62.1699 53.1457 62.0157C53.2512 61.8574 53.3486 61.6748 53.4379 61.4678C53.5271 61.2568 53.6083 61.0417 53.6813 60.8226C53.7544 60.6035 53.8173 60.3884 53.87 60.1774C53.9228 59.9664 53.9634 59.7797 53.9918 59.6174L55.5987 59.8487C55.5906 59.9501 55.5764 60.0861 55.5561 60.2565C55.5358 60.4229 55.5196 60.6014 55.5074 60.7922C55.4953 60.9829 55.4892 61.1757 55.4892 61.3704C55.4932 61.5612 55.5156 61.7357 55.5561 61.8939C55.5967 62.0481 55.6596 62.1759 55.7448 62.2774C55.83 62.3748 55.9477 62.4235 56.0979 62.4235C56.2318 62.4235 56.3474 62.3788 56.4448 62.2896C56.5422 62.2003 56.6234 62.0846 56.6883 61.9426C56.7573 61.7965 56.8121 61.6322 56.8527 61.4496C56.8932 61.2629 56.9237 61.0742 56.944 60.8835C56.9642 60.6928 56.9744 60.5081 56.9744 60.3296C56.9744 60.147 56.9683 59.9867 56.9561 59.8487L58.5996 59.6174L58.8005 61.3339C58.8248 61.5206 58.8776 61.6829 58.9587 61.8209C59.0399 61.9588 59.1353 62.0745 59.2448 62.1678C59.3544 62.2571 59.47 62.3261 59.5918 62.3748C59.7135 62.4194 59.8292 62.4417 59.9387 62.4417H60.0118C60.1619 62.4417 60.2979 62.4661 60.4196 62.5148C60.5454 62.5635 60.6529 62.6325 60.7422 62.7217C60.8315 62.807 60.9005 62.9084 60.9492 63.0261C60.9979 63.1438 61.0222 63.2696 61.0222 63.4035C61.0222 63.5374 60.9979 63.6632 60.9492 63.7809C60.9005 63.8986 60.8295 64 60.7361 64.0852C60.6469 64.1704 60.5332 64.2374 60.3953 64.2861C60.2613 64.3388 60.1092 64.3652 59.9387 64.3652C59.5451 64.3652 59.1738 64.2962 58.8248 64.1583C58.4758 64.0203 58.1735 63.787 57.9179 63.4583C57.8935 63.4907 57.8692 63.5191 57.8448 63.5435C57.8205 63.5678 57.7982 63.5922 57.7779 63.6165V63.6104C57.5587 63.8417 57.3051 64.0243 57.017 64.1583C56.7329 64.2962 56.4266 64.3652 56.0979 64.3652C55.7286 64.3652 55.3877 64.2861 55.0753 64.1278C54.7669 63.9696 54.5092 63.7545 54.3022 63.4826C54.0587 63.7504 53.7828 63.9675 53.4744 64.1339C53.166 64.3003 52.8271 64.3835 52.4579 64.3835C52.1129 64.3835 51.7924 64.3064 51.4961 64.1522C51.1999 63.998 50.9544 63.787 50.7596 63.5191C50.5405 63.8235 50.2686 64.0406 49.944 64.1704C49.6234 64.3003 49.2257 64.3652 48.7509 64.3652C48.5967 64.3652 48.4567 64.3388 48.3309 64.2861C48.2051 64.2374 48.0976 64.1704 48.0083 64.0852C47.919 64 47.85 63.8986 47.8013 63.7809C47.7486 63.6632 47.7222 63.5374 47.7222 63.4035ZM57.1387 57.14L55.97 58.3148L54.8135 57.1583L53.6692 58.3026L52.4883 57.1278L53.657 55.953L54.8135 57.1096L55.9579 55.9652L57.1387 57.14ZM53.73 55.3748L54.8135 54.2913L55.9031 55.3809L54.8196 56.4643L53.73 55.3748ZM59.1626 63.4035C59.1626 63.2696 59.1869 63.1458 59.2356 63.0322C59.2843 62.9186 59.3513 62.8191 59.4365 62.7339C59.5217 62.6487 59.6232 62.5817 59.7408 62.533C59.8545 62.4803 59.9782 62.4499 60.1121 62.4417C60.384 62.4417 60.6194 62.389 60.8182 62.2835C61.0211 62.178 61.1997 62.04 61.3539 61.8696C61.5081 61.6991 61.6461 61.5084 61.7678 61.2974C61.8895 61.0864 62.0052 60.8754 62.1148 60.6643V60.6704C62.2203 60.4513 62.3319 60.2342 62.4495 60.0191C62.5713 59.8041 62.7032 59.6052 62.8452 59.4226C63.0643 59.167 63.3098 58.9701 63.5817 58.8322C63.8536 58.6901 64.1437 58.6191 64.4521 58.6191C64.8174 58.6191 65.1481 58.6942 65.4443 58.8443C65.7446 58.9945 66.0165 59.2096 66.26 59.4896C66.4426 59.7087 66.5907 59.9603 66.7043 60.2443C66.8179 60.5243 66.893 60.8226 66.9295 61.1391V61.127C66.9539 61.2852 66.9661 61.4658 66.9661 61.6687C66.9661 61.8878 66.9458 62.1029 66.9052 62.3139C66.8687 62.5209 66.8159 62.7177 66.7469 62.9043C66.613 63.2452 66.4203 63.5313 66.1687 63.7626C65.9211 63.9899 65.6513 64.1461 65.3591 64.2313C65.2617 64.2597 65.1643 64.278 65.0669 64.2861C64.9736 64.2983 64.8742 64.3043 64.7687 64.3043C64.5861 64.3043 64.3913 64.282 64.1843 64.2374C63.9814 64.1928 63.7806 64.1319 63.5817 64.0548C63.5006 64.0183 63.4092 63.9757 63.3078 63.927C63.2063 63.8742 63.0988 63.8174 62.9852 63.7565C62.8756 63.6957 62.7661 63.6328 62.6565 63.5678C62.5469 63.5029 62.4455 63.44 62.3521 63.3791C62.1898 63.5293 62.0275 63.6652 61.8652 63.787C61.7029 63.9087 61.5324 64.0122 61.3539 64.0974C61.1753 64.1826 60.9846 64.2475 60.7817 64.2922C60.5788 64.3409 60.3577 64.3652 60.1182 64.3652C59.9843 64.3652 59.8606 64.3388 59.7469 64.2861C59.6292 64.2374 59.5278 64.1704 59.4426 64.0852C59.3533 64 59.2843 63.8986 59.2356 63.7809C59.1869 63.6632 59.1626 63.5374 59.1626 63.4035ZM63.4782 61.8026C63.604 61.8838 63.7521 61.9629 63.9226 62.04C64.0971 62.1171 64.2695 62.1861 64.44 62.247C64.6104 62.3078 64.7666 62.3586 64.9087 62.3991C65.0548 62.4357 65.1643 62.4539 65.2374 62.4539C65.2536 62.4539 65.2698 62.4539 65.2861 62.4539C65.3063 62.4499 65.3266 62.4458 65.3469 62.4417C65.3956 62.4296 65.4423 62.3687 65.4869 62.2591C65.5356 62.1455 65.5539 61.9913 65.5417 61.7965C65.5417 61.6667 65.5052 61.5246 65.4321 61.3704C65.3591 61.2122 65.2637 61.0661 65.1461 60.9322C65.0284 60.7942 64.8924 60.6806 64.7382 60.5913C64.5881 60.498 64.4339 60.4513 64.2756 60.4513C64.2188 60.4513 64.1458 60.5325 64.0565 60.6948C63.9672 60.8571 63.8374 61.0986 63.6669 61.4191V61.413L63.4782 61.8026ZM75.3482 68.5591C75.0682 68.5591 74.7801 68.5449 74.4838 68.5165C74.1917 68.4922 73.9015 68.4414 73.6134 68.3643C73.3253 68.2913 73.0473 68.1899 72.7795 68.06C72.5117 67.9301 72.2621 67.7617 72.0308 67.5548C71.7995 67.3519 71.5986 67.1267 71.4282 66.8791C71.2618 66.6357 71.1238 66.3759 71.0143 66.1C70.9047 65.8241 70.8215 65.5359 70.7647 65.2357C70.7119 64.9354 70.6856 64.629 70.6856 64.3165C70.6856 63.651 70.7911 62.9794 71.0021 62.3017C71.2172 61.6241 71.5337 60.9687 71.9517 60.3357L73.3212 61.3217C73.2401 61.4313 73.1447 61.5957 73.0351 61.8148C72.9256 62.0339 72.8201 62.2835 72.7186 62.5635C72.6172 62.8435 72.5319 63.1417 72.463 63.4583C72.394 63.7707 72.3595 64.073 72.3595 64.3652C72.3595 64.702 72.4346 65.0064 72.5847 65.2783C72.7389 65.5501 72.9418 65.7835 73.1934 65.9783C73.449 66.173 73.7412 66.3252 74.0699 66.4348C74.4027 66.5443 74.7476 66.6032 75.1047 66.6113C75.3928 66.6154 75.6728 66.591 75.9447 66.5383C76.2166 66.4855 76.4743 66.4084 76.7177 66.307C76.9612 66.2055 77.1824 66.0817 77.3812 65.9357C77.5841 65.7896 77.7566 65.6252 77.8986 65.4426C78.0447 65.2641 78.1543 65.0693 78.2273 64.8583C78.3044 64.6472 78.3369 64.4261 78.3247 64.1948C78.3166 64.0203 78.2841 63.8235 78.2273 63.6043C78.1705 63.3852 78.1015 63.162 78.0204 62.9348C77.9433 62.7035 77.856 62.4762 77.7586 62.253C77.6653 62.0299 77.576 61.8249 77.4908 61.6383C77.4096 61.4475 77.3386 61.2852 77.2777 61.1513C77.2169 61.0174 77.1783 60.9261 77.1621 60.8774L78.8177 59.9583C78.8299 59.9745 78.8644 60.0475 78.9212 60.1774C78.9821 60.3072 79.0531 60.4757 79.1343 60.6826C79.2195 60.8855 79.3088 61.1188 79.4021 61.3826C79.4954 61.6464 79.5827 61.9223 79.6638 62.2104C79.749 62.4986 79.8221 62.7907 79.883 63.087C79.9438 63.3832 79.9824 63.6652 79.9986 63.933C80.0027 63.9655 80.0047 64.0041 80.0047 64.0487C80.0047 64.0974 80.0047 64.138 80.0047 64.1704C80.0047 64.5316 79.9641 64.8907 79.883 65.2478C79.8018 65.6049 79.676 65.9458 79.5056 66.2704C79.3392 66.5991 79.1282 66.9014 78.8725 67.1774C78.6209 67.4574 78.3227 67.6988 77.9777 67.9017C77.6328 68.1087 77.2412 68.269 76.803 68.3826C76.3647 68.5003 75.8798 68.5591 75.3482 68.5591ZM75.3482 58.5096L76.6995 59.8609L75.3482 61.2122L73.9969 59.8609L75.3482 58.5096ZM84.04 64.3652C83.5409 64.3652 83.1127 64.3023 82.7556 64.1765C82.3985 64.0548 82.0901 63.8661 81.8304 63.6104C81.6681 63.4481 81.5423 63.2777 81.453 63.0991C81.3678 62.9206 81.3049 62.7461 81.2643 62.5757C81.2278 62.4012 81.2055 62.2368 81.1974 62.0826C81.1933 61.9284 81.1913 61.7965 81.1913 61.687V61.5957C81.1954 61.4455 81.1994 61.2304 81.2035 60.9504C81.2116 60.6664 81.2156 60.3336 81.2156 59.9522C81.2156 59.5707 81.2136 59.1507 81.2096 58.6922C81.2055 58.2336 81.1933 57.7771 81.173 57.3226C81.1568 56.8641 81.1304 56.4238 81.0939 56.0017C81.0614 55.5797 81.0148 55.2125 80.9539 54.9L82.7739 54.3461C82.8267 54.6139 82.8693 54.9304 82.9017 55.2957C82.9342 55.6568 82.9606 56.0362 82.9809 56.4339C83.0052 56.8316 83.0214 57.2313 83.0296 57.633C83.0417 58.0348 83.0499 58.4081 83.0539 58.753C83.058 59.0574 83.0458 59.3557 83.0174 59.6478C82.993 59.9359 82.9727 60.22 82.9565 60.5C82.9403 60.7759 82.9403 61.0458 82.9565 61.3096C82.9768 61.5693 83.0336 61.8229 83.127 62.0704C83.1635 62.1638 83.2081 62.2348 83.2609 62.2835C83.3177 62.3322 83.3826 62.3687 83.4556 62.393C83.5287 62.4133 83.6078 62.4255 83.693 62.4296C83.7823 62.4336 83.8797 62.4357 83.9852 62.4357H84.04C84.1699 62.4357 84.2936 62.462 84.4113 62.5148C84.529 62.5675 84.6304 62.6386 84.7156 62.7278C84.8049 62.813 84.8759 62.9145 84.9287 63.0322C84.9814 63.1499 85.0078 63.2736 85.0078 63.4035C85.0078 63.5374 84.9814 63.6632 84.9287 63.7809C84.8759 63.8986 84.8049 64 84.7156 64.0852C84.6304 64.1745 84.529 64.2435 84.4113 64.2922C84.2936 64.3409 84.1699 64.3652 84.04 64.3652ZM83.0321 63.4096C83.0321 63.2716 83.0564 63.1438 83.1051 63.0261C83.1538 62.9084 83.2248 62.807 83.3182 62.7217C83.4074 62.6325 83.515 62.5635 83.6408 62.5148C83.7625 62.4661 83.9005 62.4417 84.0547 62.4417H84.3956H84.6938C84.913 62.4417 85.1544 62.4397 85.4182 62.4357C85.6819 62.4275 85.9356 62.4072 86.179 62.3748C86.4266 62.3383 86.6477 62.2855 86.8425 62.2165C87.0414 62.1475 87.1854 62.0522 87.2747 61.9304C87.3964 61.7438 87.4573 61.5307 87.4573 61.2913C87.4573 61.2101 87.4492 61.129 87.433 61.0478C87.4208 60.9626 87.4045 60.8754 87.3843 60.7861C87.3558 60.6846 87.295 60.5629 87.2016 60.4209C87.1124 60.2748 86.9967 60.1165 86.8547 59.9461C86.7127 59.7716 86.5503 59.589 86.3677 59.3983C86.1851 59.2035 85.9903 59.0067 85.7834 58.8078C85.5764 58.6049 85.3593 58.4041 85.1321 58.2052C84.9048 58.0064 84.6776 57.8136 84.4503 57.627L84.639 55.9713L89.7521 53.6948L90.4886 55.3261L86.4469 57.2009C86.6457 57.3388 86.8506 57.5032 87.0616 57.6939C87.2727 57.8846 87.4776 58.0936 87.6764 58.3209C87.8753 58.5441 88.0619 58.7814 88.2364 59.033C88.4109 59.2846 88.5631 59.5423 88.693 59.8061C88.8228 60.0699 88.9243 60.3357 88.9973 60.6035C89.0744 60.8713 89.1109 61.133 89.1069 61.3887C89.1028 61.693 89.0622 61.9771 88.9851 62.2409C88.908 62.5006 88.8127 62.7339 88.699 62.9409C88.277 63.6957 87.5811 64.1562 86.6112 64.3226L86.6173 64.3165C86.5077 64.3368 86.4043 64.351 86.3069 64.3591C86.2095 64.3672 86.1141 64.3713 86.0208 64.3713L84.0547 64.3652C83.9045 64.3652 83.7666 64.3409 83.6408 64.2922C83.515 64.2435 83.4074 64.1745 83.3182 64.0852C83.2289 64 83.1599 63.9006 83.1112 63.787C83.0585 63.6693 83.0321 63.5435 83.0321 63.4096ZM89.5086 53.0617L84.4686 55.1922L84.5173 54.2791L89.1738 52.3374L89.5086 53.0617ZM94.9112 64.3652C94.822 64.3652 94.6962 64.3591 94.5338 64.347C94.3715 64.3348 94.197 64.2901 94.0104 64.213C93.9211 64.7162 93.7527 65.193 93.5051 65.6435C93.2617 66.098 92.9593 66.522 92.5982 66.9157C92.237 67.3133 91.8251 67.6786 91.3625 68.0113C90.8999 68.3441 90.4069 68.6423 89.8834 68.9061L88.7695 67.3661C89.0576 67.22 89.3478 67.0597 89.6399 66.8852C89.9321 66.7148 90.2101 66.5322 90.4738 66.3374C90.7417 66.1467 90.9892 65.9458 91.2164 65.7348C91.4478 65.5278 91.6486 65.3128 91.8191 65.0896C91.9895 64.8664 92.1234 64.6371 92.2208 64.4017C92.3182 64.1704 92.3669 63.9351 92.3669 63.6957C92.3669 63.6835 92.3649 63.6652 92.3608 63.6409C92.3608 63.6165 92.3608 63.5922 92.3608 63.5678C92.3608 63.5435 92.3588 63.5252 92.3547 63.513C92.3547 63.5009 92.3547 63.5029 92.3547 63.5191V63.5252C92.3263 63.2899 92.2857 63.0646 92.233 62.8496C92.1802 62.6345 92.1133 62.4154 92.0321 62.1922C91.955 61.969 91.8637 61.7357 91.7582 61.4922C91.6527 61.2446 91.535 60.9748 91.4051 60.6826L93.1643 59.9157C93.3266 60.4026 93.4788 60.8084 93.6208 61.133C93.7628 61.4577 93.9008 61.7174 94.0347 61.9122C94.1727 62.107 94.3106 62.2449 94.4486 62.3261C94.5866 62.4032 94.7327 62.4417 94.8869 62.4417H94.9173C95.0512 62.4417 95.177 62.4681 95.2947 62.5209C95.4124 62.5736 95.5138 62.6446 95.5991 62.7339C95.6883 62.8191 95.7573 62.9206 95.806 63.0383C95.8588 63.1559 95.8851 63.2797 95.8851 63.4096C95.8851 63.5435 95.8588 63.6693 95.806 63.787C95.7573 63.9046 95.6883 64.0061 95.5991 64.0913C95.5138 64.1765 95.4124 64.2435 95.2947 64.2922C95.177 64.3409 95.0492 64.3652 94.9112 64.3652ZM93.8906 63.4035C93.8906 63.2696 93.915 63.1438 93.9637 63.0261C94.0124 62.9084 94.0814 62.807 94.1706 62.7217C94.2559 62.6365 94.3573 62.5696 94.475 62.5209C94.5927 62.4681 94.7185 62.4417 94.8524 62.4417H95.1689C95.1811 62.1739 95.2217 61.8838 95.2906 61.5713C95.3637 61.2548 95.4611 60.9383 95.5828 60.6217C95.7046 60.3012 95.8486 59.9928 96.015 59.6965C96.1814 59.3962 96.364 59.1284 96.5628 58.893C96.7657 58.6577 96.9848 58.467 97.2202 58.3209C97.4556 58.1707 97.7011 58.0875 97.9567 58.0713C98.2286 58.0754 98.4802 58.1525 98.7115 58.3026C98.9469 58.4487 99.1498 58.6414 99.3202 58.8809C99.4906 59.1203 99.6246 59.3922 99.7219 59.6965C99.8193 60.0009 99.868 60.3093 99.868 60.6217C99.868 60.991 99.7869 61.3501 99.6246 61.6991C99.4663 62.0481 99.2553 62.3748 98.9915 62.6791C98.7318 62.9794 98.4356 63.2513 98.1028 63.4948C97.7741 63.7342 97.4393 63.931 97.0985 64.0852C97.1269 64.1826 97.1857 64.2983 97.275 64.4322C97.3683 64.5701 97.4718 64.7081 97.5854 64.8461C97.7031 64.9841 97.8208 65.1139 97.9385 65.2357C98.0561 65.3574 98.1556 65.4548 98.2367 65.5278C98.2327 65.2925 98.2672 65.051 98.3402 64.8035C98.4132 64.56 98.5147 64.3246 98.6446 64.0974C98.7785 63.8701 98.9347 63.6571 99.1132 63.4583C99.2918 63.2554 99.4825 63.0788 99.6854 62.9287C99.8924 62.7786 100.105 62.6609 100.325 62.5757C100.544 62.4864 100.761 62.4417 100.976 62.4417C101.11 62.4417 101.236 62.4681 101.353 62.5209C101.471 62.5696 101.572 62.6365 101.658 62.7217C101.747 62.807 101.816 62.9084 101.865 63.0261C101.917 63.1438 101.944 63.2696 101.944 63.4035C101.944 63.5374 101.917 63.6632 101.865 63.7809C101.816 63.8986 101.747 64 101.658 64.0852C101.572 64.1745 101.471 64.2435 101.353 64.2922C101.236 64.3409 101.11 64.3652 100.976 64.3652H100.952C100.773 64.3896 100.6 64.4484 100.434 64.5417C100.268 64.6391 100.12 64.7588 99.9898 64.9009C99.864 65.047 99.7625 65.2072 99.6854 65.3817C99.6083 65.5603 99.5698 65.7409 99.5698 65.9235C99.5698 66.0046 99.5759 66.0797 99.588 66.1487C99.6002 66.2217 99.6225 66.2948 99.655 66.3678C99.6875 66.4409 99.7301 66.518 99.7828 66.5991C99.8396 66.6803 99.9106 66.7675 99.9959 66.8609L98.8819 68.2183C98.395 67.922 97.9669 67.6197 97.5976 67.3113C97.2283 67.0029 96.9077 66.6864 96.6359 66.3617C96.368 66.0412 96.1408 65.7145 95.9541 65.3817C95.7715 65.049 95.6214 64.7101 95.5037 64.3652H95.4793H94.8524C94.7185 64.3652 94.5927 64.3409 94.475 64.2922C94.3573 64.2435 94.2559 64.1745 94.1706 64.0852C94.0814 64 94.0124 63.8986 93.9637 63.7809C93.915 63.6632 93.8906 63.5374 93.8906 63.4035ZM98.3219 60.8896C98.3301 60.7759 98.328 60.6562 98.3159 60.5304C98.3077 60.4006 98.2875 60.2768 98.255 60.1591C98.2266 60.0374 98.186 59.9278 98.1332 59.8304C98.0805 59.733 98.0156 59.66 97.9385 59.6113C97.8614 59.6519 97.7761 59.729 97.6828 59.8426C97.5935 59.9562 97.5022 60.0942 97.4089 60.2565C97.3156 60.4188 97.2243 60.5974 97.135 60.7922C97.0498 60.9829 96.9727 61.1777 96.9037 61.3765C96.8347 61.5754 96.7779 61.7701 96.7332 61.9609C96.6927 62.1475 96.6704 62.3159 96.6663 62.4661C96.8408 62.4336 97.0214 62.3687 97.208 62.2713C97.3988 62.1699 97.5732 62.0481 97.7315 61.9061C97.8938 61.76 98.0298 61.5997 98.1393 61.4252C98.2489 61.2507 98.3098 61.0722 98.3219 60.8896ZM100.014 63.4035C100.014 63.2696 100.038 63.1458 100.087 63.0322C100.136 62.9186 100.203 62.8191 100.288 62.7339C100.373 62.6487 100.475 62.5817 100.592 62.533C100.706 62.4803 100.83 62.4499 100.964 62.4417C101.236 62.4417 101.471 62.389 101.67 62.2835C101.873 62.178 102.051 62.04 102.205 61.8696C102.36 61.6991 102.498 61.5084 102.619 61.2974C102.741 61.0864 102.857 60.8754 102.966 60.6643V60.6704C103.072 60.4513 103.183 60.2342 103.301 60.0191C103.423 59.8041 103.555 59.6052 103.697 59.4226C103.916 59.167 104.161 58.9701 104.433 58.8322C104.705 58.6901 104.995 58.6191 105.304 58.6191C105.669 58.6191 106 58.6942 106.296 58.8443C106.596 58.9945 106.868 59.2096 107.112 59.4896C107.294 59.7087 107.442 59.9603 107.556 60.2443C107.67 60.5243 107.745 60.8226 107.781 61.1391V61.127C107.805 61.2852 107.818 61.4658 107.818 61.6687C107.818 61.8878 107.797 62.1029 107.757 62.3139C107.72 62.5209 107.667 62.7177 107.598 62.9043C107.465 63.2452 107.272 63.5313 107.02 63.7626C106.773 63.9899 106.503 64.1461 106.211 64.2313C106.113 64.2597 106.016 64.278 105.918 64.2861C105.825 64.2983 105.726 64.3043 105.62 64.3043C105.438 64.3043 105.243 64.282 105.036 64.2374C104.833 64.1928 104.632 64.1319 104.433 64.0548C104.352 64.0183 104.261 63.9757 104.159 63.927C104.058 63.8742 103.95 63.8174 103.837 63.7565C103.727 63.6957 103.618 63.6328 103.508 63.5678C103.398 63.5029 103.297 63.44 103.204 63.3791C103.041 63.5293 102.879 63.6652 102.717 63.787C102.554 63.9087 102.384 64.0122 102.205 64.0974C102.027 64.1826 101.836 64.2475 101.633 64.2922C101.43 64.3409 101.209 64.3652 100.97 64.3652C100.836 64.3652 100.712 64.3388 100.598 64.2861C100.481 64.2374 100.379 64.1704 100.294 64.0852C100.205 64 100.136 63.8986 100.087 63.7809C100.038 63.6632 100.014 63.5374 100.014 63.4035ZM104.33 61.8026C104.456 61.8838 104.604 61.9629 104.774 62.04C104.949 62.1171 105.121 62.1861 105.292 62.247C105.462 62.3078 105.618 62.3586 105.76 62.3991C105.906 62.4357 106.016 62.4539 106.089 62.4539C106.105 62.4539 106.121 62.4539 106.138 62.4539C106.158 62.4499 106.178 62.4458 106.198 62.4417C106.247 62.4296 106.294 62.3687 106.338 62.2591C106.387 62.1455 106.405 61.9913 106.393 61.7965C106.393 61.6667 106.357 61.5246 106.284 61.3704C106.211 61.2122 106.115 61.0661 105.998 60.9322C105.88 60.7942 105.744 60.6806 105.59 60.5913C105.44 60.498 105.285 60.4513 105.127 60.4513C105.07 60.4513 104.997 60.5325 104.908 60.6948C104.819 60.8571 104.689 61.0986 104.518 61.4191V61.413L104.33 61.8026ZM117.192 62.4113C117.289 62.4154 117.387 62.4194 117.484 62.4235C117.586 62.4235 117.681 62.4235 117.77 62.4235C118.091 62.4235 118.397 62.4113 118.689 62.387C118.981 62.3626 119.251 62.3301 119.499 62.2896C119.746 62.249 119.964 62.2064 120.15 62.1617C120.341 62.113 120.493 62.0664 120.607 62.0217H120.601C120.812 61.9325 120.966 61.8533 121.063 61.7843C121.161 61.7154 121.226 61.6626 121.258 61.6261C121.319 61.5571 121.361 61.4861 121.386 61.413C121.414 61.3359 121.428 61.2568 121.428 61.1757C121.428 61.0012 121.361 60.8145 121.228 60.6157C121.094 60.4128 120.921 60.2078 120.71 60.0009C120.503 59.7939 120.272 59.587 120.016 59.38C119.765 59.173 119.519 58.9742 119.28 58.7835L118.008 57.7365L118.208 55.9348L123.699 53.5426L124.454 55.3322L120.162 57.1643C120.39 57.3551 120.619 57.5519 120.85 57.7548C121.086 57.9577 121.311 58.1667 121.526 58.3817C121.741 58.5928 121.942 58.8099 122.128 59.033C122.319 59.2522 122.484 59.4774 122.621 59.7087C122.764 59.9359 122.875 60.1672 122.956 60.4026C123.037 60.638 123.078 60.8774 123.078 61.1209C123.078 61.3887 123.031 61.6606 122.938 61.9365C122.849 62.2125 122.701 62.4965 122.494 62.7887H122.5C122.475 62.8252 122.433 62.878 122.372 62.947C122.315 63.0159 122.236 63.093 122.135 63.1783C122.037 63.2635 121.915 63.3548 121.769 63.4522C121.623 63.5455 121.451 63.6388 121.252 63.7322C120.692 63.9797 120.128 64.1461 119.56 64.2313C118.992 64.3165 118.413 64.3591 117.825 64.3591H117.697C117.612 64.3591 117.525 64.3591 117.435 64.3591C117.346 64.3591 117.259 64.3551 117.174 64.347C116.415 64.3388 115.735 64.2901 115.135 64.2009C114.534 64.1157 114.006 63.9878 113.552 63.8174C112.631 63.4603 111.998 62.9368 111.653 62.247V62.253C111.458 61.8757 111.361 61.4577 111.361 60.9991C111.361 60.8003 111.385 60.5852 111.434 60.3539C111.482 60.1226 111.545 59.8974 111.622 59.6783C111.671 59.5646 111.712 59.4693 111.744 59.3922C111.781 59.3151 111.815 59.2441 111.848 59.1791C111.88 59.1142 111.917 59.0493 111.957 58.9843C111.998 58.9194 112.048 58.8403 112.109 58.747L113.552 59.8C113.495 59.9014 113.432 60.0049 113.363 60.1104C113.298 60.2159 113.237 60.3235 113.181 60.433C113.128 60.5426 113.083 60.6542 113.047 60.7678C113.01 60.8814 112.992 60.9951 112.992 61.1087C112.992 61.267 113.047 61.409 113.156 61.5348C113.27 61.6565 113.424 61.7641 113.619 61.8574C113.818 61.9467 114.049 62.0238 114.313 62.0887C114.581 62.1536 114.869 62.2084 115.177 62.253C115.49 62.2977 115.816 62.3322 116.157 62.3565C116.498 62.3809 116.841 62.3991 117.186 62.4113H117.192ZM128.817 64.3652C128.728 64.3652 128.602 64.3591 128.44 64.347C128.278 64.3348 128.103 64.2901 127.917 64.213C127.827 64.7162 127.659 65.193 127.411 65.6435C127.168 66.098 126.866 66.522 126.504 66.9157C126.143 67.3133 125.731 67.6786 125.269 68.0113C124.806 68.3441 124.313 68.6423 123.79 68.9061L122.676 67.3661C122.964 67.22 123.254 67.0597 123.546 66.8852C123.838 66.7148 124.116 66.5322 124.38 66.3374C124.648 66.1467 124.895 65.9458 125.123 65.7348C125.354 65.5278 125.555 65.3128 125.725 65.0896C125.896 64.8664 126.03 64.6371 126.127 64.4017C126.224 64.1704 126.273 63.9351 126.273 63.6957C126.273 63.6835 126.271 63.6652 126.267 63.6409C126.267 63.6165 126.267 63.5922 126.267 63.5678C126.267 63.5435 126.265 63.5252 126.261 63.513C126.261 63.5009 126.261 63.5029 126.261 63.5191V63.5252C126.233 63.2899 126.192 63.0646 126.139 62.8496C126.086 62.6345 126.02 62.4154 125.938 62.1922C125.861 61.969 125.77 61.7357 125.664 61.4922C125.559 61.2446 125.441 60.9748 125.311 60.6826L127.071 59.9157C127.233 60.4026 127.385 60.8084 127.527 61.133C127.669 61.4577 127.807 61.7174 127.941 61.9122C128.079 62.107 128.217 62.2449 128.355 62.3261C128.493 62.4032 128.639 62.4417 128.793 62.4417H128.824C128.957 62.4417 129.083 62.4681 129.201 62.5209C129.319 62.5736 129.42 62.6446 129.505 62.7339C129.595 62.8191 129.664 62.9206 129.712 63.0383C129.765 63.1559 129.791 63.2797 129.791 63.4096C129.791 63.5435 129.765 63.6693 129.712 63.787C129.664 63.9046 129.595 64.0061 129.505 64.0913C129.42 64.1765 129.319 64.2435 129.201 64.2922C129.083 64.3409 128.955 64.3652 128.817 64.3652ZM127.797 63.4035C127.797 63.2696 127.821 63.1438 127.87 63.0261C127.919 62.9084 127.988 62.807 128.077 62.7217C128.162 62.6365 128.264 62.5696 128.381 62.5209C128.499 62.4681 128.625 62.4417 128.759 62.4417H129.075C129.087 62.1739 129.128 61.8838 129.197 61.5713C129.27 61.2548 129.367 60.9383 129.489 60.6217C129.611 60.3012 129.755 59.9928 129.921 59.6965C130.088 59.3962 130.27 59.1284 130.469 58.893C130.672 58.6577 130.891 58.467 131.126 58.3209C131.362 58.1707 131.607 58.0875 131.863 58.0713C132.135 58.0754 132.386 58.1525 132.618 58.3026C132.853 58.4487 133.056 58.6414 133.226 58.8809C133.397 59.1203 133.531 59.3922 133.628 59.6965C133.726 60.0009 133.774 60.3093 133.774 60.6217C133.774 60.991 133.693 61.3501 133.531 61.6991C133.373 62.0481 133.162 62.3748 132.898 62.6791C132.638 62.9794 132.342 63.2513 132.009 63.4948C131.68 63.7342 131.346 63.931 131.005 64.0852C131.033 64.1826 131.092 64.2983 131.181 64.4322C131.275 64.5701 131.378 64.7081 131.492 64.8461C131.609 64.9841 131.727 65.1139 131.845 65.2357C131.962 65.3574 132.062 65.4548 132.143 65.5278C132.139 65.2925 132.173 65.051 132.246 64.8035C132.319 64.56 132.421 64.3246 132.551 64.0974C132.685 63.8701 132.841 63.6571 133.019 63.4583C133.198 63.2554 133.389 63.0788 133.592 62.9287C133.799 62.7786 134.012 62.6609 134.231 62.5757C134.45 62.4864 134.667 62.4417 134.882 62.4417C135.016 62.4417 135.142 62.4681 135.259 62.5209C135.377 62.5696 135.479 62.6365 135.564 62.7217C135.653 62.807 135.722 62.9084 135.771 63.0261C135.824 63.1438 135.85 63.2696 135.85 63.4035C135.85 63.5374 135.824 63.6632 135.771 63.7809C135.722 63.8986 135.653 64 135.564 64.0852C135.479 64.1745 135.377 64.2435 135.259 64.2922C135.142 64.3409 135.016 64.3652 134.882 64.3652H134.858C134.679 64.3896 134.507 64.4484 134.34 64.5417C134.174 64.6391 134.026 64.7588 133.896 64.9009C133.77 65.047 133.669 65.2072 133.592 65.3817C133.515 65.5603 133.476 65.7409 133.476 65.9235C133.476 66.0046 133.482 66.0797 133.494 66.1487C133.506 66.2217 133.529 66.2948 133.561 66.3678C133.594 66.4409 133.636 66.518 133.689 66.5991C133.746 66.6803 133.817 66.7675 133.902 66.8609L132.788 68.2183C132.301 67.922 131.873 67.6197 131.504 67.3113C131.135 67.0029 130.814 66.6864 130.542 66.3617C130.274 66.0412 130.047 65.7145 129.86 65.3817C129.678 65.049 129.528 64.7101 129.41 64.3652H129.386H128.759C128.625 64.3652 128.499 64.3409 128.381 64.2922C128.264 64.2435 128.162 64.1745 128.077 64.0852C127.988 64 127.919 63.8986 127.87 63.7809C127.821 63.6632 127.797 63.5374 127.797 63.4035ZM132.228 60.8896C132.236 60.7759 132.234 60.6562 132.222 60.5304C132.214 60.4006 132.194 60.2768 132.161 60.1591C132.133 60.0374 132.092 59.9278 132.039 59.8304C131.987 59.733 131.922 59.66 131.845 59.6113C131.768 59.6519 131.682 59.729 131.589 59.8426C131.5 59.9562 131.408 60.0942 131.315 60.2565C131.222 60.4188 131.131 60.5974 131.041 60.7922C130.956 60.9829 130.879 61.1777 130.81 61.3765C130.741 61.5754 130.684 61.7701 130.639 61.9609C130.599 62.1475 130.577 62.3159 130.573 62.4661C130.747 62.4336 130.928 62.3687 131.114 62.2713C131.305 62.1699 131.479 62.0481 131.638 61.9061C131.8 61.76 131.936 61.5997 132.046 61.4252C132.155 61.2507 132.216 61.0722 132.228 60.8896ZM133.951 63.4096C133.951 63.2838 133.975 63.1641 134.024 63.0504C134.073 62.9368 134.137 62.8374 134.219 62.7522C134.3 62.6629 134.397 62.5919 134.511 62.5391C134.62 62.4823 134.738 62.4499 134.864 62.4417C135.168 62.4417 135.424 62.3606 135.631 62.1983C135.842 62.0319 136.022 61.8148 136.173 61.547C136.323 61.2791 136.451 60.9748 136.556 60.6339C136.662 60.289 136.761 59.938 136.854 59.5809L138.473 59.873C138.441 60.0151 138.4 60.1814 138.352 60.3722C138.307 60.5588 138.264 60.7536 138.224 60.9565C138.187 61.1594 138.157 61.3583 138.133 61.553C138.108 61.7438 138.102 61.9122 138.114 62.0583C138.131 62.2043 138.169 62.32 138.23 62.4052C138.291 62.4864 138.384 62.5168 138.51 62.4965C138.672 62.4843 138.818 62.4275 138.948 62.3261C139.082 62.2246 139.202 62.0948 139.307 61.9365C139.413 61.7783 139.506 61.5997 139.587 61.4009C139.669 61.202 139.737 60.9971 139.794 60.7861C139.855 60.5751 139.904 60.3661 139.94 60.1591C139.981 59.9522 140.013 59.7635 140.038 59.593L141.584 59.8548C141.58 59.9765 141.566 60.1267 141.541 60.3052C141.517 60.4838 141.495 60.6725 141.474 60.8713C141.454 61.0661 141.444 61.2629 141.444 61.4617C141.444 61.6565 141.466 61.833 141.511 61.9913C141.555 62.1455 141.629 62.2713 141.73 62.3687C141.835 62.4661 141.982 62.5148 142.168 62.5148C142.282 62.5148 142.397 62.4965 142.515 62.46C142.633 62.4194 142.738 62.3646 142.832 62.2957C142.925 62.2226 143 62.1374 143.057 62.04C143.118 61.9426 143.148 61.833 143.148 61.7113C143.148 61.5003 143.114 61.269 143.045 61.0174C142.976 60.7617 142.893 60.5101 142.795 60.2626C142.698 60.011 142.594 59.7736 142.485 59.5504C142.379 59.3272 142.29 59.1386 142.217 58.9843L143.726 58.1383C143.751 58.191 143.793 58.2843 143.854 58.4183C143.915 58.5481 143.984 58.7064 144.061 58.893C144.138 59.0797 144.217 59.2907 144.299 59.5261C144.384 59.7574 144.461 59.9988 144.53 60.2504C144.599 60.502 144.656 60.7597 144.7 61.0235C144.745 61.2872 144.767 61.5429 144.767 61.7904C144.767 62.1962 144.711 62.5614 144.597 62.8861C144.487 63.2107 144.319 63.4867 144.092 63.7139C143.869 63.9412 143.586 64.1177 143.246 64.2435C142.909 64.3693 142.513 64.4342 142.059 64.4383C141.84 64.4383 141.641 64.4159 141.462 64.3713C141.284 64.3307 141.123 64.2719 140.981 64.1948C140.839 64.1217 140.711 64.0345 140.598 63.933C140.488 63.8316 140.391 63.7241 140.306 63.6104C140.208 63.7362 140.103 63.8499 139.989 63.9513C139.88 64.0487 139.752 64.1319 139.606 64.2009C139.464 64.2739 139.303 64.3307 139.125 64.3713C138.946 64.4119 138.743 64.4342 138.516 64.4383C138.317 64.4423 138.137 64.4241 137.974 64.3835C137.816 64.347 137.67 64.2922 137.536 64.2191C137.402 64.1461 137.28 64.0588 137.171 63.9574C137.065 63.8519 136.966 63.7362 136.873 63.6104C136.787 63.7159 136.69 63.8154 136.58 63.9087C136.471 63.998 136.341 64.0771 136.191 64.1461C136.041 64.2151 135.866 64.2699 135.667 64.3104C135.469 64.351 135.237 64.3713 134.973 64.3713H134.864C134.738 64.3632 134.62 64.3328 134.511 64.28C134.397 64.2272 134.3 64.1583 134.219 64.073C134.137 63.9878 134.073 63.8884 134.024 63.7748C133.975 63.6612 133.951 63.5394 133.951 63.4096ZM142.899 56.9574L141.73 58.1322L140.573 56.9757L139.429 58.12L138.248 56.9452L139.417 55.7704L140.573 56.927L141.718 55.7826L142.899 56.9574ZM139.49 55.1922L140.573 54.1087L141.663 55.1983L140.58 56.2817L139.49 55.1922Z" fill="#303030"/>
<defs>
<linearGradient id="paint0_linear_1325_9239" x1="6.25671" y1="6.70526" x2="178.781" y2="88.7259" gradientUnits="userSpaceOnUse">
<stop stop-color="#EAEAEA"/>
<stop offset="1" stop-color="#BDBDBD"/>
</linearGradient>
</defs>
</svg>
