<svg width="136" height="76" viewBox="0 0 136 76" fill="none" xmlns="http://www.w3.org/2000/svg">
<rect x="1.22879" y="0.75" width="133.326" height="74.5" rx="9.25" fill="white" stroke="url(#paint0_linear_1325_8570)" stroke-width="1.5"/>
<path d="M52.3199 51.2709C52.2168 50.2275 51.4002 49.4156 50.3343 49.2966L40.9921 48.2662C40.6996 48.2426 40.4065 48.303 40.1471 48.4401C39.8877 48.5773 39.6728 48.7856 39.5277 49.0406C39.5268 49.0416 38.6652 50.58 38.2368 51.3169C38.1119 51.5319 38.0777 51.7878 38.1415 52.0281C38.2053 52.2685 38.362 52.4736 38.5771 52.5984C38.7921 52.7233 39.048 52.7575 39.2883 52.6937C39.5287 52.6299 39.7338 52.4732 39.8586 52.2581C40.1971 51.6741 40.8055 50.595 41.0502 50.1591L50.128 51.1603C50.218 51.1706 50.4299 51.2184 50.4505 51.4087L50.4627 51.6037C50.4871 51.8944 50.4852 52.1841 50.4599 52.4662C50.1796 55.4259 47.4739 57.9525 44.4299 58.0969C38.0389 58.4081 32.263 56.2631 28.1399 52.0819C24.0552 47.94 22.0161 42.2025 22.4005 35.9269C22.5852 32.91 25.1605 30.2578 28.1399 30.0159C28.4239 29.9944 28.7164 29.9953 29.0108 30.0234L29.1589 30.0337C29.3905 30.0591 29.4439 30.2466 29.4543 30.3544L30.343 39.3656C29.8968 39.6028 28.8168 40.1766 28.2224 40.4972C28.0088 40.6181 27.8511 40.818 27.7832 41.0539C27.7154 41.2898 27.7428 41.543 27.8595 41.7589C27.9763 41.9748 28.1731 42.1364 28.4076 42.2088C28.6422 42.2812 28.8958 42.2588 29.1139 42.1462C29.8705 41.7366 31.4221 40.9153 31.4258 40.9134C31.9621 40.6266 32.2808 40.0566 32.2339 39.4397L31.3189 30.1678C31.2121 29.1047 30.4068 28.2834 29.3605 28.1691L29.1833 28.155C28.7858 28.1186 28.386 28.1155 27.988 28.1456C24.1143 28.4606 20.7683 31.8994 20.5283 35.8106C20.1111 42.6262 22.3405 48.8719 26.8039 53.3981C31.0293 57.6806 36.8268 60 43.2411 60C43.6639 60 44.0896 59.9897 44.518 59.97C48.4583 59.7825 51.9599 56.4956 52.3255 52.6416C52.3621 52.2506 52.3639 51.8494 52.3293 51.4219L52.3199 51.2709Z" fill="#303030"/>
<path d="M28.8102 43.2178C28.6992 43.2711 28.5998 43.3458 28.5177 43.4376C28.4355 43.5294 28.3723 43.6365 28.3315 43.7527C28.2908 43.8689 28.2733 43.992 28.2802 44.115C28.287 44.238 28.3181 44.3584 28.3715 44.4694C29.1574 46.1083 30.212 47.6043 31.4915 48.8953C32.8021 50.2178 34.3303 51.3052 36.0093 52.11C36.2331 52.218 36.4906 52.2327 36.7252 52.1509C36.9598 52.0691 37.1523 51.8974 37.2604 51.6736C37.3684 51.4498 37.3831 51.1923 37.3013 50.9577C37.2194 50.723 37.0478 50.5305 36.824 50.4225C33.8633 49.0059 31.4766 46.6186 30.0608 43.6575C30.0079 43.5463 29.9334 43.4466 29.8418 43.3642C29.7502 43.2819 29.6432 43.2184 29.527 43.1776C29.4107 43.1367 29.2876 43.1192 29.1646 43.1261C29.0416 43.133 28.9211 43.1642 28.8102 43.2178ZM45.7921 15C38.7852 15 32.2518 18.7706 28.7399 24.8419C28.6741 24.9485 28.6304 25.0673 28.6112 25.1911C28.5921 25.315 28.598 25.4414 28.6286 25.5629C28.6592 25.6844 28.7138 25.7986 28.7893 25.8986C28.8647 25.9987 28.9595 26.0826 29.0679 26.1454C29.1763 26.2082 29.2963 26.2486 29.4206 26.2643C29.5449 26.2799 29.6711 26.2705 29.7917 26.2366C29.9124 26.2026 30.025 26.1448 30.1229 26.0666C30.2208 25.9884 30.302 25.8914 30.3618 25.7812C33.5408 20.2875 39.4518 16.875 45.7921 16.875C55.6143 16.875 63.6046 24.8653 63.6046 34.6875C63.6046 41.0269 60.1912 46.9387 54.6974 50.1169C54.5873 50.1766 54.4902 50.2579 54.412 50.3558C54.3338 50.4537 54.276 50.5663 54.2421 50.6869C54.2081 50.8075 54.1987 50.9337 54.2144 51.0581C54.23 51.1824 54.2705 51.3023 54.3333 51.4108C54.3961 51.5192 54.48 51.6139 54.58 51.6894C54.6801 51.7648 54.7942 51.8195 54.9158 51.85C55.0373 51.8806 55.1637 51.8865 55.2875 51.8674C55.4114 51.8483 55.5301 51.8045 55.6368 51.7387C61.708 48.2278 65.4796 41.6944 65.4796 34.6875C65.4796 23.8322 56.6474 15 45.7921 15Z" fill="#303030"/>
<path d="M45.1987 32.0175C45.4987 31.4344 45.6487 30.8766 45.6487 30.3441C45.6487 29.4263 45.3496 28.7072 44.7515 28.1869C44.1534 27.6666 43.3368 27.4069 42.3018 27.4069C41.5837 27.4069 40.9509 27.5513 40.4015 27.8391C39.8521 28.1278 39.4303 28.5309 39.134 29.0513C38.8378 29.5716 38.6906 30.1566 38.6906 30.8053H40.4699C40.4699 30.195 40.6284 29.7141 40.9462 29.3625C41.264 29.0109 41.7103 28.8356 42.2868 28.8356C42.7706 28.8356 43.1549 28.9922 43.4399 29.3044C43.7259 29.6166 43.8684 30.0272 43.8684 30.5344C43.8684 30.9206 43.7596 31.305 43.5421 31.6875C43.3256 32.0709 42.9599 32.5481 42.4471 33.1191L38.8949 36.9937V38.2172H46.0649V36.7969H41.114L43.7212 34.0059C44.4074 33.2634 44.8987 32.6006 45.1987 32.0175ZM54.7678 34.4156H53.4421V27.5531H51.6037L47.0043 34.7606L47.0559 35.8444H51.6628V38.2172H53.4421V35.8444H54.7678V34.4156ZM51.6628 34.4156H48.8718L51.5306 30.1969L51.6628 29.9625V34.4156Z" fill="#303030"/>
<path d="M89.1955 30.3652C89.1062 30.3652 88.9804 30.3591 88.8181 30.347C88.6558 30.3348 88.4813 30.2901 88.2946 30.213C88.2053 30.7162 88.0369 31.193 87.7894 31.6435C87.5459 32.098 87.2436 32.522 86.8824 32.9157C86.5213 33.3133 86.1094 33.6786 85.6468 34.0113C85.1842 34.3441 84.6911 34.6423 84.1677 34.9061L83.0538 33.3661C83.3419 33.22 83.632 33.0597 83.9242 32.8852C84.2164 32.7148 84.4943 32.5322 84.7581 32.3374C85.0259 32.1467 85.2735 31.9458 85.5007 31.7348C85.732 31.5278 85.9329 31.3128 86.1033 31.0896C86.2738 30.8664 86.4077 30.6371 86.5051 30.4017C86.6024 30.1704 86.6511 29.9351 86.6511 29.6957C86.6511 29.6835 86.6491 29.6652 86.6451 29.6409C86.6451 29.6165 86.6451 29.5922 86.6451 29.5678C86.6451 29.5435 86.643 29.5252 86.639 29.513C86.639 29.5009 86.639 29.5029 86.639 29.5191V29.5252C86.6106 29.2899 86.57 29.0646 86.5172 28.8496C86.4645 28.6345 86.3975 28.4154 86.3164 28.1922C86.2393 27.969 86.148 27.7357 86.0424 27.4922C85.9369 27.2446 85.8193 26.9748 85.6894 26.6826L87.4485 25.9157C87.6109 26.4026 87.763 26.8084 87.9051 27.133C88.0471 27.4577 88.1851 27.7174 88.319 27.9122C88.4569 28.107 88.5949 28.2449 88.7329 28.3261C88.8709 28.4032 89.0169 28.4417 89.1711 28.4417H89.2016C89.3355 28.4417 89.4613 28.4681 89.579 28.5209C89.6967 28.5736 89.7981 28.6446 89.8833 28.7339C89.9726 28.8191 90.0416 28.9206 90.0903 29.0383C90.143 29.1559 90.1694 29.2797 90.1694 29.4096C90.1694 29.5435 90.143 29.6693 90.0903 29.787C90.0416 29.9046 89.9726 30.0061 89.8833 30.0913C89.7981 30.1765 89.6967 30.2435 89.579 30.2922C89.4613 30.3409 89.3335 30.3652 89.1955 30.3652ZM86.499 22.2513L87.8503 23.6026L86.499 24.9539L85.1477 23.6026L86.499 22.2513ZM88.0805 29.4096C88.0805 29.2716 88.1049 29.1438 88.1536 29.0261C88.2022 28.9084 88.2733 28.807 88.3666 28.7217C88.4559 28.6325 88.5634 28.5635 88.6892 28.5148C88.8109 28.4661 88.9489 28.4417 89.1031 28.4417H89.444H89.7422C89.9614 28.4417 90.2028 28.4397 90.4666 28.4357C90.7304 28.4275 90.984 28.4072 91.2275 28.3748C91.475 28.3383 91.6962 28.2855 91.8909 28.2165C92.0898 28.1475 92.2338 28.0522 92.3231 27.9304C92.4449 27.7438 92.5057 27.5307 92.5057 27.2913C92.5057 27.2101 92.4976 27.129 92.4814 27.0478C92.4692 26.9626 92.453 26.8754 92.4327 26.7861C92.4043 26.6846 92.3434 26.5629 92.2501 26.4209C92.1608 26.2748 92.0451 26.1165 91.9031 25.9461C91.7611 25.7716 91.5988 25.589 91.4162 25.3983C91.2336 25.2035 91.0388 25.0067 90.8318 24.8078C90.6249 24.6049 90.4078 24.4041 90.1805 24.2052C89.9533 24.0064 89.726 23.8136 89.4988 23.627L89.6875 21.9713L94.8005 19.6948L95.537 21.3261L91.4953 23.2009C91.6941 23.3388 91.8991 23.5032 92.1101 23.6939C92.3211 23.8846 92.526 24.0936 92.7249 24.3209C92.9237 24.5441 93.1104 24.7814 93.2849 25.033C93.4593 25.2846 93.6115 25.5423 93.7414 25.8061C93.8712 26.0699 93.9727 26.3357 94.0457 26.6035C94.1228 26.8713 94.1594 27.133 94.1553 27.3887C94.1512 27.693 94.1107 27.9771 94.0336 28.2409C93.9565 28.5006 93.8611 28.7339 93.7475 28.9409C93.3254 29.6957 92.6295 30.1562 91.6596 30.3226L91.6657 30.3165C91.5562 30.3368 91.4527 30.351 91.3553 30.3591C91.2579 30.3672 91.1625 30.3713 91.0692 30.3713L89.1031 30.3652C88.953 30.3652 88.815 30.3409 88.6892 30.2922C88.5634 30.2435 88.4559 30.1745 88.3666 30.0852C88.2773 30 88.2083 29.9006 88.1596 29.787C88.1069 29.6693 88.0805 29.5435 88.0805 29.4096ZM99.9006 30.3652C99.8113 30.3652 99.6855 30.3591 99.5232 30.347C99.3609 30.3348 99.1864 30.2901 98.9997 30.213C98.9104 30.7162 98.742 31.193 98.4945 31.6435C98.251 32.098 97.9487 32.522 97.5875 32.9157C97.2264 33.3133 96.8145 33.6786 96.3519 34.0113C95.8893 34.3441 95.3962 34.6423 94.8727 34.9061L93.7588 33.3661C94.0469 33.22 94.3371 33.0597 94.6293 32.8852C94.9214 32.7148 95.1994 32.5322 95.4632 32.3374C95.731 32.1467 95.9785 31.9458 96.2058 31.7348C96.4371 31.5278 96.638 31.3128 96.8084 31.0896C96.9788 30.8664 97.1127 30.6371 97.2101 30.4017C97.3075 30.1704 97.3562 29.9351 97.3562 29.6957C97.3562 29.6835 97.3542 29.6652 97.3501 29.6409C97.3501 29.6165 97.3501 29.5922 97.3501 29.5678C97.3501 29.5435 97.3481 29.5252 97.344 29.513C97.344 29.5009 97.344 29.5029 97.344 29.5191V29.5252C97.3156 29.2899 97.2751 29.0646 97.2223 28.8496C97.1696 28.6345 97.1026 28.4154 97.0214 28.1922C96.9443 27.969 96.853 27.7357 96.7475 27.4922C96.642 27.2446 96.5243 26.9748 96.3945 26.6826L98.1536 25.9157C98.3159 26.4026 98.4681 26.8084 98.6101 27.133C98.7522 27.4577 98.8901 27.7174 99.024 27.9122C99.162 28.107 99.3 28.2449 99.438 28.3261C99.5759 28.4032 99.722 28.4417 99.8762 28.4417H99.9067C100.041 28.4417 100.166 28.4681 100.284 28.5209C100.402 28.5736 100.503 28.6446 100.588 28.7339C100.678 28.8191 100.747 28.9206 100.795 29.0383C100.848 29.1559 100.874 29.2797 100.874 29.4096C100.874 29.5435 100.848 29.6693 100.795 29.787C100.747 29.9046 100.678 30.0061 100.588 30.0913C100.503 30.1765 100.402 30.2435 100.284 30.2922C100.166 30.3409 100.039 30.3652 99.9006 30.3652ZM98.8922 29.4035C98.8922 29.2696 98.9165 29.1458 98.9652 29.0322C99.0139 28.9186 99.0809 28.8191 99.1661 28.7339C99.2513 28.6487 99.3527 28.5817 99.4704 28.533C99.584 28.4803 99.7078 28.4499 99.8417 28.4417C100.114 28.4417 100.349 28.389 100.548 28.2835C100.751 28.178 100.929 28.04 101.083 27.8696C101.238 27.6991 101.376 27.5084 101.497 27.2974C101.619 27.0864 101.735 26.8754 101.844 26.6643V26.6704C101.95 26.4513 102.061 26.2342 102.179 26.0191C102.301 25.8041 102.433 25.6052 102.575 25.4226C102.794 25.167 103.039 24.9701 103.311 24.8322C103.583 24.6901 103.873 24.6191 104.182 24.6191C104.547 24.6191 104.878 24.6942 105.174 24.8443C105.474 24.9945 105.746 25.2096 105.99 25.4896C106.172 25.7087 106.32 25.9603 106.434 26.2443C106.548 26.5243 106.623 26.8226 106.659 27.1391V27.127C106.683 27.2852 106.696 27.4658 106.696 27.6687C106.696 27.8878 106.675 28.1029 106.635 28.3139C106.598 28.5209 106.545 28.7177 106.477 28.9043C106.343 29.2452 106.15 29.5313 105.898 29.7626C105.651 29.9899 105.381 30.1461 105.089 30.2313C104.991 30.2597 104.894 30.278 104.797 30.2861C104.703 30.2983 104.604 30.3043 104.498 30.3043C104.316 30.3043 104.121 30.282 103.914 30.2374C103.711 30.1928 103.51 30.1319 103.311 30.0548C103.23 30.0183 103.139 29.9757 103.037 29.927C102.936 29.8742 102.828 29.8174 102.715 29.7565C102.605 29.6957 102.496 29.6328 102.386 29.5678C102.277 29.5029 102.175 29.44 102.082 29.3791C101.919 29.5293 101.757 29.6652 101.595 29.787C101.432 29.9087 101.262 30.0122 101.083 30.0974C100.905 30.1826 100.714 30.2475 100.511 30.2922C100.308 30.3409 100.087 30.3652 99.8478 30.3652C99.7139 30.3652 99.5901 30.3388 99.4765 30.2861C99.3588 30.2374 99.2574 30.1704 99.1722 30.0852C99.0829 30 99.0139 29.8986 98.9652 29.7809C98.9165 29.6632 98.8922 29.5374 98.8922 29.4035ZM103.208 27.8026C103.334 27.8838 103.482 27.9629 103.652 28.04C103.827 28.1171 103.999 28.1861 104.17 28.247C104.34 28.3078 104.496 28.3586 104.638 28.3991C104.784 28.4357 104.894 28.4539 104.967 28.4539C104.983 28.4539 104.999 28.4539 105.016 28.4539C105.036 28.4499 105.056 28.4458 105.077 28.4417C105.125 28.4296 105.172 28.3687 105.217 28.2591C105.265 28.1455 105.283 27.9913 105.271 27.7965C105.271 27.6667 105.235 27.5246 105.162 27.3704C105.089 27.2122 104.993 27.0661 104.876 26.9322C104.758 26.7942 104.622 26.6806 104.468 26.5913C104.318 26.498 104.163 26.4513 104.005 26.4513C103.948 26.4513 103.875 26.5325 103.786 26.6948C103.697 26.8571 103.567 27.0986 103.397 27.4191V27.413L103.208 27.8026ZM79.0109 53.3652C78.9906 53.3652 78.9338 53.3612 78.8405 53.353C78.7512 53.349 78.6396 53.3368 78.5057 53.3165C78.3758 53.2962 78.2277 53.2638 78.0614 53.2191C77.899 53.1745 77.7347 53.1136 77.5683 53.0365C77.126 52.8255 76.7831 52.5374 76.5396 52.1722C76.2961 51.8029 76.1744 51.3748 76.1744 50.8878C76.1744 50.0762 76.5335 49.2342 77.2518 48.3617C77.3086 48.2928 77.3553 48.2359 77.3918 48.1913C77.4324 48.1467 77.4689 48.1061 77.5014 48.0696C77.5338 48.033 77.5643 48.0006 77.5927 47.9722C77.6251 47.9397 77.6616 47.9032 77.7022 47.8626C77.6535 47.822 77.6048 47.7835 77.5561 47.747C77.5115 47.7104 77.4729 47.6759 77.4405 47.6435L77.3309 47.5461L78.5422 46.067C78.7492 46.2212 78.9967 46.4301 79.2848 46.6939C79.5729 46.9536 79.9057 47.2864 80.2831 47.6922C81.3341 48.8893 81.8596 49.9545 81.8596 50.8878C81.8596 51.3667 81.744 51.7907 81.5127 52.16C81.2854 52.5293 80.9689 52.8194 80.5631 53.0304C80.4211 53.0994 80.275 53.1542 80.1248 53.1948C79.9787 53.2394 79.8367 53.2739 79.6987 53.2983C79.5608 53.3226 79.4309 53.3388 79.3092 53.347C79.1915 53.3591 79.0921 53.3652 79.0109 53.3652ZM80.1918 50.8878C80.1918 50.762 80.1512 50.62 80.0701 50.4617C79.9889 50.3035 79.8814 50.1391 79.7474 49.9687C79.6176 49.7942 79.4715 49.6197 79.3092 49.4452C79.1469 49.2667 78.9845 49.0962 78.8222 48.9339C78.7127 49.0557 78.597 49.1936 78.4753 49.3478C78.3535 49.498 78.2419 49.6583 78.1405 49.8287C78.039 49.9991 77.9558 50.1757 77.8909 50.3583C77.826 50.5368 77.7976 50.7133 77.8057 50.8878C77.8098 50.9852 77.8564 51.0704 77.9457 51.1435C78.035 51.2165 78.1405 51.2754 78.2622 51.32C78.388 51.3646 78.5199 51.3991 78.6579 51.4235C78.7958 51.4438 78.9135 51.4539 79.0109 51.4539C79.1327 51.4539 79.2625 51.4458 79.4005 51.4296C79.5425 51.4093 79.6703 51.3768 79.784 51.3322C79.9016 51.2875 79.999 51.2287 80.0761 51.1557C80.1532 51.0826 80.1918 50.9933 80.1918 50.8878ZM85.4315 48.9035C85.5857 49.3417 85.7196 49.7699 85.8332 50.1878C85.8819 50.3704 85.9306 50.5612 85.9793 50.76C86.028 50.9548 86.0706 51.1516 86.1071 51.3504C86.1477 51.5452 86.1802 51.738 86.2045 51.9287C86.2289 52.1154 86.241 52.2899 86.241 52.4522C86.241 52.8336 86.1883 53.2049 86.0828 53.5661C85.9813 53.9313 85.8352 54.2843 85.6445 54.6252C85.4578 54.9661 85.2347 55.2928 84.9749 55.6052C84.7152 55.9217 84.4271 56.218 84.1106 56.4939C83.7941 56.7699 83.4552 57.0255 83.0941 57.2609C82.7329 57.5003 82.3596 57.7154 81.9741 57.9061L80.8663 56.3661C81.1584 56.22 81.4547 56.0536 81.7549 55.867C82.0512 55.6843 82.3352 55.4875 82.6071 55.2765C82.8831 55.0655 83.1387 54.8443 83.3741 54.613C83.6135 54.3817 83.8205 54.1464 83.9949 53.907C84.1735 53.6675 84.3135 53.4241 84.4149 53.1765C84.5164 52.933 84.5671 52.6936 84.5671 52.4583C84.5671 52.2878 84.5428 52.1032 84.4941 51.9043C84.4494 51.7055 84.3865 51.4925 84.3054 51.2652C84.2283 51.0339 84.1349 50.7904 84.0254 50.5348C83.9158 50.2751 83.7981 49.9991 83.6723 49.707L85.4315 48.9035ZM89.5067 49.4087C89.4215 49.3925 89.3241 49.4229 89.2145 49.5C89.109 49.573 89.0076 49.6745 88.9102 49.8043C88.8169 49.9301 88.7377 50.0701 88.6728 50.2243C88.6119 50.3786 88.5815 50.5267 88.5815 50.6687C88.5815 50.8026 88.62 50.9142 88.6971 51.0035C88.7742 51.0928 88.8716 51.1658 88.9893 51.2226C89.1111 51.2794 89.2429 51.322 89.385 51.3504C89.5311 51.3788 89.6711 51.3991 89.805 51.4113H89.7989C89.9044 51.4194 90.0241 51.4255 90.158 51.4296C90.296 51.4296 90.4299 51.4296 90.5598 51.4296C90.6003 51.4296 90.6308 51.4316 90.6511 51.4357C90.6754 51.4357 90.6957 51.4357 90.7119 51.4357C90.7282 51.4357 90.7444 51.4357 90.7606 51.4357C90.7809 51.4357 90.8093 51.4336 90.8458 51.4296C90.785 51.178 90.7119 50.9386 90.6267 50.7113C90.5456 50.48 90.4502 50.273 90.3406 50.0904C90.2311 49.9078 90.1073 49.7577 89.9693 49.64C89.8313 49.5183 89.6771 49.4412 89.5067 49.4087ZM86.5241 55.7817C87.0963 55.6681 87.6177 55.5241 88.0885 55.3496C88.5592 55.1791 88.9711 54.9864 89.3241 54.7713C89.6812 54.5603 89.9754 54.3351 90.2067 54.0957C90.4421 53.8562 90.6085 53.6128 90.7058 53.3652C90.5313 53.3652 90.3467 53.3612 90.1519 53.353C89.9571 53.349 89.7969 53.3429 89.6711 53.3348C89.2003 53.2942 88.7702 53.1887 88.3806 53.0183C87.9911 52.8519 87.6806 52.6246 87.4493 52.3365C87.2789 52.1174 87.1571 51.88 87.0841 51.6243C87.0151 51.3687 86.9806 51.0988 86.9806 50.8148C86.9806 50.5957 87.0009 50.3765 87.0415 50.1574C87.0821 49.9342 87.1389 49.7191 87.2119 49.5122C87.285 49.3012 87.3702 49.1023 87.4676 48.9157C87.569 48.729 87.6766 48.5586 87.7902 48.4043C88.0337 48.1 88.2995 47.8707 88.5876 47.7165C88.8798 47.5583 89.1861 47.4791 89.5067 47.4791C90.1925 47.4791 90.8113 47.7794 91.3632 48.38C91.558 48.5991 91.7325 48.8446 91.8867 49.1165C92.0409 49.3884 92.1708 49.6786 92.2763 49.987C92.3858 50.2913 92.469 50.6119 92.5258 50.9487C92.5827 51.2814 92.6111 51.6203 92.6111 51.9652C92.6111 52.0707 92.607 52.1762 92.5989 52.2817C92.5948 52.3872 92.5887 52.4867 92.5806 52.58C92.5319 53.0548 92.4244 53.4991 92.258 53.913C92.0957 54.331 91.8847 54.7145 91.625 55.0635C91.3693 55.4165 91.0711 55.7351 90.7302 56.0191C90.3893 56.3072 90.018 56.5588 89.6163 56.7739C89.2186 56.993 88.7966 57.1757 88.3502 57.3217C87.9038 57.4678 87.4453 57.5774 86.9745 57.6504L86.5241 55.7817ZM96.5625 53.3652C96.0634 53.3652 95.6353 53.3023 95.2782 53.1765C94.9211 53.0548 94.6127 52.8661 94.353 52.6104C94.1907 52.4481 94.0649 52.2777 93.9756 52.0991C93.8904 51.9206 93.8275 51.7461 93.7869 51.5757C93.7504 51.4012 93.728 51.2368 93.7199 51.0826C93.7159 50.9284 93.7138 50.7965 93.7138 50.687V50.5957C93.7179 50.4455 93.722 50.2304 93.726 49.9504C93.7341 49.6664 93.7382 49.3336 93.7382 48.9522C93.7382 48.5707 93.7362 48.1507 93.7321 47.6922C93.728 47.2336 93.7159 46.7771 93.6956 46.3226C93.6794 45.8641 93.653 45.4238 93.6165 45.0017C93.584 44.5797 93.5373 44.2125 93.4765 43.9L95.2965 43.3461C95.3492 43.6139 95.3918 43.9304 95.4243 44.2957C95.4567 44.6568 95.4831 45.0362 95.5034 45.4339C95.5278 45.8316 95.544 46.2313 95.5521 46.633C95.5643 47.0348 95.5724 47.4081 95.5765 47.753C95.5805 48.0574 95.5683 48.3557 95.5399 48.6478C95.5156 48.9359 95.4953 49.22 95.4791 49.5C95.4628 49.7759 95.4628 50.0458 95.4791 50.3096C95.4994 50.5693 95.5562 50.8229 95.6495 51.0704C95.686 51.1638 95.7307 51.2348 95.7834 51.2835C95.8402 51.3322 95.9051 51.3687 95.9782 51.393C96.0512 51.4133 96.1304 51.4255 96.2156 51.4296C96.3049 51.4336 96.4023 51.4357 96.5078 51.4357H96.5625C96.6924 51.4357 96.8162 51.462 96.9338 51.5148C97.0515 51.5675 97.153 51.6386 97.2382 51.7278C97.3275 51.813 97.3985 51.9145 97.4512 52.0322C97.504 52.1499 97.5304 52.2736 97.5304 52.4035C97.5304 52.5374 97.504 52.6632 97.4512 52.7809C97.3985 52.8986 97.3275 53 97.2382 53.0852C97.153 53.1745 97.0515 53.2435 96.9338 53.2922C96.8162 53.3409 96.6924 53.3652 96.5625 53.3652ZM95.5729 52.4035C95.5729 52.2777 95.5993 52.158 95.652 52.0443C95.7048 51.9307 95.7778 51.8313 95.8711 51.7461C95.9604 51.6568 96.068 51.5858 96.1938 51.533C96.3155 51.4803 96.4474 51.4499 96.5894 51.4417C96.8045 51.4417 97.0054 51.4072 97.192 51.3383C97.3787 51.2652 97.5552 51.1272 97.7216 50.9243C97.888 50.7214 98.0442 50.4354 98.1903 50.0661C98.3364 49.6968 98.4764 49.2139 98.6103 48.6174L100.229 48.8487C100.242 48.8 100.233 48.8264 100.205 48.9278C100.181 49.0293 100.15 49.1733 100.114 49.36C100.081 49.5426 100.049 49.7496 100.016 49.9809C99.988 50.2081 99.9738 50.4272 99.9738 50.6383C99.9778 50.8452 100.002 51.0258 100.047 51.18C100.095 51.3301 100.179 51.4194 100.296 51.4478C100.422 51.4803 100.544 51.4559 100.662 51.3748C100.779 51.2896 100.891 51.1699 100.996 51.0157C101.102 50.8574 101.199 50.6748 101.289 50.4678C101.378 50.2568 101.459 50.0417 101.532 49.8226C101.605 49.6035 101.668 49.3884 101.721 49.1774C101.773 48.9664 101.814 48.7797 101.842 48.6174L103.449 48.8487C103.441 48.9501 103.427 49.0861 103.407 49.2565C103.387 49.4229 103.37 49.6014 103.358 49.7922C103.346 49.9829 103.34 50.1757 103.34 50.3704C103.344 50.5612 103.366 50.7357 103.407 50.8939C103.447 51.0481 103.51 51.1759 103.595 51.2774C103.681 51.3748 103.798 51.4235 103.949 51.4235C104.082 51.4235 104.198 51.3788 104.295 51.2896C104.393 51.2003 104.474 51.0846 104.539 50.9426C104.608 50.7965 104.663 50.6322 104.703 50.4496C104.744 50.2629 104.774 50.0742 104.795 49.8835C104.815 49.6928 104.825 49.5081 104.825 49.3296C104.825 49.147 104.819 48.9867 104.807 48.8487L106.45 48.6174L106.651 50.3339C106.675 50.5206 106.728 50.6829 106.809 50.8209C106.891 50.9588 106.986 51.0745 107.095 51.1678C107.205 51.2571 107.321 51.3261 107.442 51.3748C107.564 51.4194 107.68 51.4417 107.789 51.4417H107.862C108.013 51.4417 108.149 51.4661 108.27 51.5148C108.396 51.5635 108.504 51.6325 108.593 51.7217C108.682 51.807 108.751 51.9084 108.8 52.0261C108.849 52.1438 108.873 52.2696 108.873 52.4035C108.873 52.5374 108.849 52.6632 108.8 52.7809C108.751 52.8986 108.68 53 108.587 53.0852C108.498 53.1704 108.384 53.2374 108.246 53.2861C108.112 53.3388 107.96 53.3652 107.789 53.3652C107.396 53.3652 107.024 53.2962 106.675 53.1583C106.327 53.0203 106.024 52.787 105.769 52.4583C105.744 52.4907 105.72 52.5191 105.695 52.5435C105.671 52.5678 105.649 52.5922 105.629 52.6165V52.6104C105.409 52.8417 105.156 53.0243 104.868 53.1583C104.584 53.2962 104.277 53.3652 103.949 53.3652C103.579 53.3652 103.238 53.2861 102.926 53.1278C102.618 52.9696 102.36 52.7545 102.153 52.4826C101.909 52.7504 101.633 52.9675 101.325 53.1339C101.017 53.3003 100.678 53.3835 100.309 53.3835C99.9636 53.3835 99.643 53.3064 99.3468 53.1522C99.0506 52.998 98.8051 52.787 98.6103 52.5191C98.3911 52.8235 98.1193 53.0406 97.7946 53.1704C97.474 53.3003 97.0764 53.3652 96.6016 53.3652C96.4474 53.3652 96.3074 53.3388 96.1816 53.2861C96.0558 53.2374 95.9482 53.1704 95.859 53.0852C95.7697 53 95.7007 52.8986 95.652 52.7809C95.5993 52.6632 95.5729 52.5374 95.5729 52.4035ZM104.989 46.14L103.821 47.3148L102.664 46.1583L101.52 47.3026L100.339 46.1278L101.508 44.953L102.664 46.1096L103.809 44.9652L104.989 46.14ZM101.581 44.3748L102.664 43.2913L103.754 44.3809L102.67 45.4643L101.581 44.3748ZM107.013 52.4035C107.013 52.2696 107.038 52.1458 107.086 52.0322C107.135 51.9186 107.202 51.8191 107.287 51.7339C107.372 51.6487 107.474 51.5817 107.592 51.533C107.705 51.4803 107.829 51.4499 107.963 51.4417C108.235 51.4417 108.47 51.389 108.669 51.2835C108.872 51.178 109.05 51.04 109.205 50.8696C109.359 50.6991 109.497 50.5084 109.618 50.2974C109.74 50.0864 109.856 49.8754 109.965 49.6643V49.6704C110.071 49.4513 110.183 49.2342 110.3 49.0191C110.422 48.8041 110.554 48.6052 110.696 48.4226C110.915 48.167 111.16 47.9701 111.432 47.8322C111.704 47.6901 111.994 47.6191 112.303 47.6191C112.668 47.6191 112.999 47.6942 113.295 47.8443C113.595 47.9945 113.867 48.2096 114.111 48.4896C114.293 48.7087 114.441 48.9603 114.555 49.2443C114.669 49.5243 114.744 49.8226 114.78 50.1391V50.127C114.805 50.2852 114.817 50.4658 114.817 50.6687C114.817 50.8878 114.796 51.1029 114.756 51.3139C114.719 51.5209 114.667 51.7177 114.598 51.9043C114.464 52.2452 114.271 52.5313 114.019 52.7626C113.772 52.9899 113.502 53.1461 113.21 53.2313C113.112 53.2597 113.015 53.278 112.918 53.2861C112.824 53.2983 112.725 53.3043 112.619 53.3043C112.437 53.3043 112.242 53.282 112.035 53.2374C111.832 53.1928 111.631 53.1319 111.432 53.0548C111.351 53.0183 111.26 52.9757 111.158 52.927C111.057 52.8742 110.949 52.8174 110.836 52.7565C110.726 52.6957 110.617 52.6328 110.507 52.5678C110.398 52.5029 110.296 52.44 110.203 52.3791C110.04 52.5293 109.878 52.6652 109.716 52.787C109.554 52.9087 109.383 53.0122 109.205 53.0974C109.026 53.1826 108.835 53.2475 108.632 53.2922C108.429 53.3409 108.208 53.3652 107.969 53.3652C107.835 53.3652 107.711 53.3388 107.598 53.2861C107.48 53.2374 107.378 53.1704 107.293 53.0852C107.204 53 107.135 52.8986 107.086 52.7809C107.038 52.6632 107.013 52.5374 107.013 52.4035ZM111.329 50.8026C111.455 50.8838 111.603 50.9629 111.773 51.04C111.948 51.1171 112.12 51.1861 112.291 51.247C112.461 51.3078 112.617 51.3586 112.759 51.3991C112.905 51.4357 113.015 51.4539 113.088 51.4539C113.104 51.4539 113.12 51.4539 113.137 51.4539C113.157 51.4499 113.177 51.4458 113.198 51.4417C113.246 51.4296 113.293 51.3687 113.338 51.2591C113.386 51.1455 113.405 50.9913 113.392 50.7965C113.392 50.6667 113.356 50.5246 113.283 50.3704C113.21 50.2122 113.114 50.0661 112.997 49.9322C112.879 49.7942 112.743 49.6806 112.589 49.5913C112.439 49.498 112.285 49.4513 112.126 49.4513C112.069 49.4513 111.996 49.5325 111.907 49.6948C111.818 49.8571 111.688 50.0986 111.518 50.4191V50.413L111.329 50.8026Z" fill="#303030"/>
<defs>
<linearGradient id="paint0_linear_1325_8570" x1="5.142" y1="5.2" x2="135.562" y2="64.7894" gradientUnits="userSpaceOnUse">
<stop stop-color="#EAEAEA"/>
<stop offset="1" stop-color="#BDBDBD"/>
</linearGradient>
</defs>
</svg>
