<svg width="182" height="91" viewBox="0 0 182 91" fill="none" xmlns="http://www.w3.org/2000/svg">
<rect x="1.71289" y="0.75" width="179.537" height="88.6724" rx="9.25" fill="white" stroke="url(#paint0_linear_1325_9598)" stroke-width="1.5"/>
<path d="M78.5439 61.039H75.7009V39.606L64.2329 31.956L58.6479 34.818V29.439L44.2579 21L30.5629 29.454V61.039H26.5499C25.9959 61.039 25.5469 61.478 25.5469 62.02C25.5469 62.561 25.9959 63 26.5499 63H30.5629H49.4549H50.4579H75.7019H78.5449C79.0979 63 79.5469 62.561 79.5469 62.02C79.5469 61.478 79.0979 61.039 78.5439 61.039ZM32.5679 36.023L43.2679 30.623V34.341L32.5679 39.775V36.023ZM73.6949 49.344L65.1689 46.83V41.781L73.6949 45.882V49.344ZM49.4549 39.531V42.318L45.2749 40.6V36.38L50.4629 39.014L49.4549 39.531ZM43.2689 40.738L32.5689 45.134V41.984L43.2689 36.55V40.738ZM43.2689 42.865V47.254L32.5689 50.625V47.262L43.2689 42.865ZM45.2749 42.728L49.4549 44.446V48.656L45.2749 47.266V42.728ZM51.4609 46.535L63.1629 41.709V46.85L51.4609 50.617V46.535ZM63.1629 39.581L51.4609 44.407V40.718L63.1629 34.72V39.581ZM52.6269 37.905L45.2739 34.171V30.697L55.5519 36.405L52.6269 37.905ZM32.5679 52.684L43.2679 49.313V53.569L32.5679 56.114V52.684ZM45.2749 49.336L49.4549 50.726V55.064L45.2749 53.643V49.336ZM51.4609 52.68L63.1629 48.914V54.018L51.4609 56.18V52.68ZM65.1689 48.878L73.6949 51.392V55.297L65.1689 53.991V48.878ZM73.6949 43.696L65.1689 39.596V34.954L73.6949 40.642V43.696ZM56.6429 34.755L45.2749 28.442V23.881L56.6429 30.548V34.755ZM43.2689 23.93V28.416L32.5689 33.815V30.534L43.2689 23.93ZM32.5679 58.133L43.2679 55.588V61.04H32.5679V58.133ZM45.2749 61.039V55.719L49.4549 57.14V61.038H45.2749V61.039ZM51.4609 58.175L63.1629 56.013V61.039H51.4609V58.175ZM65.1689 61.039V55.976L73.6949 57.282V61.039H65.1689Z" fill="#303030"/>
<path d="M94.5342 33.8652C94.5139 33.8652 94.4571 33.8612 94.3638 33.853C94.2745 33.849 94.1629 33.8368 94.029 33.8165C93.8991 33.7962 93.751 33.7638 93.5846 33.7191C93.4223 33.6745 93.258 33.6136 93.0916 33.5365C92.6493 33.3255 92.3064 33.0374 92.0629 32.6722C91.8194 32.3029 91.6977 31.8748 91.6977 31.3878C91.6977 30.5762 92.0568 29.7342 92.7751 28.8617C92.8319 28.7928 92.8786 28.7359 92.9151 28.6913C92.9557 28.6467 92.9922 28.6061 93.0246 28.5696C93.0571 28.533 93.0875 28.5006 93.1159 28.4722C93.1484 28.4397 93.1849 28.4032 93.2255 28.3626C93.1768 28.322 93.1281 28.2835 93.0794 28.247C93.0348 28.2104 92.9962 28.1759 92.9638 28.1435L92.8542 28.0461L94.0655 26.567C94.2725 26.7212 94.52 26.9301 94.8081 27.1939C95.0962 27.4536 95.429 27.7864 95.8064 28.1922C96.8574 29.3893 97.3829 30.4545 97.3829 31.3878C97.3829 31.8667 97.2672 32.2907 97.0359 32.66C96.8087 33.0293 96.4922 33.3194 96.0864 33.5304C95.9444 33.5994 95.7983 33.6542 95.6481 33.6948C95.502 33.7394 95.36 33.7739 95.222 33.7983C95.0841 33.8226 94.9542 33.8388 94.8325 33.847C94.7148 33.8591 94.6154 33.8652 94.5342 33.8652ZM95.7151 31.3878C95.7151 31.262 95.6745 31.12 95.5933 30.9617C95.5122 30.8035 95.4046 30.6391 95.2707 30.4687C95.1409 30.2942 94.9948 30.1197 94.8325 29.9452C94.6701 29.7667 94.5078 29.5962 94.3455 29.4339C94.2359 29.5557 94.1203 29.6936 93.9986 29.8478C93.8768 29.998 93.7652 30.1583 93.6638 30.3287C93.5623 30.4991 93.4791 30.6757 93.4142 30.8583C93.3493 31.0368 93.3209 31.2133 93.329 31.3878C93.333 31.4852 93.3797 31.5704 93.469 31.6435C93.5583 31.7165 93.6638 31.7754 93.7855 31.82C93.9113 31.8646 94.0432 31.8991 94.1812 31.9235C94.3191 31.9438 94.4368 31.9539 94.5342 31.9539C94.6559 31.9539 94.7858 31.9458 94.9238 31.9296C95.0658 31.9093 95.1936 31.8768 95.3072 31.8322C95.4249 31.7875 95.5223 31.7287 95.5994 31.6557C95.6765 31.5826 95.7151 31.4933 95.7151 31.3878ZM100.955 29.4035C101.109 29.8417 101.243 30.2699 101.356 30.6878C101.405 30.8704 101.454 31.0612 101.503 31.26C101.551 31.4548 101.594 31.6516 101.63 31.8504C101.671 32.0452 101.703 32.238 101.728 32.4287C101.752 32.6154 101.764 32.7899 101.764 32.9522C101.764 33.3336 101.712 33.7049 101.606 34.0661C101.505 34.4313 101.359 34.7843 101.168 35.1252C100.981 35.4661 100.758 35.7928 100.498 36.1052C100.239 36.4217 99.9504 36.718 99.6339 36.9939C99.3174 37.2699 98.9785 37.5255 98.6174 37.7609C98.2562 38.0003 97.8829 38.2154 97.4974 38.4061L96.3895 36.8661C96.6817 36.72 96.9779 36.5536 97.2782 36.367C97.5745 36.1843 97.8585 35.9875 98.1304 35.7765C98.4063 35.5655 98.662 35.3443 98.8974 35.113C99.1368 34.8817 99.3437 34.6464 99.5182 34.407C99.6968 34.1675 99.8368 33.9241 99.9382 33.6765C100.04 33.433 100.09 33.1936 100.09 32.9583C100.09 32.7878 100.066 32.6032 100.017 32.4043C99.9727 32.2055 99.9098 31.9925 99.8287 31.7652C99.7516 31.5339 99.6582 31.2904 99.5487 31.0348C99.4391 30.7751 99.3214 30.4991 99.1956 30.207L100.955 29.4035ZM105.687 33.8652C105.188 33.8652 104.76 33.8023 104.403 33.6765C104.046 33.5548 103.738 33.3661 103.478 33.1104C103.316 32.9481 103.19 32.7777 103.1 32.5991C103.015 32.4206 102.952 32.2461 102.912 32.0757C102.875 31.9012 102.853 31.7368 102.845 31.5826C102.841 31.4284 102.839 31.2965 102.839 31.187V31.0957C102.843 30.9455 102.847 30.7304 102.851 30.4504C102.859 30.1664 102.863 29.8336 102.863 29.4522C102.863 29.0707 102.861 28.6507 102.857 28.1922C102.853 27.7336 102.841 27.2771 102.82 26.8226C102.804 26.3641 102.778 25.9238 102.741 25.5017C102.709 25.0797 102.662 24.7125 102.601 24.4L104.421 23.8461C104.474 24.1139 104.517 24.4304 104.549 24.7957C104.582 25.1568 104.608 25.5362 104.628 25.9339C104.653 26.3316 104.669 26.7313 104.677 27.133C104.689 27.5348 104.697 27.9081 104.701 28.253C104.705 28.5574 104.693 28.8557 104.665 29.1478C104.64 29.4359 104.62 29.72 104.604 30C104.588 30.2759 104.588 30.5458 104.604 30.8096C104.624 31.0693 104.681 31.3229 104.774 31.5704C104.811 31.6638 104.856 31.7348 104.908 31.7835C104.965 31.8322 105.03 31.8687 105.103 31.893C105.176 31.9133 105.255 31.9255 105.34 31.9296C105.43 31.9336 105.527 31.9357 105.633 31.9357H105.687C105.817 31.9357 105.941 31.962 106.059 32.0148C106.176 32.0675 106.278 32.1386 106.363 32.2278C106.452 32.313 106.523 32.4145 106.576 32.5322C106.629 32.6499 106.655 32.7736 106.655 32.9035C106.655 33.0374 106.629 33.1632 106.576 33.2809C106.523 33.3986 106.452 33.5 106.363 33.5852C106.278 33.6745 106.176 33.7435 106.059 33.7922C105.941 33.8409 105.817 33.8652 105.687 33.8652ZM104.698 32.9035C104.698 32.7696 104.724 32.6438 104.777 32.5261C104.826 32.4084 104.895 32.307 104.984 32.2217C105.069 32.1325 105.173 32.0635 105.294 32.0148C105.412 31.9661 105.538 31.9417 105.672 31.9417H106.84C107.498 31.9417 108.1 31.9032 108.648 31.8261C109.2 31.7449 109.715 31.6374 110.194 31.5035C110.673 31.3696 111.126 31.2154 111.552 31.0409C111.982 30.8623 112.404 30.6777 112.818 30.487C112.542 30.4099 112.264 30.3145 111.984 30.2009C111.708 30.0872 111.43 29.9777 111.15 29.8722C110.874 29.7667 110.598 29.6774 110.322 29.6043C110.046 29.5272 109.772 29.4887 109.5 29.4887C109.314 29.4887 109.131 29.5394 108.953 29.6409C108.774 29.7423 108.612 29.858 108.466 29.9878C108.319 30.1177 108.196 30.2455 108.094 30.3713C107.997 30.493 107.936 30.5762 107.912 30.6209L106.506 29.7139C106.66 29.442 106.842 29.1762 107.053 28.9165C107.264 28.6568 107.496 28.4275 107.747 28.2287C108.003 28.0258 108.277 27.8635 108.569 27.7417C108.865 27.62 109.176 27.5591 109.5 27.5591C109.74 27.5591 109.979 27.5855 110.219 27.6383C110.458 27.687 110.695 27.7519 110.931 27.833C111.17 27.9142 111.406 28.0075 111.637 28.113C111.868 28.2145 112.097 28.318 112.325 28.4235C112.544 28.5249 112.761 28.6264 112.976 28.7278C113.195 28.8252 113.42 28.9165 113.652 29.0017C113.883 29.0829 114.122 29.1499 114.37 29.2026C114.617 29.2554 114.879 29.2838 115.155 29.2878L115.003 31.1565L114.139 31.5704C113.786 31.7409 113.435 31.9174 113.086 32.1C112.737 32.2786 112.379 32.453 112.014 32.6235C111.653 32.7899 111.28 32.9501 110.894 33.1043C110.513 33.2545 110.111 33.3864 109.689 33.5C109.267 33.6096 108.821 33.6968 108.35 33.7617C107.879 33.8307 107.376 33.8652 106.84 33.8652H105.72H105.672C105.538 33.8652 105.412 33.8388 105.294 33.7861C105.173 33.7374 105.069 33.6704 104.984 33.5852C104.895 33.5 104.826 33.3986 104.777 33.2809C104.724 33.1632 104.698 33.0374 104.698 32.9035ZM110.298 34.3522L111.649 35.7035L110.298 37.0548L108.946 35.7035L110.298 34.3522ZM115.865 33.8835C115.885 33.5507 115.905 33.2058 115.925 32.8487C115.946 32.4916 115.962 32.1386 115.974 31.7896C115.99 31.4406 116.001 31.1017 116.005 30.773C116.009 30.4443 116.005 30.142 115.992 29.8661C115.968 29.2899 115.944 28.7846 115.919 28.3504C115.899 27.9122 115.877 27.5246 115.852 27.1878C115.832 26.851 115.81 26.5568 115.785 26.3052C115.765 26.0496 115.743 25.8162 115.719 25.6052C115.694 25.3942 115.668 25.1974 115.639 25.0148C115.611 24.8281 115.581 24.6354 115.548 24.4365L117.429 23.8157C117.518 24.3594 117.589 24.9072 117.642 25.4591C117.699 26.011 117.741 26.5406 117.77 27.0478C117.798 27.551 117.816 28.0197 117.825 28.4539C117.837 28.8881 117.843 29.2594 117.843 29.5678C117.843 29.8478 117.841 30.1501 117.837 30.4748C117.837 30.7994 117.833 31.1362 117.825 31.4852C117.821 31.8342 117.812 32.1872 117.8 32.5443C117.788 32.9014 117.77 33.2504 117.745 33.5913L115.865 33.8835ZM124.868 29.9087C124.783 29.8925 124.685 29.9229 124.576 30C124.47 30.073 124.369 30.1745 124.271 30.3043C124.178 30.4301 124.099 30.5701 124.034 30.7243C123.973 30.8786 123.943 31.0267 123.943 31.1687C123.943 31.3026 123.981 31.4142 124.058 31.5035C124.135 31.5928 124.233 31.6658 124.35 31.7226C124.472 31.7794 124.604 31.822 124.746 31.8504C124.892 31.8788 125.032 31.8991 125.166 31.9113H125.16C125.266 31.9194 125.385 31.9255 125.519 31.9296C125.657 31.9296 125.791 31.9296 125.921 31.9296C125.962 31.9296 125.992 31.9316 126.012 31.9357C126.037 31.9357 126.057 31.9357 126.073 31.9357C126.089 31.9357 126.106 31.9357 126.122 31.9357C126.142 31.9357 126.17 31.9336 126.207 31.9296C126.146 31.678 126.073 31.4386 125.988 31.2113C125.907 30.98 125.811 30.773 125.702 30.5904C125.592 30.4078 125.468 30.2577 125.33 30.14C125.193 30.0183 125.038 29.9412 124.868 29.9087ZM121.885 36.2817C122.457 36.1681 122.979 36.0241 123.45 35.8496C123.92 35.6791 124.332 35.4864 124.685 35.2713C125.042 35.0603 125.337 34.8351 125.568 34.5957C125.803 34.3562 125.97 34.1128 126.067 33.8652C125.893 33.8652 125.708 33.8612 125.513 33.853C125.318 33.849 125.158 33.8429 125.032 33.8348C124.562 33.7942 124.131 33.6887 123.742 33.5183C123.352 33.3519 123.042 33.1246 122.81 32.8365C122.64 32.6174 122.518 32.38 122.445 32.1243C122.376 31.8687 122.342 31.5988 122.342 31.3148C122.342 31.0957 122.362 30.8765 122.403 30.6574C122.443 30.4342 122.5 30.2191 122.573 30.0122C122.646 29.8012 122.731 29.6023 122.829 29.4157C122.93 29.229 123.038 29.0586 123.151 28.9043C123.395 28.6 123.661 28.3707 123.949 28.2165C124.241 28.0583 124.547 27.9791 124.868 27.9791C125.554 27.9791 126.173 28.2794 126.724 28.88C126.919 29.0991 127.094 29.3446 127.248 29.6165C127.402 29.8884 127.532 30.1786 127.637 30.487C127.747 30.7913 127.83 31.1119 127.887 31.4487C127.944 31.7814 127.972 32.1203 127.972 32.4652C127.972 32.5707 127.968 32.6762 127.96 32.7817C127.956 32.8872 127.95 32.9867 127.942 33.08C127.893 33.5548 127.786 33.9991 127.619 34.413C127.457 34.831 127.246 35.2145 126.986 35.5635C126.73 35.9165 126.432 36.2351 126.091 36.5191C125.75 36.8072 125.379 37.0588 124.977 37.2739C124.58 37.493 124.158 37.6757 123.711 37.8217C123.265 37.9678 122.806 38.0774 122.336 38.1504L121.885 36.2817ZM141.853 33.8652C141.48 33.8652 141.117 33.8064 140.764 33.6887C140.752 34.0174 140.707 34.3522 140.63 34.693C140.553 35.0339 140.441 35.3606 140.295 35.673C140.153 35.9896 139.972 36.2817 139.753 36.5496C139.538 36.8174 139.285 37.0446 138.992 37.2313C138.579 37.4991 138.124 37.702 137.629 37.84C137.138 37.978 136.576 38.047 135.943 38.047C135.237 38.047 134.63 37.9617 134.123 37.7913C133.62 37.6249 133.181 37.3814 132.808 37.0609C132.581 36.858 132.382 36.6328 132.212 36.3852C132.045 36.1417 131.907 35.882 131.798 35.6061C131.688 35.3342 131.605 35.0481 131.548 34.7478C131.495 34.4516 131.469 34.1493 131.469 33.8409C131.469 33.4919 131.493 33.1612 131.542 32.8487C131.591 32.5322 131.666 32.2157 131.767 31.8991C131.869 31.5826 131.994 31.258 132.145 30.9252C132.299 30.5925 132.479 30.2333 132.686 29.8478L134.056 30.8339C133.938 31.0449 133.825 31.2823 133.715 31.5461C133.605 31.8058 133.508 32.0757 133.423 32.3557C133.342 32.6316 133.275 32.9075 133.222 33.1835C133.173 33.4594 133.149 33.7171 133.149 33.9565C133.149 34.273 133.226 34.5632 133.38 34.827C133.534 35.0907 133.737 35.3159 133.989 35.5026C134.245 35.6933 134.535 35.8414 134.859 35.947C135.184 36.0565 135.519 36.1133 135.864 36.1174C136.339 36.1255 136.773 36.087 137.166 36.0017C137.56 35.9206 137.899 35.7887 138.183 35.6061C138.467 35.4235 138.686 35.1881 138.84 34.9C138.999 34.6119 139.078 34.2649 139.078 33.8591C139.078 33.6238 139.043 33.3742 138.974 33.1104C138.905 32.8426 138.814 32.5667 138.7 32.2826C138.591 31.9945 138.461 31.7003 138.311 31.4C138.165 31.0957 138.012 30.7852 137.854 30.4687L139.516 29.4157L140.131 30.6026C140.297 30.9394 140.457 31.1991 140.612 31.3817C140.77 31.5603 140.922 31.6922 141.068 31.7774C141.214 31.8586 141.352 31.9072 141.482 31.9235C141.616 31.9357 141.74 31.9417 141.853 31.9417C141.987 31.9417 142.113 31.9661 142.231 32.0148C142.348 32.0635 142.45 32.1325 142.535 32.2217C142.624 32.307 142.693 32.4084 142.742 32.5261C142.795 32.6438 142.821 32.7696 142.821 32.9035C142.821 33.0374 142.795 33.1632 142.742 33.2809C142.693 33.3986 142.624 33.5 142.535 33.5852C142.45 33.6704 142.348 33.7374 142.231 33.7861C142.113 33.8388 141.987 33.8652 141.853 33.8652ZM136.046 27.9913L137.398 29.3426L136.046 30.6939L134.695 29.3426L136.046 27.9913ZM140.872 32.8974C140.872 32.7635 140.898 32.6397 140.951 32.5261C141 32.4084 141.067 32.307 141.152 32.2217C141.237 32.1325 141.339 32.0635 141.456 32.0148C141.574 31.9661 141.7 31.9417 141.834 31.9417H141.888C141.949 31.9417 142.006 31.9417 142.059 31.9417C142.116 31.9417 142.179 31.9397 142.248 31.9357C142.321 31.9316 142.406 31.9275 142.503 31.9235C142.605 31.9194 142.73 31.9133 142.881 31.9052C142.739 31.6617 142.631 31.4041 142.558 31.1322C142.485 30.8562 142.448 30.5783 142.448 30.2983C142.448 30.0872 142.469 29.8762 142.509 29.6652C142.55 29.4542 142.611 29.2533 142.692 29.0626C142.773 28.8678 142.875 28.6852 142.996 28.5148C143.118 28.3403 143.262 28.182 143.428 28.04L143.112 27.8635L144.287 26.1348C144.461 26.2565 144.67 26.3803 144.914 26.5061C145.157 26.6319 145.413 26.7577 145.681 26.8835C145.948 27.0052 146.216 27.1249 146.484 27.2426C146.756 27.3562 147.006 27.4638 147.233 27.5652C147.618 27.7438 147.959 27.902 148.255 28.04C148.556 28.1739 148.826 28.3078 149.065 28.4417C149.304 28.5716 149.519 28.7096 149.71 28.8557C149.901 29.0017 150.079 29.1722 150.246 29.367C150.457 29.6348 150.609 29.927 150.702 30.2435C150.796 30.56 150.842 30.8664 150.842 31.1626C150.842 31.6171 150.725 32.0472 150.489 32.453C150.258 32.8548 149.915 33.1916 149.461 33.4635C149.335 33.5365 149.179 33.5994 148.992 33.6522C148.809 33.7049 148.617 33.7475 148.414 33.78C148.215 33.8165 148.018 33.8429 147.823 33.8591C147.628 33.8754 147.458 33.8835 147.312 33.8835C147.141 33.8835 146.957 33.8754 146.758 33.8591C146.559 33.847 146.358 33.8246 146.155 33.7922C145.957 33.7638 145.762 33.7252 145.571 33.6765C145.38 33.6278 145.206 33.571 145.048 33.5061C144.853 33.5629 144.628 33.6136 144.372 33.6583C144.12 33.7029 143.855 33.7394 143.575 33.7678C143.295 33.8003 143.01 33.8246 142.722 33.8409C142.434 33.8571 142.156 33.8652 141.888 33.8652H141.834C141.7 33.8652 141.574 33.8388 141.456 33.7861C141.339 33.7374 141.237 33.6684 141.152 33.5791C141.067 33.4939 141 33.3925 140.951 33.2748C140.898 33.1571 140.872 33.0313 140.872 32.8974ZM145.297 28.9591C145.167 28.9388 145.027 28.9774 144.877 29.0748C144.731 29.1722 144.597 29.298 144.475 29.4522C144.354 29.6064 144.256 29.7768 144.183 29.9635C144.11 30.1461 144.082 30.3165 144.098 30.4748V30.4687C144.11 30.5742 144.151 30.6838 144.22 30.7974C144.289 30.907 144.37 31.0145 144.463 31.12C144.561 31.2214 144.664 31.3128 144.774 31.3939C144.883 31.471 144.985 31.5278 145.078 31.5643C145.232 31.5481 145.382 31.5116 145.528 31.4548C145.679 31.398 145.813 31.3128 145.93 31.1991C146.048 31.0855 146.143 30.9394 146.216 30.7609C146.289 30.5823 146.326 30.3632 146.326 30.1035C146.326 29.9696 146.287 29.8377 146.21 29.7078C146.137 29.578 146.048 29.4603 145.942 29.3548C145.837 29.2452 145.723 29.1559 145.601 29.087C145.484 29.0139 145.382 28.9713 145.297 28.9591ZM147.927 29.9696C147.927 30.14 147.906 30.3186 147.866 30.5052C147.825 30.6919 147.77 30.8765 147.701 31.0591C147.633 31.2417 147.553 31.4203 147.464 31.5948C147.379 31.7652 147.288 31.9235 147.19 32.0696H147.245C147.541 32.0696 147.813 32.0594 148.061 32.0391C148.312 32.0148 148.529 31.9701 148.712 31.9052C148.895 31.8362 149.039 31.7429 149.144 31.6252C149.254 31.5035 149.319 31.3432 149.339 31.1443C149.347 31.047 149.306 30.9414 149.217 30.8278C149.128 30.7101 149.012 30.5945 148.87 30.4809C148.732 30.3632 148.578 30.2496 148.408 30.14C148.237 30.0304 148.077 29.933 147.927 29.8478V29.9696ZM154.59 29.4035C154.744 29.8417 154.878 30.2699 154.991 30.6878C155.04 30.8704 155.089 31.0612 155.137 31.26C155.186 31.4548 155.229 31.6516 155.265 31.8504C155.306 32.0452 155.338 32.238 155.363 32.4287C155.387 32.6154 155.399 32.7899 155.399 32.9522C155.399 33.3336 155.346 33.7049 155.241 34.0661C155.139 34.4313 154.993 34.7843 154.803 35.1252C154.616 35.4661 154.393 35.7928 154.133 36.1052C153.873 36.4217 153.585 36.718 153.269 36.9939C152.952 37.2699 152.613 37.5255 152.252 37.7609C151.891 38.0003 151.518 38.2154 151.132 38.4061L150.024 36.8661C150.316 36.72 150.613 36.5536 150.913 36.367C151.209 36.1843 151.493 35.9875 151.765 35.7765C152.041 35.5655 152.297 35.3443 152.532 35.113C152.772 34.8817 152.979 34.6464 153.153 34.407C153.332 34.1675 153.472 33.9241 153.573 33.6765C153.674 33.433 153.725 33.1936 153.725 32.9583C153.725 32.7878 153.701 32.6032 153.652 32.4043C153.607 32.2055 153.545 31.9925 153.463 31.7652C153.386 31.5339 153.293 31.2904 153.183 31.0348C153.074 30.7751 152.956 30.4991 152.83 30.207L154.59 29.4035ZM101.118 61.0591C100.838 61.0591 100.55 61.0449 100.253 61.0165C99.9611 60.9922 99.671 60.9414 99.3829 60.8643C99.0947 60.7913 98.8168 60.6899 98.5489 60.56C98.2811 60.4301 98.0316 60.2617 97.8002 60.0548C97.5689 59.8519 97.3681 59.6267 97.1976 59.3791C97.0313 59.1357 96.8933 58.8759 96.7837 58.6C96.6742 58.3241 96.591 58.0359 96.5342 57.7357C96.4814 57.4354 96.455 57.129 96.455 56.8165C96.455 56.151 96.5605 55.4794 96.7716 54.8017C96.9866 54.1241 97.3031 53.4687 97.7211 52.8357L99.0907 53.8217C99.0095 53.9313 98.9142 54.0957 98.8046 54.3148C98.695 54.5339 98.5895 54.7835 98.4881 55.0635C98.3866 55.3435 98.3014 55.6417 98.2324 55.9583C98.1634 56.2707 98.1289 56.573 98.1289 56.8652C98.1289 57.202 98.204 57.5064 98.3542 57.7783C98.5084 58.0501 98.7113 58.2835 98.9629 58.4783C99.2185 58.673 99.5107 58.8252 99.8394 58.9348C100.172 59.0443 100.517 59.1032 100.874 59.1113C101.162 59.1154 101.442 59.091 101.714 59.0383C101.986 58.9855 102.244 58.9084 102.487 58.807C102.731 58.7055 102.952 58.5817 103.151 58.4357C103.354 58.2896 103.526 58.1252 103.668 57.9426C103.814 57.7641 103.924 57.5693 103.997 57.3583C104.074 57.1472 104.106 56.9261 104.094 56.6948C104.086 56.5203 104.054 56.3235 103.997 56.1043C103.94 55.8852 103.871 55.662 103.79 55.4348C103.713 55.2035 103.625 54.9762 103.528 54.753C103.435 54.5299 103.345 54.3249 103.26 54.1383C103.179 53.9475 103.108 53.7852 103.047 53.6513C102.986 53.5174 102.948 53.4261 102.932 53.3774L104.587 52.4583C104.599 52.4745 104.634 52.5475 104.691 52.6774C104.752 52.8072 104.823 52.9757 104.904 53.1826C104.989 53.3855 105.078 53.6188 105.172 53.8826C105.265 54.1464 105.352 54.4223 105.433 54.7104C105.519 54.9986 105.592 55.2907 105.652 55.587C105.713 55.8832 105.752 56.1652 105.768 56.433C105.772 56.4655 105.774 56.5041 105.774 56.5487C105.774 56.5974 105.774 56.638 105.774 56.6704C105.774 57.0316 105.734 57.3907 105.652 57.7478C105.571 58.1049 105.445 58.4458 105.275 58.7704C105.109 59.0991 104.898 59.4014 104.642 59.6774C104.39 59.9574 104.092 60.1988 103.747 60.4017C103.402 60.6087 103.011 60.769 102.572 60.8826C102.134 61.0003 101.649 61.0591 101.118 61.0591ZM101.118 51.0096L102.469 52.3609L101.118 53.7122L99.7663 52.3609L101.118 51.0096ZM109.809 56.8652C109.31 56.8652 108.882 56.8023 108.525 56.6765C108.168 56.5548 107.86 56.3661 107.6 56.1104C107.438 55.9481 107.312 55.7777 107.223 55.5991C107.137 55.4206 107.074 55.2461 107.034 55.0757C106.997 54.9012 106.975 54.7368 106.967 54.5826C106.963 54.4284 106.961 54.2965 106.961 54.187V54.0957C106.965 53.9455 106.969 53.7304 106.973 53.4504C106.981 53.1664 106.985 52.8336 106.985 52.4522C106.985 52.0707 106.983 51.6507 106.979 51.1922C106.975 50.7336 106.963 50.2771 106.943 49.8226C106.926 49.3641 106.9 48.9238 106.863 48.5017C106.831 48.0797 106.784 47.7125 106.723 47.4L108.543 46.8461C108.596 47.1139 108.639 47.4304 108.671 47.7957C108.704 48.1568 108.73 48.5362 108.75 48.9339C108.775 49.3316 108.791 49.7313 108.799 50.133C108.811 50.5348 108.819 50.9081 108.823 51.253C108.827 51.5574 108.815 51.8557 108.787 52.1478C108.763 52.4359 108.742 52.72 108.726 53C108.71 53.2759 108.71 53.5458 108.726 53.8096C108.746 54.0693 108.803 54.3229 108.896 54.5704C108.933 54.6638 108.978 54.7348 109.03 54.7835C109.087 54.8322 109.152 54.8687 109.225 54.893C109.298 54.9133 109.377 54.9255 109.463 54.9296C109.552 54.9336 109.649 54.9357 109.755 54.9357H109.809C109.939 54.9357 110.063 54.962 110.181 55.0148C110.298 55.0675 110.4 55.1386 110.485 55.2278C110.574 55.313 110.645 55.4145 110.698 55.5322C110.751 55.6499 110.777 55.7736 110.777 55.9035C110.777 56.0374 110.751 56.1632 110.698 56.2809C110.645 56.3986 110.574 56.5 110.485 56.5852C110.4 56.6745 110.298 56.7435 110.181 56.7922C110.063 56.8409 109.939 56.8652 109.809 56.8652ZM114.828 55.1243C114.957 55.0919 115.035 54.9235 115.059 54.6191C115.083 54.3026 115.024 54.0186 114.882 53.767C114.757 53.5357 114.566 53.3348 114.31 53.1643C114.055 52.9939 113.862 52.9351 113.732 52.9878C113.557 53.0609 113.294 53.5113 112.941 54.3391C113.959 54.9235 114.588 55.1852 114.828 55.1243ZM117.902 55.9035C117.902 56.1672 117.808 56.3925 117.622 56.5791C117.431 56.7658 117.204 56.8612 116.94 56.8652H116.934C116.422 56.8652 116.009 56.6907 115.692 56.3417C115.359 56.6745 114.935 56.8409 114.42 56.8409C113.823 56.8409 112.957 56.5406 111.821 55.94C111.748 56.0942 111.608 56.2504 111.401 56.4087C111.218 56.5467 111.009 56.6542 110.774 56.7313C110.477 56.8287 110.145 56.8774 109.775 56.8774C109.508 56.8774 109.28 56.7841 109.094 56.5974C108.907 56.4107 108.814 56.1835 108.814 55.9157C108.814 55.6519 108.907 55.4267 109.094 55.24C109.28 55.0533 109.508 54.96 109.775 54.96C110.283 54.96 110.725 54.7084 111.102 54.2052C111.236 54.0226 111.378 53.7852 111.529 53.493C111.573 53.4038 111.634 53.282 111.711 53.1278L111.796 52.9452L111.882 52.7748C112.429 51.6872 113.113 51.1435 113.933 51.1435C114.529 51.1435 115.057 51.3423 115.515 51.74C116.035 52.1904 116.329 52.8093 116.398 53.5965L116.404 53.6513C116.412 53.6757 116.416 53.7041 116.416 53.7365C116.424 53.9354 116.453 54.1362 116.502 54.3391C116.546 54.5136 116.599 54.6516 116.66 54.753C116.741 54.8788 116.834 54.9417 116.94 54.9417C117.204 54.9417 117.429 55.0351 117.615 55.2217C117.806 55.4084 117.902 55.6357 117.902 55.9035ZM115.999 55.9035C115.999 55.7696 116.025 55.6438 116.078 55.5261C116.131 55.4084 116.204 55.307 116.297 55.2217C116.387 55.1365 116.492 55.0696 116.614 55.0209C116.732 54.9681 116.857 54.9417 116.991 54.9417H122.518C122.648 54.9417 122.772 54.9681 122.889 55.0209C123.007 55.0696 123.109 55.1365 123.194 55.2217C123.283 55.307 123.354 55.4084 123.407 55.5261C123.46 55.6438 123.486 55.7696 123.486 55.9035C123.486 56.0374 123.46 56.1632 123.407 56.2809C123.354 56.3986 123.283 56.5 123.194 56.5852C123.109 56.6745 123.007 56.7435 122.889 56.7922C122.772 56.8409 122.648 56.8652 122.518 56.8652H116.985C116.855 56.8652 116.732 56.8409 116.614 56.7922C116.492 56.7435 116.387 56.6745 116.297 56.5852C116.204 56.5 116.131 56.3986 116.078 56.2809C116.025 56.1632 115.999 56.0374 115.999 55.9035ZM121.522 55.9035C121.522 55.7696 121.549 55.6438 121.602 55.5261C121.654 55.4084 121.727 55.307 121.821 55.2217C121.91 55.1365 122.016 55.0696 122.137 55.0209C122.255 54.9681 122.381 54.9417 122.515 54.9417H128.042C128.171 54.9417 128.295 54.9681 128.413 55.0209C128.531 55.0696 128.632 55.1365 128.717 55.2217C128.807 55.307 128.878 55.4084 128.93 55.5261C128.983 55.6438 129.009 55.7696 129.009 55.9035C129.009 56.0374 128.983 56.1632 128.93 56.2809C128.878 56.3986 128.807 56.5 128.717 56.5852C128.632 56.6745 128.531 56.7435 128.413 56.7922C128.295 56.8409 128.171 56.8652 128.042 56.8652H122.509C122.379 56.8652 122.255 56.8409 122.137 56.7922C122.016 56.7435 121.91 56.6745 121.821 56.5852C121.727 56.5 121.654 56.3986 121.602 56.2809C121.549 56.1632 121.522 56.0374 121.522 55.9035ZM132.95 48.9217L131.782 50.0965L130.625 48.94L129.481 50.0843L128.3 48.9096L129.469 47.7348L130.625 48.8913L131.769 47.747L132.95 48.9217ZM126.857 55.9035C126.857 55.7696 126.884 55.6438 126.936 55.5261C126.985 55.4084 127.052 55.307 127.137 55.2217C127.222 55.1325 127.324 55.0635 127.442 55.0148C127.559 54.9661 127.685 54.9417 127.819 54.9417H128.495H128.787C128.969 54.9417 129.17 54.9336 129.389 54.9174C129.609 54.9012 129.82 54.8748 130.022 54.8383C130.225 54.8017 130.408 54.753 130.57 54.6922C130.737 54.6272 130.858 54.5461 130.935 54.4487C130.98 54.3797 131.002 54.2864 131.002 54.1687C131.002 53.9942 130.96 53.7872 130.875 53.5478C130.793 53.3084 130.696 53.0649 130.582 52.8174C130.469 52.5699 130.351 52.3325 130.229 52.1052C130.112 51.878 130.016 51.6893 129.943 51.5391L131.678 50.687C131.804 50.9061 131.926 51.1658 132.043 51.4661C132.161 51.7623 132.266 52.0687 132.36 52.3852C132.453 52.6977 132.528 53.0061 132.585 53.3104C132.642 53.6107 132.67 53.8725 132.67 54.0957C132.67 54.5055 132.597 54.8809 132.451 55.2217C132.281 55.6032 132.047 55.9197 131.751 56.1713C131.455 56.4188 131.1 56.6014 130.686 56.7191C130.564 56.7516 130.412 56.778 130.229 56.7983C130.047 56.8186 129.862 56.8328 129.675 56.8409C129.489 56.853 129.312 56.8591 129.146 56.8591C128.98 56.8632 128.85 56.8652 128.756 56.8652H127.874H127.819C127.685 56.8652 127.559 56.8409 127.442 56.7922C127.324 56.7435 127.222 56.6745 127.137 56.5852C127.052 56.5 126.985 56.3986 126.936 56.2809C126.884 56.1632 126.857 56.0374 126.857 55.9035ZM136.426 52.4035C136.581 52.8417 136.715 53.2699 136.828 53.6878C136.877 53.8704 136.926 54.0612 136.974 54.26C137.023 54.4548 137.066 54.6516 137.102 54.8504C137.143 55.0452 137.175 55.238 137.199 55.4287C137.224 55.6154 137.236 55.7899 137.236 55.9522C137.236 56.3336 137.183 56.7049 137.078 57.0661C136.976 57.4313 136.83 57.7843 136.639 58.1252C136.453 58.4661 136.23 58.7928 135.97 59.1052C135.71 59.4217 135.422 59.718 135.106 59.9939C134.789 60.2699 134.45 60.5255 134.089 60.7609C133.728 61.0003 133.355 61.2154 132.969 61.4061L131.861 59.8661C132.153 59.72 132.45 59.5536 132.75 59.367C133.046 59.1843 133.33 58.9875 133.602 58.7765C133.878 58.5655 134.134 58.3443 134.369 58.113C134.608 57.8817 134.815 57.6464 134.99 57.407C135.168 57.1675 135.308 56.9241 135.41 56.6765C135.511 56.433 135.562 56.1936 135.562 55.9583C135.562 55.7878 135.538 55.6032 135.489 55.4043C135.444 55.2055 135.382 54.9925 135.3 54.7652C135.223 54.5339 135.13 54.2904 135.02 54.0348C134.911 53.7751 134.793 53.4991 134.667 53.207L136.426 52.4035ZM141.159 56.8652C140.66 56.8652 140.232 56.8023 139.875 56.6765C139.518 56.5548 139.209 56.3661 138.95 56.1104C138.787 55.9481 138.661 55.7777 138.572 55.5991C138.487 55.4206 138.424 55.2461 138.383 55.0757C138.347 54.9012 138.325 54.7368 138.316 54.5826C138.312 54.4284 138.31 54.2965 138.31 54.187V54.0957C138.314 53.9455 138.318 53.7304 138.323 53.4504C138.331 53.1664 138.335 52.8336 138.335 52.4522C138.335 52.0707 138.333 51.6507 138.329 51.1922C138.325 50.7336 138.312 50.2771 138.292 49.8226C138.276 49.3641 138.25 48.9238 138.213 48.5017C138.181 48.0797 138.134 47.7125 138.073 47.4L139.893 46.8461C139.946 47.1139 139.988 47.4304 140.021 47.7957C140.053 48.1568 140.08 48.5362 140.1 48.9339C140.124 49.3316 140.141 49.7313 140.149 50.133C140.161 50.5348 140.169 50.9081 140.173 51.253C140.177 51.5574 140.165 51.8557 140.136 52.1478C140.112 52.4359 140.092 52.72 140.076 53C140.059 53.2759 140.059 53.5458 140.076 53.8096C140.096 54.0693 140.153 54.3229 140.246 54.5704C140.283 54.6638 140.327 54.7348 140.38 54.7835C140.437 54.8322 140.502 54.8687 140.575 54.893C140.648 54.9133 140.727 54.9255 140.812 54.9296C140.901 54.9336 140.999 54.9357 141.104 54.9357H141.159C141.289 54.9357 141.413 54.962 141.53 55.0148C141.648 55.0675 141.75 55.1386 141.835 55.2278C141.924 55.313 141.995 55.4145 142.048 55.5322C142.101 55.6499 142.127 55.7736 142.127 55.9035C142.127 56.0374 142.101 56.1632 142.048 56.2809C141.995 56.3986 141.924 56.5 141.835 56.5852C141.75 56.6745 141.648 56.7435 141.53 56.7922C141.413 56.8409 141.289 56.8652 141.159 56.8652ZM140.188 55.9035C140.188 55.7696 140.214 55.6438 140.267 55.5261C140.316 55.4084 140.382 55.307 140.468 55.2217C140.553 55.1325 140.654 55.0635 140.772 55.0148C140.89 54.9661 141.016 54.9417 141.149 54.9417H141.825H142.117C142.3 54.9417 142.501 54.9336 142.72 54.9174C142.939 54.9012 143.15 54.8748 143.353 54.8383C143.556 54.8017 143.738 54.753 143.901 54.6922C144.067 54.6272 144.189 54.5461 144.266 54.4487C144.311 54.3797 144.333 54.2864 144.333 54.1687C144.333 53.9942 144.29 53.7872 144.205 53.5478C144.124 53.3084 144.027 53.0649 143.913 52.8174C143.799 52.5699 143.682 52.3325 143.56 52.1052C143.442 51.878 143.347 51.6893 143.274 51.5391L145.009 50.687C145.134 50.9061 145.256 51.1658 145.374 51.4661C145.491 51.7623 145.597 52.0687 145.69 52.3852C145.784 52.6977 145.859 53.0061 145.916 53.3104C145.972 53.6107 146.001 53.8725 146.001 54.0957C146.001 54.5055 145.928 54.8809 145.782 55.2217C145.611 55.6032 145.378 55.9197 145.082 56.1713C144.785 56.4188 144.43 56.6014 144.016 56.7191C143.895 56.7516 143.742 56.778 143.56 56.7983C143.377 56.8186 143.193 56.8328 143.006 56.8409C142.819 56.853 142.643 56.8591 142.476 56.8591C142.31 56.8632 142.18 56.8652 142.087 56.8652H141.204H141.149C141.016 56.8652 140.89 56.8409 140.772 56.7922C140.654 56.7435 140.553 56.6745 140.468 56.5852C140.382 56.5 140.316 56.3986 140.267 56.2809C140.214 56.1632 140.188 56.0374 140.188 55.9035ZM144.771 59.9696L143.627 58.8252L142.47 59.9817L141.302 58.807L142.482 57.6322L143.627 58.7765L144.783 57.62L145.952 58.7948L144.771 59.9696ZM143.633 59.4704L144.716 60.5539L143.627 61.6435L142.543 60.56L143.633 59.4704ZM147.614 56.8835C147.634 56.571 147.652 56.2443 147.669 55.9035C147.689 55.5626 147.705 55.2258 147.717 54.893C147.729 54.5603 147.74 54.2377 147.748 53.9252C147.756 53.6087 147.76 53.3206 147.76 53.0609C147.76 52.3832 147.75 51.8009 147.729 51.3139C147.709 50.827 147.685 50.411 147.656 50.0661C147.628 49.7171 147.596 49.427 147.559 49.1957C147.527 48.9603 147.496 48.7533 147.468 48.5748L147.389 48.1122L149.282 47.5096C149.298 47.5664 149.312 47.6191 149.324 47.6678C149.336 47.7165 149.347 47.7754 149.355 47.8443C149.367 47.9093 149.379 47.9904 149.391 48.0878C149.407 48.1852 149.424 48.313 149.44 48.4713C149.456 48.6296 149.474 48.8223 149.495 49.0496C149.519 49.2768 149.547 49.5548 149.58 49.8835C149.6 50.2 149.616 50.4841 149.629 50.7357C149.645 50.9872 149.657 51.2328 149.665 51.4722C149.673 51.7116 149.679 51.9591 149.683 52.2148C149.687 52.4664 149.689 52.7525 149.689 53.073C149.689 53.6006 149.681 54.1606 149.665 54.753C149.649 55.3414 149.618 55.9603 149.574 56.6096L147.614 56.8835ZM145.989 47.1383C145.989 47.1139 146.003 47.0693 146.031 47.0043C146.056 46.9354 146.086 46.8623 146.123 46.7852C146.155 46.7081 146.187 46.6371 146.22 46.5722C146.252 46.5032 146.275 46.4586 146.287 46.4383C146.433 46.2151 146.603 46.0325 146.798 45.8904C146.997 45.7484 147.194 45.6551 147.389 45.6104C147.429 45.6023 147.48 45.5983 147.541 45.5983C147.602 45.5942 147.65 45.5922 147.687 45.5922C147.882 45.5922 148.058 45.6165 148.216 45.6652C148.375 45.7099 148.517 45.7606 148.643 45.8174L148.831 45.9087C148.9 45.9412 148.969 45.9716 149.038 46C149.107 46.0243 149.18 46.0386 149.257 46.0426C149.322 46.0467 149.389 46.0304 149.458 45.9939C149.527 45.9574 149.594 45.9087 149.659 45.8478C149.728 45.7829 149.793 45.7119 149.854 45.6348C149.919 45.5577 149.98 45.4806 150.036 45.4035L150.986 46.0183C150.982 46.0304 150.96 46.069 150.919 46.1339C150.878 46.1948 150.82 46.2699 150.743 46.3591C150.669 46.4484 150.58 46.5438 150.475 46.6452C150.373 46.7426 150.258 46.8339 150.128 46.9191C149.998 47.0003 149.856 47.0672 149.702 47.12C149.551 47.1728 149.391 47.1971 149.221 47.193C149.095 47.2012 148.967 47.1768 148.837 47.12C148.707 47.0591 148.574 46.9962 148.436 46.9313C148.302 46.8623 148.164 46.8055 148.022 46.7609C147.88 46.7122 147.731 46.7041 147.577 46.7365C147.484 46.7568 147.407 46.7933 147.346 46.8461C147.289 46.8948 147.24 46.9536 147.2 47.0226C147.159 47.0875 147.125 47.1586 147.096 47.2357C147.068 47.3128 147.038 47.3878 147.005 47.4609L145.989 47.1383Z" fill="#303030"/>
<defs>
<linearGradient id="paint0_linear_1325_9598" x1="7.22439" y1="6.16969" x2="174.247" y2="92.5337" gradientUnits="userSpaceOnUse">
<stop stop-color="#EAEAEA"/>
<stop offset="1" stop-color="#BDBDBD"/>
</linearGradient>
</defs>
</svg>
