<svg width="182" height="91" viewBox="0 0 182 91" fill="none" xmlns="http://www.w3.org/2000/svg">
<rect x="0.787109" y="0.75" width="179.537" height="89.5" rx="9.25" fill="white" stroke="url(#paint0_linear_1325_10968)" stroke-width="1.5"/>
<path d="M72.1181 61.4245H69.2751V39.9915L57.8071 32.3415L52.2221 35.2035V29.8245L37.8321 21.3855L24.1371 29.8395V61.4245H20.1241C19.5701 61.4245 19.1211 61.8635 19.1211 62.4055C19.1211 62.9465 19.5701 63.3855 20.1241 63.3855H24.1371H43.0291H44.0321H69.2761H72.1191C72.6721 63.3855 73.1211 62.9465 73.1211 62.4055C73.1211 61.8635 72.6721 61.4245 72.1181 61.4245ZM26.1421 36.4085L36.8421 31.0085V34.7265L26.1421 40.1605V36.4085ZM67.2691 49.7295L58.7431 47.2155V42.1665L67.2691 46.2675V49.7295ZM43.0291 39.9165V42.7035L38.8491 40.9855V36.7655L44.0371 39.3995L43.0291 39.9165ZM36.8431 41.1235L26.1431 45.5195V42.3695L36.8431 36.9355V41.1235ZM36.8431 43.2505V47.6395L26.1431 51.0105V47.6475L36.8431 43.2505ZM38.8491 43.1135L43.0291 44.8315V49.0415L38.8491 47.6515V43.1135ZM45.0351 46.9205L56.7371 42.0945V47.2355L45.0351 51.0025V46.9205ZM56.7371 39.9665L45.0351 44.7925V41.1035L56.7371 35.1055V39.9665ZM46.2011 38.2905L38.8481 34.5565V31.0825L49.1261 36.7905L46.2011 38.2905ZM26.1421 53.0695L36.8421 49.6985V53.9545L26.1421 56.4995V53.0695ZM38.8491 49.7215L43.0291 51.1115V55.4495L38.8491 54.0285V49.7215ZM45.0351 53.0655L56.7371 49.2995V54.4035L45.0351 56.5655V53.0655ZM58.7431 49.2635L67.2691 51.7775V55.6825L58.7431 54.3765V49.2635ZM67.2691 44.0815L58.7431 39.9815V35.3395L67.2691 41.0275V44.0815ZM50.2171 35.1405L38.8491 28.8275V24.2665L50.2171 30.9335V35.1405ZM36.8431 24.3155V28.8015L26.1431 34.2005V30.9195L36.8431 24.3155ZM26.1421 58.5185L36.8421 55.9735V61.4255H26.1421V58.5185ZM38.8491 61.4245V56.1045L43.0291 57.5255V61.4235H38.8491V61.4245ZM45.0351 58.5605L56.7371 56.3985V61.4245H45.0351V58.5605ZM58.7431 61.4245V56.3615L67.2691 57.6675V61.4245H58.7431Z" fill="#303030"/>
<path d="M99.3282 35.7507C99.3079 35.7507 99.251 35.7467 99.1577 35.7385C99.0684 35.7345 98.9568 35.7223 98.8229 35.702C98.6931 35.6817 98.545 35.6493 98.3786 35.6046C98.2163 35.56 98.0519 35.4991 97.8855 35.422C97.4432 35.211 97.1003 34.9229 96.8568 34.5577C96.6134 34.1884 96.4916 33.7603 96.4916 33.2733C96.4916 32.4617 96.8508 31.6197 97.569 30.7472C97.6258 30.6783 97.6725 30.6214 97.709 30.5768C97.7496 30.5322 97.7861 30.4916 97.8186 30.4551C97.851 30.4185 97.8815 30.3861 97.9099 30.3577C97.9424 30.3252 97.9789 30.2887 98.0195 30.2481C97.9708 30.2075 97.9221 30.169 97.8734 30.1325C97.8287 30.0959 97.7902 30.0614 97.7577 30.029L97.6482 29.9316L98.8595 28.4525C99.0664 28.6067 99.3139 28.8156 99.6021 29.0794C99.8902 29.3391 100.223 29.6719 100.6 30.0777C101.651 31.2748 102.177 32.34 102.177 33.2733C102.177 33.7522 102.061 34.1762 101.83 34.5455C101.603 34.9148 101.286 35.2049 100.88 35.4159C100.738 35.4849 100.592 35.5397 100.442 35.5803C100.296 35.6249 100.154 35.6594 100.016 35.6838C99.878 35.7081 99.7482 35.7243 99.6264 35.7325C99.5087 35.7446 99.4093 35.7507 99.3282 35.7507ZM100.509 33.2733C100.509 33.1475 100.468 33.0055 100.387 32.8472C100.306 32.689 100.199 32.5246 100.065 32.3542C99.9348 32.1797 99.7887 32.0052 99.6264 31.8307C99.4641 31.6522 99.3018 31.4817 99.1395 31.3194C99.0299 31.4412 98.9142 31.5791 98.7925 31.7333C98.6708 31.8835 98.5592 32.0438 98.4577 32.2142C98.3563 32.3846 98.2731 32.5612 98.2082 32.7438C98.1432 32.9223 98.1148 33.0988 98.1229 33.2733C98.127 33.3707 98.1737 33.4559 98.2629 33.529C98.3522 33.602 98.4577 33.6609 98.5795 33.7055C98.7053 33.7501 98.8371 33.7846 98.9751 33.809C99.1131 33.8293 99.2308 33.8394 99.3282 33.8394C99.4499 33.8394 99.5797 33.8313 99.7177 33.8151C99.8597 33.7948 99.9876 33.7623 100.101 33.7177C100.219 33.673 100.316 33.6142 100.393 33.5412C100.47 33.4681 100.509 33.3788 100.509 33.2733ZM106.12 35.7507C105.621 35.7507 105.193 35.6878 104.836 35.562C104.479 35.4403 104.17 35.2516 103.91 34.9959C103.748 34.8336 103.622 34.6632 103.533 34.4846C103.448 34.3061 103.385 34.1316 103.344 33.9612C103.308 33.7867 103.286 33.6223 103.277 33.4681C103.273 33.3139 103.271 33.182 103.271 33.0725V32.9812C103.275 32.831 103.279 32.6159 103.283 32.3359C103.292 32.0519 103.296 31.7191 103.296 31.3377C103.296 30.9562 103.294 30.5362 103.29 30.0777C103.286 29.6191 103.273 29.1626 103.253 28.7081C103.237 28.2496 103.21 27.8093 103.174 27.3872C103.141 26.9652 103.095 26.598 103.034 26.2855L104.854 25.7316C104.907 25.9994 104.949 26.3159 104.982 26.6811C105.014 27.0423 105.041 27.4217 105.061 27.8194C105.085 28.2171 105.101 28.6168 105.11 29.0185C105.122 29.4203 105.13 29.7936 105.134 30.1385C105.138 30.4429 105.126 30.7411 105.097 31.0333C105.073 31.3214 105.053 31.6055 105.037 31.8855C105.02 32.1614 105.02 32.4313 105.037 32.6951C105.057 32.9548 105.114 33.2084 105.207 33.4559C105.243 33.5493 105.288 33.6203 105.341 33.669C105.398 33.7177 105.463 33.7542 105.536 33.7785C105.609 33.7988 105.688 33.811 105.773 33.8151C105.862 33.8191 105.96 33.8212 106.065 33.8212H106.12C106.25 33.8212 106.374 33.8475 106.491 33.9003C106.609 33.953 106.71 34.024 106.796 34.1133C106.885 34.1985 106.956 34.3 107.009 34.4177C107.061 34.5354 107.088 34.6591 107.088 34.789C107.088 34.9229 107.061 35.0487 107.009 35.1664C106.956 35.284 106.885 35.3855 106.796 35.4707C106.71 35.56 106.609 35.629 106.491 35.6777C106.374 35.7264 106.25 35.7507 106.12 35.7507ZM111.023 27.8072L109.854 28.982L108.697 27.8255L107.553 28.9698L106.372 27.7951L107.541 26.6203L108.697 27.7768L109.842 26.6325L111.023 27.8072ZM104.929 34.789C104.929 34.6551 104.956 34.5293 105.009 34.4116C105.057 34.2939 105.124 34.1925 105.209 34.1072C105.295 34.018 105.396 33.949 105.514 33.9003C105.632 33.8516 105.757 33.8272 105.891 33.8272H106.567H106.859C107.042 33.8272 107.243 33.8191 107.462 33.8029C107.681 33.7867 107.892 33.7603 108.095 33.7238C108.298 33.6872 108.48 33.6385 108.643 33.5777C108.809 33.5127 108.931 33.4316 109.008 33.3342C109.052 33.2652 109.075 33.1719 109.075 33.0542C109.075 32.8797 109.032 32.6727 108.947 32.4333C108.866 32.1939 108.768 31.9504 108.655 31.7029C108.541 31.4554 108.423 31.218 108.302 30.9907C108.184 30.7635 108.089 30.5748 108.016 30.4246L109.75 29.5725C109.876 29.7916 109.998 30.0513 110.116 30.3516C110.233 30.6478 110.339 30.9542 110.432 31.2707C110.525 31.5832 110.6 31.8916 110.657 32.1959C110.714 32.4962 110.743 32.758 110.743 32.9812C110.743 33.391 110.669 33.7664 110.523 34.1072C110.353 34.4887 110.12 34.8052 109.823 35.0568C109.527 35.3043 109.172 35.4869 108.758 35.6046C108.636 35.6371 108.484 35.6635 108.302 35.6838C108.119 35.704 107.934 35.7183 107.748 35.7264C107.561 35.7385 107.385 35.7446 107.218 35.7446C107.052 35.7487 106.922 35.7507 106.829 35.7507H105.946H105.891C105.757 35.7507 105.632 35.7264 105.514 35.6777C105.396 35.629 105.295 35.56 105.209 35.4707C105.124 35.3855 105.057 35.284 105.009 35.1664C104.956 35.0487 104.929 34.9229 104.929 34.789ZM111.23 38.1672C111.802 38.0536 112.32 37.9096 112.782 37.7351C113.249 37.5646 113.657 37.3719 114.006 37.1568C114.359 36.9458 114.649 36.7206 114.876 36.4812C115.103 36.2417 115.266 35.9983 115.363 35.7507C115.189 35.7507 115.012 35.7467 114.833 35.7385C114.655 35.7345 114.503 35.7284 114.377 35.7203C113.906 35.6797 113.476 35.5742 113.087 35.4038C112.697 35.2374 112.387 35.0101 112.155 34.722C111.985 34.5029 111.863 34.2655 111.79 34.0098C111.721 33.7542 111.687 33.4843 111.687 33.2003C111.687 32.9812 111.707 32.762 111.747 32.5429C111.788 32.3197 111.845 32.1046 111.918 31.8977C111.991 31.6867 112.076 31.4878 112.173 31.3012C112.275 31.1145 112.382 30.944 112.496 30.7898C112.74 30.4855 113.005 30.2562 113.293 30.102C113.586 29.9438 113.892 29.8646 114.213 29.8646C114.898 29.8646 115.517 30.1649 116.069 30.7655C116.24 30.9562 116.394 31.1672 116.532 31.3985C116.67 31.6298 116.791 31.8774 116.897 32.1412C117.002 32.4009 117.088 32.6727 117.153 32.9568C117.222 33.2409 117.268 33.531 117.293 33.8272H117.408C117.542 33.8272 117.668 33.8516 117.786 33.9003C117.903 33.949 118.005 34.018 118.09 34.1072C118.179 34.1925 118.25 34.2939 118.303 34.4116C118.356 34.5293 118.382 34.6571 118.382 34.7951C118.382 34.9249 118.356 35.0487 118.303 35.1664C118.25 35.28 118.179 35.3794 118.09 35.4646C118.005 35.5539 117.903 35.6229 117.786 35.6716C117.668 35.7243 117.542 35.7507 117.408 35.7507H117.14C116.982 36.3472 116.729 36.8869 116.38 37.3698C116.035 37.8527 115.621 38.2748 115.138 38.6359C114.659 38.9971 114.123 39.2954 113.531 39.5307C112.942 39.7661 112.326 39.9345 111.68 40.0359L111.23 38.1672ZM114.213 31.7942C114.123 31.7942 114.024 31.8348 113.914 31.9159C113.809 31.993 113.709 32.0925 113.616 32.2142C113.523 32.3359 113.444 32.4719 113.379 32.622C113.318 32.7722 113.287 32.9183 113.287 33.0603C113.287 33.1983 113.326 33.3119 113.403 33.4012C113.48 33.4904 113.578 33.5635 113.695 33.6203C113.817 33.673 113.949 33.7136 114.091 33.742C114.233 33.7664 114.371 33.7846 114.505 33.7968C114.578 33.8049 114.657 33.811 114.742 33.8151C114.831 33.8151 114.923 33.8151 115.016 33.8151C115.109 33.8151 115.201 33.8171 115.29 33.8212C115.383 33.8212 115.469 33.8232 115.546 33.8272C115.517 33.6284 115.473 33.4417 115.412 33.2672C115.351 33.0927 115.282 32.9304 115.205 32.7803C115.132 32.6301 115.051 32.4962 114.961 32.3785C114.876 32.2568 114.793 32.1513 114.712 32.062C114.683 32.0336 114.647 32.0032 114.602 31.9707C114.562 31.9383 114.519 31.9098 114.474 31.8855C114.43 31.8571 114.383 31.8348 114.334 31.8185C114.29 31.8023 114.249 31.7942 114.213 31.7942ZM116.314 34.7951C116.314 34.6571 116.338 34.5293 116.387 34.4116C116.435 34.2939 116.507 34.1925 116.6 34.1072C116.689 34.018 116.797 33.949 116.922 33.9003C117.044 33.8516 117.182 33.8272 117.336 33.8272H117.677H117.975C118.195 33.8272 118.436 33.8252 118.7 33.8212C118.964 33.813 119.217 33.7927 119.461 33.7603C119.708 33.7238 119.929 33.671 120.124 33.602C120.323 33.533 120.467 33.4377 120.556 33.3159C120.678 33.1293 120.739 32.9162 120.739 32.6768C120.739 32.5956 120.731 32.5145 120.715 32.4333C120.702 32.3481 120.686 32.2609 120.666 32.1716C120.638 32.0701 120.577 31.9484 120.483 31.8064C120.394 31.6603 120.278 31.502 120.136 31.3316C119.994 31.1571 119.832 30.9745 119.649 30.7838C119.467 30.589 119.272 30.3922 119.065 30.1933C118.858 29.9904 118.641 29.7896 118.414 29.5907C118.187 29.3919 117.959 29.1991 117.732 29.0125L117.921 27.3568L123.034 25.0803L123.77 26.7116L119.729 28.5864C119.927 28.7243 120.132 28.8887 120.343 29.0794C120.554 29.2701 120.759 29.4791 120.958 29.7064C121.157 29.9296 121.344 30.1669 121.518 30.4185C121.693 30.6701 121.845 30.9278 121.975 31.1916C122.104 31.4554 122.206 31.7212 122.279 31.989C122.356 32.2568 122.393 32.5185 122.389 32.7742C122.384 33.0785 122.344 33.3626 122.267 33.6264C122.19 33.8861 122.094 34.1194 121.981 34.3264C121.559 35.0812 120.863 35.5417 119.893 35.7081L119.899 35.702C119.789 35.7223 119.686 35.7365 119.589 35.7446C119.491 35.7527 119.396 35.7568 119.302 35.7568L117.336 35.7507C117.186 35.7507 117.048 35.7264 116.922 35.6777C116.797 35.629 116.689 35.56 116.6 35.4707C116.511 35.3855 116.442 35.2861 116.393 35.1725C116.34 35.0548 116.314 34.929 116.314 34.7951ZM130.035 35.7507C130.015 35.7507 129.958 35.7467 129.865 35.7385C129.775 35.7345 129.664 35.7223 129.53 35.702C129.4 35.6817 129.252 35.6493 129.086 35.6046C128.923 35.56 128.759 35.4991 128.593 35.422C128.15 35.211 127.807 34.9229 127.564 34.5577C127.32 34.1884 127.199 33.7603 127.199 33.2733C127.199 32.4617 127.558 31.6197 128.276 30.7472C128.333 30.6783 128.38 30.6214 128.416 30.5768C128.457 30.5322 128.493 30.4916 128.526 30.4551C128.558 30.4185 128.589 30.3861 128.617 30.3577C128.649 30.3252 128.686 30.2887 128.726 30.2481C128.678 30.2075 128.629 30.169 128.58 30.1325C128.536 30.0959 128.497 30.0614 128.465 30.029L128.355 29.9316L129.566 28.4525C129.773 28.6067 130.021 28.8156 130.309 29.0794C130.597 29.3391 130.93 29.6719 131.307 30.0777C132.358 31.2748 132.884 32.34 132.884 33.2733C132.884 33.7522 132.768 34.1762 132.537 34.5455C132.31 34.9148 131.993 35.2049 131.587 35.4159C131.445 35.4849 131.299 35.5397 131.149 35.5803C131.003 35.6249 130.861 35.6594 130.723 35.6838C130.585 35.7081 130.455 35.7243 130.333 35.7325C130.216 35.7446 130.116 35.7507 130.035 35.7507ZM131.216 33.2733C131.216 33.1475 131.175 33.0055 131.094 32.8472C131.013 32.689 130.906 32.5246 130.772 32.3542C130.642 32.1797 130.496 32.0052 130.333 31.8307C130.171 31.6522 130.009 31.4817 129.846 31.3194C129.737 31.4412 129.621 31.5791 129.5 31.7333C129.378 31.8835 129.266 32.0438 129.165 32.2142C129.063 32.3846 128.98 32.5612 128.915 32.7438C128.85 32.9223 128.822 33.0988 128.83 33.2733C128.834 33.3707 128.881 33.4559 128.97 33.529C129.059 33.602 129.165 33.6609 129.286 33.7055C129.412 33.7501 129.544 33.7846 129.682 33.809C129.82 33.8293 129.938 33.8394 130.035 33.8394C130.157 33.8394 130.287 33.8313 130.425 33.8151C130.567 33.7948 130.695 33.7623 130.808 33.7177C130.926 33.673 131.023 33.6142 131.1 33.5412C131.178 33.4681 131.216 33.3788 131.216 33.2733ZM136.456 31.289C136.61 31.7272 136.744 32.1554 136.857 32.5733C136.906 32.7559 136.955 32.9467 137.004 33.1455C137.052 33.3403 137.095 33.5371 137.131 33.7359C137.172 33.9307 137.204 34.1235 137.229 34.3142C137.253 34.5009 137.265 34.6754 137.265 34.8377C137.265 35.2191 137.213 35.5904 137.107 35.9516C137.006 36.3168 136.86 36.6698 136.669 37.0107C136.482 37.3516 136.259 37.6783 135.999 37.9907C135.74 38.3072 135.451 38.6035 135.135 38.8794C134.818 39.1554 134.48 39.411 134.118 39.6464C133.757 39.8858 133.384 40.1009 132.998 40.2916L131.891 38.7516C132.183 38.6055 132.479 38.4391 132.779 38.2525C133.075 38.0698 133.36 37.873 133.631 37.662C133.907 37.451 134.163 37.2298 134.398 36.9985C134.638 36.7672 134.845 36.5319 135.019 36.2925C135.198 36.053 135.338 35.8096 135.439 35.562C135.541 35.3185 135.591 35.0791 135.591 34.8438C135.591 34.6733 135.567 34.4887 135.518 34.2898C135.474 34.091 135.411 33.878 135.33 33.6507C135.253 33.4194 135.159 33.1759 135.05 32.9203C134.94 32.6606 134.822 32.3846 134.697 32.0925L136.456 31.289ZM141.188 35.7507C140.689 35.7507 140.261 35.6878 139.904 35.562C139.547 35.4403 139.239 35.2516 138.979 34.9959C138.816 34.8336 138.691 34.6632 138.601 34.4846C138.516 34.3061 138.453 34.1316 138.413 33.9612C138.376 33.7867 138.354 33.6223 138.346 33.4681C138.342 33.3139 138.34 33.182 138.34 33.0725V32.9812C138.344 32.831 138.348 32.6159 138.352 32.3359C138.36 32.0519 138.364 31.7191 138.364 31.3377C138.364 30.9562 138.362 30.5362 138.358 30.0777C138.354 29.6191 138.342 29.1626 138.321 28.7081C138.305 28.2496 138.279 27.8093 138.242 27.3872C138.21 26.9652 138.163 26.598 138.102 26.2855L139.922 25.7316C139.975 25.9994 140.018 26.3159 140.05 26.6811C140.083 27.0423 140.109 27.4217 140.129 27.8194C140.154 28.2171 140.17 28.6168 140.178 29.0185C140.19 29.4203 140.198 29.7936 140.202 30.1385C140.206 30.4429 140.194 30.7411 140.166 31.0333C140.141 31.3214 140.121 31.6055 140.105 31.8855C140.089 32.1614 140.089 32.4313 140.105 32.6951C140.125 32.9548 140.182 33.2084 140.275 33.4559C140.312 33.5493 140.356 33.6203 140.409 33.669C140.466 33.7177 140.531 33.7542 140.604 33.7785C140.677 33.7988 140.756 33.811 140.841 33.8151C140.931 33.8191 141.028 33.8212 141.134 33.8212H141.188C141.318 33.8212 141.442 33.8475 141.56 33.9003C141.677 33.953 141.779 34.024 141.864 34.1133C141.953 34.1985 142.024 34.3 142.077 34.4177C142.13 34.5354 142.156 34.6591 142.156 34.789C142.156 34.9229 142.13 35.0487 142.077 35.1664C142.024 35.284 141.953 35.3855 141.864 35.4707C141.779 35.56 141.677 35.629 141.56 35.6777C141.442 35.7264 141.318 35.7507 141.188 35.7507ZM140.199 34.789C140.199 34.6551 140.225 34.5293 140.278 34.4116C140.327 34.2939 140.396 34.1925 140.485 34.1072C140.57 34.018 140.673 33.949 140.795 33.9003C140.913 33.8516 141.039 33.8272 141.173 33.8272H142.341C142.999 33.8272 143.601 33.7887 144.149 33.7116C144.701 33.6304 145.216 33.5229 145.695 33.389C146.174 33.2551 146.627 33.1009 147.053 32.9264C147.483 32.7478 147.905 32.5632 148.319 32.3725C148.043 32.2954 147.765 32.2 147.485 32.0864C147.209 31.9727 146.931 31.8632 146.651 31.7577C146.375 31.6522 146.099 31.5629 145.823 31.4898C145.547 31.4127 145.273 31.3742 145.001 31.3742C144.815 31.3742 144.632 31.4249 144.453 31.5264C144.275 31.6278 144.113 31.7435 143.967 31.8733C143.82 32.0032 143.697 32.131 143.595 32.2568C143.498 32.3785 143.437 32.4617 143.413 32.5064L142.007 31.5994C142.161 31.3275 142.343 31.0617 142.554 30.802C142.765 30.5423 142.997 30.313 143.248 30.1142C143.504 29.9113 143.778 29.749 144.07 29.6272C144.366 29.5055 144.677 29.4446 145.001 29.4446C145.241 29.4446 145.48 29.471 145.72 29.5238C145.959 29.5725 146.196 29.6374 146.432 29.7185C146.671 29.7997 146.907 29.893 147.138 29.9985C147.369 30.1 147.598 30.2035 147.826 30.309C148.045 30.4104 148.262 30.5119 148.477 30.6133C148.696 30.7107 148.921 30.802 149.153 30.8872C149.384 30.9684 149.623 31.0354 149.871 31.0881C150.118 31.1409 150.38 31.1693 150.656 31.1733L150.504 33.042L149.64 33.4559C149.287 33.6264 148.936 33.8029 148.587 33.9855C148.238 34.164 147.88 34.3385 147.515 34.509C147.154 34.6754 146.781 34.8356 146.395 34.9898C146.014 35.14 145.612 35.2719 145.19 35.3855C144.768 35.4951 144.322 35.5823 143.851 35.6472C143.38 35.7162 142.877 35.7507 142.341 35.7507H141.221H141.173C141.039 35.7507 140.913 35.7243 140.795 35.6716C140.673 35.6229 140.57 35.5559 140.485 35.4707C140.396 35.3855 140.327 35.284 140.278 35.1664C140.225 35.0487 140.199 34.9229 140.199 34.789ZM145.799 36.2377L147.15 37.589L145.799 38.9403L144.447 37.589L145.799 36.2377ZM151.366 35.769C151.386 35.4362 151.406 35.0913 151.426 34.7342C151.447 34.3771 151.463 34.024 151.475 33.6751C151.491 33.3261 151.502 32.9872 151.506 32.6585C151.51 32.3298 151.506 32.0275 151.493 31.7516C151.469 31.1754 151.445 30.6701 151.42 30.2359C151.4 29.7977 151.378 29.4101 151.353 29.0733C151.333 28.7365 151.311 28.4423 151.286 28.1907C151.266 27.9351 151.244 27.7017 151.22 27.4907C151.195 27.2797 151.169 27.0829 151.14 26.9003C151.112 26.7136 151.082 26.5209 151.049 26.322L152.93 25.7012C153.019 26.2449 153.09 26.7927 153.143 27.3446C153.2 27.8965 153.242 28.4261 153.271 28.9333C153.299 29.4365 153.317 29.9052 153.326 30.3394C153.338 30.7736 153.344 31.1449 153.344 31.4533C153.344 31.7333 153.342 32.0356 153.338 32.3603C153.338 32.6849 153.334 33.0217 153.326 33.3707C153.322 33.7197 153.313 34.0727 153.301 34.4298C153.289 34.7869 153.271 35.1359 153.246 35.4768L151.366 35.769ZM93.1967 62.9446C92.9167 62.9446 92.6286 62.9304 92.3324 62.902C92.0402 62.8777 91.7501 62.8269 91.462 62.7498C91.1738 62.6768 90.8959 62.5754 90.628 62.4455C90.3602 62.3156 90.1107 62.1472 89.8794 61.9403C89.648 61.7374 89.4472 61.5122 89.2767 61.2646C89.1104 61.0212 88.9724 60.7614 88.8628 60.4855C88.7533 60.2096 88.6701 59.9214 88.6133 59.6212C88.5605 59.3209 88.5341 59.0145 88.5341 58.702C88.5341 58.0365 88.6396 57.3649 88.8507 56.6872C89.0657 56.0096 89.3822 55.3542 89.8002 54.7212L91.1698 55.7072C91.0886 55.8168 90.9933 55.9812 90.8837 56.2003C90.7741 56.4194 90.6686 56.669 90.5672 56.949C90.4657 57.229 90.3805 57.5272 90.3115 57.8438C90.2425 58.1562 90.208 58.4585 90.208 58.7507C90.208 59.0875 90.2831 59.3919 90.4333 59.6638C90.5875 59.9356 90.7904 60.169 91.042 60.3638C91.2976 60.5585 91.5898 60.7107 91.9185 60.8203C92.2512 60.9298 92.5962 60.9887 92.9533 60.9968C93.2414 61.0009 93.5214 60.9765 93.7933 60.9238C94.0651 60.871 94.3228 60.7939 94.5663 60.6925C94.8098 60.591 95.0309 60.4672 95.2298 60.3212C95.4327 60.1751 95.6051 60.0107 95.7472 59.8281C95.8933 59.6496 96.0028 59.4548 96.0759 59.2438C96.153 59.0327 96.1854 58.8116 96.1733 58.5803C96.1651 58.4058 96.1327 58.209 96.0759 57.9898C96.0191 57.7707 95.9501 57.5475 95.8689 57.3203C95.7918 57.089 95.7046 56.8617 95.6072 56.6385C95.5138 56.4154 95.4246 56.2104 95.3394 56.0238C95.2582 55.833 95.1872 55.6707 95.1263 55.5368C95.0654 55.4029 95.0269 55.3116 95.0107 55.2629L96.6663 54.3438C96.6785 54.36 96.713 54.433 96.7698 54.5629C96.8307 54.6927 96.9017 54.8612 96.9828 55.0681C97.068 55.271 97.1573 55.5043 97.2507 55.7681C97.344 56.0319 97.4312 56.3078 97.5124 56.5959C97.5976 56.884 97.6707 57.1762 97.7315 57.4725C97.7924 57.7687 97.8309 58.0507 97.8472 58.3185C97.8512 58.351 97.8533 58.3896 97.8533 58.4342C97.8533 58.4829 97.8533 58.5235 97.8533 58.5559C97.8533 58.9171 97.8127 59.2762 97.7315 59.6333C97.6504 59.9904 97.5246 60.3313 97.3541 60.6559C97.1878 60.9846 96.9767 61.2869 96.7211 61.5629C96.4695 61.8429 96.1712 62.0843 95.8263 62.2872C95.4814 62.4942 95.0898 62.6545 94.6515 62.7681C94.2133 62.8858 93.7283 62.9446 93.1967 62.9446ZM93.1967 52.8951L94.548 54.2464L93.1967 55.5977L91.8454 54.2464L93.1967 52.8951ZM101.889 58.7507C101.389 58.7507 100.961 58.6878 100.604 58.562C100.247 58.4403 99.9387 58.2516 99.679 57.9959C99.5167 57.8336 99.3909 57.6632 99.3016 57.4846C99.2164 57.3061 99.1535 57.1316 99.1129 56.9612C99.0764 56.7867 99.0541 56.6223 99.046 56.4681C99.0419 56.3139 99.0399 56.182 99.0399 56.0725V55.9812C99.0439 55.831 99.048 55.6159 99.052 55.3359C99.0602 55.0519 99.0642 54.7191 99.0642 54.3377C99.0642 53.9562 99.0622 53.5362 99.0581 53.0777C99.0541 52.6191 99.0419 52.1626 99.0216 51.7081C99.0054 51.2496 98.979 50.8093 98.9425 50.3872C98.91 49.9652 98.8633 49.598 98.8025 49.2855L100.622 48.7316C100.675 48.9994 100.718 49.3159 100.75 49.6811C100.783 50.0423 100.809 50.4217 100.829 50.8194C100.854 51.2171 100.87 51.6168 100.878 52.0185C100.89 52.4203 100.898 52.7936 100.902 53.1385C100.907 53.4429 100.894 53.7411 100.866 54.0333C100.842 54.3214 100.821 54.6055 100.805 54.8855C100.789 55.1614 100.789 55.4313 100.805 55.6951C100.825 55.9548 100.882 56.2084 100.976 56.4559C101.012 56.5493 101.057 56.6203 101.109 56.669C101.166 56.7177 101.231 56.7542 101.304 56.7785C101.377 56.7988 101.456 56.811 101.542 56.8151C101.631 56.8191 101.728 56.8212 101.834 56.8212H101.889C102.018 56.8212 102.142 56.8475 102.26 56.9003C102.378 56.953 102.479 57.024 102.564 57.1133C102.653 57.1985 102.725 57.3 102.777 57.4177C102.83 57.5354 102.856 57.6591 102.856 57.789C102.856 57.9229 102.83 58.0487 102.777 58.1664C102.725 58.284 102.653 58.3855 102.564 58.4707C102.479 58.56 102.378 58.629 102.26 58.6777C102.142 58.7264 102.018 58.7507 101.889 58.7507ZM106.907 57.0098C107.037 56.9774 107.114 56.809 107.138 56.5046C107.162 56.1881 107.104 55.904 106.962 55.6525C106.836 55.4212 106.645 55.2203 106.389 55.0498C106.134 54.8794 105.941 54.8206 105.811 54.8733C105.637 54.9464 105.373 55.3968 105.02 56.2246C106.038 56.809 106.667 57.0707 106.907 57.0098ZM109.981 57.789C109.981 58.0527 109.887 58.278 109.701 58.4646C109.51 58.6513 109.283 58.7467 109.019 58.7507H109.013C108.502 58.7507 108.088 58.5762 107.771 58.2272C107.438 58.56 107.014 58.7264 106.499 58.7264C105.902 58.7264 105.036 58.4261 103.9 57.8255C103.827 57.9797 103.687 58.1359 103.48 58.2942C103.297 58.4322 103.088 58.5397 102.853 58.6168C102.557 58.7142 102.224 58.7629 101.855 58.7629C101.587 58.7629 101.359 58.6696 101.173 58.4829C100.986 58.2962 100.893 58.069 100.893 57.8012C100.893 57.5374 100.986 57.3122 101.173 57.1255C101.359 56.9388 101.587 56.8455 101.855 56.8455C102.362 56.8455 102.804 56.5939 103.182 56.0907C103.315 55.9081 103.457 55.6707 103.608 55.3785C103.652 55.2893 103.713 55.1675 103.79 55.0133L103.875 54.8307L103.961 54.6603C104.508 53.5727 105.192 53.029 106.012 53.029C106.608 53.029 107.136 53.2278 107.595 53.6255C108.114 54.0759 108.408 54.6948 108.477 55.482L108.483 55.5368C108.491 55.5612 108.495 55.5896 108.495 55.622C108.504 55.8209 108.532 56.0217 108.581 56.2246C108.625 56.3991 108.678 56.5371 108.739 56.6385C108.82 56.7643 108.913 56.8272 109.019 56.8272C109.283 56.8272 109.508 56.9206 109.695 57.1072C109.885 57.2939 109.981 57.5212 109.981 57.789ZM113.982 50.8072L112.814 51.982L111.657 50.8255L110.513 51.9698L109.332 50.7951L110.501 49.6203L111.657 50.7768L112.802 49.6325L113.982 50.8072ZM107.889 57.789C107.889 57.6551 107.916 57.5293 107.969 57.4116C108.017 57.2939 108.084 57.1925 108.169 57.1072C108.255 57.018 108.356 56.949 108.474 56.9003C108.591 56.8516 108.717 56.8272 108.851 56.8272H109.527H109.819C110.002 56.8272 110.202 56.8191 110.422 56.8029C110.641 56.7867 110.852 56.7603 111.055 56.7238C111.258 56.6872 111.44 56.6385 111.602 56.5777C111.769 56.5127 111.891 56.4316 111.968 56.3342C112.012 56.2652 112.035 56.1719 112.035 56.0542C112.035 55.8797 111.992 55.6727 111.907 55.4333C111.826 55.1939 111.728 54.9504 111.615 54.7029C111.501 54.4554 111.383 54.218 111.262 53.9907C111.144 53.7635 111.049 53.5748 110.976 53.4246L112.71 52.5725C112.836 52.7916 112.958 53.0513 113.076 53.3516C113.193 53.6478 113.299 53.9542 113.392 54.2707C113.485 54.5832 113.56 54.8916 113.617 55.1959C113.674 55.4962 113.702 55.758 113.702 55.9812C113.702 56.391 113.629 56.7664 113.483 57.1072C113.313 57.4887 113.08 57.8052 112.783 58.0568C112.487 58.3043 112.132 58.4869 111.718 58.6046C111.596 58.6371 111.444 58.6635 111.262 58.6838C111.079 58.704 110.894 58.7183 110.708 58.7264C110.521 58.7385 110.345 58.7446 110.178 58.7446C110.012 58.7487 109.882 58.7507 109.789 58.7507H108.906H108.851C108.717 58.7507 108.591 58.7264 108.474 58.6777C108.356 58.629 108.255 58.56 108.169 58.4707C108.084 58.3855 108.017 58.284 107.969 58.1664C107.916 58.0487 107.889 57.9229 107.889 57.789ZM117.459 54.289C117.613 54.7272 117.747 55.1554 117.86 55.5733C117.909 55.7559 117.958 55.9467 118.006 56.1455C118.055 56.3403 118.098 56.5371 118.134 56.7359C118.175 56.9307 118.207 57.1235 118.232 57.3142C118.256 57.5009 118.268 57.6754 118.268 57.8377C118.268 58.2191 118.215 58.5904 118.11 58.9516C118.009 59.3168 117.862 59.6698 117.672 60.0107C117.485 60.3516 117.262 60.6783 117.002 60.9907C116.742 61.3072 116.454 61.6035 116.138 61.8794C115.821 62.1554 115.482 62.411 115.121 62.6464C114.76 62.8858 114.387 63.1009 114.001 63.2916L112.893 61.7516C113.186 61.6055 113.482 61.4391 113.782 61.2525C114.078 61.0698 114.362 60.873 114.634 60.662C114.91 60.451 115.166 60.2298 115.401 59.9985C115.641 59.7672 115.848 59.5319 116.022 59.2925C116.201 59.053 116.341 58.8096 116.442 58.562C116.544 58.3185 116.594 58.0791 116.594 57.8438C116.594 57.6733 116.57 57.4887 116.521 57.2898C116.477 57.091 116.414 56.878 116.333 56.6507C116.255 56.4194 116.162 56.1759 116.053 55.9203C115.943 55.6606 115.825 55.3846 115.7 55.0925L117.459 54.289ZM122.191 58.7507C121.692 58.7507 121.264 58.6878 120.907 58.562C120.55 58.4403 120.241 58.2516 119.982 57.9959C119.819 57.8336 119.694 57.6632 119.604 57.4846C119.519 57.3061 119.456 57.1316 119.416 56.9612C119.379 56.7867 119.357 56.6223 119.349 56.4681C119.345 56.3139 119.343 56.182 119.343 56.0725V55.9812C119.347 55.831 119.351 55.6159 119.355 55.3359C119.363 55.0519 119.367 54.7191 119.367 54.3377C119.367 53.9562 119.365 53.5362 119.361 53.0777C119.357 52.6191 119.345 52.1626 119.324 51.7081C119.308 51.2496 119.282 50.8093 119.245 50.3872C119.213 49.9652 119.166 49.598 119.105 49.2855L120.925 48.7316C120.978 48.9994 121.021 49.3159 121.053 49.6811C121.085 50.0423 121.112 50.4217 121.132 50.8194C121.157 51.2171 121.173 51.6168 121.181 52.0185C121.193 52.4203 121.201 52.7936 121.205 53.1385C121.209 53.4429 121.197 53.7411 121.169 54.0333C121.144 54.3214 121.124 54.6055 121.108 54.8855C121.092 55.1614 121.092 55.4313 121.108 55.6951C121.128 55.9548 121.185 56.2084 121.278 56.4559C121.315 56.5493 121.359 56.6203 121.412 56.669C121.469 56.7177 121.534 56.7542 121.607 56.7785C121.68 56.7988 121.759 56.811 121.844 56.8151C121.934 56.8191 122.031 56.8212 122.137 56.8212H122.191C122.321 56.8212 122.445 56.8475 122.563 56.9003C122.68 56.953 122.782 57.024 122.867 57.1133C122.956 57.1985 123.027 57.3 123.08 57.4177C123.133 57.5354 123.159 57.6591 123.159 57.789C123.159 57.9229 123.133 58.0487 123.08 58.1664C123.027 58.284 122.956 58.3855 122.867 58.4707C122.782 58.56 122.68 58.629 122.563 58.6777C122.445 58.7264 122.321 58.7507 122.191 58.7507ZM121.22 57.789C121.22 57.6551 121.246 57.5293 121.299 57.4116C121.348 57.2939 121.415 57.1925 121.5 57.1072C121.585 57.018 121.687 56.949 121.804 56.9003C121.922 56.8516 122.048 56.8272 122.182 56.8272H122.857H123.149C123.332 56.8272 123.533 56.8191 123.752 56.8029C123.971 56.7867 124.182 56.7603 124.385 56.7238C124.588 56.6872 124.771 56.6385 124.933 56.5777C125.099 56.5127 125.221 56.4316 125.298 56.3342C125.343 56.2652 125.365 56.1719 125.365 56.0542C125.365 55.8797 125.323 55.6727 125.237 55.4333C125.156 55.1939 125.059 54.9504 124.945 54.7029C124.831 54.4554 124.714 54.218 124.592 53.9907C124.474 53.7635 124.379 53.5748 124.306 53.4246L126.041 52.5725C126.167 52.7916 126.288 53.0513 126.406 53.3516C126.524 53.6478 126.629 53.9542 126.723 54.2707C126.816 54.5832 126.891 54.8916 126.948 55.1959C127.005 55.4962 127.033 55.758 127.033 55.9812C127.033 56.391 126.96 56.7664 126.814 57.1072C126.643 57.4887 126.41 57.8052 126.114 58.0568C125.818 58.3043 125.463 58.4869 125.049 58.6046C124.927 58.6371 124.775 58.6635 124.592 58.6838C124.409 58.704 124.225 58.7183 124.038 58.7264C123.851 58.7385 123.675 58.7446 123.509 58.7446C123.342 58.7487 123.212 58.7507 123.119 58.7507H122.236H122.182C122.048 58.7507 121.922 58.7264 121.804 58.6777C121.687 58.629 121.585 58.56 121.5 58.4707C121.415 58.3855 121.348 58.284 121.299 58.1664C121.246 58.0487 121.22 57.9229 121.22 57.789ZM125.803 61.8551L124.659 60.7107L123.503 61.8672L122.334 60.6925L123.515 59.5177L124.659 60.662L125.816 59.5055L126.984 60.6803L125.803 61.8551ZM124.665 61.3559L125.749 62.4394L124.659 63.529L123.576 62.4455L124.665 61.3559ZM128.646 58.769C128.666 58.4565 128.685 58.1298 128.701 57.789C128.721 57.4481 128.737 57.1113 128.75 56.7785C128.762 56.4458 128.772 56.1232 128.78 55.8107C128.788 55.4942 128.792 55.2061 128.792 54.9464C128.792 54.2687 128.782 53.6864 128.762 53.1994C128.741 52.7125 128.717 52.2965 128.689 51.9516C128.66 51.6026 128.628 51.3125 128.591 51.0812C128.559 50.8458 128.528 50.6388 128.5 50.4603L128.421 49.9977L130.314 49.3951C130.33 49.4519 130.344 49.5046 130.356 49.5533C130.369 49.602 130.379 49.6609 130.387 49.7298C130.399 49.7948 130.411 49.8759 130.423 49.9733C130.44 50.0707 130.456 50.1985 130.472 50.3568C130.488 50.5151 130.507 50.7078 130.527 50.9351C130.551 51.1623 130.58 51.4403 130.612 51.769C130.632 52.0855 130.649 52.3696 130.661 52.6212C130.677 52.8727 130.689 53.1183 130.697 53.3577C130.705 53.5971 130.712 53.8446 130.716 54.1003C130.72 54.3519 130.722 54.638 130.722 54.9585C130.722 55.4861 130.714 56.0461 130.697 56.6385C130.681 57.2269 130.651 57.8458 130.606 58.4951L128.646 58.769ZM127.021 49.0238C127.021 48.9994 127.035 48.9548 127.063 48.8898C127.088 48.8209 127.118 48.7478 127.155 48.6707C127.187 48.5936 127.22 48.5226 127.252 48.4577C127.285 48.3887 127.307 48.344 127.319 48.3238C127.465 48.1006 127.636 47.918 127.83 47.7759C128.029 47.6339 128.226 47.5406 128.421 47.4959C128.461 47.4878 128.512 47.4838 128.573 47.4838C128.634 47.4797 128.683 47.4777 128.719 47.4777C128.914 47.4777 129.09 47.502 129.249 47.5507C129.407 47.5954 129.549 47.6461 129.675 47.7029L129.863 47.7942C129.932 47.8267 130.001 47.8571 130.07 47.8855C130.139 47.9098 130.212 47.924 130.29 47.9281C130.354 47.9322 130.421 47.9159 130.49 47.8794C130.559 47.8429 130.626 47.7942 130.691 47.7333C130.76 47.6684 130.825 47.5974 130.886 47.5203C130.951 47.4432 131.012 47.3661 131.069 47.289L132.018 47.9038C132.014 47.9159 131.992 47.9545 131.951 48.0194C131.911 48.0803 131.852 48.1554 131.775 48.2446C131.702 48.3339 131.612 48.4293 131.507 48.5307C131.405 48.6281 131.29 48.7194 131.16 48.8046C131.03 48.8858 130.888 48.9527 130.734 49.0055C130.584 49.0583 130.423 49.0826 130.253 49.0785C130.127 49.0867 129.999 49.0623 129.87 49.0055C129.74 48.9446 129.606 48.8817 129.468 48.8168C129.334 48.7478 129.196 48.691 129.054 48.6464C128.912 48.5977 128.764 48.5896 128.61 48.622C128.516 48.6423 128.439 48.6788 128.378 48.7316C128.321 48.7803 128.273 48.8391 128.232 48.9081C128.192 48.973 128.157 49.044 128.129 49.1211C128.1 49.1983 128.07 49.2733 128.037 49.3464L127.021 49.0238ZM141.266 58.7507C140.503 58.7507 139.819 58.704 139.214 58.6107C138.614 58.5214 138.086 58.3916 137.632 58.2212C136.711 57.864 136.078 57.3406 135.733 56.6507V56.6568C135.538 56.2794 135.441 55.8614 135.441 55.4029C135.441 55.204 135.465 54.989 135.514 54.7577C135.562 54.5264 135.625 54.3012 135.702 54.082C135.8 53.8264 135.905 53.6011 136.019 53.4064C136.132 53.2075 136.25 52.9985 136.372 52.7794L137.802 53.9785C137.741 54.0638 137.67 54.1754 137.589 54.3133C137.508 54.4472 137.429 54.5893 137.352 54.7394C137.279 54.8896 137.216 55.0417 137.163 55.1959C137.114 55.3461 137.09 55.478 137.09 55.5916C137.09 55.6727 137.102 55.7397 137.127 55.7925C137.208 55.9588 137.368 56.1049 137.608 56.2307C137.851 56.3565 138.155 56.464 138.521 56.5533C138.886 56.6385 139.302 56.7035 139.768 56.7481C140.235 56.7927 140.734 56.8151 141.266 56.8151C141.554 56.8151 141.881 56.8009 142.246 56.7725C142.615 56.744 142.994 56.6994 143.384 56.6385C143.774 56.5736 144.161 56.4925 144.547 56.3951C144.932 56.2936 145.285 56.1719 145.606 56.0298C145.557 55.8391 145.498 55.6565 145.429 55.482C145.364 55.3075 145.283 55.1269 145.186 54.9403C145.088 54.7496 144.973 54.5467 144.839 54.3316C144.705 54.1165 144.547 53.871 144.364 53.5951L145.861 52.6212C145.934 52.7388 146.02 52.8829 146.117 53.0533C146.214 53.2238 146.312 53.4084 146.409 53.6072C146.511 53.802 146.608 54.009 146.701 54.2281C146.799 54.4472 146.884 54.6664 146.957 54.8855C147.034 55.1046 147.093 55.3197 147.134 55.5307C147.174 55.7377 147.19 55.9325 147.182 56.1151C147.162 56.4559 147.044 56.7583 146.829 57.022C146.614 57.2817 146.338 57.509 146.001 57.7038C145.669 57.8985 145.291 58.0629 144.869 58.1968C144.451 58.3307 144.025 58.4383 143.591 58.5194C143.161 58.6006 142.743 58.6594 142.337 58.6959C141.931 58.7325 141.574 58.7507 141.266 58.7507ZM143.761 52.3655L142.593 53.5403L141.436 52.3838L140.292 53.5281L139.111 52.3533L140.28 51.1785L141.436 52.3351L142.581 51.1907L143.761 52.3655ZM150.684 58.7507C150.152 58.7507 149.631 58.6493 149.12 58.4464C148.612 58.2435 148.142 57.9168 147.708 57.4664L148.809 55.9142C149.008 56.0968 149.201 56.2469 149.388 56.3646C149.574 56.4783 149.753 56.5675 149.923 56.6325C150.094 56.6974 150.254 56.742 150.404 56.7664C150.558 56.7907 150.702 56.8029 150.836 56.8029C150.897 56.8029 150.966 56.8009 151.043 56.7968C151.12 56.7927 151.197 56.7867 151.274 56.7785C151.352 56.7664 151.427 56.7522 151.5 56.7359C151.573 56.7197 151.64 56.6994 151.701 56.6751C151.912 56.5858 152.078 56.4965 152.2 56.4072C152.045 56.0339 151.877 55.6464 151.694 55.2446C151.516 54.8388 151.335 54.433 151.153 54.0272C150.97 53.6174 150.79 53.2116 150.611 52.8098C150.432 52.4081 150.266 52.0226 150.112 51.6533L151.889 50.9107L152.431 52.2255C152.605 52.6556 152.814 53.1669 153.058 53.7594C153.301 54.3478 153.581 55.0154 153.898 55.762C153.971 55.9406 154.038 56.0968 154.099 56.2307C154.16 56.3646 154.231 56.4762 154.312 56.5655C154.397 56.6548 154.496 56.7217 154.61 56.7664C154.728 56.8069 154.878 56.8272 155.061 56.8272C155.19 56.8272 155.314 56.8516 155.432 56.9003C155.55 56.949 155.651 57.018 155.736 57.1072C155.825 57.1925 155.896 57.2939 155.949 57.4116C156.002 57.5293 156.028 57.6551 156.028 57.789C156.028 57.9229 156.002 58.0487 155.949 58.1664C155.896 58.284 155.825 58.3855 155.736 58.4707C155.651 58.56 155.55 58.629 155.432 58.6777C155.314 58.7264 155.19 58.7507 155.061 58.7507C154.813 58.7507 154.594 58.7345 154.403 58.702C154.216 58.6696 154.048 58.6229 153.898 58.562C153.752 58.5052 153.62 58.4362 153.502 58.3551C153.389 58.2698 153.281 58.1765 153.18 58.0751C153.07 58.1481 152.954 58.2191 152.833 58.2881C152.711 58.353 152.571 58.418 152.413 58.4829C152.169 58.5762 151.905 58.6432 151.621 58.6838C151.341 58.7284 151.029 58.7507 150.684 58.7507ZM154.107 57.789C154.107 57.6551 154.131 57.5313 154.18 57.4177C154.229 57.304 154.296 57.2046 154.381 57.1194C154.466 57.0342 154.567 56.9672 154.685 56.9185C154.799 56.8658 154.922 56.8354 155.056 56.8272C155.328 56.8272 155.564 56.7745 155.763 56.669C155.965 56.5635 156.144 56.4255 156.298 56.2551C156.452 56.0846 156.59 55.8939 156.712 55.6829C156.834 55.4719 156.949 55.2609 157.059 55.0498V55.0559C157.165 54.8368 157.276 54.6197 157.394 54.4046C157.516 54.1896 157.647 53.9907 157.789 53.8081C158.009 53.5525 158.254 53.3556 158.526 53.2177C158.798 53.0756 159.088 53.0046 159.396 53.0046C159.762 53.0046 160.092 53.0797 160.389 53.2298C160.689 53.38 160.961 53.5951 161.204 53.8751C161.387 54.0942 161.535 54.3458 161.649 54.6298C161.762 54.9098 161.837 55.2081 161.874 55.5246V55.5125C161.898 55.6707 161.91 55.8513 161.91 56.0542C161.91 56.2733 161.89 56.4884 161.849 56.6994C161.813 56.9064 161.76 57.1032 161.691 57.2898C161.557 57.6307 161.365 57.9168 161.113 58.1481C160.865 58.3754 160.596 58.5316 160.303 58.6168C160.206 58.6452 160.109 58.6635 160.011 58.6716C159.918 58.6838 159.818 58.6898 159.713 58.6898C159.53 58.6898 159.336 58.6675 159.129 58.6229C158.926 58.5783 158.725 58.5174 158.526 58.4403C158.445 58.4038 158.354 58.3612 158.252 58.3125C158.151 58.2597 158.043 58.2029 157.929 58.142C157.82 58.0812 157.71 58.0183 157.601 57.9533C157.491 57.8884 157.39 57.8255 157.296 57.7646C157.134 57.9148 156.972 58.0507 156.809 58.1725C156.647 58.2942 156.477 58.3977 156.298 58.4829C156.12 58.5681 155.929 58.633 155.726 58.6777C155.523 58.7264 155.302 58.7507 155.062 58.7507C154.929 58.7507 154.805 58.7243 154.691 58.6716C154.574 58.6229 154.472 58.5559 154.387 58.4707C154.298 58.3855 154.229 58.284 154.18 58.1664C154.131 58.0487 154.107 57.9229 154.107 57.789ZM158.423 56.1881C158.548 56.2693 158.696 56.3484 158.867 56.4255C159.041 56.5026 159.214 56.5716 159.384 56.6325C159.555 56.6933 159.711 56.744 159.853 56.7846C159.999 56.8212 160.109 56.8394 160.182 56.8394C160.198 56.8394 160.214 56.8394 160.23 56.8394C160.251 56.8354 160.271 56.8313 160.291 56.8272C160.34 56.8151 160.387 56.7542 160.431 56.6446C160.48 56.531 160.498 56.3768 160.486 56.182C160.486 56.0522 160.449 55.9101 160.376 55.7559C160.303 55.5977 160.208 55.4516 160.09 55.3177C159.973 55.1797 159.837 55.0661 159.683 54.9768C159.532 54.8835 159.378 54.8368 159.22 54.8368C159.163 54.8368 159.09 54.918 159.001 55.0803C158.911 55.2426 158.782 55.484 158.611 55.8046V55.7985L158.423 56.1881Z" fill="#303030"/>
<defs>
<linearGradient id="paint0_linear_1325_10968" x1="6.29861" y1="6.22632" x2="173.961" y2="92.1331" gradientUnits="userSpaceOnUse">
<stop stop-color="#EAEAEA"/>
<stop offset="1" stop-color="#BDBDBD"/>
</linearGradient>
</defs>
</svg>
