<svg width="147" height="90" viewBox="0 0 147 90" fill="none" xmlns="http://www.w3.org/2000/svg">
<rect x="0.75" y="0.75" width="145.5" height="88.5" rx="9.25" fill="white" stroke="url(#paint0_linear_1325_8690)" stroke-width="1.5"/>
<path fill-rule="evenodd" clip-rule="evenodd" d="M10 34.594V65.3998C10 66.0049 10.4725 66.5 11.05 66.5H50.95C51.5275 66.5 52 66.0049 52 65.3998C52 64.7947 51.5275 64.2996 50.95 64.2996H49.9V49.6008L50.509 49.8979C50.8345 50.0519 51.2125 50.0299 51.517 49.8209C51.8215 49.6228 52 49.2708 52 48.8967V45.5961C52 45.178 51.7795 44.7929 51.4225 44.6169L37.3 37.2235V34.605C37.3 34.275 37.1635 33.9669 36.922 33.7579L24.322 22.7558C23.9335 22.4147 23.3665 22.4147 22.978 22.7558L10.378 33.7469C10.1365 33.9559 10 34.264 10 34.594ZM35.2 64.2996V35.1111L23.65 25.0222L12.1 35.1111V64.2996H14.2V47.7965C14.2 47.1914 14.6725 46.6963 15.25 46.6963H32.05C32.6275 46.6963 33.1 47.1914 33.1 47.7965V64.2996H35.2ZM46.75 64.2996H47.8V48.5776L37.3 43.4727V64.2996H38.35V54.3977C38.35 53.7926 38.8225 53.2975 39.4 53.2975H45.7C46.2775 53.2975 46.75 53.7926 46.75 54.3977V64.2996ZM41.5 60.999H40.45V64.2996H44.65V60.999H43.6V62.0992C43.6 62.7043 43.1275 63.1994 42.55 63.1994C41.9725 63.1994 41.5 62.7043 41.5 62.0992V60.999ZM31 62.0992V64.2996H16.3V62.0992H31ZM16.3 57.6983V59.8988H31V57.6983H16.3ZM41.5 55.4979H40.45V58.7986H44.65V55.4979H43.6V56.5981C43.6 57.2033 43.1275 57.6983 42.55 57.6983C41.9725 57.6983 41.5 57.2033 41.5 56.5981V55.4979ZM16.3 53.2975V55.4979H31V53.2975H16.3ZM31 51.0971H16.3V48.8967H31V51.0971ZM37.3 39.677V41.0412L49.9 47.1694V46.2672L37.3 39.666V39.677ZM22.6 44.4959H24.7C25.2775 44.4959 25.75 44.0008 25.75 43.3957C25.75 42.7906 25.2775 42.2955 24.7 42.2955H22.6C22.0225 42.2955 21.55 42.7906 21.55 43.3957C21.55 44.0008 22.0225 44.4959 22.6 44.4959ZM28.9 44.4959H31C31.5775 44.4959 32.05 44.0008 32.05 43.3957C32.05 42.7906 31.5775 42.2955 31 42.2955H28.9C28.3225 42.2955 27.85 42.7906 27.85 43.3957C27.85 44.0008 28.3225 44.4959 28.9 44.4959ZM16.3 44.4959H18.4C18.9775 44.4959 19.45 44.0008 19.45 43.3957C19.45 42.7906 18.9775 42.2955 18.4 42.2955H16.3C15.7225 42.2955 15.25 42.7906 15.25 43.3957C15.25 44.0008 15.7225 44.4959 16.3 44.4959ZM33.1 34.594C33.1 33.9889 32.6275 33.4938 32.05 33.4938H15.25C14.6725 33.4938 14.2 33.9889 14.2 34.594V38.9948C14.2 39.6 14.6725 40.095 15.25 40.095H32.05C32.6275 40.095 33.1 39.6 33.1 38.9948V34.594ZM24.7 35.6942H31V37.8946H24.7V35.6942ZM22.6 35.6942V37.8946H16.3V35.6942H22.6Z" fill="#303030"/>
<path d="M77.599 31.4435C77.6233 31.4922 77.666 31.5814 77.7268 31.7113C77.7918 31.8371 77.8648 31.9913 77.946 32.1739C78.0271 32.3525 78.1123 32.5533 78.2016 32.7765C78.2909 32.9997 78.372 33.2351 78.4451 33.4826C78.5181 33.7261 78.577 33.9757 78.6216 34.2313C78.6703 34.4829 78.6947 34.7304 78.6947 34.9739C78.6906 35.3757 78.6297 35.751 78.512 36.1C78.3984 36.449 78.23 36.7533 78.0068 37.013C77.7836 37.2687 77.5077 37.4716 77.179 37.6217C76.8503 37.7719 76.4709 37.847 76.0407 37.847C75.6674 37.847 75.361 37.7841 75.1216 37.6583C74.8862 37.5325 74.6915 37.36 74.5373 37.1409C74.452 37.2504 74.3607 37.3499 74.2633 37.4391C74.166 37.5243 74.0503 37.5974 73.9164 37.6583C73.7865 37.7232 73.6323 37.7719 73.4538 37.8043C73.2793 37.8368 73.0703 37.853 72.8268 37.853C72.6564 37.853 72.5002 37.8409 72.3581 37.8165C72.2161 37.7922 72.0862 37.7617 71.9686 37.7252C71.9645 38.2 71.8915 38.6322 71.7494 39.0217C71.6115 39.4113 71.4207 39.7603 71.1773 40.0687C70.9378 40.3771 70.6558 40.6449 70.3312 40.8722C70.0065 41.0994 69.6576 41.2861 69.2842 41.4322C68.9109 41.5823 68.5193 41.6939 68.1094 41.767C67.7036 41.84 67.2999 41.8765 66.8981 41.8765C66.2773 41.8765 65.7031 41.773 65.1755 41.5661C64.648 41.3632 64.1915 41.0751 63.806 40.7017C63.4245 40.3325 63.1262 39.8861 62.9112 39.3626C62.6961 38.8432 62.5886 38.269 62.5886 37.64C62.6007 37.2748 62.6494 36.9014 62.7347 36.52C62.8239 36.1386 62.9355 35.7652 63.0694 35.4C63.2074 35.0348 63.3596 34.6878 63.526 34.3591C63.6964 34.0264 63.8689 33.7281 64.0433 33.4643L65.3703 34.487C65.2242 34.7264 65.0822 34.98 64.9442 35.2478C64.8062 35.5116 64.6845 35.7835 64.579 36.0635C64.4735 36.3394 64.3883 36.6154 64.3233 36.8913C64.2584 37.1672 64.226 37.433 64.226 37.6887C64.2138 37.9971 64.2747 38.2872 64.4086 38.5591C64.5465 38.831 64.7352 39.0684 64.9747 39.2713C65.2181 39.4783 65.5022 39.6406 65.8268 39.7583C66.1555 39.8759 66.5045 39.9348 66.8738 39.9348C67.2918 39.9348 67.6773 39.8962 68.0303 39.8191C68.3874 39.742 68.7019 39.6345 68.9738 39.4965C69.2497 39.3626 69.481 39.1983 69.6677 39.0035C69.8544 38.8128 69.9883 38.6017 70.0694 38.3704L70.0633 38.3765C70.1648 38.0438 70.2155 37.7009 70.2155 37.3478C70.2155 37.0759 70.177 36.8 70.0999 36.52C70.0228 36.24 69.9233 35.958 69.8016 35.6739C69.6799 35.3858 69.5439 35.0977 69.3938 34.8096C69.2477 34.5174 69.1036 34.2252 68.9616 33.933L70.6294 32.9957C70.7349 33.2351 70.8404 33.4765 70.946 33.72C71.0515 33.9635 71.157 34.1968 71.2625 34.42C71.372 34.6391 71.4836 34.8441 71.5973 35.0348C71.7109 35.2255 71.8286 35.3899 71.9503 35.5278C72.072 35.6617 72.1978 35.7632 72.3277 35.8322C72.4616 35.9012 72.6036 35.9255 72.7538 35.9052C72.9242 35.8809 73.0622 35.822 73.1677 35.7287C73.2732 35.6313 73.3523 35.5116 73.4051 35.3696C73.4619 35.2275 73.4964 35.0693 73.5086 34.8948C73.5248 34.7162 73.5289 34.5357 73.5207 34.353C73.5126 34.1704 73.4984 33.9899 73.4781 33.8113C73.4619 33.6328 73.4477 33.4684 73.4355 33.3183L75.1155 33.093C75.1439 33.2188 75.1683 33.371 75.1886 33.5496C75.2089 33.7241 75.2312 33.9087 75.2555 34.1035C75.2839 34.2983 75.3184 34.4951 75.359 34.6939C75.3996 34.8928 75.4544 35.0774 75.5233 35.2478C75.5923 35.4183 75.6776 35.5664 75.779 35.6922C75.8804 35.818 76.0083 35.9072 76.1625 35.96C76.2883 35.96 76.406 35.9377 76.5155 35.893C76.6251 35.8443 76.7204 35.7754 76.8016 35.6861C76.8828 35.5968 76.9457 35.4872 76.9903 35.3574C77.039 35.2235 77.0633 35.0693 77.0633 34.8948C77.0633 34.7487 77.0349 34.5803 76.9781 34.3896C76.9254 34.1948 76.8523 33.9858 76.759 33.7626C76.6657 33.5394 76.5561 33.3061 76.4303 33.0626C76.3086 32.8151 76.1787 32.5655 76.0407 32.3139L77.599 31.4435ZM76.2842 30.5365L75.1155 31.7113L73.959 30.5548L72.8147 31.6991L71.6338 30.5243L72.8025 29.3496L73.959 30.5061L75.1033 29.3617L76.2842 30.5365ZM72.8755 28.7713L73.959 27.6878L75.0486 28.7774L73.9651 29.8609L72.8755 28.7713ZM82.0837 33.9087C81.9985 33.8925 81.9011 33.9229 81.7915 34C81.686 34.073 81.5846 34.1745 81.4872 34.3043C81.3939 34.4301 81.3147 34.5701 81.2498 34.7243C81.1889 34.8786 81.1585 35.0267 81.1585 35.1687C81.1585 35.3026 81.197 35.4142 81.2741 35.5035C81.3512 35.5928 81.4486 35.6658 81.5663 35.7226C81.6881 35.7794 81.8199 35.822 81.962 35.8504C82.1081 35.8788 82.2481 35.8991 82.382 35.9113H82.3759C82.4814 35.9194 82.6011 35.9255 82.735 35.9296C82.873 35.9296 83.0069 35.9296 83.1368 35.9296C83.1773 35.9296 83.2078 35.9316 83.2281 35.9357C83.2524 35.9357 83.2727 35.9357 83.2889 35.9357C83.3052 35.9357 83.3214 35.9357 83.3376 35.9357C83.3579 35.9357 83.3863 35.9336 83.4228 35.9296C83.362 35.678 83.2889 35.4386 83.2037 35.2113C83.1225 34.98 83.0272 34.773 82.9176 34.5904C82.8081 34.4078 82.6843 34.2577 82.5463 34.14C82.4083 34.0183 82.2541 33.9412 82.0837 33.9087ZM79.1011 40.2817C79.6733 40.1681 80.1947 40.0241 80.6654 39.8496C81.1362 39.6791 81.5481 39.4864 81.9011 39.2713C82.2582 39.0603 82.5524 38.8351 82.7837 38.5957C83.0191 38.3562 83.1854 38.1128 83.2828 37.8652C83.1083 37.8652 82.9237 37.8612 82.7289 37.853C82.5341 37.849 82.3739 37.8429 82.2481 37.8348C81.7773 37.7942 81.3472 37.6887 80.9576 37.5183C80.5681 37.3519 80.2576 37.1246 80.0263 36.8365C79.8559 36.6174 79.7341 36.38 79.6611 36.1243C79.5921 35.8687 79.5576 35.5988 79.5576 35.3148C79.5576 35.0957 79.5779 34.8765 79.6185 34.6574C79.6591 34.4342 79.7159 34.2191 79.7889 34.0122C79.862 33.8012 79.9472 33.6023 80.0446 33.4157C80.146 33.229 80.2536 33.0586 80.3672 32.9043C80.6107 32.6 80.8765 32.3707 81.1646 32.2165C81.4568 32.0583 81.7631 31.9791 82.0837 31.9791C82.7695 31.9791 83.3883 32.2794 83.9402 32.88C84.135 33.0991 84.3095 33.3446 84.4637 33.6165C84.6179 33.8884 84.7478 34.1786 84.8533 34.487C84.9628 34.7913 85.046 35.1119 85.1028 35.4487C85.1596 35.7814 85.1881 36.1203 85.1881 36.4652C85.1881 36.5707 85.184 36.6762 85.1759 36.7817C85.1718 36.8872 85.1657 36.9867 85.1576 37.08C85.1089 37.5548 85.0014 37.9991 84.835 38.413C84.6727 38.831 84.4617 39.2145 84.202 39.5635C83.9463 39.9165 83.6481 40.2351 83.3072 40.5191C82.9663 40.8072 82.595 41.0588 82.1933 41.2739C81.7956 41.493 81.3736 41.6757 80.9272 41.8217C80.4808 41.9678 80.0223 42.0774 79.5515 42.1504L79.1011 40.2817ZM90.3448 37.8652C90.2555 37.8652 90.1297 37.8591 89.9674 37.847C89.805 37.8348 89.6306 37.7901 89.4439 37.713C89.3546 38.2162 89.1862 38.693 88.9387 39.1435C88.6952 39.598 88.3929 40.022 88.0317 40.4157C87.6706 40.8133 87.2587 41.1786 86.7961 41.5113C86.3334 41.8441 85.8404 42.1423 85.3169 42.4061L84.203 40.8661C84.4911 40.72 84.7813 40.5597 85.0734 40.3852C85.3656 40.2148 85.6436 40.0322 85.9074 39.8374C86.1752 39.6467 86.4227 39.4458 86.65 39.2348C86.8813 39.0278 87.0821 38.8128 87.2526 38.5896C87.423 38.3664 87.5569 38.1371 87.6543 37.9017C87.7517 37.6704 87.8004 37.4351 87.8004 37.1957C87.8004 37.1835 87.7984 37.1652 87.7943 37.1409C87.7943 37.1165 87.7943 37.0922 87.7943 37.0678C87.7943 37.0435 87.7923 37.0252 87.7882 37.013C87.7882 37.0009 87.7882 37.0029 87.7882 37.0191V37.0252C87.7598 36.7899 87.7192 36.5646 87.6665 36.3496C87.6137 36.1345 87.5468 35.9154 87.4656 35.6922C87.3885 35.469 87.2972 35.2357 87.1917 34.9922C87.0862 34.7446 86.9685 34.4748 86.8387 34.1826L88.5978 33.4157C88.7601 33.9026 88.9123 34.3084 89.0543 34.633C89.1963 34.9577 89.3343 35.2174 89.4682 35.4122C89.6062 35.607 89.7442 35.7449 89.8821 35.8261C90.0201 35.9032 90.1662 35.9417 90.3204 35.9417H90.3508C90.4848 35.9417 90.6106 35.9681 90.7282 36.0209C90.8459 36.0736 90.9474 36.1446 91.0326 36.2339C91.1219 36.3191 91.1908 36.4206 91.2395 36.5383C91.2923 36.6559 91.3187 36.7797 91.3187 36.9096C91.3187 37.0435 91.2923 37.1693 91.2395 37.287C91.1908 37.4046 91.1219 37.5061 91.0326 37.5913C90.9474 37.6765 90.8459 37.7435 90.7282 37.7922C90.6106 37.8409 90.4827 37.8652 90.3448 37.8652ZM89.312 36.9035C89.312 36.7696 89.3384 36.6438 89.3911 36.5261C89.4398 36.4084 89.5088 36.307 89.5981 36.2217C89.6833 36.1325 89.7868 36.0635 89.9085 36.0148C90.0262 35.9661 90.152 35.9417 90.2859 35.9417C90.4361 35.9417 90.6207 35.9397 90.8398 35.9357C91.063 35.9275 91.3004 35.9154 91.552 35.8991C91.8036 35.8829 92.0592 35.8626 92.3189 35.8383C92.5827 35.8139 92.8323 35.7814 93.0676 35.7409C93.3071 35.7003 93.5221 35.6536 93.7129 35.6009C93.9076 35.5441 94.0598 35.4791 94.1694 35.4061C93.7595 35.4507 93.3821 35.469 93.0372 35.4609C92.6923 35.4487 92.3839 35.4142 92.112 35.3574C91.8401 35.3006 91.6068 35.2235 91.412 35.1261C91.2213 35.0246 91.0752 34.909 90.9737 34.7791V34.7852C90.8642 34.6472 90.7607 34.4626 90.6633 34.2313C90.57 34 90.5233 33.7139 90.5233 33.373C90.5233 33.1904 90.5355 33.02 90.5598 32.8617C90.6816 32.1719 90.925 31.6017 91.2903 31.1513L91.2842 31.1574C91.5033 30.8652 91.7508 30.6481 92.0268 30.5061C92.3027 30.36 92.5929 30.287 92.8972 30.287C93.2056 30.287 93.51 30.362 93.8103 30.5122C94.1105 30.6623 94.3824 30.8652 94.6259 31.1209C94.8004 31.3197 94.9566 31.5449 95.0946 31.7965C95.2366 32.0481 95.3563 32.3159 95.4537 32.6C95.5552 32.8841 95.6323 33.1803 95.685 33.4887C95.7418 33.793 95.7703 34.0994 95.7703 34.4078C95.7703 34.5012 95.7682 34.5945 95.7642 34.6878C95.7601 34.7771 95.754 34.8623 95.7459 34.9435C95.6972 35.3655 95.5897 35.7307 95.4233 36.0391C95.2569 36.3435 95.0439 36.6032 94.7842 36.8183C94.5285 37.0333 94.2343 37.2078 93.9016 37.3417C93.5688 37.4757 93.2117 37.5812 92.8303 37.6583C92.4488 37.7354 92.0491 37.7881 91.6311 37.8165C91.2172 37.8449 90.7992 37.8612 90.3772 37.8652H90.2737C90.1398 37.8652 90.014 37.8388 89.8963 37.7861C89.7787 37.7374 89.6772 37.6704 89.592 37.5852C89.5068 37.5 89.4398 37.3986 89.3911 37.2809C89.3384 37.1632 89.312 37.0374 89.312 36.9035ZM92.885 32.2226C92.7917 32.2186 92.6963 32.247 92.5989 32.3078C92.5056 32.3646 92.4184 32.4417 92.3372 32.5391C92.2601 32.6365 92.1952 32.7481 92.1424 32.8739C92.0937 32.9997 92.0694 33.1275 92.0694 33.2574C92.0694 33.371 92.0958 33.4725 92.1485 33.5617C92.1769 33.6104 92.2337 33.653 92.3189 33.6896C92.4082 33.722 92.5117 33.7504 92.6294 33.7748C92.7511 33.7951 92.881 33.8133 93.0189 33.8296C93.1569 33.8417 93.2888 33.8499 93.4146 33.8539C93.5404 33.858 93.654 33.858 93.7555 33.8539C93.861 33.8499 93.9381 33.8438 93.9868 33.8357C93.9503 33.653 93.9016 33.4684 93.8407 33.2817C93.7839 33.0951 93.7108 32.9246 93.6216 32.7704C93.5323 32.6162 93.4268 32.4884 93.305 32.387C93.1833 32.2855 93.0433 32.2307 92.885 32.2226ZM92.6476 26.8174L93.9989 28.1687L92.6476 29.52L91.2963 28.1687L92.6476 26.8174ZM102.523 33.9087C102.438 33.8925 102.341 33.9229 102.231 34C102.125 34.073 102.024 34.1745 101.927 34.3043C101.833 34.4301 101.754 34.5701 101.689 34.7243C101.628 34.8786 101.598 35.0267 101.598 35.1687C101.598 35.3026 101.636 35.4142 101.714 35.5035C101.791 35.5928 101.888 35.6658 102.006 35.7226C102.128 35.7794 102.259 35.822 102.401 35.8504C102.548 35.8788 102.688 35.8991 102.821 35.9113H102.815C102.921 35.9194 103.041 35.9255 103.174 35.9296C103.312 35.9296 103.446 35.9296 103.576 35.9296C103.617 35.9296 103.647 35.9316 103.668 35.9357C103.692 35.9357 103.712 35.9357 103.728 35.9357C103.745 35.9357 103.761 35.9357 103.777 35.9357C103.797 35.9357 103.826 35.9336 103.862 35.9296C103.801 35.678 103.728 35.4386 103.643 35.2113C103.562 34.98 103.467 34.773 103.357 34.5904C103.248 34.4078 103.124 34.2577 102.986 34.14C102.848 34.0183 102.694 33.9412 102.523 33.9087ZM99.5406 40.2817C100.113 40.1681 100.634 40.0241 101.105 39.8496C101.576 39.6791 101.988 39.4864 102.341 39.2713C102.698 39.0603 102.992 38.8351 103.223 38.5957C103.459 38.3562 103.625 38.1128 103.722 37.8652C103.548 37.8652 103.363 37.8612 103.168 37.853C102.974 37.849 102.813 37.8429 102.688 37.8348C102.217 37.7942 101.787 37.6887 101.397 37.5183C101.008 37.3519 100.697 37.1246 100.466 36.8365C100.295 36.6174 100.174 36.38 100.101 36.1243C100.032 35.8687 99.9971 35.5988 99.9971 35.3148C99.9971 35.0957 100.017 34.8765 100.058 34.6574C100.099 34.4342 100.155 34.2191 100.228 34.0122C100.301 33.8012 100.387 33.6023 100.484 33.4157C100.585 33.229 100.693 33.0586 100.807 32.9043C101.05 32.6 101.316 32.3707 101.604 32.2165C101.896 32.0583 102.203 31.9791 102.523 31.9791C103.209 31.9791 103.828 32.2794 104.38 32.88C104.574 33.0991 104.749 33.3446 104.903 33.6165C105.057 33.8884 105.187 34.1786 105.293 34.487C105.402 34.7913 105.485 35.1119 105.542 35.4487C105.599 35.7814 105.628 36.1203 105.628 36.4652C105.628 36.5707 105.623 36.6762 105.615 36.7817C105.611 36.8872 105.605 36.9867 105.597 37.08C105.548 37.5548 105.441 37.9991 105.274 38.413C105.112 38.831 104.901 39.2145 104.641 39.5635C104.386 39.9165 104.088 40.2351 103.747 40.5191C103.406 40.8072 103.034 41.0588 102.633 41.2739C102.235 41.493 101.813 41.6757 101.367 41.8217C100.92 41.9678 100.462 42.0774 99.991 42.1504L99.5406 40.2817ZM112.369 37.8652C111.837 37.8652 111.316 37.7638 110.804 37.5609C110.297 37.358 109.826 37.0313 109.392 36.5809L110.494 35.0287C110.693 35.2113 110.885 35.3614 111.072 35.4791C111.259 35.5928 111.437 35.682 111.608 35.747C111.778 35.8119 111.938 35.8565 112.089 35.8809C112.243 35.9052 112.387 35.9174 112.521 35.9174C112.582 35.9174 112.651 35.9154 112.728 35.9113C112.805 35.9072 112.882 35.9012 112.959 35.893C113.036 35.8809 113.111 35.8667 113.184 35.8504C113.257 35.8342 113.324 35.8139 113.385 35.7896C113.596 35.7003 113.763 35.611 113.884 35.5217C113.73 35.1484 113.562 34.7609 113.379 34.3591C113.2 33.9533 113.02 33.5475 112.837 33.1417C112.655 32.7319 112.474 32.3261 112.296 31.9243C112.117 31.5226 111.951 31.1371 111.796 30.7678L113.574 30.0252L114.116 31.34C114.29 31.7701 114.499 32.2814 114.743 32.8739C114.986 33.4623 115.266 34.1299 115.583 34.8765C115.656 35.0551 115.723 35.2113 115.783 35.3452C115.844 35.4791 115.915 35.5907 115.996 35.68C116.082 35.7693 116.181 35.8362 116.295 35.8809C116.412 35.9214 116.563 35.9417 116.745 35.9417C116.875 35.9417 116.999 35.9661 117.116 36.0148C117.234 36.0635 117.336 36.1325 117.421 36.2217C117.51 36.307 117.581 36.4084 117.634 36.5261C117.687 36.6438 117.713 36.7696 117.713 36.9035C117.713 37.0374 117.687 37.1632 117.634 37.2809C117.581 37.3986 117.51 37.5 117.421 37.5852C117.336 37.6745 117.234 37.7435 117.116 37.7922C116.999 37.8409 116.875 37.8652 116.745 37.8652C116.498 37.8652 116.278 37.849 116.088 37.8165C115.901 37.7841 115.733 37.7374 115.583 37.6765C115.436 37.6197 115.305 37.5507 115.187 37.4696C115.073 37.3843 114.966 37.291 114.864 37.1896C114.755 37.2626 114.639 37.3336 114.517 37.4026C114.396 37.4675 114.256 37.5325 114.097 37.5974C113.854 37.6907 113.59 37.7577 113.306 37.7983C113.026 37.8429 112.714 37.8652 112.369 37.8652ZM121.367 39.8678L120.198 41.0426L119.042 39.8861L117.898 41.0304L116.717 39.8557L117.885 38.6809L119.042 39.8374L120.186 38.693L121.367 39.8678ZM115.481 36.9035C115.481 36.7696 115.507 36.6438 115.56 36.5261C115.609 36.4084 115.676 36.307 115.761 36.2217C115.846 36.1325 115.948 36.0635 116.065 36.0148C116.183 35.9661 116.309 35.9417 116.443 35.9417H117.118H117.411C117.593 35.9417 117.794 35.9336 118.013 35.9174C118.232 35.9012 118.443 35.8748 118.646 35.8383C118.849 35.8017 119.032 35.753 119.194 35.6922C119.36 35.6272 119.482 35.5461 119.559 35.4487C119.604 35.3797 119.626 35.2864 119.626 35.1687C119.626 34.9942 119.584 34.7872 119.498 34.5478C119.417 34.3084 119.32 34.0649 119.206 33.8174C119.093 33.5699 118.975 33.3325 118.853 33.1052C118.735 32.878 118.64 32.6893 118.567 32.5391L120.302 31.687C120.428 31.9061 120.549 32.1658 120.667 32.4661C120.785 32.7623 120.89 33.0687 120.984 33.3852C121.077 33.6977 121.152 34.0061 121.209 34.3104C121.266 34.6107 121.294 34.8725 121.294 35.0957C121.294 35.5055 121.221 35.8809 121.075 36.2217C120.904 36.6032 120.671 36.9197 120.375 37.1713C120.079 37.4188 119.724 37.6014 119.31 37.7191C119.188 37.7516 119.036 37.778 118.853 37.7983C118.671 37.8186 118.486 37.8328 118.299 37.8409C118.113 37.853 117.936 37.8591 117.77 37.8591C117.603 37.8632 117.473 37.8652 117.38 37.8652H116.498H116.443C116.309 37.8652 116.183 37.8409 116.065 37.7922C115.948 37.7435 115.846 37.6745 115.761 37.5852C115.676 37.5 115.609 37.3986 115.56 37.2809C115.507 37.1632 115.481 37.0374 115.481 36.9035ZM127.245 37.8652C127.156 37.8652 127.03 37.8591 126.868 37.847C126.705 37.8348 126.531 37.7901 126.344 37.713C126.255 38.2162 126.087 38.693 125.839 39.1435C125.596 39.598 125.293 40.022 124.932 40.4157C124.571 40.8133 124.159 41.1786 123.696 41.5113C123.234 41.8441 122.741 42.1423 122.217 42.4061L121.103 40.8661C121.392 40.72 121.682 40.5597 121.974 40.3852C122.266 40.2148 122.544 40.0322 122.808 39.8374C123.076 39.6467 123.323 39.4458 123.55 39.2348C123.782 39.0278 123.983 38.8128 124.153 38.5896C124.323 38.3664 124.457 38.1371 124.555 37.9017C124.652 37.6704 124.701 37.4351 124.701 37.1957C124.701 37.1835 124.699 37.1652 124.695 37.1409C124.695 37.1165 124.695 37.0922 124.695 37.0678C124.695 37.0435 124.693 37.0252 124.689 37.013C124.689 37.0009 124.689 37.0029 124.689 37.0191V37.0252C124.66 36.7899 124.62 36.5646 124.567 36.3496C124.514 36.1345 124.447 35.9154 124.366 35.6922C124.289 35.469 124.198 35.2357 124.092 34.9922C123.987 34.7446 123.869 34.4748 123.739 34.1826L125.498 33.4157C125.661 33.9026 125.813 34.3084 125.955 34.633C126.097 34.9577 126.235 35.2174 126.369 35.4122C126.507 35.607 126.645 35.7449 126.783 35.8261C126.921 35.9032 127.067 35.9417 127.221 35.9417H127.251C127.385 35.9417 127.511 35.9681 127.629 36.0209C127.746 36.0736 127.848 36.1446 127.933 36.2339C128.022 36.3191 128.091 36.4206 128.14 36.5383C128.193 36.6559 128.219 36.7797 128.219 36.9096C128.219 37.0435 128.193 37.1693 128.14 37.287C128.091 37.4046 128.022 37.5061 127.933 37.5913C127.848 37.6765 127.746 37.7435 127.629 37.7922C127.511 37.8409 127.383 37.8652 127.245 37.8652ZM126.212 36.9035C126.212 36.7696 126.239 36.6438 126.292 36.5261C126.34 36.4084 126.409 36.307 126.498 36.2217C126.584 36.1325 126.687 36.0635 126.809 36.0148C126.927 35.9661 127.052 35.9417 127.186 35.9417H128.355C129.012 35.9417 129.615 35.9032 130.163 35.8261C130.715 35.7449 131.23 35.6374 131.709 35.5035C132.188 35.3696 132.64 35.2154 133.066 35.0409C133.496 34.8623 133.918 34.6777 134.332 34.487C134.056 34.4099 133.778 34.3145 133.498 34.2009C133.223 34.0872 132.945 33.9777 132.665 33.8722C132.389 33.7667 132.113 33.6774 131.837 33.6043C131.561 33.5272 131.287 33.4887 131.015 33.4887C130.828 33.4887 130.646 33.5394 130.467 33.6409C130.289 33.7423 130.126 33.858 129.98 33.9878C129.834 34.1177 129.71 34.2455 129.609 34.3713C129.512 34.493 129.451 34.5762 129.426 34.6209L128.02 33.7139C128.174 33.442 128.357 33.1762 128.568 32.9165C128.779 32.6568 129.01 32.4275 129.262 32.2287C129.518 32.0258 129.792 31.8635 130.084 31.7417C130.38 31.62 130.69 31.5591 131.015 31.5591C131.254 31.5591 131.494 31.5855 131.733 31.6383C131.973 31.687 132.21 31.7519 132.445 31.833C132.685 31.9142 132.92 32.0075 133.152 32.113C133.383 32.2145 133.612 32.318 133.839 32.4235C134.058 32.5249 134.276 32.6264 134.491 32.7278C134.71 32.8252 134.935 32.9165 135.166 33.0017C135.398 33.0829 135.637 33.1499 135.885 33.2026C136.132 33.2554 136.394 33.2838 136.67 33.2878L136.518 35.1565L135.653 35.5704C135.3 35.7409 134.949 35.9174 134.6 36.1C134.251 36.2786 133.894 36.453 133.529 36.6235C133.168 36.7899 132.794 36.9501 132.409 37.1043C132.027 37.2545 131.626 37.3864 131.204 37.5C130.782 37.6096 130.335 37.6968 129.865 37.7617C129.394 37.8307 128.891 37.8652 128.355 37.8652H127.235H127.186C127.052 37.8652 126.927 37.8388 126.809 37.7861C126.687 37.7374 126.584 37.6704 126.498 37.5852C126.409 37.5 126.34 37.3986 126.292 37.2809C126.239 37.1632 126.212 37.0374 126.212 36.9035ZM130.759 28.2661L132.111 29.6174L130.759 30.9687L129.408 29.6174L130.759 28.2661ZM70.4955 64.8339C70.1181 64.8339 69.7286 64.8116 69.3268 64.767C68.9292 64.7264 68.5436 64.6472 68.1703 64.5296C67.801 64.4119 67.4561 64.2455 67.1355 64.0304C66.815 63.8194 66.5451 63.5435 66.326 63.2026C66.119 62.8739 65.9587 62.5128 65.8451 62.1191C65.7315 61.7255 65.6747 61.2852 65.6747 60.7983C65.6747 60.4412 65.6889 60.1023 65.7173 59.7817C65.7497 59.4571 65.7984 59.1365 65.8634 58.82C65.9283 58.5035 66.0115 58.1829 66.1129 57.8583C66.2184 57.5336 66.3442 57.1887 66.4903 56.8235L68.0547 57.4748C67.937 57.767 67.8355 58.0307 67.7503 58.2661C67.6692 58.5014 67.6002 58.7165 67.5434 58.9113C67.4865 59.102 67.4419 59.2786 67.4094 59.4409C67.377 59.6032 67.3526 59.7594 67.3364 59.9096C67.3202 60.0557 67.31 60.2017 67.306 60.3478C67.3019 60.4899 67.2999 60.64 67.2999 60.7983C67.2999 61.1026 67.3486 61.3664 67.446 61.5896C67.5434 61.8128 67.6752 62.0014 67.8416 62.1557C68.008 62.3099 68.1987 62.4357 68.4138 62.533C68.6329 62.6345 68.8602 62.7116 69.0955 62.7643C69.3309 62.8171 69.5683 62.8536 69.8077 62.8739C70.0512 62.8942 70.2805 62.9043 70.4955 62.9043C70.601 62.9043 70.7573 62.8962 70.9642 62.88C71.1712 62.8678 71.3964 62.8435 71.6399 62.807C71.8874 62.7745 72.139 62.7299 72.3947 62.673C72.6544 62.6162 72.8897 62.5452 73.1008 62.46C73.3118 62.3788 73.4842 62.2814 73.6181 62.1678C73.7521 62.0583 73.819 61.9284 73.819 61.7783C73.819 61.762 73.7845 61.7336 73.7155 61.693C73.6506 61.6525 73.5593 61.6038 73.4416 61.547C73.328 61.4942 73.1941 61.4333 73.0399 61.3643C72.8897 61.2994 72.7274 61.2325 72.5529 61.1635H72.559C72.3642 61.1026 72.1593 61.0499 71.9442 61.0052C71.7332 60.9646 71.5242 60.9281 71.3173 60.8957C71.2848 60.8916 71.2422 60.8855 71.1894 60.8774C71.1408 60.8693 71.09 60.8591 71.0373 60.847C70.9845 60.8388 70.9318 60.8287 70.879 60.8165C70.8303 60.8084 70.7897 60.8003 70.7573 60.7922L71.0068 58.9417H75.8886C76.0184 58.9417 76.1422 58.9661 76.2599 59.0148C76.3776 59.0635 76.479 59.1325 76.5642 59.2217C76.6535 59.307 76.7245 59.4084 76.7773 59.5261C76.83 59.6438 76.8564 59.7696 76.8564 59.9035C76.8564 60.0374 76.83 60.1632 76.7773 60.2809C76.7245 60.3986 76.6535 60.5 76.5642 60.5852C76.479 60.6745 76.3776 60.7435 76.2599 60.7922C76.1422 60.8409 76.0184 60.8652 75.8886 60.8652H75.2129C75.2981 61.0275 75.359 61.1899 75.3955 61.3522C75.4361 61.5186 75.4584 61.6606 75.4625 61.7783C75.4422 62.1597 75.3448 62.4986 75.1703 62.7948C74.9999 63.0951 74.7787 63.3588 74.5068 63.5861C74.235 63.8133 73.9265 64.0061 73.5816 64.1643C73.2367 64.3226 72.8836 64.4504 72.5225 64.5478C72.1613 64.6493 71.8042 64.7223 71.4512 64.767C71.1022 64.8116 70.7836 64.8339 70.4955 64.8339ZM74.98 59.9035C74.98 59.7696 75.0044 59.6438 75.0531 59.5261C75.1018 59.4084 75.1708 59.307 75.26 59.2217C75.3452 59.1325 75.4467 59.0635 75.5644 59.0148C75.6821 58.9661 75.8079 58.9417 75.9418 58.9417H76.4044C76.6965 58.9417 76.9765 58.9296 77.2444 58.9052C77.5163 58.8809 77.7557 58.8301 77.9626 58.753C78.1696 58.6719 78.336 58.5603 78.4618 58.4183C78.5916 58.2722 78.6606 58.0794 78.6687 57.84C78.6728 57.7507 78.6728 57.6777 78.6687 57.6209C78.6687 57.56 78.6586 57.489 78.6383 57.4078C78.618 57.3226 78.5876 57.213 78.547 57.0791C78.5105 56.9412 78.4577 56.7484 78.3887 56.5009L80.16 56.0017C80.2371 56.1965 80.3081 56.4542 80.3731 56.7748C80.438 57.0954 80.4867 57.4464 80.5192 57.8278C80.5273 57.9496 80.5415 58.0754 80.5618 58.2052C80.5821 58.3351 80.6145 58.4548 80.6592 58.5643C80.7079 58.6739 80.7728 58.7652 80.8539 58.8383C80.9351 58.9072 81.0406 58.9417 81.1705 58.9417C81.3044 58.9417 81.4302 58.9661 81.5479 59.0148C81.6655 59.0635 81.767 59.1325 81.8522 59.2217C81.9415 59.307 82.0105 59.4084 82.0592 59.5261C82.1119 59.6438 82.1383 59.7696 82.1383 59.9035C82.1383 60.0374 82.1119 60.1632 82.0592 60.2809C82.0105 60.3986 81.9415 60.5 81.8522 60.5852C81.7629 60.6745 81.6594 60.7435 81.5418 60.7922C81.4281 60.8409 81.3064 60.8652 81.1765 60.8652C80.787 60.8652 80.4522 60.8043 80.1722 60.6826C79.8963 60.5649 79.6589 60.4107 79.46 60.22C79.2774 60.3417 79.0664 60.4432 78.827 60.5243C78.5916 60.6055 78.34 60.6704 78.0722 60.7191C77.8044 60.7719 77.5284 60.8084 77.2444 60.8287C76.9603 60.853 76.6803 60.8652 76.4044 60.8652H75.9418C75.8079 60.8652 75.6821 60.8409 75.5644 60.7922C75.4467 60.7435 75.3452 60.6745 75.26 60.5852C75.1708 60.5 75.1018 60.3986 75.0531 60.2809C75.0044 60.1632 74.98 60.0374 74.98 59.9035ZM81.0244 54.0357L79.8557 55.2104L78.6992 54.0539L77.5548 55.1983L76.3739 54.0235L77.5426 52.8487L78.6992 54.0052L79.8435 52.8609L81.0244 54.0357ZM88.251 58.9417C88.3809 58.9417 88.5047 58.9681 88.6223 59.0209C88.74 59.0736 88.8415 59.1446 88.9267 59.2339C89.016 59.3191 89.087 59.4206 89.1397 59.5383C89.1925 59.6559 89.2189 59.7817 89.2189 59.9157C89.2189 60.0496 89.1925 60.1754 89.1397 60.293C89.087 60.4067 89.016 60.5061 88.9267 60.5913C88.8415 60.6806 88.74 60.7496 88.6223 60.7983C88.5047 60.847 88.3809 60.8713 88.251 60.8713C87.9305 60.8713 87.618 60.8612 87.3137 60.8409C87.0093 60.8206 86.7151 60.782 86.431 60.7252C86.151 60.6684 85.8852 60.5893 85.6337 60.4878C85.3821 60.3823 85.1487 60.2464 84.9337 60.08C84.6942 60.2261 84.4244 60.3499 84.1241 60.4513C83.8238 60.5528 83.5113 60.6339 83.1867 60.6948C82.8621 60.7597 82.5354 60.8043 82.2067 60.8287C81.878 60.8571 81.5696 60.8713 81.2815 60.8713C81.1516 60.8713 81.0279 60.847 80.9102 60.7983C80.7925 60.7496 80.689 60.6806 80.5997 60.5913C80.5105 60.5061 80.4415 60.4067 80.3928 60.293C80.34 60.1754 80.3137 60.0496 80.3137 59.9157C80.3137 59.7817 80.34 59.6559 80.3928 59.5383C80.4415 59.4206 80.5105 59.3191 80.5997 59.2339C80.689 59.1446 80.7925 59.0736 80.9102 59.0209C81.0279 58.9681 81.1516 58.9417 81.2815 58.9417C81.4235 58.9417 81.5716 58.9377 81.7258 58.9296C81.8841 58.9214 82.0423 58.9113 82.2006 58.8991C82.3589 58.8829 82.5151 58.8626 82.6693 58.8383C82.8235 58.8139 82.9696 58.7855 83.1076 58.753C83.0629 58.7125 83.0223 58.6739 82.9858 58.6374C82.9493 58.5968 82.9108 58.5562 82.8702 58.5157H82.8763C82.6571 58.2965 82.4319 58.0713 82.2006 57.84C81.9734 57.6087 81.7197 57.3652 81.4397 57.1096L81.5371 55.6852C81.7766 55.4742 82.0241 55.2957 82.2797 55.1496C82.5354 54.9994 82.787 54.8757 83.0345 54.7783C83.2861 54.6809 83.5255 54.6058 83.7528 54.553C83.9841 54.5003 84.191 54.4638 84.3737 54.4435C84.4629 54.4354 84.5583 54.4293 84.6597 54.4252C84.7612 54.4171 84.8606 54.413 84.958 54.413C85.2745 54.413 85.5992 54.4455 85.9319 54.5104C86.2687 54.5754 86.5731 54.6646 86.845 54.7783C87.0803 54.8878 87.2771 55.0116 87.4354 55.1496C87.5937 55.2875 87.7194 55.4255 87.8128 55.5635C87.9061 55.7014 87.9731 55.8354 88.0137 55.9652C88.0583 56.0951 88.0826 56.2046 88.0867 56.2939C88.0989 56.4765 88.0745 56.6774 88.0137 56.8965C87.9528 57.1116 87.8635 57.3328 87.7458 57.56C87.6322 57.7832 87.4963 58.0043 87.338 58.2235C87.1797 58.4386 87.0093 58.6374 86.8267 58.82C87.2568 58.9012 87.7316 58.9417 88.251 58.9417ZM84.958 56.3061C84.8606 56.3061 84.7368 56.3142 84.5867 56.3304C84.4366 56.3426 84.2803 56.3609 84.118 56.3852C83.9557 56.4096 83.7974 56.438 83.6432 56.4704C83.4931 56.5029 83.3652 56.5374 83.2597 56.5739L84.9337 58.0043C85.0513 57.9191 85.1852 57.8136 85.3354 57.6878C85.4896 57.562 85.6397 57.4322 85.7858 57.2983C85.9319 57.1603 86.0638 57.0243 86.1815 56.8904C86.3032 56.7565 86.3925 56.6388 86.4493 56.5374C86.356 56.4968 86.2464 56.4623 86.1206 56.4339C85.9948 56.4014 85.8629 56.3771 85.725 56.3609C85.591 56.3406 85.4571 56.3264 85.3232 56.3183C85.1893 56.3101 85.0676 56.3061 84.958 56.3061ZM87.259 59.9035C87.259 59.7696 87.2833 59.6438 87.332 59.5261C87.3807 59.4084 87.4497 59.307 87.539 59.2217C87.6242 59.1365 87.7256 59.0696 87.8433 59.0209C87.961 58.9681 88.0868 58.9417 88.2207 58.9417H88.3242C88.8882 58.9417 89.3143 58.8525 89.6024 58.6739C89.8906 58.4913 90.0346 58.2154 90.0346 57.8461C90.0346 57.773 90.0346 57.7081 90.0346 57.6513C90.0387 57.5945 90.0326 57.5214 90.0164 57.4322C90.0042 57.3388 89.9778 57.2191 89.9372 57.073C89.9007 56.9229 89.8439 56.718 89.7668 56.4583L91.5016 56.0383C91.5868 56.2817 91.6619 56.5557 91.7268 56.86C91.7917 57.1603 91.8242 57.489 91.8242 57.8461C91.8242 57.9638 91.8343 58.0875 91.8546 58.2174C91.879 58.3432 91.9155 58.4609 91.9642 58.5704C92.0169 58.6759 92.0859 58.7652 92.1711 58.8383C92.2604 58.9072 92.372 58.9417 92.5059 58.9417C92.6358 58.9417 92.7595 58.9681 92.8772 59.0209C92.9949 59.0696 93.0964 59.1365 93.1816 59.2217C93.2708 59.307 93.3419 59.4084 93.3946 59.5261C93.4474 59.6438 93.4737 59.7696 93.4737 59.9035C93.4737 60.0374 93.4474 60.1632 93.3946 60.2809C93.3459 60.3986 93.2769 60.5 93.1877 60.5852C93.0984 60.6745 92.9949 60.7435 92.8772 60.7922C92.7636 60.8409 92.6419 60.8652 92.512 60.8652C92.1224 60.8652 91.7897 60.8084 91.5137 60.6948C91.2378 60.5852 91.0004 60.4371 90.8016 60.2504C90.5094 60.4614 90.1604 60.6157 89.7546 60.713C89.3529 60.8145 88.8761 60.8652 88.3242 60.8652H88.2207C88.0868 60.8652 87.961 60.8409 87.8433 60.7922C87.7256 60.7435 87.6242 60.6745 87.539 60.5852C87.4497 60.5 87.3807 60.3986 87.332 60.2809C87.2833 60.1632 87.259 60.0374 87.259 59.9035ZM90.5885 52.3374L91.9398 53.6887L90.5885 55.04L89.2372 53.6887L90.5885 52.3374ZM91.5458 59.9035C91.5458 59.7696 91.5722 59.6438 91.625 59.5261C91.6737 59.4084 91.7427 59.307 91.8319 59.2217C91.9212 59.1325 92.0247 59.0635 92.1424 59.0148C92.26 58.9661 92.3838 58.9417 92.5137 58.9417C92.7125 58.9417 92.8829 58.9275 93.025 58.8991C93.167 58.8707 93.2847 58.8362 93.378 58.7957C93.4754 58.751 93.5525 58.7043 93.6093 58.6557C93.6661 58.6029 93.7108 58.5542 93.7432 58.5096L93.7372 58.5157C93.794 58.4304 93.8508 58.333 93.9076 58.2235C93.9644 58.1099 94.0253 57.9597 94.0902 57.773C94.1592 57.5864 94.2322 57.351 94.3093 57.067C94.3905 56.7788 94.4818 56.4197 94.5832 55.9896L96.178 56.507C96.1374 56.6612 96.0989 56.8093 96.0624 56.9513C96.0258 57.0893 95.9995 57.2252 95.9832 57.3591C95.9711 57.493 95.9711 57.627 95.9832 57.7609C95.9954 57.8948 96.0299 58.0348 96.0867 58.1809C96.2572 57.8968 96.4357 57.6168 96.6224 57.3409C96.809 57.0609 97.0099 56.7971 97.225 56.5496C97.4441 56.298 97.6795 56.0646 97.9311 55.8496C98.1827 55.6345 98.4586 55.4499 98.7589 55.2957C99.0632 55.1374 99.394 55.0136 99.7511 54.9243C100.108 54.831 100.502 54.7823 100.932 54.7783C101.427 54.7742 101.863 54.8574 102.241 55.0278C102.618 55.1942 102.933 55.4154 103.184 55.6913C103.44 55.9632 103.628 56.2736 103.75 56.6226C103.872 56.9675 103.925 57.3125 103.908 57.6574C103.888 58.0875 103.777 58.4893 103.574 58.8626C103.375 59.2359 103.115 59.5565 102.795 59.8243C102.498 60.0557 102.168 60.2464 101.802 60.3965C101.441 60.5467 101.068 60.6643 100.682 60.7496C100.301 60.8388 99.9174 60.8997 99.5319 60.9322C99.1505 60.9687 98.7914 60.987 98.4545 60.987C98.0569 60.987 97.6998 60.9748 97.3832 60.9504C97.0667 60.9261 96.7705 60.8774 96.4945 60.8043C96.2227 60.7354 95.965 60.6359 95.7215 60.5061C95.4821 60.3803 95.2406 60.2139 94.9972 60.007C94.705 60.2991 94.36 60.5142 93.9624 60.6522C93.5687 60.7901 93.1041 60.8612 92.5685 60.8652H92.5137C92.3838 60.8652 92.26 60.8409 92.1424 60.7922C92.0247 60.7435 91.9212 60.6745 91.8319 60.5852C91.7427 60.5 91.6737 60.3986 91.625 60.2809C91.5722 60.1632 91.5458 60.0374 91.5458 59.9035ZM100.908 56.7139C100.518 56.7139 100.143 56.791 99.7815 56.9452C99.4203 57.0954 99.0896 57.2841 98.7893 57.5113C98.4931 57.7386 98.2314 57.982 98.0041 58.2417C97.7809 58.5014 97.6085 58.7409 97.4867 58.96C97.645 58.9681 97.8235 58.9742 98.0224 58.9783C98.2212 58.9823 98.414 58.9843 98.6006 58.9843C98.8522 58.9843 99.1119 58.9783 99.3798 58.9661C99.6516 58.9499 99.9174 58.9235 100.177 58.887C100.441 58.8464 100.693 58.7916 100.932 58.7226C101.175 58.6536 101.395 58.5664 101.589 58.4609C101.788 58.3513 101.957 58.2214 102.095 58.0713C102.237 57.9212 102.336 57.7446 102.393 57.5417C102.352 57.2577 102.2 57.0487 101.936 56.9148C101.677 56.7809 101.334 56.7139 100.908 56.7139ZM112.268 60.8652C112.178 60.8652 112.053 60.8591 111.89 60.847C111.728 60.8348 111.553 60.7901 111.367 60.713C111.277 61.2162 111.109 61.693 110.862 62.1435C110.618 62.598 110.316 63.022 109.955 63.4157C109.593 63.8133 109.182 64.1786 108.719 64.5113C108.256 64.8441 107.763 65.1423 107.24 65.4061L106.126 63.8661C106.414 63.72 106.704 63.5597 106.996 63.3852C107.288 63.2148 107.566 63.0322 107.83 62.8374C108.098 62.6467 108.346 62.4458 108.573 62.2348C108.804 62.0278 109.005 61.8128 109.175 61.5896C109.346 61.3664 109.48 61.1371 109.577 60.9017C109.675 60.6704 109.723 60.4351 109.723 60.1957C109.723 60.1835 109.721 60.1652 109.717 60.1409C109.717 60.1165 109.717 60.0922 109.717 60.0678C109.717 60.0435 109.715 60.0252 109.711 60.013C109.711 60.0009 109.711 60.0029 109.711 60.0191V60.0252C109.683 59.7899 109.642 59.5646 109.589 59.3496C109.537 59.1345 109.47 58.9154 109.388 58.6922C109.311 58.469 109.22 58.2357 109.115 57.9922C109.009 57.7446 108.891 57.4748 108.762 57.1826L110.521 56.4157C110.683 56.9026 110.835 57.3084 110.977 57.633C111.119 57.9577 111.257 58.2174 111.391 58.4122C111.529 58.607 111.667 58.7449 111.805 58.8261C111.943 58.9032 112.089 58.9417 112.243 58.9417H112.274C112.408 58.9417 112.533 58.9681 112.651 59.0209C112.769 59.0736 112.87 59.1446 112.955 59.2339C113.045 59.3191 113.114 59.4206 113.162 59.5383C113.215 59.6559 113.242 59.7797 113.242 59.9096C113.242 60.0435 113.215 60.1693 113.162 60.287C113.114 60.4046 113.045 60.5061 112.955 60.5913C112.87 60.6765 112.769 60.7435 112.651 60.7922C112.533 60.8409 112.406 60.8652 112.268 60.8652ZM117.127 52.9217L115.958 54.0965L114.802 52.94L113.657 54.0843L112.477 52.9096L113.645 51.7348L114.802 52.8913L115.946 51.747L117.127 52.9217ZM111.034 59.9035C111.034 59.7696 111.06 59.6438 111.113 59.5261C111.162 59.4084 111.229 59.307 111.314 59.2217C111.399 59.1325 111.501 59.0635 111.618 59.0148C111.736 58.9661 111.862 58.9417 111.996 58.9417H112.671H112.964C113.146 58.9417 113.347 58.9336 113.566 58.9174C113.785 58.9012 113.996 58.8748 114.199 58.8383C114.402 58.8017 114.585 58.753 114.747 58.6922C114.913 58.6272 115.035 58.5461 115.112 58.4487C115.157 58.3797 115.179 58.2864 115.179 58.1687C115.179 57.9942 115.137 57.7872 115.051 57.5478C114.97 57.3084 114.873 57.0649 114.759 56.8174C114.646 56.5699 114.528 56.3325 114.406 56.1052C114.288 55.878 114.193 55.6893 114.12 55.5391L115.855 54.687C115.981 54.9061 116.102 55.1658 116.22 55.4661C116.338 55.7623 116.443 56.0687 116.537 56.3852C116.63 56.6977 116.705 57.0061 116.762 57.3104C116.819 57.6107 116.847 57.8725 116.847 58.0957C116.847 58.5055 116.774 58.8809 116.628 59.2217C116.457 59.6032 116.224 59.9197 115.928 60.1713C115.632 60.4188 115.277 60.6014 114.863 60.7191C114.741 60.7516 114.589 60.778 114.406 60.7983C114.224 60.8186 114.039 60.8328 113.852 60.8409C113.666 60.853 113.489 60.8591 113.323 60.8591C113.156 60.8632 113.026 60.8652 112.933 60.8652H112.05H111.996C111.862 60.8652 111.736 60.8409 111.618 60.7922C111.501 60.7435 111.399 60.6745 111.314 60.5852C111.229 60.5 111.162 60.3986 111.113 60.2809C111.06 60.1632 111.034 60.0374 111.034 59.9035ZM120.974 60.8652C120.475 60.8652 120.047 60.8023 119.69 60.6765C119.333 60.5548 119.025 60.3661 118.765 60.1104C118.603 59.9481 118.477 59.7777 118.388 59.5991C118.302 59.4206 118.239 59.2461 118.199 59.0757C118.162 58.9012 118.14 58.7368 118.132 58.5826C118.128 58.4284 118.126 58.2965 118.126 58.187V58.0957C118.13 57.9455 118.134 57.7304 118.138 57.4504C118.146 57.1664 118.15 56.8336 118.15 56.4522C118.15 56.0707 118.148 55.6507 118.144 55.1922C118.14 54.7336 118.128 54.2771 118.108 53.8226C118.091 53.3641 118.065 52.9238 118.028 52.5017C117.996 52.0797 117.949 51.7125 117.888 51.4L119.708 50.8461C119.761 51.1139 119.804 51.4304 119.836 51.7957C119.869 52.1568 119.895 52.5362 119.915 52.9339C119.94 53.3316 119.956 53.7313 119.964 54.133C119.976 54.5348 119.984 54.9081 119.988 55.253C119.992 55.5574 119.98 55.8557 119.952 56.1478C119.928 56.4359 119.907 56.72 119.891 57C119.875 57.2759 119.875 57.5458 119.891 57.8096C119.911 58.0693 119.968 58.3229 120.061 58.5704C120.098 58.6638 120.143 58.7348 120.195 58.7835C120.252 58.8322 120.317 58.8687 120.39 58.893C120.463 58.9133 120.542 58.9255 120.628 58.9296C120.717 58.9336 120.814 58.9357 120.92 58.9357H120.974C121.104 58.9357 121.228 58.962 121.346 59.0148C121.463 59.0675 121.565 59.1386 121.65 59.2278C121.739 59.313 121.81 59.4145 121.863 59.5322C121.916 59.6499 121.942 59.7736 121.942 59.9035C121.942 60.0374 121.916 60.1632 121.863 60.2809C121.81 60.3986 121.739 60.5 121.65 60.5852C121.565 60.6745 121.463 60.7435 121.346 60.7922C121.228 60.8409 121.104 60.8652 120.974 60.8652ZM119.985 59.9035C119.985 59.7696 120.011 59.6438 120.064 59.5261C120.113 59.4084 120.182 59.307 120.271 59.2217C120.356 59.1325 120.46 59.0635 120.581 59.0148C120.699 58.9661 120.825 58.9417 120.959 58.9417C121.109 58.9417 121.294 58.9397 121.513 58.9357C121.736 58.9275 121.973 58.9154 122.225 58.8991C122.476 58.8829 122.732 58.8626 122.992 58.8383C123.256 58.8139 123.505 58.7814 123.74 58.7409C123.98 58.7003 124.195 58.6536 124.386 58.6009C124.58 58.5441 124.733 58.4791 124.842 58.4061C124.432 58.4507 124.055 58.469 123.71 58.4609C123.365 58.4487 123.057 58.4142 122.785 58.3574C122.513 58.3006 122.28 58.2235 122.085 58.1261C121.894 58.0246 121.748 57.909 121.647 57.7791V57.7852C121.537 57.6472 121.434 57.4626 121.336 57.2313C121.243 57 121.196 56.7139 121.196 56.373C121.196 56.1904 121.208 56.02 121.233 55.8617C121.354 55.1719 121.598 54.6017 121.963 54.1513L121.957 54.1574C122.176 53.8652 122.424 53.6481 122.7 53.5061C122.976 53.36 123.266 53.287 123.57 53.287C123.878 53.287 124.183 53.362 124.483 53.5122C124.783 53.6623 125.055 53.8652 125.299 54.1209C125.473 54.3197 125.629 54.5449 125.767 54.7965C125.909 55.0481 126.029 55.3159 126.127 55.6C126.228 55.8841 126.305 56.1803 126.358 56.4887C126.415 56.793 126.443 57.0994 126.443 57.4078C126.443 57.5012 126.441 57.5945 126.437 57.6878C126.433 57.7771 126.427 57.8623 126.419 57.9435C126.37 58.3655 126.263 58.7307 126.096 59.0391C125.93 59.3435 125.717 59.6032 125.457 59.8183C125.201 60.0333 124.907 60.2078 124.574 60.3417C124.242 60.4757 123.885 60.5812 123.503 60.6583C123.122 60.7354 122.722 60.7881 122.304 60.8165C121.89 60.8449 121.472 60.8612 121.05 60.8652H120.947C120.813 60.8652 120.687 60.8388 120.569 60.7861C120.452 60.7374 120.35 60.6704 120.265 60.5852C120.18 60.5 120.113 60.3986 120.064 60.2809C120.011 60.1632 119.985 60.0374 119.985 59.9035ZM123.558 55.2226C123.465 55.2186 123.369 55.247 123.272 55.3078C123.178 55.3646 123.091 55.4417 123.01 55.5391C122.933 55.6365 122.868 55.7481 122.815 55.8739C122.767 55.9997 122.742 56.1275 122.742 56.2574C122.742 56.371 122.769 56.4725 122.821 56.5617C122.85 56.6104 122.907 56.653 122.992 56.6896C123.081 56.722 123.185 56.7504 123.302 56.7748C123.424 56.7951 123.554 56.8133 123.692 56.8296C123.83 56.8417 123.962 56.8499 124.087 56.8539C124.213 56.858 124.327 56.858 124.428 56.8539C124.534 56.8499 124.611 56.8438 124.66 56.8357C124.623 56.653 124.574 56.4684 124.514 56.2817C124.457 56.0951 124.384 55.9246 124.294 55.7704C124.205 55.6162 124.1 55.4884 123.978 55.387C123.856 55.2855 123.716 55.2307 123.558 55.2226ZM123.32 49.8174L124.672 51.1687L123.32 52.52L121.969 51.1687L123.32 49.8174ZM127.649 58.0226C127.819 58.1322 128.018 58.2417 128.246 58.3513C128.477 58.4609 128.712 58.5623 128.952 58.6557C129.195 58.7449 129.43 58.818 129.658 58.8748C129.885 58.9316 130.082 58.96 130.248 58.96C130.309 58.96 130.388 58.958 130.486 58.9539C130.583 58.9458 130.684 58.9336 130.79 58.9174C130.899 58.8971 131.009 58.8728 131.119 58.8443C131.228 58.8119 131.328 58.7713 131.417 58.7226C131.51 58.6739 131.585 58.6171 131.642 58.5522C131.699 58.4832 131.729 58.402 131.733 58.3087C131.737 58.1504 131.689 57.9719 131.587 57.773C131.49 57.5742 131.356 57.3672 131.186 57.1522C131.019 56.933 130.824 56.7139 130.601 56.4948C130.382 56.2716 130.155 56.0586 129.919 55.8557C129.684 55.6487 129.449 55.458 129.213 55.2835C128.978 55.1049 128.761 54.9528 128.562 54.827L129.639 53.2261C130.033 53.502 130.423 53.8104 130.808 54.1513C131.198 54.4922 131.557 54.8554 131.886 55.2409C132.214 55.6223 132.498 56.018 132.738 56.4278C132.977 56.8377 133.15 57.2475 133.255 57.6574C133.288 57.7751 133.31 57.8948 133.322 58.0165C133.334 58.1342 133.34 58.2478 133.34 58.3574C133.34 58.7348 133.267 59.0817 133.121 59.3983C132.975 59.7107 132.77 59.9826 132.506 60.2139C132.247 60.4412 131.934 60.6177 131.569 60.7435C131.204 60.8693 130.802 60.9322 130.364 60.9322C130.331 60.9322 130.299 60.9301 130.266 60.9261C130.234 60.9261 130.201 60.9261 130.169 60.9261C129.889 60.9261 129.601 60.8957 129.305 60.8348C129.012 60.778 128.722 60.7009 128.434 60.6035C128.15 60.5061 127.872 60.3925 127.6 60.2626C127.332 60.1328 127.083 59.9968 126.852 59.8548L127.649 58.0226Z" fill="#303030"/>
<defs>
<linearGradient id="paint0_linear_1325_8690" x1="5.08426" y1="6.15789" x2="151.122" y2="67.5913" gradientUnits="userSpaceOnUse">
<stop stop-color="#EAEAEA"/>
<stop offset="1" stop-color="#BDBDBD"/>
</linearGradient>
</defs>
</svg>
