<svg width="147" height="90" viewBox="0 0 147 90" fill="none" xmlns="http://www.w3.org/2000/svg">
<rect x="0.75" y="0.75" width="145.5" height="88.5" rx="9.25" fill="white" stroke="url(#paint0_linear_1325_9345)" stroke-width="1.5"/>
<path d="M53.1362 64.0149H43.4178V60.3344H45.6854C48.6623 60.3344 51.0845 57.5513 51.0845 54.1309C51.0845 52.116 50.244 50.2748 48.8428 49.1204C48.9689 48.7393 49.0329 48.3373 49.0329 47.9273C49.0329 46.364 48.1232 45.031 46.8188 44.5417V43.5233C46.8188 41.026 45.0505 38.9942 42.8771 38.9942C40.7036 38.9942 38.9353 41.026 38.9353 43.5233V44.5417C38.8161 44.5864 38.7047 44.6449 38.5932 44.7035V31.6155L29.3768 23L28.9017 23.2323C28.8991 23.2323 28.8974 23.2333 28.8957 23.2342L12.1016 31.4309V64.0149H8.86385C8.38614 64.0149 8 64.4595 8 65.0074C8 65.5553 8.38614 66 8.86385 66H12.1024H38.5941H53.1362C53.6139 66 54 65.5553 54 65.0074C54 64.4595 53.6139 64.0149 53.1362 64.0149ZM39.8761 46.3353L40.6639 46.2559V43.5233C40.6639 42.1208 41.6565 40.9794 42.8779 40.9794C44.0994 40.9794 45.092 42.1198 45.092 43.5233V46.2559L45.8798 46.3353C46.6927 46.4176 47.3052 47.1015 47.3052 47.9273C47.3052 48.3402 47.1428 48.6589 47.0071 48.8544L46.3377 49.8182L47.3 50.3641C48.569 51.0847 49.3568 52.5279 49.3568 54.1309C49.3568 56.4565 47.7103 58.3493 45.6854 58.3493H43.4178V54.9091L45.162 54.0505C45.6008 53.8351 45.8038 53.2515 45.6155 52.7472C45.428 52.243 44.9166 52.0108 44.4812 52.2261L43.1336 52.8892L42.3087 49.2872C42.1869 48.7571 41.7161 48.4425 41.253 48.5795C40.7917 48.7194 40.5162 49.2623 40.638 49.7924L41.6893 54.382V58.3493H39.4225C37.3977 58.3493 35.7512 56.4565 35.7512 54.1309C35.7512 52.3552 36.7411 50.7631 38.2131 50.1695L39.2359 49.7576L38.6589 48.7045C38.5215 48.4534 38.4516 48.1924 38.4516 47.9273C38.4507 47.1015 39.0632 46.4166 39.8761 46.3353ZM28.3722 43.7893L13.8301 47.6713V44.0672L28.3722 38.8553V43.7893ZM13.8301 49.708L28.3722 45.8261V50.0346L13.8301 53.0659V49.708ZM28.3722 36.7758L13.8301 41.9878V38.218L28.3722 32.5723V36.7758ZM13.8301 55.0837L28.3722 52.0524V56.2669L13.8301 58.2262V55.0837ZM28.3722 25.6472V30.483C28.3635 30.4859 28.3558 30.483 28.348 30.4859L13.8301 36.1227V32.745L28.3722 25.6472ZM13.8301 60.2252L28.3722 58.2659V64.0149H13.8301V60.2252ZM30.0999 64.0149V26.2348L36.8664 32.5604V46.8941C36.7766 47.2226 36.723 47.568 36.723 47.9283C36.723 48.1963 36.7515 48.4643 36.8094 48.7264C35.1128 49.8053 34.0235 51.8668 34.0235 54.1319C34.0235 56.4902 35.1758 58.5448 36.8664 59.594V64.0159L30.0999 64.0149ZM38.5941 60.253C38.8645 60.3017 39.1401 60.3344 39.4225 60.3344H41.6901V64.0149H38.5941V60.253Z" fill="#303030"/>
<path d="M79.599 31.4435C79.6233 31.4922 79.666 31.5814 79.7268 31.7113C79.7918 31.8371 79.8648 31.9913 79.946 32.1739C80.0271 32.3525 80.1123 32.5533 80.2016 32.7765C80.2909 32.9997 80.372 33.2351 80.4451 33.4826C80.5181 33.7261 80.577 33.9757 80.6216 34.2313C80.6703 34.4829 80.6947 34.7304 80.6947 34.9739C80.6906 35.3757 80.6297 35.751 80.512 36.1C80.3984 36.449 80.23 36.7533 80.0068 37.013C79.7836 37.2687 79.5077 37.4716 79.179 37.6217C78.8503 37.7719 78.4709 37.847 78.0407 37.847C77.6674 37.847 77.361 37.7841 77.1216 37.6583C76.8862 37.5325 76.6915 37.36 76.5373 37.1409C76.452 37.2504 76.3607 37.3499 76.2633 37.4391C76.166 37.5243 76.0503 37.5974 75.9164 37.6583C75.7865 37.7232 75.6323 37.7719 75.4538 37.8043C75.2793 37.8368 75.0703 37.853 74.8268 37.853C74.6564 37.853 74.5002 37.8409 74.3581 37.8165C74.2161 37.7922 74.0862 37.7617 73.9686 37.7252C73.9645 38.2 73.8915 38.6322 73.7494 39.0217C73.6115 39.4113 73.4207 39.7603 73.1773 40.0687C72.9378 40.3771 72.6558 40.6449 72.3312 40.8722C72.0065 41.0994 71.6576 41.2861 71.2842 41.4322C70.9109 41.5823 70.5193 41.6939 70.1094 41.767C69.7036 41.84 69.2999 41.8765 68.8981 41.8765C68.2773 41.8765 67.7031 41.773 67.1755 41.5661C66.648 41.3632 66.1915 41.0751 65.806 40.7017C65.4245 40.3325 65.1262 39.8861 64.9112 39.3626C64.6961 38.8432 64.5886 38.269 64.5886 37.64C64.6007 37.2748 64.6494 36.9014 64.7347 36.52C64.8239 36.1386 64.9355 35.7652 65.0694 35.4C65.2074 35.0348 65.3596 34.6878 65.526 34.3591C65.6964 34.0264 65.8689 33.7281 66.0433 33.4643L67.3703 34.487C67.2242 34.7264 67.0822 34.98 66.9442 35.2478C66.8062 35.5116 66.6845 35.7835 66.579 36.0635C66.4735 36.3394 66.3883 36.6154 66.3233 36.8913C66.2584 37.1672 66.226 37.433 66.226 37.6887C66.2138 37.9971 66.2747 38.2872 66.4086 38.5591C66.5465 38.831 66.7352 39.0684 66.9747 39.2713C67.2181 39.4783 67.5022 39.6406 67.8268 39.7583C68.1555 39.8759 68.5045 39.9348 68.8738 39.9348C69.2918 39.9348 69.6773 39.8962 70.0303 39.8191C70.3874 39.742 70.7019 39.6345 70.9738 39.4965C71.2497 39.3626 71.481 39.1983 71.6677 39.0035C71.8544 38.8128 71.9883 38.6017 72.0694 38.3704L72.0633 38.3765C72.1648 38.0438 72.2155 37.7009 72.2155 37.3478C72.2155 37.0759 72.177 36.8 72.0999 36.52C72.0228 36.24 71.9233 35.958 71.8016 35.6739C71.6799 35.3858 71.5439 35.0977 71.3938 34.8096C71.2477 34.5174 71.1036 34.2252 70.9616 33.933L72.6294 32.9957C72.7349 33.2351 72.8404 33.4765 72.946 33.72C73.0515 33.9635 73.157 34.1968 73.2625 34.42C73.372 34.6391 73.4836 34.8441 73.5973 35.0348C73.7109 35.2255 73.8286 35.3899 73.9503 35.5278C74.072 35.6617 74.1978 35.7632 74.3277 35.8322C74.4616 35.9012 74.6036 35.9255 74.7538 35.9052C74.9242 35.8809 75.0622 35.822 75.1677 35.7287C75.2732 35.6313 75.3523 35.5116 75.4051 35.3696C75.4619 35.2275 75.4964 35.0693 75.5086 34.8948C75.5248 34.7162 75.5289 34.5357 75.5207 34.353C75.5126 34.1704 75.4984 33.9899 75.4781 33.8113C75.4619 33.6328 75.4477 33.4684 75.4355 33.3183L77.1155 33.093C77.1439 33.2188 77.1683 33.371 77.1886 33.5496C77.2089 33.7241 77.2312 33.9087 77.2555 34.1035C77.2839 34.2983 77.3184 34.4951 77.359 34.6939C77.3996 34.8928 77.4544 35.0774 77.5233 35.2478C77.5923 35.4183 77.6776 35.5664 77.779 35.6922C77.8804 35.818 78.0083 35.9072 78.1625 35.96C78.2883 35.96 78.406 35.9377 78.5155 35.893C78.6251 35.8443 78.7204 35.7754 78.8016 35.6861C78.8828 35.5968 78.9457 35.4872 78.9903 35.3574C79.039 35.2235 79.0633 35.0693 79.0633 34.8948C79.0633 34.7487 79.0349 34.5803 78.9781 34.3896C78.9254 34.1948 78.8523 33.9858 78.759 33.7626C78.6657 33.5394 78.5561 33.3061 78.4303 33.0626C78.3086 32.8151 78.1787 32.5655 78.0407 32.3139L79.599 31.4435ZM78.2842 30.5365L77.1155 31.7113L75.959 30.5548L74.8147 31.6991L73.6338 30.5243L74.8025 29.3496L75.959 30.5061L77.1033 29.3617L78.2842 30.5365ZM74.8755 28.7713L75.959 27.6878L77.0486 28.7774L75.9651 29.8609L74.8755 28.7713ZM84.0837 33.9087C83.9985 33.8925 83.9011 33.9229 83.7915 34C83.686 34.073 83.5846 34.1745 83.4872 34.3043C83.3939 34.4301 83.3147 34.5701 83.2498 34.7243C83.1889 34.8786 83.1585 35.0267 83.1585 35.1687C83.1585 35.3026 83.197 35.4142 83.2741 35.5035C83.3512 35.5928 83.4486 35.6658 83.5663 35.7226C83.6881 35.7794 83.8199 35.822 83.962 35.8504C84.1081 35.8788 84.2481 35.8991 84.382 35.9113H84.3759C84.4814 35.9194 84.6011 35.9255 84.735 35.9296C84.873 35.9296 85.0069 35.9296 85.1368 35.9296C85.1773 35.9296 85.2078 35.9316 85.2281 35.9357C85.2524 35.9357 85.2727 35.9357 85.2889 35.9357C85.3052 35.9357 85.3214 35.9357 85.3376 35.9357C85.3579 35.9357 85.3863 35.9336 85.4228 35.9296C85.362 35.678 85.2889 35.4386 85.2037 35.2113C85.1225 34.98 85.0272 34.773 84.9176 34.5904C84.8081 34.4078 84.6843 34.2577 84.5463 34.14C84.4083 34.0183 84.2541 33.9412 84.0837 33.9087ZM81.1011 40.2817C81.6733 40.1681 82.1947 40.0241 82.6654 39.8496C83.1362 39.6791 83.5481 39.4864 83.9011 39.2713C84.2582 39.0603 84.5524 38.8351 84.7837 38.5957C85.0191 38.3562 85.1854 38.1128 85.2828 37.8652C85.1083 37.8652 84.9237 37.8612 84.7289 37.853C84.5341 37.849 84.3739 37.8429 84.2481 37.8348C83.7773 37.7942 83.3472 37.6887 82.9576 37.5183C82.5681 37.3519 82.2576 37.1246 82.0263 36.8365C81.8559 36.6174 81.7341 36.38 81.6611 36.1243C81.5921 35.8687 81.5576 35.5988 81.5576 35.3148C81.5576 35.0957 81.5779 34.8765 81.6185 34.6574C81.6591 34.4342 81.7159 34.2191 81.7889 34.0122C81.862 33.8012 81.9472 33.6023 82.0446 33.4157C82.146 33.229 82.2536 33.0586 82.3672 32.9043C82.6107 32.6 82.8765 32.3707 83.1646 32.2165C83.4568 32.0583 83.7631 31.9791 84.0837 31.9791C84.7695 31.9791 85.3883 32.2794 85.9402 32.88C86.135 33.0991 86.3095 33.3446 86.4637 33.6165C86.6179 33.8884 86.7478 34.1786 86.8533 34.487C86.9628 34.7913 87.046 35.1119 87.1028 35.4487C87.1596 35.7814 87.1881 36.1203 87.1881 36.4652C87.1881 36.5707 87.184 36.6762 87.1759 36.7817C87.1718 36.8872 87.1657 36.9867 87.1576 37.08C87.1089 37.5548 87.0014 37.9991 86.835 38.413C86.6727 38.831 86.4617 39.2145 86.202 39.5635C85.9463 39.9165 85.6481 40.2351 85.3072 40.5191C84.9663 40.8072 84.595 41.0588 84.1933 41.2739C83.7956 41.493 83.3736 41.6757 82.9272 41.8217C82.4808 41.9678 82.0223 42.0774 81.5515 42.1504L81.1011 40.2817ZM92.3448 37.8652C92.2555 37.8652 92.1297 37.8591 91.9674 37.847C91.805 37.8348 91.6306 37.7901 91.4439 37.713C91.3546 38.2162 91.1862 38.693 90.9387 39.1435C90.6952 39.598 90.3929 40.022 90.0317 40.4157C89.6706 40.8133 89.2587 41.1786 88.7961 41.5113C88.3334 41.8441 87.8404 42.1423 87.3169 42.4061L86.203 40.8661C86.4911 40.72 86.7813 40.5597 87.0734 40.3852C87.3656 40.2148 87.6436 40.0322 87.9074 39.8374C88.1752 39.6467 88.4227 39.4458 88.65 39.2348C88.8813 39.0278 89.0821 38.8128 89.2526 38.5896C89.423 38.3664 89.5569 38.1371 89.6543 37.9017C89.7517 37.6704 89.8004 37.4351 89.8004 37.1957C89.8004 37.1835 89.7984 37.1652 89.7943 37.1409C89.7943 37.1165 89.7943 37.0922 89.7943 37.0678C89.7943 37.0435 89.7923 37.0252 89.7882 37.013C89.7882 37.0009 89.7882 37.0029 89.7882 37.0191V37.0252C89.7598 36.7899 89.7192 36.5646 89.6665 36.3496C89.6137 36.1345 89.5468 35.9154 89.4656 35.6922C89.3885 35.469 89.2972 35.2357 89.1917 34.9922C89.0862 34.7446 88.9685 34.4748 88.8387 34.1826L90.5978 33.4157C90.7601 33.9026 90.9123 34.3084 91.0543 34.633C91.1963 34.9577 91.3343 35.2174 91.4682 35.4122C91.6062 35.607 91.7442 35.7449 91.8821 35.8261C92.0201 35.9032 92.1662 35.9417 92.3204 35.9417H92.3508C92.4848 35.9417 92.6106 35.9681 92.7282 36.0209C92.8459 36.0736 92.9474 36.1446 93.0326 36.2339C93.1219 36.3191 93.1908 36.4206 93.2395 36.5383C93.2923 36.6559 93.3187 36.7797 93.3187 36.9096C93.3187 37.0435 93.2923 37.1693 93.2395 37.287C93.1908 37.4046 93.1219 37.5061 93.0326 37.5913C92.9474 37.6765 92.8459 37.7435 92.7282 37.7922C92.6106 37.8409 92.4827 37.8652 92.3448 37.8652ZM91.312 36.9035C91.312 36.7696 91.3384 36.6438 91.3911 36.5261C91.4398 36.4084 91.5088 36.307 91.5981 36.2217C91.6833 36.1325 91.7868 36.0635 91.9085 36.0148C92.0262 35.9661 92.152 35.9417 92.2859 35.9417C92.4361 35.9417 92.6207 35.9397 92.8398 35.9357C93.063 35.9275 93.3004 35.9154 93.552 35.8991C93.8036 35.8829 94.0592 35.8626 94.3189 35.8383C94.5827 35.8139 94.8323 35.7814 95.0676 35.7409C95.3071 35.7003 95.5221 35.6536 95.7129 35.6009C95.9076 35.5441 96.0598 35.4791 96.1694 35.4061C95.7595 35.4507 95.3821 35.469 95.0372 35.4609C94.6923 35.4487 94.3839 35.4142 94.112 35.3574C93.8401 35.3006 93.6068 35.2235 93.412 35.1261C93.2213 35.0246 93.0752 34.909 92.9737 34.7791V34.7852C92.8642 34.6472 92.7607 34.4626 92.6633 34.2313C92.57 34 92.5233 33.7139 92.5233 33.373C92.5233 33.1904 92.5355 33.02 92.5598 32.8617C92.6816 32.1719 92.925 31.6017 93.2903 31.1513L93.2842 31.1574C93.5033 30.8652 93.7508 30.6481 94.0268 30.5061C94.3027 30.36 94.5929 30.287 94.8972 30.287C95.2056 30.287 95.51 30.362 95.8103 30.5122C96.1105 30.6623 96.3824 30.8652 96.6259 31.1209C96.8004 31.3197 96.9566 31.5449 97.0946 31.7965C97.2366 32.0481 97.3563 32.3159 97.4537 32.6C97.5552 32.8841 97.6323 33.1803 97.685 33.4887C97.7418 33.793 97.7703 34.0994 97.7703 34.4078C97.7703 34.5012 97.7682 34.5945 97.7642 34.6878C97.7601 34.7771 97.754 34.8623 97.7459 34.9435C97.6972 35.3655 97.5897 35.7307 97.4233 36.0391C97.2569 36.3435 97.0439 36.6032 96.7842 36.8183C96.5285 37.0333 96.2343 37.2078 95.9016 37.3417C95.5688 37.4757 95.2117 37.5812 94.8303 37.6583C94.4488 37.7354 94.0491 37.7881 93.6311 37.8165C93.2172 37.8449 92.7992 37.8612 92.3772 37.8652H92.2737C92.1398 37.8652 92.014 37.8388 91.8963 37.7861C91.7787 37.7374 91.6772 37.6704 91.592 37.5852C91.5068 37.5 91.4398 37.3986 91.3911 37.2809C91.3384 37.1632 91.312 37.0374 91.312 36.9035ZM94.885 32.2226C94.7917 32.2186 94.6963 32.247 94.5989 32.3078C94.5056 32.3646 94.4184 32.4417 94.3372 32.5391C94.2601 32.6365 94.1952 32.7481 94.1424 32.8739C94.0937 32.9997 94.0694 33.1275 94.0694 33.2574C94.0694 33.371 94.0958 33.4725 94.1485 33.5617C94.1769 33.6104 94.2337 33.653 94.3189 33.6896C94.4082 33.722 94.5117 33.7504 94.6294 33.7748C94.7511 33.7951 94.881 33.8133 95.0189 33.8296C95.1569 33.8417 95.2888 33.8499 95.4146 33.8539C95.5404 33.858 95.654 33.858 95.7555 33.8539C95.861 33.8499 95.9381 33.8438 95.9868 33.8357C95.9503 33.653 95.9016 33.4684 95.8407 33.2817C95.7839 33.0951 95.7108 32.9246 95.6216 32.7704C95.5323 32.6162 95.4268 32.4884 95.305 32.387C95.1833 32.2855 95.0433 32.2307 94.885 32.2226ZM94.6476 26.8174L95.9989 28.1687L94.6476 29.52L93.2963 28.1687L94.6476 26.8174ZM104.523 33.9087C104.438 33.8925 104.341 33.9229 104.231 34C104.125 34.073 104.024 34.1745 103.927 34.3043C103.833 34.4301 103.754 34.5701 103.689 34.7243C103.628 34.8786 103.598 35.0267 103.598 35.1687C103.598 35.3026 103.636 35.4142 103.714 35.5035C103.791 35.5928 103.888 35.6658 104.006 35.7226C104.128 35.7794 104.259 35.822 104.401 35.8504C104.548 35.8788 104.688 35.8991 104.821 35.9113H104.815C104.921 35.9194 105.041 35.9255 105.174 35.9296C105.312 35.9296 105.446 35.9296 105.576 35.9296C105.617 35.9296 105.647 35.9316 105.668 35.9357C105.692 35.9357 105.712 35.9357 105.728 35.9357C105.745 35.9357 105.761 35.9357 105.777 35.9357C105.797 35.9357 105.826 35.9336 105.862 35.9296C105.801 35.678 105.728 35.4386 105.643 35.2113C105.562 34.98 105.467 34.773 105.357 34.5904C105.248 34.4078 105.124 34.2577 104.986 34.14C104.848 34.0183 104.694 33.9412 104.523 33.9087ZM101.541 40.2817C102.113 40.1681 102.634 40.0241 103.105 39.8496C103.576 39.6791 103.988 39.4864 104.341 39.2713C104.698 39.0603 104.992 38.8351 105.223 38.5957C105.459 38.3562 105.625 38.1128 105.722 37.8652C105.548 37.8652 105.363 37.8612 105.168 37.853C104.974 37.849 104.813 37.8429 104.688 37.8348C104.217 37.7942 103.787 37.6887 103.397 37.5183C103.008 37.3519 102.697 37.1246 102.466 36.8365C102.295 36.6174 102.174 36.38 102.101 36.1243C102.032 35.8687 101.997 35.5988 101.997 35.3148C101.997 35.0957 102.017 34.8765 102.058 34.6574C102.099 34.4342 102.155 34.2191 102.228 34.0122C102.301 33.8012 102.387 33.6023 102.484 33.4157C102.585 33.229 102.693 33.0586 102.807 32.9043C103.05 32.6 103.316 32.3707 103.604 32.2165C103.896 32.0583 104.203 31.9791 104.523 31.9791C105.209 31.9791 105.828 32.2794 106.38 32.88C106.574 33.0991 106.749 33.3446 106.903 33.6165C107.057 33.8884 107.187 34.1786 107.293 34.487C107.402 34.7913 107.485 35.1119 107.542 35.4487C107.599 35.7814 107.628 36.1203 107.628 36.4652C107.628 36.5707 107.623 36.6762 107.615 36.7817C107.611 36.8872 107.605 36.9867 107.597 37.08C107.548 37.5548 107.441 37.9991 107.274 38.413C107.112 38.831 106.901 39.2145 106.641 39.5635C106.386 39.9165 106.088 40.2351 105.747 40.5191C105.406 40.8072 105.034 41.0588 104.633 41.2739C104.235 41.493 103.813 41.6757 103.367 41.8217C102.92 41.9678 102.462 42.0774 101.991 42.1504L101.541 40.2817ZM114.369 37.8652C113.837 37.8652 113.316 37.7638 112.804 37.5609C112.297 37.358 111.826 37.0313 111.392 36.5809L112.494 35.0287C112.693 35.2113 112.885 35.3614 113.072 35.4791C113.259 35.5928 113.437 35.682 113.608 35.747C113.778 35.8119 113.938 35.8565 114.089 35.8809C114.243 35.9052 114.387 35.9174 114.521 35.9174C114.582 35.9174 114.651 35.9154 114.728 35.9113C114.805 35.9072 114.882 35.9012 114.959 35.893C115.036 35.8809 115.111 35.8667 115.184 35.8504C115.257 35.8342 115.324 35.8139 115.385 35.7896C115.596 35.7003 115.763 35.611 115.884 35.5217C115.73 35.1484 115.562 34.7609 115.379 34.3591C115.2 33.9533 115.02 33.5475 114.837 33.1417C114.655 32.7319 114.474 32.3261 114.296 31.9243C114.117 31.5226 113.951 31.1371 113.796 30.7678L115.574 30.0252L116.116 31.34C116.29 31.7701 116.499 32.2814 116.743 32.8739C116.986 33.4623 117.266 34.1299 117.583 34.8765C117.656 35.0551 117.723 35.2113 117.783 35.3452C117.844 35.4791 117.915 35.5907 117.996 35.68C118.082 35.7693 118.181 35.8362 118.295 35.8809C118.412 35.9214 118.563 35.9417 118.745 35.9417C118.875 35.9417 118.999 35.9661 119.116 36.0148C119.234 36.0635 119.336 36.1325 119.421 36.2217C119.51 36.307 119.581 36.4084 119.634 36.5261C119.687 36.6438 119.713 36.7696 119.713 36.9035C119.713 37.0374 119.687 37.1632 119.634 37.2809C119.581 37.3986 119.51 37.5 119.421 37.5852C119.336 37.6745 119.234 37.7435 119.116 37.7922C118.999 37.8409 118.875 37.8652 118.745 37.8652C118.498 37.8652 118.278 37.849 118.088 37.8165C117.901 37.7841 117.733 37.7374 117.583 37.6765C117.436 37.6197 117.305 37.5507 117.187 37.4696C117.073 37.3843 116.966 37.291 116.864 37.1896C116.755 37.2626 116.639 37.3336 116.517 37.4026C116.396 37.4675 116.256 37.5325 116.097 37.5974C115.854 37.6907 115.59 37.7577 115.306 37.7983C115.026 37.8429 114.714 37.8652 114.369 37.8652ZM123.367 39.8678L122.198 41.0426L121.042 39.8861L119.898 41.0304L118.717 39.8557L119.885 38.6809L121.042 39.8374L122.186 38.693L123.367 39.8678ZM117.481 36.9035C117.481 36.7696 117.507 36.6438 117.56 36.5261C117.609 36.4084 117.676 36.307 117.761 36.2217C117.846 36.1325 117.948 36.0635 118.065 36.0148C118.183 35.9661 118.309 35.9417 118.443 35.9417H119.118H119.411C119.593 35.9417 119.794 35.9336 120.013 35.9174C120.232 35.9012 120.443 35.8748 120.646 35.8383C120.849 35.8017 121.032 35.753 121.194 35.6922C121.36 35.6272 121.482 35.5461 121.559 35.4487C121.604 35.3797 121.626 35.2864 121.626 35.1687C121.626 34.9942 121.584 34.7872 121.498 34.5478C121.417 34.3084 121.32 34.0649 121.206 33.8174C121.093 33.5699 120.975 33.3325 120.853 33.1052C120.735 32.878 120.64 32.6893 120.567 32.5391L122.302 31.687C122.428 31.9061 122.549 32.1658 122.667 32.4661C122.785 32.7623 122.89 33.0687 122.984 33.3852C123.077 33.6977 123.152 34.0061 123.209 34.3104C123.266 34.6107 123.294 34.8725 123.294 35.0957C123.294 35.5055 123.221 35.8809 123.075 36.2217C122.904 36.6032 122.671 36.9197 122.375 37.1713C122.079 37.4188 121.724 37.6014 121.31 37.7191C121.188 37.7516 121.036 37.778 120.853 37.7983C120.671 37.8186 120.486 37.8328 120.299 37.8409C120.113 37.853 119.936 37.8591 119.77 37.8591C119.603 37.8632 119.473 37.8652 119.38 37.8652H118.498H118.443C118.309 37.8652 118.183 37.8409 118.065 37.7922C117.948 37.7435 117.846 37.6745 117.761 37.5852C117.676 37.5 117.609 37.3986 117.56 37.2809C117.507 37.1632 117.481 37.0374 117.481 36.9035ZM129.245 37.8652C129.156 37.8652 129.03 37.8591 128.868 37.847C128.705 37.8348 128.531 37.7901 128.344 37.713C128.255 38.2162 128.087 38.693 127.839 39.1435C127.596 39.598 127.293 40.022 126.932 40.4157C126.571 40.8133 126.159 41.1786 125.696 41.5113C125.234 41.8441 124.741 42.1423 124.217 42.4061L123.103 40.8661C123.392 40.72 123.682 40.5597 123.974 40.3852C124.266 40.2148 124.544 40.0322 124.808 39.8374C125.076 39.6467 125.323 39.4458 125.55 39.2348C125.782 39.0278 125.983 38.8128 126.153 38.5896C126.323 38.3664 126.457 38.1371 126.555 37.9017C126.652 37.6704 126.701 37.4351 126.701 37.1957C126.701 37.1835 126.699 37.1652 126.695 37.1409C126.695 37.1165 126.695 37.0922 126.695 37.0678C126.695 37.0435 126.693 37.0252 126.689 37.013C126.689 37.0009 126.689 37.0029 126.689 37.0191V37.0252C126.66 36.7899 126.62 36.5646 126.567 36.3496C126.514 36.1345 126.447 35.9154 126.366 35.6922C126.289 35.469 126.198 35.2357 126.092 34.9922C125.987 34.7446 125.869 34.4748 125.739 34.1826L127.498 33.4157C127.661 33.9026 127.813 34.3084 127.955 34.633C128.097 34.9577 128.235 35.2174 128.369 35.4122C128.507 35.607 128.645 35.7449 128.783 35.8261C128.921 35.9032 129.067 35.9417 129.221 35.9417H129.251C129.385 35.9417 129.511 35.9681 129.629 36.0209C129.746 36.0736 129.848 36.1446 129.933 36.2339C130.022 36.3191 130.091 36.4206 130.14 36.5383C130.193 36.6559 130.219 36.7797 130.219 36.9096C130.219 37.0435 130.193 37.1693 130.14 37.287C130.091 37.4046 130.022 37.5061 129.933 37.5913C129.848 37.6765 129.746 37.7435 129.629 37.7922C129.511 37.8409 129.383 37.8652 129.245 37.8652ZM128.212 36.9035C128.212 36.7696 128.239 36.6438 128.292 36.5261C128.34 36.4084 128.409 36.307 128.498 36.2217C128.584 36.1325 128.687 36.0635 128.809 36.0148C128.927 35.9661 129.052 35.9417 129.186 35.9417H130.355C131.012 35.9417 131.615 35.9032 132.163 35.8261C132.715 35.7449 133.23 35.6374 133.709 35.5035C134.188 35.3696 134.64 35.2154 135.066 35.0409C135.496 34.8623 135.918 34.6777 136.332 34.487C136.056 34.4099 135.778 34.3145 135.498 34.2009C135.223 34.0872 134.945 33.9777 134.665 33.8722C134.389 33.7667 134.113 33.6774 133.837 33.6043C133.561 33.5272 133.287 33.4887 133.015 33.4887C132.828 33.4887 132.646 33.5394 132.467 33.6409C132.289 33.7423 132.126 33.858 131.98 33.9878C131.834 34.1177 131.71 34.2455 131.609 34.3713C131.512 34.493 131.451 34.5762 131.426 34.6209L130.02 33.7139C130.174 33.442 130.357 33.1762 130.568 32.9165C130.779 32.6568 131.01 32.4275 131.262 32.2287C131.518 32.0258 131.792 31.8635 132.084 31.7417C132.38 31.62 132.69 31.5591 133.015 31.5591C133.254 31.5591 133.494 31.5855 133.733 31.6383C133.973 31.687 134.21 31.7519 134.445 31.833C134.685 31.9142 134.92 32.0075 135.152 32.113C135.383 32.2145 135.612 32.318 135.839 32.4235C136.058 32.5249 136.276 32.6264 136.491 32.7278C136.71 32.8252 136.935 32.9165 137.166 33.0017C137.398 33.0829 137.637 33.1499 137.885 33.2026C138.132 33.2554 138.394 33.2838 138.67 33.2878L138.518 35.1565L137.653 35.5704C137.3 35.7409 136.949 35.9174 136.6 36.1C136.251 36.2786 135.894 36.453 135.529 36.6235C135.168 36.7899 134.794 36.9501 134.409 37.1043C134.027 37.2545 133.626 37.3864 133.204 37.5C132.782 37.6096 132.335 37.6968 131.865 37.7617C131.394 37.8307 130.891 37.8652 130.355 37.8652H129.235H129.186C129.052 37.8652 128.927 37.8388 128.809 37.7861C128.687 37.7374 128.584 37.6704 128.498 37.5852C128.409 37.5 128.34 37.3986 128.292 37.2809C128.239 37.1632 128.212 37.0374 128.212 36.9035ZM132.759 28.2661L134.111 29.6174L132.759 30.9687L131.408 29.6174L132.759 28.2661ZM79.0708 65.0591C78.7908 65.0591 78.5027 65.0449 78.2064 65.0165C77.9142 64.9922 77.6241 64.9414 77.336 64.8643C77.0479 64.7913 76.7699 64.6899 76.5021 64.56C76.2342 64.4301 75.9847 64.2617 75.7534 64.0548C75.5221 63.8519 75.3212 63.6267 75.1508 63.3791C74.9844 63.1357 74.8464 62.8759 74.7369 62.6C74.6273 62.3241 74.5441 62.0359 74.4873 61.7357C74.4345 61.4354 74.4082 61.129 74.4082 60.8165C74.4082 60.151 74.5137 59.4794 74.7247 58.8017C74.9398 58.1241 75.2563 57.4687 75.6742 56.8357L77.0438 57.8217C76.9627 57.9313 76.8673 58.0957 76.7577 58.3148C76.6482 58.5339 76.5427 58.7835 76.4412 59.0635C76.3398 59.3435 76.2545 59.6417 76.1855 59.9583C76.1166 60.2707 76.0821 60.573 76.0821 60.8652C76.0821 61.202 76.1571 61.5064 76.3073 61.7783C76.4615 62.0501 76.6644 62.2835 76.916 62.4783C77.1716 62.673 77.4638 62.8252 77.7925 62.9348C78.1253 63.0443 78.4702 63.1032 78.8273 63.1113C79.1154 63.1154 79.3954 63.091 79.6673 63.0383C79.9392 62.9855 80.1969 62.9084 80.4403 62.807C80.6838 62.7055 80.905 62.5817 81.1038 62.4357C81.3067 62.2896 81.4792 62.1252 81.6212 61.9426C81.7673 61.7641 81.8769 61.5693 81.9499 61.3583C82.027 61.1472 82.0595 60.9261 82.0473 60.6948C82.0392 60.5203 82.0067 60.3235 81.9499 60.1043C81.8931 59.8852 81.8241 59.662 81.7429 59.4348C81.6658 59.2035 81.5786 58.9762 81.4812 58.753C81.3879 58.5299 81.2986 58.3249 81.2134 58.1383C81.1322 57.9475 81.0612 57.7852 81.0003 57.6513C80.9395 57.5174 80.9009 57.4261 80.8847 57.3774L82.5403 56.4583C82.5525 56.4745 82.587 56.5475 82.6438 56.6774C82.7047 56.8072 82.7757 56.9757 82.8569 57.1826C82.9421 57.3855 83.0313 57.6188 83.1247 57.8826C83.218 58.1464 83.3053 58.4223 83.3864 58.7104C83.4716 58.9986 83.5447 59.2907 83.6055 59.587C83.6664 59.8832 83.705 60.1652 83.7212 60.433C83.7253 60.4655 83.7273 60.5041 83.7273 60.5487C83.7273 60.5974 83.7273 60.638 83.7273 60.6704C83.7273 61.0316 83.6867 61.3907 83.6055 61.7478C83.5244 62.1049 83.3986 62.4458 83.2282 62.7704C83.0618 63.0991 82.8508 63.4014 82.5951 63.6774C82.3435 63.9574 82.0453 64.1988 81.7003 64.4017C81.3554 64.6087 80.9638 64.769 80.5255 64.8826C80.0873 65.0003 79.6024 65.0591 79.0708 65.0591ZM79.0708 55.0096L80.4221 56.3609L79.0708 57.7122L77.7195 56.3609L79.0708 55.0096ZM87.7626 60.8652C87.2635 60.8652 86.8353 60.8023 86.4782 60.6765C86.1211 60.5548 85.8127 60.3661 85.553 60.1104C85.3907 59.9481 85.2649 59.7777 85.1756 59.5991C85.0904 59.4206 85.0275 59.2461 84.9869 59.0757C84.9504 58.9012 84.9281 58.7368 84.92 58.5826C84.9159 58.4284 84.9139 58.2965 84.9139 58.187V58.0957C84.9179 57.9455 84.922 57.7304 84.9261 57.4504C84.9342 57.1664 84.9382 56.8336 84.9382 56.4522C84.9382 56.0707 84.9362 55.6507 84.9321 55.1922C84.9281 54.7336 84.9159 54.2771 84.8956 53.8226C84.8794 53.3641 84.853 52.9238 84.8165 52.5017C84.784 52.0797 84.7374 51.7125 84.6765 51.4L86.4965 50.8461C86.5492 51.1139 86.5919 51.4304 86.6243 51.7957C86.6568 52.1568 86.6832 52.5362 86.7035 52.9339C86.7278 53.3316 86.744 53.7313 86.7521 54.133C86.7643 54.5348 86.7724 54.9081 86.7765 55.253C86.7806 55.5574 86.7684 55.8557 86.74 56.1478C86.7156 56.4359 86.6953 56.72 86.6791 57C86.6629 57.2759 86.6629 57.5458 86.6791 57.8096C86.6994 58.0693 86.7562 58.3229 86.8495 58.5704C86.8861 58.6638 86.9307 58.7348 86.9835 58.7835C87.0403 58.8322 87.1052 58.8687 87.1782 58.893C87.2513 58.9133 87.3304 58.9255 87.4156 58.9296C87.5049 58.9336 87.6023 58.9357 87.7078 58.9357H87.7626C87.8924 58.9357 88.0162 58.962 88.1339 59.0148C88.2516 59.0675 88.353 59.1386 88.4382 59.2278C88.5275 59.313 88.5985 59.4145 88.6513 59.5322C88.704 59.6499 88.7304 59.7736 88.7304 59.9035C88.7304 60.0374 88.704 60.1632 88.6513 60.2809C88.5985 60.3986 88.5275 60.5 88.4382 60.5852C88.353 60.6745 88.2516 60.7435 88.1339 60.7922C88.0162 60.8409 87.8924 60.8652 87.7626 60.8652ZM92.7808 59.1243C92.9106 59.0919 92.9877 58.9235 93.0121 58.6191C93.0364 58.3026 92.9776 58.0186 92.8355 57.767C92.7097 57.5357 92.519 57.3348 92.2634 57.1643C92.0077 56.9939 91.815 56.9351 91.6851 56.9878C91.5106 57.0609 91.2468 57.5113 90.8938 58.3391C91.9124 58.9235 92.5413 59.1852 92.7808 59.1243ZM95.8547 59.9035C95.8547 60.1672 95.7613 60.3925 95.5747 60.5791C95.3839 60.7658 95.1567 60.8612 94.8929 60.8652H94.8868C94.3755 60.8652 93.9616 60.6907 93.6451 60.3417C93.3124 60.6745 92.8883 60.8409 92.3729 60.8409C91.7764 60.8409 90.91 60.5406 89.7738 59.94C89.7008 60.0942 89.5608 60.2504 89.3538 60.4087C89.1712 60.5467 88.9622 60.6542 88.7268 60.7313C88.4306 60.8287 88.0979 60.8774 87.7286 60.8774C87.4608 60.8774 87.2335 60.7841 87.0468 60.5974C86.8602 60.4107 86.7668 60.1835 86.7668 59.9157C86.7668 59.6519 86.8602 59.4267 87.0468 59.24C87.2335 59.0533 87.4608 58.96 87.7286 58.96C88.2358 58.96 88.6781 58.7084 89.0555 58.2052C89.1895 58.0226 89.3315 57.7852 89.4816 57.493C89.5263 57.4038 89.5871 57.282 89.6642 57.1278L89.7495 56.9452L89.8347 56.7748C90.3825 55.6872 91.0663 55.1435 91.886 55.1435C92.4825 55.1435 93.01 55.3423 93.4686 55.74C93.988 56.1904 94.2822 56.8093 94.3512 57.5965L94.3573 57.6513C94.3654 57.6757 94.3695 57.7041 94.3695 57.7365C94.3776 57.9354 94.406 58.1362 94.4547 58.3391C94.4993 58.5136 94.5521 58.6516 94.6129 58.753C94.6941 58.8788 94.7874 58.9417 94.8929 58.9417C95.1567 58.9417 95.3819 59.0351 95.5686 59.2217C95.7593 59.4084 95.8547 59.6357 95.8547 59.9035ZM93.9522 59.9035C93.9522 59.7696 93.9785 59.6438 94.0313 59.5261C94.084 59.4084 94.1571 59.307 94.2504 59.2217C94.3397 59.1365 94.4452 59.0696 94.5669 59.0209C94.6846 58.9681 94.8104 58.9417 94.9443 58.9417H100.471C100.601 58.9417 100.725 58.9681 100.843 59.0209C100.96 59.0696 101.062 59.1365 101.147 59.2217C101.236 59.307 101.307 59.4084 101.36 59.5261C101.413 59.6438 101.439 59.7696 101.439 59.9035C101.439 60.0374 101.413 60.1632 101.36 60.2809C101.307 60.3986 101.236 60.5 101.147 60.5852C101.062 60.6745 100.96 60.7435 100.843 60.7922C100.725 60.8409 100.601 60.8652 100.471 60.8652H94.9382C94.8084 60.8652 94.6846 60.8409 94.5669 60.7922C94.4452 60.7435 94.3397 60.6745 94.2504 60.5852C94.1571 60.5 94.084 60.3986 94.0313 60.2809C93.9785 60.1632 93.9522 60.0374 93.9522 59.9035ZM99.4756 59.9035C99.4756 59.7696 99.502 59.6438 99.5547 59.5261C99.6075 59.4084 99.6805 59.307 99.7739 59.2217C99.8631 59.1365 99.9686 59.0696 100.09 59.0209C100.208 58.9681 100.334 58.9417 100.468 58.9417H105.995C106.125 58.9417 106.248 58.9681 106.366 59.0209C106.484 59.0696 106.585 59.1365 106.67 59.2217C106.76 59.307 106.831 59.4084 106.883 59.5261C106.936 59.6438 106.963 59.7696 106.963 59.9035C106.963 60.0374 106.936 60.1632 106.883 60.2809C106.831 60.3986 106.76 60.5 106.67 60.5852C106.585 60.6745 106.484 60.7435 106.366 60.7922C106.248 60.8409 106.125 60.8652 105.995 60.8652H100.462C100.332 60.8652 100.208 60.8409 100.09 60.7922C99.9686 60.7435 99.8631 60.6745 99.7739 60.5852C99.6805 60.5 99.6075 60.3986 99.5547 60.2809C99.502 60.1632 99.4756 60.0374 99.4756 59.9035ZM110.903 52.9217L109.735 54.0965L108.578 52.94L107.434 54.0843L106.253 52.9096L107.422 51.7348L108.578 52.8913L109.723 51.747L110.903 52.9217ZM104.81 59.9035C104.81 59.7696 104.837 59.6438 104.889 59.5261C104.938 59.4084 105.005 59.307 105.09 59.2217C105.176 59.1325 105.277 59.0635 105.395 59.0148C105.512 58.9661 105.638 58.9417 105.772 58.9417H106.448H106.74C106.923 58.9417 107.123 58.9336 107.343 58.9174C107.562 58.9012 107.773 58.8748 107.976 58.8383C108.178 58.8017 108.361 58.753 108.523 58.6922C108.69 58.6272 108.812 58.5461 108.889 58.4487C108.933 58.3797 108.956 58.2864 108.956 58.1687C108.956 57.9942 108.913 57.7872 108.828 57.5478C108.747 57.3084 108.649 57.0649 108.536 56.8174C108.422 56.5699 108.304 56.3325 108.183 56.1052C108.065 55.878 107.969 55.6893 107.896 55.5391L109.631 54.687C109.757 54.9061 109.879 55.1658 109.996 55.4661C110.114 55.7623 110.22 56.0687 110.313 56.3852C110.406 56.6977 110.481 57.0061 110.538 57.3104C110.595 57.6107 110.623 57.8725 110.623 58.0957C110.623 58.5055 110.55 58.8809 110.404 59.2217C110.234 59.6032 110 59.9197 109.704 60.1713C109.408 60.4188 109.053 60.6014 108.639 60.7191C108.517 60.7516 108.365 60.778 108.183 60.7983C108 60.8186 107.815 60.8328 107.629 60.8409C107.442 60.853 107.265 60.8591 107.099 60.8591C106.933 60.8632 106.803 60.8652 106.709 60.8652H105.827H105.772C105.638 60.8652 105.512 60.8409 105.395 60.7922C105.277 60.7435 105.176 60.6745 105.09 60.5852C105.005 60.5 104.938 60.3986 104.889 60.2809C104.837 60.1632 104.81 60.0374 104.81 59.9035ZM114.38 56.4035C114.534 56.8417 114.668 57.2699 114.781 57.6878C114.83 57.8704 114.879 58.0612 114.927 58.26C114.976 58.4548 115.019 58.6516 115.055 58.8504C115.096 59.0452 115.128 59.238 115.153 59.4287C115.177 59.6154 115.189 59.7899 115.189 59.9522C115.189 60.3336 115.136 60.7049 115.031 61.0661C114.929 61.4313 114.783 61.7843 114.593 62.1252C114.406 62.4661 114.183 62.7928 113.923 63.1052C113.663 63.4217 113.375 63.718 113.059 63.9939C112.742 64.2699 112.403 64.5255 112.042 64.7609C111.681 65.0003 111.308 65.2154 110.922 65.4061L109.814 63.8661C110.107 63.72 110.403 63.5536 110.703 63.367C110.999 63.1843 111.283 62.9875 111.555 62.7765C111.831 62.5655 112.087 62.3443 112.322 62.113C112.562 61.8817 112.769 61.6464 112.943 61.407C113.122 61.1675 113.262 60.9241 113.363 60.6765C113.464 60.433 113.515 60.1936 113.515 59.9583C113.515 59.7878 113.491 59.6032 113.442 59.4043C113.398 59.2055 113.335 58.9925 113.253 58.7652C113.176 58.5339 113.083 58.2904 112.973 58.0348C112.864 57.7751 112.746 57.4991 112.62 57.207L114.38 56.4035ZM119.112 60.8652C118.613 60.8652 118.185 60.8023 117.828 60.6765C117.471 60.5548 117.162 60.3661 116.903 60.1104C116.74 59.9481 116.615 59.7777 116.525 59.5991C116.44 59.4206 116.377 59.2461 116.337 59.0757C116.3 58.9012 116.278 58.7368 116.27 58.5826C116.266 58.4284 116.263 58.2965 116.263 58.187V58.0957C116.268 57.9455 116.272 57.7304 116.276 57.4504C116.284 57.1664 116.288 56.8336 116.288 56.4522C116.288 56.0707 116.286 55.6507 116.282 55.1922C116.278 54.7336 116.266 54.2771 116.245 53.8226C116.229 53.3641 116.203 52.9238 116.166 52.5017C116.134 52.0797 116.087 51.7125 116.026 51.4L117.846 50.8461C117.899 51.1139 117.941 51.4304 117.974 51.7957C118.006 52.1568 118.033 52.5362 118.053 52.9339C118.077 53.3316 118.094 53.7313 118.102 54.133C118.114 54.5348 118.122 54.9081 118.126 55.253C118.13 55.5574 118.118 55.8557 118.09 56.1478C118.065 56.4359 118.045 56.72 118.029 57C118.012 57.2759 118.012 57.5458 118.029 57.8096C118.049 58.0693 118.106 58.3229 118.199 58.5704C118.236 58.6638 118.28 58.7348 118.333 58.7835C118.39 58.8322 118.455 58.8687 118.528 58.893C118.601 58.9133 118.68 58.9255 118.765 58.9296C118.855 58.9336 118.952 58.9357 119.057 58.9357H119.112C119.242 58.9357 119.366 58.962 119.483 59.0148C119.601 59.0675 119.703 59.1386 119.788 59.2278C119.877 59.313 119.948 59.4145 120.001 59.5322C120.054 59.6499 120.08 59.7736 120.08 59.9035C120.08 60.0374 120.054 60.1632 120.001 60.2809C119.948 60.3986 119.877 60.5 119.788 60.5852C119.703 60.6745 119.601 60.7435 119.483 60.7922C119.366 60.8409 119.242 60.8652 119.112 60.8652ZM118.141 59.9035C118.141 59.7696 118.167 59.6438 118.22 59.5261C118.269 59.4084 118.336 59.307 118.421 59.2217C118.506 59.1325 118.607 59.0635 118.725 59.0148C118.843 58.9661 118.969 58.9417 119.103 58.9417H119.778H120.07C120.253 58.9417 120.454 58.9336 120.673 58.9174C120.892 58.9012 121.103 58.8748 121.306 58.8383C121.509 58.8017 121.692 58.753 121.854 58.6922C122.02 58.6272 122.142 58.5461 122.219 58.4487C122.264 58.3797 122.286 58.2864 122.286 58.1687C122.286 57.9942 122.243 57.7872 122.158 57.5478C122.077 57.3084 121.98 57.0649 121.866 56.8174C121.752 56.5699 121.635 56.3325 121.513 56.1052C121.395 55.878 121.3 55.6893 121.227 55.5391L122.962 54.687C123.087 54.9061 123.209 55.1658 123.327 55.4661C123.445 55.7623 123.55 56.0687 123.643 56.3852C123.737 56.6977 123.812 57.0061 123.869 57.3104C123.925 57.6107 123.954 57.8725 123.954 58.0957C123.954 58.5055 123.881 58.8809 123.735 59.2217C123.564 59.6032 123.331 59.9197 123.035 60.1713C122.738 60.4188 122.383 60.6014 121.969 60.7191C121.848 60.7516 121.696 60.778 121.513 60.7983C121.33 60.8186 121.146 60.8328 120.959 60.8409C120.772 60.853 120.596 60.8591 120.429 60.8591C120.263 60.8632 120.133 60.8652 120.04 60.8652H119.157H119.103C118.969 60.8652 118.843 60.8409 118.725 60.7922C118.607 60.7435 118.506 60.6745 118.421 60.5852C118.336 60.5 118.269 60.3986 118.22 60.2809C118.167 60.1632 118.141 60.0374 118.141 59.9035ZM122.724 63.9696L121.58 62.8252L120.423 63.9817L119.255 62.807L120.436 61.6322L121.58 62.7765L122.736 61.62L123.905 62.7948L122.724 63.9696ZM121.586 63.4704L122.669 64.5539L121.58 65.6435L120.496 64.56L121.586 63.4704ZM125.567 60.8835C125.587 60.571 125.605 60.2443 125.622 59.9035C125.642 59.5626 125.658 59.2258 125.67 58.893C125.683 58.5603 125.693 58.2377 125.701 57.9252C125.709 57.6087 125.713 57.3206 125.713 57.0609C125.713 56.3832 125.703 55.8009 125.683 55.3139C125.662 54.827 125.638 54.411 125.61 54.0661C125.581 53.7171 125.549 53.427 125.512 53.1957C125.48 52.9603 125.449 52.7533 125.421 52.5748L125.342 52.1122L127.235 51.5096C127.251 51.5664 127.265 51.6191 127.277 51.6678C127.29 51.7165 127.3 51.7754 127.308 51.8443C127.32 51.9093 127.332 51.9904 127.344 52.0878C127.361 52.1852 127.377 52.313 127.393 52.4713C127.409 52.6296 127.428 52.8223 127.448 53.0496C127.472 53.2768 127.501 53.5548 127.533 53.8835C127.553 54.2 127.57 54.4841 127.582 54.7357C127.598 54.9872 127.61 55.2328 127.618 55.4722C127.626 55.7116 127.632 55.9591 127.636 56.2148C127.641 56.4664 127.643 56.7525 127.643 57.073C127.643 57.6006 127.634 58.1606 127.618 58.753C127.602 59.3414 127.572 59.9603 127.527 60.6096L125.567 60.8835ZM123.942 51.1383C123.942 51.1139 123.956 51.0693 123.984 51.0043C124.009 50.9354 124.039 50.8623 124.076 50.7852C124.108 50.7081 124.141 50.6371 124.173 50.5722C124.205 50.5032 124.228 50.4586 124.24 50.4383C124.386 50.2151 124.556 50.0325 124.751 49.8904C124.95 49.7484 125.147 49.6551 125.342 49.6104C125.382 49.6023 125.433 49.5983 125.494 49.5983C125.555 49.5942 125.603 49.5922 125.64 49.5922C125.835 49.5922 126.011 49.6165 126.17 49.6652C126.328 49.7099 126.47 49.7606 126.596 49.8174L126.784 49.9087C126.853 49.9412 126.922 49.9716 126.991 50C127.06 50.0243 127.133 50.0386 127.21 50.0426C127.275 50.0467 127.342 50.0304 127.411 49.9939C127.48 49.9574 127.547 49.9087 127.612 49.8478C127.681 49.7829 127.746 49.7119 127.807 49.6348C127.872 49.5577 127.933 49.4806 127.99 49.4035L128.939 50.0183C128.935 50.0304 128.913 50.069 128.872 50.1339C128.832 50.1948 128.773 50.2699 128.696 50.3591C128.623 50.4484 128.533 50.5438 128.428 50.6452C128.326 50.7426 128.211 50.8339 128.081 50.9191C127.951 51.0003 127.809 51.0672 127.655 51.12C127.505 51.1728 127.344 51.1971 127.174 51.193C127.048 51.2012 126.92 51.1768 126.79 51.12C126.661 51.0591 126.527 50.9962 126.389 50.9313C126.255 50.8623 126.117 50.8055 125.975 50.7609C125.833 50.7122 125.685 50.7041 125.53 50.7365C125.437 50.7568 125.36 50.7933 125.299 50.8461C125.242 50.8948 125.194 50.9536 125.153 51.0226C125.112 51.0875 125.078 51.1586 125.05 51.2357C125.021 51.3128 124.991 51.3878 124.958 51.4609L123.942 51.1383Z" fill="#303030"/>
<defs>
<linearGradient id="paint0_linear_1325_9345" x1="5.08426" y1="6.15789" x2="151.122" y2="67.5913" gradientUnits="userSpaceOnUse">
<stop stop-color="#EAEAEA"/>
<stop offset="1" stop-color="#BDBDBD"/>
</linearGradient>
</defs>
</svg>
