<svg width="147" height="90" viewBox="0 0 147 90" fill="none" xmlns="http://www.w3.org/2000/svg">
<rect x="0.75" y="0.75" width="145.5" height="88.5" rx="9.25" fill="white" stroke="url(#paint0_linear_1325_8656)" stroke-width="1.5"/>
<path d="M50.4222 31.6738L31.3111 24.5666C31.1333 24.4778 30.9111 24.4778 30.6889 24.5666L11.5778 31.6738C11.2222 31.8071 11 32.1624 11 32.5178V63.6116C11 64.1002 11.4 64.5 11.8889 64.5H50.1111C50.6 64.5 51 64.1002 51 63.6116V32.5178C51 32.1624 50.7778 31.8071 50.4222 31.6738ZM17.2222 51.1741H44.7778V53.8393H17.2222V51.1741ZM44.7778 49.3973H17.2222V46.7321H44.7778V49.3973ZM17.2222 55.616H44.7778V58.2812H17.2222V55.616ZM44.7778 44.9553H17.2222V42.2901H44.7778V44.9553ZM17.2222 62.7232V60.058H44.7778V62.7232H17.2222ZM49.2222 62.7232H46.5556V41.4017C46.5556 40.9131 46.1556 40.5133 45.6667 40.5133H16.3333C15.8444 40.5133 15.4444 40.9131 15.4444 41.4017V62.7232H12.7778V33.1396L31 26.3434L49.2222 33.1396V62.7232Z" fill="#303030"/>
<path d="M69.4873 37.8652C69.467 37.8652 69.4102 37.8612 69.3169 37.853C69.2276 37.849 69.116 37.8368 68.9821 37.8165C68.8523 37.7962 68.7041 37.7638 68.5378 37.7191C68.3754 37.6745 68.2111 37.6136 68.0447 37.5365C67.6024 37.3255 67.2595 37.0374 67.016 36.6722C66.7725 36.3029 66.6508 35.8748 66.6508 35.3878C66.6508 34.5762 67.0099 33.7342 67.7282 32.8617C67.785 32.7928 67.8317 32.7359 67.8682 32.6913C67.9088 32.6467 67.9453 32.6061 67.9778 32.5696C68.0102 32.533 68.0407 32.5006 68.0691 32.4722C68.1015 32.4397 68.1381 32.4032 68.1786 32.3626C68.1299 32.322 68.0812 32.2835 68.0325 32.247C67.9879 32.2104 67.9494 32.1759 67.9169 32.1435L67.8073 32.0461L69.0186 30.567C69.2256 30.7212 69.4731 30.9301 69.7612 31.1939C70.0494 31.4536 70.3821 31.7864 70.7595 32.1922C71.8105 33.3893 72.336 34.4545 72.336 35.3878C72.336 35.8667 72.2204 36.2907 71.9891 36.66C71.7618 37.0293 71.4453 37.3194 71.0395 37.5304C70.8975 37.5994 70.7514 37.6542 70.6012 37.6948C70.4552 37.7394 70.3131 37.7739 70.1752 37.7983C70.0372 37.8226 69.9073 37.8388 69.7856 37.847C69.6679 37.8591 69.5685 37.8652 69.4873 37.8652ZM70.6682 35.3878C70.6682 35.262 70.6276 35.12 70.5465 34.9617C70.4653 34.8035 70.3578 34.6391 70.2239 34.4687C70.094 34.2942 69.9479 34.1197 69.7856 33.9452C69.6233 33.7667 69.461 33.5962 69.2986 33.4339C69.1891 33.5557 69.0734 33.6936 68.9517 33.8478C68.8299 33.998 68.7183 34.1583 68.6169 34.3287C68.5154 34.4991 68.4323 34.6757 68.3673 34.8583C68.3024 35.0368 68.274 35.2133 68.2821 35.3878C68.2862 35.4852 68.3328 35.5704 68.4221 35.6435C68.5114 35.7165 68.6169 35.7754 68.7386 35.82C68.8644 35.8646 68.9963 35.8991 69.1343 35.9235C69.2723 35.9438 69.3899 35.9539 69.4873 35.9539C69.6091 35.9539 69.7389 35.9458 69.8769 35.9296C70.0189 35.9093 70.1468 35.8768 70.2604 35.8322C70.3781 35.7875 70.4754 35.7287 70.5525 35.6557C70.6296 35.5826 70.6682 35.4933 70.6682 35.3878ZM75.9079 33.4035C76.0621 33.8417 76.196 34.2699 76.3096 34.6878C76.3583 34.8704 76.407 35.0612 76.4557 35.26C76.5044 35.4548 76.547 35.6516 76.5835 35.8504C76.6241 36.0452 76.6566 36.238 76.6809 36.4287C76.7053 36.6154 76.7174 36.7899 76.7174 36.9522C76.7174 37.3336 76.6647 37.7049 76.5592 38.0661C76.4577 38.4313 76.3116 38.7843 76.1209 39.1252C75.9343 39.4661 75.7111 39.7928 75.4514 40.1052C75.1916 40.4217 74.9035 40.718 74.587 40.9939C74.2705 41.2699 73.9316 41.5255 73.5705 41.7609C73.2093 42.0003 72.836 42.2154 72.4505 42.4061L71.3427 40.8661C71.6348 40.72 71.9311 40.5536 72.2314 40.367C72.5276 40.1843 72.8116 39.9875 73.0835 39.7765C73.3595 39.5655 73.6151 39.3443 73.8505 39.113C74.0899 38.8817 74.2969 38.6464 74.4714 38.407C74.6499 38.1675 74.7899 37.9241 74.8914 37.6765C74.9928 37.433 75.0435 37.1936 75.0435 36.9583C75.0435 36.7878 75.0192 36.6032 74.9705 36.4043C74.9259 36.2055 74.863 35.9925 74.7818 35.7652C74.7047 35.5339 74.6114 35.2904 74.5018 35.0348C74.3922 34.7751 74.2745 34.4991 74.1488 34.207L75.9079 33.4035ZM80.6405 37.8652C80.1414 37.8652 79.7133 37.8023 79.3562 37.6765C78.9991 37.5548 78.6907 37.3661 78.4309 37.1104C78.2686 36.9481 78.1428 36.7777 78.0536 36.5991C77.9683 36.4206 77.9054 36.2461 77.8649 36.0757C77.8283 35.9012 77.806 35.7368 77.7979 35.5826C77.7938 35.4284 77.7918 35.2965 77.7918 35.187V35.0957C77.7959 34.9455 77.7999 34.7304 77.804 34.4504C77.8121 34.1664 77.8162 33.8336 77.8162 33.4522C77.8162 33.0707 77.8141 32.6507 77.8101 32.1922C77.806 31.7336 77.7938 31.2771 77.7736 30.8226C77.7573 30.3641 77.7309 29.9238 77.6944 29.5017C77.662 29.0797 77.6153 28.7125 77.5544 28.4L79.3744 27.8461C79.4272 28.1139 79.4698 28.4304 79.5023 28.7957C79.5347 29.1568 79.5611 29.5362 79.5814 29.9339C79.6057 30.3316 79.622 30.7313 79.6301 31.133C79.6423 31.5348 79.6504 31.9081 79.6544 32.253C79.6585 32.5574 79.6463 32.8557 79.6179 33.1478C79.5936 33.4359 79.5733 33.72 79.557 34C79.5408 34.2759 79.5408 34.5458 79.557 34.8096C79.5773 35.0693 79.6341 35.3229 79.7275 35.5704C79.764 35.6638 79.8086 35.7348 79.8614 35.7835C79.9182 35.8322 79.9831 35.8687 80.0562 35.893C80.1292 35.9133 80.2083 35.9255 80.2936 35.9296C80.3828 35.9336 80.4802 35.9357 80.5857 35.9357H80.6405C80.7704 35.9357 80.8941 35.962 81.0118 36.0148C81.1295 36.0675 81.2309 36.1386 81.3162 36.2278C81.4054 36.313 81.4765 36.4145 81.5292 36.5322C81.582 36.6499 81.6083 36.7736 81.6083 36.9035C81.6083 37.0374 81.582 37.1632 81.5292 37.2809C81.4765 37.3986 81.4054 37.5 81.3162 37.5852C81.2309 37.6745 81.1295 37.7435 81.0118 37.7922C80.8941 37.8409 80.7704 37.8652 80.6405 37.8652ZM79.6509 36.9035C79.6509 36.7696 79.6772 36.6438 79.73 36.5261C79.7787 36.4084 79.8477 36.307 79.9369 36.2217C80.0222 36.1325 80.1256 36.0635 80.2474 36.0148C80.3651 35.9661 80.4909 35.9417 80.6248 35.9417H81.7935C82.4509 35.9417 83.0535 35.9032 83.6013 35.8261C84.1532 35.7449 84.6685 35.6374 85.1474 35.5035C85.6262 35.3696 86.0787 35.2154 86.5048 35.0409C86.9349 34.8623 87.3569 34.6777 87.7709 34.487C87.4949 34.4099 87.2169 34.3145 86.9369 34.2009C86.661 34.0872 86.383 33.9777 86.103 33.8722C85.8271 33.7667 85.5511 33.6774 85.2752 33.6043C84.9993 33.5272 84.7254 33.4887 84.4535 33.4887C84.2668 33.4887 84.0842 33.5394 83.9056 33.6409C83.7271 33.7423 83.5648 33.858 83.4187 33.9878C83.2726 34.1177 83.1488 34.2455 83.0474 34.3713C82.95 34.493 82.8891 34.5762 82.8648 34.6209L81.4587 33.7139C81.6129 33.442 81.7955 33.1762 82.0065 32.9165C82.2175 32.6568 82.4488 32.4275 82.7004 32.2287C82.9561 32.0258 83.23 31.8635 83.5222 31.7417C83.8184 31.62 84.1288 31.5591 84.4535 31.5591C84.6929 31.5591 84.9323 31.5855 85.1717 31.6383C85.4111 31.687 85.6485 31.7519 85.8839 31.833C86.1233 31.9142 86.3587 32.0075 86.59 32.113C86.8213 32.2145 87.0506 32.318 87.2778 32.4235C87.4969 32.5249 87.714 32.6264 87.9291 32.7278C88.1483 32.8252 88.3735 32.9165 88.6048 33.0017C88.8361 33.0829 89.0755 33.1499 89.323 33.2026C89.5706 33.2554 89.8323 33.2838 90.1083 33.2878L89.9561 35.1565L89.0917 35.5704C88.7387 35.7409 88.3877 35.9174 88.0387 36.1C87.6897 36.2786 87.3326 36.453 86.9674 36.6235C86.6062 36.7899 86.2329 36.9501 85.8474 37.1043C85.4659 37.2545 85.0642 37.3864 84.6422 37.5C84.2201 37.6096 83.7738 37.6968 83.303 37.7617C82.8323 37.8307 82.3291 37.8652 81.7935 37.8652H80.6735H80.6248C80.4909 37.8652 80.3651 37.8388 80.2474 37.7861C80.1256 37.7374 80.0222 37.6704 79.9369 37.5852C79.8477 37.5 79.7787 37.3986 79.73 37.2809C79.6772 37.1632 79.6509 37.0374 79.6509 36.9035ZM85.2509 38.3522L86.6022 39.7035L85.2509 41.0548L83.8996 39.7035L85.2509 38.3522ZM90.8177 37.8835C90.838 37.5507 90.8583 37.2058 90.8786 36.8487C90.8989 36.4916 90.9151 36.1386 90.9273 35.7896C90.9435 35.4406 90.9537 35.1017 90.9577 34.773C90.9618 34.4443 90.9577 34.142 90.9456 33.8661C90.9212 33.2899 90.8969 32.7846 90.8725 32.3504C90.8522 31.9122 90.8299 31.5246 90.8056 31.1878C90.7853 30.851 90.763 30.5568 90.7386 30.3052C90.7183 30.0496 90.696 29.8162 90.6717 29.6052C90.6473 29.3942 90.6209 29.1974 90.5925 29.0148C90.5641 28.8281 90.5337 28.6354 90.5012 28.4365L92.3821 27.8157C92.4714 28.3594 92.5424 28.9072 92.5951 29.4591C92.6519 30.011 92.6945 30.5406 92.723 31.0478C92.7514 31.551 92.7696 32.0197 92.7777 32.4539C92.7899 32.8881 92.796 33.2594 92.796 33.5678C92.796 33.8478 92.794 34.1501 92.7899 34.4748C92.7899 34.7994 92.7859 35.1362 92.7777 35.4852C92.7737 35.8342 92.7656 36.1872 92.7534 36.5443C92.7412 36.9014 92.723 37.2504 92.6986 37.5913L90.8177 37.8835ZM99.821 33.9087C99.7358 33.8925 99.6384 33.9229 99.5288 34C99.4233 34.073 99.3219 34.1745 99.2245 34.3043C99.1312 34.4301 99.052 34.5701 98.9871 34.7243C98.9262 34.8786 98.8958 35.0267 98.8958 35.1687C98.8958 35.3026 98.9343 35.4142 99.0114 35.5035C99.0885 35.5928 99.1859 35.6658 99.3036 35.7226C99.4254 35.7794 99.5572 35.822 99.6993 35.8504C99.8454 35.8788 99.9854 35.8991 100.119 35.9113H100.113C100.219 35.9194 100.338 35.9255 100.472 35.9296C100.61 35.9296 100.744 35.9296 100.874 35.9296C100.915 35.9296 100.945 35.9316 100.965 35.9357C100.99 35.9357 101.01 35.9357 101.026 35.9357C101.042 35.9357 101.059 35.9357 101.075 35.9357C101.095 35.9357 101.124 35.9336 101.16 35.9296C101.099 35.678 101.026 35.4386 100.941 35.2113C100.86 34.98 100.764 34.773 100.655 34.5904C100.545 34.4078 100.422 34.2577 100.284 34.14C100.146 34.0183 99.9914 33.9412 99.821 33.9087ZM96.8384 40.2817C97.4106 40.1681 97.932 40.0241 98.4028 39.8496C98.8735 39.6791 99.2854 39.4864 99.6384 39.2713C99.9955 39.0603 100.29 38.8351 100.521 38.5957C100.756 38.3562 100.923 38.1128 101.02 37.8652C100.846 37.8652 100.661 37.8612 100.466 37.853C100.271 37.849 100.111 37.8429 99.9854 37.8348C99.5146 37.7942 99.0845 37.6887 98.6949 37.5183C98.3054 37.3519 97.9949 37.1246 97.7636 36.8365C97.5932 36.6174 97.4714 36.38 97.3984 36.1243C97.3294 35.8687 97.2949 35.5988 97.2949 35.3148C97.2949 35.0957 97.3152 34.8765 97.3558 34.6574C97.3964 34.4342 97.4532 34.2191 97.5262 34.0122C97.5993 33.8012 97.6845 33.6023 97.7819 33.4157C97.8833 33.229 97.9909 33.0586 98.1045 32.9043C98.348 32.6 98.6138 32.3707 98.9019 32.2165C99.1941 32.0583 99.5004 31.9791 99.821 31.9791C100.507 31.9791 101.126 32.2794 101.678 32.88C101.872 33.0991 102.047 33.3446 102.201 33.6165C102.355 33.8884 102.485 34.1786 102.591 34.487C102.7 34.7913 102.783 35.1119 102.84 35.4487C102.897 35.7814 102.925 36.1203 102.925 36.4652C102.925 36.5707 102.921 36.6762 102.913 36.7817C102.909 36.8872 102.903 36.9867 102.895 37.08C102.846 37.5548 102.739 37.9991 102.572 38.413C102.41 38.831 102.199 39.2145 101.939 39.5635C101.684 39.9165 101.385 40.2351 101.044 40.5191C100.704 40.8072 100.332 41.0588 99.9306 41.2739C99.5329 41.493 99.1109 41.6757 98.6645 41.8217C98.2181 41.9678 97.7596 42.0774 97.2888 42.1504L96.8384 40.2817ZM116.806 37.8652C116.433 37.8652 116.07 37.8064 115.717 37.6887C115.705 38.0174 115.66 38.3522 115.583 38.693C115.506 39.0339 115.394 39.3606 115.248 39.673C115.106 39.9896 114.926 40.2817 114.706 40.5496C114.491 40.8174 114.238 41.0446 113.946 41.2313C113.532 41.4991 113.077 41.702 112.582 41.84C112.091 41.978 111.529 42.047 110.896 42.047C110.19 42.047 109.583 41.9617 109.076 41.7913C108.573 41.6249 108.135 41.3814 107.761 41.0609C107.534 40.858 107.335 40.6328 107.165 40.3852C106.998 40.1417 106.86 39.882 106.751 39.6061C106.641 39.3342 106.558 39.0481 106.501 38.7478C106.448 38.4516 106.422 38.1493 106.422 37.8409C106.422 37.4919 106.446 37.1612 106.495 36.8487C106.544 36.5322 106.619 36.2157 106.72 35.8991C106.822 35.5826 106.948 35.258 107.098 34.9252C107.252 34.5925 107.433 34.2333 107.639 33.8478L109.009 34.8339C108.891 35.0449 108.778 35.2823 108.668 35.5461C108.559 35.8058 108.461 36.0757 108.376 36.3557C108.295 36.6316 108.228 36.9075 108.175 37.1835C108.126 37.4594 108.102 37.7171 108.102 37.9565C108.102 38.273 108.179 38.5632 108.333 38.827C108.488 39.0907 108.691 39.3159 108.942 39.5026C109.198 39.6933 109.488 39.8414 109.813 39.947C110.137 40.0565 110.472 40.1133 110.817 40.1174C111.292 40.1255 111.726 40.087 112.119 40.0017C112.513 39.9206 112.852 39.7887 113.136 39.6061C113.42 39.4235 113.639 39.1881 113.793 38.9C113.952 38.6119 114.031 38.2649 114.031 37.8591C114.031 37.6238 113.996 37.3742 113.927 37.1104C113.858 36.8426 113.767 36.5667 113.653 36.2826C113.544 35.9945 113.414 35.7003 113.264 35.4C113.118 35.0957 112.966 34.7852 112.807 34.4687L114.469 33.4157L115.084 34.6026C115.25 34.9394 115.411 35.1991 115.565 35.3817C115.723 35.5603 115.875 35.6922 116.021 35.7774C116.167 35.8586 116.305 35.9072 116.435 35.9235C116.569 35.9357 116.693 35.9417 116.806 35.9417C116.94 35.9417 117.066 35.9661 117.184 36.0148C117.302 36.0635 117.403 36.1325 117.488 36.2217C117.577 36.307 117.646 36.4084 117.695 36.5261C117.748 36.6438 117.774 36.7696 117.774 36.9035C117.774 37.0374 117.748 37.1632 117.695 37.2809C117.646 37.3986 117.577 37.5 117.488 37.5852C117.403 37.6704 117.302 37.7374 117.184 37.7861C117.066 37.8388 116.94 37.8652 116.806 37.8652ZM110.999 31.9913L112.351 33.3426L110.999 34.6939L109.648 33.3426L110.999 31.9913ZM115.825 36.8974C115.825 36.7635 115.851 36.6397 115.904 36.5261C115.953 36.4084 116.02 36.307 116.105 36.2217C116.19 36.1325 116.292 36.0635 116.409 36.0148C116.527 35.9661 116.653 35.9417 116.787 35.9417H116.842C116.902 35.9417 116.959 35.9417 117.012 35.9417C117.069 35.9417 117.132 35.9397 117.201 35.9357C117.274 35.9316 117.359 35.9275 117.456 35.9235C117.558 35.9194 117.684 35.9133 117.834 35.9052C117.692 35.6617 117.584 35.4041 117.511 35.1322C117.438 34.8562 117.402 34.5783 117.402 34.2983C117.402 34.0872 117.422 33.8762 117.462 33.6652C117.503 33.4542 117.564 33.2533 117.645 33.0626C117.726 32.8678 117.828 32.6852 117.949 32.5148C118.071 32.3403 118.215 32.182 118.382 32.04L118.065 31.8635L119.24 30.1348C119.414 30.2565 119.623 30.3803 119.867 30.5061C120.11 30.6319 120.366 30.7577 120.634 30.8835C120.902 31.0052 121.169 31.1249 121.437 31.2426C121.709 31.3562 121.959 31.4638 122.186 31.5652C122.571 31.7438 122.912 31.902 123.209 32.04C123.509 32.1739 123.779 32.3078 124.018 32.4417C124.258 32.5716 124.473 32.7096 124.663 32.8557C124.854 33.0017 125.033 33.1722 125.199 33.367C125.41 33.6348 125.562 33.927 125.655 34.2435C125.749 34.56 125.795 34.8664 125.795 35.1626C125.795 35.6171 125.678 36.0472 125.442 36.453C125.211 36.8548 124.868 37.1916 124.414 37.4635C124.288 37.5365 124.132 37.5994 123.945 37.6522C123.762 37.7049 123.57 37.7475 123.367 37.78C123.168 37.8165 122.971 37.8429 122.776 37.8591C122.582 37.8754 122.411 37.8835 122.265 37.8835C122.095 37.8835 121.91 37.8754 121.711 37.8591C121.512 37.847 121.311 37.8246 121.109 37.7922C120.91 37.7638 120.715 37.7252 120.524 37.6765C120.333 37.6278 120.159 37.571 120.001 37.5061C119.806 37.5629 119.581 37.6136 119.325 37.6583C119.073 37.7029 118.808 37.7394 118.528 37.7678C118.248 37.8003 117.964 37.8246 117.675 37.8409C117.387 37.8571 117.109 37.8652 116.842 37.8652H116.787C116.653 37.8652 116.527 37.8388 116.409 37.7861C116.292 37.7374 116.19 37.6684 116.105 37.5791C116.02 37.4939 115.953 37.3925 115.904 37.2748C115.851 37.1571 115.825 37.0313 115.825 36.8974ZM120.25 32.9591C120.12 32.9388 119.98 32.9774 119.83 33.0748C119.684 33.1722 119.55 33.298 119.429 33.4522C119.307 33.6064 119.209 33.7768 119.136 33.9635C119.063 34.1461 119.035 34.3165 119.051 34.4748V34.4687C119.063 34.5742 119.104 34.6838 119.173 34.7974C119.242 34.907 119.323 35.0145 119.416 35.12C119.514 35.2214 119.617 35.3128 119.727 35.3939C119.836 35.471 119.938 35.5278 120.031 35.5643C120.185 35.5481 120.335 35.5116 120.482 35.4548C120.632 35.398 120.766 35.3128 120.883 35.1991C121.001 35.0855 121.096 34.9394 121.169 34.7609C121.242 34.5823 121.279 34.3632 121.279 34.1035C121.279 33.9696 121.24 33.8377 121.163 33.7078C121.09 33.578 121.001 33.4603 120.895 33.3548C120.79 33.2452 120.676 33.1559 120.555 33.087C120.437 33.0139 120.335 32.9713 120.25 32.9591ZM122.88 33.9696C122.88 34.14 122.86 34.3186 122.819 34.5052C122.778 34.6919 122.724 34.8765 122.655 35.0591C122.586 35.2417 122.506 35.4203 122.417 35.5948C122.332 35.7652 122.241 35.9235 122.143 36.0696H122.198C122.494 36.0696 122.766 36.0594 123.014 36.0391C123.265 36.0148 123.482 35.9701 123.665 35.9052C123.848 35.8362 123.992 35.7429 124.097 35.6252C124.207 35.5035 124.272 35.3432 124.292 35.1443C124.3 35.047 124.26 34.9414 124.17 34.8278C124.081 34.7101 123.965 34.5945 123.823 34.4809C123.685 34.3632 123.531 34.2496 123.361 34.14C123.19 34.0304 123.03 33.933 122.88 33.8478V33.9696ZM129.543 33.4035C129.697 33.8417 129.831 34.2699 129.944 34.6878C129.993 34.8704 130.042 35.0612 130.09 35.26C130.139 35.4548 130.182 35.6516 130.218 35.8504C130.259 36.0452 130.291 36.238 130.316 36.4287C130.34 36.6154 130.352 36.7899 130.352 36.9522C130.352 37.3336 130.299 37.7049 130.194 38.0661C130.093 38.4313 129.946 38.7843 129.756 39.1252C129.569 39.4661 129.346 39.7928 129.086 40.1052C128.826 40.4217 128.538 40.718 128.222 40.9939C127.905 41.2699 127.566 41.5255 127.205 41.7609C126.844 42.0003 126.471 42.2154 126.085 42.4061L124.977 40.8661C125.27 40.72 125.566 40.5536 125.866 40.367C126.162 40.1843 126.446 39.9875 126.718 39.7765C126.994 39.5655 127.25 39.3443 127.485 39.113C127.725 38.8817 127.932 38.6464 128.106 38.407C128.285 38.1675 128.425 37.9241 128.526 37.6765C128.628 37.433 128.678 37.1936 128.678 36.9583C128.678 36.7878 128.654 36.6032 128.605 36.4043C128.561 36.2055 128.498 35.9925 128.417 35.7652C128.339 35.5339 128.246 35.2904 128.137 35.0348C128.027 34.7751 127.909 34.4991 127.784 34.207L129.543 33.4035ZM69.4955 64.8339C69.1181 64.8339 68.7286 64.8116 68.3268 64.767C67.9292 64.7264 67.5436 64.6472 67.1703 64.5296C66.801 64.4119 66.4561 64.2455 66.1355 64.0304C65.815 63.8194 65.5451 63.5435 65.326 63.2026C65.119 62.8739 64.9587 62.5128 64.8451 62.1191C64.7315 61.7255 64.6747 61.2852 64.6747 60.7983C64.6747 60.4412 64.6889 60.1023 64.7173 59.7817C64.7497 59.4571 64.7984 59.1365 64.8634 58.82C64.9283 58.5035 65.0115 58.1829 65.1129 57.8583C65.2184 57.5336 65.3442 57.1887 65.4903 56.8235L67.0547 57.4748C66.937 57.767 66.8355 58.0307 66.7503 58.2661C66.6692 58.5014 66.6002 58.7165 66.5434 58.9113C66.4865 59.102 66.4419 59.2786 66.4094 59.4409C66.377 59.6032 66.3526 59.7594 66.3364 59.9096C66.3202 60.0557 66.31 60.2017 66.306 60.3478C66.3019 60.4899 66.2999 60.64 66.2999 60.7983C66.2999 61.1026 66.3486 61.3664 66.446 61.5896C66.5434 61.8128 66.6752 62.0014 66.8416 62.1557C67.008 62.3099 67.1987 62.4357 67.4138 62.533C67.6329 62.6345 67.8602 62.7116 68.0955 62.7643C68.3309 62.8171 68.5683 62.8536 68.8077 62.8739C69.0512 62.8942 69.2805 62.9043 69.4955 62.9043C69.601 62.9043 69.7573 62.8962 69.9642 62.88C70.1712 62.8678 70.3964 62.8435 70.6399 62.807C70.8874 62.7745 71.139 62.7299 71.3947 62.673C71.6544 62.6162 71.8897 62.5452 72.1008 62.46C72.3118 62.3788 72.4842 62.2814 72.6181 62.1678C72.7521 62.0583 72.819 61.9284 72.819 61.7783C72.819 61.762 72.7845 61.7336 72.7155 61.693C72.6506 61.6525 72.5593 61.6038 72.4416 61.547C72.328 61.4942 72.1941 61.4333 72.0399 61.3643C71.8897 61.2994 71.7274 61.2325 71.5529 61.1635H71.559C71.3642 61.1026 71.1593 61.0499 70.9442 61.0052C70.7332 60.9646 70.5242 60.9281 70.3173 60.8957C70.2848 60.8916 70.2422 60.8855 70.1894 60.8774C70.1408 60.8693 70.09 60.8591 70.0373 60.847C69.9845 60.8388 69.9318 60.8287 69.879 60.8165C69.8303 60.8084 69.7897 60.8003 69.7573 60.7922L70.0068 58.9417H74.8886C75.0184 58.9417 75.1422 58.9661 75.2599 59.0148C75.3776 59.0635 75.479 59.1325 75.5642 59.2217C75.6535 59.307 75.7245 59.4084 75.7773 59.5261C75.83 59.6438 75.8564 59.7696 75.8564 59.9035C75.8564 60.0374 75.83 60.1632 75.7773 60.2809C75.7245 60.3986 75.6535 60.5 75.5642 60.5852C75.479 60.6745 75.3776 60.7435 75.2599 60.7922C75.1422 60.8409 75.0184 60.8652 74.8886 60.8652H74.2129C74.2981 61.0275 74.359 61.1899 74.3955 61.3522C74.4361 61.5186 74.4584 61.6606 74.4625 61.7783C74.4422 62.1597 74.3448 62.4986 74.1703 62.7948C73.9999 63.0951 73.7787 63.3588 73.5068 63.5861C73.235 63.8133 72.9265 64.0061 72.5816 64.1643C72.2367 64.3226 71.8836 64.4504 71.5225 64.5478C71.1613 64.6493 70.8042 64.7223 70.4512 64.767C70.1022 64.8116 69.7836 64.8339 69.4955 64.8339ZM73.98 59.9035C73.98 59.7696 74.0044 59.6438 74.0531 59.5261C74.1018 59.4084 74.1708 59.307 74.26 59.2217C74.3452 59.1325 74.4467 59.0635 74.5644 59.0148C74.6821 58.9661 74.8079 58.9417 74.9418 58.9417H75.4044C75.6965 58.9417 75.9765 58.9296 76.2444 58.9052C76.5163 58.8809 76.7557 58.8301 76.9626 58.753C77.1696 58.6719 77.336 58.5603 77.4618 58.4183C77.5916 58.2722 77.6606 58.0794 77.6687 57.84C77.6728 57.7507 77.6728 57.6777 77.6687 57.6209C77.6687 57.56 77.6586 57.489 77.6383 57.4078C77.618 57.3226 77.5876 57.213 77.547 57.0791C77.5105 56.9412 77.4577 56.7484 77.3887 56.5009L79.16 56.0017C79.2371 56.1965 79.3081 56.4542 79.3731 56.7748C79.438 57.0954 79.4867 57.4464 79.5192 57.8278C79.5273 57.9496 79.5415 58.0754 79.5618 58.2052C79.5821 58.3351 79.6145 58.4548 79.6592 58.5643C79.7079 58.6739 79.7728 58.7652 79.8539 58.8383C79.9351 58.9072 80.0406 58.9417 80.1705 58.9417C80.3044 58.9417 80.4302 58.9661 80.5479 59.0148C80.6655 59.0635 80.767 59.1325 80.8522 59.2217C80.9415 59.307 81.0105 59.4084 81.0592 59.5261C81.1119 59.6438 81.1383 59.7696 81.1383 59.9035C81.1383 60.0374 81.1119 60.1632 81.0592 60.2809C81.0105 60.3986 80.9415 60.5 80.8522 60.5852C80.7629 60.6745 80.6594 60.7435 80.5418 60.7922C80.4281 60.8409 80.3064 60.8652 80.1765 60.8652C79.787 60.8652 79.4522 60.8043 79.1722 60.6826C78.8963 60.5649 78.6589 60.4107 78.46 60.22C78.2774 60.3417 78.0664 60.4432 77.827 60.5243C77.5916 60.6055 77.34 60.6704 77.0722 60.7191C76.8044 60.7719 76.5284 60.8084 76.2444 60.8287C75.9603 60.853 75.6803 60.8652 75.4044 60.8652H74.9418C74.8079 60.8652 74.6821 60.8409 74.5644 60.7922C74.4467 60.7435 74.3452 60.6745 74.26 60.5852C74.1708 60.5 74.1018 60.3986 74.0531 60.2809C74.0044 60.1632 73.98 60.0374 73.98 59.9035ZM80.0244 54.0357L78.8557 55.2104L77.6992 54.0539L76.5548 55.1983L75.3739 54.0235L76.5426 52.8487L77.6992 54.0052L78.8435 52.8609L80.0244 54.0357ZM87.251 58.9417C87.3809 58.9417 87.5047 58.9681 87.6223 59.0209C87.74 59.0736 87.8415 59.1446 87.9267 59.2339C88.016 59.3191 88.087 59.4206 88.1397 59.5383C88.1925 59.6559 88.2189 59.7817 88.2189 59.9157C88.2189 60.0496 88.1925 60.1754 88.1397 60.293C88.087 60.4067 88.016 60.5061 87.9267 60.5913C87.8415 60.6806 87.74 60.7496 87.6223 60.7983C87.5047 60.847 87.3809 60.8713 87.251 60.8713C86.9305 60.8713 86.618 60.8612 86.3137 60.8409C86.0093 60.8206 85.7151 60.782 85.431 60.7252C85.151 60.6684 84.8852 60.5893 84.6337 60.4878C84.3821 60.3823 84.1487 60.2464 83.9337 60.08C83.6942 60.2261 83.4244 60.3499 83.1241 60.4513C82.8238 60.5528 82.5113 60.6339 82.1867 60.6948C81.8621 60.7597 81.5354 60.8043 81.2067 60.8287C80.878 60.8571 80.5696 60.8713 80.2815 60.8713C80.1516 60.8713 80.0279 60.847 79.9102 60.7983C79.7925 60.7496 79.689 60.6806 79.5997 60.5913C79.5105 60.5061 79.4415 60.4067 79.3928 60.293C79.34 60.1754 79.3137 60.0496 79.3137 59.9157C79.3137 59.7817 79.34 59.6559 79.3928 59.5383C79.4415 59.4206 79.5105 59.3191 79.5997 59.2339C79.689 59.1446 79.7925 59.0736 79.9102 59.0209C80.0279 58.9681 80.1516 58.9417 80.2815 58.9417C80.4235 58.9417 80.5716 58.9377 80.7258 58.9296C80.8841 58.9214 81.0423 58.9113 81.2006 58.8991C81.3589 58.8829 81.5151 58.8626 81.6693 58.8383C81.8235 58.8139 81.9696 58.7855 82.1076 58.753C82.0629 58.7125 82.0223 58.6739 81.9858 58.6374C81.9493 58.5968 81.9108 58.5562 81.8702 58.5157H81.8763C81.6571 58.2965 81.4319 58.0713 81.2006 57.84C80.9734 57.6087 80.7197 57.3652 80.4397 57.1096L80.5371 55.6852C80.7766 55.4742 81.0241 55.2957 81.2797 55.1496C81.5354 54.9994 81.787 54.8757 82.0345 54.7783C82.2861 54.6809 82.5255 54.6058 82.7528 54.553C82.9841 54.5003 83.191 54.4638 83.3737 54.4435C83.4629 54.4354 83.5583 54.4293 83.6597 54.4252C83.7612 54.4171 83.8606 54.413 83.958 54.413C84.2745 54.413 84.5992 54.4455 84.9319 54.5104C85.2687 54.5754 85.5731 54.6646 85.845 54.7783C86.0803 54.8878 86.2771 55.0116 86.4354 55.1496C86.5937 55.2875 86.7194 55.4255 86.8128 55.5635C86.9061 55.7014 86.9731 55.8354 87.0137 55.9652C87.0583 56.0951 87.0826 56.2046 87.0867 56.2939C87.0989 56.4765 87.0745 56.6774 87.0137 56.8965C86.9528 57.1116 86.8635 57.3328 86.7458 57.56C86.6322 57.7832 86.4963 58.0043 86.338 58.2235C86.1797 58.4386 86.0093 58.6374 85.8267 58.82C86.2568 58.9012 86.7316 58.9417 87.251 58.9417ZM83.958 56.3061C83.8606 56.3061 83.7368 56.3142 83.5867 56.3304C83.4366 56.3426 83.2803 56.3609 83.118 56.3852C82.9557 56.4096 82.7974 56.438 82.6432 56.4704C82.4931 56.5029 82.3652 56.5374 82.2597 56.5739L83.9337 58.0043C84.0513 57.9191 84.1852 57.8136 84.3354 57.6878C84.4896 57.562 84.6397 57.4322 84.7858 57.2983C84.9319 57.1603 85.0638 57.0243 85.1815 56.8904C85.3032 56.7565 85.3925 56.6388 85.4493 56.5374C85.356 56.4968 85.2464 56.4623 85.1206 56.4339C84.9948 56.4014 84.8629 56.3771 84.725 56.3609C84.591 56.3406 84.4571 56.3264 84.3232 56.3183C84.1893 56.3101 84.0676 56.3061 83.958 56.3061ZM86.259 59.9035C86.259 59.7696 86.2833 59.6438 86.332 59.5261C86.3807 59.4084 86.4497 59.307 86.539 59.2217C86.6242 59.1365 86.7256 59.0696 86.8433 59.0209C86.961 58.9681 87.0868 58.9417 87.2207 58.9417H87.3242C87.8882 58.9417 88.3143 58.8525 88.6024 58.6739C88.8906 58.4913 89.0346 58.2154 89.0346 57.8461C89.0346 57.773 89.0346 57.7081 89.0346 57.6513C89.0387 57.5945 89.0326 57.5214 89.0164 57.4322C89.0042 57.3388 88.9778 57.2191 88.9372 57.073C88.9007 56.9229 88.8439 56.718 88.7668 56.4583L90.5016 56.0383C90.5868 56.2817 90.6619 56.5557 90.7268 56.86C90.7917 57.1603 90.8242 57.489 90.8242 57.8461C90.8242 57.9638 90.8343 58.0875 90.8546 58.2174C90.879 58.3432 90.9155 58.4609 90.9642 58.5704C91.0169 58.6759 91.0859 58.7652 91.1711 58.8383C91.2604 58.9072 91.372 58.9417 91.5059 58.9417C91.6358 58.9417 91.7595 58.9681 91.8772 59.0209C91.9949 59.0696 92.0964 59.1365 92.1816 59.2217C92.2708 59.307 92.3419 59.4084 92.3946 59.5261C92.4474 59.6438 92.4737 59.7696 92.4737 59.9035C92.4737 60.0374 92.4474 60.1632 92.3946 60.2809C92.3459 60.3986 92.2769 60.5 92.1877 60.5852C92.0984 60.6745 91.9949 60.7435 91.8772 60.7922C91.7636 60.8409 91.6419 60.8652 91.512 60.8652C91.1224 60.8652 90.7897 60.8084 90.5137 60.6948C90.2378 60.5852 90.0004 60.4371 89.8016 60.2504C89.5094 60.4614 89.1604 60.6157 88.7546 60.713C88.3529 60.8145 87.8761 60.8652 87.3242 60.8652H87.2207C87.0868 60.8652 86.961 60.8409 86.8433 60.7922C86.7256 60.7435 86.6242 60.6745 86.539 60.5852C86.4497 60.5 86.3807 60.3986 86.332 60.2809C86.2833 60.1632 86.259 60.0374 86.259 59.9035ZM89.5885 52.3374L90.9398 53.6887L89.5885 55.04L88.2372 53.6887L89.5885 52.3374ZM90.5458 59.9035C90.5458 59.7696 90.5722 59.6438 90.625 59.5261C90.6737 59.4084 90.7427 59.307 90.8319 59.2217C90.9212 59.1325 91.0247 59.0635 91.1424 59.0148C91.26 58.9661 91.3838 58.9417 91.5137 58.9417C91.7125 58.9417 91.8829 58.9275 92.025 58.8991C92.167 58.8707 92.2847 58.8362 92.378 58.7957C92.4754 58.751 92.5525 58.7043 92.6093 58.6557C92.6661 58.6029 92.7108 58.5542 92.7432 58.5096L92.7372 58.5157C92.794 58.4304 92.8508 58.333 92.9076 58.2235C92.9644 58.1099 93.0253 57.9597 93.0902 57.773C93.1592 57.5864 93.2322 57.351 93.3093 57.067C93.3905 56.7788 93.4818 56.4197 93.5832 55.9896L95.178 56.507C95.1374 56.6612 95.0989 56.8093 95.0624 56.9513C95.0258 57.0893 94.9995 57.2252 94.9832 57.3591C94.9711 57.493 94.9711 57.627 94.9832 57.7609C94.9954 57.8948 95.0299 58.0348 95.0867 58.1809C95.2572 57.8968 95.4357 57.6168 95.6224 57.3409C95.809 57.0609 96.0099 56.7971 96.225 56.5496C96.4441 56.298 96.6795 56.0646 96.9311 55.8496C97.1827 55.6345 97.4586 55.4499 97.7589 55.2957C98.0632 55.1374 98.394 55.0136 98.7511 54.9243C99.1082 54.831 99.5018 54.7823 99.9319 54.7783C100.427 54.7742 100.863 54.8574 101.241 55.0278C101.618 55.1942 101.933 55.4154 102.184 55.6913C102.44 55.9632 102.628 56.2736 102.75 56.6226C102.872 56.9675 102.925 57.3125 102.908 57.6574C102.888 58.0875 102.777 58.4893 102.574 58.8626C102.375 59.2359 102.115 59.5565 101.795 59.8243C101.498 60.0557 101.168 60.2464 100.802 60.3965C100.441 60.5467 100.068 60.6643 99.6824 60.7496C99.3009 60.8388 98.9174 60.8997 98.5319 60.9322C98.1505 60.9687 97.7914 60.987 97.4545 60.987C97.0569 60.987 96.6998 60.9748 96.3832 60.9504C96.0667 60.9261 95.7705 60.8774 95.4945 60.8043C95.2227 60.7354 94.965 60.6359 94.7215 60.5061C94.4821 60.3803 94.2406 60.2139 93.9972 60.007C93.705 60.2991 93.36 60.5142 92.9624 60.6522C92.5687 60.7901 92.1041 60.8612 91.5685 60.8652H91.5137C91.3838 60.8652 91.26 60.8409 91.1424 60.7922C91.0247 60.7435 90.9212 60.6745 90.8319 60.5852C90.7427 60.5 90.6737 60.3986 90.625 60.2809C90.5722 60.1632 90.5458 60.0374 90.5458 59.9035ZM99.9076 56.7139C99.518 56.7139 99.1427 56.791 98.7815 56.9452C98.4203 57.0954 98.0896 57.2841 97.7893 57.5113C97.4931 57.7386 97.2314 57.982 97.0041 58.2417C96.7809 58.5014 96.6085 58.7409 96.4867 58.96C96.645 58.9681 96.8235 58.9742 97.0224 58.9783C97.2212 58.9823 97.414 58.9843 97.6006 58.9843C97.8522 58.9843 98.1119 58.9783 98.3798 58.9661C98.6516 58.9499 98.9174 58.9235 99.1772 58.887C99.4409 58.8464 99.6925 58.7916 99.9319 58.7226C100.175 58.6536 100.395 58.5664 100.589 58.4609C100.788 58.3513 100.957 58.2214 101.095 58.0713C101.237 57.9212 101.336 57.7446 101.393 57.5417C101.352 57.2577 101.2 57.0487 100.936 56.9148C100.677 56.7809 100.334 56.7139 99.9076 56.7139ZM111.268 60.8652C111.178 60.8652 111.053 60.8591 110.89 60.847C110.728 60.8348 110.553 60.7901 110.367 60.713C110.277 61.2162 110.109 61.693 109.862 62.1435C109.618 62.598 109.316 63.022 108.955 63.4157C108.593 63.8133 108.182 64.1786 107.719 64.5113C107.256 64.8441 106.763 65.1423 106.24 65.4061L105.126 63.8661C105.414 63.72 105.704 63.5597 105.996 63.3852C106.288 63.2148 106.566 63.0322 106.83 62.8374C107.098 62.6467 107.346 62.4458 107.573 62.2348C107.804 62.0278 108.005 61.8128 108.175 61.5896C108.346 61.3664 108.48 61.1371 108.577 60.9017C108.675 60.6704 108.723 60.4351 108.723 60.1957C108.723 60.1835 108.721 60.1652 108.717 60.1409C108.717 60.1165 108.717 60.0922 108.717 60.0678C108.717 60.0435 108.715 60.0252 108.711 60.013C108.711 60.0009 108.711 60.0029 108.711 60.0191V60.0252C108.683 59.7899 108.642 59.5646 108.589 59.3496C108.537 59.1345 108.47 58.9154 108.388 58.6922C108.311 58.469 108.22 58.2357 108.115 57.9922C108.009 57.7446 107.891 57.4748 107.762 57.1826L109.521 56.4157C109.683 56.9026 109.835 57.3084 109.977 57.633C110.119 57.9577 110.257 58.2174 110.391 58.4122C110.529 58.607 110.667 58.7449 110.805 58.8261C110.943 58.9032 111.089 58.9417 111.243 58.9417H111.274C111.408 58.9417 111.533 58.9681 111.651 59.0209C111.769 59.0736 111.87 59.1446 111.955 59.2339C112.045 59.3191 112.114 59.4206 112.162 59.5383C112.215 59.6559 112.242 59.7797 112.242 59.9096C112.242 60.0435 112.215 60.1693 112.162 60.287C112.114 60.4046 112.045 60.5061 111.955 60.5913C111.87 60.6765 111.769 60.7435 111.651 60.7922C111.533 60.8409 111.406 60.8652 111.268 60.8652ZM116.127 52.9217L114.958 54.0965L113.802 52.94L112.657 54.0843L111.477 52.9096L112.645 51.7348L113.802 52.8913L114.946 51.747L116.127 52.9217ZM110.034 59.9035C110.034 59.7696 110.06 59.6438 110.113 59.5261C110.162 59.4084 110.229 59.307 110.314 59.2217C110.399 59.1325 110.501 59.0635 110.618 59.0148C110.736 58.9661 110.862 58.9417 110.996 58.9417H111.671H111.964C112.146 58.9417 112.347 58.9336 112.566 58.9174C112.785 58.9012 112.996 58.8748 113.199 58.8383C113.402 58.8017 113.585 58.753 113.747 58.6922C113.913 58.6272 114.035 58.5461 114.112 58.4487C114.157 58.3797 114.179 58.2864 114.179 58.1687C114.179 57.9942 114.137 57.7872 114.051 57.5478C113.97 57.3084 113.873 57.0649 113.759 56.8174C113.646 56.5699 113.528 56.3325 113.406 56.1052C113.288 55.878 113.193 55.6893 113.12 55.5391L114.855 54.687C114.981 54.9061 115.102 55.1658 115.22 55.4661C115.338 55.7623 115.443 56.0687 115.537 56.3852C115.63 56.6977 115.705 57.0061 115.762 57.3104C115.819 57.6107 115.847 57.8725 115.847 58.0957C115.847 58.5055 115.774 58.8809 115.628 59.2217C115.457 59.6032 115.224 59.9197 114.928 60.1713C114.632 60.4188 114.277 60.6014 113.863 60.7191C113.741 60.7516 113.589 60.778 113.406 60.7983C113.224 60.8186 113.039 60.8328 112.852 60.8409C112.666 60.853 112.489 60.8591 112.323 60.8591C112.156 60.8632 112.026 60.8652 111.933 60.8652H111.05H110.996C110.862 60.8652 110.736 60.8409 110.618 60.7922C110.501 60.7435 110.399 60.6745 110.314 60.5852C110.229 60.5 110.162 60.3986 110.113 60.2809C110.06 60.1632 110.034 60.0374 110.034 59.9035ZM119.974 60.8652C119.475 60.8652 119.047 60.8023 118.69 60.6765C118.333 60.5548 118.025 60.3661 117.765 60.1104C117.603 59.9481 117.477 59.7777 117.388 59.5991C117.302 59.4206 117.239 59.2461 117.199 59.0757C117.162 58.9012 117.14 58.7368 117.132 58.5826C117.128 58.4284 117.126 58.2965 117.126 58.187V58.0957C117.13 57.9455 117.134 57.7304 117.138 57.4504C117.146 57.1664 117.15 56.8336 117.15 56.4522C117.15 56.0707 117.148 55.6507 117.144 55.1922C117.14 54.7336 117.128 54.2771 117.108 53.8226C117.091 53.3641 117.065 52.9238 117.028 52.5017C116.996 52.0797 116.949 51.7125 116.888 51.4L118.708 50.8461C118.761 51.1139 118.804 51.4304 118.836 51.7957C118.869 52.1568 118.895 52.5362 118.915 52.9339C118.94 53.3316 118.956 53.7313 118.964 54.133C118.976 54.5348 118.984 54.9081 118.988 55.253C118.992 55.5574 118.98 55.8557 118.952 56.1478C118.928 56.4359 118.907 56.72 118.891 57C118.875 57.2759 118.875 57.5458 118.891 57.8096C118.911 58.0693 118.968 58.3229 119.061 58.5704C119.098 58.6638 119.143 58.7348 119.195 58.7835C119.252 58.8322 119.317 58.8687 119.39 58.893C119.463 58.9133 119.542 58.9255 119.628 58.9296C119.717 58.9336 119.814 58.9357 119.92 58.9357H119.974C120.104 58.9357 120.228 58.962 120.346 59.0148C120.463 59.0675 120.565 59.1386 120.65 59.2278C120.739 59.313 120.81 59.4145 120.863 59.5322C120.916 59.6499 120.942 59.7736 120.942 59.9035C120.942 60.0374 120.916 60.1632 120.863 60.2809C120.81 60.3986 120.739 60.5 120.65 60.5852C120.565 60.6745 120.463 60.7435 120.346 60.7922C120.228 60.8409 120.104 60.8652 119.974 60.8652ZM118.985 59.9035C118.985 59.7696 119.011 59.6438 119.064 59.5261C119.113 59.4084 119.182 59.307 119.271 59.2217C119.356 59.1325 119.46 59.0635 119.581 59.0148C119.699 58.9661 119.825 58.9417 119.959 58.9417C120.109 58.9417 120.294 58.9397 120.513 58.9357C120.736 58.9275 120.973 58.9154 121.225 58.8991C121.476 58.8829 121.732 58.8626 121.992 58.8383C122.256 58.8139 122.505 58.7814 122.74 58.7409C122.98 58.7003 123.195 58.6536 123.386 58.6009C123.58 58.5441 123.733 58.4791 123.842 58.4061C123.432 58.4507 123.055 58.469 122.71 58.4609C122.365 58.4487 122.057 58.4142 121.785 58.3574C121.513 58.3006 121.28 58.2235 121.085 58.1261C120.894 58.0246 120.748 57.909 120.647 57.7791V57.7852C120.537 57.6472 120.434 57.4626 120.336 57.2313C120.243 57 120.196 56.7139 120.196 56.373C120.196 56.1904 120.208 56.02 120.233 55.8617C120.354 55.1719 120.598 54.6017 120.963 54.1513L120.957 54.1574C121.176 53.8652 121.424 53.6481 121.7 53.5061C121.976 53.36 122.266 53.287 122.57 53.287C122.878 53.287 123.183 53.362 123.483 53.5122C123.783 53.6623 124.055 53.8652 124.299 54.1209C124.473 54.3197 124.629 54.5449 124.767 54.7965C124.909 55.0481 125.029 55.3159 125.127 55.6C125.228 55.8841 125.305 56.1803 125.358 56.4887C125.415 56.793 125.443 57.0994 125.443 57.4078C125.443 57.5012 125.441 57.5945 125.437 57.6878C125.433 57.7771 125.427 57.8623 125.419 57.9435C125.37 58.3655 125.263 58.7307 125.096 59.0391C124.93 59.3435 124.717 59.6032 124.457 59.8183C124.201 60.0333 123.907 60.2078 123.574 60.3417C123.242 60.4757 122.885 60.5812 122.503 60.6583C122.122 60.7354 121.722 60.7881 121.304 60.8165C120.89 60.8449 120.472 60.8612 120.05 60.8652H119.947C119.813 60.8652 119.687 60.8388 119.569 60.7861C119.452 60.7374 119.35 60.6704 119.265 60.5852C119.18 60.5 119.113 60.3986 119.064 60.2809C119.011 60.1632 118.985 60.0374 118.985 59.9035ZM122.558 55.2226C122.465 55.2186 122.369 55.247 122.272 55.3078C122.178 55.3646 122.091 55.4417 122.01 55.5391C121.933 55.6365 121.868 55.7481 121.815 55.8739C121.767 55.9997 121.742 56.1275 121.742 56.2574C121.742 56.371 121.769 56.4725 121.821 56.5617C121.85 56.6104 121.907 56.653 121.992 56.6896C122.081 56.722 122.185 56.7504 122.302 56.7748C122.424 56.7951 122.554 56.8133 122.692 56.8296C122.83 56.8417 122.962 56.8499 123.087 56.8539C123.213 56.858 123.327 56.858 123.428 56.8539C123.534 56.8499 123.611 56.8438 123.66 56.8357C123.623 56.653 123.574 56.4684 123.514 56.2817C123.457 56.0951 123.384 55.9246 123.294 55.7704C123.205 55.6162 123.1 55.4884 122.978 55.387C122.856 55.2855 122.716 55.2307 122.558 55.2226ZM122.32 49.8174L123.672 51.1687L122.32 52.52L120.969 51.1687L122.32 49.8174ZM126.649 58.0226C126.819 58.1322 127.018 58.2417 127.246 58.3513C127.477 58.4609 127.712 58.5623 127.952 58.6557C128.195 58.7449 128.43 58.818 128.658 58.8748C128.885 58.9316 129.082 58.96 129.248 58.96C129.309 58.96 129.388 58.958 129.486 58.9539C129.583 58.9458 129.684 58.9336 129.79 58.9174C129.899 58.8971 130.009 58.8728 130.119 58.8443C130.228 58.8119 130.328 58.7713 130.417 58.7226C130.51 58.6739 130.585 58.6171 130.642 58.5522C130.699 58.4832 130.729 58.402 130.733 58.3087C130.737 58.1504 130.689 57.9719 130.587 57.773C130.49 57.5742 130.356 57.3672 130.186 57.1522C130.019 56.933 129.824 56.7139 129.601 56.4948C129.382 56.2716 129.155 56.0586 128.919 55.8557C128.684 55.6487 128.449 55.458 128.213 55.2835C127.978 55.1049 127.761 54.9528 127.562 54.827L128.639 53.2261C129.033 53.502 129.423 53.8104 129.808 54.1513C130.198 54.4922 130.557 54.8554 130.886 55.2409C131.214 55.6223 131.498 56.018 131.738 56.4278C131.977 56.8377 132.15 57.2475 132.255 57.6574C132.288 57.7751 132.31 57.8948 132.322 58.0165C132.334 58.1342 132.34 58.2478 132.34 58.3574C132.34 58.7348 132.267 59.0817 132.121 59.3983C131.975 59.7107 131.77 59.9826 131.506 60.2139C131.247 60.4412 130.934 60.6177 130.569 60.7435C130.204 60.8693 129.802 60.9322 129.364 60.9322C129.331 60.9322 129.299 60.9301 129.266 60.9261C129.234 60.9261 129.201 60.9261 129.169 60.9261C128.889 60.9261 128.601 60.8957 128.305 60.8348C128.012 60.778 127.722 60.7009 127.434 60.6035C127.15 60.5061 126.872 60.3925 126.6 60.2626C126.332 60.1328 126.083 59.9968 125.852 59.8548L126.649 58.0226Z" fill="#303030"/>
<defs>
<linearGradient id="paint0_linear_1325_8656" x1="5.08426" y1="6.15789" x2="151.122" y2="67.5913" gradientUnits="userSpaceOnUse">
<stop stop-color="#EAEAEA"/>
<stop offset="1" stop-color="#BDBDBD"/>
</linearGradient>
</defs>
</svg>
