<svg width="108" height="44" viewBox="0 0 108 44" fill="none" xmlns="http://www.w3.org/2000/svg">
<path d="M41.8129 22.7818H36.5688C36.1616 22.7832 35.7648 22.9135 35.4332 23.1549C35.1016 23.3963 34.8515 23.7368 34.7175 24.1295H33.3372C32.9403 24.1302 32.5528 24.2534 32.2256 24.4828C31.8984 24.7123 31.6467 25.0373 31.5035 25.4154C31.3423 25.4154 31.1837 25.4154 31.0199 25.4154C29.0255 25.459 27.0682 25.9749 25.3023 26.9225L17.9525 30.8419L5.96307 23.5714C5.2288 23.129 4.35957 22.9813 3.52457 23.1572C2.68957 23.3331 1.94855 23.82 1.44574 24.523C0.942928 25.226 0.714307 26.095 0.804375 26.9606C0.894444 27.8263 1.29676 28.6268 1.93301 29.2062L14.8544 40.9158C15.8731 41.8562 17.1938 42.3832 18.5671 42.3971C18.8123 42.3971 19.0573 42.379 19.3 42.3431C21.0959 42.0859 22.9875 41.533 24.8137 41.0032C27.0629 40.3525 29.3777 39.689 31.423 39.5964C31.5244 40.0381 31.7688 40.432 32.1166 40.7144C32.4645 40.9967 32.8954 41.151 33.3397 41.1524H34.72C34.854 41.545 35.1041 41.8855 35.4357 42.1269C35.7673 42.3683 36.1641 42.4987 36.5713 42.5H41.8155C42.3376 42.4993 42.8383 42.2872 43.2075 41.9102C43.5767 41.5332 43.7845 41.022 43.7851 40.4888V24.8007C43.7858 24.5358 43.7353 24.2734 43.6365 24.0285C43.5377 23.7836 43.3925 23.561 43.2093 23.3735C43.0261 23.1859 42.8084 23.0371 42.5688 22.9356C42.3292 22.8341 42.0724 22.7818 41.8129 22.7818ZM24.5265 39.9745C22.7306 40.4888 20.8768 41.0315 19.1489 41.281C18.5019 41.3656 17.8446 41.3049 17.2229 41.1032C16.6012 40.9016 16.0301 40.5637 15.5496 40.1133L2.63323 28.4038C2.38776 28.1816 2.18988 27.9101 2.05196 27.6062C1.91405 27.3023 1.83908 26.9725 1.83175 26.6377C1.82442 26.3028 1.88488 25.97 2.00936 25.6601C2.13384 25.3502 2.31965 25.0699 2.55515 24.8367C2.93495 24.4718 3.41964 24.2413 3.93762 24.1792C4.45559 24.1172 4.97938 24.2269 5.4316 24.4921L16.8669 31.436L16.8064 31.4695C16.1685 31.8194 15.6928 32.4137 15.484 33.1217C15.3806 33.4723 15.3459 33.8403 15.3818 34.2046C15.4176 34.5688 15.5234 34.9223 15.6931 35.2449C15.8628 35.5674 16.0931 35.8527 16.3707 36.0844C16.6484 36.316 16.968 36.4896 17.3113 36.5952C18.0048 36.8084 18.7527 36.7315 19.3907 36.3816L28.1662 31.4232C28.2265 31.3894 28.2798 31.3438 28.3229 31.289C28.366 31.2342 28.3981 31.1713 28.4174 31.1038C28.4367 31.0364 28.4428 30.9657 28.4354 30.8958C28.4279 30.8259 28.407 30.7583 28.374 30.6966C28.3409 30.635 28.2962 30.5806 28.2426 30.5366C28.1889 30.4926 28.1273 30.4598 28.0612 30.4401C27.9951 30.4204 27.9259 30.4141 27.8575 30.4218C27.7891 30.4294 27.7228 30.4507 27.6624 30.4844L18.8794 35.4326C18.5366 35.6234 18.1397 35.6869 17.7562 35.6123C17.3727 35.5378 17.0264 35.3297 16.7762 35.0237C16.6149 34.8275 16.4987 34.597 16.4361 34.3489C16.3735 34.1009 16.366 33.8417 16.4144 33.5904C16.4627 33.339 16.5655 33.1019 16.7153 32.8965C16.8651 32.691 17.058 32.5224 17.28 32.403L25.7708 27.8663C27.3941 26.991 29.1947 26.5138 31.03 26.4724C31.1408 26.4724 31.2492 26.4724 31.3575 26.4724V38.5162C29.2014 38.6243 26.8287 39.3058 24.5265 39.9745ZM32.4154 39.1386V26.1406C32.4154 25.891 32.5125 25.6516 32.6854 25.475C32.8582 25.2985 33.0927 25.1994 33.3372 25.1994H34.5966V40.0825H33.3372C33.0925 40.0818 32.858 39.9821 32.6852 39.8051C32.5124 39.6282 32.4154 39.3885 32.4154 39.1386ZM42.7424 40.4863C42.7417 40.7357 42.6444 40.9747 42.4716 41.1511C42.2989 41.3275 42.0648 41.4269 41.8205 41.4275H36.5688C36.3243 41.4275 36.0898 41.3284 35.917 41.1519C35.7441 40.9753 35.647 40.7359 35.647 40.4863V24.7981C35.6476 24.5487 35.745 24.3097 35.9177 24.1333C36.0904 23.9569 36.3245 23.8575 36.5688 23.8569H41.8129C42.0572 23.8575 42.2913 23.9569 42.4641 24.1333C42.6368 24.3097 42.7341 24.5487 42.7348 24.7981L42.7424 40.4863ZM37.594 33.2234C37.3165 33.2234 37.0452 33.3075 36.8145 33.4649C36.5838 33.6223 36.404 33.846 36.2978 34.1077C36.1916 34.3695 36.1638 34.6575 36.218 34.9354C36.2721 35.2133 36.4057 35.4685 36.6019 35.6689C36.7981 35.8692 37.0481 36.0056 37.3203 36.0609C37.5924 36.1162 37.8745 36.0878 38.1309 35.9794C38.3872 35.871 38.6063 35.6874 38.7605 35.4518C38.9147 35.2162 38.9969 34.9393 38.9969 34.6559C38.9969 34.276 38.8491 33.9117 38.586 33.643C38.3229 33.3744 37.9661 33.2234 37.594 33.2234ZM37.594 35.0237C37.5242 35.0237 37.4561 35.0026 37.3981 34.963C37.3401 34.9235 37.2949 34.8672 37.2682 34.8014C37.2415 34.7357 37.2345 34.6633 37.2481 34.5934C37.2617 34.5236 37.2953 34.4594 37.3446 34.4091C37.3939 34.3587 37.4568 34.3244 37.5252 34.3105C37.5936 34.2966 37.6645 34.3038 37.7289 34.331C37.7934 34.3583 37.8484 34.4044 37.8872 34.4636C37.9259 34.5228 37.9466 34.5924 37.9466 34.6637C37.9466 34.7591 37.9095 34.8507 37.8433 34.9183C37.7772 34.9858 37.6875 35.0237 37.594 35.0237ZM37.594 37.2329C37.3164 37.2329 37.045 37.317 36.8143 37.4745C36.5835 37.632 36.4037 37.8559 36.2976 38.1178C36.1915 38.3797 36.1638 38.6679 36.2182 38.9458C36.2725 39.2238 36.4064 39.479 36.6028 39.6793C36.7993 39.8795 37.0495 40.0157 37.3218 40.0707C37.5941 40.1257 37.8763 40.097 38.1326 39.9881C38.3889 39.8793 38.6079 39.6953 38.7617 39.4594C38.9156 39.2235 38.9974 38.9463 38.9969 38.6628C38.9986 38.4738 38.9635 38.2862 38.8937 38.1111C38.8239 37.9359 38.7208 37.7767 38.5904 37.6425C38.4599 37.5083 38.3046 37.4019 38.1336 37.3294C37.9626 37.2569 37.7792 37.2197 37.594 37.22V37.2329ZM37.594 39.0332C37.5242 39.0332 37.4561 39.0121 37.3981 38.9725C37.3401 38.9329 37.2949 38.8767 37.2682 38.8109C37.2415 38.7451 37.2345 38.6727 37.2481 38.6029C37.2617 38.533 37.2953 38.4689 37.3446 38.4185C37.3939 38.3682 37.4568 38.3339 37.5252 38.32C37.5936 38.3061 37.6645 38.3132 37.7289 38.3405C37.7934 38.3677 37.8484 38.4139 37.8872 38.4731C37.9259 38.5323 37.9466 38.6019 37.9466 38.6731C37.9408 38.7646 37.9012 38.8503 37.8356 38.9129C37.7701 38.9755 37.6837 39.0102 37.594 39.01V39.0332ZM31.1383 10.9026C31.1393 10.7948 31.1194 10.6878 31.0798 10.5878C31.0401 10.4879 30.9815 10.3969 30.9073 10.3202C30.8331 10.2435 30.7448 10.1825 30.6474 10.1408C30.55 10.099 30.4455 10.0774 30.3399 10.077C29.9775 10.0785 29.6261 9.95045 29.3466 9.71508C29.067 9.4797 28.877 9.15186 28.8094 8.78839C28.7418 8.42492 28.8009 8.04876 28.9765 7.72513C29.152 7.40151 29.433 7.15082 29.7706 7.01656L29.8663 6.97799V6.71052C29.8663 6.6082 29.9061 6.51008 29.977 6.43773C30.0479 6.36539 30.144 6.32474 30.2442 6.32474C30.3444 6.32474 30.4405 6.36539 30.5113 6.43773C30.5822 6.51008 30.622 6.6082 30.622 6.71052V6.93684L30.7353 6.9677C31.0685 7.05735 31.3629 7.25766 31.5722 7.53705C31.7816 7.81644 31.8939 8.15903 31.8914 8.51079C31.8914 8.61311 31.8516 8.71123 31.7808 8.78358C31.7099 8.85592 31.6138 8.89656 31.5136 8.89656C31.4134 8.89656 31.3173 8.85592 31.2465 8.78358C31.1756 8.71123 31.1358 8.61311 31.1358 8.51079C31.1398 8.34862 31.0964 8.18892 31.011 8.05211C30.9256 7.91531 30.8022 7.80762 30.6565 7.74282C30.5109 7.67802 30.3496 7.65906 30.1934 7.68836C30.0371 7.71767 29.893 7.7939 29.7794 7.90732C29.6658 8.02073 29.5879 8.16617 29.5557 8.32502C29.5235 8.48388 29.5385 8.64893 29.5987 8.79906C29.6588 8.94919 29.7615 9.07757 29.8936 9.16779C30.0256 9.258 30.181 9.30594 30.3399 9.30548C30.7174 9.30466 31.0823 9.44443 31.3662 9.6986C31.65 9.95277 31.8334 10.3039 31.8819 10.6862C31.9304 11.0685 31.8407 11.4558 31.6296 11.7754C31.4186 12.095 31.1006 12.3251 30.7353 12.4225L30.622 12.4534V12.6489C30.622 12.7512 30.5822 12.8493 30.5113 12.9216C30.4405 12.994 30.3444 13.0346 30.2442 13.0346C30.144 13.0346 30.0479 12.994 29.977 12.9216C29.9061 12.8493 29.8663 12.7512 29.8663 12.6489V12.4174L29.7706 12.3788C29.4799 12.2635 29.2302 12.061 29.0544 11.7979C28.8786 11.5349 28.785 11.2236 28.7858 10.9052C28.7858 10.8028 28.8256 10.7047 28.8964 10.6324C28.9673 10.56 29.0634 10.5194 29.1636 10.5194C29.2638 10.5194 29.3599 10.56 29.4308 10.6324C29.5016 10.7047 29.5414 10.8028 29.5414 10.9052C29.5414 11.1214 29.6255 11.3287 29.7753 11.4816C29.925 11.6345 30.1281 11.7204 30.3399 11.7204C30.5516 11.7204 30.7547 11.6345 30.9045 11.4816C31.0542 11.3287 31.1383 11.1214 31.1383 10.9052V10.9026ZM30.3399 17.8465C31.9229 17.846 33.4703 17.3662 34.7864 16.4678C36.1024 15.5694 37.128 14.2928 37.7335 12.7992C38.3389 11.3057 38.4971 9.66244 38.1879 8.07716C37.8788 6.49187 37.1162 5.03578 35.9966 3.89298C34.8771 2.75019 33.4508 1.97202 31.8981 1.65686C30.3454 1.3417 28.736 1.50371 27.2735 2.1224C25.811 2.74109 24.561 3.78868 23.6815 5.13271C22.8021 6.47674 22.3327 8.05685 22.3327 9.67326C22.334 11.8414 23.178 13.9205 24.6792 15.4538C26.1805 16.9872 28.2164 17.8496 30.3399 17.8517V17.8465ZM30.3399 2.56988C31.7158 2.56988 33.0609 2.98649 34.2049 3.76702C35.349 4.54754 36.2406 5.65694 36.7672 6.95491C37.2937 8.25288 37.4315 9.68114 37.1631 11.0591C36.8946 12.437 36.2321 13.7027 35.2591 14.6961C34.2862 15.6895 33.0466 16.3661 31.6971 16.6401C30.3476 16.9142 28.9488 16.7736 27.6776 16.2359C26.4064 15.6983 25.3199 14.7878 24.5554 13.6197C23.791 12.4515 23.383 11.0782 23.383 9.67326C23.3863 7.79084 24.1205 5.98658 25.4246 4.65599C26.7287 3.3254 28.4963 2.57706 30.3399 2.57503V2.56988ZM26.2443 14.2202C26.4806 14.4381 26.7333 14.6368 27 14.8143L27.0529 14.8478C27.4113 15.0848 27.7939 15.2814 28.1939 15.4341C28.345 15.4933 28.5012 15.5473 28.6573 15.591C29.206 15.7578 29.775 15.8444 30.3474 15.8482C30.7381 15.8487 31.1279 15.8099 31.5111 15.7325C32.891 15.4672 34.1366 14.7176 35.0323 13.6133C35.9279 12.5091 36.4171 11.1198 36.4152 9.68611C36.4114 9.105 36.3266 8.5274 36.1633 7.97071C36.118 7.80868 36.0651 7.6518 36.0071 7.49749C35.8618 7.10093 35.6734 6.72223 35.4454 6.36846L35.4001 6.29388C35.2238 6.02128 35.0267 5.7633 34.8107 5.52233C34.7452 5.44775 34.6747 5.37574 34.6067 5.3063C34.0045 4.69655 33.2825 4.2241 32.4884 3.92009C32.2987 3.84625 32.1053 3.78272 31.9091 3.72977C31.3955 3.59001 30.8663 3.51912 30.3348 3.51888C29.4067 3.51546 28.4902 3.73031 27.6565 4.14679C26.8227 4.56327 26.0941 5.17019 25.5271 5.9205C24.96 6.67081 24.5699 7.54437 24.3867 8.47346C24.2036 9.40255 24.2325 10.3622 24.4711 11.2781C24.5234 11.4786 24.5865 11.6761 24.66 11.8696C24.9613 12.6766 25.4266 13.4094 26.0252 14.0196C26.1008 14.0916 26.1738 14.1611 26.2443 14.2254V14.2202ZM25.4887 10.9926C25.3747 10.5625 25.3171 10.1188 25.3174 9.67326C25.3247 8.31949 25.8576 7.02396 26.7991 6.07079C27.7407 5.11763 29.014 4.58466 30.3399 4.58876C30.7794 4.58884 31.2171 4.64676 31.6421 4.76107C31.8058 4.80737 31.967 4.8588 32.1232 4.92053C32.7844 5.16983 33.3856 5.56096 33.8863 6.06756L34.0551 6.24502C34.231 6.44123 34.3919 6.65103 34.5362 6.87254C34.5471 6.88737 34.5572 6.90282 34.5664 6.91883C34.7587 7.21819 34.9183 7.53814 35.0424 7.87298C35.0903 7.999 35.1331 8.13016 35.1709 8.26132C35.3018 8.72179 35.368 9.19892 35.3674 9.6784C35.3704 10.8638 34.9663 12.0127 34.2253 12.9253C33.4844 13.8379 32.4535 14.4563 31.3121 14.6729C30.5265 14.8268 29.7165 14.7907 28.947 14.5674C28.8185 14.5289 28.6951 14.4851 28.5641 14.4363C28.2153 14.3073 27.8816 14.1391 27.5692 13.9348C27.3493 13.7798 27.1413 13.6078 26.9471 13.4204L26.7758 13.2532C26.28 12.7492 25.8945 12.1435 25.6449 11.4761C25.5869 11.3269 25.534 11.1649 25.4912 10.9977L25.4887 10.9926ZM15.9173 18.9344C15.9173 18.7179 15.8333 18.5103 15.6836 18.357C15.5339 18.2037 15.3308 18.1172 15.1189 18.1166C14.7567 18.1174 14.4057 17.9889 14.1266 17.7534C13.8475 17.5178 13.6579 17.1899 13.5907 16.8266C13.5234 16.4633 13.5827 16.0874 13.7583 15.7641C13.9339 15.4407 14.2147 15.1903 14.5521 15.0561L14.6478 15.0175V14.7475C14.6478 14.6452 14.6876 14.547 14.7585 14.4747C14.8294 14.4023 14.9255 14.3617 15.0257 14.3617C15.1259 14.3617 15.222 14.4023 15.2928 14.4747C15.3637 14.547 15.4035 14.6452 15.4035 14.7475V14.9635L15.5168 14.9944C15.8504 15.0835 16.1454 15.2836 16.3553 15.5631C16.5651 15.8425 16.6777 16.1853 16.6755 16.5375C16.6755 16.6398 16.6357 16.7379 16.5648 16.8102C16.4939 16.8826 16.3978 16.9232 16.2976 16.9232C16.1974 16.9232 16.1013 16.8826 16.0305 16.8102C15.9596 16.7379 15.9198 16.6398 15.9198 16.5375C15.9198 16.3762 15.873 16.2186 15.7853 16.0845C15.6975 15.9504 15.5728 15.8459 15.4269 15.7842C15.281 15.7225 15.1205 15.7064 14.9656 15.7378C14.8107 15.7693 14.6684 15.847 14.5568 15.961C14.4451 16.075 14.3691 16.2203 14.3383 16.3784C14.3074 16.5365 14.3233 16.7005 14.3837 16.8494C14.4441 16.9984 14.5465 17.1257 14.6778 17.2153C14.8091 17.3049 14.9635 17.3527 15.1214 17.3527C15.4989 17.3519 15.8638 17.4917 16.1477 17.7458C16.4315 18 16.6149 18.3511 16.6634 18.7334C16.7119 19.1157 16.6222 19.503 16.4111 19.8226C16.2001 20.1423 15.8821 20.3723 15.5168 20.4698L15.4035 20.5006V20.6832C15.4035 20.7855 15.3637 20.8837 15.2928 20.956C15.222 21.0284 15.1259 21.069 15.0257 21.069C14.9255 21.069 14.8294 21.0284 14.7585 20.956C14.6876 20.8837 14.6478 20.7855 14.6478 20.6832V20.4518L14.5521 20.4132C14.2607 20.2986 14.0103 20.0963 13.834 19.8331C13.6577 19.57 13.5638 19.2584 13.5648 18.9395C13.5648 18.8372 13.6046 18.7391 13.6754 18.6667C13.7463 18.5944 13.8424 18.5538 13.9426 18.5538C14.0428 18.5538 14.1389 18.5944 14.2097 18.6667C14.2806 18.7391 14.3204 18.8372 14.3204 18.9395C14.3204 19.1558 14.4045 19.3631 14.5543 19.516C14.704 19.6689 14.9071 19.7548 15.1189 19.7548C15.3306 19.7548 15.5337 19.6689 15.6834 19.516C15.8332 19.3631 15.9173 19.1558 15.9173 18.9395V18.9344ZM15.1189 25.8783C16.7026 25.8788 18.2508 25.3996 19.5678 24.5014C20.8847 23.6032 21.911 22.3263 22.517 20.8322C23.1229 19.3382 23.2812 17.6942 22.9718 16.1083C22.6624 14.5224 21.8993 13.0659 20.7789 11.923C19.6585 10.7801 18.2312 10.0022 16.6778 9.68779C15.1243 9.37337 13.5143 9.53655 12.0517 10.1567C10.5891 10.7768 9.33945 11.826 8.46098 13.1715C7.58251 14.517 7.11468 16.0983 7.11667 17.7153C7.11867 19.8824 7.96266 21.9601 9.4634 23.4925C10.9641 25.0248 12.999 25.8866 15.1214 25.8886L15.1189 25.8783ZM15.1189 10.6017C16.4949 10.5991 17.8408 11.0133 18.9863 11.7919C20.1318 12.5704 21.0254 13.6783 21.5542 14.9754C22.083 16.2726 22.2231 17.7007 21.9569 19.0792C21.6907 20.4577 21.0301 21.7246 20.0587 22.7197C19.0873 23.7148 17.8486 24.3934 16.4995 24.6697C15.1503 24.946 13.7512 24.8076 12.4791 24.2719C11.2069 23.7362 10.119 22.8274 9.35278 21.6603C8.58658 20.4932 8.17655 19.1204 8.17456 17.7153C8.17655 15.8338 8.90877 14.0298 10.2108 12.6984C11.5129 11.367 13.2787 10.6167 15.1214 10.612L15.1189 10.6017ZM11.0258 22.2623C11.2619 22.4797 11.5146 22.6775 11.7815 22.8538L11.8394 22.8899C12.1914 23.1257 12.5672 23.3223 12.9603 23.4762C13.1114 23.5354 13.2675 23.5894 13.4237 23.6331C13.9724 23.7999 14.5414 23.8865 15.1138 23.8903C15.5045 23.8909 15.8943 23.8521 16.2775 23.7746C17.6609 23.5105 18.91 22.7597 19.8073 21.6526C20.7047 20.5456 21.1936 19.1524 21.1891 17.7153C21.1912 17.1324 21.1115 16.5521 20.9524 15.9922C20.907 15.8302 20.8541 15.6733 20.7962 15.519C20.6483 15.1236 20.46 14.7452 20.2345 14.39L20.1892 14.3154C20.0122 14.0426 19.8143 13.7846 19.5973 13.5438C19.5292 13.4693 19.4638 13.3998 19.3932 13.3304C18.7917 12.7198 18.0695 12.2472 17.2749 11.9442C17.0854 11.8699 16.892 11.8064 16.6956 11.7539C15.7983 11.5088 14.8578 11.4771 13.9466 11.6614C13.0354 11.8457 12.1777 12.2409 11.4396 12.8167C10.7014 13.3925 10.1025 14.1336 9.68885 14.9828C9.27522 15.8321 9.0579 16.7669 9.05362 17.7153C9.05211 18.2548 9.12158 18.7919 9.26016 19.3124C9.31305 19.5131 9.37602 19.7111 9.44655 19.904C9.74844 20.7121 10.2146 21.4457 10.8142 22.0566C10.8848 22.1286 10.9578 22.198 11.0258 22.2623ZM10.2702 19.0347C10.1562 18.6046 10.0986 18.1609 10.0989 17.7153C10.1049 16.3607 10.6372 15.0638 11.5789 14.1096C12.5205 13.1553 13.7946 12.6216 15.1214 12.6257C15.5617 12.6259 16.0002 12.6838 16.4261 12.798C16.5898 12.8443 16.7485 12.8958 16.9047 12.9575C17.5659 13.2068 18.1671 13.5979 18.6678 14.1045C18.7258 14.1637 18.7837 14.2228 18.8366 14.282C19.0225 14.4919 19.191 14.7173 19.3403 14.9558C19.5315 15.2553 19.6919 15.5742 19.8189 15.9074C19.8642 16.0359 19.9071 16.1645 19.9448 16.2983C20.0768 16.7586 20.1438 17.2357 20.1438 17.7153C20.1432 18.9005 19.7372 20.0483 18.9958 20.9602C18.2544 21.8722 17.2243 22.491 16.0835 22.7098C15.2971 22.8647 14.4861 22.8286 13.7159 22.6044C13.5849 22.5658 13.464 22.5221 13.333 22.4732C12.9886 22.3397 12.66 22.1672 12.3532 21.9589C12.1309 21.8105 11.9203 21.6446 11.7235 21.4625L11.5523 21.2953C11.0573 20.7906 10.6719 20.1851 10.4213 19.5182C10.3684 19.3639 10.318 19.2044 10.2727 19.0347H10.2702Z" fill="#303030"/>
<path d="M63.1853 14.513C62.6091 14.513 62.114 14.4359 61.7001 14.2817C61.2862 14.1235 60.9575 13.9023 60.714 13.6183C60.572 13.4357 60.4685 13.2388 60.4036 13.0278C60.3427 12.8128 60.3123 12.6078 60.3123 12.413C60.3123 12.2426 60.3265 12.0884 60.3549 11.9504C60.3833 11.8125 60.4178 11.6948 60.4584 11.5974C60.6207 11.2565 60.8195 10.9583 61.0549 10.7026C61.2943 10.447 61.5418 10.2258 61.7975 10.0391C62.0572 9.84841 62.3129 9.69014 62.5645 9.56435C62.8201 9.43855 63.0474 9.33507 63.2462 9.25391C63.2381 9.16058 63.23 9.06522 63.2218 8.96783C63.2178 8.87043 63.2117 8.7771 63.2036 8.68783L63.1732 8.30435L65.0723 7.89652C65.0763 7.93304 65.0845 8.01826 65.0966 8.15217C65.1129 8.28609 65.1291 8.44638 65.1453 8.63304C65.1656 8.81565 65.1859 9.01246 65.2062 9.22348C65.2305 9.43043 65.2508 9.62522 65.2671 9.80783C65.2874 9.99043 65.3036 10.1487 65.3158 10.2826C65.332 10.4165 65.3421 10.4977 65.3462 10.5261C65.4071 11.0252 65.4578 11.4351 65.4984 11.7557C65.543 12.0762 65.5795 12.3319 65.6079 12.5226C65.6404 12.7093 65.6668 12.8452 65.6871 12.9304C65.7074 13.0116 65.7236 13.0664 65.7358 13.0948C65.7966 13.2246 65.8879 13.3159 66.0097 13.3687C66.1355 13.4174 66.3018 13.4417 66.5088 13.4417C66.6387 13.4417 66.7624 13.4661 66.8801 13.5148C66.9978 13.5635 67.0992 13.6325 67.1845 13.7217C67.2737 13.807 67.3447 13.9084 67.3975 14.0261C67.4503 14.1438 67.4766 14.2696 67.4766 14.4035C67.4766 14.5374 67.4503 14.6632 67.3975 14.7809C67.3447 14.8986 67.2737 15 67.1845 15.0852C67.0992 15.1704 66.9978 15.2374 66.8801 15.2861C66.7624 15.3388 66.6387 15.3652 66.5088 15.3652C66.4236 15.3652 66.3282 15.3612 66.2227 15.353C66.1172 15.349 66.0056 15.3368 65.8879 15.3165C65.7743 15.3003 65.6546 15.2739 65.5288 15.2374C65.4071 15.2049 65.2853 15.1603 65.1636 15.1035C64.9932 15.0223 64.843 14.931 64.7132 14.8296C64.5874 14.7241 64.4656 14.5922 64.3479 14.4339C64.141 14.4623 63.9401 14.4826 63.7453 14.4948C63.5546 14.507 63.3679 14.513 63.1853 14.513ZM63.1488 12.6017C63.234 12.6017 63.3213 12.5997 63.4105 12.5957C63.5039 12.5875 63.5932 12.5794 63.6784 12.5713C63.6581 12.4333 63.6358 12.2791 63.6114 12.1087C63.5911 11.9383 63.5708 11.7557 63.5505 11.5609L63.4897 11.0009C63.3355 11.078 63.163 11.1713 62.9723 11.2809C62.7816 11.3864 62.601 11.5 62.4305 11.6217C62.2642 11.7394 62.1242 11.8612 62.0105 11.987C61.8969 12.1087 61.8401 12.2223 61.8401 12.3278C61.8401 12.3806 61.8847 12.4252 61.974 12.4617C62.0674 12.4942 62.181 12.5226 62.3149 12.547C62.4488 12.5672 62.5908 12.5814 62.741 12.5896C62.8911 12.5977 63.0271 12.6017 63.1488 12.6017ZM65.5431 14.4035C65.5431 14.2696 65.5675 14.1438 65.6162 14.0261C65.6649 13.9084 65.7339 13.807 65.8231 13.7217C65.9084 13.6365 66.0098 13.5696 66.1275 13.5209C66.2452 13.4681 66.371 13.4417 66.5049 13.4417H66.6084C67.1724 13.4417 67.5985 13.3525 67.8866 13.1739C68.1747 12.9913 68.3188 12.7154 68.3188 12.3461C68.3188 12.273 68.3188 12.2081 68.3188 12.1513C68.3229 12.0945 68.3168 12.0214 68.3005 11.9322C68.2884 11.8388 68.262 11.7191 68.2214 11.573C68.1849 11.4229 68.1281 11.218 68.051 10.9583L69.7858 10.5383C69.871 10.7817 69.946 11.0557 70.011 11.36C70.0759 11.6603 70.1084 11.989 70.1084 12.3461C70.1084 12.4638 70.1185 12.5875 70.1388 12.7174C70.1631 12.8432 70.1997 12.9609 70.2484 13.0704C70.3011 13.1759 70.3701 13.2652 70.4553 13.3383C70.5446 13.4072 70.6562 13.4417 70.7901 13.4417C70.92 13.4417 71.0437 13.4681 71.1614 13.5209C71.2791 13.5696 71.3805 13.6365 71.4658 13.7217C71.555 13.807 71.626 13.9084 71.6788 14.0261C71.7315 14.1438 71.7579 14.2696 71.7579 14.4035C71.7579 14.5374 71.7315 14.6632 71.6788 14.7809C71.6301 14.8986 71.5611 15 71.4718 15.0852C71.3826 15.1745 71.2791 15.2435 71.1614 15.2922C71.0478 15.3409 70.926 15.3652 70.7962 15.3652C70.4066 15.3652 70.0739 15.3084 69.7979 15.1948C69.522 15.0852 69.2846 14.9371 69.0858 14.7504C68.7936 14.9614 68.4446 15.1157 68.0388 15.213C67.6371 15.3145 67.1602 15.3652 66.6084 15.3652H66.5049C66.371 15.3652 66.2452 15.3409 66.1275 15.2922C66.0098 15.2435 65.9084 15.1745 65.8231 15.0852C65.7339 15 65.6649 14.8986 65.6162 14.7809C65.5675 14.6632 65.5431 14.5374 65.5431 14.4035ZM68.8423 15.8278L70.1936 17.1791L68.8423 18.5304L67.491 17.1791L68.8423 15.8278ZM69.9547 14.4096C69.9547 14.2838 69.979 14.1641 70.0277 14.0504C70.0764 13.9368 70.1413 13.8374 70.2225 13.7522C70.3037 13.6629 70.401 13.5919 70.5147 13.5391C70.6242 13.4823 70.7419 13.4499 70.8677 13.4417C71.1721 13.4417 71.4277 13.3606 71.6347 13.1983C71.8457 13.0319 72.0263 12.8148 72.1764 12.547C72.3265 12.2791 72.4544 11.9748 72.5599 11.6339C72.6654 11.289 72.7648 10.938 72.8581 10.5809L74.4773 10.873C74.4448 11.0151 74.4042 11.1814 74.3555 11.3722C74.3109 11.5588 74.2683 11.7536 74.2277 11.9565C74.1912 12.1594 74.1608 12.3583 74.1364 12.553C74.1121 12.7438 74.106 12.9122 74.1181 13.0583C74.1344 13.2043 74.1729 13.32 74.2338 13.4052C74.2947 13.4864 74.388 13.5168 74.5138 13.4965C74.6761 13.4843 74.8222 13.4275 74.9521 13.3261C75.086 13.2246 75.2057 13.0948 75.3112 12.9365C75.4167 12.7783 75.51 12.5997 75.5912 12.4009C75.6723 12.202 75.7413 11.9971 75.7981 11.7861C75.859 11.5751 75.9077 11.3661 75.9442 11.1591C75.9848 10.9522 76.0173 10.7635 76.0416 10.593L77.5877 10.8548C77.5837 10.9765 77.5694 11.1267 77.5451 11.3052C77.5208 11.4838 77.4984 11.6725 77.4781 11.8713C77.4579 12.0661 77.4477 12.2629 77.4477 12.4617C77.4477 12.6565 77.47 12.833 77.5147 12.9913C77.5593 13.1455 77.6323 13.2713 77.7338 13.3687C77.8393 13.4661 77.9854 13.5148 78.1721 13.5148C78.2857 13.5148 78.4013 13.4965 78.519 13.46C78.6367 13.4194 78.7422 13.3646 78.8355 13.2957C78.9289 13.2226 79.0039 13.1374 79.0608 13.04C79.1216 12.9426 79.1521 12.833 79.1521 12.7113C79.1521 12.5003 79.1176 12.269 79.0486 12.0174C78.9796 11.7617 78.8964 11.5101 78.799 11.2626C78.7016 11.011 78.5981 10.7736 78.4886 10.5504C78.3831 10.3272 78.2938 10.1386 78.2208 9.98435L79.7303 9.13826C79.7547 9.19101 79.7973 9.28435 79.8581 9.41826C79.919 9.54812 79.988 9.70638 80.0651 9.89304C80.1422 10.0797 80.2213 10.2907 80.3025 10.5261C80.3877 10.7574 80.4648 10.9988 80.5338 11.2504C80.6028 11.502 80.6596 11.7597 80.7042 12.0235C80.7489 12.2872 80.7712 12.5429 80.7712 12.7904C80.7712 13.1962 80.7144 13.5614 80.6008 13.8861C80.4912 14.2107 80.3228 14.4867 80.0955 14.7139C79.8723 14.9412 79.5903 15.1177 79.2494 15.2435C78.9126 15.3693 78.517 15.4342 78.0625 15.4383C77.8434 15.4383 77.6445 15.4159 77.466 15.3713C77.2874 15.3307 77.1271 15.2719 76.9851 15.1948C76.8431 15.1217 76.7152 15.0345 76.6016 14.933C76.4921 14.8316 76.3947 14.7241 76.3094 14.6104C76.2121 14.7362 76.1065 14.8499 75.9929 14.9513C75.8834 15.0487 75.7555 15.1319 75.6094 15.2009C75.4674 15.2739 75.3071 15.3307 75.1286 15.3713C74.95 15.4119 74.7471 15.4342 74.5199 15.4383C74.321 15.4423 74.1405 15.4241 73.9781 15.3835C73.8199 15.347 73.6738 15.2922 73.5399 15.2191C73.406 15.1461 73.2842 15.0588 73.1747 14.9574C73.0692 14.8519 72.9697 14.7362 72.8764 14.6104C72.7912 14.7159 72.6938 14.8154 72.5842 14.9087C72.4747 14.998 72.3448 15.0771 72.1947 15.1461C72.0445 15.2151 71.87 15.2699 71.6712 15.3104C71.4723 15.351 71.241 15.3713 70.9773 15.3713H70.8677C70.7419 15.3632 70.6242 15.3328 70.5147 15.28C70.401 15.2272 70.3037 15.1583 70.2225 15.073C70.1413 14.9878 70.0764 14.8884 70.0277 14.7748C69.979 14.6612 69.9547 14.5394 69.9547 14.4096ZM84.6298 15.3652C84.1306 15.3652 83.7025 15.3023 83.3454 15.1765C82.9883 15.0548 82.6799 14.8661 82.4202 14.6104C82.2579 14.4481 82.1321 14.2777 82.0428 14.0991C81.9576 13.9206 81.8947 13.7461 81.8541 13.5757C81.8176 13.4012 81.7953 13.2368 81.7872 13.0826C81.7831 12.9284 81.7811 12.7965 81.7811 12.687V12.5957C81.7851 12.4455 81.7892 12.2304 81.7932 11.9504C81.8014 11.6664 81.8054 11.3336 81.8054 10.9522C81.8054 10.5707 81.8034 10.1507 81.7993 9.69217C81.7953 9.23362 81.7831 8.7771 81.7628 8.32261C81.7466 7.86406 81.7202 7.42377 81.6837 7.00174C81.6512 6.57971 81.6046 6.21246 81.5437 5.9L83.3637 5.34609C83.4164 5.61391 83.459 5.93043 83.4915 6.29565C83.524 6.65681 83.5504 7.03623 83.5706 7.43391C83.595 7.83159 83.6112 8.2313 83.6193 8.63304C83.6315 9.03478 83.6396 9.40812 83.6437 9.75304C83.6477 10.0574 83.6356 10.3557 83.6072 10.6478C83.5828 10.9359 83.5625 11.22 83.5463 11.5C83.5301 11.7759 83.5301 12.0458 83.5463 12.3096C83.5666 12.5693 83.6234 12.8229 83.7167 13.0704C83.7532 13.1638 83.7979 13.2348 83.8506 13.2835C83.9075 13.3322 83.9724 13.3687 84.0454 13.393C84.1185 13.4133 84.1976 13.4255 84.2828 13.4296C84.3721 13.4336 84.4695 13.4357 84.575 13.4357H84.6298C84.7596 13.4357 84.8834 13.462 85.0011 13.5148C85.1188 13.5675 85.2202 13.6386 85.3054 13.7278C85.3947 13.813 85.4657 13.9145 85.5185 14.0322C85.5712 14.1499 85.5976 14.2736 85.5976 14.4035C85.5976 14.5374 85.5712 14.6632 85.5185 14.7809C85.4657 14.8986 85.3947 15 85.3054 15.0852C85.2202 15.1745 85.1188 15.2435 85.0011 15.2922C84.8834 15.3409 84.7596 15.3652 84.6298 15.3652ZM83.6523 14.4096C83.6523 14.2797 83.6787 14.1559 83.7314 14.0383C83.7801 13.9206 83.8491 13.8191 83.9384 13.7339C84.0236 13.6446 84.125 13.5736 84.2427 13.5209C84.3604 13.4681 84.4862 13.4417 84.6201 13.4417H85.734C86.1804 13.4417 86.6613 13.3991 87.1766 13.3139C87.692 13.2246 88.2074 13.109 88.7227 12.967C89.2421 12.8249 89.7433 12.6667 90.2262 12.4922C90.7132 12.3136 91.1494 12.133 91.5349 11.9504C91.2833 11.8896 91.0033 11.8043 90.6949 11.6948C90.3865 11.5852 90.074 11.4777 89.7575 11.3722C89.441 11.2667 89.1326 11.1774 88.8323 11.1043C88.5361 11.0272 88.2703 10.9907 88.0349 10.9948C87.8848 10.9988 87.7387 11.0313 87.5966 11.0922C87.4587 11.149 87.3288 11.222 87.2071 11.3113C87.0894 11.3965 86.9819 11.4899 86.8845 11.5913C86.7911 11.6887 86.71 11.782 86.641 11.8713C86.572 11.9565 86.5172 12.0296 86.4766 12.0904C86.4401 12.1472 86.4219 12.1757 86.4219 12.1757L84.9792 11.3478C85.1416 11.0475 85.3363 10.7594 85.5636 10.4835C85.7908 10.2035 86.0384 9.95797 86.3062 9.74696C86.574 9.53188 86.854 9.36145 87.1462 9.23565C87.4424 9.10986 87.7387 9.04899 88.0349 9.05304C88.254 9.0571 88.4711 9.08348 88.6862 9.13217C88.9053 9.18087 89.1245 9.24377 89.3436 9.32087C89.5627 9.39391 89.7839 9.48116 90.0071 9.58261C90.2303 9.68 90.4555 9.78145 90.6827 9.88696C90.914 10.0006 91.1697 10.1122 91.4497 10.2217C91.7337 10.3313 92.0279 10.4287 92.3323 10.5139C92.6407 10.5991 92.9532 10.6681 93.2697 10.7209C93.5903 10.7736 93.9027 10.8 94.2071 10.8L93.8906 12.5957C93.7972 12.6362 93.6917 12.6849 93.574 12.7417C93.4604 12.7945 93.359 12.8432 93.2697 12.8878L93.1114 12.967C93.2048 13.0765 93.3224 13.1638 93.4645 13.2287C93.6106 13.2936 93.7587 13.3423 93.9088 13.3748C94.063 13.4032 94.2091 13.4214 94.3471 13.4296C94.4891 13.4377 94.6007 13.4417 94.6819 13.4417H94.7671C94.901 13.4417 95.0268 13.4681 95.1445 13.5209C95.2621 13.5736 95.3636 13.6446 95.4488 13.7339C95.5381 13.8191 95.6071 13.9206 95.6558 14.0383C95.7085 14.1559 95.7349 14.2797 95.7349 14.4096C95.7349 14.5435 95.7085 14.6693 95.6558 14.787C95.6071 14.9046 95.5381 15.0061 95.4488 15.0913C95.3636 15.1765 95.2621 15.2435 95.1445 15.2922C95.0268 15.3409 94.901 15.3652 94.7671 15.3652H94.6819C94.2923 15.3652 93.925 15.3307 93.5801 15.2617C93.2392 15.1928 92.9268 15.0933 92.6427 14.9635C92.3627 14.8296 92.1132 14.6693 91.894 14.4826C91.6749 14.2919 91.4943 14.0768 91.3523 13.8374C90.9506 14.0322 90.5326 14.2229 90.0984 14.4096C89.6642 14.5922 89.2137 14.7545 88.7471 14.8965C88.2804 15.0386 87.7955 15.1522 87.2923 15.2374C86.7932 15.3267 86.2737 15.3713 85.734 15.3713L84.6201 15.3652C84.4862 15.3652 84.3604 15.3409 84.2427 15.2922C84.125 15.2435 84.0236 15.1765 83.9384 15.0913C83.8491 15.0061 83.7801 14.9046 83.7314 14.787C83.6787 14.6693 83.6523 14.5435 83.6523 14.4096ZM93.809 14.4035C93.809 14.2696 93.8333 14.1458 93.882 14.0322C93.9307 13.9186 93.9977 13.8191 94.0829 13.7339C94.1681 13.6487 94.2696 13.5817 94.3873 13.533C94.5009 13.4803 94.6246 13.4499 94.7586 13.4417C95.0304 13.4417 95.2658 13.389 95.4646 13.2835C95.6675 13.178 95.8461 13.04 96.0003 12.8696C96.1545 12.6991 96.2925 12.5084 96.4142 12.2974C96.536 12.0864 96.6516 11.8754 96.7612 11.6643V11.6704C96.8667 11.4513 96.9783 11.2342 97.096 11.0191C97.2177 10.8041 97.3496 10.6052 97.4916 10.4226C97.7107 10.167 97.9562 9.97014 98.2281 9.83217C98.5 9.69014 98.7902 9.61913 99.0986 9.61913C99.4638 9.61913 99.7945 9.6942 100.091 9.84435C100.391 9.99449 100.663 10.2096 100.906 10.4896C101.089 10.7087 101.237 10.9603 101.351 11.2443C101.464 11.5243 101.539 11.8226 101.576 12.1391V12.127C101.6 12.2852 101.612 12.4658 101.612 12.6687C101.612 12.8878 101.592 13.1029 101.552 13.3139C101.515 13.5209 101.462 13.7177 101.393 13.9043C101.259 14.2452 101.067 14.5313 100.815 14.7626C100.568 14.9899 100.298 15.1461 100.006 15.2313C99.9081 15.2597 99.8107 15.278 99.7133 15.2861C99.62 15.2983 99.5206 15.3043 99.4151 15.3043C99.2325 15.3043 99.0377 15.282 98.8307 15.2374C98.6278 15.1928 98.427 15.1319 98.2281 15.0548C98.147 15.0183 98.0557 14.9757 97.9542 14.927C97.8528 14.8742 97.7452 14.8174 97.6316 14.7565C97.522 14.6957 97.4125 14.6328 97.3029 14.5678C97.1933 14.5029 97.0919 14.44 96.9986 14.3791C96.8362 14.5293 96.6739 14.6652 96.5116 14.787C96.3493 14.9087 96.1789 15.0122 96.0003 15.0974C95.8217 15.1826 95.631 15.2475 95.4281 15.2922C95.2252 15.3409 95.0041 15.3652 94.7646 15.3652C94.6307 15.3652 94.507 15.3388 94.3933 15.2861C94.2757 15.2374 94.1742 15.1704 94.089 15.0852C93.9997 15 93.9307 14.8986 93.882 14.7809C93.8333 14.6632 93.809 14.5374 93.809 14.4035ZM98.1246 12.8026C98.2504 12.8838 98.3986 12.9629 98.569 13.04C98.7435 13.1171 98.916 13.1861 99.0864 13.247C99.2568 13.3078 99.4131 13.3586 99.5551 13.3991C99.7012 13.4357 99.8107 13.4539 99.8838 13.4539C99.9 13.4539 99.9162 13.4539 99.9325 13.4539C99.9528 13.4499 99.9731 13.4458 99.9933 13.4417C100.042 13.4296 100.089 13.3687 100.133 13.2591C100.182 13.1455 100.2 12.9913 100.188 12.7965C100.188 12.6667 100.152 12.5246 100.079 12.3704C100.006 12.2122 99.9102 12.0661 99.7925 11.9322C99.6748 11.7942 99.5389 11.6806 99.3846 11.5913C99.2345 11.498 99.0803 11.4513 98.922 11.4513C98.8652 11.4513 98.7922 11.5325 98.7029 11.6948C98.6136 11.8571 98.4838 12.0986 98.3133 12.4191V12.413L98.1246 12.8026ZM60.0171 42.5591C59.7371 42.5591 59.4489 42.5449 59.1527 42.5165C58.8605 42.4922 58.5704 42.4414 58.2823 42.3643C57.9942 42.2913 57.7162 42.1899 57.4484 42.06C57.1805 41.9301 56.931 41.7617 56.6997 41.5548C56.4684 41.3519 56.2675 41.1267 56.0971 40.8791C55.9307 40.6357 55.7927 40.3759 55.6831 40.1C55.5736 39.8241 55.4904 39.5359 55.4336 39.2357C55.3808 38.9354 55.3544 38.629 55.3544 38.3165C55.3544 37.651 55.46 36.9794 55.671 36.3017C55.886 35.6241 56.2026 34.9687 56.6205 34.3357L57.9901 35.3217C57.9089 35.4313 57.8136 35.5957 57.704 35.8148C57.5944 36.0339 57.4889 36.2835 57.3875 36.5635C57.286 36.8435 57.2008 37.1417 57.1318 37.4583C57.0629 37.7707 57.0284 38.073 57.0284 38.3652C57.0284 38.702 57.1034 39.0064 57.2536 39.2783C57.4078 39.5501 57.6107 39.7835 57.8623 39.9783C58.1179 40.173 58.4101 40.3252 58.7388 40.4348C59.0715 40.5443 59.4165 40.6032 59.7736 40.6113C60.0617 40.6154 60.3417 40.591 60.6136 40.5383C60.8855 40.4855 61.1431 40.4084 61.3866 40.307C61.6301 40.2055 61.8513 40.0817 62.0501 39.9357C62.253 39.7896 62.4255 39.6252 62.5675 39.4426C62.7136 39.2641 62.8231 39.0693 62.8962 38.8583C62.9733 38.6472 63.0058 38.4261 62.9936 38.1948C62.9855 38.0203 62.953 37.8235 62.8962 37.6043C62.8394 37.3852 62.7704 37.162 62.6892 36.9348C62.6121 36.7035 62.5249 36.4762 62.4275 36.253C62.3342 36.0299 62.2449 35.8249 62.1597 35.6383C62.0785 35.4475 62.0075 35.2852 61.9466 35.1513C61.8858 35.0174 61.8472 34.9261 61.831 34.8774L63.4866 33.9583C63.4988 33.9745 63.5333 34.0475 63.5901 34.1774C63.651 34.3072 63.722 34.4757 63.8031 34.6826C63.8884 34.8855 63.9776 35.1188 64.071 35.3826C64.1643 35.6464 64.2515 35.9223 64.3327 36.2104C64.4179 36.4986 64.491 36.7907 64.5518 37.087C64.6127 37.3832 64.6513 37.6652 64.6675 37.933C64.6715 37.9655 64.6736 38.0041 64.6736 38.0487C64.6736 38.0974 64.6736 38.138 64.6736 38.1704C64.6736 38.5316 64.633 38.8907 64.5518 39.2478C64.4707 39.6049 64.3449 39.9458 64.1744 40.2704C64.0081 40.5991 63.7971 40.9014 63.5414 41.1774C63.2898 41.4574 62.9915 41.6988 62.6466 41.9017C62.3017 42.1087 61.9101 42.269 61.4718 42.3826C61.0336 42.5003 60.5486 42.5591 60.0171 42.5591ZM60.0171 32.5096L61.3684 33.8609L60.0171 35.2122L58.6658 33.8609L60.0171 32.5096ZM65.0689 40.7817C65.641 40.6681 66.1584 40.5241 66.621 40.3496C67.0877 40.1791 67.4955 39.9864 67.8445 39.7713C68.1976 39.5603 68.4877 39.3351 68.715 39.0957C68.9422 38.8562 69.1045 38.6128 69.2019 38.3652C69.0274 38.3652 68.8509 38.3612 68.6724 38.353C68.4938 38.349 68.3416 38.3429 68.2158 38.3348C67.7451 38.2942 67.315 38.1887 66.9254 38.0183C66.5358 37.8519 66.2254 37.6246 65.9941 37.3365C65.8237 37.1174 65.7019 36.88 65.6289 36.6243C65.5599 36.3687 65.5254 36.0988 65.5254 35.8148C65.5254 35.5957 65.5457 35.3765 65.5863 35.1574C65.6268 34.9342 65.6837 34.7191 65.7567 34.5122C65.8297 34.3012 65.915 34.1023 66.0124 33.9157C66.1138 33.729 66.2213 33.5586 66.335 33.4043C66.5784 33.1 66.8442 32.8707 67.1324 32.7165C67.4245 32.5583 67.7309 32.4791 68.0515 32.4791C68.7373 32.4791 69.3561 32.7794 69.908 33.38C70.0784 33.5707 70.2326 33.7817 70.3706 34.013C70.5086 34.2443 70.6303 34.4919 70.7358 34.7557C70.8413 35.0154 70.9266 35.2872 70.9915 35.5713C71.0605 35.8554 71.1071 36.1455 71.1315 36.4417H71.2471C71.381 36.4417 71.5068 36.4661 71.6245 36.5148C71.7422 36.5635 71.8437 36.6325 71.9289 36.7217C72.0181 36.807 72.0892 36.9084 72.1419 37.0261C72.1947 37.1438 72.221 37.2716 72.221 37.4096C72.221 37.5394 72.1947 37.6632 72.1419 37.7809C72.0892 37.8945 72.0181 37.9939 71.9289 38.0791C71.8437 38.1684 71.7422 38.2374 71.6245 38.2861C71.5068 38.3388 71.381 38.3652 71.2471 38.3652H70.9793C70.821 38.9617 70.5674 39.5014 70.2184 39.9843C69.8735 40.4672 69.4596 40.8893 68.9767 41.2504C68.4979 41.6116 67.9622 41.9099 67.3697 42.1452C66.7813 42.3806 66.1645 42.549 65.5193 42.6504L65.0689 40.7817ZM68.0515 34.4087C67.9622 34.4087 67.8628 34.4493 67.7532 34.5304C67.6477 34.6075 67.5483 34.707 67.455 34.8287C67.3616 34.9504 67.2825 35.0864 67.2176 35.2365C67.1567 35.3867 67.1263 35.5328 67.1263 35.6748C67.1263 35.8128 67.1648 35.9264 67.2419 36.0157C67.319 36.1049 67.4164 36.178 67.5341 36.2348C67.6558 36.2875 67.7877 36.3281 67.9297 36.3565C68.0718 36.3809 68.2097 36.3991 68.3437 36.4113C68.4167 36.4194 68.4958 36.4255 68.581 36.4296C68.6703 36.4296 68.7616 36.4296 68.855 36.4296C68.9483 36.4296 69.0396 36.4316 69.1289 36.4357C69.2222 36.4357 69.3074 36.4377 69.3845 36.4417C69.3561 36.2429 69.3115 36.0562 69.2506 35.8817C69.1897 35.7072 69.1208 35.5449 69.0437 35.3948C68.9706 35.2446 68.8895 35.1107 68.8002 34.993C68.715 34.8713 68.6318 34.7658 68.5506 34.6765C68.5222 34.6481 68.4857 34.6177 68.441 34.5852C68.4005 34.5528 68.3579 34.5243 68.3132 34.5C68.2686 34.4716 68.2219 34.4493 68.1732 34.433C68.1286 34.4168 68.088 34.4087 68.0515 34.4087ZM70.2378 37.4035C70.2378 37.2696 70.2622 37.1438 70.3109 37.0261C70.3596 36.9084 70.4286 36.807 70.5178 36.7217C70.6031 36.6325 70.7045 36.5635 70.8222 36.5148C70.9399 36.4661 71.0657 36.4417 71.1996 36.4417H71.6622C71.9544 36.4417 72.2344 36.4296 72.5022 36.4052C72.7741 36.3809 73.0135 36.3301 73.2204 36.253C73.4274 36.1719 73.5938 36.0603 73.7196 35.9183C73.8494 35.7722 73.9184 35.5794 73.9265 35.34C73.9306 35.2507 73.9306 35.1777 73.9265 35.1209C73.9265 35.06 73.9164 34.989 73.8961 34.9078C73.8758 34.8226 73.8454 34.713 73.8048 34.5791C73.7683 34.4412 73.7155 34.2484 73.6465 34.0009L75.4178 33.5017C75.4949 33.6965 75.566 33.9542 75.6309 34.2748C75.6958 34.5954 75.7445 34.9464 75.777 35.3278C75.7851 35.4496 75.7993 35.5754 75.8196 35.7052C75.8399 35.8351 75.8723 35.9548 75.917 36.0643C75.9657 36.1739 76.0306 36.2652 76.1118 36.3383C76.1929 36.4072 76.2984 36.4417 76.4283 36.4417C76.5622 36.4417 76.688 36.4661 76.8057 36.5148C76.9233 36.5635 77.0248 36.6325 77.11 36.7217C77.1993 36.807 77.2683 36.9084 77.317 37.0261C77.3697 37.1438 77.3961 37.2696 77.3961 37.4035C77.3961 37.5374 77.3697 37.6632 77.317 37.7809C77.2683 37.8986 77.1993 38 77.11 38.0852C77.0207 38.1745 76.9173 38.2435 76.7996 38.2922C76.686 38.3409 76.5642 38.3652 76.4344 38.3652C76.0448 38.3652 75.71 38.3043 75.43 38.1826C75.1541 38.0649 74.9167 37.9107 74.7178 37.72C74.5352 37.8417 74.3242 37.9432 74.0848 38.0243C73.8494 38.1055 73.5978 38.1704 73.33 38.2191C73.0622 38.2719 72.7862 38.3084 72.5022 38.3287C72.2181 38.353 71.9381 38.3652 71.6622 38.3652H71.1996C71.0657 38.3652 70.9399 38.3409 70.8222 38.2922C70.7045 38.2435 70.6031 38.1745 70.5178 38.0852C70.4286 38 70.3596 37.8986 70.3109 37.7809C70.2622 37.6632 70.2378 37.5374 70.2378 37.4035ZM76.0631 40.5504L74.8944 41.7252L73.7378 40.5687L72.5935 41.713L71.4126 40.5383L72.5813 39.3635L73.7378 40.52L74.8822 39.3757L76.0631 40.5504ZM75.4559 37.4035C75.4559 37.2777 75.4823 37.158 75.535 37.0443C75.5878 36.9307 75.6608 36.8313 75.7542 36.7461C75.8434 36.6568 75.951 36.5858 76.0768 36.533C76.1985 36.4803 76.3304 36.4499 76.4724 36.4417C76.6875 36.4417 76.8884 36.4072 77.075 36.3383C77.2617 36.2652 77.4382 36.1272 77.6046 35.9243C77.771 35.7214 77.9272 35.4354 78.0733 35.0661C78.2194 34.6968 78.3594 34.2139 78.4933 33.6174L80.1124 33.8487C80.1246 33.8 80.1165 33.8264 80.0881 33.9278C80.0637 34.0293 80.0333 34.1733 79.9968 34.36C79.9643 34.5426 79.9318 34.7496 79.8994 34.9809C79.871 35.2081 79.8568 35.4272 79.8568 35.6383C79.8608 35.8452 79.8852 36.0258 79.9298 36.18C79.9785 36.3301 80.0617 36.4194 80.1794 36.4478C80.3052 36.4803 80.4269 36.4559 80.5446 36.3748C80.6623 36.2896 80.7739 36.1699 80.8794 36.0157C80.9849 35.8574 81.0823 35.6748 81.1716 35.4678C81.2608 35.2568 81.342 35.0417 81.415 34.8226C81.4881 34.6035 81.551 34.3884 81.6037 34.1774C81.6565 33.9664 81.6971 33.7797 81.7255 33.6174L83.3324 33.8487C83.3243 33.9501 83.3101 34.0861 83.2898 34.2565C83.2695 34.4229 83.2533 34.6014 83.2411 34.7922C83.229 34.9829 83.2229 35.1757 83.2229 35.3704C83.2269 35.5612 83.2492 35.7357 83.2898 35.8939C83.3304 36.0481 83.3933 36.1759 83.4785 36.2774C83.5637 36.3748 83.6814 36.4235 83.8316 36.4235C83.9655 36.4235 84.0811 36.3788 84.1785 36.2896C84.2759 36.2003 84.3571 36.0846 84.422 35.9426C84.491 35.7965 84.5458 35.6322 84.5863 35.4496C84.6269 35.2629 84.6574 35.0742 84.6776 34.8835C84.6979 34.6928 84.7081 34.5081 84.7081 34.3296C84.7081 34.147 84.702 33.9867 84.6898 33.8487L86.3333 33.6174L86.5342 35.3339C86.5585 35.5206 86.6113 35.6829 86.6924 35.8209C86.7736 35.9588 86.869 36.0745 86.9785 36.1678C87.0881 36.2571 87.2037 36.3261 87.3255 36.3748C87.4472 36.4194 87.5629 36.4417 87.6724 36.4417H87.7455C87.8956 36.4417 88.0316 36.4661 88.1533 36.5148C88.2791 36.5635 88.3866 36.6325 88.4759 36.7217C88.5652 36.807 88.6342 36.9084 88.6829 37.0261C88.7316 37.1438 88.7559 37.2696 88.7559 37.4035C88.7559 37.5374 88.7316 37.6632 88.6829 37.7809C88.6342 37.8986 88.5632 38 88.4698 38.0852C88.3805 38.1704 88.2669 38.2374 88.129 38.2861C87.995 38.3388 87.8429 38.3652 87.6724 38.3652C87.2788 38.3652 86.9075 38.2962 86.5585 38.1583C86.2095 38.0203 85.9072 37.787 85.6516 37.4583C85.6272 37.4907 85.6029 37.5191 85.5785 37.5435C85.5542 37.5678 85.5318 37.5922 85.5116 37.6165V37.6104C85.2924 37.8417 85.0388 38.0243 84.7507 38.1583C84.4666 38.2962 84.1603 38.3652 83.8316 38.3652C83.4623 38.3652 83.1214 38.2861 82.809 38.1278C82.5005 37.9696 82.2429 37.7545 82.0359 37.4826C81.7924 37.7504 81.5165 37.9675 81.2081 38.1339C80.8997 38.3003 80.5608 38.3835 80.1916 38.3835C79.8466 38.3835 79.5261 38.3064 79.2298 38.1522C78.9336 37.998 78.6881 37.787 78.4933 37.5191C78.2742 37.8235 78.0023 38.0406 77.6776 38.1704C77.3571 38.3003 76.9594 38.3652 76.4846 38.3652C76.3304 38.3652 76.1904 38.3388 76.0646 38.2861C75.9388 38.2374 75.8313 38.1704 75.742 38.0852C75.6527 38 75.5837 37.8986 75.535 37.7809C75.4823 37.6632 75.4559 37.5374 75.4559 37.4035ZM86.7398 37.4035C86.7398 37.2696 86.7641 37.1438 86.8128 37.0261C86.8615 36.9084 86.9305 36.807 87.0198 36.7217C87.105 36.6325 87.2065 36.5635 87.3241 36.5148C87.4418 36.4661 87.5676 36.4417 87.7015 36.4417H88.1641C88.4563 36.4417 88.7363 36.4296 89.0041 36.4052C89.276 36.3809 89.5154 36.3301 89.7224 36.253C89.9294 36.1719 90.0957 36.0603 90.2215 35.9183C90.3514 35.7722 90.4204 35.5794 90.4285 35.34C90.4325 35.2507 90.4325 35.1777 90.4285 35.1209C90.4285 35.06 90.4183 34.989 90.3981 34.9078C90.3778 34.8226 90.3473 34.713 90.3067 34.5791C90.2702 34.4412 90.2175 34.2484 90.1485 34.0009L91.9198 33.5017C91.9969 33.6965 92.0679 33.9542 92.1328 34.2748C92.1978 34.5954 92.2465 34.9464 92.2789 35.3278C92.287 35.4496 92.3012 35.5754 92.3215 35.7052C92.3418 35.8351 92.3743 35.9548 92.4189 36.0643C92.4676 36.1739 92.5325 36.2652 92.6137 36.3383C92.6949 36.4072 92.8004 36.4417 92.9302 36.4417C93.0641 36.4417 93.1899 36.4661 93.3076 36.5148C93.4253 36.5635 93.5267 36.6325 93.612 36.7217C93.7012 36.807 93.7702 36.9084 93.8189 37.0261C93.8717 37.1438 93.8981 37.2696 93.8981 37.4035C93.8981 37.5374 93.8717 37.6632 93.8189 37.7809C93.7702 37.8986 93.7012 38 93.612 38.0852C93.5227 38.1745 93.4192 38.2435 93.3015 38.2922C93.1879 38.3409 93.0662 38.3652 92.9363 38.3652C92.5467 38.3652 92.212 38.3043 91.932 38.1826C91.656 38.0649 91.4186 37.9107 91.2198 37.72C91.0372 37.8417 90.8262 37.9432 90.5867 38.0243C90.3514 38.1055 90.0998 38.1704 89.832 38.2191C89.5641 38.2719 89.2882 38.3084 89.0041 38.3287C88.7201 38.353 88.4401 38.3652 88.1641 38.3652H87.7015C87.5676 38.3652 87.4418 38.3409 87.3241 38.2922C87.2065 38.2435 87.105 38.1745 87.0198 38.0852C86.9305 38 86.8615 37.8986 86.8128 37.7809C86.7641 37.6632 86.7398 37.5374 86.7398 37.4035ZM92.565 40.5504L91.3963 41.7252L90.2398 40.5687L89.0954 41.713L87.9146 40.5383L89.0833 39.3635L90.2398 40.52L91.3841 39.3757L92.565 40.5504ZM98.0083 36.6243C98.1381 36.5919 98.2153 36.4235 98.2396 36.1191C98.2639 35.8026 98.2051 35.5186 98.0631 35.267C97.9373 35.0357 97.7466 34.8348 97.4909 34.6643C97.2353 34.4939 97.0425 34.4351 96.9126 34.4878C96.7382 34.5609 96.4744 35.0113 96.1213 35.8391C97.1399 36.4235 97.7689 36.6852 98.0083 36.6243ZM101.082 37.4035C101.082 37.6672 100.989 37.8925 100.802 38.0791C100.611 38.2658 100.384 38.3612 100.12 38.3652H100.114C99.6031 38.3652 99.1892 38.1907 98.8726 37.8417C98.5399 38.1745 98.1158 38.3409 97.6005 38.3409C97.0039 38.3409 96.1376 38.0406 95.0013 37.44C94.9283 37.5942 94.7883 37.7504 94.5813 37.9087C94.3987 38.0467 94.1897 38.1542 93.9544 38.2313C93.6581 38.3287 93.3254 38.3774 92.9561 38.3774C92.6883 38.3774 92.461 38.2841 92.2744 38.0974C92.0877 37.9107 91.9944 37.6835 91.9944 37.4157C91.9944 37.1519 92.0877 36.9267 92.2744 36.74C92.461 36.5533 92.6883 36.46 92.9561 36.46C93.4634 36.46 93.9057 36.2084 94.2831 35.7052C94.417 35.5226 94.559 35.2852 94.7092 34.993C94.7538 34.9038 94.8147 34.782 94.8918 34.6278L94.977 34.4452L95.0622 34.2748C95.61 33.1872 96.2938 32.6435 97.1135 32.6435C97.71 32.6435 98.2376 32.8423 98.6961 33.24C99.2155 33.6904 99.5097 34.3093 99.5787 35.0965L99.5848 35.1513C99.5929 35.1757 99.597 35.2041 99.597 35.2365C99.6051 35.4354 99.6335 35.6362 99.6822 35.8391C99.7268 36.0136 99.7796 36.1516 99.8405 36.253C99.9216 36.3788 100.015 36.4417 100.12 36.4417C100.384 36.4417 100.609 36.5351 100.796 36.7217C100.987 36.9084 101.082 37.1357 101.082 37.4035ZM99.0823 37.4096C99.0823 37.2716 99.1067 37.1438 99.1554 37.0261C99.204 36.9084 99.2751 36.807 99.3684 36.7217C99.4577 36.6325 99.5652 36.5635 99.691 36.5148C99.8127 36.4661 99.9507 36.4417 100.105 36.4417H100.446H100.744C100.963 36.4417 101.205 36.4397 101.468 36.4357C101.732 36.4275 101.986 36.4072 102.229 36.3748C102.477 36.3383 102.698 36.2855 102.893 36.2165C103.092 36.1475 103.236 36.0522 103.325 35.9304C103.447 35.7438 103.508 35.5307 103.508 35.2913C103.508 35.2101 103.499 35.129 103.483 35.0478C103.471 34.9626 103.455 34.8754 103.434 34.7861C103.406 34.6846 103.345 34.5629 103.252 34.4209C103.163 34.2748 103.047 34.1165 102.905 33.9461C102.763 33.7716 102.601 33.589 102.418 33.3983C102.235 33.2035 102.041 33.0067 101.834 32.8078C101.627 32.6049 101.41 32.4041 101.182 32.2052C100.955 32.0064 100.728 31.8136 100.501 31.627L100.689 29.9713L105.802 27.6948L106.539 29.3261L102.497 31.2009C102.696 31.3388 102.901 31.5032 103.112 31.6939C103.323 31.8846 103.528 32.0936 103.727 32.3209C103.925 32.5441 104.112 32.7814 104.287 33.033C104.461 33.2846 104.613 33.5423 104.743 33.8061C104.873 34.0699 104.974 34.3357 105.048 34.6035C105.125 34.8713 105.161 35.133 105.157 35.3887C105.153 35.693 105.112 35.9771 105.035 36.2409C104.958 36.5006 104.863 36.7339 104.749 36.9409C104.327 37.6957 103.631 38.1562 102.661 38.3226L102.668 38.3165C102.558 38.3368 102.454 38.351 102.357 38.3591C102.26 38.3672 102.164 38.3713 102.071 38.3713L100.105 38.3652C99.9548 38.3652 99.8168 38.3409 99.691 38.2922C99.5652 38.2435 99.4577 38.1745 99.3684 38.0852C99.2791 38 99.2101 37.9006 99.1614 37.787C99.1087 37.6693 99.0823 37.5435 99.0823 37.4096Z" fill="#303030"/>
</svg>
