<svg width="147" height="90" viewBox="0 0 147 90" fill="none" xmlns="http://www.w3.org/2000/svg">
<rect x="0.75" y="0.75" width="145.5" height="88.5" rx="9.25" fill="white" stroke="url(#paint0_linear_1325_10417)" stroke-width="1.5"/>
<path d="M50.4244 44.8808C50.577 44.8808 50.7234 44.82 50.8313 44.7118C50.9392 44.6035 50.9998 44.4568 50.9998 44.3037C50.9998 44.1507 50.9392 44.0039 50.8313 43.8957C50.7234 43.7875 50.577 43.7267 50.4244 43.7267H45.8211V35.0712C45.8212 34.9724 45.7959 34.8752 45.7477 34.7891C45.6996 34.7029 45.6301 34.6305 45.5461 34.579L43.1219 33.0879L44.679 28.4162C44.7032 28.3444 44.7131 28.2684 44.7079 28.1927C44.7028 28.117 44.6827 28.0431 44.649 27.9752C44.6152 27.9073 44.5684 27.8468 44.5113 27.7971C44.4541 27.7474 44.3877 27.7096 44.3159 27.6857L42.1328 26.9546C42.0612 26.9303 41.9855 26.9204 41.91 26.9255C41.8346 26.9306 41.7609 26.9507 41.6932 26.9844C41.6255 27.0182 41.5651 27.0651 41.5155 27.1224C41.466 27.1796 41.4282 27.2462 41.4043 27.3181L37.7563 38.2645C37.7321 38.3363 37.7224 38.4122 37.7275 38.4878C37.7327 38.5635 37.7528 38.6373 37.7865 38.7051C37.8203 38.773 37.867 38.8335 37.9241 38.8831C37.9813 38.9327 38.0476 38.9706 38.1194 38.9944L40.3019 39.7255C40.4465 39.7742 40.6046 39.7632 40.7412 39.695C40.8778 39.6269 40.9818 39.5071 41.0303 39.362L42.7468 34.2114L44.6703 35.3943V43.7267H34.5685C34.7665 43.3862 34.8885 42.995 34.8885 42.5726C34.8885 41.2997 33.8562 40.2645 32.5868 40.2645H25.682V38.5334C25.682 35.6696 23.3591 33.3401 20.5033 33.3401C17.6476 33.3401 15.3247 35.6696 15.3247 38.5334V45.9385C15.3247 49.1733 17.9486 51.8052 21.1748 51.8052H25.1066V63.9229C25.1066 64.076 25.1672 64.2227 25.2751 64.3309C25.383 64.4392 25.5294 64.5 25.682 64.5H30.2852C30.4378 64.5 30.5842 64.4392 30.6921 64.3309C30.8 64.2227 30.8606 64.076 30.8606 63.9229V63.508C30.8606 62.6309 30.3992 61.8641 29.7098 61.4255V49.0643C29.7089 48.2611 29.3903 47.4911 28.824 46.9231C28.2577 46.3552 27.4899 46.0358 26.6889 46.0348H25.682V44.8808H38.3409V61.0377H35.4639C35.3113 61.0377 35.1649 61.0985 35.057 61.2068C34.9491 61.315 34.8885 61.4617 34.8885 61.6148V63.9229C34.8885 64.076 34.9491 64.2227 35.057 64.3309C35.1649 64.4392 35.3113 64.5 35.4639 64.5H50.4244C50.577 64.5 50.7234 64.4392 50.8313 64.3309C50.9392 64.2227 50.9998 64.076 50.9998 63.9229V61.6148C50.9998 61.4617 50.9392 61.315 50.8313 61.2068C50.7234 61.0985 50.577 61.0377 50.4244 61.0377H49.849V44.8808H50.4244ZM40.1218 38.4486L39.0308 38.0827L42.3141 28.2316L43.405 28.5974L40.1218 38.4486ZM26.2574 63.3459V62.1918H28.3973C29.0665 62.1918 29.6201 62.6961 29.6995 63.3459H26.2574ZM25.1066 47.1889H26.6889C27.1847 47.1895 27.66 47.3873 28.0106 47.7389C28.3612 48.0904 28.5584 48.5671 28.559 49.0643V61.0377H26.2574V51.2282C26.2574 51.0751 26.1968 50.9283 26.0889 50.8201C25.981 50.7119 25.8346 50.6511 25.682 50.6511H21.1748C18.5838 50.6511 16.4755 48.5369 16.4755 45.9385V38.5334C16.4755 36.306 18.2823 34.4941 20.5033 34.4941C22.7244 34.4941 24.5312 36.306 24.5312 38.5334V40.2645H23.3804V38.5334C23.3804 37.2604 22.3481 36.2252 21.0788 36.2252C19.8094 36.2252 18.7771 37.2604 18.7771 38.5334V42.1399C18.7771 43.6517 20.0027 44.8808 21.5103 44.8808H24.5312V46.6119C24.5312 46.7649 24.5918 46.9117 24.6997 47.0199C24.8076 47.1281 24.954 47.1889 25.1066 47.1889ZM26.8328 43.7267H21.5103C21.0908 43.7262 20.6886 43.5589 20.3919 43.2614C20.0953 42.9639 19.9284 42.5606 19.9279 42.1399V38.5334C19.9279 37.8969 20.4441 37.3793 21.0788 37.3793C21.7134 37.3793 22.2296 37.8969 22.2296 38.5334V40.8415C22.2296 40.9946 22.2902 41.1413 22.3981 41.2495C22.506 41.3578 22.6524 41.4186 22.805 41.4186H32.5868C33.2215 41.4186 33.7377 41.9362 33.7377 42.5726C33.7377 43.2091 33.2215 43.7267 32.5868 43.7267H26.8328ZM49.849 63.3459H36.0393V62.1918H49.849V63.3459ZM48.6982 61.0377H39.4917V44.8808H48.6982V61.0377Z" fill="#303030"/>
<path d="M20.6453 33.6429C23.0763 33.6429 25.0543 31.592 25.0543 29.0714C25.0543 26.5509 23.0763 24.5 20.6453 24.5C18.2142 24.5 16.2362 26.5509 16.2362 29.0714C16.2362 31.592 18.2142 33.6429 20.6453 33.6429ZM20.6453 25.6429C22.469 25.6429 23.952 27.1806 23.952 29.0714C23.952 30.9623 22.469 32.5 20.6453 32.5C18.8216 32.5 17.3385 30.9623 17.3385 29.0714C17.3385 27.1806 18.8216 25.6429 20.6453 25.6429ZM22.2645 52.5H12.9642C12.6649 52.5018 12.3701 52.5753 12.1027 52.7149V49.9286H12.3441C12.8647 49.928 13.3638 49.7132 13.7318 49.3315C14.0999 48.9498 14.3068 48.4323 14.3073 47.8926V38.8217C14.3068 38.2819 14.0998 37.7643 13.7316 37.3825C13.3635 37.0008 12.8643 36.7862 12.3436 36.7857H11.5516C11.4054 36.7857 11.2653 36.8459 11.1619 36.9531C11.0586 37.0602 11.0005 37.2056 11.0005 37.3571V55.3571C11.0005 55.5087 11.0586 55.654 11.1619 55.7612C11.2653 55.8684 11.4054 55.9286 11.5516 55.9286H17.0629V59.5514L13.539 61.1177C13.4398 61.1617 13.3553 61.2349 13.2959 61.3283C13.2366 61.4216 13.2049 61.531 13.205 61.6429V63.9286C13.205 64.0801 13.2631 64.2255 13.3664 64.3326C13.4698 64.4398 13.61 64.5 13.7561 64.5C13.9023 64.5 14.0425 64.4398 14.1458 64.3326C14.2492 64.2255 14.3073 64.0801 14.3073 63.9286V62.02L17.0629 60.7949V63.9286C17.0629 64.0801 17.121 64.2255 17.2243 64.3326C17.3277 64.4398 17.4679 64.5 17.6141 64.5C17.7602 64.5 17.9004 64.4398 18.0038 64.3326C18.1071 64.2255 18.1652 64.0801 18.1652 63.9286V60.7949L20.9208 62.0194V63.9286C20.9208 64.0801 20.9789 64.2255 21.0823 64.3326C21.1856 64.4398 21.3258 64.5 21.472 64.5C21.6181 64.5 21.7583 64.4398 21.8617 64.3326C21.965 64.2255 22.0231 64.0801 22.0231 63.9286V61.6429C22.0231 61.4143 21.8919 61.2074 21.6891 61.1177L18.1652 59.552V55.9286H23.6765C23.8227 55.9286 23.9628 55.8684 24.0662 55.7612C24.1695 55.654 24.2276 55.5087 24.2276 55.3571V54.5354C24.227 53.9957 24.0199 53.4782 23.6518 53.0966C23.2836 52.715 22.7851 52.5005 22.2645 52.5ZM12.1027 37.9286H12.3441C12.8181 37.9286 13.205 38.3291 13.205 38.8217V47.8931C13.205 48.3846 12.8187 48.7857 12.3436 48.7857H12.1027V37.9286ZM23.1254 54.7857H12.1027V54.5354C12.1027 54.0446 12.4891 53.6429 12.9642 53.6429H22.2639C22.7396 53.6429 23.1254 54.0434 23.1254 54.536V54.7857Z" fill="#303030"/>
<path d="M76.5985 31.4435C76.6229 31.4922 76.6655 31.5814 76.7263 31.7113C76.7913 31.8371 76.8643 31.9913 76.9455 32.1739C77.0266 32.3525 77.1118 32.5533 77.2011 32.7765C77.2904 32.9997 77.3716 33.2351 77.4446 33.4826C77.5176 33.7261 77.5765 33.9757 77.6211 34.2313C77.6698 34.4829 77.6942 34.7304 77.6942 34.9739C77.6901 35.3757 77.6292 35.751 77.5116 36.1C77.3979 36.449 77.2295 36.7533 77.0063 37.013C76.7831 37.2687 76.5072 37.4716 76.1785 37.6217C75.8498 37.7719 75.4704 37.847 75.0403 37.847C74.6669 37.847 74.3605 37.7841 74.1211 37.6583C73.8858 37.5325 73.691 37.36 73.5368 37.1409C73.4516 37.2504 73.3603 37.3499 73.2629 37.4391C73.1655 37.5243 73.0498 37.5974 72.9159 37.6583C72.786 37.7232 72.6318 37.7719 72.4533 37.8043C72.2788 37.8368 72.0698 37.853 71.8263 37.853C71.6559 37.853 71.4997 37.8409 71.3576 37.8165C71.2156 37.7922 71.0858 37.7617 70.9681 37.7252C70.964 38.2 70.891 38.6322 70.7489 39.0217C70.611 39.4113 70.4203 39.7603 70.1768 40.0687C69.9374 40.3771 69.6553 40.6449 69.3307 40.8722C69.006 41.0994 68.6571 41.2861 68.2837 41.4322C67.9104 41.5823 67.5188 41.6939 67.1089 41.767C66.7031 41.84 66.2994 41.8765 65.8976 41.8765C65.2768 41.8765 64.7026 41.773 64.175 41.5661C63.6475 41.3632 63.191 41.0751 62.8055 40.7017C62.424 40.3325 62.1258 39.8861 61.9107 39.3626C61.6956 38.8432 61.5881 38.269 61.5881 37.64C61.6003 37.2748 61.6489 36.9014 61.7342 36.52C61.8234 36.1386 61.935 35.7652 62.0689 35.4C62.2069 35.0348 62.3591 34.6878 62.5255 34.3591C62.6959 34.0264 62.8684 33.7281 63.0429 33.4643L64.3698 34.487C64.2237 34.7264 64.0817 34.98 63.9437 35.2478C63.8058 35.5116 63.684 35.7835 63.5785 36.0635C63.473 36.3394 63.3878 36.6154 63.3229 36.8913C63.2579 37.1672 63.2255 37.433 63.2255 37.6887C63.2133 37.9971 63.2742 38.2872 63.4081 38.5591C63.546 38.831 63.7347 39.0684 63.9742 39.2713C64.2176 39.4783 64.5017 39.6406 64.8263 39.7583C65.155 39.8759 65.504 39.9348 65.8733 39.9348C66.2913 39.9348 66.6768 39.8962 67.0298 39.8191C67.3869 39.742 67.7014 39.6345 67.9733 39.4965C68.2492 39.3626 68.4805 39.1983 68.6672 39.0035C68.8539 38.8128 68.9878 38.6017 69.0689 38.3704L69.0629 38.3765C69.1643 38.0438 69.215 37.7009 69.215 37.3478C69.215 37.0759 69.1765 36.8 69.0994 36.52C69.0223 36.24 68.9229 35.958 68.8011 35.6739C68.6794 35.3858 68.5434 35.0977 68.3933 34.8096C68.2472 34.5174 68.1031 34.2252 67.9611 33.933L69.6289 32.9957C69.7345 33.2351 69.84 33.4765 69.9455 33.72C70.051 33.9635 70.1565 34.1968 70.262 34.42C70.3716 34.6391 70.4831 34.8441 70.5968 35.0348C70.7104 35.2255 70.8281 35.3899 70.9498 35.5278C71.0716 35.6617 71.1974 35.7632 71.3272 35.8322C71.4611 35.9012 71.6031 35.9255 71.7533 35.9052C71.9237 35.8809 72.0617 35.822 72.1672 35.7287C72.2727 35.6313 72.3518 35.5116 72.4046 35.3696C72.4614 35.2275 72.4959 35.0693 72.5081 34.8948C72.5243 34.7162 72.5284 34.5357 72.5203 34.353C72.5121 34.1704 72.4979 33.9899 72.4776 33.8113C72.4614 33.6328 72.4472 33.4684 72.435 33.3183L74.115 33.093C74.1434 33.2188 74.1678 33.371 74.1881 33.5496C74.2084 33.7241 74.2307 33.9087 74.255 34.1035C74.2834 34.2983 74.3179 34.4951 74.3585 34.6939C74.3991 34.8928 74.4539 35.0774 74.5229 35.2478C74.5918 35.4183 74.6771 35.5664 74.7785 35.6922C74.88 35.818 75.0078 35.9072 75.162 35.96C75.2878 35.96 75.4055 35.9377 75.515 35.893C75.6246 35.8443 75.72 35.7754 75.8011 35.6861C75.8823 35.5968 75.9452 35.4872 75.9898 35.3574C76.0385 35.2235 76.0629 35.0693 76.0629 34.8948C76.0629 34.7487 76.0345 34.5803 75.9776 34.3896C75.9249 34.1948 75.8518 33.9858 75.7585 33.7626C75.6652 33.5394 75.5556 33.3061 75.4298 33.0626C75.3081 32.8151 75.1782 32.5655 75.0403 32.3139L76.5985 31.4435ZM75.2837 30.5365L74.115 31.7113L72.9585 30.5548L71.8142 31.6991L70.6333 30.5243L71.802 29.3496L72.9585 30.5061L74.1029 29.3617L75.2837 30.5365ZM71.875 28.7713L72.9585 27.6878L74.0481 28.7774L72.9646 29.8609L71.875 28.7713ZM81.0832 33.9087C80.998 33.8925 80.9006 33.9229 80.791 34C80.6855 34.073 80.5841 34.1745 80.4867 34.3043C80.3934 34.4301 80.3142 34.5701 80.2493 34.7243C80.1884 34.8786 80.158 35.0267 80.158 35.1687C80.158 35.3026 80.1966 35.4142 80.2737 35.5035C80.3508 35.5928 80.4481 35.6658 80.5658 35.7226C80.6876 35.7794 80.8195 35.822 80.9615 35.8504C81.1076 35.8788 81.2476 35.8991 81.3815 35.9113H81.3754C81.4809 35.9194 81.6006 35.9255 81.7345 35.9296C81.8725 35.9296 82.0064 35.9296 82.1363 35.9296C82.1768 35.9296 82.2073 35.9316 82.2276 35.9357C82.2519 35.9357 82.2722 35.9357 82.2884 35.9357C82.3047 35.9357 82.3209 35.9357 82.3371 35.9357C82.3574 35.9357 82.3858 35.9336 82.4223 35.9296C82.3615 35.678 82.2884 35.4386 82.2032 35.2113C82.1221 34.98 82.0267 34.773 81.9171 34.5904C81.8076 34.4078 81.6838 34.2577 81.5458 34.14C81.4079 34.0183 81.2537 33.9412 81.0832 33.9087ZM78.1006 40.2817C78.6728 40.1681 79.1942 40.0241 79.665 39.8496C80.1357 39.6791 80.5476 39.4864 80.9006 39.2713C81.2577 39.0603 81.5519 38.8351 81.7832 38.5957C82.0186 38.3562 82.185 38.1128 82.2823 37.8652C82.1079 37.8652 81.9232 37.8612 81.7284 37.853C81.5337 37.849 81.3734 37.8429 81.2476 37.8348C80.7768 37.7942 80.3467 37.6887 79.9571 37.5183C79.5676 37.3519 79.2571 37.1246 79.0258 36.8365C78.8554 36.6174 78.7337 36.38 78.6606 36.1243C78.5916 35.8687 78.5571 35.5988 78.5571 35.3148C78.5571 35.0957 78.5774 34.8765 78.618 34.6574C78.6586 34.4342 78.7154 34.2191 78.7884 34.0122C78.8615 33.8012 78.9467 33.6023 79.0441 33.4157C79.1455 33.229 79.2531 33.0586 79.3667 32.9043C79.6102 32.6 79.876 32.3707 80.1641 32.2165C80.4563 32.0583 80.7626 31.9791 81.0832 31.9791C81.769 31.9791 82.3879 32.2794 82.9397 32.88C83.1345 33.0991 83.309 33.3446 83.4632 33.6165C83.6174 33.8884 83.7473 34.1786 83.8528 34.487C83.9623 34.7913 84.0455 35.1119 84.1023 35.4487C84.1592 35.7814 84.1876 36.1203 84.1876 36.4652C84.1876 36.5707 84.1835 36.6762 84.1754 36.7817C84.1713 36.8872 84.1652 36.9867 84.1571 37.08C84.1084 37.5548 84.0009 37.9991 83.8345 38.413C83.6722 38.831 83.4612 39.2145 83.2015 39.5635C82.9458 39.9165 82.6476 40.2351 82.3067 40.5191C81.9658 40.8072 81.5945 41.0588 81.1928 41.2739C80.7951 41.493 80.3731 41.6757 79.9267 41.8217C79.4803 41.9678 79.0218 42.0774 78.551 42.1504L78.1006 40.2817ZM89.3443 37.8652C89.255 37.8652 89.1292 37.8591 88.9669 37.847C88.8046 37.8348 88.6301 37.7901 88.4434 37.713C88.3541 38.2162 88.1857 38.693 87.9382 39.1435C87.6947 39.598 87.3924 40.022 87.0312 40.4157C86.6701 40.8133 86.2582 41.1786 85.7956 41.5113C85.333 41.8441 84.8399 42.1423 84.3164 42.4061L83.2025 40.8661C83.4906 40.72 83.7808 40.5597 84.073 40.3852C84.3651 40.2148 84.6431 40.0322 84.9069 39.8374C85.1747 39.6467 85.4222 39.4458 85.6495 39.2348C85.8808 39.0278 86.0817 38.8128 86.2521 38.5896C86.4225 38.3664 86.5564 38.1371 86.6538 37.9017C86.7512 37.6704 86.7999 37.4351 86.7999 37.1957C86.7999 37.1835 86.7979 37.1652 86.7938 37.1409C86.7938 37.1165 86.7938 37.0922 86.7938 37.0678C86.7938 37.0435 86.7918 37.0252 86.7877 37.013C86.7877 37.0009 86.7877 37.0029 86.7877 37.0191V37.0252C86.7593 36.7899 86.7188 36.5646 86.666 36.3496C86.6133 36.1345 86.5463 35.9154 86.4651 35.6922C86.388 35.469 86.2967 35.2357 86.1912 34.9922C86.0857 34.7446 85.968 34.4748 85.8382 34.1826L87.5973 33.4157C87.7596 33.9026 87.9118 34.3084 88.0538 34.633C88.1959 34.9577 88.3338 35.2174 88.4677 35.4122C88.6057 35.607 88.7437 35.7449 88.8817 35.8261C89.0196 35.9032 89.1657 35.9417 89.3199 35.9417H89.3504C89.4843 35.9417 89.6101 35.9681 89.7277 36.0209C89.8454 36.0736 89.9469 36.1446 90.0321 36.2339C90.1214 36.3191 90.1904 36.4206 90.239 36.5383C90.2918 36.6559 90.3182 36.7797 90.3182 36.9096C90.3182 37.0435 90.2918 37.1693 90.239 37.287C90.1904 37.4046 90.1214 37.5061 90.0321 37.5913C89.9469 37.6765 89.8454 37.7435 89.7277 37.7922C89.6101 37.8409 89.4822 37.8652 89.3443 37.8652ZM88.3115 36.9035C88.3115 36.7696 88.3379 36.6438 88.3906 36.5261C88.4393 36.4084 88.5083 36.307 88.5976 36.2217C88.6828 36.1325 88.7863 36.0635 88.908 36.0148C89.0257 35.9661 89.1515 35.9417 89.2854 35.9417C89.4356 35.9417 89.6202 35.9397 89.8393 35.9357C90.0625 35.9275 90.2999 35.9154 90.5515 35.8991C90.8031 35.8829 91.0588 35.8626 91.3185 35.8383C91.5822 35.8139 91.8318 35.7814 92.0672 35.7409C92.3066 35.7003 92.5216 35.6536 92.7124 35.6009C92.9072 35.5441 93.0593 35.4791 93.1689 35.4061C92.759 35.4507 92.3816 35.469 92.0367 35.4609C91.6918 35.4487 91.3834 35.4142 91.1115 35.3574C90.8396 35.3006 90.6063 35.2235 90.4115 35.1261C90.2208 35.0246 90.0747 34.909 89.9732 34.7791V34.7852C89.8637 34.6472 89.7602 34.4626 89.6628 34.2313C89.5695 34 89.5228 33.7139 89.5228 33.373C89.5228 33.1904 89.535 33.02 89.5593 32.8617C89.6811 32.1719 89.9245 31.6017 90.2898 31.1513L90.2837 31.1574C90.5028 30.8652 90.7503 30.6481 91.0263 30.5061C91.3022 30.36 91.5924 30.287 91.8967 30.287C92.2051 30.287 92.5095 30.362 92.8098 30.5122C93.1101 30.6623 93.3819 30.8652 93.6254 31.1209C93.7999 31.3197 93.9561 31.5449 94.0941 31.7965C94.2361 32.0481 94.3559 32.3159 94.4532 32.6C94.5547 32.8841 94.6318 33.1803 94.6845 33.4887C94.7414 33.793 94.7698 34.0994 94.7698 34.4078C94.7698 34.5012 94.7677 34.5945 94.7637 34.6878C94.7596 34.7771 94.7535 34.8623 94.7454 34.9435C94.6967 35.3655 94.5892 35.7307 94.4228 36.0391C94.2564 36.3435 94.0434 36.6032 93.7837 36.8183C93.528 37.0333 93.2338 37.2078 92.9011 37.3417C92.5683 37.4757 92.2112 37.5812 91.8298 37.6583C91.4483 37.7354 91.0486 37.7881 90.6306 37.8165C90.2167 37.8449 89.7988 37.8612 89.3767 37.8652H89.2732C89.1393 37.8652 89.0135 37.8388 88.8959 37.7861C88.7782 37.7374 88.6767 37.6704 88.5915 37.5852C88.5063 37.5 88.4393 37.3986 88.3906 37.2809C88.3379 37.1632 88.3115 37.0374 88.3115 36.9035ZM91.8845 32.2226C91.7912 32.2186 91.6959 32.247 91.5985 32.3078C91.5051 32.3646 91.4179 32.4417 91.3367 32.5391C91.2596 32.6365 91.1947 32.7481 91.1419 32.8739C91.0932 32.9997 91.0689 33.1275 91.0689 33.2574C91.0689 33.371 91.0953 33.4725 91.148 33.5617C91.1764 33.6104 91.2332 33.653 91.3185 33.6896C91.4077 33.722 91.5112 33.7504 91.6289 33.7748C91.7506 33.7951 91.8805 33.8133 92.0185 33.8296C92.1564 33.8417 92.2883 33.8499 92.4141 33.8539C92.5399 33.858 92.6535 33.858 92.755 33.8539C92.8605 33.8499 92.9376 33.8438 92.9863 33.8357C92.9498 33.653 92.9011 33.4684 92.8402 33.2817C92.7834 33.0951 92.7103 32.9246 92.6211 32.7704C92.5318 32.6162 92.4263 32.4884 92.3045 32.387C92.1828 32.2855 92.0428 32.2307 91.8845 32.2226ZM91.6472 26.8174L92.9985 28.1687L91.6472 29.52L90.2959 28.1687L91.6472 26.8174ZM101.523 33.9087C101.437 33.8925 101.34 33.9229 101.23 34C101.125 34.073 101.024 34.1745 100.926 34.3043C100.833 34.4301 100.754 34.5701 100.689 34.7243C100.628 34.8786 100.597 35.0267 100.597 35.1687C100.597 35.3026 100.636 35.4142 100.713 35.5035C100.79 35.5928 100.888 35.6658 101.005 35.7226C101.127 35.7794 101.259 35.822 101.401 35.8504C101.547 35.8788 101.687 35.8991 101.821 35.9113H101.815C101.92 35.9194 102.04 35.9255 102.174 35.9296C102.312 35.9296 102.446 35.9296 102.576 35.9296C102.616 35.9296 102.647 35.9316 102.667 35.9357C102.691 35.9357 102.712 35.9357 102.728 35.9357C102.744 35.9357 102.76 35.9357 102.777 35.9357C102.797 35.9357 102.825 35.9336 102.862 35.9296C102.801 35.678 102.728 35.4386 102.643 35.2113C102.562 34.98 102.466 34.773 102.357 34.5904C102.247 34.4078 102.123 34.2577 101.985 34.14C101.847 34.0183 101.693 33.9412 101.523 33.9087ZM98.5401 40.2817C99.1122 40.1681 99.6337 40.0241 100.104 39.8496C100.575 39.6791 100.987 39.4864 101.34 39.2713C101.697 39.0603 101.991 38.8351 102.223 38.5957C102.458 38.3562 102.624 38.1128 102.722 37.8652C102.547 37.8652 102.363 37.8612 102.168 37.853C101.973 37.849 101.813 37.8429 101.687 37.8348C101.216 37.7942 100.786 37.6887 100.397 37.5183C100.007 37.3519 99.6966 37.1246 99.4653 36.8365C99.2948 36.6174 99.1731 36.38 99.1001 36.1243C99.0311 35.8687 98.9966 35.5988 98.9966 35.3148C98.9966 35.0957 99.0169 34.8765 99.0575 34.6574C99.098 34.4342 99.1548 34.2191 99.2279 34.0122C99.3009 33.8012 99.3862 33.6023 99.4835 33.4157C99.585 33.229 99.6925 33.0586 99.8062 32.9043C100.05 32.6 100.315 32.3707 100.604 32.2165C100.896 32.0583 101.202 31.9791 101.523 31.9791C102.208 31.9791 102.827 32.2794 103.379 32.88C103.574 33.0991 103.748 33.3446 103.903 33.6165C104.057 33.8884 104.187 34.1786 104.292 34.487C104.402 34.7913 104.485 35.1119 104.542 35.4487C104.599 35.7814 104.627 36.1203 104.627 36.4652C104.627 36.5707 104.623 36.6762 104.615 36.7817C104.611 36.8872 104.605 36.9867 104.597 37.08C104.548 37.5548 104.44 37.9991 104.274 38.413C104.112 38.831 103.901 39.2145 103.641 39.5635C103.385 39.9165 103.087 40.2351 102.746 40.5191C102.405 40.8072 102.034 41.0588 101.632 41.2739C101.235 41.493 100.813 41.6757 100.366 41.8217C99.9198 41.9678 99.4612 42.0774 98.9905 42.1504L98.5401 40.2817ZM111.368 37.8652C110.837 37.8652 110.315 37.7638 109.804 37.5609C109.297 37.358 108.826 37.0313 108.392 36.5809L109.493 35.0287C109.692 35.2113 109.885 35.3614 110.072 35.4791C110.258 35.5928 110.437 35.682 110.607 35.747C110.778 35.8119 110.938 35.8565 111.088 35.8809C111.242 35.9052 111.386 35.9174 111.52 35.9174C111.581 35.9174 111.65 35.9154 111.727 35.9113C111.804 35.9072 111.881 35.9012 111.959 35.893C112.036 35.8809 112.111 35.8667 112.184 35.8504C112.257 35.8342 112.324 35.8139 112.385 35.7896C112.596 35.7003 112.762 35.611 112.884 35.5217C112.73 35.1484 112.561 34.7609 112.379 34.3591C112.2 33.9533 112.019 33.5475 111.837 33.1417C111.654 32.7319 111.474 32.3261 111.295 31.9243C111.117 31.5226 110.95 31.1371 110.796 30.7678L112.573 30.0252L113.115 31.34C113.29 31.7701 113.499 32.2814 113.742 32.8739C113.986 33.4623 114.266 34.1299 114.582 34.8765C114.655 35.0551 114.722 35.2113 114.783 35.3452C114.844 35.4791 114.915 35.5907 114.996 35.68C115.081 35.7693 115.181 35.8362 115.294 35.8809C115.412 35.9214 115.562 35.9417 115.745 35.9417C115.874 35.9417 115.998 35.9661 116.116 36.0148C116.234 36.0635 116.335 36.1325 116.42 36.2217C116.51 36.307 116.581 36.4084 116.633 36.5261C116.686 36.6438 116.712 36.7696 116.712 36.9035C116.712 37.0374 116.686 37.1632 116.633 37.2809C116.581 37.3986 116.51 37.5 116.42 37.5852C116.335 37.6745 116.234 37.7435 116.116 37.7922C115.998 37.8409 115.874 37.8652 115.745 37.8652C115.497 37.8652 115.278 37.849 115.087 37.8165C114.901 37.7841 114.732 37.7374 114.582 37.6765C114.436 37.6197 114.304 37.5507 114.186 37.4696C114.073 37.3843 113.965 37.291 113.864 37.1896C113.754 37.2626 113.639 37.3336 113.517 37.4026C113.395 37.4675 113.255 37.5325 113.097 37.5974C112.853 37.6907 112.59 37.7577 112.306 37.7983C112.026 37.8429 111.713 37.8652 111.368 37.8652ZM120.367 39.8678L119.198 41.0426L118.041 39.8861L116.897 41.0304L115.716 39.8557L116.885 38.6809L118.041 39.8374L119.186 38.693L120.367 39.8678ZM114.48 36.9035C114.48 36.7696 114.507 36.6438 114.56 36.5261C114.608 36.4084 114.675 36.307 114.76 36.2217C114.846 36.1325 114.947 36.0635 115.065 36.0148C115.183 35.9661 115.308 35.9417 115.442 35.9417H116.118H116.41C116.593 35.9417 116.794 35.9336 117.013 35.9174C117.232 35.9012 117.443 35.8748 117.646 35.8383C117.849 35.8017 118.031 35.753 118.194 35.6922C118.36 35.6272 118.482 35.5461 118.559 35.4487C118.603 35.3797 118.626 35.2864 118.626 35.1687C118.626 34.9942 118.583 34.7872 118.498 34.5478C118.417 34.3084 118.319 34.0649 118.206 33.8174C118.092 33.5699 117.974 33.3325 117.853 33.1052C117.735 32.878 117.64 32.6893 117.567 32.5391L119.301 31.687C119.427 31.9061 119.549 32.1658 119.667 32.4661C119.784 32.7623 119.89 33.0687 119.983 33.3852C120.076 33.6977 120.152 34.0061 120.208 34.3104C120.265 34.6107 120.294 34.8725 120.294 35.0957C120.294 35.5055 120.22 35.8809 120.074 36.2217C119.904 36.6032 119.671 36.9197 119.374 37.1713C119.078 37.4188 118.723 37.6014 118.309 37.7191C118.187 37.7516 118.035 37.778 117.853 37.7983C117.67 37.8186 117.485 37.8328 117.299 37.8409C117.112 37.853 116.936 37.8591 116.769 37.8591C116.603 37.8632 116.473 37.8652 116.38 37.8652H115.497H115.442C115.308 37.8652 115.183 37.8409 115.065 37.7922C114.947 37.7435 114.846 37.6745 114.76 37.5852C114.675 37.5 114.608 37.3986 114.56 37.2809C114.507 37.1632 114.48 37.0374 114.48 36.9035ZM126.245 37.8652C126.155 37.8652 126.03 37.8591 125.867 37.847C125.705 37.8348 125.53 37.7901 125.344 37.713C125.255 38.2162 125.086 38.693 124.839 39.1435C124.595 39.598 124.293 40.022 123.932 40.4157C123.57 40.8133 123.159 41.1786 122.696 41.5113C122.233 41.8441 121.74 42.1423 121.217 42.4061L120.103 40.8661C120.391 40.72 120.681 40.5597 120.973 40.3852C121.266 40.2148 121.543 40.0322 121.807 39.8374C122.075 39.6467 122.323 39.4458 122.55 39.2348C122.781 39.0278 122.982 38.8128 123.152 38.5896C123.323 38.3664 123.457 38.1371 123.554 37.9017C123.652 37.6704 123.7 37.4351 123.7 37.1957C123.7 37.1835 123.698 37.1652 123.694 37.1409C123.694 37.1165 123.694 37.0922 123.694 37.0678C123.694 37.0435 123.692 37.0252 123.688 37.013C123.688 37.0009 123.688 37.0029 123.688 37.0191V37.0252C123.66 36.7899 123.619 36.5646 123.566 36.3496C123.514 36.1345 123.447 35.9154 123.366 35.6922C123.288 35.469 123.197 35.2357 123.092 34.9922C122.986 34.7446 122.868 34.4748 122.739 34.1826L124.498 33.4157C124.66 33.9026 124.812 34.3084 124.954 34.633C125.096 34.9577 125.234 35.2174 125.368 35.4122C125.506 35.607 125.644 35.7449 125.782 35.8261C125.92 35.9032 126.066 35.9417 126.22 35.9417H126.251C126.385 35.9417 126.51 35.9681 126.628 36.0209C126.746 36.0736 126.847 36.1446 126.932 36.2339C127.022 36.3191 127.091 36.4206 127.139 36.5383C127.192 36.6559 127.219 36.7797 127.219 36.9096C127.219 37.0435 127.192 37.1693 127.139 37.287C127.091 37.4046 127.022 37.5061 126.932 37.5913C126.847 37.6765 126.746 37.7435 126.628 37.7922C126.51 37.8409 126.383 37.8652 126.245 37.8652ZM125.212 36.9035C125.212 36.7696 125.238 36.6438 125.291 36.5261C125.34 36.4084 125.409 36.307 125.498 36.2217C125.583 36.1325 125.687 36.0635 125.808 36.0148C125.926 35.9661 126.052 35.9417 126.186 35.9417H127.355C128.012 35.9417 128.615 35.9032 129.162 35.8261C129.714 35.7449 130.23 35.6374 130.708 35.5035C131.187 35.3696 131.64 35.2154 132.066 35.0409C132.496 34.8623 132.918 34.6777 133.332 34.487C133.056 34.4099 132.778 34.3145 132.498 34.2009C132.222 34.0872 131.944 33.9777 131.664 33.8722C131.388 33.7667 131.112 33.6774 130.836 33.6043C130.56 33.5272 130.286 33.4887 130.015 33.4887C129.828 33.4887 129.645 33.5394 129.467 33.6409C129.288 33.7423 129.126 33.858 128.98 33.9878C128.834 34.1177 128.71 34.2455 128.608 34.3713C128.511 34.493 128.45 34.5762 128.426 34.6209L127.02 33.7139C127.174 33.442 127.357 33.1762 127.568 32.9165C127.779 32.6568 128.01 32.4275 128.261 32.2287C128.517 32.0258 128.791 31.8635 129.083 31.7417C129.379 31.62 129.69 31.5591 130.015 31.5591C130.254 31.5591 130.493 31.5855 130.733 31.6383C130.972 31.687 131.21 31.7519 131.445 31.833C131.684 31.9142 131.92 32.0075 132.151 32.113C132.382 32.2145 132.612 32.318 132.839 32.4235C133.058 32.5249 133.275 32.6264 133.49 32.7278C133.709 32.8252 133.935 32.9165 134.166 33.0017C134.397 33.0829 134.637 33.1499 134.884 33.2026C135.132 33.2554 135.393 33.2838 135.669 33.2878L135.517 35.1565L134.653 35.5704C134.3 35.7409 133.949 35.9174 133.6 36.1C133.251 36.2786 132.894 36.453 132.528 36.6235C132.167 36.7899 131.794 36.9501 131.408 37.1043C131.027 37.2545 130.625 37.3864 130.203 37.5C129.781 37.6096 129.335 37.6968 128.864 37.7617C128.393 37.8307 127.89 37.8652 127.355 37.8652H126.235H126.186C126.052 37.8652 125.926 37.8388 125.808 37.7861C125.687 37.7374 125.583 37.6704 125.498 37.5852C125.409 37.5 125.34 37.3986 125.291 37.2809C125.238 37.1632 125.212 37.0374 125.212 36.9035ZM129.759 28.2661L131.11 29.6174L129.759 30.9687L128.408 29.6174L129.759 28.2661ZM76.0715 56.4035C76.2257 56.8417 76.3596 57.2699 76.4732 57.6878C76.5219 57.8704 76.5706 58.0612 76.6193 58.26C76.668 58.4548 76.7106 58.6516 76.7471 58.8504C76.7877 59.0452 76.8202 59.238 76.8445 59.4287C76.8688 59.6154 76.881 59.7899 76.881 59.9522C76.881 60.3336 76.8283 60.7049 76.7228 61.0661C76.6213 61.4313 76.4752 61.7843 76.2845 62.1252C76.0978 62.4661 75.8746 62.7928 75.6149 63.1052C75.3552 63.4217 75.0671 63.718 74.7506 63.9939C74.4341 64.2699 74.0952 64.5255 73.7341 64.7609C73.3729 65.0003 72.9996 65.2154 72.6141 65.4061L71.5062 63.8661C71.7984 63.72 72.0946 63.5536 72.3949 63.367C72.6912 63.1843 72.9752 62.9875 73.2471 62.7765C73.523 62.5655 73.7787 62.3443 74.0141 62.113C74.2535 61.8817 74.4604 61.6464 74.6349 61.407C74.8135 61.1675 74.9535 60.9241 75.0549 60.6765C75.1564 60.433 75.2071 60.1936 75.2071 59.9583C75.2071 59.7878 75.1828 59.6032 75.1341 59.4043C75.0894 59.2055 75.0265 58.9925 74.9454 58.7652C74.8683 58.5339 74.7749 58.2904 74.6654 58.0348C74.5558 57.7751 74.4381 57.4991 74.3123 57.207L76.0715 56.4035ZM80.8041 60.8652C80.305 60.8652 79.8768 60.8023 79.5197 60.6765C79.1626 60.5548 78.8542 60.3661 78.5945 60.1104C78.4322 59.9481 78.3064 59.7777 78.2171 59.5991C78.1319 59.4206 78.069 59.2461 78.0284 59.0757C77.9919 58.9012 77.9696 58.7368 77.9615 58.5826C77.9574 58.4284 77.9554 58.2965 77.9554 58.187V58.0957C77.9594 57.9455 77.9635 57.7304 77.9676 57.4504C77.9757 57.1664 77.9797 56.8336 77.9797 56.4522C77.9797 56.0707 77.9777 55.6507 77.9737 55.1922C77.9696 54.7336 77.9574 54.2771 77.9371 53.8226C77.9209 53.3641 77.8945 52.9238 77.858 52.5017C77.8255 52.0797 77.7789 51.7125 77.718 51.4L79.538 50.8461C79.5908 51.1139 79.6334 51.4304 79.6658 51.7957C79.6983 52.1568 79.7247 52.5362 79.745 52.9339C79.7693 53.3316 79.7855 53.7313 79.7937 54.133C79.8058 54.5348 79.8139 54.9081 79.818 55.253C79.8221 55.5574 79.8099 55.8557 79.7815 56.1478C79.7571 56.4359 79.7368 56.72 79.7206 57C79.7044 57.2759 79.7044 57.5458 79.7206 57.8096C79.7409 58.0693 79.7977 58.3229 79.891 58.5704C79.9276 58.6638 79.9722 58.7348 80.025 58.7835C80.0818 58.8322 80.1467 58.8687 80.2197 58.893C80.2928 58.9133 80.3719 58.9255 80.4571 58.9296C80.5464 58.9336 80.6438 58.9357 80.7493 58.9357H80.8041C80.9339 58.9357 81.0577 58.962 81.1754 59.0148C81.2931 59.0675 81.3945 59.1386 81.4797 59.2278C81.569 59.313 81.64 59.4145 81.6928 59.5322C81.7455 59.6499 81.7719 59.7736 81.7719 59.9035C81.7719 60.0374 81.7455 60.1632 81.6928 60.2809C81.64 60.3986 81.569 60.5 81.4797 60.5852C81.3945 60.6745 81.2931 60.7435 81.1754 60.7922C81.0577 60.8409 80.9339 60.8652 80.8041 60.8652ZM79.8023 59.9035C79.8023 59.7696 79.8286 59.6438 79.8814 59.5261C79.9341 59.4084 80.0072 59.307 80.1005 59.2217C80.1898 59.1365 80.2953 59.0696 80.417 59.0209C80.5347 58.9681 80.6605 58.9417 80.7944 58.9417H86.3214C86.4512 58.9417 86.575 58.9681 86.6927 59.0209C86.8104 59.0696 86.9118 59.1365 86.997 59.2217C87.0863 59.307 87.1573 59.4084 87.2101 59.5261C87.2628 59.6438 87.2892 59.7696 87.2892 59.9035C87.2892 60.0374 87.2628 60.1632 87.2101 60.2809C87.1573 60.3986 87.0863 60.5 86.997 60.5852C86.9118 60.6745 86.8104 60.7435 86.6927 60.7922C86.575 60.8409 86.4512 60.8652 86.3214 60.8652H80.7883C80.6585 60.8652 80.5347 60.8409 80.417 60.7922C80.2953 60.7435 80.1898 60.6745 80.1005 60.5852C80.0072 60.5 79.9341 60.3986 79.8814 60.2809C79.8286 60.1632 79.8023 60.0374 79.8023 59.9035ZM85.2283 59.9096C85.2283 59.7716 85.2527 59.6438 85.3013 59.5261C85.35 59.4084 85.4211 59.307 85.5144 59.2217C85.6037 59.1325 85.7112 59.0635 85.837 59.0148C85.9587 58.9661 86.0967 58.9417 86.2509 58.9417H86.5918H86.89C87.1092 58.9417 87.3506 58.9397 87.6144 58.9357C87.8782 58.9275 88.1318 58.9072 88.3753 58.8748C88.6228 58.8383 88.844 58.7855 89.0387 58.7165C89.2376 58.6475 89.3816 58.5522 89.4709 58.4304C89.5927 58.2438 89.6535 58.0307 89.6535 57.7913C89.6535 57.7101 89.6454 57.629 89.6292 57.5478C89.617 57.4626 89.6008 57.3754 89.5805 57.2861C89.5521 57.1846 89.4912 57.0629 89.3979 56.9209C89.3086 56.7748 89.1929 56.6165 89.0509 56.4461C88.9089 56.2716 88.7466 56.089 88.564 55.8983C88.3813 55.7035 88.1866 55.5067 87.9796 55.3078C87.7727 55.1049 87.5556 54.9041 87.3283 54.7052C87.1011 54.5064 86.8738 54.3136 86.6466 54.127L86.8353 52.4713L91.9483 50.1948L92.6848 51.8261L88.6431 53.7009C88.8419 53.8388 89.0469 54.0032 89.2579 54.1939C89.4689 54.3846 89.6738 54.5936 89.8727 54.8209C90.0715 55.0441 90.2582 55.2814 90.4327 55.533C90.6071 55.7846 90.7593 56.0423 90.8892 56.3061C91.019 56.5699 91.1205 56.8357 91.1935 57.1035C91.2706 57.3713 91.3071 57.633 91.3031 57.8887C91.299 58.193 91.2585 58.4771 91.1813 58.7409C91.1042 59.0006 91.0089 59.2339 90.8953 59.4409C90.4732 60.1957 89.7773 60.6562 88.8074 60.8226L88.8135 60.8165C88.704 60.8368 88.6005 60.851 88.5031 60.8591C88.4057 60.8672 88.3103 60.8713 88.217 60.8713L86.2509 60.8652C86.1008 60.8652 85.9628 60.8409 85.837 60.7922C85.7112 60.7435 85.6037 60.6745 85.5144 60.5852C85.4251 60.5 85.3561 60.4006 85.3074 60.287C85.2547 60.1693 85.2283 60.0435 85.2283 59.9096ZM101.013 60.8652C100.924 60.8652 100.798 60.8591 100.636 60.847C100.474 60.8348 100.299 60.7901 100.112 60.713C100.023 61.2162 99.8547 61.693 99.6071 62.1435C99.3636 62.598 99.0613 63.022 98.7002 63.4157C98.339 63.8133 97.9271 64.1786 97.4645 64.5113C97.0019 64.8441 96.5089 65.1423 95.9854 65.4061L94.8715 63.8661C95.1596 63.72 95.4497 63.5597 95.7419 63.3852C96.0341 63.2148 96.3121 63.0322 96.5758 62.8374C96.8436 62.6467 97.0912 62.4458 97.3184 62.2348C97.5497 62.0278 97.7506 61.8128 97.921 61.5896C98.0915 61.3664 98.2254 61.1371 98.3228 60.9017C98.4202 60.6704 98.4689 60.4351 98.4689 60.1957C98.4689 60.1835 98.4668 60.1652 98.4628 60.1409C98.4628 60.1165 98.4628 60.0922 98.4628 60.0678C98.4628 60.0435 98.4607 60.0252 98.4567 60.013C98.4567 60.0009 98.4567 60.0029 98.4567 60.0191V60.0252C98.4283 59.7899 98.3877 59.5646 98.335 59.3496C98.2822 59.1345 98.2152 58.9154 98.1341 58.6922C98.057 58.469 97.9657 58.2357 97.8602 57.9922C97.7547 57.7446 97.637 57.4748 97.5071 57.1826L99.2663 56.4157C99.4286 56.9026 99.5807 57.3084 99.7228 57.633C99.8648 57.9577 100.003 58.2174 100.137 58.4122C100.275 58.607 100.413 58.7449 100.551 58.8261C100.689 58.9032 100.835 58.9417 100.989 58.9417H101.019C101.153 58.9417 101.279 58.9681 101.397 59.0209C101.514 59.0736 101.616 59.1446 101.701 59.2339C101.79 59.3191 101.859 59.4206 101.908 59.5383C101.961 59.6559 101.987 59.7797 101.987 59.9096C101.987 60.0435 101.961 60.1693 101.908 60.287C101.859 60.4046 101.79 60.5061 101.701 60.5913C101.616 60.6765 101.514 60.7435 101.397 60.7922C101.279 60.8409 101.151 60.8652 101.013 60.8652ZM99.9561 59.9035C99.9561 59.7696 99.9804 59.6438 100.029 59.5261C100.078 59.4084 100.147 59.307 100.236 59.2217C100.321 59.1325 100.423 59.0635 100.54 59.0148C100.658 58.9661 100.784 58.9417 100.918 58.9417H101.38C101.673 58.9417 101.953 58.9296 102.22 58.9052C102.492 58.8809 102.732 58.8301 102.939 58.753C103.146 58.6719 103.312 58.5603 103.438 58.4183C103.568 58.2722 103.637 58.0794 103.645 57.84C103.649 57.7507 103.649 57.6777 103.645 57.6209C103.645 57.56 103.635 57.489 103.614 57.4078C103.594 57.3226 103.564 57.213 103.523 57.0791C103.487 56.9412 103.434 56.7484 103.365 56.5009L105.136 56.0017C105.213 56.1965 105.284 56.4542 105.349 56.7748C105.414 57.0954 105.463 57.4464 105.495 57.8278C105.503 57.9496 105.518 58.0754 105.538 58.2052C105.558 58.3351 105.591 58.4548 105.635 58.5643C105.684 58.6739 105.749 58.7652 105.83 58.8383C105.911 58.9072 106.017 58.9417 106.147 58.9417C106.28 58.9417 106.406 58.9661 106.524 59.0148C106.642 59.0635 106.743 59.1325 106.828 59.2217C106.918 59.307 106.987 59.4084 107.035 59.5261C107.088 59.6438 107.114 59.7696 107.114 59.9035C107.114 60.0374 107.088 60.1632 107.035 60.2809C106.987 60.3986 106.918 60.5 106.828 60.5852C106.739 60.6745 106.636 60.7435 106.518 60.7922C106.404 60.8409 106.282 60.8652 106.153 60.8652C105.763 60.8652 105.428 60.8043 105.148 60.6826C104.872 60.5649 104.635 60.4107 104.436 60.22C104.253 60.3417 104.042 60.4432 103.803 60.5243C103.568 60.6055 103.316 60.6704 103.048 60.7191C102.78 60.7719 102.505 60.8084 102.22 60.8287C101.936 60.853 101.656 60.8652 101.38 60.8652H100.918C100.784 60.8652 100.658 60.8409 100.54 60.7922C100.423 60.7435 100.321 60.6745 100.236 60.5852C100.147 60.5 100.078 60.3986 100.029 60.2809C99.9804 60.1632 99.9561 60.0374 99.9561 59.9035ZM106 54.0357L104.832 55.2104L103.675 54.0539L102.531 55.1983L101.35 54.0235L102.519 52.8487L103.675 54.0052L104.82 52.8609L106 54.0357ZM105.259 59.9035C105.259 59.7696 105.286 59.6438 105.338 59.5261C105.391 59.4084 105.464 59.307 105.558 59.2217C105.647 59.1365 105.752 59.0696 105.874 59.0209C105.992 58.9681 106.118 58.9417 106.251 58.9417H111.778C111.908 58.9417 112.032 58.9681 112.15 59.0209C112.267 59.0696 112.369 59.1365 112.454 59.2217C112.543 59.307 112.614 59.4084 112.667 59.5261C112.72 59.6438 112.746 59.7696 112.746 59.9035C112.746 60.0374 112.72 60.1632 112.667 60.2809C112.614 60.3986 112.543 60.5 112.454 60.5852C112.369 60.6745 112.267 60.7435 112.15 60.7922C112.032 60.8409 111.908 60.8652 111.778 60.8652H106.245C106.116 60.8652 105.992 60.8409 105.874 60.7922C105.752 60.7435 105.647 60.6745 105.558 60.5852C105.464 60.5 105.391 60.3986 105.338 60.2809C105.286 60.1632 105.259 60.0374 105.259 59.9035ZM110.795 59.9035C110.795 59.7696 110.821 59.6438 110.874 59.5261C110.923 59.4084 110.992 59.307 111.081 59.2217C111.166 59.1325 111.27 59.0635 111.391 59.0148C111.509 58.9661 111.635 58.9417 111.769 58.9417C111.919 58.9417 112.104 58.9397 112.323 58.9357C112.546 58.9275 112.783 58.9154 113.035 58.8991C113.286 58.8829 113.542 58.8626 113.802 58.8383C114.066 58.8139 114.315 58.7814 114.551 58.7409C114.79 58.7003 115.005 58.6536 115.196 58.6009C115.391 58.5441 115.543 58.4791 115.652 58.4061C115.242 58.4507 114.865 58.469 114.52 58.4609C114.175 58.4487 113.867 58.4142 113.595 58.3574C113.323 58.3006 113.09 58.2235 112.895 58.1261C112.704 58.0246 112.558 57.909 112.457 57.7791V57.7852C112.347 57.6472 112.244 57.4626 112.146 57.2313C112.053 57 112.006 56.7139 112.006 56.373C112.006 56.1904 112.018 56.02 112.043 55.8617C112.164 55.1719 112.408 54.6017 112.773 54.1513L112.767 54.1574C112.986 53.8652 113.234 53.6481 113.51 53.5061C113.786 53.36 114.076 53.287 114.38 53.287C114.689 53.287 114.993 53.362 115.293 53.5122C115.593 53.6623 115.865 53.8652 116.109 54.1209C116.283 54.3197 116.44 54.5449 116.578 54.7965C116.72 55.0481 116.839 55.3159 116.937 55.6C117.038 55.8841 117.115 56.1803 117.168 56.4887C117.225 56.793 117.253 57.0994 117.253 57.4078C117.253 57.5012 117.251 57.5945 117.247 57.6878C117.243 57.7771 117.237 57.8623 117.229 57.9435C117.18 58.3655 117.073 58.7307 116.906 59.0391C116.74 59.3435 116.527 59.6032 116.267 59.8183C116.011 60.0333 115.717 60.2078 115.384 60.3417C115.052 60.4757 114.695 60.5812 114.313 60.6583C113.932 60.7354 113.532 60.7881 113.114 60.8165C112.7 60.8449 112.282 60.8612 111.86 60.8652H111.757C111.623 60.8652 111.497 60.8388 111.379 60.7861C111.262 60.7374 111.16 60.6704 111.075 60.5852C110.99 60.5 110.923 60.3986 110.874 60.2809C110.821 60.1632 110.795 60.0374 110.795 59.9035ZM114.368 55.2226C114.275 55.2186 114.179 55.247 114.082 55.3078C113.989 55.3646 113.901 55.4417 113.82 55.5391C113.743 55.6365 113.678 55.7481 113.625 55.8739C113.577 55.9997 113.552 56.1275 113.552 56.2574C113.552 56.371 113.579 56.4725 113.631 56.5617C113.66 56.6104 113.717 56.653 113.802 56.6896C113.891 56.722 113.995 56.7504 114.112 56.7748C114.234 56.7951 114.364 56.8133 114.502 56.8296C114.64 56.8417 114.772 56.8499 114.898 56.8539C115.023 56.858 115.137 56.858 115.238 56.8539C115.344 56.8499 115.421 56.8438 115.47 56.8357C115.433 56.653 115.384 56.4684 115.324 56.2817C115.267 56.0951 115.194 55.9246 115.104 55.7704C115.015 55.6162 114.91 55.4884 114.788 55.387C114.666 55.2855 114.526 55.2307 114.368 55.2226ZM114.131 49.8174L115.482 51.1687L114.131 52.52L112.779 51.1687L114.131 49.8174ZM118.459 58.0226C118.63 58.1322 118.828 58.2417 119.056 58.3513C119.287 58.4609 119.522 58.5623 119.762 58.6557C120.005 58.7449 120.241 58.818 120.468 58.8748C120.695 58.9316 120.892 58.96 121.058 58.96C121.119 58.96 121.198 58.958 121.296 58.9539C121.393 58.9458 121.494 58.9336 121.6 58.9174C121.71 58.8971 121.819 58.8728 121.929 58.8443C122.038 58.8119 122.138 58.7713 122.227 58.7226C122.32 58.6739 122.395 58.6171 122.452 58.5522C122.509 58.4832 122.539 58.402 122.543 58.3087C122.547 58.1504 122.499 57.9719 122.397 57.773C122.3 57.5742 122.166 57.3672 121.996 57.1522C121.829 56.933 121.634 56.7139 121.411 56.4948C121.192 56.2716 120.965 56.0586 120.73 55.8557C120.494 55.6487 120.259 55.458 120.023 55.2835C119.788 55.1049 119.571 54.9528 119.372 54.827L120.45 53.2261C120.843 53.502 121.233 53.8104 121.618 54.1513C122.008 54.4922 122.367 54.8554 122.696 55.2409C123.024 55.6223 123.308 56.018 123.548 56.4278C123.787 56.8377 123.96 57.2475 124.065 57.6574C124.098 57.7751 124.12 57.8948 124.132 58.0165C124.144 58.1342 124.15 58.2478 124.15 58.3574C124.15 58.7348 124.077 59.0817 123.931 59.3983C123.785 59.7107 123.58 59.9826 123.316 60.2139C123.057 60.4412 122.744 60.6177 122.379 60.7435C122.014 60.8693 121.612 60.9322 121.174 60.9322C121.141 60.9322 121.109 60.9301 121.076 60.9261C121.044 60.9261 121.012 60.9261 120.979 60.9261C120.699 60.9261 120.411 60.8957 120.115 60.8348C119.823 60.778 119.532 60.7009 119.244 60.6035C118.96 60.5061 118.682 60.3925 118.41 60.2626C118.143 60.1328 117.893 59.9968 117.662 59.8548L118.459 58.0226Z" fill="#303030"/>
<defs>
<linearGradient id="paint0_linear_1325_10417" x1="5.08426" y1="6.15789" x2="151.122" y2="67.5913" gradientUnits="userSpaceOnUse">
<stop stop-color="#EAEAEA"/>
<stop offset="1" stop-color="#BDBDBD"/>
</linearGradient>
</defs>
</svg>
