<svg width="412" height="444" viewBox="0 0 412 444" fill="none" xmlns="http://www.w3.org/2000/svg">
<path d="M-239 101.749C-216.456 106.851 -195.131 117.323 -176.441 132.467C-131.668 168.874 -101.499 223.248 -64.7182 269.7C54.2664 420.003 254.496 479.226 425 423.228L425 -3.05176e-05L-239 2.75311e-05L-239 101.749Z" fill="url(#paint0_linear_1599_5038)"/>
<g filter="url(#filter0_d_1599_5038)">
<path d="M283.754 235.605L322.273 190.697L360.791 235.605V315.942H283.754V235.605Z" fill="url(#paint1_linear_1599_5038)"/>
<path d="M283.755 235.604H189.582V315.941H283.755V235.604Z" fill="url(#paint2_linear_1599_5038)"/>
<path style="mix-blend-mode:multiply" d="M191.582 249.795H285.679V240.876H191.582V249.795Z" fill="url(#paint3_linear_1599_5038)"/>
<path style="mix-blend-mode:multiply" d="M360.791 237.823V249.978L322.273 205.07L283.754 249.978V237.823L322.273 192.915L360.791 237.823Z" fill="url(#paint4_linear_1599_5038)"/>
<path d="M185.092 235.605H284.755L323.273 190.697H223.614L185.092 235.605Z" fill="url(#paint5_linear_1599_5038)"/>
<path d="M283.679 235.604H184.092V242.936H283.679V235.604Z" fill="url(#paint6_linear_1599_5038)"/>
<path d="M284.679 235.691L323.273 190.697L364.827 239.142V246.549L323.273 198.104L284.679 243.094V235.691Z" fill="url(#paint7_linear_1599_5038)"/>
<path d="M236.783 221.023L210.656 251.483H262.906L236.783 221.023Z" fill="url(#paint8_linear_1599_5038)"/>
<path d="M234.783 221.023L253.65 243.022H260.907L280.286 221.023H234.783Z" fill="url(#paint9_linear_1599_5038)"/>
<path d="M246.526 271.332H221.245V315.946H246.526V271.332Z" fill="url(#paint10_linear_1599_5038)"/>
<path d="M223.18 315.942H221.249V271.332L223.18 273.145V315.942Z" fill="url(#paint11_linear_1599_5038)"/>
<path d="M248.526 273.145H225.18L223.249 271.332H248.526V273.145Z" fill="url(#paint12_linear_1599_5038)"/>
<path d="M228.627 294.782C229.492 294.782 230.193 294.08 230.193 293.216C230.193 292.351 229.492 291.65 228.627 291.65C227.762 291.65 227.061 292.351 227.061 293.216C227.061 294.08 227.762 294.782 228.627 294.782Z" fill="url(#paint13_linear_1599_5038)"/>
<path d="M306.251 289.539H338.288V258.657H306.251V289.539Z" fill="url(#paint14_linear_1599_5038)"/>
<path d="M329.856 260.197L307.499 282.049V285.446L333.328 260.197H329.856Z" fill="url(#paint15_linear_1599_5038)"/>
<path d="M335.245 260.197L307.499 287.32V288.911L336.876 260.197H335.245Z" fill="url(#paint16_linear_1599_5038)"/>
<path d="M336.646 289.539H338.288V258.656L336.646 260.197V289.539Z" fill="url(#paint17_linear_1599_5038)"/>
<path d="M306.255 260.197H336.646L338.287 258.656H306.255V260.197Z" fill="url(#paint18_linear_1599_5038)"/>
<path d="M336.646 287.998H307.896V260.197L306.255 258.656V289.539H338.287L336.646 287.998Z" fill="url(#paint19_linear_1599_5038)"/>
<path d="M323.104 258.653H321.442V289.535H323.104V258.653Z" fill="url(#paint20_linear_1599_5038)"/>
<path d="M337.714 274.926V273.263H306.832V274.926H337.714Z" fill="url(#paint21_linear_1599_5038)"/>
<path d="M340.222 289.539H303.969V292.452H340.222V289.539Z" fill="url(#paint22_linear_1599_5038)"/>
<path d="M198.372 288.972H216.032V272.238H198.372V288.972Z" fill="url(#paint23_linear_1599_5038)"/>
<path d="M208.918 272.238L196.372 284.504V287.901L212.394 272.238H208.918Z" fill="url(#paint24_linear_1599_5038)"/>
<path d="M214.031 272.511L197.189 288.973H198.82L214.031 274.105V272.511Z" fill="url(#paint25_linear_1599_5038)"/>
<path d="M212.387 288.972H214.032V272.238L212.387 273.778V288.972Z" fill="url(#paint26_linear_1599_5038)"/>
<path d="M196.372 273.778H212.386L214.031 272.238H196.372V273.778Z" fill="url(#paint27_linear_1599_5038)"/>
<path d="M212.386 287.431H198.013V273.778L196.372 272.238V288.972H214.028L212.386 287.431Z" fill="url(#paint28_linear_1599_5038)"/>
<path d="M257.628 288.972H275.288V272.238H257.628V288.972Z" fill="url(#paint29_linear_1599_5038)"/>
<path d="M270.177 272.238L257.628 284.504V287.901L273.65 272.238H270.177Z" fill="url(#paint30_linear_1599_5038)"/>
<path d="M275.287 272.511L258.449 288.973H260.076L275.287 274.105V272.511Z" fill="url(#paint31_linear_1599_5038)"/>
<path d="M273.646 288.972H275.287V272.238L273.646 273.778V288.972Z" fill="url(#paint32_linear_1599_5038)"/>
<path d="M257.628 273.778H273.646L275.288 272.238H257.628V273.778Z" fill="url(#paint33_linear_1599_5038)"/>
<path d="M271.646 287.431H257.269V273.778L255.628 272.238V288.972H273.288L271.646 287.431Z" fill="url(#paint34_linear_1599_5038)"/>
<path d="M247.35 267.755C250.797 263.291 249.973 256.878 245.509 253.432C241.045 249.985 234.633 250.81 231.186 255.273C227.739 259.737 228.564 266.15 233.027 269.596C237.491 273.043 243.904 272.218 247.35 267.755Z" fill="url(#paint35_linear_1599_5038)"/>
<path d="M243.45 257.27C245.653 253.064 244.03 247.869 239.824 245.665C235.619 243.462 230.423 245.085 228.22 249.291C226.017 253.496 227.64 258.692 231.845 260.895C236.051 263.099 241.247 261.475 243.45 257.27Z" fill="url(#paint36_linear_1599_5038)"/>
<path d="M240.632 246.153L228.717 258.065C229.305 258.949 230.05 259.718 230.917 260.333L242.9 248.353C242.287 247.485 241.518 246.739 240.632 246.153Z" fill="url(#paint37_linear_1599_5038)"/>
<path d="M243.745 249.837L232.4 261.179C232.943 261.419 233.508 261.602 234.088 261.727L244.294 251.521C244.17 250.942 243.986 250.378 243.745 249.837Z" fill="url(#paint38_linear_1599_5038)"/>
<path style="mix-blend-mode:multiply" d="M234.783 228.462L253.238 249.978H259.616L234.783 221.023L209.95 249.978H216.328L234.783 228.462Z" fill="url(#paint39_linear_1599_5038)"/>
<path d="M58.5317 113H145.559C148.354 113 151.033 114.11 153.009 116.086C154.985 118.062 156.095 120.741 156.095 123.535V305.41C156.095 308.204 154.985 310.884 153.009 312.859C151.033 314.835 148.354 315.945 145.559 315.945H58.5317C57.1487 315.945 55.7792 315.673 54.5014 315.143C53.2236 314.614 52.0627 313.838 51.0847 312.86C50.1067 311.882 49.3309 310.721 48.8016 309.444C48.2724 308.166 48 306.796 48 305.413V123.532C48 120.739 49.1096 118.06 51.0847 116.085C53.0598 114.11 55.7385 113 58.5317 113Z" fill="url(#paint40_linear_1599_5038)"/>
<path d="M67.9705 113H154.998C157.791 113 160.47 114.11 162.445 116.085C164.42 118.06 165.53 120.739 165.53 123.532V305.41C165.53 308.204 164.42 310.884 162.444 312.859C160.468 314.835 157.789 315.945 154.995 315.945H67.9705C66.5875 315.945 65.218 315.673 63.9402 315.143C62.6624 314.614 61.5014 313.838 60.5234 312.86C59.5454 311.882 58.7697 310.721 58.2404 309.444C57.7112 308.166 57.4387 306.796 57.4387 305.413V123.532C57.4387 120.739 58.5483 118.06 60.5234 116.085C62.4985 114.11 65.1773 113 67.9705 113Z" fill="url(#paint41_linear_1599_5038)"/>
<path d="M154.998 118.734H135.035C134.655 118.734 134.29 118.885 134.021 119.153C133.752 119.422 133.601 119.787 133.601 120.167V123.815C133.601 125.413 132.967 126.945 131.837 128.076C130.708 129.206 129.175 129.841 127.578 129.842H95.3911C93.7937 129.841 92.2621 129.206 91.1327 128.077C90.0032 126.947 89.3682 125.416 89.3673 123.819V120.167C89.3673 119.787 89.2162 119.422 88.9474 119.153C88.6786 118.885 88.314 118.734 87.9339 118.734H67.9705C66.6941 118.734 65.47 119.241 64.5675 120.143C63.6649 121.046 63.158 122.27 63.158 123.546V289.976C63.158 291.252 63.6649 292.476 64.5675 293.379C65.47 294.281 66.6941 294.788 67.9705 294.788H154.998C156.276 294.788 157.5 294.281 158.404 293.378C159.307 292.475 159.814 291.25 159.814 289.972V123.532C159.811 122.257 159.301 121.036 158.398 120.137C157.496 119.237 156.273 118.733 154.998 118.734Z" fill="url(#paint42_linear_1599_5038)"/>
<path d="M122.668 121.168H100.301C99.9884 121.184 99.6946 121.32 99.4796 121.547C99.2646 121.774 99.1448 122.075 99.1448 122.388C99.1448 122.7 99.2646 123.001 99.4796 123.228C99.6946 123.455 99.9884 123.591 100.301 123.608H122.668C122.834 123.617 123 123.592 123.156 123.535C123.312 123.477 123.454 123.389 123.575 123.275C123.695 123.161 123.791 123.023 123.857 122.871C123.923 122.718 123.957 122.554 123.957 122.388C123.957 122.222 123.923 122.057 123.857 121.905C123.791 121.752 123.695 121.615 123.575 121.501C123.454 121.386 123.312 121.298 123.156 121.241C123 121.183 122.834 121.159 122.668 121.168Z" fill="url(#paint43_linear_1599_5038)"/>
<path d="M122.242 299.125H100.741C99.3992 299.161 98.1243 299.718 97.1878 300.68C96.2513 301.641 95.7273 302.931 95.7273 304.273C95.7273 305.615 96.2513 306.904 97.1878 307.866C98.1243 308.827 99.3992 309.385 100.741 309.42H122.242C122.929 309.439 123.613 309.319 124.254 309.068C124.894 308.818 125.478 308.442 125.97 307.962C126.463 307.482 126.854 306.908 127.122 306.275C127.389 305.641 127.527 304.96 127.527 304.273C127.527 303.585 127.389 302.904 127.122 302.271C126.854 301.637 126.463 301.064 125.97 300.584C125.478 300.104 124.894 299.728 124.254 299.477C123.613 299.227 122.929 299.107 122.242 299.125Z" fill="url(#paint44_linear_1599_5038)"/>
<path d="M159.814 281.157V270.582L117.942 265.809L114.358 248.738C119.403 246.196 123.643 242.304 126.608 237.496C129.574 232.688 131.147 227.152 131.154 221.503C131.154 220.597 131.107 219.712 131.032 218.823L159.847 212.373V196.978L132.276 152.472L159.847 146.301V135.551L86.4074 151.967L79.4125 118.734H68.6622L78.1906 163.946L63.1401 156.905V168.504L80.914 176.786L84.8343 195.38C79.1195 198.826 74.6945 204.053 72.2395 210.259C69.7845 216.464 69.4354 223.304 71.2459 229.727L63.1581 231.537V242.287L75.7001 239.482L75.5496 238.808C78.353 242.869 82.1001 246.189 86.4693 248.483C90.8384 250.776 95.699 251.976 100.634 251.977C101.843 251.974 103.052 251.9 104.253 251.755L113.316 294.756H124.066L120.242 276.613L159.814 281.157ZM121.389 154.901L151.472 203.464L128.28 208.657C125.411 202.468 120.55 197.42 114.475 194.319C108.399 191.219 101.459 190.245 94.7641 191.553L88.5862 162.247L121.389 154.901ZM100.605 241.499C96.6481 241.499 92.7799 240.326 89.4898 238.127C86.1997 235.929 83.6353 232.804 82.1212 229.148C80.6071 225.492 80.2111 221.469 80.9834 217.588C81.7556 213.707 83.6614 210.142 86.4597 207.345C89.258 204.547 92.8231 202.642 96.7042 201.87C100.585 201.099 104.608 201.495 108.264 203.01C111.919 204.525 115.044 207.09 117.242 210.38C119.439 213.671 120.612 217.539 120.611 221.496C120.606 226.799 118.497 231.883 114.748 235.633C110.998 239.383 105.915 241.492 100.612 241.499H100.605Z" fill="url(#paint45_linear_1599_5038)"/>
<path d="M91.037 262.846C90.8749 260.438 89.8039 258.181 88.0409 256.533C86.2779 254.885 83.9545 253.968 81.5409 253.968C79.1273 253.968 76.8039 254.885 75.0409 256.533C73.2779 258.181 72.2069 260.438 72.0448 262.846C71.6291 271.088 78.7709 278.169 80.9425 280.122C81.1115 280.276 81.332 280.361 81.5607 280.361C81.7894 280.361 82.0098 280.276 82.1788 280.122C84.3109 278.169 91.4527 271.095 91.037 262.846Z" fill="url(#paint46_linear_1599_5038)"/>
<path d="M81.5199 270.359C85.3771 270.359 88.504 267.233 88.504 263.375C88.504 259.518 85.3771 256.391 81.5199 256.391C77.6626 256.391 74.5356 259.518 74.5356 263.375C74.5356 267.233 77.6626 270.359 81.5199 270.359Z" fill="url(#paint47_linear_1599_5038)"/>
<path d="M86.3034 262.483L81.7489 258.617C81.6904 258.568 81.6169 258.542 81.541 258.542C81.4651 258.542 81.3917 258.568 81.3332 258.617L76.732 262.465C76.7062 262.485 76.6873 262.513 76.6782 262.544C76.6691 262.576 76.6702 262.609 76.6814 262.64C76.6925 262.67 76.7132 262.697 76.7403 262.715C76.7675 262.733 76.7997 262.742 76.8324 262.741H77.4164V267.228C77.4173 267.309 77.45 267.388 77.5075 267.446C77.565 267.504 77.6429 267.537 77.7247 267.539H80.1686C80.2014 267.54 80.2339 267.534 80.2643 267.522C80.2947 267.509 80.3224 267.491 80.3458 267.468C80.3691 267.445 80.3876 267.418 80.4003 267.388C80.4129 267.357 80.4194 267.325 80.4194 267.292V264.508C80.4194 264.427 80.4515 264.349 80.5087 264.292C80.5658 264.235 80.6432 264.203 80.724 264.203H82.3151C82.3959 264.203 82.4733 264.235 82.5305 264.292C82.5876 264.349 82.6196 264.427 82.6196 264.508V267.299C82.6196 267.365 82.6457 267.428 82.6921 267.474C82.7384 267.52 82.8014 267.547 82.8669 267.547H85.3108C85.3929 267.547 85.4717 267.514 85.53 267.456C85.5884 267.399 85.6216 267.32 85.6226 267.238V262.748H86.2067C86.2365 262.746 86.2653 262.736 86.2892 262.718C86.3132 262.7 86.3315 262.675 86.3417 262.647C86.352 262.619 86.3539 262.589 86.3471 262.559C86.3403 262.53 86.3251 262.504 86.3034 262.483Z" fill="url(#paint48_linear_1599_5038)"/>
<path d="M111.563 149.235C111.401 146.827 110.33 144.571 108.567 142.922C106.804 141.274 104.48 140.357 102.067 140.357C99.6532 140.357 97.3298 141.274 95.5668 142.922C93.8038 144.571 92.7328 146.827 92.5706 149.235C92.155 157.477 99.2968 164.558 101.468 166.511C101.638 166.664 101.858 166.748 102.086 166.748C102.315 166.748 102.535 166.664 102.705 166.511C104.837 164.558 111.979 157.484 111.563 149.235Z" fill="url(#paint49_linear_1599_5038)"/>
<path d="M108.909 150.866C109.523 147.058 106.934 143.473 103.126 142.859C99.3178 142.245 95.7329 144.834 95.1189 148.642C94.5049 152.451 97.0941 156.035 100.902 156.649C104.71 157.263 108.295 154.674 108.909 150.866Z" fill="url(#paint50_linear_1599_5038)"/>
<path d="M106.833 148.871L102.264 145.008C102.206 144.958 102.133 144.931 102.056 144.931C101.98 144.931 101.907 144.958 101.849 145.008L97.2654 148.857C97.2403 148.877 97.2221 148.905 97.2134 148.937C97.2048 148.968 97.206 149.001 97.217 149.032C97.228 149.062 97.2482 149.089 97.2749 149.108C97.3015 149.126 97.3332 149.136 97.3658 149.136H97.9498V153.626C97.9508 153.708 97.9836 153.786 98.0412 153.843C98.0987 153.901 98.1766 153.934 98.258 153.934H100.702C100.735 153.935 100.767 153.929 100.798 153.917C100.828 153.904 100.856 153.886 100.879 153.863C100.902 153.84 100.921 153.813 100.934 153.783C100.946 153.752 100.953 153.72 100.953 153.687V150.896C100.954 150.816 100.986 150.739 101.043 150.683C101.1 150.626 101.177 150.595 101.257 150.595H102.848C102.888 150.594 102.927 150.602 102.964 150.617C103.001 150.632 103.034 150.654 103.062 150.682C103.09 150.71 103.112 150.743 103.127 150.78C103.142 150.817 103.15 150.856 103.149 150.896V153.687C103.149 153.72 103.155 153.752 103.167 153.783C103.179 153.813 103.198 153.841 103.221 153.864C103.244 153.888 103.271 153.906 103.301 153.919C103.331 153.931 103.364 153.938 103.397 153.938H105.841C105.881 153.938 105.922 153.931 105.959 153.916C105.997 153.9 106.031 153.878 106.06 153.849C106.088 153.82 106.111 153.786 106.126 153.748C106.142 153.711 106.149 153.67 106.149 153.63V149.143H106.733C106.764 149.142 106.794 149.131 106.819 149.113C106.843 149.095 106.862 149.069 106.873 149.04C106.884 149.011 106.886 148.98 106.879 148.95C106.872 148.92 106.856 148.892 106.833 148.871Z" fill="url(#paint51_linear_1599_5038)"/>
<path d="M159.815 165.828C147.303 166.779 135.613 172.421 127.084 181.624C118.554 190.826 113.815 202.911 113.815 215.458C113.815 228.006 118.554 240.091 127.084 249.293C135.613 258.496 147.303 264.138 159.815 265.089V165.828Z" fill="#FCFBFC"/>
<mask id="mask0_1599_5038" style="mask-type:luminance" maskUnits="userSpaceOnUse" x="113" y="165" width="47" height="101">
<path d="M159.815 165.827C147.304 166.778 135.613 172.42 127.084 181.623C118.554 190.826 113.815 202.91 113.815 215.458C113.815 228.005 118.554 240.09 127.084 249.292C135.613 258.495 147.304 264.137 159.815 265.088V165.827Z" fill="white"/>
</mask>
<g mask="url(#mask0_1599_5038)">
<path d="M177.169 307.875V293.505L120.235 287.016L115.344 263.813C122.202 260.358 127.968 255.068 131.998 248.532C136.029 241.995 138.167 234.468 138.174 226.789C138.174 225.56 138.11 224.348 138.006 223.144L177.169 214.379V193.466L139.697 132.981L177.169 124.592V109.961L77.4203 132.29L67.8956 87.1059H53.3038L66.2543 148.551L45.8 138.987V154.754L69.9238 166.035L75.2488 191.305C67.4823 195.989 61.4687 203.094 58.132 211.528C54.7953 219.961 54.3203 229.257 56.7797 237.987L45.7856 240.449V255.084L62.8106 251.274L62.6028 250.353C66.8777 256.57 72.7736 261.497 79.6505 264.599C86.5275 267.701 94.1228 268.861 101.612 267.952L113.929 326.401H128.52L123.324 301.74L177.169 307.875ZM124.948 136.292L165.835 202.296L134.3 209.352C130.407 200.938 123.803 194.074 115.546 189.859C107.289 185.644 97.8564 184.321 88.7584 186.102L80.3623 146.272L124.948 136.292ZM96.7101 253.987C91.3329 253.987 86.0764 252.393 81.6054 249.405C77.1345 246.418 73.6498 242.172 71.592 237.204C69.5342 232.236 68.9958 226.769 70.0449 221.495C71.0939 216.222 73.6833 211.377 77.4855 207.575C81.2878 203.773 86.1321 201.183 91.406 200.134C96.6799 199.085 102.146 199.624 107.114 201.681C112.082 203.739 116.328 207.224 119.316 211.695C122.303 216.166 123.898 221.422 123.898 226.799C123.883 234.004 121.013 240.91 115.917 246.003C110.822 251.097 103.915 253.964 96.7101 253.976V253.987Z" fill="url(#paint52_linear_1599_5038)"/>
</g>
<path d="M158.94 198.186H158.904C158.589 192.474 156.098 187.1 151.943 183.168C147.787 179.236 142.284 177.044 136.563 177.044C130.843 177.044 125.339 179.236 121.184 183.168C117.029 187.1 114.538 192.474 114.222 198.186H114.187C113.208 217.583 130 234.21 135.11 238.804C135.509 239.164 136.027 239.363 136.563 239.363C137.1 239.363 137.618 239.164 138.016 238.804C143.126 234.21 159.919 217.583 158.94 198.186Z" fill="#4C8CED"/>
<path d="M152.862 202.059C154.295 193.103 148.196 184.681 139.24 183.248C130.284 181.815 121.862 187.914 120.429 196.87C118.996 205.827 125.094 214.249 134.051 215.682C143.007 217.115 151.429 211.016 152.862 202.059Z" fill="url(#paint53_linear_1599_5038)"/>
<path d="M147.813 197.329L137.063 188.245C136.926 188.131 136.754 188.068 136.576 188.068C136.398 188.068 136.225 188.131 136.088 188.245L125.309 197.29C125.242 197.334 125.191 197.4 125.165 197.477C125.139 197.554 125.141 197.637 125.169 197.713C125.196 197.789 125.249 197.854 125.318 197.896C125.388 197.938 125.469 197.956 125.549 197.946H126.918V208.495C126.918 208.685 126.994 208.868 127.128 209.002C127.263 209.136 127.445 209.212 127.635 209.212H133.369C133.523 209.212 133.671 209.151 133.78 209.042C133.89 208.933 133.952 208.786 133.953 208.631V202.067C133.953 201.877 134.028 201.694 134.163 201.56C134.297 201.425 134.479 201.35 134.669 201.35H138.414C138.604 201.35 138.786 201.425 138.921 201.56C139.055 201.694 139.131 201.877 139.131 202.067V208.628C139.13 208.704 139.145 208.78 139.174 208.851C139.203 208.922 139.246 208.986 139.299 209.041C139.353 209.095 139.418 209.138 139.488 209.167C139.559 209.197 139.635 209.212 139.711 209.212H145.445C145.635 209.212 145.817 209.136 145.952 209.002C146.086 208.868 146.161 208.685 146.161 208.495L146.183 197.946H147.555C147.628 197.948 147.699 197.928 147.76 197.888C147.82 197.849 147.868 197.792 147.895 197.726C147.923 197.659 147.93 197.586 147.916 197.515C147.901 197.444 147.865 197.379 147.813 197.329Z" fill="url(#paint54_linear_1599_5038)"/>
<path d="M206.674 230.151L197.621 245.832L236.689 268.388L245.742 252.707L206.674 230.151Z" fill="url(#paint55_linear_1599_5038)"/>
<path style="mix-blend-mode:multiply" d="M226.606 241.409L215.827 235.195L212.244 241.388C211.946 241.947 211.641 242.502 211.323 243.054C211.004 243.606 210.674 244.15 210.341 244.684L206.757 250.877L217.561 257.09C221.258 252.285 224.303 247.013 226.617 241.409H226.606Z" fill="url(#paint56_linear_1599_5038)"/>
<path d="M231.514 247.24L224.84 258.8C223.04 261.918 224.108 265.905 227.226 267.705L271.598 293.323C274.716 295.123 278.702 294.054 280.502 290.937L287.176 279.377C288.976 276.259 287.908 272.273 284.79 270.473L240.419 244.855C237.301 243.055 233.314 244.123 231.514 247.24Z" fill="url(#paint57_linear_1599_5038)"/>
<path d="M101.243 179.747C95.1599 190.281 92.337 202.382 93.1313 214.52C93.9256 226.659 98.3016 238.289 105.706 247.94C113.11 257.591 123.21 264.83 134.728 268.741C146.247 272.652 158.666 273.06 170.416 269.912C182.166 266.765 192.719 260.204 200.74 251.059C208.761 241.914 213.89 230.596 215.479 218.536C217.067 206.476 215.044 194.216 209.665 183.306C204.285 172.395 195.791 163.326 185.257 157.243C178.263 153.204 170.542 150.582 162.535 149.527C154.527 148.472 146.391 149.005 138.589 151.094C130.788 153.184 123.474 156.79 117.066 161.706C110.659 166.622 105.282 172.753 101.243 179.747ZM197.599 235.387C192.677 243.911 185.338 250.785 176.51 255.138C167.681 259.491 157.761 261.129 148.002 259.843C138.243 258.558 129.084 254.408 121.684 247.918C114.284 241.427 108.975 232.888 106.428 223.38C103.881 213.872 104.21 203.823 107.375 194.502C110.54 185.182 116.397 177.009 124.207 171.017C132.016 165.026 141.427 161.485 151.249 160.842C161.071 160.199 170.864 162.483 179.388 167.406C190.817 174.006 199.157 184.876 202.572 197.625C205.987 210.374 204.198 223.957 197.599 235.387Z" fill="url(#paint58_linear_1599_5038)"/>
<path style="mix-blend-mode:soft-light" d="M189.572 245.572C209.007 226.136 209.007 194.626 189.572 175.191C170.136 155.755 138.626 155.755 119.191 175.191C99.7554 194.626 99.7553 226.136 119.191 245.572C138.626 265.007 170.136 265.007 189.572 245.572Z" fill="url(#paint59_linear_1599_5038)"/>
<path style="mix-blend-mode:screen" d="M136.5 216C145.613 216 153 208.613 153 199.5C153 190.387 145.613 183 136.5 183C127.387 183 120 190.387 120 199.5C120 208.613 127.387 216 136.5 216Z" fill="url(#paint60_linear_1599_5038)"/>
<line x1="169" y1="320" x2="363.934" y2="320" stroke="url(#paint61_linear_1599_5038)" stroke-width="10"/>
</g>
<defs>
<filter id="filter0_d_1599_5038" x="44" y="113" width="324.827" height="220" filterUnits="userSpaceOnUse" color-interpolation-filters="sRGB">
<feFlood flood-opacity="0" result="BackgroundImageFix"/>
<feColorMatrix in="SourceAlpha" type="matrix" values="0 0 0 0 0 0 0 0 0 0 0 0 0 0 0 0 0 0 127 0" result="hardAlpha"/>
<feOffset dy="4"/>
<feGaussianBlur stdDeviation="2"/>
<feComposite in2="hardAlpha" operator="out"/>
<feColorMatrix type="matrix" values="0 0 0 0 0 0 0 0 0 0 0 0 0 0 0 0 0 0 0.25 0"/>
<feBlend mode="normal" in2="BackgroundImageFix" result="effect1_dropShadow_1599_5038"/>
<feBlend mode="normal" in="SourceGraphic" in2="effect1_dropShadow_1599_5038" result="shape"/>
</filter>
<linearGradient id="paint0_linear_1599_5038" x1="216.702" y1="-126.023" x2="-436.553" y2="557.012" gradientUnits="userSpaceOnUse">
<stop stop-color="#4C8CED"/>
<stop offset="0.817708" stop-color="#36D859"/>
</linearGradient>
<linearGradient id="paint1_linear_1599_5038" x1="331.955" y1="462.215" x2="321.406" y2="259.119" gradientUnits="userSpaceOnUse">
<stop stop-color="white"/>
<stop offset="1" stop-color="#CFDAF4"/>
</linearGradient>
<linearGradient id="paint2_linear_1599_5038" x1="235.862" y1="222.739" x2="237.202" y2="310.993" gradientUnits="userSpaceOnUse">
<stop stop-color="#8393CE"/>
<stop offset="1" stop-color="#B5BDE1"/>
</linearGradient>
<linearGradient id="paint3_linear_1599_5038" x1="239.779" y1="272.568" x2="237.776" y2="225.102" gradientUnits="userSpaceOnUse">
<stop stop-color="white"/>
<stop offset="1" stop-color="#CFDAF4"/>
</linearGradient>
<linearGradient id="paint4_linear_1599_5038" x1="322.904" y1="317.347" x2="322.237" y2="239.79" gradientUnits="userSpaceOnUse">
<stop stop-color="white"/>
<stop offset="1" stop-color="#CFDAF4"/>
</linearGradient>
<linearGradient id="paint5_linear_1599_5038" x1="252.937" y1="214.358" x2="317.79" y2="151.512" gradientUnits="userSpaceOnUse">
<stop stop-color="#1D3253"/>
<stop offset="1" stop-color="#334FA8"/>
</linearGradient>
<linearGradient id="paint6_linear_1599_5038" x1="216.243" y1="225.868" x2="285.776" y2="278.684" gradientUnits="userSpaceOnUse">
<stop stop-color="#CFDAF4"/>
<stop offset="1" stop-color="#A0AFDE"/>
</linearGradient>
<linearGradient id="paint7_linear_1599_5038" x1="372.474" y1="236.092" x2="282.941" y2="211.001" gradientUnits="userSpaceOnUse">
<stop stop-color="white"/>
<stop offset="1" stop-color="#CFDAF4"/>
</linearGradient>
<linearGradient id="paint8_linear_1599_5038" x1="236.289" y1="218.798" x2="237.894" y2="324.843" gradientUnits="userSpaceOnUse">
<stop stop-color="#8393CE"/>
<stop offset="1" stop-color="#B5BDE1"/>
</linearGradient>
<linearGradient id="paint9_linear_1599_5038" x1="228.53" y1="202.826" x2="312.085" y2="266.293" gradientUnits="userSpaceOnUse">
<stop stop-color="#CFDAF4"/>
<stop offset="1" stop-color="#A0AFDE"/>
</linearGradient>
<linearGradient id="paint10_linear_1599_5038" x1="233.823" y1="275.772" x2="234.027" y2="333.247" gradientUnits="userSpaceOnUse">
<stop stop-color="#424161"/>
<stop offset="1" stop-color="#5B60A3"/>
</linearGradient>
<linearGradient id="paint11_linear_1599_5038" x1="219.446" y1="270.644" x2="225.875" y2="326.205" gradientUnits="userSpaceOnUse">
<stop stop-color="#8393CE"/>
<stop offset="1" stop-color="#5B60A3"/>
</linearGradient>
<linearGradient id="paint12_linear_1599_5038" x1="243.706" y1="259.696" x2="227.864" y2="285.107" gradientUnits="userSpaceOnUse">
<stop stop-color="#8393CE"/>
<stop offset="1" stop-color="#5B60A3"/>
</linearGradient>
<linearGradient id="paint13_linear_1599_5038" x1="229.917" y1="290.671" x2="225.803" y2="298.806" gradientUnits="userSpaceOnUse">
<stop stop-color="#8393CE"/>
<stop offset="1" stop-color="#5B60A3"/>
</linearGradient>
<linearGradient id="paint14_linear_1599_5038" x1="322.27" y1="287.489" x2="322.27" y2="252.82" gradientUnits="userSpaceOnUse">
<stop stop-color="#CFDAF4"/>
<stop offset="1" stop-color="#A0AFDE"/>
</linearGradient>
<linearGradient id="paint15_linear_1599_5038" x1="321.345" y1="316.185" x2="319.532" y2="231.708" gradientUnits="userSpaceOnUse">
<stop stop-color="white"/>
<stop offset="1" stop-color="#CFDAF4"/>
</linearGradient>
<linearGradient id="paint16_linear_1599_5038" x1="323.198" y1="321.646" x2="320.926" y2="215.776" gradientUnits="userSpaceOnUse">
<stop stop-color="white"/>
<stop offset="1" stop-color="#CFDAF4"/>
</linearGradient>
<linearGradient id="paint17_linear_1599_5038" x1="336.829" y1="288.858" x2="338.431" y2="253.865" gradientUnits="userSpaceOnUse">
<stop stop-color="#424161"/>
<stop offset="1" stop-color="#5B60A3"/>
</linearGradient>
<linearGradient id="paint18_linear_1599_5038" x1="336.159" y1="243.387" x2="316.697" y2="264.784" gradientUnits="userSpaceOnUse">
<stop stop-color="#8393CE"/>
<stop offset="1" stop-color="#5B60A3"/>
</linearGradient>
<linearGradient id="paint19_linear_1599_5038" x1="321.402" y1="245.555" x2="322.477" y2="299.949" gradientUnits="userSpaceOnUse">
<stop stop-color="#424161"/>
<stop offset="1" stop-color="#5B60A3"/>
</linearGradient>
<linearGradient id="paint20_linear_1599_5038" x1="344.226" y1="249.967" x2="324.761" y2="271.364" gradientUnits="userSpaceOnUse">
<stop stop-color="#8393CE"/>
<stop offset="1" stop-color="#5B60A3"/>
</linearGradient>
<linearGradient id="paint21_linear_1599_5038" x1="322.037" y1="256.478" x2="322.632" y2="301.054" gradientUnits="userSpaceOnUse">
<stop stop-color="#424161"/>
<stop offset="1" stop-color="#5B60A3"/>
</linearGradient>
<linearGradient id="paint22_linear_1599_5038" x1="322.176" y1="286.776" x2="321.879" y2="301.934" gradientUnits="userSpaceOnUse">
<stop stop-color="#8393CE"/>
<stop offset="1" stop-color="#B5BDE1"/>
</linearGradient>
<linearGradient id="paint23_linear_1599_5038" x1="207.198" y1="287.861" x2="207.198" y2="269.077" gradientUnits="userSpaceOnUse">
<stop stop-color="#CFDAF4"/>
<stop offset="1" stop-color="#A0AFDE"/>
</linearGradient>
<linearGradient id="paint24_linear_1599_5038" x1="205.281" y1="321.947" x2="203.467" y2="237.475" gradientUnits="userSpaceOnUse">
<stop stop-color="white"/>
<stop offset="1" stop-color="#CFDAF4"/>
</linearGradient>
<linearGradient id="paint25_linear_1599_5038" x1="206.614" y1="327.423" x2="204.342" y2="221.55" gradientUnits="userSpaceOnUse">
<stop stop-color="white"/>
<stop offset="1" stop-color="#CFDAF4"/>
</linearGradient>
<linearGradient id="paint26_linear_1599_5038" x1="212.878" y1="288.621" x2="213.748" y2="269.622" gradientUnits="userSpaceOnUse">
<stop stop-color="#424161"/>
<stop offset="1" stop-color="#5B60A3"/>
</linearGradient>
<linearGradient id="paint27_linear_1599_5038" x1="213.007" y1="263.659" x2="201.837" y2="275.936" gradientUnits="userSpaceOnUse">
<stop stop-color="#8393CE"/>
<stop offset="1" stop-color="#5B60A3"/>
</linearGradient>
<linearGradient id="paint28_linear_1599_5038" x1="204.729" y1="265.135" x2="205.313" y2="294.62" gradientUnits="userSpaceOnUse">
<stop stop-color="#424161"/>
<stop offset="1" stop-color="#5B60A3"/>
</linearGradient>
<linearGradient id="paint29_linear_1599_5038" x1="266.462" y1="287.861" x2="266.462" y2="269.077" gradientUnits="userSpaceOnUse">
<stop stop-color="#CFDAF4"/>
<stop offset="1" stop-color="#A0AFDE"/>
</linearGradient>
<linearGradient id="paint30_linear_1599_5038" x1="266.537" y1="321.947" x2="264.723" y2="237.475" gradientUnits="userSpaceOnUse">
<stop stop-color="white"/>
<stop offset="1" stop-color="#CFDAF4"/>
</linearGradient>
<linearGradient id="paint31_linear_1599_5038" x1="267.87" y1="327.423" x2="265.598" y2="221.55" gradientUnits="userSpaceOnUse">
<stop stop-color="white"/>
<stop offset="1" stop-color="#CFDAF4"/>
</linearGradient>
<linearGradient id="paint32_linear_1599_5038" x1="274.134" y1="288.621" x2="275.004" y2="269.622" gradientUnits="userSpaceOnUse">
<stop stop-color="#424161"/>
<stop offset="1" stop-color="#5B60A3"/>
</linearGradient>
<linearGradient id="paint33_linear_1599_5038" x1="274.263" y1="263.659" x2="263.093" y2="275.936" gradientUnits="userSpaceOnUse">
<stop stop-color="#8393CE"/>
<stop offset="1" stop-color="#5B60A3"/>
</linearGradient>
<linearGradient id="paint34_linear_1599_5038" x1="263.985" y1="265.135" x2="264.569" y2="294.62" gradientUnits="userSpaceOnUse">
<stop stop-color="#424161"/>
<stop offset="1" stop-color="#5B60A3"/>
</linearGradient>
<linearGradient id="paint35_linear_1599_5038" x1="254.348" y1="242.72" x2="237.166" y2="264.189" gradientUnits="userSpaceOnUse">
<stop stop-color="#8393CE"/>
<stop offset="1" stop-color="#5B60A3"/>
</linearGradient>
<linearGradient id="paint36_linear_1599_5038" x1="235.867" y1="261.299" x2="235.756" y2="241.096" gradientUnits="userSpaceOnUse">
<stop stop-color="#CFDAF4"/>
<stop offset="1" stop-color="#A0AFDE"/>
</linearGradient>
<linearGradient id="paint37_linear_1599_5038" x1="220.195" y1="271.086" x2="260.167" y2="228.552" gradientUnits="userSpaceOnUse">
<stop stop-color="white"/>
<stop offset="1" stop-color="#CFDAF4"/>
</linearGradient>
<linearGradient id="paint38_linear_1599_5038" x1="223.062" y1="273.908" x2="262.987" y2="231.422" gradientUnits="userSpaceOnUse">
<stop stop-color="white"/>
<stop offset="1" stop-color="#CFDAF4"/>
</linearGradient>
<linearGradient id="paint39_linear_1599_5038" x1="234.389" y1="264.476" x2="235.263" y2="232.286" gradientUnits="userSpaceOnUse">
<stop stop-color="white"/>
<stop offset="1" stop-color="#CFDAF4"/>
</linearGradient>
<linearGradient id="paint40_linear_1599_5038" x1="98.5445" y1="318.898" x2="106.109" y2="93.2445" gradientUnits="userSpaceOnUse">
<stop stop-color="#5B60A3"/>
<stop offset="1" stop-color="#424161"/>
</linearGradient>
<linearGradient id="paint41_linear_1599_5038" x1="112.137" y1="135.286" x2="110.244" y2="365.984" gradientUnits="userSpaceOnUse">
<stop stop-color="#8393CE"/>
<stop offset="1" stop-color="#B5BDE1"/>
</linearGradient>
<linearGradient id="paint42_linear_1599_5038" x1="153.78" y1="94.5346" x2="59.2305" y2="345.401" gradientUnits="userSpaceOnUse">
<stop stop-color="white"/>
<stop offset="1" stop-color="#CFDAF4"/>
</linearGradient>
<linearGradient id="paint43_linear_1599_5038" x1="111.768" y1="138.44" x2="111.137" y2="102.512" gradientUnits="userSpaceOnUse">
<stop stop-color="#5B60A3"/>
<stop offset="1" stop-color="#424161"/>
</linearGradient>
<linearGradient id="paint44_linear_1599_5038" x1="111.484" y1="313.391" x2="111.484" y2="278.094" gradientUnits="userSpaceOnUse">
<stop stop-color="#5B60A3"/>
<stop offset="1" stop-color="#424161"/>
</linearGradient>
<linearGradient id="paint45_linear_1599_5038" x1="99.4906" y1="318.346" x2="146.764" y2="-73.0848" gradientUnits="userSpaceOnUse">
<stop stop-color="#CFDAF4"/>
<stop offset="1" stop-color="#A0AFDE"/>
</linearGradient>
<linearGradient id="paint46_linear_1599_5038" x1="89.5965" y1="254.153" x2="52.0169" y2="303.579" gradientUnits="userSpaceOnUse">
<stop stop-color="#424161"/>
<stop offset="1" stop-color="#5B60A3"/>
</linearGradient>
<linearGradient id="paint47_linear_1599_5038" x1="87.0921" y1="255.732" x2="75.4746" y2="271.675" gradientUnits="userSpaceOnUse">
<stop stop-color="white"/>
<stop offset="1" stop-color="#CFDAF4"/>
</linearGradient>
<linearGradient id="paint48_linear_1599_5038" x1="76.4095" y1="268.74" x2="94.979" y2="253.646" gradientUnits="userSpaceOnUse">
<stop stop-color="#424161"/>
<stop offset="1" stop-color="#5B60A3"/>
</linearGradient>
<linearGradient id="paint49_linear_1599_5038" x1="110.122" y1="140.542" x2="72.5392" y2="189.968" gradientUnits="userSpaceOnUse">
<stop stop-color="#424161"/>
<stop offset="1" stop-color="#5B60A3"/>
</linearGradient>
<linearGradient id="paint50_linear_1599_5038" x1="107.58" y1="142.143" x2="95.9629" y2="158.086" gradientUnits="userSpaceOnUse">
<stop stop-color="white"/>
<stop offset="1" stop-color="#CFDAF4"/>
</linearGradient>
<linearGradient id="paint51_linear_1599_5038" x1="96.9321" y1="155.131" x2="115.505" y2="140.034" gradientUnits="userSpaceOnUse">
<stop stop-color="#424161"/>
<stop offset="1" stop-color="#5B60A3"/>
</linearGradient>
<linearGradient id="paint52_linear_1599_5038" x1="95.1835" y1="358.42" x2="159.431" y2="-173.576" gradientUnits="userSpaceOnUse">
<stop stop-color="#CFDAF4"/>
<stop offset="1" stop-color="#A0AFDE"/>
</linearGradient>
<linearGradient id="paint53_linear_1599_5038" x1="149.759" y1="181.404" x2="122.446" y2="218.887" gradientUnits="userSpaceOnUse">
<stop stop-color="#C2D6A9"/>
<stop offset="1" stop-color="#F3F3F3"/>
</linearGradient>
<linearGradient id="paint54_linear_1599_5038" x1="124.546" y1="212.05" x2="168.21" y2="176.556" gradientUnits="userSpaceOnUse">
<stop stop-color="#429F56"/>
<stop offset="1" stop-color="#FADB81"/>
</linearGradient>
<linearGradient id="paint55_linear_1599_5038" x1="233.182" y1="255.907" x2="203.34" y2="238.678" gradientUnits="userSpaceOnUse">
<stop stop-color="white"/>
<stop offset="1" stop-color="#CFDAF4"/>
</linearGradient>
<linearGradient id="paint56_linear_1599_5038" x1="231.232" y1="247.982" x2="222.204" y2="242.793" gradientUnits="userSpaceOnUse">
<stop stop-color="white"/>
<stop offset="1" stop-color="#CFDAF4"/>
</linearGradient>
<linearGradient id="paint57_linear_1599_5038" x1="253.891" y1="282.603" x2="262.16" y2="228.504" gradientUnits="userSpaceOnUse">
<stop stop-color="#81D715"/>
<stop offset="1" stop-color="#1766AF"/>
</linearGradient>
<linearGradient id="paint58_linear_1599_5038" x1="105.472" y1="270.72" x2="206.751" y2="146.331" gradientUnits="userSpaceOnUse">
<stop stop-color="#1766AF"/>
<stop offset="1" stop-color="#81D715"/>
</linearGradient>
<linearGradient id="paint59_linear_1599_5038" x1="201.27" y1="181.781" x2="97.6575" y2="244.786" gradientUnits="userSpaceOnUse">
<stop stop-color="white"/>
<stop offset="1" stop-color="#CFDAF4" stop-opacity="0"/>
</linearGradient>
<linearGradient id="paint60_linear_1599_5038" x1="148.688" y1="195.838" x2="115.84" y2="205.877" gradientUnits="userSpaceOnUse">
<stop stop-color="white" stop-opacity="0.5"/>
<stop offset="1" stop-color="#CFDAF4" stop-opacity="0"/>
</linearGradient>
<linearGradient id="paint61_linear_1599_5038" x1="266.445" y1="315.044" x2="266.543" y2="325.043" gradientUnits="userSpaceOnUse">
<stop stop-color="#334FA8"/>
<stop offset="1" stop-color="#429F56"/>
</linearGradient>
</defs>
</svg>
