<svg width="147" height="90" viewBox="0 0 147 90" fill="none" xmlns="http://www.w3.org/2000/svg">
<rect x="0.75" y="0.75" width="145.5" height="88.5" rx="9.25" fill="white" stroke="url(#paint0_linear_1325_8726)" stroke-width="1.5"/>
<path d="M24.7673 52.5344H20.6099C20.3258 52.5344 20.0902 52.8148 20.0902 53.1529V59.7509C20.0902 60.089 20.3258 60.3694 20.6099 60.3694H24.7673C25.0514 60.3694 25.287 60.089 25.287 59.7509V53.1529C25.287 52.8148 25.0514 52.5344 24.7673 52.5344ZM24.2476 59.1323H21.1296V53.7715H24.2476V59.1323ZM37.2394 60.3694H41.3968C41.6809 60.3694 41.9165 60.089 41.9165 59.7509V53.1529C41.9165 52.8148 41.6809 52.5344 41.3968 52.5344H37.2394C36.9553 52.5344 36.7198 52.8148 36.7198 53.1529V59.7509C36.7198 60.089 36.9553 60.3694 37.2394 60.3694ZM37.7591 53.7715H40.8771V59.1323H37.7591V53.7715Z" fill="#303030"/>
<path d="M52.9158 56.9289L51.53 54.4546C51.336 54.1082 50.8579 54.1082 50.6639 54.4546L49.7146 56.1619L48.7584 54.4629C48.5644 54.1165 48.0863 54.1165 47.8923 54.4629L46.943 56.1619L45.9868 54.4629C45.7928 54.1165 45.3147 54.1165 45.1207 54.4629L44.6842 55.2381V43.0485H46.943C47.1163 43.0485 47.2756 42.9412 47.3726 42.7763C47.4696 42.6113 47.4835 42.3887 47.4211 42.199L43.9567 32.3021C43.8735 32.0711 43.6864 31.9227 43.4786 31.9227H35.6557C35.3994 29.1433 33.4108 26.9742 31.0064 26.9742C28.6021 26.9742 26.6204 29.1433 26.3571 31.9227H23.9042V28.2113H24.7703C25.0544 28.2113 25.29 27.9309 25.29 27.5928V25.1186C25.29 24.7804 25.0544 24.5 24.7703 24.5H19.2272C18.9431 24.5 18.7075 24.7804 18.7075 25.1186V27.5928C18.7075 27.9309 18.9431 28.2113 19.2272 28.2113H20.0933V31.9227H18.5343C18.3264 31.9227 18.1324 32.0711 18.0562 32.3021L14.5917 42.199C14.5224 42.3887 14.5432 42.6113 14.6402 42.7763C14.7372 42.9412 14.8966 43.0485 15.0698 43.0485H17.3217V55.2299L16.8852 54.4546C16.6912 54.1082 16.2131 54.1082 16.019 54.4546L15.0698 56.1619L14.1136 54.4629C13.9196 54.1165 13.4415 54.1165 13.2475 54.4629L12.2982 56.1619L11.342 54.4629C11.148 54.1165 10.6699 54.1165 10.4759 54.4629L9.09008 56.9371C9.03464 57.0361 9 57.1598 9 57.2835V63.8814C9 64.2196 9.23558 64.5 9.51967 64.5H52.4793C52.7634 64.5 52.999 64.2196 52.999 63.8814V57.2835C53.0059 57.1515 52.9782 57.0361 52.9158 56.9289ZM27.3687 32.533C27.3687 30.1412 28.997 28.2031 31.0064 28.2031C33.0158 28.2031 34.6441 30.1412 34.6441 32.533V36.8629H27.3687V32.533ZM19.7468 25.7289H24.2507V26.966H19.7468V25.7289ZM21.1326 28.2031H22.8649V31.9144H21.1326V28.2031ZM18.8807 33.1515H26.3294V37.4814C26.3294 37.8196 26.5649 38.1 26.849 38.1H35.1638C35.4479 38.1 35.6835 37.8196 35.6835 37.4814V33.1515H43.1321L46.167 41.8113H15.8528L18.8807 33.1515ZM10.0463 57.465L10.9124 55.9144L11.7785 57.465V63.2546H10.0463V57.465ZM12.8179 57.465L13.684 55.9144L14.5501 57.465V63.2546H12.8179V57.465ZM15.5895 57.465L16.4556 55.9144L17.3217 57.465V63.2546H15.5895V57.465ZM18.361 57.2753V43.0485H43.6518V57.2753V63.2546H34.9906V49.0278C34.9906 48.6897 34.755 48.4093 34.4709 48.4093H27.5419C27.2578 48.4093 27.0223 48.6897 27.0223 49.0278V63.2546H18.361V57.2753ZM28.0616 63.2546V49.6464H33.9512V63.2546H28.0616ZM44.6911 57.465L45.5573 55.9144L46.4234 57.465V63.2546H44.6911V57.465ZM47.4627 57.465L48.3288 55.9144L49.195 57.465V63.2546H47.4627V57.465ZM51.9665 63.2546H50.2343V57.465L51.1004 55.9144L51.9665 57.465V63.2546Z" fill="#303030"/>
<line y1="-0.5" x2="6.69565" y2="-0.5" transform="matrix(0.675388 0.737462 -0.690561 0.723274 17.7484 34.5)" stroke="#303030"/>
<line y1="-0.5" x2="3.03512" y2="-0.5" transform="matrix(-0.428791 0.903404 -0.87887 -0.477062 20.8594 37.7258)" stroke="#303030"/>
<line y1="-0.5" x2="2.89177" y2="-0.5" transform="matrix(0.96607 -0.258281 0.227637 0.973746 22.2687 39.4375)" stroke="#303030"/>
<path d="M42.2449 42.5L40.9011 45.5425" stroke="#303030" stroke-linecap="square"/>
<path d="M40.6723 45.9516L40.9739 47.8871" stroke="#303030" stroke-linecap="square"/>
<path d="M40.9773 48.2094L39.3183 50.4674" stroke="#303030" stroke-linecap="square"/>
<path d="M40.3715 45.9516L37.9583 47.0806" stroke="#303030" stroke-linecap="square"/>
<path d="M78.599 31.4435C78.6233 31.4922 78.666 31.5814 78.7268 31.7113C78.7918 31.8371 78.8648 31.9913 78.946 32.1739C79.0271 32.3525 79.1123 32.5533 79.2016 32.7765C79.2909 32.9997 79.372 33.2351 79.4451 33.4826C79.5181 33.7261 79.577 33.9757 79.6216 34.2313C79.6703 34.4829 79.6947 34.7304 79.6947 34.9739C79.6906 35.3757 79.6297 35.751 79.512 36.1C79.3984 36.449 79.23 36.7533 79.0068 37.013C78.7836 37.2687 78.5077 37.4716 78.179 37.6217C77.8503 37.7719 77.4709 37.847 77.0407 37.847C76.6674 37.847 76.361 37.7841 76.1216 37.6583C75.8862 37.5325 75.6915 37.36 75.5373 37.1409C75.452 37.2504 75.3607 37.3499 75.2633 37.4391C75.166 37.5243 75.0503 37.5974 74.9164 37.6583C74.7865 37.7232 74.6323 37.7719 74.4538 37.8043C74.2793 37.8368 74.0703 37.853 73.8268 37.853C73.6564 37.853 73.5002 37.8409 73.3581 37.8165C73.2161 37.7922 73.0862 37.7617 72.9686 37.7252C72.9645 38.2 72.8915 38.6322 72.7494 39.0217C72.6115 39.4113 72.4207 39.7603 72.1773 40.0687C71.9378 40.3771 71.6558 40.6449 71.3312 40.8722C71.0065 41.0994 70.6576 41.2861 70.2842 41.4322C69.9109 41.5823 69.5193 41.6939 69.1094 41.767C68.7036 41.84 68.2999 41.8765 67.8981 41.8765C67.2773 41.8765 66.7031 41.773 66.1755 41.5661C65.648 41.3632 65.1915 41.0751 64.806 40.7017C64.4245 40.3325 64.1262 39.8861 63.9112 39.3626C63.6961 38.8432 63.5886 38.269 63.5886 37.64C63.6007 37.2748 63.6494 36.9014 63.7347 36.52C63.8239 36.1386 63.9355 35.7652 64.0694 35.4C64.2074 35.0348 64.3596 34.6878 64.526 34.3591C64.6964 34.0264 64.8689 33.7281 65.0433 33.4643L66.3703 34.487C66.2242 34.7264 66.0822 34.98 65.9442 35.2478C65.8062 35.5116 65.6845 35.7835 65.579 36.0635C65.4735 36.3394 65.3883 36.6154 65.3233 36.8913C65.2584 37.1672 65.226 37.433 65.226 37.6887C65.2138 37.9971 65.2747 38.2872 65.4086 38.5591C65.5465 38.831 65.7352 39.0684 65.9747 39.2713C66.2181 39.4783 66.5022 39.6406 66.8268 39.7583C67.1555 39.8759 67.5045 39.9348 67.8738 39.9348C68.2918 39.9348 68.6773 39.8962 69.0303 39.8191C69.3874 39.742 69.7019 39.6345 69.9738 39.4965C70.2497 39.3626 70.481 39.1983 70.6677 39.0035C70.8544 38.8128 70.9883 38.6017 71.0694 38.3704L71.0633 38.3765C71.1648 38.0438 71.2155 37.7009 71.2155 37.3478C71.2155 37.0759 71.177 36.8 71.0999 36.52C71.0228 36.24 70.9233 35.958 70.8016 35.6739C70.6799 35.3858 70.5439 35.0977 70.3938 34.8096C70.2477 34.5174 70.1036 34.2252 69.9616 33.933L71.6294 32.9957C71.7349 33.2351 71.8404 33.4765 71.946 33.72C72.0515 33.9635 72.157 34.1968 72.2625 34.42C72.372 34.6391 72.4836 34.8441 72.5973 35.0348C72.7109 35.2255 72.8286 35.3899 72.9503 35.5278C73.072 35.6617 73.1978 35.7632 73.3277 35.8322C73.4616 35.9012 73.6036 35.9255 73.7538 35.9052C73.9242 35.8809 74.0622 35.822 74.1677 35.7287C74.2732 35.6313 74.3523 35.5116 74.4051 35.3696C74.4619 35.2275 74.4964 35.0693 74.5086 34.8948C74.5248 34.7162 74.5289 34.5357 74.5207 34.353C74.5126 34.1704 74.4984 33.9899 74.4781 33.8113C74.4619 33.6328 74.4477 33.4684 74.4355 33.3183L76.1155 33.093C76.1439 33.2188 76.1683 33.371 76.1886 33.5496C76.2089 33.7241 76.2312 33.9087 76.2555 34.1035C76.2839 34.2983 76.3184 34.4951 76.359 34.6939C76.3996 34.8928 76.4544 35.0774 76.5233 35.2478C76.5923 35.4183 76.6776 35.5664 76.779 35.6922C76.8804 35.818 77.0083 35.9072 77.1625 35.96C77.2883 35.96 77.406 35.9377 77.5155 35.893C77.6251 35.8443 77.7204 35.7754 77.8016 35.6861C77.8828 35.5968 77.9457 35.4872 77.9903 35.3574C78.039 35.2235 78.0633 35.0693 78.0633 34.8948C78.0633 34.7487 78.0349 34.5803 77.9781 34.3896C77.9254 34.1948 77.8523 33.9858 77.759 33.7626C77.6657 33.5394 77.5561 33.3061 77.4303 33.0626C77.3086 32.8151 77.1787 32.5655 77.0407 32.3139L78.599 31.4435ZM77.2842 30.5365L76.1155 31.7113L74.959 30.5548L73.8147 31.6991L72.6338 30.5243L73.8025 29.3496L74.959 30.5061L76.1033 29.3617L77.2842 30.5365ZM73.8755 28.7713L74.959 27.6878L76.0486 28.7774L74.9651 29.8609L73.8755 28.7713ZM83.0837 33.9087C82.9985 33.8925 82.9011 33.9229 82.7915 34C82.686 34.073 82.5846 34.1745 82.4872 34.3043C82.3939 34.4301 82.3147 34.5701 82.2498 34.7243C82.1889 34.8786 82.1585 35.0267 82.1585 35.1687C82.1585 35.3026 82.197 35.4142 82.2741 35.5035C82.3512 35.5928 82.4486 35.6658 82.5663 35.7226C82.6881 35.7794 82.8199 35.822 82.962 35.8504C83.1081 35.8788 83.2481 35.8991 83.382 35.9113H83.3759C83.4814 35.9194 83.6011 35.9255 83.735 35.9296C83.873 35.9296 84.0069 35.9296 84.1368 35.9296C84.1773 35.9296 84.2078 35.9316 84.2281 35.9357C84.2524 35.9357 84.2727 35.9357 84.2889 35.9357C84.3052 35.9357 84.3214 35.9357 84.3376 35.9357C84.3579 35.9357 84.3863 35.9336 84.4228 35.9296C84.362 35.678 84.2889 35.4386 84.2037 35.2113C84.1225 34.98 84.0272 34.773 83.9176 34.5904C83.8081 34.4078 83.6843 34.2577 83.5463 34.14C83.4083 34.0183 83.2541 33.9412 83.0837 33.9087ZM80.1011 40.2817C80.6733 40.1681 81.1947 40.0241 81.6654 39.8496C82.1362 39.6791 82.5481 39.4864 82.9011 39.2713C83.2582 39.0603 83.5524 38.8351 83.7837 38.5957C84.0191 38.3562 84.1854 38.1128 84.2828 37.8652C84.1083 37.8652 83.9237 37.8612 83.7289 37.853C83.5341 37.849 83.3739 37.8429 83.2481 37.8348C82.7773 37.7942 82.3472 37.6887 81.9576 37.5183C81.5681 37.3519 81.2576 37.1246 81.0263 36.8365C80.8559 36.6174 80.7341 36.38 80.6611 36.1243C80.5921 35.8687 80.5576 35.5988 80.5576 35.3148C80.5576 35.0957 80.5779 34.8765 80.6185 34.6574C80.6591 34.4342 80.7159 34.2191 80.7889 34.0122C80.862 33.8012 80.9472 33.6023 81.0446 33.4157C81.146 33.229 81.2536 33.0586 81.3672 32.9043C81.6107 32.6 81.8765 32.3707 82.1646 32.2165C82.4568 32.0583 82.7631 31.9791 83.0837 31.9791C83.7695 31.9791 84.3883 32.2794 84.9402 32.88C85.135 33.0991 85.3095 33.3446 85.4637 33.6165C85.6179 33.8884 85.7478 34.1786 85.8533 34.487C85.9628 34.7913 86.046 35.1119 86.1028 35.4487C86.1596 35.7814 86.1881 36.1203 86.1881 36.4652C86.1881 36.5707 86.184 36.6762 86.1759 36.7817C86.1718 36.8872 86.1657 36.9867 86.1576 37.08C86.1089 37.5548 86.0014 37.9991 85.835 38.413C85.6727 38.831 85.4617 39.2145 85.202 39.5635C84.9463 39.9165 84.6481 40.2351 84.3072 40.5191C83.9663 40.8072 83.595 41.0588 83.1933 41.2739C82.7956 41.493 82.3736 41.6757 81.9272 41.8217C81.4808 41.9678 81.0223 42.0774 80.5515 42.1504L80.1011 40.2817ZM91.3448 37.8652C91.2555 37.8652 91.1297 37.8591 90.9674 37.847C90.805 37.8348 90.6306 37.7901 90.4439 37.713C90.3546 38.2162 90.1862 38.693 89.9387 39.1435C89.6952 39.598 89.3929 40.022 89.0317 40.4157C88.6706 40.8133 88.2587 41.1786 87.7961 41.5113C87.3334 41.8441 86.8404 42.1423 86.3169 42.4061L85.203 40.8661C85.4911 40.72 85.7813 40.5597 86.0734 40.3852C86.3656 40.2148 86.6436 40.0322 86.9074 39.8374C87.1752 39.6467 87.4227 39.4458 87.65 39.2348C87.8813 39.0278 88.0821 38.8128 88.2526 38.5896C88.423 38.3664 88.5569 38.1371 88.6543 37.9017C88.7517 37.6704 88.8004 37.4351 88.8004 37.1957C88.8004 37.1835 88.7984 37.1652 88.7943 37.1409C88.7943 37.1165 88.7943 37.0922 88.7943 37.0678C88.7943 37.0435 88.7923 37.0252 88.7882 37.013C88.7882 37.0009 88.7882 37.0029 88.7882 37.0191V37.0252C88.7598 36.7899 88.7192 36.5646 88.6665 36.3496C88.6137 36.1345 88.5468 35.9154 88.4656 35.6922C88.3885 35.469 88.2972 35.2357 88.1917 34.9922C88.0862 34.7446 87.9685 34.4748 87.8387 34.1826L89.5978 33.4157C89.7601 33.9026 89.9123 34.3084 90.0543 34.633C90.1963 34.9577 90.3343 35.2174 90.4682 35.4122C90.6062 35.607 90.7442 35.7449 90.8821 35.8261C91.0201 35.9032 91.1662 35.9417 91.3204 35.9417H91.3508C91.4848 35.9417 91.6106 35.9681 91.7282 36.0209C91.8459 36.0736 91.9474 36.1446 92.0326 36.2339C92.1219 36.3191 92.1908 36.4206 92.2395 36.5383C92.2923 36.6559 92.3187 36.7797 92.3187 36.9096C92.3187 37.0435 92.2923 37.1693 92.2395 37.287C92.1908 37.4046 92.1219 37.5061 92.0326 37.5913C91.9474 37.6765 91.8459 37.7435 91.7282 37.7922C91.6106 37.8409 91.4827 37.8652 91.3448 37.8652ZM90.312 36.9035C90.312 36.7696 90.3384 36.6438 90.3911 36.5261C90.4398 36.4084 90.5088 36.307 90.5981 36.2217C90.6833 36.1325 90.7868 36.0635 90.9085 36.0148C91.0262 35.9661 91.152 35.9417 91.2859 35.9417C91.4361 35.9417 91.6207 35.9397 91.8398 35.9357C92.063 35.9275 92.3004 35.9154 92.552 35.8991C92.8036 35.8829 93.0592 35.8626 93.3189 35.8383C93.5827 35.8139 93.8323 35.7814 94.0676 35.7409C94.3071 35.7003 94.5221 35.6536 94.7129 35.6009C94.9076 35.5441 95.0598 35.4791 95.1694 35.4061C94.7595 35.4507 94.3821 35.469 94.0372 35.4609C93.6923 35.4487 93.3839 35.4142 93.112 35.3574C92.8401 35.3006 92.6068 35.2235 92.412 35.1261C92.2213 35.0246 92.0752 34.909 91.9737 34.7791V34.7852C91.8642 34.6472 91.7607 34.4626 91.6633 34.2313C91.57 34 91.5233 33.7139 91.5233 33.373C91.5233 33.1904 91.5355 33.02 91.5598 32.8617C91.6816 32.1719 91.925 31.6017 92.2903 31.1513L92.2842 31.1574C92.5033 30.8652 92.7508 30.6481 93.0268 30.5061C93.3027 30.36 93.5929 30.287 93.8972 30.287C94.2056 30.287 94.51 30.362 94.8103 30.5122C95.1105 30.6623 95.3824 30.8652 95.6259 31.1209C95.8004 31.3197 95.9566 31.5449 96.0946 31.7965C96.2366 32.0481 96.3563 32.3159 96.4537 32.6C96.5552 32.8841 96.6323 33.1803 96.685 33.4887C96.7418 33.793 96.7703 34.0994 96.7703 34.4078C96.7703 34.5012 96.7682 34.5945 96.7642 34.6878C96.7601 34.7771 96.754 34.8623 96.7459 34.9435C96.6972 35.3655 96.5897 35.7307 96.4233 36.0391C96.2569 36.3435 96.0439 36.6032 95.7842 36.8183C95.5285 37.0333 95.2343 37.2078 94.9016 37.3417C94.5688 37.4757 94.2117 37.5812 93.8303 37.6583C93.4488 37.7354 93.0491 37.7881 92.6311 37.8165C92.2172 37.8449 91.7992 37.8612 91.3772 37.8652H91.2737C91.1398 37.8652 91.014 37.8388 90.8963 37.7861C90.7787 37.7374 90.6772 37.6704 90.592 37.5852C90.5068 37.5 90.4398 37.3986 90.3911 37.2809C90.3384 37.1632 90.312 37.0374 90.312 36.9035ZM93.885 32.2226C93.7917 32.2186 93.6963 32.247 93.5989 32.3078C93.5056 32.3646 93.4184 32.4417 93.3372 32.5391C93.2601 32.6365 93.1952 32.7481 93.1424 32.8739C93.0937 32.9997 93.0694 33.1275 93.0694 33.2574C93.0694 33.371 93.0958 33.4725 93.1485 33.5617C93.1769 33.6104 93.2337 33.653 93.3189 33.6896C93.4082 33.722 93.5117 33.7504 93.6294 33.7748C93.7511 33.7951 93.881 33.8133 94.0189 33.8296C94.1569 33.8417 94.2888 33.8499 94.4146 33.8539C94.5404 33.858 94.654 33.858 94.7555 33.8539C94.861 33.8499 94.9381 33.8438 94.9868 33.8357C94.9503 33.653 94.9016 33.4684 94.8407 33.2817C94.7839 33.0951 94.7108 32.9246 94.6216 32.7704C94.5323 32.6162 94.4268 32.4884 94.305 32.387C94.1833 32.2855 94.0433 32.2307 93.885 32.2226ZM93.6476 26.8174L94.9989 28.1687L93.6476 29.52L92.2963 28.1687L93.6476 26.8174ZM103.523 33.9087C103.438 33.8925 103.341 33.9229 103.231 34C103.125 34.073 103.024 34.1745 102.927 34.3043C102.833 34.4301 102.754 34.5701 102.689 34.7243C102.628 34.8786 102.598 35.0267 102.598 35.1687C102.598 35.3026 102.636 35.4142 102.714 35.5035C102.791 35.5928 102.888 35.6658 103.006 35.7226C103.128 35.7794 103.259 35.822 103.401 35.8504C103.548 35.8788 103.688 35.8991 103.821 35.9113H103.815C103.921 35.9194 104.041 35.9255 104.174 35.9296C104.312 35.9296 104.446 35.9296 104.576 35.9296C104.617 35.9296 104.647 35.9316 104.668 35.9357C104.692 35.9357 104.712 35.9357 104.728 35.9357C104.745 35.9357 104.761 35.9357 104.777 35.9357C104.797 35.9357 104.826 35.9336 104.862 35.9296C104.801 35.678 104.728 35.4386 104.643 35.2113C104.562 34.98 104.467 34.773 104.357 34.5904C104.248 34.4078 104.124 34.2577 103.986 34.14C103.848 34.0183 103.694 33.9412 103.523 33.9087ZM100.541 40.2817C101.113 40.1681 101.634 40.0241 102.105 39.8496C102.576 39.6791 102.988 39.4864 103.341 39.2713C103.698 39.0603 103.992 38.8351 104.223 38.5957C104.459 38.3562 104.625 38.1128 104.722 37.8652C104.548 37.8652 104.363 37.8612 104.168 37.853C103.974 37.849 103.813 37.8429 103.688 37.8348C103.217 37.7942 102.787 37.6887 102.397 37.5183C102.008 37.3519 101.697 37.1246 101.466 36.8365C101.295 36.6174 101.174 36.38 101.101 36.1243C101.032 35.8687 100.997 35.5988 100.997 35.3148C100.997 35.0957 101.017 34.8765 101.058 34.6574C101.099 34.4342 101.155 34.2191 101.228 34.0122C101.301 33.8012 101.387 33.6023 101.484 33.4157C101.585 33.229 101.693 33.0586 101.807 32.9043C102.05 32.6 102.316 32.3707 102.604 32.2165C102.896 32.0583 103.203 31.9791 103.523 31.9791C104.209 31.9791 104.828 32.2794 105.38 32.88C105.574 33.0991 105.749 33.3446 105.903 33.6165C106.057 33.8884 106.187 34.1786 106.293 34.487C106.402 34.7913 106.485 35.1119 106.542 35.4487C106.599 35.7814 106.628 36.1203 106.628 36.4652C106.628 36.5707 106.623 36.6762 106.615 36.7817C106.611 36.8872 106.605 36.9867 106.597 37.08C106.548 37.5548 106.441 37.9991 106.274 38.413C106.112 38.831 105.901 39.2145 105.641 39.5635C105.386 39.9165 105.088 40.2351 104.747 40.5191C104.406 40.8072 104.034 41.0588 103.633 41.2739C103.235 41.493 102.813 41.6757 102.367 41.8217C101.92 41.9678 101.462 42.0774 100.991 42.1504L100.541 40.2817ZM113.369 37.8652C112.837 37.8652 112.316 37.7638 111.804 37.5609C111.297 37.358 110.826 37.0313 110.392 36.5809L111.494 35.0287C111.693 35.2113 111.885 35.3614 112.072 35.4791C112.259 35.5928 112.437 35.682 112.608 35.747C112.778 35.8119 112.938 35.8565 113.089 35.8809C113.243 35.9052 113.387 35.9174 113.521 35.9174C113.582 35.9174 113.651 35.9154 113.728 35.9113C113.805 35.9072 113.882 35.9012 113.959 35.893C114.036 35.8809 114.111 35.8667 114.184 35.8504C114.257 35.8342 114.324 35.8139 114.385 35.7896C114.596 35.7003 114.763 35.611 114.884 35.5217C114.73 35.1484 114.562 34.7609 114.379 34.3591C114.2 33.9533 114.02 33.5475 113.837 33.1417C113.655 32.7319 113.474 32.3261 113.296 31.9243C113.117 31.5226 112.951 31.1371 112.796 30.7678L114.574 30.0252L115.116 31.34C115.29 31.7701 115.499 32.2814 115.743 32.8739C115.986 33.4623 116.266 34.1299 116.583 34.8765C116.656 35.0551 116.723 35.2113 116.783 35.3452C116.844 35.4791 116.915 35.5907 116.996 35.68C117.082 35.7693 117.181 35.8362 117.295 35.8809C117.412 35.9214 117.563 35.9417 117.745 35.9417C117.875 35.9417 117.999 35.9661 118.116 36.0148C118.234 36.0635 118.336 36.1325 118.421 36.2217C118.51 36.307 118.581 36.4084 118.634 36.5261C118.687 36.6438 118.713 36.7696 118.713 36.9035C118.713 37.0374 118.687 37.1632 118.634 37.2809C118.581 37.3986 118.51 37.5 118.421 37.5852C118.336 37.6745 118.234 37.7435 118.116 37.7922C117.999 37.8409 117.875 37.8652 117.745 37.8652C117.498 37.8652 117.278 37.849 117.088 37.8165C116.901 37.7841 116.733 37.7374 116.583 37.6765C116.436 37.6197 116.305 37.5507 116.187 37.4696C116.073 37.3843 115.966 37.291 115.864 37.1896C115.755 37.2626 115.639 37.3336 115.517 37.4026C115.396 37.4675 115.256 37.5325 115.097 37.5974C114.854 37.6907 114.59 37.7577 114.306 37.7983C114.026 37.8429 113.714 37.8652 113.369 37.8652ZM122.367 39.8678L121.198 41.0426L120.042 39.8861L118.898 41.0304L117.717 39.8557L118.885 38.6809L120.042 39.8374L121.186 38.693L122.367 39.8678ZM116.481 36.9035C116.481 36.7696 116.507 36.6438 116.56 36.5261C116.609 36.4084 116.676 36.307 116.761 36.2217C116.846 36.1325 116.948 36.0635 117.065 36.0148C117.183 35.9661 117.309 35.9417 117.443 35.9417H118.118H118.411C118.593 35.9417 118.794 35.9336 119.013 35.9174C119.232 35.9012 119.443 35.8748 119.646 35.8383C119.849 35.8017 120.032 35.753 120.194 35.6922C120.36 35.6272 120.482 35.5461 120.559 35.4487C120.604 35.3797 120.626 35.2864 120.626 35.1687C120.626 34.9942 120.584 34.7872 120.498 34.5478C120.417 34.3084 120.32 34.0649 120.206 33.8174C120.093 33.5699 119.975 33.3325 119.853 33.1052C119.735 32.878 119.64 32.6893 119.567 32.5391L121.302 31.687C121.428 31.9061 121.549 32.1658 121.667 32.4661C121.785 32.7623 121.89 33.0687 121.984 33.3852C122.077 33.6977 122.152 34.0061 122.209 34.3104C122.266 34.6107 122.294 34.8725 122.294 35.0957C122.294 35.5055 122.221 35.8809 122.075 36.2217C121.904 36.6032 121.671 36.9197 121.375 37.1713C121.079 37.4188 120.724 37.6014 120.31 37.7191C120.188 37.7516 120.036 37.778 119.853 37.7983C119.671 37.8186 119.486 37.8328 119.299 37.8409C119.113 37.853 118.936 37.8591 118.77 37.8591C118.603 37.8632 118.473 37.8652 118.38 37.8652H117.498H117.443C117.309 37.8652 117.183 37.8409 117.065 37.7922C116.948 37.7435 116.846 37.6745 116.761 37.5852C116.676 37.5 116.609 37.3986 116.56 37.2809C116.507 37.1632 116.481 37.0374 116.481 36.9035ZM128.245 37.8652C128.156 37.8652 128.03 37.8591 127.868 37.847C127.705 37.8348 127.531 37.7901 127.344 37.713C127.255 38.2162 127.087 38.693 126.839 39.1435C126.596 39.598 126.293 40.022 125.932 40.4157C125.571 40.8133 125.159 41.1786 124.696 41.5113C124.234 41.8441 123.741 42.1423 123.217 42.4061L122.103 40.8661C122.392 40.72 122.682 40.5597 122.974 40.3852C123.266 40.2148 123.544 40.0322 123.808 39.8374C124.076 39.6467 124.323 39.4458 124.55 39.2348C124.782 39.0278 124.983 38.8128 125.153 38.5896C125.323 38.3664 125.457 38.1371 125.555 37.9017C125.652 37.6704 125.701 37.4351 125.701 37.1957C125.701 37.1835 125.699 37.1652 125.695 37.1409C125.695 37.1165 125.695 37.0922 125.695 37.0678C125.695 37.0435 125.693 37.0252 125.689 37.013C125.689 37.0009 125.689 37.0029 125.689 37.0191V37.0252C125.66 36.7899 125.62 36.5646 125.567 36.3496C125.514 36.1345 125.447 35.9154 125.366 35.6922C125.289 35.469 125.198 35.2357 125.092 34.9922C124.987 34.7446 124.869 34.4748 124.739 34.1826L126.498 33.4157C126.661 33.9026 126.813 34.3084 126.955 34.633C127.097 34.9577 127.235 35.2174 127.369 35.4122C127.507 35.607 127.645 35.7449 127.783 35.8261C127.921 35.9032 128.067 35.9417 128.221 35.9417H128.251C128.385 35.9417 128.511 35.9681 128.629 36.0209C128.746 36.0736 128.848 36.1446 128.933 36.2339C129.022 36.3191 129.091 36.4206 129.14 36.5383C129.193 36.6559 129.219 36.7797 129.219 36.9096C129.219 37.0435 129.193 37.1693 129.14 37.287C129.091 37.4046 129.022 37.5061 128.933 37.5913C128.848 37.6765 128.746 37.7435 128.629 37.7922C128.511 37.8409 128.383 37.8652 128.245 37.8652ZM127.212 36.9035C127.212 36.7696 127.239 36.6438 127.292 36.5261C127.34 36.4084 127.409 36.307 127.498 36.2217C127.584 36.1325 127.687 36.0635 127.809 36.0148C127.927 35.9661 128.052 35.9417 128.186 35.9417H129.355C130.012 35.9417 130.615 35.9032 131.163 35.8261C131.715 35.7449 132.23 35.6374 132.709 35.5035C133.188 35.3696 133.64 35.2154 134.066 35.0409C134.496 34.8623 134.918 34.6777 135.332 34.487C135.056 34.4099 134.778 34.3145 134.498 34.2009C134.223 34.0872 133.945 33.9777 133.665 33.8722C133.389 33.7667 133.113 33.6774 132.837 33.6043C132.561 33.5272 132.287 33.4887 132.015 33.4887C131.828 33.4887 131.646 33.5394 131.467 33.6409C131.289 33.7423 131.126 33.858 130.98 33.9878C130.834 34.1177 130.71 34.2455 130.609 34.3713C130.512 34.493 130.451 34.5762 130.426 34.6209L129.02 33.7139C129.174 33.442 129.357 33.1762 129.568 32.9165C129.779 32.6568 130.01 32.4275 130.262 32.2287C130.518 32.0258 130.792 31.8635 131.084 31.7417C131.38 31.62 131.69 31.5591 132.015 31.5591C132.254 31.5591 132.494 31.5855 132.733 31.6383C132.973 31.687 133.21 31.7519 133.445 31.833C133.685 31.9142 133.92 32.0075 134.152 32.113C134.383 32.2145 134.612 32.318 134.839 32.4235C135.058 32.5249 135.276 32.6264 135.491 32.7278C135.71 32.8252 135.935 32.9165 136.166 33.0017C136.398 33.0829 136.637 33.1499 136.885 33.2026C137.132 33.2554 137.394 33.2838 137.67 33.2878L137.518 35.1565L136.653 35.5704C136.3 35.7409 135.949 35.9174 135.6 36.1C135.251 36.2786 134.894 36.453 134.529 36.6235C134.168 36.7899 133.794 36.9501 133.409 37.1043C133.027 37.2545 132.626 37.3864 132.204 37.5C131.782 37.6096 131.335 37.6968 130.865 37.7617C130.394 37.8307 129.891 37.8652 129.355 37.8652H128.235H128.186C128.052 37.8652 127.927 37.8388 127.809 37.7861C127.687 37.7374 127.584 37.6704 127.498 37.5852C127.409 37.5 127.34 37.3986 127.292 37.2809C127.239 37.1632 127.212 37.0374 127.212 36.9035ZM131.759 28.2661L133.111 29.6174L131.759 30.9687L130.408 29.6174L131.759 28.2661ZM75.5903 64.8339C75.2129 64.8339 74.8233 64.8116 74.4216 64.767C74.0239 64.7264 73.6384 64.6472 73.265 64.5296C72.8958 64.4119 72.5508 64.2455 72.2303 64.0304C71.9097 63.8194 71.6398 63.5435 71.4207 63.2026C71.2137 62.8739 71.0534 62.5128 70.9398 62.1191C70.8262 61.7255 70.7694 61.2852 70.7694 60.7983C70.7694 60.4412 70.7836 60.1023 70.812 59.7817C70.8445 59.4571 70.8932 59.1365 70.9581 58.82C71.023 58.5035 71.1062 58.1829 71.2077 57.8583C71.3132 57.5336 71.439 57.1887 71.585 56.8235L73.1494 57.4748C73.0317 57.767 72.9303 58.0307 72.845 58.2661C72.7639 58.5014 72.6949 58.7165 72.6381 58.9113C72.5813 59.102 72.5366 59.2786 72.5042 59.4409C72.4717 59.6032 72.4474 59.7594 72.4311 59.9096C72.4149 60.0557 72.4048 60.2017 72.4007 60.3478C72.3966 60.4899 72.3946 60.64 72.3946 60.7983C72.3946 61.1026 72.4433 61.3664 72.5407 61.5896C72.6381 61.8128 72.77 62.0014 72.9363 62.1557C73.1027 62.3099 73.2934 62.4357 73.5085 62.533C73.7277 62.6345 73.9549 62.7116 74.1903 62.7643C74.4256 62.8171 74.663 62.8536 74.9024 62.8739C75.1459 62.8942 75.3752 62.9043 75.5903 62.9043C75.6958 62.9043 75.852 62.8962 76.059 62.88C76.2659 62.8678 76.4911 62.8435 76.7346 62.807C76.9821 62.7745 77.2337 62.7299 77.4894 62.673C77.7491 62.6162 77.9845 62.5452 78.1955 62.46C78.4065 62.3788 78.579 62.2814 78.7129 62.1678C78.8468 62.0583 78.9137 61.9284 78.9137 61.7783C78.9137 61.762 78.8792 61.7336 78.8103 61.693C78.7453 61.6525 78.654 61.6038 78.5363 61.547C78.4227 61.4942 78.2888 61.4333 78.1346 61.3643C77.9845 61.2994 77.8221 61.2325 77.6477 61.1635H77.6537C77.459 61.1026 77.254 61.0499 77.039 61.0052C76.8279 60.9646 76.619 60.9281 76.412 60.8957C76.3795 60.8916 76.3369 60.8855 76.2842 60.8774C76.2355 60.8693 76.1848 60.8591 76.132 60.847C76.0792 60.8388 76.0265 60.8287 75.9737 60.8165C75.925 60.8084 75.8845 60.8003 75.852 60.7922L76.1016 58.9417H80.9833C81.1132 58.9417 81.2369 58.9661 81.3546 59.0148C81.4723 59.0635 81.5737 59.1325 81.659 59.2217C81.7482 59.307 81.8192 59.4084 81.872 59.5261C81.9248 59.6438 81.9511 59.7696 81.9511 59.9035C81.9511 60.0374 81.9248 60.1632 81.872 60.2809C81.8192 60.3986 81.7482 60.5 81.659 60.5852C81.5737 60.6745 81.4723 60.7435 81.3546 60.7922C81.2369 60.8409 81.1132 60.8652 80.9833 60.8652H80.3077C80.3929 61.0275 80.4537 61.1899 80.4903 61.3522C80.5308 61.5186 80.5532 61.6606 80.5572 61.7783C80.5369 62.1597 80.4395 62.4986 80.265 62.7948C80.0946 63.0951 79.8734 63.3588 79.6016 63.5861C79.3297 63.8133 79.0213 64.0061 78.6763 64.1643C78.3314 64.3226 77.9784 64.4504 77.6172 64.5478C77.2561 64.6493 76.899 64.7223 76.5459 64.767C76.1969 64.8116 75.8784 64.8339 75.5903 64.8339ZM80.1174 59.9035C80.1174 59.7696 80.1437 59.6438 80.1965 59.5261C80.2452 59.4084 80.3142 59.307 80.4034 59.2217C80.4927 59.1365 80.5962 59.0696 80.7139 59.0209C80.8316 58.9681 80.9553 58.9417 81.0852 58.9417H81.14H83.1487C83.2663 58.9417 83.4003 58.9174 83.5504 58.8687C83.7046 58.82 83.8507 58.7571 83.9887 58.68C84.1266 58.5988 84.2463 58.5096 84.3478 58.4122C84.4492 58.3107 84.5081 58.2093 84.5243 58.1078C84.5365 57.9049 84.5 57.6858 84.4148 57.4504C84.3295 57.2151 84.2098 56.9757 84.0556 56.7322C83.9055 56.4846 83.731 56.2391 83.5321 55.9957C83.3333 55.7481 83.1263 55.5128 82.9113 55.2896C82.6962 55.0664 82.4811 54.8594 82.2661 54.6687C82.051 54.478 81.8521 54.3136 81.6695 54.1757L81.8339 52.5017L87.4278 50.1583L88.1339 51.8322L83.5139 53.7191C83.7939 53.9788 84.0475 54.2325 84.2748 54.48C84.502 54.7235 84.709 54.967 84.8956 55.2104C85.0863 55.4539 85.2588 55.6994 85.413 55.947C85.5713 56.1945 85.7174 56.4481 85.8513 56.7078L85.9121 56.8174L85.9061 56.8113C85.9994 56.9817 86.0907 57.1522 86.18 57.3226C86.2733 57.489 86.3727 57.6574 86.4782 57.8278C86.5756 57.982 86.6811 58.1261 86.7948 58.26C86.9124 58.3899 87.0403 58.5055 87.1782 58.607C87.3162 58.7084 87.4623 58.7896 87.6165 58.8504C87.7748 58.9072 87.9432 58.9377 88.1217 58.9417H88.1156H88.3713C88.5052 58.9417 88.631 58.9681 88.7487 59.0209C88.8663 59.0696 88.9678 59.1365 89.053 59.2217C89.1423 59.307 89.2113 59.4084 89.26 59.5261C89.3087 59.6438 89.333 59.7696 89.333 59.9035C89.333 60.0374 89.3087 60.1632 89.26 60.2809C89.2113 60.3986 89.1423 60.5 89.053 60.5852C88.9678 60.6745 88.8663 60.7435 88.7487 60.7922C88.631 60.8409 88.5052 60.8652 88.3713 60.8652H88.3226C88.0142 60.8652 87.7382 60.8449 87.4948 60.8043C87.2553 60.7638 87.0179 60.7049 86.7826 60.6278C86.5391 60.5386 86.3119 60.4188 86.1008 60.2687C85.8898 60.1186 85.693 59.9501 85.5104 59.7635C85.4658 59.8203 85.415 59.8791 85.3582 59.94C85.3014 60.0009 85.2446 60.0597 85.1878 60.1165C85.0336 60.2545 84.8713 60.3701 84.7008 60.4635C84.5304 60.5528 84.3559 60.6258 84.1774 60.6826C83.9988 60.7435 83.8162 60.7861 83.6295 60.8104C83.4429 60.8388 83.2562 60.8571 83.0695 60.8652H81.0852C80.9553 60.8652 80.8316 60.8409 80.7139 60.7922C80.5962 60.7435 80.4927 60.6745 80.4034 60.5852C80.3142 60.5 80.2452 60.3986 80.1965 60.2809C80.1437 60.1632 80.1174 60.0374 80.1174 59.9035ZM86.9043 49.5009L81.8643 51.6313L81.913 50.7183L86.5695 48.7765L86.9043 49.5009ZM87.4045 59.9035C87.4045 59.7696 87.4288 59.6438 87.4775 59.5261C87.5262 59.4084 87.5952 59.307 87.6845 59.2217C87.7697 59.1365 87.8711 59.0696 87.9888 59.0209C88.1065 58.9681 88.2323 58.9417 88.3662 58.9417H88.4697C89.0337 58.9417 89.4598 58.8525 89.748 58.6739C90.0361 58.4913 90.1801 58.2154 90.1801 57.8461C90.1801 57.773 90.1801 57.7081 90.1801 57.6513C90.1842 57.5945 90.1781 57.5214 90.1619 57.4322C90.1497 57.3388 90.1233 57.2191 90.0827 57.073C90.0462 56.9229 89.9894 56.718 89.9123 56.4583L91.6471 56.0383C91.7323 56.2817 91.8074 56.5557 91.8723 56.86C91.9372 57.1603 91.9697 57.489 91.9697 57.8461C91.9697 57.9638 91.9798 58.0875 92.0001 58.2174C92.0245 58.3432 92.061 58.4609 92.1097 58.5704C92.1624 58.6759 92.2314 58.7652 92.3166 58.8383C92.4059 58.9072 92.5175 58.9417 92.6514 58.9417C92.7813 58.9417 92.9051 58.9681 93.0227 59.0209C93.1404 59.0696 93.2419 59.1365 93.3271 59.2217C93.4164 59.307 93.4874 59.4084 93.5401 59.5261C93.5929 59.6438 93.6193 59.7696 93.6193 59.9035C93.6193 60.0374 93.5929 60.1632 93.5401 60.2809C93.4914 60.3986 93.4224 60.5 93.3332 60.5852C93.2439 60.6745 93.1404 60.7435 93.0227 60.7922C92.9091 60.8409 92.7874 60.8652 92.6575 60.8652C92.268 60.8652 91.9352 60.8084 91.6593 60.6948C91.3833 60.5852 91.1459 60.4371 90.9471 60.2504C90.6549 60.4614 90.3059 60.6157 89.9001 60.713C89.4984 60.8145 89.0216 60.8652 88.4697 60.8652H88.3662C88.2323 60.8652 88.1065 60.8409 87.9888 60.7922C87.8711 60.7435 87.7697 60.6745 87.6845 60.5852C87.5952 60.5 87.5262 60.3986 87.4775 60.2809C87.4288 60.1632 87.4045 60.0374 87.4045 59.9035ZM90.734 52.3374L92.0853 53.6887L90.734 55.04L89.3827 53.6887L90.734 52.3374ZM91.6427 59.9035C91.6427 59.7696 91.669 59.6438 91.7218 59.5261C91.7705 59.4084 91.8374 59.307 91.9227 59.2217C92.0079 59.1365 92.1093 59.0696 92.227 59.0209C92.3447 58.9681 92.4705 58.9417 92.6044 58.9417H92.6592H93.0487H93.0427C93.1806 58.9742 93.3085 58.96 93.4261 58.8991C93.5438 58.8342 93.6453 58.7429 93.7305 58.6252C93.8157 58.5035 93.8827 58.3655 93.9314 58.2113C93.98 58.053 94.0044 57.8968 94.0044 57.7426C94.0125 57.3977 94.0085 56.9574 93.9922 56.4217C93.976 55.8861 93.9638 55.2612 93.9557 54.547C93.9476 53.8936 93.9374 53.2951 93.9253 52.7513C93.9172 52.2075 93.8969 51.682 93.8644 51.1748L95.7574 50.8278C95.7899 51.0875 95.8143 51.3696 95.8305 51.6739C95.8508 51.9742 95.865 52.2887 95.8731 52.6174C95.8853 52.9461 95.8934 53.2849 95.8974 53.6339C95.9015 53.9829 95.9035 54.3339 95.9035 54.687C95.9035 55.2429 95.8974 55.8009 95.8853 56.3609C95.8772 56.6409 95.8711 56.933 95.867 57.2374C95.8629 57.5417 95.8609 57.84 95.8609 58.1322C95.8609 58.2012 95.869 58.2864 95.8853 58.3878C95.9015 58.4893 95.938 58.5867 95.9948 58.68H95.9887C96.0374 58.753 96.1085 58.8159 96.2018 58.8687C96.2951 58.9174 96.4392 58.9417 96.634 58.9417C96.7679 58.9417 96.8937 58.9681 97.0114 59.0209C97.129 59.0696 97.2305 59.1365 97.3157 59.2217C97.405 59.307 97.476 59.4084 97.5287 59.5261C97.5815 59.6438 97.6079 59.7696 97.6079 59.9035C97.6079 60.0374 97.5815 60.1632 97.5287 60.2809C97.476 60.3986 97.405 60.5 97.3157 60.5852C97.2305 60.6745 97.129 60.7435 97.0114 60.7922C96.8937 60.8409 96.7679 60.8652 96.634 60.8652C96.2728 60.8733 95.9522 60.8104 95.6722 60.6765C95.3922 60.5467 95.1548 60.3864 94.96 60.1957C94.7287 60.4067 94.4711 60.569 94.187 60.6826C93.9029 60.7962 93.6148 60.8571 93.3227 60.8652H92.6592H92.6044C92.4705 60.8652 92.3447 60.8409 92.227 60.7922C92.1093 60.7435 92.0079 60.6745 91.9227 60.5852C91.8374 60.5 91.7705 60.3986 91.7218 60.2809C91.669 60.1632 91.6427 60.0374 91.6427 59.9035ZM95.5481 59.9096C95.5481 59.7716 95.5725 59.6438 95.6212 59.5261C95.6699 59.4084 95.7409 59.307 95.8342 59.2217C95.9235 59.1325 96.031 59.0635 96.1568 59.0148C96.2786 58.9661 96.4165 58.9417 96.5707 58.9417H96.9116H97.2099C97.429 58.9417 97.6704 58.9397 97.9342 58.9357C98.198 58.9275 98.4516 58.9072 98.6951 58.8748C98.9426 58.8383 99.1638 58.7855 99.3586 58.7165C99.5574 58.6475 99.7015 58.5522 99.7907 58.4304C99.9125 58.2438 99.9733 58.0307 99.9733 57.7913C99.9733 57.7101 99.9652 57.629 99.949 57.5478C99.9368 57.4626 99.9206 57.3754 99.9003 57.2861C99.8719 57.1846 99.811 57.0629 99.7177 56.9209C99.6284 56.7748 99.5128 56.6165 99.3707 56.4461C99.2287 56.2716 99.0664 56.089 98.8838 55.8983C98.7012 55.7035 98.5064 55.5067 98.2994 55.3078C98.0925 55.1049 97.8754 54.9041 97.6481 54.7052C97.4209 54.5064 97.1936 54.3136 96.9664 54.127L97.1551 52.4713L102.268 50.1948L103.005 51.8261L98.9629 53.7009C99.1618 53.8388 99.3667 54.0032 99.5777 54.1939C99.7887 54.3846 99.9936 54.5936 100.192 54.8209C100.391 55.0441 100.578 55.2814 100.752 55.533C100.927 55.7846 101.079 56.0423 101.209 56.3061C101.339 56.5699 101.44 56.8357 101.513 57.1035C101.59 57.3713 101.627 57.633 101.623 57.8887C101.619 58.193 101.578 58.4771 101.501 58.7409C101.424 59.0006 101.329 59.2339 101.215 59.4409C100.793 60.1957 100.097 60.6562 99.1273 60.8226L99.1333 60.8165C99.0238 60.8368 98.9203 60.851 98.8229 60.8591C98.7255 60.8672 98.6302 60.8713 98.5368 60.8713L96.5707 60.8652C96.4206 60.8652 96.2826 60.8409 96.1568 60.7922C96.031 60.7435 95.9235 60.6745 95.8342 60.5852C95.7449 60.5 95.676 60.4006 95.6273 60.287C95.5745 60.1693 95.5481 60.0435 95.5481 59.9096ZM109.629 60.013C109.052 60.013 108.557 59.9359 108.143 59.7817C107.73 59.6235 107.401 59.4023 107.157 59.1183C107.015 58.9357 106.912 58.7388 106.847 58.5278C106.786 58.3128 106.756 58.1078 106.756 57.913C106.756 57.7426 106.77 57.5884 106.798 57.4504C106.827 57.3125 106.861 57.1948 106.902 57.0974C107.064 56.7565 107.263 56.4583 107.498 56.2026C107.738 55.947 107.985 55.7258 108.241 55.5391C108.501 55.3484 108.756 55.1901 109.008 55.0643C109.263 54.9386 109.491 54.8351 109.69 54.7539C109.681 54.6606 109.673 54.5652 109.665 54.4678C109.661 54.3704 109.655 54.2771 109.647 54.1878L109.617 53.8043L111.516 53.3965C111.52 53.433 111.528 53.5183 111.54 53.6522C111.556 53.7861 111.572 53.9464 111.589 54.133C111.609 54.3157 111.629 54.5125 111.65 54.7235C111.674 54.9304 111.694 55.1252 111.71 55.3078C111.731 55.4904 111.747 55.6487 111.759 55.7826C111.775 55.9165 111.785 55.9977 111.79 56.0261C111.85 56.5252 111.901 56.9351 111.942 57.2557C111.986 57.5762 112.023 57.8319 112.051 58.0226C112.084 58.2093 112.11 58.3452 112.13 58.4304C112.151 58.5116 112.167 58.5664 112.179 58.5948C112.24 58.7246 112.331 58.8159 112.453 58.8687C112.579 58.9174 112.745 58.9417 112.952 58.9417C113.082 58.9417 113.206 58.9661 113.323 59.0148C113.441 59.0635 113.543 59.1325 113.628 59.2217C113.717 59.307 113.788 59.4084 113.841 59.5261C113.894 59.6438 113.92 59.7696 113.92 59.9035C113.92 60.0374 113.894 60.1632 113.841 60.2809C113.788 60.3986 113.717 60.5 113.628 60.5852C113.543 60.6704 113.441 60.7374 113.323 60.7861C113.206 60.8388 113.082 60.8652 112.952 60.8652C112.867 60.8652 112.772 60.8612 112.666 60.853C112.561 60.849 112.449 60.8368 112.331 60.8165C112.218 60.8003 112.098 60.7739 111.972 60.7374C111.85 60.7049 111.729 60.6603 111.607 60.6035C111.437 60.5223 111.286 60.431 111.157 60.3296C111.031 60.2241 110.909 60.0922 110.791 59.9339C110.584 59.9623 110.383 59.9826 110.189 59.9948C109.998 60.007 109.811 60.013 109.629 60.013ZM109.592 58.1017C109.677 58.1017 109.765 58.0997 109.854 58.0957C109.947 58.0875 110.037 58.0794 110.122 58.0713C110.101 57.9333 110.079 57.7791 110.055 57.6087C110.034 57.4383 110.014 57.2557 109.994 57.0609L109.933 56.5009C109.779 56.578 109.606 56.6713 109.416 56.7809C109.225 56.8864 109.044 57 108.874 57.1217C108.708 57.2394 108.568 57.3612 108.454 57.487C108.34 57.6087 108.283 57.7223 108.283 57.8278C108.283 57.8806 108.328 57.9252 108.417 57.9617C108.511 57.9942 108.624 58.0226 108.758 58.047C108.892 58.0672 109.034 58.0814 109.184 58.0896C109.334 58.0977 109.47 58.1017 109.592 58.1017ZM111.944 59.9035C111.944 59.7696 111.97 59.6438 112.023 59.5261C112.072 59.4084 112.139 59.307 112.224 59.2217C112.309 59.1325 112.411 59.0635 112.528 59.0148C112.646 58.9661 112.772 58.9417 112.906 58.9417H113.533H113.807C113.957 58.9417 114.113 58.9357 114.275 58.9235C114.442 58.9113 114.596 58.887 114.738 58.8504C114.884 58.8139 115.012 58.7632 115.121 58.6983C115.235 58.6333 115.316 58.5461 115.365 58.4365C115.397 58.3635 115.413 58.2539 115.413 58.1078C115.413 58.0104 115.385 57.8643 115.328 57.6696C115.271 57.4748 115.196 57.2597 115.103 57.0243C115.01 56.7849 114.904 56.5354 114.787 56.2757C114.669 56.0159 114.549 55.7704 114.427 55.5391L116.168 54.6748C116.282 54.9304 116.393 55.2023 116.503 55.4904C116.617 55.7786 116.718 56.0707 116.807 56.367C116.897 56.6632 116.968 56.9594 117.02 57.2557C117.077 57.5478 117.106 57.8278 117.106 58.0957C117.106 58.5055 117.033 58.8809 116.887 59.2217C116.716 59.6032 116.483 59.9197 116.187 60.1713C115.89 60.4188 115.535 60.6014 115.121 60.7191C114.878 60.7881 114.644 60.8287 114.421 60.8409C114.198 60.8571 113.989 60.8652 113.794 60.8652H112.96H112.906C112.772 60.8652 112.646 60.8409 112.528 60.7922C112.411 60.7435 112.309 60.6745 112.224 60.5852C112.139 60.5 112.072 60.3986 112.023 60.2809C111.97 60.1632 111.944 60.0374 111.944 59.9035ZM114.957 51.2357L116.308 52.587L114.957 53.9383L113.606 52.587L114.957 51.2357ZM121.052 60.8652C120.553 60.8652 120.124 60.8023 119.767 60.6765C119.41 60.5548 119.102 60.3661 118.842 60.1104C118.68 59.9481 118.554 59.7777 118.465 59.5991C118.379 59.4206 118.317 59.2461 118.276 59.0757C118.239 58.9012 118.217 58.7368 118.209 58.5826C118.205 58.4284 118.203 58.2965 118.203 58.187V58.0957C118.207 57.9455 118.211 57.7304 118.215 57.4504C118.223 57.1664 118.227 56.8336 118.227 56.4522C118.227 56.0707 118.225 55.6507 118.221 55.1922C118.217 54.7336 118.205 54.2771 118.185 53.8226C118.168 53.3641 118.142 52.9238 118.106 52.5017C118.073 52.0797 118.026 51.7125 117.966 51.4L119.786 50.8461C119.838 51.1139 119.881 51.4304 119.913 51.7957C119.946 52.1568 119.972 52.5362 119.993 52.9339C120.017 53.3316 120.033 53.7313 120.041 54.133C120.053 54.5348 120.062 54.9081 120.066 55.253C120.07 55.5574 120.057 55.8557 120.029 56.1478C120.005 56.4359 119.984 56.72 119.968 57C119.952 57.2759 119.952 57.5458 119.968 57.8096C119.988 58.0693 120.045 58.3229 120.139 58.5704C120.175 58.6638 120.22 58.7348 120.273 58.7835C120.329 58.8322 120.394 58.8687 120.467 58.893C120.54 58.9133 120.619 58.9255 120.705 58.9296C120.794 58.9336 120.891 58.9357 120.997 58.9357H121.052C121.182 58.9357 121.305 58.962 121.423 59.0148C121.541 59.0675 121.642 59.1386 121.727 59.2278C121.817 59.313 121.888 59.4145 121.94 59.5322C121.993 59.6499 122.019 59.7736 122.019 59.9035C122.019 60.0374 121.993 60.1632 121.94 60.2809C121.888 60.3986 121.817 60.5 121.727 60.5852C121.642 60.6745 121.541 60.7435 121.423 60.7922C121.305 60.8409 121.182 60.8652 121.052 60.8652ZM120.062 59.9035C120.062 59.7696 120.088 59.6438 120.141 59.5261C120.19 59.4084 120.259 59.307 120.348 59.2217C120.433 59.1325 120.537 59.0635 120.659 59.0148C120.776 58.9661 120.902 58.9417 121.036 58.9417H122.205C122.862 58.9417 123.465 58.9032 124.012 58.8261C124.564 58.7449 125.08 58.6374 125.559 58.5035C126.037 58.3696 126.49 58.2154 126.916 58.0409C127.346 57.8623 127.768 57.6777 128.182 57.487C127.906 57.4099 127.628 57.3145 127.348 57.2009C127.072 57.0872 126.794 56.9777 126.514 56.8722C126.238 56.7667 125.962 56.6774 125.686 56.6043C125.41 56.5272 125.136 56.4887 124.865 56.4887C124.678 56.4887 124.495 56.5394 124.317 56.6409C124.138 56.7423 123.976 56.858 123.83 56.9878C123.684 57.1177 123.56 57.2455 123.459 57.3713C123.361 57.493 123.3 57.5762 123.276 57.6209L121.87 56.7139C122.024 56.442 122.207 56.1762 122.418 55.9165C122.629 55.6568 122.86 55.4275 123.112 55.2287C123.367 55.0258 123.641 54.8635 123.933 54.7417C124.23 54.62 124.54 54.5591 124.865 54.5591C125.104 54.5591 125.343 54.5855 125.583 54.6383C125.822 54.687 126.06 54.7519 126.295 54.833C126.534 54.9142 126.77 55.0075 127.001 55.113C127.232 55.2145 127.462 55.318 127.689 55.4235C127.908 55.5249 128.125 55.6264 128.34 55.7278C128.559 55.8252 128.785 55.9165 129.016 56.0017C129.247 56.0829 129.487 56.1499 129.734 56.2026C129.982 56.2554 130.243 56.2838 130.519 56.2878L130.367 58.1565L129.503 58.5704C129.15 58.7409 128.799 58.9174 128.45 59.1C128.101 59.2786 127.744 59.453 127.379 59.6235C127.017 59.7899 126.644 59.9501 126.259 60.1043C125.877 60.2545 125.475 60.3864 125.053 60.5C124.631 60.6096 124.185 60.6968 123.714 60.7617C123.243 60.8307 122.74 60.8652 122.205 60.8652H121.085H121.036C120.902 60.8652 120.776 60.8388 120.659 60.7861C120.537 60.7374 120.433 60.6704 120.348 60.5852C120.259 60.5 120.19 60.3986 120.141 60.2809C120.088 60.1632 120.062 60.0374 120.062 59.9035ZM124.609 51.2661L125.96 52.6174L124.609 53.9687L123.258 52.6174L124.609 51.2661Z" fill="#303030"/>
<defs>
<linearGradient id="paint0_linear_1325_8726" x1="5.08426" y1="6.15789" x2="151.122" y2="67.5913" gradientUnits="userSpaceOnUse">
<stop stop-color="#EAEAEA"/>
<stop offset="1" stop-color="#BDBDBD"/>
</linearGradient>
</defs>
</svg>
