<svg width="181" height="98" viewBox="0 0 181 98" fill="none" xmlns="http://www.w3.org/2000/svg">
<rect x="0.851074" y="0.75" width="179.399" height="96.5" rx="9.25" fill="white" stroke="url(#paint0_linear_1325_9236)" stroke-width="1.5"/>
<path d="M51.5088 35.5826C51.6305 35.5501 51.7543 35.5278 51.8801 35.5157C52.0059 35.5035 52.1296 35.4974 52.2514 35.4974C52.5232 35.4974 52.8032 35.538 53.0914 35.6191C53.3835 35.6962 53.6757 35.8119 53.9679 35.9661L53.2922 37.7496C53.0974 37.6643 52.9128 37.5994 52.7383 37.5548C52.5638 37.5061 52.3995 37.4817 52.2453 37.4817C52.1398 37.4817 52.0201 37.4939 51.8861 37.5183C51.7563 37.5304 51.6163 37.569 51.4661 37.6339C51.316 37.6948 51.1659 37.7739 51.0157 37.8713C50.8696 37.9687 50.7276 38.0823 50.5896 38.2122C50.4516 38.338 50.3279 38.4719 50.2183 38.6139C50.1128 38.7559 50.0256 38.9041 49.9566 39.0583C49.8876 39.2084 49.849 39.3545 49.8409 39.4965C49.8328 39.6101 49.8653 39.7035 49.9383 39.7765C50.0114 39.8455 50.1088 39.9064 50.2305 39.9591C50.3522 40.0078 50.4902 40.0525 50.6444 40.093C50.7986 40.1296 50.9548 40.1722 51.1131 40.2209L51.2896 40.2635C51.5493 40.3243 51.807 40.3933 52.0627 40.4704C52.3224 40.5475 52.5557 40.6571 52.7627 40.7991C52.9696 40.9371 53.136 41.1197 53.2618 41.347C53.3916 41.5742 53.4566 41.8684 53.4566 42.2296C53.4566 42.3026 53.4525 42.3777 53.4444 42.4548C53.4403 42.5359 53.4302 42.6191 53.414 42.7043C53.3734 42.9235 53.3003 43.1365 53.1948 43.3435C53.0893 43.5545 52.9554 43.7533 52.7931 43.94C52.6348 44.1307 52.4502 44.3072 52.2392 44.4696C52.0322 44.6359 51.805 44.7841 51.5574 44.9139C51.0908 45.1452 50.5572 45.3238 49.9566 45.4496C49.356 45.5794 48.7108 45.6443 48.0209 45.6443C47.1931 45.6443 46.4627 45.5226 45.8296 45.2791C45.1966 45.0397 44.6711 44.6887 44.2531 44.2261C43.9366 43.8487 43.7032 43.4348 43.5531 42.9843C43.407 42.5339 43.334 42.0632 43.334 41.5722C43.334 41.4667 43.338 41.3612 43.3461 41.2557C43.3543 41.1501 43.3624 41.0507 43.3705 40.9574C43.3867 40.6652 43.4192 40.3791 43.4679 40.0991C43.5166 39.8151 43.5714 39.5493 43.6322 39.3017C43.6972 39.0501 43.7661 38.8188 43.8392 38.6078C43.9122 38.3928 43.9792 38.2061 44.0401 38.0478C44.1009 37.8855 44.1516 37.7577 44.1922 37.6643C44.2369 37.567 44.2632 37.5081 44.2714 37.4878L45.7992 38.127C45.6977 38.3664 45.6003 38.6017 45.507 38.833C45.4177 39.0603 45.3366 39.2957 45.2635 39.5391C45.1945 39.7786 45.1357 40.0322 45.087 40.3C45.0424 40.5678 45.014 40.86 45.0018 41.1765C44.9977 41.2212 44.9937 41.2699 44.9896 41.3226C44.9856 41.3754 44.9835 41.422 44.9835 41.4626C44.9835 41.7183 45.0221 41.9699 45.0992 42.2174C45.1803 42.4649 45.3122 42.6881 45.4948 42.887C45.6044 43.0128 45.7464 43.1223 45.9209 43.2157C46.0995 43.313 46.3003 43.3942 46.5235 43.4591C46.7467 43.5281 46.9861 43.5788 47.2418 43.6113C47.4974 43.6478 47.7572 43.6661 48.0209 43.6661C48.5363 43.6661 49.0172 43.6296 49.4635 43.5565C49.914 43.4875 50.3096 43.3942 50.6505 43.2765C50.9914 43.1629 51.2653 43.029 51.4722 42.8748C51.6832 42.7246 51.805 42.5704 51.8374 42.4122C51.8293 42.4122 51.805 42.4081 51.7644 42.4C51.7238 42.3919 51.6711 42.3797 51.6061 42.3635C51.5453 42.3513 51.4743 42.3351 51.3931 42.3148C51.316 42.2986 51.2348 42.2803 51.1496 42.26L50.8209 42.187C50.4598 42.0977 50.1189 41.9942 49.7983 41.8765C49.4818 41.7629 49.2038 41.6107 48.9644 41.42C48.729 41.2333 48.5403 40.998 48.3983 40.7139C48.2603 40.4258 48.1914 40.0626 48.1914 39.6243C48.2117 39.1577 48.309 38.7032 48.4835 38.2609C48.658 37.8186 48.8934 37.4148 49.1896 37.0496C49.4859 36.6843 49.8308 36.3739 50.2244 36.1183C50.6221 35.8586 51.0522 35.68 51.5148 35.5826H51.5088ZM57.1982 41.3652C56.6666 41.3652 56.1451 41.2638 55.6338 41.0609C55.1266 40.858 54.6559 40.5313 54.2217 40.0809L55.3234 38.5287C55.5222 38.7113 55.715 38.8614 55.9017 38.9791C56.0883 39.0928 56.2669 39.182 56.4373 39.247C56.6077 39.3119 56.768 39.3565 56.9182 39.3809C57.0724 39.4052 57.2164 39.4174 57.3504 39.4174C57.4112 39.4174 57.4802 39.4154 57.5573 39.4113C57.6344 39.4072 57.7115 39.4012 57.7886 39.393C57.8657 39.3809 57.9408 39.3667 58.0138 39.3504C58.0869 39.3342 58.1538 39.3139 58.2147 39.2896C58.4257 39.2003 58.5921 39.111 58.7138 39.0217C58.5596 38.6484 58.3912 38.2609 58.2086 37.8591C58.0301 37.4533 57.8495 37.0475 57.6669 36.6417C57.4843 36.2319 57.3037 35.8261 57.1251 35.4243C56.9466 35.0226 56.7802 34.6371 56.626 34.2678L58.4034 33.5252L58.9451 34.84C59.1196 35.2701 59.3286 35.7814 59.5721 36.3739C59.8156 36.9623 60.0956 37.6299 60.4121 38.3765C60.4851 38.5551 60.5521 38.7113 60.613 38.8452C60.6738 38.9791 60.7448 39.0907 60.826 39.18C60.9112 39.2693 61.0106 39.3362 61.1243 39.3809C61.2419 39.4214 61.3921 39.4417 61.5747 39.4417C61.7046 39.4417 61.8283 39.4661 61.946 39.5148C62.0637 39.5635 62.1651 39.6325 62.2504 39.7217C62.3396 39.807 62.4106 39.9084 62.4634 40.0261C62.5161 40.1438 62.5425 40.2696 62.5425 40.4035C62.5425 40.5374 62.5161 40.6632 62.4634 40.7809C62.4106 40.8986 62.3396 41 62.2504 41.0852C62.1651 41.1745 62.0637 41.2435 61.946 41.2922C61.8283 41.3409 61.7046 41.3652 61.5747 41.3652C61.3272 41.3652 61.108 41.349 60.9173 41.3165C60.7306 41.2841 60.5622 41.2374 60.4121 41.1765C60.266 41.1197 60.1341 41.0507 60.0164 40.9696C59.9028 40.8843 59.7953 40.791 59.6938 40.6896C59.5843 40.7626 59.4686 40.8336 59.3469 40.9026C59.2251 40.9675 59.0851 41.0325 58.9269 41.0974C58.6834 41.1907 58.4196 41.2577 58.1356 41.2983C57.8556 41.3429 57.5431 41.3652 57.1982 41.3652ZM60.5966 40.4035C60.5966 40.2696 60.623 40.1438 60.6758 40.0261C60.7245 39.9084 60.7935 39.807 60.8827 39.7217C60.968 39.6325 61.0714 39.5635 61.1932 39.5148C61.3109 39.4661 61.4366 39.4417 61.5706 39.4417H62.7393C63.3966 39.4417 63.9993 39.4032 64.5471 39.3261C65.099 39.2449 65.6143 39.1374 66.0932 39.0035C66.572 38.8696 67.0245 38.7154 67.4506 38.5409C67.8807 38.3623 68.3027 38.1777 68.7166 37.987C68.4407 37.9099 68.1627 37.8145 67.8827 37.7009C67.6068 37.5872 67.3288 37.4777 67.0488 37.3722C66.7729 37.2667 66.4969 37.1774 66.221 37.1043C65.9451 37.0272 65.6711 36.9887 65.3993 36.9887C65.2126 36.9887 65.03 37.0394 64.8514 37.1409C64.6729 37.2423 64.5106 37.358 64.3645 37.4878C64.2184 37.6177 64.0946 37.7455 63.9932 37.8713C63.8958 37.993 63.8349 38.0762 63.8106 38.1209L62.4045 37.2139C62.5587 36.942 62.7413 36.6762 62.9523 36.4165C63.1633 36.1568 63.3946 35.9275 63.6462 35.7287C63.9019 35.5258 64.1758 35.3635 64.468 35.2417C64.7642 35.12 65.0746 35.0591 65.3993 35.0591C65.6387 35.0591 65.8781 35.0855 66.1175 35.1383C66.3569 35.187 66.5943 35.2519 66.8297 35.333C67.0691 35.4142 67.3045 35.5075 67.5358 35.613C67.7671 35.7145 67.9964 35.818 68.2236 35.9235C68.4427 36.0249 68.6598 36.1264 68.8749 36.2278C69.094 36.3252 69.3193 36.4165 69.5506 36.5017C69.7819 36.5829 70.0213 36.6499 70.2688 36.7026C70.5164 36.7554 70.7781 36.7838 71.054 36.7878L70.9019 38.6565L70.0375 39.0704C69.6845 39.2409 69.3335 39.4174 68.9845 39.6C68.6355 39.7786 68.2784 39.953 67.9132 40.1235C67.552 40.2899 67.1787 40.4501 66.7932 40.6043C66.4117 40.7545 66.01 40.8864 65.588 41C65.1659 41.1096 64.7195 41.1968 64.2488 41.2617C63.7781 41.3307 63.2749 41.3652 62.7393 41.3652H61.6193H61.5706C61.4366 41.3652 61.3109 41.3388 61.1932 41.2861C61.0714 41.2374 60.968 41.1704 60.8827 41.0852C60.7935 41 60.7245 40.8986 60.6758 40.7809C60.623 40.6632 60.5966 40.5374 60.5966 40.4035ZM71.7635 41.3835C71.7838 41.0507 71.8041 40.7058 71.8244 40.3487C71.8447 39.9916 71.8609 39.6386 71.8731 39.2896C71.8893 38.9406 71.8995 38.6017 71.9035 38.273C71.9076 37.9443 71.9035 37.642 71.8914 37.3661C71.867 36.7899 71.8427 36.2846 71.8183 35.8504C71.798 35.4122 71.7757 35.0246 71.7514 34.6878C71.7311 34.351 71.7087 34.0568 71.6844 33.8052C71.6641 33.5496 71.6418 33.3162 71.6174 33.1052C71.5931 32.8942 71.5667 32.6974 71.5383 32.5148C71.5099 32.3281 71.4795 32.1354 71.447 31.9365L73.3279 31.3157C73.4172 31.8594 73.4882 32.4072 73.5409 32.9591C73.5977 33.511 73.6403 34.0406 73.6687 34.5478C73.6972 35.051 73.7154 35.5197 73.7235 35.9539C73.7357 36.3881 73.7418 36.7594 73.7418 37.0678C73.7418 37.3478 73.7398 37.6501 73.7357 37.9748C73.7357 38.2994 73.7316 38.6362 73.7235 38.9852C73.7195 39.3342 73.7114 39.6872 73.6992 40.0443C73.687 40.4014 73.6687 40.7504 73.6444 41.0913L71.7635 41.3835ZM77.4172 37.4087C77.332 37.3925 77.2346 37.4229 77.125 37.5C77.0195 37.573 76.9181 37.6745 76.8207 37.8043C76.7273 37.9301 76.6482 38.0701 76.5833 38.2243C76.5224 38.3786 76.492 38.5267 76.492 38.6687C76.492 38.8026 76.5305 38.9142 76.6076 39.0035C76.6847 39.0928 76.7821 39.1658 76.8998 39.2226C77.0215 39.2794 77.1534 39.322 77.2955 39.3504C77.4415 39.3788 77.5815 39.3991 77.7155 39.4113H77.7094C77.8149 39.4194 77.9346 39.4255 78.0685 39.4296C78.2065 39.4296 78.3404 39.4296 78.4702 39.4296C78.5108 39.4296 78.5413 39.4316 78.5615 39.4357C78.5859 39.4357 78.6062 39.4357 78.6224 39.4357C78.6386 39.4357 78.6549 39.4357 78.6711 39.4357C78.6914 39.4357 78.7198 39.4336 78.7563 39.4296C78.6955 39.178 78.6224 38.9386 78.5372 38.7113C78.456 38.48 78.3607 38.273 78.2511 38.0904C78.1415 37.9078 78.0178 37.7577 77.8798 37.64C77.7418 37.5183 77.5876 37.4412 77.4172 37.4087ZM74.4346 43.7817C75.0068 43.6681 75.5282 43.5241 75.9989 43.3496C76.4697 43.1791 76.8815 42.9864 77.2346 42.7713C77.5917 42.5603 77.8859 42.3351 78.1172 42.0957C78.3526 41.8562 78.5189 41.6128 78.6163 41.3652C78.4418 41.3652 78.2572 41.3612 78.0624 41.353C77.8676 41.349 77.7073 41.3429 77.5815 41.3348C77.1108 41.2942 76.6807 41.1887 76.2911 41.0183C75.9015 40.8519 75.5911 40.6246 75.3598 40.3365C75.1894 40.1174 75.0676 39.88 74.9946 39.6243C74.9256 39.3687 74.8911 39.0988 74.8911 38.8148C74.8911 38.5957 74.9114 38.3765 74.952 38.1574C74.9926 37.9342 75.0494 37.7191 75.1224 37.5122C75.1955 37.3012 75.2807 37.1023 75.3781 36.9157C75.4795 36.729 75.587 36.5586 75.7007 36.4043C75.9441 36.1 76.2099 35.8707 76.4981 35.7165C76.7902 35.5583 77.0966 35.4791 77.4172 35.4791C78.103 35.4791 78.7218 35.7794 79.2737 36.38C79.4685 36.5991 79.643 36.8446 79.7972 37.1165C79.9514 37.3884 80.0813 37.6786 80.1868 37.987C80.2963 38.2913 80.3795 38.6119 80.4363 38.9487C80.4931 39.2814 80.5215 39.6203 80.5215 39.9652C80.5215 40.0707 80.5175 40.1762 80.5094 40.2817C80.5053 40.3872 80.4992 40.4867 80.4911 40.58C80.4424 41.0548 80.3349 41.4991 80.1685 41.913C80.0062 42.331 79.7952 42.7145 79.5355 43.0635C79.2798 43.4165 78.9815 43.7351 78.6407 44.0191C78.2998 44.3072 77.9285 44.5588 77.5268 44.7739C77.1291 44.993 76.707 45.1757 76.2607 45.3217C75.8143 45.4678 75.3557 45.5774 74.885 45.6504L74.4346 43.7817ZM85.7592 41.6574C85.7592 41.069 85.7551 40.4725 85.747 39.8678C85.7429 39.2632 85.7267 38.6646 85.6983 38.0722C85.6699 37.4757 85.6273 36.8933 85.5705 36.3252C85.5177 35.7571 85.4426 35.2113 85.3452 34.6878C85.2519 34.1603 85.1342 33.6652 84.9922 33.2026C84.8502 32.7359 84.6757 32.3119 84.4687 31.9304L86.1792 30.8652C86.4105 31.2264 86.6032 31.6058 86.7574 32.0035C86.9116 32.4012 87.0415 32.813 87.147 33.2391C87.2525 33.6612 87.3397 34.0974 87.4087 34.5478C87.4818 34.9983 87.5487 35.4548 87.6096 35.9174C87.6542 36.2786 87.6887 36.6661 87.7131 37.08C87.7415 37.4939 87.7638 37.9159 87.78 38.3461C87.7963 38.7722 87.8064 39.1962 87.8105 39.6183C87.8145 40.0362 87.8165 40.4278 87.8165 40.793V41.0791V41.6574H85.7592ZM94.2739 37.0009C93.9533 37.0009 93.6389 36.9725 93.3304 36.9157C93.022 36.8548 92.7278 36.7554 92.4478 36.6174C92.5006 37.0962 92.5412 37.5588 92.5696 38.0052C92.602 38.4516 92.6264 38.8858 92.6426 39.3078C92.6629 39.7299 92.6751 40.1417 92.6791 40.5435C92.6832 40.9412 92.6852 41.3368 92.6852 41.7304H90.6339C90.6339 40.8296 90.6157 39.9388 90.5791 39.0583C90.5426 38.1736 90.4675 37.3255 90.3539 36.5139C90.2403 35.7023 90.0739 34.9394 89.8548 34.2252C89.6397 33.507 89.3496 32.8617 88.9844 32.2896L90.7191 31.2C90.8612 31.4394 90.9951 31.6667 91.1209 31.8817C91.2467 32.0928 91.3562 32.3017 91.4496 32.5087C91.5875 32.3139 91.7478 32.1333 91.9304 31.967C92.1171 31.8006 92.318 31.6586 92.5331 31.5409C92.7481 31.4191 92.9733 31.3217 93.2087 31.2487C93.4441 31.1716 93.6815 31.1229 93.9209 31.1026C93.9818 31.0986 94.0507 31.0965 94.1278 31.0965C94.209 31.0965 94.282 31.0965 94.347 31.0965C94.5377 31.0965 94.7304 31.1067 94.9252 31.127C95.12 31.1472 95.3148 31.1878 95.5096 31.2487C95.7084 31.3096 95.9052 31.3988 96.1 31.5165C96.2948 31.6301 96.4855 31.7803 96.6722 31.967L95.6009 33.653C95.6009 33.649 95.5502 33.6206 95.4487 33.5678C95.3513 33.5151 95.2255 33.4562 95.0713 33.3913C94.9212 33.3264 94.7528 33.2696 94.5661 33.2209C94.3794 33.1722 94.1989 33.1499 94.0244 33.1539C93.927 33.1661 93.8174 33.1925 93.6957 33.233C93.5739 33.2696 93.4522 33.3162 93.3304 33.373C93.2087 33.4258 93.091 33.4887 92.9774 33.5617C92.8638 33.6348 92.7644 33.7099 92.6791 33.787C92.598 33.8641 92.5331 33.9452 92.4844 34.0304C92.4397 34.1157 92.4255 34.1988 92.4418 34.28V34.2739C92.4661 34.4119 92.5432 34.5275 92.6731 34.6209C92.807 34.7101 92.9632 34.7812 93.1418 34.8339C93.3244 34.8867 93.5131 34.9232 93.7078 34.9435C93.9067 34.9638 94.0873 34.9739 94.2496 34.9739C94.4038 34.9739 94.5722 34.9617 94.7548 34.9374C94.9374 34.913 95.1241 34.8765 95.3148 34.8278C95.5055 34.7791 95.6922 34.7183 95.8748 34.6452C96.0574 34.5681 96.2278 34.4809 96.3861 34.3835L97.2444 35.9904C96.7209 36.3759 96.2096 36.6417 95.7104 36.7878C95.2113 36.9299 94.7325 37.0009 94.2739 37.0009ZM103.065 37.0009C102.744 37.0009 102.43 36.9725 102.121 36.9157C101.813 36.8548 101.519 36.7554 101.239 36.6174C101.292 37.0962 101.332 37.5588 101.361 38.0052C101.393 38.4516 101.417 38.8858 101.434 39.3078C101.454 39.7299 101.466 40.1417 101.47 40.5435C101.474 40.9412 101.476 41.3368 101.476 41.7304H99.4249C99.4249 40.8296 99.4067 39.9388 99.3702 39.0583C99.3336 38.1736 99.2586 37.3255 99.1449 36.5139C99.0313 35.7023 98.8649 34.9394 98.6458 34.2252C98.4307 33.507 98.1406 32.8617 97.7754 32.2896L99.5102 31.2C99.6522 31.4394 99.7861 31.6667 99.9119 31.8817C100.038 32.0928 100.147 32.3017 100.241 32.5087C100.379 32.3139 100.539 32.1333 100.721 31.967C100.908 31.8006 101.109 31.6586 101.324 31.5409C101.539 31.4191 101.764 31.3217 102 31.2487C102.235 31.1716 102.472 31.1229 102.712 31.1026C102.773 31.0986 102.842 31.0965 102.919 31.0965C103 31.0965 103.073 31.0965 103.138 31.0965C103.329 31.0965 103.521 31.1067 103.716 31.127C103.911 31.1472 104.106 31.1878 104.301 31.2487C104.499 31.3096 104.696 31.3988 104.891 31.5165C105.086 31.6301 105.277 31.7803 105.463 31.967L104.392 33.653C104.392 33.649 104.341 33.6206 104.24 33.5678C104.142 33.5151 104.017 33.4562 103.862 33.3913C103.712 33.3264 103.544 33.2696 103.357 33.2209C103.17 33.1722 102.99 33.1499 102.815 33.1539C102.718 33.1661 102.608 33.1925 102.487 33.233C102.365 33.2696 102.243 33.3162 102.121 33.373C102 33.4258 101.882 33.4887 101.768 33.5617C101.655 33.6348 101.555 33.7099 101.47 33.787C101.389 33.8641 101.324 33.9452 101.275 34.0304C101.231 34.1157 101.217 34.1988 101.233 34.28V34.2739C101.257 34.4119 101.334 34.5275 101.464 34.6209C101.598 34.7101 101.754 34.7812 101.933 34.8339C102.115 34.8867 102.304 34.9232 102.499 34.9435C102.698 34.9638 102.878 34.9739 103.041 34.9739C103.195 34.9739 103.363 34.9617 103.546 34.9374C103.728 34.913 103.915 34.8765 104.106 34.8278C104.297 34.7791 104.483 34.7183 104.666 34.6452C104.848 34.5681 105.019 34.4809 105.177 34.3835L106.035 35.9904C105.512 36.3759 105.001 36.6417 104.501 36.7878C104.002 36.9299 103.523 37.0009 103.065 37.0009ZM112.777 41.3652C112.757 41.3652 112.7 41.3612 112.606 41.353C112.517 41.349 112.406 41.3368 112.272 41.3165C112.142 41.2962 111.994 41.2638 111.827 41.2191C111.665 41.1745 111.501 41.1136 111.334 41.0365C110.892 40.8255 110.549 40.5374 110.306 40.1722C110.062 39.8029 109.94 39.3748 109.94 38.8878C109.94 38.0762 110.299 37.2342 111.018 36.3617C111.075 36.2928 111.121 36.2359 111.158 36.1913C111.198 36.1467 111.235 36.1061 111.267 36.0696C111.3 36.033 111.33 36.0006 111.359 35.9722C111.391 35.9397 111.428 35.9032 111.468 35.8626C111.419 35.822 111.371 35.7835 111.322 35.747C111.277 35.7104 111.239 35.6759 111.206 35.6435L111.097 35.5461L112.308 34.067C112.515 34.2212 112.763 34.4301 113.051 34.6939C113.339 34.9536 113.672 35.2864 114.049 35.6922C115.1 36.8893 115.626 37.9545 115.626 38.8878C115.626 39.3667 115.51 39.7907 115.279 40.16C115.051 40.5293 114.735 40.8194 114.329 41.0304C114.187 41.0994 114.041 41.1542 113.891 41.1948C113.745 41.2394 113.603 41.2739 113.465 41.2983C113.327 41.3226 113.197 41.3388 113.075 41.347C112.957 41.3591 112.858 41.3652 112.777 41.3652ZM113.958 38.8878C113.958 38.762 113.917 38.62 113.836 38.4617C113.755 38.3035 113.647 38.1391 113.513 37.9687C113.384 37.7942 113.237 37.6197 113.075 37.4452C112.913 37.2667 112.75 37.0962 112.588 36.9339C112.479 37.0557 112.363 37.1936 112.241 37.3478C112.119 37.498 112.008 37.6583 111.906 37.8287C111.805 37.9991 111.722 38.1757 111.657 38.3583C111.592 38.5368 111.564 38.7133 111.572 38.8878C111.576 38.9852 111.622 39.0704 111.712 39.1435C111.801 39.2165 111.906 39.2754 112.028 39.32C112.154 39.3646 112.286 39.3991 112.424 39.4235C112.562 39.4438 112.679 39.4539 112.777 39.4539C112.899 39.4539 113.028 39.4458 113.166 39.4296C113.308 39.4093 113.436 39.3768 113.55 39.3322C113.668 39.2875 113.765 39.2287 113.842 39.1557C113.919 39.0826 113.958 38.9933 113.958 38.8878ZM119.794 36.9035C119.948 37.3417 120.082 37.7699 120.196 38.1878C120.244 38.3704 120.293 38.5612 120.342 38.76C120.39 38.9548 120.433 39.1516 120.47 39.3504C120.51 39.5452 120.543 39.738 120.567 39.9287C120.591 40.1154 120.604 40.2899 120.604 40.4522C120.604 40.8336 120.551 41.2049 120.445 41.5661C120.344 41.9313 120.198 42.2843 120.007 42.6252C119.82 42.9661 119.597 43.2928 119.337 43.6052C119.078 43.9217 118.79 44.218 118.473 44.4939C118.157 44.7699 117.818 45.0255 117.457 45.2609C117.095 45.5003 116.722 45.7154 116.337 45.9061L115.229 44.3661C115.521 44.22 115.815 44.0536 116.111 43.867C116.412 43.6843 116.698 43.4875 116.97 43.2765C117.246 43.0655 117.501 42.8443 117.737 42.613C117.976 42.3817 118.183 42.1464 118.357 41.907C118.536 41.6675 118.676 41.4241 118.777 41.1765C118.879 40.933 118.93 40.6936 118.93 40.4583C118.93 40.2878 118.905 40.1032 118.857 39.9043C118.812 39.7055 118.749 39.4925 118.668 39.2652C118.591 39.0339 118.497 38.7904 118.388 38.5348C118.278 38.2751 118.161 37.9991 118.035 37.707L119.794 36.9035ZM120.944 34.5843L119.776 35.7591L118.619 34.6026L117.475 35.747L116.294 34.5722L117.463 33.3974L118.619 34.5539L119.764 33.4096L120.944 34.5843ZM117.536 32.8191L118.619 31.7357L119.709 32.8252L118.625 33.9087L117.536 32.8191ZM124.571 37.4087C124.486 37.3925 124.389 37.4229 124.279 37.5C124.174 37.573 124.072 37.6745 123.975 37.8043C123.882 37.9301 123.802 38.0701 123.738 38.2243C123.677 38.3786 123.646 38.5267 123.646 38.6687C123.646 38.8026 123.685 38.9142 123.762 39.0035C123.839 39.0928 123.936 39.1658 124.054 39.2226C124.176 39.2794 124.308 39.322 124.45 39.3504C124.596 39.3788 124.736 39.3991 124.87 39.4113H124.864C124.969 39.4194 125.089 39.4255 125.223 39.4296C125.361 39.4296 125.495 39.4296 125.625 39.4296C125.665 39.4296 125.696 39.4316 125.716 39.4357C125.74 39.4357 125.76 39.4357 125.777 39.4357C125.793 39.4357 125.809 39.4357 125.825 39.4357C125.846 39.4357 125.874 39.4336 125.911 39.4296C125.85 39.178 125.777 38.9386 125.691 38.7113C125.61 38.48 125.515 38.273 125.405 38.0904C125.296 37.9078 125.172 37.7577 125.034 37.64C124.896 37.5183 124.742 37.4412 124.571 37.4087ZM121.589 43.7817C122.161 43.6681 122.682 43.5241 123.153 43.3496C123.624 43.1791 124.036 42.9864 124.389 42.7713C124.746 42.5603 125.04 42.3351 125.271 42.0957C125.507 41.8562 125.673 41.6128 125.771 41.3652C125.596 41.3652 125.411 41.3612 125.217 41.353C125.022 41.349 124.862 41.3429 124.736 41.3348C124.265 41.2942 123.835 41.1887 123.445 41.0183C123.056 40.8519 122.745 40.6246 122.514 40.3365C122.344 40.1174 122.222 39.88 122.149 39.6243C122.08 39.3687 122.045 39.0988 122.045 38.8148C122.045 38.5957 122.066 38.3765 122.106 38.1574C122.147 37.9342 122.204 37.7191 122.277 37.5122C122.35 37.3012 122.435 37.1023 122.532 36.9157C122.634 36.729 122.741 36.5586 122.855 36.4043C123.098 36.1 123.364 35.8707 123.652 35.7165C123.945 35.5583 124.251 35.4791 124.571 35.4791C125.257 35.4791 125.876 35.7794 126.428 36.38C126.623 36.5991 126.797 36.8446 126.951 37.1165C127.106 37.3884 127.236 37.6786 127.341 37.987C127.451 38.2913 127.534 38.6119 127.591 38.9487C127.647 39.2814 127.676 39.6203 127.676 39.9652C127.676 40.0707 127.672 40.1762 127.664 40.2817C127.66 40.3872 127.654 40.4867 127.645 40.58C127.597 41.0548 127.489 41.4991 127.323 41.913C127.16 42.331 126.949 42.7145 126.69 43.0635C126.434 43.4165 126.136 43.7351 125.795 44.0191C125.454 44.3072 125.083 44.5588 124.681 44.7739C124.283 44.993 123.861 45.1757 123.415 45.3217C122.969 45.4678 122.51 45.5774 122.039 45.6504L121.589 43.7817ZM132.833 41.3652C132.743 41.3652 132.617 41.3591 132.455 41.347C132.293 41.3348 132.118 41.2901 131.932 41.213C131.842 41.7162 131.674 42.193 131.426 42.6435C131.183 43.098 130.881 43.522 130.519 43.9157C130.158 44.3133 129.746 44.6786 129.284 45.0113C128.821 45.3441 128.328 45.6423 127.805 45.9061L126.691 44.3661C126.979 44.22 127.269 44.0597 127.561 43.8852C127.853 43.7148 128.131 43.5322 128.395 43.3374C128.663 43.1467 128.911 42.9458 129.138 42.7348C129.369 42.5278 129.57 42.3128 129.74 42.0896C129.911 41.8664 130.045 41.6371 130.142 41.4017C130.239 41.1704 130.288 40.9351 130.288 40.6957C130.288 40.6835 130.286 40.6652 130.282 40.6409C130.282 40.6165 130.282 40.5922 130.282 40.5678C130.282 40.5435 130.28 40.5252 130.276 40.513C130.276 40.5009 130.276 40.5029 130.276 40.5191V40.5252C130.248 40.2899 130.207 40.0646 130.154 39.8496C130.102 39.6345 130.035 39.4154 129.953 39.1922C129.876 38.969 129.785 38.7357 129.679 38.4922C129.574 38.2446 129.456 37.9748 129.326 37.6826L131.086 36.9157C131.248 37.4026 131.4 37.8084 131.542 38.133C131.684 38.4577 131.822 38.7174 131.956 38.9122C132.094 39.107 132.232 39.2449 132.37 39.3261C132.508 39.4032 132.654 39.4417 132.808 39.4417H132.839C132.973 39.4417 133.098 39.4681 133.216 39.5209C133.334 39.5736 133.435 39.6446 133.52 39.7339C133.61 39.8191 133.679 39.9206 133.727 40.0383C133.78 40.1559 133.806 40.2797 133.806 40.4096C133.806 40.5435 133.78 40.6693 133.727 40.787C133.679 40.9046 133.61 41.0061 133.52 41.0913C133.435 41.1765 133.334 41.2435 133.216 41.2922C133.098 41.3409 132.971 41.3652 132.833 41.3652ZM131.818 40.4035C131.818 40.2696 131.844 40.1438 131.897 40.0261C131.946 39.9084 132.013 39.807 132.098 39.7217C132.183 39.6325 132.285 39.5635 132.402 39.5148C132.52 39.4661 132.646 39.4417 132.78 39.4417H133.455H133.748C133.93 39.4417 134.131 39.4336 134.35 39.4174C134.569 39.4012 134.78 39.3748 134.983 39.3383C135.186 39.3017 135.369 39.253 135.531 39.1922C135.697 39.1272 135.819 39.0461 135.896 38.9487C135.941 38.8797 135.963 38.7864 135.963 38.6687C135.963 38.4942 135.921 38.2872 135.835 38.0478C135.754 37.8084 135.657 37.5649 135.543 37.3174C135.43 37.0699 135.312 36.8325 135.19 36.6052C135.073 36.378 134.977 36.1893 134.904 36.0391L136.639 35.187C136.765 35.4061 136.886 35.6658 137.004 35.9661C137.122 36.2623 137.227 36.5687 137.321 36.8852C137.414 37.1977 137.489 37.5061 137.546 37.8104C137.603 38.1107 137.631 38.3725 137.631 38.5957C137.631 39.0055 137.558 39.3809 137.412 39.7217C137.242 40.1032 137.008 40.4197 136.712 40.6713C136.416 40.9188 136.061 41.1014 135.647 41.2191C135.525 41.2516 135.373 41.278 135.19 41.2983C135.008 41.3186 134.823 41.3328 134.636 41.3409C134.45 41.353 134.273 41.3591 134.107 41.3591C133.94 41.3632 133.81 41.3652 133.717 41.3652H132.835H132.78C132.646 41.3652 132.52 41.3409 132.402 41.2922C132.285 41.2435 132.183 41.1745 132.098 41.0852C132.013 41 131.946 40.8986 131.897 40.7809C131.844 40.6632 131.818 40.5374 131.818 40.4035ZM136.402 44.4696L135.257 43.3252L134.101 44.4817L132.932 43.307L134.113 42.1322L135.257 43.2765L136.414 42.12L137.582 43.2948L136.402 44.4696ZM135.263 43.9704L136.347 45.0539L135.257 46.1435L134.174 45.06L135.263 43.9704ZM42.8593 68.5591C42.5793 68.5591 42.2912 68.5449 41.995 68.5165C41.7028 68.4922 41.4127 68.4414 41.1245 68.3643C40.8364 68.2913 40.5585 68.1899 40.2906 68.06C40.0228 67.9301 39.7732 67.7617 39.5419 67.5548C39.3106 67.3519 39.1098 67.1267 38.9393 66.8791C38.773 66.6357 38.635 66.3759 38.5254 66.1C38.4159 65.8241 38.3327 65.5359 38.2759 65.2357C38.2231 64.9354 38.1967 64.629 38.1967 64.3165C38.1967 63.651 38.3022 62.9794 38.5132 62.3017C38.7283 61.6241 39.0448 60.9687 39.4628 60.3357L40.8324 61.3217C40.7512 61.4313 40.6559 61.5957 40.5463 61.8148C40.4367 62.0339 40.3312 62.2835 40.2298 62.5635C40.1283 62.8435 40.0431 63.1417 39.9741 63.4583C39.9051 63.7707 39.8706 64.073 39.8706 64.3652C39.8706 64.702 39.9457 65.0064 40.0959 65.2783C40.2501 65.5501 40.453 65.7835 40.7045 65.9783C40.9602 66.173 41.2524 66.3252 41.5811 66.4348C41.9138 66.5443 42.2587 66.6032 42.6159 66.6113C42.904 66.6154 43.184 66.591 43.4559 66.5383C43.7277 66.4855 43.9854 66.4084 44.2289 66.307C44.4724 66.2055 44.6935 66.0817 44.8924 65.9357C45.0953 65.7896 45.2677 65.6252 45.4098 65.4426C45.5559 65.2641 45.6654 65.0693 45.7385 64.8583C45.8156 64.6472 45.848 64.4261 45.8359 64.1948C45.8277 64.0203 45.7953 63.8235 45.7385 63.6043C45.6816 63.3852 45.6127 63.162 45.5315 62.9348C45.4544 62.7035 45.3672 62.4762 45.2698 62.253C45.1764 62.0299 45.0872 61.8249 45.0019 61.6383C44.9208 61.4475 44.8498 61.2852 44.7889 61.1513C44.728 61.0174 44.6895 60.9261 44.6732 60.8774L46.3289 59.9583C46.3411 59.9745 46.3756 60.0475 46.4324 60.1774C46.4932 60.3072 46.5643 60.4757 46.6454 60.6826C46.7306 60.8855 46.8199 61.1188 46.9132 61.3826C47.0066 61.6464 47.0938 61.9223 47.175 62.2104C47.2602 62.4986 47.3332 62.7907 47.3941 63.087C47.455 63.3832 47.4935 63.6652 47.5098 63.933C47.5138 63.9655 47.5159 64.0041 47.5159 64.0487C47.5159 64.0974 47.5159 64.138 47.5159 64.1704C47.5159 64.5316 47.4753 64.8907 47.3941 65.2478C47.313 65.6049 47.1872 65.9458 47.0167 66.2704C46.8503 66.5991 46.6393 66.9014 46.3837 67.1774C46.1321 67.4574 45.8338 67.6988 45.4889 67.9017C45.144 68.1087 44.7524 68.269 44.3141 68.3826C43.8759 68.5003 43.3909 68.5591 42.8593 68.5591ZM42.8593 58.5096L44.2106 59.8609L42.8593 61.2122L41.508 59.8609L42.8593 58.5096ZM51.5511 64.3652C51.052 64.3652 50.6239 64.3023 50.2668 64.1765C49.9097 64.0548 49.6013 63.8661 49.3416 63.6104C49.1793 63.4481 49.0535 63.2777 48.9642 63.0991C48.879 62.9206 48.8161 62.7461 48.7755 62.5757C48.739 62.4012 48.7167 62.2368 48.7085 62.0826C48.7045 61.9284 48.7025 61.7965 48.7025 61.687V61.5957C48.7065 61.4455 48.7106 61.2304 48.7146 60.9504C48.7227 60.6664 48.7268 60.3336 48.7268 59.9522C48.7268 59.5707 48.7248 59.1507 48.7207 58.6922C48.7167 58.2336 48.7045 57.7771 48.6842 57.3226C48.668 56.8641 48.6416 56.4238 48.6051 56.0017C48.5726 55.5797 48.5259 55.2125 48.4651 54.9L50.2851 54.3461C50.3378 54.6139 50.3804 54.9304 50.4129 55.2957C50.4453 55.6568 50.4717 56.0362 50.492 56.4339C50.5164 56.8316 50.5326 57.2313 50.5407 57.633C50.5529 58.0348 50.561 58.4081 50.5651 58.753C50.5691 59.0574 50.5569 59.3557 50.5285 59.6478C50.5042 59.9359 50.4839 60.22 50.4677 60.5C50.4514 60.7759 50.4514 61.0458 50.4677 61.3096C50.488 61.5693 50.5448 61.8229 50.6381 62.0704C50.6746 62.1638 50.7193 62.2348 50.772 62.2835C50.8288 62.3322 50.8938 62.3687 50.9668 62.393C51.0398 62.4133 51.119 62.4255 51.2042 62.4296C51.2935 62.4336 51.3909 62.4357 51.4964 62.4357H51.5511C51.681 62.4357 51.8048 62.462 51.9225 62.5148C52.0401 62.5675 52.1416 62.6386 52.2268 62.7278C52.3161 62.813 52.3871 62.9145 52.4398 63.0322C52.4926 63.1499 52.519 63.2736 52.519 63.4035C52.519 63.5374 52.4926 63.6632 52.4398 63.7809C52.3871 63.8986 52.3161 64 52.2268 64.0852C52.1416 64.1745 52.0401 64.2435 51.9225 64.2922C51.8048 64.3409 51.681 64.3652 51.5511 64.3652ZM50.6163 63.4096C50.6163 63.2838 50.6406 63.1641 50.6893 63.0504C50.738 62.9368 50.8029 62.8374 50.8841 62.7522C50.9653 62.6629 51.0627 62.5919 51.1763 62.5391C51.2858 62.4823 51.4035 62.4499 51.5293 62.4417C51.8337 62.4417 52.0893 62.3606 52.2963 62.1983C52.5073 62.0319 52.6879 61.8148 52.838 61.547C52.9882 61.2791 53.116 60.9748 53.2215 60.6339C53.327 60.289 53.4264 59.938 53.5198 59.5809L55.1389 59.873C55.1064 60.0151 55.0658 60.1814 55.0171 60.3722C54.9725 60.5588 54.9299 60.7536 54.8893 60.9565C54.8528 61.1594 54.8224 61.3583 54.798 61.553C54.7737 61.7438 54.7676 61.9122 54.7798 62.0583C54.796 62.2043 54.8345 62.32 54.8954 62.4052C54.9563 62.4864 55.0496 62.5168 55.1754 62.4965C55.3377 62.4843 55.4838 62.4275 55.6137 62.3261C55.7476 62.2246 55.8673 62.0948 55.9728 61.9365C56.0783 61.7783 56.1716 61.5997 56.2528 61.4009C56.334 61.202 56.4029 60.9971 56.4598 60.7861C56.5206 60.5751 56.5693 60.3661 56.6058 60.1591C56.6464 59.9522 56.6789 59.7635 56.7032 59.593L58.2493 59.8548C58.2453 59.9765 58.2311 60.1267 58.2067 60.3052C58.1824 60.4838 58.16 60.6725 58.1398 60.8713C58.1195 61.0661 58.1093 61.2629 58.1093 61.4617C58.1093 61.6565 58.1316 61.833 58.1763 61.9913C58.2209 62.1455 58.294 62.2713 58.3954 62.3687C58.5009 62.4661 58.647 62.5148 58.8337 62.5148C58.9473 62.5148 59.0629 62.4965 59.1806 62.46C59.2983 62.4194 59.4038 62.3646 59.4971 62.2957C59.5905 62.2226 59.6656 62.1374 59.7224 62.04C59.7832 61.9426 59.8137 61.833 59.8137 61.7113C59.8137 61.5003 59.7792 61.269 59.7102 61.0174C59.6412 60.7617 59.558 60.5101 59.4606 60.2626C59.3632 60.011 59.2598 59.7736 59.1502 59.5504C59.0447 59.3272 58.9554 59.1386 58.8824 58.9843L60.3919 58.1383C60.4163 58.191 60.4589 58.2843 60.5198 58.4183C60.5806 58.5481 60.6496 58.7064 60.7267 58.893C60.8038 59.0797 60.8829 59.2907 60.9641 59.5261C61.0493 59.7574 61.1264 59.9988 61.1954 60.2504C61.2644 60.502 61.3212 60.7597 61.3658 61.0235C61.4105 61.2872 61.4328 61.5429 61.4328 61.7904C61.4328 62.1962 61.376 62.5614 61.2624 62.8861C61.1528 63.2107 60.9844 63.4867 60.7571 63.7139C60.534 63.9412 60.2519 64.1177 59.9111 64.2435C59.5742 64.3693 59.1786 64.4342 58.7241 64.4383C58.505 64.4383 58.3061 64.4159 58.1276 64.3713C57.949 64.3307 57.7887 64.2719 57.6467 64.1948C57.5047 64.1217 57.3769 64.0345 57.2632 63.933C57.1537 63.8316 57.0563 63.7241 56.9711 63.6104C56.8737 63.7362 56.7682 63.8499 56.6545 63.9513C56.545 64.0487 56.4171 64.1319 56.2711 64.2009C56.129 64.2739 55.9687 64.3307 55.7902 64.3713C55.6116 64.4119 55.4087 64.4342 55.1815 64.4383C54.9827 64.4423 54.8021 64.4241 54.6398 64.3835C54.4815 64.347 54.3354 64.2922 54.2015 64.2191C54.0676 64.1461 53.9458 64.0588 53.8363 63.9574C53.7308 63.8519 53.6313 63.7362 53.538 63.6104C53.4528 63.7159 53.3554 63.8154 53.2458 63.9087C53.1363 63.998 53.0064 64.0771 52.8563 64.1461C52.7061 64.2151 52.5316 64.2699 52.3328 64.3104C52.134 64.351 51.9027 64.3713 51.6389 64.3713H51.5293C51.4035 64.3632 51.2858 64.3328 51.1763 64.28C51.0627 64.2272 50.9653 64.1583 50.8841 64.073C50.8029 63.9878 50.738 63.8884 50.6893 63.7748C50.6406 63.6612 50.6163 63.5394 50.6163 63.4096ZM59.5641 56.9574L58.3954 58.1322L57.2389 56.9757L56.0945 58.12L54.9137 56.9452L56.0824 55.7704L57.2389 56.927L58.3832 55.7826L59.5641 56.9574ZM56.1554 55.1922L57.2389 54.1087L58.3284 55.1983L57.245 56.2817L56.1554 55.1922ZM61.9111 66.7817C62.4833 66.6681 63.0007 66.5241 63.4633 66.3496C63.93 66.1791 64.3378 65.9864 64.6868 65.7713C65.0398 65.5603 65.33 65.3351 65.5572 65.0957C65.7845 64.8562 65.9468 64.6128 66.0442 64.3652C65.8697 64.3652 65.6932 64.3612 65.5146 64.353C65.3361 64.349 65.1839 64.3429 65.0581 64.3348C64.5874 64.2942 64.1572 64.1887 63.7677 64.0183C63.3781 63.8519 63.0677 63.6246 62.8364 63.3365C62.6659 63.1174 62.5442 62.88 62.4711 62.6243C62.4022 62.3687 62.3677 62.0988 62.3677 61.8148C62.3677 61.5957 62.388 61.3765 62.4285 61.1574C62.4691 60.9342 62.5259 60.7191 62.599 60.5122C62.672 60.3012 62.7572 60.1023 62.8546 59.9157C62.9561 59.729 63.0636 59.5586 63.1772 59.4043C63.4207 59.1 63.6865 58.8707 63.9746 58.7165C64.2668 58.5583 64.5732 58.4791 64.8938 58.4791C65.5796 58.4791 66.1984 58.7794 66.7503 59.38C66.9207 59.5707 67.0749 59.7817 67.2129 60.013C67.3509 60.2443 67.4726 60.4919 67.5781 60.7557C67.6836 61.0154 67.7688 61.2872 67.8338 61.5713C67.9027 61.8554 67.9494 62.1455 67.9738 62.4417H68.0894C68.2233 62.4417 68.3491 62.4661 68.4668 62.5148C68.5845 62.5635 68.6859 62.6325 68.7711 62.7217C68.8604 62.807 68.9314 62.9084 68.9842 63.0261C69.0369 63.1438 69.0633 63.2716 69.0633 63.4096C69.0633 63.5394 69.0369 63.6632 68.9842 63.7809C68.9314 63.8945 68.8604 63.9939 68.7711 64.0791C68.6859 64.1684 68.5845 64.2374 68.4668 64.2861C68.3491 64.3388 68.2233 64.3652 68.0894 64.3652H67.8216C67.6633 64.9617 67.4097 65.5014 67.0607 65.9843C66.7158 66.4672 66.3019 66.8893 65.819 67.2504C65.3401 67.6116 64.8045 67.9099 64.212 68.1452C63.6236 68.3806 63.0068 68.549 62.3616 68.6504L61.9111 66.7817ZM64.8938 60.4087C64.8045 60.4087 64.7051 60.4493 64.5955 60.5304C64.49 60.6075 64.3906 60.707 64.2972 60.8287C64.2039 60.9504 64.1248 61.0864 64.0598 61.2365C63.999 61.3867 63.9685 61.5328 63.9685 61.6748C63.9685 61.8128 64.0071 61.9264 64.0842 62.0157C64.1613 62.1049 64.2587 62.178 64.3764 62.2348C64.4981 62.2875 64.63 62.3281 64.772 62.3565C64.914 62.3809 65.052 62.3991 65.1859 62.4113C65.259 62.4194 65.3381 62.4255 65.4233 62.4296C65.5126 62.4296 65.6039 62.4296 65.6972 62.4296C65.7906 62.4296 65.8819 62.4316 65.9711 62.4357C66.0645 62.4357 66.1497 62.4377 66.2268 62.4417C66.1984 62.2429 66.1538 62.0562 66.0929 61.8817C66.032 61.7072 65.963 61.5449 65.8859 61.3948C65.8129 61.2446 65.7317 61.1107 65.6425 60.993C65.5572 60.8713 65.474 60.7658 65.3929 60.6765C65.3645 60.6481 65.328 60.6177 65.2833 60.5852C65.2427 60.5528 65.2001 60.5243 65.1555 60.5C65.1109 60.4716 65.0642 60.4493 65.0155 60.433C64.9709 60.4168 64.9303 60.4087 64.8938 60.4087ZM67.1227 63.4035C67.1227 63.2696 67.1491 63.1438 67.2019 63.0261C67.2505 62.9084 67.3175 62.807 67.4027 62.7217C67.4879 62.6325 67.5894 62.5635 67.7071 62.5148C67.8248 62.4661 67.9505 62.4417 68.0845 62.4417H68.1392H68.4253C68.6079 62.4417 68.7703 62.4255 68.9123 62.393C69.0584 62.3606 69.1598 62.3159 69.2166 62.2591V62.2652C69.2856 62.1881 69.3384 62.0684 69.3749 61.9061C69.4155 61.7438 69.4337 61.5287 69.4297 61.2609C69.4297 61.2284 69.4236 61.1107 69.4114 60.9078C69.3992 60.7009 69.383 60.4432 69.3627 60.1348C69.3465 59.8223 69.3242 59.4754 69.2958 59.0939C69.2714 58.7084 69.245 58.3188 69.2166 57.9252C69.1923 57.5316 69.1679 57.1481 69.1436 56.7748C69.1192 56.4014 69.0949 56.0728 69.0705 55.7887C69.0503 55.5046 69.032 55.2794 69.0158 55.113C69.0036 54.9426 68.9955 54.8655 68.9914 54.8817L70.921 54.407C70.925 54.4719 70.9372 54.6241 70.9575 54.8635C70.9778 55.0988 71.0021 55.391 71.0305 55.74C71.059 56.089 71.0874 56.4786 71.1158 56.9087C71.1442 57.3388 71.1685 57.7771 71.1888 58.2235L71.2862 61.2365C71.2903 61.407 71.2862 61.5936 71.274 61.7965C71.2619 61.9994 71.2294 62.2064 71.1766 62.4174C71.1239 62.6243 71.0448 62.8313 70.9392 63.0383C70.8378 63.2452 70.6998 63.438 70.5253 63.6165C70.0262 64.1157 69.3262 64.3652 68.4253 64.3652H68.1392H68.0845C67.9505 64.3652 67.8248 64.3388 67.7071 64.2861C67.5894 64.2374 67.4879 64.1704 67.4027 64.0852C67.3175 64 67.2505 63.8986 67.2019 63.7809C67.1491 63.6632 67.1227 63.5374 67.1227 63.4035ZM79.7734 68.5591C79.4934 68.5591 79.2053 68.5449 78.909 68.5165C78.6169 68.4922 78.3267 68.4414 78.0386 68.3643C77.7505 68.2913 77.4725 68.1899 77.2047 68.06C76.9369 67.9301 76.6873 67.7617 76.456 67.5548C76.2247 67.3519 76.0238 67.1267 75.8534 66.8791C75.687 66.6357 75.549 66.3759 75.4395 66.1C75.3299 65.8241 75.2467 65.5359 75.1899 65.2357C75.1372 64.9354 75.1108 64.629 75.1108 64.3165C75.1108 63.651 75.2163 62.9794 75.4273 62.3017C75.6424 61.6241 75.9589 60.9687 76.3769 60.3357L77.7464 61.3217C77.6653 61.4313 77.5699 61.5957 77.4603 61.8148C77.3508 62.0339 77.2453 62.2835 77.1438 62.5635C77.0424 62.8435 76.9572 63.1417 76.8882 63.4583C76.8192 63.7707 76.7847 64.073 76.7847 64.3652C76.7847 64.702 76.8598 65.0064 77.0099 65.2783C77.1641 65.5501 77.367 65.7835 77.6186 65.9783C77.8743 66.173 78.1664 66.3252 78.4951 66.4348C78.8279 66.5443 79.1728 66.6032 79.5299 66.6113C79.818 66.6154 80.098 66.591 80.3699 66.5383C80.6418 66.4855 80.8995 66.4084 81.143 66.307C81.3864 66.2055 81.6076 66.0817 81.8064 65.9357C82.0093 65.7896 82.1818 65.6252 82.3238 65.4426C82.4699 65.2641 82.5795 65.0693 82.6525 64.8583C82.7296 64.6472 82.7621 64.4261 82.7499 64.1948C82.7418 64.0203 82.7093 63.8235 82.6525 63.6043C82.5957 63.3852 82.5267 63.162 82.4456 62.9348C82.3685 62.7035 82.2812 62.4762 82.1838 62.253C82.0905 62.0299 82.0012 61.8249 81.916 61.6383C81.8348 61.4475 81.7638 61.2852 81.703 61.1513C81.6421 61.0174 81.6035 60.9261 81.5873 60.8774L83.243 59.9583C83.2551 59.9745 83.2896 60.0475 83.3464 60.1774C83.4073 60.3072 83.4783 60.4757 83.5595 60.6826C83.6447 60.8855 83.734 61.1188 83.8273 61.3826C83.9206 61.6464 84.0079 61.9223 84.089 62.2104C84.1743 62.4986 84.2473 62.7907 84.3082 63.087C84.369 63.3832 84.4076 63.6652 84.4238 63.933C84.4279 63.9655 84.4299 64.0041 84.4299 64.0487C84.4299 64.0974 84.4299 64.138 84.4299 64.1704C84.4299 64.5316 84.3893 64.8907 84.3082 65.2478C84.227 65.6049 84.1012 65.9458 83.9308 66.2704C83.7644 66.5991 83.5534 66.9014 83.2977 67.1774C83.0461 67.4574 82.7479 67.6988 82.403 67.9017C82.058 68.1087 81.6664 68.269 81.2282 68.3826C80.7899 68.5003 80.305 68.5591 79.7734 68.5591ZM79.7734 58.5096L81.1247 59.8609L79.7734 61.2122L78.4221 59.8609L79.7734 58.5096ZM84.8252 66.7817C85.3974 66.6681 85.9148 66.5241 86.3774 66.3496C86.844 66.1791 87.2519 65.9864 87.6009 65.7713C87.9539 65.5603 88.244 65.3351 88.4713 65.0957C88.6985 64.8562 88.8609 64.6128 88.9583 64.3652C88.7838 64.3652 88.6072 64.3612 88.4287 64.353C88.2501 64.349 88.098 64.3429 87.9722 64.3348C87.5014 64.2942 87.0713 64.1887 86.6817 64.0183C86.2922 63.8519 85.9817 63.6246 85.7504 63.3365C85.58 63.1174 85.4583 62.88 85.3852 62.6243C85.3162 62.3687 85.2817 62.0988 85.2817 61.8148C85.2817 61.5957 85.302 61.3765 85.3426 61.1574C85.3832 60.9342 85.44 60.7191 85.513 60.5122C85.5861 60.3012 85.6713 60.1023 85.7687 59.9157C85.8701 59.729 85.9777 59.5586 86.0913 59.4043C86.3348 59.1 86.6006 58.8707 86.8887 58.7165C87.1809 58.5583 87.4872 58.4791 87.8078 58.4791C88.4936 58.4791 89.1125 58.7794 89.6643 59.38C89.8348 59.5707 89.989 59.7817 90.1269 60.013C90.2649 60.2443 90.3867 60.4919 90.4922 60.7557C90.5977 61.0154 90.6829 61.2872 90.7478 61.5713C90.8168 61.8554 90.8635 62.1455 90.8878 62.4417H91.0035C91.1374 62.4417 91.2632 62.4661 91.3809 62.5148C91.4985 62.5635 91.6 62.6325 91.6852 62.7217C91.7745 62.807 91.8455 62.9084 91.8983 63.0261C91.951 63.1438 91.9774 63.2716 91.9774 63.4096C91.9774 63.5394 91.951 63.6632 91.8983 63.7809C91.8455 63.8945 91.7745 63.9939 91.6852 64.0791C91.6 64.1684 91.4985 64.2374 91.3809 64.2861C91.2632 64.3388 91.1374 64.3652 91.0035 64.3652H90.7356C90.5774 64.9617 90.3238 65.5014 89.9748 65.9843C89.6298 66.4672 89.2159 66.8893 88.733 67.2504C88.2542 67.6116 87.7185 67.9099 87.1261 68.1452C86.5377 68.3806 85.9209 68.549 85.2756 68.6504L84.8252 66.7817ZM87.8078 60.4087C87.7185 60.4087 87.6191 60.4493 87.5096 60.5304C87.404 60.6075 87.3046 60.707 87.2113 60.8287C87.118 60.9504 87.0388 61.0864 86.9739 61.2365C86.913 61.3867 86.8826 61.5328 86.8826 61.6748C86.8826 61.8128 86.9212 61.9264 86.9983 62.0157C87.0754 62.1049 87.1727 62.178 87.2904 62.2348C87.4122 62.2875 87.544 62.3281 87.6861 62.3565C87.8281 62.3809 87.9661 62.3991 88.1 62.4113C88.173 62.4194 88.2522 62.4255 88.3374 62.4296C88.4267 62.4296 88.518 62.4296 88.6113 62.4296C88.7046 62.4296 88.7959 62.4316 88.8852 62.4357C88.9785 62.4357 89.0638 62.4377 89.1409 62.4417C89.1125 62.2429 89.0678 62.0562 89.0069 61.8817C88.9461 61.7072 88.8771 61.5449 88.8 61.3948C88.7269 61.2446 88.6458 61.1107 88.5565 60.993C88.4713 60.8713 88.3881 60.7658 88.3069 60.6765C88.2785 60.6481 88.242 60.6177 88.1974 60.5852C88.1568 60.5528 88.1142 60.5243 88.0696 60.5C88.0249 60.4716 87.9783 60.4493 87.9296 60.433C87.8849 60.4168 87.8443 60.4087 87.8078 60.4087ZM89.9942 63.4035C89.9942 63.2696 90.0185 63.1438 90.0672 63.0261C90.1159 62.9084 90.1849 62.807 90.2742 62.7217C90.3594 62.6325 90.4608 62.5635 90.5785 62.5148C90.6962 62.4661 90.822 62.4417 90.9559 62.4417H91.4185C91.7107 62.4417 91.9907 62.4296 92.2585 62.4052C92.5304 62.3809 92.7698 62.3301 92.9768 62.253C93.1837 62.1719 93.3501 62.0603 93.4759 61.9183C93.6058 61.7722 93.6748 61.5794 93.6829 61.34C93.6869 61.2507 93.6869 61.1777 93.6829 61.1209C93.6829 61.06 93.6727 60.989 93.6524 60.9078C93.6321 60.8226 93.6017 60.713 93.5611 60.5791C93.5246 60.4412 93.4719 60.2484 93.4029 60.0009L95.1742 59.5017C95.2513 59.6965 95.3223 59.9542 95.3872 60.2748C95.4521 60.5954 95.5008 60.9464 95.5333 61.3278C95.5414 61.4496 95.5556 61.5754 95.5759 61.7052C95.5962 61.8351 95.6287 61.9548 95.6733 62.0643C95.722 62.1739 95.7869 62.2652 95.8681 62.3383C95.9492 62.4072 96.0548 62.4417 96.1846 62.4417C96.3185 62.4417 96.4443 62.4661 96.562 62.5148C96.6797 62.5635 96.7811 62.6325 96.8663 62.7217C96.9556 62.807 97.0246 62.9084 97.0733 63.0261C97.1261 63.1438 97.1524 63.2696 97.1524 63.4035C97.1524 63.5374 97.1261 63.6632 97.0733 63.7809C97.0246 63.8986 96.9556 64 96.8663 64.0852C96.7771 64.1745 96.6736 64.2435 96.5559 64.2922C96.4423 64.3409 96.3206 64.3652 96.1907 64.3652C95.8011 64.3652 95.4663 64.3043 95.1863 64.1826C94.9104 64.0649 94.673 63.9107 94.4742 63.72C94.2916 63.8417 94.0806 63.9432 93.8411 64.0243C93.6058 64.1055 93.3542 64.1704 93.0863 64.2191C92.8185 64.2719 92.5426 64.3084 92.2585 64.3287C91.9745 64.353 91.6945 64.3652 91.4185 64.3652H90.9559C90.822 64.3652 90.6962 64.3409 90.5785 64.2922C90.4608 64.2435 90.3594 64.1745 90.2742 64.0852C90.1849 64 90.1159 63.8986 90.0672 63.7809C90.0185 63.6632 89.9942 63.5374 89.9942 63.4035ZM96.0385 57.5357L94.8698 58.7104L93.7133 57.5539L92.569 58.6983L91.3881 57.5235L92.5568 56.3487L93.7133 57.5052L94.8577 56.3609L96.0385 57.5357ZM100.91 66.3678L99.7408 67.5426L98.5843 66.3861L97.44 67.5304L96.2591 66.3557L97.4278 65.1809L98.5843 66.3374L99.7287 65.193L100.91 66.3678ZM95.0235 63.4035C95.0235 63.2696 95.0498 63.1438 95.1026 63.0261C95.1513 62.9084 95.2182 62.807 95.3035 62.7217C95.3887 62.6325 95.4901 62.5635 95.6078 62.5148C95.7255 62.4661 95.8513 62.4417 95.9852 62.4417H96.6608H96.953C97.1356 62.4417 97.3365 62.4336 97.5556 62.4174C97.7748 62.4012 97.9858 62.3748 98.1887 62.3383C98.3916 62.3017 98.5742 62.253 98.7365 62.1922C98.9029 62.1272 99.0246 62.0461 99.1017 61.9487C99.1464 61.8797 99.1687 61.7864 99.1687 61.6687C99.1687 61.4942 99.1261 61.2872 99.0408 61.0478C98.9597 60.8084 98.8623 60.5649 98.7487 60.3174C98.635 60.0699 98.5174 59.8325 98.3956 59.6052C98.2779 59.378 98.1826 59.1893 98.1095 59.0391L99.8443 58.187C99.9701 58.4061 100.092 58.6658 100.21 58.9661C100.327 59.2623 100.433 59.5687 100.526 59.8852C100.619 60.1977 100.694 60.5061 100.751 60.8104C100.808 61.1107 100.836 61.3725 100.836 61.5957C100.836 62.0055 100.763 62.3809 100.617 62.7217C100.447 63.1032 100.214 63.4197 99.9174 63.6713C99.6211 63.9188 99.2661 64.1014 98.8521 64.2191C98.7304 64.2516 98.5782 64.278 98.3956 64.2983C98.213 64.3186 98.0284 64.3328 97.8417 64.3409C97.655 64.353 97.4785 64.3591 97.3121 64.3591C97.1458 64.3632 97.0159 64.3652 96.9226 64.3652H96.04H95.9852C95.8513 64.3652 95.7255 64.3409 95.6078 64.2922C95.4901 64.2435 95.3887 64.1745 95.3035 64.0852C95.2182 64 95.1513 63.8986 95.1026 63.7809C95.0498 63.6632 95.0235 63.5374 95.0235 63.4035ZM105.211 59.9035C105.365 60.3417 105.499 60.7699 105.613 61.1878C105.662 61.3704 105.71 61.5612 105.759 61.76C105.808 61.9548 105.85 62.1516 105.887 62.3504C105.927 62.5452 105.96 62.738 105.984 62.9287C106.008 63.1154 106.021 63.2899 106.021 63.4522C106.021 63.8336 105.968 64.2049 105.862 64.5661C105.761 64.9313 105.615 65.2843 105.424 65.6252C105.237 65.9661 105.014 66.2928 104.755 66.6052C104.495 66.9217 104.207 67.218 103.89 67.4939C103.574 67.7699 103.235 68.0255 102.874 68.2609C102.513 68.5003 102.139 68.7154 101.754 68.9061L100.646 67.3661C100.938 67.22 101.234 67.0536 101.535 66.867C101.831 66.6843 102.115 66.4875 102.387 66.2765C102.663 66.0655 102.918 65.8443 103.154 65.613C103.393 65.3817 103.6 65.1464 103.775 64.907C103.953 64.6675 104.093 64.4241 104.195 64.1765C104.296 63.933 104.347 63.6936 104.347 63.4583C104.347 63.2878 104.322 63.1032 104.274 62.9043C104.229 62.7055 104.166 62.4925 104.085 62.2652C104.008 62.0339 103.915 61.7904 103.805 61.5348C103.695 61.2751 103.578 60.9991 103.452 60.707L105.211 59.9035ZM104.164 56.2026L105.515 57.5539L104.164 58.9052L102.813 57.5539L104.164 56.2026ZM115.451 62.4113C115.548 62.4154 115.646 62.4194 115.743 62.4235C115.845 62.4235 115.94 62.4235 116.029 62.4235C116.35 62.4235 116.656 62.4113 116.948 62.387C117.241 62.3626 117.511 62.3301 117.758 62.2896C118.006 62.249 118.223 62.2064 118.409 62.1617C118.6 62.113 118.752 62.0664 118.866 62.0217H118.86C119.071 61.9325 119.225 61.8533 119.322 61.7843C119.42 61.7154 119.485 61.6626 119.517 61.6261C119.578 61.5571 119.621 61.4861 119.645 61.413C119.673 61.3359 119.688 61.2568 119.688 61.1757C119.688 61.0012 119.621 60.8145 119.487 60.6157C119.353 60.4128 119.18 60.2078 118.969 60.0009C118.762 59.7939 118.531 59.587 118.275 59.38C118.024 59.173 117.778 58.9742 117.539 58.7835L116.267 57.7365L116.468 55.9348L121.958 53.5426L122.713 55.3322L118.422 57.1643C118.649 57.3551 118.878 57.5519 119.109 57.7548C119.345 57.9577 119.57 58.1667 119.785 58.3817C120 58.5928 120.201 58.8099 120.388 59.033C120.578 59.2522 120.743 59.4774 120.881 59.7087C121.023 59.9359 121.134 60.1672 121.215 60.4026C121.297 60.638 121.337 60.8774 121.337 61.1209C121.337 61.3887 121.291 61.6606 121.197 61.9365C121.108 62.2125 120.96 62.4965 120.753 62.7887H120.759C120.735 62.8252 120.692 62.878 120.631 62.947C120.574 63.0159 120.495 63.093 120.394 63.1783C120.296 63.2635 120.175 63.3548 120.029 63.4522C119.882 63.5455 119.71 63.6388 119.511 63.7322C118.951 63.9797 118.387 64.1461 117.819 64.2313C117.251 64.3165 116.673 64.3591 116.084 64.3591H115.956C115.871 64.3591 115.784 64.3591 115.695 64.3591C115.605 64.3591 115.518 64.3551 115.433 64.347C114.674 64.3388 113.994 64.2901 113.394 64.2009C112.793 64.1157 112.266 63.9878 111.811 63.8174C110.89 63.4603 110.257 62.9368 109.912 62.247V62.253C109.717 61.8757 109.62 61.4577 109.62 60.9991C109.62 60.8003 109.644 60.5852 109.693 60.3539C109.742 60.1226 109.804 59.8974 109.882 59.6783C109.93 59.5646 109.971 59.4693 110.003 59.3922C110.04 59.3151 110.074 59.2441 110.107 59.1791C110.139 59.1142 110.176 59.0493 110.216 58.9843C110.257 58.9194 110.308 58.8403 110.368 58.747L111.811 59.8C111.754 59.9014 111.691 60.0049 111.622 60.1104C111.557 60.2159 111.497 60.3235 111.44 60.433C111.387 60.5426 111.342 60.6542 111.306 60.7678C111.269 60.8814 111.251 60.9951 111.251 61.1087C111.251 61.267 111.306 61.409 111.415 61.5348C111.529 61.6565 111.683 61.7641 111.878 61.8574C112.077 61.9467 112.308 62.0238 112.572 62.0887C112.84 62.1536 113.128 62.2084 113.436 62.253C113.749 62.2977 114.075 62.3322 114.416 62.3565C114.757 62.3809 115.1 62.3991 115.445 62.4113H115.451ZM127.077 64.3652C126.987 64.3652 126.862 64.3591 126.699 64.347C126.537 64.3348 126.362 64.2901 126.176 64.213C126.087 64.7162 125.918 65.193 125.671 65.6435C125.427 66.098 125.125 66.522 124.764 66.9157C124.402 67.3133 123.991 67.6786 123.528 68.0113C123.065 68.3441 122.572 68.6423 122.049 68.9061L120.935 67.3661C121.223 67.22 121.513 67.0597 121.805 66.8852C122.098 66.7148 122.376 66.5322 122.639 66.3374C122.907 66.1467 123.155 65.9458 123.382 65.7348C123.613 65.5278 123.814 65.3128 123.984 65.0896C124.155 64.8664 124.289 64.6371 124.386 64.4017C124.484 64.1704 124.532 63.9351 124.532 63.6957C124.532 63.6835 124.53 63.6652 124.526 63.6409C124.526 63.6165 124.526 63.5922 124.526 63.5678C124.526 63.5435 124.524 63.5252 124.52 63.513C124.52 63.5009 124.52 63.5029 124.52 63.5191V63.5252C124.492 63.2899 124.451 63.0646 124.398 62.8496C124.346 62.6345 124.279 62.4154 124.198 62.1922C124.12 61.969 124.029 61.7357 123.924 61.4922C123.818 61.2446 123.7 60.9748 123.571 60.6826L125.33 59.9157C125.492 60.4026 125.644 60.8084 125.786 61.133C125.928 61.4577 126.066 61.7174 126.2 61.9122C126.338 62.107 126.476 62.2449 126.614 62.3261C126.752 62.4032 126.898 62.4417 127.052 62.4417H127.083C127.217 62.4417 127.342 62.4681 127.46 62.5209C127.578 62.5736 127.679 62.6446 127.764 62.7339C127.854 62.8191 127.923 62.9206 127.971 63.0383C128.024 63.1559 128.051 63.2797 128.051 63.4096C128.051 63.5435 128.024 63.6693 127.971 63.787C127.923 63.9046 127.854 64.0061 127.764 64.0913C127.679 64.1765 127.578 64.2435 127.46 64.2922C127.342 64.3409 127.215 64.3652 127.077 64.3652ZM126.056 63.4035C126.056 63.2696 126.08 63.1438 126.129 63.0261C126.178 62.9084 126.247 62.807 126.336 62.7217C126.421 62.6365 126.523 62.5696 126.64 62.5209C126.758 62.4681 126.884 62.4417 127.018 62.4417H127.334C127.347 62.1739 127.387 61.8838 127.456 61.5713C127.529 61.2548 127.627 60.9383 127.748 60.6217C127.87 60.3012 128.014 59.9928 128.18 59.6965C128.347 59.3962 128.529 59.1284 128.728 58.893C128.931 58.6577 129.15 58.467 129.386 58.3209C129.621 58.1707 129.867 58.0875 130.122 58.0713C130.394 58.0754 130.646 58.1525 130.877 58.3026C131.112 58.4487 131.315 58.6414 131.486 58.8809C131.656 59.1203 131.79 59.3922 131.887 59.6965C131.985 60.0009 132.033 60.3093 132.033 60.6217C132.033 60.991 131.952 61.3501 131.79 61.6991C131.632 62.0481 131.421 62.3748 131.157 62.6791C130.897 62.9794 130.601 63.2513 130.268 63.4948C129.94 63.7342 129.605 63.931 129.264 64.0852C129.292 64.1826 129.351 64.2983 129.44 64.4322C129.534 64.5701 129.637 64.7081 129.751 64.8461C129.869 64.9841 129.986 65.1139 130.104 65.2357C130.222 65.3574 130.321 65.4548 130.402 65.5278C130.398 65.2925 130.433 65.051 130.506 64.8035C130.579 64.56 130.68 64.3246 130.81 64.0974C130.944 63.8701 131.1 63.6571 131.279 63.4583C131.457 63.2554 131.648 63.0788 131.851 62.9287C132.058 62.7786 132.271 62.6609 132.49 62.5757C132.709 62.4864 132.926 62.4417 133.141 62.4417C133.275 62.4417 133.401 62.4681 133.519 62.5209C133.636 62.5696 133.738 62.6365 133.823 62.7217C133.912 62.807 133.981 62.9084 134.03 63.0261C134.083 63.1438 134.109 63.2696 134.109 63.4035C134.109 63.5374 134.083 63.6632 134.03 63.7809C133.981 63.8986 133.912 64 133.823 64.0852C133.738 64.1745 133.636 64.2435 133.519 64.2922C133.401 64.3409 133.275 64.3652 133.141 64.3652H133.117C132.938 64.3896 132.766 64.4484 132.6 64.5417C132.433 64.6391 132.285 64.7588 132.155 64.9009C132.029 65.047 131.928 65.2072 131.851 65.3817C131.774 65.5603 131.735 65.7409 131.735 65.9235C131.735 66.0046 131.741 66.0797 131.753 66.1487C131.766 66.2217 131.788 66.2948 131.82 66.3678C131.853 66.4409 131.896 66.518 131.948 66.5991C132.005 66.6803 132.076 66.7675 132.161 66.8609L131.047 68.2183C130.56 67.922 130.132 67.6197 129.763 67.3113C129.394 67.0029 129.073 66.6864 128.801 66.3617C128.533 66.0412 128.306 65.7145 128.12 65.3817C127.937 65.049 127.787 64.7101 127.669 64.3652H127.645H127.018C126.884 64.3652 126.758 64.3409 126.64 64.2922C126.523 64.2435 126.421 64.1745 126.336 64.0852C126.247 64 126.178 63.8986 126.129 63.7809C126.08 63.6632 126.056 63.5374 126.056 63.4035ZM130.487 60.8896C130.496 60.7759 130.493 60.6562 130.481 60.5304C130.473 60.4006 130.453 60.2768 130.42 60.1591C130.392 60.0374 130.351 59.9278 130.299 59.8304C130.246 59.733 130.181 59.66 130.104 59.6113C130.027 59.6519 129.942 59.729 129.848 59.8426C129.759 59.9562 129.668 60.0942 129.574 60.2565C129.481 60.4188 129.39 60.5974 129.3 60.7922C129.215 60.9829 129.138 61.1777 129.069 61.3765C129 61.5754 128.943 61.7701 128.899 61.9609C128.858 62.1475 128.836 62.3159 128.832 62.4661C129.006 62.4336 129.187 62.3687 129.373 62.2713C129.564 62.1699 129.739 62.0481 129.897 61.9061C130.059 61.76 130.195 61.5997 130.305 61.4252C130.414 61.2507 130.475 61.0722 130.487 60.8896ZM132.21 63.4096C132.21 63.2838 132.234 63.1641 132.283 63.0504C132.332 62.9368 132.397 62.8374 132.478 62.7522C132.559 62.6629 132.656 62.5919 132.77 62.5391C132.88 62.4823 132.997 62.4499 133.123 62.4417C133.427 62.4417 133.683 62.3606 133.89 62.1983C134.101 62.0319 134.282 61.8148 134.432 61.547C134.582 61.2791 134.71 60.9748 134.815 60.6339C134.921 60.289 135.02 59.938 135.113 59.5809L136.733 59.873C136.7 60.0151 136.66 60.1814 136.611 60.3722C136.566 60.5588 136.524 60.7536 136.483 60.9565C136.447 61.1594 136.416 61.3583 136.392 61.553C136.367 61.7438 136.361 61.9122 136.373 62.0583C136.39 62.2043 136.428 62.32 136.489 62.4052C136.55 62.4864 136.643 62.5168 136.769 62.4965C136.931 62.4843 137.078 62.4275 137.207 62.3261C137.341 62.2246 137.461 62.0948 137.567 61.9365C137.672 61.7783 137.765 61.5997 137.847 61.4009C137.928 61.202 137.997 60.9971 138.053 60.7861C138.114 60.5751 138.163 60.3661 138.2 60.1591C138.24 59.9522 138.273 59.7635 138.297 59.593L139.843 59.8548C139.839 59.9765 139.825 60.1267 139.8 60.3052C139.776 60.4838 139.754 60.6725 139.733 60.8713C139.713 61.0661 139.703 61.2629 139.703 61.4617C139.703 61.6565 139.725 61.833 139.77 61.9913C139.815 62.1455 139.888 62.2713 139.989 62.3687C140.095 62.4661 140.241 62.5148 140.427 62.5148C140.541 62.5148 140.657 62.4965 140.774 62.46C140.892 62.4194 140.998 62.3646 141.091 62.2957C141.184 62.2226 141.259 62.1374 141.316 62.04C141.377 61.9426 141.407 61.833 141.407 61.7113C141.407 61.5003 141.373 61.269 141.304 61.0174C141.235 60.7617 141.152 60.5101 141.054 60.2626C140.957 60.011 140.853 59.7736 140.744 59.5504C140.638 59.3272 140.549 59.1386 140.476 58.9843L141.986 58.1383C142.01 58.191 142.053 58.2843 142.113 58.4183C142.174 58.5481 142.243 58.7064 142.32 58.893C142.398 59.0797 142.477 59.2907 142.558 59.5261C142.643 59.7574 142.72 59.9988 142.789 60.2504C142.858 60.502 142.915 60.7597 142.96 61.0235C143.004 61.2872 143.027 61.5429 143.027 61.7904C143.027 62.1962 142.97 62.5614 142.856 62.8861C142.747 63.2107 142.578 63.4867 142.351 63.7139C142.128 63.9412 141.846 64.1177 141.505 64.2435C141.168 64.3693 140.772 64.4342 140.318 64.4383C140.099 64.4383 139.9 64.4159 139.721 64.3713C139.543 64.3307 139.382 64.2719 139.24 64.1948C139.098 64.1217 138.971 64.0345 138.857 63.933C138.747 63.8316 138.65 63.7241 138.565 63.6104C138.467 63.7362 138.362 63.8499 138.248 63.9513C138.139 64.0487 138.011 64.1319 137.865 64.2009C137.723 64.2739 137.562 64.3307 137.384 64.3713C137.205 64.4119 137.002 64.4342 136.775 64.4383C136.576 64.4423 136.396 64.4241 136.233 64.3835C136.075 64.347 135.929 64.2922 135.795 64.2191C135.661 64.1461 135.54 64.0588 135.43 63.9574C135.325 63.8519 135.225 63.7362 135.132 63.6104C135.047 63.7159 134.949 63.8154 134.84 63.9087C134.73 63.998 134.6 64.0771 134.45 64.1461C134.3 64.2151 134.125 64.2699 133.927 64.3104C133.728 64.351 133.496 64.3713 133.233 64.3713H133.123C132.997 64.3632 132.88 64.3328 132.77 64.28C132.656 64.2272 132.559 64.1583 132.478 64.073C132.397 63.9878 132.332 63.8884 132.283 63.7748C132.234 63.6612 132.21 63.5394 132.21 63.4096ZM141.158 56.9574L139.989 58.1322L138.833 56.9757L137.688 58.12L136.507 56.9452L137.676 55.7704L138.833 56.927L139.977 55.7826L141.158 56.9574ZM137.749 55.1922L138.833 54.1087L139.922 55.1983L138.839 56.2817L137.749 55.1922Z" fill="#303030"/>
<defs>
<linearGradient id="paint0_linear_1325_9236" x1="6.35779" y1="6.70526" x2="178.882" y2="88.7259" gradientUnits="userSpaceOnUse">
<stop stop-color="#EAEAEA"/>
<stop offset="1" stop-color="#BDBDBD"/>
</linearGradient>
</defs>
</svg>
