<svg width="17" height="16" viewBox="0 0 17 16" fill="none" xmlns="http://www.w3.org/2000/svg">
<path d="M6.85484 15.3593C6.65395 15.3593 6.44534 15.3361 6.24446 15.2665C5.66498 15.0811 5.27867 14.633 4.93098 14.2467C4.74555 14.0381 4.56784 13.8372 4.39014 13.7058C4.21243 13.5745 3.96519 13.4663 3.70249 13.3504C3.22346 13.1418 2.69034 12.91 2.33493 12.4233C1.98725 11.9442 1.92544 11.3647 1.87908 10.8471C1.84817 10.5612 1.82499 10.2908 1.75546 10.0745C1.68592 9.87357 1.55457 9.6495 1.4155 9.40999C1.1528 8.96186 0.84375 8.45192 0.84375 7.83382C0.84375 7.21571 1.14508 6.70577 1.4155 6.25764C1.55457 6.01813 1.69365 5.79406 1.75546 5.59318C1.82499 5.37684 1.8559 5.10642 1.87908 4.82055C1.93316 4.31061 1.98725 3.72341 2.33493 3.24437C2.68262 2.75761 3.22346 2.52582 3.70249 2.31721C3.96519 2.20132 4.21243 2.09315 4.39014 1.9618C4.56784 1.83045 4.74555 1.62957 4.93098 1.42096C5.27867 1.02692 5.66498 0.586514 6.24446 0.401082C6.80075 0.223377 7.36478 0.346998 7.86699 0.455167C8.43874 0.578788 8.87914 0.578788 9.45089 0.455167C9.9531 0.346998 10.5171 0.223377 11.0734 0.401082C11.6529 0.586514 12.0392 1.03464 12.3869 1.42096C12.5723 1.62957 12.75 1.83045 12.9277 1.9618C13.1054 2.09315 13.3527 2.20132 13.6154 2.31721C14.0944 2.52582 14.6275 2.75761 14.9829 3.24437C15.3306 3.72341 15.3924 4.30288 15.4388 4.82055C15.4697 5.10642 15.4929 5.37684 15.5624 5.59318C15.632 5.79406 15.7633 6.01813 15.9024 6.25764C16.1651 6.70577 16.4741 7.21571 16.4741 7.83382C16.4741 8.45192 16.1728 8.96186 15.9024 9.40999C15.7633 9.6495 15.6242 9.87357 15.5624 10.0745C15.4929 10.2908 15.462 10.5612 15.4388 10.8471C15.3847 11.357 15.3306 11.9442 14.9829 12.4233C14.6353 12.91 14.0944 13.1418 13.6154 13.3504C13.3527 13.4663 13.1054 13.5745 12.9277 13.7058C12.75 13.8372 12.5723 14.0381 12.3869 14.2467C12.0392 14.6407 11.6529 15.0811 11.0734 15.2665C10.5248 15.4443 9.9531 15.3206 9.45089 15.2125C8.87914 15.0888 8.43874 15.0888 7.86699 15.2125C7.55021 15.282 7.21025 15.3593 6.85484 15.3593ZM6.85484 1.47504C6.76212 1.47504 6.67713 1.48277 6.59987 1.51367C6.32172 1.60639 6.07448 1.89226 5.80406 2.20132C5.58772 2.44856 5.35593 2.71126 5.07778 2.91214C4.79191 3.12075 4.47513 3.25983 4.16607 3.39117C3.79521 3.55343 3.4398 3.70795 3.27755 3.93202C3.11529 4.15608 3.07666 4.53467 3.03803 4.93644C3.00712 5.26867 2.96849 5.61636 2.86032 5.95632C2.75215 6.28082 2.58218 6.57442 2.4122 6.85257C2.20358 7.20798 2.0027 7.54022 2.0027 7.84154C2.0027 8.14287 2.20358 8.4751 2.4122 8.83051C2.58218 9.11639 2.75215 9.40226 2.86032 9.72677C2.96849 10.0667 3.00712 10.4144 3.03803 10.7466C3.07666 11.1484 3.11529 11.527 3.27755 11.7511C3.44752 11.9829 3.79521 12.1297 4.16607 12.2919C4.47513 12.4233 4.79191 12.5623 5.07778 12.7709C5.35593 12.9718 5.58772 13.2345 5.80406 13.4818C6.07448 13.7908 6.32945 14.0767 6.59987 14.1694C6.85484 14.2544 7.2257 14.1694 7.61202 14.0844C7.94425 14.0072 8.29194 13.9376 8.65507 13.9376C9.01821 13.9376 9.3659 14.0149 9.69813 14.0844C10.0922 14.1694 10.4553 14.2544 10.7103 14.1694C10.9884 14.0767 11.2357 13.7908 11.5061 13.4818C11.7224 13.2345 11.9542 12.9718 12.2324 12.7709C12.5182 12.5623 12.835 12.4233 13.1441 12.2919C13.5149 12.1297 13.8703 11.9751 14.0326 11.7511C14.1949 11.527 14.2335 11.1484 14.2721 10.7466C14.303 10.4144 14.3417 10.0667 14.4498 9.72677C14.558 9.40226 14.728 9.10866 14.898 8.83051C15.1066 8.4751 15.3074 8.14287 15.3074 7.84154C15.3074 7.54022 15.1066 7.20798 14.898 6.85257C14.728 6.5667 14.558 6.28082 14.4498 5.95632C14.3417 5.61636 14.303 5.26867 14.2721 4.93644C14.2335 4.53467 14.1949 4.15608 14.0326 3.93202C13.8626 3.70023 13.5149 3.55343 13.1441 3.39117C12.835 3.25983 12.5182 3.12075 12.2324 2.91214C11.9542 2.71126 11.7224 2.44856 11.5061 2.20132C11.2357 1.89226 10.9807 1.60639 10.7103 1.51367C10.4553 1.43641 10.0844 1.51367 9.69813 1.59866C9.3659 1.67593 9.01821 1.74546 8.65507 1.74546C8.29194 1.74546 7.94425 1.6682 7.61202 1.59866C7.33387 1.53685 7.07117 1.48277 6.85484 1.48277V1.47504Z" fill="#4C8CED"/>
<circle cx="8.57089" cy="8.03671" r="6.9537" fill="#4C8CED"/>
<path d="M8.02759 10.3547C7.85131 10.3547 7.67503 10.2859 7.53586 10.1383L5.68031 8.17069C5.41125 7.88539 5.41125 7.41316 5.68031 7.12786C5.94936 6.84256 6.3947 6.84256 6.66375 7.12786L8.02759 8.57405L11.247 5.16027C11.516 4.87496 11.9614 4.87496 12.2304 5.16027C12.4995 5.44557 12.4995 5.91779 12.2304 6.20309L8.51931 10.1383C8.38014 10.2859 8.20387 10.3547 8.02759 10.3547Z" fill="white"/>
</svg>
