<svg width="181" height="99" viewBox="0 0 181 99" fill="none" xmlns="http://www.w3.org/2000/svg">
<rect x="0.851074" y="0.922363" width="179.399" height="96.5" rx="9.25" fill="white" stroke="url(#paint0_linear_1325_10089)" stroke-width="1.5"/>
<path d="M51.5088 35.755C51.6305 35.7225 51.7543 35.7002 51.8801 35.688C52.0059 35.6758 52.1296 35.6698 52.2514 35.6698C52.5232 35.6698 52.8032 35.7103 53.0914 35.7915C53.3835 35.8686 53.6757 35.9842 53.9679 36.1385L53.2922 37.9219C53.0974 37.8367 52.9128 37.7718 52.7383 37.7271C52.5638 37.6785 52.3995 37.6541 52.2453 37.6541C52.1398 37.6541 52.0201 37.6663 51.8861 37.6906C51.7563 37.7028 51.6163 37.7413 51.4661 37.8063C51.316 37.8671 51.1659 37.9463 51.0157 38.0437C50.8696 38.1411 50.7276 38.2547 50.5896 38.3845C50.4516 38.5103 50.3279 38.6442 50.2183 38.7863C50.1128 38.9283 50.0256 39.0764 49.9566 39.2306C49.8876 39.3808 49.849 39.5269 49.8409 39.6689C49.8328 39.7825 49.8653 39.8758 49.9383 39.9489C50.0114 40.0179 50.1088 40.0787 50.2305 40.1315C50.3522 40.1802 50.4902 40.2248 50.6444 40.2654C50.7986 40.3019 50.9548 40.3445 51.1131 40.3932L51.2896 40.4358C51.5493 40.4967 51.807 40.5657 52.0627 40.6428C52.3224 40.7199 52.5557 40.8295 52.7627 40.9715C52.9696 41.1095 53.136 41.2921 53.2618 41.5193C53.3916 41.7466 53.4566 42.0408 53.4566 42.4019C53.4566 42.475 53.4525 42.55 53.4444 42.6271C53.4403 42.7083 53.4302 42.7915 53.414 42.8767C53.3734 43.0958 53.3003 43.3089 53.1948 43.5158C53.0893 43.7269 52.9554 43.9257 52.7931 44.1124C52.6348 44.3031 52.4502 44.4796 52.2392 44.6419C52.0322 44.8083 51.805 44.9564 51.5574 45.0863C51.0908 45.3176 50.5572 45.4961 49.9566 45.6219C49.356 45.7518 48.7108 45.8167 48.0209 45.8167C47.1931 45.8167 46.4627 45.695 45.8296 45.4515C45.1966 45.2121 44.6711 44.8611 44.2531 44.3985C43.9366 44.0211 43.7032 43.6071 43.5531 43.1567C43.407 42.7063 43.334 42.2356 43.334 41.7445C43.334 41.639 43.338 41.5335 43.3461 41.428C43.3543 41.3225 43.3624 41.2231 43.3705 41.1298C43.3867 40.8376 43.4192 40.5515 43.4679 40.2715C43.5166 39.9874 43.5714 39.7216 43.6322 39.4741C43.6972 39.2225 43.7661 38.9912 43.8392 38.7802C43.9122 38.5651 43.9792 38.3785 44.0401 38.2202C44.1009 38.0579 44.1516 37.93 44.1922 37.8367C44.2369 37.7393 44.2632 37.6805 44.2714 37.6602L45.7992 38.2993C45.6977 38.5387 45.6003 38.7741 45.507 39.0054C45.4177 39.2327 45.3366 39.468 45.2635 39.7115C45.1945 39.9509 45.1357 40.2045 45.087 40.4724C45.0424 40.7402 45.014 41.0324 45.0018 41.3489C44.9977 41.3935 44.9937 41.4422 44.9896 41.495C44.9856 41.5477 44.9835 41.5944 44.9835 41.635C44.9835 41.8906 45.0221 42.1422 45.0992 42.3898C45.1803 42.6373 45.3122 42.8605 45.4948 43.0593C45.6044 43.1851 45.7464 43.2947 45.9209 43.388C46.0995 43.4854 46.3003 43.5666 46.5235 43.6315C46.7467 43.7005 46.9861 43.7512 47.2418 43.7837C47.4974 43.8202 47.7572 43.8385 48.0209 43.8385C48.5363 43.8385 49.0172 43.8019 49.4635 43.7289C49.914 43.6599 50.3096 43.5666 50.6505 43.4489C50.9914 43.3353 51.2653 43.2013 51.4722 43.0471C51.6832 42.897 51.805 42.7428 51.8374 42.5845C51.8293 42.5845 51.805 42.5805 51.7644 42.5724C51.7238 42.5642 51.6711 42.5521 51.6061 42.5358C51.5453 42.5237 51.4743 42.5074 51.3931 42.4871C51.316 42.4709 51.2348 42.4527 51.1496 42.4324L50.8209 42.3593C50.4598 42.27 50.1189 42.1666 49.7983 42.0489C49.4818 41.9353 49.2038 41.7831 48.9644 41.5924C48.729 41.4057 48.5403 41.1703 48.3983 40.8863C48.2603 40.5982 48.1914 40.235 48.1914 39.7967C48.2117 39.33 48.309 38.8756 48.4835 38.4332C48.658 37.9909 48.8934 37.5871 49.1896 37.2219C49.4859 36.8567 49.8308 36.5463 50.2244 36.2906C50.6221 36.0309 51.0522 35.8524 51.5148 35.755H51.5088ZM57.1982 41.5376C56.6666 41.5376 56.1451 41.4361 55.6338 41.2332C55.1266 41.0303 54.6559 40.7037 54.2217 40.2532L55.3234 38.7011C55.5222 38.8837 55.715 39.0338 55.9017 39.1515C56.0883 39.2651 56.2669 39.3544 56.4373 39.4193C56.6077 39.4842 56.768 39.5289 56.9182 39.5532C57.0724 39.5776 57.2164 39.5898 57.3504 39.5898C57.4112 39.5898 57.4802 39.5877 57.5573 39.5837C57.6344 39.5796 57.7115 39.5735 57.7886 39.5654C57.8657 39.5532 57.9408 39.539 58.0138 39.5228C58.0869 39.5066 58.1538 39.4863 58.2147 39.4619C58.4257 39.3727 58.5921 39.2834 58.7138 39.1941C58.5596 38.8208 58.3912 38.4332 58.2086 38.0315C58.0301 37.6257 57.8495 37.2199 57.6669 36.8141C57.4843 36.4042 57.3037 35.9985 57.1251 35.5967C56.9466 35.195 56.7802 34.8095 56.626 34.4402L58.4034 33.6976L58.9451 35.0124C59.1196 35.4425 59.3286 35.9538 59.5721 36.5463C59.8156 37.1347 60.0956 37.8022 60.4121 38.5489C60.4851 38.7274 60.5521 38.8837 60.613 39.0176C60.6738 39.1515 60.7448 39.2631 60.826 39.3524C60.9112 39.4416 61.0106 39.5086 61.1243 39.5532C61.2419 39.5938 61.3921 39.6141 61.5747 39.6141C61.7046 39.6141 61.8283 39.6385 61.946 39.6871C62.0637 39.7358 62.1651 39.8048 62.2504 39.8941C62.3396 39.9793 62.4106 40.0808 62.4634 40.1985C62.5161 40.3161 62.5425 40.4419 62.5425 40.5758C62.5425 40.7098 62.5161 40.8356 62.4634 40.9532C62.4106 41.0709 62.3396 41.1724 62.2504 41.2576C62.1651 41.3469 62.0637 41.4158 61.946 41.4645C61.8283 41.5132 61.7046 41.5376 61.5747 41.5376C61.3272 41.5376 61.108 41.5213 60.9173 41.4889C60.7306 41.4564 60.5622 41.4098 60.4121 41.3489C60.266 41.2921 60.1341 41.2231 60.0164 41.1419C59.9028 41.0567 59.7953 40.9634 59.6938 40.8619C59.5843 40.935 59.4686 41.006 59.3469 41.075C59.2251 41.1399 59.0851 41.2048 58.9269 41.2698C58.6834 41.3631 58.4196 41.43 58.1356 41.4706C57.8556 41.5153 57.5431 41.5376 57.1982 41.5376ZM60.5966 40.5758C60.5966 40.4419 60.623 40.3161 60.6758 40.1985C60.7245 40.0808 60.7935 39.9793 60.8827 39.8941C60.968 39.8048 61.0714 39.7358 61.1932 39.6871C61.3109 39.6385 61.4366 39.6141 61.5706 39.6141H62.7393C63.3966 39.6141 63.9993 39.5756 64.5471 39.4985C65.099 39.4173 65.6143 39.3098 66.0932 39.1758C66.572 39.0419 67.0245 38.8877 67.4506 38.7132C67.8807 38.5347 68.3027 38.35 68.7166 38.1593C68.4407 38.0822 68.1627 37.9869 67.8827 37.8732C67.6068 37.7596 67.3288 37.65 67.0488 37.5445C66.7729 37.439 66.4969 37.3498 66.221 37.2767C65.9451 37.1996 65.6711 37.1611 65.3993 37.1611C65.2126 37.1611 65.03 37.2118 64.8514 37.3132C64.6729 37.4147 64.5106 37.5303 64.3645 37.6602C64.2184 37.79 64.0946 37.9179 63.9932 38.0437C63.8958 38.1654 63.8349 38.2486 63.8106 38.2932L62.4045 37.3863C62.5587 37.1144 62.7413 36.8486 62.9523 36.5889C63.1633 36.3292 63.3946 36.0999 63.6462 35.9011C63.9019 35.6982 64.1758 35.5358 64.468 35.4141C64.7642 35.2924 65.0746 35.2315 65.3993 35.2315C65.6387 35.2315 65.8781 35.2579 66.1175 35.3106C66.3569 35.3593 66.5943 35.4242 66.8297 35.5054C67.0691 35.5866 67.3045 35.6799 67.5358 35.7854C67.7671 35.8869 67.9964 35.9903 68.2236 36.0958C68.4427 36.1973 68.6598 36.2987 68.8749 36.4002C69.094 36.4976 69.3193 36.5889 69.5506 36.6741C69.7819 36.7553 70.0213 36.8222 70.2688 36.875C70.5164 36.9277 70.7781 36.9561 71.054 36.9602L70.9019 38.8289L70.0375 39.2428C69.6845 39.4132 69.3335 39.5898 68.9845 39.7724C68.6355 39.9509 68.2784 40.1254 67.9132 40.2958C67.552 40.4622 67.1787 40.6225 66.7932 40.7767C66.4117 40.9269 66.01 41.0587 65.588 41.1724C65.1659 41.2819 64.7195 41.3692 64.2488 41.4341C63.7781 41.5031 63.2749 41.5376 62.7393 41.5376H61.6193H61.5706C61.4366 41.5376 61.3109 41.5112 61.1932 41.4585C61.0714 41.4098 60.968 41.3428 60.8827 41.2576C60.7935 41.1724 60.7245 41.0709 60.6758 40.9532C60.623 40.8356 60.5966 40.7098 60.5966 40.5758ZM71.7635 41.5558C71.7838 41.2231 71.8041 40.8782 71.8244 40.5211C71.8447 40.164 71.8609 39.8109 71.8731 39.4619C71.8893 39.1129 71.8995 38.7741 71.9035 38.4454C71.9076 38.1167 71.9035 37.8144 71.8914 37.5385C71.867 36.9622 71.8427 36.457 71.8183 36.0228C71.798 35.5845 71.7757 35.197 71.7514 34.8602C71.7311 34.5234 71.7087 34.2292 71.6844 33.9776C71.6641 33.7219 71.6418 33.4886 71.6174 33.2776C71.5931 33.0666 71.5667 32.8698 71.5383 32.6871C71.5099 32.5005 71.4795 32.3077 71.447 32.1089L73.3279 31.488C73.4172 32.0318 73.4882 32.5796 73.5409 33.1315C73.5977 33.6834 73.6403 34.2129 73.6687 34.7202C73.6972 35.2234 73.7154 35.6921 73.7235 36.1263C73.7357 36.5605 73.7418 36.9318 73.7418 37.2402C73.7418 37.5202 73.7398 37.8225 73.7357 38.1471C73.7357 38.4718 73.7316 38.8086 73.7235 39.1576C73.7195 39.5066 73.7114 39.8596 73.6992 40.2167C73.687 40.5738 73.6687 40.9228 73.6444 41.2637L71.7635 41.5558ZM77.4172 37.5811C77.332 37.5648 77.2346 37.5953 77.125 37.6724C77.0195 37.7454 76.9181 37.8469 76.8207 37.9767C76.7273 38.1025 76.6482 38.2425 76.5833 38.3967C76.5224 38.5509 76.492 38.699 76.492 38.8411C76.492 38.975 76.5305 39.0866 76.6076 39.1758C76.6847 39.2651 76.7821 39.3382 76.8998 39.395C77.0215 39.4518 77.1534 39.4944 77.2955 39.5228C77.4415 39.5512 77.5815 39.5715 77.7155 39.5837H77.7094C77.8149 39.5918 77.9346 39.5979 78.0685 39.6019C78.2065 39.6019 78.3404 39.6019 78.4702 39.6019C78.5108 39.6019 78.5413 39.604 78.5615 39.608C78.5859 39.608 78.6062 39.608 78.6224 39.608C78.6386 39.608 78.6549 39.608 78.6711 39.608C78.6914 39.608 78.7198 39.606 78.7563 39.6019C78.6955 39.3503 78.6224 39.1109 78.5372 38.8837C78.456 38.6524 78.3607 38.4454 78.2511 38.2628C78.1415 38.0802 78.0178 37.93 77.8798 37.8124C77.7418 37.6906 77.5876 37.6135 77.4172 37.5811ZM74.4346 43.9541C75.0068 43.8405 75.5282 43.6964 75.9989 43.5219C76.4697 43.3515 76.8815 43.1587 77.2346 42.9437C77.5917 42.7327 77.8859 42.5074 78.1172 42.268C78.3526 42.0286 78.5189 41.7851 78.6163 41.5376C78.4418 41.5376 78.2572 41.5335 78.0624 41.5254C77.8676 41.5213 77.7073 41.5153 77.5815 41.5071C77.1108 41.4666 76.6807 41.3611 76.2911 41.1906C75.9015 41.0242 75.5911 40.797 75.3598 40.5089C75.1894 40.2898 75.0676 40.0524 74.9946 39.7967C74.9256 39.5411 74.8911 39.2712 74.8911 38.9871C74.8911 38.768 74.9114 38.5489 74.952 38.3298C74.9926 38.1066 75.0494 37.8915 75.1224 37.6845C75.1955 37.4735 75.2807 37.2747 75.3781 37.088C75.4795 36.9013 75.587 36.7309 75.7007 36.5767C75.9441 36.2724 76.2099 36.0431 76.4981 35.8889C76.7902 35.7306 77.0966 35.6515 77.4172 35.6515C78.103 35.6515 78.7218 35.9518 79.2737 36.5524C79.4685 36.7715 79.643 37.017 79.7972 37.2889C79.9514 37.5608 80.0813 37.8509 80.1868 38.1593C80.2963 38.4637 80.3795 38.7842 80.4363 39.1211C80.4931 39.4538 80.5215 39.7927 80.5215 40.1376C80.5215 40.2431 80.5175 40.3486 80.5094 40.4541C80.5053 40.5596 80.4992 40.659 80.4911 40.7524C80.4424 41.2271 80.3349 41.6715 80.1685 42.0854C80.0062 42.5034 79.7952 42.8869 79.5355 43.2358C79.2798 43.5889 78.9815 43.9074 78.6407 44.1915C78.2998 44.4796 77.9285 44.7312 77.5268 44.9463C77.1291 45.1654 76.707 45.348 76.2607 45.4941C75.8143 45.6402 75.3557 45.7498 74.885 45.8228L74.4346 43.9541ZM85.7592 41.8298C85.7592 41.2413 85.7551 40.6448 85.747 40.0402C85.7429 39.4356 85.7267 38.837 85.6983 38.2445C85.6699 37.648 85.6273 37.0657 85.5705 36.4976C85.5177 35.9295 85.4426 35.3837 85.3452 34.8602C85.2519 34.3327 85.1342 33.8376 84.9922 33.375C84.8502 32.9083 84.6757 32.4842 84.4687 32.1028L86.1792 31.0376C86.4105 31.3987 86.6032 31.7782 86.7574 32.1758C86.9116 32.5735 87.0415 32.9854 87.147 33.4115C87.2525 33.8335 87.3397 34.2698 87.4087 34.7202C87.4818 35.1706 87.5487 35.6271 87.6096 36.0898C87.6542 36.4509 87.6887 36.8385 87.7131 37.2524C87.7415 37.6663 87.7638 38.0883 87.78 38.5185C87.7963 38.9445 87.8064 39.3686 87.8105 39.7906C87.8145 40.2086 87.8165 40.6002 87.8165 40.9654V41.2515V41.8298H85.7592ZM94.2739 37.1732C93.9533 37.1732 93.6389 37.1448 93.3304 37.088C93.022 37.0271 92.7278 36.9277 92.4478 36.7898C92.5006 37.2686 92.5412 37.7312 92.5696 38.1776C92.602 38.624 92.6264 39.0582 92.6426 39.4802C92.6629 39.9022 92.6751 40.3141 92.6791 40.7158C92.6832 41.1135 92.6852 41.5092 92.6852 41.9028H90.6339C90.6339 41.0019 90.6157 40.1112 90.5791 39.2306C90.5426 38.346 90.4675 37.4979 90.3539 36.6863C90.2403 35.8747 90.0739 35.1118 89.8548 34.3976C89.6397 33.6793 89.3496 33.0341 88.9844 32.4619L90.7191 31.3724C90.8612 31.6118 90.9951 31.839 91.1209 32.0541C91.2467 32.2651 91.3562 32.4741 91.4496 32.6811C91.5875 32.4863 91.7478 32.3057 91.9304 32.1393C92.1171 31.9729 92.318 31.8309 92.5331 31.7132C92.7481 31.5915 92.9733 31.4941 93.2087 31.4211C93.4441 31.344 93.6815 31.2953 93.9209 31.275C93.9818 31.2709 94.0507 31.2689 94.1278 31.2689C94.209 31.2689 94.282 31.2689 94.347 31.2689C94.5377 31.2689 94.7304 31.279 94.9252 31.2993C95.12 31.3196 95.3148 31.3602 95.5096 31.4211C95.7084 31.4819 95.9052 31.5712 96.1 31.6889C96.2948 31.8025 96.4855 31.9527 96.6722 32.1393L95.6009 33.8254C95.6009 33.8213 95.5502 33.7929 95.4487 33.7402C95.3513 33.6874 95.2255 33.6286 95.0713 33.5637C94.9212 33.4987 94.7528 33.4419 94.5661 33.3932C94.3794 33.3445 94.1989 33.3222 94.0244 33.3263C93.927 33.3385 93.8174 33.3648 93.6957 33.4054C93.5739 33.4419 93.4522 33.4886 93.3304 33.5454C93.2087 33.5982 93.091 33.6611 92.9774 33.7341C92.8638 33.8071 92.7644 33.8822 92.6791 33.9593C92.598 34.0364 92.5331 34.1176 92.4844 34.2028C92.4397 34.288 92.4255 34.3712 92.4418 34.4524V34.4463C92.4661 34.5842 92.5432 34.6999 92.6731 34.7932C92.807 34.8825 92.9632 34.9535 93.1418 35.0063C93.3244 35.059 93.5131 35.0956 93.7078 35.1158C93.9067 35.1361 94.0873 35.1463 94.2496 35.1463C94.4038 35.1463 94.5722 35.1341 94.7548 35.1098C94.9374 35.0854 95.1241 35.0489 95.3148 35.0002C95.5055 34.9515 95.6922 34.8906 95.8748 34.8176C96.0574 34.7405 96.2278 34.6532 96.3861 34.5558L97.2444 36.1628C96.7209 36.5483 96.2096 36.8141 95.7104 36.9602C95.2113 37.1022 94.7325 37.1732 94.2739 37.1732ZM103.065 37.1732C102.744 37.1732 102.43 37.1448 102.121 37.088C101.813 37.0271 101.519 36.9277 101.239 36.7898C101.292 37.2686 101.332 37.7312 101.361 38.1776C101.393 38.624 101.417 39.0582 101.434 39.4802C101.454 39.9022 101.466 40.3141 101.47 40.7158C101.474 41.1135 101.476 41.5092 101.476 41.9028H99.4249C99.4249 41.0019 99.4067 40.1112 99.3702 39.2306C99.3336 38.346 99.2586 37.4979 99.1449 36.6863C99.0313 35.8747 98.8649 35.1118 98.6458 34.3976C98.4307 33.6793 98.1406 33.0341 97.7754 32.4619L99.5102 31.3724C99.6522 31.6118 99.7861 31.839 99.9119 32.0541C100.038 32.2651 100.147 32.4741 100.241 32.6811C100.379 32.4863 100.539 32.3057 100.721 32.1393C100.908 31.9729 101.109 31.8309 101.324 31.7132C101.539 31.5915 101.764 31.4941 102 31.4211C102.235 31.344 102.472 31.2953 102.712 31.275C102.773 31.2709 102.842 31.2689 102.919 31.2689C103 31.2689 103.073 31.2689 103.138 31.2689C103.329 31.2689 103.521 31.279 103.716 31.2993C103.911 31.3196 104.106 31.3602 104.301 31.4211C104.499 31.4819 104.696 31.5712 104.891 31.6889C105.086 31.8025 105.277 31.9527 105.463 32.1393L104.392 33.8254C104.392 33.8213 104.341 33.7929 104.24 33.7402C104.142 33.6874 104.017 33.6286 103.862 33.5637C103.712 33.4987 103.544 33.4419 103.357 33.3932C103.17 33.3445 102.99 33.3222 102.815 33.3263C102.718 33.3385 102.608 33.3648 102.487 33.4054C102.365 33.4419 102.243 33.4886 102.121 33.5454C102 33.5982 101.882 33.6611 101.768 33.7341C101.655 33.8071 101.555 33.8822 101.47 33.9593C101.389 34.0364 101.324 34.1176 101.275 34.2028C101.231 34.288 101.217 34.3712 101.233 34.4524V34.4463C101.257 34.5842 101.334 34.6999 101.464 34.7932C101.598 34.8825 101.754 34.9535 101.933 35.0063C102.115 35.059 102.304 35.0956 102.499 35.1158C102.698 35.1361 102.878 35.1463 103.041 35.1463C103.195 35.1463 103.363 35.1341 103.546 35.1098C103.728 35.0854 103.915 35.0489 104.106 35.0002C104.297 34.9515 104.483 34.8906 104.666 34.8176C104.848 34.7405 105.019 34.6532 105.177 34.5558L106.035 36.1628C105.512 36.5483 105.001 36.8141 104.501 36.9602C104.002 37.1022 103.523 37.1732 103.065 37.1732ZM112.777 41.5376C112.757 41.5376 112.7 41.5335 112.606 41.5254C112.517 41.5213 112.406 41.5092 112.272 41.4889C112.142 41.4686 111.994 41.4361 111.827 41.3915C111.665 41.3469 111.501 41.286 111.334 41.2089C110.892 40.9979 110.549 40.7098 110.306 40.3445C110.062 39.9753 109.94 39.5471 109.94 39.0602C109.94 38.2486 110.299 37.4066 111.018 36.5341C111.075 36.4651 111.121 36.4083 111.158 36.3637C111.198 36.319 111.235 36.2785 111.267 36.2419C111.3 36.2054 111.33 36.1729 111.359 36.1445C111.391 36.1121 111.428 36.0756 111.468 36.035C111.419 35.9944 111.371 35.9558 111.322 35.9193C111.277 35.8828 111.239 35.8483 111.206 35.8158L111.097 35.7185L112.308 34.2393C112.515 34.3935 112.763 34.6025 113.051 34.8663C113.339 35.126 113.672 35.4587 114.049 35.8645C115.1 37.0616 115.626 38.1269 115.626 39.0602C115.626 39.539 115.51 39.9631 115.279 40.3324C115.051 40.7016 114.735 40.9918 114.329 41.2028C114.187 41.2718 114.041 41.3266 113.891 41.3671C113.745 41.4118 113.603 41.4463 113.465 41.4706C113.327 41.495 113.197 41.5112 113.075 41.5193C112.957 41.5315 112.858 41.5376 112.777 41.5376ZM113.958 39.0602C113.958 38.9344 113.917 38.7924 113.836 38.6341C113.755 38.4758 113.647 38.3115 113.513 38.1411C113.384 37.9666 113.237 37.7921 113.075 37.6176C112.913 37.439 112.75 37.2686 112.588 37.1063C112.479 37.228 112.363 37.366 112.241 37.5202C112.119 37.6703 112.008 37.8306 111.906 38.0011C111.805 38.1715 111.722 38.348 111.657 38.5306C111.592 38.7092 111.564 38.8857 111.572 39.0602C111.576 39.1576 111.622 39.2428 111.712 39.3158C111.801 39.3889 111.906 39.4477 112.028 39.4924C112.154 39.537 112.286 39.5715 112.424 39.5958C112.562 39.6161 112.679 39.6263 112.777 39.6263C112.899 39.6263 113.028 39.6182 113.166 39.6019C113.308 39.5816 113.436 39.5492 113.55 39.5045C113.668 39.4599 113.765 39.4011 113.842 39.328C113.919 39.255 113.958 39.1657 113.958 39.0602ZM119.794 37.0758C119.948 37.5141 120.082 37.9422 120.196 38.3602C120.244 38.5428 120.293 38.7335 120.342 38.9324C120.39 39.1271 120.433 39.324 120.47 39.5228C120.51 39.7176 120.543 39.9103 120.567 40.1011C120.591 40.2877 120.604 40.4622 120.604 40.6245C120.604 41.006 120.551 41.3773 120.445 41.7385C120.344 42.1037 120.198 42.4567 120.007 42.7976C119.82 43.1385 119.597 43.4651 119.337 43.7776C119.078 44.0941 118.79 44.3903 118.473 44.6663C118.157 44.9422 117.818 45.1979 117.457 45.4332C117.095 45.6727 116.722 45.8877 116.337 46.0785L115.229 44.5385C115.521 44.3924 115.815 44.226 116.111 44.0393C116.412 43.8567 116.698 43.6599 116.97 43.4489C117.246 43.2379 117.501 43.0167 117.737 42.7854C117.976 42.5541 118.183 42.3187 118.357 42.0793C118.536 41.8399 118.676 41.5964 118.777 41.3489C118.879 41.1054 118.93 40.866 118.93 40.6306C118.93 40.4602 118.905 40.2756 118.857 40.0767C118.812 39.8779 118.749 39.6648 118.668 39.4376C118.591 39.2063 118.497 38.9628 118.388 38.7071C118.278 38.4474 118.161 38.1715 118.035 37.8793L119.794 37.0758ZM120.944 34.7567L119.776 35.9315L118.619 34.775L117.475 35.9193L116.294 34.7445L117.463 33.5698L118.619 34.7263L119.764 33.5819L120.944 34.7567ZM117.536 32.9915L118.619 31.908L119.709 32.9976L118.625 34.0811L117.536 32.9915ZM124.571 37.5811C124.486 37.5648 124.389 37.5953 124.279 37.6724C124.174 37.7454 124.072 37.8469 123.975 37.9767C123.882 38.1025 123.802 38.2425 123.738 38.3967C123.677 38.5509 123.646 38.699 123.646 38.8411C123.646 38.975 123.685 39.0866 123.762 39.1758C123.839 39.2651 123.936 39.3382 124.054 39.395C124.176 39.4518 124.308 39.4944 124.45 39.5228C124.596 39.5512 124.736 39.5715 124.87 39.5837H124.864C124.969 39.5918 125.089 39.5979 125.223 39.6019C125.361 39.6019 125.495 39.6019 125.625 39.6019C125.665 39.6019 125.696 39.604 125.716 39.608C125.74 39.608 125.76 39.608 125.777 39.608C125.793 39.608 125.809 39.608 125.825 39.608C125.846 39.608 125.874 39.606 125.911 39.6019C125.85 39.3503 125.777 39.1109 125.691 38.8837C125.61 38.6524 125.515 38.4454 125.405 38.2628C125.296 38.0802 125.172 37.93 125.034 37.8124C124.896 37.6906 124.742 37.6135 124.571 37.5811ZM121.589 43.9541C122.161 43.8405 122.682 43.6964 123.153 43.5219C123.624 43.3515 124.036 43.1587 124.389 42.9437C124.746 42.7327 125.04 42.5074 125.271 42.268C125.507 42.0286 125.673 41.7851 125.771 41.5376C125.596 41.5376 125.411 41.5335 125.217 41.5254C125.022 41.5213 124.862 41.5153 124.736 41.5071C124.265 41.4666 123.835 41.3611 123.445 41.1906C123.056 41.0242 122.745 40.797 122.514 40.5089C122.344 40.2898 122.222 40.0524 122.149 39.7967C122.08 39.5411 122.045 39.2712 122.045 38.9871C122.045 38.768 122.066 38.5489 122.106 38.3298C122.147 38.1066 122.204 37.8915 122.277 37.6845C122.35 37.4735 122.435 37.2747 122.532 37.088C122.634 36.9013 122.741 36.7309 122.855 36.5767C123.098 36.2724 123.364 36.0431 123.652 35.8889C123.945 35.7306 124.251 35.6515 124.571 35.6515C125.257 35.6515 125.876 35.9518 126.428 36.5524C126.623 36.7715 126.797 37.017 126.951 37.2889C127.106 37.5608 127.236 37.8509 127.341 38.1593C127.451 38.4637 127.534 38.7842 127.591 39.1211C127.647 39.4538 127.676 39.7927 127.676 40.1376C127.676 40.2431 127.672 40.3486 127.664 40.4541C127.66 40.5596 127.654 40.659 127.645 40.7524C127.597 41.2271 127.489 41.6715 127.323 42.0854C127.16 42.5034 126.949 42.8869 126.69 43.2358C126.434 43.5889 126.136 43.9074 125.795 44.1915C125.454 44.4796 125.083 44.7312 124.681 44.9463C124.283 45.1654 123.861 45.348 123.415 45.4941C122.969 45.6402 122.51 45.7498 122.039 45.8228L121.589 43.9541ZM132.833 41.5376C132.743 41.5376 132.617 41.5315 132.455 41.5193C132.293 41.5071 132.118 41.4625 131.932 41.3854C131.842 41.8886 131.674 42.3654 131.426 42.8158C131.183 43.2703 130.881 43.6944 130.519 44.088C130.158 44.4857 129.746 44.8509 129.284 45.1837C128.821 45.5164 128.328 45.8147 127.805 46.0785L126.691 44.5385C126.979 44.3924 127.269 44.2321 127.561 44.0576C127.853 43.8871 128.131 43.7045 128.395 43.5098C128.663 43.319 128.911 43.1182 129.138 42.9071C129.369 42.7002 129.57 42.4851 129.74 42.2619C129.911 42.0387 130.045 41.8095 130.142 41.5741C130.239 41.3428 130.288 41.1074 130.288 40.868C130.288 40.8558 130.286 40.8376 130.282 40.8132C130.282 40.7889 130.282 40.7645 130.282 40.7402C130.282 40.7158 130.28 40.6976 130.276 40.6854C130.276 40.6732 130.276 40.6753 130.276 40.6915V40.6976C130.248 40.4622 130.207 40.237 130.154 40.0219C130.102 39.8069 130.035 39.5877 129.953 39.3645C129.876 39.1413 129.785 38.908 129.679 38.6645C129.574 38.417 129.456 38.1471 129.326 37.855L131.086 37.088C131.248 37.575 131.4 37.9808 131.542 38.3054C131.684 38.63 131.822 38.8898 131.956 39.0845C132.094 39.2793 132.232 39.4173 132.37 39.4985C132.508 39.5756 132.654 39.6141 132.808 39.6141H132.839C132.973 39.6141 133.098 39.6405 133.216 39.6932C133.334 39.746 133.435 39.817 133.52 39.9063C133.61 39.9915 133.679 40.0929 133.727 40.2106C133.78 40.3283 133.806 40.4521 133.806 40.5819C133.806 40.7158 133.78 40.8416 133.727 40.9593C133.679 41.077 133.61 41.1785 133.52 41.2637C133.435 41.3489 133.334 41.4158 133.216 41.4645C133.098 41.5132 132.971 41.5376 132.833 41.5376ZM131.818 40.5758C131.818 40.4419 131.844 40.3161 131.897 40.1985C131.946 40.0808 132.013 39.9793 132.098 39.8941C132.183 39.8048 132.285 39.7358 132.402 39.6871C132.52 39.6385 132.646 39.6141 132.78 39.6141H133.455H133.748C133.93 39.6141 134.131 39.606 134.35 39.5898C134.569 39.5735 134.78 39.5471 134.983 39.5106C135.186 39.4741 135.369 39.4254 135.531 39.3645C135.697 39.2996 135.819 39.2185 135.896 39.1211C135.941 39.0521 135.963 38.9587 135.963 38.8411C135.963 38.6666 135.921 38.4596 135.835 38.2202C135.754 37.9808 135.657 37.7373 135.543 37.4898C135.43 37.2422 135.312 37.0048 135.19 36.7776C135.073 36.5503 134.977 36.3616 134.904 36.2115L136.639 35.3593C136.765 35.5785 136.886 35.8382 137.004 36.1385C137.122 36.4347 137.227 36.7411 137.321 37.0576C137.414 37.37 137.489 37.6785 137.546 37.9828C137.603 38.2831 137.631 38.5448 137.631 38.768C137.631 39.1779 137.558 39.5532 137.412 39.8941C137.242 40.2756 137.008 40.5921 136.712 40.8437C136.416 41.0912 136.061 41.2738 135.647 41.3915C135.525 41.424 135.373 41.4503 135.19 41.4706C135.008 41.4909 134.823 41.5051 134.636 41.5132C134.45 41.5254 134.273 41.5315 134.107 41.5315C133.94 41.5356 133.81 41.5376 133.717 41.5376H132.835H132.78C132.646 41.5376 132.52 41.5132 132.402 41.4645C132.285 41.4158 132.183 41.3469 132.098 41.2576C132.013 41.1724 131.946 41.0709 131.897 40.9532C131.844 40.8356 131.818 40.7098 131.818 40.5758ZM136.402 44.6419L135.257 43.4976L134.101 44.6541L132.932 43.4793L134.113 42.3045L135.257 43.4489L136.414 42.2924L137.582 43.4671L136.402 44.6419ZM135.263 44.1428L136.347 45.2263L135.257 46.3158L134.174 45.2324L135.263 44.1428ZM42.8593 68.7315C42.5793 68.7315 42.2912 68.7173 41.995 68.6889C41.7028 68.6645 41.4127 68.6138 41.1245 68.5367C40.8364 68.4637 40.5585 68.3622 40.2906 68.2324C40.0228 68.1025 39.7732 67.9341 39.5419 67.7271C39.3106 67.5242 39.1098 67.299 38.9393 67.0515C38.773 66.808 38.635 66.5483 38.5254 66.2724C38.4159 65.9964 38.3327 65.7083 38.2759 65.408C38.2231 65.1077 38.1967 64.8013 38.1967 64.4889C38.1967 63.8234 38.3022 63.1518 38.5132 62.4741C38.7283 61.7964 39.0448 61.1411 39.4628 60.508L40.8324 61.4941C40.7512 61.6037 40.6559 61.768 40.5463 61.9871C40.4367 62.2063 40.3312 62.4558 40.2298 62.7358C40.1283 63.0158 40.0431 63.3141 39.9741 63.6306C39.9051 63.9431 39.8706 64.2454 39.8706 64.5376C39.8706 64.8744 39.9457 65.1787 40.0959 65.4506C40.2501 65.7225 40.453 65.9558 40.7045 66.1506C40.9602 66.3454 41.2524 66.4976 41.5811 66.6071C41.9138 66.7167 42.2587 66.7756 42.6159 66.7837C42.904 66.7877 43.184 66.7634 43.4559 66.7106C43.7277 66.6579 43.9854 66.5808 44.2289 66.4793C44.4724 66.3779 44.6935 66.2541 44.8924 66.108C45.0953 65.9619 45.2677 65.7976 45.4098 65.615C45.5559 65.4364 45.6654 65.2416 45.7385 65.0306C45.8156 64.8196 45.848 64.5985 45.8359 64.3671C45.8277 64.1927 45.7953 63.9958 45.7385 63.7767C45.6816 63.5576 45.6127 63.3344 45.5315 63.1071C45.4544 62.8758 45.3672 62.6486 45.2698 62.4254C45.1764 62.2022 45.0872 61.9973 45.0019 61.8106C44.9208 61.6199 44.8498 61.4576 44.7889 61.3237C44.728 61.1898 44.6895 61.0985 44.6732 61.0498L46.3289 60.1306C46.3411 60.1469 46.3756 60.2199 46.4324 60.3498C46.4932 60.4796 46.5643 60.648 46.6454 60.855C46.7306 61.0579 46.8199 61.2912 46.9132 61.555C47.0066 61.8187 47.0938 62.0947 47.175 62.3828C47.2602 62.6709 47.3332 62.9631 47.3941 63.2593C47.455 63.5556 47.4935 63.8376 47.5098 64.1054C47.5138 64.1379 47.5159 64.1764 47.5159 64.2211C47.5159 64.2698 47.5159 64.3103 47.5159 64.3428C47.5159 64.704 47.4753 65.0631 47.3941 65.4202C47.313 65.7773 47.1872 66.1182 47.0167 66.4428C46.8503 66.7715 46.6393 67.0738 46.3837 67.3498C46.1321 67.6298 45.8338 67.8712 45.4889 68.0741C45.144 68.2811 44.7524 68.4413 44.3141 68.555C43.8759 68.6727 43.3909 68.7315 42.8593 68.7315ZM42.8593 58.6819L44.2106 60.0332L42.8593 61.3845L41.508 60.0332L42.8593 58.6819ZM51.5511 64.5376C51.052 64.5376 50.6239 64.4747 50.2668 64.3489C49.9097 64.2271 49.6013 64.0385 49.3416 63.7828C49.1793 63.6205 49.0535 63.45 48.9642 63.2715C48.879 63.0929 48.8161 62.9185 48.7755 62.748C48.739 62.5735 48.7167 62.4092 48.7085 62.255C48.7045 62.1008 48.7025 61.9689 48.7025 61.8593V61.768C48.7065 61.6179 48.7106 61.4028 48.7146 61.1228C48.7227 60.8387 48.7268 60.506 48.7268 60.1245C48.7268 59.7431 48.7248 59.3231 48.7207 58.8645C48.7167 58.406 48.7045 57.9495 48.6842 57.495C48.668 57.0364 48.6416 56.5961 48.6051 56.1741C48.5726 55.7521 48.5259 55.3848 48.4651 55.0724L50.2851 54.5184C50.3378 54.7863 50.3804 55.1028 50.4129 55.468C50.4453 55.8292 50.4717 56.2086 50.492 56.6063C50.5164 57.004 50.5326 57.4037 50.5407 57.8054C50.5529 58.2071 50.561 58.5805 50.5651 58.9254C50.5691 59.2298 50.5569 59.528 50.5285 59.8202C50.5042 60.1083 50.4839 60.3924 50.4677 60.6724C50.4514 60.9483 50.4514 61.2182 50.4677 61.4819C50.488 61.7416 50.5448 61.9953 50.6381 62.2428C50.6746 62.3361 50.7193 62.4071 50.772 62.4558C50.8288 62.5045 50.8938 62.5411 50.9668 62.5654C51.0398 62.5857 51.119 62.5979 51.2042 62.6019C51.2935 62.606 51.3909 62.608 51.4964 62.608H51.5511C51.681 62.608 51.8048 62.6344 51.9225 62.6871C52.0401 62.7399 52.1416 62.8109 52.2268 62.9002C52.3161 62.9854 52.3871 63.0869 52.4398 63.2045C52.4926 63.3222 52.519 63.446 52.519 63.5758C52.519 63.7098 52.4926 63.8356 52.4398 63.9532C52.3871 64.0709 52.3161 64.1724 52.2268 64.2576C52.1416 64.3469 52.0401 64.4158 51.9225 64.4645C51.8048 64.5132 51.681 64.5376 51.5511 64.5376ZM50.6163 63.5819C50.6163 63.4561 50.6406 63.3364 50.6893 63.2228C50.738 63.1092 50.8029 63.0098 50.8841 62.9245C50.9653 62.8353 51.0627 62.7642 51.1763 62.7115C51.2858 62.6547 51.4035 62.6222 51.5293 62.6141C51.8337 62.6141 52.0893 62.5329 52.2963 62.3706C52.5073 62.2042 52.6879 61.9871 52.838 61.7193C52.9882 61.4515 53.116 61.1471 53.2215 60.8063C53.327 60.4613 53.4264 60.1103 53.5198 59.7532L55.1389 60.0454C55.1064 60.1874 55.0658 60.3538 55.0171 60.5445C54.9725 60.7312 54.9299 60.926 54.8893 61.1289C54.8528 61.3318 54.8224 61.5306 54.798 61.7254C54.7737 61.9161 54.7676 62.0845 54.7798 62.2306C54.796 62.3767 54.8345 62.4924 54.8954 62.5776C54.9563 62.6587 55.0496 62.6892 55.1754 62.6689C55.3377 62.6567 55.4838 62.5999 55.6137 62.4985C55.7476 62.397 55.8673 62.2671 55.9728 62.1089C56.0783 61.9506 56.1716 61.7721 56.2528 61.5732C56.334 61.3744 56.4029 61.1695 56.4598 60.9585C56.5206 60.7474 56.5693 60.5385 56.6058 60.3315C56.6464 60.1245 56.6789 59.9358 56.7032 59.7654L58.2493 60.0271C58.2453 60.1489 58.2311 60.299 58.2067 60.4776C58.1824 60.6561 58.16 60.8448 58.1398 61.0437C58.1195 61.2385 58.1093 61.4353 58.1093 61.6341C58.1093 61.8289 58.1316 62.0054 58.1763 62.1637C58.2209 62.3179 58.294 62.4437 58.3954 62.5411C58.5009 62.6385 58.647 62.6871 58.8337 62.6871C58.9473 62.6871 59.0629 62.6689 59.1806 62.6324C59.2983 62.5918 59.4038 62.537 59.4971 62.468C59.5905 62.395 59.6656 62.3098 59.7224 62.2124C59.7832 62.115 59.8137 62.0054 59.8137 61.8837C59.8137 61.6727 59.7792 61.4413 59.7102 61.1898C59.6412 60.9341 59.558 60.6825 59.4606 60.435C59.3632 60.1834 59.2598 59.946 59.1502 59.7228C59.0447 59.4996 58.9554 59.3109 58.8824 59.1567L60.3919 58.3106C60.4163 58.3634 60.4589 58.4567 60.5198 58.5906C60.5806 58.7205 60.6496 58.8787 60.7267 59.0654C60.8038 59.2521 60.8829 59.4631 60.9641 59.6984C61.0493 59.9298 61.1264 60.1712 61.1954 60.4228C61.2644 60.6744 61.3212 60.9321 61.3658 61.1958C61.4105 61.4596 61.4328 61.7153 61.4328 61.9628C61.4328 62.3686 61.376 62.7338 61.2624 63.0585C61.1528 63.3831 60.9844 63.659 60.7571 63.8863C60.534 64.1135 60.2519 64.29 59.9111 64.4158C59.5742 64.5416 59.1786 64.6066 58.7241 64.6106C58.505 64.6106 58.3061 64.5883 58.1276 64.5437C57.949 64.5031 57.7887 64.4442 57.6467 64.3671C57.5047 64.2941 57.3769 64.2069 57.2632 64.1054C57.1537 64.004 57.0563 63.8964 56.9711 63.7828C56.8737 63.9086 56.7682 64.0222 56.6545 64.1237C56.545 64.2211 56.4171 64.3042 56.2711 64.3732C56.129 64.4463 55.9687 64.5031 55.7902 64.5437C55.6116 64.5842 55.4087 64.6066 55.1815 64.6106C54.9827 64.6147 54.8021 64.5964 54.6398 64.5558C54.4815 64.5193 54.3354 64.4645 54.2015 64.3915C54.0676 64.3185 53.9458 64.2312 53.8363 64.1298C53.7308 64.0242 53.6313 63.9086 53.538 63.7828C53.4528 63.8883 53.3554 63.9877 53.2458 64.0811C53.1363 64.1703 53.0064 64.2495 52.8563 64.3185C52.7061 64.3874 52.5316 64.4422 52.3328 64.4828C52.134 64.5234 51.9027 64.5437 51.6389 64.5437H51.5293C51.4035 64.5356 51.2858 64.5051 51.1763 64.4524C51.0627 64.3996 50.9653 64.3306 50.8841 64.2454C50.8029 64.1602 50.738 64.0608 50.6893 63.9471C50.6406 63.8335 50.6163 63.7118 50.6163 63.5819ZM59.5641 57.1298L58.3954 58.3045L57.2389 57.148L56.0945 58.2924L54.9137 57.1176L56.0824 55.9428L57.2389 57.0993L58.3832 55.955L59.5641 57.1298ZM56.1554 55.3645L57.2389 54.2811L58.3284 55.3706L57.245 56.4541L56.1554 55.3645ZM61.9111 66.9541C62.4833 66.8405 63.0007 66.6964 63.4633 66.5219C63.93 66.3515 64.3378 66.1587 64.6868 65.9437C65.0398 65.7327 65.33 65.5074 65.5572 65.268C65.7845 65.0286 65.9468 64.7851 66.0442 64.5376C65.8697 64.5376 65.6932 64.5335 65.5146 64.5254C65.3361 64.5213 65.1839 64.5153 65.0581 64.5071C64.5874 64.4666 64.1572 64.3611 63.7677 64.1906C63.3781 64.0242 63.0677 63.797 62.8364 63.5089C62.6659 63.2898 62.5442 63.0524 62.4711 62.7967C62.4022 62.5411 62.3677 62.2712 62.3677 61.9871C62.3677 61.768 62.388 61.5489 62.4285 61.3298C62.4691 61.1066 62.5259 60.8915 62.599 60.6845C62.672 60.4735 62.7572 60.2747 62.8546 60.088C62.9561 59.9013 63.0636 59.7309 63.1772 59.5767C63.4207 59.2724 63.6865 59.0431 63.9746 58.8889C64.2668 58.7306 64.5732 58.6515 64.8938 58.6515C65.5796 58.6515 66.1984 58.9518 66.7503 59.5524C66.9207 59.7431 67.0749 59.9541 67.2129 60.1854C67.3509 60.4167 67.4726 60.6642 67.5781 60.928C67.6836 61.1877 67.7688 61.4596 67.8338 61.7437C67.9027 62.0277 67.9494 62.3179 67.9738 62.6141H68.0894C68.2233 62.6141 68.3491 62.6385 68.4668 62.6871C68.5845 62.7358 68.6859 62.8048 68.7711 62.8941C68.8604 62.9793 68.9314 63.0808 68.9842 63.1985C69.0369 63.3161 69.0633 63.444 69.0633 63.5819C69.0633 63.7118 69.0369 63.8356 68.9842 63.9532C68.9314 64.0669 68.8604 64.1663 68.7711 64.2515C68.6859 64.3408 68.5845 64.4098 68.4668 64.4585C68.3491 64.5112 68.2233 64.5376 68.0894 64.5376H67.8216C67.6633 65.1341 67.4097 65.6738 67.0607 66.1567C66.7158 66.6396 66.3019 67.0616 65.819 67.4228C65.3401 67.784 64.8045 68.0822 64.212 68.3176C63.6236 68.5529 63.0068 68.7213 62.3616 68.8228L61.9111 66.9541ZM64.8938 60.5811C64.8045 60.5811 64.7051 60.6216 64.5955 60.7028C64.49 60.7799 64.3906 60.8793 64.2972 61.0011C64.2039 61.1228 64.1248 61.2587 64.0598 61.4089C63.999 61.559 63.9685 61.7051 63.9685 61.8471C63.9685 61.9851 64.0071 62.0987 64.0842 62.188C64.1613 62.2773 64.2587 62.3503 64.3764 62.4071C64.4981 62.4599 64.63 62.5005 64.772 62.5289C64.914 62.5532 65.052 62.5715 65.1859 62.5837C65.259 62.5918 65.3381 62.5979 65.4233 62.6019C65.5126 62.6019 65.6039 62.6019 65.6972 62.6019C65.7906 62.6019 65.8819 62.604 65.9711 62.608C66.0645 62.608 66.1497 62.61 66.2268 62.6141C66.1984 62.4153 66.1538 62.2286 66.0929 62.0541C66.032 61.8796 65.963 61.7173 65.8859 61.5671C65.8129 61.417 65.7317 61.2831 65.6425 61.1654C65.5572 61.0437 65.474 60.9382 65.3929 60.8489C65.3645 60.8205 65.328 60.79 65.2833 60.7576C65.2427 60.7251 65.2001 60.6967 65.1555 60.6724C65.1109 60.644 65.0642 60.6216 65.0155 60.6054C64.9709 60.5892 64.9303 60.5811 64.8938 60.5811ZM67.1227 63.5758C67.1227 63.4419 67.1491 63.3161 67.2019 63.1985C67.2505 63.0808 67.3175 62.9793 67.4027 62.8941C67.4879 62.8048 67.5894 62.7358 67.7071 62.6871C67.8248 62.6385 67.9505 62.6141 68.0845 62.6141H68.1392H68.4253C68.6079 62.6141 68.7703 62.5979 68.9123 62.5654C69.0584 62.5329 69.1598 62.4883 69.2166 62.4315V62.4376C69.2856 62.3605 69.3384 62.2408 69.3749 62.0785C69.4155 61.9161 69.4337 61.7011 69.4297 61.4332C69.4297 61.4008 69.4236 61.2831 69.4114 61.0802C69.3992 60.8732 69.383 60.6156 69.3627 60.3071C69.3465 59.9947 69.3242 59.6477 69.2958 59.2663C69.2714 58.8808 69.245 58.4912 69.2166 58.0976C69.1923 57.704 69.1679 57.3205 69.1436 56.9471C69.1192 56.5738 69.0949 56.2451 69.0705 55.9611C69.0503 55.677 69.032 55.4518 69.0158 55.2854C69.0036 55.115 68.9955 55.0379 68.9914 55.0541L70.921 54.5793C70.925 54.6442 70.9372 54.7964 70.9575 55.0358C70.9778 55.2712 71.0021 55.5634 71.0305 55.9124C71.059 56.2613 71.0874 56.6509 71.1158 57.0811C71.1442 57.5112 71.1685 57.9495 71.1888 58.3958L71.2862 61.4089C71.2903 61.5793 71.2862 61.766 71.274 61.9689C71.2619 62.1718 71.2294 62.3787 71.1766 62.5898C71.1239 62.7967 71.0448 63.0037 70.9392 63.2106C70.8378 63.4176 70.6998 63.6103 70.5253 63.7889C70.0262 64.288 69.3262 64.5376 68.4253 64.5376H68.1392H68.0845C67.9505 64.5376 67.8248 64.5112 67.7071 64.4585C67.5894 64.4098 67.4879 64.3428 67.4027 64.2576C67.3175 64.1724 67.2505 64.0709 67.2019 63.9532C67.1491 63.8356 67.1227 63.7098 67.1227 63.5758ZM79.7734 68.7315C79.4934 68.7315 79.2053 68.7173 78.909 68.6889C78.6169 68.6645 78.3267 68.6138 78.0386 68.5367C77.7505 68.4637 77.4725 68.3622 77.2047 68.2324C76.9369 68.1025 76.6873 67.9341 76.456 67.7271C76.2247 67.5242 76.0238 67.299 75.8534 67.0515C75.687 66.808 75.549 66.5483 75.4395 66.2724C75.3299 65.9964 75.2467 65.7083 75.1899 65.408C75.1372 65.1077 75.1108 64.8013 75.1108 64.4889C75.1108 63.8234 75.2163 63.1518 75.4273 62.4741C75.6424 61.7964 75.9589 61.1411 76.3769 60.508L77.7464 61.4941C77.6653 61.6037 77.5699 61.768 77.4603 61.9871C77.3508 62.2063 77.2453 62.4558 77.1438 62.7358C77.0424 63.0158 76.9572 63.3141 76.8882 63.6306C76.8192 63.9431 76.7847 64.2454 76.7847 64.5376C76.7847 64.8744 76.8598 65.1787 77.0099 65.4506C77.1641 65.7225 77.367 65.9558 77.6186 66.1506C77.8743 66.3454 78.1664 66.4976 78.4951 66.6071C78.8279 66.7167 79.1728 66.7756 79.5299 66.7837C79.818 66.7877 80.098 66.7634 80.3699 66.7106C80.6418 66.6579 80.8995 66.5808 81.143 66.4793C81.3864 66.3779 81.6076 66.2541 81.8064 66.108C82.0093 65.9619 82.1818 65.7976 82.3238 65.615C82.4699 65.4364 82.5795 65.2416 82.6525 65.0306C82.7296 64.8196 82.7621 64.5985 82.7499 64.3671C82.7418 64.1927 82.7093 63.9958 82.6525 63.7767C82.5957 63.5576 82.5267 63.3344 82.4456 63.1071C82.3685 62.8758 82.2812 62.6486 82.1838 62.4254C82.0905 62.2022 82.0012 61.9973 81.916 61.8106C81.8348 61.6199 81.7638 61.4576 81.703 61.3237C81.6421 61.1898 81.6035 61.0985 81.5873 61.0498L83.243 60.1306C83.2551 60.1469 83.2896 60.2199 83.3464 60.3498C83.4073 60.4796 83.4783 60.648 83.5595 60.855C83.6447 61.0579 83.734 61.2912 83.8273 61.555C83.9206 61.8187 84.0079 62.0947 84.089 62.3828C84.1743 62.6709 84.2473 62.9631 84.3082 63.2593C84.369 63.5556 84.4076 63.8376 84.4238 64.1054C84.4279 64.1379 84.4299 64.1764 84.4299 64.2211C84.4299 64.2698 84.4299 64.3103 84.4299 64.3428C84.4299 64.704 84.3893 65.0631 84.3082 65.4202C84.227 65.7773 84.1012 66.1182 83.9308 66.4428C83.7644 66.7715 83.5534 67.0738 83.2977 67.3498C83.0461 67.6298 82.7479 67.8712 82.403 68.0741C82.058 68.2811 81.6664 68.4413 81.2282 68.555C80.7899 68.6727 80.305 68.7315 79.7734 68.7315ZM79.7734 58.6819L81.1247 60.0332L79.7734 61.3845L78.4221 60.0332L79.7734 58.6819ZM84.8252 66.9541C85.3974 66.8405 85.9148 66.6964 86.3774 66.5219C86.844 66.3515 87.2519 66.1587 87.6009 65.9437C87.9539 65.7327 88.244 65.5074 88.4713 65.268C88.6985 65.0286 88.8609 64.7851 88.9583 64.5376C88.7838 64.5376 88.6072 64.5335 88.4287 64.5254C88.2501 64.5213 88.098 64.5153 87.9722 64.5071C87.5014 64.4666 87.0713 64.3611 86.6817 64.1906C86.2922 64.0242 85.9817 63.797 85.7504 63.5089C85.58 63.2898 85.4583 63.0524 85.3852 62.7967C85.3162 62.5411 85.2817 62.2712 85.2817 61.9871C85.2817 61.768 85.302 61.5489 85.3426 61.3298C85.3832 61.1066 85.44 60.8915 85.513 60.6845C85.5861 60.4735 85.6713 60.2747 85.7687 60.088C85.8701 59.9013 85.9777 59.7309 86.0913 59.5767C86.3348 59.2724 86.6006 59.0431 86.8887 58.8889C87.1809 58.7306 87.4872 58.6515 87.8078 58.6515C88.4936 58.6515 89.1125 58.9518 89.6643 59.5524C89.8348 59.7431 89.989 59.9541 90.1269 60.1854C90.2649 60.4167 90.3867 60.6642 90.4922 60.928C90.5977 61.1877 90.6829 61.4596 90.7478 61.7437C90.8168 62.0277 90.8635 62.3179 90.8878 62.6141H91.0035C91.1374 62.6141 91.2632 62.6385 91.3809 62.6871C91.4985 62.7358 91.6 62.8048 91.6852 62.8941C91.7745 62.9793 91.8455 63.0808 91.8983 63.1985C91.951 63.3161 91.9774 63.444 91.9774 63.5819C91.9774 63.7118 91.951 63.8356 91.8983 63.9532C91.8455 64.0669 91.7745 64.1663 91.6852 64.2515C91.6 64.3408 91.4985 64.4098 91.3809 64.4585C91.2632 64.5112 91.1374 64.5376 91.0035 64.5376H90.7356C90.5774 65.1341 90.3238 65.6738 89.9748 66.1567C89.6298 66.6396 89.2159 67.0616 88.733 67.4228C88.2542 67.784 87.7185 68.0822 87.1261 68.3176C86.5377 68.5529 85.9209 68.7213 85.2756 68.8228L84.8252 66.9541ZM87.8078 60.5811C87.7185 60.5811 87.6191 60.6216 87.5096 60.7028C87.404 60.7799 87.3046 60.8793 87.2113 61.0011C87.118 61.1228 87.0388 61.2587 86.9739 61.4089C86.913 61.559 86.8826 61.7051 86.8826 61.8471C86.8826 61.9851 86.9212 62.0987 86.9983 62.188C87.0754 62.2773 87.1727 62.3503 87.2904 62.4071C87.4122 62.4599 87.544 62.5005 87.6861 62.5289C87.8281 62.5532 87.9661 62.5715 88.1 62.5837C88.173 62.5918 88.2522 62.5979 88.3374 62.6019C88.4267 62.6019 88.518 62.6019 88.6113 62.6019C88.7046 62.6019 88.7959 62.604 88.8852 62.608C88.9785 62.608 89.0638 62.61 89.1409 62.6141C89.1125 62.4153 89.0678 62.2286 89.0069 62.0541C88.9461 61.8796 88.8771 61.7173 88.8 61.5671C88.7269 61.417 88.6458 61.2831 88.5565 61.1654C88.4713 61.0437 88.3881 60.9382 88.3069 60.8489C88.2785 60.8205 88.242 60.79 88.1974 60.7576C88.1568 60.7251 88.1142 60.6967 88.0696 60.6724C88.0249 60.644 87.9783 60.6216 87.9296 60.6054C87.8849 60.5892 87.8443 60.5811 87.8078 60.5811ZM89.9942 63.5758C89.9942 63.4419 90.0185 63.3161 90.0672 63.1985C90.1159 63.0808 90.1849 62.9793 90.2742 62.8941C90.3594 62.8048 90.4608 62.7358 90.5785 62.6871C90.6962 62.6385 90.822 62.6141 90.9559 62.6141H91.4185C91.7107 62.6141 91.9907 62.6019 92.2585 62.5776C92.5304 62.5532 92.7698 62.5025 92.9768 62.4254C93.1837 62.3442 93.3501 62.2327 93.4759 62.0906C93.6058 61.9445 93.6748 61.7518 93.6829 61.5124C93.6869 61.4231 93.6869 61.35 93.6829 61.2932C93.6829 61.2324 93.6727 61.1613 93.6524 61.0802C93.6321 60.995 93.6017 60.8854 93.5611 60.7515C93.5246 60.6135 93.4719 60.4208 93.4029 60.1732L95.1742 59.6741C95.2513 59.8689 95.3223 60.1266 95.3872 60.4471C95.4521 60.7677 95.5008 61.1187 95.5333 61.5002C95.5414 61.6219 95.5556 61.7477 95.5759 61.8776C95.5962 62.0074 95.6287 62.1271 95.6733 62.2367C95.722 62.3463 95.7869 62.4376 95.8681 62.5106C95.9492 62.5796 96.0548 62.6141 96.1846 62.6141C96.3185 62.6141 96.4443 62.6385 96.562 62.6871C96.6797 62.7358 96.7811 62.8048 96.8663 62.8941C96.9556 62.9793 97.0246 63.0808 97.0733 63.1985C97.1261 63.3161 97.1524 63.4419 97.1524 63.5758C97.1524 63.7098 97.1261 63.8356 97.0733 63.9532C97.0246 64.0709 96.9556 64.1724 96.8663 64.2576C96.7771 64.3469 96.6736 64.4158 96.5559 64.4645C96.4423 64.5132 96.3206 64.5376 96.1907 64.5376C95.8011 64.5376 95.4663 64.4767 95.1863 64.355C94.9104 64.2373 94.673 64.0831 94.4742 63.8924C94.2916 64.0141 94.0806 64.1156 93.8411 64.1967C93.6058 64.2779 93.3542 64.3428 93.0863 64.3915C92.8185 64.4442 92.5426 64.4808 92.2585 64.5011C91.9745 64.5254 91.6945 64.5376 91.4185 64.5376H90.9559C90.822 64.5376 90.6962 64.5132 90.5785 64.4645C90.4608 64.4158 90.3594 64.3469 90.2742 64.2576C90.1849 64.1724 90.1159 64.0709 90.0672 63.9532C90.0185 63.8356 89.9942 63.7098 89.9942 63.5758ZM96.0385 57.708L94.8698 58.8828L93.7133 57.7263L92.569 58.8706L91.3881 57.6958L92.5568 56.5211L93.7133 57.6776L94.8577 56.5332L96.0385 57.708ZM100.91 66.5402L99.7408 67.715L98.5843 66.5585L97.44 67.7028L96.2591 66.528L97.4278 65.3532L98.5843 66.5098L99.7287 65.3654L100.91 66.5402ZM95.0235 63.5758C95.0235 63.4419 95.0498 63.3161 95.1026 63.1985C95.1513 63.0808 95.2182 62.9793 95.3035 62.8941C95.3887 62.8048 95.4901 62.7358 95.6078 62.6871C95.7255 62.6385 95.8513 62.6141 95.9852 62.6141H96.6608H96.953C97.1356 62.6141 97.3365 62.606 97.5556 62.5898C97.7748 62.5735 97.9858 62.5471 98.1887 62.5106C98.3916 62.4741 98.5742 62.4254 98.7365 62.3645C98.9029 62.2996 99.0246 62.2185 99.1017 62.1211C99.1464 62.0521 99.1687 61.9587 99.1687 61.8411C99.1687 61.6666 99.1261 61.4596 99.0408 61.2202C98.9597 60.9808 98.8623 60.7373 98.7487 60.4898C98.635 60.2422 98.5174 60.0048 98.3956 59.7776C98.2779 59.5503 98.1826 59.3616 98.1095 59.2115L99.8443 58.3593C99.9701 58.5785 100.092 58.8382 100.21 59.1385C100.327 59.4347 100.433 59.7411 100.526 60.0576C100.619 60.37 100.694 60.6785 100.751 60.9828C100.808 61.2831 100.836 61.5448 100.836 61.768C100.836 62.1779 100.763 62.5532 100.617 62.8941C100.447 63.2756 100.214 63.5921 99.9174 63.8437C99.6211 64.0912 99.2661 64.2738 98.8521 64.3915C98.7304 64.424 98.5782 64.4503 98.3956 64.4706C98.213 64.4909 98.0284 64.5051 97.8417 64.5132C97.655 64.5254 97.4785 64.5315 97.3121 64.5315C97.1458 64.5356 97.0159 64.5376 96.9226 64.5376H96.04H95.9852C95.8513 64.5376 95.7255 64.5132 95.6078 64.4645C95.4901 64.4158 95.3887 64.3469 95.3035 64.2576C95.2182 64.1724 95.1513 64.0709 95.1026 63.9532C95.0498 63.8356 95.0235 63.7098 95.0235 63.5758ZM105.211 60.0758C105.365 60.5141 105.499 60.9422 105.613 61.3602C105.662 61.5428 105.71 61.7335 105.759 61.9324C105.808 62.1271 105.85 62.324 105.887 62.5228C105.927 62.7176 105.96 62.9103 105.984 63.1011C106.008 63.2877 106.021 63.4622 106.021 63.6245C106.021 64.006 105.968 64.3773 105.862 64.7385C105.761 65.1037 105.615 65.4567 105.424 65.7976C105.237 66.1385 105.014 66.4651 104.755 66.7776C104.495 67.0941 104.207 67.3903 103.89 67.6663C103.574 67.9422 103.235 68.1979 102.874 68.4332C102.513 68.6727 102.139 68.8877 101.754 69.0785L100.646 67.5385C100.938 67.3924 101.234 67.226 101.535 67.0393C101.831 66.8567 102.115 66.6599 102.387 66.4489C102.663 66.2379 102.918 66.0167 103.154 65.7854C103.393 65.5541 103.6 65.3187 103.775 65.0793C103.953 64.8399 104.093 64.5964 104.195 64.3489C104.296 64.1054 104.347 63.866 104.347 63.6306C104.347 63.4602 104.322 63.2756 104.274 63.0767C104.229 62.8779 104.166 62.6648 104.085 62.4376C104.008 62.2063 103.915 61.9628 103.805 61.7071C103.695 61.4474 103.578 61.1715 103.452 60.8793L105.211 60.0758ZM104.164 56.375L105.515 57.7263L104.164 59.0776L102.813 57.7263L104.164 56.375ZM115.451 62.5837C115.548 62.5877 115.646 62.5918 115.743 62.5958C115.845 62.5958 115.94 62.5958 116.029 62.5958C116.35 62.5958 116.656 62.5837 116.948 62.5593C117.241 62.535 117.511 62.5025 117.758 62.4619C118.006 62.4213 118.223 62.3787 118.409 62.3341C118.6 62.2854 118.752 62.2387 118.866 62.1941H118.86C119.071 62.1048 119.225 62.0257 119.322 61.9567C119.42 61.8877 119.485 61.835 119.517 61.7985C119.578 61.7295 119.621 61.6585 119.645 61.5854C119.673 61.5083 119.688 61.4292 119.688 61.348C119.688 61.1735 119.621 60.9869 119.487 60.788C119.353 60.5851 119.18 60.3802 118.969 60.1732C118.762 59.9663 118.531 59.7593 118.275 59.5524C118.024 59.3454 117.778 59.1466 117.539 58.9558L116.267 57.9089L116.468 56.1071L121.958 53.715L122.713 55.5045L118.422 57.3367C118.649 57.5274 118.878 57.7242 119.109 57.9271C119.345 58.13 119.57 58.339 119.785 58.5541C120 58.7651 120.201 58.9822 120.388 59.2054C120.578 59.4245 120.743 59.6498 120.881 59.8811C121.023 60.1083 121.134 60.3396 121.215 60.575C121.297 60.8103 121.337 61.0498 121.337 61.2932C121.337 61.5611 121.291 61.8329 121.197 62.1089C121.108 62.3848 120.96 62.6689 120.753 62.9611H120.759C120.735 62.9976 120.692 63.0503 120.631 63.1193C120.574 63.1883 120.495 63.2654 120.394 63.3506C120.296 63.4358 120.175 63.5271 120.029 63.6245C119.882 63.7179 119.71 63.8112 119.511 63.9045C118.951 64.1521 118.387 64.3185 117.819 64.4037C117.251 64.4889 116.673 64.5315 116.084 64.5315H115.956C115.871 64.5315 115.784 64.5315 115.695 64.5315C115.605 64.5315 115.518 64.5274 115.433 64.5193C114.674 64.5112 113.994 64.4625 113.394 64.3732C112.793 64.288 112.266 64.1602 111.811 63.9898C110.89 63.6327 110.257 63.1092 109.912 62.4193V62.4254C109.717 62.048 109.62 61.63 109.62 61.1715C109.62 60.9727 109.644 60.7576 109.693 60.5263C109.742 60.295 109.804 60.0698 109.882 59.8506C109.93 59.737 109.971 59.6416 110.003 59.5645C110.04 59.4874 110.074 59.4164 110.107 59.3515C110.139 59.2866 110.176 59.2216 110.216 59.1567C110.257 59.0918 110.308 59.0127 110.368 58.9193L111.811 59.9724C111.754 60.0738 111.691 60.1773 111.622 60.2828C111.557 60.3883 111.497 60.4958 111.44 60.6054C111.387 60.715 111.342 60.8266 111.306 60.9402C111.269 61.0538 111.251 61.1674 111.251 61.2811C111.251 61.4393 111.306 61.5813 111.415 61.7071C111.529 61.8289 111.683 61.9364 111.878 62.0298C112.077 62.119 112.308 62.1961 112.572 62.2611C112.84 62.326 113.128 62.3808 113.436 62.4254C113.749 62.47 114.075 62.5045 114.416 62.5289C114.757 62.5532 115.1 62.5715 115.445 62.5837H115.451ZM127.077 64.5376C126.987 64.5376 126.862 64.5315 126.699 64.5193C126.537 64.5071 126.362 64.4625 126.176 64.3854C126.087 64.8886 125.918 65.3654 125.671 65.8158C125.427 66.2703 125.125 66.6944 124.764 67.088C124.402 67.4857 123.991 67.8509 123.528 68.1837C123.065 68.5164 122.572 68.8147 122.049 69.0785L120.935 67.5385C121.223 67.3924 121.513 67.2321 121.805 67.0576C122.098 66.8871 122.376 66.7045 122.639 66.5098C122.907 66.319 123.155 66.1182 123.382 65.9071C123.613 65.7002 123.814 65.4851 123.984 65.2619C124.155 65.0387 124.289 64.8095 124.386 64.5741C124.484 64.3428 124.532 64.1074 124.532 63.868C124.532 63.8558 124.53 63.8376 124.526 63.8132C124.526 63.7889 124.526 63.7645 124.526 63.7402C124.526 63.7158 124.524 63.6976 124.52 63.6854C124.52 63.6732 124.52 63.6753 124.52 63.6915V63.6976C124.492 63.4622 124.451 63.237 124.398 63.0219C124.346 62.8069 124.279 62.5877 124.198 62.3645C124.12 62.1413 124.029 61.908 123.924 61.6645C123.818 61.417 123.7 61.1471 123.571 60.855L125.33 60.088C125.492 60.575 125.644 60.9808 125.786 61.3054C125.928 61.63 126.066 61.8898 126.2 62.0845C126.338 62.2793 126.476 62.4173 126.614 62.4985C126.752 62.5756 126.898 62.6141 127.052 62.6141H127.083C127.217 62.6141 127.342 62.6405 127.46 62.6932C127.578 62.746 127.679 62.817 127.764 62.9063C127.854 62.9915 127.923 63.0929 127.971 63.2106C128.024 63.3283 128.051 63.4521 128.051 63.5819C128.051 63.7158 128.024 63.8416 127.971 63.9593C127.923 64.077 127.854 64.1785 127.764 64.2637C127.679 64.3489 127.578 64.4158 127.46 64.4645C127.342 64.5132 127.215 64.5376 127.077 64.5376ZM126.056 63.5758C126.056 63.4419 126.08 63.3161 126.129 63.1985C126.178 63.0808 126.247 62.9793 126.336 62.8941C126.421 62.8089 126.523 62.7419 126.64 62.6932C126.758 62.6405 126.884 62.6141 127.018 62.6141H127.334C127.347 62.3463 127.387 62.0561 127.456 61.7437C127.529 61.4271 127.627 61.1106 127.748 60.7941C127.87 60.4735 128.014 60.1651 128.18 59.8689C128.347 59.5686 128.529 59.3008 128.728 59.0654C128.931 58.83 129.15 58.6393 129.386 58.4932C129.621 58.3431 129.867 58.2599 130.122 58.2437C130.394 58.2477 130.646 58.3248 130.877 58.475C131.112 58.6211 131.315 58.8138 131.486 59.0532C131.656 59.2927 131.79 59.5645 131.887 59.8689C131.985 60.1732 132.033 60.4816 132.033 60.7941C132.033 61.1634 131.952 61.5225 131.79 61.8715C131.632 62.2205 131.421 62.5471 131.157 62.8515C130.897 63.1518 130.601 63.4237 130.268 63.6671C129.94 63.9066 129.605 64.1034 129.264 64.2576C129.292 64.355 129.351 64.4706 129.44 64.6045C129.534 64.7425 129.637 64.8805 129.751 65.0185C129.869 65.1564 129.986 65.2863 130.104 65.408C130.222 65.5298 130.321 65.6271 130.402 65.7002C130.398 65.4648 130.433 65.2234 130.506 64.9758C130.579 64.7324 130.68 64.497 130.81 64.2698C130.944 64.0425 131.1 63.8295 131.279 63.6306C131.457 63.4277 131.648 63.2512 131.851 63.1011C132.058 62.9509 132.271 62.8332 132.49 62.748C132.709 62.6587 132.926 62.6141 133.141 62.6141C133.275 62.6141 133.401 62.6405 133.519 62.6932C133.636 62.7419 133.738 62.8089 133.823 62.8941C133.912 62.9793 133.981 63.0808 134.03 63.1985C134.083 63.3161 134.109 63.4419 134.109 63.5758C134.109 63.7098 134.083 63.8356 134.03 63.9532C133.981 64.0709 133.912 64.1724 133.823 64.2576C133.738 64.3469 133.636 64.4158 133.519 64.4645C133.401 64.5132 133.275 64.5376 133.141 64.5376H133.117C132.938 64.5619 132.766 64.6208 132.6 64.7141C132.433 64.8115 132.285 64.9312 132.155 65.0732C132.029 65.2193 131.928 65.3796 131.851 65.5541C131.774 65.7327 131.735 65.9132 131.735 66.0958C131.735 66.177 131.741 66.2521 131.753 66.3211C131.766 66.3941 131.788 66.4671 131.82 66.5402C131.853 66.6132 131.896 66.6903 131.948 66.7715C132.005 66.8527 132.076 66.9399 132.161 67.0332L131.047 68.3906C130.56 68.0944 130.132 67.7921 129.763 67.4837C129.394 67.1753 129.073 66.8587 128.801 66.5341C128.533 66.2135 128.306 65.8869 128.12 65.5541C127.937 65.2213 127.787 64.8825 127.669 64.5376H127.645H127.018C126.884 64.5376 126.758 64.5132 126.64 64.4645C126.523 64.4158 126.421 64.3469 126.336 64.2576C126.247 64.1724 126.178 64.0709 126.129 63.9532C126.08 63.8356 126.056 63.7098 126.056 63.5758ZM130.487 61.0619C130.496 60.9483 130.493 60.8286 130.481 60.7028C130.473 60.5729 130.453 60.4492 130.42 60.3315C130.392 60.2098 130.351 60.1002 130.299 60.0028C130.246 59.9054 130.181 59.8324 130.104 59.7837C130.027 59.8242 129.942 59.9013 129.848 60.015C129.759 60.1286 129.668 60.2666 129.574 60.4289C129.481 60.5912 129.39 60.7698 129.3 60.9645C129.215 61.1553 129.138 61.35 129.069 61.5489C129 61.7477 128.943 61.9425 128.899 62.1332C128.858 62.3199 128.836 62.4883 128.832 62.6385C129.006 62.606 129.187 62.5411 129.373 62.4437C129.564 62.3422 129.739 62.2205 129.897 62.0785C130.059 61.9324 130.195 61.7721 130.305 61.5976C130.414 61.4231 130.475 61.2445 130.487 61.0619ZM132.21 63.5819C132.21 63.4561 132.234 63.3364 132.283 63.2228C132.332 63.1092 132.397 63.0098 132.478 62.9245C132.559 62.8353 132.656 62.7642 132.77 62.7115C132.88 62.6547 132.997 62.6222 133.123 62.6141C133.427 62.6141 133.683 62.5329 133.89 62.3706C134.101 62.2042 134.282 61.9871 134.432 61.7193C134.582 61.4515 134.71 61.1471 134.815 60.8063C134.921 60.4613 135.02 60.1103 135.113 59.7532L136.733 60.0454C136.7 60.1874 136.66 60.3538 136.611 60.5445C136.566 60.7312 136.524 60.926 136.483 61.1289C136.447 61.3318 136.416 61.5306 136.392 61.7254C136.367 61.9161 136.361 62.0845 136.373 62.2306C136.39 62.3767 136.428 62.4924 136.489 62.5776C136.55 62.6587 136.643 62.6892 136.769 62.6689C136.931 62.6567 137.078 62.5999 137.207 62.4985C137.341 62.397 137.461 62.2671 137.567 62.1089C137.672 61.9506 137.765 61.7721 137.847 61.5732C137.928 61.3744 137.997 61.1695 138.053 60.9585C138.114 60.7474 138.163 60.5385 138.2 60.3315C138.24 60.1245 138.273 59.9358 138.297 59.7654L139.843 60.0271C139.839 60.1489 139.825 60.299 139.8 60.4776C139.776 60.6561 139.754 60.8448 139.733 61.0437C139.713 61.2385 139.703 61.4353 139.703 61.6341C139.703 61.8289 139.725 62.0054 139.77 62.1637C139.815 62.3179 139.888 62.4437 139.989 62.5411C140.095 62.6385 140.241 62.6871 140.427 62.6871C140.541 62.6871 140.657 62.6689 140.774 62.6324C140.892 62.5918 140.998 62.537 141.091 62.468C141.184 62.395 141.259 62.3098 141.316 62.2124C141.377 62.115 141.407 62.0054 141.407 61.8837C141.407 61.6727 141.373 61.4413 141.304 61.1898C141.235 60.9341 141.152 60.6825 141.054 60.435C140.957 60.1834 140.853 59.946 140.744 59.7228C140.638 59.4996 140.549 59.3109 140.476 59.1567L141.986 58.3106C142.01 58.3634 142.053 58.4567 142.113 58.5906C142.174 58.7205 142.243 58.8787 142.32 59.0654C142.398 59.2521 142.477 59.4631 142.558 59.6984C142.643 59.9298 142.72 60.1712 142.789 60.4228C142.858 60.6744 142.915 60.9321 142.96 61.1958C143.004 61.4596 143.027 61.7153 143.027 61.9628C143.027 62.3686 142.97 62.7338 142.856 63.0585C142.747 63.3831 142.578 63.659 142.351 63.8863C142.128 64.1135 141.846 64.29 141.505 64.4158C141.168 64.5416 140.772 64.6066 140.318 64.6106C140.099 64.6106 139.9 64.5883 139.721 64.5437C139.543 64.5031 139.382 64.4442 139.24 64.3671C139.098 64.2941 138.971 64.2069 138.857 64.1054C138.747 64.004 138.65 63.8964 138.565 63.7828C138.467 63.9086 138.362 64.0222 138.248 64.1237C138.139 64.2211 138.011 64.3042 137.865 64.3732C137.723 64.4463 137.562 64.5031 137.384 64.5437C137.205 64.5842 137.002 64.6066 136.775 64.6106C136.576 64.6147 136.396 64.5964 136.233 64.5558C136.075 64.5193 135.929 64.4645 135.795 64.3915C135.661 64.3185 135.54 64.2312 135.43 64.1298C135.325 64.0242 135.225 63.9086 135.132 63.7828C135.047 63.8883 134.949 63.9877 134.84 64.0811C134.73 64.1703 134.6 64.2495 134.45 64.3185C134.3 64.3874 134.125 64.4422 133.927 64.4828C133.728 64.5234 133.496 64.5437 133.233 64.5437H133.123C132.997 64.5356 132.88 64.5051 132.77 64.4524C132.656 64.3996 132.559 64.3306 132.478 64.2454C132.397 64.1602 132.332 64.0608 132.283 63.9471C132.234 63.8335 132.21 63.7118 132.21 63.5819ZM141.158 57.1298L139.989 58.3045L138.833 57.148L137.688 58.2924L136.507 57.1176L137.676 55.9428L138.833 57.0993L139.977 55.955L141.158 57.1298ZM137.749 55.3645L138.833 54.2811L139.922 55.3706L138.839 56.4541L137.749 55.3645Z" fill="#303030"/>
<defs>
<linearGradient id="paint0_linear_1325_10089" x1="6.35779" y1="6.87763" x2="178.882" y2="88.8982" gradientUnits="userSpaceOnUse">
<stop stop-color="#EAEAEA"/>
<stop offset="1" stop-color="#BDBDBD"/>
</linearGradient>
</defs>
</svg>
