<svg width="136" height="76" viewBox="0 0 136 76" fill="none" xmlns="http://www.w3.org/2000/svg">
<rect x="1.229" y="0.75" width="133.326" height="74.5" rx="9.25" fill="white" stroke="url(#paint0_linear_1325_10471)" stroke-width="1.5"/>
<path d="M23.1823 58C23.3688 58 23.5477 57.9259 23.6796 57.794C23.8115 57.6621 23.8856 57.4832 23.8856 57.2967V49.5282C23.8856 47.9908 24.7056 46.542 26.025 45.7515L31.5303 42.4475L34.5517 46.2241C34.6136 46.3013 34.691 46.3646 34.779 46.4099C34.867 46.4552 34.9635 46.4815 35.0622 46.4872L35.1016 46.4886C35.2873 46.4886 35.4673 46.4154 35.5996 46.2832L37.2495 44.6333V57.2967C37.2495 57.4832 37.3236 57.6621 37.4555 57.794C37.5874 57.9259 37.7662 58 37.9528 58C38.1393 58 38.3182 57.9259 38.4501 57.794C38.582 57.6621 38.656 57.4832 38.656 57.2967V43.2366L38.6546 43.2281L39.3579 42.5234L40.0626 43.2281L40.0612 43.2366V57.2967C40.0612 57.4832 40.1353 57.6621 40.2672 57.794C40.3991 57.9259 40.578 58 40.7645 58C40.951 58 41.1299 57.9259 41.2618 57.794C41.3937 57.6621 41.4678 57.4832 41.4678 57.2967V44.6333L43.1177 46.2832C43.1831 46.3485 43.2608 46.4002 43.3462 46.4354C43.4317 46.4707 43.5232 46.4887 43.6156 46.4886L43.655 46.4872C43.7538 46.4815 43.8503 46.4552 43.9383 46.4099C44.0262 46.3646 44.1037 46.3013 44.1656 46.2241L47.1869 42.4475L52.6937 45.7515C53.3438 46.145 53.8818 46.699 54.2559 47.3604C54.6301 48.0218 54.8279 48.7683 54.8303 49.5282V57.2967C54.8303 57.4832 54.9044 57.6621 55.0363 57.794C55.1682 57.9259 55.347 58 55.5336 58C55.7201 58 55.899 57.9259 56.0309 57.794C56.1628 57.6621 56.2369 57.4832 56.2369 57.2967V49.5282C56.2369 47.4985 55.1552 45.5898 53.4153 44.5461L47.4711 40.9804L45.243 38.5048C45.1503 38.4057 45.0303 38.3363 44.8981 38.3052C44.766 38.2742 44.6276 38.2829 44.5004 38.3304V35.8366C45.601 35.0308 46.4963 33.9771 47.1139 32.7609C47.7314 31.5447 48.0538 30.2001 48.0548 28.836V25.5221L49.1505 19.4162C49.253 18.8608 49.2431 18.2905 49.1216 17.739C49.0001 17.1875 48.7694 16.6659 48.443 16.205C48.1194 15.742 47.7064 15.3486 47.2283 15.0478C46.7502 14.7471 46.2168 14.5451 45.6594 14.4538L37.279 13.057C36.6791 12.957 36.0645 12.9888 35.4781 13.1504C34.8918 13.3119 34.3476 13.5993 33.8835 13.9924C33.0918 14.6645 32.5796 15.6081 32.4474 16.6382C31.6175 16.7929 30.8664 17.236 30.3249 17.9055C29.9886 18.3199 29.7496 18.8044 29.6255 19.3234C29.5013 19.8424 29.4952 20.3826 29.6075 20.9043L30.6428 25.75C30.6442 25.7598 30.6512 25.7641 30.6526 25.7711V28.8346C30.6526 31.7054 32.0564 34.2499 34.207 35.8351V38.3276C34.0806 38.2824 33.9437 38.2749 33.8131 38.3061C33.6825 38.3373 33.5637 38.4059 33.4714 38.5034L31.2448 40.9776L25.3006 44.5447C24.4421 45.0633 23.7316 45.7942 23.2374 46.667C22.7432 47.5398 22.482 48.5252 22.479 49.5282V57.2967C22.479 57.4832 22.5531 57.6621 22.685 57.794C22.8169 57.9259 22.9958 58 23.1823 58ZM46.0982 41.5557L43.5566 44.7332L40.5591 41.7357L44.5496 39.8355L46.0982 41.5557ZM31.4178 18.7916C31.621 18.5393 31.8783 18.3359 32.1707 18.1964C32.4631 18.0569 32.7831 17.9849 33.1071 17.9857C33.4953 17.9857 33.8104 17.5764 33.8104 17.1882C33.8096 16.8229 33.881 16.4611 34.0204 16.1234C34.1598 15.7858 34.3645 15.479 34.6227 15.2207C34.8809 14.9623 35.1876 14.7575 35.5252 14.6179C35.8627 14.4784 36.2245 14.4068 36.5898 14.4073C36.7434 14.4075 36.8968 14.4202 37.0483 14.4453L45.4287 15.8421C46.1883 15.9686 46.8494 16.385 47.2924 17.0137C47.7355 17.6439 47.9043 18.4077 47.765 19.1658L46.8887 24.048L45.3893 22.3489V20.8368C45.3893 20.6503 45.3152 20.4714 45.1833 20.3395C45.0515 20.2076 44.8726 20.1335 44.686 20.1335H34.0214C33.8349 20.1335 33.656 20.2076 33.5241 20.3395C33.3922 20.4714 33.3181 20.6503 33.3181 20.8368V22.3447L31.7287 24.1099L30.9818 20.6118C30.8453 19.9675 31.0043 19.3036 31.4178 18.7916ZM32.0592 28.8346V25.8456L34.5446 23.0845C34.6607 22.9556 34.7249 22.7882 34.7247 22.6147V21.5401H43.9828V22.6147C43.9828 22.7863 44.0446 22.9523 44.1586 23.0803L46.6482 25.9005V28.8346C46.6477 30.0289 46.354 31.2049 45.7929 32.2592C45.2317 33.3135 44.4204 34.214 43.43 34.8815L43.4272 34.8829C43.0821 35.1102 42.7184 35.3079 42.3399 35.4737C42.1669 35.551 41.9868 35.6115 41.8082 35.6748C41.3827 35.8268 40.9445 35.9403 40.4987 36.0138C40.3693 36.0349 40.237 36.0405 40.1062 36.0532C39.6049 36.1038 39.0997 36.1038 38.5984 36.0532C38.469 36.0391 38.3368 36.0349 38.2088 36.0138C37.7639 35.9402 37.3266 35.8267 36.902 35.6748C36.722 35.6115 36.5406 35.5496 36.3647 35.4722C35.9883 35.3071 35.6264 35.1104 35.2831 34.8843L35.2732 34.8787C34.284 34.2109 33.4737 33.3107 32.9134 32.257C32.353 31.2032 32.0597 30.0281 32.0592 28.8346ZM36.3408 36.9871C36.4238 37.0167 36.504 37.0504 36.587 37.0772C37.4782 37.3792 38.4127 37.5341 39.3537 37.5357C40.2943 37.5342 41.2283 37.3793 42.119 37.0772C42.2034 37.049 42.285 37.0167 42.3694 36.9857C42.5621 36.914 42.7534 36.838 42.9405 36.7536C42.9911 36.7311 43.0446 36.7143 43.0952 36.6903V38.969L39.3579 40.7497L35.6136 38.9662V36.6918C35.6629 36.7157 35.7149 36.7311 35.7641 36.7536C35.9526 36.838 36.1453 36.9154 36.3408 36.9871ZM34.1663 39.8355L38.1567 41.7357L35.1593 44.7332L32.6176 41.5557L34.1663 39.8355Z" fill="black"/>
<path d="M30.215 58.0001C30.4015 58.0001 30.5804 57.926 30.7123 57.7941C30.8442 57.6622 30.9183 57.4833 30.9183 57.2968V54.0026C30.9197 52.5521 30.3772 51.1538 29.3978 50.0838L28.333 48.9178C28.2707 48.8495 28.1955 48.7942 28.1118 48.755C28.0281 48.7158 27.9374 48.6935 27.8451 48.6893C27.7528 48.6851 27.6605 48.6992 27.5736 48.7307C27.4867 48.7621 27.4068 48.8104 27.3386 48.8728C27.2703 48.9351 27.215 49.0103 27.1758 49.094C27.1366 49.1777 27.1143 49.2683 27.1101 49.3607C27.1059 49.453 27.12 49.5453 27.1514 49.6322C27.1829 49.7191 27.2312 49.799 27.2935 49.8672L28.3583 51.0333C29.1011 51.8436 29.5127 52.9033 29.5117 54.0026V57.2968C29.5117 57.4833 29.5858 57.6622 29.7177 57.7941C29.8496 57.926 30.0285 58.0001 30.215 58.0001ZM50.3825 48.9178L49.3177 50.0852C48.3384 51.1547 47.7959 52.5525 47.7972 54.0026V57.2968C47.7972 57.4833 47.8713 57.6622 48.0032 57.7941C48.1351 57.926 48.314 58.0001 48.5005 58.0001C48.687 58.0001 48.8659 57.926 48.9978 57.7941C49.1297 57.6622 49.2038 57.4833 49.2038 57.2968V54.0026C49.2038 52.9012 49.6131 51.8463 50.3558 51.0333L51.4206 49.8672C51.4829 49.7991 51.5312 49.7193 51.5627 49.6325C51.5942 49.5456 51.6083 49.4535 51.6042 49.3612C51.6001 49.2689 51.5779 49.1783 51.5387 49.0946C51.4996 49.011 51.4444 48.9358 51.3763 48.8735C51.3081 48.8111 51.2283 48.7628 51.1415 48.7313C51.0547 48.6998 50.9625 48.6857 50.8702 48.6898C50.7779 48.6939 50.6874 48.7162 50.6037 48.7553C50.52 48.7944 50.4449 48.8496 50.3825 48.9178Z" fill="black"/>
<path d="M87.7218 23.9035C87.876 24.3417 88.01 24.7699 88.1236 25.1878C88.1723 25.3704 88.221 25.5612 88.2697 25.76C88.3184 25.9548 88.361 26.1516 88.3975 26.3504C88.4381 26.5452 88.4705 26.738 88.4949 26.9287C88.5192 27.1154 88.5314 27.2899 88.5314 27.4522C88.5314 27.8336 88.4787 28.2049 88.3731 28.5661C88.2717 28.9313 88.1256 29.2843 87.9349 29.6252C87.7482 29.9661 87.525 30.2928 87.2653 30.6052C87.0056 30.9217 86.7175 31.218 86.401 31.4939C86.0845 31.7699 85.7456 32.0255 85.3845 32.2609C85.0233 32.5003 84.65 32.7154 84.2645 32.9061L83.1566 31.3661C83.4488 31.22 83.745 31.0536 84.0453 30.867C84.3416 30.6843 84.6256 30.4875 84.8975 30.2765C85.1734 30.0655 85.4291 29.8443 85.6645 29.613C85.9039 29.3817 86.1108 29.1464 86.2853 28.907C86.4639 28.6675 86.6039 28.4241 86.7053 28.1765C86.8068 27.933 86.8575 27.6936 86.8575 27.4583C86.8575 27.2878 86.8331 27.1032 86.7845 26.9043C86.7398 26.7055 86.6769 26.4925 86.5958 26.2652C86.5187 26.0339 86.4253 25.7904 86.3158 25.5348C86.2062 25.2751 86.0885 24.9991 85.9627 24.707L87.7218 23.9035ZM91.7971 24.4087C91.7119 24.3925 91.6145 24.4229 91.5049 24.5C91.3994 24.573 91.298 24.6745 91.2006 24.8043C91.1072 24.9301 91.0281 25.0701 90.9632 25.2243C90.9023 25.3786 90.8719 25.5267 90.8719 25.6687C90.8719 25.8026 90.9104 25.9142 90.9875 26.0035C91.0646 26.0928 91.162 26.1658 91.2797 26.2226C91.4014 26.2794 91.5333 26.322 91.6753 26.3504C91.8214 26.3788 91.9614 26.3991 92.0953 26.4113H92.0893C92.1948 26.4194 92.3145 26.4255 92.4484 26.4296C92.5864 26.4296 92.7203 26.4296 92.8501 26.4296C92.8907 26.4296 92.9211 26.4316 92.9414 26.4357C92.9658 26.4357 92.9861 26.4357 93.0023 26.4357C93.0185 26.4357 93.0348 26.4357 93.051 26.4357C93.0713 26.4357 93.0997 26.4336 93.1362 26.4296C93.0753 26.178 93.0023 25.9386 92.9171 25.7113C92.8359 25.48 92.7406 25.273 92.631 25.0904C92.5214 24.9078 92.3977 24.7577 92.2597 24.64C92.1217 24.5183 91.9675 24.4412 91.7971 24.4087ZM88.8145 30.7817C89.3867 30.6681 89.9081 30.5241 90.3788 30.3496C90.8496 30.1791 91.2614 29.9864 91.6145 29.7713C91.9716 29.5603 92.2658 29.3351 92.4971 29.0957C92.7324 28.8562 92.8988 28.6128 92.9962 28.3652C92.8217 28.3652 92.6371 28.3612 92.4423 28.353C92.2475 28.349 92.0872 28.3429 91.9614 28.3348C91.4907 28.2942 91.0606 28.1887 90.671 28.0183C90.2814 27.8519 89.971 27.6246 89.7397 27.3365C89.5693 27.1174 89.4475 26.88 89.3745 26.6243C89.3055 26.3687 89.271 26.0988 89.271 25.8148C89.271 25.5957 89.2913 25.3765 89.3319 25.1574C89.3724 24.9342 89.4293 24.7191 89.5023 24.5122C89.5753 24.3012 89.6606 24.1023 89.758 23.9157C89.8594 23.729 89.9669 23.5586 90.0806 23.4043C90.324 23.1 90.5898 22.8707 90.878 22.7165C91.1701 22.5583 91.4765 22.4791 91.7971 22.4791C92.4829 22.4791 93.1017 22.7794 93.6536 23.38C93.8484 23.5991 94.0229 23.8446 94.1771 24.1165C94.3313 24.3884 94.4611 24.6786 94.5667 24.987C94.6762 25.2913 94.7594 25.6119 94.8162 25.9487C94.873 26.2814 94.9014 26.6203 94.9014 26.9652C94.9014 27.0707 94.8974 27.1762 94.8893 27.2817C94.8852 27.3872 94.8791 27.4867 94.871 27.58C94.8223 28.0548 94.7148 28.4991 94.5484 28.913C94.3861 29.331 94.1751 29.7145 93.9153 30.0635C93.6597 30.4165 93.3614 30.7351 93.0206 31.0191C92.6797 31.3072 92.3084 31.5588 91.9067 31.7739C91.509 31.993 91.0869 32.1757 90.6406 32.3217C90.1942 32.4678 89.7356 32.5774 89.2649 32.6504L88.8145 30.7817ZM98.8529 28.3652C98.3538 28.3652 97.9257 28.3023 97.5686 28.1765C97.2115 28.0548 96.9031 27.8661 96.6434 27.6104C96.481 27.4481 96.3552 27.2777 96.266 27.0991C96.1807 26.9206 96.1178 26.7461 96.0773 26.5757C96.0407 26.4012 96.0184 26.2368 96.0103 26.0826C96.0062 25.9284 96.0042 25.7965 96.0042 25.687V25.5957C96.0083 25.4455 96.0123 25.2304 96.0164 24.9504C96.0245 24.6664 96.0286 24.3336 96.0286 23.9522C96.0286 23.5707 96.0265 23.1507 96.0225 22.6922C96.0184 22.2336 96.0062 21.7771 95.986 21.3226C95.9697 20.8641 95.9434 20.4238 95.9068 20.0017C95.8744 19.5797 95.8277 19.2125 95.7668 18.9L97.5868 18.3461C97.6396 18.6139 97.6822 18.9304 97.7147 19.2957C97.7471 19.6568 97.7735 20.0362 97.7938 20.4339C97.8181 20.8316 97.8344 21.2313 97.8425 21.633C97.8547 22.0348 97.8628 22.4081 97.8668 22.753C97.8709 23.0574 97.8587 23.3557 97.8303 23.6478C97.806 23.9359 97.7857 24.22 97.7694 24.5C97.7532 24.7759 97.7532 25.0458 97.7694 25.3096C97.7897 25.5693 97.8465 25.8229 97.9399 26.0704C97.9764 26.1638 98.021 26.2348 98.0738 26.2835C98.1306 26.3322 98.1955 26.3687 98.2686 26.393C98.3416 26.4133 98.4207 26.4255 98.506 26.4296C98.5952 26.4336 98.6926 26.4357 98.7981 26.4357H98.8529C98.9828 26.4357 99.1065 26.462 99.2242 26.5148C99.3419 26.5675 99.4434 26.6386 99.5286 26.7278C99.6178 26.813 99.6889 26.9145 99.7416 27.0322C99.7944 27.1499 99.8207 27.2736 99.8207 27.4035C99.8207 27.5374 99.7944 27.6632 99.7416 27.7809C99.6889 27.8986 99.6178 28 99.5286 28.0852C99.4434 28.1745 99.3419 28.2435 99.2242 28.2922C99.1065 28.3409 98.9828 28.3652 98.8529 28.3652ZM97.8633 27.4035C97.8633 27.2777 97.8896 27.158 97.9424 27.0443C97.9951 26.9307 98.0682 26.8313 98.1615 26.7461C98.2508 26.6568 98.3583 26.5858 98.4841 26.533C98.6059 26.4803 98.7378 26.4499 98.8798 26.4417C99.0949 26.4417 99.2957 26.4072 99.4824 26.3383C99.6691 26.2652 99.8456 26.1272 100.012 25.9243C100.178 25.7214 100.335 25.4354 100.481 25.0661C100.627 24.6968 100.767 24.2139 100.901 23.6174L102.52 23.8487C102.532 23.8 102.524 23.8264 102.495 23.9278C102.471 24.0293 102.441 24.1733 102.404 24.36C102.372 24.5426 102.339 24.7496 102.307 24.9809C102.278 25.2081 102.264 25.4272 102.264 25.6383C102.268 25.8452 102.293 26.0258 102.337 26.18C102.386 26.3301 102.469 26.4194 102.587 26.4478C102.713 26.4803 102.834 26.4559 102.952 26.3748C103.07 26.2896 103.181 26.1699 103.287 26.0157C103.392 25.8574 103.49 25.6748 103.579 25.4678C103.668 25.2568 103.749 25.0417 103.822 24.8226C103.895 24.6035 103.958 24.3884 104.011 24.1774C104.064 23.9664 104.104 23.7797 104.133 23.6174L105.74 23.8487C105.732 23.9501 105.717 24.0861 105.697 24.2565C105.677 24.4229 105.661 24.6014 105.648 24.7922C105.636 24.9829 105.63 25.1757 105.63 25.3704C105.634 25.5612 105.657 25.7357 105.697 25.8939C105.738 26.0481 105.801 26.1759 105.886 26.2774C105.971 26.3748 106.089 26.4235 106.239 26.4235C106.373 26.4235 106.488 26.3788 106.586 26.2896C106.683 26.2003 106.764 26.0846 106.829 25.9426C106.898 25.7965 106.953 25.6322 106.994 25.4496C107.034 25.2629 107.065 25.0742 107.085 24.8835C107.105 24.6928 107.115 24.5081 107.115 24.3296C107.115 24.147 107.109 23.9867 107.097 23.8487L108.741 23.6174L108.942 25.3339C108.966 25.5206 109.019 25.6829 109.1 25.8209C109.181 25.9588 109.276 26.0745 109.386 26.1678C109.495 26.2571 109.611 26.3261 109.733 26.3748C109.855 26.4194 109.97 26.4417 110.08 26.4417H110.153C110.303 26.4417 110.439 26.4661 110.561 26.5148C110.686 26.5635 110.794 26.6325 110.883 26.7217C110.973 26.807 111.042 26.9084 111.09 27.0261C111.139 27.1438 111.163 27.2696 111.163 27.4035C111.163 27.5374 111.139 27.6632 111.09 27.7809C111.042 27.8986 110.971 28 110.877 28.0852C110.788 28.1704 110.674 28.2374 110.536 28.2861C110.402 28.3388 110.25 28.3652 110.08 28.3652C109.686 28.3652 109.315 28.2962 108.966 28.1583C108.617 28.0203 108.315 27.787 108.059 27.4583C108.035 27.4907 108.01 27.5191 107.986 27.5435C107.962 27.5678 107.939 27.5922 107.919 27.6165V27.6104C107.7 27.8417 107.446 28.0243 107.158 28.1583C106.874 28.2962 106.568 28.3652 106.239 28.3652C105.87 28.3652 105.529 28.2861 105.216 28.1278C104.908 27.9696 104.65 27.7545 104.443 27.4826C104.2 27.7504 103.924 27.9675 103.615 28.1339C103.307 28.3003 102.968 28.3835 102.599 28.3835C102.254 28.3835 101.933 28.3064 101.637 28.1522C101.341 27.998 101.095 27.787 100.901 27.5191C100.682 27.8235 100.41 28.0406 100.085 28.1704C99.7644 28.3003 99.3667 28.3652 98.892 28.3652C98.7378 28.3652 98.5978 28.3388 98.472 28.2861C98.3462 28.2374 98.2386 28.1704 98.1493 28.0852C98.0601 28 97.9911 27.8986 97.9424 27.7809C97.8896 27.6632 97.8633 27.5374 97.8633 27.4035ZM107.28 21.14L106.111 22.3148L104.955 21.1583L103.81 22.3026L102.629 21.1278L103.798 19.953L104.955 21.1096L106.099 19.9652L107.28 21.14ZM103.871 19.3748L104.955 18.2913L106.044 19.3809L104.961 20.4643L103.871 19.3748ZM109.304 27.4035C109.304 27.2696 109.328 27.1458 109.377 27.0322C109.425 26.9186 109.492 26.8191 109.578 26.7339C109.663 26.6487 109.764 26.5817 109.882 26.533C109.996 26.4803 110.119 26.4499 110.253 26.4417C110.525 26.4417 110.76 26.389 110.959 26.2835C111.162 26.178 111.341 26.04 111.495 25.8696C111.649 25.6991 111.787 25.5084 111.909 25.2974C112.031 25.0864 112.146 24.8754 112.256 24.6643V24.6704C112.361 24.4513 112.473 24.2342 112.591 24.0191C112.712 23.8041 112.844 23.6052 112.986 23.4226C113.205 23.167 113.451 22.9701 113.723 22.8322C113.995 22.6901 114.285 22.6191 114.593 22.6191C114.958 22.6191 115.289 22.6942 115.585 22.8443C115.886 22.9945 116.158 23.2096 116.401 23.4896C116.584 23.7087 116.732 23.9603 116.845 24.2443C116.959 24.5243 117.034 24.8226 117.071 25.1391V25.127C117.095 25.2852 117.107 25.4658 117.107 25.6687C117.107 25.8878 117.087 26.1029 117.046 26.3139C117.01 26.5209 116.957 26.7177 116.888 26.9043C116.754 27.2452 116.561 27.5313 116.31 27.7626C116.062 27.9899 115.792 28.1461 115.5 28.2313C115.403 28.2597 115.305 28.278 115.208 28.2861C115.115 28.2983 115.015 28.3043 114.91 28.3043C114.727 28.3043 114.532 28.282 114.325 28.2374C114.122 28.1928 113.922 28.1319 113.723 28.0548C113.642 28.0183 113.55 27.9757 113.449 27.927C113.347 27.8742 113.24 27.8174 113.126 27.7565C113.017 27.6957 112.907 27.6328 112.798 27.5678C112.688 27.5029 112.587 27.44 112.493 27.3791C112.331 27.5293 112.169 27.6652 112.006 27.787C111.844 27.9087 111.673 28.0122 111.495 28.0974C111.316 28.1826 111.126 28.2475 110.923 28.2922C110.72 28.3409 110.499 28.3652 110.259 28.3652C110.125 28.3652 110.002 28.3388 109.888 28.2861C109.77 28.2374 109.669 28.1704 109.584 28.0852C109.494 28 109.425 27.8986 109.377 27.7809C109.328 27.6632 109.304 27.5374 109.304 27.4035ZM113.619 25.8026C113.745 25.8838 113.893 25.9629 114.064 26.04C114.238 26.1171 114.411 26.1861 114.581 26.247C114.751 26.3078 114.908 26.3586 115.05 26.3991C115.196 26.4357 115.305 26.4539 115.378 26.4539C115.395 26.4539 115.411 26.4539 115.427 26.4539C115.447 26.4499 115.468 26.4458 115.488 26.4417C115.537 26.4296 115.583 26.3687 115.628 26.2591C115.677 26.1455 115.695 25.9913 115.683 25.7965C115.683 25.6667 115.646 25.5246 115.573 25.3704C115.5 25.2122 115.405 25.0661 115.287 24.9322C115.169 24.7942 115.033 24.6806 114.879 24.5913C114.729 24.498 114.575 24.4513 114.417 24.4513C114.36 24.4513 114.287 24.5325 114.198 24.6948C114.108 24.8571 113.978 25.0986 113.808 25.4191V25.413L113.619 25.8026ZM90.5517 49.4113C90.6491 49.4154 90.7465 49.4194 90.8439 49.4235C90.9453 49.4235 91.0407 49.4235 91.13 49.4235C91.4506 49.4235 91.7569 49.4113 92.0491 49.387C92.3413 49.3626 92.6111 49.3301 92.8587 49.2896C93.1062 49.249 93.3233 49.2064 93.51 49.1617C93.7007 49.113 93.8529 49.0664 93.9665 49.0217H93.9604C94.1714 48.9325 94.3256 48.8533 94.423 48.7843C94.5204 48.7154 94.5853 48.6626 94.6178 48.6261C94.6787 48.5571 94.7213 48.4861 94.7456 48.413C94.774 48.3359 94.7882 48.2568 94.7882 48.1757C94.7882 48.0012 94.7213 47.8145 94.5874 47.6157C94.4534 47.4128 94.281 47.2078 94.07 47.0009C93.863 46.7939 93.6317 46.587 93.3761 46.38C93.1245 46.173 92.879 45.9742 92.6395 45.7835L91.3674 44.7365L91.5682 42.9348L97.0587 40.5426L97.8134 42.3322L93.5221 44.1643C93.7494 44.3551 93.9787 44.5519 94.21 44.7548C94.4453 44.9577 94.6705 45.1667 94.8856 45.3817C95.1007 45.5928 95.3016 45.8099 95.4882 46.033C95.679 46.2522 95.8433 46.4774 95.9813 46.7087C96.1233 46.9359 96.2349 47.1672 96.3161 47.4026C96.3972 47.638 96.4378 47.8774 96.4378 48.1209C96.4378 48.3887 96.3911 48.6606 96.2978 48.9365C96.2085 49.2125 96.0604 49.4965 95.8534 49.7887H95.8595C95.8352 49.8252 95.7926 49.878 95.7317 49.947C95.6749 50.0159 95.5958 50.093 95.4943 50.1783C95.3969 50.2635 95.2752 50.3548 95.1291 50.4522C94.983 50.5455 94.8106 50.6388 94.6117 50.7322C94.0517 50.9797 93.4877 51.1461 92.9195 51.2313C92.3514 51.3165 91.7732 51.3591 91.1848 51.3591H91.0569C90.9717 51.3591 90.8845 51.3591 90.7952 51.3591C90.7059 51.3591 90.6187 51.3551 90.5334 51.347C89.7746 51.3388 89.0949 51.2901 88.4943 51.2009C87.8937 51.1157 87.3662 50.9878 86.9117 50.8174C85.9906 50.4603 85.3575 49.9368 85.0126 49.247V49.253C84.8178 48.8757 84.7204 48.4577 84.7204 47.9991C84.7204 47.8003 84.7448 47.5852 84.7934 47.3539C84.8421 47.1226 84.905 46.8974 84.9821 46.6783C85.0308 46.5646 85.0714 46.4693 85.1039 46.3922C85.1404 46.3151 85.1749 46.2441 85.2074 46.1791C85.2398 46.1142 85.2763 46.0493 85.3169 45.9843C85.3575 45.9194 85.4082 45.8403 85.4691 45.747L86.9117 46.8C86.8549 46.9014 86.792 47.0049 86.723 47.1104C86.6581 47.2159 86.5972 47.3235 86.5404 47.433C86.4877 47.5426 86.443 47.6542 86.4065 47.7678C86.37 47.8814 86.3517 47.9951 86.3517 48.1087C86.3517 48.267 86.4065 48.409 86.5161 48.5348C86.6297 48.6565 86.7839 48.7641 86.9787 48.8574C87.1775 48.9467 87.4088 49.0238 87.6726 49.0887C87.9404 49.1536 88.2285 49.2084 88.5369 49.253C88.8494 49.2977 89.1761 49.3322 89.5169 49.3565C89.8578 49.3809 90.2007 49.3991 90.5456 49.4113H90.5517ZM106.025 49.2713C106.134 49.3322 106.248 49.3748 106.366 49.3991C106.487 49.4194 106.607 49.4336 106.725 49.4417C106.855 49.4417 106.978 49.4681 107.096 49.5209C107.214 49.5696 107.315 49.6365 107.4 49.7217C107.49 49.807 107.561 49.9084 107.613 50.0261C107.666 50.1438 107.693 50.2696 107.693 50.4035C107.693 50.5374 107.666 50.6632 107.613 50.7809C107.561 50.8986 107.49 51 107.4 51.0852C107.315 51.1745 107.214 51.2435 107.096 51.2922C106.978 51.3409 106.855 51.3652 106.725 51.3652H106.67C106.564 51.3652 106.428 51.3591 106.262 51.347C106.1 51.3348 105.923 51.3003 105.733 51.2435C105.542 51.1907 105.347 51.1096 105.148 51C104.949 50.8945 104.763 50.7443 104.588 50.5496C104.353 50.7728 104.091 50.9635 103.803 51.1217C103.519 51.28 103.217 51.4099 102.896 51.5113C102.575 51.6168 102.245 51.6939 101.904 51.7426C101.563 51.7913 101.22 51.8157 100.875 51.8157C100.68 51.8157 100.473 51.8035 100.254 51.7791C100.039 51.7588 99.7977 51.7203 99.5299 51.6635L100.072 49.8496C100.258 49.8739 100.435 49.8942 100.601 49.9104C100.772 49.9226 100.928 49.9287 101.07 49.9287C101.2 49.9287 101.33 49.9226 101.459 49.9104C101.589 49.8983 101.717 49.8759 101.843 49.8435C101.721 49.4052 101.575 48.9751 101.405 48.553C101.234 48.127 101.05 47.7171 100.851 47.3235C100.652 46.9299 100.447 46.5545 100.236 46.1974C100.025 45.8403 99.816 45.5096 99.609 45.2052C99.4061 44.9009 99.2113 44.6249 99.0247 44.3774C98.8421 44.1258 98.6798 43.9107 98.5377 43.7322L99.9073 42.3139L101.575 44.9983C101.77 45.3513 101.955 45.7104 102.129 46.0757C102.308 46.4409 102.472 46.802 102.622 47.1591C102.776 47.5122 102.912 47.8551 103.03 48.1878C103.152 48.5206 103.253 48.829 103.334 49.113C103.493 48.9832 103.63 48.8371 103.748 48.6748C103.87 48.5125 103.933 48.3461 103.937 48.1757C103.892 47.5467 103.837 46.9339 103.773 46.3374C103.708 45.7368 103.639 45.1626 103.566 44.6148C103.497 44.067 103.426 43.5496 103.353 43.0626C103.279 42.5757 103.213 42.1293 103.152 41.7235L105.039 41.3704C105.039 41.3786 105.045 41.4496 105.057 41.5835C105.073 41.7133 105.093 41.8939 105.118 42.1252C105.146 42.3525 105.177 42.6223 105.209 42.9348C105.241 43.2432 105.276 43.578 105.313 43.9391C105.353 44.2962 105.392 44.6716 105.428 45.0652C105.469 45.4548 105.505 45.8484 105.538 46.2461C105.574 46.6397 105.607 47.0293 105.635 47.4148C105.668 47.7962 105.694 48.1574 105.714 48.4983C105.726 48.6809 105.763 48.8452 105.824 48.9913C105.889 49.1333 105.956 49.2267 106.025 49.2713ZM105.708 50.4035C105.708 50.2696 105.732 50.1458 105.781 50.0322C105.83 49.9186 105.897 49.8191 105.982 49.7339C106.067 49.6487 106.169 49.5817 106.286 49.533C106.4 49.4803 106.524 49.4499 106.657 49.4417C106.929 49.4417 107.165 49.389 107.364 49.2835C107.566 49.178 107.745 49.04 107.899 48.8696C108.053 48.6991 108.191 48.5084 108.313 48.2974C108.435 48.0864 108.551 47.8754 108.66 47.6643V47.6704C108.766 47.4513 108.877 47.2342 108.995 47.0191C109.117 46.8041 109.249 46.6052 109.391 46.4226C109.61 46.167 109.855 45.9701 110.127 45.8322C110.399 45.6901 110.689 45.6191 110.997 45.6191C111.363 45.6191 111.693 45.6942 111.99 45.8443C112.29 45.9945 112.562 46.2096 112.805 46.4896C112.988 46.7087 113.136 46.9603 113.25 47.2443C113.363 47.5243 113.438 47.8226 113.475 48.1391V48.127C113.499 48.2852 113.511 48.4658 113.511 48.6687C113.511 48.8878 113.491 49.1029 113.451 49.3139C113.414 49.5209 113.361 49.7177 113.292 49.9043C113.158 50.2452 112.966 50.5313 112.714 50.7626C112.466 50.9899 112.197 51.1461 111.904 51.2313C111.807 51.2597 111.71 51.278 111.612 51.2861C111.519 51.2983 111.42 51.3043 111.314 51.3043C111.131 51.3043 110.937 51.282 110.73 51.2374C110.527 51.1928 110.326 51.1319 110.127 51.0548C110.046 51.0183 109.955 50.9757 109.853 50.927C109.752 50.8742 109.644 50.8174 109.531 50.7565C109.421 50.6957 109.311 50.6328 109.202 50.5678C109.092 50.5029 108.991 50.44 108.897 50.3791C108.735 50.5293 108.573 50.6652 108.411 50.787C108.248 50.9087 108.078 51.0122 107.899 51.0974C107.721 51.1826 107.53 51.2475 107.327 51.2922C107.124 51.3409 106.903 51.3652 106.664 51.3652C106.53 51.3652 106.406 51.3388 106.292 51.2861C106.175 51.2374 106.073 51.1704 105.988 51.0852C105.899 51 105.83 50.8986 105.781 50.7809C105.732 50.6632 105.708 50.5374 105.708 50.4035ZM110.024 48.8026C110.149 48.8838 110.297 48.9629 110.468 49.04C110.642 49.1171 110.815 49.1861 110.985 49.247C111.156 49.3078 111.312 49.3586 111.454 49.3991C111.6 49.4357 111.71 49.4539 111.783 49.4539C111.799 49.4539 111.815 49.4539 111.831 49.4539C111.852 49.4499 111.872 49.4458 111.892 49.4417C111.941 49.4296 111.988 49.3687 112.032 49.2591C112.081 49.1455 112.099 48.9913 112.087 48.7965C112.087 48.6667 112.051 48.5246 111.977 48.3704C111.904 48.2122 111.809 48.0661 111.691 47.9322C111.574 47.7942 111.438 47.6806 111.284 47.5913C111.133 47.498 110.979 47.4513 110.821 47.4513C110.764 47.4513 110.691 47.5325 110.602 47.6948C110.513 47.8571 110.383 48.0986 110.212 48.4191V48.413L110.024 48.8026ZM114.362 51.3835C114.382 51.0507 114.403 50.7058 114.423 50.3487C114.443 49.9916 114.46 49.6386 114.472 49.2896C114.488 48.9406 114.498 48.6017 114.502 48.273C114.506 47.9443 114.502 47.642 114.49 47.3661C114.466 46.7899 114.441 46.2846 114.417 45.8504C114.397 45.4122 114.374 45.0246 114.35 44.6878C114.33 44.351 114.307 44.0568 114.283 43.8052C114.263 43.5496 114.24 43.3162 114.216 43.1052C114.192 42.8942 114.165 42.6974 114.137 42.5148C114.109 42.3281 114.078 42.1354 114.046 41.9365L115.927 41.3157C116.016 41.8594 116.087 42.4072 116.14 42.9591C116.196 43.511 116.239 44.0406 116.267 44.5478C116.296 45.051 116.314 45.5197 116.322 45.9539C116.334 46.3881 116.34 46.7594 116.34 47.0678C116.34 47.3478 116.338 47.6501 116.334 47.9748C116.334 48.2994 116.33 48.6362 116.322 48.9852C116.318 49.3342 116.31 49.6872 116.298 50.0443C116.286 50.4014 116.267 50.7504 116.243 51.0913L114.362 51.3835Z" fill="#303030"/>
<defs>
<linearGradient id="paint0_linear_1325_10471" x1="5.14221" y1="5.2" x2="135.562" y2="64.7894" gradientUnits="userSpaceOnUse">
<stop stop-color="#EAEAEA"/>
<stop offset="1" stop-color="#BDBDBD"/>
</linearGradient>
</defs>
</svg>
