<svg width="269" height="225" viewBox="0 0 269 225" fill="none" xmlns="http://www.w3.org/2000/svg">
<g filter="url(#filter0_d_2280_27235)">
<path d="M244.027 14.5065L131.242 0.169526C122.768 -0.906343 114.58 3.20989 108.74 10.4913C104.795 15.485 102.307 21.4722 101.551 27.7914L83.7993 167.423L200.121 182.208L217.87 42.5802C218.63 36.2592 221.122 30.2712 225.071 25.2771C230.914 17.9986 239.099 13.8794 247.572 14.9583L244.027 14.5065Z" fill="url(#paint0_linear_2280_27235)"/>
<g style="mix-blend-mode:multiply">
<path d="M188.417 131.363L184.039 136.954L163.666 134.38L160.801 156.92L183.341 159.785L185.84 140.11L191.068 133.438L188.417 131.363ZM181.4 157.264L163.31 154.964L165.61 136.876L182.426 139.013L175.804 147.457L171.979 142.342L169.283 144.357L175.736 153L183.133 143.557L181.4 157.264Z" fill="url(#paint1_linear_2280_27235)"/>
<path d="M110.649 84.1838L110.295 86.967L194.151 97.62L194.505 94.8368L110.649 84.1838Z" fill="url(#paint2_linear_2280_27235)"/>
<path d="M109.3 94.8022L108.947 97.5854L192.803 108.238L193.156 105.455L109.3 94.8022Z" fill="url(#paint3_linear_2280_27235)"/>
<path d="M114.416 54.5464L113.356 62.896L197.212 73.549L198.273 65.1993L114.416 54.5464Z" fill="url(#paint4_linear_2280_27235)"/>
<path d="M103.477 138.47L141.881 143.353L145.572 114.319L107.168 109.439L103.477 138.47ZM108.14 110.694L144.315 115.291L140.909 142.108L104.734 137.501L108.14 110.694Z" fill="url(#paint5_linear_2280_27235)"/>
<path d="M135.405 27.3436C135.649 27.5481 135.937 27.7582 136.27 27.9738C136.609 28.1903 136.955 28.3949 137.31 28.5877C137.672 28.7749 138.025 28.9353 138.368 29.0687C138.711 29.2021 139.012 29.2852 139.271 29.3181C139.366 29.3301 139.49 29.3426 139.643 29.3555C139.796 29.362 139.957 29.3631 140.124 29.3586C140.299 29.3486 140.475 29.3323 140.651 29.3096C140.828 29.2806 140.992 29.237 141.14 29.1787C141.295 29.1212 141.424 29.0475 141.525 28.9574C141.627 28.8611 141.691 28.7406 141.715 28.5959C141.753 28.35 141.712 28.062 141.593 27.732C141.481 27.4028 141.313 27.0537 141.09 26.6848C140.874 26.3103 140.613 25.9302 140.308 25.5445C140.011 25.1533 139.699 24.7764 139.372 24.4136C139.046 24.0445 138.716 23.7007 138.384 23.3822C138.052 23.0574 137.744 22.7773 137.459 22.5419L139.454 20.2589C140.014 20.7668 140.56 21.3245 141.094 21.932C141.634 22.5403 142.122 23.1774 142.558 23.8432C142.995 24.5028 143.36 25.1757 143.652 25.8619C143.945 26.5481 144.133 27.2211 144.216 27.8809C144.244 28.0708 144.255 28.2618 144.25 28.454C144.246 28.6399 144.233 28.8182 144.211 28.989C144.137 29.5774 143.954 30.1038 143.664 30.5685C143.375 31.0267 143.001 31.4102 142.545 31.7187C142.095 32.0217 141.573 32.2352 140.979 32.3592C140.384 32.4833 139.746 32.502 139.062 32.4155C139.012 32.4091 138.962 32.3995 138.912 32.3868C138.861 32.3804 138.811 32.374 138.76 32.3676C138.323 32.3123 137.88 32.208 137.431 32.0546C136.986 31.9083 136.549 31.7309 136.119 31.5222C135.696 31.3143 135.285 31.0823 134.886 30.8261C134.495 30.5708 134.132 30.3096 133.8 30.0426L135.405 27.3436ZM145.245 33.1212C145.343 32.6065 145.442 32.0728 145.544 31.52C145.647 30.9673 145.742 30.4202 145.829 29.8785C145.924 29.3376 146.006 28.8114 146.078 28.2998C146.149 27.7881 146.202 27.316 146.238 26.8834C146.313 25.9803 146.375 25.1879 146.423 24.5061C146.478 23.8189 146.52 23.2103 146.548 22.6804C146.583 22.1513 146.606 21.6883 146.618 21.2913C146.637 20.8887 146.648 20.5205 146.652 20.1867C146.655 19.853 146.653 19.5409 146.645 19.2506C146.637 18.954 146.628 18.6475 146.617 18.3311L149.671 17.7345C149.703 18.5998 149.706 19.4679 149.679 20.3387C149.659 21.2103 149.621 22.0443 149.565 22.8407C149.51 23.6307 149.446 24.365 149.373 25.0435C149.306 25.7229 149.242 26.3029 149.181 26.7837C149.126 27.2202 149.063 27.6911 148.993 28.1964C148.929 28.7026 148.856 29.2268 148.774 29.7693C148.699 30.3126 148.617 30.8613 148.527 31.4157C148.438 31.97 148.34 32.5104 148.235 33.037L145.245 33.1212ZM151.198 29.3435C151.442 29.5479 151.731 29.758 152.063 29.9736C152.402 30.1901 152.749 30.3947 153.104 30.5875C153.466 30.7747 153.819 30.9351 154.162 31.0685C154.505 31.2019 154.806 31.2851 155.065 31.3179C155.16 31.3299 155.284 31.3424 155.437 31.3553C155.59 31.3618 155.751 31.3629 155.918 31.3584C156.093 31.3484 156.269 31.3321 156.445 31.3094C156.622 31.2804 156.785 31.2368 156.934 31.1785C157.089 31.121 157.217 31.0473 157.319 30.9573C157.421 30.8609 157.485 30.7404 157.509 30.5957C157.547 30.3498 157.506 30.0618 157.387 29.7318C157.275 29.4026 157.107 29.0535 156.884 28.6846C156.667 28.3101 156.407 27.93 156.102 27.5444C155.805 27.1532 155.493 26.7762 155.166 26.4134C154.84 26.0443 154.51 25.7005 154.178 25.382C153.846 25.0572 153.538 24.7771 153.253 24.5417L155.248 22.2587C155.807 22.7666 156.354 23.3243 156.888 23.9318C157.428 24.5401 157.916 25.1772 158.352 25.8431C158.789 26.5026 159.154 27.1755 159.446 27.8617C159.739 28.5479 159.927 29.2209 160.01 29.8807C160.038 30.0706 160.049 30.2616 160.044 30.4538C160.039 30.6397 160.026 30.818 160.005 30.9888C159.93 31.5772 159.748 32.1037 159.458 32.5683C159.168 33.0266 158.795 33.41 158.338 33.7185C157.889 34.0215 157.367 34.235 156.772 34.359C156.178 34.4831 155.54 34.5018 154.856 34.4153C154.806 34.4089 154.755 34.3993 154.706 34.3866C154.655 34.3802 154.604 34.3738 154.554 34.3674C154.117 34.3121 153.674 34.2078 153.224 34.0544C152.78 33.9082 152.343 33.7307 151.913 33.522C151.489 33.3141 151.078 33.0821 150.68 32.826C150.288 32.5707 149.926 32.3095 149.594 32.0424L151.198 29.3435ZM166.089 28.6643C166.243 29.378 166.367 30.0718 166.462 30.7459C166.502 31.0402 166.54 31.3471 166.577 31.6667C166.614 31.98 166.642 32.2952 166.66 32.6124C166.684 32.9241 166.697 33.231 166.697 33.5331C166.698 33.829 166.683 34.1034 166.651 34.3564C166.576 34.9511 166.42 35.5196 166.184 36.0618C165.954 36.6111 165.657 37.1327 165.292 37.6264C164.934 38.121 164.521 38.5862 164.055 39.0221C163.587 39.4642 163.08 39.8692 162.532 40.2369C161.984 40.6046 161.405 40.9363 160.796 41.2319C160.185 41.5339 159.561 41.7955 158.922 42.0167L157.499 39.3972C157.983 39.2271 158.478 39.0262 158.983 38.7945C159.481 38.5683 159.963 38.3175 160.428 38.0422C160.9 37.7677 161.342 37.4734 161.755 37.1593C162.174 36.8459 162.543 36.5199 162.862 36.1811C163.188 35.843 163.454 35.4911 163.661 35.1252C163.867 34.7657 163.994 34.4024 164.04 34.0355C164.074 33.7698 164.072 33.4772 164.036 33.1576C164.005 32.8388 163.949 32.4942 163.868 32.1239C163.793 31.7481 163.696 31.3501 163.575 30.9299C163.456 30.5034 163.327 30.05 163.188 29.5697L166.089 28.6643ZM167.838 35.982C167.936 35.4672 168.035 34.9335 168.138 34.3808C168.24 33.8281 168.335 33.2809 168.423 32.7392C168.517 32.1984 168.599 31.6721 168.671 31.1605C168.742 30.6489 168.795 30.1768 168.831 29.7442C168.906 28.841 168.968 28.0486 169.016 27.3669C169.071 26.6796 169.113 26.0711 169.141 25.5412C169.176 25.0121 169.199 24.549 169.211 24.152C169.23 23.7494 169.241 23.3812 169.245 23.0475C169.248 22.7137 169.246 22.4017 169.238 22.1114C169.23 21.8148 169.221 21.5083 169.21 21.1919L172.265 20.5952C172.296 21.4606 172.299 22.3286 172.272 23.1994C172.252 24.071 172.214 24.905 172.158 25.7014C172.103 26.4915 172.039 27.2258 171.966 27.9043C171.899 28.5836 171.835 29.1637 171.774 29.6444C171.719 30.081 171.656 30.5519 171.586 31.0572C171.522 31.5633 171.449 32.0876 171.367 32.63C171.292 33.1733 171.21 33.7221 171.12 34.2764C171.031 34.8307 170.934 35.3711 170.828 35.8978L167.838 35.982ZM179.56 37.4372C179.421 37.4196 179.226 37.3852 178.975 37.3342C178.724 37.2832 178.461 37.1792 178.185 37.0221C177.947 37.789 177.59 38.4991 177.115 39.1524C176.646 39.8129 176.091 40.4143 175.45 40.9567C174.809 41.5054 174.095 41.9934 173.308 42.4209C172.521 42.8483 171.693 43.216 170.825 43.5238L169.392 40.9031C169.87 40.7323 170.354 40.5396 170.844 40.3253C171.334 40.1173 171.803 39.8874 172.253 39.6358C172.708 39.3914 173.133 39.1271 173.529 38.843C173.931 38.566 174.286 38.2704 174.596 37.956C174.906 37.6417 175.16 37.3107 175.358 36.963C175.556 36.6217 175.678 36.2644 175.725 35.8911C175.728 35.8721 175.728 35.8433 175.727 35.8045C175.731 35.7665 175.736 35.7286 175.741 35.6906C175.746 35.6527 175.746 35.6238 175.742 35.604C175.745 35.585 175.744 35.5882 175.741 35.6135L175.74 35.623C175.742 35.2505 175.723 34.8913 175.684 34.5456C175.644 34.1999 175.583 33.8451 175.5 33.4811C175.424 33.118 175.328 32.7362 175.211 32.3358C175.096 31.929 174.965 31.4851 174.821 31.004L177.715 30.1556C177.871 30.9468 178.029 31.6094 178.186 32.1436C178.343 32.6777 178.507 33.1098 178.677 33.4399C178.854 33.7708 179.042 34.0131 179.241 34.1669C179.441 34.3143 179.661 34.4033 179.901 34.4337L179.949 34.4397C180.158 34.4662 180.349 34.5321 180.522 34.6376C180.695 34.7431 180.839 34.8738 180.954 35.0298C181.076 35.1803 181.164 35.352 181.217 35.5451C181.276 35.739 181.292 35.9372 181.267 36.1396C181.24 36.3484 181.174 36.5393 181.069 36.7123C180.97 36.8862 180.842 37.0307 180.686 37.1459C180.536 37.262 180.365 37.3463 180.172 37.399C179.979 37.4517 179.775 37.4644 179.56 37.4372ZM178.139 35.734C178.166 35.5252 178.232 35.3343 178.337 35.1613C178.436 34.9874 178.564 34.8429 178.72 34.7276C178.871 34.6053 179.045 34.5182 179.245 34.4663C179.438 34.4136 179.639 34.4005 179.848 34.4269C180.082 34.4565 180.37 34.4898 180.712 34.5268C181.062 34.5582 181.434 34.586 181.83 34.6104C182.225 34.6348 182.628 34.6536 183.038 34.6669C183.454 34.681 183.849 34.6797 184.224 34.6629C184.605 34.6469 184.95 34.6166 185.257 34.572C185.572 34.5219 185.822 34.4507 186.008 34.3584C185.36 34.3471 184.768 34.3011 184.232 34.2203C183.696 34.1333 183.222 34.0186 182.81 33.8764C182.397 33.7342 182.049 33.5679 181.764 33.3776C181.487 33.1818 181.282 32.9727 181.149 32.7502L181.148 32.7597C181.005 32.523 180.88 32.2147 180.774 31.8349C180.674 31.4558 180.658 31.0006 180.725 30.4692C180.761 30.1845 180.813 29.9212 180.883 29.6793C181.209 28.6279 181.701 27.7871 182.359 27.157L182.348 27.1653C182.748 26.753 183.176 26.4634 183.635 26.2965C184.094 26.1232 184.56 26.0666 185.035 26.1267C185.516 26.1876 185.975 26.3647 186.414 26.658C186.852 26.9514 187.236 27.3214 187.565 27.768C187.798 28.1124 187.997 28.4944 188.163 28.9138C188.334 29.3341 188.468 29.7753 188.564 30.2373C188.666 30.7002 188.728 31.1772 188.749 31.6684C188.778 32.1541 188.761 32.6374 188.7 33.1182C188.682 33.2637 188.66 33.4088 188.636 33.5535C188.612 33.6919 188.585 33.8235 188.557 33.9484C188.398 34.5968 188.158 35.1449 187.838 35.5929C187.518 36.0345 187.135 36.3973 186.687 36.6813C186.246 36.9662 185.753 37.1801 185.208 37.3232C184.663 37.4663 184.085 37.5603 183.475 37.6052C182.866 37.6501 182.232 37.6534 181.575 37.6152C180.924 37.5778 180.269 37.5206 179.61 37.4436L179.449 37.4232C179.24 37.3967 179.049 37.3308 178.876 37.2253C178.702 37.1262 178.557 37.0018 178.441 36.8521C178.325 36.7024 178.241 36.531 178.188 36.338C178.129 36.1441 178.113 35.9428 178.139 35.734ZM184.634 29.1419C184.489 29.1172 184.335 29.1426 184.171 29.2183C184.014 29.2884 183.863 29.3914 183.717 29.5272C183.578 29.6638 183.455 29.825 183.348 30.0107C183.247 30.1972 183.184 30.3917 183.158 30.5941C183.136 30.7713 183.157 30.9346 183.221 31.0842C183.256 31.1657 183.336 31.2434 183.462 31.3171C183.594 31.3854 183.75 31.4501 183.929 31.5113C184.115 31.5669 184.313 31.621 184.525 31.6736C184.738 31.7198 184.942 31.7585 185.137 31.7896C185.333 31.8208 185.51 31.8432 185.669 31.8569C185.834 31.8714 185.955 31.8771 186.033 31.8741C186.012 31.5822 185.973 31.2848 185.915 30.9817C185.863 30.6795 185.783 30.3994 185.674 30.1414C185.565 29.8833 185.426 29.6632 185.256 29.481C185.086 29.2989 184.879 29.1858 184.634 29.1419ZM188.814 23.5392L186.76 25.14L185.186 23.1087L183.176 24.6668L181.567 22.6022L183.621 21.0015L185.195 23.0327L187.205 21.4746L188.814 23.5392Z" fill="#AFC0EB"/>
<path d="M112.903 68.677L111.842 77.0266L161.12 83.2869L162.181 74.9372L112.903 68.677Z" fill="url(#paint6_linear_2280_27235)"/>
</g>
<path d="M265 27.1956C260.991 20.4967 254.86 15.8871 247.56 14.9598C240.261 14.0325 233.182 16.9629 227.624 22.4463L265 27.1956Z" fill="url(#paint7_linear_2280_27235)"/>
<path d="M103.958 171.01C103.958 171.01 103.958 171.01 103.958 170.986L80.0872 116.845C79.7854 116.157 79.2502 115.599 78.5763 115.268C77.9023 114.938 77.1332 114.856 76.4048 115.038L18.9796 129.327C18.7613 129.381 18.5573 129.482 18.3815 129.622C18.2056 129.762 18.0622 129.938 17.9608 130.139C17.8595 130.34 17.8027 130.56 17.7944 130.784C17.7861 131.009 17.8264 131.233 17.9126 131.44C17.9126 131.47 17.9364 131.497 17.9483 131.527C17.9602 131.556 17.9721 131.586 17.9839 131.616C17.9958 131.646 18.0077 131.672 18.0196 131.702L18.0553 131.791C18.0553 131.821 18.082 131.848 18.0939 131.877C18.1058 131.907 18.1177 131.937 18.1296 131.966C18.1415 131.996 18.1534 132.023 18.1652 132.053C18.1753 132.082 18.1872 132.111 18.2009 132.139L18.2366 132.228C18.2366 132.258 18.2633 132.284 18.2752 132.314C18.2871 132.344 18.299 132.374 18.3109 132.403C18.3228 132.433 18.3346 132.46 18.3465 132.49C18.3584 132.519 18.3703 132.549 18.3822 132.579L18.4179 132.665C18.4179 132.695 18.4446 132.724 18.4565 132.751C18.4684 132.778 18.4803 132.811 18.4922 132.84C18.504 132.87 18.5159 132.897 18.5278 132.926C18.5397 132.956 18.5516 132.986 18.5635 133.016C18.5754 133.045 18.5902 133.072 18.5992 133.102L18.6378 133.191C18.6378 133.221 18.6616 133.247 18.6735 133.277C18.6835 133.307 18.6954 133.335 18.7091 133.363C18.7091 133.393 18.7329 133.423 18.7448 133.452C18.7567 133.482 18.7715 133.509 18.7834 133.539C18.7953 133.568 18.8072 133.598 18.8191 133.628C18.831 133.658 18.8429 133.684 18.8547 133.714C18.8666 133.744 18.8785 133.773 18.8904 133.803C18.9023 133.833 18.9142 133.86 18.9261 133.889C18.938 133.919 18.9528 133.949 18.9647 133.976C18.9748 134.006 18.9867 134.036 19.0004 134.065C19.0004 134.094 19.0241 134.121 19.036 134.151C19.0479 134.181 19.0598 134.21 19.0717 134.24C19.0836 134.27 19.0955 134.297 19.1074 134.326L19.146 134.415C19.146 134.445 19.1698 134.472 19.1817 134.502C19.1936 134.531 19.2054 134.561 19.2173 134.591C19.2292 134.62 19.2411 134.647 19.253 134.677C19.2631 134.706 19.275 134.735 19.2887 134.763L19.3273 134.852C19.3273 134.882 19.3511 134.909 19.363 134.938C19.3748 134.968 19.3867 134.998 19.3986 135.028C19.4105 135.057 19.4224 135.084 19.4343 135.114L19.47 135.203C19.47 135.233 19.4967 135.259 19.5086 135.289C19.5187 135.319 19.5306 135.347 19.5443 135.375C19.5443 135.405 19.568 135.435 19.5799 135.465C19.5918 135.494 19.6037 135.521 19.6156 135.551L19.6512 135.64C19.6512 135.67 19.678 135.696 19.6899 135.726C19.7018 135.756 19.7137 135.786 19.7255 135.815C19.7912 136.01 19.8953 136.189 20.0316 136.342C20.168 136.495 20.3337 136.619 20.5191 136.707L22.442 137.649L4.31268 174.633C4.11326 175.04 4.00687 175.486 4.00121 175.94C3.99556 176.393 4.09078 176.842 4.27999 177.254L4.31565 177.34L4.35131 177.429C4.35131 177.456 4.37509 177.486 4.38995 177.516C4.40004 177.545 4.41195 177.574 4.42561 177.602L4.46128 177.691L4.49694 177.777L4.53261 177.866C4.53261 177.896 4.55638 177.926 4.57124 177.952C4.5861 177.979 4.59205 178.012 4.60691 178.042L4.64257 178.128L4.67824 178.214C4.67824 178.244 4.70201 178.273 4.71687 178.303C4.72696 178.333 4.73887 178.361 4.75254 178.389C4.75254 178.419 4.77334 178.449 4.7882 178.479L4.82387 178.565L4.85953 178.654C4.85953 178.681 4.88331 178.71 4.89817 178.74C4.91303 178.77 4.91897 178.799 4.93383 178.829L4.96949 178.915L5.00516 179.002L5.04082 179.091C5.0519 179.12 5.0648 179.149 5.07946 179.177C5.07946 179.207 5.10026 179.236 5.11512 179.266L5.15079 179.352L5.18645 179.441L5.22211 179.528C5.23319 179.557 5.24609 179.586 5.26075 179.614C5.26075 179.644 5.28155 179.673 5.29641 179.703L5.33208 179.789L5.36774 179.878L5.40341 179.965C5.41827 179.994 5.42718 180.024 5.44204 180.054C5.4569 180.083 5.46285 180.11 5.47771 180.14L5.51337 180.226L5.54904 180.315L5.5847 180.401C5.59956 180.431 5.60848 180.461 5.62334 180.491C5.63342 180.52 5.64533 180.549 5.659 180.577L5.69467 180.666L5.73033 180.752L5.76599 180.838C5.78085 180.868 5.78977 180.898 5.80463 180.927C5.81472 180.957 5.82663 180.986 5.84029 181.014L5.87596 181.103L5.91162 181.189L5.94729 181.278C5.96215 181.305 5.97106 181.335 5.98592 181.364C6.00078 181.394 6.00673 181.424 6.02159 181.453L6.05725 181.54L6.09291 181.626C6.37737 182.306 6.89912 182.859 7.56109 183.183L29.2568 193.82C29.8397 194.102 30.5104 194.142 31.1227 193.931C31.735 193.721 32.2393 193.277 32.526 192.697L44.6786 167.907C44.8512 167.554 45.0917 167.239 45.3863 166.98C45.6809 166.72 46.0237 166.521 46.3953 166.394C46.7668 166.267 47.1598 166.215 47.5516 166.24C47.9435 166.265 48.3265 166.367 48.6789 166.54L62.2551 173.194L50.1917 197.803C50.0309 198.129 49.9454 198.488 49.9413 198.852C49.9372 199.216 50.0146 199.576 50.1679 199.907L50.2035 199.996L50.2392 200.082L50.2749 200.171C50.2859 200.201 50.2989 200.23 50.3135 200.257C50.3135 200.287 50.3343 200.317 50.3492 200.347L50.3848 200.433L50.4205 200.522L50.4562 200.608C50.471 200.638 50.4799 200.668 50.4948 200.694C50.5097 200.721 50.5156 200.754 50.5305 200.783L50.5661 200.87L50.6018 200.959L50.6375 201.045C50.6523 201.075 50.6612 201.104 50.6761 201.134C50.691 201.164 50.6969 201.191 50.7118 201.22L50.7474 201.307L50.7831 201.396L50.8188 201.482C50.8336 201.512 50.8425 201.541 50.8574 201.571C50.8723 201.601 50.8782 201.628 50.8931 201.657L50.9287 201.746L50.9644 201.833C50.9755 201.862 50.9884 201.891 51.003 201.919C51.003 201.949 51.0238 201.978 51.0387 202.008C51.0488 202.037 51.0607 202.066 51.0743 202.094L51.11 202.183L51.1457 202.269C51.1457 202.299 51.1695 202.329 51.1843 202.359C51.1992 202.388 51.2051 202.415 51.22 202.445C51.2301 202.474 51.242 202.503 51.2556 202.531L51.2913 202.62L51.327 202.706C51.327 202.736 51.3507 202.766 51.3656 202.796C51.3757 202.825 51.3876 202.854 51.4013 202.882L51.4369 202.971L51.4726 203.057L51.5083 203.146C51.5083 203.173 51.532 203.203 51.5469 203.232C51.557 203.262 51.5689 203.291 51.5826 203.319L51.6182 203.408L51.6539 203.494L51.6896 203.583C51.6896 203.613 51.7133 203.64 51.7282 203.669C51.7431 203.699 51.749 203.729 51.7639 203.758L51.7995 203.845L51.8352 203.931L51.8709 204.02C51.8819 204.05 51.8948 204.078 51.9095 204.106C51.9095 204.136 51.9303 204.166 51.9452 204.195L51.9808 204.282C52.2095 204.834 52.6324 205.283 53.1696 205.545L74.8653 216.181C75.2253 216.358 75.6167 216.462 76.0169 216.488C76.4172 216.513 76.8186 216.46 77.1981 216.33C77.5776 216.2 77.9278 215.997 78.2288 215.732C78.5297 215.467 78.7754 215.145 78.9518 214.785L98.4899 174.936L103.679 177.474C103.967 177.616 104.292 177.665 104.609 177.616C104.926 177.566 105.22 177.421 105.452 177.198C105.683 176.976 105.84 176.688 105.902 176.373C105.964 176.058 105.928 175.732 105.798 175.438L105.771 175.376V175.352L105.745 175.29C105.743 175.281 105.743 175.272 105.745 175.263L105.715 175.2C105.716 175.192 105.716 175.184 105.715 175.177L105.688 175.114V175.087L105.661 175.025V175.001L105.635 174.939V174.915L105.608 174.853C105.607 174.844 105.607 174.835 105.608 174.826L105.578 174.763C105.579 174.756 105.579 174.748 105.578 174.74L105.551 174.677V174.651L105.525 174.588V174.564L105.498 174.502V174.475L105.471 174.413C105.471 174.413 105.471 174.398 105.471 174.389L105.441 174.327C105.441 174.327 105.441 174.309 105.441 174.303L105.415 174.24V174.214L105.388 174.151V174.127L105.361 174.065V174.038L105.334 173.976C105.333 173.968 105.333 173.96 105.334 173.952L105.305 173.89C105.306 173.881 105.306 173.872 105.305 173.863L105.278 173.801V173.777L105.251 173.714V173.688L105.224 173.625V173.601L105.198 173.539C105.197 173.531 105.197 173.523 105.198 173.515L105.168 173.453C105.169 173.444 105.169 173.435 105.168 173.426L105.141 173.364V173.34L105.114 173.277V173.251L105.088 173.188C105.088 173.188 105.088 173.173 105.088 173.165L105.058 173.102C105.058 173.102 105.058 173.084 105.058 173.075L105.028 173.013C105.029 173.005 105.029 172.997 105.028 172.989L105.002 172.927V172.903L104.975 172.841V172.814L104.948 172.751C104.947 172.744 104.947 172.736 104.948 172.728L104.918 172.665C104.918 172.665 104.918 172.647 104.918 172.638L104.889 172.576C104.89 172.568 104.89 172.56 104.889 172.552L104.862 172.49V172.463L104.835 172.401V172.377L104.808 172.315C104.808 172.307 104.808 172.299 104.808 172.291L104.779 172.228C104.78 172.219 104.78 172.21 104.779 172.202L104.752 172.139C104.753 172.131 104.753 172.123 104.752 172.115L104.725 172.053V172.026L104.698 171.964V171.94L104.672 171.878C104.67 171.869 104.67 171.86 104.672 171.851L104.642 171.789C104.643 171.781 104.643 171.773 104.642 171.765L104.615 171.702V171.679L104.588 171.616V171.589L104.562 171.527V171.503L104.535 171.441C104.534 171.432 104.534 171.423 104.535 171.414L104.505 171.352C104.506 171.344 104.506 171.336 104.505 171.328L104.478 171.265V171.239L104.452 171.176V171.152L104.425 171.09V171.063L103.958 171.01ZM70.969 129.868C72.1688 129.374 73.489 129.249 74.7601 129.511C76.0312 129.772 77.1949 130.408 78.1018 131.336C78.1169 132.634 77.7433 133.906 77.029 134.99C76.3148 136.073 75.2926 136.918 74.0941 137.415C72.8956 137.913 71.5757 138.04 70.3042 137.781C69.0327 137.522 67.8679 136.888 66.9598 135.961C66.9424 134.662 67.3144 133.387 68.0279 132.301C68.7414 131.215 69.7637 130.368 70.9631 129.868H70.969Z" fill="url(#paint8_linear_2280_27235)"/>
<path d="M80.0871 116.845C79.7853 116.157 79.2501 115.599 78.5762 115.268C77.9022 114.938 77.1331 114.856 76.4047 115.038L18.9795 129.327C18.6689 129.406 18.3901 129.579 18.1808 129.822C17.9716 130.064 17.8419 130.365 17.8095 130.684C17.7771 131.003 17.8434 131.324 17.9995 131.604C18.1556 131.884 18.394 132.109 18.6823 132.249L23.8595 134.787L4.31258 174.642C4.13577 175.002 4.03165 175.393 4.00617 175.793C3.98068 176.193 4.03434 176.595 4.16407 176.974C4.2938 177.354 4.49705 177.704 4.76221 178.005C5.02737 178.306 5.34925 178.552 5.70942 178.728L27.4051 189.368C27.6952 189.511 28.0107 189.596 28.3335 189.617C28.6564 189.638 28.9802 189.595 29.2864 189.491C29.5926 189.386 29.8752 189.222 30.118 189.009C30.3607 188.795 30.5589 188.535 30.7011 188.245L42.8537 163.455C43.0263 163.102 43.2668 162.787 43.5614 162.528C43.8559 162.268 44.1988 162.069 44.5704 161.942C44.9419 161.815 45.3349 161.763 45.7267 161.788C46.1185 161.813 46.5016 161.915 46.854 162.088L60.9978 169.022C61.7069 169.372 62.2482 169.989 62.5034 170.738C62.7585 171.486 62.7066 172.305 62.359 173.016L50.2064 197.806C49.9239 198.388 49.8835 199.059 50.094 199.672C50.3045 200.284 50.7488 200.789 51.3298 201.075L73.0256 211.712C73.3856 211.888 73.7769 211.992 74.1772 212.018C74.5774 212.043 74.9788 211.99 75.3583 211.86C75.7378 211.73 76.0881 211.527 76.389 211.262C76.6899 210.997 76.9356 210.675 77.1121 210.315L96.6501 170.484L101.827 173.016C102.116 173.157 102.44 173.206 102.757 173.156C103.074 173.106 103.368 172.961 103.599 172.739C103.83 172.517 103.988 172.229 104.051 171.915C104.113 171.6 104.078 171.274 103.949 170.98L80.0871 116.845ZM74.0925 137.429C72.9039 137.922 71.5959 138.051 70.334 137.8C69.0721 137.549 67.9129 136.93 67.0029 136.02C66.0929 135.111 65.4731 133.952 65.2217 132.69C64.9704 131.428 65.0988 130.12 65.5908 128.931C66.0828 127.742 66.9162 126.726 67.9858 126.011C69.0553 125.296 70.3128 124.914 71.5994 124.913C72.886 124.913 74.1439 125.294 75.214 126.008C76.2841 126.722 77.1184 127.738 77.6114 128.926C77.9388 129.715 78.1075 130.562 78.1079 131.416C78.1082 132.271 77.9402 133.117 77.6134 133.907C77.2867 134.696 76.8075 135.414 76.2034 136.018C75.5993 136.622 74.882 137.102 74.0925 137.429Z" fill="url(#paint9_linear_2280_27235)"/>
<path d="M117.502 142.248C112.874 142.302 108.319 141.093 104.327 138.752C100.335 136.411 97.0562 133.026 94.8441 128.961C92.6321 124.896 91.5702 120.304 91.7727 115.681C91.9751 111.057 93.4343 106.576 95.9931 102.72C98.552 98.8635 102.114 95.7778 106.295 93.7945C110.477 91.8113 115.12 91.0056 119.725 91.4641C124.331 91.9226 128.724 93.6279 132.432 96.3967C136.141 99.1655 139.024 102.893 140.773 107.178L143.231 109.16C143.548 109.425 143.954 109.56 144.366 109.54C144.779 109.519 145.169 109.345 145.46 109.05L148.402 106.194C148.681 105.911 149.054 105.739 149.45 105.709C149.847 105.679 150.241 105.793 150.56 106.031L156.613 112.905C156.903 113.119 157.255 113.234 157.615 113.232L162.133 113.178C162.558 113.171 162.965 113.002 163.271 112.706L166.721 107.095C167.025 106.797 167.433 106.627 167.859 106.623C168.285 106.618 168.696 106.777 169.007 107.068L172.276 112.144C172.555 112.402 172.914 112.556 173.293 112.58C173.672 112.604 174.048 112.496 174.356 112.275L179.706 108.468C179.999 108.254 180.351 108.137 180.714 108.132L183.656 108.099C183.946 108.1 184.232 108.169 184.49 108.301C184.749 108.433 184.972 108.625 185.142 108.86L186.01 110.013C186.173 110.249 186.39 110.441 186.643 110.575C186.896 110.709 187.177 110.78 187.464 110.782C187.75 110.784 188.032 110.717 188.287 110.587C188.542 110.457 188.762 110.267 188.928 110.034L190.474 108.019L191.903 108.001C192.254 108.004 192.599 108.09 192.909 108.254C193.219 108.417 193.486 108.653 193.686 108.94L200.225 116.198C200.567 116.677 200.747 117.252 200.738 117.84C200.73 118.428 200.535 118.998 200.18 119.467L196.421 124.273C196.225 124.535 195.972 124.749 195.681 124.899C195.39 125.049 195.069 125.13 194.741 125.138L141.031 125.759C139.225 130.557 136.013 134.698 131.815 137.64C127.617 140.582 122.628 142.188 117.502 142.248ZM100.089 116.986C100.101 118.015 100.417 119.018 100.999 119.868C101.581 120.718 102.402 121.376 103.358 121.759C104.314 122.142 105.362 122.233 106.37 122.021C107.377 121.808 108.299 121.302 109.019 120.565C109.739 119.829 110.224 118.896 110.414 117.883C110.603 116.871 110.488 115.825 110.083 114.879C109.678 113.932 109.002 113.126 108.139 112.564C107.276 112.001 106.266 111.708 105.236 111.719C104.552 111.727 103.876 111.87 103.247 112.139C102.618 112.408 102.048 112.799 101.57 113.288C101.092 113.778 100.715 114.357 100.461 114.993C100.206 115.628 100.08 116.307 100.089 116.992V116.986Z" fill="url(#paint10_linear_2280_27235)"/>
<path d="M191.912 109.585C192.011 109.591 192.108 109.622 192.193 109.674C192.278 109.725 192.349 109.797 192.4 109.882L192.504 110.01L197.152 115.164L145.454 115.758L145.421 111.734L153.407 111.642L155.526 114.082L155.668 114.183C156.233 114.601 156.919 114.822 157.621 114.813L162.153 114.765C162.974 114.756 163.762 114.437 164.359 113.874L164.51 113.731L167.874 108.227L171.046 113.164L171.203 113.306C171.752 113.808 172.456 114.105 173.197 114.15C173.939 114.194 174.673 113.982 175.278 113.55L180.627 109.743C180.658 109.718 180.695 109.703 180.734 109.701L183.674 109.668C183.715 109.675 183.755 109.689 183.79 109.712C183.826 109.734 183.856 109.764 183.879 109.799L184.747 110.952C185.057 111.382 185.465 111.732 185.936 111.974C186.407 112.216 186.929 112.344 187.458 112.347C187.988 112.35 188.511 112.228 188.985 111.99C189.459 111.753 189.87 111.408 190.185 110.982L191.261 109.579L191.912 109.585Z" fill="url(#paint11_linear_2280_27235)"/>
<path d="M145.37 120.814L199.606 120.187L198.926 121.061L145.379 121.679L145.37 120.814Z" fill="url(#paint12_linear_2280_27235)"/>
<path d="M95.6574 117.043C95.6084 112.781 96.8241 108.6 99.151 105.03C101.478 101.459 104.811 98.658 108.73 96.9816C112.648 95.3052 116.976 94.8284 121.166 95.6115C125.355 96.3946 129.218 98.4024 132.267 101.381C135.315 104.36 137.412 108.175 138.292 112.346C139.172 116.516 138.795 120.853 137.21 124.81C135.625 128.766 132.902 132.163 129.386 134.572C125.87 136.981 121.719 138.294 117.457 138.343C111.743 138.404 106.239 136.195 102.152 132.201C98.0653 128.208 95.7295 122.756 95.6574 117.043ZM110.503 116.873C110.491 115.844 110.174 114.841 109.592 113.991C109.01 113.141 108.189 112.483 107.233 112.1C106.278 111.717 105.23 111.626 104.222 111.838C103.214 112.051 102.292 112.557 101.572 113.294C100.853 114.03 100.367 114.963 100.178 115.976C99.9885 116.988 100.104 118.034 100.508 118.981C100.913 119.927 101.59 120.733 102.453 121.295C103.315 121.858 104.325 122.152 105.355 122.14C106.039 122.132 106.715 121.99 107.343 121.721C107.972 121.452 108.542 121.062 109.02 120.573C109.498 120.084 109.875 119.505 110.129 118.871C110.384 118.236 110.511 117.557 110.503 116.873Z" fill="url(#paint13_linear_2280_27235)"/>
<path d="M139.159 116.549C139.108 112.208 137.771 107.979 135.317 104.398C132.863 100.817 129.402 98.0434 125.372 96.429C121.342 94.8145 116.924 94.4314 112.676 95.3279C108.428 96.2245 104.541 98.3605 101.508 101.466C98.4736 104.571 96.4287 108.507 95.6313 112.774C94.8339 117.042 95.3198 121.45 97.0277 125.441C98.7355 129.433 101.589 132.828 105.226 135.198C108.864 137.568 113.122 138.806 117.463 138.756C123.283 138.681 128.835 136.302 132.903 132.138C136.97 127.975 139.22 122.369 139.159 116.549ZM96.0647 117.048C96.0168 112.867 97.2098 108.765 99.4928 105.261C101.776 101.758 105.046 99.0099 108.891 97.365C112.736 95.72 116.982 95.2519 121.092 96.0198C125.203 96.7877 128.994 98.7572 131.985 101.679C134.977 104.601 137.034 108.345 137.899 112.436C138.763 116.528 138.394 120.784 136.84 124.666C135.286 128.548 132.615 131.882 129.166 134.247C125.717 136.611 121.645 137.9 117.463 137.95C111.854 138.012 106.449 135.845 102.436 131.925C98.4234 128.005 96.1307 122.652 96.0617 117.042L96.0647 117.048Z" fill="url(#paint14_linear_2280_27235)"/>
<path d="M120.638 113.968C116.89 116.683 112.474 118.326 107.863 118.719C103.253 119.112 98.6221 118.241 94.4694 116.199C90.3168 114.158 86.7992 111.022 84.295 107.131C81.7909 103.24 80.3948 98.7395 80.2569 94.1142C80.119 89.4888 81.2446 84.9133 83.5126 80.8798C85.7806 76.8462 89.1051 73.5072 93.1288 71.2218C97.1525 68.9363 101.723 67.7909 106.349 67.9087C110.975 68.0265 115.481 69.4031 119.383 71.8904L122.534 72.0924C122.946 72.124 123.355 71.9998 123.68 71.7445C124.005 71.4893 124.223 71.1214 124.29 70.7134L125.042 66.6864C125.106 66.2936 125.311 65.9374 125.617 65.6834C125.924 65.4294 126.311 65.2948 126.709 65.3044L135.625 67.4234C135.985 67.4297 136.337 67.3203 136.63 67.1113L140.288 64.4573C140.631 64.2064 140.866 63.8346 140.945 63.4171L140.517 56.8401C140.594 56.4211 140.829 56.0478 141.174 55.7981C141.519 55.5484 141.947 55.4415 142.369 55.4997L147.959 57.7644C148.338 57.8152 148.723 57.7331 149.048 57.5321C149.373 57.331 149.619 57.0234 149.742 56.6618L151.903 50.4681C152.021 50.1254 152.241 49.8268 152.533 49.6121L154.911 47.8884C155.148 47.7203 155.422 47.6111 155.71 47.5698C155.998 47.5284 156.291 47.5561 156.566 47.6506L157.939 48.0905C158.208 48.1887 158.497 48.2209 158.781 48.1841C159.064 48.1473 159.335 48.0428 159.57 47.8792C159.805 47.7157 159.997 47.498 160.13 47.2446C160.263 46.9912 160.334 46.7094 160.335 46.4232L160.433 43.8851L161.589 43.047C161.876 42.8449 162.208 42.7153 162.557 42.6692C162.905 42.6231 163.259 42.662 163.589 42.7824L173.132 44.9223C173.682 45.1163 174.157 45.4797 174.487 45.9604C174.818 46.441 174.987 47.014 174.972 47.5971L174.69 53.7046C174.681 54.0321 174.598 54.3534 174.447 54.6442C174.296 54.9351 174.081 55.188 173.819 55.3838L130.326 86.9198C131.623 91.8797 131.392 97.1154 129.663 101.942C127.934 106.768 124.788 110.96 120.638 113.968ZM91.8357 103.403C92.44 104.236 93.2779 104.872 94.2436 105.23C95.2093 105.588 96.2593 105.651 97.261 105.412C98.2626 105.173 99.1709 104.642 99.8709 103.887C100.571 103.132 101.031 102.186 101.194 101.169C101.356 100.152 101.214 99.1097 100.784 98.1739C100.354 97.2381 99.6563 96.4508 98.779 95.9115C97.9018 95.3722 96.8843 95.1051 95.8553 95.144C94.8262 95.1829 93.8318 95.5261 92.9978 96.1301C92.4439 96.5313 91.9744 97.0376 91.6163 97.6202C91.2581 98.2028 91.0182 98.8503 90.9103 99.5256C90.8024 100.201 90.8286 100.891 90.9874 101.556C91.1461 102.221 91.4344 102.849 91.8357 103.403Z" fill="url(#paint15_linear_2280_27235)"/>
<path d="M162.525 44.3272C162.607 44.2734 162.702 44.2409 162.8 44.2326C162.898 44.2243 162.996 44.2405 163.087 44.2796L163.247 44.3242L170.017 45.8489L128.154 76.1902L125.806 72.9388L132.27 68.2519L135.426 68.9949H135.613C136.316 69.0087 137.003 68.7927 137.572 68.3797L141.23 65.7287C141.896 65.2432 142.353 64.5247 142.511 63.7166L142.553 63.5115L142.125 57.1068L147.564 59.3091L147.775 59.3329C148.512 59.4261 149.259 59.2628 149.89 58.8705C150.521 58.4781 150.998 57.8806 151.24 57.1782L153.401 50.9875C153.413 50.9502 153.436 50.9173 153.466 50.8924L155.844 49.1656C155.882 49.1484 155.924 49.1395 155.966 49.1395C156.008 49.1395 156.049 49.1484 156.088 49.1656L157.461 49.6055C157.962 49.776 158.497 49.8259 159.021 49.7513C159.546 49.6767 160.045 49.4797 160.479 49.1761C160.914 48.8725 161.27 48.4709 161.52 48.0038C161.77 47.5368 161.907 47.0175 161.919 46.4878L161.987 44.7225L162.525 44.3272Z" fill="url(#paint16_linear_2280_27235)"/>
<path d="M131.01 80.372L174.93 48.5447L174.879 49.6473L131.518 81.0734L131.01 80.372Z" fill="url(#paint17_linear_2280_27235)"/>
<path d="M88.2489 106.003C85.7476 102.552 84.3258 98.4367 84.1634 94.1775C84.0009 89.9183 85.1052 85.7067 87.3364 82.0751C89.5676 78.4435 92.8257 75.5551 96.6985 73.7752C100.571 71.9953 104.885 71.4037 109.094 72.0755C113.303 72.7472 117.218 74.6519 120.345 77.5488C123.471 80.4458 125.668 84.2048 126.658 88.3504C127.648 92.4961 127.387 96.8423 125.907 100.839C124.427 104.836 121.795 108.305 118.344 110.806C113.713 114.152 107.945 115.525 102.304 114.625C96.6621 113.725 91.6079 110.624 88.2489 106.003ZM100.268 97.2921C99.6635 96.458 98.8254 95.8219 97.8595 95.4642C96.8937 95.1064 95.8434 95.0432 94.8416 95.2824C93.8398 95.5217 92.9314 96.0527 92.2314 96.8082C91.5314 97.5638 91.0712 98.51 90.9091 99.5271C90.7469 100.544 90.89 101.587 91.3203 102.522C91.7507 103.458 92.4489 104.245 93.3266 104.784C94.2043 105.323 95.2222 105.59 96.2514 105.55C97.2806 105.51 98.275 105.167 99.1087 104.562C99.6623 104.161 100.131 103.654 100.489 103.072C100.847 102.489 101.087 101.842 101.194 101.167C101.302 100.492 101.276 99.8023 101.117 99.1374C100.958 98.4725 100.669 97.8455 100.268 97.2921Z" fill="url(#paint18_linear_2280_27235)"/>
<path d="M123.472 80.4743C120.925 76.959 117.391 74.2782 113.32 72.7708C109.249 71.2634 104.822 70.9973 100.599 72.0059C96.3761 73.0145 92.5473 75.2527 89.5965 78.4374C86.6458 81.6221 84.7057 85.6102 84.0216 89.8975C83.3374 94.1848 83.94 98.5787 85.753 102.524C87.5661 106.468 90.5082 109.787 94.2073 112.06C97.9064 114.333 102.196 115.457 106.535 115.292C110.873 115.127 115.065 113.678 118.58 111.131C123.289 107.71 126.449 102.561 127.366 96.8141C128.283 91.0668 126.883 85.1904 123.472 80.4743ZM88.575 105.766C86.1211 102.38 84.7264 98.3415 84.5674 94.1624C84.4084 89.9833 85.4921 85.8509 87.6817 82.2877C89.8712 78.7245 93.0681 75.8906 96.8682 74.1442C100.668 72.3979 104.901 71.8177 109.031 72.4768C113.161 73.136 117.002 75.0049 120.07 77.8474C123.138 80.6898 125.294 84.3781 126.265 88.4458C127.237 92.5136 126.98 96.778 125.528 100.7C124.076 104.622 121.494 108.025 118.108 110.48C113.565 113.765 107.903 115.114 102.367 114.23C96.83 113.347 91.87 110.303 88.575 105.766Z" fill="url(#paint19_linear_2280_27235)"/>
<path d="M77.7273 97.6892C81.6053 96.0877 85.8894 95.7496 89.9706 96.7228C94.0518 97.696 97.7223 99.931 100.46 103.11C101.076 102.127 101.346 100.968 101.23 99.8142C98.8702 97.5084 96.0367 95.744 92.9263 94.6435C89.816 93.543 86.5033 93.1328 83.2185 93.4415C79.9336 93.7501 76.7554 94.7701 73.9044 96.4307C71.0535 98.0913 68.5982 100.353 66.7092 103.058C64.8201 105.763 63.5426 108.846 62.9654 112.095C62.3881 115.343 62.5249 118.678 63.3664 121.869C64.2078 125.059 65.7336 128.028 67.8379 130.569C69.9422 133.11 72.5744 135.162 75.5518 136.584C76.3349 135.986 76.9721 135.217 77.4153 134.337C73.8334 132.778 70.7892 130.199 68.6619 126.923C66.5346 123.646 65.418 119.816 65.4513 115.91C65.4845 112.004 66.6662 108.193 68.849 104.953C71.0318 101.713 74.1194 99.1872 77.7273 97.6892Z" fill="url(#paint20_linear_2280_27235)"/>
<path d="M105.079 118.8C104.501 123.043 102.569 126.985 99.5699 130.042C96.5712 133.098 92.6661 135.105 88.4353 135.764L89.6092 138.439C94.365 137.534 98.7074 135.134 102.004 131.589C105.3 128.043 107.378 123.538 107.935 118.729C106.985 118.806 106.031 118.83 105.079 118.8Z" fill="url(#paint21_linear_2280_27235)"/>
</g>
<defs>
<filter id="filter0_d_2280_27235" x="0" y="0" width="269" height="224.494" filterUnits="userSpaceOnUse" color-interpolation-filters="sRGB">
<feFlood flood-opacity="0" result="BackgroundImageFix"/>
<feColorMatrix in="SourceAlpha" type="matrix" values="0 0 0 0 0 0 0 0 0 0 0 0 0 0 0 0 0 0 127 0" result="hardAlpha"/>
<feOffset dy="4"/>
<feGaussianBlur stdDeviation="2"/>
<feComposite in2="hardAlpha" operator="out"/>
<feColorMatrix type="matrix" values="0 0 0 0 0 0 0 0 0 0 0 0 0 0 0 0 0 0 0.25 0"/>
<feBlend mode="normal" in2="BackgroundImageFix" result="effect1_dropShadow_2280_27235"/>
<feBlend mode="normal" in="SourceGraphic" in2="effect1_dropShadow_2280_27235" result="shape"/>
</filter>
<linearGradient id="paint0_linear_2280_27235" x1="146.921" y1="317.209" x2="164.063" y2="110.932" gradientUnits="userSpaceOnUse">
<stop stop-color="white"/>
<stop offset="1" stop-color="#CFDAF4"/>
</linearGradient>
<linearGradient id="paint1_linear_2280_27235" x1="239.528" y1="58.3806" x2="136.999" y2="196.157" gradientUnits="userSpaceOnUse">
<stop stop-color="white"/>
<stop offset="1" stop-color="#CFDAF4"/>
</linearGradient>
<linearGradient id="paint2_linear_2280_27235" x1="194.902" y1="33.7918" x2="92.3719" y2="171.571" gradientUnits="userSpaceOnUse">
<stop stop-color="white"/>
<stop offset="1" stop-color="#CFDAF4"/>
</linearGradient>
<linearGradient id="paint3_linear_2280_27235" x1="199.121" y1="36.9297" x2="96.5906" y2="174.709" gradientUnits="userSpaceOnUse">
<stop stop-color="white"/>
<stop offset="1" stop-color="#CFDAF4"/>
</linearGradient>
<linearGradient id="paint4_linear_2280_27235" x1="184.238" y1="25.8538" x2="81.7079" y2="163.633" gradientUnits="userSpaceOnUse">
<stop stop-color="white"/>
<stop offset="1" stop-color="#CFDAF4"/>
</linearGradient>
<linearGradient id="paint5_linear_2280_27235" x1="193.985" y1="33.0924" x2="91.4529" y2="170.868" gradientUnits="userSpaceOnUse">
<stop stop-color="white"/>
<stop offset="1" stop-color="#CFDAF4"/>
</linearGradient>
<linearGradient id="paint6_linear_2280_27235" x1="177.855" y1="21.0998" x2="75.3253" y2="158.879" gradientUnits="userSpaceOnUse">
<stop stop-color="white"/>
<stop offset="1" stop-color="#CFDAF4"/>
</linearGradient>
<linearGradient id="paint7_linear_2280_27235" x1="229.358" y1="28.1676" x2="262.365" y2="18.298" gradientUnits="userSpaceOnUse">
<stop stop-color="#8393CE"/>
<stop offset="1" stop-color="#B5BDE1"/>
</linearGradient>
<linearGradient id="paint8_linear_2280_27235" x1="9.16404" y1="188.998" x2="96.4371" y2="152.812" gradientUnits="userSpaceOnUse">
<stop stop-color="#424161"/>
<stop offset="1" stop-color="#5B60A3"/>
</linearGradient>
<linearGradient id="paint9_linear_2280_27235" x1="46.4874" y1="110.102" x2="59.8959" y2="222.832" gradientUnits="userSpaceOnUse">
<stop stop-color="#81D715"/>
<stop offset="1" stop-color="#1766AF"/>
</linearGradient>
<linearGradient id="paint10_linear_2280_27235" x1="81.211" y1="125.658" x2="198.782" y2="94.5629" gradientUnits="userSpaceOnUse">
<stop stop-color="#8393CE"/>
<stop offset="1" stop-color="#5B60A3"/>
</linearGradient>
<linearGradient id="paint11_linear_2280_27235" x1="86.8781" y1="127.319" x2="200.805" y2="109.276" gradientUnits="userSpaceOnUse">
<stop stop-color="#424161"/>
<stop offset="1" stop-color="#5B60A3"/>
</linearGradient>
<linearGradient id="paint12_linear_2280_27235" x1="88.055" y1="134.765" x2="201.982" y2="116.719" gradientUnits="userSpaceOnUse">
<stop stop-color="#424161"/>
<stop offset="1" stop-color="#5B60A3"/>
</linearGradient>
<linearGradient id="paint13_linear_2280_27235" x1="144.452" y1="115.447" x2="50.4361" y2="114.107" gradientUnits="userSpaceOnUse">
<stop stop-color="#8393CE"/>
<stop offset="1" stop-color="#5B60A3"/>
</linearGradient>
<linearGradient id="paint14_linear_2280_27235" x1="138.194" y1="115.36" x2="94.29" y2="114.735" gradientUnits="userSpaceOnUse">
<stop stop-color="#424161"/>
<stop offset="1" stop-color="#5B60A3"/>
</linearGradient>
<linearGradient id="paint15_linear_2280_27235" x1="77.5592" y1="39.6479" x2="139.562" y2="84.9279" gradientUnits="userSpaceOnUse">
<stop stop-color="#8393CE"/>
<stop offset="1" stop-color="#B5BDE1"/>
</linearGradient>
<linearGradient id="paint16_linear_2280_27235" x1="170.701" y1="52.8375" x2="238.693" y2="32.9248" gradientUnits="userSpaceOnUse">
<stop stop-color="#8393CE"/>
<stop offset="1" stop-color="#B5BDE1"/>
</linearGradient>
<linearGradient id="paint17_linear_2280_27235" x1="176.16" y1="50.2442" x2="240.967" y2="8.99509" gradientUnits="userSpaceOnUse">
<stop stop-color="#8393CE"/>
<stop offset="1" stop-color="#B5BDE1"/>
</linearGradient>
<linearGradient id="paint18_linear_2280_27235" x1="122.462" y1="112.236" x2="72.8949" y2="56.34" gradientUnits="userSpaceOnUse">
<stop stop-color="#8393CE"/>
<stop offset="1" stop-color="#B5BDE1"/>
</linearGradient>
<linearGradient id="paint19_linear_2280_27235" x1="123.749" y1="80.9189" x2="87.5824" y2="105.814" gradientUnits="userSpaceOnUse">
<stop stop-color="#8393CE"/>
<stop offset="1" stop-color="#5B60A3"/>
</linearGradient>
<linearGradient id="paint20_linear_2280_27235" x1="67.0494" y1="130.85" x2="99.9425" y2="75.6759" gradientUnits="userSpaceOnUse">
<stop stop-color="#424161"/>
<stop offset="1" stop-color="#5B60A3"/>
</linearGradient>
<linearGradient id="paint21_linear_2280_27235" x1="92.0929" y1="139.456" x2="111.14" y2="107.509" gradientUnits="userSpaceOnUse">
<stop stop-color="#424161"/>
<stop offset="1" stop-color="#5B60A3"/>
</linearGradient>
</defs>
</svg>
