<svg width="182" height="91" viewBox="0 0 182 91" fill="none" xmlns="http://www.w3.org/2000/svg">
<rect x="0.75" y="0.75" width="179.537" height="88.6724" rx="9.25" fill="white" stroke="url(#paint0_linear_1325_10073)" stroke-width="1.5"/>
<path d="M57.0166 35.6732H57.5176V42.3729C57.5176 42.6864 57.7719 42.9407 58.0853 42.9407H67.3474C67.6609 42.9407 67.9152 42.6864 67.9152 42.3729V35.6732H68.4162C68.6611 35.6732 68.8785 35.5173 68.9552 35.2853C69.0332 35.0532 68.9529 34.7966 68.7572 34.6501L63.0817 30.4032C62.879 30.252 62.6036 30.2508 62.402 30.402L56.6773 34.6489C56.4804 34.7954 56.4002 35.0509 56.4769 35.2841C56.5543 35.5161 56.7717 35.6732 57.0166 35.6732ZM63.5581 41.8033H61.9778V39.8211C61.9778 39.3875 62.3335 39.0336 62.7712 39.0336C62.9792 39.0336 63.1749 39.115 63.3284 39.2668C63.4737 39.4097 63.5587 39.6113 63.5587 39.8205L63.5581 41.8033ZM62.7401 31.5668L66.7087 34.5364H58.7369L62.7401 31.5668ZM58.6543 35.6732H66.7785V41.8039H64.6942V39.8217C64.6942 39.3078 64.4851 38.8097 64.1253 38.4599C63.7626 38.0972 63.2821 37.898 62.77 37.898C61.7059 37.898 60.8405 38.7611 60.8405 39.8217V41.8039H58.6543V35.6732ZM46.6998 46.0679H57.0166C57.3301 46.0679 57.5855 45.8136 57.5855 45.5001C57.5855 45.1866 57.3301 44.9311 57.0166 44.9311H46.6998C46.3863 44.9311 46.1309 45.1866 46.1309 45.5001C46.1309 45.8136 46.3863 46.0679 46.6998 46.0679ZM46.6998 50.0277H57.0166C57.3301 50.0277 57.5855 49.7734 57.5855 49.4587C57.5855 49.1453 57.3301 48.8909 57.0166 48.8909H46.6998C46.3863 48.8909 46.1309 49.1453 46.1309 49.4587C46.1309 49.7734 46.3863 50.0277 46.6998 50.0277ZM57.5855 53.4186C57.5855 53.1051 57.3301 52.8508 57.0166 52.8508H46.6998C46.3863 52.8508 46.1309 53.1051 46.1309 53.4186C46.1309 53.7332 46.3863 53.9875 46.6998 53.9875H57.0166C57.3301 53.9869 57.5855 53.7332 57.5855 53.4186Z" fill="#303030"/>
<path d="M79.611 36.2327L78.82 35.4417C77.8907 34.5135 76.4153 34.476 75.5311 35.3591L72.7637 38.1265V29.2939C72.7637 28.0177 71.7259 26.9812 70.4509 26.9812H53.9712C53.9595 26.9812 53.9507 26.9859 53.9389 26.9871C53.8862 26.9894 53.8346 26.9994 53.7843 27.0181C53.7684 27.024 53.752 27.0275 53.7374 27.0351C53.6759 27.0626 53.6173 27.0978 53.5692 27.147L42.9993 37.7169C42.9501 37.765 42.9161 37.8218 42.8886 37.8827C42.8804 37.8997 42.8763 37.9185 42.8692 37.9366C42.8534 37.9847 42.844 38.0327 42.8405 38.082C42.8394 38.0943 42.8335 38.106 42.8335 38.1183V61.7062C42.8335 62.9824 43.8706 64.0189 45.1462 64.0189H70.4509C71.7259 64.0189 72.7637 62.9818 72.7637 61.7062V46.4522L78.2212 40.9947C78.2223 40.9947 78.2223 40.9935 78.2223 40.9935L79.6931 39.5216C80.5778 38.638 80.5415 37.162 79.611 36.2327ZM49.0879 33.235L53.4022 28.9207V36.3733C53.4022 37.022 52.8749 37.5499 52.2256 37.5499H44.7736L49.0879 33.235ZM71.6275 61.7062C71.6275 62.3548 71.1002 62.8827 70.4509 62.8827H45.1462C44.4976 62.8827 43.9696 62.3554 43.9696 61.7062V38.6861H52.2256C53.5007 38.6861 54.5384 37.6489 54.5384 36.3733V28.1162H70.4503C71.099 28.1162 71.6269 28.6447 71.6269 29.2939V39.2632L58.797 52.0943C58.7296 52.1605 58.6804 52.2443 58.6529 52.3357L57.2531 57.0942C57.1945 57.2934 57.2495 57.5096 57.396 57.6561C57.5038 57.7651 57.6492 57.8231 57.798 57.8231C57.8519 57.8231 57.9058 57.8149 57.958 57.7991L62.7176 56.3992C62.809 56.3729 62.8916 56.3237 62.959 56.2563L71.6269 47.5884L71.6275 61.7062ZM59.5699 53.248L61.8047 55.484L58.6382 56.4157L59.5699 53.248ZM71.7992 45.81C71.7957 45.8124 71.7933 45.8159 71.7898 45.8182L62.768 54.8406L60.2127 52.2841L74.4606 38.0363L75.3371 38.9128L72.3957 41.8531C72.1736 42.0752 72.1736 42.4355 72.3957 42.6564C72.5064 42.7672 72.6523 42.8234 72.7976 42.8234C72.943 42.8234 73.0883 42.7672 73.1996 42.6564L76.1411 39.7162L77.0165 40.5927L71.7992 45.81ZM78.8897 38.7183L77.8198 39.7894L75.2645 37.2329L76.3344 36.163C76.7751 35.7224 77.5303 35.7593 78.0167 36.2456L78.8077 37.0366C79.294 37.5224 79.3315 38.2777 78.8897 38.7183Z" fill="#303030"/>
<path d="M116.375 38.353C116.026 38.353 115.732 38.2861 115.492 38.1522C115.257 38.0183 115.062 37.8499 114.908 37.647C114.823 37.7565 114.731 37.8559 114.634 37.9452C114.536 38.0304 114.421 38.1035 114.287 38.1643C114.157 38.2293 114.003 38.278 113.824 38.3104C113.65 38.3429 113.441 38.3591 113.197 38.3591C113.027 38.3591 112.871 38.347 112.729 38.3226C112.587 38.2983 112.457 38.2678 112.339 38.2313C112.335 38.7061 112.262 39.1383 112.12 39.5278C111.982 39.9174 111.791 40.2664 111.548 40.5748C111.308 40.8832 111.026 41.151 110.702 41.3783C110.377 41.6055 110.028 41.7922 109.655 41.9383C109.281 42.0884 108.89 42.2 108.48 42.273C108.074 42.3461 107.67 42.3826 107.269 42.3826C106.648 42.3826 106.074 42.2791 105.546 42.0722C105.018 41.8693 104.562 41.5812 104.176 41.2078C103.795 40.8386 103.497 40.3922 103.282 39.8687C103.067 39.3493 102.959 38.7751 102.959 38.1461C102.971 37.7809 103.02 37.4075 103.105 37.0261C103.194 36.6446 103.306 36.2713 103.44 35.9061C103.578 35.5409 103.73 35.1939 103.896 34.8652C104.067 34.5325 104.239 34.2342 104.414 33.9704L105.741 34.987C105.595 35.2264 105.455 35.48 105.321 35.7478C105.187 36.0157 105.069 36.2875 104.968 36.5635C104.87 36.8354 104.791 37.1093 104.73 37.3852C104.67 37.6612 104.639 37.927 104.639 38.1826C104.627 38.491 104.686 38.7812 104.816 39.053C104.95 39.329 105.134 39.5684 105.37 39.7713C105.609 39.9783 105.889 40.1406 106.21 40.2583C106.53 40.38 106.875 40.4409 107.244 40.4409C107.524 40.4409 107.802 40.4206 108.078 40.38C108.358 40.3435 108.624 40.2806 108.876 40.1913C109.131 40.1061 109.369 39.9945 109.588 39.8565C109.807 39.7226 109.996 39.5583 110.154 39.3635C110.316 39.1687 110.442 38.9414 110.531 38.6817C110.625 38.4261 110.671 38.1339 110.671 37.8052C110.671 37.5617 110.635 37.3081 110.562 37.0443C110.489 36.7765 110.391 36.5046 110.27 36.2287C110.152 35.9487 110.016 35.6646 109.862 35.3765C109.712 35.0884 109.555 34.8003 109.393 34.5122L111.079 33.6113C111.225 33.9603 111.377 34.3032 111.536 34.64C111.694 34.9768 111.858 35.2791 112.029 35.547C112.199 35.8107 112.376 36.0238 112.558 36.1861C112.741 36.3443 112.93 36.4194 113.124 36.4113C113.287 36.4072 113.414 36.3626 113.508 36.2774C113.605 36.1922 113.68 36.0806 113.733 35.9426C113.786 35.8046 113.82 35.6464 113.836 35.4678C113.853 35.2893 113.861 35.1026 113.861 34.9078C113.857 34.7374 113.851 34.5629 113.843 34.3843C113.834 34.2017 113.828 34.0252 113.824 33.8548L115.553 33.6174C115.553 33.731 115.557 33.8812 115.565 34.0678C115.577 34.2504 115.596 34.4472 115.62 34.6583C115.648 34.8693 115.685 35.0823 115.73 35.2974C115.778 35.5125 115.839 35.7072 115.912 35.8817C115.985 36.0522 116.072 36.1922 116.174 36.3017C116.275 36.4113 116.395 36.4661 116.533 36.4661C116.667 36.4661 116.785 36.4052 116.886 36.2835C116.992 36.1577 117.079 35.9974 117.148 35.8026C117.221 35.6078 117.274 35.3928 117.306 35.1574C117.343 34.918 117.361 34.6846 117.361 34.4574C117.361 34.3681 117.359 34.3052 117.355 34.2687C117.355 34.2281 117.355 34.1936 117.355 34.1652C117.355 34.1328 117.353 34.0962 117.349 34.0557C117.349 34.011 117.349 33.94 117.349 33.8426L118.998 33.6052L119.041 34.0861V34.08C119.049 34.1855 119.057 34.2829 119.065 34.3722C119.077 34.4614 119.09 34.5548 119.102 34.6522C119.114 34.7455 119.128 34.847 119.144 34.9565C119.161 35.0661 119.179 35.1939 119.199 35.34C119.223 35.5267 119.276 35.689 119.357 35.827C119.438 35.9649 119.534 36.0806 119.643 36.1739C119.753 36.2632 119.869 36.3301 119.99 36.3748C120.112 36.4194 120.228 36.4417 120.337 36.4417H120.41C120.561 36.4417 120.696 36.4681 120.818 36.5209C120.944 36.5696 121.052 36.6386 121.141 36.7278C121.23 36.813 121.299 36.9145 121.348 37.0322C121.396 37.1499 121.421 37.2757 121.421 37.4096C121.421 37.5435 121.396 37.6693 121.348 37.787C121.299 37.9046 121.23 38.0061 121.141 38.0913C121.052 38.1765 120.944 38.2435 120.818 38.2922C120.692 38.3449 120.552 38.3713 120.398 38.3713C119.944 38.3713 119.544 38.2983 119.199 38.1522C118.854 38.0101 118.56 37.7809 118.316 37.4643C118.097 37.7443 117.823 37.9614 117.495 38.1157C117.166 38.2739 116.793 38.353 116.375 38.353ZM117.075 31.3591L115.906 32.5339L114.75 31.3774L113.605 32.5217L112.424 31.347L113.593 30.1722L114.75 31.3287L115.894 30.1843L117.075 31.3591ZM113.666 29.5939L114.75 28.5104L115.839 29.6L114.756 30.6835L113.666 29.5939ZM119.391 37.4035C119.391 37.2696 119.415 37.1438 119.464 37.0261C119.512 36.9084 119.581 36.807 119.671 36.7217C119.756 36.6325 119.857 36.5635 119.975 36.5148C120.093 36.4661 120.218 36.4417 120.352 36.4417H120.815C121.107 36.4417 121.387 36.4296 121.655 36.4052C121.927 36.3809 122.166 36.3301 122.373 36.253C122.58 36.1719 122.747 36.0603 122.872 35.9183C123.002 35.7722 123.071 35.5794 123.079 35.34C123.083 35.2507 123.083 35.1777 123.079 35.1209C123.079 35.06 123.069 34.989 123.049 34.9078C123.029 34.8226 122.998 34.713 122.958 34.5791C122.921 34.4412 122.868 34.2484 122.799 34.0009L124.571 33.5017C124.648 33.6965 124.719 33.9542 124.784 34.2748C124.849 34.5954 124.897 34.9464 124.93 35.3278C124.938 35.4496 124.952 35.5754 124.972 35.7052C124.993 35.8351 125.025 35.9548 125.07 36.0643C125.118 36.1739 125.183 36.2652 125.265 36.3383C125.346 36.4072 125.451 36.4417 125.581 36.4417C125.715 36.4417 125.841 36.4661 125.958 36.5148C126.076 36.5635 126.178 36.6325 126.263 36.7217C126.352 36.807 126.421 36.9084 126.47 37.0261C126.523 37.1438 126.549 37.2696 126.549 37.4035C126.549 37.5374 126.523 37.6632 126.47 37.7809C126.421 37.8986 126.352 38 126.263 38.0852C126.174 38.1745 126.07 38.2435 125.952 38.2922C125.839 38.3409 125.717 38.3652 125.587 38.3652C125.198 38.3652 124.863 38.3043 124.583 38.1826C124.307 38.0649 124.07 37.9107 123.871 37.72C123.688 37.8417 123.477 37.9432 123.238 38.0243C123.002 38.1055 122.751 38.1704 122.483 38.2191C122.215 38.2719 121.939 38.3084 121.655 38.3287C121.371 38.353 121.091 38.3652 120.815 38.3652H120.352C120.218 38.3652 120.093 38.3409 119.975 38.2922C119.857 38.2435 119.756 38.1745 119.671 38.0852C119.581 38 119.512 37.8986 119.464 37.7809C119.415 37.6632 119.391 37.5374 119.391 37.4035ZM125.216 40.5504L124.047 41.7252L122.891 40.5687L121.746 41.713L120.565 40.5383L121.734 39.3635L122.891 40.52L124.035 39.3757L125.216 40.5504ZM124.67 37.4035C124.67 37.2696 124.696 37.1438 124.749 37.0261C124.797 36.9084 124.864 36.807 124.95 36.7217C125.035 36.6325 125.136 36.5635 125.254 36.5148C125.372 36.4661 125.497 36.4417 125.631 36.4417H126.307H126.599C126.782 36.4417 126.983 36.4336 127.202 36.4174C127.421 36.4012 127.632 36.3748 127.835 36.3383C128.038 36.3017 128.22 36.253 128.383 36.1922C128.549 36.1272 128.671 36.0461 128.748 35.9487C128.793 35.8797 128.815 35.7864 128.815 35.6687C128.815 35.4942 128.772 35.2872 128.687 35.0478C128.606 34.8084 128.508 34.5649 128.395 34.3174C128.281 34.0699 128.164 33.8325 128.042 33.6052C127.924 33.378 127.829 33.1893 127.756 33.0391L129.49 32.187C129.616 32.4061 129.738 32.6658 129.856 32.9661C129.973 33.2623 130.079 33.5687 130.172 33.8852C130.266 34.1977 130.341 34.5061 130.397 34.8104C130.454 35.1107 130.483 35.3725 130.483 35.5957C130.483 36.0055 130.41 36.3809 130.264 36.7217C130.093 37.1032 129.86 37.4197 129.564 37.6713C129.267 37.9188 128.912 38.1014 128.498 38.2191C128.377 38.2516 128.224 38.278 128.042 38.2983C127.859 38.3186 127.675 38.3328 127.488 38.3409C127.301 38.353 127.125 38.3591 126.958 38.3591C126.792 38.3632 126.662 38.3652 126.569 38.3652H125.686H125.631C125.497 38.3652 125.372 38.3409 125.254 38.2922C125.136 38.2435 125.035 38.1745 124.95 38.0852C124.864 38 124.797 37.8986 124.749 37.7809C124.696 37.6632 124.67 37.5374 124.67 37.4035ZM129.253 41.4696L128.109 40.3252L126.952 41.4817L125.784 40.307L126.964 39.1322L128.109 40.2765L129.265 39.12L130.434 40.2948L129.253 41.4696ZM128.115 40.9704L129.198 42.0539L128.109 43.1435L127.025 42.06L128.115 40.9704ZM115.228 54.9435C115.253 54.9922 115.295 55.0814 115.356 55.2113C115.421 55.3371 115.494 55.4913 115.575 55.6739C115.657 55.8525 115.742 56.0533 115.831 56.2765C115.92 56.4997 116.001 56.7351 116.074 56.9826C116.148 57.2261 116.206 57.4757 116.251 57.7313C116.3 57.9829 116.324 58.2304 116.324 58.4739C116.32 58.8757 116.259 59.251 116.141 59.6C116.028 59.949 115.859 60.2533 115.636 60.513C115.413 60.7687 115.137 60.9716 114.808 61.1217C114.48 61.2719 114.1 61.347 113.67 61.347C113.297 61.347 112.99 61.2841 112.751 61.1583C112.516 61.0325 112.321 60.86 112.167 60.6409C112.081 60.7504 111.99 60.8499 111.893 60.9391C111.795 61.0243 111.68 61.0974 111.546 61.1583C111.416 61.2232 111.262 61.2719 111.083 61.3043C110.909 61.3368 110.7 61.353 110.456 61.353C110.286 61.353 110.13 61.3409 109.988 61.3165C109.845 61.2922 109.716 61.2617 109.598 61.2252C109.594 61.7 109.521 62.1322 109.379 62.5217C109.241 62.9113 109.05 63.2603 108.807 63.5687C108.567 63.8771 108.285 64.1449 107.961 64.3722C107.636 64.5994 107.287 64.7861 106.914 64.9322C106.54 65.0823 106.149 65.1939 105.739 65.267C105.333 65.34 104.929 65.3765 104.528 65.3765C103.907 65.3765 103.332 65.273 102.805 65.0661C102.277 64.8632 101.821 64.5751 101.435 64.2017C101.054 63.8325 100.756 63.3861 100.541 62.8626C100.325 62.3432 100.218 61.769 100.218 61.14C100.23 60.7748 100.279 60.4014 100.364 60.02C100.453 59.6386 100.565 59.2652 100.699 58.9C100.837 58.5348 100.989 58.1878 101.155 57.8591C101.326 57.5264 101.498 57.2281 101.673 56.9643L103 57.987C102.854 58.2264 102.712 58.48 102.574 58.7478C102.436 59.0116 102.314 59.2835 102.208 59.5635C102.103 59.8394 102.018 60.1154 101.953 60.3913C101.888 60.6672 101.855 60.933 101.855 61.1887C101.843 61.4971 101.904 61.7872 102.038 62.0591C102.176 62.331 102.365 62.5684 102.604 62.7713C102.848 62.9783 103.132 63.1406 103.456 63.2583C103.785 63.3759 104.134 63.4348 104.503 63.4348C104.921 63.4348 105.307 63.3962 105.66 63.3191C106.017 63.242 106.331 63.1345 106.603 62.9965C106.879 62.8626 107.11 62.6983 107.297 62.5035C107.484 62.3128 107.618 62.1017 107.699 61.8704L107.693 61.8765C107.794 61.5438 107.845 61.2009 107.845 60.8478C107.845 60.5759 107.806 60.3 107.729 60.02C107.652 59.74 107.553 59.458 107.431 59.1739C107.309 58.8858 107.173 58.5977 107.023 58.3096C106.877 58.0174 106.733 57.7252 106.591 57.433L108.259 56.4957C108.364 56.7351 108.47 56.9765 108.575 57.22C108.681 57.4635 108.786 57.6968 108.892 57.92C109.001 58.1391 109.113 58.3441 109.227 58.5348C109.34 58.7255 109.458 58.8899 109.58 59.0278C109.701 59.1617 109.827 59.2632 109.957 59.3322C110.091 59.4012 110.233 59.4255 110.383 59.4052C110.554 59.3809 110.692 59.322 110.797 59.2287C110.903 59.1313 110.982 59.0116 111.034 58.8696C111.091 58.7275 111.126 58.5693 111.138 58.3948C111.154 58.2162 111.158 58.0357 111.15 57.853C111.142 57.6704 111.128 57.4899 111.108 57.3113C111.091 57.1328 111.077 56.9684 111.065 56.8183L112.745 56.593C112.773 56.7188 112.798 56.871 112.818 57.0496C112.838 57.2241 112.861 57.4087 112.885 57.6035C112.913 57.7983 112.948 57.9951 112.988 58.1939C113.029 58.3928 113.084 58.5774 113.153 58.7478C113.222 58.9183 113.307 59.0664 113.408 59.1922C113.51 59.318 113.638 59.4072 113.792 59.46C113.918 59.46 114.035 59.4377 114.145 59.393C114.254 59.3443 114.35 59.2754 114.431 59.1861C114.512 59.0968 114.575 58.9872 114.62 58.8574C114.668 58.7235 114.693 58.5693 114.693 58.3948C114.693 58.2487 114.664 58.0803 114.608 57.8896C114.555 57.6948 114.482 57.4858 114.388 57.2626C114.295 57.0394 114.185 56.8061 114.06 56.5626C113.938 56.3151 113.808 56.0655 113.67 55.8139L115.228 54.9435ZM113.914 54.0365L112.745 55.2113L111.588 54.0548L110.444 55.1991L109.263 54.0243L110.432 52.8496L111.588 54.0061L112.733 52.8617L113.914 54.0365ZM110.505 52.2713L111.588 51.1878L112.678 52.2774L111.594 53.3609L110.505 52.2713ZM119.713 57.4087C119.628 57.3925 119.53 57.4229 119.421 57.5C119.315 57.573 119.214 57.6745 119.117 57.8043C119.023 57.9301 118.944 58.0701 118.879 58.2243C118.818 58.3786 118.788 58.5267 118.788 58.6687C118.788 58.8026 118.826 58.9142 118.904 59.0035C118.981 59.0928 119.078 59.1658 119.196 59.2226C119.317 59.2794 119.449 59.322 119.591 59.3504C119.737 59.3788 119.877 59.3991 120.011 59.4113H120.005C120.111 59.4194 120.23 59.4255 120.364 59.4296C120.502 59.4296 120.636 59.4296 120.766 59.4296C120.807 59.4296 120.837 59.4316 120.857 59.4357C120.882 59.4357 120.902 59.4357 120.918 59.4357C120.935 59.4357 120.951 59.4357 120.967 59.4357C120.987 59.4357 121.016 59.4336 121.052 59.4296C120.991 59.178 120.918 58.9386 120.833 58.7113C120.752 58.48 120.657 58.273 120.547 58.0904C120.437 57.9078 120.314 57.7577 120.176 57.64C120.038 57.5183 119.884 57.4412 119.713 57.4087ZM116.73 63.7817C117.303 63.6681 117.824 63.5241 118.295 63.3496C118.766 63.1791 119.177 62.9864 119.53 62.7713C119.888 62.5603 120.182 62.3351 120.413 62.0957C120.648 61.8562 120.815 61.6128 120.912 61.3652C120.738 61.3652 120.553 61.3612 120.358 61.353C120.164 61.349 120.003 61.3429 119.877 61.3348C119.407 61.2942 118.977 61.1887 118.587 61.0183C118.197 60.8519 117.887 60.6246 117.656 60.3365C117.485 60.1174 117.364 59.88 117.29 59.6243C117.222 59.3687 117.187 59.0988 117.187 58.8148C117.187 58.5957 117.207 58.3765 117.248 58.1574C117.288 57.9342 117.345 57.7191 117.418 57.5122C117.491 57.3012 117.577 57.1023 117.674 56.9157C117.775 56.729 117.883 56.5586 117.997 56.4043C118.24 56.1 118.506 55.8707 118.794 55.7165C119.086 55.5583 119.393 55.4791 119.713 55.4791C120.399 55.4791 121.018 55.7794 121.57 56.38C121.764 56.5991 121.939 56.8446 122.093 57.1165C122.247 57.3884 122.377 57.6786 122.483 57.987C122.592 58.2913 122.675 58.6119 122.732 58.9487C122.789 59.2814 122.817 59.6203 122.817 59.9652C122.817 60.0707 122.813 60.1762 122.805 60.2817C122.801 60.3872 122.795 60.4867 122.787 60.58C122.738 61.0548 122.631 61.4991 122.464 61.913C122.302 62.331 122.091 62.7145 121.831 63.0635C121.576 63.4165 121.277 63.7351 120.937 64.0191C120.596 64.3072 120.224 64.5588 119.823 64.7739C119.425 64.993 119.003 65.1757 118.557 65.3217C118.11 65.4678 117.652 65.5774 117.181 65.6504L116.73 63.7817ZM127.974 61.3652C127.885 61.3652 127.759 61.3591 127.597 61.347C127.434 61.3348 127.26 61.2901 127.073 61.213C126.984 61.7162 126.816 62.193 126.568 62.6435C126.325 63.098 126.022 63.522 125.661 63.9157C125.3 64.3133 124.888 64.6786 124.425 65.0113C123.963 65.3441 123.47 65.6423 122.946 65.9061L121.832 64.3661C122.121 64.22 122.411 64.0597 122.703 63.8852C122.995 63.7148 123.273 63.5322 123.537 63.3374C123.805 63.1467 124.052 62.9458 124.279 62.7348C124.511 62.5278 124.712 62.3128 124.882 62.0896C125.052 61.8664 125.186 61.6371 125.284 61.4017C125.381 61.1704 125.43 60.9351 125.43 60.6957C125.43 60.6835 125.428 60.6652 125.424 60.6409C125.424 60.6165 125.424 60.5922 125.424 60.5678C125.424 60.5435 125.422 60.5252 125.418 60.513C125.418 60.5009 125.418 60.5029 125.418 60.5191V60.5252C125.389 60.2899 125.349 60.0646 125.296 59.8496C125.243 59.6345 125.176 59.4154 125.095 59.1922C125.018 58.969 124.927 58.7357 124.821 58.4922C124.716 58.2446 124.598 57.9748 124.468 57.6826L126.227 56.9157C126.39 57.4026 126.542 57.8084 126.684 58.133C126.826 58.4577 126.964 58.7174 127.098 58.9122C127.236 59.107 127.374 59.2449 127.512 59.3261C127.65 59.4032 127.796 59.4417 127.95 59.4417H127.98C128.114 59.4417 128.24 59.4681 128.358 59.5209C128.475 59.5736 128.577 59.6446 128.662 59.7339C128.751 59.8191 128.82 59.9206 128.869 60.0383C128.922 60.1559 128.948 60.2797 128.948 60.4096C128.948 60.5435 128.922 60.6693 128.869 60.787C128.82 60.9046 128.751 61.0061 128.662 61.0913C128.577 61.1765 128.475 61.2435 128.358 61.2922C128.24 61.3409 128.112 61.3652 127.974 61.3652ZM126.941 60.4035C126.941 60.2696 126.968 60.1438 127.021 60.0261C127.069 59.9084 127.138 59.807 127.227 59.7217C127.313 59.6325 127.416 59.5635 127.538 59.5148C127.656 59.4661 127.781 59.4417 127.915 59.4417C128.065 59.4417 128.25 59.4397 128.469 59.4357C128.692 59.4275 128.93 59.4154 129.181 59.3991C129.433 59.3829 129.689 59.3626 129.948 59.3383C130.212 59.3139 130.462 59.2814 130.697 59.2409C130.936 59.2003 131.152 59.1536 131.342 59.1009C131.537 59.0441 131.689 58.9791 131.799 58.9061C131.389 58.9507 131.012 58.969 130.667 58.9609C130.322 58.9487 130.013 58.9142 129.741 58.8574C129.47 58.8006 129.236 58.7235 129.041 58.6261C128.851 58.5246 128.705 58.409 128.603 58.2791V58.2852C128.494 58.1472 128.39 57.9626 128.293 57.7313C128.199 57.5 128.153 57.2139 128.153 56.873C128.153 56.6904 128.165 56.52 128.189 56.3617C128.311 55.6719 128.554 55.1017 128.92 54.6513L128.914 54.6574C129.133 54.3652 129.38 54.1481 129.656 54.0061C129.932 53.86 130.222 53.787 130.527 53.787C130.835 53.787 131.139 53.862 131.44 54.0122C131.74 54.1623 132.012 54.3652 132.255 54.6209C132.43 54.8197 132.586 55.0449 132.724 55.2965C132.866 55.5481 132.986 55.8159 133.083 56.1C133.185 56.3841 133.262 56.6803 133.314 56.9887C133.371 57.293 133.4 57.5994 133.4 57.9078C133.4 58.0012 133.398 58.0945 133.394 58.1878C133.39 58.2771 133.383 58.3623 133.375 58.4435C133.327 58.8655 133.219 59.2307 133.053 59.5391C132.886 59.8435 132.673 60.1032 132.414 60.3183C132.158 60.5333 131.864 60.7078 131.531 60.8417C131.198 60.9757 130.841 61.0812 130.46 61.1583C130.078 61.2354 129.678 61.2881 129.261 61.3165C128.847 61.3449 128.429 61.3612 128.007 61.3652H127.903C127.769 61.3652 127.643 61.3388 127.526 61.2861C127.408 61.2374 127.307 61.1704 127.221 61.0852C127.136 61 127.069 60.8986 127.021 60.7809C126.968 60.6632 126.941 60.5374 126.941 60.4035ZM130.514 55.7226C130.421 55.7186 130.326 55.747 130.228 55.8078C130.135 55.8646 130.048 55.9417 129.967 56.0391C129.89 56.1365 129.825 56.2481 129.772 56.3739C129.723 56.4997 129.699 56.6275 129.699 56.7574C129.699 56.871 129.725 56.9725 129.778 57.0617C129.806 57.1104 129.863 57.153 129.948 57.1896C130.038 57.222 130.141 57.2504 130.259 57.2748C130.381 57.2951 130.51 57.3133 130.648 57.3296C130.786 57.3417 130.918 57.3499 131.044 57.3539C131.17 57.358 131.283 57.358 131.385 57.3539C131.49 57.3499 131.567 57.3438 131.616 57.3357C131.58 57.153 131.531 56.9684 131.47 56.7817C131.413 56.5951 131.34 56.4246 131.251 56.2704C131.162 56.1162 131.056 55.9884 130.934 55.887C130.813 55.7855 130.673 55.7307 130.514 55.7226ZM130.277 50.3174L131.628 51.6687L130.277 53.02L128.926 51.6687L130.277 50.3174Z" fill="#303030"/>
<defs>
<linearGradient id="paint0_linear_1325_10073" x1="6.2615" y1="6.16969" x2="173.284" y2="92.5337" gradientUnits="userSpaceOnUse">
<stop stop-color="#EAEAEA"/>
<stop offset="1" stop-color="#BDBDBD"/>
</linearGradient>
</defs>
</svg>
