<svg width="136" height="76" viewBox="0 0 136 76" fill="none" xmlns="http://www.w3.org/2000/svg">
<rect x="1.05518" y="0.75" width="133.326" height="74.5" rx="9.25" fill="white" stroke="url(#paint0_linear_1325_10478)" stroke-width="1.5"/>
<path d="M63.5406 31.8114V30.7054C63.5392 29.7519 63.2243 28.8252 62.6441 28.0674C62.0639 27.3097 61.2505 26.7627 60.3286 26.5105V24.3271C60.7561 24.0076 61.1031 23.5932 61.3421 23.1167C61.5811 22.6402 61.7055 22.1148 61.7056 21.582V17.5532C61.7045 16.6429 61.3415 15.7701 60.6962 15.1264C60.0508 14.4827 59.1758 14.1206 58.2632 14.1196H53.3979C53.2154 14.1196 53.0402 14.1919 52.9111 14.3207C52.782 14.4495 52.7095 14.6242 52.7095 14.8063V21.582C52.7095 22.1148 52.834 22.6402 53.073 23.1167C53.312 23.5932 53.659 24.0076 54.0864 24.3271V26.8813C53.8673 27.0188 53.6642 27.1804 53.4811 27.363L49.0785 31.7584H44.4176C44.1183 31.7584 43.8201 31.7952 43.5298 31.8681V31.6216C43.5317 30.8921 43.2998 30.181 42.8679 29.5922C42.436 29.0034 41.8267 28.5678 41.129 28.3489L37.8136 27.2991C37.6741 27.2553 37.5522 27.1682 37.4659 27.0505C37.3795 26.9327 37.3331 26.7905 37.3335 26.6446V25.2219C37.7684 24.8009 38.1141 24.297 38.3501 23.7402C38.5861 23.1833 38.7076 22.5849 38.7073 21.9804V15.1467C38.707 14.8427 38.5857 14.5512 38.3702 14.3362C38.1546 14.1213 37.8624 14.0003 37.5576 14H32.6204C31.8264 14.0009 31.0652 14.3159 30.5038 14.8759C29.9424 15.4359 29.6266 16.1951 29.6257 16.9871V21.9803C29.6255 22.5848 29.7469 23.1832 29.9829 23.7401C30.2189 24.2969 30.5646 24.8008 30.9995 25.2218V26.6445C30.9999 26.7904 30.9535 26.9326 30.8671 27.0504C30.7807 27.1681 30.6589 27.2552 30.5193 27.299L27.2041 28.3489C26.5064 28.5678 25.8971 29.0034 25.4651 29.5922C25.0332 30.1809 24.8013 30.892 24.8032 31.6215V34.7012H20.9937C20.8111 34.7012 20.6359 34.7735 20.5068 34.9023C20.3777 35.0311 20.3052 35.2058 20.3052 35.3879V36.9287C20.3057 37.3546 20.4383 37.7699 20.6849 38.1176C20.9314 38.4653 21.2797 38.7284 21.6821 38.8708V59.4612C21.6825 59.8375 21.8326 60.1982 22.0993 60.4643C22.3661 60.7303 22.7277 60.88 23.105 60.8804H25.1245C25.269 60.8804 25.4098 60.8351 25.5271 60.7508C25.6443 60.6665 25.7319 60.5476 25.7776 60.4109L26.8407 57.2296C26.8863 57.0928 26.974 56.9738 27.0912 56.8895C27.2085 56.8052 27.3494 56.7599 27.494 56.7601H44.7864C44.9309 56.7599 45.0718 56.8052 45.1891 56.8895C45.3063 56.9738 45.3939 57.0928 45.4395 57.2296L46.5025 60.4109C46.5482 60.5476 46.6359 60.6666 46.7532 60.7508C46.8704 60.8351 47.0113 60.8804 47.1558 60.8804H49.1753C49.5525 60.88 49.9142 60.7303 50.1809 60.4643C50.4477 60.1982 50.5977 59.8375 50.5981 59.4612V46.8663H55.5637L57.3048 60.4006C57.3261 60.5663 57.4072 60.7185 57.5329 60.8288C57.6586 60.9391 57.8203 61 57.9877 61H61.1088C61.2064 61 61.303 60.9793 61.392 60.9392C61.481 60.8991 61.5604 60.8406 61.625 60.7676C61.6896 60.6945 61.7379 60.6086 61.7667 60.5155C61.7955 60.4224 61.804 60.3243 61.7919 60.2277L60.1084 46.8663H61.1089C62.7517 46.8644 64.3267 46.2127 65.4883 45.054C66.6499 43.8953 67.3033 42.3244 67.3052 40.6858V36.1992C67.3038 35.1406 66.924 34.1172 66.2339 33.313C65.5439 32.5087 64.5889 31.9763 63.5406 31.8114ZM54.0864 15.493H58.2632C58.8108 15.4936 59.3358 15.7109 59.723 16.0971C60.1102 16.4833 60.328 17.007 60.3286 17.5532V18.1676L60.3248 18.17C59.8264 18.4901 59.2409 18.6483 58.6488 18.6228C58.0566 18.5973 57.4869 18.3895 57.0181 18.0278L54.1113 15.7805C54.1032 15.7743 54.0947 15.7691 54.0864 15.7632V15.493ZM54.0864 17.499L56.1745 19.1133C56.7563 19.5622 57.4451 19.8527 58.1733 19.9562C58.9015 20.0597 59.6442 19.9727 60.3286 19.7038V21.582C60.328 22.1282 60.1102 22.6519 59.723 23.0381C59.3358 23.4243 58.8108 23.6416 58.2632 23.6422H56.1519C55.6043 23.6416 55.0793 23.4243 54.692 23.0381C54.3048 22.6519 54.087 22.1282 54.0864 21.582V17.499ZM58.9517 24.9465V26.3562H55.9164C55.7649 26.3565 55.6136 26.3666 55.4634 26.3864V24.9464C55.69 24.9924 55.9206 25.0156 56.1519 25.0155H58.2632C58.4944 25.0156 58.7251 24.9925 58.9517 24.9465ZM54.4552 28.3337C54.6466 28.1416 54.8743 27.9893 55.1251 27.8856C55.3759 27.7819 55.6449 27.7289 55.9164 27.7296H59.1801C59.9711 27.7305 60.7294 28.0444 61.2887 28.6022C61.848 29.1601 62.1626 29.9165 62.1635 30.7055V39.6787C62.1629 40.2249 61.9451 40.7485 61.5579 41.1348C61.1707 41.521 60.6457 41.7382 60.0981 41.7388H50.5981V38.8708C51.0005 38.7284 51.3489 38.4653 51.5954 38.1176C51.8419 37.7699 51.9746 37.3546 51.9751 36.9287V35.7112C52.09 35.6338 52.1971 35.5456 52.2952 35.4478L55.6323 32.121C55.7605 31.9921 55.8323 31.8177 55.832 31.6361C55.8316 31.4545 55.7592 31.2804 55.6305 31.152C55.5018 31.0235 55.3273 30.9511 55.1452 30.9507C54.9632 30.9502 54.7883 31.0217 54.659 31.1495L53.5725 32.2327L52.1205 30.6645L54.4552 28.3337ZM44.4176 33.1318H49.3639C49.4544 33.1318 49.544 33.114 49.6276 33.0795C49.7111 33.0449 49.7871 32.9943 49.851 32.9304L51.1464 31.637L52.5978 33.2044L51.3218 34.4764C51.191 34.6073 51.0176 34.687 50.8329 34.7012H42.2609C42.4079 34.2458 42.6959 33.8486 43.0834 33.5666C43.4709 33.2846 43.938 33.1324 44.4176 33.1318ZM31.0026 16.9871C31.0031 16.5593 31.1737 16.1491 31.477 15.8466C31.7803 15.5441 32.1915 15.3739 32.6204 15.3734H37.3305V18.8142C36.7554 19.0161 36.1375 19.0647 35.5378 18.9552C35.1994 18.881 34.8741 18.757 34.5724 18.5871C34.1715 18.366 33.7398 18.2056 33.2915 18.111C32.527 17.9726 31.7398 18.0284 31.0026 18.2733V16.9871ZM31.0026 19.7309C31.7388 19.4308 32.4178 19.3391 33.0252 19.4585C33.3493 19.5299 33.661 19.6491 33.9498 19.8123C34.3623 20.0391 34.8062 20.2041 35.267 20.3018C35.9507 20.4343 36.6554 20.414 37.3304 20.2424V21.9803C37.3304 22.8173 36.997 23.62 36.4037 24.2118C35.8104 24.8036 35.0056 25.1361 34.1665 25.1361C33.3274 25.1361 32.5227 24.8036 31.9293 24.2118C31.336 23.62 31.0026 22.8173 31.0026 21.9803V19.7309ZM36.3288 27.8253C34.9409 28.3781 33.393 28.3773 32.0056 27.8232C32.2475 27.4775 32.3769 27.0661 32.3765 26.6445V26.1422C32.9419 26.3846 33.551 26.5097 34.1665 26.5097C34.782 26.5097 35.3911 26.3846 35.9565 26.1422V26.6445C35.9561 27.0669 36.086 27.4792 36.3288 27.8253ZM26.1802 31.6215C26.179 31.1838 26.3181 30.7572 26.5773 30.4039C26.8364 30.0506 27.202 29.7892 27.6207 29.6579L30.6454 28.7001C31.7214 29.2982 32.9327 29.6124 34.1646 29.6129C34.216 29.6129 34.2679 29.6124 34.3201 29.6113C35.5003 29.5854 36.6563 29.2727 37.6878 28.7002L40.7124 29.658C41.131 29.7893 41.4965 30.0507 41.7556 30.4039C42.0148 30.7571 42.154 31.1837 42.1528 31.6215V32.5494C41.4731 33.088 41.0084 33.8511 40.8425 34.7011H39.3989V33.1653C39.3989 32.9832 39.3264 32.8085 39.1973 32.6797C39.0682 32.5509 38.893 32.4786 38.7104 32.4786C38.5279 32.4786 38.3527 32.5509 38.2236 32.6797C38.0945 32.8085 38.022 32.9832 38.022 33.1653V34.7011H30.311V33.1653C30.311 32.9832 30.2385 32.8085 30.1094 32.6797C29.9803 32.5509 29.8052 32.4786 29.6226 32.4786C29.44 32.4786 29.2648 32.5509 29.1357 32.6797C29.0066 32.8085 28.9341 32.9832 28.9341 33.1653V34.7011H26.1802V31.6215ZM49.2212 59.4612C49.2212 59.4733 49.2164 59.485 49.2077 59.4936C49.1991 59.5021 49.1875 59.507 49.1753 59.507H47.652L46.7458 56.7952C46.609 56.3848 46.3461 56.0278 45.9943 55.775C45.6426 55.5221 45.2199 55.3862 44.7863 55.3866H27.494C27.0604 55.3862 26.6377 55.5221 26.2859 55.775C25.9341 56.0279 25.6712 56.3849 25.5345 56.7953L24.6283 59.507H23.105C23.0928 59.507 23.0811 59.5021 23.0725 59.4936C23.0639 59.485 23.0591 59.4733 23.0591 59.4612V38.9889H49.2212V59.4612ZM49.9097 37.6155H22.3706C22.1881 37.6153 22.0131 37.5429 21.884 37.4141C21.7549 37.2854 21.6823 37.1108 21.6821 36.9287V36.0746H41.404C41.4239 36.0764 41.444 36.0777 41.4644 36.0777H50.5981V36.9287C50.5979 37.1108 50.5254 37.2854 50.3963 37.4141C50.2672 37.5429 50.0922 37.6153 49.9097 37.6155ZM60.3285 59.6265H58.5936L56.952 46.8663H58.7207L60.3285 59.6265ZM65.9282 40.6858C65.9268 41.9602 65.4185 43.1821 64.5151 44.0833C63.6116 44.9845 62.3866 45.4914 61.1089 45.4928H50.5981V43.1122H60.0982C61.0109 43.1112 61.8859 42.7491 62.5312 42.1054C63.1766 41.4617 63.5396 40.5889 63.5406 39.6786V33.2101C64.2185 33.3661 64.8236 33.7464 65.2571 34.2892C65.6907 34.832 65.9272 35.5052 65.9282 36.1992V40.6858Z" fill="#303030"/>
<path d="M96.1892 30.353C95.8402 30.353 95.546 30.2861 95.3066 30.1522C95.0712 30.0183 94.8764 29.8499 94.7222 29.647C94.637 29.7565 94.5457 29.8559 94.4483 29.9452C94.3509 30.0304 94.2353 30.1035 94.1014 30.1643C93.9715 30.2293 93.8173 30.278 93.6387 30.3104C93.4643 30.3429 93.2553 30.3591 93.0118 30.3591C92.8414 30.3591 92.6851 30.347 92.5431 30.3226C92.4011 30.2983 92.2712 30.2678 92.1535 30.2313C92.1495 30.7061 92.0764 31.1383 91.9344 31.5278C91.7964 31.9174 91.6057 32.2664 91.3622 32.5748C91.1228 32.8832 90.8408 33.151 90.5161 33.3783C90.1915 33.6055 89.8425 33.7922 89.4692 33.9383C89.0958 34.0884 88.7043 34.2 88.2944 34.273C87.8886 34.3461 87.4848 34.3826 87.0831 34.3826C86.4622 34.3826 85.888 34.2791 85.3605 34.0722C84.8329 33.8693 84.3764 33.5812 83.9909 33.2078C83.6095 32.8386 83.3112 32.3922 83.0961 31.8687C82.8811 31.3493 82.7735 30.7751 82.7735 30.1461C82.7857 29.7809 82.8344 29.4075 82.9196 29.0261C83.0089 28.6446 83.1205 28.2713 83.2544 27.9061C83.3924 27.5409 83.5445 27.1939 83.7109 26.8652C83.8814 26.5325 84.0538 26.2342 84.2283 25.9704L85.5553 26.987C85.4092 27.2264 85.2692 27.48 85.1353 27.7478C85.0014 28.0157 84.8837 28.2875 84.7822 28.5635C84.6848 28.8354 84.6057 29.1093 84.5448 29.3852C84.484 29.6612 84.4535 29.927 84.4535 30.1826C84.4414 30.491 84.5002 30.7812 84.6301 31.053C84.764 31.329 84.9486 31.5684 85.184 31.7713C85.4234 31.9783 85.7034 32.1406 86.024 32.2583C86.3445 32.38 86.6895 32.4409 87.0587 32.4409C87.3387 32.4409 87.6167 32.4206 87.8927 32.38C88.1727 32.3435 88.4385 32.2806 88.6901 32.1913C88.9457 32.1061 89.1831 31.9945 89.4022 31.8565C89.6214 31.7226 89.8101 31.5583 89.9683 31.3635C90.1306 31.1687 90.2564 30.9414 90.3457 30.6817C90.439 30.4261 90.4857 30.1339 90.4857 29.8052C90.4857 29.5617 90.4492 29.3081 90.3761 29.0443C90.3031 28.7765 90.2057 28.5046 90.084 28.2287C89.9663 27.9487 89.8303 27.6646 89.6761 27.3765C89.526 27.0884 89.3698 26.8003 89.2074 26.5122L90.8935 25.6113C91.0396 25.9603 91.1918 26.3032 91.3501 26.64C91.5083 26.9768 91.6727 27.2791 91.8431 27.547C92.0135 27.8107 92.1901 28.0238 92.3727 28.1861C92.5553 28.3443 92.744 28.4194 92.9387 28.4113C93.1011 28.4072 93.2289 28.3626 93.3222 28.2774C93.4196 28.1922 93.4947 28.0806 93.5474 27.9426C93.6002 27.8046 93.6347 27.6464 93.6509 27.4678C93.6672 27.2893 93.6753 27.1026 93.6753 26.9078C93.6712 26.7374 93.6651 26.5629 93.657 26.3843C93.6489 26.2017 93.6428 26.0252 93.6387 25.8548L95.3674 25.6174C95.3674 25.731 95.3715 25.8812 95.3796 26.0678C95.3918 26.2504 95.4101 26.4472 95.4344 26.6583C95.4628 26.8693 95.4993 27.0823 95.544 27.2974C95.5927 27.5125 95.6535 27.7072 95.7266 27.8817C95.7996 28.0522 95.8869 28.1922 95.9883 28.3017C96.0898 28.4113 96.2095 28.4661 96.3474 28.4661C96.4814 28.4661 96.599 28.4052 96.7005 28.2835C96.806 28.1577 96.8932 27.9974 96.9622 27.8026C97.0353 27.6078 97.088 27.3928 97.1205 27.1574C97.157 26.918 97.1753 26.6846 97.1753 26.4574C97.1753 26.3681 97.1732 26.3052 97.1692 26.2687C97.1692 26.2281 97.1692 26.1936 97.1692 26.1652C97.1692 26.1328 97.1672 26.0962 97.1631 26.0557C97.1631 26.011 97.1631 25.94 97.1631 25.8426L98.8127 25.6052L98.8553 26.0861V26.08C98.8634 26.1855 98.8715 26.2829 98.8796 26.3722C98.8918 26.4614 98.904 26.5548 98.9161 26.6522C98.9283 26.7455 98.9425 26.847 98.9587 26.9565C98.975 27.0661 98.9932 27.1939 99.0135 27.34C99.0379 27.5267 99.0906 27.689 99.1718 27.827C99.2529 27.9649 99.3483 28.0806 99.4579 28.1739C99.5674 28.2632 99.6831 28.3301 99.8048 28.3748C99.9266 28.4194 100.042 28.4417 100.152 28.4417H100.225C100.375 28.4417 100.511 28.4681 100.633 28.5209C100.758 28.5696 100.866 28.6386 100.955 28.7278C101.045 28.813 101.114 28.9145 101.162 29.0322C101.211 29.1499 101.235 29.2757 101.235 29.4096C101.235 29.5435 101.211 29.6693 101.162 29.787C101.114 29.9046 101.045 30.0061 100.955 30.0913C100.866 30.1765 100.758 30.2435 100.633 30.2922C100.507 30.3449 100.367 30.3713 100.213 30.3713C99.7582 30.3713 99.3585 30.2983 99.0135 30.1522C98.6686 30.0101 98.3744 29.7809 98.1309 29.4643C97.9118 29.7443 97.6379 29.9614 97.3092 30.1157C96.9805 30.2739 96.6072 30.353 96.1892 30.353ZM99.2051 29.4035C99.2051 29.2696 99.2315 29.1438 99.2843 29.0261C99.333 28.9084 99.3999 28.807 99.4851 28.7217C99.5703 28.6325 99.6718 28.5635 99.7895 28.5148C99.9072 28.4661 100.033 28.4417 100.167 28.4417H100.794H101.068C101.218 28.4417 101.374 28.4357 101.536 28.4235C101.703 28.4113 101.857 28.387 101.999 28.3504C102.145 28.3139 102.273 28.2632 102.383 28.1983C102.496 28.1333 102.577 28.0461 102.626 27.9365C102.658 27.8635 102.675 27.7539 102.675 27.6078C102.675 27.5104 102.646 27.3643 102.589 27.1696C102.533 26.9748 102.458 26.7597 102.364 26.5243C102.271 26.2849 102.165 26.0354 102.048 25.7757C101.93 25.5159 101.81 25.2704 101.689 25.0391L103.429 24.1748C103.543 24.4304 103.655 24.7023 103.764 24.9904C103.878 25.2786 103.979 25.5707 104.069 25.867C104.158 26.1632 104.229 26.4594 104.282 26.7557C104.338 27.0478 104.367 27.3278 104.367 27.5957C104.367 28.0055 104.294 28.3809 104.148 28.7217C103.977 29.1032 103.744 29.4197 103.448 29.6713C103.152 29.9188 102.796 30.1014 102.383 30.2191C102.139 30.2881 101.906 30.3287 101.683 30.3409C101.459 30.3571 101.25 30.3652 101.056 30.3652H100.222H100.167C100.033 30.3652 99.9072 30.3409 99.7895 30.2922C99.6718 30.2435 99.5703 30.1745 99.4851 30.0852C99.3999 30 99.333 29.8986 99.2843 29.7809C99.2315 29.6632 99.2051 29.5374 99.2051 29.4035ZM102.218 20.7357L103.569 22.087L102.218 23.4383L100.867 22.087L102.218 20.7357ZM105.269 30.3835C105.29 30.0507 105.31 29.7058 105.33 29.3487C105.351 28.9916 105.367 28.6386 105.379 28.2896C105.395 27.9406 105.405 27.6017 105.409 27.273C105.413 26.9443 105.409 26.642 105.397 26.3661C105.373 25.7899 105.349 25.2846 105.324 24.8504C105.304 24.4122 105.282 24.0246 105.257 23.6878C105.237 23.351 105.215 23.0568 105.19 22.8052C105.17 22.5496 105.148 22.3162 105.123 22.1052C105.099 21.8942 105.073 21.6974 105.044 21.5148C105.016 21.3281 104.985 21.1354 104.953 20.9365L106.834 20.3157C106.923 20.8594 106.994 21.4072 107.047 21.9591C107.104 22.511 107.146 23.0406 107.175 23.5478C107.203 24.051 107.221 24.5197 107.229 24.9539C107.242 25.3881 107.248 25.7594 107.248 26.0678C107.248 26.3478 107.246 26.6501 107.242 26.9748C107.242 27.2994 107.238 27.6362 107.229 27.9852C107.225 28.3342 107.217 28.6872 107.205 29.0443C107.193 29.4014 107.175 29.7504 107.15 30.0913L105.269 30.3835ZM111.806 25.9035C111.96 26.3417 112.094 26.7699 112.207 27.1878C112.256 27.3704 112.305 27.5612 112.353 27.76C112.402 27.9548 112.445 28.1516 112.481 28.3504C112.522 28.5452 112.554 28.738 112.579 28.9287C112.603 29.1154 112.615 29.2899 112.615 29.4522C112.615 29.8336 112.562 30.2049 112.457 30.5661C112.356 30.9313 112.209 31.2843 112.019 31.6252C111.832 31.9661 111.609 32.2928 111.349 32.6052C111.089 32.9217 110.801 33.218 110.485 33.4939C110.168 33.7699 109.829 34.0255 109.468 34.2609C109.107 34.5003 108.734 34.7154 108.348 34.9061L107.24 33.3661C107.533 33.22 107.827 33.0536 108.123 32.867C108.423 32.6843 108.709 32.4875 108.981 32.2765C109.257 32.0655 109.513 31.8443 109.748 31.613C109.988 31.3817 110.195 31.1464 110.369 30.907C110.548 30.6675 110.688 30.4241 110.789 30.1765C110.891 29.933 110.941 29.6936 110.941 29.4583C110.941 29.2878 110.917 29.1032 110.868 28.9043C110.824 28.7055 110.761 28.4925 110.68 28.2652C110.602 28.0339 110.509 27.7904 110.4 27.5348C110.29 27.2751 110.172 26.9991 110.047 26.707L111.806 25.9035ZM112.956 23.5843L111.787 24.7591L110.631 23.6026L109.487 24.747L108.306 23.5722L109.474 22.3974L110.631 23.5539L111.775 22.4096L112.956 23.5843ZM109.547 21.8191L110.631 20.7357L111.72 21.8252L110.637 22.9087L109.547 21.8191ZM114.672 30.3835C114.692 30.071 114.71 29.7443 114.727 29.4035C114.747 29.0626 114.763 28.7258 114.775 28.393C114.788 28.0603 114.798 27.7377 114.806 27.4252C114.814 27.1087 114.818 26.8206 114.818 26.5609C114.818 25.8832 114.808 25.3009 114.788 24.8139C114.767 24.327 114.743 23.911 114.715 23.5661C114.686 23.2171 114.654 22.927 114.617 22.6957C114.585 22.4603 114.554 22.2533 114.526 22.0748L114.447 21.6122L116.34 21.0096C116.356 21.0664 116.37 21.1191 116.382 21.1678C116.395 21.2165 116.405 21.2754 116.413 21.3443C116.425 21.4093 116.437 21.4904 116.449 21.5878C116.466 21.6852 116.482 21.813 116.498 21.9713C116.514 22.1296 116.532 22.3223 116.553 22.5496C116.577 22.7768 116.606 23.0548 116.638 23.3835C116.658 23.7 116.675 23.9841 116.687 24.2357C116.703 24.4872 116.715 24.7328 116.723 24.9722C116.731 25.2116 116.737 25.4591 116.741 25.7148C116.746 25.9664 116.748 26.2525 116.748 26.573C116.748 27.1006 116.739 27.6606 116.723 28.253C116.707 28.8414 116.677 29.4603 116.632 30.1096L114.672 30.3835ZM113.047 20.6383C113.047 20.6139 113.061 20.5693 113.089 20.5043C113.114 20.4354 113.144 20.3623 113.181 20.2852C113.213 20.2081 113.246 20.1371 113.278 20.0722C113.31 20.0032 113.333 19.9586 113.345 19.9383C113.491 19.7151 113.661 19.5325 113.856 19.3904C114.055 19.2484 114.252 19.1551 114.447 19.1104C114.487 19.1023 114.538 19.0983 114.599 19.0983C114.66 19.0942 114.708 19.0922 114.745 19.0922C114.94 19.0922 115.116 19.1165 115.275 19.1652C115.433 19.2099 115.575 19.2606 115.701 19.3174L115.889 19.4087C115.958 19.4412 116.027 19.4716 116.096 19.5C116.165 19.5243 116.238 19.5386 116.315 19.5426C116.38 19.5467 116.447 19.5304 116.516 19.4939C116.585 19.4574 116.652 19.4087 116.717 19.3478C116.786 19.2829 116.851 19.2119 116.912 19.1348C116.977 19.0577 117.038 18.9806 117.095 18.9035L118.044 19.5183C118.04 19.5304 118.018 19.569 117.977 19.6339C117.937 19.6948 117.878 19.7699 117.801 19.8591C117.728 19.9484 117.638 20.0438 117.533 20.1452C117.431 20.2426 117.316 20.3339 117.186 20.4191C117.056 20.5003 116.914 20.5672 116.76 20.62C116.61 20.6728 116.449 20.6971 116.279 20.693C116.153 20.7012 116.025 20.6768 115.895 20.62C115.766 20.5591 115.632 20.4962 115.494 20.4313C115.36 20.3623 115.222 20.3055 115.08 20.2609C114.938 20.2122 114.79 20.2041 114.635 20.2365C114.542 20.2568 114.465 20.2933 114.404 20.3461C114.347 20.3948 114.299 20.4536 114.258 20.5226C114.217 20.5875 114.183 20.6586 114.155 20.7357C114.126 20.8128 114.096 20.8878 114.063 20.9609L113.047 20.6383ZM90.1201 51.4113C90.2175 51.4154 90.3149 51.4194 90.4122 51.4235C90.5137 51.4235 90.6091 51.4235 90.6983 51.4235C91.0189 51.4235 91.3253 51.4113 91.6175 51.387C91.9096 51.3626 92.1795 51.3301 92.427 51.2896C92.6746 51.249 92.8917 51.2064 93.0783 51.1617C93.2691 51.113 93.4212 51.0664 93.5349 51.0217H93.5288C93.7398 50.9325 93.894 50.8533 93.9914 50.7843C94.0888 50.7154 94.1537 50.6626 94.1862 50.6261C94.247 50.5571 94.2896 50.4861 94.314 50.413C94.3424 50.3359 94.3566 50.2568 94.3566 50.1757C94.3566 50.0012 94.2896 49.8145 94.1557 49.6157C94.0218 49.4128 93.8493 49.2078 93.6383 49.0009C93.4314 48.7939 93.2001 48.587 92.9444 48.38C92.6928 48.173 92.4473 47.9742 92.2079 47.7835L90.9357 46.7365L91.1366 44.9348L96.627 42.5426L97.3818 44.3322L93.0905 46.1643C93.3178 46.3551 93.547 46.5519 93.7783 46.7548C94.0137 46.9577 94.2389 47.1667 94.454 47.3817C94.6691 47.5928 94.8699 47.8099 95.0566 48.033C95.2473 48.2522 95.4117 48.4774 95.5496 48.7087C95.6917 48.9359 95.8033 49.1672 95.8844 49.4026C95.9656 49.638 96.0062 49.8774 96.0062 50.1209C96.0062 50.3887 95.9595 50.6606 95.8662 50.9365C95.7769 51.2125 95.6288 51.4965 95.4218 51.7887H95.4279C95.4035 51.8252 95.3609 51.878 95.3001 51.947C95.2433 52.0159 95.1641 52.093 95.0627 52.1783C94.9653 52.2635 94.8435 52.3548 94.6975 52.4522C94.5514 52.5455 94.3789 52.6388 94.1801 52.7322C93.6201 52.9797 93.056 53.1461 92.4879 53.2313C91.9198 53.3165 91.3415 53.3591 90.7531 53.3591H90.6253C90.5401 53.3591 90.4528 53.3591 90.3635 53.3591C90.2743 53.3591 90.187 53.3551 90.1018 53.347C89.343 53.3388 88.6633 53.2901 88.0627 53.2009C87.4621 53.1157 86.9346 52.9878 86.4801 52.8174C85.5589 52.4603 84.9259 51.9368 84.5809 51.247V51.253C84.3862 50.8757 84.2888 50.4577 84.2888 49.9991C84.2888 49.8003 84.3131 49.5852 84.3618 49.3539C84.4105 49.1226 84.4734 48.8974 84.5505 48.6783C84.5992 48.5646 84.6398 48.4693 84.6722 48.3922C84.7088 48.3151 84.7433 48.2441 84.7757 48.1791C84.8082 48.1142 84.8447 48.0493 84.8853 47.9843C84.9259 47.9194 84.9766 47.8403 85.0375 47.747L86.4801 48.8C86.4233 48.9014 86.3604 49.0049 86.2914 49.1104C86.2264 49.2159 86.1656 49.3235 86.1088 49.433C86.056 49.5426 86.0114 49.6542 85.9749 49.7678C85.9383 49.8814 85.9201 49.9951 85.9201 50.1087C85.9201 50.267 85.9749 50.409 86.0844 50.5348C86.198 50.6565 86.3522 50.7641 86.547 50.8574C86.7459 50.9467 86.9772 51.0238 87.2409 51.0887C87.5088 51.1536 87.7969 51.2084 88.1053 51.253C88.4178 51.2977 88.7444 51.3322 89.0853 51.3565C89.4262 51.3809 89.7691 51.3991 90.114 51.4113H90.1201ZM105.593 51.2713C105.703 51.3322 105.816 51.3748 105.934 51.3991C106.056 51.4194 106.175 51.4336 106.293 51.4417C106.423 51.4417 106.547 51.4681 106.664 51.5209C106.782 51.5696 106.883 51.6365 106.969 51.7217C107.058 51.807 107.129 51.9084 107.182 52.0261C107.234 52.1438 107.261 52.2696 107.261 52.4035C107.261 52.5374 107.234 52.6632 107.182 52.7809C107.129 52.8986 107.058 53 106.969 53.0852C106.883 53.1745 106.782 53.2435 106.664 53.2922C106.547 53.3409 106.423 53.3652 106.293 53.3652H106.238C106.133 53.3652 105.997 53.3591 105.83 53.347C105.668 53.3348 105.492 53.3003 105.301 53.2435C105.11 53.1907 104.915 53.1096 104.717 53C104.518 52.8945 104.331 52.7443 104.157 52.5496C103.921 52.7728 103.659 52.9635 103.371 53.1217C103.087 53.28 102.785 53.4099 102.464 53.5113C102.144 53.6168 101.813 53.6939 101.472 53.7426C101.131 53.7913 100.788 53.8157 100.443 53.8157C100.249 53.8157 100.042 53.8035 99.8226 53.7791C99.6075 53.7588 99.3661 53.7203 99.0983 53.6635L99.64 51.8496C99.8267 51.8739 100.003 51.8942 100.17 51.9104C100.34 51.9226 100.496 51.9287 100.638 51.9287C100.768 51.9287 100.898 51.9226 101.028 51.9104C101.158 51.8983 101.286 51.8759 101.411 51.8435C101.29 51.4052 101.143 50.9751 100.973 50.553C100.803 50.127 100.618 49.7171 100.419 49.3235C100.22 48.9299 100.015 48.5545 99.8043 48.1974C99.5933 47.8403 99.3843 47.5096 99.1774 47.2052C98.9745 46.9009 98.7797 46.6249 98.593 46.3774C98.4104 46.1258 98.2481 45.9107 98.1061 45.7322L99.4756 44.3139L101.143 46.9983C101.338 47.3513 101.523 47.7104 101.697 48.0757C101.876 48.4409 102.04 48.802 102.19 49.1591C102.345 49.5122 102.481 49.8551 102.598 50.1878C102.72 50.5206 102.821 50.829 102.903 51.113C103.061 50.9832 103.199 50.8371 103.317 50.6748C103.438 50.5125 103.501 50.3461 103.505 50.1757C103.461 49.5467 103.406 48.9339 103.341 48.3374C103.276 47.7368 103.207 47.1626 103.134 46.6148C103.065 46.067 102.994 45.5496 102.921 45.0626C102.848 44.5757 102.781 44.1293 102.72 43.7235L104.607 43.3704C104.607 43.3786 104.613 43.4496 104.625 43.5835C104.641 43.7133 104.662 43.8939 104.686 44.1252C104.714 44.3525 104.745 44.6223 104.777 44.9348C104.81 45.2432 104.844 45.578 104.881 45.9391C104.921 46.2962 104.96 46.6716 104.997 47.0652C105.037 47.4548 105.074 47.8484 105.106 48.2461C105.143 48.6397 105.175 49.0293 105.203 49.4148C105.236 49.7962 105.262 50.1574 105.283 50.4983C105.295 50.6809 105.331 50.8452 105.392 50.9913C105.457 51.1333 105.524 51.2267 105.593 51.2713ZM105.276 52.4035C105.276 52.2696 105.301 52.1458 105.349 52.0322C105.398 51.9186 105.465 51.8191 105.55 51.7339C105.635 51.6487 105.737 51.5817 105.855 51.533C105.968 51.4803 106.092 51.4499 106.226 51.4417C106.498 51.4417 106.733 51.389 106.932 51.2835C107.135 51.178 107.313 51.04 107.468 50.8696C107.622 50.6991 107.76 50.5084 107.881 50.2974C108.003 50.0864 108.119 49.8754 108.228 49.6643V49.6704C108.334 49.4513 108.446 49.2342 108.563 49.0191C108.685 48.8041 108.817 48.6052 108.959 48.4226C109.178 48.167 109.424 47.9701 109.695 47.8322C109.967 47.6901 110.257 47.6191 110.566 47.6191C110.931 47.6191 111.262 47.6942 111.558 47.8443C111.858 47.9945 112.13 48.2096 112.374 48.4896C112.556 48.7087 112.704 48.9603 112.818 49.2443C112.932 49.5243 113.007 49.8226 113.043 50.1391V50.127C113.068 50.2852 113.08 50.4658 113.08 50.6687C113.08 50.8878 113.059 51.1029 113.019 51.3139C112.982 51.5209 112.93 51.7177 112.861 51.9043C112.727 52.2452 112.534 52.5313 112.282 52.7626C112.035 52.9899 111.765 53.1461 111.473 53.2313C111.375 53.2597 111.278 53.278 111.181 53.2861C111.087 53.2983 110.988 53.3043 110.882 53.3043C110.7 53.3043 110.505 53.282 110.298 53.2374C110.095 53.1928 109.894 53.1319 109.695 53.0548C109.614 53.0183 109.523 52.9757 109.421 52.927C109.32 52.8742 109.213 52.8174 109.099 52.7565C108.989 52.6957 108.88 52.6328 108.77 52.5678C108.661 52.5029 108.559 52.44 108.466 52.3791C108.304 52.5293 108.141 52.6652 107.979 52.787C107.817 52.9087 107.646 53.0122 107.468 53.0974C107.289 53.1826 107.098 53.2475 106.895 53.2922C106.693 53.3409 106.471 53.3652 106.232 53.3652C106.098 53.3652 105.974 53.3388 105.861 53.2861C105.743 53.2374 105.641 53.1704 105.556 53.0852C105.467 53 105.398 52.8986 105.349 52.7809C105.301 52.6632 105.276 52.5374 105.276 52.4035ZM109.592 50.8026C109.718 50.8838 109.866 50.9629 110.036 51.04C110.211 51.1171 110.383 51.1861 110.554 51.247C110.724 51.3078 110.88 51.3586 111.022 51.3991C111.168 51.4357 111.278 51.4539 111.351 51.4539C111.367 51.4539 111.384 51.4539 111.4 51.4539C111.42 51.4499 111.44 51.4458 111.461 51.4417C111.509 51.4296 111.556 51.3687 111.601 51.2591C111.649 51.1455 111.668 50.9913 111.655 50.7965C111.655 50.6667 111.619 50.5246 111.546 50.3704C111.473 50.2122 111.377 50.0661 111.26 49.9322C111.142 49.7942 111.006 49.6806 110.852 49.5913C110.702 49.498 110.548 49.4513 110.389 49.4513C110.333 49.4513 110.259 49.5325 110.17 49.6948C110.081 49.8571 109.951 50.0986 109.781 50.4191V50.413L109.592 50.8026ZM113.931 53.3835C113.951 53.0507 113.971 52.7058 113.991 52.3487C114.012 51.9916 114.028 51.6386 114.04 51.2896C114.056 50.9406 114.066 50.6017 114.071 50.273C114.075 49.9443 114.071 49.642 114.058 49.3661C114.034 48.7899 114.01 48.2846 113.985 47.8504C113.965 47.4122 113.943 47.0246 113.918 46.6878C113.898 46.351 113.876 46.0568 113.851 45.8052C113.831 45.5496 113.809 45.3162 113.784 45.1052C113.76 44.8942 113.734 44.6974 113.705 44.5148C113.677 44.3281 113.646 44.1354 113.614 43.9365L115.495 43.3157C115.584 43.8594 115.655 44.4072 115.708 44.9591C115.765 45.511 115.807 46.0406 115.836 46.5478C115.864 47.051 115.882 47.5197 115.891 47.9539C115.903 48.3881 115.909 48.7594 115.909 49.0678C115.909 49.3478 115.907 49.6501 115.903 49.9748C115.903 50.2994 115.899 50.6362 115.891 50.9852C115.886 51.3342 115.878 51.6872 115.866 52.0443C115.854 52.4014 115.836 52.7504 115.811 53.0913L113.931 53.3835Z" fill="#303030"/>
<defs>
<linearGradient id="paint0_linear_1325_10478" x1="4.96838" y1="5.2" x2="135.389" y2="64.7894" gradientUnits="userSpaceOnUse">
<stop stop-color="#EAEAEA"/>
<stop offset="1" stop-color="#BDBDBD"/>
</linearGradient>
</defs>
</svg>
