<svg width="18" height="18" viewBox="0 0 18 18" fill="none" xmlns="http://www.w3.org/2000/svg">
<circle cx="9" cy="9" r="8.80435" stroke="#C0C0C0" stroke-opacity="0.8" stroke-width="0.391304"/>
<path fill-rule="evenodd" clip-rule="evenodd" d="M1.56543 9.00003C1.56569 5.45328 4.07131 2.40062 7.54998 1.70892C11.0286 1.01721 14.5115 2.87912 15.8686 6.15597C17.2257 9.43282 16.079 13.212 13.1299 15.1823C10.1807 17.1526 6.25048 16.7653 3.74266 14.2572C2.34846 12.8629 1.56529 10.9718 1.56543 9.00003Z" stroke="url(#paint0_linear_4933_1764)" stroke-width="1.36957" stroke-linecap="round" stroke-linejoin="round"/>
<path d="M6.21191 8.31504C5.83372 8.31504 5.52713 8.62163 5.52713 8.99982C5.52713 9.37802 5.83372 9.6846 6.21191 9.6846V8.31504ZM8.99983 9.6846C9.37803 9.6846 9.68462 9.37802 9.68462 8.99982C9.68462 8.62163 9.37803 8.31504 8.99983 8.31504V9.6846ZM8.99977 8.31504C8.62157 8.31504 8.31498 8.62163 8.31498 8.99982C8.31498 9.37802 8.62157 9.6846 8.99977 9.6846V8.31504ZM11.7877 9.6846C12.1659 9.6846 12.4725 9.37802 12.4725 8.99982C12.4725 8.62163 12.1659 8.31504 11.7877 8.31504V9.6846ZM9.68442 8.99977C9.68442 8.62157 9.37783 8.31498 8.99963 8.31498C8.62144 8.31498 8.31485 8.62157 8.31485 8.99977H9.68442ZM8.31485 11.7877C8.31485 12.1659 8.62144 12.4724 8.99963 12.4724C9.37783 12.4724 9.68442 12.1659 9.68442 11.7877H8.31485ZM8.31485 8.99981C8.31485 9.37801 8.62144 9.6846 8.99963 9.6846C9.37783 9.6846 9.68442 9.37801 9.68442 8.99981H8.31485ZM9.68442 6.21191C9.68442 5.83372 9.37783 5.52713 8.99963 5.52713C8.62144 5.52713 8.31485 5.83372 8.31485 6.21191H9.68442ZM6.21191 9.6846H8.99983V8.31504H6.21191V9.6846ZM8.99977 9.6846H11.7877V8.31504H8.99977V9.6846ZM8.31485 8.99977V11.7877H9.68442V8.99977H8.31485ZM9.68442 8.99981V6.21191H8.31485V8.99981H9.68442Z" fill="url(#paint1_linear_4933_1764)"/>
<defs>
<linearGradient id="paint0_linear_4933_1764" x1="1.56543" y1="1.56543" x2="16.4351" y2="16.4351" gradientUnits="userSpaceOnUse">
<stop stop-color="#4C8CED"/>
<stop offset="1" stop-color="#36D859"/>
</linearGradient>
<linearGradient id="paint1_linear_4933_1764" x1="6.21191" y1="6.21191" x2="11.7877" y2="11.7876" gradientUnits="userSpaceOnUse">
<stop stop-color="#4C8CED"/>
<stop offset="1" stop-color="#36D859"/>
</linearGradient>
</defs>
</svg>
