<svg width="147" height="90" viewBox="0 0 147 90" fill="none" xmlns="http://www.w3.org/2000/svg">
<rect x="0.75" y="0.75" width="145.5" height="88.5" rx="9.25" fill="white" stroke="url(#paint0_linear_1325_9350)" stroke-width="1.5"/>
<path fill-rule="evenodd" clip-rule="evenodd" d="M30.992 31.1272H22.1247C21.7222 31.1272 21.3369 31.303 21.0557 31.614C20.0186 32.7626 16.0561 37.1496 13.8919 39.546C13.4717 40.011 13.3505 40.7032 13.5837 41.3025C13.817 41.9019 14.3597 42.2917 14.961 42.2917H25.7474C26.0961 42.2917 26.379 41.9852 26.379 41.6086C26.379 41.2315 26.0961 40.9254 25.7474 40.9254H14.961C14.8679 40.9254 14.7841 40.8649 14.7479 40.7724C14.7117 40.6795 14.7307 40.5725 14.7955 40.5005L21.9593 32.569C22.0026 32.5208 22.0624 32.4934 22.1247 32.4934H30.992C31.3407 32.4934 31.6236 32.1874 31.6236 31.8103C31.6236 31.4332 31.3407 31.1272 30.992 31.1272Z" fill="#303030"/>
<path fill-rule="evenodd" clip-rule="evenodd" d="M15.3735 64.5H28.2728C28.6214 64.5 28.9044 64.1939 28.9044 63.8168C28.9044 63.4397 28.6214 63.1337 28.2728 63.1337H15.3735C15.0253 63.1337 14.7419 63.4397 14.7419 63.8168C14.7419 64.1939 15.0253 64.5 15.3735 64.5ZM14.7419 41.6085V58.2753C14.7419 58.6524 15.0253 58.9585 15.3735 58.9585C15.7221 58.9585 16.0051 58.6524 16.0051 58.2753V41.6085C16.0051 41.2315 15.7221 40.9254 15.3735 40.9254C15.0253 40.9254 14.7419 41.2315 14.7419 41.6085ZM25.2834 49.6074C25.2834 48.6634 24.9364 47.7585 24.3196 47.0908C23.7023 46.4236 22.8657 46.0484 21.9928 46.0484C21.9625 46.0484 21.9322 46.0484 21.9015 46.0484C21.0291 46.0484 20.192 46.4236 19.5752 47.0908C18.9579 47.7585 18.6114 48.6634 18.6114 49.6074C18.6114 51.4296 18.6114 53.6684 18.6114 54.9057C18.6114 55.7983 19.2804 56.522 20.1057 56.522H23.7891C24.6143 56.522 25.2834 55.7983 25.2834 54.9057V49.6074ZM24.0202 49.6074V54.9057C24.0202 55.0437 23.9166 55.1558 23.7891 55.1558H20.1057C19.9781 55.1558 19.8745 55.0437 19.8745 54.9057V49.6074C19.8745 49.0259 20.088 48.468 20.4682 48.0568C20.8484 47.6455 21.3638 47.4146 21.9015 47.4146H21.9928C22.5305 47.4146 23.0463 47.6455 23.4265 48.0568C23.8063 48.468 24.0202 49.0259 24.0202 49.6074Z" fill="#303030"/>
<path fill-rule="evenodd" clip-rule="evenodd" d="M19.2427 52.4912H24.6515C25.0001 52.4912 25.283 52.1852 25.283 51.8081C25.283 51.431 25.0001 51.125 24.6515 51.125H19.2427C18.894 51.125 18.6111 51.431 18.6111 51.8081C18.6111 52.1852 18.894 52.4912 19.2427 52.4912Z" fill="#303030"/>
<path fill-rule="evenodd" clip-rule="evenodd" d="M22.5793 55.1917V46.7315C22.5793 46.3544 22.2964 46.0484 21.9477 46.0484C21.5991 46.0484 21.3162 46.3544 21.3162 46.7315V55.1917C21.3162 55.5688 21.5991 55.8749 21.9477 55.8749C22.2964 55.8749 22.5793 55.5688 22.5793 55.1917ZM28.2732 64.5H47.2137C47.5623 64.5 47.8453 64.1939 47.8453 63.8168C47.8453 63.4397 47.5623 63.1337 47.2137 63.1337H28.2732C27.9245 63.1337 27.6416 63.4397 27.6416 63.8168C27.6416 64.1939 27.9245 64.5 28.2732 64.5ZM27.6416 38.8683V56.7324C27.6416 57.1095 27.9245 57.4155 28.2732 57.4155C28.6218 57.4155 28.9048 57.1095 28.9048 56.7324V38.8683C28.9048 38.4912 28.6218 38.1852 28.2732 38.1852C27.9245 38.1852 27.6416 38.4912 27.6416 38.8683ZM47.8453 47.3258V38.8683C47.8453 38.4912 47.5623 38.1852 47.2137 38.1852C46.8655 38.1852 46.5821 38.4912 46.5821 38.8683V47.3258C46.5821 47.7029 46.8655 48.0089 47.2137 48.0089C47.5623 48.0089 47.8453 47.7029 47.8453 47.3258Z" fill="#303030"/>
<path fill-rule="evenodd" clip-rule="evenodd" d="M44.096 53.1142C43.6783 53.9439 43.4294 54.96 43.4294 56.0575C43.4294 58.9603 45.1785 61.2365 47.2147 61.2365C49.2513 61.2365 51.0003 58.9603 51.0003 56.0575C51.0003 54.9604 50.7515 53.9448 50.3355 53.1142C50.3355 53.1137 50.3351 53.1133 50.3347 53.1128C50.0799 52.6068 49.9814 51.9756 50.0534 51.3613C50.0534 51.3604 50.0538 51.3594 50.0538 51.359C50.0757 51.1641 50.0875 50.9641 50.0875 50.7606C50.0875 48.576 48.7473 46.8832 47.2147 46.8832C45.6821 46.8832 44.3423 48.576 44.3423 50.7606C44.3423 50.9651 44.3541 51.1659 44.3777 51.3608C44.4497 51.9761 44.3511 52.6077 44.096 53.1142ZM45.2054 53.7677C45.581 53.0222 45.7368 52.0945 45.6307 51.1891C45.6307 51.1878 45.6303 51.1868 45.6303 51.1859C45.6134 51.0475 45.6054 50.9054 45.6054 50.7606C45.6054 49.9071 45.8816 49.1434 46.3305 48.6743C46.5797 48.4138 46.8825 48.2494 47.2147 48.2494C47.5473 48.2494 47.8501 48.4138 48.0993 48.6743C48.5482 49.1434 48.8244 49.9071 48.8244 50.7606C48.8244 50.9072 48.8159 51.0516 48.7999 51.1919C48.6943 52.0945 48.85 53.0213 49.2256 53.7668C49.549 54.4116 49.7372 55.2036 49.7372 56.0575C49.7372 57.3422 49.3136 58.4881 48.6383 59.1944C48.2378 59.6125 47.7486 59.8702 47.2147 59.8702C46.6812 59.8702 46.192 59.6125 45.7915 59.1944C45.1162 58.4881 44.6926 57.3422 44.6926 56.0575C44.6926 55.2041 44.8808 54.4125 45.2054 53.7677Z" fill="#303030"/>
<path fill-rule="evenodd" clip-rule="evenodd" d="M46.5836 53.4638V63.8168C46.5836 64.1939 46.8669 64.4999 47.2151 64.4999C47.5638 64.4999 47.8467 64.1939 47.8467 63.8168V53.4638C47.8467 53.0868 47.5638 52.7807 47.2151 52.7807C46.8669 52.7807 46.5836 53.0868 46.5836 53.4638ZM41.8185 63.8168V52.7812C41.8185 50.4331 40.0585 48.5294 37.888 48.5294C37.7929 48.5294 37.6973 48.5294 37.6021 48.5294C35.4312 48.5294 33.6716 50.4331 33.6716 52.7812C33.6716 56.8385 33.6716 58.9306 33.6716 58.9306C33.6716 59.3077 33.9546 59.6138 34.3032 59.6138C34.6514 59.6138 34.9348 59.3077 34.9348 58.9306V52.7812C34.9348 51.1877 36.1289 49.8961 37.6021 49.8957H37.8876C39.3613 49.8961 40.5554 51.1877 40.5554 52.7812V63.8168C40.5554 64.1939 40.8383 64.4999 41.187 64.4999C41.5356 64.4999 41.8185 64.1939 41.8185 63.8168Z" fill="#303030"/>
<path fill-rule="evenodd" clip-rule="evenodd" d="M35.914 54.888V55.981C35.914 56.3581 36.197 56.6641 36.5456 56.6641C36.8943 56.6641 37.1772 56.3581 37.1772 55.981V54.888C37.1772 54.5109 36.8943 54.2049 36.5456 54.2049C36.197 54.2049 35.914 54.5109 35.914 54.888ZM28.4497 39.5515C28.8345 39.5515 29.2046 39.3911 29.4825 39.1033L37.5844 30.7214C37.6736 30.629 37.8147 30.629 37.9039 30.7214L46.0058 39.1033C46.2837 39.3911 46.6538 39.5515 47.0386 39.5515H49.1679C49.7784 39.5515 50.3274 39.1498 50.5548 38.5372C50.7822 37.9243 50.642 37.2238 50.2007 36.7675C47.2083 33.6711 40.765 27.0048 38.7772 24.9481C38.1991 24.3506 37.2888 24.3506 36.7111 24.9481L25.2872 36.7675C24.8463 37.2238 24.7061 37.9243 24.9335 38.5372C25.1608 39.1498 25.7099 39.5515 26.32 39.5515H28.4497ZM28.4497 38.1852H26.32C26.2257 38.1852 26.1406 38.1233 26.1057 38.0285C26.0703 37.9338 26.0922 37.8254 26.1604 37.7544L37.5844 25.9355C37.6736 25.843 37.8147 25.843 37.9039 25.9355L49.3279 37.7544C49.3961 37.8254 49.4175 37.9338 49.3826 38.0285C49.3472 38.1233 49.2626 38.1852 49.1679 38.1852H47.0386C46.9788 38.1852 46.9216 38.1606 46.8786 38.116L38.7772 29.7341C38.1991 29.1361 37.2888 29.1361 36.7111 29.7341L28.6092 38.116C28.5663 38.1606 28.509 38.1852 28.4497 38.1852Z" fill="#303030"/>
<path fill-rule="evenodd" clip-rule="evenodd" d="M37.7436 39.1389C36.3546 39.1389 35.2266 40.359 35.2266 41.8614C35.2266 43.3643 36.3546 44.5843 37.7436 44.5843C39.1331 44.5843 40.2611 43.3643 40.2611 41.8614C40.2611 40.359 39.1331 39.1389 37.7436 39.1389ZM37.7436 40.5052C38.4358 40.5052 38.9979 41.1131 38.9979 41.8614C38.9979 42.6101 38.4358 43.2181 37.7436 43.2181C37.0514 43.2181 36.4897 42.6101 36.4897 41.8614C36.4897 41.1131 37.0514 40.5052 37.7436 40.5052ZM12.5197 64.3798C12.625 64.4581 12.7501 64.5 12.8776 64.5H21.7087C21.9311 64.5 22.1374 64.3734 22.2511 64.1667C22.4595 63.7887 22.5795 63.3474 22.5795 62.876C22.5795 61.482 21.5332 60.3503 20.2448 60.3503C20.198 60.3503 20.1517 60.3521 20.1054 60.3549C19.7791 59.3862 18.9197 58.6935 17.9113 58.6935C17.6574 58.6935 17.4128 58.7372 17.1837 58.8187C16.5412 57.9926 15.5783 57.4675 14.5029 57.4675C12.5694 57.4675 10.9998 59.1653 10.9998 61.2566C10.9998 62.5518 11.6019 63.6967 12.5197 64.3798ZM13.0873 63.1338C12.5842 62.6889 12.2629 62.013 12.2629 61.2566C12.2629 59.9195 13.2667 58.8338 14.5029 58.8338C15.3239 58.8338 16.0427 59.3133 16.4326 60.027C16.5206 60.1877 16.6658 60.3025 16.8342 60.3448C17.0027 60.3867 17.1795 60.3526 17.3239 60.2497C17.4924 60.1294 17.6945 60.0598 17.9113 60.0598C18.4919 60.0598 18.9656 60.5603 18.9824 61.1842C18.9883 61.4073 19.0949 61.6132 19.2671 61.7352C19.4397 61.8577 19.6565 61.8814 19.8481 61.7985C19.9707 61.7457 20.1045 61.7166 20.2448 61.7166C20.8359 61.7166 21.3163 62.2362 21.3163 62.876C21.3163 62.9644 21.3071 63.0509 21.2894 63.1338H13.0873ZM26.7083 64.3798C26.8136 64.4581 26.9382 64.5 27.0662 64.5H34.5158C34.7381 64.5 34.9445 64.3734 35.0581 64.1667C35.243 63.832 35.3491 63.4408 35.3491 63.0231C35.3491 61.7885 34.4224 60.7857 33.2809 60.7857C33.2636 60.7857 33.2468 60.7861 33.2299 60.7866C32.9234 59.9668 32.1798 59.388 31.3125 59.388C31.1108 59.388 30.9159 59.4194 30.7314 59.4777C30.1714 58.7887 29.3508 58.3538 28.4371 58.3538C26.7517 58.3538 25.3833 59.8339 25.3833 61.6573C25.3833 62.7863 25.9079 63.7841 26.7083 64.3798ZM27.2788 63.1338C26.8919 62.7781 26.6464 62.2485 26.6464 61.6573C26.6464 60.588 27.4485 59.72 28.4371 59.72C29.0935 59.72 29.6683 60.1035 29.9803 60.6741C30.0679 60.8349 30.2131 60.9496 30.3815 60.992C30.55 61.0339 30.7268 60.9997 30.8712 60.8968C30.998 60.8066 31.1495 60.7543 31.3125 60.7543C31.7487 60.7543 32.1045 61.1304 32.1171 61.5991C32.1234 61.8222 32.2295 62.0281 32.4022 62.1506C32.5744 62.2726 32.7912 62.2963 32.9828 62.2139C33.075 62.1738 33.1756 62.1519 33.2809 62.1519C33.7251 62.1519 34.0859 62.5422 34.0859 63.0231C34.0859 63.0605 34.0838 63.0974 34.0796 63.1338H27.2788ZM41.7705 64.5H50.368C50.7166 64.5 50.9995 64.194 50.9995 63.8169C50.9995 63.4398 50.7166 63.1338 50.368 63.1338H41.7705C41.4219 63.1338 41.139 63.4398 41.139 63.8169C41.139 64.194 41.4219 64.5 41.7705 64.5Z" fill="#303030"/>
<path d="M76.5992 31.4435C76.6236 31.4922 76.6662 31.5814 76.7271 31.7113C76.792 31.8371 76.865 31.9913 76.9462 32.1739C77.0274 32.3525 77.1126 32.5533 77.2019 32.7765C77.2911 32.9997 77.3723 33.2351 77.4453 33.4826C77.5184 33.7261 77.5772 33.9757 77.6219 34.2313C77.6705 34.4829 77.6949 34.7304 77.6949 34.9739C77.6908 35.3757 77.63 35.751 77.5123 36.1C77.3987 36.449 77.2303 36.7533 77.0071 37.013C76.7839 37.2687 76.5079 37.4716 76.1792 37.6217C75.8505 37.7719 75.4711 37.847 75.041 37.847C74.6677 37.847 74.3613 37.7841 74.1219 37.6583C73.8865 37.5325 73.6917 37.36 73.5375 37.1409C73.4523 37.2504 73.361 37.3499 73.2636 37.4391C73.1662 37.5243 73.0505 37.5974 72.9166 37.6583C72.7868 37.7232 72.6326 37.7719 72.454 37.8043C72.2795 37.8368 72.0705 37.853 71.8271 37.853C71.6566 37.853 71.5004 37.8409 71.3584 37.8165C71.2163 37.7922 71.0865 37.7617 70.9688 37.7252C70.9648 38.2 70.8917 38.6322 70.7497 39.0217C70.6117 39.4113 70.421 39.7603 70.1775 40.0687C69.9381 40.3771 69.6561 40.6449 69.3314 40.8722C69.0068 41.0994 68.6578 41.2861 68.2845 41.4322C67.9111 41.5823 67.5195 41.6939 67.1097 41.767C66.7039 41.84 66.3001 41.8765 65.8984 41.8765C65.2775 41.8765 64.7033 41.773 64.1758 41.5661C63.6482 41.3632 63.1917 41.0751 62.8062 40.7017C62.4248 40.3325 62.1265 39.8861 61.9114 39.3626C61.6963 38.8432 61.5888 38.269 61.5888 37.64C61.601 37.2748 61.6497 36.9014 61.7349 36.52C61.8242 36.1386 61.9358 35.7652 62.0697 35.4C62.2076 35.0348 62.3598 34.6878 62.5262 34.3591C62.6966 34.0264 62.8691 33.7281 63.0436 33.4643L64.3705 34.487C64.2245 34.7264 64.0824 34.98 63.9445 35.2478C63.8065 35.5116 63.6848 35.7835 63.5792 36.0635C63.4737 36.3394 63.3885 36.6154 63.3236 36.8913C63.2587 37.1672 63.2262 37.433 63.2262 37.6887C63.214 37.9971 63.2749 38.2872 63.4088 38.5591C63.5468 38.831 63.7355 39.0684 63.9749 39.2713C64.2184 39.4783 64.5024 39.6406 64.8271 39.7583C65.1558 39.8759 65.5048 39.9348 65.874 39.9348C66.292 39.9348 66.6775 39.8962 67.0305 39.8191C67.3876 39.742 67.7021 39.6345 67.974 39.4965C68.25 39.3626 68.4813 39.1983 68.6679 39.0035C68.8546 38.8128 68.9885 38.6017 69.0697 38.3704L69.0636 38.3765C69.165 38.0438 69.2158 37.7009 69.2158 37.3478C69.2158 37.0759 69.1772 36.8 69.1001 36.52C69.023 36.24 68.9236 35.958 68.8019 35.6739C68.6801 35.3858 68.5442 35.0977 68.394 34.8096C68.2479 34.5174 68.1039 34.2252 67.9619 33.933L69.6297 32.9957C69.7352 33.2351 69.8407 33.4765 69.9462 33.72C70.0517 33.9635 70.1572 34.1968 70.2627 34.42C70.3723 34.6391 70.4839 34.8441 70.5975 35.0348C70.7111 35.2255 70.8288 35.3899 70.9505 35.5278C71.0723 35.6617 71.1981 35.7632 71.3279 35.8322C71.4619 35.9012 71.6039 35.9255 71.754 35.9052C71.9245 35.8809 72.0624 35.822 72.1679 35.7287C72.2734 35.6313 72.3526 35.5116 72.4053 35.3696C72.4621 35.2275 72.4966 35.0693 72.5088 34.8948C72.525 34.7162 72.5291 34.5357 72.521 34.353C72.5129 34.1704 72.4987 33.9899 72.4784 33.8113C72.4621 33.6328 72.4479 33.4684 72.4358 33.3183L74.1158 33.093C74.1442 33.2188 74.1685 33.371 74.1888 33.5496C74.2091 33.7241 74.2314 33.9087 74.2558 34.1035C74.2842 34.2983 74.3187 34.4951 74.3592 34.6939C74.3998 34.8928 74.4546 35.0774 74.5236 35.2478C74.5926 35.4183 74.6778 35.5664 74.7792 35.6922C74.8807 35.818 75.0085 35.9072 75.1627 35.96C75.2885 35.96 75.4062 35.9377 75.5158 35.893C75.6253 35.8443 75.7207 35.7754 75.8019 35.6861C75.883 35.5968 75.9459 35.4872 75.9905 35.3574C76.0392 35.2235 76.0636 35.0693 76.0636 34.8948C76.0636 34.7487 76.0352 34.5803 75.9784 34.3896C75.9256 34.1948 75.8526 33.9858 75.7592 33.7626C75.6659 33.5394 75.5563 33.3061 75.4305 33.0626C75.3088 32.8151 75.179 32.5655 75.041 32.3139L76.5992 31.4435ZM75.2845 30.5365L74.1158 31.7113L72.9592 30.5548L71.8149 31.6991L70.634 30.5243L71.8027 29.3496L72.9592 30.5061L74.1036 29.3617L75.2845 30.5365ZM71.8758 28.7713L72.9592 27.6878L74.0488 28.7774L72.9653 29.8609L71.8758 28.7713ZM81.084 33.9087C80.9987 33.8925 80.9013 33.9229 80.7918 34C80.6863 34.073 80.5848 34.1745 80.4874 34.3043C80.3941 34.4301 80.315 34.5701 80.25 34.7243C80.1892 34.8786 80.1587 35.0267 80.1587 35.1687C80.1587 35.3026 80.1973 35.4142 80.2744 35.5035C80.3515 35.5928 80.4489 35.6658 80.5666 35.7226C80.6883 35.7794 80.8202 35.822 80.9622 35.8504C81.1083 35.8788 81.2483 35.8991 81.3822 35.9113H81.3761C81.4816 35.9194 81.6013 35.9255 81.7353 35.9296C81.8732 35.9296 82.0071 35.9296 82.137 35.9296C82.1776 35.9296 82.208 35.9316 82.2283 35.9357C82.2526 35.9357 82.2729 35.9357 82.2892 35.9357C82.3054 35.9357 82.3216 35.9357 82.3379 35.9357C82.3582 35.9357 82.3866 35.9336 82.4231 35.9296C82.3622 35.678 82.2892 35.4386 82.204 35.2113C82.1228 34.98 82.0274 34.773 81.9179 34.5904C81.8083 34.4078 81.6845 34.2577 81.5466 34.14C81.4086 34.0183 81.2544 33.9412 81.084 33.9087ZM78.1013 40.2817C78.6735 40.1681 79.195 40.0241 79.6657 39.8496C80.1364 39.6791 80.5483 39.4864 80.9013 39.2713C81.2584 39.0603 81.5526 38.8351 81.784 38.5957C82.0193 38.3562 82.1857 38.1128 82.2831 37.8652C82.1086 37.8652 81.924 37.8612 81.7292 37.853C81.5344 37.849 81.3741 37.8429 81.2483 37.8348C80.7776 37.7942 80.3474 37.6887 79.9579 37.5183C79.5683 37.3519 79.2579 37.1246 79.0266 36.8365C78.8561 36.6174 78.7344 36.38 78.6613 36.1243C78.5924 35.8687 78.5579 35.5988 78.5579 35.3148C78.5579 35.0957 78.5782 34.8765 78.6187 34.6574C78.6593 34.4342 78.7161 34.2191 78.7892 34.0122C78.8622 33.8012 78.9474 33.6023 79.0448 33.4157C79.1463 33.229 79.2538 33.0586 79.3674 32.9043C79.6109 32.6 79.8767 32.3707 80.1648 32.2165C80.457 32.0583 80.7634 31.9791 81.084 31.9791C81.7697 31.9791 82.3886 32.2794 82.9405 32.88C83.1353 33.0991 83.3097 33.3446 83.464 33.6165C83.6182 33.8884 83.748 34.1786 83.8535 34.487C83.9631 34.7913 84.0463 35.1119 84.1031 35.4487C84.1599 35.7814 84.1883 36.1203 84.1883 36.4652C84.1883 36.5707 84.1842 36.6762 84.1761 36.7817C84.1721 36.8872 84.166 36.9867 84.1579 37.08C84.1092 37.5548 84.0016 37.9991 83.8353 38.413C83.6729 38.831 83.4619 39.2145 83.2022 39.5635C82.9466 39.9165 82.6483 40.2351 82.3074 40.5191C81.9666 40.8072 81.5953 41.0588 81.1935 41.2739C80.7958 41.493 80.3738 41.6757 79.9274 41.8217C79.4811 41.9678 79.0225 42.0774 78.5518 42.1504L78.1013 40.2817ZM89.345 37.8652C89.2557 37.8652 89.1299 37.8591 88.9676 37.847C88.8053 37.8348 88.6308 37.7901 88.4441 37.713C88.3549 38.2162 88.1864 38.693 87.9389 39.1435C87.6954 39.598 87.3931 40.022 87.032 40.4157C86.6708 40.8133 86.2589 41.1786 85.7963 41.5113C85.3337 41.8441 84.8407 42.1423 84.3172 42.4061L83.2033 40.8661C83.4914 40.72 83.7815 40.5597 84.0737 40.3852C84.3659 40.2148 84.6438 40.0322 84.9076 39.8374C85.1754 39.6467 85.423 39.4458 85.6502 39.2348C85.8815 39.0278 86.0824 38.8128 86.2528 38.5896C86.4233 38.3664 86.5572 38.1371 86.6546 37.9017C86.752 37.6704 86.8007 37.4351 86.8007 37.1957C86.8007 37.1835 86.7986 37.1652 86.7946 37.1409C86.7946 37.1165 86.7946 37.0922 86.7946 37.0678C86.7946 37.0435 86.7925 37.0252 86.7885 37.013C86.7885 37.0009 86.7885 37.0029 86.7885 37.0191V37.0252C86.7601 36.7899 86.7195 36.5646 86.6667 36.3496C86.614 36.1345 86.547 35.9154 86.4659 35.6922C86.3888 35.469 86.2975 35.2357 86.192 34.9922C86.0864 34.7446 85.9688 34.4748 85.8389 34.1826L87.598 33.4157C87.7604 33.9026 87.9125 34.3084 88.0546 34.633C88.1966 34.9577 88.3346 35.2174 88.4685 35.4122C88.6064 35.607 88.7444 35.7449 88.8824 35.8261C89.0204 35.9032 89.1664 35.9417 89.3207 35.9417H89.3511C89.485 35.9417 89.6108 35.9681 89.7285 36.0209C89.8462 36.0736 89.9476 36.1446 90.0328 36.2339C90.1221 36.3191 90.1911 36.4206 90.2398 36.5383C90.2925 36.6559 90.3189 36.7797 90.3189 36.9096C90.3189 37.0435 90.2925 37.1693 90.2398 37.287C90.1911 37.4046 90.1221 37.5061 90.0328 37.5913C89.9476 37.6765 89.8462 37.7435 89.7285 37.7922C89.6108 37.8409 89.483 37.8652 89.345 37.8652ZM88.3122 36.9035C88.3122 36.7696 88.3386 36.6438 88.3914 36.5261C88.4401 36.4084 88.509 36.307 88.5983 36.2217C88.6835 36.1325 88.787 36.0635 88.9088 36.0148C89.0264 35.9661 89.1522 35.9417 89.2861 35.9417C89.4363 35.9417 89.6209 35.9397 89.8401 35.9357C90.0633 35.9275 90.3006 35.9154 90.5522 35.8991C90.8038 35.8829 91.0595 35.8626 91.3192 35.8383C91.583 35.8139 91.8325 35.7814 92.0679 35.7409C92.3073 35.7003 92.5224 35.6536 92.7131 35.6009C92.9079 35.5441 93.0601 35.4791 93.1696 35.4061C92.7598 35.4507 92.3824 35.469 92.0375 35.4609C91.6925 35.4487 91.3841 35.4142 91.1122 35.3574C90.8404 35.3006 90.607 35.2235 90.4122 35.1261C90.2215 35.0246 90.0754 34.909 89.974 34.7791V34.7852C89.8644 34.6472 89.7609 34.4626 89.6635 34.2313C89.5702 34 89.5235 33.7139 89.5235 33.373C89.5235 33.1904 89.5357 33.02 89.5601 32.8617C89.6818 32.1719 89.9253 31.6017 90.2905 31.1513L90.2844 31.1574C90.5035 30.8652 90.7511 30.6481 91.027 30.5061C91.303 30.36 91.5931 30.287 91.8975 30.287C92.2059 30.287 92.5102 30.362 92.8105 30.5122C93.1108 30.6623 93.3827 30.8652 93.6261 31.1209C93.8006 31.3197 93.9569 31.5449 94.0948 31.7965C94.2369 32.0481 94.3566 32.3159 94.454 32.6C94.5554 32.8841 94.6325 33.1803 94.6853 33.4887C94.7421 33.793 94.7705 34.0994 94.7705 34.4078C94.7705 34.5012 94.7685 34.5945 94.7644 34.6878C94.7604 34.7771 94.7543 34.8623 94.7461 34.9435C94.6975 35.3655 94.5899 35.7307 94.4235 36.0391C94.2572 36.3435 94.0441 36.6032 93.7844 36.8183C93.5288 37.0333 93.2346 37.2078 92.9018 37.3417C92.569 37.4757 92.2119 37.5812 91.8305 37.6583C91.449 37.7354 91.0493 37.7881 90.6314 37.8165C90.2175 37.8449 89.7995 37.8612 89.3775 37.8652H89.274C89.1401 37.8652 89.0143 37.8388 88.8966 37.7861C88.7789 37.7374 88.6775 37.6704 88.5922 37.5852C88.507 37.5 88.4401 37.3986 88.3914 37.2809C88.3386 37.1632 88.3122 37.0374 88.3122 36.9035ZM91.8853 32.2226C91.7919 32.2186 91.6966 32.247 91.5992 32.3078C91.5059 32.3646 91.4186 32.4417 91.3375 32.5391C91.2604 32.6365 91.1954 32.7481 91.1427 32.8739C91.094 32.9997 91.0696 33.1275 91.0696 33.2574C91.0696 33.371 91.096 33.4725 91.1488 33.5617C91.1772 33.6104 91.234 33.653 91.3192 33.6896C91.4085 33.722 91.5119 33.7504 91.6296 33.7748C91.7514 33.7951 91.8812 33.8133 92.0192 33.8296C92.1572 33.8417 92.289 33.8499 92.4148 33.8539C92.5406 33.858 92.6543 33.858 92.7557 33.8539C92.8612 33.8499 92.9383 33.8438 92.987 33.8357C92.9505 33.653 92.9018 33.4684 92.8409 33.2817C92.7841 33.0951 92.7111 32.9246 92.6218 32.7704C92.5325 32.6162 92.427 32.4884 92.3053 32.387C92.1835 32.2855 92.0435 32.2307 91.8853 32.2226ZM91.6479 26.8174L92.9992 28.1687L91.6479 29.52L90.2966 28.1687L91.6479 26.8174ZM101.523 33.9087C101.438 33.8925 101.341 33.9229 101.231 34C101.126 34.073 101.024 34.1745 100.927 34.3043C100.834 34.4301 100.754 34.5701 100.689 34.7243C100.629 34.8786 100.598 35.0267 100.598 35.1687C100.598 35.3026 100.637 35.4142 100.714 35.5035C100.791 35.5928 100.888 35.6658 101.006 35.7226C101.128 35.7794 101.26 35.822 101.402 35.8504C101.548 35.8788 101.688 35.8991 101.822 35.9113H101.816C101.921 35.9194 102.041 35.9255 102.175 35.9296C102.313 35.9296 102.447 35.9296 102.576 35.9296C102.617 35.9296 102.647 35.9316 102.668 35.9357C102.692 35.9357 102.712 35.9357 102.729 35.9357C102.745 35.9357 102.761 35.9357 102.777 35.9357C102.798 35.9357 102.826 35.9336 102.863 35.9296C102.802 35.678 102.729 35.4386 102.643 35.2113C102.562 34.98 102.467 34.773 102.357 34.5904C102.248 34.4078 102.124 34.2577 101.986 34.14C101.848 34.0183 101.694 33.9412 101.523 33.9087ZM98.5408 40.2817C99.113 40.1681 99.6344 40.0241 100.105 39.8496C100.576 39.6791 100.988 39.4864 101.341 39.2713C101.698 39.0603 101.992 38.8351 102.223 38.5957C102.459 38.3562 102.625 38.1128 102.723 37.8652C102.548 37.8652 102.363 37.8612 102.169 37.853C101.974 37.849 101.814 37.8429 101.688 37.8348C101.217 37.7942 100.787 37.6887 100.397 37.5183C100.008 37.3519 99.6973 37.1246 99.466 36.8365C99.2956 36.6174 99.1738 36.38 99.1008 36.1243C99.0318 35.8687 98.9973 35.5988 98.9973 35.3148C98.9973 35.0957 99.0176 34.8765 99.0582 34.6574C99.0988 34.4342 99.1556 34.2191 99.2286 34.0122C99.3017 33.8012 99.3869 33.6023 99.4843 33.4157C99.5857 33.229 99.6933 33.0586 99.8069 32.9043C100.05 32.6 100.316 32.3707 100.604 32.2165C100.896 32.0583 101.203 31.9791 101.523 31.9791C102.209 31.9791 102.828 32.2794 103.38 32.88C103.575 33.0991 103.749 33.3446 103.903 33.6165C104.058 33.8884 104.187 34.1786 104.293 34.487C104.403 34.7913 104.486 35.1119 104.543 35.4487C104.599 35.7814 104.628 36.1203 104.628 36.4652C104.628 36.5707 104.624 36.6762 104.616 36.7817C104.612 36.8872 104.605 36.9867 104.597 37.08C104.549 37.5548 104.441 37.9991 104.275 38.413C104.112 38.831 103.901 39.2145 103.642 39.5635C103.386 39.9165 103.088 40.2351 102.747 40.5191C102.406 40.8072 102.035 41.0588 101.633 41.2739C101.235 41.493 100.813 41.6757 100.367 41.8217C99.9205 41.9678 99.462 42.0774 98.9912 42.1504L98.5408 40.2817ZM111.369 37.8652C110.837 37.8652 110.316 37.7638 109.804 37.5609C109.297 37.358 108.827 37.0313 108.392 36.5809L109.494 35.0287C109.693 35.2113 109.886 35.3614 110.072 35.4791C110.259 35.5928 110.438 35.682 110.608 35.747C110.778 35.8119 110.939 35.8565 111.089 35.8809C111.243 35.9052 111.387 35.9174 111.521 35.9174C111.582 35.9174 111.651 35.9154 111.728 35.9113C111.805 35.9072 111.882 35.9012 111.959 35.893C112.036 35.8809 112.111 35.8667 112.184 35.8504C112.258 35.8342 112.324 35.8139 112.385 35.7896C112.596 35.7003 112.763 35.611 112.884 35.5217C112.73 35.1484 112.562 34.7609 112.379 34.3591C112.201 33.9533 112.02 33.5475 111.838 33.1417C111.655 32.7319 111.474 32.3261 111.296 31.9243C111.117 31.5226 110.951 31.1371 110.797 30.7678L112.574 30.0252L113.116 31.34C113.29 31.7701 113.499 32.2814 113.743 32.8739C113.986 33.4623 114.266 34.1299 114.583 34.8765C114.656 35.0551 114.723 35.2113 114.784 35.3452C114.844 35.4791 114.916 35.5907 114.997 35.68C115.082 35.7693 115.181 35.8362 115.295 35.8809C115.413 35.9214 115.563 35.9417 115.745 35.9417C115.875 35.9417 115.999 35.9661 116.117 36.0148C116.234 36.0635 116.336 36.1325 116.421 36.2217C116.51 36.307 116.581 36.4084 116.634 36.5261C116.687 36.6438 116.713 36.7696 116.713 36.9035C116.713 37.0374 116.687 37.1632 116.634 37.2809C116.581 37.3986 116.51 37.5 116.421 37.5852C116.336 37.6745 116.234 37.7435 116.117 37.7922C115.999 37.8409 115.875 37.8652 115.745 37.8652C115.498 37.8652 115.279 37.849 115.088 37.8165C114.901 37.7841 114.733 37.7374 114.583 37.6765C114.437 37.6197 114.305 37.5507 114.187 37.4696C114.073 37.3843 113.966 37.291 113.864 37.1896C113.755 37.2626 113.639 37.3336 113.518 37.4026C113.396 37.4675 113.256 37.5325 113.098 37.5974C112.854 37.6907 112.59 37.7577 112.306 37.7983C112.026 37.8429 111.714 37.8652 111.369 37.8652ZM120.367 39.8678L119.199 41.0426L118.042 39.8861L116.898 41.0304L115.717 39.8557L116.886 38.6809L118.042 39.8374L119.186 38.693L120.367 39.8678ZM114.481 36.9035C114.481 36.7696 114.508 36.6438 114.56 36.5261C114.609 36.4084 114.676 36.307 114.761 36.2217C114.846 36.1325 114.948 36.0635 115.066 36.0148C115.183 35.9661 115.309 35.9417 115.443 35.9417H116.119H116.411C116.593 35.9417 116.794 35.9336 117.013 35.9174C117.233 35.9012 117.444 35.8748 117.646 35.8383C117.849 35.8017 118.032 35.753 118.194 35.6922C118.361 35.6272 118.482 35.5461 118.559 35.4487C118.604 35.3797 118.626 35.2864 118.626 35.1687C118.626 34.9942 118.584 34.7872 118.499 34.5478C118.417 34.3084 118.32 34.0649 118.206 33.8174C118.093 33.5699 117.975 33.3325 117.853 33.1052C117.736 32.878 117.64 32.6893 117.567 32.5391L119.302 31.687C119.428 31.9061 119.55 32.1658 119.667 32.4661C119.785 32.7623 119.891 33.0687 119.984 33.3852C120.077 33.6977 120.152 34.0061 120.209 34.3104C120.266 34.6107 120.294 34.8725 120.294 35.0957C120.294 35.5055 120.221 35.8809 120.075 36.2217C119.905 36.6032 119.671 36.9197 119.375 37.1713C119.079 37.4188 118.724 37.6014 118.31 37.7191C118.188 37.7516 118.036 37.778 117.853 37.7983C117.671 37.8186 117.486 37.8328 117.299 37.8409C117.113 37.853 116.936 37.8591 116.77 37.8591C116.604 37.8632 116.474 37.8652 116.38 37.8652H115.498H115.443C115.309 37.8652 115.183 37.8409 115.066 37.7922C114.948 37.7435 114.846 37.6745 114.761 37.5852C114.676 37.5 114.609 37.3986 114.56 37.2809C114.508 37.1632 114.481 37.0374 114.481 36.9035ZM126.245 37.8652C126.156 37.8652 126.03 37.8591 125.868 37.847C125.706 37.8348 125.531 37.7901 125.345 37.713C125.255 38.2162 125.087 38.693 124.839 39.1435C124.596 39.598 124.294 40.022 123.932 40.4157C123.571 40.8133 123.159 41.1786 122.697 41.5113C122.234 41.8441 121.741 42.1423 121.218 42.4061L120.104 40.8661C120.392 40.72 120.682 40.5597 120.974 40.3852C121.266 40.2148 121.544 40.0322 121.808 39.8374C122.076 39.6467 122.323 39.4458 122.551 39.2348C122.782 39.0278 122.983 38.8128 123.153 38.5896C123.324 38.3664 123.458 38.1371 123.555 37.9017C123.652 37.6704 123.701 37.4351 123.701 37.1957C123.701 37.1835 123.699 37.1652 123.695 37.1409C123.695 37.1165 123.695 37.0922 123.695 37.0678C123.695 37.0435 123.693 37.0252 123.689 37.013C123.689 37.0009 123.689 37.0029 123.689 37.0191V37.0252C123.66 36.7899 123.62 36.5646 123.567 36.3496C123.514 36.1345 123.447 35.9154 123.366 35.6922C123.289 35.469 123.198 35.2357 123.092 34.9922C122.987 34.7446 122.869 34.4748 122.739 34.1826L124.498 33.4157C124.661 33.9026 124.813 34.3084 124.955 34.633C125.097 34.9577 125.235 35.2174 125.369 35.4122C125.507 35.607 125.645 35.7449 125.783 35.8261C125.921 35.9032 126.067 35.9417 126.221 35.9417H126.251C126.385 35.9417 126.511 35.9681 126.629 36.0209C126.747 36.0736 126.848 36.1446 126.933 36.2339C127.022 36.3191 127.091 36.4206 127.14 36.5383C127.193 36.6559 127.219 36.7797 127.219 36.9096C127.219 37.0435 127.193 37.1693 127.14 37.287C127.091 37.4046 127.022 37.5061 126.933 37.5913C126.848 37.6765 126.747 37.7435 126.629 37.7922C126.511 37.8409 126.383 37.8652 126.245 37.8652ZM125.213 36.9035C125.213 36.7696 125.239 36.6438 125.292 36.5261C125.34 36.4084 125.409 36.307 125.499 36.2217C125.584 36.1325 125.687 36.0635 125.809 36.0148C125.927 35.9661 126.053 35.9417 126.187 35.9417H127.355C128.013 35.9417 128.615 35.9032 129.163 35.8261C129.715 35.7449 130.23 35.6374 130.709 35.5035C131.188 35.3696 131.64 35.2154 132.067 35.0409C132.497 34.8623 132.919 34.6777 133.333 34.487C133.057 34.4099 132.779 34.3145 132.499 34.2009C132.223 34.0872 131.945 33.9777 131.665 33.8722C131.389 33.7667 131.113 33.6774 130.837 33.6043C130.561 33.5272 130.287 33.4887 130.015 33.4887C129.829 33.4887 129.646 33.5394 129.467 33.6409C129.289 33.7423 129.127 33.858 128.98 33.9878C128.834 34.1177 128.711 34.2455 128.609 34.3713C128.512 34.493 128.451 34.5762 128.427 34.6209L127.02 33.7139C127.175 33.442 127.357 33.1762 127.568 32.9165C127.779 32.6568 128.011 32.4275 128.262 32.2287C128.518 32.0258 128.792 31.8635 129.084 31.7417C129.38 31.62 129.691 31.5591 130.015 31.5591C130.255 31.5591 130.494 31.5855 130.733 31.6383C130.973 31.687 131.21 31.7519 131.446 31.833C131.685 31.9142 131.92 32.0075 132.152 32.113C132.383 32.2145 132.612 32.318 132.84 32.4235C133.059 32.5249 133.276 32.6264 133.491 32.7278C133.71 32.8252 133.935 32.9165 134.167 33.0017C134.398 33.0829 134.637 33.1499 134.885 33.2026C135.132 33.2554 135.394 33.2838 135.67 33.2878L135.518 35.1565L134.653 35.5704C134.3 35.7409 133.949 35.9174 133.6 36.1C133.251 36.2786 132.894 36.453 132.529 36.6235C132.168 36.7899 131.795 36.9501 131.409 37.1043C131.028 37.2545 130.626 37.3864 130.204 37.5C129.782 37.6096 129.336 37.6968 128.865 37.7617C128.394 37.8307 127.891 37.8652 127.355 37.8652H126.235H126.187C126.053 37.8652 125.927 37.8388 125.809 37.7861C125.687 37.7374 125.584 37.6704 125.499 37.5852C125.409 37.5 125.34 37.3986 125.292 37.2809C125.239 37.1632 125.213 37.0374 125.213 36.9035ZM129.76 28.2661L131.111 29.6174L129.76 30.9687L128.408 29.6174L129.76 28.2661ZM88.3867 58.7713C88.4963 58.8322 88.6099 58.8748 88.7276 58.8991C88.8494 58.9194 88.9691 58.9336 89.0867 58.9417C89.2166 58.9417 89.3404 58.9681 89.458 59.0209C89.5757 59.0696 89.6772 59.1365 89.7624 59.2217C89.8517 59.307 89.9227 59.4084 89.9754 59.5261C90.0282 59.6438 90.0546 59.7696 90.0546 59.9035C90.0546 60.0374 90.0282 60.1632 89.9754 60.2809C89.9227 60.3986 89.8517 60.5 89.7624 60.5852C89.6772 60.6745 89.5757 60.7435 89.458 60.7922C89.3404 60.8409 89.2166 60.8652 89.0867 60.8652H89.032C88.9265 60.8652 88.7905 60.8591 88.6241 60.847C88.4618 60.8348 88.2853 60.8003 88.0946 60.7435C87.9038 60.6907 87.7091 60.6096 87.5102 60.5C87.3114 60.3945 87.1247 60.2443 86.9502 60.0496C86.7149 60.2728 86.4531 60.4635 86.165 60.6217C85.8809 60.78 85.5786 60.9099 85.258 61.0113C84.9375 61.1168 84.6067 61.1939 84.2659 61.2426C83.925 61.2913 83.5821 61.3157 83.2372 61.3157C83.0424 61.3157 82.8354 61.3035 82.6163 61.2791C82.4012 61.2588 82.1598 61.2203 81.892 61.1635L82.4337 59.3496C82.6204 59.3739 82.7969 59.3942 82.9633 59.4104C83.1337 59.4226 83.2899 59.4287 83.432 59.4287C83.5618 59.4287 83.6917 59.4226 83.8215 59.4104C83.9514 59.3983 84.0792 59.3759 84.205 59.3435C84.0833 58.9052 83.9372 58.4751 83.7667 58.053C83.5963 57.627 83.4117 57.2171 83.2128 56.8235C83.014 56.4299 82.8091 56.0545 82.598 55.6974C82.387 55.3403 82.178 55.0096 81.9711 54.7052C81.7682 54.4009 81.5734 54.1249 81.3867 53.8774C81.2041 53.6258 81.0418 53.4107 80.8998 53.2322L82.2694 51.8139L83.9372 54.4983C84.132 54.8513 84.3166 55.2104 84.4911 55.5757C84.6696 55.9409 84.834 56.302 84.9841 56.6591C85.1383 57.0122 85.2743 57.3551 85.392 57.6878C85.5137 58.0206 85.6151 58.329 85.6963 58.613C85.8546 58.4832 85.9925 58.3371 86.1102 58.1748C86.232 58.0125 86.2949 57.8461 86.2989 57.6757C86.2543 57.0467 86.1995 56.4339 86.1346 55.8374C86.0696 55.2368 86.0007 54.6626 85.9276 54.1148C85.8586 53.567 85.7876 53.0496 85.7146 52.5626C85.6415 52.0757 85.5746 51.6293 85.5137 51.2235L87.4007 50.8704C87.4007 50.8786 87.4067 50.9496 87.4189 51.0835C87.4351 51.2133 87.4554 51.3939 87.4798 51.6252C87.5082 51.8525 87.5386 52.1223 87.5711 52.4348C87.6036 52.7432 87.638 53.078 87.6746 53.4391C87.7151 53.7962 87.7537 54.1716 87.7902 54.5652C87.8308 54.9548 87.8673 55.3484 87.8998 55.7461C87.9363 56.1397 87.9688 56.5293 87.9972 56.9148C88.0296 57.2962 88.056 57.6574 88.0763 57.9983C88.0885 58.1809 88.125 58.3452 88.1859 58.4913C88.2508 58.6333 88.3178 58.7267 88.3867 58.7713ZM88.0335 59.9035C88.0335 59.7696 88.0598 59.6438 88.1126 59.5261C88.1653 59.4084 88.2384 59.307 88.3317 59.2217C88.421 59.1365 88.5265 59.0696 88.6482 59.0209C88.7659 58.9681 88.8917 58.9417 89.0256 58.9417H94.5526C94.6824 58.9417 94.8062 58.9681 94.9239 59.0209C95.0416 59.0696 95.143 59.1365 95.2282 59.2217C95.3175 59.307 95.3885 59.4084 95.4413 59.5261C95.494 59.6438 95.5204 59.7696 95.5204 59.9035C95.5204 60.0374 95.494 60.1632 95.4413 60.2809C95.3885 60.3986 95.3175 60.5 95.2282 60.5852C95.143 60.6745 95.0416 60.7435 94.9239 60.7922C94.8062 60.8409 94.6824 60.8652 94.5526 60.8652H89.0195C88.8897 60.8652 88.7659 60.8409 88.6482 60.7922C88.5265 60.7435 88.421 60.6745 88.3317 60.5852C88.2384 60.5 88.1653 60.3986 88.1126 60.2809C88.0598 60.1632 88.0335 60.0374 88.0335 59.9035ZM93.5569 59.9035C93.5569 59.7696 93.5833 59.6438 93.636 59.5261C93.6888 59.4084 93.7618 59.307 93.8552 59.2217C93.9444 59.1365 94.0499 59.0696 94.1717 59.0209C94.2894 58.9681 94.4152 58.9417 94.5491 58.9417H100.076C100.206 58.9417 100.33 58.9681 100.447 59.0209C100.565 59.0696 100.666 59.1365 100.752 59.2217C100.841 59.307 100.912 59.4084 100.965 59.5261C101.017 59.6438 101.044 59.7696 101.044 59.9035C101.044 60.0374 101.017 60.1632 100.965 60.2809C100.912 60.3986 100.841 60.5 100.752 60.5852C100.666 60.6745 100.565 60.7435 100.447 60.7922C100.33 60.8409 100.206 60.8652 100.076 60.8652H94.543C94.4131 60.8652 94.2894 60.8409 94.1717 60.7922C94.0499 60.7435 93.9444 60.6745 93.8552 60.5852C93.7618 60.5 93.6888 60.3986 93.636 60.2809C93.5833 60.1632 93.5569 60.0374 93.5569 59.9035ZM99.0803 59.9035C99.0803 59.7696 99.1067 59.6438 99.1595 59.5261C99.2122 59.4084 99.2853 59.307 99.3786 59.2217C99.4679 59.1365 99.5734 59.0696 99.6951 59.0209C99.8128 58.9681 99.9386 58.9417 100.073 58.9417H105.599C105.729 58.9417 105.853 58.9681 105.971 59.0209C106.088 59.0696 106.19 59.1365 106.275 59.2217C106.364 59.307 106.435 59.4084 106.488 59.5261C106.541 59.6438 106.567 59.7696 106.567 59.9035C106.567 60.0374 106.541 60.1632 106.488 60.2809C106.435 60.3986 106.364 60.5 106.275 60.5852C106.19 60.6745 106.088 60.7435 105.971 60.7922C105.853 60.8409 105.729 60.8652 105.599 60.8652H100.066C99.9366 60.8652 99.8128 60.8409 99.6951 60.7922C99.5734 60.7435 99.4679 60.6745 99.3786 60.5852C99.2853 60.5 99.2122 60.3986 99.1595 60.2809C99.1067 60.1632 99.0803 60.0374 99.0803 59.9035ZM110.216 62.8678L109.047 64.0426L107.891 62.8861L106.746 64.0304L105.566 62.8557L106.734 61.6809L107.891 62.8374L109.035 61.693L110.216 62.8678ZM104.33 59.9035C104.33 59.7696 104.356 59.6438 104.409 59.5261C104.458 59.4084 104.525 59.307 104.61 59.2217C104.695 59.1325 104.797 59.0635 104.914 59.0148C105.032 58.9661 105.158 58.9417 105.292 58.9417H105.967H106.259C106.442 58.9417 106.643 58.9336 106.862 58.9174C107.081 58.9012 107.292 58.8748 107.495 58.8383C107.698 58.8017 107.881 58.753 108.043 58.6922C108.209 58.6272 108.331 58.5461 108.408 58.4487C108.453 58.3797 108.475 58.2864 108.475 58.1687C108.475 57.9942 108.432 57.7872 108.347 57.5478C108.266 57.3084 108.169 57.0649 108.055 56.8174C107.941 56.5699 107.824 56.3325 107.702 56.1052C107.584 55.878 107.489 55.6893 107.416 55.5391L109.151 54.687C109.277 54.9061 109.398 55.1658 109.516 55.4661C109.634 55.7623 109.739 56.0687 109.832 56.3852C109.926 56.6977 110.001 57.0061 110.058 57.3104C110.114 57.6107 110.143 57.8725 110.143 58.0957C110.143 58.5055 110.07 58.8809 109.924 59.2217C109.753 59.6032 109.52 59.9197 109.224 60.1713C108.928 60.4188 108.572 60.6014 108.159 60.7191C108.037 60.7516 107.885 60.778 107.702 60.7983C107.519 60.8186 107.335 60.8328 107.148 60.8409C106.961 60.853 106.785 60.8591 106.619 60.8591C106.452 60.8632 106.322 60.8652 106.229 60.8652H105.346H105.292C105.158 60.8652 105.032 60.8409 104.914 60.7922C104.797 60.7435 104.695 60.6745 104.61 60.5852C104.525 60.5 104.458 60.3986 104.409 60.2809C104.356 60.1632 104.33 60.0374 104.33 59.9035ZM113.616 56.9087C113.531 56.8925 113.434 56.9229 113.324 57C113.218 57.073 113.117 57.1745 113.02 57.3043C112.926 57.4301 112.847 57.5701 112.782 57.7243C112.721 57.8786 112.691 58.0267 112.691 58.1687C112.691 58.3026 112.73 58.4142 112.807 58.5035C112.884 58.5928 112.981 58.6658 113.099 58.7226C113.221 58.7794 113.352 58.822 113.494 58.8504C113.641 58.8788 113.781 58.8991 113.914 58.9113H113.908C114.014 58.9194 114.134 58.9255 114.267 58.9296C114.405 58.9296 114.539 58.9296 114.669 58.9296C114.71 58.9296 114.74 58.9316 114.761 58.9357C114.785 58.9357 114.805 58.9357 114.821 58.9357C114.838 58.9357 114.854 58.9357 114.87 58.9357C114.89 58.9357 114.919 58.9336 114.955 58.9296C114.894 58.678 114.821 58.4386 114.736 58.2113C114.655 57.98 114.56 57.773 114.45 57.5904C114.341 57.4078 114.217 57.2577 114.079 57.14C113.941 57.0183 113.787 56.9412 113.616 56.9087ZM110.634 63.2817C111.206 63.1681 111.727 63.0241 112.198 62.8496C112.669 62.6791 113.081 62.4864 113.434 62.2713C113.791 62.0603 114.085 61.8351 114.316 61.5957C114.552 61.3562 114.718 61.1128 114.815 60.8652C114.641 60.8652 114.456 60.8612 114.261 60.853C114.067 60.849 113.906 60.8429 113.781 60.8348C113.31 60.7942 112.88 60.6887 112.49 60.5183C112.101 60.3519 111.79 60.1246 111.559 59.8365C111.388 59.6174 111.267 59.38 111.194 59.1243C111.125 58.8687 111.09 58.5988 111.09 58.3148C111.09 58.0957 111.11 57.8765 111.151 57.6574C111.192 57.4342 111.248 57.2191 111.321 57.0122C111.394 56.8012 111.48 56.6023 111.577 56.4157C111.678 56.229 111.786 56.0586 111.9 55.9043C112.143 55.6 112.409 55.3707 112.697 55.2165C112.989 55.0583 113.296 54.9791 113.616 54.9791C114.302 54.9791 114.921 55.2794 115.473 55.88C115.667 56.0991 115.842 56.3446 115.996 56.6165C116.15 56.8884 116.28 57.1786 116.386 57.487C116.495 57.7913 116.578 58.1119 116.635 58.4487C116.692 58.7814 116.721 59.1203 116.721 59.4652C116.721 59.5707 116.716 59.6762 116.708 59.7817C116.704 59.8872 116.698 59.9867 116.69 60.08C116.641 60.5548 116.534 60.9991 116.367 61.413C116.205 61.831 115.994 62.2145 115.734 62.5635C115.479 62.9165 115.181 63.2351 114.84 63.5191C114.499 63.8072 114.127 64.0588 113.726 64.2739C113.328 64.493 112.906 64.6757 112.46 64.8217C112.013 64.9678 111.555 65.0774 111.084 65.1504L110.634 63.2817Z" fill="#303030"/>
<defs>
<linearGradient id="paint0_linear_1325_9350" x1="5.08426" y1="6.15789" x2="151.122" y2="67.5913" gradientUnits="userSpaceOnUse">
<stop stop-color="#EAEAEA"/>
<stop offset="1" stop-color="#BDBDBD"/>
</linearGradient>
</defs>
</svg>
