<svg width="147" height="90" viewBox="0 0 147 90" fill="none" xmlns="http://www.w3.org/2000/svg">
<rect x="0.75" y="0.75" width="145.5" height="88.5" rx="9.25" fill="white" stroke="url(#paint0_linear_1325_10708)" stroke-width="1.5"/>
<path d="M10.2679 50.6538H12.5714V63.7308C12.5714 63.9348 12.6523 64.1304 12.7963 64.2747C12.9403 64.419 13.1356 64.5 13.3393 64.5H16.4107C16.6144 64.5 16.8097 64.419 16.9537 64.2747C17.0977 64.1304 17.1786 63.9348 17.1786 63.7308V50.6538H44.8214V63.7308C44.8214 63.9348 44.9023 64.1304 45.0463 64.2747C45.1903 64.419 45.3856 64.5 45.5893 64.5H48.6607C48.8644 64.5 49.0597 64.419 49.2037 64.2747C49.3477 64.1304 49.4286 63.9348 49.4286 63.7308V50.6538H51.7321C51.9358 50.6538 52.1311 50.5728 52.2751 50.4285C52.4191 50.2843 52.5 50.0886 52.5 49.8846V42.1923C52.5 41.9883 52.4191 41.7926 52.2751 41.6484C52.1311 41.5041 51.9358 41.4231 51.7321 41.4231H46.2159C46.3019 41.1815 46.3571 40.9246 46.3571 40.6538V39.8846H47.125C48.395 39.8846 49.4286 38.8492 49.4286 37.5769C49.4286 36.3046 48.395 35.2692 47.125 35.2692H46.3571V34.5C46.3571 34.296 46.2762 34.1003 46.1322 33.9561C45.9882 33.8118 45.7929 33.7308 45.5893 33.7308H39.4464C39.2428 33.7308 39.0475 33.8118 38.9035 33.9561C38.7595 34.1003 38.6786 34.296 38.6786 34.5V40.6538C38.6786 40.9246 38.7339 41.1815 38.8199 41.4231H29.4643V38.3462H34.8393C35.0429 38.3462 35.2382 38.2651 35.3822 38.1209C35.5262 37.9766 35.6071 37.7809 35.6071 37.5769V25.2692C35.6071 25.0652 35.5262 24.8696 35.3822 24.7253C35.2382 24.581 35.0429 24.5 34.8393 24.5H17.9464C17.7428 24.5 17.5475 24.581 17.4035 24.7253C17.2595 24.8696 17.1786 25.0652 17.1786 25.2692V37.5769C17.1786 37.7809 17.2595 37.9766 17.4035 38.1209C17.5475 38.2651 17.7428 38.3462 17.9464 38.3462H23.3214V41.4231H10.2679C10.0642 41.4231 9.8689 41.5041 9.7249 41.6484C9.5809 41.7926 9.5 41.9883 9.5 42.1923V49.8846C9.5 50.0886 9.5809 50.2843 9.7249 50.4285C9.8689 50.5728 10.0642 50.6538 10.2679 50.6538ZM15.6429 62.9615H14.1071V50.6538H15.6429V62.9615ZM47.8929 62.9615H46.3571V50.6538H47.8929V62.9615ZM50.9643 49.1154H11.0357V47.5769H50.9643V49.1154ZM47.125 36.8077C47.3286 36.8077 47.524 36.8887 47.668 37.033C47.812 37.1773 47.8929 37.3729 47.8929 37.5769C47.8929 37.7809 47.812 37.9766 47.668 38.1209C47.524 38.2651 47.3286 38.3462 47.125 38.3462H46.3571V36.8077H47.125ZM40.2143 40.6538V35.2692H44.8214V40.6538C44.8214 40.8579 44.7405 41.0535 44.5965 41.1978C44.4525 41.342 44.2572 41.4231 44.0536 41.4231H40.9821C40.7785 41.4231 40.5832 41.342 40.4392 41.1978C40.2952 41.0535 40.2143 40.8579 40.2143 40.6538ZM34.0714 26.0385V33.7308H18.7143V26.0385H34.0714ZM18.7143 35.2692H34.0714V36.8077H18.7143V35.2692ZM24.8571 38.3462H27.9286V41.4231H24.8571V38.3462ZM11.0357 42.9615H50.9643V46.0385H11.0357V42.9615Z" fill="black"/>
<path d="M70.9873 37.8652C70.967 37.8652 70.9102 37.8612 70.8169 37.853C70.7276 37.849 70.616 37.8368 70.4821 37.8165C70.3523 37.7962 70.2041 37.7638 70.0378 37.7191C69.8754 37.6745 69.7111 37.6136 69.5447 37.5365C69.1024 37.3255 68.7595 37.0374 68.516 36.6722C68.2725 36.3029 68.1508 35.8748 68.1508 35.3878C68.1508 34.5762 68.5099 33.7342 69.2282 32.8617C69.285 32.7928 69.3317 32.7359 69.3682 32.6913C69.4088 32.6467 69.4453 32.6061 69.4778 32.5696C69.5102 32.533 69.5407 32.5006 69.5691 32.4722C69.6015 32.4397 69.6381 32.4032 69.6786 32.3626C69.6299 32.322 69.5812 32.2835 69.5325 32.247C69.4879 32.2104 69.4494 32.1759 69.4169 32.1435L69.3073 32.0461L70.5186 30.567C70.7256 30.7212 70.9731 30.9301 71.2612 31.1939C71.5494 31.4536 71.8821 31.7864 72.2595 32.1922C73.3105 33.3893 73.836 34.4545 73.836 35.3878C73.836 35.8667 73.7204 36.2907 73.4891 36.66C73.2618 37.0293 72.9453 37.3194 72.5395 37.5304C72.3975 37.5994 72.2514 37.6542 72.1012 37.6948C71.9552 37.7394 71.8131 37.7739 71.6752 37.7983C71.5372 37.8226 71.4073 37.8388 71.2856 37.847C71.1679 37.8591 71.0685 37.8652 70.9873 37.8652ZM72.1682 35.3878C72.1682 35.262 72.1276 35.12 72.0465 34.9617C71.9653 34.8035 71.8578 34.6391 71.7239 34.4687C71.594 34.2942 71.4479 34.1197 71.2856 33.9452C71.1233 33.7667 70.961 33.5962 70.7986 33.4339C70.6891 33.5557 70.5734 33.6936 70.4517 33.8478C70.3299 33.998 70.2183 34.1583 70.1169 34.3287C70.0154 34.4991 69.9323 34.6757 69.8673 34.8583C69.8024 35.0368 69.774 35.2133 69.7821 35.3878C69.7862 35.4852 69.8328 35.5704 69.9221 35.6435C70.0114 35.7165 70.1169 35.7754 70.2386 35.82C70.3644 35.8646 70.4963 35.8991 70.6343 35.9235C70.7723 35.9438 70.8899 35.9539 70.9873 35.9539C71.1091 35.9539 71.2389 35.9458 71.3769 35.9296C71.5189 35.9093 71.6468 35.8768 71.7604 35.8322C71.8781 35.7875 71.9754 35.7287 72.0525 35.6557C72.1296 35.5826 72.1682 35.4933 72.1682 35.3878ZM77.4079 33.4035C77.5621 33.8417 77.696 34.2699 77.8096 34.6878C77.8583 34.8704 77.907 35.0612 77.9557 35.26C78.0044 35.4548 78.047 35.6516 78.0835 35.8504C78.1241 36.0452 78.1566 36.238 78.1809 36.4287C78.2053 36.6154 78.2174 36.7899 78.2174 36.9522C78.2174 37.3336 78.1647 37.7049 78.0592 38.0661C77.9577 38.4313 77.8116 38.7843 77.6209 39.1252C77.4343 39.4661 77.2111 39.7928 76.9514 40.1052C76.6916 40.4217 76.4035 40.718 76.087 40.9939C75.7705 41.2699 75.4316 41.5255 75.0705 41.7609C74.7093 42.0003 74.336 42.2154 73.9505 42.4061L72.8427 40.8661C73.1348 40.72 73.4311 40.5536 73.7314 40.367C74.0276 40.1843 74.3116 39.9875 74.5835 39.7765C74.8595 39.5655 75.1151 39.3443 75.3505 39.113C75.5899 38.8817 75.7969 38.6464 75.9714 38.407C76.1499 38.1675 76.2899 37.9241 76.3914 37.6765C76.4928 37.433 76.5435 37.1936 76.5435 36.9583C76.5435 36.7878 76.5192 36.6032 76.4705 36.4043C76.4259 36.2055 76.363 35.9925 76.2818 35.7652C76.2047 35.5339 76.1114 35.2904 76.0018 35.0348C75.8922 34.7751 75.7745 34.4991 75.6488 34.207L77.4079 33.4035ZM82.1405 37.8652C81.6414 37.8652 81.2133 37.8023 80.8562 37.6765C80.4991 37.5548 80.1907 37.3661 79.9309 37.1104C79.7686 36.9481 79.6428 36.7777 79.5536 36.5991C79.4683 36.4206 79.4054 36.2461 79.3649 36.0757C79.3283 35.9012 79.306 35.7368 79.2979 35.5826C79.2938 35.4284 79.2918 35.2965 79.2918 35.187V35.0957C79.2959 34.9455 79.2999 34.7304 79.304 34.4504C79.3121 34.1664 79.3162 33.8336 79.3162 33.4522C79.3162 33.0707 79.3141 32.6507 79.3101 32.1922C79.306 31.7336 79.2938 31.2771 79.2736 30.8226C79.2573 30.3641 79.2309 29.9238 79.1944 29.5017C79.162 29.0797 79.1153 28.7125 79.0544 28.4L80.8744 27.8461C80.9272 28.1139 80.9698 28.4304 81.0023 28.7957C81.0347 29.1568 81.0611 29.5362 81.0814 29.9339C81.1057 30.3316 81.122 30.7313 81.1301 31.133C81.1423 31.5348 81.1504 31.9081 81.1544 32.253C81.1585 32.5574 81.1463 32.8557 81.1179 33.1478C81.0936 33.4359 81.0733 33.72 81.057 34C81.0408 34.2759 81.0408 34.5458 81.057 34.8096C81.0773 35.0693 81.1341 35.3229 81.2275 35.5704C81.264 35.6638 81.3086 35.7348 81.3614 35.7835C81.4182 35.8322 81.4831 35.8687 81.5562 35.893C81.6292 35.9133 81.7083 35.9255 81.7936 35.9296C81.8828 35.9336 81.9802 35.9357 82.0857 35.9357H82.1405C82.2704 35.9357 82.3941 35.962 82.5118 36.0148C82.6295 36.0675 82.7309 36.1386 82.8162 36.2278C82.9054 36.313 82.9765 36.4145 83.0292 36.5322C83.082 36.6499 83.1083 36.7736 83.1083 36.9035C83.1083 37.0374 83.082 37.1632 83.0292 37.2809C82.9765 37.3986 82.9054 37.5 82.8162 37.5852C82.7309 37.6745 82.6295 37.7435 82.5118 37.7922C82.3941 37.8409 82.2704 37.8652 82.1405 37.8652ZM81.1509 36.9035C81.1509 36.7696 81.1772 36.6438 81.23 36.5261C81.2787 36.4084 81.3477 36.307 81.4369 36.2217C81.5222 36.1325 81.6256 36.0635 81.7474 36.0148C81.8651 35.9661 81.9909 35.9417 82.1248 35.9417H83.2935C83.9509 35.9417 84.5535 35.9032 85.1013 35.8261C85.6532 35.7449 86.1685 35.6374 86.6474 35.5035C87.1262 35.3696 87.5787 35.2154 88.0048 35.0409C88.4349 34.8623 88.8569 34.6777 89.2709 34.487C88.9949 34.4099 88.7169 34.3145 88.4369 34.2009C88.161 34.0872 87.883 33.9777 87.603 33.8722C87.3271 33.7667 87.0511 33.6774 86.7752 33.6043C86.4993 33.5272 86.2254 33.4887 85.9535 33.4887C85.7668 33.4887 85.5842 33.5394 85.4056 33.6409C85.2271 33.7423 85.0648 33.858 84.9187 33.9878C84.7726 34.1177 84.6488 34.2455 84.5474 34.3713C84.45 34.493 84.3891 34.5762 84.3648 34.6209L82.9587 33.7139C83.1129 33.442 83.2955 33.1762 83.5065 32.9165C83.7175 32.6568 83.9488 32.4275 84.2004 32.2287C84.4561 32.0258 84.73 31.8635 85.0222 31.7417C85.3184 31.62 85.6288 31.5591 85.9535 31.5591C86.1929 31.5591 86.4323 31.5855 86.6717 31.6383C86.9111 31.687 87.1485 31.7519 87.3839 31.833C87.6233 31.9142 87.8587 32.0075 88.09 32.113C88.3213 32.2145 88.5506 32.318 88.7778 32.4235C88.9969 32.5249 89.214 32.6264 89.4291 32.7278C89.6483 32.8252 89.8735 32.9165 90.1048 33.0017C90.3361 33.0829 90.5755 33.1499 90.823 33.2026C91.0706 33.2554 91.3323 33.2838 91.6083 33.2878L91.4561 35.1565L90.5917 35.5704C90.2387 35.7409 89.8877 35.9174 89.5387 36.1C89.1897 36.2786 88.8326 36.453 88.4674 36.6235C88.1062 36.7899 87.7329 36.9501 87.3474 37.1043C86.9659 37.2545 86.5642 37.3864 86.1422 37.5C85.7201 37.6096 85.2738 37.6968 84.803 37.7617C84.3323 37.8307 83.8291 37.8652 83.2935 37.8652H82.1735H82.1248C81.9909 37.8652 81.8651 37.8388 81.7474 37.7861C81.6256 37.7374 81.5222 37.6704 81.4369 37.5852C81.3477 37.5 81.2787 37.3986 81.23 37.2809C81.1772 37.1632 81.1509 37.0374 81.1509 36.9035ZM86.7509 38.3522L88.1022 39.7035L86.7509 41.0548L85.3996 39.7035L86.7509 38.3522ZM92.3177 37.8835C92.338 37.5507 92.3583 37.2058 92.3786 36.8487C92.3989 36.4916 92.4151 36.1386 92.4273 35.7896C92.4435 35.4406 92.4537 35.1017 92.4577 34.773C92.4618 34.4443 92.4577 34.142 92.4456 33.8661C92.4212 33.2899 92.3969 32.7846 92.3725 32.3504C92.3522 31.9122 92.3299 31.5246 92.3056 31.1878C92.2853 30.851 92.263 30.5568 92.2386 30.3052C92.2183 30.0496 92.196 29.8162 92.1717 29.6052C92.1473 29.3942 92.1209 29.1974 92.0925 29.0148C92.0641 28.8281 92.0337 28.6354 92.0012 28.4365L93.8821 27.8157C93.9714 28.3594 94.0424 28.9072 94.0951 29.4591C94.1519 30.011 94.1945 30.5406 94.223 31.0478C94.2514 31.551 94.2696 32.0197 94.2777 32.4539C94.2899 32.8881 94.296 33.2594 94.296 33.5678C94.296 33.8478 94.294 34.1501 94.2899 34.4748C94.2899 34.7994 94.2859 35.1362 94.2777 35.4852C94.2737 35.8342 94.2656 36.1872 94.2534 36.5443C94.2412 36.9014 94.223 37.2504 94.1986 37.5913L92.3177 37.8835ZM101.321 33.9087C101.236 33.8925 101.138 33.9229 101.029 34C100.923 34.073 100.822 34.1745 100.724 34.3043C100.631 34.4301 100.552 34.5701 100.487 34.7243C100.426 34.8786 100.396 35.0267 100.396 35.1687C100.396 35.3026 100.434 35.4142 100.511 35.5035C100.589 35.5928 100.686 35.6658 100.804 35.7226C100.925 35.7794 101.057 35.822 101.199 35.8504C101.345 35.8788 101.485 35.8991 101.619 35.9113H101.613C101.719 35.9194 101.838 35.9255 101.972 35.9296C102.11 35.9296 102.244 35.9296 102.374 35.9296C102.415 35.9296 102.445 35.9316 102.465 35.9357C102.49 35.9357 102.51 35.9357 102.526 35.9357C102.542 35.9357 102.559 35.9357 102.575 35.9357C102.595 35.9357 102.624 35.9336 102.66 35.9296C102.599 35.678 102.526 35.4386 102.441 35.2113C102.36 34.98 102.264 34.773 102.155 34.5904C102.045 34.4078 101.922 34.2577 101.784 34.14C101.646 34.0183 101.491 33.9412 101.321 33.9087ZM98.3384 40.2817C98.9106 40.1681 99.432 40.0241 99.9028 39.8496C100.373 39.6791 100.785 39.4864 101.138 39.2713C101.496 39.0603 101.79 38.8351 102.021 38.5957C102.256 38.3562 102.423 38.1128 102.52 37.8652C102.346 37.8652 102.161 37.8612 101.966 37.853C101.771 37.849 101.611 37.8429 101.485 37.8348C101.015 37.7942 100.584 37.6887 100.195 37.5183C99.8054 37.3519 99.4949 37.1246 99.2636 36.8365C99.0932 36.6174 98.9714 36.38 98.8984 36.1243C98.8294 35.8687 98.7949 35.5988 98.7949 35.3148C98.7949 35.0957 98.8152 34.8765 98.8558 34.6574C98.8964 34.4342 98.9532 34.2191 99.0262 34.0122C99.0993 33.8012 99.1845 33.6023 99.2819 33.4157C99.3833 33.229 99.4909 33.0586 99.6045 32.9043C99.848 32.6 100.114 32.3707 100.402 32.2165C100.694 32.0583 101 31.9791 101.321 31.9791C102.007 31.9791 102.626 32.2794 103.178 32.88C103.372 33.0991 103.547 33.3446 103.701 33.6165C103.855 33.8884 103.985 34.1786 104.091 34.487C104.2 34.7913 104.283 35.1119 104.34 35.4487C104.397 35.7814 104.425 36.1203 104.425 36.4652C104.425 36.5707 104.421 36.6762 104.413 36.7817C104.409 36.8872 104.403 36.9867 104.395 37.08C104.346 37.5548 104.239 37.9991 104.072 38.413C103.91 38.831 103.699 39.2145 103.439 39.5635C103.184 39.9165 102.885 40.2351 102.544 40.5191C102.204 40.8072 101.832 41.0588 101.431 41.2739C101.033 41.493 100.611 41.6757 100.164 41.8217C99.7181 41.9678 99.2596 42.0774 98.7888 42.1504L98.3384 40.2817ZM118.306 37.8652C117.933 37.8652 117.57 37.8064 117.217 37.6887C117.205 38.0174 117.16 38.3522 117.083 38.693C117.006 39.0339 116.894 39.3606 116.748 39.673C116.606 39.9896 116.426 40.2817 116.206 40.5496C115.991 40.8174 115.738 41.0446 115.446 41.2313C115.032 41.4991 114.577 41.702 114.082 41.84C113.591 41.978 113.029 42.047 112.396 42.047C111.69 42.047 111.083 41.9617 110.576 41.7913C110.073 41.6249 109.635 41.3814 109.261 41.0609C109.034 40.858 108.835 40.6328 108.665 40.3852C108.498 40.1417 108.36 39.882 108.251 39.6061C108.141 39.3342 108.058 39.0481 108.001 38.7478C107.948 38.4516 107.922 38.1493 107.922 37.8409C107.922 37.4919 107.946 37.1612 107.995 36.8487C108.044 36.5322 108.119 36.2157 108.22 35.8991C108.322 35.5826 108.448 35.258 108.598 34.9252C108.752 34.5925 108.933 34.2333 109.139 33.8478L110.509 34.8339C110.391 35.0449 110.278 35.2823 110.168 35.5461C110.059 35.8058 109.961 36.0757 109.876 36.3557C109.795 36.6316 109.728 36.9075 109.675 37.1835C109.626 37.4594 109.602 37.7171 109.602 37.9565C109.602 38.273 109.679 38.5632 109.833 38.827C109.988 39.0907 110.191 39.3159 110.442 39.5026C110.698 39.6933 110.988 39.8414 111.313 39.947C111.637 40.0565 111.972 40.1133 112.317 40.1174C112.792 40.1255 113.226 40.087 113.619 40.0017C114.013 39.9206 114.352 39.7887 114.636 39.6061C114.92 39.4235 115.139 39.1881 115.293 38.9C115.452 38.6119 115.531 38.2649 115.531 37.8591C115.531 37.6238 115.496 37.3742 115.427 37.1104C115.358 36.8426 115.267 36.5667 115.153 36.2826C115.044 35.9945 114.914 35.7003 114.764 35.4C114.618 35.0957 114.466 34.7852 114.307 34.4687L115.969 33.4157L116.584 34.6026C116.75 34.9394 116.911 35.1991 117.065 35.3817C117.223 35.5603 117.375 35.6922 117.521 35.7774C117.667 35.8586 117.805 35.9072 117.935 35.9235C118.069 35.9357 118.193 35.9417 118.306 35.9417C118.44 35.9417 118.566 35.9661 118.684 36.0148C118.802 36.0635 118.903 36.1325 118.988 36.2217C119.077 36.307 119.146 36.4084 119.195 36.5261C119.248 36.6438 119.274 36.7696 119.274 36.9035C119.274 37.0374 119.248 37.1632 119.195 37.2809C119.146 37.3986 119.077 37.5 118.988 37.5852C118.903 37.6704 118.802 37.7374 118.684 37.7861C118.566 37.8388 118.44 37.8652 118.306 37.8652ZM112.499 31.9913L113.851 33.3426L112.499 34.6939L111.148 33.3426L112.499 31.9913ZM117.325 36.8974C117.325 36.7635 117.351 36.6397 117.404 36.5261C117.453 36.4084 117.52 36.307 117.605 36.2217C117.69 36.1325 117.792 36.0635 117.909 36.0148C118.027 35.9661 118.153 35.9417 118.287 35.9417H118.342C118.402 35.9417 118.459 35.9417 118.512 35.9417C118.569 35.9417 118.632 35.9397 118.701 35.9357C118.774 35.9316 118.859 35.9275 118.956 35.9235C119.058 35.9194 119.184 35.9133 119.334 35.9052C119.192 35.6617 119.084 35.4041 119.011 35.1322C118.938 34.8562 118.902 34.5783 118.902 34.2983C118.902 34.0872 118.922 33.8762 118.962 33.6652C119.003 33.4542 119.064 33.2533 119.145 33.0626C119.226 32.8678 119.328 32.6852 119.449 32.5148C119.571 32.3403 119.715 32.182 119.882 32.04L119.565 31.8635L120.74 30.1348C120.914 30.2565 121.123 30.3803 121.367 30.5061C121.61 30.6319 121.866 30.7577 122.134 30.8835C122.402 31.0052 122.669 31.1249 122.937 31.2426C123.209 31.3562 123.459 31.4638 123.686 31.5652C124.071 31.7438 124.412 31.902 124.709 32.04C125.009 32.1739 125.279 32.3078 125.518 32.4417C125.758 32.5716 125.973 32.7096 126.163 32.8557C126.354 33.0017 126.533 33.1722 126.699 33.367C126.91 33.6348 127.062 33.927 127.155 34.2435C127.249 34.56 127.295 34.8664 127.295 35.1626C127.295 35.6171 127.178 36.0472 126.942 36.453C126.711 36.8548 126.368 37.1916 125.914 37.4635C125.788 37.5365 125.632 37.5994 125.445 37.6522C125.262 37.7049 125.07 37.7475 124.867 37.78C124.668 37.8165 124.471 37.8429 124.276 37.8591C124.082 37.8754 123.911 37.8835 123.765 37.8835C123.595 37.8835 123.41 37.8754 123.211 37.8591C123.012 37.847 122.811 37.8246 122.609 37.7922C122.41 37.7638 122.215 37.7252 122.024 37.6765C121.833 37.6278 121.659 37.571 121.501 37.5061C121.306 37.5629 121.081 37.6136 120.825 37.6583C120.573 37.7029 120.308 37.7394 120.028 37.7678C119.748 37.8003 119.464 37.8246 119.175 37.8409C118.887 37.8571 118.609 37.8652 118.342 37.8652H118.287C118.153 37.8652 118.027 37.8388 117.909 37.7861C117.792 37.7374 117.69 37.6684 117.605 37.5791C117.52 37.4939 117.453 37.3925 117.404 37.2748C117.351 37.1571 117.325 37.0313 117.325 36.8974ZM121.75 32.9591C121.62 32.9388 121.48 32.9774 121.33 33.0748C121.184 33.1722 121.05 33.298 120.929 33.4522C120.807 33.6064 120.709 33.7768 120.636 33.9635C120.563 34.1461 120.535 34.3165 120.551 34.4748V34.4687C120.563 34.5742 120.604 34.6838 120.673 34.7974C120.742 34.907 120.823 35.0145 120.916 35.12C121.014 35.2214 121.117 35.3128 121.227 35.3939C121.336 35.471 121.438 35.5278 121.531 35.5643C121.685 35.5481 121.835 35.5116 121.982 35.4548C122.132 35.398 122.266 35.3128 122.383 35.1991C122.501 35.0855 122.596 34.9394 122.669 34.7609C122.742 34.5823 122.779 34.3632 122.779 34.1035C122.779 33.9696 122.74 33.8377 122.663 33.7078C122.59 33.578 122.501 33.4603 122.395 33.3548C122.29 33.2452 122.176 33.1559 122.055 33.087C121.937 33.0139 121.835 32.9713 121.75 32.9591ZM124.38 33.9696C124.38 34.14 124.36 34.3186 124.319 34.5052C124.278 34.6919 124.224 34.8765 124.155 35.0591C124.086 35.2417 124.006 35.4203 123.917 35.5948C123.832 35.7652 123.741 35.9235 123.643 36.0696H123.698C123.994 36.0696 124.266 36.0594 124.514 36.0391C124.765 36.0148 124.982 35.9701 125.165 35.9052C125.348 35.8362 125.492 35.7429 125.597 35.6252C125.707 35.5035 125.772 35.3432 125.792 35.1443C125.8 35.047 125.76 34.9414 125.67 34.8278C125.581 34.7101 125.465 34.5945 125.323 34.4809C125.185 34.3632 125.031 34.2496 124.861 34.14C124.69 34.0304 124.53 33.933 124.38 33.8478V33.9696ZM131.043 33.4035C131.197 33.8417 131.331 34.2699 131.444 34.6878C131.493 34.8704 131.542 35.0612 131.59 35.26C131.639 35.4548 131.682 35.6516 131.718 35.8504C131.759 36.0452 131.791 36.238 131.816 36.4287C131.84 36.6154 131.852 36.7899 131.852 36.9522C131.852 37.3336 131.799 37.7049 131.694 38.0661C131.593 38.4313 131.446 38.7843 131.256 39.1252C131.069 39.4661 130.846 39.7928 130.586 40.1052C130.326 40.4217 130.038 40.718 129.722 40.9939C129.405 41.2699 129.066 41.5255 128.705 41.7609C128.344 42.0003 127.971 42.2154 127.585 42.4061L126.477 40.8661C126.77 40.72 127.066 40.5536 127.366 40.367C127.662 40.1843 127.946 39.9875 128.218 39.7765C128.494 39.5655 128.75 39.3443 128.985 39.113C129.225 38.8817 129.432 38.6464 129.606 38.407C129.785 38.1675 129.925 37.9241 130.026 37.6765C130.128 37.433 130.178 37.1936 130.178 36.9583C130.178 36.7878 130.154 36.6032 130.105 36.4043C130.061 36.2055 129.998 35.9925 129.917 35.7652C129.839 35.5339 129.746 35.2904 129.637 35.0348C129.527 34.7751 129.409 34.4991 129.284 34.207L131.043 33.4035ZM77.5719 56.4035C77.7261 56.8417 77.8601 57.2699 77.9737 57.6878C78.0224 57.8704 78.0711 58.0612 78.1198 58.26C78.1685 58.4548 78.2111 58.6516 78.2476 58.8504C78.2882 59.0452 78.3206 59.238 78.345 59.4287C78.3693 59.6154 78.3815 59.7899 78.3815 59.9522C78.3815 60.3336 78.3288 60.7049 78.2232 61.0661C78.1218 61.4313 77.9757 61.7843 77.785 62.1252C77.5983 62.4661 77.3751 62.7928 77.1154 63.1052C76.8557 63.4217 76.5676 63.718 76.2511 63.9939C75.9346 64.2699 75.5957 64.5255 75.2346 64.7609C74.8734 65.0003 74.5001 65.2154 74.1146 65.4061L73.0067 63.8661C73.2989 63.72 73.5951 63.5536 73.8954 63.367C74.1917 63.1843 74.4757 62.9875 74.7476 62.7765C75.0235 62.5655 75.2792 62.3443 75.5146 62.113C75.754 61.8817 75.9609 61.6464 76.1354 61.407C76.314 61.1675 76.454 60.9241 76.5554 60.6765C76.6569 60.433 76.7076 60.1936 76.7076 59.9583C76.7076 59.7878 76.6832 59.6032 76.6346 59.4043C76.5899 59.2055 76.527 58.9925 76.4459 58.7652C76.3688 58.5339 76.2754 58.2904 76.1659 58.0348C76.0563 57.7751 75.9386 57.4991 75.8128 57.207L77.5719 56.4035ZM82.3046 60.8652C81.8054 60.8652 81.3773 60.8023 81.0202 60.6765C80.6631 60.5548 80.3547 60.3661 80.095 60.1104C79.9327 59.9481 79.8069 59.7777 79.7176 59.5991C79.6324 59.4206 79.5695 59.2461 79.5289 59.0757C79.4924 58.9012 79.4701 58.7368 79.462 58.5826C79.4579 58.4284 79.4559 58.2965 79.4559 58.187V58.0957C79.4599 57.9455 79.464 57.7304 79.4681 57.4504C79.4762 57.1664 79.4802 56.8336 79.4802 56.4522C79.4802 56.0707 79.4782 55.6507 79.4741 55.1922C79.4701 54.7336 79.4579 54.2771 79.4376 53.8226C79.4214 53.3641 79.395 52.9238 79.3585 52.5017C79.326 52.0797 79.2794 51.7125 79.2185 51.4L81.0385 50.8461C81.0912 51.1139 81.1339 51.4304 81.1663 51.7957C81.1988 52.1568 81.2252 52.5362 81.2454 52.9339C81.2698 53.3316 81.286 53.7313 81.2941 54.133C81.3063 54.5348 81.3144 54.9081 81.3185 55.253C81.3225 55.5574 81.3104 55.8557 81.282 56.1478C81.2576 56.4359 81.2373 56.72 81.2211 57C81.2049 57.2759 81.2049 57.5458 81.2211 57.8096C81.2414 58.0693 81.2982 58.3229 81.3915 58.5704C81.4281 58.6638 81.4727 58.7348 81.5254 58.7835C81.5823 58.8322 81.6472 58.8687 81.7202 58.893C81.7933 58.9133 81.8724 58.9255 81.9576 58.9296C82.0469 58.9336 82.1443 58.9357 82.2498 58.9357H82.3046C82.4344 58.9357 82.5582 58.962 82.6759 59.0148C82.7936 59.0675 82.895 59.1386 82.9802 59.2278C83.0695 59.313 83.1405 59.4145 83.1933 59.5322C83.246 59.6499 83.2724 59.7736 83.2724 59.9035C83.2724 60.0374 83.246 60.1632 83.1933 60.2809C83.1405 60.3986 83.0695 60.5 82.9802 60.5852C82.895 60.6745 82.7936 60.7435 82.6759 60.7922C82.5582 60.8409 82.4344 60.8652 82.3046 60.8652ZM81.3027 59.9035C81.3027 59.7696 81.3291 59.6438 81.3819 59.5261C81.4346 59.4084 81.5077 59.307 81.601 59.2217C81.6903 59.1365 81.7958 59.0696 81.9175 59.0209C82.0352 58.9681 82.161 58.9417 82.2949 58.9417H87.8219C87.9517 58.9417 88.0755 58.9681 88.1932 59.0209C88.3109 59.0696 88.4123 59.1365 88.4975 59.2217C88.5868 59.307 88.6578 59.4084 88.7106 59.5261C88.7633 59.6438 88.7897 59.7696 88.7897 59.9035C88.7897 60.0374 88.7633 60.1632 88.7106 60.2809C88.6578 60.3986 88.5868 60.5 88.4975 60.5852C88.4123 60.6745 88.3109 60.7435 88.1932 60.7922C88.0755 60.8409 87.9517 60.8652 87.8219 60.8652H82.2888C82.159 60.8652 82.0352 60.8409 81.9175 60.7922C81.7958 60.7435 81.6903 60.6745 81.601 60.5852C81.5077 60.5 81.4346 60.3986 81.3819 60.2809C81.3291 60.1632 81.3027 60.0374 81.3027 59.9035ZM86.7288 59.9096C86.7288 59.7716 86.7531 59.6438 86.8018 59.5261C86.8505 59.4084 86.9215 59.307 87.0149 59.2217C87.1042 59.1325 87.2117 59.0635 87.3375 59.0148C87.4592 58.9661 87.5972 58.9417 87.7514 58.9417H88.0923H88.3905C88.6097 58.9417 88.8511 58.9397 89.1149 58.9357C89.3786 58.9275 89.6323 58.9072 89.8758 58.8748C90.1233 58.8383 90.3444 58.7855 90.5392 58.7165C90.7381 58.6475 90.8821 58.5522 90.9714 58.4304C91.0931 58.2438 91.154 58.0307 91.154 57.7913C91.154 57.7101 91.1459 57.629 91.1297 57.5478C91.1175 57.4626 91.1013 57.3754 91.081 57.2861C91.0526 57.1846 90.9917 57.0629 90.8984 56.9209C90.8091 56.7748 90.6934 56.6165 90.5514 56.4461C90.4094 56.2716 90.2471 56.089 90.0644 55.8983C89.8818 55.7035 89.6871 55.5067 89.4801 55.3078C89.2731 55.1049 89.056 54.9041 88.8288 54.7052C88.6015 54.5064 88.3743 54.3136 88.1471 54.127L88.3358 52.4713L93.4488 50.1948L94.1853 51.8261L90.1436 53.7009C90.3424 53.8388 90.5473 54.0032 90.7584 54.1939C90.9694 54.3846 91.1743 54.5936 91.3731 54.8209C91.572 55.0441 91.7586 55.2814 91.9331 55.533C92.1076 55.7846 92.2598 56.0423 92.3897 56.3061C92.5195 56.5699 92.621 56.8357 92.694 57.1035C92.7711 57.3713 92.8076 57.633 92.8036 57.8887C92.7995 58.193 92.7589 58.4771 92.6818 58.7409C92.6047 59.0006 92.5094 59.2339 92.3958 59.4409C91.9737 60.1957 91.2778 60.6562 90.3079 60.8226L90.314 60.8165C90.2044 60.8368 90.101 60.851 90.0036 60.8591C89.9062 60.8672 89.8108 60.8713 89.7175 60.8713L87.7514 60.8652C87.6013 60.8652 87.4633 60.8409 87.3375 60.7922C87.2117 60.7435 87.1042 60.6745 87.0149 60.5852C86.9256 60.5 86.8566 60.4006 86.8079 60.287C86.7552 60.1693 86.7288 60.0435 86.7288 59.9096ZM102.514 60.8652C102.424 60.8652 102.299 60.8591 102.136 60.847C101.974 60.8348 101.799 60.7901 101.613 60.713C101.524 61.2162 101.355 61.693 101.108 62.1435C100.864 62.598 100.562 63.022 100.201 63.4157C99.8395 63.8133 99.4276 64.1786 98.965 64.5113C98.5024 64.8441 98.0094 65.1423 97.4859 65.4061L96.372 63.8661C96.6601 63.72 96.9502 63.5597 97.2424 63.3852C97.5346 63.2148 97.8125 63.0322 98.0763 62.8374C98.3441 62.6467 98.5917 62.4458 98.8189 62.2348C99.0502 62.0278 99.2511 61.8128 99.4215 61.5896C99.592 61.3664 99.7259 61.1371 99.8233 60.9017C99.9207 60.6704 99.9694 60.4351 99.9694 60.1957C99.9694 60.1835 99.9673 60.1652 99.9633 60.1409C99.9633 60.1165 99.9633 60.0922 99.9633 60.0678C99.9633 60.0435 99.9612 60.0252 99.9572 60.013C99.9572 60.0009 99.9572 60.0029 99.9572 60.0191V60.0252C99.9288 59.7899 99.8882 59.5646 99.8354 59.3496C99.7827 59.1345 99.7157 58.9154 99.6346 58.6922C99.5575 58.469 99.4662 58.2357 99.3607 57.9922C99.2551 57.7446 99.1375 57.4748 99.0076 57.1826L100.767 56.4157C100.929 56.9026 101.081 57.3084 101.223 57.633C101.365 57.9577 101.503 58.2174 101.637 58.4122C101.775 58.607 101.913 58.7449 102.051 58.8261C102.189 58.9032 102.335 58.9417 102.489 58.9417H102.52C102.654 58.9417 102.779 58.9681 102.897 59.0209C103.015 59.0736 103.116 59.1446 103.202 59.2339C103.291 59.3191 103.36 59.4206 103.408 59.5383C103.461 59.6559 103.488 59.7797 103.488 59.9096C103.488 60.0435 103.461 60.1693 103.408 60.287C103.36 60.4046 103.291 60.5061 103.202 60.5913C103.116 60.6765 103.015 60.7435 102.897 60.7922C102.779 60.8409 102.652 60.8652 102.514 60.8652ZM101.457 59.9035C101.457 59.7696 101.481 59.6438 101.53 59.5261C101.578 59.4084 101.647 59.307 101.737 59.2217C101.822 59.1325 101.923 59.0635 102.041 59.0148C102.159 58.9661 102.284 58.9417 102.418 58.9417H102.881C103.173 58.9417 103.453 58.9296 103.721 58.9052C103.993 58.8809 104.232 58.8301 104.439 58.753C104.646 58.6719 104.813 58.5603 104.938 58.4183C105.068 58.2722 105.137 58.0794 105.145 57.84C105.149 57.7507 105.149 57.6777 105.145 57.6209C105.145 57.56 105.135 57.489 105.115 57.4078C105.095 57.3226 105.064 57.213 105.024 57.0791C104.987 56.9412 104.934 56.7484 104.865 56.5009L106.637 56.0017C106.714 56.1965 106.785 56.4542 106.85 56.7748C106.915 57.0954 106.963 57.4464 106.996 57.8278C107.004 57.9496 107.018 58.0754 107.038 58.2052C107.059 58.3351 107.091 58.4548 107.136 58.5643C107.184 58.6739 107.249 58.7652 107.331 58.8383C107.412 58.9072 107.517 58.9417 107.647 58.9417C107.781 58.9417 107.907 58.9661 108.024 59.0148C108.142 59.0635 108.244 59.1325 108.329 59.2217C108.418 59.307 108.487 59.4084 108.536 59.5261C108.588 59.6438 108.615 59.7696 108.615 59.9035C108.615 60.0374 108.588 60.1632 108.536 60.2809C108.487 60.3986 108.418 60.5 108.329 60.5852C108.239 60.6745 108.136 60.7435 108.018 60.7922C107.905 60.8409 107.783 60.8652 107.653 60.8652C107.264 60.8652 106.929 60.8043 106.649 60.6826C106.373 60.5649 106.135 60.4107 105.937 60.22C105.754 60.3417 105.543 60.4432 105.304 60.5243C105.068 60.6055 104.817 60.6704 104.549 60.7191C104.281 60.7719 104.005 60.8084 103.721 60.8287C103.437 60.853 103.157 60.8652 102.881 60.8652H102.418C102.284 60.8652 102.159 60.8409 102.041 60.7922C101.923 60.7435 101.822 60.6745 101.737 60.5852C101.647 60.5 101.578 60.3986 101.53 60.2809C101.481 60.1632 101.457 60.0374 101.457 59.9035ZM107.501 54.0357L106.332 55.2104L105.176 54.0539L104.031 55.1983L102.851 54.0235L104.019 52.8487L105.176 54.0052L106.32 52.8609L107.501 54.0357ZM106.76 59.9035C106.76 59.7696 106.786 59.6438 106.839 59.5261C106.892 59.4084 106.965 59.307 107.058 59.2217C107.147 59.1365 107.253 59.0696 107.375 59.0209C107.492 58.9681 107.618 58.9417 107.752 58.9417H113.279C113.409 58.9417 113.533 58.9681 113.65 59.0209C113.768 59.0696 113.869 59.1365 113.955 59.2217C114.044 59.307 114.115 59.4084 114.168 59.5261C114.22 59.6438 114.247 59.7696 114.247 59.9035C114.247 60.0374 114.22 60.1632 114.168 60.2809C114.115 60.3986 114.044 60.5 113.955 60.5852C113.869 60.6745 113.768 60.7435 113.65 60.7922C113.533 60.8409 113.409 60.8652 113.279 60.8652H107.746C107.616 60.8652 107.492 60.8409 107.375 60.7922C107.253 60.7435 107.147 60.6745 107.058 60.5852C106.965 60.5 106.892 60.3986 106.839 60.2809C106.786 60.1632 106.76 60.0374 106.76 59.9035ZM112.295 59.9035C112.295 59.7696 112.322 59.6438 112.375 59.5261C112.423 59.4084 112.492 59.307 112.581 59.2217C112.667 59.1325 112.77 59.0635 112.892 59.0148C113.01 58.9661 113.135 58.9417 113.269 58.9417C113.419 58.9417 113.604 58.9397 113.823 58.9357C114.046 58.9275 114.284 58.9154 114.535 58.8991C114.787 58.8829 115.043 58.8626 115.302 58.8383C115.566 58.8139 115.816 58.7814 116.051 58.7409C116.29 58.7003 116.506 58.6536 116.696 58.6009C116.891 58.5441 117.043 58.4791 117.153 58.4061C116.743 58.4507 116.366 58.469 116.021 58.4609C115.676 58.4487 115.367 58.4142 115.095 58.3574C114.824 58.3006 114.59 58.2235 114.395 58.1261C114.205 58.0246 114.059 57.909 113.957 57.7791V57.7852C113.848 57.6472 113.744 57.4626 113.647 57.2313C113.553 57 113.507 56.7139 113.507 56.373C113.507 56.1904 113.519 56.02 113.543 55.8617C113.665 55.1719 113.908 54.6017 114.274 54.1513L114.268 54.1574C114.487 53.8652 114.734 53.6481 115.01 53.5061C115.286 53.36 115.576 53.287 115.881 53.287C116.189 53.287 116.493 53.362 116.794 53.5122C117.094 53.6623 117.366 53.8652 117.609 54.1209C117.784 54.3197 117.94 54.5449 118.078 54.7965C118.22 55.0481 118.34 55.3159 118.437 55.6C118.539 55.8841 118.616 56.1803 118.668 56.4887C118.725 56.793 118.754 57.0994 118.754 57.4078C118.754 57.5012 118.752 57.5945 118.748 57.6878C118.744 57.7771 118.737 57.8623 118.729 57.9435C118.681 58.3655 118.573 58.7307 118.407 59.0391C118.24 59.3435 118.027 59.6032 117.768 59.8183C117.512 60.0333 117.218 60.2078 116.885 60.3417C116.552 60.4757 116.195 60.5812 115.814 60.6583C115.432 60.7354 115.032 60.7881 114.615 60.8165C114.201 60.8449 113.783 60.8612 113.361 60.8652H113.257C113.123 60.8652 112.997 60.8388 112.88 60.7861C112.762 60.7374 112.661 60.6704 112.575 60.5852C112.49 60.5 112.423 60.3986 112.375 60.2809C112.322 60.1632 112.295 60.0374 112.295 59.9035ZM115.868 55.2226C115.775 55.2186 115.68 55.247 115.582 55.3078C115.489 55.3646 115.402 55.4417 115.321 55.5391C115.244 55.6365 115.179 55.7481 115.126 55.8739C115.077 55.9997 115.053 56.1275 115.053 56.2574C115.053 56.371 115.079 56.4725 115.132 56.5617C115.16 56.6104 115.217 56.653 115.302 56.6896C115.392 56.722 115.495 56.7504 115.613 56.7748C115.735 56.7951 115.864 56.8133 116.002 56.8296C116.14 56.8417 116.272 56.8499 116.398 56.8539C116.524 56.858 116.637 56.858 116.739 56.8539C116.844 56.8499 116.921 56.8438 116.97 56.8357C116.934 56.653 116.885 56.4684 116.824 56.2817C116.767 56.0951 116.694 55.9246 116.605 55.7704C116.516 55.6162 116.41 55.4884 116.288 55.387C116.167 55.2855 116.027 55.2307 115.868 55.2226ZM115.631 49.8174L116.982 51.1687L115.631 52.52L114.28 51.1687L115.631 49.8174ZM119.96 58.0226C120.13 58.1322 120.329 58.2417 120.556 58.3513C120.787 58.4609 121.023 58.5623 121.262 58.6557C121.506 58.7449 121.741 58.818 121.968 58.8748C122.196 58.9316 122.392 58.96 122.559 58.96C122.62 58.96 122.699 58.958 122.796 58.9539C122.893 58.9458 122.995 58.9336 123.1 58.9174C123.21 58.8971 123.32 58.8728 123.429 58.8443C123.539 58.8119 123.638 58.7713 123.727 58.7226C123.821 58.6739 123.896 58.6171 123.953 58.5522C124.009 58.4832 124.04 58.402 124.044 58.3087C124.048 58.1504 123.999 57.9719 123.898 57.773C123.8 57.5742 123.667 57.3672 123.496 57.1522C123.33 56.933 123.135 56.7139 122.912 56.4948C122.693 56.2716 122.465 56.0586 122.23 55.8557C121.995 55.6487 121.759 55.458 121.524 55.2835C121.289 55.1049 121.071 54.9528 120.873 54.827L121.95 53.2261C122.344 53.502 122.733 53.8104 123.119 54.1513C123.508 54.4922 123.867 54.8554 124.196 55.2409C124.525 55.6223 124.809 56.018 125.048 56.4278C125.288 56.8377 125.46 57.2475 125.566 57.6574C125.598 57.7751 125.62 57.8948 125.633 58.0165C125.645 58.1342 125.651 58.2478 125.651 58.3574C125.651 58.7348 125.578 59.0817 125.432 59.3983C125.286 59.7107 125.081 59.9826 124.817 60.2139C124.557 60.4412 124.245 60.6177 123.88 60.7435C123.514 60.8693 123.113 60.9322 122.674 60.9322C122.642 60.9322 122.609 60.9301 122.577 60.9261C122.544 60.9261 122.512 60.9261 122.48 60.9261C122.2 60.9261 121.911 60.8957 121.615 60.8348C121.323 60.778 121.033 60.7009 120.745 60.6035C120.461 60.5061 120.183 60.3925 119.911 60.2626C119.643 60.1328 119.393 59.9968 119.162 59.8548L119.96 58.0226Z" fill="#303030"/>
<defs>
<linearGradient id="paint0_linear_1325_10708" x1="5.08426" y1="6.15789" x2="151.122" y2="67.5913" gradientUnits="userSpaceOnUse">
<stop stop-color="#EAEAEA"/>
<stop offset="1" stop-color="#BDBDBD"/>
</linearGradient>
</defs>
</svg>
