<svg width="147" height="90" viewBox="0 0 147 90" fill="none" xmlns="http://www.w3.org/2000/svg">
<rect x="0.75" y="0.75" width="145.5" height="88.5" rx="9.25" fill="white" stroke="url(#paint0_linear_1325_10424)" stroke-width="1.5"/>
<path d="M49.9251 62.8236H46.2303V47.1846C46.4059 47.2026 46.5807 47.2205 46.7649 47.2205C48.8372 47.2205 50.5123 45.6405 50.5123 43.6747V43.6574C50.5036 43.5869 50.4957 43.5171 50.4684 43.4639C50.4684 43.4466 50.459 43.4286 50.459 43.4286C50.4338 43.3941 50.4151 43.3581 50.3892 43.3236L46.2296 37.8825V29.1423H47.2564C47.5902 29.1423 47.8536 28.879 47.8536 28.5451V25.5972C47.8536 25.2633 47.5902 25 47.2564 25H14.7437C14.4192 25 14.1472 25.2633 14.1472 25.5972V28.5458C14.1472 28.8797 14.4192 29.1431 14.7437 29.1431H15.7791V37.8832L11.6108 43.3243C11.5842 43.3595 11.5669 43.3948 11.5497 43.4293C11.5403 43.4466 11.5403 43.4466 11.5317 43.4646C11.5058 43.5171 11.4964 43.5876 11.4878 43.6581V43.6754C11.4878 45.6405 13.1722 47.2213 15.2351 47.2213C15.4193 47.2213 15.5949 47.204 15.7791 47.1853V62.8236H12.085C11.7519 62.8236 11.4885 63.0869 11.4885 63.4208C11.4885 63.7359 11.7519 64 12.085 64H49.9251C50.2489 64 50.5123 63.7367 50.5123 63.4208C50.513 63.0869 50.2496 62.8236 49.9251 62.8236ZM46.7657 46.0441C45.5734 46.0441 44.5718 45.2893 44.2919 44.2712H49.2502C48.9602 45.29 47.9594 46.0441 46.7657 46.0441ZM16.9555 37.4968V29.1423H45.046V37.4968H40.913H35.9374H31.0051H26.0734H21.0978H16.9555ZM21.4662 38.6905H25.3186L24.5638 41.7449L24.2307 43.0789H19.3336L21.4662 38.6905ZM26.2044 40.0245L26.5382 38.6905H30.4079V43.0782H25.4496L26.2044 40.0245ZM31.6023 38.6905H35.4726L36.5606 43.0782H31.6023V38.6905ZM37.7802 43.0782L36.6915 38.6905H40.5439L42.6766 43.0782H37.7802ZM24.0199 44.2719C23.7385 45.29 22.7297 46.0448 21.5454 46.0448C20.3517 46.0448 19.3422 45.29 19.0616 44.2719H24.0199ZM30.3294 44.2719C30.0395 45.29 29.0393 46.0448 27.8463 46.0448C26.662 46.0448 25.6525 45.29 25.3719 44.2719H30.3294ZM36.6397 44.2719C36.3497 45.29 35.3496 46.0448 34.1559 46.0448C32.9622 46.0448 31.962 45.29 31.6721 44.2719H36.6397ZM42.9493 44.2719C42.6672 45.29 41.6592 46.0448 40.4655 46.0448C39.2804 46.0448 38.2716 45.29 37.9903 44.2719H42.9493ZM43.9926 43.0782L41.8599 38.6905H44.1329H45.3439L48.7228 43.0782H43.9926ZM15.3315 27.9486V26.1944H46.6692V27.9486H15.3315ZM16.6569 38.6905H18.7191H20.1495L18.0175 43.0782H13.278L16.6569 38.6905ZM12.752 44.2719H17.7103C17.429 45.29 16.4202 46.0448 15.2358 46.0448C14.0414 46.0441 13.0413 45.29 12.752 44.2719ZM26.8627 62.8236H20.9482V57.453H26.8627V62.8236ZM26.8627 56.2766H20.9482V50.9053H26.8627V56.2766ZM28.0478 62.8236V50.3095C28.0478 49.9936 27.7844 49.7295 27.4599 49.7295H20.3603C20.0358 49.7295 19.7725 49.9929 19.7725 50.3095V62.8236H16.9555V46.8169C17.5434 46.5356 18.0348 46.0974 18.3859 45.5879C19.0529 46.5708 20.22 47.2205 21.5454 47.2205C22.8614 47.2205 24.0285 46.5708 24.6955 45.5879C25.3625 46.5708 26.5209 47.2205 27.8463 47.2205C29.171 47.2205 30.3381 46.5708 31.0058 45.5879C31.6642 46.5708 32.8312 47.2205 34.1559 47.2205C35.4805 47.2205 36.6483 46.5708 37.3161 45.5707C37.9737 46.5708 39.1494 47.2205 40.4662 47.2205C41.7915 47.2205 42.9586 46.5708 43.6249 45.5879C43.976 46.1146 44.4682 46.5356 45.0467 46.8169V62.8236H28.0478Z" fill="#303030"/>
<path d="M23.5635 35.0929V31.5471C23.5635 31.2139 23.3001 30.9506 22.9756 30.9506H19.7636C19.4391 30.9506 19.1758 31.2139 19.1758 31.5471V35.0929C19.1758 35.426 19.4391 35.6894 19.7636 35.6894H22.9756C23.3001 35.6887 23.5635 35.426 23.5635 35.0929ZM22.387 34.5137H20.3601V32.127H22.387V34.5137Z" fill="#303030"/>
<path d="M26.1875 35.6887H29.3994C29.724 35.6887 29.9866 35.4253 29.9866 35.0922V31.5471C29.9866 31.2139 29.7232 30.9506 29.3994 30.9506H26.1875C25.8622 30.9506 25.5996 31.2139 25.5996 31.5471V35.0929C25.5996 35.426 25.863 35.6887 26.1875 35.6887ZM26.7753 32.1263H28.803V34.513H26.7753V32.1263Z" fill="#303030"/>
<path d="M32.6114 35.6887H35.8147C36.1471 35.6887 36.4112 35.4253 36.4112 35.0922V31.5471C36.4112 31.2139 36.1471 30.9506 35.8147 30.9506H32.6114C32.2775 30.9506 32.0142 31.2139 32.0142 31.5471V35.0929C32.0142 35.426 32.2775 35.6887 32.6114 35.6887ZM33.1992 32.1263H35.2261V34.513H33.1992V32.1263Z" fill="#303030"/>
<path d="M39.0257 35.6887H42.2377C42.5629 35.6887 42.8263 35.4253 42.8263 35.0922V31.5471C42.8263 31.2139 42.5629 30.9506 42.2377 30.9506H39.0257C38.7019 30.9506 38.4292 31.2139 38.4292 31.5471V35.0929C38.4292 35.426 38.7019 35.6887 39.0257 35.6887ZM39.6222 32.1263H41.6412V34.513H39.6222V32.1263Z" fill="#303030"/>
<path fill-rule="evenodd" clip-rule="evenodd" d="M31.6538 51.7601H43.1857V60.9658H31.6538V51.7601ZM32.3733 52.4797V60.2463H42.4662V52.4797H32.3733Z" fill="#303030"/>
<path fill-rule="evenodd" clip-rule="evenodd" d="M38.208 55.2662L42.6051 51.8362L43.0476 52.4035L38.6506 55.8335L38.208 55.2662Z" fill="#303030"/>
<path fill-rule="evenodd" clip-rule="evenodd" d="M38.0693 60.2447V55.5498H38.7889V60.2447H38.0693Z" fill="#303030"/>
<path fill-rule="evenodd" clip-rule="evenodd" d="M35.7442 55.3858L31.7969 52.407L32.2303 51.8326L36.1776 54.8115L35.7442 55.3858Z" fill="#303030"/>
<path fill-rule="evenodd" clip-rule="evenodd" d="M35.6016 60.606V55.0988H36.3211V60.606H35.6016Z" fill="#303030"/>
<path d="M76.1112 31.4435C76.1356 31.4922 76.1782 31.5814 76.239 31.7113C76.304 31.8371 76.377 31.9913 76.4582 32.1739C76.5393 32.3525 76.6245 32.5533 76.7138 32.7765C76.8031 32.9997 76.8843 33.2351 76.9573 33.4826C77.0303 33.7261 77.0892 33.9757 77.1338 34.2313C77.1825 34.4829 77.2069 34.7304 77.2069 34.9739C77.2028 35.3757 77.1419 35.751 77.0243 36.1C76.9106 36.449 76.7422 36.7533 76.519 37.013C76.2958 37.2687 76.0199 37.4716 75.6912 37.6217C75.3625 37.7719 74.9831 37.847 74.5529 37.847C74.1796 37.847 73.8732 37.7841 73.6338 37.6583C73.3985 37.5325 73.2037 37.36 73.0495 37.1409C72.9643 37.2504 72.8729 37.3499 72.7756 37.4391C72.6782 37.5243 72.5625 37.5974 72.4286 37.6583C72.2987 37.7232 72.1445 37.7719 71.966 37.8043C71.7915 37.8368 71.5825 37.853 71.339 37.853C71.1686 37.853 71.0124 37.8409 70.8703 37.8165C70.7283 37.7922 70.5985 37.7617 70.4808 37.7252C70.4767 38.2 70.4037 38.6322 70.2616 39.0217C70.1237 39.4113 69.9329 39.7603 69.6895 40.0687C69.45 40.3771 69.168 40.6449 68.8434 40.8722C68.5187 41.0994 68.1698 41.2861 67.7964 41.4322C67.4231 41.5823 67.0315 41.6939 66.6216 41.767C66.2158 41.84 65.8121 41.8765 65.4103 41.8765C64.7895 41.8765 64.2153 41.773 63.6877 41.5661C63.1602 41.3632 62.7037 41.0751 62.3182 40.7017C61.9367 40.3325 61.6385 39.8861 61.4234 39.3626C61.2083 38.8432 61.1008 38.269 61.1008 37.64C61.1129 37.2748 61.1616 36.9014 61.2469 36.52C61.3361 36.1386 61.4477 35.7652 61.5816 35.4C61.7196 35.0348 61.8718 34.6878 62.0382 34.3591C62.2086 34.0264 62.3811 33.7281 62.5556 33.4643L63.8825 34.487C63.7364 34.7264 63.5944 34.98 63.4564 35.2478C63.3185 35.5116 63.1967 35.7835 63.0912 36.0635C62.9857 36.3394 62.9005 36.6154 62.8356 36.8913C62.7706 37.1672 62.7382 37.433 62.7382 37.6887C62.726 37.9971 62.7869 38.2872 62.9208 38.5591C63.0587 38.831 63.2474 39.0684 63.4869 39.2713C63.7303 39.4783 64.0144 39.6406 64.339 39.7583C64.6677 39.8759 65.0167 39.9348 65.386 39.9348C65.804 39.9348 66.1895 39.8962 66.5425 39.8191C66.8996 39.742 67.2141 39.6345 67.486 39.4965C67.7619 39.3626 67.9932 39.1983 68.1799 39.0035C68.3666 38.8128 68.5005 38.6017 68.5816 38.3704L68.5756 38.3765C68.677 38.0438 68.7277 37.7009 68.7277 37.3478C68.7277 37.0759 68.6892 36.8 68.6121 36.52C68.535 36.24 68.4356 35.958 68.3138 35.6739C68.1921 35.3858 68.0561 35.0977 67.906 34.8096C67.7599 34.5174 67.6158 34.2252 67.4738 33.933L69.1416 32.9957C69.2471 33.2351 69.3527 33.4765 69.4582 33.72C69.5637 33.9635 69.6692 34.1968 69.7747 34.42C69.8843 34.6391 69.9958 34.8441 70.1095 35.0348C70.2231 35.2255 70.3408 35.3899 70.4625 35.5278C70.5843 35.6617 70.71 35.7632 70.8399 35.8322C70.9738 35.9012 71.1158 35.9255 71.266 35.9052C71.4364 35.8809 71.5744 35.822 71.6799 35.7287C71.7854 35.6313 71.8645 35.5116 71.9173 35.3696C71.9741 35.2275 72.0086 35.0693 72.0208 34.8948C72.037 34.7162 72.0411 34.5357 72.0329 34.353C72.0248 34.1704 72.0106 33.9899 71.9903 33.8113C71.9741 33.6328 71.9599 33.4684 71.9477 33.3183L73.6277 33.093C73.6561 33.2188 73.6805 33.371 73.7008 33.5496C73.7211 33.7241 73.7434 33.9087 73.7677 34.1035C73.7961 34.2983 73.8306 34.4951 73.8712 34.6939C73.9118 34.8928 73.9666 35.0774 74.0356 35.2478C74.1045 35.4183 74.1898 35.5664 74.2912 35.6922C74.3927 35.818 74.5205 35.9072 74.6747 35.96C74.8005 35.96 74.9182 35.9377 75.0277 35.893C75.1373 35.8443 75.2327 35.7754 75.3138 35.6861C75.395 35.5968 75.4579 35.4872 75.5025 35.3574C75.5512 35.2235 75.5756 35.0693 75.5756 34.8948C75.5756 34.7487 75.5471 34.5803 75.4903 34.3896C75.4376 34.1948 75.3645 33.9858 75.2712 33.7626C75.1779 33.5394 75.0683 33.3061 74.9425 33.0626C74.8208 32.8151 74.6909 32.5655 74.5529 32.3139L76.1112 31.4435ZM74.7964 30.5365L73.6277 31.7113L72.4712 30.5548L71.3269 31.6991L70.146 30.5243L71.3147 29.3496L72.4712 30.5061L73.6156 29.3617L74.7964 30.5365ZM71.3877 28.7713L72.4712 27.6878L73.5608 28.7774L72.4773 29.8609L71.3877 28.7713ZM80.5959 33.9087C80.5107 33.8925 80.4133 33.9229 80.3037 34C80.1982 34.073 80.0968 34.1745 79.9994 34.3043C79.9061 34.4301 79.8269 34.5701 79.762 34.7243C79.7011 34.8786 79.6707 35.0267 79.6707 35.1687C79.6707 35.3026 79.7092 35.4142 79.7863 35.5035C79.8635 35.5928 79.9608 35.6658 80.0785 35.7226C80.2003 35.7794 80.3321 35.822 80.4742 35.8504C80.6203 35.8788 80.7603 35.8991 80.8942 35.9113H80.8881C80.9936 35.9194 81.1133 35.9255 81.2472 35.9296C81.3852 35.9296 81.5191 35.9296 81.649 35.9296C81.6895 35.9296 81.72 35.9316 81.7403 35.9357C81.7646 35.9357 81.7849 35.9357 81.8011 35.9357C81.8174 35.9357 81.8336 35.9357 81.8498 35.9357C81.8701 35.9357 81.8985 35.9336 81.935 35.9296C81.8742 35.678 81.8011 35.4386 81.7159 35.2113C81.6348 34.98 81.5394 34.773 81.4298 34.5904C81.3203 34.4078 81.1965 34.2577 81.0585 34.14C80.9206 34.0183 80.7663 33.9412 80.5959 33.9087ZM77.6133 40.2817C78.1855 40.1681 78.7069 40.0241 79.1777 39.8496C79.6484 39.6791 80.0603 39.4864 80.4133 39.2713C80.7704 39.0603 81.0646 38.8351 81.2959 38.5957C81.5313 38.3562 81.6977 38.1128 81.795 37.8652C81.6206 37.8652 81.4359 37.8612 81.2411 37.853C81.0463 37.849 80.8861 37.8429 80.7603 37.8348C80.2895 37.7942 79.8594 37.6887 79.4698 37.5183C79.0803 37.3519 78.7698 37.1246 78.5385 36.8365C78.3681 36.6174 78.2463 36.38 78.1733 36.1243C78.1043 35.8687 78.0698 35.5988 78.0698 35.3148C78.0698 35.0957 78.0901 34.8765 78.1307 34.6574C78.1713 34.4342 78.2281 34.2191 78.3011 34.0122C78.3742 33.8012 78.4594 33.6023 78.5568 33.4157C78.6582 33.229 78.7658 33.0586 78.8794 32.9043C79.1229 32.6 79.3887 32.3707 79.6768 32.2165C79.969 32.0583 80.2753 31.9791 80.5959 31.9791C81.2817 31.9791 81.9006 32.2794 82.4524 32.88C82.6472 33.0991 82.8217 33.3446 82.9759 33.6165C83.1301 33.8884 83.26 34.1786 83.3655 34.487C83.475 34.7913 83.5582 35.1119 83.615 35.4487C83.6719 35.7814 83.7003 36.1203 83.7003 36.4652C83.7003 36.5707 83.6962 36.6762 83.6881 36.7817C83.684 36.8872 83.6779 36.9867 83.6698 37.08C83.6211 37.5548 83.5136 37.9991 83.3472 38.413C83.1849 38.831 82.9739 39.2145 82.7142 39.5635C82.4585 39.9165 82.1603 40.2351 81.8194 40.5191C81.4785 40.8072 81.1072 41.0588 80.7055 41.2739C80.3078 41.493 79.8858 41.6757 79.4394 41.8217C78.993 41.9678 78.5345 42.0774 78.0637 42.1504L77.6133 40.2817ZM88.857 37.8652C88.7677 37.8652 88.6419 37.8591 88.4796 37.847C88.3173 37.8348 88.1428 37.7901 87.9561 37.713C87.8668 38.2162 87.6984 38.693 87.4509 39.1435C87.2074 39.598 86.9051 40.022 86.5439 40.4157C86.1828 40.8133 85.7709 41.1786 85.3083 41.5113C84.8457 41.8441 84.3526 42.1423 83.8291 42.4061L82.7152 40.8661C83.0033 40.72 83.2935 40.5597 83.5857 40.3852C83.8778 40.2148 84.1558 40.0322 84.4196 39.8374C84.6874 39.6467 84.9349 39.4458 85.1622 39.2348C85.3935 39.0278 85.5944 38.8128 85.7648 38.5896C85.9352 38.3664 86.0691 38.1371 86.1665 37.9017C86.2639 37.6704 86.3126 37.4351 86.3126 37.1957C86.3126 37.1835 86.3106 37.1652 86.3065 37.1409C86.3065 37.1165 86.3065 37.0922 86.3065 37.0678C86.3065 37.0435 86.3045 37.0252 86.3004 37.013C86.3004 37.0009 86.3004 37.0029 86.3004 37.0191V37.0252C86.272 36.7899 86.2315 36.5646 86.1787 36.3496C86.1259 36.1345 86.059 35.9154 85.9778 35.6922C85.9007 35.469 85.8094 35.2357 85.7039 34.9922C85.5984 34.7446 85.4807 34.4748 85.3509 34.1826L87.11 33.4157C87.2723 33.9026 87.4245 34.3084 87.5665 34.633C87.7086 34.9577 87.8465 35.2174 87.9804 35.4122C88.1184 35.607 88.2564 35.7449 88.3944 35.8261C88.5323 35.9032 88.6784 35.9417 88.8326 35.9417H88.863C88.997 35.9417 89.1228 35.9681 89.2404 36.0209C89.3581 36.0736 89.4596 36.1446 89.5448 36.2339C89.6341 36.3191 89.703 36.4206 89.7517 36.5383C89.8045 36.6559 89.8309 36.7797 89.8309 36.9096C89.8309 37.0435 89.8045 37.1693 89.7517 37.287C89.703 37.4046 89.6341 37.5061 89.5448 37.5913C89.4596 37.6765 89.3581 37.7435 89.2404 37.7922C89.1228 37.8409 88.9949 37.8652 88.857 37.8652ZM87.8242 36.9035C87.8242 36.7696 87.8506 36.6438 87.9033 36.5261C87.952 36.4084 88.021 36.307 88.1103 36.2217C88.1955 36.1325 88.299 36.0635 88.4207 36.0148C88.5384 35.9661 88.6642 35.9417 88.7981 35.9417C88.9483 35.9417 89.1329 35.9397 89.352 35.9357C89.5752 35.9275 89.8126 35.9154 90.0642 35.8991C90.3158 35.8829 90.5714 35.8626 90.8312 35.8383C91.0949 35.8139 91.3445 35.7814 91.5799 35.7409C91.8193 35.7003 92.0343 35.6536 92.2251 35.6009C92.4199 35.5441 92.572 35.4791 92.6816 35.4061C92.2717 35.4507 91.8943 35.469 91.5494 35.4609C91.2045 35.4487 90.8961 35.4142 90.6242 35.3574C90.3523 35.3006 90.119 35.2235 89.9242 35.1261C89.7335 35.0246 89.5874 34.909 89.4859 34.7791V34.7852C89.3764 34.6472 89.2729 34.4626 89.1755 34.2313C89.0822 34 89.0355 33.7139 89.0355 33.373C89.0355 33.1904 89.0477 33.02 89.072 32.8617C89.1938 32.1719 89.4372 31.6017 89.8025 31.1513L89.7964 31.1574C90.0155 30.8652 90.263 30.6481 90.539 30.5061C90.8149 30.36 91.1051 30.287 91.4094 30.287C91.7178 30.287 92.0222 30.362 92.3225 30.5122C92.6227 30.6623 92.8946 30.8652 93.1381 31.1209C93.3126 31.3197 93.4688 31.5449 93.6068 31.7965C93.7488 32.0481 93.8685 32.3159 93.9659 32.6C94.0674 32.8841 94.1445 33.1803 94.1972 33.4887C94.2541 33.793 94.2825 34.0994 94.2825 34.4078C94.2825 34.5012 94.2804 34.5945 94.2764 34.6878C94.2723 34.7771 94.2662 34.8623 94.2581 34.9435C94.2094 35.3655 94.1019 35.7307 93.9355 36.0391C93.7691 36.3435 93.5561 36.6032 93.2964 36.8183C93.0407 37.0333 92.7465 37.2078 92.4138 37.3417C92.081 37.4757 91.7239 37.5812 91.3425 37.6583C90.961 37.7354 90.5613 37.7881 90.1433 37.8165C89.7294 37.8449 89.3114 37.8612 88.8894 37.8652H88.7859C88.652 37.8652 88.5262 37.8388 88.4085 37.7861C88.2909 37.7374 88.1894 37.6704 88.1042 37.5852C88.019 37.5 87.952 37.3986 87.9033 37.2809C87.8506 37.1632 87.8242 37.0374 87.8242 36.9035ZM91.3972 32.2226C91.3039 32.2186 91.2085 32.247 91.1112 32.3078C91.0178 32.3646 90.9306 32.4417 90.8494 32.5391C90.7723 32.6365 90.7074 32.7481 90.6546 32.8739C90.6059 32.9997 90.5816 33.1275 90.5816 33.2574C90.5816 33.371 90.608 33.4725 90.6607 33.5617C90.6891 33.6104 90.7459 33.653 90.8312 33.6896C90.9204 33.722 91.0239 33.7504 91.1416 33.7748C91.2633 33.7951 91.3932 33.8133 91.5312 33.8296C91.6691 33.8417 91.801 33.8499 91.9268 33.8539C92.0526 33.858 92.1662 33.858 92.2677 33.8539C92.3732 33.8499 92.4503 33.8438 92.499 33.8357C92.4625 33.653 92.4138 33.4684 92.3529 33.2817C92.2961 33.0951 92.223 32.9246 92.1338 32.7704C92.0445 32.6162 91.939 32.4884 91.8172 32.387C91.6955 32.2855 91.5555 32.2307 91.3972 32.2226ZM91.1599 26.8174L92.5112 28.1687L91.1599 29.52L89.8085 28.1687L91.1599 26.8174ZM101.035 33.9087C100.95 33.8925 100.853 33.9229 100.743 34C100.638 34.073 100.536 34.1745 100.439 34.3043C100.346 34.4301 100.266 34.5701 100.201 34.7243C100.141 34.8786 100.11 35.0267 100.11 35.1687C100.11 35.3026 100.149 35.4142 100.226 35.5035C100.303 35.5928 100.4 35.6658 100.518 35.7226C100.64 35.7794 100.772 35.822 100.914 35.8504C101.06 35.8788 101.2 35.8991 101.334 35.9113H101.328C101.433 35.9194 101.553 35.9255 101.687 35.9296C101.825 35.9296 101.959 35.9296 102.088 35.9296C102.129 35.9296 102.159 35.9316 102.18 35.9357C102.204 35.9357 102.224 35.9357 102.241 35.9357C102.257 35.9357 102.273 35.9357 102.289 35.9357C102.31 35.9357 102.338 35.9336 102.374 35.9296C102.314 35.678 102.241 35.4386 102.155 35.2113C102.074 34.98 101.979 34.773 101.869 34.5904C101.76 34.4078 101.636 34.2577 101.498 34.14C101.36 34.0183 101.206 33.9412 101.035 33.9087ZM98.0528 40.2817C98.6249 40.1681 99.1464 40.0241 99.6171 39.8496C100.088 39.6791 100.5 39.4864 100.853 39.2713C101.21 39.0603 101.504 38.8351 101.735 38.5957C101.971 38.3562 102.137 38.1128 102.234 37.8652C102.06 37.8652 101.875 37.8612 101.681 37.853C101.486 37.849 101.326 37.8429 101.2 37.8348C100.729 37.7942 100.299 37.6887 99.9093 37.5183C99.5197 37.3519 99.2093 37.1246 98.978 36.8365C98.8075 36.6174 98.6858 36.38 98.6128 36.1243C98.5438 35.8687 98.5093 35.5988 98.5093 35.3148C98.5093 35.0957 98.5296 34.8765 98.5702 34.6574C98.6107 34.4342 98.6675 34.2191 98.7406 34.0122C98.8136 33.8012 98.8988 33.6023 98.9962 33.4157C99.0977 33.229 99.2052 33.0586 99.3188 32.9043C99.5623 32.6 99.8281 32.3707 100.116 32.2165C100.408 32.0583 100.715 31.9791 101.035 31.9791C101.721 31.9791 102.34 32.2794 102.892 32.88C103.087 33.0991 103.261 33.3446 103.415 33.6165C103.57 33.8884 103.699 34.1786 103.805 34.487C103.914 34.7913 103.998 35.1119 104.054 35.4487C104.111 35.7814 104.14 36.1203 104.14 36.4652C104.14 36.5707 104.136 36.6762 104.128 36.7817C104.123 36.8872 104.117 36.9867 104.109 37.08C104.061 37.5548 103.953 37.9991 103.787 38.413C103.624 38.831 103.413 39.2145 103.154 39.5635C102.898 39.9165 102.6 40.2351 102.259 40.5191C101.918 40.8072 101.547 41.0588 101.145 41.2739C100.747 41.493 100.325 41.6757 99.8788 41.8217C99.4325 41.9678 98.9739 42.0774 98.5032 42.1504L98.0528 40.2817ZM110.881 37.8652C110.349 37.8652 109.828 37.7638 109.316 37.5609C108.809 37.358 108.338 37.0313 107.904 36.5809L109.006 35.0287C109.205 35.2113 109.398 35.3614 109.584 35.4791C109.771 35.5928 109.95 35.682 110.12 35.747C110.29 35.8119 110.451 35.8565 110.601 35.8809C110.755 35.9052 110.899 35.9174 111.033 35.9174C111.094 35.9174 111.163 35.9154 111.24 35.9113C111.317 35.9072 111.394 35.9012 111.471 35.893C111.548 35.8809 111.623 35.8667 111.696 35.8504C111.77 35.8342 111.836 35.8139 111.897 35.7896C112.108 35.7003 112.275 35.611 112.396 35.5217C112.242 35.1484 112.074 34.7609 111.891 34.3591C111.713 33.9533 111.532 33.5475 111.35 33.1417C111.167 32.7319 110.986 32.3261 110.808 31.9243C110.629 31.5226 110.463 31.1371 110.309 30.7678L112.086 30.0252L112.628 31.34C112.802 31.7701 113.011 32.2814 113.255 32.8739C113.498 33.4623 113.778 34.1299 114.095 34.8765C114.168 35.0551 114.235 35.2113 114.296 35.3452C114.356 35.4791 114.427 35.5907 114.509 35.68C114.594 35.7693 114.693 35.8362 114.807 35.8809C114.925 35.9214 115.075 35.9417 115.257 35.9417C115.387 35.9417 115.511 35.9661 115.629 36.0148C115.746 36.0635 115.848 36.1325 115.933 36.2217C116.022 36.307 116.093 36.4084 116.146 36.5261C116.199 36.6438 116.225 36.7696 116.225 36.9035C116.225 37.0374 116.199 37.1632 116.146 37.2809C116.093 37.3986 116.022 37.5 115.933 37.5852C115.848 37.6745 115.746 37.7435 115.629 37.7922C115.511 37.8409 115.387 37.8652 115.257 37.8652C115.01 37.8652 114.791 37.849 114.6 37.8165C114.413 37.7841 114.245 37.7374 114.095 37.6765C113.949 37.6197 113.817 37.5507 113.699 37.4696C113.585 37.3843 113.478 37.291 113.376 37.1896C113.267 37.2626 113.151 37.3336 113.03 37.4026C112.908 37.4675 112.768 37.5325 112.61 37.5974C112.366 37.6907 112.102 37.7577 111.818 37.7983C111.538 37.8429 111.226 37.8652 110.881 37.8652ZM119.879 39.8678L118.711 41.0426L117.554 39.8861L116.41 41.0304L115.229 39.8557L116.398 38.6809L117.554 39.8374L118.698 38.693L119.879 39.8678ZM113.993 36.9035C113.993 36.7696 114.02 36.6438 114.072 36.5261C114.121 36.4084 114.188 36.307 114.273 36.2217C114.358 36.1325 114.46 36.0635 114.578 36.0148C114.695 35.9661 114.821 35.9417 114.955 35.9417H115.631H115.923C116.105 35.9417 116.306 35.9336 116.525 35.9174C116.744 35.9012 116.956 35.8748 117.158 35.8383C117.361 35.8017 117.544 35.753 117.706 35.6922C117.873 35.6272 117.994 35.5461 118.071 35.4487C118.116 35.3797 118.138 35.2864 118.138 35.1687C118.138 34.9942 118.096 34.7872 118.011 34.5478C117.929 34.3084 117.832 34.0649 117.718 33.8174C117.605 33.5699 117.487 33.3325 117.365 33.1052C117.248 32.878 117.152 32.6893 117.079 32.5391L118.814 31.687C118.94 31.9061 119.062 32.1658 119.179 32.4661C119.297 32.7623 119.402 33.0687 119.496 33.3852C119.589 33.6977 119.664 34.0061 119.721 34.3104C119.778 34.6107 119.806 34.8725 119.806 35.0957C119.806 35.5055 119.733 35.8809 119.587 36.2217C119.417 36.6032 119.183 36.9197 118.887 37.1713C118.591 37.4188 118.236 37.6014 117.822 37.7191C117.7 37.7516 117.548 37.778 117.365 37.7983C117.183 37.8186 116.998 37.8328 116.811 37.8409C116.625 37.853 116.448 37.8591 116.282 37.8591C116.116 37.8632 115.986 37.8652 115.892 37.8652H115.01H114.955C114.821 37.8652 114.695 37.8409 114.578 37.7922C114.46 37.7435 114.358 37.6745 114.273 37.5852C114.188 37.5 114.121 37.3986 114.072 37.2809C114.02 37.1632 113.993 37.0374 113.993 36.9035ZM125.757 37.8652C125.668 37.8652 125.542 37.8591 125.38 37.847C125.218 37.8348 125.043 37.7901 124.856 37.713C124.767 38.2162 124.599 38.693 124.351 39.1435C124.108 39.598 123.805 40.022 123.444 40.4157C123.083 40.8133 122.671 41.1786 122.209 41.5113C121.746 41.8441 121.253 42.1423 120.73 42.4061L119.616 40.8661C119.904 40.72 120.194 40.5597 120.486 40.3852C120.778 40.2148 121.056 40.0322 121.32 39.8374C121.588 39.6467 121.835 39.4458 122.063 39.2348C122.294 39.0278 122.495 38.8128 122.665 38.5896C122.836 38.3664 122.97 38.1371 123.067 37.9017C123.164 37.6704 123.213 37.4351 123.213 37.1957C123.213 37.1835 123.211 37.1652 123.207 37.1409C123.207 37.1165 123.207 37.0922 123.207 37.0678C123.207 37.0435 123.205 37.0252 123.201 37.013C123.201 37.0009 123.201 37.0029 123.201 37.0191V37.0252C123.172 36.7899 123.132 36.5646 123.079 36.3496C123.026 36.1345 122.959 35.9154 122.878 35.6922C122.801 35.469 122.71 35.2357 122.604 34.9922C122.499 34.7446 122.381 34.4748 122.251 34.1826L124.01 33.4157C124.173 33.9026 124.325 34.3084 124.467 34.633C124.609 34.9577 124.747 35.2174 124.881 35.4122C125.019 35.607 125.157 35.7449 125.295 35.8261C125.433 35.9032 125.579 35.9417 125.733 35.9417H125.763C125.897 35.9417 126.023 35.9681 126.141 36.0209C126.259 36.0736 126.36 36.1446 126.445 36.2339C126.534 36.3191 126.603 36.4206 126.652 36.5383C126.705 36.6559 126.731 36.7797 126.731 36.9096C126.731 37.0435 126.705 37.1693 126.652 37.287C126.603 37.4046 126.534 37.5061 126.445 37.5913C126.36 37.6765 126.259 37.7435 126.141 37.7922C126.023 37.8409 125.895 37.8652 125.757 37.8652ZM124.725 36.9035C124.725 36.7696 124.751 36.6438 124.804 36.5261C124.852 36.4084 124.921 36.307 125.011 36.2217C125.096 36.1325 125.199 36.0635 125.321 36.0148C125.439 35.9661 125.565 35.9417 125.699 35.9417H126.867C127.525 35.9417 128.127 35.9032 128.675 35.8261C129.227 35.7449 129.742 35.6374 130.221 35.5035C130.7 35.3696 131.152 35.2154 131.579 35.0409C132.009 34.8623 132.431 34.6777 132.845 34.487C132.569 34.4099 132.291 34.3145 132.011 34.2009C131.735 34.0872 131.457 33.9777 131.177 33.8722C130.901 33.7667 130.625 33.6774 130.349 33.6043C130.073 33.5272 129.799 33.4887 129.527 33.4887C129.341 33.4887 129.158 33.5394 128.979 33.6409C128.801 33.7423 128.639 33.858 128.492 33.9878C128.346 34.1177 128.223 34.2455 128.121 34.3713C128.024 34.493 127.963 34.5762 127.939 34.6209L126.532 33.7139C126.687 33.442 126.869 33.1762 127.08 32.9165C127.291 32.6568 127.523 32.4275 127.774 32.2287C128.03 32.0258 128.304 31.8635 128.596 31.7417C128.892 31.62 129.203 31.5591 129.527 31.5591C129.767 31.5591 130.006 31.5855 130.245 31.6383C130.485 31.687 130.722 31.7519 130.958 31.833C131.197 31.9142 131.432 32.0075 131.664 32.113C131.895 32.2145 132.124 32.318 132.352 32.4235C132.571 32.5249 132.788 32.6264 133.003 32.7278C133.222 32.8252 133.447 32.9165 133.679 33.0017C133.91 33.0829 134.149 33.1499 134.397 33.2026C134.644 33.2554 134.906 33.2838 135.182 33.2878L135.03 35.1565L134.165 35.5704C133.812 35.7409 133.461 35.9174 133.112 36.1C132.763 36.2786 132.406 36.453 132.041 36.6235C131.68 36.7899 131.307 36.9501 130.921 37.1043C130.54 37.2545 130.138 37.3864 129.716 37.5C129.294 37.6096 128.847 37.6968 128.377 37.7617C127.906 37.8307 127.403 37.8652 126.867 37.8652H125.747H125.699C125.565 37.8652 125.439 37.8388 125.321 37.7861C125.199 37.7374 125.096 37.6704 125.011 37.5852C124.921 37.5 124.852 37.3986 124.804 37.2809C124.751 37.1632 124.725 37.0374 124.725 36.9035ZM129.272 28.2661L130.623 29.6174L129.272 30.9687L127.92 29.6174L129.272 28.2661ZM81.3521 60.8652C81.3318 60.8652 81.275 60.8612 81.1816 60.853C81.0924 60.849 80.9808 60.8368 80.8469 60.8165C80.717 60.7962 80.5689 60.7638 80.4025 60.7191C80.2402 60.6745 80.0758 60.6136 79.9095 60.5365C79.4671 60.3255 79.1243 60.0374 78.8808 59.6722C78.6373 59.3029 78.5156 58.8748 78.5156 58.3878C78.5156 57.5762 78.8747 56.7342 79.5929 55.8617C79.6498 55.7928 79.6964 55.7359 79.7329 55.6913C79.7735 55.6467 79.81 55.6061 79.8425 55.5696C79.875 55.533 79.9054 55.5006 79.9338 55.4722C79.9663 55.4397 80.0028 55.4032 80.0434 55.3626C79.9947 55.322 79.946 55.2835 79.8973 55.247C79.8527 55.2104 79.8141 55.1759 79.7816 55.1435L79.6721 55.0461L80.8834 53.567C81.0903 53.7212 81.3379 53.9301 81.626 54.1939C81.9141 54.4536 82.2469 54.7864 82.6243 55.1922C83.6753 56.3893 84.2008 57.4545 84.2008 58.3878C84.2008 58.8667 84.0851 59.2907 83.8538 59.66C83.6266 60.0293 83.31 60.3194 82.9043 60.5304C82.7622 60.5994 82.6161 60.6542 82.466 60.6948C82.3199 60.7394 82.1779 60.7739 82.0399 60.7983C81.9019 60.8226 81.7721 60.8388 81.6503 60.847C81.5327 60.8591 81.4332 60.8652 81.3521 60.8652ZM82.5329 58.3878C82.5329 58.262 82.4924 58.12 82.4112 57.9617C82.33 57.8035 82.2225 57.6391 82.0886 57.4687C81.9587 57.2942 81.8127 57.1197 81.6503 56.9452C81.488 56.7667 81.3257 56.5962 81.1634 56.4339C81.0538 56.5557 80.9382 56.6936 80.8164 56.8478C80.6947 56.998 80.5831 57.1583 80.4816 57.3287C80.3802 57.4991 80.297 57.6757 80.2321 57.8583C80.1671 58.0368 80.1387 58.2133 80.1469 58.3878C80.1509 58.4852 80.1976 58.5704 80.2869 58.6435C80.3761 58.7165 80.4816 58.7754 80.6034 58.82C80.7292 58.8646 80.8611 58.8991 80.999 58.9235C81.137 58.9438 81.2547 58.9539 81.3521 58.9539C81.4738 58.9539 81.6037 58.9458 81.7416 58.9296C81.8837 58.9093 82.0115 58.8768 82.1251 58.8322C82.2428 58.7875 82.3402 58.7287 82.4173 58.6557C82.4944 58.5826 82.5329 58.4933 82.5329 58.3878ZM87.7726 56.4035C87.9268 56.8417 88.0607 57.2699 88.1744 57.6878C88.2231 57.8704 88.2718 58.0612 88.3205 58.26C88.3691 58.4548 88.4118 58.6516 88.4483 58.8504C88.4889 59.0452 88.5213 59.238 88.5457 59.4287C88.57 59.6154 88.5822 59.7899 88.5822 59.9522C88.5822 60.3336 88.5294 60.7049 88.4239 61.0661C88.3225 61.4313 88.1764 61.7843 87.9857 62.1252C87.799 62.4661 87.5758 62.7928 87.3161 63.1052C87.0564 63.4217 86.7683 63.718 86.4518 63.9939C86.1352 64.2699 85.7964 64.5255 85.4352 64.7609C85.0741 65.0003 84.7007 65.2154 84.3152 65.4061L83.2074 63.8661C83.4996 63.72 83.7958 63.5536 84.0961 63.367C84.3923 63.1843 84.6764 62.9875 84.9483 62.7765C85.2242 62.5655 85.4799 62.3443 85.7152 62.113C85.9547 61.8817 86.1616 61.6464 86.3361 61.407C86.5147 61.1675 86.6547 60.9241 86.7561 60.6765C86.8576 60.433 86.9083 60.1936 86.9083 59.9583C86.9083 59.7878 86.8839 59.6032 86.8352 59.4043C86.7906 59.2055 86.7277 58.9925 86.6465 58.7652C86.5694 58.5339 86.4761 58.2904 86.3665 58.0348C86.257 57.7751 86.1393 57.4991 86.0135 57.207L87.7726 56.4035ZM86.7257 52.7026L88.077 54.0539L86.7257 55.4052L85.3744 54.0539L86.7257 52.7026ZM92.5326 60.8652C92.0335 60.8652 91.6054 60.8023 91.2483 60.6765C90.8912 60.5548 90.5827 60.3661 90.323 60.1104C90.1607 59.9481 90.0349 59.7777 89.9456 59.5991C89.8604 59.4206 89.7975 59.2461 89.757 59.0757C89.7204 58.9012 89.6981 58.7368 89.69 58.5826C89.6859 58.4284 89.6839 58.2965 89.6839 58.187V58.0957C89.688 57.9455 89.692 57.7304 89.6961 57.4504C89.7042 57.1664 89.7083 56.8336 89.7083 56.4522C89.7083 56.0707 89.7062 55.6507 89.7022 55.1922C89.6981 54.7336 89.6859 54.2771 89.6656 53.8226C89.6494 53.3641 89.623 52.9238 89.5865 52.5017C89.5541 52.0797 89.5074 51.7125 89.4465 51.4L91.2665 50.8461C91.3193 51.1139 91.3619 51.4304 91.3943 51.7957C91.4268 52.1568 91.4532 52.5362 91.4735 52.9339C91.4978 53.3316 91.5141 53.7313 91.5222 54.133C91.5343 54.5348 91.5425 54.9081 91.5465 55.253C91.5506 55.5574 91.5384 55.8557 91.51 56.1478C91.4856 56.4359 91.4654 56.72 91.4491 57C91.4329 57.2759 91.4329 57.5458 91.4491 57.8096C91.4694 58.0693 91.5262 58.3229 91.6196 58.5704C91.6561 58.6638 91.7007 58.7348 91.7535 58.7835C91.8103 58.8322 91.8752 58.8687 91.9483 58.893C92.0213 58.9133 92.1004 58.9255 92.1856 58.9296C92.2749 58.9336 92.3723 58.9357 92.4778 58.9357H92.5326C92.6625 58.9357 92.7862 58.962 92.9039 59.0148C93.0216 59.0675 93.123 59.1386 93.2083 59.2278C93.2975 59.313 93.3685 59.4145 93.4213 59.5322C93.4741 59.6499 93.5004 59.7736 93.5004 59.9035C93.5004 60.0374 93.4741 60.1632 93.4213 60.2809C93.3685 60.3986 93.2975 60.5 93.2083 60.5852C93.123 60.6745 93.0216 60.7435 92.9039 60.7922C92.7862 60.8409 92.6625 60.8652 92.5326 60.8652ZM99.5656 58.9417C99.6954 58.9417 99.8192 58.9681 99.9369 59.0209C100.055 59.0736 100.156 59.1446 100.241 59.2339C100.33 59.3191 100.402 59.4206 100.454 59.5383C100.507 59.6559 100.533 59.7817 100.533 59.9157C100.533 60.0496 100.507 60.1754 100.454 60.293C100.402 60.4067 100.33 60.5061 100.241 60.5913C100.156 60.6806 100.055 60.7496 99.9369 60.7983C99.8192 60.847 99.6954 60.8713 99.5656 60.8713C99.245 60.8713 98.9325 60.8612 98.6282 60.8409C98.3238 60.8206 98.0296 60.782 97.7456 60.7252C97.4656 60.6684 97.1998 60.5893 96.9482 60.4878C96.6966 60.3823 96.4632 60.2464 96.2482 60.08C96.0087 60.2261 95.7389 60.3499 95.4386 60.4513C95.1383 60.5528 94.8258 60.6339 94.5012 60.6948C94.1766 60.7597 93.8499 60.8043 93.5212 60.8287C93.1925 60.8571 92.8841 60.8713 92.596 60.8713C92.4661 60.8713 92.3424 60.847 92.2247 60.7983C92.107 60.7496 92.0035 60.6806 91.9143 60.5913C91.825 60.5061 91.756 60.4067 91.7073 60.293C91.6545 60.1754 91.6282 60.0496 91.6282 59.9157C91.6282 59.7817 91.6545 59.6559 91.7073 59.5383C91.756 59.4206 91.825 59.3191 91.9143 59.2339C92.0035 59.1446 92.107 59.0736 92.2247 59.0209C92.3424 58.9681 92.4661 58.9417 92.596 58.9417C92.738 58.9417 92.8861 58.9377 93.0403 58.9296C93.1986 58.9214 93.3569 58.9113 93.5151 58.8991C93.6734 58.8829 93.8296 58.8626 93.9838 58.8383C94.138 58.8139 94.2841 58.7855 94.4221 58.753C94.3774 58.7125 94.3369 58.6739 94.3003 58.6374C94.2638 58.5968 94.2253 58.5562 94.1847 58.5157H94.1908C93.9716 58.2965 93.7464 58.0713 93.5151 57.84C93.2879 57.6087 93.0343 57.3652 92.7543 57.1096L92.8516 55.6852C93.0911 55.4742 93.3386 55.2957 93.5943 55.1496C93.8499 54.9994 94.1015 54.8757 94.349 54.7783C94.6006 54.6809 94.8401 54.6058 95.0673 54.553C95.2986 54.5003 95.5056 54.4638 95.6882 54.4435C95.7774 54.4354 95.8728 54.4293 95.9743 54.4252C96.0757 54.4171 96.1751 54.413 96.2725 54.413C96.589 54.413 96.9137 54.4455 97.2464 54.5104C97.5832 54.5754 97.8876 54.6646 98.1595 54.7783C98.3948 54.8878 98.5916 55.0116 98.7499 55.1496C98.9082 55.2875 99.034 55.4255 99.1273 55.5635C99.2206 55.7014 99.2876 55.8354 99.3282 55.9652C99.3728 56.0951 99.3972 56.2046 99.4012 56.2939C99.4134 56.4765 99.389 56.6774 99.3282 56.8965C99.2673 57.1116 99.178 57.3328 99.0603 57.56C98.9467 57.7832 98.8108 58.0043 98.6525 58.2235C98.4943 58.4386 98.3238 58.6374 98.1412 58.82C98.5714 58.9012 99.0461 58.9417 99.5656 58.9417ZM96.2725 56.3061C96.1751 56.3061 96.0514 56.3142 95.9012 56.3304C95.7511 56.3426 95.5948 56.3609 95.4325 56.3852C95.2702 56.4096 95.1119 56.438 94.9577 56.4704C94.8076 56.5029 94.6798 56.5374 94.5743 56.5739L96.2482 58.0043C96.3658 57.9191 96.4998 57.8136 96.6499 57.6878C96.8041 57.562 96.9543 57.4322 97.1003 57.2983C97.2464 57.1603 97.3783 57.0243 97.496 56.8904C97.6177 56.7565 97.707 56.6388 97.7638 56.5374C97.6705 56.4968 97.5609 56.4623 97.4351 56.4339C97.3093 56.4014 97.1774 56.3771 97.0395 56.3609C96.9056 56.3406 96.7716 56.3264 96.6377 56.3183C96.5038 56.3101 96.3821 56.3061 96.2725 56.3061ZM96.1812 50.98L97.5325 52.3313L96.1812 53.6826L94.8299 52.3313L96.1812 50.98ZM98.6538 59.9035C98.6538 59.7696 98.6802 59.6438 98.733 59.5261C98.7857 59.4084 98.8587 59.307 98.9521 59.2217C99.0414 59.1365 99.1469 59.0696 99.2686 59.0209C99.3863 58.9681 99.5121 58.9417 99.646 58.9417H105.173C105.303 58.9417 105.427 58.9681 105.544 59.0209C105.662 59.0696 105.763 59.1365 105.849 59.2217C105.938 59.307 106.009 59.4084 106.062 59.5261C106.114 59.6438 106.141 59.7696 106.141 59.9035C106.141 60.0374 106.114 60.1632 106.062 60.2809C106.009 60.3986 105.938 60.5 105.849 60.5852C105.763 60.6745 105.662 60.7435 105.544 60.7922C105.427 60.8409 105.303 60.8652 105.173 60.8652H99.6399C99.5101 60.8652 99.3863 60.8409 99.2686 60.7922C99.1469 60.7435 99.0414 60.6745 98.9521 60.5852C98.8587 60.5 98.7857 60.3986 98.733 60.2809C98.6802 60.1632 98.6538 60.0374 98.6538 59.9035ZM104.177 59.9035C104.177 59.7696 104.204 59.6438 104.256 59.5261C104.309 59.4084 104.382 59.307 104.476 59.2217C104.565 59.1365 104.67 59.0696 104.792 59.0209C104.91 58.9681 105.036 58.9417 105.169 58.9417H110.696C110.826 58.9417 110.95 58.9681 111.068 59.0209C111.185 59.0696 111.287 59.1365 111.372 59.2217C111.461 59.307 111.532 59.4084 111.585 59.5261C111.638 59.6438 111.664 59.7696 111.664 59.9035C111.664 60.0374 111.638 60.1632 111.585 60.2809C111.532 60.3986 111.461 60.5 111.372 60.5852C111.287 60.6745 111.185 60.7435 111.068 60.7922C110.95 60.8409 110.826 60.8652 110.696 60.8652H105.163C105.033 60.8652 104.91 60.8409 104.792 60.7922C104.67 60.7435 104.565 60.6745 104.476 60.5852C104.382 60.5 104.309 60.3986 104.256 60.2809C104.204 60.1632 104.177 60.0374 104.177 59.9035ZM109.737 59.9035C109.737 59.7696 109.762 59.6458 109.81 59.5322C109.859 59.4186 109.926 59.3191 110.011 59.2339C110.096 59.1487 110.198 59.0817 110.315 59.033C110.429 58.9803 110.553 58.9499 110.687 58.9417C110.959 58.9417 111.194 58.889 111.393 58.7835C111.596 58.678 111.774 58.54 111.929 58.3696C112.083 58.1991 112.221 58.0084 112.342 57.7974C112.464 57.5864 112.58 57.3754 112.689 57.1643V57.1704C112.795 56.9513 112.906 56.7342 113.024 56.5191C113.146 56.3041 113.278 56.1052 113.42 55.9226C113.639 55.667 113.884 55.4701 114.156 55.3322C114.428 55.1901 114.718 55.1191 115.027 55.1191C115.392 55.1191 115.723 55.1942 116.019 55.3443C116.319 55.4945 116.591 55.7096 116.835 55.9896C117.017 56.2087 117.165 56.4603 117.279 56.7443C117.393 57.0243 117.468 57.3226 117.504 57.6391V57.627C117.529 57.7852 117.541 57.9658 117.541 58.1687C117.541 58.3878 117.52 58.6029 117.48 58.8139C117.443 59.0209 117.391 59.2177 117.322 59.4043C117.188 59.7452 116.995 60.0313 116.743 60.2626C116.496 60.4899 116.226 60.6461 115.934 60.7313C115.836 60.7597 115.739 60.778 115.642 60.7861C115.548 60.7983 115.449 60.8043 115.343 60.8043C115.161 60.8043 114.966 60.782 114.759 60.7374C114.556 60.6928 114.355 60.6319 114.156 60.5548C114.075 60.5183 113.984 60.4757 113.882 60.427C113.781 60.3742 113.673 60.3174 113.56 60.2565C113.45 60.1957 113.341 60.1328 113.231 60.0678C113.122 60.0029 113.02 59.94 112.927 59.8791C112.764 60.0293 112.602 60.1652 112.44 60.287C112.278 60.4087 112.107 60.5122 111.929 60.5974C111.75 60.6826 111.559 60.7475 111.356 60.7922C111.153 60.8409 110.932 60.8652 110.693 60.8652C110.559 60.8652 110.435 60.8388 110.322 60.7861C110.204 60.7374 110.102 60.6704 110.017 60.5852C109.928 60.5 109.859 60.3986 109.81 60.2809C109.762 60.1632 109.737 60.0374 109.737 59.9035ZM114.053 58.3026C114.179 58.3838 114.327 58.4629 114.497 58.54C114.672 58.6171 114.844 58.6861 115.015 58.747C115.185 58.8078 115.341 58.8586 115.483 58.8991C115.629 58.9357 115.739 58.9539 115.812 58.9539C115.828 58.9539 115.844 58.9539 115.861 58.9539C115.881 58.9499 115.901 58.9458 115.922 58.9417C115.97 58.9296 116.017 58.8687 116.062 58.7591C116.11 58.6455 116.129 58.4913 116.116 58.2965C116.116 58.1667 116.08 58.0246 116.007 57.8704C115.934 57.7122 115.838 57.5661 115.721 57.4322C115.603 57.2942 115.467 57.1806 115.313 57.0913C115.163 56.998 115.009 56.9513 114.85 56.9513C114.793 56.9513 114.72 57.0325 114.631 57.1948C114.542 57.3571 114.412 57.5986 114.242 57.9191V57.913L114.053 58.3026Z" fill="#303030"/>
<defs>
<linearGradient id="paint0_linear_1325_10424" x1="5.08426" y1="6.15789" x2="151.122" y2="67.5913" gradientUnits="userSpaceOnUse">
<stop stop-color="#EAEAEA"/>
<stop offset="1" stop-color="#BDBDBD"/>
</linearGradient>
</defs>
</svg>
