<svg width="118" height="50" viewBox="0 0 118 50" fill="none" xmlns="http://www.w3.org/2000/svg">
<path d="M3.22021 39.7727V11.3637H11.1413C11.4414 11.3637 11.7292 11.2439 11.9414 11.0308C12.1536 10.8177 12.2728 10.5287 12.2728 10.2273V2.27275H33.7728C34.0729 2.27275 34.3608 2.39247 34.573 2.60558C34.7852 2.81869 34.9044 3.10773 34.9044 3.40911V18.1818H37.1676V3.40911C37.1676 2.50496 36.8099 1.63785 36.1733 0.998518C35.5366 0.35919 34.6732 1.89935e-05 33.7728 1.89935e-05H11.1413C10.9923 -0.000845657 10.8447 0.0278192 10.7068 0.0843698C10.569 0.14092 10.4436 0.224245 10.3378 0.329564L1.28521 9.42047C1.18033 9.52665 1.09736 9.65258 1.04105 9.79103C0.984733 9.92948 0.956189 10.0777 0.95705 10.2273V39.7727C0.95705 40.6769 1.31471 41.544 1.95135 42.1833C2.58798 42.8226 3.45145 43.1818 4.35179 43.1818H20.126V40.9091H4.35179C4.05167 40.9091 3.76385 40.7894 3.55164 40.5763C3.33943 40.3632 3.22021 40.0741 3.22021 39.7727ZM4.81573 9.09093L10.0097 3.87502V9.09093H4.81573ZM7.74652 14.7727H20.1939V17.0455H7.74652V14.7727ZM14.536 9.09093H20.1939V11.3637H14.536V9.09093ZM7.74652 20.4546H20.1939V22.7273H7.74652V20.4546ZM7.74652 26.1364H20.1939V28.4091H7.74652V26.1364ZM7.74652 31.8182H20.1939V34.0909H7.74652V31.8182ZM40.5623 20.4546H26.9834C26.083 20.4546 25.2196 20.8137 24.5829 21.4531C23.9463 22.0924 23.5886 22.9595 23.5886 23.8636V46.5909C23.5886 47.4951 23.9463 48.3622 24.5829 49.0015C25.2196 49.6408 26.083 50 26.9834 50H40.5623C41.4626 50 42.3261 49.6408 42.9627 49.0015C43.5994 48.3622 43.957 47.4951 43.957 46.5909V23.8636C43.957 22.9595 43.5994 22.0924 42.9627 21.4531C42.3261 20.8137 41.4626 20.4546 40.5623 20.4546ZM41.6939 46.5909C41.6939 46.8923 41.5747 47.1813 41.3624 47.3944C41.1502 47.6076 40.8624 47.7273 40.5623 47.7273H26.9834C26.6832 47.7273 26.3954 47.6076 26.1832 47.3944C25.971 47.1813 25.8518 46.8923 25.8518 46.5909V23.8636C25.8518 23.5623 25.971 23.2732 26.1832 23.0601C26.3954 22.847 26.6832 22.7273 26.9834 22.7273H40.5623C40.8624 22.7273 41.1502 22.847 41.3624 23.0601C41.5747 23.2732 41.6939 23.5623 41.6939 23.8636V46.5909ZM38.2991 25H29.2465C28.9464 25 28.6586 25.1197 28.4464 25.3328C28.2342 25.546 28.1149 25.835 28.1149 26.1364V30.6818C28.1149 30.9832 28.2342 31.2722 28.4464 31.4854C28.6586 31.6985 28.9464 31.8182 29.2465 31.8182H38.2991C38.5993 31.8182 38.8871 31.6985 39.0993 31.4854C39.3115 31.2722 39.4307 30.9832 39.4307 30.6818V26.1364C39.4307 25.835 39.3115 25.546 39.0993 25.3328C38.8871 25.1197 38.5993 25 38.2991 25ZM37.1676 29.5455H30.3781V27.2727H37.1676V29.5455ZM28.1149 34.0909H32.6412V36.3636H28.1149V34.0909ZM34.9044 34.0909H39.4307V36.3636H34.9044V34.0909ZM28.1149 38.6364H32.6412V40.9091H28.1149V38.6364ZM34.9044 38.6364H39.4307V40.9091H34.9044V38.6364ZM28.1149 43.1818H32.6412V45.4545H28.1149V43.1818ZM34.9044 43.1818H39.4307V45.4545H34.9044V43.1818ZM25.8518 9.09093V10.2273H29.2465C29.5466 10.2273 29.8344 10.347 30.0467 10.5601C30.2589 10.7732 30.3781 11.0623 30.3781 11.3637V14.7727C30.3781 15.0741 30.2589 15.3632 30.0467 15.5763C29.8344 15.7894 29.5466 15.9091 29.2465 15.9091H28.1149V17.0455H25.8518V15.9091H23.5886V13.6364H28.1149V12.5H24.7202C24.4201 12.5 24.1323 12.3803 23.92 12.1672C23.7078 11.9541 23.5886 11.665 23.5886 11.3637V7.95456C23.5886 7.65318 23.7078 7.36414 23.92 7.15103C24.1323 6.93792 24.4201 6.8182 24.7202 6.8182H25.8518V5.68184H28.1149V6.8182H30.3781V9.09093H25.8518Z" fill="#303030"/>
<path d="M68.3572 14.513C67.781 14.513 67.2859 14.4359 66.872 14.2817C66.4581 14.1235 66.1294 13.9023 65.8859 13.6183C65.7439 13.4357 65.6404 13.2388 65.5755 13.0278C65.5146 12.8128 65.4842 12.6078 65.4842 12.413C65.4842 12.2426 65.4984 12.0884 65.5268 11.9504C65.5552 11.8125 65.5897 11.6948 65.6302 11.5974C65.7926 11.2565 65.9914 10.9583 66.2268 10.7026C66.4662 10.447 66.7137 10.2258 66.9694 10.0391C67.2291 9.84841 67.4847 9.69014 67.7363 9.56435C67.992 9.43855 68.2192 9.33507 68.4181 9.25391C68.41 9.16058 68.4018 9.06522 68.3937 8.96783C68.3897 8.87043 68.3836 8.7771 68.3755 8.68783L68.345 8.30435L70.2442 7.89652C70.2482 7.93304 70.2563 8.01826 70.2685 8.15217C70.2847 8.28609 70.301 8.44638 70.3172 8.63304C70.3375 8.81565 70.3578 9.01246 70.3781 9.22348C70.4024 9.43043 70.4227 9.62522 70.4389 9.80783C70.4592 9.99043 70.4755 10.1487 70.4876 10.2826C70.5039 10.4165 70.514 10.4977 70.5181 10.5261C70.5789 11.0252 70.6297 11.4351 70.6702 11.7557C70.7149 12.0762 70.7514 12.3319 70.7798 12.5226C70.8123 12.7093 70.8387 12.8452 70.8589 12.9304C70.8792 13.0116 70.8955 13.0664 70.9076 13.0948C70.9685 13.2246 71.0598 13.3159 71.1816 13.3687C71.3073 13.4174 71.4737 13.4417 71.6807 13.4417C71.8105 13.4417 71.9343 13.4661 72.052 13.5148C72.1697 13.5635 72.2711 13.6325 72.3563 13.7217C72.4456 13.807 72.5166 13.9084 72.5694 14.0261C72.6221 14.1438 72.6485 14.2696 72.6485 14.4035C72.6485 14.5374 72.6221 14.6632 72.5694 14.7809C72.5166 14.8986 72.4456 15 72.3563 15.0852C72.2711 15.1704 72.1697 15.2374 72.052 15.2861C71.9343 15.3388 71.8105 15.3652 71.6807 15.3652C71.5955 15.3652 71.5001 15.3612 71.3946 15.353C71.2891 15.349 71.1775 15.3368 71.0598 15.3165C70.9462 15.3003 70.8265 15.2739 70.7007 15.2374C70.5789 15.2049 70.4572 15.1603 70.3355 15.1035C70.165 15.0223 70.0149 14.931 69.885 14.8296C69.7592 14.7241 69.6375 14.5922 69.5198 14.4339C69.3129 14.4623 69.112 14.4826 68.9172 14.4948C68.7265 14.507 68.5398 14.513 68.3572 14.513ZM68.3207 12.6017C68.4059 12.6017 68.4931 12.5997 68.5824 12.5957C68.6758 12.5875 68.765 12.5794 68.8502 12.5713C68.83 12.4333 68.8076 12.2791 68.7833 12.1087C68.763 11.9383 68.7427 11.7557 68.7224 11.5609L68.6616 11.0009C68.5073 11.078 68.3349 11.1713 68.1442 11.2809C67.9534 11.3864 67.7729 11.5 67.6024 11.6217C67.436 11.7394 67.296 11.8612 67.1824 11.987C67.0688 12.1087 67.012 12.2223 67.012 12.3278C67.012 12.3806 67.0566 12.4252 67.1459 12.4617C67.2392 12.4942 67.3529 12.5226 67.4868 12.547C67.6207 12.5672 67.7627 12.5814 67.9129 12.5896C68.063 12.5977 68.1989 12.6017 68.3207 12.6017ZM70.715 14.4035C70.715 14.2696 70.7394 14.1438 70.7881 14.0261C70.8368 13.9084 70.9057 13.807 70.995 13.7217C71.0802 13.6365 71.1817 13.5696 71.2994 13.5209C71.417 13.4681 71.5428 13.4417 71.6768 13.4417H71.7802C72.3443 13.4417 72.7704 13.3525 73.0585 13.1739C73.3466 12.9913 73.4907 12.7154 73.4907 12.3461C73.4907 12.273 73.4907 12.2081 73.4907 12.1513C73.4947 12.0945 73.4886 12.0214 73.4724 11.9322C73.4602 11.8388 73.4339 11.7191 73.3933 11.573C73.3568 11.4229 73.2999 11.218 73.2228 10.9583L74.9576 10.5383C75.0428 10.7817 75.1179 11.0557 75.1828 11.36C75.2478 11.6603 75.2802 11.989 75.2802 12.3461C75.2802 12.4638 75.2904 12.5875 75.3107 12.7174C75.335 12.8432 75.3715 12.9609 75.4202 13.0704C75.473 13.1759 75.542 13.2652 75.6272 13.3383C75.7165 13.4072 75.8281 13.4417 75.962 13.4417C76.0918 13.4417 76.2156 13.4681 76.3333 13.5209C76.451 13.5696 76.5524 13.6365 76.6376 13.7217C76.7269 13.807 76.7979 13.9084 76.8507 14.0261C76.9034 14.1438 76.9298 14.2696 76.9298 14.4035C76.9298 14.5374 76.9034 14.6632 76.8507 14.7809C76.802 14.8986 76.733 15 76.6437 15.0852C76.5544 15.1745 76.451 15.2435 76.3333 15.2922C76.2197 15.3409 76.0979 15.3652 75.9681 15.3652C75.5785 15.3652 75.2457 15.3084 74.9698 15.1948C74.6939 15.0852 74.4565 14.9371 74.2576 14.7504C73.9655 14.9614 73.6165 15.1157 73.2107 15.213C72.8089 15.3145 72.3321 15.3652 71.7802 15.3652H71.6768C71.5428 15.3652 71.417 15.3409 71.2994 15.2922C71.1817 15.2435 71.0802 15.1745 70.995 15.0852C70.9057 15 70.8368 14.8986 70.7881 14.7809C70.7394 14.6632 70.715 14.5374 70.715 14.4035ZM74.0141 15.8278L75.3655 17.1791L74.0141 18.5304L72.6628 17.1791L74.0141 15.8278ZM75.1265 14.4096C75.1265 14.2838 75.1509 14.1641 75.1996 14.0504C75.2483 13.9368 75.3132 13.8374 75.3944 13.7522C75.4755 13.6629 75.5729 13.5919 75.6865 13.5391C75.7961 13.4823 75.9138 13.4499 76.0396 13.4417C76.3439 13.4417 76.5996 13.3606 76.8065 13.1983C77.0176 13.0319 77.1981 12.8148 77.3483 12.547C77.4984 12.2791 77.6263 11.9748 77.7318 11.6339C77.8373 11.289 77.9367 10.938 78.03 10.5809L79.6491 10.873C79.6167 11.0151 79.5761 11.1814 79.5274 11.3722C79.4828 11.5588 79.4402 11.7536 79.3996 11.9565C79.3631 12.1594 79.3326 12.3583 79.3083 12.553C79.2839 12.7438 79.2778 12.9122 79.29 13.0583C79.3063 13.2043 79.3448 13.32 79.4057 13.4052C79.4665 13.4864 79.5599 13.5168 79.6857 13.4965C79.848 13.4843 79.9941 13.4275 80.1239 13.3261C80.2578 13.2246 80.3776 13.0948 80.4831 12.9365C80.5886 12.7783 80.6819 12.5997 80.7631 12.4009C80.8442 12.202 80.9132 11.9971 80.97 11.7861C81.0309 11.5751 81.0796 11.3661 81.1161 11.1591C81.1567 10.9522 81.1891 10.7635 81.2135 10.593L82.7596 10.8548C82.7555 10.9765 82.7413 11.1267 82.717 11.3052C82.6926 11.4838 82.6703 11.6725 82.65 11.8713C82.6297 12.0661 82.6196 12.2629 82.6196 12.4617C82.6196 12.6565 82.6419 12.833 82.6865 12.9913C82.7312 13.1455 82.8042 13.2713 82.9057 13.3687C83.0112 13.4661 83.1573 13.5148 83.3439 13.5148C83.4576 13.5148 83.5732 13.4965 83.6909 13.46C83.8086 13.4194 83.9141 13.3646 84.0074 13.2957C84.1007 13.2226 84.1758 13.1374 84.2326 13.04C84.2935 12.9426 84.3239 12.833 84.3239 12.7113C84.3239 12.5003 84.2894 12.269 84.2205 12.0174C84.1515 11.7617 84.0683 11.5101 83.9709 11.2626C83.8735 11.011 83.77 10.7736 83.6605 10.5504C83.5549 10.3272 83.4657 10.1386 83.3926 9.98435L84.9022 9.13826C84.9265 9.19101 84.9691 9.28435 85.03 9.41826C85.0909 9.54812 85.1599 9.70638 85.237 9.89304C85.3141 10.0797 85.3932 10.2907 85.4744 10.5261C85.5596 10.7574 85.6367 10.9988 85.7057 11.2504C85.7747 11.502 85.8315 11.7597 85.8761 12.0235C85.9207 12.2872 85.9431 12.5429 85.9431 12.7904C85.9431 13.1962 85.8863 13.5614 85.7726 13.8861C85.6631 14.2107 85.4947 14.4867 85.2674 14.7139C85.0442 14.9412 84.7622 15.1177 84.4213 15.2435C84.0845 15.3693 83.6889 15.4342 83.2344 15.4383C83.0152 15.4383 82.8164 15.4159 82.6378 15.3713C82.4593 15.3307 82.299 15.2719 82.157 15.1948C82.0149 15.1217 81.8871 15.0345 81.7735 14.933C81.6639 14.8316 81.5665 14.7241 81.4813 14.6104C81.3839 14.7362 81.2784 14.8499 81.1648 14.9513C81.0552 15.0487 80.9274 15.1319 80.7813 15.2009C80.6393 15.2739 80.479 15.3307 80.3005 15.3713C80.1219 15.4119 79.919 15.4342 79.6918 15.4383C79.4929 15.4423 79.3123 15.4241 79.15 15.3835C78.9918 15.347 78.8457 15.2922 78.7118 15.2191C78.5778 15.1461 78.4561 15.0588 78.3465 14.9574C78.241 14.8519 78.1416 14.7362 78.0483 14.6104C77.9631 14.7159 77.8657 14.8154 77.7561 14.9087C77.6465 14.998 77.5167 15.0771 77.3665 15.1461C77.2164 15.2151 77.0419 15.2699 76.8431 15.3104C76.6442 15.351 76.4129 15.3713 76.1491 15.3713H76.0396C75.9138 15.3632 75.7961 15.3328 75.6865 15.28C75.5729 15.2272 75.4755 15.1583 75.3944 15.073C75.3132 14.9878 75.2483 14.8884 75.1996 14.7748C75.1509 14.6612 75.1265 14.5394 75.1265 14.4096ZM89.8016 15.3652C89.3025 15.3652 88.8744 15.3023 88.5173 15.1765C88.1602 15.0548 87.8518 14.8661 87.5921 14.6104C87.4298 14.4481 87.304 14.2777 87.2147 14.0991C87.1295 13.9206 87.0666 13.7461 87.026 13.5757C86.9895 13.4012 86.9672 13.2368 86.959 13.0826C86.955 12.9284 86.953 12.7965 86.953 12.687V12.5957C86.957 12.4455 86.9611 12.2304 86.9651 11.9504C86.9732 11.6664 86.9773 11.3336 86.9773 10.9522C86.9773 10.5707 86.9753 10.1507 86.9712 9.69217C86.9672 9.23362 86.955 8.7771 86.9347 8.32261C86.9185 7.86406 86.8921 7.42377 86.8556 7.00174C86.8231 6.57971 86.7764 6.21246 86.7156 5.9L88.5356 5.34609C88.5883 5.61391 88.6309 5.93043 88.6634 6.29565C88.6958 6.65681 88.7222 7.03623 88.7425 7.43391C88.7669 7.83159 88.7831 8.2313 88.7912 8.63304C88.8034 9.03478 88.8115 9.40812 88.8156 9.75304C88.8196 10.0574 88.8074 10.3557 88.779 10.6478C88.7547 10.9359 88.7344 11.22 88.7182 11.5C88.7019 11.7759 88.7019 12.0458 88.7182 12.3096C88.7385 12.5693 88.7953 12.8229 88.8886 13.0704C88.9251 13.1638 88.9698 13.2348 89.0225 13.2835C89.0793 13.3322 89.1443 13.3687 89.2173 13.393C89.2903 13.4133 89.3695 13.4255 89.4547 13.4296C89.544 13.4336 89.6414 13.4357 89.7469 13.4357H89.8016C89.9315 13.4357 90.0553 13.462 90.173 13.5148C90.2906 13.5675 90.3921 13.6386 90.4773 13.7278C90.5666 13.813 90.6376 13.9145 90.6903 14.0322C90.7431 14.1499 90.7695 14.2736 90.7695 14.4035C90.7695 14.5374 90.7431 14.6632 90.6903 14.7809C90.6376 14.8986 90.5666 15 90.4773 15.0852C90.3921 15.1745 90.2906 15.2435 90.173 15.2922C90.0553 15.3409 89.9315 15.3652 89.8016 15.3652ZM88.8242 14.4096C88.8242 14.2797 88.8505 14.1559 88.9033 14.0383C88.952 13.9206 89.021 13.8191 89.1103 13.7339C89.1955 13.6446 89.2969 13.5736 89.4146 13.5209C89.5323 13.4681 89.6581 13.4417 89.792 13.4417H90.9059C91.3523 13.4417 91.8332 13.3991 92.3485 13.3139C92.8639 13.2246 93.3792 13.109 93.8946 12.967C94.414 12.8249 94.9152 12.6667 95.3981 12.4922C95.885 12.3136 96.3213 12.133 96.7068 11.9504C96.4552 11.8896 96.1752 11.8043 95.8668 11.6948C95.5584 11.5852 95.2459 11.4777 94.9294 11.3722C94.6129 11.2667 94.3045 11.1774 94.0042 11.1043C93.7079 11.0272 93.4421 10.9907 93.2068 10.9948C93.0566 10.9988 92.9105 11.0313 92.7685 11.0922C92.6305 11.149 92.5007 11.222 92.3789 11.3113C92.2613 11.3965 92.1537 11.4899 92.0563 11.5913C91.963 11.6887 91.8818 11.782 91.8129 11.8713C91.7439 11.9565 91.6891 12.0296 91.6485 12.0904C91.612 12.1472 91.5937 12.1757 91.5937 12.1757L90.1511 11.3478C90.3134 11.0475 90.5082 10.7594 90.7355 10.4835C90.9627 10.2035 91.2103 9.95797 91.4781 9.74696C91.7459 9.53188 92.0259 9.36145 92.3181 9.23565C92.6143 9.10986 92.9105 9.04899 93.2068 9.05304C93.4259 9.0571 93.643 9.08348 93.8581 9.13217C94.0772 9.18087 94.2963 9.24377 94.5155 9.32087C94.7346 9.39391 94.9558 9.48116 95.1789 9.58261C95.4021 9.68 95.6274 9.78145 95.8546 9.88696C96.0859 10.0006 96.3416 10.1122 96.6216 10.2217C96.9056 10.3313 97.1998 10.4287 97.5042 10.5139C97.8126 10.5991 98.125 10.6681 98.4416 10.7209C98.7621 10.7736 99.0746 10.8 99.3789 10.8L99.0624 12.5957C98.9691 12.6362 98.8636 12.6849 98.7459 12.7417C98.6323 12.7945 98.5308 12.8432 98.4416 12.8878L98.2833 12.967C98.3766 13.0765 98.4943 13.1638 98.6363 13.2287C98.7824 13.2936 98.9305 13.3423 99.0807 13.3748C99.2349 13.4032 99.381 13.4214 99.5189 13.4296C99.661 13.4377 99.7726 13.4417 99.8537 13.4417H99.9389C100.073 13.4417 100.199 13.4681 100.316 13.5209C100.434 13.5736 100.535 13.6446 100.621 13.7339C100.71 13.8191 100.779 13.9206 100.828 14.0383C100.88 14.1559 100.907 14.2797 100.907 14.4096C100.907 14.5435 100.88 14.6693 100.828 14.787C100.779 14.9046 100.71 15.0061 100.621 15.0913C100.535 15.1765 100.434 15.2435 100.316 15.2922C100.199 15.3409 100.073 15.3652 99.9389 15.3652H99.8537C99.4642 15.3652 99.0969 15.3307 98.752 15.2617C98.4111 15.1928 98.0987 15.0933 97.8146 14.9635C97.5346 14.8296 97.285 14.6693 97.0659 14.4826C96.8468 14.2919 96.6662 14.0768 96.5242 13.8374C96.1224 14.0322 95.7045 14.2229 95.2703 14.4096C94.8361 14.5922 94.3856 14.7545 93.9189 14.8965C93.4523 15.0386 92.9674 15.1522 92.4642 15.2374C91.965 15.3267 91.4456 15.3713 90.9059 15.3713L89.792 15.3652C89.6581 15.3652 89.5323 15.3409 89.4146 15.2922C89.2969 15.2435 89.1955 15.1765 89.1103 15.0913C89.021 15.0061 88.952 14.9046 88.9033 14.787C88.8505 14.6693 88.8242 14.5435 88.8242 14.4096ZM98.9809 14.4035C98.9809 14.2696 99.0052 14.1458 99.0539 14.0322C99.1026 13.9186 99.1696 13.8191 99.2548 13.7339C99.34 13.6487 99.4415 13.5817 99.5591 13.533C99.6728 13.4803 99.7965 13.4499 99.9304 13.4417C100.202 13.4417 100.438 13.389 100.637 13.2835C100.839 13.178 101.018 13.04 101.172 12.8696C101.326 12.6991 101.464 12.5084 101.586 12.2974C101.708 12.0864 101.823 11.8754 101.933 11.6643V11.6704C102.039 11.4513 102.15 11.2342 102.268 11.0191C102.39 10.8041 102.521 10.6052 102.663 10.4226C102.883 10.167 103.128 9.97014 103.4 9.83217C103.672 9.69014 103.962 9.61913 104.27 9.61913C104.636 9.61913 104.966 9.6942 105.263 9.84435C105.563 9.99449 105.835 10.2096 106.078 10.4896C106.261 10.7087 106.409 10.9603 106.523 11.2443C106.636 11.5243 106.711 11.8226 106.748 12.1391V12.127C106.772 12.2852 106.784 12.4658 106.784 12.6687C106.784 12.8878 106.764 13.1029 106.723 13.3139C106.687 13.5209 106.634 13.7177 106.565 13.9043C106.431 14.2452 106.239 14.5313 105.987 14.7626C105.739 14.9899 105.47 15.1461 105.177 15.2313C105.08 15.2597 104.983 15.278 104.885 15.2861C104.792 15.2983 104.692 15.3043 104.587 15.3043C104.404 15.3043 104.21 15.282 104.003 15.2374C103.8 15.1928 103.599 15.1319 103.4 15.0548C103.319 15.0183 103.228 14.9757 103.126 14.927C103.025 14.8742 102.917 14.8174 102.803 14.7565C102.694 14.6957 102.584 14.6328 102.475 14.5678C102.365 14.5029 102.264 14.44 102.17 14.3791C102.008 14.5293 101.846 14.6652 101.683 14.787C101.521 14.9087 101.351 15.0122 101.172 15.0974C100.994 15.1826 100.803 15.2475 100.6 15.2922C100.397 15.3409 100.176 15.3652 99.9365 15.3652C99.8026 15.3652 99.6788 15.3388 99.5652 15.2861C99.4475 15.2374 99.3461 15.1704 99.2609 15.0852C99.1716 15 99.1026 14.8986 99.0539 14.7809C99.0052 14.6632 98.9809 14.5374 98.9809 14.4035ZM103.297 12.8026C103.422 12.8838 103.57 12.9629 103.741 13.04C103.915 13.1171 104.088 13.1861 104.258 13.247C104.429 13.3078 104.585 13.3586 104.727 13.3991C104.873 13.4357 104.983 13.4539 105.056 13.4539C105.072 13.4539 105.088 13.4539 105.104 13.4539C105.125 13.4499 105.145 13.4458 105.165 13.4417C105.214 13.4296 105.261 13.3687 105.305 13.2591C105.354 13.1455 105.372 12.9913 105.36 12.7965C105.36 12.6667 105.323 12.5246 105.25 12.3704C105.177 12.2122 105.082 12.0661 104.964 11.9322C104.847 11.7942 104.711 11.6806 104.557 11.5913C104.406 11.498 104.252 11.4513 104.094 11.4513C104.037 11.4513 103.964 11.5325 103.875 11.6948C103.786 11.8571 103.656 12.0986 103.485 12.4191V12.413L103.297 12.8026ZM56.9444 38.3652C56.9241 38.3652 56.8673 38.3612 56.7739 38.353C56.6847 38.349 56.5731 38.3368 56.4391 38.3165C56.3093 38.2962 56.1612 38.2638 55.9948 38.2191C55.8325 38.1745 55.6681 38.1136 55.5018 38.0365C55.0594 37.8255 54.7165 37.5374 54.4731 37.1722C54.2296 36.8029 54.1078 36.3748 54.1078 35.8878C54.1078 35.0762 54.467 34.2342 55.1852 33.3617C55.242 33.2928 55.2887 33.2359 55.3252 33.1913C55.3658 33.1467 55.4023 33.1061 55.4348 33.0696C55.4673 33.033 55.4977 33.0006 55.5261 32.9722C55.5586 32.9397 55.5951 32.9032 55.6357 32.8626C55.587 32.822 55.5383 32.7835 55.4896 32.747C55.4449 32.7104 55.4064 32.6759 55.3739 32.6435L55.2644 32.5461L56.4757 31.067C56.6826 31.2212 56.9302 31.4301 57.2183 31.6939C57.5064 31.9536 57.8391 32.2864 58.2165 32.6922C59.2675 33.8893 59.7931 34.9545 59.7931 35.8878C59.7931 36.3667 59.6774 36.7907 59.4461 37.16C59.2189 37.5293 58.9023 37.8194 58.4965 38.0304C58.3545 38.0994 58.2084 38.1542 58.0583 38.1948C57.9122 38.2394 57.7702 38.2739 57.6322 38.2983C57.4942 38.3226 57.3644 38.3388 57.2426 38.347C57.1249 38.3591 57.0255 38.3652 56.9444 38.3652ZM58.1252 35.8878C58.1252 35.762 58.0847 35.62 58.0035 35.4617C57.9223 35.3035 57.8148 35.1391 57.6809 34.9687C57.551 34.7942 57.4049 34.6197 57.2426 34.4452C57.0803 34.2667 56.918 34.0962 56.7557 33.9339C56.6461 34.0557 56.5304 34.1936 56.4087 34.3478C56.287 34.498 56.1754 34.6583 56.0739 34.8287C55.9725 34.9991 55.8893 35.1757 55.8244 35.3583C55.7594 35.5368 55.731 35.7133 55.7391 35.8878C55.7432 35.9852 55.7899 36.0704 55.8791 36.1435C55.9684 36.2165 56.0739 36.2754 56.1957 36.32C56.3215 36.3646 56.4533 36.3991 56.5913 36.4235C56.7293 36.4438 56.847 36.4539 56.9444 36.4539C57.0661 36.4539 57.196 36.4458 57.3339 36.4296C57.476 36.4093 57.6038 36.3768 57.7174 36.3322C57.8351 36.2875 57.9325 36.2287 58.0096 36.1557C58.0867 36.0826 58.1252 35.9933 58.1252 35.8878ZM63.3649 33.9035C63.5191 34.3417 63.653 34.7699 63.7667 35.1878C63.8153 35.3704 63.864 35.5612 63.9127 35.76C63.9614 35.9548 64.004 36.1516 64.0406 36.3504C64.0811 36.5452 64.1136 36.738 64.138 36.9287C64.1623 37.1154 64.1745 37.2899 64.1745 37.4522C64.1745 37.8336 64.1217 38.2049 64.0162 38.5661C63.9148 38.9313 63.7687 39.2843 63.578 39.6252C63.3913 39.9661 63.1681 40.2928 62.9084 40.6052C62.6487 40.9217 62.3606 41.218 62.044 41.4939C61.7275 41.7699 61.3887 42.0255 61.0275 42.2609C60.6664 42.5003 60.293 42.7154 59.9075 42.9061L58.7997 41.3661C59.0919 41.22 59.3881 41.0536 59.6884 40.867C59.9846 40.6843 60.2687 40.4875 60.5406 40.2765C60.8165 40.0655 61.0722 39.8443 61.3075 39.613C61.5469 39.3817 61.7539 39.1464 61.9284 38.907C62.1069 38.6675 62.2469 38.4241 62.3484 38.1765C62.4498 37.933 62.5006 37.6936 62.5006 37.4583C62.5006 37.2878 62.4762 37.1032 62.4275 36.9043C62.3829 36.7055 62.32 36.4925 62.2388 36.2652C62.1617 36.0339 62.0684 35.7904 61.9588 35.5348C61.8493 35.2751 61.7316 34.9991 61.6058 34.707L63.3649 33.9035ZM68.0975 38.3652C67.5984 38.3652 67.1703 38.3023 66.8132 38.1765C66.4561 38.0548 66.1477 37.8661 65.888 37.6104C65.7257 37.4481 65.5999 37.2777 65.5106 37.0991C65.4254 36.9206 65.3625 36.7461 65.3219 36.5757C65.2854 36.4012 65.2631 36.2368 65.2549 36.0826C65.2509 35.9284 65.2488 35.7965 65.2488 35.687V35.5957C65.2529 35.4455 65.257 35.2304 65.261 34.9504C65.2691 34.6664 65.2732 34.3336 65.2732 33.9522C65.2732 33.5707 65.2712 33.1507 65.2671 32.6922C65.2631 32.2336 65.2509 31.7771 65.2306 31.3226C65.2144 30.8641 65.188 30.4238 65.1515 30.0017C65.119 29.5797 65.0723 29.2125 65.0115 28.9L66.8315 28.3461C66.8842 28.6139 66.9268 28.9304 66.9593 29.2957C66.9917 29.6568 67.0181 30.0362 67.0384 30.4339C67.0628 30.8316 67.079 31.2313 67.0871 31.633C67.0993 32.0348 67.1074 32.4081 67.1115 32.753C67.1155 33.0574 67.1033 33.3557 67.0749 33.6478C67.0506 33.9359 67.0303 34.22 67.0141 34.5C66.9978 34.7759 66.9978 35.0458 67.0141 35.3096C67.0344 35.5693 67.0912 35.8229 67.1845 36.0704C67.221 36.1638 67.2657 36.2348 67.3184 36.2835C67.3752 36.3322 67.4402 36.3687 67.5132 36.393C67.5862 36.4133 67.6654 36.4255 67.7506 36.4296C67.8399 36.4336 67.9373 36.4357 68.0428 36.4357H68.0975C68.2274 36.4357 68.3512 36.462 68.4688 36.5148C68.5865 36.5675 68.688 36.6386 68.7732 36.7278C68.8625 36.813 68.9335 36.9145 68.9862 37.0322C69.039 37.1499 69.0654 37.2736 69.0654 37.4035C69.0654 37.5374 69.039 37.6632 68.9862 37.7809C68.9335 37.8986 68.8625 38 68.7732 38.0852C68.688 38.1745 68.5865 38.2435 68.4688 38.2922C68.3512 38.3409 68.2274 38.3652 68.0975 38.3652ZM67.1079 37.4035C67.1079 37.2696 67.1343 37.1438 67.187 37.0261C67.2357 36.9084 67.3047 36.807 67.394 36.7217C67.4792 36.6325 67.5827 36.5635 67.7044 36.5148C67.8221 36.4661 67.9479 36.4417 68.0818 36.4417H69.2505C69.9079 36.4417 70.5105 36.4032 71.0583 36.3261C71.6102 36.2449 72.1256 36.1374 72.6044 36.0035C73.0833 35.8696 73.5357 35.7154 73.9618 35.5409C74.3919 35.3623 74.814 35.1777 75.2279 34.987C74.9519 34.9099 74.674 34.8145 74.394 34.7009C74.118 34.5872 73.8401 34.4777 73.5601 34.3722C73.2841 34.2667 73.0082 34.1774 72.7322 34.1043C72.4563 34.0272 72.1824 33.9887 71.9105 33.9887C71.7238 33.9887 71.5412 34.0394 71.3627 34.1409C71.1841 34.2423 71.0218 34.358 70.8757 34.4878C70.7296 34.6177 70.6059 34.7455 70.5044 34.8713C70.407 34.993 70.3462 35.0762 70.3218 35.1209L68.9157 34.2139C69.0699 33.942 69.2525 33.6762 69.4635 33.4165C69.6746 33.1568 69.9059 32.9275 70.1575 32.7287C70.4131 32.5258 70.687 32.3635 70.9792 32.2417C71.2754 32.12 71.5859 32.0591 71.9105 32.0591C72.1499 32.0591 72.3893 32.0855 72.6288 32.1383C72.8682 32.187 73.1056 32.2519 73.3409 32.333C73.5804 32.4142 73.8157 32.5075 74.047 32.613C74.2783 32.7145 74.5076 32.818 74.7348 32.9235C74.954 33.0249 75.1711 33.1264 75.3862 33.2278C75.6053 33.3252 75.8305 33.4165 76.0618 33.5017C76.2931 33.5829 76.5325 33.6499 76.7801 33.7026C77.0276 33.7554 77.2893 33.7838 77.5653 33.7878L77.4131 35.6565L76.5488 36.0704C76.1957 36.2409 75.8447 36.4174 75.4957 36.6C75.1467 36.7786 74.7896 36.953 74.4244 37.1235C74.0633 37.2899 73.6899 37.4501 73.3044 37.6043C72.923 37.7545 72.5212 37.8864 72.0992 38C71.6772 38.1096 71.2308 38.1968 70.7601 38.2617C70.2893 38.3307 69.7862 38.3652 69.2505 38.3652H68.1305H68.0818C67.9479 38.3652 67.8221 38.3388 67.7044 38.2861C67.5827 38.2374 67.4792 38.1704 67.394 38.0852C67.3047 38 67.2357 37.8986 67.187 37.7809C67.1343 37.6632 67.1079 37.5374 67.1079 37.4035ZM72.7079 38.8522L74.0592 40.2035L72.7079 41.5548L71.3566 40.2035L72.7079 38.8522ZM78.2748 38.3835C78.2951 38.0507 78.3153 37.7058 78.3356 37.3487C78.3559 36.9916 78.3722 36.6386 78.3843 36.2896C78.4006 35.9406 78.4107 35.6017 78.4148 35.273C78.4188 34.9443 78.4148 34.642 78.4026 34.3661C78.3782 33.7899 78.3539 33.2846 78.3296 32.8504C78.3093 32.4122 78.2869 32.0246 78.2626 31.6878C78.2423 31.351 78.22 31.0568 78.1956 30.8052C78.1753 30.5496 78.153 30.3162 78.1287 30.1052C78.1043 29.8942 78.078 29.6974 78.0496 29.5148C78.0211 29.3281 77.9907 29.1354 77.9582 28.9365L79.8391 28.3157C79.9284 28.8594 79.9994 29.4072 80.0522 29.9591C80.109 30.511 80.1516 31.0406 80.18 31.5478C80.2084 32.051 80.2267 32.5197 80.2348 32.9539C80.2469 33.3881 80.253 33.7594 80.253 34.0678C80.253 34.3478 80.251 34.6501 80.2469 34.9748C80.2469 35.2994 80.2429 35.6362 80.2348 35.9852C80.2307 36.3342 80.2226 36.6872 80.2104 37.0443C80.1982 37.4014 80.18 37.7504 80.1556 38.0913L78.2748 38.3835ZM87.278 34.4087C87.1928 34.3925 87.0954 34.4229 86.9859 34.5C86.8804 34.573 86.7789 34.6745 86.6815 34.8043C86.5882 34.9301 86.5091 35.0701 86.4441 35.2243C86.3833 35.3786 86.3528 35.5267 86.3528 35.6687C86.3528 35.8026 86.3914 35.9142 86.4685 36.0035C86.5456 36.0928 86.643 36.1658 86.7607 36.2226C86.8824 36.2794 87.0143 36.322 87.1563 36.3504C87.3024 36.3788 87.4424 36.3991 87.5763 36.4113H87.5702C87.6757 36.4194 87.7954 36.4255 87.9293 36.4296C88.0673 36.4296 88.2012 36.4296 88.3311 36.4296C88.3717 36.4296 88.4021 36.4316 88.4224 36.4357C88.4467 36.4357 88.467 36.4357 88.4833 36.4357C88.4995 36.4357 88.5157 36.4357 88.532 36.4357C88.5522 36.4357 88.5807 36.4336 88.6172 36.4296C88.5563 36.178 88.4833 35.9386 88.398 35.7113C88.3169 35.48 88.2215 35.273 88.112 35.0904C88.0024 34.9078 87.8786 34.7577 87.7407 34.64C87.6027 34.5183 87.4485 34.4412 87.278 34.4087ZM84.2954 40.7817C84.8676 40.6681 85.3891 40.5241 85.8598 40.3496C86.3305 40.1791 86.7424 39.9864 87.0954 39.7713C87.4525 39.5603 87.7467 39.3351 87.978 39.0957C88.2134 38.8562 88.3798 38.6128 88.4772 38.3652C88.3027 38.3652 88.118 38.3612 87.9233 38.353C87.7285 38.349 87.5682 38.3429 87.4424 38.3348C86.9717 38.2942 86.5415 38.1887 86.152 38.0183C85.7624 37.8519 85.452 37.6246 85.2207 37.3365C85.0502 37.1174 84.9285 36.88 84.8554 36.6243C84.7864 36.3687 84.752 36.0988 84.752 35.8148C84.752 35.5957 84.7722 35.3765 84.8128 35.1574C84.8534 34.9342 84.9102 34.7191 84.9833 34.5122C85.0563 34.3012 85.1415 34.1023 85.2389 33.9157C85.3404 33.729 85.4479 33.5586 85.5615 33.4043C85.805 33.1 86.0708 32.8707 86.3589 32.7165C86.6511 32.5583 86.9575 32.4791 87.278 32.4791C87.9638 32.4791 88.5827 32.7794 89.1346 33.38C89.3293 33.5991 89.5038 33.8446 89.658 34.1165C89.8122 34.3884 89.9421 34.6786 90.0476 34.987C90.1572 35.2913 90.2404 35.6119 90.2972 35.9487C90.354 36.2814 90.3824 36.6203 90.3824 36.9652C90.3824 37.0707 90.3783 37.1762 90.3702 37.2817C90.3662 37.3872 90.3601 37.4867 90.352 37.58C90.3033 38.0548 90.1957 38.4991 90.0293 38.913C89.867 39.331 89.656 39.7145 89.3963 40.0635C89.1407 40.4165 88.8424 40.7351 88.5015 41.0191C88.1607 41.3072 87.7893 41.5588 87.3876 41.7739C86.9899 41.993 86.5679 42.1757 86.1215 42.3217C85.6751 42.4678 85.2166 42.5774 84.7459 42.6504L84.2954 40.7817ZM104.263 38.3652C103.89 38.3652 103.527 38.3064 103.174 38.1887C103.162 38.5174 103.117 38.8522 103.04 39.193C102.963 39.5339 102.851 39.8606 102.705 40.173C102.563 40.4896 102.383 40.7817 102.163 41.0496C101.948 41.3174 101.695 41.5446 101.403 41.7313C100.989 41.9991 100.534 42.202 100.039 42.34C99.5481 42.478 98.9861 42.547 98.353 42.547C97.647 42.547 97.0403 42.4617 96.533 42.2913C96.0299 42.1249 95.5916 41.8814 95.2183 41.5609C94.991 41.358 94.7922 41.1328 94.6217 40.8852C94.4554 40.6417 94.3174 40.382 94.2078 40.1061C94.0983 39.8342 94.0151 39.5481 93.9583 39.2478C93.9055 38.9516 93.8791 38.6493 93.8791 38.3409C93.8791 37.9919 93.9035 37.6612 93.9522 37.3487C94.0009 37.0322 94.0759 36.7157 94.1774 36.3991C94.2788 36.0826 94.4046 35.758 94.5548 35.4252C94.709 35.0925 94.8896 34.7333 95.0965 34.3478L96.4661 35.3339C96.3484 35.5449 96.2348 35.7823 96.1252 36.0461C96.0157 36.3058 95.9183 36.5757 95.833 36.8557C95.7519 37.1316 95.6849 37.4075 95.6322 37.6835C95.5835 37.9594 95.5591 38.2171 95.5591 38.4565C95.5591 38.773 95.6362 39.0632 95.7904 39.327C95.9446 39.5907 96.1475 39.8159 96.3991 40.0026C96.6548 40.1933 96.9449 40.3414 97.2696 40.447C97.5942 40.5565 97.929 40.6133 98.2739 40.6174C98.7487 40.6255 99.1829 40.587 99.5765 40.5017C99.9701 40.4206 100.309 40.2887 100.593 40.1061C100.877 39.9235 101.096 39.6881 101.25 39.4C101.409 39.1119 101.488 38.7649 101.488 38.3591C101.488 38.1238 101.453 37.8742 101.384 37.6104C101.315 37.3426 101.224 37.0667 101.11 36.7826C101.001 36.4945 100.871 36.2003 100.721 35.9C100.575 35.5957 100.423 35.2852 100.264 34.9687L101.926 33.9157L102.541 35.1026C102.707 35.4394 102.868 35.6991 103.022 35.8817C103.18 36.0603 103.332 36.1922 103.478 36.2774C103.624 36.3586 103.762 36.4072 103.892 36.4235C104.026 36.4357 104.15 36.4417 104.263 36.4417C104.397 36.4417 104.523 36.4661 104.641 36.5148C104.759 36.5635 104.86 36.6325 104.945 36.7217C105.034 36.807 105.103 36.9084 105.152 37.0261C105.205 37.1438 105.231 37.2696 105.231 37.4035C105.231 37.5374 105.205 37.6632 105.152 37.7809C105.103 37.8986 105.034 38 104.945 38.0852C104.86 38.1704 104.759 38.2374 104.641 38.2861C104.523 38.3388 104.397 38.3652 104.263 38.3652ZM98.4565 32.4913L99.8078 33.8426L98.4565 35.1939L97.1052 33.8426L98.4565 32.4913ZM103.282 37.3974C103.282 37.2635 103.308 37.1397 103.361 37.0261C103.41 36.9084 103.477 36.807 103.562 36.7217C103.647 36.6325 103.749 36.5635 103.866 36.5148C103.984 36.4661 104.11 36.4417 104.244 36.4417H104.299C104.359 36.4417 104.416 36.4417 104.469 36.4417C104.526 36.4417 104.589 36.4397 104.658 36.4357C104.731 36.4316 104.816 36.4275 104.913 36.4235C105.015 36.4194 105.141 36.4133 105.291 36.4052C105.149 36.1617 105.041 35.9041 104.968 35.6322C104.895 35.3562 104.859 35.0783 104.859 34.7983C104.859 34.5872 104.879 34.3762 104.919 34.1652C104.96 33.9542 105.021 33.7533 105.102 33.5626C105.183 33.3678 105.285 33.1852 105.406 33.0148C105.528 32.8403 105.672 32.682 105.839 32.54L105.522 32.3635L106.697 30.6348C106.871 30.7565 107.08 30.8803 107.324 31.0061C107.567 31.1319 107.823 31.2577 108.091 31.3835C108.359 31.5052 108.626 31.6249 108.894 31.7426C109.166 31.8562 109.416 31.9638 109.643 32.0652C110.028 32.2438 110.369 32.402 110.666 32.54C110.966 32.6739 111.236 32.8078 111.475 32.9417C111.715 33.0716 111.93 33.2096 112.12 33.3557C112.311 33.5017 112.49 33.6722 112.656 33.867C112.867 34.1348 113.019 34.427 113.113 34.7435C113.206 35.06 113.253 35.3664 113.253 35.6626C113.253 36.1171 113.135 36.5472 112.899 36.953C112.668 37.3548 112.325 37.6916 111.871 37.9635C111.745 38.0365 111.589 38.0994 111.402 38.1522C111.219 38.2049 111.027 38.2475 110.824 38.28C110.625 38.3165 110.428 38.3429 110.233 38.3591C110.039 38.3754 109.868 38.3835 109.722 38.3835C109.552 38.3835 109.367 38.3754 109.168 38.3591C108.969 38.347 108.768 38.3246 108.566 38.2922C108.367 38.2638 108.172 38.2252 107.981 38.1765C107.79 38.1278 107.616 38.071 107.458 38.0061C107.263 38.0629 107.038 38.1136 106.782 38.1583C106.53 38.2029 106.265 38.2394 105.985 38.2678C105.705 38.3003 105.421 38.3246 105.133 38.3409C104.844 38.3571 104.566 38.3652 104.299 38.3652H104.244C104.11 38.3652 103.984 38.3388 103.866 38.2861C103.749 38.2374 103.647 38.1684 103.562 38.0791C103.477 37.9939 103.41 37.8925 103.361 37.7748C103.308 37.6571 103.282 37.5313 103.282 37.3974ZM107.707 33.4591C107.577 33.4388 107.437 33.4774 107.287 33.5748C107.141 33.6722 107.007 33.798 106.886 33.9522C106.764 34.1064 106.666 34.2768 106.593 34.4635C106.52 34.6461 106.492 34.8165 106.508 34.9748V34.9687C106.52 35.0742 106.561 35.1838 106.63 35.2974C106.699 35.407 106.78 35.5145 106.873 35.62C106.971 35.7214 107.074 35.8128 107.184 35.8939C107.293 35.971 107.395 36.0278 107.488 36.0643C107.642 36.0481 107.793 36.0116 107.939 35.9548C108.089 35.898 108.223 35.8128 108.34 35.6991C108.458 35.5855 108.553 35.4394 108.626 35.2609C108.699 35.0823 108.736 34.8632 108.736 34.6035C108.736 34.4696 108.697 34.3377 108.62 34.2078C108.547 34.078 108.458 33.9603 108.353 33.8548C108.247 33.7452 108.133 33.6559 108.012 33.587C107.894 33.5139 107.793 33.4713 107.707 33.4591ZM110.337 34.4696C110.337 34.64 110.317 34.8186 110.276 35.0052C110.235 35.1919 110.181 35.3765 110.112 35.5591C110.043 35.7417 109.964 35.9203 109.874 36.0948C109.789 36.2652 109.698 36.4235 109.6 36.5696H109.655C109.951 36.5696 110.223 36.5594 110.471 36.5391C110.722 36.5148 110.939 36.4701 111.122 36.4052C111.305 36.3362 111.449 36.2429 111.554 36.1252C111.664 36.0035 111.729 35.8432 111.749 35.6443C111.757 35.547 111.717 35.4414 111.627 35.3278C111.538 35.2101 111.422 35.0945 111.28 34.9809C111.142 34.8632 110.988 34.7496 110.818 34.64C110.647 34.5304 110.487 34.433 110.337 34.3478V34.4696ZM117 33.9035C117.154 34.3417 117.288 34.7699 117.401 35.1878C117.45 35.3704 117.499 35.5612 117.548 35.76C117.596 35.9548 117.639 36.1516 117.675 36.3504C117.716 36.5452 117.748 36.738 117.773 36.9287C117.797 37.1154 117.809 37.2899 117.809 37.4522C117.809 37.8336 117.756 38.2049 117.651 38.5661C117.55 38.9313 117.403 39.2843 117.213 39.6252C117.026 39.9661 116.803 40.2928 116.543 40.6052C116.283 40.9217 115.995 41.218 115.679 41.4939C115.362 41.7699 115.023 42.0255 114.662 42.2609C114.301 42.5003 113.928 42.7154 113.542 42.9061L112.434 41.3661C112.727 41.22 113.023 41.0536 113.323 40.867C113.619 40.6843 113.903 40.4875 114.175 40.2765C114.451 40.0655 114.707 39.8443 114.942 39.613C115.182 39.3817 115.389 39.1464 115.563 38.907C115.742 38.6675 115.882 38.4241 115.983 38.1765C116.085 37.933 116.135 37.6936 116.135 37.4583C116.135 37.2878 116.111 37.1032 116.062 36.9043C116.018 36.7055 115.955 36.4925 115.874 36.2652C115.796 36.0339 115.703 35.7904 115.594 35.5348C115.484 35.2751 115.366 34.9991 115.241 34.707L117 33.9035Z" fill="#303030"/>
</svg>
