<svg width="57" height="56" viewBox="0 0 57 56" fill="none" xmlns="http://www.w3.org/2000/svg">
<path d="M33.459 24.2066C33.459 23.5054 33.6862 22.9362 34.1407 22.499C34.5995 22.0619 35.1969 21.8433 35.9327 21.8433C36.6816 21.8433 37.2832 22.0597 37.7377 22.4925C38.1965 22.9254 38.4259 23.5119 38.4259 24.2521V24.8169C38.4259 25.5225 38.1965 26.0917 37.7377 26.5245C37.2832 26.9531 36.688 27.1673 35.9522 27.1673C35.2077 27.1673 34.606 26.9509 34.1472 26.518C33.6884 26.0852 33.459 25.5008 33.459 24.765V24.2066ZM34.9653 24.8169C34.9653 25.1286 35.0562 25.3818 35.238 25.5766C35.4198 25.767 35.6579 25.8623 35.9522 25.8623C36.2465 25.8623 36.4781 25.7649 36.6469 25.5701C36.8201 25.3753 36.9066 25.1156 36.9066 24.791V24.2066C36.9066 23.895 36.8201 23.6418 36.6469 23.447C36.4781 23.2522 36.24 23.1548 35.9327 23.1548C35.647 23.1548 35.4133 23.2522 35.2315 23.447C35.054 23.6374 34.9653 23.9015 34.9653 24.2391V24.8169ZM38.9324 30.6474C38.9324 29.9376 39.1618 29.3684 39.6206 28.9398C40.0838 28.507 40.6811 28.2906 41.4126 28.2906C42.1571 28.2906 42.7588 28.5048 43.2176 28.9333C43.6764 29.3575 43.9058 29.9441 43.9058 30.6929V31.2578C43.9058 31.9633 43.6807 32.5303 43.2306 32.9589C42.7804 33.3917 42.1788 33.6081 41.4256 33.6081C40.6724 33.6081 40.0686 33.3895 39.6141 32.9524C39.1596 32.5195 38.9324 31.9438 38.9324 31.2253V30.6474ZM40.4387 31.2578C40.4387 31.5478 40.5318 31.7945 40.7179 31.9979C40.9083 32.2014 41.1442 32.3031 41.4256 32.3031C42.0662 32.3031 42.3865 31.9503 42.3865 31.2448V30.6474C42.3865 30.3315 42.2978 30.0782 42.1203 29.8878C41.9429 29.6973 41.7069 29.6021 41.4126 29.6021C41.1183 29.6021 40.8824 29.6973 40.7049 29.8878C40.5274 30.0782 40.4387 30.3401 40.4387 30.6734V31.2578ZM36.4002 32.5953L35.2899 31.9979L40.8802 23.0574L41.984 23.6547L36.4002 32.5953Z" fill="#636363"/>
<path d="M26.8046 33.53C26.8046 32.7769 26.7613 32.0627 26.6747 31.3874C26.5882 30.7079 26.467 30.0608 26.3111 29.4461C26.1553 28.8271 25.9692 28.2385 25.7528 27.6801C25.5407 27.1217 25.3091 26.585 25.058 26.0699C24.8113 25.5548 24.5473 25.0592 24.2659 24.583C23.9889 24.1026 23.7076 23.6351 23.4219 23.1806L25.2593 22.0054C25.6013 22.5681 25.9108 23.1373 26.1878 23.713C26.4648 24.2887 26.7137 24.8622 26.9345 25.4336C27.1595 26.0049 27.3586 26.5698 27.5318 27.1282C27.7093 27.6866 27.8694 28.232 28.0123 28.7644C28.1291 28.3532 28.2503 27.9268 28.3758 27.4853C28.5057 27.0395 28.6399 26.6001 28.7784 26.1673C28.9169 25.7301 29.0576 25.3037 29.2004 24.8882C29.3433 24.4683 29.4861 24.0766 29.6289 23.713C29.7761 23.3494 29.919 23.0183 30.0575 22.7196C30.196 22.4166 30.3323 22.1634 30.4665 21.96L32.291 23.1222C32.1092 23.4078 31.9274 23.7303 31.7456 24.0896C31.5638 24.4445 31.382 24.8254 31.2002 25.2323C31.0227 25.6392 30.8474 26.0677 30.6743 26.5179C30.5011 26.9637 30.3345 27.4182 30.1743 27.8814C29.8021 28.9462 29.5142 29.9504 29.3108 30.894C29.1074 31.8376 29.0013 32.7163 28.9927 33.53H26.8046Z" fill="#636363"/>
<path d="M17.0331 33.53C17.0331 32.7769 16.9898 32.0627 16.9033 31.3874C16.8167 30.7079 16.6955 30.0608 16.5397 29.4461C16.3838 28.8271 16.1977 28.2385 15.9813 27.6801C15.7692 27.1217 15.5376 26.585 15.2866 26.0699C15.0398 25.5548 14.7758 25.0592 14.4944 24.583C14.2174 24.1026 13.9361 23.6351 13.6504 23.1806L15.4878 22.0054C15.8298 22.5681 16.1393 23.1373 16.4163 23.713C16.6933 24.2887 16.9422 24.8622 17.163 25.4336C17.3881 26.0049 17.5872 26.5698 17.7603 27.1282C17.9378 27.6866 18.0979 28.232 18.2408 28.7644C18.3576 28.3532 18.4788 27.9268 18.6044 27.4853C18.7342 27.0395 18.8684 26.6001 19.0069 26.1673C19.1454 25.7301 19.2861 25.3037 19.4289 24.8882C19.5718 24.4683 19.7146 24.0766 19.8575 23.713C20.0046 23.3494 20.1475 23.0183 20.286 22.7196C20.4245 22.4166 20.5608 22.1634 20.695 21.96L22.5195 23.1222C22.3377 23.4078 22.1559 23.7303 21.9741 24.0896C21.7923 24.4445 21.6105 24.8254 21.4287 25.2323C21.2512 25.6392 21.0759 26.0677 20.9028 26.5179C20.7297 26.9637 20.563 27.4182 20.4029 27.8814C20.0306 28.9462 19.7428 29.9504 19.5393 30.894C19.3359 31.8376 19.2298 32.7163 19.2212 33.53H17.0331Z" fill="#636363"/>
<mask id="path-4-inside-1_4261_41226" fill="white">
<path d="M0.500006 28C0.500008 12.536 13.036 2.07308e-08 28.5 1.37058e-06C43.964 2.72043e-06 56.5 12.536 56.5 28C56.5 43.464 43.964 56 28.5 56C13.036 56 0.500005 43.464 0.500006 28ZM53.1313 28C53.1313 14.3965 42.1035 3.36868 28.5 3.36868C14.8965 3.36868 3.86869 14.3965 3.86869 28C3.86868 41.6035 14.8965 52.6313 28.5 52.6313C42.1035 52.6313 53.1313 41.6035 53.1313 28Z"/>
</mask>
<path d="M0.500006 28C0.500008 12.536 13.036 2.07308e-08 28.5 1.37058e-06C43.964 2.72043e-06 56.5 12.536 56.5 28C56.5 43.464 43.964 56 28.5 56C13.036 56 0.500005 43.464 0.500006 28ZM53.1313 28C53.1313 14.3965 42.1035 3.36868 28.5 3.36868C14.8965 3.36868 3.86869 14.3965 3.86869 28C3.86868 41.6035 14.8965 52.6313 28.5 52.6313C42.1035 52.6313 53.1313 41.6035 53.1313 28Z" stroke="#E0E0E0" stroke-width="8" mask="url(#path-4-inside-1_4261_41226)"/>
<mask id="path-5-inside-2_4261_41226" fill="white">
<path d="M55.4655 35.5408C57.3263 28.8866 56.661 21.7793 53.5977 15.586C50.5343 9.39274 45.2892 4.55081 38.8711 1.99155C32.4531 -0.567709 25.3154 -0.663554 18.831 1.72245C12.3465 4.10845 6.97327 8.80779 3.74471 14.9166C0.516154 21.0254 -0.339696 28.1122 1.34178 34.814C3.02325 41.5158 7.1233 47.3592 12.8533 51.2203C18.5833 55.0814 25.5386 56.6875 32.3814 55.7297C39.2242 54.7719 45.4712 51.3178 49.9209 46.0318L47.3437 43.8624C43.4294 48.5124 37.9339 51.551 31.9144 52.3935C25.8949 53.2361 19.7764 51.8232 14.7358 48.4266C9.69513 45.0301 6.08836 39.8897 4.60918 33.9942C3.13 28.0987 3.88289 21.8645 6.72302 16.4907C9.56315 11.1168 14.29 6.98284 19.9943 4.8839C25.6986 2.78496 31.9775 2.86927 37.6234 5.12063C43.2693 7.37198 47.8834 11.6314 50.5782 17.0796C53.273 22.5277 53.8582 28.7799 52.2213 34.6336L55.4655 35.5408Z"/>
</mask>
<path d="M55.4655 35.5408C57.3263 28.8866 56.661 21.7793 53.5977 15.586C50.5343 9.39274 45.2892 4.55081 38.8711 1.99155C32.4531 -0.567709 25.3154 -0.663554 18.831 1.72245C12.3465 4.10845 6.97327 8.80779 3.74471 14.9166C0.516154 21.0254 -0.339696 28.1122 1.34178 34.814C3.02325 41.5158 7.1233 47.3592 12.8533 51.2203C18.5833 55.0814 25.5386 56.6875 32.3814 55.7297C39.2242 54.7719 45.4712 51.3178 49.9209 46.0318L47.3437 43.8624C43.4294 48.5124 37.9339 51.551 31.9144 52.3935C25.8949 53.2361 19.7764 51.8232 14.7358 48.4266C9.69513 45.0301 6.08836 39.8897 4.60918 33.9942C3.13 28.0987 3.88289 21.8645 6.72302 16.4907C9.56315 11.1168 14.29 6.98284 19.9943 4.8839C25.6986 2.78496 31.9775 2.86927 37.6234 5.12063C43.2693 7.37198 47.8834 11.6314 50.5782 17.0796C53.273 22.5277 53.8582 28.7799 52.2213 34.6336L55.4655 35.5408Z" stroke="url(#paint0_angular_4261_41226)" stroke-width="8" mask="url(#path-5-inside-2_4261_41226)"/>
<defs>
<radialGradient id="paint0_angular_4261_41226" cx="0" cy="0" r="1" gradientUnits="userSpaceOnUse" gradientTransform="translate(38.8837 39.114) rotate(71.394) scale(17.8172 17.8228)">
<stop offset="0.509927" stop-color="#00BD61"/>
<stop offset="0.754664" stop-color="#E0E0E0"/>
<stop offset="0.900004" stop-color="#DEDEDE"/>
</radialGradient>
</defs>
</svg>
