<svg width="300" height="281" viewBox="0 0 300 281" fill="none" xmlns="http://www.w3.org/2000/svg">
<mask id="mask0_1372_4845" style="mask-type:luminance" maskUnits="userSpaceOnUse" x="4" y="0" width="293" height="273">
<path d="M296.71 0H4.47754V272.239H296.71V0Z" fill="white"/>
</mask>
<g mask="url(#mask0_1372_4845)">
<path d="M249.616 205.175H262.484V107.222H249.616V205.175Z" fill="url(#paint0_linear_1372_4845)"/>
<path d="M276.549 105.247H249.301V149.2H276.549V105.247Z" fill="url(#paint1_linear_1372_4845)"/>
<path d="M276.554 149.204H290.586V105.251H276.554V149.204Z" fill="url(#paint2_linear_1372_4845)"/>
<path d="M246.399 105.247H276.721V100.374H246.399V105.247Z" fill="url(#paint3_linear_1372_4845)"/>
<path d="M292.815 100.373H276.721V105.246H292.815V100.373Z" fill="url(#paint4_linear_1372_4845)"/>
<path style="mix-blend-mode:multiply" d="M276.549 105.247H249.301V109.686H276.549V105.247Z" fill="url(#paint5_linear_1372_4845)"/>
<path style="mix-blend-mode:multiply" d="M276.554 109.686H290.586V105.247H276.554V109.686Z" fill="url(#paint6_linear_1372_4845)"/>
<path d="M269.605 134.528H202.799V298.833H269.605V134.528Z" fill="url(#paint7_linear_1372_4845)"/>
<path d="M269.609 298.834H304.012V134.528H269.609V298.834Z" fill="url(#paint8_linear_1372_4845)"/>
<path d="M269.61 129.655H198.16V134.529H269.61V129.655Z" fill="url(#paint9_linear_1372_4845)"/>
<path d="M269.61 134.528H306.404V129.655H269.61V134.528Z" fill="url(#paint10_linear_1372_4845)"/>
<path style="mix-blend-mode:multiply" d="M269.605 134.524H202.799V139.941H269.605V134.524Z" fill="url(#paint11_linear_1372_4845)"/>
<path style="mix-blend-mode:multiply" d="M269.609 139.946H304.012V134.529H269.609V139.946Z" fill="url(#paint12_linear_1372_4845)"/>
<path d="M249.554 230.878H261.305V211.032H249.554V230.878Z" fill="url(#paint13_linear_1372_4845)"/>
<path d="M261.305 212.527V211.033H249.554L250.986 212.527H261.305Z" fill="url(#paint14_linear_1372_4845)"/>
<path d="M250.986 230.878V212.527L249.554 211.033V230.878H250.986Z" fill="url(#paint15_linear_1372_4845)"/>
<path d="M230.329 230.878H242.08V211.032H230.329V230.878Z" fill="url(#paint16_linear_1372_4845)"/>
<path d="M242.08 212.527V211.033H230.329L231.761 212.527H242.08Z" fill="url(#paint17_linear_1372_4845)"/>
<path d="M231.761 230.878V212.527L230.329 211.033V230.878H231.761Z" fill="url(#paint18_linear_1372_4845)"/>
<path d="M211.104 230.878H222.855V211.032H211.104V230.878Z" fill="url(#paint19_linear_1372_4845)"/>
<path d="M222.855 212.527V211.033H211.104L212.536 212.527H222.855Z" fill="url(#paint20_linear_1372_4845)"/>
<path d="M212.536 230.878V212.527L211.104 211.033V230.878H212.536Z" fill="url(#paint21_linear_1372_4845)"/>
<path d="M249.554 198.656H261.305V178.81H249.554V198.656Z" fill="url(#paint22_linear_1372_4845)"/>
<path d="M261.305 180.3V178.807H249.554L250.986 180.3H261.305Z" fill="url(#paint23_linear_1372_4845)"/>
<path d="M250.986 198.652V180.3L249.554 178.807V198.652H250.986Z" fill="url(#paint24_linear_1372_4845)"/>
<path d="M230.329 198.656H242.08V178.81H230.329V198.656Z" fill="url(#paint25_linear_1372_4845)"/>
<path d="M242.08 180.3V178.807H230.329L231.761 180.3H242.08Z" fill="url(#paint26_linear_1372_4845)"/>
<path d="M231.761 198.652V180.3L230.329 178.807V198.652H231.761Z" fill="url(#paint27_linear_1372_4845)"/>
<path d="M211.104 198.656H222.855V178.81H211.104V198.656Z" fill="url(#paint28_linear_1372_4845)"/>
<path d="M222.855 180.3V178.807H211.104L212.536 180.3H222.855Z" fill="url(#paint29_linear_1372_4845)"/>
<path d="M212.536 198.652V180.3L211.104 178.807V198.652H212.536Z" fill="url(#paint30_linear_1372_4845)"/>
<path d="M249.554 166.426H261.305V146.58H249.554V166.426Z" fill="url(#paint31_linear_1372_4845)"/>
<path d="M261.305 148.073V146.579H249.554L250.986 148.073H261.305Z" fill="url(#paint32_linear_1372_4845)"/>
<path d="M250.986 166.425V148.073L249.554 146.579V166.425H250.986Z" fill="url(#paint33_linear_1372_4845)"/>
<path d="M230.329 166.426H242.08V146.58H230.329V166.426Z" fill="url(#paint34_linear_1372_4845)"/>
<path d="M242.08 148.073V146.579H230.329L231.761 148.073H242.08Z" fill="url(#paint35_linear_1372_4845)"/>
<path d="M231.761 166.425V148.073L230.329 146.579V166.425H231.761Z" fill="url(#paint36_linear_1372_4845)"/>
<path d="M211.104 166.426H222.855V146.58H211.104V166.426Z" fill="url(#paint37_linear_1372_4845)"/>
<path d="M222.855 148.073V146.579H211.104L212.536 148.073H222.855Z" fill="url(#paint38_linear_1372_4845)"/>
<path d="M212.536 166.425V148.073L211.104 146.579V166.425H212.536Z" fill="url(#paint39_linear_1372_4845)"/>
<path d="M249.554 263.1H261.305V243.254H249.554V263.1Z" fill="url(#paint40_linear_1372_4845)"/>
<path d="M261.305 244.752V243.253H249.554L250.986 244.752H261.305Z" fill="url(#paint41_linear_1372_4845)"/>
<path d="M250.986 263.104V244.752L249.554 243.253V263.104H250.986Z" fill="url(#paint42_linear_1372_4845)"/>
<path d="M230.329 263.1H242.08V243.254H230.329V263.1Z" fill="url(#paint43_linear_1372_4845)"/>
<path d="M242.08 244.752V243.253H230.329L231.761 244.752H242.08Z" fill="url(#paint44_linear_1372_4845)"/>
<path d="M231.761 263.104V244.752L230.329 243.253V263.104H231.761Z" fill="url(#paint45_linear_1372_4845)"/>
<path d="M211.104 263.1H222.855V243.254H211.104V263.1Z" fill="url(#paint46_linear_1372_4845)"/>
<path d="M222.855 244.752V243.253H211.104L212.536 244.752H222.855Z" fill="url(#paint47_linear_1372_4845)"/>
<path d="M212.536 263.104V244.752L211.104 243.253V263.104H212.536Z" fill="url(#paint48_linear_1372_4845)"/>
<path d="M277.485 295.326H284.62V146.58H277.485V295.326Z" fill="url(#paint49_linear_1372_4845)"/>
<path d="M284.62 148.073V146.579H277.485L278.917 148.073H284.62Z" fill="url(#paint50_linear_1372_4845)"/>
<path d="M278.917 295.325V148.073L277.485 146.579V295.325H278.917Z" fill="url(#paint51_linear_1372_4845)"/>
<path d="M288.744 295.326H295.879V146.58H288.744V295.326Z" fill="url(#paint52_linear_1372_4845)"/>
<path d="M295.879 148.073V146.579H288.739L290.171 148.073H295.879Z" fill="url(#paint53_linear_1372_4845)"/>
<path d="M290.171 295.325V148.073L288.739 146.579V295.325H290.171Z" fill="url(#paint54_linear_1372_4845)"/>
<path d="M239.469 119.779H238.357V129.798H239.469V119.779Z" fill="url(#paint55_linear_1372_4845)"/>
<path d="M232.596 119.779H231.484V129.798H232.596V119.779Z" fill="url(#paint56_linear_1372_4845)"/>
<path d="M225.723 119.779H224.611V129.798H225.723V119.779Z" fill="url(#paint57_linear_1372_4845)"/>
<path d="M218.855 119.779H217.743V129.798H218.855V119.779Z" fill="url(#paint58_linear_1372_4845)"/>
<path d="M211.982 119.779H210.87V129.798H211.982V119.779Z" fill="url(#paint59_linear_1372_4845)"/>
<path d="M266.818 119.779H265.706V129.798H266.818V119.779Z" fill="url(#paint60_linear_1372_4845)"/>
<path d="M259.949 119.779H258.837V129.798H259.949V119.779Z" fill="url(#paint61_linear_1372_4845)"/>
<path d="M253.076 119.779H251.964V129.798H253.076V119.779Z" fill="url(#paint62_linear_1372_4845)"/>
<path d="M246.204 119.779H245.092V129.798H246.204V119.779Z" fill="url(#paint63_linear_1372_4845)"/>
<path d="M294.171 119.779H293.059V129.798H294.171V119.779Z" fill="url(#paint64_linear_1372_4845)"/>
<path d="M287.298 119.779H286.186V129.798H287.298V119.779Z" fill="url(#paint65_linear_1372_4845)"/>
<path d="M280.429 119.779H279.317V129.798H280.429V119.779Z" fill="url(#paint66_linear_1372_4845)"/>
<path d="M273.557 119.779H272.445V129.798H273.557V119.779Z" fill="url(#paint67_linear_1372_4845)"/>
<path d="M205.109 119.779H203.997V129.798H205.109V119.779Z" fill="url(#paint68_linear_1372_4845)"/>
<path d="M201.028 120.339L304.012 120.339V119.227L201.028 119.227V120.339Z" fill="url(#paint69_linear_1372_4845)"/>
<path d="M167.022 190.89L136.843 161.05L106.665 190.89V311.749H167.022V190.89Z" fill="url(#paint70_linear_1372_4845)"/>
<path d="M206.536 190.891H167.022V311.744H206.536V190.891Z" fill="url(#paint71_linear_1372_4845)"/>
<path d="M147.276 195.578V194.575C147.275 191.83 146.245 189.185 144.39 187.162C142.534 185.139 139.988 183.884 137.253 183.646V195.578H147.276Z" fill="url(#paint72_linear_1372_4845)"/>
<path d="M135.354 195.578V183.646C132.619 183.884 130.073 185.139 128.218 187.162C126.363 189.185 125.333 191.83 125.331 194.575V195.578H135.354Z" fill="url(#paint73_linear_1372_4845)"/>
<path d="M147.276 197.477H137.253V208.011H147.276V197.477Z" fill="url(#paint74_linear_1372_4845)"/>
<path d="M147.276 209.911H137.253V219.58H147.276V209.911Z" fill="url(#paint75_linear_1372_4845)"/>
<path d="M135.354 197.477H125.331V208.011H135.354V197.477Z" fill="url(#paint76_linear_1372_4845)"/>
<path d="M135.354 209.911H125.331V219.58H135.354V209.911Z" fill="url(#paint77_linear_1372_4845)"/>
<path d="M137.253 183.646V184.419H137.683C139.354 184.416 141.003 184.797 142.504 185.531C140.947 184.457 139.138 183.807 137.253 183.646Z" fill="url(#paint78_linear_1372_4845)"/>
<path d="M126.71 195.578V195.382C126.711 192.876 127.568 190.446 129.141 188.495C130.713 186.544 132.906 185.19 135.354 184.657V183.646C132.619 183.884 130.073 185.139 128.218 187.162C126.363 189.185 125.333 191.83 125.331 194.575V195.578H126.71Z" fill="url(#paint79_linear_1372_4845)"/>
<path d="M126.71 197.477H125.331V208.011H126.71V197.477Z" fill="url(#paint80_linear_1372_4845)"/>
<path d="M126.71 209.911H125.331V219.58H126.71V209.911Z" fill="url(#paint81_linear_1372_4845)"/>
<path d="M135.12 243.893V242.895C135.119 240.15 134.089 237.505 132.234 235.482C130.378 233.459 127.832 232.204 125.097 231.965V243.897L135.12 243.893Z" fill="url(#paint82_linear_1372_4845)"/>
<path d="M123.193 243.893V231.961C120.458 232.2 117.912 233.455 116.057 235.478C114.201 237.501 113.171 240.146 113.17 242.891V243.893H123.193Z" fill="url(#paint83_linear_1372_4845)"/>
<path d="M135.115 245.808H125.092V256.341H135.115V245.808Z" fill="url(#paint84_linear_1372_4845)"/>
<path d="M123.193 245.808H113.17V256.341H123.193V245.808Z" fill="url(#paint85_linear_1372_4845)"/>
<path d="M125.092 231.961V232.739C125.235 232.739 125.379 232.739 125.527 232.739C127.198 232.741 128.846 233.128 130.342 233.87C128.788 232.788 126.979 232.13 125.092 231.961Z" fill="url(#paint86_linear_1372_4845)"/>
<path d="M114.554 243.893V243.702C114.554 241.197 115.411 238.768 116.983 236.817C118.554 234.866 120.745 233.511 123.193 232.978V231.961C120.458 232.2 117.912 233.455 116.057 235.478C114.201 237.501 113.171 240.146 113.17 242.891V243.893H114.554Z" fill="url(#paint87_linear_1372_4845)"/>
<path d="M114.549 245.808H113.17V256.341H114.549V245.808Z" fill="url(#paint88_linear_1372_4845)"/>
<path d="M162.082 243.893V242.895C162.081 240.15 161.051 237.505 159.195 235.482C157.34 233.459 154.794 232.204 152.059 231.965V243.897L162.082 243.893Z" fill="url(#paint89_linear_1372_4845)"/>
<path d="M150.155 243.893V231.961C147.42 232.2 144.874 233.455 143.018 235.478C141.163 237.501 140.133 240.146 140.132 242.891V243.893H150.155Z" fill="url(#paint90_linear_1372_4845)"/>
<path d="M162.077 245.808H152.054V256.341H162.077V245.808Z" fill="url(#paint91_linear_1372_4845)"/>
<path d="M150.155 245.808H140.132V256.341H150.155V245.808Z" fill="url(#paint92_linear_1372_4845)"/>
<path d="M152.054 231.961V232.739H152.489C154.159 232.741 155.807 233.128 157.304 233.87C155.75 232.788 153.941 232.13 152.054 231.961Z" fill="url(#paint93_linear_1372_4845)"/>
<path d="M141.516 243.893V243.702C141.516 241.197 142.373 238.768 143.944 236.817C145.516 234.866 147.707 233.511 150.155 232.978V231.961C147.42 232.2 144.874 233.455 143.018 235.478C141.163 237.501 140.133 240.146 140.132 242.891V243.893H141.516Z" fill="url(#paint94_linear_1372_4845)"/>
<path d="M141.511 245.808H140.132V256.341H141.511V245.808Z" fill="url(#paint95_linear_1372_4845)"/>
<path d="M135.12 283.594V282.597C135.119 279.852 134.089 277.207 132.234 275.183C130.378 273.16 127.832 271.906 125.097 271.667V283.599L135.12 283.594Z" fill="url(#paint96_linear_1372_4845)"/>
<path d="M123.193 283.593V271.661C120.458 271.9 117.912 273.155 116.057 275.178C114.201 277.201 113.171 279.846 113.17 282.591V283.589L123.193 283.593Z" fill="url(#paint97_linear_1372_4845)"/>
<path d="M125.092 271.661V272.439H125.527C127.196 272.437 128.843 272.817 130.342 273.551C128.785 272.478 126.976 271.827 125.092 271.661Z" fill="url(#paint98_linear_1372_4845)"/>
<path d="M114.554 283.594V283.403C114.554 280.898 115.411 278.469 116.983 276.518C118.554 274.567 120.745 273.212 123.193 272.679V271.667C120.458 271.906 117.912 273.16 116.057 275.183C114.201 277.207 113.171 279.852 113.17 282.597V283.594H114.554Z" fill="url(#paint99_linear_1372_4845)"/>
<path d="M162.082 283.594V282.597C162.081 279.852 161.051 277.207 159.195 275.183C157.34 273.16 154.794 271.906 152.059 271.667V283.599L162.082 283.594Z" fill="url(#paint100_linear_1372_4845)"/>
<path d="M150.155 283.593V271.661C147.42 271.9 144.874 273.155 143.018 275.178C141.163 277.201 140.133 279.846 140.132 282.591V283.589L150.155 283.593Z" fill="url(#paint101_linear_1372_4845)"/>
<path d="M152.054 271.661V272.439H152.489C154.158 272.437 155.805 272.817 157.304 273.551C155.747 272.478 153.938 271.827 152.054 271.661Z" fill="url(#paint102_linear_1372_4845)"/>
<path d="M141.516 283.594V283.403C141.516 280.898 142.373 278.469 143.944 276.518C145.516 274.567 147.707 273.212 150.155 272.679V271.667C147.42 271.906 144.874 273.16 143.018 275.183C141.163 277.207 140.133 279.852 140.132 282.597V283.594H141.516Z" fill="url(#paint103_linear_1372_4845)"/>
<path d="M175.627 218.516H185.159V205.911H175.627V218.516Z" fill="url(#paint104_linear_1372_4845)"/>
<path d="M185.159 207.123V205.905H175.627L176.787 207.123H185.159Z" fill="url(#paint105_linear_1372_4845)"/>
<path d="M176.787 218.515V207.123L175.627 205.905V218.515H176.787Z" fill="white"/>
<path d="M186.681 218.516H196.213V205.911H186.681V218.516Z" fill="url(#paint106_linear_1372_4845)"/>
<path d="M196.213 205.905H186.681V207.118H196.213V205.905Z" fill="url(#paint107_linear_1372_4845)"/>
<path d="M175.627 232.81H185.159V220.205H175.627V232.81Z" fill="url(#paint108_linear_1372_4845)"/>
<path d="M176.787 220.205H175.627V232.81H176.787V220.205Z" fill="white"/>
<path d="M186.681 232.81H196.213V220.205H186.681V232.81Z" fill="url(#paint109_linear_1372_4845)"/>
<path d="M175.627 268.091H185.159V255.486H175.627V268.091Z" fill="url(#paint110_linear_1372_4845)"/>
<path d="M185.159 256.698V255.486H175.627L176.787 256.698H185.159Z" fill="url(#paint111_linear_1372_4845)"/>
<path d="M176.787 268.091V256.698L175.627 255.486V268.091H176.787Z" fill="white"/>
<path d="M186.681 268.091H196.213V255.486H186.681V268.091Z" fill="url(#paint112_linear_1372_4845)"/>
<path d="M196.213 255.486H186.681V256.698H196.213V255.486Z" fill="url(#paint113_linear_1372_4845)"/>
<path d="M175.627 282.391H185.159V269.786H175.627V282.391Z" fill="url(#paint114_linear_1372_4845)"/>
<path d="M176.787 269.781H175.627V282.386H176.787V269.781Z" fill="white"/>
<path d="M186.681 282.391H196.213V269.786H186.681V282.391Z" fill="url(#paint115_linear_1372_4845)"/>
<path style="mix-blend-mode:multiply" d="M206.536 194.395H167.079V200.322H206.536V194.395Z" fill="url(#paint116_linear_1372_4845)"/>
<path style="mix-blend-mode:multiply" d="M106.665 192.365V200.445L136.843 170.601L167.022 200.445V192.365L136.843 162.52L106.665 192.365Z" fill="url(#paint117_linear_1372_4845)"/>
<path d="M206.531 190.89H167.022L136.843 161.05H176.353L206.531 190.89Z" fill="url(#paint118_linear_1372_4845)"/>
<path d="M206.536 190.891H167.079V195.764H206.536V190.891Z" fill="url(#paint119_linear_1372_4845)"/>
<path d="M167.079 190.948L136.843 161.05L104.288 193.243V198.164L136.843 165.971L167.079 195.868V190.948Z" fill="url(#paint120_linear_1372_4845)"/>
<path d="M34.9867 172.491H-0.466064V177.645H34.9867V172.491Z" fill="url(#paint121_linear_1372_4845)"/>
<path d="M34.9866 172.449V177.89L35.1584 178.214L105.568 139.707V134.471L34.9866 172.449Z" fill="url(#paint122_linear_1372_4845)"/>
<path d="M34.9821 177.651H4.04443V287.002H34.9821V177.651Z" fill="url(#paint123_linear_1372_4845)"/>
<path d="M34.9866 177.651L102.666 141.268V287.002H34.9866V177.651Z" fill="url(#paint124_linear_1372_4845)"/>
<path d="M105.568 134.471H70.2772L-0.466064 172.492H34.9867L105.568 134.471Z" fill="url(#paint125_linear_1372_4845)"/>
<path style="mix-blend-mode:multiply" d="M34.9821 177.651H4.04443V181.842H34.9821V177.651Z" fill="url(#paint126_linear_1372_4845)"/>
<path style="mix-blend-mode:multiply" d="M34.9866 177.651V181.818L102.666 145.434V141.268L34.9866 177.651Z" fill="url(#paint127_linear_1372_4845)"/>
<path d="M42.4515 194.17H96.1843V181.999H42.4515V194.17Z" fill="url(#paint128_linear_1372_4845)"/>
<path d="M96.1844 183.492V181.998H42.4517L43.8835 183.492H96.1844Z" fill="url(#paint129_linear_1372_4845)"/>
<path d="M43.8835 194.169V183.492L42.4517 181.998V194.169H43.8835Z" fill="url(#paint130_linear_1372_4845)"/>
<path d="M42.4515 212.087H96.1843V199.916H42.4515V212.087Z" fill="url(#paint131_linear_1372_4845)"/>
<path d="M96.1844 201.41V199.917H42.4517L43.8835 201.41H96.1844Z" fill="url(#paint132_linear_1372_4845)"/>
<path d="M43.8835 212.087V201.41L42.4517 199.917V212.087H43.8835Z" fill="url(#paint133_linear_1372_4845)"/>
<path d="M42.4515 230H96.1843V217.829H42.4515V230Z" fill="url(#paint134_linear_1372_4845)"/>
<path d="M96.1844 219.323V217.829H42.4517L43.8835 219.323H96.1844Z" fill="url(#paint135_linear_1372_4845)"/>
<path d="M43.8835 230V219.323L42.4517 217.829V230H43.8835Z" fill="url(#paint136_linear_1372_4845)"/>
<path d="M42.4515 247.916H96.1843V235.746H42.4515V247.916Z" fill="url(#paint137_linear_1372_4845)"/>
<path d="M96.1844 237.24V235.742H42.4517L43.8835 237.24H96.1844Z" fill="url(#paint138_linear_1372_4845)"/>
<path d="M31.8835 247.913V237.24L30.4517 235.742V247.913H31.8835Z" fill="url(#paint139_linear_1372_4845)"/>
<path d="M42.4515 265.829H96.1843V253.658H42.4515V265.829Z" fill="url(#paint140_linear_1372_4845)"/>
<path d="M84.1844 255.153V253.659H30.4517L31.8835 255.153H84.1844Z" fill="url(#paint141_linear_1372_4845)"/>
<path d="M31.8835 265.829V255.153L30.4517 253.659V265.829H31.8835Z" fill="url(#paint142_linear_1372_4845)"/>
<path d="M30.4515 283.747H84.1843V271.576H30.4515V283.747Z" fill="url(#paint143_linear_1372_4845)"/>
<path d="M84.1844 273.069V271.575H30.4517L31.8835 273.069H84.1844Z" fill="url(#paint144_linear_1372_4845)"/>
<path d="M31.8835 283.746V273.069L30.4517 271.575V283.746H31.8835Z" fill="url(#paint145_linear_1372_4845)"/>
</g>
<path d="M177.15 132.075C177.15 128.688 176.198 125.37 174.404 122.498C172.609 119.626 170.044 117.315 167 115.83C163.957 114.345 160.557 113.745 157.189 114.099C153.821 114.452 150.62 115.744 147.951 117.829C145.281 119.913 143.251 122.705 142.092 125.887C140.933 129.069 140.691 132.513 141.394 135.826C142.096 139.139 143.716 142.188 146.067 144.625C148.419 147.062 151.408 148.79 154.693 149.611L158.173 156.455C158.237 156.644 158.358 156.809 158.52 156.925C158.683 157.041 158.877 157.104 159.077 157.104C159.277 157.104 159.472 157.041 159.634 156.925C159.796 156.809 159.918 156.644 159.982 156.455L163.456 149.615C167.368 148.637 170.84 146.38 173.321 143.201C175.802 140.023 177.15 136.107 177.15 132.075Z" fill="#023788"/>
<path d="M167.824 129.847L159.471 122.783C159.365 122.694 159.23 122.646 159.092 122.646C158.953 122.646 158.819 122.694 158.712 122.783L150.331 129.818C150.286 129.856 150.253 129.907 150.238 129.964C150.223 130.021 150.226 130.082 150.246 130.137C150.267 130.192 150.303 130.24 150.352 130.274C150.4 130.307 150.458 130.325 150.517 130.324H151.582V138.529C151.582 138.679 151.641 138.822 151.746 138.929C151.852 139.035 151.995 139.096 152.145 139.097H156.612C156.73 139.091 156.842 139.041 156.926 138.958C157.01 138.874 157.06 138.762 157.066 138.643V133.541C157.066 133.394 157.124 133.254 157.228 133.15C157.332 133.046 157.472 132.988 157.619 132.988H160.531C160.603 132.988 160.675 133.002 160.742 133.03C160.81 133.058 160.871 133.098 160.922 133.15C160.974 133.201 161.014 133.262 161.042 133.329C161.07 133.397 161.084 133.469 161.084 133.541V138.643C161.09 138.762 161.14 138.874 161.223 138.958C161.307 139.041 161.419 139.091 161.538 139.097H166.005C166.154 139.097 166.298 139.038 166.403 138.932C166.509 138.826 166.568 138.683 166.568 138.534V130.329H167.633C167.686 130.324 167.737 130.304 167.78 130.272C167.823 130.24 167.856 130.196 167.876 130.147C167.895 130.097 167.901 130.042 167.892 129.989C167.883 129.937 167.859 129.887 167.824 129.847Z" fill="url(#paint146_linear_1372_4845)"/>
<path d="M276.354 77.0002H231.89C230.859 77.0002 229.87 77.4094 229.141 78.1379C228.412 78.8663 228.001 79.8545 228 80.8853V86.9612C228 87.9928 228.41 88.9823 229.139 89.7117C229.869 90.4412 230.858 90.8511 231.89 90.8511H269.118L271.505 95.5285C271.573 95.6988 271.691 95.8447 271.844 95.9475C271.996 96.0503 272.175 96.1052 272.359 96.1052C272.543 96.1052 272.722 96.0503 272.874 95.9475C273.027 95.8447 273.145 95.6988 273.213 95.5285L275.6 90.8511H276.397C276.907 90.8511 277.413 90.7504 277.885 90.5549C278.356 90.3593 278.785 90.0727 279.146 89.7115C279.506 89.3502 279.793 88.9213 279.987 88.4494C280.182 87.9775 280.282 87.4718 280.282 86.9612V80.8853C280.282 80.3715 280.18 79.8628 279.982 79.3886C279.784 78.9144 279.494 78.4842 279.129 78.1229C278.763 77.7615 278.33 77.4763 277.854 77.2836C277.377 77.0909 276.868 76.9946 276.354 77.0002Z" fill="#36D859"/>
<path d="M240.753 83.5919C240.812 83.5334 240.854 83.4595 240.874 83.3785C240.894 83.2975 240.891 83.2126 240.865 83.1332C240.839 83.0539 240.792 82.9834 240.728 82.9295C240.665 82.8756 240.587 82.8405 240.505 82.8282L238.958 82.6039C238.886 82.5938 238.818 82.5664 238.759 82.524C238.7 82.4816 238.652 82.4254 238.619 82.3605L237.927 80.9572C237.89 80.8829 237.833 80.8204 237.762 80.7767C237.691 80.7331 237.61 80.71 237.526 80.71C237.443 80.71 237.362 80.7331 237.291 80.7767C237.22 80.8204 237.163 80.8829 237.126 80.9572L236.438 82.3605C236.404 82.424 236.356 82.479 236.297 82.5212C236.238 82.5633 236.171 82.5916 236.099 82.6039L234.553 82.8282C234.47 82.8405 234.393 82.8756 234.329 82.9295C234.266 82.9834 234.218 83.0539 234.193 83.1332C234.167 83.2126 234.164 83.2975 234.184 83.3785C234.203 83.4595 234.245 83.5334 234.305 83.5919L235.422 84.6801C235.475 84.7297 235.515 84.7922 235.537 84.8615C235.56 84.9308 235.564 85.0047 235.55 85.0762L235.288 86.6178C235.273 86.7004 235.282 86.7855 235.313 86.8635C235.344 86.9414 235.396 87.0091 235.464 87.0588C235.531 87.1086 235.612 87.1383 235.695 87.1447C235.779 87.1511 235.863 87.1339 235.937 87.0951L237.321 86.3649C237.386 86.3336 237.457 86.3174 237.529 86.3174C237.601 86.3174 237.672 86.3336 237.736 86.3649L239.121 87.0951C239.195 87.1339 239.279 87.1511 239.362 87.1447C239.446 87.1383 239.526 87.1086 239.594 87.0588C239.662 87.0091 239.714 86.9414 239.745 86.8635C239.776 86.7855 239.785 86.7004 239.77 86.6178L239.502 85.0762C239.493 85.0047 239.499 84.932 239.521 84.8633C239.544 84.7947 239.581 84.7321 239.631 84.6801L240.753 83.5919Z" fill="white"/>
<path d="M249.048 83.5919C249.108 83.5334 249.15 83.4595 249.169 83.3785C249.189 83.2975 249.186 83.2126 249.16 83.1332C249.134 83.0539 249.087 82.9834 249.023 82.9295C248.96 82.8756 248.882 82.8405 248.8 82.8282L247.253 82.6039C247.182 82.5935 247.115 82.5658 247.056 82.5234C246.998 82.481 246.951 82.4251 246.919 82.3605L246.227 80.9572C246.19 80.8829 246.133 80.8204 246.062 80.7767C245.991 80.7331 245.91 80.71 245.826 80.71C245.743 80.71 245.662 80.7331 245.591 80.7767C245.52 80.8204 245.463 80.8829 245.425 80.9572L244.733 82.3605C244.701 82.4254 244.653 82.4816 244.594 82.524C244.535 82.5664 244.467 82.5938 244.395 82.6039L242.848 82.8282C242.766 82.8405 242.688 82.8756 242.625 82.9295C242.561 82.9834 242.514 83.0539 242.488 83.1332C242.462 83.2126 242.459 83.2975 242.479 83.3785C242.498 83.4595 242.54 83.5334 242.6 83.5919L243.722 84.6801C243.772 84.7321 243.809 84.7947 243.832 84.8633C243.854 84.932 243.86 85.0047 243.85 85.0762L243.583 86.6178C243.568 86.7004 243.577 86.7855 243.608 86.8635C243.639 86.9414 243.691 87.0091 243.759 87.0588C243.827 87.1086 243.907 87.1383 243.99 87.1447C244.074 87.1511 244.158 87.1339 244.232 87.0951L245.616 86.3649C245.681 86.3336 245.752 86.3174 245.824 86.3174C245.896 86.3174 245.967 86.3336 246.032 86.3649L247.416 87.0951C247.49 87.1339 247.574 87.1511 247.658 87.1447C247.741 87.1383 247.821 87.1086 247.889 87.0588C247.957 87.0091 248.009 86.9414 248.04 86.8635C248.071 86.7855 248.08 86.7004 248.065 86.6178L247.802 85.0762C247.788 85.0047 247.793 84.9308 247.816 84.8615C247.838 84.7922 247.878 84.7297 247.931 84.6801L249.048 83.5919Z" fill="white"/>
<path d="M257.343 83.5919C257.403 83.5334 257.445 83.4595 257.465 83.3785C257.484 83.2975 257.481 83.2126 257.455 83.1332C257.43 83.0539 257.382 82.9834 257.319 82.9295C257.255 82.8756 257.178 82.8405 257.095 82.8282L255.549 82.6039C255.477 82.5935 255.41 82.5658 255.352 82.5234C255.293 82.481 255.246 82.4251 255.215 82.3605L254.523 80.9572C254.485 80.8829 254.428 80.8204 254.357 80.7767C254.286 80.7331 254.205 80.71 254.122 80.71C254.038 80.71 253.957 80.7331 253.886 80.7767C253.815 80.8204 253.758 80.8829 253.721 80.9572L253.029 82.3605C252.996 82.4254 252.948 82.4816 252.889 82.524C252.83 82.5664 252.762 82.5938 252.69 82.6039L251.143 82.8282C251.061 82.8413 250.984 82.8768 250.921 82.931C250.858 82.9852 250.812 83.0558 250.786 83.135C250.761 83.2142 250.758 83.2989 250.778 83.3795C250.798 83.4602 250.841 83.5337 250.9 83.5919L252.017 84.6801C252.067 84.7321 252.104 84.7947 252.127 84.8633C252.149 84.932 252.155 85.0047 252.146 85.0762L251.883 86.6178C251.868 86.7004 251.877 86.7855 251.908 86.8635C251.939 86.9414 251.991 87.0091 252.059 87.0588C252.126 87.1086 252.207 87.1383 252.29 87.1447C252.374 87.1511 252.458 87.1339 252.532 87.0951L253.912 86.3649C253.976 86.3336 254.047 86.3174 254.119 86.3174C254.191 86.3174 254.262 86.3336 254.327 86.3649L255.711 87.0951C255.785 87.1339 255.869 87.1511 255.953 87.1447C256.036 87.1383 256.117 87.1086 256.184 87.0588C256.252 87.0091 256.304 86.9414 256.335 86.8635C256.366 86.7855 256.375 86.7004 256.36 86.6178L256.098 85.0762C256.088 85.0047 256.094 84.932 256.116 84.8633C256.139 84.7947 256.176 84.7321 256.226 84.6801L257.343 83.5919Z" fill="white"/>
<path d="M265.639 83.5919C265.698 83.5334 265.74 83.4595 265.76 83.3785C265.78 83.2975 265.776 83.2126 265.751 83.1332C265.725 83.0539 265.678 82.9834 265.614 82.9295C265.55 82.8756 265.473 82.8405 265.39 82.8282L263.849 82.6039C263.777 82.5938 263.708 82.5664 263.649 82.524C263.59 82.4816 263.542 82.4254 263.51 82.3605L262.818 80.9572C262.78 80.8829 262.723 80.8204 262.652 80.7767C262.582 80.7331 262.5 80.71 262.417 80.71C262.334 80.71 262.252 80.7331 262.181 80.7767C262.111 80.8204 262.053 80.8829 262.016 80.9572L261.324 82.3605C261.292 82.4251 261.245 82.481 261.187 82.5234C261.129 82.5658 261.061 82.5935 260.99 82.6039L259.443 82.8282C259.361 82.8405 259.283 82.8756 259.22 82.9295C259.156 82.9834 259.109 83.0539 259.083 83.1332C259.057 83.2126 259.054 83.2975 259.074 83.3785C259.094 83.4595 259.136 83.5334 259.195 83.5919L260.312 84.6801C260.362 84.7321 260.4 84.7947 260.422 84.8633C260.444 84.932 260.451 85.0047 260.441 85.0762L260.178 86.6178C260.163 86.7004 260.172 86.7855 260.203 86.8635C260.234 86.9414 260.287 87.0091 260.354 87.0588C260.422 87.1086 260.502 87.1383 260.586 87.1447C260.669 87.1511 260.753 87.1339 260.827 87.0951L262.207 86.3649C262.272 86.3328 262.344 86.3162 262.417 86.3162C262.49 86.3162 262.561 86.3328 262.627 86.3649L264.006 87.0951C264.081 87.1339 264.164 87.1511 264.248 87.1447C264.332 87.1383 264.412 87.1086 264.48 87.0588C264.547 87.0091 264.599 86.9414 264.631 86.8635C264.662 86.7855 264.67 86.7004 264.655 86.6178L264.393 85.0762C264.383 85.0047 264.389 84.932 264.412 84.8633C264.434 84.7947 264.472 84.7321 264.522 84.6801L265.639 83.5919Z" fill="white"/>
<path d="M273.943 83.5919C274.003 83.5334 274.045 83.4595 274.065 83.3785C274.084 83.2975 274.081 83.2126 274.055 83.1332C274.03 83.0539 273.982 82.9834 273.919 82.9295C273.855 82.8756 273.778 82.8405 273.695 82.8282L272.149 82.6039C272.077 82.5938 272.008 82.5664 271.949 82.524C271.89 82.4816 271.842 82.4254 271.81 82.3605L271.118 80.9572C271.08 80.8829 271.023 80.8204 270.952 80.7767C270.882 80.7331 270.8 80.71 270.717 80.71C270.634 80.71 270.552 80.7331 270.481 80.7767C270.411 80.8204 270.353 80.8829 270.316 80.9572L269.624 82.3605C269.592 82.4251 269.545 82.481 269.487 82.5234C269.429 82.5658 269.361 82.5935 269.29 82.6039L267.743 82.8282C267.661 82.8405 267.584 82.8756 267.52 82.9295C267.456 82.9834 267.409 83.0539 267.383 83.1332C267.357 83.2126 267.354 83.2975 267.374 83.3785C267.394 83.4595 267.436 83.5334 267.495 83.5919L268.612 84.6801C268.664 84.7305 268.703 84.793 268.726 84.8621C268.748 84.9312 268.753 85.0047 268.741 85.0762L268.478 86.6178C268.464 86.7004 268.472 86.7855 268.503 86.8635C268.534 86.9414 268.587 87.0091 268.654 87.0588C268.722 87.1086 268.802 87.1383 268.886 87.1447C268.969 87.1511 269.053 87.1339 269.128 87.0951L270.512 86.3649C270.576 86.3336 270.647 86.3174 270.719 86.3174C270.791 86.3174 270.862 86.3336 270.927 86.3649L272.311 87.0951C272.385 87.1339 272.469 87.1511 272.553 87.1447C272.637 87.1383 272.717 87.1086 272.784 87.0588C272.852 87.0091 272.904 86.9414 272.935 86.8635C272.966 86.7855 272.975 86.7004 272.96 86.6178L272.693 85.0762C272.683 85.0047 272.689 84.932 272.712 84.8633C272.734 84.7947 272.772 84.7321 272.822 84.6801L273.943 83.5919Z" fill="white"/>
<path d="M51.2279 225.272L57.6921 235.079L82.1286 218.973L75.6643 209.165L51.2279 225.272Z" fill="url(#paint147_linear_1372_4845)"/>
<path style="mix-blend-mode:multiply" d="M68.9302 213.614L75.6742 209.171L78.2277 213.046C78.4425 213.395 78.6572 213.743 78.8863 214.091C79.1154 214.44 79.3636 214.774 79.588 215.108L82.1414 218.979L75.3974 223.422C72.8186 220.452 70.644 217.154 68.9302 213.614Z" fill="url(#paint148_linear_1372_4845)"/>
<path d="M54.2064 218.665L26.4504 236.96C24.5005 238.245 23.9616 240.868 25.2469 242.818L30.0143 250.05C31.2996 252 33.9223 252.539 35.8723 251.254L63.6283 232.959C65.5783 231.674 66.1171 229.051 64.8318 227.101L60.0644 219.868C58.7791 217.918 56.1564 217.38 54.2064 218.665Z" fill="url(#paint149_linear_1372_4845)"/>
<path d="M142.093 172.434C146.436 179.024 148.727 186.754 148.677 194.646C148.627 202.538 146.238 210.239 141.812 216.773C137.385 223.307 131.121 228.383 123.81 231.357C116.5 234.331 108.471 235.07 100.741 233.482C93.0096 231.893 85.9233 228.048 80.3778 222.432C74.8322 216.817 71.0764 209.683 69.5852 201.932C68.094 194.182 68.9345 186.164 72.0004 178.891C75.0662 171.618 80.2198 165.418 86.8093 161.075C91.1849 158.189 96.086 156.195 101.233 155.204C106.379 154.214 111.671 154.247 116.804 155.302C121.938 156.356 126.814 158.412 131.153 161.352C135.492 164.292 139.21 168.057 142.093 172.434ZM81.8121 212.158C85.3261 217.491 90.3424 221.661 96.2267 224.143C102.111 226.624 108.599 227.305 114.87 226.099C121.141 224.893 126.914 221.855 131.458 217.368C136.003 212.881 139.114 207.147 140.4 200.892C141.686 194.637 141.088 188.141 138.681 182.225C136.275 176.31 132.168 171.241 126.881 167.659C121.594 164.078 115.363 162.144 108.977 162.104C102.591 162.064 96.3368 163.918 91.0046 167.432C83.8547 172.144 78.8695 179.504 77.1456 187.891C75.4217 196.279 77.1003 205.008 81.8121 212.158Z" fill="url(#paint150_linear_1372_4845)"/>
<path style="mix-blend-mode:soft-light" d="M117.72 225.415C134.856 220.482 144.749 202.591 139.815 185.455C134.882 168.318 116.991 158.425 99.8549 163.359C82.7185 168.292 72.8258 186.183 77.759 203.319C82.6922 220.456 100.583 230.348 117.72 225.415Z" fill="url(#paint151_linear_1372_4845)"/>
<path style="mix-blend-mode:screen" d="M141 194.5C141 176.551 126.449 162 108.5 162C90.5507 162 76 176.551 76 194.5C76 212.449 90.5508 227 108.5 227C126.449 227 141 212.449 141 194.5Z" fill="url(#paint152_linear_1372_4845)"/>
<line x1="-4.37114e-07" y1="275.298" x2="300" y2="275.298" stroke="url(#paint153_linear_1372_4845)" stroke-width="10"/>
<defs>
<linearGradient id="paint0_linear_1372_4845" x1="274.335" y1="181.378" x2="238.734" y2="132.351" gradientUnits="userSpaceOnUse">
<stop stop-color="white"/>
<stop offset="1" stop-color="#CFDAF4"/>
</linearGradient>
<linearGradient id="paint1_linear_1372_4845" x1="265.066" y1="104.249" x2="263.29" y2="123.355" gradientUnits="userSpaceOnUse">
<stop stop-color="#8393CE"/>
<stop offset="1" stop-color="#B5BDE1"/>
</linearGradient>
<linearGradient id="paint2_linear_1372_4845" x1="283.341" y1="118.634" x2="282.749" y2="96.4165" gradientUnits="userSpaceOnUse">
<stop stop-color="#CFDAF4"/>
<stop offset="1" stop-color="#A0AFDE"/>
</linearGradient>
<linearGradient id="paint3_linear_1372_4845" x1="249.105" y1="94.2502" x2="277.547" y2="113.8" gradientUnits="userSpaceOnUse">
<stop stop-color="#CFDAF4"/>
<stop offset="1" stop-color="#A0AFDE"/>
</linearGradient>
<linearGradient id="paint4_linear_1372_4845" x1="295.731" y1="95.1565" x2="280.034" y2="106.12" gradientUnits="userSpaceOnUse">
<stop stop-color="white"/>
<stop offset="1" stop-color="#CFDAF4"/>
</linearGradient>
<linearGradient id="paint5_linear_1372_4845" x1="262.928" y1="114.124" x2="262.928" y2="104.039" gradientUnits="userSpaceOnUse">
<stop stop-color="white"/>
<stop offset="1" stop-color="#CFDAF4"/>
</linearGradient>
<linearGradient id="paint6_linear_1372_4845" x1="283.732" y1="117.394" x2="283.489" y2="102.488" gradientUnits="userSpaceOnUse">
<stop stop-color="white"/>
<stop offset="1" stop-color="#CFDAF4"/>
</linearGradient>
<linearGradient id="paint7_linear_1372_4845" x1="236.204" y1="113.58" x2="236.204" y2="299.019" gradientUnits="userSpaceOnUse">
<stop stop-color="#8393CE"/>
<stop offset="1" stop-color="#B5BDE1"/>
</linearGradient>
<linearGradient id="paint8_linear_1372_4845" x1="289.942" y1="294.548" x2="278.096" y2="0.100763" gradientUnits="userSpaceOnUse">
<stop stop-color="#CFDAF4"/>
<stop offset="1" stop-color="#A0AFDE"/>
</linearGradient>
<linearGradient id="paint9_linear_1372_4845" x1="253.067" y1="182.042" x2="212.631" y2="76.7437" gradientUnits="userSpaceOnUse">
<stop stop-color="#CFDAF4"/>
<stop offset="1" stop-color="#A0AFDE"/>
</linearGradient>
<linearGradient id="paint10_linear_1372_4845" x1="308.838" y1="110.563" x2="273.29" y2="147.295" gradientUnits="userSpaceOnUse">
<stop stop-color="white"/>
<stop offset="1" stop-color="#CFDAF4"/>
</linearGradient>
<linearGradient id="paint11_linear_1372_4845" x1="237.837" y1="153.572" x2="234.877" y2="123.952" gradientUnits="userSpaceOnUse">
<stop stop-color="white"/>
<stop offset="1" stop-color="#CFDAF4"/>
</linearGradient>
<linearGradient id="paint12_linear_1372_4845" x1="288.142" y1="154.689" x2="286.367" y2="131.436" gradientUnits="userSpaceOnUse">
<stop stop-color="white"/>
<stop offset="1" stop-color="#CFDAF4"/>
</linearGradient>
<linearGradient id="paint13_linear_1372_4845" x1="255.425" y1="231.073" x2="255.425" y2="209.147" gradientUnits="userSpaceOnUse">
<stop stop-color="#5B60A3"/>
<stop offset="1" stop-color="#424161"/>
</linearGradient>
<linearGradient id="paint14_linear_1372_4845" x1="249.396" y1="215.304" x2="266.97" y2="205.033" gradientUnits="userSpaceOnUse">
<stop stop-color="white"/>
<stop offset="1" stop-color="#CFDAF4"/>
</linearGradient>
<linearGradient id="paint15_linear_1372_4845" x1="250.466" y1="212.603" x2="249.774" y2="242.328" gradientUnits="userSpaceOnUse">
<stop stop-color="#CFDAF4"/>
<stop offset="1" stop-color="#A0AFDE"/>
</linearGradient>
<linearGradient id="paint16_linear_1372_4845" x1="236.2" y1="231.073" x2="236.2" y2="209.147" gradientUnits="userSpaceOnUse">
<stop stop-color="#5B60A3"/>
<stop offset="1" stop-color="#424161"/>
</linearGradient>
<linearGradient id="paint17_linear_1372_4845" x1="230.171" y1="215.304" x2="247.745" y2="205.033" gradientUnits="userSpaceOnUse">
<stop stop-color="white"/>
<stop offset="1" stop-color="#CFDAF4"/>
</linearGradient>
<linearGradient id="paint18_linear_1372_4845" x1="231.24" y1="212.603" x2="230.548" y2="242.328" gradientUnits="userSpaceOnUse">
<stop stop-color="#CFDAF4"/>
<stop offset="1" stop-color="#A0AFDE"/>
</linearGradient>
<linearGradient id="paint19_linear_1372_4845" x1="216.975" y1="231.073" x2="216.975" y2="209.147" gradientUnits="userSpaceOnUse">
<stop stop-color="#5B60A3"/>
<stop offset="1" stop-color="#424161"/>
</linearGradient>
<linearGradient id="paint20_linear_1372_4845" x1="210.946" y1="215.304" x2="228.52" y2="205.033" gradientUnits="userSpaceOnUse">
<stop stop-color="white"/>
<stop offset="1" stop-color="#CFDAF4"/>
</linearGradient>
<linearGradient id="paint21_linear_1372_4845" x1="212.015" y1="212.603" x2="211.323" y2="242.328" gradientUnits="userSpaceOnUse">
<stop stop-color="#CFDAF4"/>
<stop offset="1" stop-color="#A0AFDE"/>
</linearGradient>
<linearGradient id="paint22_linear_1372_4845" x1="255.425" y1="198.852" x2="255.425" y2="176.93" gradientUnits="userSpaceOnUse">
<stop stop-color="#5B60A3"/>
<stop offset="1" stop-color="#424161"/>
</linearGradient>
<linearGradient id="paint23_linear_1372_4845" x1="249.396" y1="183.078" x2="266.97" y2="172.807" gradientUnits="userSpaceOnUse">
<stop stop-color="white"/>
<stop offset="1" stop-color="#CFDAF4"/>
</linearGradient>
<linearGradient id="paint24_linear_1372_4845" x1="250.466" y1="180.382" x2="249.774" y2="210.102" gradientUnits="userSpaceOnUse">
<stop stop-color="#CFDAF4"/>
<stop offset="1" stop-color="#A0AFDE"/>
</linearGradient>
<linearGradient id="paint25_linear_1372_4845" x1="236.2" y1="198.852" x2="236.2" y2="176.93" gradientUnits="userSpaceOnUse">
<stop stop-color="#5B60A3"/>
<stop offset="1" stop-color="#424161"/>
</linearGradient>
<linearGradient id="paint26_linear_1372_4845" x1="230.171" y1="183.078" x2="247.745" y2="172.807" gradientUnits="userSpaceOnUse">
<stop stop-color="white"/>
<stop offset="1" stop-color="#CFDAF4"/>
</linearGradient>
<linearGradient id="paint27_linear_1372_4845" x1="231.24" y1="180.382" x2="230.548" y2="210.102" gradientUnits="userSpaceOnUse">
<stop stop-color="#CFDAF4"/>
<stop offset="1" stop-color="#A0AFDE"/>
</linearGradient>
<linearGradient id="paint28_linear_1372_4845" x1="216.975" y1="198.852" x2="216.975" y2="176.93" gradientUnits="userSpaceOnUse">
<stop stop-color="#5B60A3"/>
<stop offset="1" stop-color="#424161"/>
</linearGradient>
<linearGradient id="paint29_linear_1372_4845" x1="210.946" y1="183.078" x2="228.52" y2="172.807" gradientUnits="userSpaceOnUse">
<stop stop-color="white"/>
<stop offset="1" stop-color="#CFDAF4"/>
</linearGradient>
<linearGradient id="paint30_linear_1372_4845" x1="212.015" y1="180.382" x2="211.323" y2="210.102" gradientUnits="userSpaceOnUse">
<stop stop-color="#CFDAF4"/>
<stop offset="1" stop-color="#A0AFDE"/>
</linearGradient>
<linearGradient id="paint31_linear_1372_4845" x1="255.425" y1="166.621" x2="255.425" y2="144.7" gradientUnits="userSpaceOnUse">
<stop stop-color="#5B60A3"/>
<stop offset="1" stop-color="#424161"/>
</linearGradient>
<linearGradient id="paint32_linear_1372_4845" x1="249.396" y1="150.851" x2="266.97" y2="140.584" gradientUnits="userSpaceOnUse">
<stop stop-color="white"/>
<stop offset="1" stop-color="#CFDAF4"/>
</linearGradient>
<linearGradient id="paint33_linear_1372_4845" x1="250.466" y1="148.154" x2="249.774" y2="177.875" gradientUnits="userSpaceOnUse">
<stop stop-color="#CFDAF4"/>
<stop offset="1" stop-color="#A0AFDE"/>
</linearGradient>
<linearGradient id="paint34_linear_1372_4845" x1="236.2" y1="166.621" x2="236.2" y2="144.7" gradientUnits="userSpaceOnUse">
<stop stop-color="#5B60A3"/>
<stop offset="1" stop-color="#424161"/>
</linearGradient>
<linearGradient id="paint35_linear_1372_4845" x1="230.171" y1="150.851" x2="247.745" y2="140.584" gradientUnits="userSpaceOnUse">
<stop stop-color="white"/>
<stop offset="1" stop-color="#CFDAF4"/>
</linearGradient>
<linearGradient id="paint36_linear_1372_4845" x1="231.24" y1="148.154" x2="230.548" y2="177.875" gradientUnits="userSpaceOnUse">
<stop stop-color="#CFDAF4"/>
<stop offset="1" stop-color="#A0AFDE"/>
</linearGradient>
<linearGradient id="paint37_linear_1372_4845" x1="216.975" y1="166.621" x2="216.975" y2="144.7" gradientUnits="userSpaceOnUse">
<stop stop-color="#5B60A3"/>
<stop offset="1" stop-color="#424161"/>
</linearGradient>
<linearGradient id="paint38_linear_1372_4845" x1="210.946" y1="150.851" x2="228.52" y2="140.584" gradientUnits="userSpaceOnUse">
<stop stop-color="white"/>
<stop offset="1" stop-color="#CFDAF4"/>
</linearGradient>
<linearGradient id="paint39_linear_1372_4845" x1="212.015" y1="148.154" x2="211.323" y2="177.875" gradientUnits="userSpaceOnUse">
<stop stop-color="#CFDAF4"/>
<stop offset="1" stop-color="#A0AFDE"/>
</linearGradient>
<linearGradient id="paint40_linear_1372_4845" x1="255.425" y1="263.3" x2="255.425" y2="241.379" gradientUnits="userSpaceOnUse">
<stop stop-color="#5B60A3"/>
<stop offset="1" stop-color="#424161"/>
</linearGradient>
<linearGradient id="paint41_linear_1372_4845" x1="249.396" y1="247.53" x2="266.97" y2="237.259" gradientUnits="userSpaceOnUse">
<stop stop-color="white"/>
<stop offset="1" stop-color="#CFDAF4"/>
</linearGradient>
<linearGradient id="paint42_linear_1372_4845" x1="250.466" y1="244.828" x2="249.774" y2="274.549" gradientUnits="userSpaceOnUse">
<stop stop-color="#CFDAF4"/>
<stop offset="1" stop-color="#A0AFDE"/>
</linearGradient>
<linearGradient id="paint43_linear_1372_4845" x1="236.2" y1="263.3" x2="236.2" y2="241.379" gradientUnits="userSpaceOnUse">
<stop stop-color="#5B60A3"/>
<stop offset="1" stop-color="#424161"/>
</linearGradient>
<linearGradient id="paint44_linear_1372_4845" x1="230.171" y1="247.53" x2="247.745" y2="237.259" gradientUnits="userSpaceOnUse">
<stop stop-color="white"/>
<stop offset="1" stop-color="#CFDAF4"/>
</linearGradient>
<linearGradient id="paint45_linear_1372_4845" x1="231.24" y1="244.828" x2="230.548" y2="274.549" gradientUnits="userSpaceOnUse">
<stop stop-color="#CFDAF4"/>
<stop offset="1" stop-color="#A0AFDE"/>
</linearGradient>
<linearGradient id="paint46_linear_1372_4845" x1="216.975" y1="263.3" x2="216.975" y2="241.379" gradientUnits="userSpaceOnUse">
<stop stop-color="#5B60A3"/>
<stop offset="1" stop-color="#424161"/>
</linearGradient>
<linearGradient id="paint47_linear_1372_4845" x1="210.946" y1="247.53" x2="228.52" y2="237.259" gradientUnits="userSpaceOnUse">
<stop stop-color="white"/>
<stop offset="1" stop-color="#CFDAF4"/>
</linearGradient>
<linearGradient id="paint48_linear_1372_4845" x1="212.015" y1="244.828" x2="211.323" y2="274.549" gradientUnits="userSpaceOnUse">
<stop stop-color="#CFDAF4"/>
<stop offset="1" stop-color="#A0AFDE"/>
</linearGradient>
<linearGradient id="paint49_linear_1372_4845" x1="281.05" y1="296.81" x2="281.05" y2="132.495" gradientUnits="userSpaceOnUse">
<stop stop-color="#5B60A3"/>
<stop offset="1" stop-color="#424161"/>
</linearGradient>
<linearGradient id="paint50_linear_1372_4845" x1="277.518" y1="149.395" x2="288.19" y2="143.157" gradientUnits="userSpaceOnUse">
<stop stop-color="white"/>
<stop offset="1" stop-color="#CFDAF4"/>
</linearGradient>
<linearGradient id="paint51_linear_1372_4845" x1="282.597" y1="262.13" x2="271.571" y2="160.697" gradientUnits="userSpaceOnUse">
<stop stop-color="white"/>
<stop offset="1" stop-color="#CFDAF4"/>
</linearGradient>
<linearGradient id="paint52_linear_1372_4845" x1="292.309" y1="296.81" x2="292.309" y2="132.495" gradientUnits="userSpaceOnUse">
<stop stop-color="#5B60A3"/>
<stop offset="1" stop-color="#424161"/>
</linearGradient>
<linearGradient id="paint53_linear_1372_4845" x1="288.773" y1="149.395" x2="299.45" y2="143.157" gradientUnits="userSpaceOnUse">
<stop stop-color="white"/>
<stop offset="1" stop-color="#CFDAF4"/>
</linearGradient>
<linearGradient id="paint54_linear_1372_4845" x1="293.851" y1="262.13" x2="282.826" y2="160.697" gradientUnits="userSpaceOnUse">
<stop stop-color="white"/>
<stop offset="1" stop-color="#CFDAF4"/>
</linearGradient>
<linearGradient id="paint55_linear_1372_4845" x1="238.915" y1="119.899" x2="238.915" y2="139.453" gradientUnits="userSpaceOnUse">
<stop stop-color="#334FA8"/>
<stop offset="1" stop-color="#429F56"/>
</linearGradient>
<linearGradient id="paint56_linear_1372_4845" x1="232.043" y1="119.899" x2="232.043" y2="139.453" gradientUnits="userSpaceOnUse">
<stop stop-color="#334FA8"/>
<stop offset="1" stop-color="#429F56"/>
</linearGradient>
<linearGradient id="paint57_linear_1372_4845" x1="225.17" y1="119.899" x2="225.17" y2="139.453" gradientUnits="userSpaceOnUse">
<stop stop-color="#334FA8"/>
<stop offset="1" stop-color="#429F56"/>
</linearGradient>
<linearGradient id="paint58_linear_1372_4845" x1="218.301" y1="119.899" x2="218.301" y2="139.453" gradientUnits="userSpaceOnUse">
<stop stop-color="#334FA8"/>
<stop offset="1" stop-color="#429F56"/>
</linearGradient>
<linearGradient id="paint59_linear_1372_4845" x1="211.429" y1="119.899" x2="211.429" y2="139.453" gradientUnits="userSpaceOnUse">
<stop stop-color="#334FA8"/>
<stop offset="1" stop-color="#429F56"/>
</linearGradient>
<linearGradient id="paint60_linear_1372_4845" x1="266.264" y1="119.899" x2="266.264" y2="139.453" gradientUnits="userSpaceOnUse">
<stop stop-color="#334FA8"/>
<stop offset="1" stop-color="#429F56"/>
</linearGradient>
<linearGradient id="paint61_linear_1372_4845" x1="259.396" y1="119.899" x2="259.396" y2="139.453" gradientUnits="userSpaceOnUse">
<stop stop-color="#334FA8"/>
<stop offset="1" stop-color="#429F56"/>
</linearGradient>
<linearGradient id="paint62_linear_1372_4845" x1="252.523" y1="119.899" x2="252.523" y2="139.453" gradientUnits="userSpaceOnUse">
<stop stop-color="#334FA8"/>
<stop offset="1" stop-color="#429F56"/>
</linearGradient>
<linearGradient id="paint63_linear_1372_4845" x1="245.65" y1="119.899" x2="245.65" y2="139.453" gradientUnits="userSpaceOnUse">
<stop stop-color="#334FA8"/>
<stop offset="1" stop-color="#429F56"/>
</linearGradient>
<linearGradient id="paint64_linear_1372_4845" x1="293.617" y1="119.899" x2="293.617" y2="139.453" gradientUnits="userSpaceOnUse">
<stop stop-color="#334FA8"/>
<stop offset="1" stop-color="#429F56"/>
</linearGradient>
<linearGradient id="paint65_linear_1372_4845" x1="286.744" y1="119.899" x2="286.744" y2="139.453" gradientUnits="userSpaceOnUse">
<stop stop-color="#334FA8"/>
<stop offset="1" stop-color="#429F56"/>
</linearGradient>
<linearGradient id="paint66_linear_1372_4845" x1="279.871" y1="119.899" x2="279.871" y2="139.453" gradientUnits="userSpaceOnUse">
<stop stop-color="#334FA8"/>
<stop offset="1" stop-color="#429F56"/>
</linearGradient>
<linearGradient id="paint67_linear_1372_4845" x1="273.003" y1="119.899" x2="273.003" y2="139.453" gradientUnits="userSpaceOnUse">
<stop stop-color="#334FA8"/>
<stop offset="1" stop-color="#429F56"/>
</linearGradient>
<linearGradient id="paint68_linear_1372_4845" x1="204.555" y1="119.899" x2="204.555" y2="139.453" gradientUnits="userSpaceOnUse">
<stop stop-color="#334FA8"/>
<stop offset="1" stop-color="#429F56"/>
</linearGradient>
<linearGradient id="paint69_linear_1372_4845" x1="252.518" y1="116.802" x2="252.518" y2="124.219" gradientUnits="userSpaceOnUse">
<stop stop-color="#429F56"/>
<stop offset="1" stop-color="#FADB81"/>
</linearGradient>
<linearGradient id="paint70_linear_1372_4845" x1="137.426" y1="319.748" x2="135.65" y2="111.78" gradientUnits="userSpaceOnUse">
<stop stop-color="#CFDAF4"/>
<stop offset="1" stop-color="#A0AFDE"/>
</linearGradient>
<linearGradient id="paint71_linear_1372_4845" x1="188.729" y1="330.11" x2="185.173" y2="186.6" gradientUnits="userSpaceOnUse">
<stop stop-color="white"/>
<stop offset="1" stop-color="#CFDAF4"/>
</linearGradient>
<linearGradient id="paint72_linear_1372_4845" x1="138.356" y1="197.348" x2="145.859" y2="182.505" gradientUnits="userSpaceOnUse">
<stop stop-color="white"/>
<stop offset="0.19" stop-color="#EBF0FA"/>
<stop offset="0.4" stop-color="#DBE3F7"/>
<stop offset="0.65" stop-color="#D2DCF5"/>
<stop offset="1" stop-color="#CFDAF4"/>
</linearGradient>
<linearGradient id="paint73_linear_1372_4845" x1="127.947" y1="198.513" x2="137.893" y2="178.82" gradientUnits="userSpaceOnUse">
<stop stop-color="white"/>
<stop offset="0.19" stop-color="#EBF0FA"/>
<stop offset="0.4" stop-color="#DBE3F7"/>
<stop offset="0.65" stop-color="#D2DCF5"/>
<stop offset="1" stop-color="#CFDAF4"/>
</linearGradient>
<linearGradient id="paint74_linear_1372_4845" x1="138.528" y1="210.139" x2="147.658" y2="192.065" gradientUnits="userSpaceOnUse">
<stop stop-color="white"/>
<stop offset="0.19" stop-color="#EBF0FA"/>
<stop offset="0.4" stop-color="#DBE3F7"/>
<stop offset="0.65" stop-color="#D2DCF5"/>
<stop offset="1" stop-color="#CFDAF4"/>
</linearGradient>
<linearGradient id="paint75_linear_1372_4845" x1="138.738" y1="221.728" x2="147.362" y2="204.66" gradientUnits="userSpaceOnUse">
<stop stop-color="white"/>
<stop offset="0.19" stop-color="#EBF0FA"/>
<stop offset="0.4" stop-color="#DBE3F7"/>
<stop offset="0.65" stop-color="#D2DCF5"/>
<stop offset="1" stop-color="#CFDAF4"/>
</linearGradient>
<linearGradient id="paint76_linear_1372_4845" x1="126.605" y1="210.139" x2="135.736" y2="192.065" gradientUnits="userSpaceOnUse">
<stop stop-color="white"/>
<stop offset="0.19" stop-color="#EBF0FA"/>
<stop offset="0.4" stop-color="#DBE3F7"/>
<stop offset="0.65" stop-color="#D2DCF5"/>
<stop offset="1" stop-color="#CFDAF4"/>
</linearGradient>
<linearGradient id="paint77_linear_1372_4845" x1="126.815" y1="221.728" x2="135.44" y2="204.66" gradientUnits="userSpaceOnUse">
<stop stop-color="white"/>
<stop offset="0.19" stop-color="#EBF0FA"/>
<stop offset="0.4" stop-color="#DBE3F7"/>
<stop offset="0.65" stop-color="#D2DCF5"/>
<stop offset="1" stop-color="#CFDAF4"/>
</linearGradient>
<linearGradient id="paint78_linear_1372_4845" x1="133.12" y1="174.238" x2="137.144" y2="180.624" gradientUnits="userSpaceOnUse">
<stop stop-color="#CFDAF4"/>
<stop offset="1" stop-color="#A0AFDE"/>
</linearGradient>
<linearGradient id="paint79_linear_1372_4845" x1="124.2" y1="179.856" x2="128.219" y2="186.242" gradientUnits="userSpaceOnUse">
<stop stop-color="#CFDAF4"/>
<stop offset="1" stop-color="#A0AFDE"/>
</linearGradient>
<linearGradient id="paint80_linear_1372_4845" x1="115.184" y1="185.535" x2="119.203" y2="191.917" gradientUnits="userSpaceOnUse">
<stop stop-color="#CFDAF4"/>
<stop offset="1" stop-color="#A0AFDE"/>
</linearGradient>
<linearGradient id="paint81_linear_1372_4845" x1="109.771" y1="188.943" x2="113.795" y2="195.325" gradientUnits="userSpaceOnUse">
<stop stop-color="#CFDAF4"/>
<stop offset="1" stop-color="#A0AFDE"/>
</linearGradient>
<linearGradient id="paint82_linear_1372_4845" x1="126.195" y1="245.678" x2="133.698" y2="230.829" gradientUnits="userSpaceOnUse">
<stop stop-color="white"/>
<stop offset="0.19" stop-color="#EBF0FA"/>
<stop offset="0.4" stop-color="#DBE3F7"/>
<stop offset="0.65" stop-color="#D2DCF5"/>
<stop offset="1" stop-color="#CFDAF4"/>
</linearGradient>
<linearGradient id="paint83_linear_1372_4845" x1="115.785" y1="246.838" x2="125.732" y2="227.15" gradientUnits="userSpaceOnUse">
<stop stop-color="white"/>
<stop offset="0.19" stop-color="#EBF0FA"/>
<stop offset="0.4" stop-color="#DBE3F7"/>
<stop offset="0.65" stop-color="#D2DCF5"/>
<stop offset="1" stop-color="#CFDAF4"/>
</linearGradient>
<linearGradient id="paint84_linear_1372_4845" x1="126.371" y1="258.465" x2="135.502" y2="240.395" gradientUnits="userSpaceOnUse">
<stop stop-color="white"/>
<stop offset="0.19" stop-color="#EBF0FA"/>
<stop offset="0.4" stop-color="#DBE3F7"/>
<stop offset="0.65" stop-color="#D2DCF5"/>
<stop offset="1" stop-color="#CFDAF4"/>
</linearGradient>
<linearGradient id="paint85_linear_1372_4845" x1="114.449" y1="258.465" x2="123.58" y2="240.395" gradientUnits="userSpaceOnUse">
<stop stop-color="white"/>
<stop offset="0.19" stop-color="#EBF0FA"/>
<stop offset="0.4" stop-color="#DBE3F7"/>
<stop offset="0.65" stop-color="#D2DCF5"/>
<stop offset="1" stop-color="#CFDAF4"/>
</linearGradient>
<linearGradient id="paint86_linear_1372_4845" x1="120.964" y1="222.568" x2="124.983" y2="228.95" gradientUnits="userSpaceOnUse">
<stop stop-color="#CFDAF4"/>
<stop offset="1" stop-color="#A0AFDE"/>
</linearGradient>
<linearGradient id="paint87_linear_1372_4845" x1="112.039" y1="228.186" x2="116.062" y2="234.567" gradientUnits="userSpaceOnUse">
<stop stop-color="#CFDAF4"/>
<stop offset="1" stop-color="#A0AFDE"/>
</linearGradient>
<linearGradient id="paint88_linear_1372_4845" x1="103.028" y1="233.861" x2="107.046" y2="240.247" gradientUnits="userSpaceOnUse">
<stop stop-color="#CFDAF4"/>
<stop offset="1" stop-color="#A0AFDE"/>
</linearGradient>
<linearGradient id="paint89_linear_1372_4845" x1="153.157" y1="245.678" x2="160.66" y2="230.829" gradientUnits="userSpaceOnUse">
<stop stop-color="white"/>
<stop offset="0.19" stop-color="#EBF0FA"/>
<stop offset="0.4" stop-color="#DBE3F7"/>
<stop offset="0.65" stop-color="#D2DCF5"/>
<stop offset="1" stop-color="#CFDAF4"/>
</linearGradient>
<linearGradient id="paint90_linear_1372_4845" x1="142.747" y1="246.838" x2="152.694" y2="227.15" gradientUnits="userSpaceOnUse">
<stop stop-color="white"/>
<stop offset="0.19" stop-color="#EBF0FA"/>
<stop offset="0.4" stop-color="#DBE3F7"/>
<stop offset="0.65" stop-color="#D2DCF5"/>
<stop offset="1" stop-color="#CFDAF4"/>
</linearGradient>
<linearGradient id="paint91_linear_1372_4845" x1="153.333" y1="258.465" x2="162.464" y2="240.395" gradientUnits="userSpaceOnUse">
<stop stop-color="white"/>
<stop offset="0.19" stop-color="#EBF0FA"/>
<stop offset="0.4" stop-color="#DBE3F7"/>
<stop offset="0.65" stop-color="#D2DCF5"/>
<stop offset="1" stop-color="#CFDAF4"/>
</linearGradient>
<linearGradient id="paint92_linear_1372_4845" x1="141.411" y1="258.465" x2="150.541" y2="240.395" gradientUnits="userSpaceOnUse">
<stop stop-color="white"/>
<stop offset="0.19" stop-color="#EBF0FA"/>
<stop offset="0.4" stop-color="#DBE3F7"/>
<stop offset="0.65" stop-color="#D2DCF5"/>
<stop offset="1" stop-color="#CFDAF4"/>
</linearGradient>
<linearGradient id="paint93_linear_1372_4845" x1="147.926" y1="222.568" x2="151.944" y2="228.95" gradientUnits="userSpaceOnUse">
<stop stop-color="#CFDAF4"/>
<stop offset="1" stop-color="#A0AFDE"/>
</linearGradient>
<linearGradient id="paint94_linear_1372_4845" x1="139.005" y1="228.186" x2="143.024" y2="234.567" gradientUnits="userSpaceOnUse">
<stop stop-color="#CFDAF4"/>
<stop offset="1" stop-color="#A0AFDE"/>
</linearGradient>
<linearGradient id="paint95_linear_1372_4845" x1="129.989" y1="233.861" x2="134.008" y2="240.247" gradientUnits="userSpaceOnUse">
<stop stop-color="#CFDAF4"/>
<stop offset="1" stop-color="#A0AFDE"/>
</linearGradient>
<linearGradient id="paint96_linear_1372_4845" x1="126.195" y1="285.37" x2="133.698" y2="270.526" gradientUnits="userSpaceOnUse">
<stop stop-color="white"/>
<stop offset="0.19" stop-color="#EBF0FA"/>
<stop offset="0.4" stop-color="#DBE3F7"/>
<stop offset="0.65" stop-color="#D2DCF5"/>
<stop offset="1" stop-color="#CFDAF4"/>
</linearGradient>
<linearGradient id="paint97_linear_1372_4845" x1="115.785" y1="286.533" x2="125.732" y2="266.841" gradientUnits="userSpaceOnUse">
<stop stop-color="white"/>
<stop offset="0.19" stop-color="#EBF0FA"/>
<stop offset="0.4" stop-color="#DBE3F7"/>
<stop offset="0.65" stop-color="#D2DCF5"/>
<stop offset="1" stop-color="#CFDAF4"/>
</linearGradient>
<linearGradient id="paint98_linear_1372_4845" x1="120.964" y1="262.259" x2="124.983" y2="268.64" gradientUnits="userSpaceOnUse">
<stop stop-color="#CFDAF4"/>
<stop offset="1" stop-color="#A0AFDE"/>
</linearGradient>
<linearGradient id="paint99_linear_1372_4845" x1="112.039" y1="267.877" x2="116.062" y2="274.258" gradientUnits="userSpaceOnUse">
<stop stop-color="#CFDAF4"/>
<stop offset="1" stop-color="#A0AFDE"/>
</linearGradient>
<linearGradient id="paint100_linear_1372_4845" x1="153.157" y1="285.37" x2="160.66" y2="270.526" gradientUnits="userSpaceOnUse">
<stop stop-color="white"/>
<stop offset="0.19" stop-color="#EBF0FA"/>
<stop offset="0.4" stop-color="#DBE3F7"/>
<stop offset="0.65" stop-color="#D2DCF5"/>
<stop offset="1" stop-color="#CFDAF4"/>
</linearGradient>
<linearGradient id="paint101_linear_1372_4845" x1="142.747" y1="286.533" x2="152.694" y2="266.841" gradientUnits="userSpaceOnUse">
<stop stop-color="white"/>
<stop offset="0.19" stop-color="#EBF0FA"/>
<stop offset="0.4" stop-color="#DBE3F7"/>
<stop offset="0.65" stop-color="#D2DCF5"/>
<stop offset="1" stop-color="#CFDAF4"/>
</linearGradient>
<linearGradient id="paint102_linear_1372_4845" x1="147.926" y1="262.259" x2="151.944" y2="268.64" gradientUnits="userSpaceOnUse">
<stop stop-color="#CFDAF4"/>
<stop offset="1" stop-color="#A0AFDE"/>
</linearGradient>
<linearGradient id="paint103_linear_1372_4845" x1="139.005" y1="267.877" x2="143.024" y2="274.258" gradientUnits="userSpaceOnUse">
<stop stop-color="#CFDAF4"/>
<stop offset="1" stop-color="#A0AFDE"/>
</linearGradient>
<linearGradient id="paint104_linear_1372_4845" x1="181.321" y1="236.2" x2="180.185" y2="206.856" gradientUnits="userSpaceOnUse">
<stop stop-color="#CFDAF4"/>
<stop offset="1" stop-color="#A0AFDE"/>
</linearGradient>
<linearGradient id="paint105_linear_1372_4845" x1="175.499" y1="209.375" x2="189.76" y2="201.047" gradientUnits="userSpaceOnUse">
<stop stop-color="white"/>
<stop offset="1" stop-color="#CFDAF4"/>
</linearGradient>
<linearGradient id="paint106_linear_1372_4845" x1="192.375" y1="236.2" x2="191.239" y2="206.856" gradientUnits="userSpaceOnUse">
<stop stop-color="#CFDAF4"/>
<stop offset="1" stop-color="#A0AFDE"/>
</linearGradient>
<linearGradient id="paint107_linear_1372_4845" x1="185.903" y1="209.752" x2="201.224" y2="200.803" gradientUnits="userSpaceOnUse">
<stop stop-color="white"/>
<stop offset="1" stop-color="#CFDAF4"/>
</linearGradient>
<linearGradient id="paint108_linear_1372_4845" x1="181.321" y1="250.494" x2="180.185" y2="221.15" gradientUnits="userSpaceOnUse">
<stop stop-color="#CFDAF4"/>
<stop offset="1" stop-color="#A0AFDE"/>
</linearGradient>
<linearGradient id="paint109_linear_1372_4845" x1="192.375" y1="250.494" x2="191.239" y2="221.15" gradientUnits="userSpaceOnUse">
<stop stop-color="#CFDAF4"/>
<stop offset="1" stop-color="#A0AFDE"/>
</linearGradient>
<linearGradient id="paint110_linear_1372_4845" x1="181.321" y1="285.775" x2="180.185" y2="256.431" gradientUnits="userSpaceOnUse">
<stop stop-color="#CFDAF4"/>
<stop offset="1" stop-color="#A0AFDE"/>
</linearGradient>
<linearGradient id="paint111_linear_1372_4845" x1="175.499" y1="258.951" x2="189.76" y2="250.622" gradientUnits="userSpaceOnUse">
<stop stop-color="white"/>
<stop offset="1" stop-color="#CFDAF4"/>
</linearGradient>
<linearGradient id="paint112_linear_1372_4845" x1="192.375" y1="285.775" x2="191.239" y2="256.431" gradientUnits="userSpaceOnUse">
<stop stop-color="#CFDAF4"/>
<stop offset="1" stop-color="#A0AFDE"/>
</linearGradient>
<linearGradient id="paint113_linear_1372_4845" x1="185.903" y1="259.333" x2="201.224" y2="250.379" gradientUnits="userSpaceOnUse">
<stop stop-color="white"/>
<stop offset="1" stop-color="#CFDAF4"/>
</linearGradient>
<linearGradient id="paint114_linear_1372_4845" x1="181.321" y1="300.074" x2="180.185" y2="270.731" gradientUnits="userSpaceOnUse">
<stop stop-color="#CFDAF4"/>
<stop offset="1" stop-color="#A0AFDE"/>
</linearGradient>
<linearGradient id="paint115_linear_1372_4845" x1="192.375" y1="300.074" x2="191.239" y2="270.731" gradientUnits="userSpaceOnUse">
<stop stop-color="#CFDAF4"/>
<stop offset="1" stop-color="#A0AFDE"/>
</linearGradient>
<linearGradient id="paint116_linear_1372_4845" x1="185.159" y1="221.037" x2="187.135" y2="192.6" gradientUnits="userSpaceOnUse">
<stop stop-color="white"/>
<stop offset="1" stop-color="#CFDAF4"/>
</linearGradient>
<linearGradient id="paint117_linear_1372_4845" x1="136.223" y1="207.356" x2="138.986" y2="158.578" gradientUnits="userSpaceOnUse">
<stop stop-color="white"/>
<stop offset="1" stop-color="#CFDAF4"/>
</linearGradient>
<linearGradient id="paint118_linear_1372_4845" x1="163.746" y1="161.404" x2="163.746" y2="219.642" gradientUnits="userSpaceOnUse">
<stop stop-color="#424161"/>
<stop offset="1" stop-color="#5B60A3"/>
</linearGradient>
<linearGradient id="paint119_linear_1372_4845" x1="175.413" y1="198.375" x2="216.884" y2="180.009" gradientUnits="userSpaceOnUse">
<stop stop-color="#8393CE"/>
<stop offset="1" stop-color="#5B60A3"/>
</linearGradient>
<linearGradient id="paint120_linear_1372_4845" x1="99.2284" y1="193.239" x2="168.984" y2="173.689" gradientUnits="userSpaceOnUse">
<stop stop-color="#8393CE"/>
<stop offset="1" stop-color="#5B60A3"/>
</linearGradient>
<linearGradient id="paint121_linear_1372_4845" x1="27.0208" y1="158.659" x2="-0.151015" y2="204.359" gradientUnits="userSpaceOnUse">
<stop stop-color="white"/>
<stop offset="1" stop-color="#CFDAF4"/>
</linearGradient>
<linearGradient id="paint122_linear_1372_4845" x1="103.926" y1="125.66" x2="10.6736" y2="209.958" gradientUnits="userSpaceOnUse">
<stop stop-color="#CFDAF4"/>
<stop offset="1" stop-color="#A0AFDE"/>
</linearGradient>
<linearGradient id="paint123_linear_1372_4845" x1="19.518" y1="329.07" x2="19.518" y2="194.9" gradientUnits="userSpaceOnUse">
<stop stop-color="white"/>
<stop offset="1" stop-color="#CFDAF4"/>
</linearGradient>
<linearGradient id="paint124_linear_1372_4845" x1="64.8169" y1="138.929" x2="72.7398" y2="287.465" gradientUnits="userSpaceOnUse">
<stop stop-color="#8393CE"/>
<stop offset="1" stop-color="#B5BDE1"/>
</linearGradient>
<linearGradient id="paint125_linear_1372_4845" x1="14.4061" y1="180.276" x2="111.982" y2="111.728" gradientUnits="userSpaceOnUse">
<stop stop-color="#424161"/>
<stop offset="1" stop-color="#5B60A3"/>
</linearGradient>
<linearGradient id="paint126_linear_1372_4845" x1="19.518" y1="186.548" x2="19.518" y2="175.274" gradientUnits="userSpaceOnUse">
<stop stop-color="white"/>
<stop offset="1" stop-color="#CFDAF4"/>
</linearGradient>
<linearGradient id="paint127_linear_1372_4845" x1="65.2512" y1="154.388" x2="70.3439" y2="164.578" gradientUnits="userSpaceOnUse">
<stop stop-color="white"/>
<stop offset="1" stop-color="#CFDAF4"/>
</linearGradient>
<linearGradient id="paint128_linear_1372_4845" x1="69.3132" y1="194.294" x2="69.3132" y2="180.849" gradientUnits="userSpaceOnUse">
<stop stop-color="#5B60A3"/>
<stop offset="1" stop-color="#424161"/>
</linearGradient>
<linearGradient id="paint129_linear_1372_4845" x1="40.5568" y1="199.548" x2="120.927" y2="152.593" gradientUnits="userSpaceOnUse">
<stop stop-color="white"/>
<stop offset="1" stop-color="#CFDAF4"/>
</linearGradient>
<linearGradient id="paint130_linear_1372_4845" x1="43.2869" y1="182.972" x2="42.8621" y2="201.195" gradientUnits="userSpaceOnUse">
<stop stop-color="#CFDAF4"/>
<stop offset="1" stop-color="#A0AFDE"/>
</linearGradient>
<linearGradient id="paint131_linear_1372_4845" x1="69.3132" y1="212.206" x2="69.3132" y2="198.766" gradientUnits="userSpaceOnUse">
<stop stop-color="#5B60A3"/>
<stop offset="1" stop-color="#424161"/>
</linearGradient>
<linearGradient id="paint132_linear_1372_4845" x1="40.5568" y1="217.466" x2="120.927" y2="170.506" gradientUnits="userSpaceOnUse">
<stop stop-color="white"/>
<stop offset="1" stop-color="#CFDAF4"/>
</linearGradient>
<linearGradient id="paint133_linear_1372_4845" x1="43.2869" y1="200.885" x2="42.8621" y2="219.113" gradientUnits="userSpaceOnUse">
<stop stop-color="#CFDAF4"/>
<stop offset="1" stop-color="#A0AFDE"/>
</linearGradient>
<linearGradient id="paint134_linear_1372_4845" x1="69.3132" y1="230.124" x2="69.3132" y2="216.678" gradientUnits="userSpaceOnUse">
<stop stop-color="#5B60A3"/>
<stop offset="1" stop-color="#424161"/>
</linearGradient>
<linearGradient id="paint135_linear_1372_4845" x1="40.5568" y1="235.379" x2="120.927" y2="188.424" gradientUnits="userSpaceOnUse">
<stop stop-color="white"/>
<stop offset="1" stop-color="#CFDAF4"/>
</linearGradient>
<linearGradient id="paint136_linear_1372_4845" x1="43.2869" y1="218.803" x2="42.8621" y2="237.026" gradientUnits="userSpaceOnUse">
<stop stop-color="#CFDAF4"/>
<stop offset="1" stop-color="#A0AFDE"/>
</linearGradient>
<linearGradient id="paint137_linear_1372_4845" x1="69.3132" y1="248.036" x2="69.3132" y2="234.595" gradientUnits="userSpaceOnUse">
<stop stop-color="#5B60A3"/>
<stop offset="1" stop-color="#424161"/>
</linearGradient>
<linearGradient id="paint138_linear_1372_4845" x1="40.5568" y1="253.296" x2="120.927" y2="206.336" gradientUnits="userSpaceOnUse">
<stop stop-color="white"/>
<stop offset="1" stop-color="#CFDAF4"/>
</linearGradient>
<linearGradient id="paint139_linear_1372_4845" x1="31.2869" y1="236.715" x2="30.8621" y2="254.943" gradientUnits="userSpaceOnUse">
<stop stop-color="#CFDAF4"/>
<stop offset="1" stop-color="#A0AFDE"/>
</linearGradient>
<linearGradient id="paint140_linear_1372_4845" x1="69.3132" y1="265.953" x2="69.3132" y2="252.508" gradientUnits="userSpaceOnUse">
<stop stop-color="#5B60A3"/>
<stop offset="1" stop-color="#424161"/>
</linearGradient>
<linearGradient id="paint141_linear_1372_4845" x1="28.5568" y1="271.208" x2="108.927" y2="224.253" gradientUnits="userSpaceOnUse">
<stop stop-color="white"/>
<stop offset="1" stop-color="#CFDAF4"/>
</linearGradient>
<linearGradient id="paint142_linear_1372_4845" x1="31.2869" y1="254.632" x2="30.8621" y2="272.855" gradientUnits="userSpaceOnUse">
<stop stop-color="#CFDAF4"/>
<stop offset="1" stop-color="#A0AFDE"/>
</linearGradient>
<linearGradient id="paint143_linear_1372_4845" x1="57.3132" y1="283.866" x2="57.3132" y2="270.426" gradientUnits="userSpaceOnUse">
<stop stop-color="#5B60A3"/>
<stop offset="1" stop-color="#424161"/>
</linearGradient>
<linearGradient id="paint144_linear_1372_4845" x1="28.5568" y1="289.125" x2="108.927" y2="242.165" gradientUnits="userSpaceOnUse">
<stop stop-color="white"/>
<stop offset="1" stop-color="#CFDAF4"/>
</linearGradient>
<linearGradient id="paint145_linear_1372_4845" x1="31.2869" y1="272.544" x2="30.8621" y2="290.772" gradientUnits="userSpaceOnUse">
<stop stop-color="#CFDAF4"/>
<stop offset="1" stop-color="#A0AFDE"/>
</linearGradient>
<linearGradient id="paint146_linear_1372_4845" x1="165.595" y1="124.869" x2="137.21" y2="162.207" gradientUnits="userSpaceOnUse">
<stop stop-color="white"/>
<stop offset="1" stop-color="#FADB81"/>
</linearGradient>
<linearGradient id="paint147_linear_1372_4845" x1="59.4812" y1="226.875" x2="78.1472" y2="214.572" gradientUnits="userSpaceOnUse">
<stop stop-color="white"/>
<stop offset="1" stop-color="#CFDAF4"/>
</linearGradient>
<linearGradient id="paint148_linear_1372_4845" x1="72.637" y1="218.805" x2="78.2266" y2="215.101" gradientUnits="userSpaceOnUse">
<stop stop-color="white"/>
<stop offset="1" stop-color="#CFDAF4"/>
</linearGradient>
<linearGradient id="paint149_linear_1372_4845" x1="46.9272" y1="243.647" x2="42.7801" y2="221.303" gradientUnits="userSpaceOnUse">
<stop stop-color="#1766AF"/>
<stop offset="1" stop-color="#81D715"/>
</linearGradient>
<linearGradient id="paint150_linear_1372_4845" x1="79.3025" y1="235.263" x2="140.147" y2="150.82" gradientUnits="userSpaceOnUse">
<stop stop-color="#334FA8"/>
<stop offset="1" stop-color="#429F56"/>
</linearGradient>
<linearGradient id="paint151_linear_1372_4845" x1="73.2068" y1="177.378" x2="142.869" y2="214.069" gradientUnits="userSpaceOnUse">
<stop stop-color="white"/>
<stop offset="1" stop-color="#CFDAF4" stop-opacity="0"/>
</linearGradient>
<linearGradient id="paint152_linear_1372_4845" x1="83.1074" y1="194.829" x2="148.501" y2="177.283" gradientUnits="userSpaceOnUse">
<stop stop-color="white"/>
<stop offset="1" stop-color="#CFDAF4" stop-opacity="0"/>
</linearGradient>
<linearGradient id="paint153_linear_1372_4845" x1="149.966" y1="270.343" x2="150.03" y2="280.342" gradientUnits="userSpaceOnUse">
<stop stop-color="#334FA8"/>
<stop offset="1" stop-color="#429F56"/>
</linearGradient>
</defs>
</svg>
