<svg width="136" height="76" viewBox="0 0 136 76" fill="none" xmlns="http://www.w3.org/2000/svg">
<rect x="1.05518" y="0.75" width="133.326" height="74.5" rx="9.25" fill="white" stroke="url(#paint0_linear_1325_9450)" stroke-width="1.5"/>
<path d="M53.7718 58.0833C53.7718 58.7066 53.5243 59.3043 53.0835 59.745C52.6428 60.1857 52.0451 60.4333 51.4218 60.4333H23.2218C22.5986 60.4333 22.0009 60.1857 21.5601 59.745C21.1194 59.3043 20.8718 58.7066 20.8718 58.0833V18.9167C20.8718 18.2934 21.1194 17.6957 21.5601 17.255C22.0009 16.8143 22.5986 16.5667 23.2218 16.5667H47.5052V20.4833C47.5052 21.1066 47.7528 21.7043 48.1935 22.145C48.6342 22.5857 49.2319 22.8333 49.8552 22.8333H53.7718V39.2833H55.3385V22.05C55.3385 21.8423 55.2559 21.6431 55.109 21.4962L48.8423 15.2295C48.6955 15.0826 48.4962 15 48.2885 15H23.2218C22.1835 15.0012 21.188 15.4143 20.4537 16.1485C19.7195 16.8828 19.3064 17.8783 19.3052 18.9167V58.0833C19.3064 59.1217 19.7195 60.1172 20.4537 60.8515C21.188 61.5857 22.1835 61.9988 23.2218 62H51.4218C52.4602 61.9988 53.4557 61.5857 54.19 60.8515C54.9242 60.1172 55.3373 59.1217 55.3385 58.0833V54.95H53.7718V58.0833ZM49.0718 20.4833V17.6743L52.6642 21.2667H49.8552C49.6474 21.2667 49.4482 21.1841 49.3013 21.0372C49.1544 20.8903 49.0718 20.6911 49.0718 20.4833Z" fill="#303030"/>
<path d="M24.0051 19.7H25.5717V21.2666H24.0051V19.7ZM27.1384 19.7H31.8384V21.2666H27.1384V19.7ZM24.0051 22.8333H31.8384V24.4H24.0051V22.8333ZM65.4199 36.2518C64.6848 35.5184 63.6888 35.1066 62.6504 35.1066C61.6121 35.1066 60.6161 35.5184 59.881 36.2518L46.0332 50.0995C45.9241 50.2087 45.8497 50.3477 45.8193 50.4991L45.3117 53.0363L43.8179 54.5301C43.5968 54.7476 43.4209 55.0068 43.3004 55.2926C43.1799 55.5785 43.1172 55.8854 43.1159 56.1956C43.1146 56.5058 43.1747 56.8132 43.2928 57.1001C43.4109 57.3869 43.5846 57.6476 43.8039 57.867C44.0233 58.0863 44.2839 58.2601 44.5707 58.3783C44.8575 58.4965 45.1649 58.5567 45.4751 58.5554C45.7853 58.5542 46.0923 58.4916 46.3781 58.3711C46.664 58.2507 46.9232 58.0749 47.1408 57.8538L48.6354 56.3599L51.1726 55.8523C51.3241 55.8218 51.4631 55.7471 51.5721 55.6377L65.4199 41.79C66.153 41.0549 66.5647 40.059 66.5647 39.0209C66.5647 37.9827 66.153 36.9869 65.4199 36.2518ZM46.8839 53.1655L47.2528 51.3184L50.3525 54.4181L48.5062 54.7878L46.8839 53.1655ZM48.2485 50.0995L57.6649 40.6823L58.7733 41.79L49.3569 51.2072L48.2485 50.0995ZM50.4645 52.3148L59.8817 42.8984L60.9894 44.0068L51.5721 53.4225L50.4645 52.3148ZM58.7733 39.5747L59.3271 39.0209L62.6508 42.3446L62.0962 42.8992L58.7733 39.5747ZM46.0324 56.7461C45.8833 56.8885 45.6851 56.9679 45.479 56.9679C45.2728 56.9679 45.0746 56.8885 44.9256 56.7461C44.8527 56.6734 44.7949 56.587 44.7555 56.4919C44.7161 56.3968 44.6958 56.2949 44.6958 56.1919C44.6958 56.089 44.7161 55.987 44.7555 55.892C44.7949 55.7969 44.8527 55.7105 44.9256 55.6377L46.0332 54.5301L47.1416 55.6385L46.0324 56.7461ZM64.3123 40.6831L63.7585 41.2369L60.4348 37.9132L60.9886 37.3594C61.2068 37.1412 61.4659 36.9681 61.751 36.85C62.0362 36.7318 62.3418 36.6711 62.6504 36.6711C62.9591 36.6711 63.2647 36.7318 63.5498 36.85C63.835 36.9681 64.094 37.1412 64.3123 37.3594C64.5305 37.5777 64.7036 37.8367 64.8217 38.1219C64.9398 38.407 65.0006 38.7126 65.0006 39.0213C65.0006 39.3299 64.9398 39.6355 64.8217 39.9206C64.7036 40.2058 64.5305 40.4649 64.3123 40.6831ZM51.4922 37.4111C51.639 37.2632 51.7214 37.0633 51.7214 36.8549C51.7214 36.6466 51.639 36.4467 51.4922 36.2988L43.7372 28.5438C43.5873 28.404 43.39 28.3263 43.185 28.3263C42.98 28.3263 42.7827 28.404 42.6327 28.5438L40.5804 30.5961L39.3819 30.8311L37.0946 28.5438C36.9452 28.3995 36.7461 28.3182 36.5384 28.3166H33.5382L31.5564 26.327C31.4085 26.1802 31.2086 26.0978 31.0002 26.0978C30.7919 26.0978 30.592 26.1802 30.4441 26.327L22.6891 34.082C22.5423 34.2298 22.46 34.4298 22.46 34.6381C22.46 34.8465 22.5423 35.0464 22.6891 35.1943L28.3291 40.8343C28.1601 41.1819 28.0803 41.5662 28.0969 41.9523C28.1135 42.3385 28.226 42.7145 28.4242 43.0463C28.6224 43.3782 28.9 43.6555 29.2322 43.8533C29.5643 44.051 29.9404 44.163 30.3266 44.1791C30.3476 44.758 30.5885 45.307 31.0002 45.7144C31.409 46.1253 31.9567 46.3684 32.5356 46.396C32.5646 46.9745 32.8074 47.5217 33.217 47.9313C33.6267 48.3409 34.1738 48.5838 34.7524 48.6128C34.7778 49.065 34.9333 49.5003 35.2002 49.8663C35.4672 50.2322 35.8342 50.5132 36.2571 50.6754C36.6801 50.8376 37.1408 50.8741 37.584 50.7806C38.0272 50.687 38.434 50.4674 38.7552 50.1481L39.5856 50.9785C39.8034 51.1969 40.0623 51.3703 40.3472 51.4885C40.6322 51.6068 40.9377 51.6677 41.2462 51.6677C41.5548 51.6677 41.8603 51.6068 42.1452 51.4885C42.4302 51.3703 42.689 51.1969 42.9069 50.9785C43.3202 50.5689 43.5612 50.0168 43.5806 49.4353C44.1602 49.4133 44.7102 49.1738 45.121 48.7644C45.5319 48.355 45.7734 47.8058 45.7974 47.2263C46.3772 47.2008 46.9263 46.9591 47.3367 46.5487C47.747 46.1384 47.9888 45.5892 48.0142 45.0095C48.4683 44.9878 48.9063 44.8347 49.2749 44.5686C49.6435 44.3026 49.9268 43.9351 50.0903 43.5109C50.2538 43.0868 50.2905 42.6242 50.1959 42.1796C50.1013 41.735 49.8795 41.3274 49.5574 41.0066L48.7271 40.1763L51.4922 37.4111ZM24.3497 34.6381L31.0002 27.9955L32.1047 29.1L25.4621 35.7505L24.3497 34.6381ZM26.5666 36.8549L33.5382 29.8833H36.2172L42.3507 36.0246C42.4251 36.0961 42.4842 36.1819 42.5246 36.2768C42.565 36.3717 42.5859 36.4737 42.5859 36.5769C42.5859 36.68 42.565 36.7821 42.5246 36.877C42.4842 36.9719 42.4251 37.0576 42.3507 37.1291C42.2026 37.2724 42.0046 37.3525 41.7985 37.3525C41.5924 37.3525 41.3944 37.2724 41.2462 37.1291L37.9249 33.8078C37.7743 33.6663 37.5754 33.5875 37.3687 33.5875C37.1621 33.5875 36.9632 33.6663 36.8126 33.8078C36.3656 34.2356 35.7707 34.4744 35.1519 34.4744C34.5331 34.4744 33.9382 34.2356 33.4912 33.8078L32.3867 34.9123C32.6711 35.1917 32.9959 35.4267 33.3502 35.6095L29.3396 39.6279L26.5666 36.8549ZM38.4732 46.5448C38.1854 46.8376 37.979 47.2005 37.8746 47.5975C37.7701 47.9946 37.7713 48.4121 37.8779 48.8086L37.6429 49.0358C37.5705 49.1094 37.4838 49.1675 37.3882 49.2065C37.2926 49.2456 37.19 49.2648 37.0867 49.263C36.9847 49.2647 36.8833 49.2454 36.789 49.2063C36.6946 49.1673 36.6094 49.1092 36.5384 49.0358C36.3925 48.8911 36.3098 48.6945 36.3083 48.4891C36.3069 48.2836 36.3868 48.0859 36.5306 47.9391C36.5326 47.9391 36.5346 47.9383 36.5361 47.9368C36.5376 47.9354 36.5384 47.9334 36.5384 47.9313L38.7552 45.7223V45.7144L37.6429 44.6099L35.4261 46.8268C35.4182 46.8268 35.4182 46.8268 35.4182 46.8346C35.2679 46.9714 35.0716 47.0466 34.8684 47.0451C34.6651 47.0437 34.4699 46.9657 34.3216 46.8268C34.1759 46.6783 34.0944 46.4786 34.0944 46.2706C34.0944 46.0626 34.1759 45.8629 34.3216 45.7144L36.5384 43.4976L35.4339 42.3931L33.2171 44.6099C33.144 44.683 33.0573 44.7409 32.9619 44.7804C32.8665 44.82 32.7642 44.8403 32.6609 44.8403C32.5576 44.8403 32.4553 44.82 32.3599 44.7804C32.2645 44.7409 32.1778 44.683 32.1047 44.6099C32.0317 44.5369 31.9738 44.4502 31.9342 44.3548C31.8947 44.2594 31.8744 44.1571 31.8744 44.0538C31.8744 43.9505 31.8947 43.8482 31.9342 43.7528C31.9738 43.6574 32.0317 43.5707 32.1047 43.4976L34.3216 41.2886L33.2171 40.1763L31.0002 42.3931C30.8505 42.5364 30.6513 42.6163 30.4441 42.6163C30.2369 42.6163 30.0376 42.5364 29.8879 42.3931C29.742 42.2464 29.6601 42.0478 29.6601 41.8409C29.6601 41.6339 29.742 41.4354 29.8879 41.2886L35.1127 36.056C35.1284 36.056 35.1362 36.0638 35.1519 36.0638C35.9211 36.0664 36.6737 35.84 37.3139 35.4136L40.1417 38.2415C40.5896 38.6677 41.1842 38.9054 41.8024 38.9054C42.4207 38.9054 43.0152 38.6677 43.4631 38.2415C43.8953 37.809 44.142 37.2252 44.1508 36.6138C44.1596 36.0025 43.9297 35.4118 43.5101 34.9671L47.6226 39.0718L47.3876 39.299C46.9904 39.1932 46.5725 39.1933 46.1754 39.2991C45.7782 39.4049 45.4157 39.6128 45.1237 39.9021C44.712 40.3095 44.4711 40.8586 44.4501 41.4375C43.8663 41.463 43.3137 41.7079 42.9027 42.1233C42.4917 42.5386 42.2526 43.0938 42.2332 43.6778C41.654 43.6927 41.1023 43.9279 40.6905 44.3354C40.2786 44.7429 40.0375 45.2921 40.0164 45.8711C39.4372 45.9007 38.8887 46.1402 38.4732 46.5448ZM41.8024 49.874C41.6518 50.0154 41.4529 50.0942 41.2462 50.0942C41.0396 50.0942 40.8407 50.0154 40.6901 49.874L39.5856 48.7616C39.5036 48.6914 39.437 48.605 39.39 48.5078C39.3429 48.4106 39.3165 48.3048 39.3123 48.1969C39.3082 48.089 39.3264 47.9814 39.3657 47.8809C39.4051 47.7804 39.4649 47.6891 39.5412 47.6127C39.6175 47.5364 39.7088 47.4767 39.8094 47.4373C39.9099 47.3979 40.0175 47.3797 40.1253 47.3839C40.2332 47.3881 40.3391 47.4145 40.4362 47.4615C40.5334 47.5085 40.6199 47.5751 40.6901 47.6571L41.8024 48.7616C41.9492 48.9095 42.0315 49.1094 42.0315 49.3178C42.0315 49.5261 41.9492 49.7261 41.8024 49.874ZM44.0192 47.6571C43.8713 47.8039 43.6714 47.8862 43.4631 47.8862C43.2547 47.8862 43.0548 47.8039 42.9069 47.6571L41.8024 46.5448C41.6565 46.398 41.5746 46.1995 41.5746 45.9925C41.5746 45.7856 41.6565 45.5871 41.8024 45.4403C41.9492 45.2944 42.1477 45.2125 42.3547 45.2125C42.5616 45.2125 42.7601 45.2944 42.9069 45.4403L44.0192 46.5448C44.1649 46.6933 44.2465 46.893 44.2465 47.101C44.2465 47.3089 44.1649 47.5086 44.0192 47.6571ZM46.2282 45.4403C46.0801 45.5836 45.8821 45.6637 45.676 45.6637C45.4699 45.6637 45.2719 45.5836 45.1237 45.4403L44.0192 44.3279C43.9447 44.2574 43.8855 44.1724 43.845 44.0781C43.8046 43.9838 43.7839 43.8822 43.7842 43.7796C43.7857 43.5723 43.8687 43.3739 44.0153 43.2273C44.1619 43.0807 44.3603 42.9977 44.5676 42.9963C44.7754 42.9971 44.9748 43.0785 45.1237 43.2234L46.2282 44.3358C46.3741 44.4826 46.456 44.6811 46.456 44.888C46.456 45.095 46.3741 45.2935 46.2282 45.4403ZM48.4451 43.2234C48.2983 43.3693 48.0998 43.4512 47.8928 43.4512C47.6859 43.4512 47.4873 43.3693 47.3406 43.2234L46.2282 42.1189C46.0815 41.9711 45.9991 41.7711 45.9991 41.5628C45.9991 41.3544 46.0815 41.1545 46.2282 41.0066C46.378 40.8629 46.5769 40.7817 46.7844 40.7794C46.9922 40.7803 47.1916 40.8617 47.3406 41.0066L48.4451 42.1189C48.5194 42.1904 48.5786 42.2762 48.619 42.3711C48.6594 42.466 48.6802 42.5681 48.6802 42.6712C48.6802 42.7743 48.6594 42.8764 48.619 42.9713C48.5786 43.0662 48.5194 43.152 48.4451 43.2234ZM42.0766 31.3168L43.1889 30.2045L49.8316 36.8549L48.7271 37.9594L42.0766 31.3168ZM34.1884 55.7333H42.0217V57.2999H34.1884V55.7333ZM24.0051 47.9H30.2717V49.4666H24.0051V47.9ZM24.0051 51.0333H31.8384V52.5999H24.0051V51.0333ZM24.0051 44.7666H28.7051V46.3333H24.0051V44.7666Z" fill="#303030"/>
<path d="M88.7911 31.8652C88.4177 31.8652 88.0545 31.8064 87.7015 31.6887C87.6893 32.0174 87.6447 32.3522 87.5676 32.693C87.4905 33.0339 87.3789 33.3606 87.2328 33.673C87.0908 33.9896 86.9102 34.2817 86.6911 34.5496C86.476 34.8174 86.2224 35.0446 85.9302 35.2313C85.5163 35.4991 85.0618 35.702 84.5667 35.84C84.0757 35.978 83.5137 36.047 82.8806 36.047C82.1745 36.047 81.5679 35.9617 81.0606 35.7913C80.5574 35.6249 80.1192 35.3814 79.7459 35.0609C79.5186 34.858 79.3198 34.6328 79.1493 34.3852C78.983 34.1417 78.845 33.882 78.7354 33.6061C78.6259 33.3342 78.5427 33.0481 78.4859 32.7478C78.4331 32.4516 78.4067 32.1493 78.4067 31.8409C78.4067 31.4919 78.4311 31.1612 78.4798 30.8487C78.5285 30.5322 78.6035 30.2157 78.705 29.8991C78.8064 29.5826 78.9322 29.258 79.0824 28.9252C79.2366 28.5925 79.4172 28.2333 79.6241 27.8478L80.9937 28.8339C80.876 29.0449 80.7624 29.2823 80.6528 29.5461C80.5432 29.8058 80.4459 30.0757 80.3606 30.3557C80.2795 30.6316 80.2125 30.9075 80.1598 31.1835C80.1111 31.4594 80.0867 31.7171 80.0867 31.9565C80.0867 32.273 80.1638 32.5632 80.318 32.827C80.4722 33.0907 80.6751 33.3159 80.9267 33.5026C81.1824 33.6933 81.4725 33.8414 81.7972 33.947C82.1218 34.0565 82.4566 34.1133 82.8015 34.1174C83.2763 34.1255 83.7105 34.087 84.1041 34.0017C84.4977 33.9206 84.8366 33.7887 85.1206 33.6061C85.4047 33.4235 85.6238 33.1881 85.778 32.9C85.9363 32.6119 86.0154 32.2649 86.0154 31.8591C86.0154 31.6238 85.9809 31.3742 85.9119 31.1104C85.843 30.8426 85.7516 30.5667 85.638 30.2826C85.5285 29.9945 85.3986 29.7003 85.2485 29.4C85.1024 29.0957 84.9502 28.7852 84.7919 28.4687L86.4537 27.4157L87.0685 28.6026C87.2348 28.9394 87.3951 29.1991 87.5493 29.3817C87.7076 29.5603 87.8598 29.6922 88.0059 29.7774C88.1519 29.8586 88.2899 29.9072 88.4198 29.9235C88.5537 29.9357 88.6774 29.9417 88.7911 29.9417C88.925 29.9417 89.0508 29.9661 89.1685 30.0148C89.2861 30.0635 89.3876 30.1325 89.4728 30.2217C89.5621 30.307 89.6311 30.4084 89.6798 30.5261C89.7325 30.6438 89.7589 30.7696 89.7589 30.9035C89.7589 31.0374 89.7325 31.1632 89.6798 31.2809C89.6311 31.3986 89.5621 31.5 89.4728 31.5852C89.3876 31.6704 89.2861 31.7374 89.1685 31.7861C89.0508 31.8388 88.925 31.8652 88.7911 31.8652ZM82.9841 25.9913L84.3354 27.3426L82.9841 28.6939L81.6328 27.3426L82.9841 25.9913ZM87.8279 30.9035C87.8279 30.7696 87.8523 30.6438 87.901 30.5261C87.9497 30.4084 88.0187 30.307 88.1079 30.2217C88.1931 30.1325 88.2946 30.0635 88.4123 30.0148C88.53 29.9661 88.6558 29.9417 88.7897 29.9417H89.2523C89.5444 29.9417 89.8244 29.9296 90.0923 29.9052C90.3642 29.8809 90.6036 29.8301 90.8105 29.753C91.0175 29.6719 91.1839 29.5603 91.3097 29.4183C91.4395 29.2722 91.5085 29.0794 91.5166 28.84C91.5207 28.7507 91.5207 28.6777 91.5166 28.6209C91.5166 28.56 91.5065 28.489 91.4862 28.4078C91.4659 28.3226 91.4355 28.213 91.3949 28.0791C91.3584 27.9412 91.3056 27.7484 91.2366 27.5009L93.0079 27.0017C93.085 27.1965 93.156 27.4542 93.221 27.7748C93.2859 28.0954 93.3346 28.4464 93.3671 28.8278C93.3752 28.9496 93.3894 29.0754 93.4097 29.2052C93.43 29.3351 93.4624 29.4548 93.5071 29.5643C93.5558 29.6739 93.6207 29.7652 93.7018 29.8383C93.783 29.9072 93.8885 29.9417 94.0184 29.9417C94.1523 29.9417 94.2781 29.9661 94.3958 30.0148C94.5134 30.0635 94.6149 30.1325 94.7001 30.2217C94.7894 30.307 94.8584 30.4084 94.9071 30.5261C94.9598 30.6438 94.9862 30.7696 94.9862 30.9035C94.9862 31.0374 94.9598 31.1632 94.9071 31.2809C94.8584 31.3986 94.7894 31.5 94.7001 31.5852C94.6108 31.6745 94.5073 31.7435 94.3897 31.7922C94.276 31.8409 94.1543 31.8652 94.0244 31.8652C93.6349 31.8652 93.3001 31.8043 93.0201 31.6826C92.7442 31.5649 92.5068 31.4107 92.3079 31.22C92.1253 31.3417 91.9143 31.4432 91.6749 31.5243C91.4395 31.6055 91.1879 31.6704 90.9201 31.7191C90.6523 31.7719 90.3763 31.8084 90.0923 31.8287C89.8082 31.853 89.5282 31.8652 89.2523 31.8652H88.7897C88.6558 31.8652 88.53 31.8409 88.4123 31.7922C88.2946 31.7435 88.1931 31.6745 88.1079 31.5852C88.0187 31.5 87.9497 31.3986 87.901 31.2809C87.8523 31.1632 87.8279 31.0374 87.8279 30.9035ZM93.6531 34.0504L92.4844 35.2252L91.3279 34.0687L90.1836 35.213L89.0027 34.0383L90.1714 32.8635L91.3279 34.02L92.4723 32.8757L93.6531 34.0504ZM93.0643 30.9035C93.0643 30.7696 93.0906 30.6438 93.1434 30.5261C93.1921 30.4084 93.259 30.307 93.3443 30.2217C93.4295 30.1325 93.5309 30.0635 93.6486 30.0148C93.7663 29.9661 93.8921 29.9417 94.026 29.9417H94.653H94.9269C95.077 29.9417 95.2332 29.9357 95.3956 29.9235C95.5619 29.9113 95.7161 29.887 95.8582 29.8504C96.0043 29.8139 96.1321 29.7632 96.2416 29.6983C96.3553 29.6333 96.4364 29.5461 96.4851 29.4365C96.5176 29.3635 96.5338 29.2539 96.5338 29.1078C96.5338 29.0104 96.5054 28.8643 96.4486 28.6696C96.3918 28.4748 96.3167 28.2597 96.2234 28.0243C96.1301 27.7849 96.0245 27.5354 95.9069 27.2757C95.7892 27.0159 95.6695 26.7704 95.5477 26.5391L97.2886 25.6748C97.4022 25.9304 97.5138 26.2023 97.6234 26.4904C97.737 26.7786 97.8385 27.0707 97.9277 27.367C98.017 27.6632 98.088 27.9594 98.1408 28.2557C98.1976 28.5478 98.226 28.8278 98.226 29.0957C98.226 29.5055 98.153 29.8809 98.0069 30.2217C97.8364 30.6032 97.6031 30.9197 97.3069 31.1713C97.0106 31.4188 96.6556 31.6014 96.2416 31.7191C95.9982 31.7881 95.7648 31.8287 95.5416 31.8409C95.3185 31.8571 95.1095 31.8652 94.9147 31.8652H94.0808H94.026C93.8921 31.8652 93.7663 31.8409 93.6486 31.7922C93.5309 31.7435 93.4295 31.6745 93.3443 31.5852C93.259 31.5 93.1921 31.3986 93.1434 31.2809C93.0906 31.1632 93.0643 31.0374 93.0643 30.9035ZM96.0773 22.2357L97.4286 23.587L96.0773 24.9383L94.726 23.587L96.0773 22.2357ZM99.1285 31.8835C99.1488 31.5507 99.1691 31.2058 99.1894 30.8487C99.2097 30.4916 99.2259 30.1386 99.2381 29.7896C99.2543 29.4406 99.2645 29.1017 99.2685 28.773C99.2726 28.4443 99.2685 28.142 99.2564 27.8661C99.232 27.2899 99.2077 26.7846 99.1833 26.3504C99.163 25.9122 99.1407 25.5246 99.1164 25.1878C99.0961 24.851 99.0737 24.5568 99.0494 24.3052C99.0291 24.0496 99.0068 23.8162 98.9824 23.6052C98.9581 23.3942 98.9317 23.1974 98.9033 23.0148C98.8749 22.8281 98.8445 22.6354 98.812 22.4365L100.693 21.8157C100.782 22.3594 100.853 22.9072 100.906 23.4591C100.963 24.011 101.005 24.5406 101.034 25.0478C101.062 25.551 101.08 26.0197 101.089 26.4539C101.101 26.8881 101.107 27.2594 101.107 27.5678C101.107 27.8478 101.105 28.1501 101.101 28.4748C101.101 28.7994 101.097 29.1362 101.089 29.4852C101.084 29.8342 101.076 30.1872 101.064 30.5443C101.052 30.9014 101.034 31.2504 101.009 31.5913L99.1285 31.8835ZM101.8 34.2817C102.372 34.1681 102.889 34.0241 103.352 33.8496C103.818 33.6791 104.226 33.4864 104.575 33.2713C104.928 33.0603 105.218 32.8351 105.446 32.5957C105.673 32.3562 105.835 32.1128 105.933 31.8652C105.758 31.8652 105.582 31.8612 105.403 31.853C105.225 31.849 105.072 31.8429 104.947 31.8348C104.476 31.7942 104.046 31.6887 103.656 31.5183C103.267 31.3519 102.956 31.1246 102.725 30.8365C102.554 30.6174 102.433 30.38 102.36 30.1243C102.291 29.8687 102.256 29.5988 102.256 29.3148C102.256 29.0957 102.276 28.8765 102.317 28.6574C102.358 28.4342 102.414 28.2191 102.487 28.0122C102.56 27.8012 102.646 27.6023 102.743 27.4157C102.845 27.229 102.952 27.0586 103.066 26.9043C103.309 26.6 103.575 26.3707 103.863 26.2165C104.155 26.0583 104.462 25.9791 104.782 25.9791C105.468 25.9791 106.087 26.2794 106.639 26.88C106.809 27.0707 106.963 27.2817 107.101 27.513C107.239 27.7443 107.361 27.9919 107.467 28.2557C107.572 28.5154 107.657 28.7872 107.722 29.0713C107.791 29.3554 107.838 29.6455 107.862 29.9417H107.978C108.112 29.9417 108.238 29.9661 108.355 30.0148C108.473 30.0635 108.574 30.1325 108.66 30.2217C108.749 30.307 108.82 30.4084 108.873 30.5261C108.925 30.6438 108.952 30.7716 108.952 30.9096C108.952 31.0394 108.925 31.1632 108.873 31.2809C108.82 31.3945 108.749 31.4939 108.66 31.5791C108.574 31.6684 108.473 31.7374 108.355 31.7861C108.238 31.8388 108.112 31.8652 107.978 31.8652H107.71C107.552 32.4617 107.298 33.0014 106.949 33.4843C106.604 33.9672 106.19 34.3893 105.707 34.7504C105.229 35.1116 104.693 35.4099 104.1 35.6452C103.512 35.8806 102.895 36.049 102.25 36.1504L101.8 34.2817ZM104.782 27.9087C104.693 27.9087 104.593 27.9493 104.484 28.0304C104.378 28.1075 104.279 28.207 104.186 28.3287C104.092 28.4504 104.013 28.5864 103.948 28.7365C103.887 28.8867 103.857 29.0328 103.857 29.1748C103.857 29.3128 103.896 29.4264 103.973 29.5157C104.05 29.6049 104.147 29.678 104.265 29.7348C104.387 29.7875 104.518 29.8281 104.66 29.8565C104.802 29.8809 104.94 29.8991 105.074 29.9113C105.147 29.9194 105.227 29.9255 105.312 29.9296C105.401 29.9296 105.492 29.9296 105.586 29.9296C105.679 29.9296 105.77 29.9316 105.86 29.9357C105.953 29.9357 106.038 29.9377 106.115 29.9417C106.087 29.7429 106.042 29.5562 105.981 29.3817C105.92 29.2072 105.851 29.0449 105.774 28.8948C105.701 28.7446 105.62 28.6107 105.531 28.493C105.446 28.3713 105.362 28.2658 105.281 28.1765C105.253 28.1481 105.216 28.1177 105.172 28.0852C105.131 28.0528 105.089 28.0243 105.044 28C104.999 27.9716 104.953 27.9493 104.904 27.933C104.859 27.9168 104.819 27.9087 104.782 27.9087ZM106.993 30.9035C106.993 30.7696 107.019 30.6438 107.072 30.5261C107.121 30.4084 107.19 30.307 107.279 30.2217C107.364 30.1325 107.468 30.0635 107.589 30.0148C107.707 29.9661 107.833 29.9417 107.967 29.9417C108.117 29.9417 108.302 29.9397 108.521 29.9357C108.744 29.9275 108.981 29.9154 109.233 29.8991C109.484 29.8829 109.74 29.8626 110 29.8383C110.264 29.8139 110.513 29.7814 110.749 29.7409C110.988 29.7003 111.203 29.6536 111.394 29.6009C111.589 29.5441 111.741 29.4791 111.85 29.4061C111.44 29.4507 111.063 29.469 110.718 29.4609C110.373 29.4487 110.065 29.4142 109.793 29.3574C109.521 29.3006 109.288 29.2235 109.093 29.1261C108.902 29.0246 108.756 28.909 108.655 28.7791V28.7852C108.545 28.6472 108.442 28.4626 108.344 28.2313C108.251 28 108.204 27.7139 108.204 27.373C108.204 27.1904 108.216 27.02 108.241 26.8617C108.362 26.1719 108.606 25.6017 108.971 25.1513L108.965 25.1574C109.184 24.8652 109.432 24.6481 109.708 24.5061C109.984 24.36 110.274 24.287 110.578 24.287C110.887 24.287 111.191 24.362 111.491 24.5122C111.791 24.6623 112.063 24.8652 112.307 25.1209C112.481 25.3197 112.638 25.5449 112.776 25.7965C112.918 26.0481 113.037 26.3159 113.135 26.6C113.236 26.8841 113.313 27.1803 113.366 27.4887C113.423 27.793 113.451 28.0994 113.451 28.4078C113.451 28.5012 113.449 28.5945 113.445 28.6878C113.441 28.7771 113.435 28.8623 113.427 28.9435C113.378 29.3655 113.271 29.7307 113.104 30.0391C112.938 30.3435 112.725 30.6032 112.465 30.8183C112.209 31.0333 111.915 31.2078 111.582 31.3417C111.25 31.4757 110.893 31.5812 110.511 31.6583C110.13 31.7354 109.73 31.7881 109.312 31.8165C108.898 31.8449 108.48 31.8612 108.058 31.8652H107.955C107.821 31.8652 107.695 31.8388 107.577 31.7861C107.46 31.7374 107.358 31.6704 107.273 31.5852C107.188 31.5 107.121 31.3986 107.072 31.2809C107.019 31.1632 106.993 31.0374 106.993 30.9035ZM110.566 26.2226C110.473 26.2186 110.377 26.247 110.28 26.3078C110.187 26.3646 110.099 26.4417 110.018 26.5391C109.941 26.6365 109.876 26.7481 109.823 26.8739C109.775 26.9997 109.75 27.1275 109.75 27.2574C109.75 27.371 109.777 27.4725 109.829 27.5617C109.858 27.6104 109.915 27.653 110 27.6896C110.089 27.722 110.193 27.7504 110.31 27.7748C110.432 27.7951 110.562 27.8133 110.7 27.8296C110.838 27.8417 110.97 27.8499 111.096 27.8539C111.221 27.858 111.335 27.858 111.436 27.8539C111.542 27.8499 111.619 27.8438 111.668 27.8357C111.631 27.653 111.582 27.4684 111.522 27.2817C111.465 27.0951 111.392 26.9246 111.302 26.7704C111.213 26.6162 111.108 26.4884 110.986 26.387C110.864 26.2855 110.724 26.2307 110.566 26.2226ZM112.757 22.3513L111.589 23.5261L110.432 22.3696L109.288 23.5139L108.107 22.3391L109.276 21.1643L110.432 22.3209L111.576 21.1765L112.757 22.3513ZM79.3495 52.0226C79.5199 52.1322 79.7187 52.2417 79.946 52.3513C80.1773 52.4609 80.4126 52.5623 80.6521 52.6557C80.8955 52.7449 81.1309 52.818 81.3581 52.8748C81.5854 52.9316 81.7822 52.96 81.9486 52.96C82.0095 52.96 82.0886 52.958 82.186 52.9539C82.2834 52.9458 82.3848 52.9336 82.4903 52.9174C82.5999 52.8971 82.7095 52.8728 82.819 52.8443C82.9286 52.8119 83.028 52.7713 83.1173 52.7226C83.2106 52.6739 83.2857 52.6171 83.3425 52.5522C83.3993 52.4832 83.4297 52.402 83.4338 52.3087C83.4379 52.1504 83.3892 51.9719 83.2877 51.773C83.1903 51.5742 83.0564 51.3672 82.886 51.1522C82.7196 50.933 82.5248 50.7139 82.3016 50.4948C82.0825 50.2716 81.8552 50.0586 81.6199 49.8557C81.3845 49.6487 81.1492 49.458 80.9138 49.2835C80.6784 49.1049 80.4613 48.9528 80.2625 48.827L81.3399 47.2261C81.7335 47.502 82.1231 47.8104 82.5086 48.1513C82.8981 48.4922 83.2573 48.8554 83.586 49.2409C83.9147 49.6223 84.1987 50.018 84.4381 50.4278C84.6776 50.8377 84.85 51.2475 84.9555 51.6574C84.988 51.7751 85.0103 51.8948 85.0225 52.0165C85.0347 52.1342 85.0408 52.2478 85.0408 52.3574C85.0408 52.7348 84.9677 53.0817 84.8216 53.3983C84.6755 53.7107 84.4706 53.9826 84.2068 54.2139C83.9471 54.4412 83.6347 54.6177 83.2695 54.7435C82.9042 54.8693 82.5025 54.9322 82.0642 54.9322C82.0318 54.9322 81.9993 54.9301 81.9668 54.9261C81.9344 54.9261 81.9019 54.9261 81.8695 54.9261C81.5895 54.9261 81.3013 54.8957 81.0051 54.8348C80.7129 54.778 80.4228 54.7009 80.1347 54.6035C79.8506 54.5061 79.5726 54.3925 79.3008 54.2626C79.0329 54.1328 78.7834 53.9968 78.5521 53.8548L79.3495 52.0226ZM86.024 54.8835C86.0443 54.5507 86.0646 54.2058 86.0849 53.8487C86.1052 53.4916 86.1214 53.1386 86.1336 52.7896C86.1498 52.4406 86.16 52.1017 86.164 51.773C86.1681 51.4443 86.164 51.142 86.1519 50.8661C86.1275 50.2899 86.1032 49.7846 86.0788 49.3504C86.0585 48.9122 86.0362 48.5246 86.0119 48.1878C85.9916 47.851 85.9693 47.5568 85.9449 47.3052C85.9246 47.0496 85.9023 46.8162 85.8779 46.6052C85.8536 46.3942 85.8272 46.1974 85.7988 46.0148C85.7704 45.8281 85.74 45.6354 85.7075 45.4365L87.5884 44.8157C87.6777 45.3594 87.7487 45.9072 87.8014 46.4591C87.8582 47.011 87.9008 47.5406 87.9293 48.0478C87.9577 48.551 87.9759 49.0197 87.984 49.4539C87.9962 49.8881 88.0023 50.2594 88.0023 50.5678C88.0023 50.8478 88.0003 51.1501 87.9962 51.4748C87.9962 51.7994 87.9922 52.1362 87.984 52.4852C87.98 52.8342 87.9719 53.1872 87.9597 53.5443C87.9475 53.9014 87.9293 54.2504 87.9049 54.5913L86.024 54.8835ZM89.4803 52.0226C89.6507 52.1322 89.8496 52.2417 90.0768 52.3513C90.3081 52.4609 90.5435 52.5623 90.7829 52.6557C91.0264 52.7449 91.2618 52.818 91.489 52.8748C91.7163 52.9316 91.9131 52.96 92.0794 52.96C92.1403 52.96 92.2194 52.958 92.3168 52.9539C92.4142 52.9458 92.5157 52.9336 92.6212 52.9174C92.7307 52.8971 92.8403 52.8728 92.9499 52.8443C93.0594 52.8119 93.1589 52.7713 93.2481 52.7226C93.3415 52.6739 93.4165 52.6171 93.4734 52.5522C93.5302 52.4832 93.5606 52.402 93.5647 52.3087C93.5687 52.1504 93.52 51.9719 93.4186 51.773C93.3212 51.5742 93.1873 51.3672 93.0168 51.1522C92.8505 50.933 92.6557 50.7139 92.4325 50.4948C92.2134 50.2716 91.9861 50.0586 91.7507 49.8557C91.5154 49.6487 91.28 49.458 91.0447 49.2835C90.8093 49.1049 90.5922 48.9528 90.3934 48.827L91.4707 47.2261C91.8644 47.502 92.2539 47.8104 92.6394 48.1513C93.029 48.4922 93.3881 48.8554 93.7168 49.2409C94.0455 49.6223 94.3296 50.018 94.569 50.4278C94.8084 50.8377 94.9809 51.2475 95.0864 51.6574C95.1189 51.7751 95.1412 51.8948 95.1534 52.0165C95.1655 52.1342 95.1716 52.2478 95.1716 52.3574C95.1716 52.7348 95.0986 53.0817 94.9525 53.3983C94.8064 53.7107 94.6015 53.9826 94.3377 54.2139C94.078 54.4412 93.7655 54.6177 93.4003 54.7435C93.0351 54.8693 92.6334 54.9322 92.1951 54.9322C92.1626 54.9322 92.1302 54.9301 92.0977 54.9261C92.0652 54.9261 92.0328 54.9261 92.0003 54.9261C91.7203 54.9261 91.4322 54.8957 91.136 54.8348C90.8438 54.778 90.5536 54.7009 90.2655 54.6035C89.9815 54.5061 89.7035 54.3925 89.4316 54.2626C89.1638 54.1328 88.9142 53.9968 88.6829 53.8548L89.4803 52.0226ZM98.8271 50.4035C98.9813 50.8417 99.1152 51.2699 99.2288 51.6878C99.2775 51.8704 99.3262 52.0612 99.3749 52.26C99.4236 52.4548 99.4662 52.6516 99.5027 52.8504C99.5433 53.0452 99.5758 53.238 99.6001 53.4287C99.6245 53.6154 99.6366 53.7899 99.6366 53.9522C99.6366 54.3336 99.5839 54.7049 99.4784 55.0661C99.3769 55.4313 99.2308 55.7843 99.0401 56.1252C98.8534 56.4661 98.6303 56.7928 98.3705 57.1052C98.1108 57.4217 97.8227 57.718 97.5062 57.9939C97.1897 58.2699 96.8508 58.5255 96.4897 58.7609C96.1285 59.0003 95.7552 59.2154 95.3697 59.4061L94.2619 57.8661C94.554 57.72 94.8503 57.5536 95.1505 57.367C95.4468 57.1843 95.7308 56.9875 96.0027 56.7765C96.2787 56.5655 96.5343 56.3443 96.7697 56.113C97.0091 55.8817 97.2161 55.6464 97.3905 55.407C97.5691 55.1675 97.7091 54.9241 97.8105 54.6765C97.912 54.433 97.9627 54.1936 97.9627 53.9583C97.9627 53.7878 97.9384 53.6032 97.8897 53.4043C97.845 53.2055 97.7821 52.9925 97.701 52.7652C97.6239 52.5339 97.5305 52.2904 97.421 52.0348C97.3114 51.7751 97.1937 51.4991 97.0679 51.207L98.8271 50.4035ZM100.516 54.8835C100.537 54.5507 100.557 54.2058 100.577 53.8487C100.597 53.4916 100.614 53.1386 100.626 52.7896C100.642 52.4406 100.652 52.1017 100.656 51.773C100.66 51.4443 100.656 51.142 100.644 50.8661C100.62 50.2899 100.595 49.7846 100.571 49.3504C100.551 48.9122 100.528 48.5246 100.504 48.1878C100.484 47.851 100.461 47.5568 100.437 47.3052C100.417 47.0496 100.394 46.8162 100.37 46.6052C100.346 46.3942 100.319 46.1974 100.291 46.0148C100.263 45.8281 100.232 45.6354 100.2 45.4365L102.081 44.8157C102.17 45.3594 102.241 45.9072 102.294 46.4591C102.35 47.011 102.393 47.5406 102.421 48.0478C102.45 48.551 102.468 49.0197 102.476 49.4539C102.488 49.8881 102.494 50.2594 102.494 50.5678C102.494 50.8478 102.492 51.1501 102.488 51.4748C102.488 51.7994 102.484 52.1362 102.476 52.4852C102.472 52.8342 102.464 53.1872 102.452 53.5443C102.44 53.9014 102.421 54.2504 102.397 54.5913L100.516 54.8835ZM108.032 54.8652C107.943 54.8652 107.817 54.8591 107.655 54.847C107.493 54.8348 107.318 54.7901 107.132 54.713C107.042 55.2162 106.874 55.693 106.626 56.1435C106.383 56.598 106.081 57.022 105.719 57.4157C105.358 57.8133 104.946 58.1786 104.484 58.5113C104.021 58.8441 103.528 59.1423 103.005 59.4061L101.891 57.8661C102.179 57.72 102.469 57.5597 102.761 57.3852C103.053 57.2148 103.331 57.0322 103.595 56.8374C103.863 56.6467 104.11 56.4458 104.338 56.2348C104.569 56.0278 104.77 55.8128 104.94 55.5896C105.111 55.3664 105.245 55.1371 105.342 54.9017C105.439 54.6704 105.488 54.4351 105.488 54.1957C105.488 54.1835 105.486 54.1652 105.482 54.1409C105.482 54.1165 105.482 54.0922 105.482 54.0678C105.482 54.0435 105.48 54.0252 105.476 54.013C105.476 54.0009 105.476 54.0029 105.476 54.0191V54.0252C105.448 53.7899 105.407 53.5646 105.354 53.3496C105.301 53.1345 105.235 52.9154 105.153 52.6922C105.076 52.469 104.985 52.2357 104.879 51.9922C104.774 51.7446 104.656 51.4748 104.526 51.1826L106.286 50.4157C106.448 50.9026 106.6 51.3084 106.742 51.633C106.884 51.9577 107.022 52.2174 107.156 52.4122C107.294 52.607 107.432 52.7449 107.57 52.8261C107.708 52.9032 107.854 52.9417 108.008 52.9417H108.039C108.172 52.9417 108.298 52.9681 108.416 53.0209C108.534 53.0736 108.635 53.1446 108.72 53.2339C108.81 53.3191 108.879 53.4206 108.927 53.5383C108.98 53.6559 109.006 53.7797 109.006 53.9096C109.006 54.0435 108.98 54.1693 108.927 54.287C108.879 54.4046 108.81 54.5061 108.72 54.5913C108.635 54.6765 108.534 54.7435 108.416 54.7922C108.298 54.8409 108.17 54.8652 108.032 54.8652ZM107 53.9035C107 53.7696 107.026 53.6438 107.079 53.5261C107.128 53.4084 107.197 53.307 107.286 53.2217C107.371 53.1325 107.475 53.0635 107.596 53.0148C107.714 52.9661 107.84 52.9417 107.974 52.9417C108.124 52.9417 108.308 52.9397 108.528 52.9357C108.751 52.9275 108.988 52.9154 109.24 52.8991C109.491 52.8829 109.747 52.8626 110.007 52.8383C110.27 52.8139 110.52 52.7814 110.755 52.7409C110.995 52.7003 111.21 52.6536 111.401 52.6009C111.595 52.5441 111.748 52.4791 111.857 52.4061C111.447 52.4507 111.07 52.469 110.725 52.4609C110.38 52.4487 110.072 52.4142 109.8 52.3574C109.528 52.3006 109.295 52.2235 109.1 52.1261C108.909 52.0246 108.763 51.909 108.661 51.7791V51.7852C108.552 51.6472 108.448 51.4626 108.351 51.2313C108.258 51 108.211 50.7139 108.211 50.373C108.211 50.1904 108.223 50.02 108.248 49.8617C108.369 49.1719 108.613 48.6017 108.978 48.1513L108.972 48.1574C109.191 47.8652 109.439 47.6481 109.715 47.5061C109.99 47.36 110.281 47.287 110.585 47.287C110.893 47.287 111.198 47.362 111.498 47.5122C111.798 47.6623 112.07 47.8652 112.314 48.1209C112.488 48.3197 112.644 48.5449 112.782 48.7965C112.924 49.0481 113.044 49.3159 113.141 49.6C113.243 49.8841 113.32 50.1803 113.373 50.4887C113.43 50.793 113.458 51.0994 113.458 51.4078C113.458 51.5012 113.456 51.5945 113.452 51.6878C113.448 51.7771 113.442 51.8623 113.434 51.9435C113.385 52.3655 113.277 52.7307 113.111 53.0391C112.945 53.3435 112.732 53.6032 112.472 53.8183C112.216 54.0333 111.922 54.2078 111.589 54.3417C111.257 54.4757 110.899 54.5812 110.518 54.6583C110.137 54.7354 109.737 54.7881 109.319 54.8165C108.905 54.8449 108.487 54.8612 108.065 54.8652H107.961C107.828 54.8652 107.702 54.8388 107.584 54.7861C107.466 54.7374 107.365 54.6704 107.28 54.5852C107.195 54.5 107.128 54.3986 107.079 54.2809C107.026 54.1632 107 54.0374 107 53.9035ZM110.573 49.2226C110.479 49.2186 110.384 49.247 110.287 49.3078C110.193 49.3646 110.106 49.4417 110.025 49.5391C109.948 49.6365 109.883 49.7481 109.83 49.8739C109.781 49.9997 109.757 50.1275 109.757 50.2574C109.757 50.371 109.784 50.4725 109.836 50.5617C109.865 50.6104 109.921 50.653 110.007 50.6896C110.096 50.722 110.199 50.7504 110.317 50.7748C110.439 50.7951 110.569 50.8133 110.707 50.8296C110.845 50.8417 110.977 50.8499 111.102 50.8539C111.228 50.858 111.342 50.858 111.443 50.8539C111.549 50.8499 111.626 50.8438 111.675 50.8357C111.638 50.653 111.589 50.4684 111.528 50.2817C111.472 50.0951 111.399 49.9246 111.309 49.7704C111.22 49.6162 111.115 49.4884 110.993 49.387C110.871 49.2855 110.731 49.2307 110.573 49.2226ZM112.764 45.3513L111.595 46.5261L110.439 45.3696L109.295 46.5139L108.114 45.3391L109.282 44.1643L110.439 45.3209L111.583 44.1765L112.764 45.3513Z" fill="#303030"/>
<defs>
<linearGradient id="paint0_linear_1325_9450" x1="4.96838" y1="5.2" x2="135.389" y2="64.7894" gradientUnits="userSpaceOnUse">
<stop stop-color="#EAEAEA"/>
<stop offset="1" stop-color="#BDBDBD"/>
</linearGradient>
</defs>
</svg>
