<svg width="136" height="76" viewBox="0 0 136 76" fill="none" xmlns="http://www.w3.org/2000/svg">
<rect x="1.53394" y="0.75" width="133.326" height="74.5" rx="9.25" fill="white" stroke="url(#paint0_linear_1325_8597)" stroke-width="1.5"/>
<path d="M53.8117 37.7818H48.5676C48.1604 37.7832 47.7636 37.9135 47.432 38.1549C47.1004 38.3963 46.8503 38.7368 46.7163 39.1295H45.336C44.939 39.1302 44.5516 39.2534 44.2244 39.4828C43.8972 39.7123 43.6455 40.0373 43.5023 40.4154C43.3411 40.4154 43.1824 40.4154 43.0187 40.4154C41.0243 40.459 39.067 40.9749 37.3011 41.9225L29.9513 45.8419L17.9618 38.5714C17.2276 38.129 16.3584 37.9813 15.5234 38.1572C14.6884 38.3331 13.9473 38.82 13.4445 39.523C12.9417 40.226 12.7131 41.095 12.8032 41.9606C12.8932 42.8263 13.2955 43.6268 13.9318 44.2062L26.8532 55.9158C27.8719 56.8562 29.1926 57.3832 30.5658 57.3971C30.8111 57.3971 31.0561 57.379 31.2988 57.3431C33.0947 57.0859 34.9863 56.533 36.8124 56.0032C39.0617 55.3525 41.3765 54.689 43.4217 54.5964C43.5232 55.0381 43.7676 55.432 44.1154 55.7144C44.4632 55.9967 44.8942 56.151 45.3385 56.1524H46.7188C46.8528 56.545 47.1029 56.8855 47.4345 57.1269C47.7661 57.3683 48.1629 57.4987 48.5701 57.5H53.8142C54.3364 57.4993 54.837 57.2872 55.2063 56.9102C55.5755 56.5332 55.7833 56.022 55.7839 55.4888V39.8007C55.7846 39.5358 55.7341 39.2734 55.6353 39.0285C55.5364 38.7836 55.3913 38.561 55.2081 38.3735C55.0249 38.1859 54.8072 38.0371 54.5676 37.9356C54.328 37.8341 54.0711 37.7818 53.8117 37.7818ZM36.5253 54.9745C34.7294 55.4888 32.8756 56.0315 31.1477 56.281C30.5007 56.3656 29.8433 56.3049 29.2217 56.1032C28.6 55.9016 28.0289 55.5637 27.5483 55.1133L14.632 43.4038C14.3865 43.1816 14.1887 42.9101 14.0507 42.6062C13.9128 42.3023 13.8379 41.9725 13.8305 41.6377C13.8232 41.3028 13.8837 40.97 14.0081 40.6601C14.1326 40.3502 14.3184 40.0699 14.5539 39.8367C14.9337 39.4718 15.4184 39.2413 15.9364 39.1792C16.4544 39.1172 16.9782 39.2269 17.4304 39.4921L28.8657 46.436L28.8052 46.4695C28.1673 46.8194 27.6916 47.4137 27.4828 48.1217C27.3794 48.4723 27.3447 48.8403 27.3805 49.2046C27.4164 49.5688 27.5222 49.9223 27.6919 50.2449C27.8616 50.5674 28.0918 50.8527 28.3695 51.0844C28.6472 51.316 28.9668 51.4896 29.3101 51.5952C30.0036 51.8084 30.7515 51.7315 31.3895 51.3816L40.1649 46.4232C40.2253 46.3894 40.2786 46.3438 40.3217 46.289C40.3648 46.2342 40.3969 46.1713 40.4162 46.1038C40.4355 46.0364 40.4416 45.9657 40.4341 45.8958C40.4267 45.8259 40.4058 45.7583 40.3727 45.6966C40.3397 45.635 40.295 45.5806 40.2414 45.5366C40.1877 45.4926 40.1261 45.4598 40.06 45.4401C39.9939 45.4204 39.9247 45.4141 39.8563 45.4218C39.7878 45.4294 39.7215 45.4507 39.6612 45.4844L30.8782 50.4326C30.5354 50.6234 30.1384 50.6869 29.7549 50.6123C29.3715 50.5378 29.0251 50.3297 28.775 50.0237C28.6137 49.8275 28.4975 49.597 28.4349 49.3489C28.3722 49.1009 28.3648 48.8417 28.4131 48.5904C28.4614 48.339 28.5643 48.1019 28.7141 47.8965C28.8638 47.691 29.0568 47.5224 29.2787 47.403L37.7696 42.8663C39.3929 41.991 41.1935 41.5138 43.0288 41.4724C43.1396 41.4724 43.2479 41.4724 43.3562 41.4724V53.5162C41.2002 53.6243 38.8275 54.3058 36.5253 54.9745ZM44.4141 54.1386V41.1406C44.4141 40.891 44.5113 40.6516 44.6841 40.475C44.857 40.2985 45.0915 40.1994 45.336 40.1994H46.5954V55.0825H45.336C45.0913 55.0818 44.8568 54.9821 44.684 54.8051C44.5112 54.6282 44.4141 54.3885 44.4141 54.1386ZM54.7411 55.4863C54.7405 55.7357 54.6431 55.9747 54.4704 56.1511C54.2977 56.3275 54.0636 56.4269 53.8193 56.4275H48.5676C48.3231 56.4275 48.0886 56.3284 47.9157 56.1519C47.7429 55.9753 47.6457 55.7359 47.6457 55.4863V39.7981C47.6464 39.5487 47.7437 39.3097 47.9165 39.1333C48.0892 38.9569 48.3233 38.8575 48.5676 38.8569H53.8117C54.056 38.8575 54.2901 38.9569 54.4628 39.1333C54.6356 39.3097 54.7329 39.5487 54.7336 39.7981L54.7411 55.4863ZM49.5928 48.2234C49.3153 48.2234 49.044 48.3075 48.8133 48.4649C48.5826 48.6223 48.4028 48.846 48.2966 49.1077C48.1904 49.3695 48.1626 49.6575 48.2167 49.9354C48.2709 50.2133 48.4045 50.4685 48.6007 50.6689C48.7969 50.8692 49.0469 51.0056 49.319 51.0609C49.5912 51.1162 49.8733 51.0878 50.1296 50.9794C50.386 50.871 50.6051 50.6874 50.7593 50.4518C50.9134 50.2162 50.9957 49.9393 50.9957 49.6559C50.9957 49.276 50.8479 48.9117 50.5848 48.643C50.3217 48.3744 49.9648 48.2234 49.5928 48.2234ZM49.5928 50.0237C49.523 50.0237 49.4548 50.0026 49.3968 49.963C49.3389 49.9235 49.2937 49.8672 49.267 49.8014C49.2403 49.7357 49.2333 49.6633 49.2469 49.5934C49.2605 49.5236 49.2941 49.4594 49.3434 49.4091C49.3927 49.3587 49.4556 49.3244 49.524 49.3105C49.5924 49.2966 49.6633 49.3038 49.7277 49.331C49.7921 49.3583 49.8472 49.4044 49.886 49.4636C49.9247 49.5228 49.9454 49.5924 49.9454 49.6637C49.9454 49.7591 49.9082 49.8507 49.8421 49.9183C49.776 49.9858 49.6863 50.0237 49.5928 50.0237ZM49.5928 52.2329C49.3152 52.2329 49.0438 52.317 48.813 52.4745C48.5823 52.632 48.4025 52.8559 48.2963 53.1178C48.1902 53.3797 48.1626 53.6679 48.2169 53.9458C48.2713 54.2238 48.4051 54.479 48.6016 54.6793C48.7981 54.8795 49.0483 55.0157 49.3206 55.0707C49.5929 55.1257 49.8751 55.097 50.1314 54.9881C50.3877 54.8793 50.6066 54.6953 50.7605 54.4594C50.9144 54.2235 50.9962 53.9463 50.9957 53.6628C50.9974 53.4738 50.9623 53.2862 50.8925 53.1111C50.8227 52.9359 50.7196 52.7767 50.5891 52.6425C50.4587 52.5083 50.3034 52.4019 50.1324 52.3294C49.9614 52.2569 49.7779 52.2197 49.5928 52.22V52.2329ZM49.5928 54.0332C49.523 54.0332 49.4548 54.0121 49.3968 53.9725C49.3389 53.9329 49.2937 53.8767 49.267 53.8109C49.2403 53.7451 49.2333 53.6727 49.2469 53.6029C49.2605 53.533 49.2941 53.4689 49.3434 53.4185C49.3927 53.3682 49.4556 53.3339 49.524 53.32C49.5924 53.3061 49.6633 53.3132 49.7277 53.3405C49.7921 53.3677 49.8472 53.4139 49.886 53.4731C49.9247 53.5323 49.9454 53.6019 49.9454 53.6731C49.9396 53.7646 49.8999 53.8503 49.8344 53.9129C49.7689 53.9755 49.6825 54.0102 49.5928 54.01V54.0332ZM43.1371 25.9026C43.1381 25.7948 43.1182 25.6878 43.0786 25.5878C43.0389 25.4879 42.9803 25.3969 42.9061 25.3202C42.8319 25.2435 42.7435 25.1825 42.6462 25.1408C42.5488 25.099 42.4443 25.0774 42.3387 25.077C41.9763 25.0785 41.6249 24.9504 41.3454 24.7151C41.0658 24.4797 40.8758 24.1519 40.8082 23.7884C40.7405 23.4249 40.7997 23.0488 40.9752 22.7251C41.1508 22.4015 41.4318 22.1508 41.7694 22.0166L41.8651 21.978V21.7105C41.8651 21.6082 41.9049 21.5101 41.9758 21.4377C42.0466 21.3654 42.1427 21.3247 42.2429 21.3247C42.3431 21.3247 42.4392 21.3654 42.5101 21.4377C42.581 21.5101 42.6208 21.6082 42.6208 21.7105V21.9368L42.7341 21.9677C43.0672 22.0573 43.3617 22.2577 43.571 22.537C43.7803 22.8164 43.8927 23.159 43.8902 23.5108C43.8902 23.6131 43.8504 23.7112 43.7796 23.7836C43.7087 23.8559 43.6126 23.8966 43.5124 23.8966C43.4122 23.8966 43.3161 23.8559 43.2452 23.7836C43.1744 23.7112 43.1346 23.6131 43.1346 23.5108C43.1386 23.3486 43.0951 23.1889 43.0098 23.0521C42.9244 22.9153 42.801 22.8076 42.6553 22.7428C42.5097 22.678 42.3484 22.6591 42.1922 22.6884C42.0359 22.7177 41.8917 22.7939 41.7782 22.9073C41.6646 23.0207 41.5867 23.1662 41.5545 23.325C41.5223 23.4839 41.5373 23.6489 41.5974 23.7991C41.6576 23.9492 41.7603 24.0776 41.8923 24.1678C42.0244 24.258 42.1798 24.3059 42.3387 24.3055C42.7162 24.3047 43.0811 24.4444 43.365 24.6986C43.6488 24.9528 43.8322 25.3039 43.8807 25.6862C43.9292 26.0685 43.8395 26.4558 43.6284 26.7754C43.4174 27.095 43.0994 27.3251 42.7341 27.4225L42.6208 27.4534V27.6489C42.6208 27.7512 42.581 27.8493 42.5101 27.9216C42.4392 27.994 42.3431 28.0346 42.2429 28.0346C42.1427 28.0346 42.0466 27.994 41.9758 27.9216C41.9049 27.8493 41.8651 27.7512 41.8651 27.6489V27.4174L41.7694 27.3788C41.4787 27.2635 41.229 27.061 41.0532 26.7979C40.8774 26.5349 40.7837 26.2236 40.7846 25.9052C40.7846 25.8028 40.8244 25.7047 40.8952 25.6324C40.9661 25.56 41.0622 25.5194 41.1624 25.5194C41.2626 25.5194 41.3587 25.56 41.4295 25.6324C41.5004 25.7047 41.5402 25.8028 41.5402 25.9052C41.5402 26.1214 41.6243 26.3287 41.7741 26.4816C41.9238 26.6345 42.1269 26.7204 42.3387 26.7204C42.5504 26.7204 42.7535 26.6345 42.9032 26.4816C43.053 26.3287 43.1371 26.1214 43.1371 25.9052V25.9026ZM42.3387 32.8465C43.9217 32.846 45.4691 32.3662 46.7851 31.4678C48.1012 30.5694 49.1268 29.2928 49.7322 27.7992C50.3377 26.3057 50.4959 24.6624 50.1867 23.0772C49.8776 21.4919 49.115 20.0358 47.9954 18.893C46.8758 17.7502 45.4495 16.972 43.8968 16.6569C42.3442 16.3417 40.7348 16.5037 39.2723 17.1224C37.8098 17.7411 36.5597 18.7887 35.6803 20.1327C34.8008 21.4767 34.3314 23.0568 34.3314 24.6733C34.3328 26.8414 35.1767 28.9205 36.678 30.4538C38.1793 31.9872 40.2152 32.8496 42.3387 32.8517V32.8465ZM42.3387 17.5699C43.7146 17.5699 45.0596 17.9865 46.2037 18.767C47.3477 19.5475 48.2394 20.6569 48.766 21.9549C49.2925 23.2529 49.4303 24.6811 49.1619 26.0591C48.8934 27.437 48.2309 28.7027 47.2579 29.6961C46.285 30.6895 45.0454 31.3661 43.6959 31.6401C42.3464 31.9142 40.9476 31.7736 39.6764 31.2359C38.4052 30.6983 37.3186 29.7878 36.5542 28.6197C35.7898 27.4515 35.3818 26.0782 35.3818 24.6733C35.3851 22.7908 36.1193 20.9866 37.4234 19.656C38.7275 18.3254 40.4951 17.5771 42.3387 17.575V17.5699ZM38.2431 29.2202C38.4794 29.4381 38.732 29.6368 38.9987 29.8143L39.0516 29.8478C39.4101 30.0848 39.7927 30.2814 40.1926 30.4341C40.3438 30.4933 40.4999 30.5473 40.6561 30.591C41.2048 30.7578 41.7738 30.8444 42.3462 30.8482C42.7369 30.8487 43.1266 30.8099 43.5099 30.7325C44.8898 30.4672 46.1354 29.7176 47.031 28.6133C47.9267 27.5091 48.4159 26.1198 48.414 24.6861C48.4102 24.105 48.3254 23.5274 48.1621 22.9707C48.1167 22.8087 48.0639 22.6518 48.0059 22.4975C47.8605 22.1009 47.6721 21.7222 47.4442 21.3685L47.3989 21.2939C47.2226 21.0213 47.0255 20.7633 46.8095 20.5223C46.744 20.4478 46.6735 20.3757 46.6055 20.3063C46.0033 19.6966 45.2813 19.2241 44.4872 18.9201C44.2975 18.8462 44.1041 18.7827 43.9079 18.7298C43.3943 18.59 42.8651 18.5191 42.3336 18.5189C41.4054 18.5155 40.489 18.7303 39.6552 19.1468C38.8215 19.5633 38.0929 20.1702 37.5258 20.9205C36.9588 21.6708 36.5686 22.5444 36.3855 23.4735C36.2024 24.4025 36.2313 25.3622 36.4699 26.2781C36.5222 26.4786 36.5853 26.6761 36.6588 26.8696C36.9601 27.6766 37.4254 28.4094 38.024 29.0196C38.0995 29.0916 38.1726 29.1611 38.2431 29.2254V29.2202ZM37.4875 25.9926C37.3735 25.5625 37.3159 25.1188 37.3162 24.6733C37.3235 23.3195 37.8564 22.024 38.7979 21.0708C39.7395 20.1176 41.0128 19.5847 42.3387 19.5888C42.7782 19.5888 43.2158 19.6468 43.6409 19.7611C43.8046 19.8074 43.9658 19.8588 44.122 19.9205C44.7832 20.1698 45.3844 20.561 45.8851 21.0676L46.0539 21.245C46.2298 21.4412 46.3906 21.651 46.5349 21.8725C46.5459 21.8874 46.556 21.9028 46.5652 21.9188C46.7575 22.2182 46.9171 22.5381 47.0412 22.873C47.0891 22.999 47.1319 23.1302 47.1697 23.2613C47.3006 23.7218 47.3668 24.1989 47.3661 24.6784C47.3692 25.8638 46.9651 27.0127 46.2241 27.9253C45.4832 28.8379 44.4523 29.4563 43.3109 29.6729C42.5253 29.8268 41.7153 29.7907 40.9458 29.5674C40.8173 29.5289 40.6939 29.4851 40.5629 29.4363C40.2141 29.3073 39.8804 29.1391 39.568 28.9348C39.348 28.7798 39.14 28.6078 38.9458 28.4204L38.7746 28.2532C38.2788 27.7492 37.8933 27.1435 37.6436 26.4761C37.5857 26.3269 37.5328 26.1649 37.49 25.9977L37.4875 25.9926ZM27.9161 33.9344C27.9161 33.7179 27.832 33.5103 27.6824 33.357C27.5327 33.2037 27.3296 33.1172 27.1176 33.1166C26.7555 33.1174 26.4045 32.9889 26.1254 32.7534C25.8463 32.5178 25.6567 32.1899 25.5894 31.8266C25.5222 31.4633 25.5815 31.0874 25.7571 30.7641C25.9326 30.4407 26.2135 30.1903 26.5509 30.0561L26.6466 30.0175V29.7475C26.6466 29.6452 26.6864 29.547 26.7573 29.4747C26.8281 29.4023 26.9242 29.3617 27.0244 29.3617C27.1246 29.3617 27.2207 29.4023 27.2916 29.4747C27.3624 29.547 27.4023 29.6452 27.4023 29.7475V29.9635L27.5156 29.9944C27.8492 30.0835 28.1442 30.2836 28.354 30.5631C28.5639 30.8425 28.6765 31.1853 28.6742 31.5375C28.6742 31.6398 28.6344 31.7379 28.5636 31.8102C28.4927 31.8826 28.3966 31.9232 28.2964 31.9232C28.1962 31.9232 28.1001 31.8826 28.0293 31.8102C27.9584 31.7379 27.9186 31.6398 27.9186 31.5375C27.9186 31.3762 27.8718 31.2186 27.784 31.0845C27.6963 30.9504 27.5716 30.8459 27.4257 30.7842C27.2798 30.7225 27.1193 30.7064 26.9644 30.7378C26.8095 30.7693 26.6672 30.847 26.5556 30.961C26.4439 31.075 26.3678 31.2203 26.337 31.3784C26.3062 31.5365 26.322 31.7005 26.3825 31.8494C26.4429 31.9984 26.5452 32.1257 26.6766 32.2153C26.8079 32.3049 26.9622 32.3527 27.1201 32.3527C27.4977 32.3519 27.8626 32.4917 28.1464 32.7458C28.4303 33 28.6137 33.3511 28.6622 33.7334C28.7107 34.1157 28.621 34.503 28.4099 34.8226C28.1989 35.1423 27.8809 35.3723 27.5156 35.4698L27.4023 35.5006V35.6832C27.4023 35.7855 27.3624 35.8837 27.2916 35.956C27.2207 36.0284 27.1246 36.069 27.0244 36.069C26.9242 36.069 26.8281 36.0284 26.7573 35.956C26.6864 35.8837 26.6466 35.7855 26.6466 35.6832V35.4518L26.5509 35.4132C26.2595 35.2986 26.0091 35.0963 25.8328 34.8331C25.6565 34.57 25.5626 34.2584 25.5635 33.9395C25.5635 33.8372 25.6033 33.7391 25.6742 33.6667C25.7451 33.5944 25.8412 33.5538 25.9414 33.5538C26.0416 33.5538 26.1377 33.5944 26.2085 33.6667C26.2794 33.7391 26.3192 33.8372 26.3192 33.9395C26.3192 34.1558 26.4033 34.3631 26.553 34.516C26.7028 34.6689 26.9059 34.7548 27.1176 34.7548C27.3294 34.7548 27.5325 34.6689 27.6822 34.516C27.832 34.3631 27.9161 34.1558 27.9161 33.9395V33.9344ZM27.1176 40.8783C28.7013 40.8788 30.2496 40.3996 31.5665 39.5014C32.8834 38.6032 33.9098 37.3263 34.5158 35.8322C35.1217 34.3382 35.28 32.6942 34.9706 31.1083C34.6612 29.5224 33.898 28.0659 32.7776 26.923C31.6573 25.7801 30.23 25.0022 28.6765 24.6878C27.123 24.3734 25.5131 24.5366 24.0505 25.1567C22.5878 25.7768 21.3382 26.826 20.4598 28.1715C19.5813 29.517 19.1135 31.0983 19.1154 32.7153C19.1174 34.8824 19.9614 36.9601 21.4622 38.4925C22.9629 40.0248 24.9978 40.8866 27.1201 40.8886L27.1176 40.8783ZM27.1176 25.6017C28.4937 25.5991 29.8396 26.0133 30.985 26.7919C32.1305 27.5704 33.0242 28.6783 33.553 29.9754C34.0817 31.2726 34.2219 32.7007 33.9557 34.0792C33.6895 35.4577 33.0289 36.7246 32.0575 37.7197C31.0861 38.7148 29.8474 39.3934 28.4982 39.6697C27.1491 39.946 25.7499 39.8076 24.4778 39.2719C23.2057 38.7362 22.1178 37.8274 21.3516 36.6603C20.5854 35.4932 20.1753 34.1204 20.1733 32.7153C20.1753 30.8338 20.9075 29.0298 22.2096 27.6984C23.5117 26.367 25.2774 25.6167 27.1201 25.612L27.1176 25.6017ZM23.0246 37.2623C23.2607 37.4797 23.5134 37.6775 23.7802 37.8538L23.8382 37.8899C24.1902 38.1257 24.5659 38.3223 24.959 38.4762C25.1102 38.5354 25.2663 38.5894 25.4225 38.6331C25.9711 38.7999 26.5402 38.8865 27.1126 38.8903C27.5033 38.8909 27.8931 38.8521 28.2763 38.7746C29.6597 38.5105 30.9087 37.7597 31.8061 36.6526C32.7035 35.5456 33.1924 34.1524 33.1879 32.7153C33.19 32.1324 33.1103 31.5521 32.9511 30.9922C32.9058 30.8302 32.8529 30.6733 32.795 30.519C32.647 30.1236 32.4588 29.7452 32.2333 29.39L32.1879 29.3154C32.011 29.0426 31.8131 28.7846 31.596 28.5438C31.528 28.4693 31.4625 28.3998 31.392 28.3304C30.7905 27.7198 30.0683 27.2472 29.2737 26.9442C29.0842 26.8699 28.8908 26.8064 28.6944 26.7539C27.797 26.5088 26.8566 26.4771 25.9453 26.6614C25.0341 26.8457 24.1765 27.2409 23.4383 27.8167C22.7002 28.3925 22.1013 29.1336 21.6876 29.9828C21.274 30.8321 21.0567 31.7669 21.0524 32.7153C21.0509 33.2548 21.1204 33.7919 21.2589 34.3124C21.3118 34.5131 21.3748 34.7111 21.4453 34.904C21.7472 35.7121 22.2134 36.4457 22.813 37.0566C22.8836 37.1286 22.9566 37.198 23.0246 37.2623ZM22.269 34.0347C22.155 33.6046 22.0974 33.1609 22.0977 32.7153C22.1037 31.3607 22.636 30.0638 23.5777 29.1096C24.5193 28.1553 25.7934 27.6216 27.1201 27.6257C27.5605 27.6259 27.999 27.6838 28.4249 27.798C28.5886 27.8443 28.7473 27.8958 28.9035 27.9575C29.5647 28.2068 30.1659 28.5979 30.6666 29.1045C30.7245 29.1637 30.7825 29.2228 30.8354 29.282C31.0213 29.4919 31.1898 29.7173 31.3391 29.9558C31.5303 30.2553 31.6906 30.5742 31.8177 30.9074C31.863 31.0359 31.9058 31.1645 31.9436 31.2983C32.0755 31.7586 32.1425 32.2357 32.1426 32.7153C32.142 33.9005 31.7359 35.0483 30.9946 35.9602C30.2532 36.8722 29.2231 37.491 28.0823 37.7098C27.2959 37.8647 26.4849 37.8286 25.7147 37.6044C25.5837 37.5658 25.4628 37.5221 25.3318 37.4732C24.9874 37.3397 24.6588 37.1672 24.352 36.9589C24.1297 36.8105 23.9191 36.6446 23.7223 36.4625L23.551 36.2953C23.056 35.7906 22.6707 35.1851 22.4201 34.5182C22.3672 34.3639 22.3168 34.2044 22.2715 34.0347H22.269Z" fill="#303030"/>
<path d="M75.1841 29.513C74.6079 29.513 74.1128 29.4359 73.6989 29.2817C73.285 29.1235 72.9563 28.9023 72.7128 28.6183C72.5708 28.4357 72.4673 28.2388 72.4024 28.0278C72.3415 27.8128 72.3111 27.6078 72.3111 27.413C72.3111 27.2426 72.3253 27.0884 72.3537 26.9504C72.3821 26.8125 72.4166 26.6948 72.4572 26.5974C72.6195 26.2565 72.8183 25.9583 73.0537 25.7026C73.2931 25.447 73.5406 25.2258 73.7963 25.0391C74.056 24.8484 74.3116 24.6901 74.5632 24.5643C74.8189 24.4386 75.0461 24.3351 75.245 24.2539C75.2369 24.1606 75.2287 24.0652 75.2206 23.9678C75.2166 23.8704 75.2105 23.7771 75.2024 23.6878L75.1719 23.3043L77.0711 22.8965C77.0751 22.933 77.0832 23.0183 77.0954 23.1522C77.1116 23.2861 77.1279 23.4464 77.1441 23.633C77.1644 23.8157 77.1847 24.0125 77.205 24.2235C77.2293 24.4304 77.2496 24.6252 77.2658 24.8078C77.2861 24.9904 77.3024 25.1487 77.3145 25.2826C77.3308 25.4165 77.3409 25.4977 77.345 25.5261C77.4058 26.0252 77.4566 26.4351 77.4972 26.7557C77.5418 27.0762 77.5783 27.3319 77.6067 27.5226C77.6392 27.7093 77.6656 27.8452 77.6858 27.9304C77.7061 28.0116 77.7224 28.0664 77.7345 28.0948C77.7954 28.2246 77.8867 28.3159 78.0085 28.3687C78.1343 28.4174 78.3006 28.4417 78.5076 28.4417C78.6374 28.4417 78.7612 28.4661 78.8789 28.5148C78.9966 28.5635 79.098 28.6325 79.1832 28.7217C79.2725 28.807 79.3435 28.9084 79.3963 29.0261C79.449 29.1438 79.4754 29.2696 79.4754 29.4035C79.4754 29.5374 79.449 29.6632 79.3963 29.7809C79.3435 29.8986 79.2725 30 79.1832 30.0852C79.098 30.1704 78.9966 30.2374 78.8789 30.2861C78.7612 30.3388 78.6374 30.3652 78.5076 30.3652C78.4224 30.3652 78.327 30.3612 78.2215 30.353C78.116 30.349 78.0044 30.3368 77.8867 30.3165C77.7731 30.3003 77.6534 30.2739 77.5276 30.2374C77.4058 30.2049 77.2841 30.1603 77.1624 30.1035C76.9919 30.0223 76.8418 29.931 76.7119 29.8296C76.5861 29.7241 76.4644 29.5922 76.3467 29.4339C76.1398 29.4623 75.9389 29.4826 75.7441 29.4948C75.5534 29.507 75.3667 29.513 75.1841 29.513ZM75.1476 27.6017C75.2328 27.6017 75.32 27.5997 75.4093 27.5957C75.5027 27.5875 75.5919 27.5794 75.6772 27.5713C75.6569 27.4333 75.6345 27.2791 75.6102 27.1087C75.5899 26.9383 75.5696 26.7557 75.5493 26.5609L75.4885 26.0009C75.3343 26.078 75.1618 26.1713 74.9711 26.2809C74.7803 26.3864 74.5998 26.5 74.4293 26.6217C74.2629 26.7394 74.1229 26.8612 74.0093 26.987C73.8957 27.1087 73.8389 27.2223 73.8389 27.3278C73.8389 27.3806 73.8835 27.4252 73.9728 27.4617C74.0661 27.4942 74.1798 27.5226 74.3137 27.547C74.4476 27.5672 74.5896 27.5814 74.7398 27.5896C74.8899 27.5977 75.0258 27.6017 75.1476 27.6017ZM77.5419 29.4035C77.5419 29.2696 77.5663 29.1438 77.615 29.0261C77.6637 28.9084 77.7326 28.807 77.8219 28.7217C77.9071 28.6365 78.0086 28.5696 78.1263 28.5209C78.244 28.4681 78.3697 28.4417 78.5037 28.4417H78.6071C79.1712 28.4417 79.5973 28.3525 79.8854 28.1739C80.1735 27.9913 80.3176 27.7154 80.3176 27.3461C80.3176 27.273 80.3176 27.2081 80.3176 27.1513C80.3216 27.0945 80.3155 27.0214 80.2993 26.9322C80.2871 26.8388 80.2608 26.7191 80.2202 26.573C80.1837 26.4229 80.1269 26.218 80.0497 25.9583L81.7845 25.5383C81.8697 25.7817 81.9448 26.0557 82.0097 26.36C82.0747 26.6603 82.1071 26.989 82.1071 27.3461C82.1071 27.4638 82.1173 27.5875 82.1376 27.7174C82.1619 27.8432 82.1984 27.9609 82.2471 28.0704C82.2999 28.1759 82.3689 28.2652 82.4541 28.3383C82.5434 28.4072 82.655 28.4417 82.7889 28.4417C82.9187 28.4417 83.0425 28.4681 83.1602 28.5209C83.2779 28.5696 83.3793 28.6365 83.4645 28.7217C83.5538 28.807 83.6248 28.9084 83.6776 29.0261C83.7303 29.1438 83.7567 29.2696 83.7567 29.4035C83.7567 29.5374 83.7303 29.6632 83.6776 29.7809C83.6289 29.8986 83.5599 30 83.4706 30.0852C83.3813 30.1745 83.2779 30.2435 83.1602 30.2922C83.0466 30.3409 82.9248 30.3652 82.795 30.3652C82.4054 30.3652 82.0726 30.3084 81.7967 30.1948C81.5208 30.0852 81.2834 29.9371 81.0845 29.7504C80.7924 29.9614 80.4434 30.1157 80.0376 30.213C79.6358 30.3145 79.159 30.3652 78.6071 30.3652H78.5037C78.3697 30.3652 78.244 30.3409 78.1263 30.2922C78.0086 30.2435 77.9071 30.1745 77.8219 30.0852C77.7326 30 77.6637 29.8986 77.615 29.7809C77.5663 29.6632 77.5419 29.5374 77.5419 29.4035ZM80.8411 30.8278L82.1924 32.1791L80.8411 33.5304L79.4897 32.1791L80.8411 30.8278ZM81.9534 29.4096C81.9534 29.2838 81.9778 29.1641 82.0265 29.0504C82.0752 28.9368 82.1401 28.8374 82.2213 28.7522C82.3024 28.6629 82.3998 28.5919 82.5134 28.5391C82.623 28.4823 82.7407 28.4499 82.8665 28.4417C83.1708 28.4417 83.4265 28.3606 83.6334 28.1983C83.8445 28.0319 84.025 27.8148 84.1752 27.547C84.3253 27.2791 84.4532 26.9748 84.5587 26.6339C84.6642 26.289 84.7636 25.938 84.8569 25.5809L86.4761 25.873C86.4436 26.0151 86.403 26.1814 86.3543 26.3722C86.3097 26.5588 86.2671 26.7536 86.2265 26.9565C86.19 27.1594 86.1595 27.3583 86.1352 27.553C86.1108 27.7438 86.1047 27.9122 86.1169 28.0583C86.1332 28.2043 86.1717 28.32 86.2326 28.4052C86.2934 28.4864 86.3868 28.5168 86.5126 28.4965C86.6749 28.4843 86.821 28.4275 86.9508 28.3261C87.0847 28.2246 87.2045 28.0948 87.31 27.9365C87.4155 27.7783 87.5088 27.5997 87.59 27.4009C87.6711 27.202 87.7401 26.9971 87.7969 26.7861C87.8578 26.5751 87.9065 26.3661 87.943 26.1591C87.9836 25.9522 88.0161 25.7635 88.0404 25.593L89.5865 25.8548C89.5824 25.9765 89.5682 26.1267 89.5439 26.3052C89.5195 26.4838 89.4972 26.6725 89.4769 26.8713C89.4566 27.0661 89.4465 27.2629 89.4465 27.4617C89.4465 27.6565 89.4688 27.833 89.5134 27.9913C89.5581 28.1455 89.6311 28.2713 89.7326 28.3687C89.8381 28.4661 89.9842 28.5148 90.1708 28.5148C90.2845 28.5148 90.4001 28.4965 90.5178 28.46C90.6355 28.4194 90.741 28.3646 90.8343 28.2957C90.9276 28.2226 91.0027 28.1374 91.0595 28.04C91.1204 27.9426 91.1508 27.833 91.1508 27.7113C91.1508 27.5003 91.1163 27.269 91.0474 27.0174C90.9784 26.7617 90.8952 26.5101 90.7978 26.2626C90.7004 26.011 90.5969 25.7736 90.4874 25.5504C90.3819 25.3272 90.2926 25.1386 90.2195 24.9843L91.7291 24.1383C91.7534 24.191 91.7961 24.2843 91.8569 24.4183C91.9178 24.5481 91.9868 24.7064 92.0639 24.893C92.141 25.0797 92.2201 25.2907 92.3013 25.5261C92.3865 25.7574 92.4636 25.9988 92.5326 26.2504C92.6016 26.502 92.6584 26.7597 92.703 27.0235C92.7476 27.2872 92.77 27.5429 92.77 27.7904C92.77 28.1962 92.7132 28.5614 92.5995 28.8861C92.49 29.2107 92.3216 29.4867 92.0943 29.7139C91.8711 29.9412 91.5891 30.1177 91.2482 30.2435C90.9114 30.3693 90.5158 30.4342 90.0613 30.4383C89.8421 30.4383 89.6433 30.4159 89.4647 30.3713C89.2862 30.3307 89.1259 30.2719 88.9839 30.1948C88.8419 30.1217 88.714 30.0345 88.6004 29.933C88.4908 29.8316 88.3934 29.7241 88.3082 29.6104C88.2108 29.7362 88.1053 29.8499 87.9917 29.9513C87.8821 30.0487 87.7543 30.1319 87.6082 30.2009C87.4662 30.2739 87.3059 30.3307 87.1274 30.3713C86.9488 30.4119 86.7459 30.4342 86.5187 30.4383C86.3198 30.4423 86.1392 30.4241 85.9769 30.3835C85.8187 30.347 85.6726 30.2922 85.5387 30.2191C85.4047 30.1461 85.283 30.0588 85.1734 29.9574C85.0679 29.8519 84.9685 29.7362 84.8752 29.6104C84.79 29.7159 84.6926 29.8154 84.583 29.9087C84.4734 29.998 84.3436 30.0771 84.1934 30.1461C84.0433 30.2151 83.8688 30.2699 83.67 30.3104C83.4711 30.351 83.2398 30.3713 82.9761 30.3713H82.8665C82.7407 30.3632 82.623 30.3328 82.5134 30.28C82.3998 30.2272 82.3024 30.1583 82.2213 30.073C82.1401 29.9878 82.0752 29.8884 82.0265 29.7748C81.9778 29.6612 81.9534 29.5394 81.9534 29.4096ZM96.6285 30.3652C96.1294 30.3652 95.7013 30.3023 95.3442 30.1765C94.9871 30.0548 94.6787 29.8661 94.419 29.6104C94.2567 29.4481 94.1309 29.2777 94.0416 29.0991C93.9564 28.9206 93.8935 28.7461 93.8529 28.5757C93.8164 28.4012 93.7941 28.2368 93.7859 28.0826C93.7819 27.9284 93.7799 27.7965 93.7799 27.687V27.5957C93.7839 27.4455 93.788 27.2304 93.792 26.9504C93.8001 26.6664 93.8042 26.3336 93.8042 25.9522C93.8042 25.5707 93.8022 25.1507 93.7981 24.6922C93.7941 24.2336 93.7819 23.7771 93.7616 23.3226C93.7454 22.8641 93.719 22.4238 93.6825 22.0017C93.65 21.5797 93.6033 21.2125 93.5425 20.9L95.3625 20.3461C95.4152 20.6139 95.4578 20.9304 95.4903 21.2957C95.5228 21.6568 95.5491 22.0362 95.5694 22.4339C95.5938 22.8316 95.61 23.2313 95.6181 23.633C95.6303 24.0348 95.6384 24.4081 95.6425 24.753C95.6465 25.0574 95.6343 25.3557 95.6059 25.6478C95.5816 25.9359 95.5613 26.22 95.5451 26.5C95.5288 26.7759 95.5288 27.0458 95.5451 27.3096C95.5654 27.5693 95.6222 27.8229 95.7155 28.0704C95.752 28.1638 95.7967 28.2348 95.8494 28.2835C95.9062 28.3322 95.9712 28.3687 96.0442 28.393C96.1172 28.4133 96.1964 28.4255 96.2816 28.4296C96.3709 28.4336 96.4683 28.4357 96.5738 28.4357H96.6285C96.7584 28.4357 96.8822 28.462 96.9999 28.5148C97.1175 28.5675 97.219 28.6386 97.3042 28.7278C97.3935 28.813 97.4645 28.9145 97.5172 29.0322C97.57 29.1499 97.5964 29.2736 97.5964 29.4035C97.5964 29.5374 97.57 29.6632 97.5172 29.7809C97.4645 29.8986 97.3935 30 97.3042 30.0852C97.219 30.1745 97.1175 30.2435 96.9999 30.2922C96.8822 30.3409 96.7584 30.3652 96.6285 30.3652ZM95.6511 29.4096C95.6511 29.2797 95.6774 29.1559 95.7302 29.0383C95.7789 28.9206 95.8479 28.8191 95.9372 28.7339C96.0224 28.6446 96.1238 28.5736 96.2415 28.5209C96.3592 28.4681 96.485 28.4417 96.6189 28.4417H97.7328C98.1792 28.4417 98.6601 28.3991 99.1754 28.3139C99.6908 28.2246 100.206 28.109 100.722 27.967C101.241 27.8249 101.742 27.6667 102.225 27.4922C102.712 27.3136 103.148 27.133 103.534 26.9504C103.282 26.8896 103.002 26.8043 102.694 26.6948C102.385 26.5852 102.073 26.4777 101.756 26.3722C101.44 26.2667 101.131 26.1774 100.831 26.1043C100.535 26.0272 100.269 25.9907 100.034 25.9948C99.8835 25.9988 99.7374 26.0313 99.5954 26.0922C99.4574 26.149 99.3276 26.222 99.2059 26.3113C99.0882 26.3965 98.9806 26.4899 98.8832 26.5913C98.7899 26.6887 98.7088 26.782 98.6398 26.8713C98.5708 26.9565 98.516 27.0296 98.4754 27.0904C98.4389 27.1472 98.4206 27.1757 98.4206 27.1757L96.978 26.3478C97.1403 26.0475 97.3351 25.7594 97.5624 25.4835C97.7896 25.2035 98.0372 24.958 98.305 24.747C98.5728 24.5319 98.8528 24.3614 99.145 24.2357C99.4412 24.1099 99.7374 24.049 100.034 24.053C100.253 24.0571 100.47 24.0835 100.685 24.1322C100.904 24.1809 101.123 24.2438 101.342 24.3209C101.562 24.3939 101.783 24.4812 102.006 24.5826C102.229 24.68 102.454 24.7814 102.682 24.887C102.913 25.0006 103.168 25.1122 103.448 25.2217C103.733 25.3313 104.027 25.4287 104.331 25.5139C104.639 25.5991 104.952 25.6681 105.268 25.7209C105.589 25.7736 105.902 25.8 106.206 25.8L105.889 27.5957C105.796 27.6362 105.69 27.6849 105.573 27.7417C105.459 27.7945 105.358 27.8432 105.268 27.8878L105.11 27.967C105.204 28.0765 105.321 28.1638 105.463 28.2287C105.609 28.2936 105.757 28.3423 105.908 28.3748C106.062 28.4032 106.208 28.4214 106.346 28.4296C106.488 28.4377 106.599 28.4417 106.681 28.4417H106.766C106.9 28.4417 107.026 28.4681 107.143 28.5209C107.261 28.5736 107.362 28.6446 107.448 28.7339C107.537 28.8191 107.606 28.9206 107.655 29.0383C107.707 29.1559 107.734 29.2797 107.734 29.4096C107.734 29.5435 107.707 29.6693 107.655 29.787C107.606 29.9046 107.537 30.0061 107.448 30.0913C107.362 30.1765 107.261 30.2435 107.143 30.2922C107.026 30.3409 106.9 30.3652 106.766 30.3652H106.681C106.291 30.3652 105.924 30.3307 105.579 30.2617C105.238 30.1928 104.926 30.0933 104.642 29.9635C104.362 29.8296 104.112 29.6693 103.893 29.4826C103.674 29.2919 103.493 29.0768 103.351 28.8374C102.949 29.0322 102.531 29.2229 102.097 29.4096C101.663 29.5922 101.213 29.7545 100.746 29.8965C100.279 30.0386 99.7943 30.1522 99.2911 30.2374C98.7919 30.3267 98.2725 30.3713 97.7328 30.3713L96.6189 30.3652C96.485 30.3652 96.3592 30.3409 96.2415 30.2922C96.1238 30.2435 96.0224 30.1765 95.9372 30.0913C95.8479 30.0061 95.7789 29.9046 95.7302 29.787C95.6774 29.6693 95.6511 29.5435 95.6511 29.4096ZM105.808 29.4035C105.808 29.2696 105.832 29.1458 105.881 29.0322C105.93 28.9186 105.996 28.8191 106.082 28.7339C106.167 28.6487 106.268 28.5817 106.386 28.533C106.5 28.4803 106.623 28.4499 106.757 28.4417C107.029 28.4417 107.265 28.389 107.463 28.2835C107.666 28.178 107.845 28.04 107.999 27.8696C108.153 27.6991 108.291 27.5084 108.413 27.2974C108.535 27.0864 108.65 26.8754 108.76 26.6643V26.6704C108.865 26.4513 108.977 26.2342 109.095 26.0191C109.216 25.8041 109.348 25.6052 109.49 25.4226C109.71 25.167 109.955 24.9701 110.227 24.8322C110.499 24.6901 110.789 24.6191 111.097 24.6191C111.463 24.6191 111.793 24.6942 112.09 24.8443C112.39 24.9945 112.662 25.2096 112.905 25.4896C113.088 25.7087 113.236 25.9603 113.35 26.2443C113.463 26.5243 113.538 26.8226 113.575 27.1391V27.127C113.599 27.2852 113.611 27.4658 113.611 27.6687C113.611 27.8878 113.591 28.1029 113.55 28.3139C113.514 28.5209 113.461 28.7177 113.392 28.9043C113.258 29.2452 113.065 29.5313 112.814 29.7626C112.566 29.9899 112.296 30.1461 112.004 30.2313C111.907 30.2597 111.81 30.278 111.712 30.2861C111.619 30.2983 111.519 30.3043 111.414 30.3043C111.231 30.3043 111.036 30.282 110.83 30.2374C110.627 30.1928 110.426 30.1319 110.227 30.0548C110.146 30.0183 110.054 29.9757 109.953 29.927C109.852 29.8742 109.744 29.8174 109.63 29.7565C109.521 29.6957 109.411 29.6328 109.302 29.5678C109.192 29.5029 109.091 29.44 108.997 29.3791C108.835 29.5293 108.673 29.6652 108.51 29.787C108.348 29.9087 108.178 30.0122 107.999 30.0974C107.821 30.1826 107.63 30.2475 107.427 30.2922C107.224 30.3409 107.003 30.3652 106.763 30.3652C106.63 30.3652 106.506 30.3388 106.392 30.2861C106.274 30.2374 106.173 30.1704 106.088 30.0852C105.999 30 105.93 29.8986 105.881 29.7809C105.832 29.6632 105.808 29.5374 105.808 29.4035ZM110.123 27.8026C110.249 27.8838 110.397 27.9629 110.568 28.04C110.742 28.1171 110.915 28.1861 111.085 28.247C111.256 28.3078 111.412 28.3586 111.554 28.3991C111.7 28.4357 111.81 28.4539 111.883 28.4539C111.899 28.4539 111.915 28.4539 111.931 28.4539C111.952 28.4499 111.972 28.4458 111.992 28.4417C112.041 28.4296 112.087 28.3687 112.132 28.2591C112.181 28.1455 112.199 27.9913 112.187 27.7965C112.187 27.6667 112.15 27.5246 112.077 27.3704C112.004 27.2122 111.909 27.0661 111.791 26.9322C111.674 26.7942 111.538 26.6806 111.383 26.5913C111.233 26.498 111.079 26.4513 110.921 26.4513C110.864 26.4513 110.791 26.5325 110.702 26.6948C110.612 26.8571 110.483 27.0986 110.312 27.4191V27.413L110.123 27.8026ZM72.0158 57.5591C71.7358 57.5591 71.4477 57.5449 71.1515 57.5165C70.8593 57.4922 70.5692 57.4414 70.2811 57.3643C69.9929 57.2913 69.715 57.1899 69.4471 57.06C69.1793 56.9301 68.9297 56.7617 68.6984 56.5548C68.4671 56.3519 68.2663 56.1267 68.0958 55.8791C67.9295 55.6357 67.7915 55.3759 67.6819 55.1C67.5724 54.8241 67.4892 54.5359 67.4324 54.2357C67.3796 53.9354 67.3532 53.629 67.3532 53.3165C67.3532 52.651 67.4587 51.9794 67.6697 51.3017C67.8848 50.6241 68.2013 49.9687 68.6193 49.3357L69.9889 50.3217C69.9077 50.4313 69.8124 50.5957 69.7028 50.8148C69.5932 51.0339 69.4877 51.2835 69.3863 51.5635C69.2848 51.8435 69.1996 52.1417 69.1306 52.4583C69.0616 52.7707 69.0271 53.073 69.0271 53.3652C69.0271 53.702 69.1022 54.0064 69.2524 54.2783C69.4066 54.5501 69.6095 54.7835 69.8611 54.9783C70.1167 55.173 70.4089 55.3252 70.7376 55.4348C71.0703 55.5443 71.4153 55.6032 71.7724 55.6113C72.0605 55.6154 72.3405 55.591 72.6124 55.5383C72.8842 55.4855 73.1419 55.4084 73.3854 55.307C73.6289 55.2055 73.85 55.0817 74.0489 54.9357C74.2518 54.7896 74.4242 54.6252 74.5663 54.4426C74.7124 54.2641 74.8219 54.0693 74.895 53.8583C74.9721 53.6472 75.0045 53.4261 74.9924 53.1948C74.9842 53.0203 74.9518 52.8235 74.895 52.6043C74.8382 52.3852 74.7692 52.162 74.688 51.9348C74.6109 51.7035 74.5237 51.4762 74.4263 51.253C74.3329 51.0299 74.2437 50.8249 74.1584 50.6383C74.0773 50.4475 74.0063 50.2852 73.9454 50.1513C73.8845 50.0174 73.846 49.9261 73.8297 49.8774L75.4854 48.9583C75.4976 48.9745 75.5321 49.0475 75.5889 49.1774C75.6497 49.3072 75.7208 49.4757 75.8019 49.6826C75.8871 49.8855 75.9764 50.1188 76.0697 50.3826C76.1631 50.6464 76.2503 50.9223 76.3315 51.2104C76.4167 51.4986 76.4897 51.7907 76.5506 52.087C76.6115 52.3832 76.65 52.6652 76.6663 52.933C76.6703 52.9655 76.6724 53.0041 76.6724 53.0487C76.6724 53.0974 76.6724 53.138 76.6724 53.1704C76.6724 53.5316 76.6318 53.8907 76.5506 54.2478C76.4695 54.6049 76.3437 54.9458 76.1732 55.2704C76.0068 55.5991 75.7958 55.9014 75.5402 56.1774C75.2886 56.4574 74.9903 56.6988 74.6454 56.9017C74.3005 57.1087 73.9089 57.269 73.4706 57.3826C73.0324 57.5003 72.5474 57.5591 72.0158 57.5591ZM72.0158 47.5096L73.3671 48.8609L72.0158 50.2122L70.6645 48.8609L72.0158 47.5096ZM77.0677 55.7817C77.6398 55.6681 78.1572 55.5241 78.6198 55.3496C79.0865 55.1791 79.4943 54.9864 79.8433 54.7713C80.1963 54.5603 80.4865 54.3351 80.7137 54.0957C80.941 53.8562 81.1033 53.6128 81.2007 53.3652C81.0262 53.3652 80.8497 53.3612 80.6711 53.353C80.4926 53.349 80.3404 53.3429 80.2146 53.3348C79.7439 53.2942 79.3137 53.1887 78.9242 53.0183C78.5346 52.8519 78.2242 52.6246 77.9929 52.3365C77.8224 52.1174 77.7007 51.88 77.6277 51.6243C77.5587 51.3687 77.5242 51.0988 77.5242 50.8148C77.5242 50.5957 77.5445 50.3765 77.585 50.1574C77.6256 49.9342 77.6824 49.7191 77.7555 49.5122C77.8285 49.3012 77.9137 49.1023 78.0111 48.9157C78.1126 48.729 78.2201 48.5586 78.3337 48.4043C78.5772 48.1 78.843 47.8707 79.1311 47.7165C79.4233 47.5583 79.7297 47.4791 80.0503 47.4791C80.7361 47.4791 81.3549 47.7794 81.9068 48.38C82.0772 48.5707 82.2314 48.7817 82.3694 49.013C82.5074 49.2443 82.6291 49.4919 82.7346 49.7557C82.8401 50.0154 82.9253 50.2872 82.9903 50.5713C83.0592 50.8554 83.1059 51.1455 83.1303 51.4417H83.2459C83.3798 51.4417 83.5056 51.4661 83.6233 51.5148C83.741 51.5635 83.8424 51.6325 83.9277 51.7217C84.0169 51.807 84.0879 51.9084 84.1407 52.0261C84.1934 52.1438 84.2198 52.2716 84.2198 52.4096C84.2198 52.5394 84.1934 52.6632 84.1407 52.7809C84.0879 52.8945 84.0169 52.9939 83.9277 53.0791C83.8424 53.1684 83.741 53.2374 83.6233 53.2861C83.5056 53.3388 83.3798 53.3652 83.2459 53.3652H82.9781C82.8198 53.9617 82.5662 54.5014 82.2172 54.9843C81.8723 55.4672 81.4584 55.8893 80.9755 56.2504C80.4966 56.6116 79.961 56.9099 79.3685 57.1452C78.7801 57.3806 78.1633 57.549 77.5181 57.6504L77.0677 55.7817ZM80.0503 49.4087C79.961 49.4087 79.8616 49.4493 79.752 49.5304C79.6465 49.6075 79.5471 49.707 79.4537 49.8287C79.3604 49.9504 79.2813 50.0864 79.2163 50.2365C79.1555 50.3867 79.125 50.5328 79.125 50.6748C79.125 50.8128 79.1636 50.9264 79.2407 51.0157C79.3178 51.1049 79.4152 51.178 79.5329 51.2348C79.6546 51.2875 79.7865 51.3281 79.9285 51.3565C80.0706 51.3809 80.2085 51.3991 80.3424 51.4113C80.4155 51.4194 80.4946 51.4255 80.5798 51.4296C80.6691 51.4296 80.7604 51.4296 80.8537 51.4296C80.9471 51.4296 81.0384 51.4316 81.1277 51.4357C81.221 51.4357 81.3062 51.4377 81.3833 51.4417C81.3549 51.2429 81.3103 51.0562 81.2494 50.8817C81.1885 50.7072 81.1195 50.5449 81.0424 50.3948C80.9694 50.2446 80.8882 50.1107 80.799 49.993C80.7137 49.8713 80.6306 49.7658 80.5494 49.6765C80.521 49.6481 80.4845 49.6177 80.4398 49.5852C80.3992 49.5528 80.3566 49.5243 80.312 49.5C80.2674 49.4716 80.2207 49.4493 80.172 49.433C80.1274 49.4168 80.0868 49.4087 80.0503 49.4087ZM82.2366 52.4035C82.2366 52.2696 82.261 52.1438 82.3097 52.0261C82.3584 51.9084 82.4273 51.807 82.5166 51.7217C82.6018 51.6325 82.7033 51.5635 82.821 51.5148C82.9386 51.4661 83.0644 51.4417 83.1984 51.4417H83.661C83.9531 51.4417 84.2331 51.4296 84.501 51.4052C84.7729 51.3809 85.0123 51.3301 85.2192 51.253C85.4262 51.1719 85.5926 51.0603 85.7184 50.9183C85.8482 50.7722 85.9172 50.5794 85.9253 50.34C85.9294 50.2507 85.9294 50.1777 85.9253 50.1209C85.9253 50.06 85.9152 49.989 85.8949 49.9078C85.8746 49.8226 85.8442 49.713 85.8036 49.5791C85.7671 49.4412 85.7143 49.2484 85.6453 49.0009L87.4166 48.5017C87.4937 48.6965 87.5647 48.9542 87.6297 49.2748C87.6946 49.5954 87.7433 49.9464 87.7757 50.3278C87.7839 50.4496 87.7981 50.5754 87.8184 50.7052C87.8386 50.8351 87.8711 50.9548 87.9157 51.0643C87.9644 51.1739 88.0294 51.2652 88.1105 51.3383C88.1917 51.4072 88.2972 51.4417 88.4271 51.4417C88.561 51.4417 88.6868 51.4661 88.8044 51.5148C88.9221 51.5635 89.0236 51.6325 89.1088 51.7217C89.1981 51.807 89.2671 51.9084 89.3157 52.0261C89.3685 52.1438 89.3949 52.2696 89.3949 52.4035C89.3949 52.5374 89.3685 52.6632 89.3157 52.7809C89.2671 52.8986 89.1981 53 89.1088 53.0852C89.0195 53.1745 88.916 53.2435 88.7984 53.2922C88.6847 53.3409 88.563 53.3652 88.4331 53.3652C88.0436 53.3652 87.7088 53.3043 87.4288 53.1826C87.1529 53.0649 86.9155 52.9107 86.7166 52.72C86.534 52.8417 86.323 52.9432 86.0836 53.0243C85.8482 53.1055 85.5966 53.1704 85.3288 53.2191C85.061 53.2719 84.785 53.3084 84.501 53.3287C84.2169 53.353 83.9369 53.3652 83.661 53.3652H83.1984C83.0644 53.3652 82.9386 53.3409 82.821 53.2922C82.7033 53.2435 82.6018 53.1745 82.5166 53.0852C82.4273 53 82.3584 52.8986 82.3097 52.7809C82.261 52.6632 82.2366 52.5374 82.2366 52.4035ZM88.0618 55.5504L86.8931 56.7252L85.7366 55.5687L84.5923 56.713L83.4114 55.5383L84.5801 54.3635L85.7366 55.52L86.881 54.3757L88.0618 55.5504ZM87.4547 52.4035C87.4547 52.2777 87.4811 52.158 87.5338 52.0443C87.5866 51.9307 87.6596 51.8313 87.7529 51.7461C87.8422 51.6568 87.9498 51.5858 88.0756 51.533C88.1973 51.4803 88.3292 51.4499 88.4712 51.4417C88.6863 51.4417 88.8871 51.4072 89.0738 51.3383C89.2605 51.2652 89.437 51.1272 89.6034 50.9243C89.7698 50.7214 89.926 50.4354 90.0721 50.0661C90.2182 49.6968 90.3582 49.2139 90.4921 48.6174L92.1112 48.8487C92.1234 48.8 92.1153 48.8264 92.0869 48.9278C92.0625 49.0293 92.0321 49.1733 91.9956 49.36C91.9631 49.5426 91.9306 49.7496 91.8982 49.9809C91.8698 50.2081 91.8556 50.4272 91.8556 50.6383C91.8596 50.8452 91.884 51.0258 91.9286 51.18C91.9773 51.3301 92.0605 51.4194 92.1782 51.4478C92.304 51.4803 92.4257 51.4559 92.5434 51.3748C92.6611 51.2896 92.7727 51.1699 92.8782 51.0157C92.9837 50.8574 93.0811 50.6748 93.1703 50.4678C93.2596 50.2568 93.3408 50.0417 93.4138 49.8226C93.4869 49.6035 93.5498 49.3884 93.6025 49.1774C93.6553 48.9664 93.6958 48.7797 93.7243 48.6174L95.3312 48.8487C95.3231 48.9501 95.3089 49.0861 95.2886 49.2565C95.2683 49.4229 95.2521 49.6014 95.2399 49.7922C95.2277 49.9829 95.2216 50.1757 95.2216 50.3704C95.2257 50.5612 95.248 50.7357 95.2886 50.8939C95.3292 51.0481 95.3921 51.1759 95.4773 51.2774C95.5625 51.3748 95.6802 51.4235 95.8303 51.4235C95.9643 51.4235 96.0799 51.3788 96.1773 51.2896C96.2747 51.2003 96.3558 51.0846 96.4208 50.9426C96.4898 50.7965 96.5445 50.6322 96.5851 50.4496C96.6257 50.2629 96.6561 50.0742 96.6764 49.8835C96.6967 49.6928 96.7069 49.5081 96.7069 49.3296C96.7069 49.147 96.7008 48.9867 96.6886 48.8487L98.3321 48.6174L98.5329 50.3339C98.5573 50.5206 98.61 50.6829 98.6912 50.8209C98.7724 50.9588 98.8677 51.0745 98.9773 51.1678C99.0869 51.2571 99.2025 51.3261 99.3243 51.3748C99.446 51.4194 99.5616 51.4417 99.6712 51.4417H99.7443C99.8944 51.4417 100.03 51.4661 100.152 51.5148C100.278 51.5635 100.385 51.6325 100.475 51.7217C100.564 51.807 100.633 51.9084 100.682 52.0261C100.73 52.1438 100.755 52.2696 100.755 52.4035C100.755 52.5374 100.73 52.6632 100.682 52.7809C100.633 52.8986 100.562 53 100.469 53.0852C100.379 53.1704 100.266 53.2374 100.128 53.2861C99.9938 53.3388 99.8416 53.3652 99.6712 53.3652C99.2776 53.3652 98.9063 53.2962 98.5573 53.1583C98.2083 53.0203 97.906 52.787 97.6503 52.4583C97.626 52.4907 97.6016 52.5191 97.5773 52.5435C97.5529 52.5678 97.5306 52.5922 97.5103 52.6165V52.6104C97.2912 52.8417 97.0376 53.0243 96.7495 53.1583C96.4654 53.2962 96.159 53.3652 95.8303 53.3652C95.4611 53.3652 95.1202 53.2861 94.8077 53.1278C94.4993 52.9696 94.2416 52.7545 94.0347 52.4826C93.7912 52.7504 93.5153 52.9675 93.2069 53.1339C92.8985 53.3003 92.5596 53.3835 92.1903 53.3835C91.8454 53.3835 91.5248 53.3064 91.2286 53.1522C90.9324 52.998 90.6869 52.787 90.4921 52.5191C90.2729 52.8235 90.0011 53.0406 89.6764 53.1704C89.3558 53.3003 88.9582 53.3652 88.4834 53.3652C88.3292 53.3652 88.1892 53.3388 88.0634 53.2861C87.9376 53.2374 87.83 53.1704 87.7408 53.0852C87.6515 53 87.5825 52.8986 87.5338 52.7809C87.4811 52.6632 87.4547 52.5374 87.4547 52.4035ZM98.7386 52.4035C98.7386 52.2696 98.7629 52.1438 98.8116 52.0261C98.8603 51.9084 98.9293 51.807 99.0186 51.7217C99.1038 51.6325 99.2052 51.5635 99.3229 51.5148C99.4406 51.4661 99.5664 51.4417 99.7003 51.4417H100.163C100.455 51.4417 100.735 51.4296 101.003 51.4052C101.275 51.3809 101.514 51.3301 101.721 51.253C101.928 51.1719 102.095 51.0603 102.22 50.9183C102.35 50.7722 102.419 50.5794 102.427 50.34C102.431 50.2507 102.431 50.1777 102.427 50.1209C102.427 50.06 102.417 49.989 102.397 49.9078C102.377 49.8226 102.346 49.713 102.306 49.5791C102.269 49.4412 102.216 49.2484 102.147 49.0009L103.919 48.5017C103.996 48.6965 104.067 48.9542 104.132 49.2748C104.197 49.5954 104.245 49.9464 104.278 50.3278C104.286 50.4496 104.3 50.5754 104.32 50.7052C104.341 50.8351 104.373 50.9548 104.418 51.0643C104.466 51.1739 104.531 51.2652 104.612 51.3383C104.694 51.4072 104.799 51.4417 104.929 51.4417C105.063 51.4417 105.189 51.4661 105.306 51.5148C105.424 51.5635 105.526 51.6325 105.611 51.7217C105.7 51.807 105.769 51.9084 105.818 52.0261C105.87 52.1438 105.897 52.2696 105.897 52.4035C105.897 52.5374 105.87 52.6632 105.818 52.7809C105.769 52.8986 105.7 53 105.611 53.0852C105.521 53.1745 105.418 53.2435 105.3 53.2922C105.187 53.3409 105.065 53.3652 104.935 53.3652C104.546 53.3652 104.211 53.3043 103.931 53.1826C103.655 53.0649 103.417 52.9107 103.219 52.72C103.036 52.8417 102.825 52.9432 102.586 53.0243C102.35 53.1055 102.099 53.1704 101.831 53.2191C101.563 53.2719 101.287 53.3084 101.003 53.3287C100.719 53.353 100.439 53.3652 100.163 53.3652H99.7003C99.5664 53.3652 99.4406 53.3409 99.3229 53.2922C99.2052 53.2435 99.1038 53.1745 99.0186 53.0852C98.9293 53 98.8603 52.8986 98.8116 52.7809C98.7629 52.6632 98.7386 52.5374 98.7386 52.4035ZM104.564 55.5504L103.395 56.7252L102.239 55.5687L101.094 56.713L99.9134 55.5383L101.082 54.3635L102.239 55.52L103.383 54.3757L104.564 55.5504ZM110.007 51.6243C110.137 51.5919 110.214 51.4235 110.238 51.1191C110.263 50.8026 110.204 50.5186 110.062 50.267C109.936 50.0357 109.745 49.8348 109.49 49.6643C109.234 49.4939 109.041 49.4351 108.911 49.4878C108.737 49.5609 108.473 50.0113 108.12 50.8391C109.139 51.4235 109.768 51.6852 110.007 51.6243ZM113.081 52.4035C113.081 52.6672 112.988 52.8925 112.801 53.0791C112.61 53.2658 112.383 53.3612 112.119 53.3652H112.113C111.602 53.3652 111.188 53.1907 110.871 52.8417C110.539 53.1745 110.115 53.3409 109.599 53.3409C109.003 53.3409 108.136 53.0406 107 52.44C106.927 52.5942 106.787 52.7504 106.58 52.9087C106.398 53.0467 106.189 53.1542 105.953 53.2313C105.657 53.3287 105.324 53.3774 104.955 53.3774C104.687 53.3774 104.46 53.2841 104.273 53.0974C104.086 52.9107 103.993 52.6835 103.993 52.4157C103.993 52.1519 104.086 51.9267 104.273 51.74C104.46 51.5533 104.687 51.46 104.955 51.46C105.462 51.46 105.904 51.2084 106.282 50.7052C106.416 50.5226 106.558 50.2852 106.708 49.993C106.753 49.9038 106.813 49.782 106.891 49.6278L106.976 49.4452L107.061 49.2748C107.609 48.1872 108.293 47.6435 109.112 47.6435C109.709 47.6435 110.236 47.8423 110.695 48.24C111.214 48.6904 111.509 49.3093 111.578 50.0965L111.584 50.1513C111.592 50.1757 111.596 50.2041 111.596 50.2365C111.604 50.4354 111.632 50.6362 111.681 50.8391C111.726 51.0136 111.778 51.1516 111.839 51.253C111.92 51.3788 112.014 51.4417 112.119 51.4417C112.383 51.4417 112.608 51.5351 112.795 51.7217C112.986 51.9084 113.081 52.1357 113.081 52.4035ZM111.081 52.4096C111.081 52.2716 111.105 52.1438 111.154 52.0261C111.203 51.9084 111.274 51.807 111.367 51.7217C111.456 51.6325 111.564 51.5635 111.69 51.5148C111.812 51.4661 111.949 51.4417 112.104 51.4417H112.445H112.743C112.962 51.4417 113.203 51.4397 113.467 51.4357C113.731 51.4275 113.985 51.4072 114.228 51.3748C114.476 51.3383 114.697 51.2855 114.892 51.2165C115.09 51.1475 115.234 51.0522 115.324 50.9304C115.445 50.7438 115.506 50.5307 115.506 50.2913C115.506 50.2101 115.498 50.129 115.482 50.0478C115.47 49.9626 115.454 49.8754 115.433 49.7861C115.405 49.6846 115.344 49.5629 115.251 49.4209C115.161 49.2748 115.046 49.1165 114.904 48.9461C114.762 48.7716 114.599 48.589 114.417 48.3983C114.234 48.2035 114.039 48.0067 113.832 47.8078C113.625 47.6049 113.408 47.4041 113.181 47.2052C112.954 47.0064 112.727 46.8136 112.499 46.627L112.688 44.9713L117.801 42.6948L118.538 44.3261L114.496 46.2009C114.695 46.3388 114.9 46.5032 115.111 46.6939C115.322 46.8846 115.527 47.0936 115.725 47.3209C115.924 47.5441 116.111 47.7814 116.285 48.033C116.46 48.2846 116.612 48.5423 116.742 48.8061C116.872 49.0699 116.973 49.3357 117.046 49.6035C117.123 49.8713 117.16 50.133 117.156 50.3887C117.152 50.693 117.111 50.9771 117.034 51.2409C116.957 51.5006 116.862 51.7339 116.748 51.9409C116.326 52.6957 115.63 53.1562 114.66 53.3226L114.666 53.3165C114.557 53.3368 114.453 53.351 114.356 53.3591C114.258 53.3672 114.163 53.3713 114.07 53.3713L112.104 53.3652C111.954 53.3652 111.816 53.3409 111.69 53.2922C111.564 53.2435 111.456 53.1745 111.367 53.0852C111.278 53 111.209 52.9006 111.16 52.787C111.107 52.6693 111.081 52.5435 111.081 52.4096Z" fill="#303030"/>
<defs>
<linearGradient id="paint0_linear_1325_8597" x1="5.44714" y1="5.2" x2="135.867" y2="64.7894" gradientUnits="userSpaceOnUse">
<stop stop-color="#EAEAEA"/>
<stop offset="1" stop-color="#BDBDBD"/>
</linearGradient>
</defs>
</svg>
