<svg width="181" height="99" viewBox="0 0 181 99" fill="none" xmlns="http://www.w3.org/2000/svg">
<rect x="0.75" y="0.922363" width="179.399" height="96.5" rx="9.25" fill="white" stroke="url(#paint0_linear_1325_10093)" stroke-width="1.5"/>
<path d="M51.2942 35.755C51.416 35.7225 51.5397 35.7002 51.6655 35.688C51.7913 35.6758 51.9151 35.6698 52.0368 35.6698C52.3087 35.6698 52.5887 35.7103 52.8768 35.7915C53.169 35.8686 53.4612 35.9842 53.7534 36.1385L53.0777 37.9219C52.8829 37.8367 52.6983 37.7718 52.5238 37.7271C52.3493 37.6785 52.185 37.6541 52.0308 37.6541C51.9252 37.6541 51.8055 37.6663 51.6716 37.6906C51.5418 37.7028 51.4018 37.7413 51.2516 37.8063C51.1015 37.8671 50.9513 37.9463 50.8012 38.0437C50.6551 38.1411 50.5131 38.2547 50.3751 38.3845C50.2371 38.5103 50.1134 38.6442 50.0038 38.7863C49.8983 38.9283 49.811 39.0764 49.7421 39.2306C49.6731 39.3808 49.6345 39.5269 49.6264 39.6689C49.6183 39.7825 49.6508 39.8758 49.7238 39.9489C49.7968 40.0179 49.8942 40.0787 50.016 40.1315C50.1377 40.1802 50.2757 40.2248 50.4299 40.2654C50.5841 40.3019 50.7403 40.3445 50.8986 40.3932L51.0751 40.4358C51.3348 40.4967 51.5925 40.5657 51.8481 40.6428C52.1079 40.7199 52.3412 40.8295 52.5481 40.9715C52.7551 41.1095 52.9215 41.2921 53.0473 41.5193C53.1771 41.7466 53.2421 42.0408 53.2421 42.4019C53.2421 42.475 53.238 42.55 53.2299 42.6271C53.2258 42.7083 53.2157 42.7915 53.1994 42.8767C53.1589 43.0958 53.0858 43.3089 52.9803 43.5158C52.8748 43.7269 52.7409 43.9257 52.5786 44.1124C52.4203 44.3031 52.2357 44.4796 52.0247 44.6419C51.8177 44.8083 51.5905 44.9564 51.3429 45.0863C50.8763 45.3176 50.3426 45.4961 49.7421 45.6219C49.1415 45.7518 48.4963 45.8167 47.8064 45.8167C46.9786 45.8167 46.2481 45.695 45.6151 45.4515C44.9821 45.2121 44.4566 44.8611 44.0386 44.3985C43.7221 44.0211 43.4887 43.6071 43.3386 43.1567C43.1925 42.7063 43.1194 42.2356 43.1194 41.7445C43.1194 41.639 43.1235 41.5335 43.1316 41.428C43.1397 41.3225 43.1479 41.2231 43.156 41.1298C43.1722 40.8376 43.2047 40.5515 43.2534 40.2715C43.3021 39.9874 43.3568 39.7216 43.4177 39.4741C43.4826 39.2225 43.5516 38.9912 43.6247 38.7802C43.6977 38.5651 43.7647 38.3785 43.8255 38.2202C43.8864 38.0579 43.9371 37.93 43.9777 37.8367C44.0223 37.7393 44.0487 37.6805 44.0568 37.6602L45.5847 38.2993C45.4832 38.5387 45.3858 38.7741 45.2925 39.0054C45.2032 39.2327 45.1221 39.468 45.049 39.7115C44.98 39.9509 44.9212 40.2045 44.8725 40.4724C44.8279 40.7402 44.7994 41.0324 44.7873 41.3489C44.7832 41.3935 44.7792 41.4422 44.7751 41.495C44.771 41.5477 44.769 41.5944 44.769 41.635C44.769 41.8906 44.8076 42.1422 44.8847 42.3898C44.9658 42.6373 45.0977 42.8605 45.2803 43.0593C45.3899 43.1851 45.5319 43.2947 45.7064 43.388C45.885 43.4854 46.0858 43.5666 46.309 43.6315C46.5322 43.7005 46.7716 43.7512 47.0273 43.7837C47.2829 43.8202 47.5426 43.8385 47.8064 43.8385C48.3218 43.8385 48.8026 43.8019 49.249 43.7289C49.6994 43.6599 50.0951 43.5666 50.436 43.4489C50.7768 43.3353 51.0508 43.2013 51.2577 43.0471C51.4687 42.897 51.5905 42.7428 51.6229 42.5845C51.6148 42.5845 51.5905 42.5805 51.5499 42.5724C51.5093 42.5642 51.4566 42.5521 51.3916 42.5358C51.3308 42.5237 51.2597 42.5074 51.1786 42.4871C51.1015 42.4709 51.0203 42.4527 50.9351 42.4324L50.6064 42.3593C50.2452 42.27 49.9044 42.1666 49.5838 42.0489C49.2673 41.9353 48.9893 41.7831 48.7499 41.5924C48.5145 41.4057 48.3258 41.1703 48.1838 40.8863C48.0458 40.5982 47.9768 40.235 47.9768 39.7967C47.9971 39.33 48.0945 38.8756 48.269 38.4332C48.4435 37.9909 48.6789 37.5871 48.9751 37.2219C49.2713 36.8567 49.6163 36.5463 50.0099 36.2906C50.4076 36.0309 50.8377 35.8524 51.3003 35.755H51.2942ZM56.9837 41.5376C56.4521 41.5376 55.9306 41.4361 55.4193 41.2332C54.9121 41.0303 54.4413 40.7037 54.0071 40.2532L55.1089 38.7011C55.3077 38.8837 55.5005 39.0338 55.6871 39.1515C55.8738 39.2651 56.0524 39.3544 56.2228 39.4193C56.3932 39.4842 56.5535 39.5289 56.7037 39.5532C56.8579 39.5776 57.0019 39.5898 57.1358 39.5898C57.1967 39.5898 57.2657 39.5877 57.3428 39.5837C57.4199 39.5796 57.497 39.5735 57.5741 39.5654C57.6512 39.5532 57.7263 39.539 57.7993 39.5228C57.8724 39.5066 57.9393 39.4863 58.0002 39.4619C58.2112 39.3727 58.3776 39.2834 58.4993 39.1941C58.3451 38.8208 58.1767 38.4332 57.9941 38.0315C57.8155 37.6257 57.635 37.2199 57.4524 36.8141C57.2697 36.4042 57.0892 35.9985 56.9106 35.5967C56.7321 35.195 56.5657 34.8095 56.4115 34.4402L58.1889 33.6976L58.7306 35.0124C58.9051 35.4425 59.1141 35.9538 59.3576 36.5463C59.601 37.1347 59.881 37.8022 60.1976 38.5489C60.2706 38.7274 60.3376 38.8837 60.3984 39.0176C60.4593 39.1515 60.5303 39.2631 60.6115 39.3524C60.6967 39.4416 60.7961 39.5086 60.9097 39.5532C61.0274 39.5938 61.1776 39.6141 61.3602 39.6141C61.49 39.6141 61.6138 39.6385 61.7315 39.6871C61.8492 39.7358 61.9506 39.8048 62.0358 39.8941C62.1251 39.9793 62.1961 40.0808 62.2489 40.1985C62.3016 40.3161 62.328 40.4419 62.328 40.5758C62.328 40.7098 62.3016 40.8356 62.2489 40.9532C62.1961 41.0709 62.1251 41.1724 62.0358 41.2576C61.9506 41.3469 61.8492 41.4158 61.7315 41.4645C61.6138 41.5132 61.49 41.5376 61.3602 41.5376C61.1126 41.5376 60.8935 41.5213 60.7028 41.4889C60.5161 41.4564 60.3477 41.4098 60.1976 41.3489C60.0515 41.2921 59.9196 41.2231 59.8019 41.1419C59.6883 41.0567 59.5808 40.9634 59.4793 40.8619C59.3697 40.935 59.2541 41.006 59.1324 41.075C59.0106 41.1399 58.8706 41.2048 58.7124 41.2698C58.4689 41.3631 58.2051 41.43 57.921 41.4706C57.641 41.5153 57.3286 41.5376 56.9837 41.5376ZM60.3821 40.5758C60.3821 40.4419 60.4085 40.3161 60.4613 40.1985C60.51 40.0808 60.5789 39.9793 60.6682 39.8941C60.7534 39.8048 60.8569 39.7358 60.9787 39.6871C61.0963 39.6385 61.2221 39.6141 61.356 39.6141H62.5247C63.1821 39.6141 63.7847 39.5756 64.3326 39.4985C64.8844 39.4173 65.3998 39.3098 65.8787 39.1758C66.3575 39.0419 66.81 38.8877 67.236 38.7132C67.6662 38.5347 68.0882 38.35 68.5021 38.1593C68.2262 38.0822 67.9482 37.9869 67.6682 37.8732C67.3923 37.7596 67.1143 37.65 66.8343 37.5445C66.5584 37.439 66.2824 37.3498 66.0065 37.2767C65.7305 37.1996 65.4566 37.1611 65.1847 37.1611C64.9981 37.1611 64.8155 37.2118 64.6369 37.3132C64.4584 37.4147 64.296 37.5303 64.15 37.6602C64.0039 37.79 63.8801 37.9179 63.7787 38.0437C63.6813 38.1654 63.6204 38.2486 63.596 38.2932L62.19 37.3863C62.3442 37.1144 62.5268 36.8486 62.7378 36.5889C62.9488 36.3292 63.1801 36.0999 63.4317 35.9011C63.6873 35.6982 63.9613 35.5358 64.2534 35.4141C64.5497 35.2924 64.8601 35.2315 65.1847 35.2315C65.4242 35.2315 65.6636 35.2579 65.903 35.3106C66.1424 35.3593 66.3798 35.4242 66.6152 35.5054C66.8546 35.5866 67.09 35.6799 67.3213 35.7854C67.5526 35.8869 67.7818 35.9903 68.0091 36.0958C68.2282 36.1973 68.4453 36.2987 68.6604 36.4002C68.8795 36.4976 69.1047 36.5889 69.336 36.6741C69.5673 36.7553 69.8068 36.8222 70.0543 36.875C70.3018 36.9277 70.5636 36.9561 70.8395 36.9602L70.6873 38.8289L69.823 39.2428C69.47 39.4132 69.1189 39.5898 68.77 39.7724C68.421 39.9509 68.0639 40.1254 67.6987 40.2958C67.3375 40.4622 66.9642 40.6225 66.5787 40.7767C66.1972 40.9269 65.7955 41.0587 65.3734 41.1724C64.9514 41.2819 64.505 41.3692 64.0343 41.4341C63.5636 41.5031 63.0604 41.5376 62.5247 41.5376H61.4047H61.356C61.2221 41.5376 61.0963 41.5112 60.9787 41.4585C60.8569 41.4098 60.7534 41.3428 60.6682 41.2576C60.5789 41.1724 60.51 41.0709 60.4613 40.9532C60.4085 40.8356 60.3821 40.7098 60.3821 40.5758ZM71.549 41.5558C71.5693 41.2231 71.5896 40.8782 71.6099 40.5211C71.6302 40.164 71.6464 39.8109 71.6586 39.4619C71.6748 39.1129 71.6849 38.7741 71.689 38.4454C71.6931 38.1167 71.689 37.8144 71.6768 37.5385C71.6525 36.9622 71.6281 36.457 71.6038 36.0228C71.5835 35.5845 71.5612 35.197 71.5368 34.8602C71.5165 34.5234 71.4942 34.2292 71.4699 33.9776C71.4496 33.7219 71.4273 33.4886 71.4029 33.2776C71.3786 33.0666 71.3522 32.8698 71.3238 32.6871C71.2954 32.5005 71.2649 32.3077 71.2325 32.1089L73.1134 31.488C73.2026 32.0318 73.2736 32.5796 73.3264 33.1315C73.3832 33.6834 73.4258 34.2129 73.4542 34.7202C73.4826 35.2234 73.5009 35.6921 73.509 36.1263C73.5212 36.5605 73.5273 36.9318 73.5273 37.2402C73.5273 37.5202 73.5252 37.8225 73.5212 38.1471C73.5212 38.4718 73.5171 38.8086 73.509 39.1576C73.5049 39.5066 73.4968 39.8596 73.4847 40.2167C73.4725 40.5738 73.4542 40.9228 73.4299 41.2637L71.549 41.5558ZM77.2027 37.5811C77.1175 37.5648 77.0201 37.5953 76.9105 37.6724C76.805 37.7454 76.7035 37.8469 76.6062 37.9767C76.5128 38.1025 76.4337 38.2425 76.3688 38.3967C76.3079 38.5509 76.2775 38.699 76.2775 38.8411C76.2775 38.975 76.316 39.0866 76.3931 39.1758C76.4702 39.2651 76.5676 39.3382 76.6853 39.395C76.807 39.4518 76.9389 39.4944 77.0809 39.5228C77.227 39.5512 77.367 39.5715 77.5009 39.5837H77.4948C77.6004 39.5918 77.7201 39.5979 77.854 39.6019C77.9919 39.6019 78.1259 39.6019 78.2557 39.6019C78.2963 39.6019 78.3267 39.604 78.347 39.608C78.3714 39.608 78.3917 39.608 78.4079 39.608C78.4241 39.608 78.4404 39.608 78.4566 39.608C78.4769 39.608 78.5053 39.606 78.5418 39.6019C78.4809 39.3503 78.4079 39.1109 78.3227 38.8837C78.2415 38.6524 78.1462 38.4454 78.0366 38.2628C77.927 38.0802 77.8033 37.93 77.6653 37.8124C77.5273 37.6906 77.3731 37.6135 77.2027 37.5811ZM74.2201 43.9541C74.7922 43.8405 75.3137 43.6964 75.7844 43.5219C76.2551 43.3515 76.667 43.1587 77.0201 42.9437C77.3772 42.7327 77.6714 42.5074 77.9027 42.268C78.138 42.0286 78.3044 41.7851 78.4018 41.5376C78.2273 41.5376 78.0427 41.5335 77.8479 41.5254C77.6531 41.5213 77.4928 41.5153 77.367 41.5071C76.8963 41.4666 76.4662 41.3611 76.0766 41.1906C75.687 41.0242 75.3766 40.797 75.1453 40.5089C74.9748 40.2898 74.8531 40.0524 74.7801 39.7967C74.7111 39.5411 74.6766 39.2712 74.6766 38.9871C74.6766 38.768 74.6969 38.5489 74.7375 38.3298C74.778 38.1066 74.8348 37.8915 74.9079 37.6845C74.9809 37.4735 75.0662 37.2747 75.1635 37.088C75.265 36.9013 75.3725 36.7309 75.4862 36.5767C75.7296 36.2724 75.9954 36.0431 76.2835 35.8889C76.5757 35.7306 76.8821 35.6515 77.2027 35.6515C77.8885 35.6515 78.5073 35.9518 79.0592 36.5524C79.254 36.7715 79.4285 37.017 79.5827 37.2889C79.7369 37.5608 79.8667 37.8509 79.9722 38.1593C80.0818 38.4637 80.165 38.7842 80.2218 39.1211C80.2786 39.4538 80.307 39.7927 80.307 40.1376C80.307 40.2431 80.303 40.3486 80.2948 40.4541C80.2908 40.5596 80.2847 40.659 80.2766 40.7524C80.2279 41.2271 80.1204 41.6715 79.954 42.0854C79.7917 42.5034 79.5806 42.8869 79.3209 43.2358C79.0653 43.5889 78.767 43.9074 78.4262 44.1915C78.0853 44.4796 77.714 44.7312 77.3122 44.9463C76.9146 45.1654 76.4925 45.348 76.0462 45.4941C75.5998 45.6402 75.1412 45.7498 74.6705 45.8228L74.2201 43.9541ZM90.049 42.0306C89.7325 42.0306 89.4322 41.9637 89.1481 41.8298C88.8681 41.6999 88.6287 41.5274 88.4299 41.3124C88.2107 41.5356 87.9612 41.71 87.6812 41.8358C87.4012 41.9616 87.0988 42.0245 86.7742 42.0245C86.4252 42.0245 86.1087 41.9474 85.8246 41.7932C85.5406 41.6431 85.293 41.4483 85.082 41.2089C84.871 40.9695 84.6985 40.7037 84.5646 40.4115C84.4348 40.1153 84.3455 39.8231 84.2968 39.535C84.2765 39.4213 84.2623 39.3037 84.2542 39.1819C84.2461 39.0561 84.242 38.9283 84.242 38.7985C84.242 38.555 84.2562 38.3054 84.2846 38.0498C84.3171 37.7941 84.3638 37.5385 84.4246 37.2828C84.5058 36.9338 84.6113 36.5828 84.7412 36.2298C84.871 35.8727 85.0293 35.5034 85.2159 35.1219C85.4067 34.7405 85.6238 34.3387 85.8672 33.9167C86.1107 33.4947 86.3846 33.0442 86.689 32.5654C86.6443 32.5127 86.5936 32.4619 86.5368 32.4132C86.4841 32.3605 86.4374 32.3118 86.3968 32.2671L87.8333 30.8306C87.8739 30.8753 87.9226 30.926 87.9794 30.9828C88.0362 31.0396 88.0971 31.0984 88.162 31.1593C88.227 31.2202 88.2899 31.2811 88.3507 31.3419C88.4156 31.4028 88.4745 31.4576 88.5272 31.5063V31.5002C88.5516 31.5205 88.5759 31.5428 88.6003 31.5671C88.6246 31.5915 88.647 31.6158 88.6672 31.6402C89.0122 31.9608 89.353 32.2895 89.6899 32.6263C90.0307 32.9631 90.3574 33.3283 90.6699 33.7219C91.0959 34.2616 91.4672 34.8277 91.7838 35.4202C92.1043 36.0086 92.3641 36.6051 92.5629 37.2098C92.6319 37.4248 92.6826 37.6541 92.7151 37.8976C92.7516 38.1411 92.7698 38.3886 92.7698 38.6402C92.7698 39.0582 92.7171 39.466 92.6116 39.8637C92.5101 40.2573 92.3499 40.6124 92.1307 40.9289C91.9116 41.2454 91.6296 41.5031 91.2846 41.7019C90.9438 41.9048 90.5359 42.0144 90.0612 42.0306H90.049ZM89.3733 37.7515C89.3733 37.93 89.3814 38.1431 89.3977 38.3906C89.4139 38.6382 89.4464 38.8776 89.4951 39.1089C89.5478 39.3361 89.6148 39.535 89.6959 39.7054C89.7812 39.8718 89.8907 39.9651 90.0246 39.9854C90.1504 39.9611 90.2701 39.9063 90.3838 39.8211C90.4974 39.7358 90.5968 39.6324 90.682 39.5106C90.7672 39.3889 90.8342 39.257 90.8829 39.115C90.9316 38.9689 90.9559 38.8248 90.9559 38.6828C90.9559 38.5327 90.9438 38.3805 90.9194 38.2263C90.8951 38.0721 90.8687 37.9361 90.8403 37.8185H90.8464C90.7125 37.4167 90.538 37.0373 90.3229 36.6802C90.1078 36.3231 89.8745 35.9863 89.6229 35.6698C89.3713 35.3532 89.1116 35.059 88.8438 34.7871C88.58 34.5112 88.3325 34.2556 88.1012 34.0202L88.0159 33.9411C87.813 34.217 87.6101 34.5173 87.4072 34.8419C87.2084 35.1666 87.0238 35.4953 86.8533 35.828C86.6829 36.1608 86.5307 36.4874 86.3968 36.808C86.267 37.1286 86.1696 37.4248 86.1046 37.6967C86.0681 37.8793 86.0377 38.0782 86.0133 38.2932C85.993 38.5042 85.9829 38.7092 85.9829 38.908C85.9829 39.0541 86.0032 39.1921 86.0438 39.3219C86.0884 39.4477 86.1472 39.5593 86.2203 39.6567C86.2933 39.7541 86.3765 39.8312 86.4699 39.888C86.5632 39.9408 86.6646 39.9671 86.7742 39.9671C86.831 39.9671 86.8919 39.9489 86.9568 39.9124C87.0258 39.8718 87.0927 39.817 87.1577 39.748C87.2267 39.679 87.2916 39.5958 87.3525 39.4985C87.4133 39.397 87.4641 39.2834 87.5046 39.1576C87.5533 38.9912 87.5919 38.8289 87.6203 38.6706C87.6527 38.5083 87.6812 38.3642 87.7055 38.2385C87.7136 38.1654 87.7217 38.0822 87.7299 37.9889C87.742 37.8915 87.7542 37.8083 87.7664 37.7393L89.3733 37.7515ZM95.307 38.4271C95.307 38.5651 95.3314 38.695 95.3801 38.8167C95.4328 38.9344 95.5038 39.0399 95.5931 39.1332C95.6864 39.2225 95.7919 39.2935 95.9096 39.3463C96.0314 39.395 96.1612 39.4193 96.2992 39.4193C96.4412 39.4193 96.5731 39.395 96.6948 39.3463C96.8166 39.2935 96.9221 39.2225 97.0114 39.1332C97.1047 39.0399 97.1777 38.9344 97.2305 38.8167C97.2873 38.695 97.3157 38.5651 97.3157 38.4271C97.3157 38.2851 97.2873 38.1532 97.2305 38.0315C97.1777 37.9098 97.1047 37.8042 97.0114 37.715C96.9221 37.6216 96.8166 37.5486 96.6948 37.4958C96.5731 37.439 96.4412 37.4106 96.2992 37.4106C96.1612 37.4106 96.0314 37.439 95.9096 37.4958C95.7919 37.5486 95.6864 37.6216 95.5931 37.715C95.5038 37.8042 95.4328 37.9098 95.3801 38.0315C95.3314 38.1532 95.307 38.2851 95.307 38.4271ZM93.7975 38.4271C93.7975 38.0822 93.8624 37.7576 93.9922 37.4532C94.1261 37.1448 94.3047 36.877 94.5279 36.6498C94.7551 36.4225 95.0209 36.2419 95.3253 36.108C95.6296 35.9741 95.9543 35.9071 96.2992 35.9071C96.6441 35.9071 96.9688 35.9741 97.2731 36.108C97.5815 36.2419 97.8493 36.4225 98.0766 36.6498C98.3038 36.877 98.4844 37.1448 98.6183 37.4532C98.7522 37.7576 98.8192 38.0822 98.8192 38.4271C98.8192 38.7721 98.7522 39.0967 98.6183 39.4011C98.4844 39.7054 98.3038 39.9712 98.0766 40.1985C97.8493 40.4216 97.5815 40.6002 97.2731 40.7341C96.9688 40.864 96.6441 40.9289 96.2992 40.9289C95.9543 40.9289 95.6296 40.864 95.3253 40.7341C95.0209 40.6002 94.7551 40.4216 94.5279 40.1985C94.3047 39.9712 94.1261 39.7054 93.9922 39.4011C93.8624 39.0967 93.7975 38.7721 93.7975 38.4271ZM101.459 38.4271C101.459 38.5651 101.484 38.695 101.532 38.8167C101.585 38.9344 101.656 39.0399 101.745 39.1332C101.839 39.2225 101.944 39.2935 102.062 39.3463C102.184 39.395 102.314 39.4193 102.452 39.4193C102.594 39.4193 102.725 39.395 102.847 39.3463C102.969 39.2935 103.074 39.2225 103.164 39.1332C103.257 39.0399 103.33 38.9344 103.383 38.8167C103.44 38.695 103.468 38.5651 103.468 38.4271C103.468 38.2851 103.44 38.1532 103.383 38.0315C103.33 37.9098 103.257 37.8042 103.164 37.715C103.074 37.6216 102.969 37.5486 102.847 37.4958C102.725 37.439 102.594 37.4106 102.452 37.4106C102.314 37.4106 102.184 37.439 102.062 37.4958C101.944 37.5486 101.839 37.6216 101.745 37.715C101.656 37.8042 101.585 37.9098 101.532 38.0315C101.484 38.1532 101.459 38.2851 101.459 38.4271ZM99.9498 38.4271C99.9498 38.0822 100.015 37.7576 100.145 37.4532C100.278 37.1448 100.457 36.877 100.68 36.6498C100.907 36.4225 101.173 36.2419 101.478 36.108C101.782 35.9741 102.107 35.9071 102.452 35.9071C102.796 35.9071 103.121 35.9741 103.425 36.108C103.734 36.2419 104.002 36.4225 104.229 36.6498C104.456 36.877 104.637 37.1448 104.771 37.4532C104.905 37.7576 104.972 38.0822 104.972 38.4271C104.972 38.7721 104.905 39.0967 104.771 39.4011C104.637 39.7054 104.456 39.9712 104.229 40.1985C104.002 40.4216 103.734 40.6002 103.425 40.7341C103.121 40.864 102.796 40.9289 102.452 40.9289C102.107 40.9289 101.782 40.864 101.478 40.7341C101.173 40.6002 100.907 40.4216 100.68 40.1985C100.457 39.9712 100.278 39.7054 100.145 39.4011C100.015 39.0967 99.9498 38.7721 99.9498 38.4271ZM111.783 41.5376C111.763 41.5376 111.706 41.5335 111.613 41.5254C111.523 41.5213 111.412 41.5092 111.278 41.4889C111.148 41.4686 111 41.4361 110.833 41.3915C110.671 41.3469 110.507 41.286 110.34 41.2089C109.898 40.9979 109.555 40.7098 109.312 40.3445C109.068 39.9753 108.947 39.5471 108.947 39.0602C108.947 38.2486 109.306 37.4066 110.024 36.5341C110.081 36.4651 110.127 36.4083 110.164 36.3637C110.205 36.319 110.241 36.2785 110.273 36.2419C110.306 36.2054 110.336 36.1729 110.365 36.1445C110.397 36.1121 110.434 36.0756 110.474 36.035C110.426 35.9944 110.377 35.9558 110.328 35.9193C110.284 35.8828 110.245 35.8483 110.213 35.8158L110.103 35.7185L111.314 34.2393C111.521 34.3935 111.769 34.6025 112.057 34.8663C112.345 35.126 112.678 35.4587 113.055 35.8645C114.106 37.0616 114.632 38.1269 114.632 39.0602C114.632 39.539 114.516 39.9631 114.285 40.3324C114.058 40.7016 113.741 40.9918 113.335 41.2028C113.193 41.2718 113.047 41.3266 112.897 41.3671C112.751 41.4118 112.609 41.4463 112.471 41.4706C112.333 41.495 112.203 41.5112 112.081 41.5193C111.964 41.5315 111.864 41.5376 111.783 41.5376ZM112.964 39.0602C112.964 38.9344 112.923 38.7924 112.842 38.6341C112.761 38.4758 112.653 38.3115 112.52 38.1411C112.39 37.9666 112.244 37.7921 112.081 37.6176C111.919 37.439 111.757 37.2686 111.594 37.1063C111.485 37.228 111.369 37.366 111.247 37.5202C111.126 37.6703 111.014 37.8306 110.913 38.0011C110.811 38.1715 110.728 38.348 110.663 38.5306C110.598 38.7092 110.57 38.8857 110.578 39.0602C110.582 39.1576 110.629 39.2428 110.718 39.3158C110.807 39.3889 110.913 39.4477 111.034 39.4924C111.16 39.537 111.292 39.5715 111.43 39.5958C111.568 39.6161 111.686 39.6263 111.783 39.6263C111.905 39.6263 112.035 39.6182 112.173 39.6019C112.315 39.5816 112.442 39.5492 112.556 39.5045C112.674 39.4599 112.771 39.4011 112.848 39.328C112.925 39.255 112.964 39.1657 112.964 39.0602ZM118.8 37.0758C118.954 37.5141 119.088 37.9422 119.202 38.3602C119.251 38.5428 119.299 38.7335 119.348 38.9324C119.397 39.1271 119.439 39.324 119.476 39.5228C119.516 39.7176 119.549 39.9103 119.573 40.1011C119.598 40.2877 119.61 40.4622 119.61 40.6245C119.61 41.006 119.557 41.3773 119.451 41.7385C119.35 42.1037 119.204 42.4567 119.013 42.7976C118.827 43.1385 118.603 43.4651 118.344 43.7776C118.084 44.0941 117.796 44.3903 117.479 44.6663C117.163 44.9422 116.824 45.1979 116.463 45.4332C116.102 45.6727 115.728 45.8877 115.343 46.0785L114.235 44.5385C114.527 44.3924 114.821 44.226 115.118 44.0393C115.418 43.8567 115.704 43.6599 115.976 43.4489C116.252 43.2379 116.507 43.0167 116.743 42.7854C116.982 42.5541 117.189 42.3187 117.364 42.0793C117.542 41.8399 117.682 41.5964 117.784 41.3489C117.885 41.1054 117.936 40.866 117.936 40.6306C117.936 40.4602 117.911 40.2756 117.863 40.0767C117.818 39.8779 117.755 39.6648 117.674 39.4376C117.597 39.2063 117.504 38.9628 117.394 38.7071C117.284 38.4474 117.167 38.1715 117.041 37.8793L118.8 37.0758ZM119.951 34.7567L118.782 35.9315L117.625 34.775L116.481 35.9193L115.3 34.7445L116.469 33.5698L117.625 34.7263L118.77 33.5819L119.951 34.7567ZM116.542 32.9915L117.625 31.908L118.715 32.9976L117.631 34.0811L116.542 32.9915ZM123.578 37.5811C123.492 37.5648 123.395 37.5953 123.285 37.6724C123.18 37.7454 123.079 37.8469 122.981 37.9767C122.888 38.1025 122.809 38.2425 122.744 38.3967C122.683 38.5509 122.652 38.699 122.652 38.8411C122.652 38.975 122.691 39.0866 122.768 39.1758C122.845 39.2651 122.943 39.3382 123.06 39.395C123.182 39.4518 123.314 39.4944 123.456 39.5228C123.602 39.5512 123.742 39.5715 123.876 39.5837H123.87C123.975 39.5918 124.095 39.5979 124.229 39.6019C124.367 39.6019 124.501 39.6019 124.631 39.6019C124.671 39.6019 124.702 39.604 124.722 39.608C124.746 39.608 124.767 39.608 124.783 39.608C124.799 39.608 124.815 39.608 124.832 39.608C124.852 39.608 124.88 39.606 124.917 39.6019C124.856 39.3503 124.783 39.1109 124.698 38.8837C124.617 38.6524 124.521 38.4454 124.412 38.2628C124.302 38.0802 124.178 37.93 124.04 37.8124C123.902 37.6906 123.748 37.6135 123.578 37.5811ZM120.595 43.9541C121.167 43.8405 121.689 43.6964 122.159 43.5219C122.63 43.3515 123.042 43.1587 123.395 42.9437C123.752 42.7327 124.046 42.5074 124.278 42.268C124.513 42.0286 124.679 41.7851 124.777 41.5376C124.602 41.5376 124.418 41.5335 124.223 41.5254C124.028 41.5213 123.868 41.5153 123.742 41.5071C123.271 41.4666 122.841 41.3611 122.452 41.1906C122.062 41.0242 121.752 40.797 121.52 40.5089C121.35 40.2898 121.228 40.0524 121.155 39.7967C121.086 39.5411 121.052 39.2712 121.052 38.9871C121.052 38.768 121.072 38.5489 121.112 38.3298C121.153 38.1066 121.21 37.8915 121.283 37.6845C121.356 37.4735 121.441 37.2747 121.539 37.088C121.64 36.9013 121.748 36.7309 121.861 36.5767C122.105 36.2724 122.37 36.0431 122.659 35.8889C122.951 35.7306 123.257 35.6515 123.578 35.6515C124.263 35.6515 124.882 35.9518 125.434 36.5524C125.629 36.7715 125.803 37.017 125.958 37.2889C126.112 37.5608 126.242 37.8509 126.347 38.1593C126.457 38.4637 126.54 38.7842 126.597 39.1211C126.654 39.4538 126.682 39.7927 126.682 40.1376C126.682 40.2431 126.678 40.3486 126.67 40.4541C126.666 40.5596 126.66 40.659 126.652 40.7524C126.603 41.2271 126.495 41.6715 126.329 42.0854C126.167 42.5034 125.956 42.8869 125.696 43.2358C125.44 43.5889 125.142 43.9074 124.801 44.1915C124.46 44.4796 124.089 44.7312 123.687 44.9463C123.29 45.1654 122.868 45.348 122.421 45.4941C121.975 45.6402 121.516 45.7498 121.045 45.8228L120.595 43.9541ZM131.839 41.5376C131.749 41.5376 131.624 41.5315 131.461 41.5193C131.299 41.5071 131.125 41.4625 130.938 41.3854C130.849 41.8886 130.68 42.3654 130.433 42.8158C130.189 43.2703 129.887 43.6944 129.526 44.088C129.165 44.4857 128.753 44.8509 128.29 45.1837C127.827 45.5164 127.334 45.8147 126.811 46.0785L125.697 44.5385C125.985 44.3924 126.275 44.2321 126.567 44.0576C126.86 43.8871 127.138 43.7045 127.401 43.5098C127.669 43.319 127.917 43.1182 128.144 42.9071C128.375 42.7002 128.576 42.4851 128.747 42.2619C128.917 42.0387 129.051 41.8095 129.148 41.5741C129.246 41.3428 129.294 41.1074 129.294 40.868C129.294 40.8558 129.292 40.8376 129.288 40.8132C129.288 40.7889 129.288 40.7645 129.288 40.7402C129.288 40.7158 129.286 40.6976 129.282 40.6854C129.282 40.6732 129.282 40.6753 129.282 40.6915V40.6976C129.254 40.4622 129.213 40.237 129.16 40.0219C129.108 39.8069 129.041 39.5877 128.96 39.3645C128.882 39.1413 128.791 38.908 128.686 38.6645C128.58 38.417 128.462 38.1471 128.333 37.855L130.092 37.088C130.254 37.575 130.406 37.9808 130.548 38.3054C130.69 38.63 130.828 38.8898 130.962 39.0845C131.1 39.2793 131.238 39.4173 131.376 39.4985C131.514 39.5756 131.66 39.6141 131.814 39.6141H131.845C131.979 39.6141 132.105 39.6405 132.222 39.6932C132.34 39.746 132.441 39.817 132.527 39.9063C132.616 39.9915 132.685 40.0929 132.734 40.2106C132.786 40.3283 132.813 40.4521 132.813 40.5819C132.813 40.7158 132.786 40.8416 132.734 40.9593C132.685 41.077 132.616 41.1785 132.527 41.2637C132.441 41.3489 132.34 41.4158 132.222 41.4645C132.105 41.5132 131.977 41.5376 131.839 41.5376ZM130.824 40.5758C130.824 40.4419 130.851 40.3161 130.903 40.1985C130.952 40.0808 131.019 39.9793 131.104 39.8941C131.189 39.8048 131.291 39.7358 131.409 39.6871C131.526 39.6385 131.652 39.6141 131.786 39.6141H132.462H132.754C132.936 39.6141 133.137 39.606 133.356 39.5898C133.576 39.5735 133.787 39.5471 133.989 39.5106C134.192 39.4741 134.375 39.4254 134.537 39.3645C134.704 39.2996 134.825 39.2185 134.902 39.1211C134.947 39.0521 134.969 38.9587 134.969 38.8411C134.969 38.6666 134.927 38.4596 134.842 38.2202C134.76 37.9808 134.663 37.7373 134.549 37.4898C134.436 37.2422 134.318 37.0048 134.196 36.7776C134.079 36.5503 133.983 36.3616 133.91 36.2115L135.645 35.3593C135.771 35.5785 135.893 35.8382 136.01 36.1385C136.128 36.4347 136.233 36.7411 136.327 37.0576C136.42 37.37 136.495 37.6785 136.552 37.9828C136.609 38.2831 136.637 38.5448 136.637 38.768C136.637 39.1779 136.564 39.5532 136.418 39.8941C136.248 40.2756 136.014 40.5921 135.718 40.8437C135.422 41.0912 135.067 41.2738 134.653 41.3915C134.531 41.424 134.379 41.4503 134.196 41.4706C134.014 41.4909 133.829 41.5051 133.642 41.5132C133.456 41.5254 133.279 41.5315 133.113 41.5315C132.947 41.5356 132.817 41.5376 132.723 41.5376H131.841H131.786C131.652 41.5376 131.526 41.5132 131.409 41.4645C131.291 41.4158 131.189 41.3469 131.104 41.2576C131.019 41.1724 130.952 41.0709 130.903 40.9532C130.851 40.8356 130.824 40.7098 130.824 40.5758ZM135.408 44.6419L134.263 43.4976L133.107 44.6541L131.938 43.4793L133.119 42.3045L134.263 43.4489L135.42 42.2924L136.589 43.4671L135.408 44.6419ZM134.269 44.1428L135.353 45.2263L134.263 46.3158L133.18 45.2324L134.269 44.1428ZM38.2122 64.5376C37.6806 64.5376 37.1591 64.4361 36.6478 64.2332C36.1406 64.0303 35.6699 63.7037 35.2357 63.2532L36.3374 61.7011C36.5362 61.8837 36.729 62.0338 36.9157 62.1515C37.1023 62.2651 37.2809 62.3544 37.4513 62.4193C37.6217 62.4842 37.782 62.5289 37.9322 62.5532C38.0864 62.5776 38.2304 62.5898 38.3643 62.5898C38.4252 62.5898 38.4942 62.5877 38.5713 62.5837C38.6484 62.5796 38.7255 62.5735 38.8026 62.5654C38.8797 62.5532 38.9548 62.539 39.0278 62.5228C39.1009 62.5066 39.1678 62.4863 39.2287 62.4619C39.4397 62.3727 39.6061 62.2834 39.7278 62.1941C39.5736 61.8208 39.4052 61.4332 39.2226 61.0315C39.0441 60.6257 38.8635 60.2199 38.6809 59.8141C38.4983 59.4042 38.3177 58.9985 38.1391 58.5967C37.9606 58.195 37.7942 57.8095 37.64 57.4402L39.4174 56.6976L39.9591 58.0124C40.1336 58.4425 40.3426 58.9538 40.5861 59.5463C40.8296 60.1347 41.1096 60.8022 41.4261 61.5489C41.4991 61.7274 41.5661 61.8837 41.627 62.0176C41.6878 62.1515 41.7588 62.2631 41.84 62.3524C41.9252 62.4416 42.0246 62.5086 42.1383 62.5532C42.2559 62.5938 42.4061 62.6141 42.5887 62.6141C42.7186 62.6141 42.8423 62.6385 42.96 62.6871C43.0777 62.7358 43.1791 62.8048 43.2643 62.8941C43.3536 62.9793 43.4246 63.0808 43.4774 63.1985C43.5301 63.3161 43.5565 63.4419 43.5565 63.5758C43.5565 63.7098 43.5301 63.8356 43.4774 63.9532C43.4246 64.0709 43.3536 64.1724 43.2643 64.2576C43.1791 64.3469 43.0777 64.4158 42.96 64.4645C42.8423 64.5132 42.7186 64.5376 42.5887 64.5376C42.3412 64.5376 42.122 64.5213 41.9313 64.4889C41.7446 64.4564 41.5762 64.4098 41.4261 64.3489C41.28 64.2921 41.1481 64.2231 41.0304 64.1419C40.9168 64.0567 40.8093 63.9634 40.7078 63.8619C40.5983 63.935 40.4826 64.006 40.3609 64.075C40.2391 64.1399 40.0991 64.2048 39.9409 64.2698C39.6974 64.3631 39.4336 64.43 39.1496 64.4706C38.8696 64.5153 38.5571 64.5376 38.2122 64.5376ZM41.6228 63.5758C41.6228 63.4419 41.6472 63.3161 41.6959 63.1985C41.7446 63.0808 41.8135 62.9793 41.9028 62.8941C41.988 62.8089 42.0895 62.7419 42.2072 62.6932C42.3248 62.6405 42.4506 62.6141 42.5846 62.6141H42.9011C42.9133 62.3463 42.9538 62.0561 43.0228 61.7437C43.0959 61.4271 43.1933 61.1106 43.315 60.7941C43.4367 60.4735 43.5808 60.1651 43.7472 59.8689C43.9135 59.5686 44.0962 59.3008 44.295 59.0654C44.4979 58.83 44.717 58.6393 44.9524 58.4932C45.1877 58.3431 45.4333 58.2599 45.6889 58.2437C45.9608 58.2477 46.2124 58.3248 46.4437 58.475C46.6791 58.6211 46.8819 58.8138 47.0524 59.0532C47.2228 59.2927 47.3567 59.5645 47.4541 59.8689C47.5515 60.1732 47.6002 60.4816 47.6002 60.7941C47.6002 61.1634 47.5191 61.5225 47.3567 61.8715C47.1985 62.2205 46.9875 62.5471 46.7237 62.8515C46.464 63.1518 46.1677 63.4237 45.835 63.6671C45.5063 63.9066 45.1715 64.1034 44.8306 64.2576C44.8591 64.355 44.9179 64.4706 45.0072 64.6045C45.1005 64.7425 45.204 64.8805 45.3176 65.0185C45.4353 65.1564 45.553 65.2863 45.6706 65.408C45.7883 65.5298 45.8877 65.6271 45.9689 65.7002C45.9648 65.4648 45.9993 65.2234 46.0724 64.9758C46.1454 64.7324 46.2469 64.497 46.3767 64.2698C46.5106 64.0425 46.6669 63.8295 46.8454 63.6306C47.024 63.4277 47.2147 63.2512 47.4176 63.1011C47.6246 62.9509 47.8376 62.8332 48.0567 62.748C48.2759 62.6587 48.493 62.6141 48.708 62.6141C48.8419 62.6141 48.9677 62.6405 49.0854 62.6932C49.2031 62.7419 49.3046 62.8089 49.3898 62.8941C49.4791 62.9793 49.548 63.0808 49.5967 63.1985C49.6495 63.3161 49.6759 63.4419 49.6759 63.5758C49.6759 63.7098 49.6495 63.8356 49.5967 63.9532C49.548 64.0709 49.4791 64.1724 49.3898 64.2576C49.3046 64.3469 49.2031 64.4158 49.0854 64.4645C48.9677 64.5132 48.8419 64.5376 48.708 64.5376H48.6837C48.5051 64.5619 48.3327 64.6208 48.1663 64.7141C47.9999 64.8115 47.8518 64.9312 47.7219 65.0732C47.5962 65.2193 47.4947 65.3796 47.4176 65.5541C47.3405 65.7327 47.3019 65.9132 47.3019 66.0958C47.3019 66.177 47.308 66.2521 47.3202 66.3211C47.3324 66.3941 47.3547 66.4671 47.3872 66.5402C47.4196 66.6132 47.4622 66.6903 47.515 66.7715C47.5718 66.8527 47.6428 66.9399 47.728 67.0332L46.6141 68.3906C46.1272 68.0944 45.6991 67.7921 45.3298 67.4837C44.9605 67.1753 44.6399 66.8587 44.368 66.5341C44.1002 66.2135 43.873 65.8869 43.6863 65.5541C43.5037 65.2213 43.3535 64.8825 43.2359 64.5376H43.2115H42.5846C42.4506 64.5376 42.3248 64.5132 42.2072 64.4645C42.0895 64.4158 41.988 64.3469 41.9028 64.2576C41.8135 64.1724 41.7446 64.0709 41.6959 63.9532C41.6472 63.8356 41.6228 63.7098 41.6228 63.5758ZM46.0541 61.0619C46.0622 60.9483 46.0602 60.8286 46.048 60.7028C46.0399 60.5729 46.0196 60.4492 45.9872 60.3315C45.9588 60.2098 45.9182 60.1002 45.8654 60.0028C45.8127 59.9054 45.7477 59.8324 45.6706 59.7837C45.5935 59.8242 45.5083 59.9013 45.415 60.015C45.3257 60.1286 45.2344 60.2666 45.1411 60.4289C45.0477 60.5912 44.9564 60.7698 44.8672 60.9645C44.7819 61.1553 44.7048 61.35 44.6359 61.5489C44.5669 61.7477 44.5101 61.9425 44.4654 62.1332C44.4248 62.3199 44.4025 62.4883 44.3985 62.6385C44.573 62.606 44.7535 62.5411 44.9402 62.4437C45.1309 62.3422 45.3054 62.2205 45.4637 62.0785C45.626 61.9324 45.7619 61.7721 45.8715 61.5976C45.9811 61.4231 46.0419 61.2445 46.0541 61.0619ZM47.722 63.5758C47.722 63.45 47.7483 63.3303 47.8011 63.2167C47.8539 63.1031 47.9269 63.0037 48.0202 62.9185C48.1095 62.8292 48.217 62.7582 48.3428 62.7054C48.4646 62.6527 48.5965 62.6222 48.7385 62.6141C48.9536 62.6141 49.1544 62.5796 49.3411 62.5106C49.5278 62.4376 49.7043 62.2996 49.8707 62.0967C50.037 61.8938 50.1933 61.6077 50.3394 61.2385C50.4855 60.8692 50.6255 60.3863 50.7594 59.7898L52.3785 60.0211C52.3907 59.9724 52.3826 59.9987 52.3541 60.1002C52.3298 60.2016 52.2994 60.3457 52.2628 60.5324C52.2304 60.715 52.1979 60.9219 52.1655 61.1532C52.137 61.3805 52.1228 61.5996 52.1228 61.8106C52.1269 62.0176 52.1512 62.1982 52.1959 62.3524C52.2446 62.5025 52.3278 62.5918 52.4455 62.6202C52.5712 62.6527 52.693 62.6283 52.8107 62.5471C52.9283 62.4619 53.0399 62.3422 53.1455 62.188C53.251 62.0298 53.3483 61.8471 53.4376 61.6402C53.5269 61.4292 53.6081 61.2141 53.6811 60.995C53.7541 60.7758 53.817 60.5608 53.8698 60.3498C53.9226 60.1387 53.9631 59.9521 53.9915 59.7898L55.5985 60.0211C55.5904 60.1225 55.5762 60.2584 55.5559 60.4289C55.5356 60.5953 55.5194 60.7738 55.5072 60.9645C55.495 61.1553 55.4889 61.348 55.4889 61.5428C55.493 61.7335 55.5153 61.908 55.5559 62.0663C55.5965 62.2205 55.6594 62.3483 55.7446 62.4498C55.8298 62.5471 55.9475 62.5958 56.0976 62.5958C56.2315 62.5958 56.3472 62.5512 56.4446 62.4619C56.542 62.3727 56.6231 62.257 56.6881 62.115C56.757 61.9689 56.8118 61.8045 56.8524 61.6219C56.893 61.4353 56.9234 61.2466 56.9437 61.0558C56.964 60.8651 56.9741 60.6805 56.9741 60.5019C56.9741 60.3193 56.9681 60.159 56.9559 60.0211L58.5994 59.7898L58.8002 61.5063C58.8246 61.6929 58.8773 61.8553 58.9585 61.9932C59.0397 62.1312 59.135 62.2469 59.2446 62.3402C59.3541 62.4295 59.4698 62.4985 59.5915 62.5471C59.7133 62.5918 59.8289 62.6141 59.9385 62.6141H60.0115C60.1617 62.6141 60.2976 62.6385 60.4194 62.6871C60.5452 62.7358 60.6527 62.8048 60.742 62.8941C60.8312 62.9793 60.9002 63.0808 60.9489 63.1985C60.9976 63.3161 61.022 63.4419 61.022 63.5758C61.022 63.7098 60.9976 63.8356 60.9489 63.9532C60.9002 64.0709 60.8292 64.1724 60.7359 64.2576C60.6466 64.3428 60.533 64.4098 60.395 64.4585C60.2611 64.5112 60.1089 64.5376 59.9385 64.5376C59.5449 64.5376 59.1736 64.4686 58.8246 64.3306C58.4756 64.1927 58.1733 63.9593 57.9176 63.6306C57.8933 63.6631 57.8689 63.6915 57.8446 63.7158C57.8202 63.7402 57.7979 63.7645 57.7776 63.7889V63.7828C57.5585 64.0141 57.3049 64.1967 57.0168 64.3306C56.7327 64.4686 56.4263 64.5376 56.0976 64.5376C55.7283 64.5376 55.3875 64.4585 55.075 64.3002C54.7666 64.1419 54.5089 63.9269 54.302 63.655C54.0585 63.9228 53.7826 64.1399 53.4741 64.3063C53.1657 64.4727 52.8269 64.5558 52.4576 64.5558C52.1127 64.5558 51.7921 64.4787 51.4959 64.3245C51.1997 64.1703 50.9541 63.9593 50.7594 63.6915C50.5402 63.9958 50.2683 64.2129 49.9437 64.3428C49.6231 64.4727 49.2255 64.5376 48.7507 64.5376C48.5965 64.5376 48.4565 64.5112 48.3307 64.4585C48.2049 64.4098 48.0973 64.3428 48.0081 64.2576C47.9188 64.1724 47.8498 64.0709 47.8011 63.9532C47.7483 63.8356 47.722 63.7098 47.722 63.5758ZM57.1385 57.3124L55.9698 58.4871L54.8133 57.3306L53.6689 58.475L52.4881 57.3002L53.6568 56.1254L54.8133 57.2819L55.9576 56.1376L57.1385 57.3124ZM53.7298 55.5471L54.8133 54.4637L55.9028 55.5532L54.8194 56.6367L53.7298 55.5471ZM59.1623 63.5758C59.1623 63.4419 59.1867 63.3182 59.2354 63.2045C59.2841 63.0909 59.351 62.9915 59.4362 62.9063C59.5215 62.8211 59.6229 62.7541 59.7406 62.7054C59.8542 62.6527 59.978 62.6222 60.1119 62.6141C60.3838 62.6141 60.6191 62.5613 60.818 62.4558C61.0209 62.3503 61.1994 62.2124 61.3536 62.0419C61.5078 61.8715 61.6458 61.6808 61.7676 61.4698C61.8893 61.2587 62.0049 61.0477 62.1145 60.8367V60.8428C62.22 60.6237 62.3316 60.4066 62.4493 60.1915C62.571 59.9764 62.7029 59.7776 62.8449 59.595C63.0641 59.3393 63.3096 59.1425 63.5815 59.0045C63.8534 58.8625 64.1435 58.7915 64.4519 58.7915C64.8171 58.7915 65.1478 58.8666 65.4441 59.0167C65.7444 59.1669 66.0162 59.3819 66.2597 59.6619C66.4423 59.8811 66.5905 60.1327 66.7041 60.4167C66.8177 60.6967 66.8928 60.995 66.9293 61.3115V61.2993C66.9536 61.4576 66.9658 61.6382 66.9658 61.8411C66.9658 62.0602 66.9455 62.2753 66.9049 62.4863C66.8684 62.6932 66.8157 62.89 66.7467 63.0767C66.6128 63.4176 66.42 63.7037 66.1684 63.935C65.9209 64.1622 65.651 64.3185 65.3589 64.4037C65.2615 64.4321 65.1641 64.4503 65.0667 64.4585C64.9734 64.4706 64.8739 64.4767 64.7684 64.4767C64.5858 64.4767 64.391 64.4544 64.1841 64.4098C63.9812 64.3651 63.7803 64.3042 63.5815 64.2271C63.5003 64.1906 63.409 64.148 63.3076 64.0993C63.2061 64.0466 63.0986 63.9898 62.9849 63.9289C62.8754 63.868 62.7658 63.8051 62.6562 63.7402C62.5467 63.6753 62.4452 63.6124 62.3519 63.5515C62.1896 63.7016 62.0273 63.8376 61.8649 63.9593C61.7026 64.0811 61.5322 64.1845 61.3536 64.2698C61.1751 64.355 60.9844 64.4199 60.7815 64.4645C60.5786 64.5132 60.3574 64.5376 60.118 64.5376C59.9841 64.5376 59.8603 64.5112 59.7467 64.4585C59.629 64.4098 59.5276 64.3428 59.4423 64.2576C59.3531 64.1724 59.2841 64.0709 59.2354 63.9532C59.1867 63.8356 59.1623 63.7098 59.1623 63.5758ZM63.478 61.975C63.6038 62.0561 63.7519 62.1353 63.9223 62.2124C64.0968 62.2895 64.2693 62.3585 64.4397 62.4193C64.6102 62.4802 64.7664 62.5309 64.9084 62.5715C65.0545 62.608 65.1641 62.6263 65.2371 62.6263C65.2534 62.6263 65.2696 62.6263 65.2858 62.6263C65.3061 62.6222 65.3264 62.6182 65.3467 62.6141C65.3954 62.6019 65.442 62.5411 65.4867 62.4315C65.5354 62.3179 65.5536 62.1637 65.5415 61.9689C65.5415 61.839 65.5049 61.697 65.4319 61.5428C65.3589 61.3845 65.2635 61.2385 65.1458 61.1045C65.0281 60.9666 64.8922 60.8529 64.738 60.7637C64.5878 60.6703 64.4336 60.6237 64.2754 60.6237C64.2186 60.6237 64.1455 60.7048 64.0562 60.8671C63.967 61.0295 63.8371 61.2709 63.6667 61.5915V61.5854L63.478 61.975ZM75.3479 68.7315C75.0679 68.7315 74.7798 68.7173 74.4836 68.6889C74.1914 68.6645 73.9013 68.6138 73.6132 68.5367C73.325 68.4637 73.0471 68.3622 72.7792 68.2324C72.5114 68.1025 72.2618 67.9341 72.0305 67.7271C71.7992 67.5242 71.5984 67.299 71.4279 67.0515C71.2616 66.808 71.1236 66.5483 71.014 66.2724C70.9045 65.9964 70.8213 65.7083 70.7645 65.408C70.7117 65.1077 70.6853 64.8013 70.6853 64.4889C70.6853 63.8234 70.7908 63.1518 71.0018 62.4741C71.2169 61.7964 71.5334 61.1411 71.9514 60.508L73.321 61.4941C73.2398 61.6037 73.1445 61.768 73.0349 61.9871C72.9253 62.2063 72.8198 62.4558 72.7184 62.7358C72.6169 63.0158 72.5317 63.3141 72.4627 63.6306C72.3937 63.9431 72.3592 64.2454 72.3592 64.5376C72.3592 64.8744 72.4343 65.1787 72.5845 65.4506C72.7387 65.7225 72.9416 65.9558 73.1932 66.1506C73.4488 66.3454 73.741 66.4976 74.0697 66.6071C74.4024 66.7167 74.7474 66.7756 75.1045 66.7837C75.3926 66.7877 75.6726 66.7634 75.9445 66.7106C76.2163 66.6579 76.474 66.5808 76.7175 66.4793C76.961 66.3779 77.1821 66.2541 77.381 66.108C77.5839 65.9619 77.7563 65.7976 77.8984 65.615C78.0445 65.4364 78.154 65.2416 78.2271 65.0306C78.3042 64.8196 78.3366 64.5985 78.3245 64.3671C78.3163 64.1927 78.2839 63.9958 78.2271 63.7767C78.1703 63.5576 78.1013 63.3344 78.0201 63.1071C77.943 62.8758 77.8558 62.6486 77.7584 62.4254C77.665 62.2022 77.5758 61.9973 77.4905 61.8106C77.4094 61.6199 77.3384 61.4576 77.2775 61.3237C77.2166 61.1898 77.1781 61.0985 77.1618 61.0498L78.8175 60.1306C78.8297 60.1469 78.8642 60.2199 78.921 60.3498C78.9818 60.4796 79.0529 60.648 79.134 60.855C79.2192 61.0579 79.3085 61.2912 79.4018 61.555C79.4952 61.8187 79.5824 62.0947 79.6636 62.3828C79.7488 62.6709 79.8218 62.9631 79.8827 63.2593C79.9436 63.5556 79.9821 63.8376 79.9984 64.1054C80.0024 64.1379 80.0045 64.1764 80.0045 64.2211C80.0045 64.2698 80.0045 64.3103 80.0045 64.3428C80.0045 64.704 79.9639 65.0631 79.8827 65.4202C79.8016 65.7773 79.6758 66.1182 79.5053 66.4428C79.3389 66.7715 79.1279 67.0738 78.8723 67.3498C78.6207 67.6298 78.3224 67.8712 77.9775 68.0741C77.6326 68.2811 77.241 68.4413 76.8027 68.555C76.3645 68.6727 75.8795 68.7315 75.3479 68.7315ZM75.3479 58.6819L76.6992 60.0332L75.3479 61.3845L73.9966 60.0332L75.3479 58.6819ZM84.0398 64.5376C83.5406 64.5376 83.1125 64.4747 82.7554 64.3489C82.3983 64.2271 82.0899 64.0385 81.8302 63.7828C81.6679 63.6205 81.5421 63.45 81.4528 63.2715C81.3676 63.0929 81.3047 62.9185 81.2641 62.748C81.2276 62.5735 81.2053 62.4092 81.1971 62.255C81.1931 62.1008 81.1911 61.9689 81.1911 61.8593V61.768C81.1951 61.6179 81.1992 61.4028 81.2032 61.1228C81.2113 60.8387 81.2154 60.506 81.2154 60.1245C81.2154 59.7431 81.2134 59.3231 81.2093 58.8645C81.2053 58.406 81.1931 57.9495 81.1728 57.495C81.1566 57.0364 81.1302 56.5961 81.0937 56.1741C81.0612 55.7521 81.0145 55.3848 80.9537 55.0724L82.7737 54.5184C82.8264 54.7863 82.869 55.1028 82.9015 55.468C82.934 55.8292 82.9603 56.2086 82.9806 56.6063C83.005 57.004 83.0212 57.4037 83.0293 57.8054C83.0415 58.2071 83.0496 58.5805 83.0537 58.9254C83.0577 59.2298 83.0455 59.528 83.0171 59.8202C82.9928 60.1083 82.9725 60.3924 82.9563 60.6724C82.94 60.9483 82.94 61.2182 82.9563 61.4819C82.9766 61.7416 83.0334 61.9953 83.1267 62.2428C83.1632 62.3361 83.2079 62.4071 83.2606 62.4558C83.3174 62.5045 83.3824 62.5411 83.4554 62.5654C83.5284 62.5857 83.6076 62.5979 83.6928 62.6019C83.7821 62.606 83.8795 62.608 83.985 62.608H84.0398C84.1696 62.608 84.2934 62.6344 84.4111 62.6871C84.5287 62.7399 84.6302 62.8109 84.7154 62.9002C84.8047 62.9854 84.8757 63.0869 84.9284 63.2045C84.9812 63.3222 85.0076 63.446 85.0076 63.5758C85.0076 63.7098 84.9812 63.8356 84.9284 63.9532C84.8757 64.0709 84.8047 64.1724 84.7154 64.2576C84.6302 64.3469 84.5287 64.4158 84.4111 64.4645C84.2934 64.5132 84.1696 64.5376 84.0398 64.5376ZM83.0318 63.5819C83.0318 63.444 83.0562 63.3161 83.1049 63.1985C83.1536 63.0808 83.2246 62.9793 83.3179 62.8941C83.4072 62.8048 83.5147 62.7358 83.6405 62.6871C83.7623 62.6385 83.9002 62.6141 84.0544 62.6141H84.3953H84.6936C84.9127 62.6141 85.1542 62.6121 85.4179 62.608C85.6817 62.5999 85.9353 62.5796 86.1788 62.5471C86.4263 62.5106 86.6475 62.4579 86.8423 62.3889C87.0411 62.3199 87.1852 62.2245 87.2744 62.1028C87.3962 61.9161 87.4571 61.7031 87.4571 61.4637C87.4571 61.3825 87.4489 61.3013 87.4327 61.2202C87.4205 61.135 87.4043 61.0477 87.384 60.9585C87.3556 60.857 87.2947 60.7353 87.2014 60.5932C87.1121 60.4471 86.9965 60.2889 86.8544 60.1184C86.7124 59.944 86.5501 59.7613 86.3675 59.5706C86.1849 59.3758 85.9901 59.179 85.7831 58.9802C85.5762 58.7773 85.3591 58.5764 85.1318 58.3776C84.9046 58.1787 84.6773 57.986 84.4501 57.7993L84.6388 56.1437L89.7518 53.8671L90.4884 55.4984L86.4466 57.3732C86.6455 57.5112 86.8504 57.6756 87.0614 57.8663C87.2724 58.057 87.4773 58.266 87.6762 58.4932C87.875 58.7164 88.0617 58.9538 88.2362 59.2054C88.4107 59.457 88.5629 59.7147 88.6927 59.9785C88.8226 60.2422 88.924 60.508 88.9971 60.7758C89.0742 61.0437 89.1107 61.3054 89.1066 61.5611C89.1026 61.8654 89.062 62.1495 88.9849 62.4132C88.9078 62.6729 88.8124 62.9063 88.6988 63.1132C88.2768 63.868 87.5808 64.3286 86.611 64.495L86.6171 64.4889C86.5075 64.5092 86.404 64.5234 86.3066 64.5315C86.2092 64.5396 86.1139 64.5437 86.0205 64.5437L84.0544 64.5376C83.9043 64.5376 83.7663 64.5132 83.6405 64.4645C83.5147 64.4158 83.4072 64.3469 83.3179 64.2576C83.2286 64.1724 83.1597 64.0729 83.111 63.9593C83.0582 63.8416 83.0318 63.7158 83.0318 63.5819ZM89.5084 53.2341L84.4684 55.3645L84.5171 54.4515L89.1736 52.5098L89.5084 53.2341ZM94.911 64.5376C94.8217 64.5376 94.6959 64.5315 94.5336 64.5193C94.3713 64.5071 94.1968 64.4625 94.0101 64.3854C93.9208 64.8886 93.7524 65.3654 93.5049 65.8158C93.2614 66.2703 92.9591 66.6944 92.5979 67.088C92.2368 67.4857 91.8249 67.8509 91.3623 68.1837C90.8997 68.5164 90.4066 68.8147 89.8832 69.0785L88.7692 67.5385C89.0574 67.3924 89.3475 67.2321 89.6397 67.0576C89.9319 66.8871 90.2098 66.7045 90.4736 66.5098C90.7414 66.319 90.989 66.1182 91.2162 65.9071C91.4475 65.7002 91.6484 65.4851 91.8188 65.2619C91.9892 65.0387 92.1232 64.8095 92.2205 64.5741C92.3179 64.3428 92.3666 64.1074 92.3666 63.868C92.3666 63.8558 92.3646 63.8376 92.3605 63.8132C92.3605 63.7889 92.3605 63.7645 92.3605 63.7402C92.3605 63.7158 92.3585 63.6976 92.3545 63.6854C92.3545 63.6732 92.3545 63.6753 92.3545 63.6915V63.6976C92.3261 63.4622 92.2855 63.237 92.2327 63.0219C92.18 62.8069 92.113 62.5877 92.0319 62.3645C91.9548 62.1413 91.8634 61.908 91.7579 61.6645C91.6524 61.417 91.5348 61.1471 91.4049 60.855L93.164 60.088C93.3263 60.575 93.4785 60.9808 93.6205 61.3054C93.7626 61.63 93.9005 61.8898 94.0345 62.0845C94.1724 62.2793 94.3104 62.4173 94.4484 62.4985C94.5863 62.5756 94.7324 62.6141 94.8866 62.6141H94.9171C95.051 62.6141 95.1768 62.6405 95.2945 62.6932C95.4121 62.746 95.5136 62.817 95.5988 62.9063C95.6881 62.9915 95.7571 63.0929 95.8058 63.2106C95.8585 63.3283 95.8849 63.4521 95.8849 63.5819C95.8849 63.7158 95.8585 63.8416 95.8058 63.9593C95.7571 64.077 95.6881 64.1785 95.5988 64.2637C95.5136 64.3489 95.4121 64.4158 95.2945 64.4645C95.1768 64.5132 95.049 64.5376 94.911 64.5376ZM93.8904 63.5758C93.8904 63.4419 93.9147 63.3161 93.9634 63.1985C94.0121 63.0808 94.0811 62.9793 94.1704 62.8941C94.2556 62.8089 94.3571 62.7419 94.4747 62.6932C94.5924 62.6405 94.7182 62.6141 94.8521 62.6141H95.1687C95.1808 62.3463 95.2214 62.0561 95.2904 61.7437C95.3634 61.4271 95.4608 61.1106 95.5826 60.7941C95.7043 60.4735 95.8484 60.1651 96.0147 59.8689C96.1811 59.5686 96.3637 59.3008 96.5626 59.0654C96.7655 58.83 96.9846 58.6393 97.22 58.4932C97.4553 58.3431 97.7008 58.2599 97.9565 58.2437C98.2284 58.2477 98.48 58.3248 98.7113 58.475C98.9466 58.6211 99.1495 58.8138 99.32 59.0532C99.4904 59.2927 99.6243 59.5645 99.7217 59.8689C99.8191 60.1732 99.8678 60.4816 99.8678 60.7941C99.8678 61.1634 99.7866 61.5225 99.6243 61.8715C99.466 62.2205 99.255 62.5471 98.9913 62.8515C98.7316 63.1518 98.4353 63.4237 98.1026 63.6671C97.7739 63.9066 97.4391 64.1034 97.0982 64.2576C97.1266 64.355 97.1855 64.4706 97.2747 64.6045C97.3681 64.7425 97.4716 64.8805 97.5852 65.0185C97.7029 65.1564 97.8205 65.2863 97.9382 65.408C98.0559 65.5298 98.1553 65.6271 98.2365 65.7002C98.2324 65.4648 98.2669 65.2234 98.34 64.9758C98.413 64.7324 98.5145 64.497 98.6443 64.2698C98.7782 64.0425 98.9345 63.8295 99.113 63.6306C99.2916 63.4277 99.4823 63.2512 99.6852 63.1011C99.8921 62.9509 100.105 62.8332 100.324 62.748C100.543 62.6587 100.761 62.6141 100.976 62.6141C101.11 62.6141 101.235 62.6405 101.353 62.6932C101.471 62.7419 101.572 62.8089 101.657 62.8941C101.747 62.9793 101.816 63.0808 101.864 63.1985C101.917 63.3161 101.943 63.4419 101.943 63.5758C101.943 63.7098 101.917 63.8356 101.864 63.9532C101.816 64.0709 101.747 64.1724 101.657 64.2576C101.572 64.3469 101.471 64.4158 101.353 64.4645C101.235 64.5132 101.11 64.5376 100.976 64.5376H100.951C100.773 64.5619 100.6 64.6208 100.434 64.7141C100.267 64.8115 100.119 64.9312 99.9895 65.0732C99.8637 65.2193 99.7623 65.3796 99.6852 65.5541C99.6081 65.7327 99.5695 65.9132 99.5695 66.0958C99.5695 66.177 99.5756 66.2521 99.5878 66.3211C99.6 66.3941 99.6223 66.4671 99.6547 66.5402C99.6872 66.6132 99.7298 66.6903 99.7826 66.7715C99.8394 66.8527 99.9104 66.9399 99.9956 67.0332L98.8817 68.3906C98.3947 68.0944 97.9666 67.7921 97.5974 67.4837C97.2281 67.1753 96.9075 66.8587 96.6356 66.5341C96.3678 66.2135 96.1405 65.8869 95.9539 65.5541C95.7713 65.2213 95.6211 64.8825 95.5034 64.5376H95.4791H94.8521C94.7182 64.5376 94.5924 64.5132 94.4747 64.4645C94.3571 64.4158 94.2556 64.3469 94.1704 64.2576C94.0811 64.1724 94.0121 64.0709 93.9634 63.9532C93.9147 63.8356 93.8904 63.7098 93.8904 63.5758ZM98.3217 61.0619C98.3298 60.9483 98.3278 60.8286 98.3156 60.7028C98.3075 60.5729 98.2872 60.4492 98.2547 60.3315C98.2263 60.2098 98.1858 60.1002 98.133 60.0028C98.0803 59.9054 98.0153 59.8324 97.9382 59.7837C97.8611 59.8242 97.7759 59.9013 97.6826 60.015C97.5933 60.1286 97.502 60.2666 97.4087 60.4289C97.3153 60.5912 97.224 60.7698 97.1347 60.9645C97.0495 61.1553 96.9724 61.35 96.9034 61.5489C96.8345 61.7477 96.7776 61.9425 96.733 62.1332C96.6924 62.3199 96.6701 62.4883 96.666 62.6385C96.8405 62.606 97.0211 62.5411 97.2078 62.4437C97.3985 62.3422 97.573 62.2205 97.7313 62.0785C97.8936 61.9324 98.0295 61.7721 98.1391 61.5976C98.2487 61.4231 98.3095 61.2445 98.3217 61.0619ZM100.014 63.5758C100.014 63.4419 100.038 63.3182 100.087 63.2045C100.136 63.0909 100.203 62.9915 100.288 62.9063C100.373 62.8211 100.474 62.7541 100.592 62.7054C100.706 62.6527 100.83 62.6222 100.963 62.6141C101.235 62.6141 101.471 62.5613 101.67 62.4558C101.872 62.3503 102.051 62.2124 102.205 62.0419C102.359 61.8715 102.497 61.6808 102.619 61.4698C102.741 61.2587 102.857 61.0477 102.966 60.8367V60.8428C103.072 60.6237 103.183 60.4066 103.301 60.1915C103.423 59.9764 103.554 59.7776 103.697 59.595C103.916 59.3393 104.161 59.1425 104.433 59.0045C104.705 58.8625 104.995 58.7915 105.303 58.7915C105.669 58.7915 105.999 58.8666 106.296 59.0167C106.596 59.1669 106.868 59.3819 107.111 59.6619C107.294 59.8811 107.442 60.1327 107.556 60.4167C107.669 60.6967 107.744 60.995 107.781 61.3115V61.2993C107.805 61.4576 107.817 61.6382 107.817 61.8411C107.817 62.0602 107.797 62.2753 107.757 62.4863C107.72 62.6932 107.667 62.89 107.598 63.0767C107.464 63.4176 107.272 63.7037 107.02 63.935C106.772 64.1622 106.503 64.3185 106.21 64.4037C106.113 64.4321 106.016 64.4503 105.918 64.4585C105.825 64.4706 105.725 64.4767 105.62 64.4767C105.437 64.4767 105.243 64.4544 105.036 64.4098C104.833 64.3651 104.632 64.3042 104.433 64.2271C104.352 64.1906 104.261 64.148 104.159 64.0993C104.058 64.0466 103.95 63.9898 103.837 63.9289C103.727 63.868 103.617 63.8051 103.508 63.7402C103.398 63.6753 103.297 63.6124 103.203 63.5515C103.041 63.7016 102.879 63.8376 102.717 63.9593C102.554 64.0811 102.384 64.1845 102.205 64.2698C102.027 64.355 101.836 64.4199 101.633 64.4645C101.43 64.5132 101.209 64.5376 100.97 64.5376C100.836 64.5376 100.712 64.5112 100.598 64.4585C100.481 64.4098 100.379 64.3428 100.294 64.2576C100.205 64.1724 100.136 64.0709 100.087 63.9532C100.038 63.8356 100.014 63.7098 100.014 63.5758ZM104.33 61.975C104.455 62.0561 104.603 62.1353 104.774 62.2124C104.948 62.2895 105.121 62.3585 105.291 62.4193C105.462 62.4802 105.618 62.5309 105.76 62.5715C105.906 62.608 106.016 62.6263 106.089 62.6263C106.105 62.6263 106.121 62.6263 106.137 62.6263C106.158 62.6222 106.178 62.6182 106.198 62.6141C106.247 62.6019 106.294 62.5411 106.338 62.4315C106.387 62.3179 106.405 62.1637 106.393 61.9689C106.393 61.839 106.357 61.697 106.283 61.5428C106.21 61.3845 106.115 61.2385 105.997 61.1045C105.88 60.9666 105.744 60.8529 105.59 60.7637C105.439 60.6703 105.285 60.6237 105.127 60.6237C105.07 60.6237 104.997 60.7048 104.908 60.8671C104.819 61.0295 104.689 61.2709 104.518 61.5915V61.5854L104.33 61.975ZM117.192 62.5837C117.289 62.5877 117.386 62.5918 117.484 62.5958C117.585 62.5958 117.681 62.5958 117.77 62.5958C118.091 62.5958 118.397 62.5837 118.689 62.5593C118.981 62.535 119.251 62.5025 119.499 62.4619C119.746 62.4213 119.963 62.3787 120.15 62.3341C120.341 62.2854 120.493 62.2387 120.606 62.1941H120.6C120.811 62.1048 120.966 62.0257 121.063 61.9567C121.16 61.8877 121.225 61.835 121.258 61.7985C121.319 61.7295 121.361 61.6585 121.386 61.5854C121.414 61.5083 121.428 61.4292 121.428 61.348C121.428 61.1735 121.361 60.9869 121.227 60.788C121.093 60.5851 120.921 60.3802 120.71 60.1732C120.503 59.9663 120.272 59.7593 120.016 59.5524C119.764 59.3454 119.519 59.1466 119.279 58.9558L118.007 57.9089L118.208 56.1071L123.699 53.715L124.453 55.5045L120.162 57.3367C120.389 57.5274 120.619 57.7242 120.85 57.9271C121.085 58.13 121.311 58.339 121.526 58.5541C121.741 58.7651 121.942 58.9822 122.128 59.2054C122.319 59.4245 122.483 59.6498 122.621 59.8811C122.763 60.1083 122.875 60.3396 122.956 60.575C123.037 60.8103 123.078 61.0498 123.078 61.2932C123.078 61.5611 123.031 61.8329 122.938 62.1089C122.848 62.3848 122.7 62.6689 122.493 62.9611H122.499C122.475 62.9976 122.433 63.0503 122.372 63.1193C122.315 63.1883 122.236 63.2654 122.134 63.3506C122.037 63.4358 121.915 63.5271 121.769 63.6245C121.623 63.7179 121.451 63.8112 121.252 63.9045C120.692 64.1521 120.128 64.3185 119.559 64.4037C118.991 64.4889 118.413 64.5315 117.825 64.5315H117.697C117.612 64.5315 117.524 64.5315 117.435 64.5315C117.346 64.5315 117.259 64.5274 117.173 64.5193C116.415 64.5112 115.735 64.4625 115.134 64.3732C114.534 64.288 114.006 64.1602 113.552 63.9898C112.631 63.6327 111.997 63.1092 111.653 62.4193V62.4254C111.458 62.048 111.36 61.63 111.36 61.1715C111.36 60.9727 111.385 60.7576 111.433 60.5263C111.482 60.295 111.545 60.0698 111.622 59.8506C111.671 59.737 111.711 59.6416 111.744 59.5645C111.78 59.4874 111.815 59.4164 111.847 59.3515C111.88 59.2866 111.916 59.2216 111.957 59.1567C111.997 59.0918 112.048 59.0127 112.109 58.9193L113.552 59.9724C113.495 60.0738 113.432 60.1773 113.363 60.2828C113.298 60.3883 113.237 60.4958 113.18 60.6054C113.128 60.715 113.083 60.8266 113.046 60.9402C113.01 61.0538 112.992 61.1674 112.992 61.2811C112.992 61.4393 113.046 61.5813 113.156 61.7071C113.27 61.8289 113.424 61.9364 113.619 62.0298C113.817 62.119 114.049 62.1961 114.313 62.2611C114.58 62.326 114.868 62.3808 115.177 62.4254C115.489 62.47 115.816 62.5045 116.157 62.5289C116.498 62.5532 116.841 62.5715 117.186 62.5837H117.192ZM128.817 64.5376C128.728 64.5376 128.602 64.5315 128.44 64.5193C128.278 64.5071 128.103 64.4625 127.916 64.3854C127.827 64.8886 127.659 65.3654 127.411 65.8158C127.168 66.2703 126.865 66.6944 126.504 67.088C126.143 67.4857 125.731 67.8509 125.269 68.1837C124.806 68.5164 124.313 68.8147 123.789 69.0785L122.675 67.5385C122.964 67.3924 123.254 67.2321 123.546 67.0576C123.838 66.8871 124.116 66.7045 124.38 66.5098C124.648 66.319 124.895 66.1182 125.122 65.9071C125.354 65.7002 125.555 65.4851 125.725 65.2619C125.895 65.0387 126.029 64.8095 126.127 64.5741C126.224 64.3428 126.273 64.1074 126.273 63.868C126.273 63.8558 126.271 63.8376 126.267 63.8132C126.267 63.7889 126.267 63.7645 126.267 63.7402C126.267 63.7158 126.265 63.6976 126.261 63.6854C126.261 63.6732 126.261 63.6753 126.261 63.6915V63.6976C126.232 63.4622 126.192 63.237 126.139 63.0219C126.086 62.8069 126.019 62.5877 125.938 62.3645C125.861 62.1413 125.77 61.908 125.664 61.6645C125.559 61.417 125.441 61.1471 125.311 60.855L127.07 60.088C127.233 60.575 127.385 60.9808 127.527 61.3054C127.669 61.63 127.807 61.8898 127.941 62.0845C128.079 62.2793 128.217 62.4173 128.355 62.4985C128.493 62.5756 128.639 62.6141 128.793 62.6141H128.823C128.957 62.6141 129.083 62.6405 129.201 62.6932C129.318 62.746 129.42 62.817 129.505 62.9063C129.594 62.9915 129.663 63.0929 129.712 63.2106C129.765 63.3283 129.791 63.4521 129.791 63.5819C129.791 63.7158 129.765 63.8416 129.712 63.9593C129.663 64.077 129.594 64.1785 129.505 64.2637C129.42 64.3489 129.318 64.4158 129.201 64.4645C129.083 64.5132 128.955 64.5376 128.817 64.5376ZM127.797 63.5758C127.797 63.4419 127.821 63.3161 127.87 63.1985C127.918 63.0808 127.987 62.9793 128.077 62.8941C128.162 62.8089 128.263 62.7419 128.381 62.6932C128.499 62.6405 128.624 62.6141 128.758 62.6141H129.075C129.087 62.3463 129.128 62.0561 129.197 61.7437C129.27 61.4271 129.367 61.1106 129.489 60.7941C129.611 60.4735 129.755 60.1651 129.921 59.8689C130.087 59.5686 130.27 59.3008 130.469 59.0654C130.672 58.83 130.891 58.6393 131.126 58.4932C131.362 58.3431 131.607 58.2599 131.863 58.2437C132.135 58.2477 132.386 58.3248 132.618 58.475C132.853 58.6211 133.056 58.8138 133.226 59.0532C133.397 59.2927 133.531 59.5645 133.628 59.8689C133.725 60.1732 133.774 60.4816 133.774 60.7941C133.774 61.1634 133.693 61.5225 133.531 61.8715C133.372 62.2205 133.161 62.5471 132.898 62.8515C132.638 63.1518 132.342 63.4237 132.009 63.6671C131.68 63.9066 131.345 64.1034 131.004 64.2576C131.033 64.355 131.092 64.4706 131.181 64.6045C131.274 64.7425 131.378 64.8805 131.491 65.0185C131.609 65.1564 131.727 65.2863 131.844 65.408C131.962 65.5298 132.062 65.6271 132.143 65.7002C132.139 65.4648 132.173 65.2234 132.246 64.9758C132.319 64.7324 132.421 64.497 132.551 64.2698C132.684 64.0425 132.841 63.8295 133.019 63.6306C133.198 63.4277 133.389 63.2512 133.591 63.1011C133.798 62.9509 134.011 62.8332 134.231 62.748C134.45 62.6587 134.667 62.6141 134.882 62.6141C135.016 62.6141 135.142 62.6405 135.259 62.6932C135.377 62.7419 135.478 62.8089 135.564 62.8941C135.653 62.9793 135.722 63.0808 135.771 63.1985C135.823 63.3161 135.85 63.4419 135.85 63.5758C135.85 63.7098 135.823 63.8356 135.771 63.9532C135.722 64.0709 135.653 64.1724 135.564 64.2576C135.478 64.3469 135.377 64.4158 135.259 64.4645C135.142 64.5132 135.016 64.5376 134.882 64.5376H134.858C134.679 64.5619 134.507 64.6208 134.34 64.7141C134.174 64.8115 134.026 64.9312 133.896 65.0732C133.77 65.2193 133.669 65.3796 133.591 65.5541C133.514 65.7327 133.476 65.9132 133.476 66.0958C133.476 66.177 133.482 66.2521 133.494 66.3211C133.506 66.3941 133.529 66.4671 133.561 66.5402C133.593 66.6132 133.636 66.6903 133.689 66.7715C133.746 66.8527 133.817 66.9399 133.902 67.0332L132.788 68.3906C132.301 68.0944 131.873 67.7921 131.504 67.4837C131.134 67.1753 130.814 66.8587 130.542 66.5341C130.274 66.2135 130.047 65.8869 129.86 65.5541C129.678 65.2213 129.527 64.8825 129.41 64.5376H129.385H128.758C128.624 64.5376 128.499 64.5132 128.381 64.4645C128.263 64.4158 128.162 64.3469 128.077 64.2576C127.987 64.1724 127.918 64.0709 127.87 63.9532C127.821 63.8356 127.797 63.7098 127.797 63.5758ZM132.228 61.0619C132.236 60.9483 132.234 60.8286 132.222 60.7028C132.214 60.5729 132.193 60.4492 132.161 60.3315C132.133 60.2098 132.092 60.1002 132.039 60.0028C131.987 59.9054 131.922 59.8324 131.844 59.7837C131.767 59.8242 131.682 59.9013 131.589 60.015C131.5 60.1286 131.408 60.2666 131.315 60.4289C131.222 60.5912 131.13 60.7698 131.041 60.9645C130.956 61.1553 130.879 61.35 130.81 61.5489C130.741 61.7477 130.684 61.9425 130.639 62.1332C130.599 62.3199 130.576 62.4883 130.572 62.6385C130.747 62.606 130.927 62.5411 131.114 62.4437C131.305 62.3422 131.479 62.2205 131.638 62.0785C131.8 61.9324 131.936 61.7721 132.045 61.5976C132.155 61.4231 132.216 61.2445 132.228 61.0619ZM133.951 63.5819C133.951 63.4561 133.975 63.3364 134.024 63.2228C134.072 63.1092 134.137 63.0098 134.218 62.9245C134.3 62.8353 134.397 62.7642 134.511 62.7115C134.62 62.6547 134.738 62.6222 134.864 62.6141C135.168 62.6141 135.424 62.5329 135.631 62.3706C135.842 62.2042 136.022 61.9871 136.172 61.7193C136.322 61.4515 136.45 61.1471 136.556 60.8063C136.661 60.4613 136.761 60.1103 136.854 59.7532L138.473 60.0454C138.441 60.1874 138.4 60.3538 138.351 60.5445C138.307 60.7312 138.264 60.926 138.224 61.1289C138.187 61.3318 138.157 61.5306 138.132 61.7254C138.108 61.9161 138.102 62.0845 138.114 62.2306C138.13 62.3767 138.169 62.4924 138.23 62.5776C138.291 62.6587 138.384 62.6892 138.51 62.6689C138.672 62.6567 138.818 62.5999 138.948 62.4985C139.082 62.397 139.202 62.2671 139.307 62.1089C139.413 61.9506 139.506 61.7721 139.587 61.5732C139.668 61.3744 139.737 61.1695 139.794 60.9585C139.855 60.7474 139.904 60.5385 139.94 60.3315C139.981 60.1245 140.013 59.9358 140.038 59.7654L141.584 60.0271C141.58 60.1489 141.565 60.299 141.541 60.4776C141.517 60.6561 141.494 60.8448 141.474 61.0437C141.454 61.2385 141.444 61.4353 141.444 61.6341C141.444 61.8289 141.466 62.0054 141.511 62.1637C141.555 62.3179 141.628 62.4437 141.73 62.5411C141.835 62.6385 141.981 62.6871 142.168 62.6871C142.282 62.6871 142.397 62.6689 142.515 62.6324C142.633 62.5918 142.738 62.537 142.831 62.468C142.925 62.395 143 62.3098 143.057 62.2124C143.118 62.115 143.148 62.0054 143.148 61.8837C143.148 61.6727 143.113 61.4413 143.044 61.1898C142.976 60.9341 142.892 60.6825 142.795 60.435C142.698 60.1834 142.594 59.946 142.484 59.7228C142.379 59.4996 142.29 59.3109 142.217 59.1567L143.726 58.3106C143.751 58.3634 143.793 58.4567 143.854 58.5906C143.915 58.7205 143.984 58.8787 144.061 59.0654C144.138 59.2521 144.217 59.4631 144.298 59.6984C144.384 59.9298 144.461 60.1712 144.53 60.4228C144.599 60.6744 144.656 60.9321 144.7 61.1958C144.745 61.4596 144.767 61.7153 144.767 61.9628C144.767 62.3686 144.71 62.7338 144.597 63.0585C144.487 63.3831 144.319 63.659 144.091 63.8863C143.868 64.1135 143.586 64.29 143.245 64.4158C142.909 64.5416 142.513 64.6066 142.058 64.6106C141.839 64.6106 141.64 64.5883 141.462 64.5437C141.283 64.5031 141.123 64.4442 140.981 64.3671C140.839 64.2941 140.711 64.2069 140.598 64.1054C140.488 64.004 140.391 63.8964 140.305 63.7828C140.208 63.9086 140.102 64.0222 139.989 64.1237C139.879 64.2211 139.751 64.3042 139.605 64.3732C139.463 64.4463 139.303 64.5031 139.124 64.5437C138.946 64.5842 138.743 64.6066 138.516 64.6106C138.317 64.6147 138.136 64.5964 137.974 64.5558C137.816 64.5193 137.67 64.4645 137.536 64.3915C137.402 64.3185 137.28 64.2312 137.171 64.1298C137.065 64.0242 136.966 63.9086 136.872 63.7828C136.787 63.8883 136.69 63.9877 136.58 64.0811C136.471 64.1703 136.341 64.2495 136.191 64.3185C136.04 64.3874 135.866 64.4422 135.667 64.4828C135.468 64.5234 135.237 64.5437 134.973 64.5437H134.864C134.738 64.5356 134.62 64.5051 134.511 64.4524C134.397 64.3996 134.3 64.3306 134.218 64.2454C134.137 64.1602 134.072 64.0608 134.024 63.9471C133.975 63.8335 133.951 63.7118 133.951 63.5819ZM142.898 57.1298L141.73 58.3045L140.573 57.148L139.429 58.2924L138.248 57.1176L139.417 55.9428L140.573 57.0993L141.718 55.955L142.898 57.1298ZM139.49 55.3645L140.573 54.2811L141.663 55.3706L140.579 56.4541L139.49 55.3645Z" fill="#303030"/>
<defs>
<linearGradient id="paint0_linear_1325_10093" x1="6.25671" y1="6.87763" x2="178.781" y2="88.8982" gradientUnits="userSpaceOnUse">
<stop stop-color="#EAEAEA"/>
<stop offset="1" stop-color="#BDBDBD"/>
</linearGradient>
</defs>
</svg>
