<svg width="182" height="91" viewBox="0 0 182 91" fill="none" xmlns="http://www.w3.org/2000/svg">
<rect x="0.787109" y="0.75" width="179.537" height="88.6724" rx="9.25" fill="white" stroke="url(#paint0_linear_1325_10056)" stroke-width="1.5"/>
<path d="M36.0761 47.918C36.3022 48.1319 36.3107 48.4891 36.0958 48.7153C35.881 48.9405 35.5238 48.95 35.2985 48.7351L31.4543 45.068C31.2281 44.8531 31.2196 44.4959 31.4345 44.2707C31.6494 44.0445 32.0056 44.036 32.2318 44.2509L36.0761 47.918ZM43.2962 33.9169C43.6072 33.8943 43.8777 34.128 43.9012 34.439C43.9238 34.75 43.6911 35.0205 43.3801 35.0441L37.4973 35.5021C37.1863 35.5247 36.9148 35.292 36.8913 34.9809C36.8687 34.6699 37.1024 34.3985 37.4134 34.3749L43.2962 33.9169ZM51.6878 44.2575C51.3871 44.1764 51.2081 43.8673 51.2882 43.5657C51.3692 43.2641 51.6783 43.086 51.9799 43.1661L67.1119 47.2206C67.5718 47.344 68.0402 47.2677 68.4238 47.0471C68.8055 46.8266 69.1052 46.4591 69.2277 45.9991C69.3484 45.5505 69.2739 45.1048 69.06 44.7334L69.059 44.7344C68.8328 44.3414 68.4511 44.0285 67.978 43.8749L47.6842 37.2862C47.3874 37.1901 47.2253 36.8715 47.3223 36.5756C47.4185 36.2787 47.737 36.1166 48.0329 36.2127L68.3277 42.8014C69.0703 43.0427 69.6726 43.5403 70.0354 44.1689L70.0345 44.1698L70.0354 44.1708C70.3945 44.7937 70.5208 45.5402 70.3191 46.2913C70.1164 47.049 69.6198 47.656 68.9846 48.0226C68.3512 48.3892 67.5784 48.5145 66.8207 48.3119L51.6878 44.2575Z" fill="#303030"/>
<path d="M51.6887 44.2575C51.3871 44.1765 51.208 43.8673 51.2882 43.5657C51.3692 43.2642 51.6783 43.086 51.9799 43.1661L63.4109 46.2291C64.1696 46.4327 64.7765 46.9275 65.1431 47.5617C65.1497 47.573 65.1554 47.5844 65.161 47.5966C65.5126 48.2243 65.6313 48.983 65.4315 49.7275C65.2279 50.4862 64.7322 51.0931 64.097 51.4597C63.4627 51.8254 62.6899 51.9517 61.9322 51.7481L56.7449 50.3589C56.4443 50.2779 56.2652 49.9688 56.3453 49.6672C56.4264 49.3656 56.7355 49.1865 57.0371 49.2676L62.2244 50.6577C62.6843 50.7802 63.1527 50.7048 63.5362 50.4833C63.9179 50.2628 64.2176 49.8952 64.3402 49.4363C64.4608 48.9867 64.3911 48.5306 64.1818 48.1517L64.1667 48.1272C63.9453 47.7427 63.5777 47.443 63.1197 47.3205L51.6887 44.2575Z" fill="#303030"/>
<path d="M55.265 54.7083C54.9634 54.6282 54.7853 54.3181 54.8654 54.0166C54.9455 53.7159 55.2555 53.5368 55.5571 53.617L58.0688 54.2899C58.0885 54.2946 58.1074 54.2993 58.1262 54.3049C58.5777 54.418 59.0348 54.3417 59.4108 54.124C59.7859 53.9082 60.0799 53.551 60.2081 53.1043C60.2119 53.0864 60.2166 53.0684 60.2223 53.0505C60.3354 52.6001 60.2581 52.143 60.0413 51.7679L60.0262 51.7405C59.8085 51.3777 59.4579 51.0931 59.0206 50.9687C58.7662 50.914 58.5749 50.6869 58.5749 50.4154C58.5749 50.1035 58.8274 49.85 59.1403 49.85V49.8509C59.1884 49.8509 59.2374 49.8575 59.2864 49.8698C60.03 50.0696 60.6285 50.5512 60.997 51.1694C61.0036 51.1798 61.0111 51.1911 61.0177 51.2024C61.3824 51.8338 61.5087 52.6029 61.3089 53.3587L61.3061 53.3691C61.1035 54.1268 60.6068 54.7338 59.9716 55.1004C59.3392 55.466 58.5673 55.5923 57.8115 55.3906L57.8077 55.3897L55.265 54.7083Z" fill="#303030"/>
<path d="M55.2651 54.7084C54.9636 54.6283 54.7854 54.3182 54.8655 54.0166C54.9457 53.716 55.2557 53.5369 55.5573 53.617C56.315 53.8206 56.922 54.3163 57.2886 54.9515C57.6543 55.5858 57.7805 56.3586 57.577 57.1163L57.5732 57.1305C57.3678 57.8825 56.8749 58.4838 56.2453 58.8476C56.234 58.8542 56.2217 58.8608 56.2095 58.8665C55.5818 59.218 54.8231 59.3358 54.0786 59.137L51.1033 58.3396C50.8026 58.2586 50.6236 57.9495 50.7037 57.6479C50.7838 57.3472 51.0939 57.1682 51.3954 57.2483L54.3698 58.0456C54.8194 58.1653 55.2765 58.0965 55.6544 57.8873L55.6798 57.8712C56.0634 57.6498 56.3631 57.2831 56.4866 56.8242C56.61 56.3643 56.5337 55.8959 56.3122 55.5123C56.0917 55.1306 55.7251 54.8309 55.2651 54.7084Z" fill="#303030"/>
<path d="M34.195 49.7859L36.2316 46.2583L36.2326 46.2564H36.2316C36.4823 45.822 36.8876 45.5289 37.3381 45.4082C37.7886 45.2876 38.2862 45.3385 38.7216 45.5901L40.3059 46.5043C40.3322 46.5175 40.3577 46.5326 40.3822 46.5495C40.794 46.8012 41.073 47.1961 41.1899 47.6324C41.3067 48.0678 41.2634 48.5475 41.0325 48.9726C41.0183 49.0037 41.0014 49.0329 40.9816 49.0612L38.9713 52.5426C38.9572 52.5728 38.9402 52.602 38.9214 52.6302C38.6688 53.043 38.2749 53.3211 37.8376 53.4389C37.4022 53.5548 36.9225 53.5114 36.4974 53.2805C36.471 53.2683 36.4456 53.2541 36.4211 53.2372L34.8707 52.3419C34.8434 52.3287 34.818 52.3145 34.7944 52.2976C34.3816 52.045 34.1026 51.651 33.9858 51.2137C33.8689 50.7783 33.9132 50.2986 34.1432 49.8736C34.1582 49.8425 34.1752 49.8133 34.195 49.7859ZM37.2061 46.821L35.161 50.3636C35.1554 50.374 35.1497 50.3853 35.144 50.3957C35.0489 50.5597 35.031 50.7491 35.0771 50.9225C35.1224 51.0931 35.2326 51.2477 35.3957 51.3429L35.3995 51.3447L37.0158 52.2778L37.0205 52.2806C37.1835 52.3748 37.3729 52.3937 37.5464 52.3475C37.7188 52.3013 37.8734 52.1901 37.9686 52.0252L37.9695 52.0261L40.0146 48.4835C40.0203 48.4721 40.0259 48.4608 40.0325 48.4505C40.1268 48.2865 40.1456 48.0971 40.0995 47.9246C40.0533 47.7531 39.943 47.5994 39.7809 47.5043L39.7771 47.5024L38.1561 46.5665C37.9921 46.4713 37.8027 46.4534 37.6302 46.4996C37.4578 46.5458 37.3023 46.657 37.2071 46.8219L37.2061 46.821Z" fill="#303030"/>
<path d="M41.9267 55.0542L44.2056 51.1072C44.2178 51.0808 44.232 51.0554 44.248 51.0318C44.3507 50.8367 44.3696 50.6152 44.3149 50.4126C44.2612 50.21 44.134 50.0281 43.9464 49.9103C43.9257 49.8999 43.905 49.8877 43.8852 49.8745L42.0945 48.8397C41.8928 48.7237 41.66 48.7011 41.448 48.7577C41.235 48.8142 41.0446 48.9509 40.9287 49.1507L38.6055 53.1759L38.6046 53.1778H38.6055C38.4896 53.3795 38.4661 53.6122 38.5226 53.8243C38.5801 54.0373 38.7158 54.2277 38.9166 54.3426L38.9184 54.3436V54.3426L40.744 55.3963L40.7656 55.4104C40.9626 55.515 41.186 55.5339 41.3905 55.4792C41.6016 55.4227 41.792 55.286 41.9088 55.0834C41.9145 55.073 41.9211 55.0636 41.9267 55.0542ZM45.2074 51.6237L42.9022 55.6168C42.8965 55.6281 42.8909 55.6385 42.8852 55.6489C42.6129 56.121 42.1718 56.4387 41.6817 56.5706C41.2058 56.6978 40.6808 56.6488 40.2171 56.3934C40.2039 56.3878 40.1917 56.3802 40.1785 56.3727L38.353 55.319L38.3539 55.3181C37.8808 55.0448 37.5632 54.6046 37.4322 54.1155C37.3012 53.6264 37.3559 53.0854 37.6292 52.6123L37.6301 52.6132L39.9533 48.5899C40.2266 48.1159 40.6667 47.7973 41.1558 47.6663C41.6459 47.5353 42.1869 47.5909 42.66 47.8642L44.4808 48.9151L44.4846 48.9179C44.9567 49.1903 45.2753 49.6304 45.4063 50.1205C45.5373 50.6105 45.4817 51.1506 45.2084 51.6246L45.2074 51.6237Z" fill="#303030"/>
<path d="M41.9106 55.0815L44.2319 51.061L44.2338 51.0591H44.2319C44.5052 50.586 44.9453 50.2684 45.4354 50.1374C45.9245 50.0064 46.4645 50.062 46.9367 50.3344L46.9386 50.3353L46.9395 50.3344L48.7274 51.3673C48.7538 51.3796 48.7792 51.3947 48.8028 51.4116C49.2542 51.6859 49.5577 52.1156 49.6858 52.5916C49.8131 53.0666 49.765 53.5887 49.5124 54.0514C49.4983 54.0825 49.4804 54.1117 49.4615 54.14L47.1648 58.1172L47.1638 58.119L47.1648 58.12C46.8924 58.5922 46.4514 58.9098 45.9613 59.0408C45.4731 59.1718 44.9331 59.1162 44.46 58.8438L44.4581 58.8428V58.8438L42.6325 57.7901C42.6203 57.7826 42.608 57.775 42.5958 57.7666C42.1434 57.4914 41.839 57.0616 41.7118 56.5866C41.5808 56.0984 41.6364 55.5584 41.9087 55.0853L41.9106 55.0815ZM45.2073 51.6237L42.9115 55.6008C42.8983 55.6291 42.8832 55.6564 42.8653 55.6838C42.7664 55.877 42.7494 56.0947 42.8022 56.2954C42.8559 56.4952 42.9794 56.6752 43.1613 56.7921C43.1858 56.8043 43.2103 56.8185 43.2329 56.8335L45.0235 57.8674L45.0226 57.8684C45.2243 57.9843 45.4571 58.0069 45.6701 57.9503C45.8812 57.8938 46.0715 57.7571 46.1884 57.5545H46.1894L48.4946 53.5623C48.5002 53.551 48.5059 53.5406 48.5125 53.5293C48.6284 53.3276 48.651 53.0948 48.5945 52.8837C48.5379 52.6726 48.4022 52.4832 48.2015 52.3663L48.1987 52.3644L46.3741 51.3108V51.3098C46.1724 51.1939 45.9396 51.1713 45.7275 51.2288C45.5155 51.2853 45.3251 51.422 45.2083 51.6246L45.2073 51.6237Z" fill="#303030"/>
<path d="M49.8538 59.0861L51.6604 55.9562C51.6717 55.9307 51.6859 55.9062 51.701 55.8827C51.766 55.7554 51.7764 55.6112 51.7415 55.4793C51.7066 55.3473 51.6246 55.2286 51.5049 55.1504C51.4804 55.1381 51.4569 55.124 51.4342 55.108L50.0733 54.322C50.0479 54.3107 50.0234 54.2975 49.9998 54.2824C49.8726 54.2173 49.7284 54.206 49.5965 54.2419C49.4645 54.2767 49.3458 54.3578 49.2685 54.4784C49.2572 54.4991 49.2459 54.518 49.2336 54.5378L47.4006 57.711L47.3883 57.7308C47.3223 57.859 47.311 58.0051 47.3468 58.1398C47.3845 58.2803 47.475 58.4056 47.6088 58.4838C47.6183 58.4895 47.6286 58.4951 47.6381 58.5017L49.0612 59.3235C49.195 59.3999 49.3495 59.415 49.4919 59.3773C49.6323 59.3396 49.7576 59.2491 49.8358 59.1153C49.8415 59.1049 49.8472 59.0955 49.8538 59.0861ZM52.6623 56.4726L50.8282 59.6487C50.8235 59.6591 50.8179 59.6704 50.8113 59.6807C50.5785 60.0841 50.2015 60.3565 49.7831 60.4686C49.3656 60.5798 48.9047 60.5327 48.5004 60.299L47.0754 59.4762C47.0641 59.4715 47.0537 59.4659 47.0434 59.4593C46.6391 59.2265 46.3676 58.8495 46.2555 58.431C46.1471 58.0258 46.1886 57.58 46.4034 57.1851C46.41 57.1719 46.4166 57.1587 46.4242 57.1455L48.2742 53.9422L48.2761 53.9384C48.5098 53.5341 48.8859 53.2626 49.3052 53.1505C49.7228 53.0383 50.1855 53.0855 50.5898 53.3192V53.3201L52.012 54.142C52.0233 54.1467 52.0336 54.1533 52.045 54.1589C52.4483 54.3926 52.7207 54.7687 52.8328 55.1881C52.9441 55.6056 52.8969 56.0683 52.6632 56.4726H52.6623Z" fill="#303030"/>
<path d="M56.3292 29.1689C56.6384 29.1302 56.9201 29.3489 56.9588 29.657C56.9984 29.9662 56.7797 30.248 56.4706 30.2866L46.9566 31.5118L42.2405 36.4446L41.856 43.3603C41.971 43.3707 42.1331 43.3518 42.331 43.3037C42.642 43.2283 43.0077 43.0794 43.3913 42.8551C44.7654 42.0531 46.2469 40.3284 46.0188 37.6811C46.0009 37.4577 46.1149 37.2541 46.2959 37.1476L47.538 36.2862C47.7944 36.1091 48.1459 36.1732 48.3222 36.4295C48.4993 36.6858 48.4353 37.0374 48.1789 37.2136L47.1667 37.9157C47.2958 40.9193 45.5674 42.8938 43.9614 43.8315C43.4874 44.1086 43.0143 44.298 42.5958 44.3998C42.1255 44.5138 41.7043 44.5157 41.3923 44.4064C40.9456 44.25 40.6949 43.9258 40.7222 43.4319L41.1256 36.1741C41.1322 36.045 41.184 35.9168 41.2802 35.816L46.278 30.5901C46.3647 30.4996 46.4816 30.4365 46.6154 30.4195L56.3292 29.1689Z" fill="#303030"/>
<path d="M63.4702 27.5252C63.7397 27.3706 64.0837 27.463 64.2383 27.7325C64.3929 28.0021 64.3005 28.346 64.031 28.5016L58.724 31.5655L58.7155 31.5702C58.3216 31.7945 57.873 31.8397 57.4668 31.7313C57.0568 31.6211 56.6883 31.3544 56.4602 30.9595C56.4536 30.9482 56.448 30.9378 56.4423 30.9265L55.9127 30.0085C55.7572 29.739 55.8505 29.395 56.12 29.2404C56.3896 29.0849 56.7336 29.1782 56.8891 29.4478L57.4093 30.3488C57.4244 30.3704 57.4385 30.394 57.4508 30.4185C57.5243 30.5306 57.6355 30.607 57.7589 30.64C57.8805 30.672 58.0125 30.6635 58.1303 30.606C58.1548 30.59 58.1812 30.5749 58.2094 30.5627L63.4702 27.5252ZM69.1918 37.4369C69.4614 37.2814 69.8063 37.3747 69.9609 37.6443C70.1154 37.9138 70.0221 38.2578 69.7535 38.4124L65.7773 40.7082V40.7091C65.652 40.7817 65.5671 40.9004 65.5313 41.0324C65.4965 41.1643 65.5106 41.3095 65.5822 41.4339C65.5879 41.4442 65.5945 41.4546 65.5992 41.4659L66.028 42.2095C66.1835 42.479 66.0902 42.823 65.8207 42.9776C65.5511 43.1331 65.2071 43.0398 65.0526 42.7703L64.6238 42.0286L64.6058 41.9993C64.3768 41.6026 64.3307 41.1502 64.4409 40.7402C64.5502 40.3303 64.817 39.9618 65.2118 39.7337H65.2128L65.2203 39.7299L69.1918 37.4369Z" fill="#303030"/>
<path d="M35.24 30.4081L38.8618 32.4985C39.1314 32.654 39.2247 32.998 39.0692 33.2675L31.1705 46.9491C31.0159 47.2186 30.6719 47.3119 30.4024 47.1564L30.4005 47.1555L30.3996 47.1564L26.7777 45.0651C26.5082 44.9096 26.4158 44.5647 26.5723 44.2952C26.5779 44.2848 26.5845 44.2754 26.5902 44.265L34.4709 30.6155C34.6265 30.3459 34.9704 30.2526 35.24 30.4081ZM37.8129 33.1931L35.1655 31.6654L27.8304 44.3706L30.4768 45.8992L37.8129 33.1931ZM62.4109 25.6233L66.0035 23.549C66.273 23.3944 66.617 23.4868 66.7725 23.7563L74.6712 37.4379C74.8258 37.7074 74.7334 38.0505 74.4648 38.206L74.4658 38.2069L70.8439 40.2982C70.5744 40.4537 70.2285 40.3623 70.073 40.0928L62.1734 26.4112C62.0179 26.1417 62.1093 25.7958 62.3788 25.6403C62.3892 25.6337 62.4005 25.628 62.4109 25.6233ZM66.0779 24.8062L63.4315 26.3339L70.7676 39.0391L73.413 37.5114L66.0779 24.8062Z" fill="#303030"/>
<path d="M95.2858 30.9035C95.44 31.3417 95.5739 31.7699 95.6875 32.1878C95.7362 32.3704 95.7849 32.5612 95.8336 32.76C95.8823 32.9548 95.9249 33.1516 95.9615 33.3504C96.002 33.5452 96.0345 33.738 96.0589 33.9287C96.0832 34.1154 96.0954 34.2899 96.0954 34.4522C96.0954 34.8336 96.0426 35.2049 95.9371 35.5661C95.8357 35.9313 95.6896 36.2843 95.4989 36.6252C95.3122 36.9661 95.089 37.2928 94.8293 37.6052C94.5696 37.9217 94.2815 38.218 93.9649 38.4939C93.6484 38.7699 93.3096 39.0255 92.9484 39.2609C92.5873 39.5003 92.2139 39.7154 91.8284 39.9061L90.7206 38.3661C91.0128 38.22 91.309 38.0536 91.6093 37.867C91.9055 37.6843 92.1896 37.4875 92.4615 37.2765C92.7374 37.0655 92.9931 36.8443 93.2284 36.613C93.4678 36.3817 93.6748 36.1464 93.8493 35.907C94.0278 35.6675 94.1678 35.4241 94.2693 35.1765C94.3707 34.933 94.4215 34.6936 94.4215 34.4583C94.4215 34.2878 94.3971 34.1032 94.3484 33.9043C94.3038 33.7055 94.2409 33.4925 94.1597 33.2652C94.0826 33.0339 93.9893 32.7904 93.8797 32.5348C93.7702 32.2751 93.6525 31.9991 93.5267 31.707L95.2858 30.9035ZM97.1637 32.5226C97.3341 32.6322 97.5329 32.7417 97.7602 32.8513C97.9915 32.9609 98.2268 33.0623 98.4663 33.1557C98.7097 33.2449 98.9451 33.318 99.1724 33.3748C99.3996 33.4316 99.5964 33.46 99.7628 33.46C99.8237 33.46 99.9028 33.458 100 33.4539C100.098 33.4458 100.199 33.4336 100.305 33.4174C100.414 33.3971 100.524 33.3728 100.633 33.3443C100.743 33.3119 100.842 33.2713 100.931 33.2226C101.025 33.1739 101.1 33.1171 101.157 33.0522C101.214 32.9832 101.244 32.902 101.248 32.8087C101.252 32.6504 101.203 32.4719 101.102 32.273C101.005 32.0742 100.871 31.8672 100.7 31.6522C100.534 31.433 100.339 31.2139 100.116 30.9948C99.8967 30.7716 99.6695 30.5586 99.4341 30.3557C99.1987 30.1487 98.9634 29.958 98.728 29.7835C98.4926 29.6049 98.2755 29.4528 98.0767 29.327L99.1541 27.7261C99.5477 28.002 99.9373 28.3104 100.323 28.6513C100.712 28.9922 101.071 29.3554 101.4 29.7409C101.729 30.1223 102.013 30.518 102.252 30.9278C102.492 31.3377 102.664 31.7475 102.77 32.1574C102.802 32.2751 102.825 32.3948 102.837 32.5165C102.849 32.6342 102.855 32.7478 102.855 32.8574C102.855 33.2348 102.782 33.5817 102.636 33.8983C102.49 34.2107 102.285 34.4826 102.021 34.7139C101.761 34.9412 101.449 35.1177 101.084 35.2435C100.718 35.3693 100.317 35.4322 99.8784 35.4322C99.846 35.4322 99.8135 35.4301 99.7811 35.4261C99.7486 35.4261 99.7161 35.4261 99.6837 35.4261C99.4037 35.4261 99.1155 35.3957 98.8193 35.3348C98.5271 35.278 98.237 35.2009 97.9489 35.1035C97.6648 35.0061 97.3868 34.8925 97.115 34.7626C96.8471 34.6328 96.5976 34.4968 96.3663 34.3548L97.1637 32.5226ZM120.342 35.3652C119.672 35.3652 119.104 35.2557 118.637 35.0365C118.175 34.8174 117.797 34.4522 117.505 33.9409C116.929 34.4319 116.231 34.7951 115.411 35.0304C114.596 35.2658 113.642 35.3835 112.55 35.3835C111.905 35.3794 111.292 35.3368 110.712 35.2557C110.136 35.1786 109.61 35.0609 109.136 34.9026C108.661 34.7403 108.245 34.5394 107.888 34.3C107.531 34.0565 107.251 33.7704 107.048 33.4417C106.922 33.2267 106.831 32.9791 106.774 32.6991C106.717 32.4151 106.699 32.1087 106.719 31.78C106.739 31.4472 106.802 31.0962 106.908 30.727C107.017 30.3536 107.174 29.9681 107.377 29.5704L108.825 30.4104C108.744 30.5687 108.669 30.7229 108.6 30.873C108.531 31.0232 108.478 31.1794 108.442 31.3417C108.405 31.5041 108.387 31.6786 108.387 31.8652C108.391 32.0478 108.424 32.2507 108.484 32.4739C108.586 32.6484 108.766 32.7965 109.026 32.9183C109.29 33.04 109.606 33.1394 109.976 33.2165C110.345 33.2936 110.751 33.3504 111.193 33.387C111.635 33.4235 112.088 33.4417 112.55 33.4417C112.977 33.4417 113.38 33.4275 113.762 33.3991C114.143 33.3667 114.494 33.318 114.815 33.253C115.139 33.1841 115.432 33.0968 115.691 32.9913C115.955 32.8817 116.18 32.7499 116.367 32.5957C116.537 32.4577 116.677 32.3055 116.787 32.1391C116.897 31.9728 116.99 31.7983 117.067 31.6157C117.144 31.429 117.207 31.2342 117.256 31.0313C117.308 30.8284 117.359 30.6235 117.408 30.4165L119.112 30.8487L118.863 32.1391C118.826 32.3258 118.834 32.4983 118.887 32.6565C118.944 32.8148 119.039 32.9528 119.173 33.0704C119.307 33.1841 119.477 33.2754 119.684 33.3443C119.891 33.4093 120.127 33.4417 120.39 33.4417C120.524 33.4417 120.65 33.4661 120.768 33.5148C120.886 33.5635 120.987 33.6325 121.072 33.7217C121.161 33.807 121.23 33.9084 121.279 34.0261C121.332 34.1438 121.358 34.2696 121.358 34.4035C121.358 34.5374 121.332 34.6632 121.279 34.7809C121.23 34.8986 121.161 35 121.072 35.0852C120.987 35.1745 120.886 35.2435 120.768 35.2922C120.65 35.3409 120.524 35.3652 120.39 35.3652H120.342ZM115.357 29.0104L114.188 30.1852L113.031 29.0287L111.887 30.173L110.706 28.9983L111.875 27.8235L113.031 28.98L114.176 27.8357L115.357 29.0104ZM119.331 34.4096C119.331 34.2716 119.356 34.1438 119.404 34.0261C119.453 33.9084 119.524 33.807 119.617 33.7217C119.707 33.6325 119.814 33.5635 119.94 33.5148C120.062 33.4661 120.2 33.4417 120.354 33.4417H120.695H120.993C121.212 33.4417 121.454 33.4397 121.717 33.4357C121.981 33.4275 122.235 33.4072 122.478 33.3748C122.726 33.3383 122.947 33.2855 123.142 33.2165C123.341 33.1475 123.485 33.0522 123.574 32.9304C123.696 32.7438 123.757 32.5307 123.757 32.2913C123.757 32.2101 123.748 32.129 123.732 32.0478C123.72 31.9626 123.704 31.8754 123.684 31.7861C123.655 31.6846 123.594 31.5629 123.501 31.4209C123.412 31.2748 123.296 31.1165 123.154 30.9461C123.012 30.7716 122.85 30.589 122.667 30.3983C122.484 30.2035 122.29 30.0067 122.083 29.8078C121.876 29.6049 121.659 29.4041 121.431 29.2052C121.204 29.0064 120.977 28.8136 120.75 28.627L120.938 26.9713L126.051 24.6948L126.788 26.3261L122.746 28.2009C122.945 28.3388 123.15 28.5032 123.361 28.6939C123.572 28.8846 123.777 29.0936 123.976 29.3209C124.175 29.5441 124.361 29.7814 124.536 30.033C124.71 30.2846 124.862 30.5423 124.992 30.8061C125.122 31.0699 125.224 31.3357 125.297 31.6035C125.374 31.8713 125.41 32.133 125.406 32.3887C125.402 32.693 125.361 32.9771 125.284 33.2409C125.207 33.5006 125.112 33.7339 124.998 33.9409C124.576 34.6957 123.88 35.1562 122.91 35.3226L122.917 35.3165C122.807 35.3368 122.704 35.351 122.606 35.3591C122.509 35.3672 122.413 35.3713 122.32 35.3713L120.354 35.3652C120.204 35.3652 120.066 35.3409 119.94 35.2922C119.814 35.2435 119.707 35.1745 119.617 35.0852C119.528 35 119.459 34.9006 119.41 34.787C119.358 34.6693 119.331 34.5435 119.331 34.4096ZM129.575 30.9035C129.729 31.3417 129.863 31.7699 129.977 32.1878C130.025 32.3704 130.074 32.5612 130.123 32.76C130.171 32.9548 130.214 33.1516 130.251 33.3504C130.291 33.5452 130.324 33.738 130.348 33.9287C130.372 34.1154 130.384 34.2899 130.384 34.4522C130.384 34.8336 130.332 35.2049 130.226 35.5661C130.125 35.9313 129.979 36.2843 129.788 36.6252C129.601 36.9661 129.378 37.2928 129.118 37.6052C128.859 37.9217 128.571 38.218 128.254 38.4939C127.937 38.7699 127.599 39.0255 127.237 39.2609C126.876 39.5003 126.503 39.7154 126.117 39.9061L125.01 38.3661C125.302 38.22 125.598 38.0536 125.898 37.867C126.195 37.6843 126.479 37.4875 126.751 37.2765C127.026 37.0655 127.282 36.8443 127.517 36.613C127.757 36.3817 127.964 36.1464 128.138 35.907C128.317 35.6675 128.457 35.4241 128.558 35.1765C128.66 34.933 128.711 34.6936 128.711 34.4583C128.711 34.2878 128.686 34.1032 128.637 33.9043C128.593 33.7055 128.53 33.4925 128.449 33.2652C128.372 33.0339 128.278 32.7904 128.169 32.5348C128.059 32.2751 127.942 31.9991 127.816 31.707L129.575 30.9035ZM134.308 35.3652C133.808 35.3652 133.38 35.3023 133.023 35.1765C132.666 35.0548 132.358 34.8661 132.098 34.6104C131.936 34.4481 131.81 34.2777 131.721 34.0991C131.635 33.9206 131.572 33.7461 131.532 33.5757C131.495 33.4012 131.473 33.2368 131.465 33.0826C131.461 32.9284 131.459 32.7965 131.459 32.687V32.5957C131.463 32.4455 131.467 32.2304 131.471 31.9504C131.479 31.6664 131.483 31.3336 131.483 30.9522C131.483 30.5707 131.481 30.1507 131.477 29.6922C131.473 29.2336 131.461 28.7771 131.441 28.3226C131.424 27.8641 131.398 27.4238 131.361 27.0017C131.329 26.5797 131.282 26.2125 131.221 25.9L133.041 25.3461C133.094 25.6139 133.137 25.9304 133.169 26.2957C133.202 26.6568 133.228 27.0362 133.248 27.4339C133.273 27.8316 133.289 28.2313 133.297 28.633C133.309 29.0348 133.317 29.4081 133.321 29.753C133.325 30.0574 133.313 30.3557 133.285 30.6478C133.261 30.9359 133.24 31.22 133.224 31.5C133.208 31.7759 133.208 32.0458 133.224 32.3096C133.244 32.5693 133.301 32.8229 133.394 33.0704C133.431 33.1638 133.476 33.2348 133.528 33.2835C133.585 33.3322 133.65 33.3687 133.723 33.393C133.796 33.4133 133.875 33.4255 133.961 33.4296C134.05 33.4336 134.147 33.4357 134.253 33.4357H134.308C134.437 33.4357 134.561 33.462 134.679 33.5148C134.796 33.5675 134.898 33.6386 134.983 33.7278C135.072 33.813 135.143 33.9145 135.196 34.0322C135.249 34.1499 135.275 34.2736 135.275 34.4035C135.275 34.5374 135.249 34.6632 135.196 34.7809C135.143 34.8986 135.072 35 134.983 35.0852C134.898 35.1745 134.796 35.2435 134.679 35.2922C134.561 35.3409 134.437 35.3652 134.308 35.3652ZM133.318 34.4035C133.318 34.2777 133.344 34.158 133.397 34.0443C133.45 33.9307 133.523 33.8313 133.616 33.7461C133.705 33.6568 133.813 33.5858 133.939 33.533C134.06 33.4803 134.192 33.4499 134.334 33.4417C134.549 33.4417 134.75 33.4072 134.937 33.3383C135.124 33.2652 135.3 33.1272 135.467 32.9243C135.633 32.7214 135.789 32.4354 135.935 32.0661C136.081 31.6968 136.221 31.2139 136.355 30.6174L137.974 30.8487C137.987 30.8 137.978 30.8264 137.95 30.9278C137.926 31.0293 137.895 31.1733 137.859 31.36C137.826 31.5426 137.794 31.7496 137.761 31.9809C137.733 32.2081 137.719 32.4272 137.719 32.6383C137.723 32.8452 137.747 33.0258 137.792 33.18C137.84 33.3301 137.924 33.4194 138.041 33.4478C138.167 33.4803 138.289 33.4559 138.407 33.3748C138.524 33.2896 138.636 33.1699 138.741 33.0157C138.847 32.8574 138.944 32.6748 139.034 32.4678C139.123 32.2568 139.204 32.0417 139.277 31.8226C139.35 31.6035 139.413 31.3884 139.466 31.1774C139.518 30.9664 139.559 30.7797 139.587 30.6174L141.194 30.8487C141.186 30.9501 141.172 31.0861 141.152 31.2565C141.131 31.4229 141.115 31.6014 141.103 31.7922C141.091 31.9829 141.085 32.1757 141.085 32.3704C141.089 32.5612 141.111 32.7357 141.152 32.8939C141.192 33.0481 141.255 33.1759 141.34 33.2774C141.426 33.3748 141.543 33.4235 141.694 33.4235C141.827 33.4235 141.943 33.3788 142.04 33.2896C142.138 33.2003 142.219 33.0846 142.284 32.9426C142.353 32.7965 142.408 32.6322 142.448 32.4496C142.489 32.2629 142.519 32.0742 142.54 31.8835C142.56 31.6928 142.57 31.5081 142.57 31.3296C142.57 31.147 142.564 30.9867 142.552 30.8487L144.195 30.6174L144.396 32.3339C144.42 32.5206 144.473 32.6829 144.554 32.8209C144.636 32.9588 144.731 33.0745 144.84 33.1678C144.95 33.2571 145.066 33.3261 145.187 33.3748C145.309 33.4194 145.425 33.4417 145.534 33.4417H145.607C145.758 33.4417 145.894 33.4661 146.015 33.5148C146.141 33.5635 146.249 33.6325 146.338 33.7217C146.427 33.807 146.496 33.9084 146.545 34.0261C146.594 34.1438 146.618 34.2696 146.618 34.4035C146.618 34.5374 146.594 34.6632 146.545 34.7809C146.496 34.8986 146.425 35 146.332 35.0852C146.242 35.1704 146.129 35.2374 145.991 35.2861C145.857 35.3388 145.705 35.3652 145.534 35.3652C145.141 35.3652 144.769 35.2962 144.42 35.1583C144.071 35.0203 143.769 34.787 143.514 34.4583C143.489 34.4907 143.465 34.5191 143.44 34.5435C143.416 34.5678 143.394 34.5922 143.374 34.6165V34.6104C143.154 34.8417 142.901 35.0243 142.613 35.1583C142.329 35.2962 142.022 35.3652 141.694 35.3652C141.324 35.3652 140.983 35.2861 140.671 35.1278C140.362 34.9696 140.105 34.7545 139.898 34.4826C139.654 34.7504 139.378 34.9675 139.07 35.1339C138.762 35.3003 138.423 35.3835 138.054 35.3835C137.709 35.3835 137.388 35.3064 137.092 35.1522C136.796 34.998 136.55 34.787 136.355 34.5191C136.136 34.8235 135.864 35.0406 135.54 35.1704C135.219 35.3003 134.821 35.3652 134.347 35.3652C134.192 35.3652 134.052 35.3388 133.927 35.2861C133.801 35.2374 133.693 35.1704 133.604 35.0852C133.515 35 133.446 34.8986 133.397 34.7809C133.344 34.6632 133.318 34.5374 133.318 34.4035ZM142.734 28.14L141.566 29.3148L140.409 28.1583L139.265 29.3026L138.084 28.1278L139.253 26.953L140.409 28.1096L141.554 26.9652L142.734 28.14ZM139.326 26.3748L140.409 25.2913L141.499 26.3809L140.415 27.4643L139.326 26.3748ZM144.758 34.4035C144.758 34.2696 144.783 34.1458 144.831 34.0322C144.88 33.9186 144.947 33.8191 145.032 33.7339C145.117 33.6487 145.219 33.5817 145.336 33.533C145.45 33.4803 145.574 33.4499 145.708 33.4417C145.98 33.4417 146.215 33.389 146.414 33.2835C146.617 33.178 146.795 33.04 146.95 32.8696C147.104 32.6991 147.242 32.5084 147.363 32.2974C147.485 32.0864 147.601 31.8754 147.71 31.6643V31.6704C147.816 31.4513 147.927 31.2342 148.045 31.0191C148.167 30.8041 148.299 30.6052 148.441 30.4226C148.66 30.167 148.905 29.9701 149.177 29.8322C149.449 29.6901 149.739 29.6191 150.048 29.6191C150.413 29.6191 150.744 29.6942 151.04 29.8443C151.34 29.9945 151.612 30.2096 151.856 30.4896C152.038 30.7087 152.186 30.9603 152.3 31.2443C152.414 31.5243 152.489 31.8226 152.525 32.1391V32.127C152.55 32.2852 152.562 32.4658 152.562 32.6687C152.562 32.8878 152.541 33.1029 152.501 33.3139C152.464 33.5209 152.412 33.7177 152.343 33.9043C152.209 34.2452 152.016 34.5313 151.764 34.7626C151.517 34.9899 151.247 35.1461 150.955 35.2313C150.857 35.2597 150.76 35.278 150.663 35.2861C150.569 35.2983 150.47 35.3043 150.364 35.3043C150.182 35.3043 149.987 35.282 149.78 35.2374C149.577 35.1928 149.376 35.1319 149.177 35.0548C149.096 35.0183 149.005 34.9757 148.903 34.927C148.802 34.8742 148.694 34.8174 148.581 34.7565C148.471 34.6957 148.362 34.6328 148.252 34.5678C148.143 34.5029 148.041 34.44 147.948 34.3791C147.785 34.5293 147.623 34.6652 147.461 34.787C147.299 34.9087 147.128 35.0122 146.95 35.0974C146.771 35.1826 146.58 35.2475 146.377 35.2922C146.174 35.3409 145.953 35.3652 145.714 35.3652C145.58 35.3652 145.456 35.3388 145.343 35.2861C145.225 35.2374 145.123 35.1704 145.038 35.0852C144.949 35 144.88 34.8986 144.831 34.7809C144.783 34.6632 144.758 34.5374 144.758 34.4035ZM149.074 32.8026C149.2 32.8838 149.348 32.9629 149.518 33.04C149.693 33.1171 149.865 33.1861 150.036 33.247C150.206 33.3078 150.362 33.3586 150.504 33.3991C150.65 33.4357 150.76 33.4539 150.833 33.4539C150.849 33.4539 150.865 33.4539 150.882 33.4539C150.902 33.4499 150.922 33.4458 150.943 33.4417C150.991 33.4296 151.038 33.3687 151.083 33.2591C151.131 33.1455 151.15 32.9913 151.137 32.7965C151.137 32.6667 151.101 32.5246 151.028 32.3704C150.955 32.2122 150.859 32.0661 150.742 31.9322C150.624 31.7942 150.488 31.6806 150.334 31.5913C150.184 31.498 150.03 31.4513 149.871 31.4513C149.814 31.4513 149.741 31.5325 149.652 31.6948C149.563 31.8571 149.433 32.0986 149.263 32.4191V32.413L149.074 32.8026ZM117.587 58.3652C116.917 58.3652 116.349 58.2557 115.883 58.0365C115.42 57.8174 115.043 57.4522 114.75 56.9409C114.174 57.4319 113.476 57.7951 112.656 58.0304C111.841 58.2658 110.887 58.3835 109.796 58.3835C109.15 58.3794 108.538 58.3368 107.957 58.2557C107.381 58.1786 106.856 58.0609 106.381 57.9026C105.906 57.7403 105.49 57.5394 105.133 57.3C104.776 57.0565 104.496 56.7704 104.293 56.4417C104.167 56.2267 104.076 55.9791 104.019 55.6991C103.962 55.4151 103.944 55.1087 103.964 54.78C103.985 54.4472 104.047 54.0962 104.153 53.727C104.263 53.3536 104.419 52.9681 104.622 52.5704L106.07 53.4104C105.989 53.5687 105.914 53.7229 105.845 53.873C105.776 54.0232 105.723 54.1794 105.687 54.3417C105.65 54.5041 105.632 54.6786 105.632 54.8652C105.636 55.0478 105.669 55.2507 105.729 55.4739C105.831 55.6484 106.012 55.7965 106.271 55.9183C106.535 56.04 106.852 56.1394 107.221 56.2165C107.59 56.2936 107.996 56.3504 108.438 56.387C108.881 56.4235 109.333 56.4417 109.796 56.4417C110.222 56.4417 110.625 56.4275 111.007 56.3991C111.388 56.3667 111.739 56.318 112.06 56.253C112.385 56.1841 112.677 56.0968 112.936 55.9913C113.2 55.8817 113.425 55.7499 113.612 55.5957C113.783 55.4577 113.923 55.3055 114.032 55.1391C114.142 54.9728 114.235 54.7983 114.312 54.6157C114.389 54.429 114.452 54.2342 114.501 54.0313C114.554 53.8284 114.604 53.6235 114.653 53.4165L116.357 53.8487L116.108 55.1391C116.071 55.3258 116.079 55.4983 116.132 55.6565C116.189 55.8148 116.284 55.9528 116.418 56.0704C116.552 56.1841 116.723 56.2754 116.929 56.3443C117.136 56.4093 117.372 56.4417 117.636 56.4417C117.769 56.4417 117.895 56.4661 118.013 56.5148C118.131 56.5635 118.232 56.6325 118.317 56.7217C118.407 56.807 118.476 56.9084 118.524 57.0261C118.577 57.1438 118.603 57.2696 118.603 57.4035C118.603 57.5374 118.577 57.6632 118.524 57.7809C118.476 57.8986 118.407 58 118.317 58.0852C118.232 58.1745 118.131 58.2435 118.013 58.2922C117.895 58.3409 117.769 58.3652 117.636 58.3652H117.587ZM112.602 52.0104L111.433 53.1852L110.276 52.0287L109.132 53.173L107.951 51.9983L109.12 50.8235L110.276 51.98L111.421 50.8357L112.602 52.0104ZM116.686 57.4035C116.686 57.2696 116.712 57.1438 116.765 57.0261C116.814 56.9084 116.883 56.807 116.972 56.7217C117.057 56.6325 117.161 56.5635 117.283 56.5148C117.4 56.4661 117.526 56.4417 117.66 56.4417H118.829C119.486 56.4417 120.089 56.4032 120.636 56.3261C121.188 56.2449 121.704 56.1374 122.183 56.0035C122.661 55.8696 123.114 55.7154 123.54 55.5409C123.97 55.3623 124.392 55.1777 124.806 54.987C124.53 54.9099 124.252 54.8145 123.972 54.7009C123.696 54.5872 123.418 54.4777 123.138 54.3722C122.862 54.2667 122.586 54.1774 122.31 54.1043C122.034 54.0272 121.761 53.9887 121.489 53.9887C121.302 53.9887 121.119 54.0394 120.941 54.1409C120.762 54.2423 120.6 54.358 120.454 54.4878C120.308 54.6177 120.184 54.7455 120.083 54.8713C119.985 54.993 119.924 55.0762 119.9 55.1209L118.494 54.2139C118.648 53.942 118.831 53.6762 119.042 53.4165C119.253 53.1568 119.484 52.9275 119.736 52.7287C119.991 52.5258 120.265 52.3635 120.557 52.2417C120.854 52.12 121.164 52.0591 121.489 52.0591C121.728 52.0591 121.967 52.0855 122.207 52.1383C122.446 52.187 122.684 52.2519 122.919 52.333C123.158 52.4142 123.394 52.5075 123.625 52.613C123.856 52.7145 124.086 52.818 124.313 52.9235C124.532 53.0249 124.749 53.1264 124.964 53.2278C125.183 53.3252 125.409 53.4165 125.64 53.5017C125.871 53.5829 126.111 53.6499 126.358 53.7026C126.606 53.7554 126.867 53.7838 127.143 53.7878L126.991 55.6565L126.127 56.0704C125.774 56.2409 125.423 56.4174 125.074 56.6C124.725 56.7786 124.368 56.953 124.003 57.1235C123.641 57.2899 123.268 57.4501 122.883 57.6043C122.501 57.7545 122.099 57.8864 121.677 58C121.255 58.1096 120.809 58.1968 120.338 58.2617C119.867 58.3307 119.364 58.3652 118.829 58.3652H117.709H117.66C117.526 58.3652 117.4 58.3388 117.283 58.2861C117.161 58.2374 117.057 58.1704 116.972 58.0852C116.883 58 116.814 57.8986 116.765 57.7809C116.712 57.6632 116.686 57.5374 116.686 57.4035ZM121.233 48.7661L122.584 50.1174L121.233 51.4687L119.882 50.1174L121.233 48.7661ZM130.896 58.3652C130.397 58.3652 129.969 58.3023 129.612 58.1765C129.255 58.0548 128.947 57.8661 128.687 57.6104C128.524 57.4481 128.399 57.2777 128.309 57.0991C128.224 56.9206 128.161 56.7461 128.121 56.5757C128.084 56.4012 128.062 56.2368 128.054 56.0826C128.05 55.9284 128.048 55.7965 128.048 55.687V55.5957C128.052 55.4455 128.056 55.2304 128.06 54.9504C128.068 54.6664 128.072 54.3336 128.072 53.9522C128.072 53.5707 128.07 53.1507 128.066 52.6922C128.062 52.2336 128.05 51.7771 128.029 51.3226C128.013 50.8641 127.987 50.4238 127.95 50.0017C127.918 49.5797 127.871 49.2125 127.81 48.9L129.63 48.3461C129.683 48.6139 129.726 48.9304 129.758 49.2957C129.791 49.6568 129.817 50.0362 129.837 50.4339C129.862 50.8316 129.878 51.2313 129.886 51.633C129.898 52.0348 129.906 52.4081 129.91 52.753C129.914 53.0574 129.902 53.3557 129.874 53.6478C129.849 53.9359 129.829 54.22 129.813 54.5C129.797 54.7759 129.797 55.0458 129.813 55.3096C129.833 55.5693 129.89 55.8229 129.983 56.0704C130.02 56.1638 130.064 56.2348 130.117 56.2835C130.174 56.3322 130.239 56.3687 130.312 56.393C130.385 56.4133 130.464 56.4255 130.549 56.4296C130.639 56.4336 130.736 56.4357 130.842 56.4357H130.896C131.026 56.4357 131.15 56.462 131.268 56.5148C131.385 56.5675 131.487 56.6386 131.572 56.7278C131.661 56.813 131.732 56.9145 131.785 57.0322C131.838 57.1499 131.864 57.2736 131.864 57.4035C131.864 57.5374 131.838 57.6632 131.785 57.7809C131.732 57.8986 131.661 58 131.572 58.0852C131.487 58.1745 131.385 58.2435 131.268 58.2922C131.15 58.3409 131.026 58.3652 130.896 58.3652ZM129.962 57.4096C129.962 57.2838 129.986 57.1641 130.035 57.0504C130.083 56.9368 130.148 56.8374 130.229 56.7522C130.31 56.6629 130.408 56.5919 130.522 56.5391C130.631 56.4823 130.749 56.4499 130.875 56.4417C131.179 56.4417 131.435 56.3606 131.642 56.1983C131.853 56.0319 132.033 55.8148 132.183 55.547C132.333 55.2791 132.461 54.9748 132.567 54.6339C132.672 54.289 132.772 53.938 132.865 53.5809L134.484 53.873C134.452 54.0151 134.411 54.1814 134.362 54.3722C134.318 54.5588 134.275 54.7536 134.235 54.9565C134.198 55.1594 134.168 55.3583 134.143 55.553C134.119 55.7438 134.113 55.9122 134.125 56.0583C134.141 56.2043 134.18 56.32 134.241 56.4052C134.302 56.4864 134.395 56.5168 134.521 56.4965C134.683 56.4843 134.829 56.4275 134.959 56.3261C135.093 56.2246 135.213 56.0948 135.318 55.9365C135.424 55.7783 135.517 55.5997 135.598 55.4009C135.679 55.202 135.748 54.9971 135.805 54.7861C135.866 54.5751 135.915 54.3661 135.951 54.1591C135.992 53.9522 136.024 53.7635 136.048 53.593L137.595 53.8548C137.59 53.9765 137.576 54.1267 137.552 54.3052C137.528 54.4838 137.505 54.6725 137.485 54.8713C137.465 55.0661 137.455 55.2629 137.455 55.4617C137.455 55.6565 137.477 55.833 137.522 55.9913C137.566 56.1455 137.639 56.2713 137.741 56.3687C137.846 56.4661 137.992 56.5148 138.179 56.5148C138.293 56.5148 138.408 56.4965 138.526 56.46C138.644 56.4194 138.749 56.3646 138.842 56.2957C138.936 56.2226 139.011 56.1374 139.068 56.04C139.128 55.9426 139.159 55.833 139.159 55.7113C139.159 55.5003 139.124 55.269 139.055 55.0174C138.986 54.7617 138.903 54.5101 138.806 54.2626C138.708 54.011 138.605 53.7736 138.495 53.5504C138.39 53.3272 138.301 53.1386 138.228 52.9843L139.737 52.1383C139.762 52.191 139.804 52.2843 139.865 52.4183C139.926 52.5481 139.995 52.7064 140.072 52.893C140.149 53.0797 140.228 53.2907 140.309 53.5261C140.395 53.7574 140.472 53.9988 140.541 54.2504C140.61 54.502 140.666 54.7597 140.711 55.0235C140.756 55.2872 140.778 55.5429 140.778 55.7904C140.778 56.1962 140.721 56.5614 140.608 56.8861C140.498 57.2107 140.33 57.4867 140.102 57.7139C139.879 57.9412 139.597 58.1177 139.256 58.2435C138.919 58.3693 138.524 58.4342 138.069 58.4383C137.85 58.4383 137.651 58.4159 137.473 58.3713C137.294 58.3307 137.134 58.2719 136.992 58.1948C136.85 58.1217 136.722 58.0345 136.608 57.933C136.499 57.8316 136.402 57.7241 136.316 57.6104C136.219 57.7362 136.113 57.8499 136 57.9513C135.89 58.0487 135.762 58.1319 135.616 58.2009C135.474 58.2739 135.314 58.3307 135.135 58.3713C134.957 58.4119 134.754 58.4342 134.527 58.4383C134.328 58.4423 134.147 58.4241 133.985 58.3835C133.827 58.347 133.681 58.2922 133.547 58.2191C133.413 58.1461 133.291 58.0588 133.182 57.9574C133.076 57.8519 132.977 57.7362 132.883 57.6104C132.798 57.7159 132.701 57.8154 132.591 57.9087C132.482 57.998 132.352 58.0771 132.202 58.1461C132.051 58.2151 131.877 58.2699 131.678 58.3104C131.479 58.351 131.248 58.3713 130.984 58.3713H130.875C130.749 58.3632 130.631 58.3328 130.522 58.28C130.408 58.2272 130.31 58.1583 130.229 58.073C130.148 57.9878 130.083 57.8884 130.035 57.7748C129.986 57.6612 129.962 57.5394 129.962 57.4096Z" fill="#303030"/>
<defs>
<linearGradient id="paint0_linear_1325_10056" x1="6.29861" y1="6.16969" x2="173.321" y2="92.5337" gradientUnits="userSpaceOnUse">
<stop stop-color="#EAEAEA"/>
<stop offset="1" stop-color="#BDBDBD"/>
</linearGradient>
</defs>
</svg>
