<svg width="136" height="76" viewBox="0 0 136 76" fill="none" xmlns="http://www.w3.org/2000/svg">
<rect x="1.22876" y="0.75" width="133.326" height="74.5" rx="9.25" fill="white" stroke="url(#paint0_linear_1325_9443)" stroke-width="1.5"/>
<path d="M33.5622 22.8563H34.1303V30.4536C34.1303 30.8091 34.4187 31.0975 34.7742 31.0975H45.2772C45.6326 31.0975 45.921 30.8091 45.921 30.4536V22.8563H46.4891C46.7669 22.8563 47.0134 22.6796 47.1004 22.4164C47.1888 22.1533 47.0978 21.8623 46.8758 21.6962L40.4399 16.8802C40.21 16.7088 39.8978 16.7075 39.6692 16.8789L33.1775 21.6948C32.9542 21.8609 32.8632 22.1506 32.9502 22.4151C33.038 22.6782 33.2845 22.8563 33.5622 22.8563ZM40.9801 29.8078H39.1881V27.5599C39.1881 27.0683 39.5914 26.6669 40.0878 26.6669C40.3237 26.6669 40.5456 26.7593 40.7197 26.9314C40.8845 27.0935 40.9808 27.3221 40.9808 27.5593L40.9801 29.8078ZM40.0526 18.1998L44.5529 21.5673H35.513L40.0526 18.1998ZM35.4193 22.8563H44.632V29.8085H42.2685V27.5606C42.2685 26.9779 42.0313 26.4131 41.6233 26.0164C41.212 25.6051 40.6672 25.3792 40.0865 25.3792C38.8798 25.3792 37.8984 26.358 37.8984 27.5606V29.8085H35.4193V22.8563ZM21.8632 34.6437H33.5622C33.9177 34.6437 34.2074 34.3553 34.2074 33.9998C34.2074 33.6443 33.9177 33.3546 33.5622 33.3546H21.8632C21.5077 33.3546 21.218 33.6443 21.218 33.9998C21.218 34.3553 21.5077 34.6437 21.8632 34.6437ZM21.8632 39.134H33.5622C33.9177 39.134 34.2074 38.8457 34.2074 38.4889C34.2074 38.1334 33.9177 37.845 33.5622 37.845H21.8632C21.5077 37.845 21.218 38.1334 21.218 38.4889C21.218 38.8457 21.5077 39.134 21.8632 39.134ZM34.2074 42.9792C34.2074 42.6237 33.9177 42.3354 33.5622 42.3354H21.8632C21.5077 42.3354 21.218 42.6237 21.218 42.9792C21.218 43.336 21.5077 43.6244 21.8632 43.6244H33.5622C33.9177 43.6237 34.2074 43.336 34.2074 42.9792Z" fill="#303030"/>
<path d="M59.1837 23.491L58.2867 22.594C57.2329 21.5415 55.5598 21.499 54.5572 22.5003L51.419 25.6385V15.6226C51.419 14.1754 50.2422 13 48.7964 13H30.1087C30.0954 13 30.0854 13.0053 30.0721 13.0066C30.0123 13.0093 29.9538 13.0206 29.8967 13.0419C29.8788 13.0485 29.8602 13.0525 29.8435 13.0611C29.7738 13.0924 29.7073 13.1322 29.6528 13.188L17.6668 25.1741C17.611 25.2286 17.5724 25.293 17.5412 25.3621C17.5319 25.3814 17.5273 25.4027 17.5193 25.4233C17.5014 25.4777 17.4907 25.5322 17.4867 25.588C17.4854 25.602 17.4788 25.6153 17.4788 25.6292V52.3774C17.4788 53.8246 18.6548 55 20.1014 55H48.7964C50.2422 55 51.419 53.8239 51.419 52.3774V35.0797L57.6077 28.891C57.609 28.891 57.609 28.8897 57.609 28.8897L59.2768 27.2206C60.2801 26.2186 60.2389 24.5449 59.1837 23.491ZM24.5711 20.0917L29.4635 15.1993V23.6505C29.4635 24.386 28.8655 24.9847 28.1293 24.9847H19.6788L24.5711 20.0917ZM50.1306 52.3774C50.1306 53.113 49.5326 53.7116 48.7964 53.7116H20.1014C19.3658 53.7116 18.7671 53.1136 18.7671 52.3774V26.2731H28.1293C29.5751 26.2731 30.7518 25.097 30.7518 23.6505V14.287H48.7957C49.5313 14.287 50.1299 14.8864 50.1299 15.6226V26.9276L35.5811 41.4777C35.5047 41.5528 35.4489 41.6478 35.4176 41.7515L33.8303 47.1475C33.7638 47.3734 33.8263 47.6186 33.9924 47.7847C34.1146 47.9083 34.2794 47.9741 34.4482 47.9741C34.5093 47.9741 34.5705 47.9648 34.6296 47.9468L40.0269 46.3595C40.1306 46.3296 40.2243 46.2738 40.3007 46.1973L50.1299 36.3681L50.1306 52.3774ZM36.4575 42.786L38.9917 45.3216L35.401 46.3781L36.4575 42.786ZM50.3253 34.3515C50.3213 34.3542 50.3186 34.3581 50.3146 34.3608L40.0841 44.592L37.1864 41.693L53.3432 25.5362L54.3372 26.5302L51.0017 29.8645C50.7499 30.1163 50.7499 30.5249 51.0017 30.7754C51.1273 30.901 51.2927 30.9648 51.4575 30.9648C51.6223 30.9648 51.7871 30.901 51.9133 30.7754L55.2489 27.4412L56.2416 28.4352L50.3253 34.3515ZM58.3658 26.3096L57.1525 27.5243L54.2548 24.6252L55.4681 23.412C55.9678 22.9123 56.8243 22.9542 57.3758 23.5056L58.2728 24.4027C58.8243 24.9535 58.8668 25.81 58.3658 26.3096Z" fill="#303030"/>
<path d="M82.7247 28.3652C82.3513 28.3652 81.9881 28.3064 81.6351 28.1887C81.6229 28.5174 81.5783 28.8522 81.5012 29.193C81.4241 29.5339 81.3125 29.8606 81.1664 30.173C81.0244 30.4896 80.8438 30.7817 80.6247 31.0496C80.4096 31.3174 80.156 31.5446 79.8638 31.7313C79.4499 31.9991 78.9954 32.202 78.5003 32.34C78.0093 32.478 77.4473 32.547 76.8142 32.547C76.1081 32.547 75.5015 32.4617 74.9942 32.2913C74.491 32.1249 74.0528 31.8814 73.6794 31.5609C73.4522 31.358 73.2533 31.1328 73.0829 30.8852C72.9165 30.6417 72.7786 30.382 72.669 30.1061C72.5594 29.8342 72.4762 29.5481 72.4194 29.2478C72.3667 28.9516 72.3403 28.6493 72.3403 28.3409C72.3403 27.9919 72.3647 27.6612 72.4133 27.3487C72.462 27.0322 72.5371 26.7157 72.6386 26.3991C72.74 26.0826 72.8658 25.758 73.016 25.4252C73.1702 25.0925 73.3507 24.7333 73.5577 24.3478L74.9273 25.3339C74.8096 25.5449 74.696 25.7823 74.5864 26.0461C74.4768 26.3058 74.3794 26.5757 74.2942 26.8557C74.2131 27.1316 74.1461 27.4075 74.0933 27.6835C74.0447 27.9594 74.0203 28.2171 74.0203 28.4565C74.0203 28.773 74.0974 29.0632 74.2516 29.327C74.4058 29.5907 74.6087 29.8159 74.8603 30.0026C75.116 30.1933 75.4061 30.3414 75.7307 30.447C76.0554 30.5565 76.3902 30.6133 76.7351 30.6174C77.2099 30.6255 77.6441 30.587 78.0377 30.5017C78.4313 30.4206 78.7702 30.2887 79.0542 30.1061C79.3383 29.9235 79.5574 29.6881 79.7116 29.4C79.8699 29.1119 79.949 28.7649 79.949 28.3591C79.949 28.1238 79.9145 27.8742 79.8455 27.6104C79.7765 27.3426 79.6852 27.0667 79.5716 26.7826C79.462 26.4945 79.3322 26.2003 79.182 25.9C79.036 25.5957 78.8838 25.2852 78.7255 24.9687L80.3873 23.9157L81.002 25.1026C81.1684 25.4394 81.3287 25.6991 81.4829 25.8817C81.6412 26.0603 81.7933 26.1922 81.9394 26.2774C82.0855 26.3586 82.2235 26.4072 82.3533 26.4235C82.4873 26.4357 82.611 26.4417 82.7247 26.4417C82.8586 26.4417 82.9844 26.4661 83.102 26.5148C83.2197 26.5635 83.3212 26.6325 83.4064 26.7217C83.4957 26.807 83.5647 26.9084 83.6133 27.0261C83.6661 27.1438 83.6925 27.2696 83.6925 27.4035C83.6925 27.5374 83.6661 27.6632 83.6133 27.7809C83.5647 27.8986 83.4957 28 83.4064 28.0852C83.3212 28.1704 83.2197 28.2374 83.102 28.2861C82.9844 28.3388 82.8586 28.3652 82.7247 28.3652ZM76.9177 22.4913L78.269 23.8426L76.9177 25.1939L75.5664 23.8426L76.9177 22.4913ZM81.3902 27.4035C81.3902 27.2696 81.4146 27.1458 81.4633 27.0322C81.5119 26.9186 81.5789 26.8191 81.6641 26.7339C81.7493 26.6487 81.8508 26.5817 81.9685 26.533C82.0821 26.4803 82.2059 26.4499 82.3398 26.4417C82.6117 26.4417 82.847 26.389 83.0459 26.2835C83.2488 26.178 83.4273 26.04 83.5815 25.8696C83.7357 25.6991 83.8737 25.5084 83.9954 25.2974C84.1172 25.0864 84.2328 24.8754 84.3424 24.6643V24.6704C84.4479 24.4513 84.5595 24.2342 84.6772 24.0191C84.7989 23.8041 84.9308 23.6052 85.0728 23.4226C85.2919 23.167 85.5375 22.9701 85.8093 22.8322C86.0812 22.6901 86.3714 22.6191 86.6798 22.6191C87.045 22.6191 87.3757 22.6942 87.6719 22.8443C87.9722 22.9945 88.2441 23.2096 88.4876 23.4896C88.6702 23.7087 88.8183 23.9603 88.9319 24.2443C89.0456 24.5243 89.1206 24.8226 89.1572 25.1391V25.127C89.1815 25.2852 89.1937 25.4658 89.1937 25.6687C89.1937 25.8878 89.1734 26.1029 89.1328 26.3139C89.0963 26.5209 89.0435 26.7177 88.9746 26.9043C88.8406 27.2452 88.6479 27.5313 88.3963 27.7626C88.1488 27.9899 87.8789 28.1461 87.5867 28.2313C87.4893 28.2597 87.3919 28.278 87.2946 28.2861C87.2012 28.2983 87.1018 28.3043 86.9963 28.3043C86.8137 28.3043 86.6189 28.282 86.4119 28.2374C86.209 28.1928 86.0082 28.1319 85.8093 28.0548C85.7282 28.0183 85.6369 27.9757 85.5354 27.927C85.434 27.8742 85.3264 27.8174 85.2128 27.7565C85.1033 27.6957 84.9937 27.6328 84.8841 27.5678C84.7746 27.5029 84.6731 27.44 84.5798 27.3791C84.4175 27.5293 84.2551 27.6652 84.0928 27.787C83.9305 27.9087 83.7601 28.0122 83.5815 28.0974C83.403 28.1826 83.2122 28.2475 83.0093 28.2922C82.8064 28.3409 82.5853 28.3652 82.3459 28.3652C82.2119 28.3652 82.0882 28.3388 81.9746 28.2861C81.8569 28.2374 81.7554 28.1704 81.6702 28.0852C81.5809 28 81.5119 27.8986 81.4633 27.7809C81.4146 27.6632 81.3902 27.5374 81.3902 27.4035ZM85.7059 25.8026C85.8317 25.8838 85.9798 25.9629 86.1502 26.04C86.3247 26.1171 86.4972 26.1861 86.6676 26.247C86.838 26.3078 86.9943 26.3586 87.1363 26.3991C87.2824 26.4357 87.3919 26.4539 87.465 26.4539C87.4812 26.4539 87.4975 26.4539 87.5137 26.4539C87.534 26.4499 87.5543 26.4458 87.5746 26.4417C87.6233 26.4296 87.6699 26.3687 87.7146 26.2591C87.7633 26.1455 87.7815 25.9913 87.7693 25.7965C87.7693 25.6667 87.7328 25.5246 87.6598 25.3704C87.5867 25.2122 87.4914 25.0661 87.3737 24.9322C87.256 24.7942 87.1201 24.6806 86.9659 24.5913C86.8157 24.498 86.6615 24.4513 86.5033 24.4513C86.4464 24.4513 86.3734 24.5325 86.2841 24.6948C86.1948 24.8571 86.065 25.0986 85.8946 25.4191V25.413L85.7059 25.8026ZM95.0984 27.513C94.5222 27.513 94.0271 27.4359 93.6132 27.2817C93.1993 27.1235 92.8706 26.9023 92.6271 26.6183C92.4851 26.4357 92.3816 26.2388 92.3167 26.0278C92.2558 25.8128 92.2254 25.6078 92.2254 25.413C92.2254 25.2426 92.2396 25.0884 92.268 24.9504C92.2964 24.8125 92.3309 24.6948 92.3715 24.5974C92.5338 24.2565 92.7326 23.9583 92.968 23.7026C93.2074 23.447 93.4549 23.2258 93.7106 23.0391C93.9703 22.8484 94.226 22.6901 94.4775 22.5643C94.7332 22.4386 94.9604 22.3351 95.1593 22.2539C95.1512 22.1606 95.1431 22.0652 95.1349 21.9678C95.1309 21.8704 95.1248 21.7771 95.1167 21.6878L95.0862 21.3043L96.9854 20.8965C96.9894 20.933 96.9975 21.0183 97.0097 21.1522C97.026 21.2861 97.0422 21.4464 97.0584 21.633C97.0787 21.8157 97.099 22.0125 97.1193 22.2235C97.1436 22.4304 97.1639 22.6252 97.1802 22.8078C97.2004 22.9904 97.2167 23.1487 97.2288 23.2826C97.2451 23.4165 97.2552 23.4977 97.2593 23.5261C97.3202 24.0252 97.3709 24.4351 97.4115 24.7557C97.4561 25.0762 97.4926 25.3319 97.521 25.5226C97.5535 25.7093 97.5799 25.8452 97.6002 25.9304C97.6204 26.0116 97.6367 26.0664 97.6488 26.0948C97.7097 26.2246 97.801 26.3159 97.9228 26.3687C98.0486 26.4174 98.2149 26.4417 98.4219 26.4417C98.5517 26.4417 98.6755 26.4661 98.7932 26.5148C98.9109 26.5635 99.0123 26.6325 99.0975 26.7217C99.1868 26.807 99.2578 26.9084 99.3106 27.0261C99.3633 27.1438 99.3897 27.2696 99.3897 27.4035C99.3897 27.5374 99.3633 27.6632 99.3106 27.7809C99.2578 27.8986 99.1868 28 99.0975 28.0852C99.0123 28.1704 98.9109 28.2374 98.7932 28.2861C98.6755 28.3388 98.5517 28.3652 98.4219 28.3652C98.3367 28.3652 98.2413 28.3612 98.1358 28.353C98.0303 28.349 97.9187 28.3368 97.801 28.3165C97.6874 28.3003 97.5677 28.2739 97.4419 28.2374C97.3202 28.2049 97.1984 28.1603 97.0767 28.1035C96.9062 28.0223 96.7561 27.931 96.6262 27.8296C96.5004 27.7241 96.3787 27.5922 96.261 27.4339C96.0541 27.4623 95.8532 27.4826 95.6584 27.4948C95.4677 27.507 95.281 27.513 95.0984 27.513ZM95.0619 25.6017C95.1471 25.6017 95.2344 25.5997 95.3236 25.5957C95.417 25.5875 95.5062 25.5794 95.5915 25.5713C95.5712 25.4333 95.5488 25.2791 95.5245 25.1087C95.5042 24.9383 95.4839 24.7557 95.4636 24.5609L95.4028 24.0009C95.2486 24.078 95.0761 24.1713 94.8854 24.2809C94.6946 24.3864 94.5141 24.5 94.3436 24.6217C94.1773 24.7394 94.0373 24.8612 93.9236 24.987C93.81 25.1087 93.7532 25.2223 93.7532 25.3278C93.7532 25.3806 93.7978 25.4252 93.8871 25.4617C93.9804 25.4942 94.0941 25.5226 94.228 25.547C94.3619 25.5672 94.5039 25.5814 94.6541 25.5896C94.8042 25.5977 94.9402 25.6017 95.0619 25.6017ZM96.9936 27.4035C96.9936 27.2696 97.02 27.1438 97.0728 27.0261C97.1214 26.9084 97.1884 26.807 97.2736 26.7217C97.3588 26.6325 97.4603 26.5635 97.578 26.5148C97.6956 26.4661 97.8214 26.4417 97.9554 26.4417H98.5823H98.8562C99.0064 26.4417 99.1626 26.4357 99.3249 26.4235C99.4913 26.4113 99.6455 26.387 99.7875 26.3504C99.9336 26.3139 100.061 26.2632 100.171 26.1983C100.285 26.1333 100.366 26.0461 100.414 25.9365C100.447 25.8635 100.463 25.7539 100.463 25.6078C100.463 25.5104 100.435 25.3643 100.378 25.1696C100.321 24.9748 100.246 24.7597 100.153 24.5243C100.059 24.2849 99.9539 24.0354 99.8362 23.7757C99.7185 23.5159 99.5988 23.2704 99.4771 23.0391L101.218 22.1748C101.332 22.4304 101.443 22.7023 101.553 22.9904C101.666 23.2786 101.768 23.5707 101.857 23.867C101.946 24.1632 102.017 24.4594 102.07 24.7557C102.127 25.0478 102.155 25.3278 102.155 25.5957C102.155 26.0055 102.082 26.3809 101.936 26.7217C101.766 27.1032 101.532 27.4197 101.236 27.6713C100.94 27.9188 100.585 28.1014 100.171 28.2191C99.9275 28.2881 99.6942 28.3287 99.471 28.3409C99.2478 28.3571 99.0388 28.3652 98.8441 28.3652H98.0101H97.9554C97.8214 28.3652 97.6956 28.3409 97.578 28.2922C97.4603 28.2435 97.3588 28.1745 97.2736 28.0852C97.1884 28 97.1214 27.8986 97.0728 27.7809C97.02 27.6632 96.9936 27.5374 96.9936 27.4035ZM100.007 18.7357L101.358 20.087L100.007 21.4383L98.6554 20.087L100.007 18.7357ZM105.681 28.3652C105.182 28.3652 104.754 28.3023 104.397 28.1765C104.04 28.0548 103.732 27.8661 103.472 27.6104C103.309 27.4481 103.184 27.2777 103.094 27.0991C103.009 26.9206 102.946 26.7461 102.906 26.5757C102.869 26.4012 102.847 26.2368 102.839 26.0826C102.835 25.9284 102.833 25.7965 102.833 25.687V25.5957C102.837 25.4455 102.841 25.2304 102.845 24.9504C102.853 24.6664 102.857 24.3336 102.857 23.9522C102.857 23.5707 102.855 23.1507 102.851 22.6922C102.847 22.2336 102.835 21.7771 102.814 21.3226C102.798 20.8641 102.772 20.4238 102.735 20.0017C102.703 19.5797 102.656 19.2125 102.595 18.9L104.415 18.3461C104.468 18.6139 104.511 18.9304 104.543 19.2957C104.576 19.6568 104.602 20.0362 104.622 20.4339C104.647 20.8316 104.663 21.2313 104.671 21.633C104.683 22.0348 104.691 22.4081 104.695 22.753C104.699 23.0574 104.687 23.3557 104.659 23.6478C104.634 23.9359 104.614 24.22 104.598 24.5C104.582 24.7759 104.582 25.0458 104.598 25.3096C104.618 25.5693 104.675 25.8229 104.768 26.0704C104.805 26.1638 104.849 26.2348 104.902 26.2835C104.959 26.3322 105.024 26.3687 105.097 26.393C105.17 26.4133 105.249 26.4255 105.334 26.4296C105.424 26.4336 105.521 26.4357 105.627 26.4357H105.681C105.811 26.4357 105.935 26.462 106.053 26.5148C106.17 26.5675 106.272 26.6386 106.357 26.7278C106.446 26.813 106.517 26.9145 106.57 27.0322C106.623 27.1499 106.649 27.2736 106.649 27.4035C106.649 27.5374 106.623 27.6632 106.57 27.7809C106.517 27.8986 106.446 28 106.357 28.0852C106.272 28.1745 106.17 28.2435 106.053 28.2922C105.935 28.3409 105.811 28.3652 105.681 28.3652ZM104.272 27.4035C104.272 27.2696 104.298 27.1438 104.351 27.0261C104.4 26.9084 104.469 26.807 104.558 26.7217C104.643 26.6325 104.746 26.5635 104.868 26.5148C104.986 26.4661 105.112 26.4417 105.246 26.4417H106.414C107.072 26.4417 107.674 26.4032 108.222 26.3261C108.774 26.2449 109.289 26.1374 109.768 26.0035C110.247 25.8696 110.7 25.7154 111.126 25.5409C111.556 25.3623 111.978 25.1777 112.392 24.987C112.116 24.9099 111.838 24.8145 111.558 24.7009C111.282 24.5872 111.004 24.4777 110.724 24.3722C110.448 24.2667 110.172 24.1774 109.896 24.1043C109.62 24.0272 109.346 23.9887 109.074 23.9887C108.888 23.9887 108.705 24.0394 108.526 24.1409C108.348 24.2423 108.186 24.358 108.04 24.4878C107.893 24.6177 107.77 24.7455 107.668 24.8713C107.571 24.993 107.51 25.0762 107.486 25.1209L106.08 24.2139C106.234 23.942 106.416 23.6762 106.627 23.4165C106.838 23.1568 107.07 22.9275 107.321 22.7287C107.577 22.5258 107.851 22.3635 108.143 22.2417C108.439 22.12 108.75 22.0591 109.074 22.0591C109.314 22.0591 109.553 22.0855 109.793 22.1383C110.032 22.187 110.269 22.2519 110.505 22.333C110.744 22.4142 110.98 22.5075 111.211 22.613C111.442 22.7145 111.671 22.818 111.899 22.9235C112.118 23.0249 112.335 23.1264 112.55 23.2278C112.769 23.3252 112.994 23.4165 113.226 23.5017C113.457 23.5829 113.696 23.6499 113.944 23.7026C114.191 23.7554 114.453 23.7838 114.729 23.7878L114.577 25.6565L113.713 26.0704C113.36 26.2409 113.009 26.4174 112.66 26.6C112.311 26.7786 111.953 26.953 111.588 27.1235C111.227 27.2899 110.854 27.4501 110.468 27.6043C110.087 27.7545 109.685 27.8864 109.263 28C108.841 28.1096 108.395 28.1968 107.924 28.2617C107.453 28.3307 106.95 28.3652 106.414 28.3652H105.294H105.246C105.112 28.3652 104.986 28.3388 104.868 28.2861C104.746 28.2374 104.643 28.1704 104.558 28.0852C104.469 28 104.4 27.8986 104.351 27.7809C104.298 27.6632 104.272 27.5374 104.272 27.4035ZM108.819 18.7661L110.17 20.1174L108.819 21.4687L107.467 20.1174L108.819 18.7661ZM78.8093 48.4496C78.8093 48.2223 78.8053 48.0296 78.7972 47.8713C78.7931 47.709 78.787 47.573 78.7789 47.4635C78.7708 47.3499 78.7586 47.2606 78.7424 47.1957C78.7302 47.1267 78.716 47.0739 78.6998 47.0374C78.6186 46.8629 78.3914 46.6336 78.018 46.3496C77.3201 45.7246 76.8575 45.2336 76.6302 44.8765C76.4111 44.5316 76.3015 44.1583 76.3015 43.7565C76.3015 43.3872 76.3806 43.0423 76.5389 42.7217C76.6972 42.4012 76.9183 42.107 77.2024 41.8391C77.807 41.3075 78.5841 41.0417 79.5337 41.0417C80.4954 41.0417 81.2319 41.3035 81.7433 41.827V41.8209C82.2586 42.3362 82.5001 43.0443 82.4676 43.9452L80.8241 44.1278C80.8119 43.5232 80.676 43.1052 80.4163 42.8739C80.1606 42.6426 79.8421 42.527 79.4606 42.527C79.2821 42.527 79.1056 42.5493 78.9311 42.5939C78.7566 42.6386 78.5963 42.7096 78.4502 42.807C78.3082 42.9043 78.1905 43.0281 78.0972 43.1783C78.0079 43.3284 77.9592 43.507 77.9511 43.7139C77.9389 43.8965 78.0221 44.1014 78.2006 44.3287C78.3833 44.5519 78.6267 44.7791 78.9311 45.0104C79.276 45.2661 79.5601 45.5014 79.7833 45.7165C80.0105 45.9275 80.1688 46.1183 80.258 46.2887C80.327 46.4307 80.3798 46.591 80.4163 46.7696C80.4569 46.9441 80.4772 47.1348 80.4772 47.3417V48.4496H78.8093ZM79.7406 49.2348L81.0919 50.5861L79.7406 51.9374L78.3893 50.5861L79.7406 49.2348ZM90.8403 51.3652C90.3087 51.3652 89.7872 51.2638 89.2759 51.0609C88.7687 50.858 88.298 50.5313 87.8638 50.0809L88.9655 48.5287C89.1643 48.7113 89.3571 48.8614 89.5438 48.9791C89.7304 49.0928 89.909 49.182 90.0794 49.247C90.2498 49.3119 90.4101 49.3565 90.5603 49.3809C90.7145 49.4052 90.8585 49.4174 90.9925 49.4174C91.0533 49.4174 91.1223 49.4154 91.1994 49.4113C91.2765 49.4072 91.3536 49.4012 91.4307 49.393C91.5078 49.3809 91.5829 49.3667 91.6559 49.3504C91.729 49.3342 91.7959 49.3139 91.8568 49.2896C92.0678 49.2003 92.2342 49.111 92.3559 49.0217C92.2017 48.6484 92.0333 48.2609 91.8507 47.8591C91.6722 47.4533 91.4916 47.0475 91.309 46.6417C91.1264 46.2319 90.9458 45.8261 90.7672 45.4243C90.5887 45.0226 90.4223 44.6371 90.2681 44.2678L92.0455 43.5252L92.5872 44.84C92.7617 45.2701 92.9707 45.7814 93.2142 46.3739C93.4577 46.9623 93.7377 47.6299 94.0542 48.3765C94.1272 48.5551 94.1942 48.7113 94.2551 48.8452C94.3159 48.9791 94.3869 49.0907 94.4681 49.18C94.5533 49.2693 94.6527 49.3362 94.7664 49.3809C94.884 49.4214 95.0342 49.4417 95.2168 49.4417C95.3467 49.4417 95.4704 49.4661 95.5881 49.5148C95.7058 49.5635 95.8072 49.6325 95.8925 49.7217C95.9817 49.807 96.0527 49.9084 96.1055 50.0261C96.1582 50.1438 96.1846 50.2696 96.1846 50.4035C96.1846 50.5374 96.1582 50.6632 96.1055 50.7809C96.0527 50.8986 95.9817 51 95.8925 51.0852C95.8072 51.1745 95.7058 51.2435 95.5881 51.2922C95.4704 51.3409 95.3467 51.3652 95.2168 51.3652C94.9693 51.3652 94.7501 51.349 94.5594 51.3165C94.3727 51.2841 94.2043 51.2374 94.0542 51.1765C93.9081 51.1197 93.7762 51.0507 93.6585 50.9696C93.5449 50.8843 93.4374 50.791 93.3359 50.6896C93.2264 50.7626 93.1107 50.8336 92.989 50.9026C92.8672 50.9675 92.7272 51.0325 92.569 51.0974C92.3255 51.1907 92.0617 51.2577 91.7777 51.2983C91.4977 51.3429 91.1852 51.3652 90.8403 51.3652ZM95.097 50.4035C95.097 50.2696 95.1214 50.1438 95.1701 50.0261C95.2188 49.9084 95.2877 49.807 95.377 49.7217C95.4622 49.6365 95.5637 49.5696 95.6814 49.5209C95.799 49.4681 95.9248 49.4417 96.0588 49.4417H96.1622C96.7263 49.4417 97.1524 49.3525 97.4405 49.1739C97.7286 48.9913 97.8727 48.7154 97.8727 48.3461C97.8727 48.273 97.8727 48.2081 97.8727 48.1513C97.8767 48.0945 97.8706 48.0214 97.8544 47.9322C97.8422 47.8388 97.8159 47.7191 97.7753 47.573C97.7388 47.4229 97.6819 47.218 97.6048 46.9583L99.3396 46.5383C99.4248 46.7817 99.4999 47.0557 99.5648 47.36C99.6298 47.6603 99.6622 47.989 99.6622 48.3461C99.6622 48.4638 99.6724 48.5875 99.6927 48.7174C99.717 48.8432 99.7535 48.9609 99.8022 49.0704C99.855 49.1759 99.924 49.2652 100.009 49.3383C100.098 49.4072 100.21 49.4417 100.344 49.4417C100.474 49.4417 100.598 49.4681 100.715 49.5209C100.833 49.5696 100.934 49.6365 101.02 49.7217C101.109 49.807 101.18 49.9084 101.233 50.0261C101.285 50.1438 101.312 50.2696 101.312 50.4035C101.312 50.5374 101.285 50.6632 101.233 50.7809C101.184 50.8986 101.115 51 101.026 51.0852C100.936 51.1745 100.833 51.2435 100.715 51.2922C100.602 51.3409 100.48 51.3652 100.35 51.3652C99.9605 51.3652 99.6277 51.3084 99.3518 51.1948C99.0759 51.0852 98.8385 50.9371 98.6396 50.7504C98.3474 50.9614 97.9985 51.1157 97.5927 51.213C97.1909 51.3145 96.7141 51.3652 96.1622 51.3652H96.0588C95.9248 51.3652 95.799 51.3409 95.6814 51.2922C95.5637 51.2435 95.4622 51.1745 95.377 51.0852C95.2877 51 95.2188 50.8986 95.1701 50.7809C95.1214 50.6632 95.097 50.5374 95.097 50.4035ZM98.4266 42.8374L99.7779 44.1887L98.4266 45.54L97.0753 44.1887L98.4266 42.8374ZM100.212 50.4035C100.212 50.2696 100.238 50.1438 100.291 50.0261C100.34 49.9084 100.409 49.807 100.498 49.7217C100.583 49.6325 100.687 49.5635 100.808 49.5148C100.926 49.4661 101.052 49.4417 101.186 49.4417H102.354C103.012 49.4417 103.614 49.4032 104.162 49.3261C104.714 49.2449 105.229 49.1374 105.708 49.0035C106.187 48.8696 106.64 48.7154 107.066 48.5409C107.496 48.3623 107.918 48.1777 108.332 47.987C108.056 47.9099 107.778 47.8145 107.498 47.7009C107.222 47.5872 106.944 47.4777 106.664 47.3722C106.388 47.2667 106.112 47.1774 105.836 47.1043C105.56 47.0272 105.286 46.9887 105.014 46.9887C104.828 46.9887 104.645 47.0394 104.467 47.1409C104.288 47.2423 104.126 47.358 103.98 47.4878C103.833 47.6177 103.71 47.7455 103.608 47.8713C103.511 47.993 103.45 48.0762 103.426 48.1209L102.02 47.2139C102.174 46.942 102.356 46.6762 102.567 46.4165C102.778 46.1568 103.01 45.9275 103.261 45.7287C103.517 45.5258 103.791 45.3635 104.083 45.2417C104.379 45.12 104.69 45.0591 105.014 45.0591C105.254 45.0591 105.493 45.0855 105.733 45.1383C105.972 45.187 106.209 45.2519 106.445 45.333C106.684 45.4142 106.92 45.5075 107.151 45.613C107.382 45.7145 107.611 45.818 107.839 45.9235C108.058 46.0249 108.275 46.1264 108.49 46.2278C108.709 46.3252 108.934 46.4165 109.166 46.5017C109.397 46.5829 109.636 46.6499 109.884 46.7026C110.131 46.7554 110.393 46.7838 110.669 46.7878L110.517 48.6565L109.653 49.0704C109.3 49.2409 108.949 49.4174 108.6 49.6C108.251 49.7786 107.893 49.953 107.528 50.1235C107.167 50.2899 106.794 50.4501 106.408 50.6043C106.027 50.7545 105.625 50.8864 105.203 51C104.781 51.1096 104.335 51.1968 103.864 51.2617C103.393 51.3307 102.89 51.3652 102.354 51.3652H101.234H101.186C101.052 51.3652 100.926 51.3388 100.808 51.2861C100.687 51.2374 100.583 51.1704 100.498 51.0852C100.409 51 100.34 50.8986 100.291 50.7809C100.238 50.6632 100.212 50.5374 100.212 50.4035ZM106.907 54.427L105.763 53.2826L104.607 54.4391L103.438 53.2643L104.619 52.0896L105.763 53.2339L106.92 52.0774L108.088 53.2522L106.907 54.427ZM105.769 53.9278L106.853 55.0113L105.763 56.1009L104.68 55.0174L105.769 53.9278Z" fill="#303030"/>
<defs>
<linearGradient id="paint0_linear_1325_9443" x1="5.14197" y1="5.2" x2="135.562" y2="64.7894" gradientUnits="userSpaceOnUse">
<stop stop-color="#EAEAEA"/>
<stop offset="1" stop-color="#BDBDBD"/>
</linearGradient>
</defs>
</svg>
