<svg width="372" height="150" viewBox="0 0 372 150" fill="none" xmlns="http://www.w3.org/2000/svg">
<path d="M88.9548 75.235C88.9291 76.7566 88.6979 78.2288 88.2997 79.6267C87.5804 82.1381 86.296 84.4268 84.5876 86.3567C81.1452 90.2536 75.9816 92.6784 70.2528 92.5794C60.1184 92.3938 52.0519 84.3278 52.2446 74.5669C52.4373 64.806 60.812 57.0369 70.9465 57.2225C81.081 57.4081 89.1474 65.4741 88.9548 75.235Z" stroke="#3E567D" stroke-width="3" stroke-miterlimit="10"/>
<path d="M110.084 91.3916C119.294 87.6555 124.663 78.8101 124.124 69.7049L167.693 52.0141C168.091 51.8533 168.412 51.5316 168.541 51.1234L171.097 43.5893C171.328 42.8965 171.007 42.1542 170.326 41.8326L162.94 38.3316C162.542 38.146 162.093 38.1336 161.682 38.2944L156.3 40.4841C155.927 40.6326 155.632 40.9171 155.49 41.2759L154.039 44.7027C153.731 45.445 152.844 45.8038 152.074 45.5068L149.569 44.5295C148.798 44.2326 147.912 44.579 147.604 45.3336L146.589 47.746C146.281 48.4883 145.394 48.8471 144.624 48.5502L141.066 47.1522C140.693 47.0038 140.282 47.0038 139.91 47.1646L136.339 48.612C135.966 48.7605 135.671 49.045 135.53 49.4038L134.078 52.8306C133.77 53.5729 132.884 53.9316 132.113 53.6347L127.977 52.0141L127.938 52.0265L126.397 48.513C126.025 47.6471 124.907 47.3502 124.111 47.8945L115.672 53.7832C109.288 48.7852 100.309 47.2512 92.1916 50.5419C80.4772 55.3048 74.9796 68.307 79.9249 79.5895C84.8701 90.8597 98.3699 96.1545 110.084 91.3916ZM89.1859 69.7049C92.1658 68.4925 95.5954 69.841 96.8542 72.7111C98.113 75.5812 96.7129 78.8843 93.7329 80.0967C90.753 81.3091 87.3234 79.9606 86.0646 77.0905C84.8187 74.2204 86.2059 70.9049 89.1859 69.7049Z" fill="url(#paint0_linear_1325_9262)"/>
<path d="M102.454 68.0719C109.596 61.3296 111.201 51.21 107.245 42.9337L141.014 11.0531C141.322 10.7562 141.489 10.3479 141.464 9.92731L140.963 2.00974C140.911 1.29221 140.32 0.710768 139.576 0.648912L131.368 0.00560466C130.931 -0.0315089 130.507 0.116948 130.186 0.413856L126.011 4.3479C125.729 4.62006 125.562 4.9912 125.562 5.37471L125.523 9.0737C125.511 9.87782 124.83 10.5211 123.995 10.5087L121.285 10.484C120.45 10.4716 119.769 11.1149 119.756 11.9191L119.73 14.5294C119.718 15.3335 119.037 15.9768 118.202 15.9645L114.361 15.9273C113.963 15.9273 113.578 16.0758 113.282 16.348L110.508 18.9583C110.225 19.2304 110.058 19.6016 110.058 19.9851L110.02 23.6841C110.007 24.4882 109.326 25.1315 108.491 25.1191L104.034 25.0697L104.008 25.0944L101.234 22.3727C100.553 21.7047 99.3972 21.816 98.8834 22.6078L93.283 31.0697C85.4349 28.682 76.5079 30.4264 70.214 36.3646C61.1327 44.9378 60.9914 58.9667 69.88 67.7132C78.7942 76.4967 93.373 76.6328 102.454 68.0719ZM74.7353 55.2925C77.0473 53.1152 80.7466 53.1523 83.0073 55.3667C85.2679 57.5935 85.2294 61.1564 82.9173 63.3338C80.6053 65.5111 76.9061 65.474 74.6454 63.2595C72.3976 61.0327 72.4232 57.4698 74.7353 55.2925Z" fill="#4C8CED"/>
<path d="M83.3802 107.412L66.438 76.4349C66.2967 76.1875 66.0398 76.0143 65.7572 75.9895L29.5479 72.8101C29.2396 72.7854 28.9314 72.9214 28.7515 73.1812L0.146383 114.464C-0.123357 114.847 -0.00782931 115.367 0.390357 115.614L17.3968 126.538C17.795 126.798 18.3345 126.687 18.5914 126.303L36.9851 99.7422C37.2548 99.3587 37.7814 99.2598 38.1796 99.5072L54.4539 109.961C54.8521 110.221 54.9548 110.728 54.6979 111.111L36.3043 137.672C36.0345 138.056 36.1501 138.575 36.5483 138.823L53.5547 149.747C53.9529 150.006 54.4795 149.895 54.7493 149.512L83.3545 108.229C83.5215 108.006 83.5344 107.685 83.3802 107.412ZM53.9786 93.7051C51.2941 91.9731 50.5619 88.4721 52.3602 85.8865C54.1584 83.3009 57.7935 82.5957 60.478 84.3277C63.1626 86.0597 63.8948 89.5607 62.0965 92.1463C60.3111 94.7319 56.676 95.437 53.9786 93.7051Z" fill="url(#paint1_linear_1325_9262)"/>
<path d="M214.915 36.0541C215.176 35.9845 215.441 35.9367 215.711 35.9106C215.98 35.8845 216.246 35.8715 216.506 35.8715C217.089 35.8715 217.689 35.9584 218.306 36.1323C218.933 36.2976 219.559 36.5454 220.185 36.8758L218.737 40.6976C218.32 40.515 217.924 40.3758 217.55 40.2802C217.176 40.1758 216.824 40.1237 216.493 40.1237C216.267 40.1237 216.011 40.1497 215.724 40.2019C215.446 40.228 215.146 40.3106 214.824 40.4497C214.502 40.5802 214.18 40.7497 213.859 40.9584C213.546 41.1671 213.241 41.4106 212.946 41.6889C212.65 41.9584 212.385 42.2454 212.15 42.5497C211.924 42.8541 211.737 43.1715 211.589 43.5019C211.441 43.8237 211.359 44.1367 211.341 44.441C211.324 44.6845 211.393 44.8845 211.55 45.041C211.706 45.1889 211.915 45.3193 212.176 45.4323C212.437 45.5367 212.733 45.6323 213.063 45.7193C213.393 45.7976 213.728 45.8889 214.067 45.9932L214.446 46.0845C215.002 46.215 215.554 46.3628 216.102 46.528C216.659 46.6932 217.159 46.928 217.602 47.2323C218.046 47.528 218.402 47.9193 218.672 48.4063C218.95 48.8932 219.089 49.5237 219.089 50.2976C219.089 50.4541 219.08 50.615 219.063 50.7802C219.054 50.9541 219.033 51.1323 218.998 51.315C218.911 51.7845 218.754 52.241 218.528 52.6845C218.302 53.1367 218.015 53.5628 217.667 53.9628C217.328 54.3715 216.933 54.7497 216.48 55.0976C216.037 55.4541 215.55 55.7715 215.02 56.0497C214.02 56.5454 212.876 56.928 211.589 57.1976C210.302 57.4758 208.92 57.615 207.441 57.615C205.667 57.615 204.102 57.3541 202.746 56.8323C201.389 56.3193 200.263 55.5671 199.367 54.5758C198.689 53.7671 198.189 52.8802 197.867 51.915C197.554 50.9497 197.398 49.941 197.398 48.8889C197.398 48.6628 197.406 48.4367 197.424 48.2106C197.441 47.9845 197.459 47.7715 197.476 47.5715C197.511 46.9454 197.58 46.3323 197.685 45.7323C197.789 45.1237 197.906 44.5541 198.037 44.0237C198.176 43.4845 198.324 42.9889 198.48 42.5367C198.637 42.0758 198.78 41.6758 198.911 41.3367C199.041 40.9889 199.15 40.715 199.237 40.515C199.333 40.3063 199.389 40.1802 199.406 40.1367L202.68 41.5063C202.463 42.0193 202.254 42.5237 202.054 43.0193C201.863 43.5063 201.689 44.0106 201.533 44.5323C201.385 45.0454 201.259 45.5889 201.154 46.1628C201.059 46.7367 200.998 47.3628 200.972 48.041C200.963 48.1367 200.954 48.241 200.946 48.3541C200.937 48.4671 200.933 48.5671 200.933 48.6541C200.933 49.2019 201.015 49.741 201.18 50.2715C201.354 50.8019 201.637 51.2802 202.028 51.7063C202.263 51.9758 202.567 52.2106 202.941 52.4106C203.324 52.6193 203.754 52.7932 204.233 52.9323C204.711 53.0802 205.224 53.1889 205.772 53.2584C206.32 53.3367 206.876 53.3758 207.441 53.3758C208.546 53.3758 209.576 53.2976 210.533 53.141C211.498 52.9932 212.346 52.7932 213.076 52.541C213.806 52.2976 214.393 52.0106 214.837 51.6802C215.289 51.3584 215.55 51.028 215.62 50.6889C215.602 50.6889 215.55 50.6802 215.463 50.6628C215.376 50.6454 215.263 50.6193 215.124 50.5845C214.993 50.5584 214.841 50.5237 214.667 50.4802C214.502 50.4454 214.328 50.4063 214.146 50.3628L213.441 50.2063C212.667 50.015 211.937 49.7932 211.25 49.541C210.572 49.2976 209.976 48.9715 209.463 48.5628C208.959 48.1628 208.554 47.6584 208.25 47.0497C207.954 46.4323 207.806 45.6541 207.806 44.715C207.85 43.715 208.059 42.741 208.433 41.7932C208.806 40.8454 209.311 39.9802 209.946 39.1976C210.58 38.415 211.32 37.7497 212.163 37.2019C213.015 36.6454 213.937 36.2628 214.928 36.0541H214.915ZM226.807 48.4454C225.737 48.4454 224.82 48.3106 224.055 48.041C223.289 47.7802 222.629 47.3758 222.072 46.828C221.724 46.4802 221.455 46.115 221.263 45.7323C221.081 45.3497 220.946 44.9758 220.859 44.6106C220.781 44.2367 220.733 43.8845 220.715 43.5541C220.707 43.2237 220.702 42.941 220.702 42.7063V42.5106C220.711 42.1889 220.72 41.728 220.729 41.128C220.746 40.5193 220.755 39.8063 220.755 38.9889C220.755 38.1715 220.75 37.2715 220.742 36.2889C220.733 35.3063 220.707 34.328 220.663 33.3541C220.629 32.3715 220.572 31.428 220.494 30.5236C220.424 29.6193 220.324 28.8323 220.194 28.1628L224.094 26.9758C224.207 27.5497 224.298 28.228 224.368 29.0106C224.437 29.7845 224.494 30.5976 224.537 31.4497C224.589 32.3019 224.624 33.1584 224.642 34.0193C224.668 34.8802 224.685 35.6802 224.694 36.4193C224.702 37.0715 224.676 37.7106 224.615 38.3367C224.563 38.9541 224.52 39.5628 224.485 40.1628C224.45 40.7541 224.45 41.3323 224.485 41.8976C224.529 42.4541 224.65 42.9976 224.85 43.528C224.929 43.728 225.024 43.8802 225.137 43.9845C225.259 44.0889 225.398 44.1671 225.555 44.2193C225.711 44.2628 225.881 44.2889 226.063 44.2976C226.255 44.3063 226.463 44.3106 226.689 44.3106H226.807C227.085 44.3106 227.35 44.3671 227.602 44.4802C227.855 44.5932 228.072 44.7454 228.255 44.9367C228.446 45.1193 228.598 45.3367 228.711 45.5889C228.824 45.841 228.881 46.1063 228.881 46.3845C228.881 46.6715 228.824 46.941 228.711 47.1932C228.598 47.4454 228.446 47.6628 228.255 47.8454C228.072 48.0367 227.855 48.1845 227.602 48.2889C227.35 48.3932 227.085 48.4454 226.807 48.4454ZM223.095 46.3715C223.095 46.0845 223.151 45.8193 223.264 45.5758C223.369 45.3237 223.512 45.1063 223.695 44.9237C223.877 44.7323 224.095 44.5845 224.347 44.4802C224.599 44.3758 224.869 44.3237 225.156 44.3237H225.273C225.404 44.3237 225.525 44.3237 225.638 44.3237C225.76 44.3237 225.895 44.3193 226.043 44.3106C226.199 44.3019 226.382 44.2932 226.59 44.2845C226.808 44.2758 227.077 44.2628 227.399 44.2454C227.095 43.7237 226.864 43.1715 226.708 42.5889C226.551 41.9976 226.473 41.4019 226.473 40.8019C226.473 40.3497 226.517 39.8976 226.604 39.4454C226.69 38.9932 226.821 38.5628 226.995 38.1541C227.169 37.7367 227.386 37.3454 227.647 36.9802C227.908 36.6063 228.217 36.2671 228.573 35.9628L227.895 35.5845L230.412 31.8802C230.786 32.141 231.234 32.4063 231.756 32.6758C232.277 32.9454 232.825 33.215 233.399 33.4845C233.973 33.7454 234.547 34.0019 235.121 34.2541C235.704 34.4976 236.238 34.728 236.725 34.9454C237.551 35.328 238.282 35.6671 238.917 35.9628C239.56 36.2497 240.138 36.5367 240.651 36.8237C241.164 37.1019 241.625 37.3976 242.034 37.7106C242.443 38.0236 242.825 38.3889 243.182 38.8063C243.634 39.3802 243.96 40.0063 244.16 40.6845C244.36 41.3628 244.46 42.0193 244.46 42.6541C244.46 43.628 244.208 44.5497 243.704 45.4193C243.208 46.2802 242.473 47.0019 241.499 47.5845C241.23 47.741 240.895 47.8758 240.495 47.9889C240.104 48.1019 239.69 48.1932 239.256 48.2628C238.83 48.341 238.408 48.3976 237.99 48.4323C237.573 48.4671 237.208 48.4845 236.895 48.4845C236.53 48.4845 236.134 48.4671 235.708 48.4323C235.282 48.4063 234.851 48.3584 234.417 48.2889C233.99 48.228 233.573 48.1454 233.164 48.041C232.756 47.9367 232.382 47.815 232.043 47.6758C231.625 47.7976 231.143 47.9063 230.595 48.0019C230.056 48.0976 229.486 48.1758 228.886 48.2367C228.286 48.3063 227.677 48.3584 227.06 48.3932C226.443 48.428 225.847 48.4454 225.273 48.4454H225.156C224.869 48.4454 224.599 48.3889 224.347 48.2758C224.095 48.1715 223.877 48.0237 223.695 47.8323C223.512 47.6497 223.369 47.4323 223.264 47.1802C223.151 46.928 223.095 46.6584 223.095 46.3715ZM232.577 37.9323C232.299 37.8889 231.999 37.9715 231.677 38.1802C231.364 38.3889 231.077 38.6584 230.817 38.9889C230.556 39.3193 230.347 39.6845 230.19 40.0845C230.034 40.4758 229.973 40.841 230.008 41.1802V41.1671C230.034 41.3932 230.121 41.628 230.269 41.8715C230.417 42.1063 230.59 42.3367 230.79 42.5628C230.999 42.7802 231.221 42.9758 231.456 43.1497C231.69 43.315 231.908 43.4367 232.108 43.515C232.438 43.4802 232.76 43.4019 233.073 43.2802C233.395 43.1584 233.682 42.9758 233.934 42.7323C234.186 42.4889 234.39 42.1758 234.547 41.7932C234.704 41.4106 234.782 40.941 234.782 40.3845C234.782 40.0976 234.699 39.815 234.534 39.5367C234.377 39.2584 234.186 39.0063 233.96 38.7802C233.734 38.5454 233.49 38.3541 233.23 38.2063C232.977 38.0497 232.76 37.9584 232.577 37.9323ZM238.212 40.0976C238.212 40.4628 238.169 40.8454 238.082 41.2454C237.995 41.6454 237.877 42.041 237.73 42.4323C237.582 42.8237 237.412 43.2063 237.221 43.5802C237.038 43.9454 236.843 44.2845 236.634 44.5976H236.751C237.386 44.5976 237.969 44.5758 238.499 44.5323C239.038 44.4802 239.504 44.3845 239.895 44.2454C240.286 44.0976 240.595 43.8976 240.821 43.6454C241.056 43.3845 241.195 43.041 241.238 42.615C241.256 42.4063 241.169 42.1802 240.977 41.9367C240.786 41.6845 240.538 41.4367 240.234 41.1932C239.938 40.941 239.608 40.6976 239.243 40.4628C238.877 40.228 238.534 40.0193 238.212 39.8367V40.0976ZM260.124 56.9497C259.315 56.9497 258.48 56.9019 257.62 56.8063C256.767 56.7193 255.941 56.5497 255.141 56.2976C254.35 56.0454 253.611 55.6889 252.924 55.228C252.237 54.7758 251.659 54.1845 251.189 53.4541C250.746 52.7497 250.402 51.9758 250.159 51.1323C249.915 50.2889 249.793 49.3454 249.793 48.3019C249.793 47.5367 249.824 46.8106 249.885 46.1237C249.954 45.428 250.059 44.741 250.198 44.0628C250.337 43.3845 250.515 42.6976 250.733 42.0019C250.959 41.3063 251.228 40.5671 251.541 39.7845L254.893 41.1802C254.641 41.8063 254.424 42.3715 254.241 42.8758C254.067 43.3802 253.92 43.841 253.798 44.2584C253.676 44.6671 253.58 45.0454 253.511 45.3932C253.441 45.741 253.389 46.0758 253.354 46.3976C253.32 46.7106 253.298 47.0237 253.289 47.3367C253.28 47.641 253.276 47.9628 253.276 48.3019C253.276 48.9541 253.38 49.5193 253.589 49.9976C253.798 50.4758 254.08 50.8802 254.437 51.2106C254.793 51.541 255.202 51.8106 255.663 52.0193C256.133 52.2367 256.62 52.4019 257.124 52.515C257.628 52.628 258.137 52.7063 258.65 52.7497C259.172 52.7932 259.663 52.815 260.124 52.815C260.35 52.815 260.685 52.7976 261.128 52.7628C261.572 52.7367 262.054 52.6845 262.576 52.6063C263.107 52.5367 263.646 52.441 264.193 52.3193C264.75 52.1976 265.254 52.0454 265.707 51.8628C266.159 51.6889 266.528 51.4802 266.815 51.2367C267.102 51.0019 267.246 50.7237 267.246 50.4019C267.246 50.3671 267.172 50.3063 267.024 50.2193C266.885 50.1323 266.689 50.028 266.437 49.9063C266.193 49.7932 265.907 49.6628 265.576 49.515C265.254 49.3758 264.907 49.2323 264.533 49.0845H264.546C264.128 48.9541 263.689 48.841 263.228 48.7454C262.776 48.6584 262.328 48.5802 261.885 48.5106C261.815 48.5019 261.724 48.4889 261.611 48.4715C261.507 48.4541 261.398 48.4323 261.285 48.4063C261.172 48.3889 261.059 48.3671 260.946 48.341C260.841 48.3237 260.754 48.3063 260.685 48.2889L261.22 44.3237H271.68C271.959 44.3237 272.224 44.3758 272.476 44.4802C272.728 44.5845 272.946 44.7323 273.128 44.9237C273.32 45.1063 273.472 45.3237 273.585 45.5758C273.698 45.828 273.754 46.0976 273.754 46.3845C273.754 46.6715 273.698 46.941 273.585 47.1932C273.472 47.4454 273.32 47.6628 273.128 47.8454C272.946 48.0367 272.728 48.1845 272.476 48.2889C272.224 48.3932 271.959 48.4454 271.68 48.4454H270.233C270.415 48.7932 270.546 49.141 270.624 49.4889C270.711 49.8454 270.759 50.1497 270.767 50.4019C270.724 51.2193 270.515 51.9454 270.141 52.5802C269.776 53.2237 269.302 53.7889 268.72 54.2758C268.137 54.7628 267.476 55.1758 266.737 55.515C265.998 55.8541 265.241 56.128 264.467 56.3367C263.693 56.5541 262.928 56.7106 262.172 56.8063C261.424 56.9019 260.741 56.9497 260.124 56.9497ZM268.312 46.3845C268.312 46.0976 268.364 45.828 268.468 45.5758C268.573 45.3237 268.721 45.1063 268.912 44.9237C269.094 44.741 269.312 44.5976 269.564 44.4932C269.816 44.3802 270.086 44.3237 270.373 44.3237H271.051C271.077 43.7497 271.164 43.128 271.312 42.4584C271.468 41.7802 271.677 41.1019 271.938 40.4237C272.199 39.7367 272.507 39.0758 272.864 38.441C273.221 37.7976 273.612 37.2237 274.038 36.7193C274.473 36.215 274.942 35.8063 275.447 35.4932C275.951 35.1715 276.477 34.9932 277.025 34.9584C277.607 34.9671 278.147 35.1323 278.642 35.4541C279.147 35.7671 279.581 36.1802 279.947 36.6932C280.312 37.2063 280.599 37.7889 280.807 38.441C281.016 39.0932 281.121 39.7541 281.121 40.4237C281.121 41.215 280.947 41.9845 280.599 42.7323C280.26 43.4802 279.807 44.1802 279.242 44.8323C278.686 45.4758 278.051 46.0584 277.338 46.5802C276.634 47.0932 275.916 47.515 275.186 47.8454C275.247 48.0541 275.373 48.3019 275.564 48.5889C275.764 48.8845 275.986 49.1802 276.229 49.4758C276.481 49.7715 276.734 50.0497 276.986 50.3106C277.238 50.5715 277.451 50.7802 277.625 50.9367C277.616 50.4323 277.69 49.915 277.847 49.3845C278.003 48.8628 278.221 48.3584 278.499 47.8715C278.786 47.3845 279.121 46.928 279.503 46.5019C279.886 46.0671 280.294 45.6889 280.729 45.3671C281.173 45.0454 281.629 44.7932 282.099 44.6106C282.568 44.4193 283.034 44.3237 283.494 44.3237C283.781 44.3237 284.051 44.3802 284.303 44.4932C284.555 44.5976 284.773 44.741 284.955 44.9237C285.147 45.1063 285.294 45.3237 285.399 45.5758C285.512 45.828 285.568 46.0976 285.568 46.3845C285.568 46.6715 285.512 46.941 285.399 47.1932C285.294 47.4454 285.147 47.6628 284.955 47.8454C284.773 48.0367 284.555 48.1845 284.303 48.2889C284.051 48.3932 283.781 48.4454 283.494 48.4454H283.442C283.06 48.4976 282.69 48.6237 282.334 48.8237C281.977 49.0323 281.66 49.2889 281.381 49.5932C281.112 49.9063 280.894 50.2497 280.729 50.6237C280.564 51.0063 280.481 51.3932 280.481 51.7845C280.481 51.9584 280.494 52.1193 280.521 52.2671C280.547 52.4237 280.594 52.5802 280.664 52.7367C280.734 52.8932 280.825 53.0584 280.938 53.2323C281.06 53.4063 281.212 53.5932 281.394 53.7932L279.007 56.7019C277.964 56.0671 277.047 55.4193 276.255 54.7584C275.464 54.0976 274.777 53.4193 274.194 52.7237C273.621 52.0367 273.134 51.3367 272.734 50.6237C272.342 49.9106 272.021 49.1845 271.768 48.4454H271.716H270.373C270.086 48.4454 269.816 48.3932 269.564 48.2889C269.312 48.1845 269.094 48.0367 268.912 47.8454C268.721 47.6628 268.573 47.4454 268.468 47.1932C268.364 46.941 268.312 46.6715 268.312 46.3845ZM277.807 40.9976C277.825 40.7541 277.821 40.4976 277.794 40.228C277.777 39.9497 277.734 39.6845 277.664 39.4323C277.603 39.1715 277.516 38.9367 277.403 38.728C277.29 38.5193 277.151 38.3628 276.986 38.2584C276.821 38.3454 276.638 38.5106 276.438 38.7541C276.247 38.9976 276.051 39.2932 275.851 39.641C275.651 39.9889 275.455 40.3715 275.264 40.7889C275.081 41.1976 274.916 41.615 274.768 42.041C274.621 42.4671 274.499 42.8845 274.403 43.2932C274.316 43.6932 274.268 44.0541 274.26 44.3758C274.634 44.3063 275.021 44.1671 275.421 43.9584C275.829 43.741 276.203 43.4802 276.542 43.1758C276.89 42.8628 277.181 42.5193 277.416 42.1454C277.651 41.7715 277.781 41.3889 277.807 40.9976ZM279.842 46.3976C279.842 46.1019 279.894 45.828 279.999 45.5758C280.103 45.3237 280.255 45.1063 280.455 44.9237C280.647 44.7323 280.877 44.5845 281.147 44.4802C281.408 44.3758 281.703 44.3237 282.034 44.3237H282.764H283.403C283.873 44.3237 284.39 44.3193 284.955 44.3106C285.521 44.2932 286.064 44.2497 286.586 44.1802C287.116 44.1019 287.59 43.9889 288.008 43.841C288.434 43.6932 288.742 43.4889 288.934 43.228C289.194 42.828 289.325 42.3715 289.325 41.8584C289.325 41.6845 289.308 41.5106 289.273 41.3367C289.247 41.1541 289.212 40.9671 289.168 40.7758C289.108 40.5584 288.977 40.2976 288.777 39.9932C288.586 39.6802 288.338 39.341 288.034 38.9758C287.729 38.6019 287.381 38.2106 286.99 37.8019C286.599 37.3845 286.181 36.9628 285.738 36.5367C285.294 36.1019 284.829 35.6715 284.342 35.2454C283.855 34.8193 283.368 34.4063 282.881 34.0063L283.286 30.4584L294.242 25.5802L295.821 29.0758L287.16 33.0932C287.586 33.3889 288.025 33.741 288.477 34.1497C288.929 34.5584 289.368 35.0063 289.794 35.4932C290.221 35.9715 290.621 36.4802 290.994 37.0193C291.368 37.5584 291.694 38.1106 291.973 38.6758C292.251 39.241 292.468 39.8106 292.625 40.3845C292.79 40.9584 292.868 41.5193 292.86 42.0671C292.851 42.7193 292.764 43.328 292.599 43.8932C292.434 44.4497 292.229 44.9497 291.986 45.3932C291.081 47.0106 289.59 47.9976 287.512 48.3541L287.525 48.341C287.29 48.3845 287.068 48.415 286.86 48.4323C286.651 48.4497 286.447 48.4584 286.247 48.4584L282.034 48.4454C281.712 48.4454 281.416 48.3932 281.147 48.2889C280.877 48.1845 280.647 48.0367 280.455 47.8454C280.264 47.6628 280.116 47.4497 280.012 47.2063C279.899 46.9541 279.842 46.6845 279.842 46.3976ZM293.721 24.2236L282.921 28.7889L283.025 26.8323L293.003 22.6715L293.721 24.2236ZM298.992 48.4845C299.035 47.815 299.075 47.115 299.109 46.3845C299.153 45.6541 299.188 44.9323 299.214 44.2193C299.24 43.5063 299.261 42.815 299.279 42.1454C299.296 41.4671 299.305 40.8497 299.305 40.2932C299.305 38.841 299.283 37.5932 299.24 36.5497C299.196 35.5063 299.144 34.615 299.083 33.8758C299.022 33.128 298.953 32.5063 298.875 32.0106C298.805 31.5063 298.74 31.0628 298.679 30.6802L298.509 29.6889L302.566 28.3976C302.601 28.5193 302.631 28.6323 302.657 28.7367C302.683 28.841 302.705 28.9671 302.722 29.115C302.748 29.2541 302.775 29.428 302.801 29.6367C302.835 29.8454 302.87 30.1193 302.905 30.4584C302.94 30.7976 302.979 31.2106 303.022 31.6976C303.075 32.1845 303.135 32.7802 303.205 33.4845C303.248 34.1628 303.283 34.7715 303.309 35.3106C303.344 35.8497 303.37 36.3758 303.388 36.8889C303.405 37.4019 303.418 37.9323 303.427 38.4802C303.435 39.0193 303.44 39.6323 303.44 40.3193C303.44 41.4497 303.422 42.6497 303.388 43.9193C303.353 45.1802 303.288 46.5063 303.192 47.8976L298.992 48.4845ZM295.509 27.6019C295.509 27.5497 295.54 27.4541 295.601 27.315C295.653 27.1671 295.718 27.0106 295.796 26.8454C295.866 26.6802 295.935 26.528 296.005 26.3889C296.075 26.241 296.122 26.1454 296.148 26.1019C296.461 25.6236 296.827 25.2323 297.244 24.928C297.67 24.6236 298.092 24.4236 298.509 24.328C298.596 24.3106 298.705 24.3019 298.835 24.3019C298.966 24.2932 299.07 24.2889 299.148 24.2889C299.566 24.2889 299.944 24.341 300.283 24.4454C300.622 24.541 300.927 24.6497 301.196 24.7715L301.601 24.9671C301.748 25.0367 301.896 25.1019 302.044 25.1628C302.192 25.215 302.348 25.2454 302.514 25.2541C302.653 25.2628 302.796 25.228 302.944 25.1497C303.092 25.0715 303.235 24.9671 303.375 24.8367C303.522 24.6976 303.661 24.5454 303.792 24.3802C303.931 24.215 304.061 24.0497 304.183 23.8845L306.218 25.2019C306.209 25.228 306.161 25.3106 306.075 25.4497C305.988 25.5802 305.861 25.741 305.696 25.9323C305.54 26.1237 305.348 26.328 305.122 26.5454C304.905 26.7541 304.657 26.9497 304.379 27.1323C304.101 27.3063 303.796 27.4497 303.466 27.5628C303.144 27.6758 302.801 27.728 302.435 27.7193C302.166 27.7367 301.892 27.6845 301.614 27.5628C301.335 27.4323 301.048 27.2976 300.753 27.1584C300.466 27.0106 300.17 26.8889 299.866 26.7932C299.561 26.6889 299.244 26.6715 298.914 26.741C298.714 26.7845 298.548 26.8628 298.418 26.9758C298.296 27.0802 298.192 27.2063 298.105 27.3541C298.018 27.4932 297.944 27.6454 297.883 27.8106C297.822 27.9758 297.757 28.1367 297.688 28.2932L295.509 27.6019ZM311.256 57.9802L310.747 45.1323C310.747 45.0628 310.756 44.9106 310.773 44.6758C310.791 44.441 310.839 44.1715 310.917 43.8671C311.004 43.5541 311.139 43.228 311.321 42.8889C311.512 42.5497 311.778 42.2454 312.117 41.9758C312.334 41.7845 312.634 41.628 313.017 41.5063C313.408 41.3845 313.799 41.3237 314.191 41.3237C314.26 41.3237 314.33 41.328 314.399 41.3367C314.469 41.3367 314.539 41.341 314.608 41.3497C314.739 40.9932 314.895 40.6323 315.078 40.2671C315.26 39.8932 315.456 39.5367 315.665 39.1976C315.873 38.8497 316.095 38.5237 316.33 38.2193C316.565 37.9063 316.799 37.6323 317.034 37.3976C317.565 36.8671 318.112 36.4845 318.678 36.2497C319.243 36.0063 319.843 35.8932 320.478 35.9106C321.321 35.9454 322.069 36.128 322.721 36.4584C323.382 36.7889 323.96 37.2802 324.456 37.9323C325.204 38.9584 325.626 40.1889 325.721 41.6237C325.73 41.7193 325.734 41.8237 325.734 41.9367C325.734 42.0497 325.734 42.1541 325.734 42.2497C325.734 42.7976 325.686 43.328 325.591 43.841C325.504 44.3541 325.36 44.8454 325.16 45.315L325.173 45.3019C324.869 46.0845 324.469 46.7063 323.973 47.1671C323.478 47.628 322.904 47.915 322.252 48.028L322.291 48.0019C322.204 48.028 322.117 48.0497 322.03 48.0671C321.943 48.0845 321.852 48.0932 321.756 48.0932C321.469 48.0932 321.117 48.0323 320.699 47.9106C320.291 47.7889 319.847 47.6367 319.369 47.4541C318.891 47.2628 318.399 47.0628 317.895 46.8541C317.391 46.6367 316.908 46.4367 316.447 46.2541C316.195 46.1584 315.982 46.0758 315.808 46.0063C315.634 45.928 315.473 45.8628 315.326 45.8106C315.186 45.7497 315.047 45.6976 314.908 45.6541C314.778 45.6019 314.63 45.5497 314.465 45.4976C314.578 47.4889 314.708 49.4584 314.856 51.4063C315.004 53.3628 315.134 55.328 315.247 57.3019L311.256 57.9802ZM318.391 41.4671C318.295 41.6497 318.212 41.815 318.143 41.9628C318.082 42.1019 318.026 42.2323 317.973 42.3541C318.243 42.4671 318.547 42.5976 318.886 42.7454C319.226 42.8845 319.573 43.028 319.93 43.1758C320.295 43.3237 320.647 43.4628 320.986 43.5932C321.334 43.7237 321.643 43.828 321.912 43.9063C321.991 43.6889 322.052 43.428 322.095 43.1237C322.147 42.8193 322.173 42.5584 322.173 42.341C322.173 42.0106 322.121 41.7019 322.017 41.415C321.912 41.128 321.773 40.8802 321.599 40.6715C321.434 40.4628 321.243 40.3019 321.026 40.1889C320.808 40.0758 320.591 40.028 320.373 40.0454C320.278 40.0541 320.147 40.0802 319.982 40.1237C319.817 40.1671 319.639 40.241 319.447 40.3454C319.265 40.4497 319.078 40.5932 318.886 40.7758C318.695 40.9584 318.53 41.1889 318.391 41.4671ZM332.721 48.4454C331.651 48.4454 330.734 48.3106 329.969 48.041C329.203 47.7802 328.543 47.3758 327.986 46.828C327.638 46.4802 327.369 46.115 327.177 45.7323C326.995 45.3497 326.86 44.9758 326.773 44.6106C326.695 44.2367 326.647 43.8845 326.63 43.5541C326.621 43.2237 326.617 42.941 326.617 42.7063V42.5106C326.625 42.1889 326.634 41.728 326.643 41.128C326.66 40.5193 326.669 39.8063 326.669 38.9889C326.669 38.1715 326.664 37.2715 326.656 36.2889C326.647 35.3063 326.621 34.328 326.577 33.3541C326.543 32.3715 326.486 31.428 326.408 30.5236C326.338 29.6193 326.238 28.8323 326.108 28.1628L330.008 26.9758C330.121 27.5497 330.212 28.228 330.282 29.0106C330.351 29.7845 330.408 30.5976 330.451 31.4497C330.503 32.3019 330.538 33.1584 330.556 34.0193C330.582 34.8802 330.599 35.6802 330.608 36.4193C330.617 37.0715 330.59 37.7106 330.53 38.3367C330.477 38.9541 330.434 39.5628 330.399 40.1628C330.364 40.7541 330.364 41.3323 330.399 41.8976C330.443 42.4541 330.564 42.9976 330.764 43.528C330.843 43.728 330.938 43.8802 331.051 43.9845C331.173 44.0889 331.312 44.1671 331.469 44.2193C331.625 44.2628 331.795 44.2889 331.977 44.2976C332.169 44.3063 332.377 44.3106 332.603 44.3106H332.721C332.999 44.3106 333.264 44.3671 333.517 44.4802C333.769 44.5932 333.986 44.7454 334.169 44.9367C334.36 45.1193 334.512 45.3367 334.625 45.5889C334.738 45.841 334.795 46.1063 334.795 46.3845C334.795 46.6715 334.738 46.941 334.625 47.1932C334.512 47.4454 334.36 47.6628 334.169 47.8454C333.986 48.0367 333.769 48.1845 333.517 48.2889C333.264 48.3932 332.999 48.4454 332.721 48.4454ZM341.974 44.715C342.252 44.6454 342.418 44.2845 342.47 43.6323C342.522 42.9541 342.396 42.3454 342.091 41.8063C341.822 41.3106 341.413 40.8802 340.865 40.515C340.318 40.1497 339.905 40.0237 339.626 40.1367C339.252 40.2932 338.687 41.2584 337.931 43.0323C340.113 44.2845 341.461 44.8454 341.974 44.715ZM348.561 46.3845C348.561 46.9497 348.361 47.4323 347.961 47.8323C347.552 48.2323 347.065 48.4367 346.5 48.4454H346.487C345.391 48.4454 344.505 48.0715 343.826 47.3237C343.113 48.0367 342.205 48.3932 341.1 48.3932C339.822 48.3932 337.965 47.7497 335.531 46.4628C335.374 46.7932 335.074 47.128 334.631 47.4671C334.239 47.7628 333.791 47.9932 333.287 48.1584C332.652 48.3671 331.939 48.4715 331.148 48.4715C330.574 48.4715 330.087 48.2715 329.687 47.8715C329.287 47.4715 329.087 46.9845 329.087 46.4106C329.087 45.8454 329.287 45.3628 329.687 44.9628C330.087 44.5628 330.574 44.3628 331.148 44.3628C332.235 44.3628 333.183 43.8237 333.991 42.7454C334.278 42.3541 334.583 41.8454 334.905 41.2193C335 41.028 335.131 40.7671 335.296 40.4367L335.478 40.0454L335.661 39.6802C336.835 37.3497 338.3 36.1845 340.057 36.1845C341.335 36.1845 342.465 36.6106 343.448 37.4628C344.561 38.428 345.191 39.7541 345.339 41.441L345.352 41.5584C345.37 41.6106 345.378 41.6715 345.378 41.741C345.396 42.1671 345.457 42.5976 345.561 43.0323C345.657 43.4063 345.77 43.7019 345.9 43.9193C346.074 44.1889 346.274 44.3237 346.5 44.3237C347.065 44.3237 347.548 44.5237 347.948 44.9237C348.357 45.3237 348.561 45.8106 348.561 46.3845ZM355.636 31.4237L353.132 33.941L350.654 31.4628L348.202 33.915L345.671 31.3976L348.176 28.8802L350.654 31.3584L353.106 28.9063L355.636 31.4237ZM342.58 46.3845C342.58 46.0976 342.636 45.828 342.749 45.5758C342.854 45.3237 342.997 45.1063 343.18 44.9237C343.363 44.7323 343.58 44.5845 343.832 44.4802C344.084 44.3758 344.354 44.3237 344.641 44.3237H346.089H346.715C347.106 44.3237 347.536 44.3063 348.006 44.2715C348.476 44.2367 348.928 44.1802 349.363 44.1019C349.797 44.0237 350.189 43.9193 350.536 43.7889C350.893 43.6497 351.154 43.4758 351.319 43.2671C351.415 43.1193 351.463 42.9193 351.463 42.6671C351.463 42.2932 351.371 41.8497 351.189 41.3367C351.015 40.8237 350.806 40.3019 350.563 39.7715C350.319 39.241 350.067 38.7323 349.806 38.2454C349.554 37.7584 349.349 37.3541 349.193 37.0323L352.91 35.2063C353.18 35.6758 353.441 36.2323 353.693 36.8758C353.945 37.5106 354.171 38.1671 354.371 38.8454C354.571 39.515 354.732 40.1758 354.854 40.828C354.976 41.4715 355.036 42.0323 355.036 42.5106C355.036 43.3889 354.88 44.1932 354.567 44.9237C354.202 45.741 353.702 46.4193 353.067 46.9584C352.432 47.4889 351.671 47.8802 350.784 48.1323C350.523 48.2019 350.197 48.2584 349.806 48.3019C349.415 48.3454 349.019 48.3758 348.619 48.3932C348.219 48.4193 347.841 48.4323 347.484 48.4323C347.128 48.441 346.849 48.4454 346.649 48.4454H344.758H344.641C344.354 48.4454 344.084 48.3932 343.832 48.2889C343.58 48.1845 343.363 48.0367 343.18 47.8454C342.997 47.6628 342.854 47.4454 342.749 47.1932C342.636 46.941 342.58 46.6715 342.58 46.3845Z" fill="#303030"/>
<path d="M207.048 98.3481C206.374 98.3481 205.678 98.3083 204.961 98.2286C204.251 98.1561 203.563 98.0148 202.896 97.8047C202.236 97.5945 201.62 97.2974 201.048 96.9134C200.476 96.5365 199.994 96.0438 199.602 95.4351C199.233 94.8481 198.947 94.2032 198.744 93.5003C198.541 92.7974 198.439 92.0112 198.439 91.1416C198.439 90.5039 198.465 89.8989 198.515 89.3264C198.573 88.7467 198.66 88.1742 198.776 87.609C198.892 87.0438 199.041 86.4713 199.222 85.8916C199.41 85.3119 199.635 84.696 199.896 84.0438L202.689 85.2068C202.479 85.7286 202.298 86.1996 202.146 86.6199C202.001 87.0402 201.878 87.4242 201.776 87.7721C201.675 88.1126 201.595 88.4278 201.537 88.7177C201.479 89.0076 201.436 89.2865 201.407 89.5547C201.378 89.8155 201.36 90.0764 201.352 90.3373C201.345 90.5909 201.342 90.859 201.342 91.1416C201.342 91.6851 201.428 92.1561 201.602 92.5547C201.776 92.9532 202.012 93.2902 202.309 93.5655C202.606 93.8409 202.947 94.0655 203.331 94.2394C203.722 94.4206 204.128 94.5583 204.548 94.6525C204.968 94.7467 205.392 94.8119 205.82 94.8481C206.255 94.8844 206.664 94.9025 207.048 94.9025C207.236 94.9025 207.515 94.888 207.885 94.859C208.255 94.8373 208.657 94.7938 209.092 94.7286C209.534 94.6706 209.983 94.5909 210.439 94.4894C210.903 94.388 211.323 94.2612 211.7 94.109C212.077 93.9641 212.385 93.7902 212.624 93.5873C212.863 93.3916 212.983 93.1597 212.983 92.8916C212.983 92.8626 212.921 92.8119 212.798 92.7394C212.682 92.667 212.519 92.58 212.309 92.4786C212.106 92.3844 211.867 92.2757 211.592 92.1525C211.323 92.0365 211.034 91.917 210.722 91.7938H210.733C210.385 91.6851 210.019 91.5909 209.635 91.5112C209.258 91.4387 208.885 91.3735 208.515 91.3155C208.457 91.3083 208.381 91.2974 208.287 91.2829C208.2 91.2684 208.11 91.2503 208.015 91.2286C207.921 91.2141 207.827 91.196 207.733 91.1742C207.646 91.1597 207.573 91.1452 207.515 91.1307L207.961 87.8264H216.678C216.91 87.8264 217.131 87.8699 217.342 87.9568C217.552 88.0438 217.733 88.167 217.885 88.3264C218.044 88.4786 218.171 88.6597 218.265 88.8699C218.36 89.08 218.407 89.3047 218.407 89.5438C218.407 89.7829 218.36 90.0076 218.265 90.2177C218.171 90.4278 218.044 90.609 217.885 90.7612C217.733 90.9206 217.552 91.0438 217.342 91.1307C217.131 91.2177 216.91 91.2612 216.678 91.2612H215.472C215.624 91.551 215.733 91.8409 215.798 92.1307C215.87 92.4278 215.91 92.6815 215.918 92.8916C215.881 93.5728 215.707 94.1778 215.396 94.7068C215.092 95.2431 214.697 95.7141 214.211 96.1199C213.726 96.5257 213.175 96.8699 212.559 97.1525C211.943 97.4351 211.313 97.6634 210.668 97.8373C210.023 98.0184 209.385 98.1489 208.755 98.2286C208.131 98.3083 207.563 98.3481 207.048 98.3481ZM215.806 89.5438C215.806 89.3047 215.853 89.08 215.947 88.8699C216.034 88.6597 216.154 88.4786 216.306 88.3264C216.458 88.167 216.639 88.0438 216.85 87.9568C217.06 87.8699 217.284 87.8264 217.523 87.8264H218.643H219.132C219.4 87.8264 219.679 87.8155 219.969 87.7938C220.266 87.7721 220.542 87.7286 220.795 87.6634C221.056 87.5981 221.284 87.5076 221.48 87.3916C221.683 87.2757 221.828 87.1199 221.915 86.9242C221.973 86.7938 222.002 86.5981 222.002 86.3373C222.002 86.1634 221.951 85.9025 221.85 85.5547C221.748 85.2068 221.614 84.8228 221.447 84.4025C221.281 83.975 221.092 83.5293 220.882 83.0655C220.672 82.6018 220.458 82.1634 220.241 81.7503L223.35 80.2068C223.552 80.6634 223.752 81.1489 223.947 81.6634C224.15 82.1778 224.331 82.6996 224.491 83.2286C224.65 83.7576 224.777 84.2865 224.871 84.8155C224.973 85.3373 225.023 85.8373 225.023 86.3155C225.023 87.0474 224.893 87.7177 224.632 88.3264C224.328 89.0076 223.911 89.5728 223.382 90.0221C222.853 90.4641 222.219 90.7902 221.48 91.0003C221.045 91.1235 220.629 91.196 220.23 91.2177C219.831 91.2467 219.458 91.2612 219.11 91.2612H217.621H217.523C217.284 91.2612 217.06 91.2177 216.85 91.1307C216.639 91.0438 216.458 90.9206 216.306 90.7612C216.154 90.609 216.034 90.4278 215.947 90.2177C215.853 90.0076 215.806 89.7829 215.806 89.5438ZM221.186 74.0655L223.6 76.4786L221.186 78.8916L218.773 76.4786L221.186 74.0655ZM226.32 95.5764C227.342 95.3735 228.266 95.1163 229.092 94.8047C229.925 94.5003 230.653 94.1561 231.276 93.7721C231.907 93.3952 232.425 92.9931 232.831 92.5655C233.237 92.138 233.526 91.7032 233.7 91.2612C233.389 91.2612 233.074 91.2539 232.755 91.2394C232.436 91.2322 232.164 91.2213 231.939 91.2068C231.099 91.1344 230.331 90.946 229.635 90.6416C228.939 90.3445 228.385 89.9387 227.972 89.4242C227.668 89.0329 227.45 88.609 227.32 88.1525C227.197 87.696 227.135 87.2141 227.135 86.7068C227.135 86.3155 227.171 85.9242 227.244 85.5329C227.316 85.1344 227.418 84.7503 227.548 84.3807C227.679 84.0039 227.831 83.6489 228.005 83.3155C228.186 82.9822 228.378 82.6778 228.581 82.4025C229.016 81.859 229.49 81.4496 230.005 81.1742C230.526 80.8916 231.074 80.7503 231.646 80.7503C232.871 80.7503 233.976 81.2865 234.961 82.359C235.266 82.6996 235.541 83.0764 235.787 83.4894C236.034 83.9025 236.251 84.3445 236.439 84.8155C236.628 85.2793 236.78 85.7648 236.896 86.2721C237.019 86.7793 237.103 87.2974 237.146 87.8264H237.353C237.592 87.8264 237.816 87.8699 238.026 87.9568C238.237 88.0438 238.418 88.167 238.57 88.3264C238.729 88.4786 238.856 88.6597 238.95 88.8699C239.045 89.08 239.092 89.3083 239.092 89.5547C239.092 89.7865 239.045 90.0076 238.95 90.2177C238.856 90.4206 238.729 90.5981 238.57 90.7503C238.418 90.9097 238.237 91.0329 238.026 91.1199C237.816 91.2141 237.592 91.2612 237.353 91.2612H236.874C236.592 92.3264 236.139 93.2902 235.516 94.1525C234.9 95.0148 234.16 95.7684 233.298 96.4134C232.443 97.0583 231.487 97.5909 230.429 98.0112C229.378 98.4315 228.276 98.7322 227.124 98.9134L226.32 95.5764ZM231.646 84.196C231.487 84.196 231.309 84.2684 231.113 84.4134C230.925 84.551 230.747 84.7286 230.581 84.946C230.414 85.1634 230.273 85.4061 230.157 85.6742C230.048 85.9423 229.994 86.2032 229.994 86.4568C229.994 86.7032 230.063 86.9061 230.2 87.0655C230.338 87.225 230.512 87.3554 230.722 87.4568C230.939 87.551 231.175 87.6235 231.429 87.6742C231.682 87.7177 231.929 87.7503 232.168 87.7721C232.298 87.7865 232.439 87.7974 232.592 87.8047C232.751 87.8047 232.914 87.8047 233.081 87.8047C233.247 87.8047 233.41 87.8083 233.57 87.8155C233.737 87.8155 233.889 87.8192 234.026 87.8264C233.976 87.4713 233.896 87.138 233.787 86.8264C233.679 86.5148 233.555 86.225 233.418 85.9568C233.287 85.6887 233.142 85.4496 232.983 85.2394C232.831 85.0221 232.682 84.8336 232.537 84.6742C232.487 84.6235 232.421 84.5692 232.342 84.5112C232.269 84.4532 232.193 84.4025 232.113 84.359C232.034 84.3083 231.95 84.2684 231.863 84.2394C231.784 84.2105 231.711 84.196 231.646 84.196ZM236.376 89.5438C236.376 89.3047 236.423 89.08 236.518 88.8699C236.605 88.6597 236.728 88.4786 236.887 88.3264C237.047 88.1742 237.231 88.0547 237.441 87.9677C237.652 87.8735 237.873 87.8264 238.105 87.8264H238.202H241.789C241.999 87.8264 242.239 87.7829 242.507 87.696C242.782 87.609 243.043 87.4967 243.289 87.359C243.536 87.2141 243.749 87.0547 243.931 86.8807C244.112 86.6996 244.217 86.5184 244.246 86.3373C244.268 85.975 244.202 85.5836 244.05 85.1634C243.898 84.7431 243.684 84.3155 243.409 83.8807C243.141 83.4387 242.829 83.0003 242.474 82.5655C242.119 82.1235 241.749 81.7032 241.365 81.3047C240.981 80.9061 240.597 80.5365 240.213 80.196C239.829 79.8554 239.474 79.5619 239.148 79.3155L239.441 76.3264L249.431 72.1416L250.691 75.1307L242.441 78.5003C242.941 78.9641 243.394 79.417 243.8 79.859C244.206 80.2938 244.576 80.7286 244.909 81.1634C245.249 81.5981 245.557 82.0365 245.833 82.4786C246.115 82.9206 246.376 83.3735 246.615 83.8373L246.724 84.0329L246.713 84.0221C246.88 84.3264 247.043 84.6307 247.202 84.9351C247.369 85.2322 247.547 85.5329 247.735 85.8373C247.909 86.1126 248.097 86.3699 248.3 86.609C248.51 86.8409 248.739 87.0474 248.985 87.2286C249.231 87.4097 249.492 87.5547 249.768 87.6634C250.05 87.7648 250.351 87.8192 250.67 87.8264H250.659H251.115C251.355 87.8264 251.579 87.8735 251.789 87.9677C251.999 88.0547 252.181 88.1742 252.333 88.3264C252.492 88.4786 252.615 88.6597 252.702 88.8699C252.789 89.08 252.833 89.3047 252.833 89.5438C252.833 89.7829 252.789 90.0076 252.702 90.2177C252.615 90.4278 252.492 90.609 252.333 90.7612C252.181 90.9206 251.999 91.0438 251.789 91.1307C251.579 91.2177 251.355 91.2612 251.115 91.2612H251.028C250.478 91.2612 249.985 91.225 249.55 91.1525C249.123 91.08 248.699 90.975 248.278 90.8373C247.844 90.6778 247.438 90.4641 247.061 90.196C246.684 89.9278 246.333 89.6271 246.007 89.2938C245.927 89.3952 245.836 89.5003 245.735 89.609C245.634 89.7177 245.532 89.8228 245.431 89.9242C245.155 90.1706 244.865 90.3771 244.561 90.5438C244.257 90.7032 243.945 90.8336 243.626 90.9351C243.307 91.0438 242.981 91.1199 242.648 91.1634C242.315 91.2141 241.981 91.2467 241.648 91.2612H238.105C237.873 91.2612 237.652 91.2177 237.441 91.1307C237.231 91.0438 237.047 90.9206 236.887 90.7612C236.728 90.609 236.605 90.4278 236.518 90.2177C236.423 90.0076 236.376 89.7829 236.376 89.5438ZM250.03 89.5438C250.03 89.3192 250.077 89.1054 250.172 88.9025C250.266 88.6996 250.396 88.5221 250.563 88.3699C250.722 88.2105 250.914 88.0836 251.139 87.9894C251.356 87.8952 251.592 87.8409 251.845 87.8264C252.23 87.8264 252.588 87.7648 252.922 87.6416C253.255 87.5112 253.57 87.2648 253.867 86.9025C254.164 86.5402 254.443 86.0293 254.704 85.3699C254.965 84.7105 255.215 83.8481 255.454 82.7829L258.345 83.196C258.367 83.109 258.353 83.1561 258.302 83.3373C258.259 83.5184 258.204 83.7757 258.139 84.109C258.081 84.4351 258.023 84.8047 257.965 85.2177C257.914 85.6235 257.889 86.0148 257.889 86.3916C257.896 86.7612 257.94 87.0836 258.019 87.359C258.106 87.6271 258.255 87.7865 258.465 87.8373C258.69 87.8952 258.907 87.8518 259.117 87.7068C259.327 87.5547 259.527 87.3409 259.715 87.0655C259.903 86.7829 260.077 86.4568 260.237 86.0873C260.396 85.7105 260.541 85.3264 260.672 84.9351C260.802 84.5438 260.914 84.1597 261.009 83.7829C261.103 83.4061 261.175 83.0728 261.226 82.7829L264.095 83.196C264.081 83.3771 264.056 83.6199 264.019 83.9242C263.983 84.2213 263.954 84.5402 263.932 84.8807C263.911 85.2213 263.9 85.5655 263.9 85.9134C263.907 86.2539 263.947 86.5655 264.019 86.8481C264.092 87.1235 264.204 87.3518 264.356 87.5329C264.509 87.7068 264.719 87.7938 264.987 87.7938C265.226 87.7938 265.432 87.7141 265.606 87.5547C265.78 87.3952 265.925 87.1887 266.041 86.9351C266.164 86.6742 266.262 86.3807 266.335 86.0547C266.407 85.7213 266.461 85.3844 266.498 85.0438C266.534 84.7032 266.552 84.3735 266.552 84.0547C266.552 83.7286 266.541 83.4423 266.519 83.196L269.454 82.7829L269.813 85.8481C269.856 86.1815 269.951 86.4713 270.095 86.7177C270.24 86.9641 270.411 87.1706 270.606 87.3373C270.802 87.4967 271.009 87.6199 271.226 87.7068C271.443 87.7865 271.65 87.8264 271.846 87.8264H271.976C272.244 87.8264 272.487 87.8699 272.704 87.9568C272.929 88.0438 273.121 88.167 273.28 88.3264C273.44 88.4786 273.563 88.6597 273.65 88.8699C273.737 89.08 273.78 89.3047 273.78 89.5438C273.78 89.7829 273.737 90.0076 273.65 90.2177C273.563 90.4278 273.436 90.609 273.269 90.7612C273.11 90.9134 272.907 91.0329 272.661 91.1199C272.422 91.2141 272.15 91.2612 271.846 91.2612C271.143 91.2612 270.48 91.138 269.856 90.8916C269.233 90.6452 268.693 90.2286 268.237 89.6416C268.193 89.6996 268.15 89.7503 268.106 89.7938C268.063 89.8373 268.023 89.8807 267.987 89.9242V89.9134C267.595 90.3264 267.143 90.6525 266.628 90.8916C266.121 91.138 265.574 91.2612 264.987 91.2612C264.327 91.2612 263.719 91.1199 263.161 90.8373C262.61 90.5547 262.15 90.1706 261.78 89.6851C261.345 90.1634 260.853 90.551 260.302 90.8481C259.751 91.1452 259.146 91.2938 258.487 91.2938C257.871 91.2938 257.298 91.1561 256.769 90.8807C256.24 90.6054 255.802 90.2286 255.454 89.7503C255.063 90.2938 254.577 90.6815 253.998 90.9134C253.425 91.1452 252.715 91.2612 251.867 91.2612C251.592 91.2612 251.342 91.2141 251.117 91.1199C250.893 91.0329 250.701 90.9134 250.541 90.7612C250.382 90.609 250.259 90.4278 250.172 90.2177C250.077 90.0076 250.03 89.7829 250.03 89.5438ZM271.017 89.5438C271.017 89.3047 271.061 89.0836 271.147 88.8807C271.234 88.6778 271.354 88.5003 271.506 88.3481C271.658 88.196 271.839 88.0764 272.05 87.9894C272.253 87.8952 272.474 87.8409 272.713 87.8264C273.198 87.8264 273.618 87.7322 273.974 87.5438C274.336 87.3554 274.655 87.109 274.93 86.8047C275.205 86.5003 275.452 86.1597 275.669 85.7829C275.887 85.4061 276.093 85.0293 276.289 84.6525V84.6634C276.477 84.2721 276.676 83.8844 276.887 83.5003C277.104 83.1163 277.339 82.7612 277.593 82.4351C277.984 81.9786 278.423 81.6271 278.908 81.3807C279.394 81.1271 279.912 81.0003 280.463 81.0003C281.115 81.0003 281.705 81.1344 282.234 81.4025C282.771 81.6706 283.256 82.0547 283.691 82.5547C284.017 82.946 284.282 83.3952 284.484 83.9025C284.687 84.4025 284.821 84.9351 284.887 85.5003V85.4786C284.93 85.7612 284.952 86.0836 284.952 86.446C284.952 86.8373 284.916 87.2213 284.843 87.5981C284.778 87.9677 284.684 88.3192 284.561 88.6525C284.321 89.2612 283.977 89.7721 283.528 90.1851C283.086 90.5909 282.604 90.8699 282.082 91.0221C281.908 91.0728 281.734 91.1054 281.561 91.1199C281.394 91.1416 281.216 91.1525 281.028 91.1525C280.702 91.1525 280.354 91.1126 279.984 91.0329C279.622 90.9532 279.263 90.8445 278.908 90.7068C278.763 90.6416 278.6 90.5655 278.419 90.4786C278.238 90.3844 278.046 90.2829 277.843 90.1742C277.647 90.0655 277.452 89.9532 277.256 89.8373C277.061 89.7213 276.879 89.609 276.713 89.5003C276.423 89.7684 276.133 90.0112 275.843 90.2286C275.553 90.446 275.249 90.6307 274.93 90.7829C274.611 90.9351 274.271 91.051 273.908 91.1307C273.546 91.2177 273.151 91.2612 272.724 91.2612C272.484 91.2612 272.263 91.2141 272.061 91.1199C271.85 91.0329 271.669 90.9134 271.517 90.7612C271.358 90.609 271.234 90.4278 271.147 90.2177C271.061 90.0076 271.017 89.7829 271.017 89.5438ZM278.724 86.6851C278.948 86.83 279.213 86.9713 279.517 87.109C279.829 87.2467 280.137 87.3699 280.441 87.4786C280.745 87.5873 281.024 87.6778 281.278 87.7503C281.539 87.8155 281.734 87.8481 281.865 87.8481C281.894 87.8481 281.923 87.8481 281.952 87.8481C281.988 87.8409 282.024 87.8336 282.061 87.8264C282.147 87.8047 282.231 87.696 282.311 87.5003C282.397 87.2974 282.43 87.0221 282.408 86.6742C282.408 86.4423 282.343 86.1887 282.213 85.9134C282.082 85.6307 281.912 85.3699 281.702 85.1307C281.492 84.8844 281.249 84.6815 280.974 84.5221C280.705 84.3554 280.43 84.2721 280.147 84.2721C280.046 84.2721 279.916 84.417 279.756 84.7068C279.597 84.9967 279.365 85.4278 279.061 86.0003V85.9894L278.724 86.6851ZM319.746 79.7938C319.789 79.8807 319.866 80.0402 319.974 80.2721C320.09 80.4967 320.221 80.7721 320.366 81.0981C320.51 81.417 320.663 81.7757 320.822 82.1742C320.981 82.5728 321.126 82.9931 321.257 83.4351C321.387 83.8699 321.492 84.3155 321.572 84.7721C321.659 85.2213 321.702 85.6634 321.702 86.0981C321.695 86.8155 321.587 87.4858 321.376 88.109C321.174 88.7322 320.873 89.2757 320.474 89.7394C320.076 90.196 319.583 90.5583 318.996 90.8264C318.409 91.0945 317.731 91.2286 316.963 91.2286C316.297 91.2286 315.75 91.1163 315.322 90.8916C314.902 90.667 314.554 90.359 314.279 89.9677C314.126 90.1634 313.963 90.3409 313.789 90.5003C313.616 90.6525 313.409 90.7829 313.17 90.8916C312.938 91.0076 312.663 91.0945 312.344 91.1525C312.032 91.2105 311.659 91.2394 311.224 91.2394C310.92 91.2394 310.641 91.2177 310.387 91.1742C310.134 91.1307 309.902 91.0764 309.692 91.0112C309.684 91.859 309.554 92.6307 309.3 93.3264C309.054 94.0221 308.713 94.6452 308.279 95.196C307.851 95.7467 307.347 96.225 306.768 96.6307C306.188 97.0365 305.565 97.3699 304.898 97.6307C304.231 97.8989 303.532 98.0981 302.8 98.2286C302.076 98.359 301.355 98.4242 300.637 98.4242C299.529 98.4242 298.503 98.2394 297.561 97.8699C296.619 97.5076 295.804 96.9931 295.116 96.3264C294.434 95.667 293.902 94.8699 293.518 93.9351C293.134 93.0076 292.942 91.9822 292.942 90.859C292.963 90.2068 293.05 89.5402 293.202 88.859C293.362 88.1778 293.561 87.5112 293.8 86.859C294.047 86.2068 294.318 85.5873 294.616 85.0003C294.92 84.4061 295.228 83.8735 295.539 83.4025L297.909 85.2286C297.648 85.6561 297.395 86.109 297.148 86.5873C296.902 87.0583 296.684 87.5438 296.496 88.0438C296.308 88.5365 296.155 89.0293 296.039 89.5221C295.924 90.0148 295.866 90.4894 295.866 90.946C295.844 91.4967 295.952 92.0148 296.192 92.5003C296.438 92.9858 296.775 93.4097 297.202 93.7721C297.637 94.1416 298.145 94.4315 298.724 94.6416C299.311 94.8518 299.934 94.9568 300.594 94.9568C301.34 94.9568 302.029 94.888 302.659 94.7503C303.297 94.6126 303.858 94.4206 304.344 94.1742C304.837 93.9351 305.25 93.6416 305.583 93.2938C305.916 92.9532 306.155 92.5764 306.3 92.1634L306.289 92.1742C306.471 91.58 306.561 90.9677 306.561 90.3373C306.561 89.8518 306.492 89.359 306.355 88.859C306.217 88.359 306.039 87.8554 305.822 87.3481C305.605 86.8336 305.362 86.3192 305.094 85.8047C304.833 85.2829 304.576 84.7612 304.322 84.2394L307.3 82.5655C307.489 82.9931 307.677 83.4242 307.866 83.859C308.054 84.2938 308.242 84.7105 308.431 85.109C308.626 85.5003 308.826 85.8663 309.029 86.2068C309.231 86.5474 309.442 86.8409 309.659 87.0873C309.876 87.3264 310.101 87.5076 310.333 87.6307C310.572 87.7539 310.826 87.7974 311.094 87.7612C311.398 87.7177 311.645 87.6126 311.833 87.446C312.021 87.2721 312.163 87.0583 312.257 86.8047C312.358 86.551 312.42 86.2684 312.442 85.9568C312.471 85.638 312.478 85.3155 312.463 84.9894C312.449 84.6634 312.424 84.3409 312.387 84.0221C312.358 83.7032 312.333 83.4097 312.311 83.1416L315.311 82.7394C315.362 82.9641 315.405 83.2358 315.442 83.5547C315.478 83.8663 315.518 84.196 315.561 84.5438C315.612 84.8916 315.674 85.2431 315.746 85.5981C315.818 85.9532 315.916 86.2829 316.039 86.5873C316.163 86.8916 316.315 87.1561 316.496 87.3807C316.677 87.6054 316.905 87.7648 317.181 87.859C317.405 87.859 317.616 87.8192 317.811 87.7394C318.007 87.6525 318.177 87.5293 318.322 87.3699C318.467 87.2105 318.579 87.0148 318.659 86.7829C318.746 86.5438 318.789 86.2684 318.789 85.9568C318.789 85.696 318.739 85.3952 318.637 85.0547C318.543 84.7068 318.413 84.3336 318.246 83.9351C318.079 83.5365 317.884 83.1199 317.659 82.6851C317.442 82.2431 317.21 81.7974 316.963 81.3481L319.746 79.7938ZM317.398 78.1742L315.311 80.2721L313.246 78.2068L311.202 80.2503L309.094 78.1525L311.181 76.0547L313.246 78.1199L315.289 76.0764L317.398 78.1742ZM311.311 75.0221L313.246 73.0873L315.192 75.0329L313.257 76.9677L311.311 75.0221ZM328.504 84.196C328.352 84.167 328.178 84.2213 327.983 84.359C327.794 84.4894 327.613 84.6706 327.439 84.9025C327.272 85.1271 327.131 85.3771 327.015 85.6525C326.907 85.9278 326.852 86.1923 326.852 86.446C326.852 86.6851 326.921 86.8844 327.059 87.0438C327.196 87.2032 327.37 87.3336 327.58 87.4351C327.798 87.5365 328.033 87.6126 328.287 87.6634C328.548 87.7141 328.798 87.7503 329.037 87.7721H329.026C329.215 87.7865 329.428 87.7974 329.667 87.8047C329.914 87.8047 330.153 87.8047 330.385 87.8047C330.457 87.8047 330.512 87.8083 330.548 87.8155C330.591 87.8155 330.628 87.8155 330.657 87.8155C330.686 87.8155 330.715 87.8155 330.744 87.8155C330.78 87.8155 330.83 87.8119 330.896 87.8047C330.787 87.3554 330.657 86.9278 330.504 86.5221C330.359 86.109 330.189 85.7394 329.994 85.4134C329.798 85.0873 329.577 84.8192 329.33 84.609C329.084 84.3916 328.809 84.2539 328.504 84.196ZM323.178 95.5764C324.2 95.3735 325.131 95.1163 325.972 94.8047C326.812 94.5003 327.548 94.1561 328.178 93.7721C328.816 93.3952 329.341 92.9931 329.754 92.5655C330.175 92.138 330.472 91.7032 330.646 91.2612C330.334 91.2612 330.004 91.2539 329.657 91.2394C329.309 91.2322 329.022 91.2213 328.798 91.2068C327.957 91.1344 327.189 90.946 326.494 90.6416C325.798 90.3445 325.244 89.9387 324.83 89.4242C324.526 89.0329 324.309 88.609 324.178 88.1525C324.055 87.696 323.994 87.2141 323.994 86.7068C323.994 86.3155 324.03 85.9242 324.102 85.5329C324.175 85.1344 324.276 84.7503 324.407 84.3807C324.537 84.0039 324.689 83.6489 324.863 83.3155C325.044 82.9822 325.236 82.6778 325.439 82.4025C325.874 81.859 326.349 81.4496 326.863 81.1742C327.385 80.8916 327.932 80.7503 328.504 80.7503C329.729 80.7503 330.834 81.2865 331.82 82.359C332.167 82.7503 332.479 83.1887 332.754 83.6742C333.03 84.1597 333.262 84.6778 333.45 85.2286C333.646 85.7721 333.794 86.3445 333.896 86.946C333.997 87.5402 334.048 88.1452 334.048 88.7612C334.048 88.9496 334.041 89.138 334.026 89.3264C334.019 89.5148 334.008 89.6923 333.994 89.859C333.907 90.7068 333.715 91.5003 333.417 92.2394C333.128 92.9858 332.751 93.6706 332.287 94.2938C331.83 94.9242 331.298 95.4931 330.689 96.0003C330.08 96.5148 329.417 96.9641 328.7 97.3481C327.99 97.7394 327.236 98.0655 326.439 98.3264C325.642 98.5873 324.823 98.7829 323.983 98.9134L323.178 95.5764ZM344.006 91.2612C343.847 91.2612 343.622 91.2503 343.332 91.2286C343.042 91.2068 342.731 91.1271 342.398 90.9894C342.238 91.888 341.937 92.7394 341.495 93.5438C341.061 94.3554 340.521 95.1126 339.876 95.8155C339.231 96.5257 338.495 97.1778 337.669 97.7721C336.843 98.3663 335.963 98.8989 335.028 99.3699L333.039 96.6199C333.553 96.359 334.071 96.0728 334.593 95.7612C335.115 95.4568 335.611 95.1307 336.082 94.7829C336.561 94.4423 337.003 94.0836 337.408 93.7068C337.821 93.3373 338.18 92.9532 338.485 92.5547C338.789 92.1561 339.028 91.7467 339.202 91.3264C339.376 90.9134 339.463 90.4931 339.463 90.0655C339.463 90.0438 339.459 90.0112 339.452 89.9677C339.452 89.9242 339.452 89.8807 339.452 89.8373C339.452 89.7938 339.448 89.7612 339.441 89.7394C339.441 89.7177 339.441 89.7213 339.441 89.7503V89.7612C339.39 89.3409 339.318 88.9387 339.224 88.5547C339.129 88.1706 339.01 87.7793 338.865 87.3807C338.727 86.9822 338.564 86.5655 338.376 86.1307C338.187 85.6887 337.977 85.2068 337.745 84.6851L340.887 83.3155C341.177 84.1851 341.448 84.9097 341.702 85.4894C341.956 86.0692 342.202 86.5329 342.441 86.8807C342.687 87.2286 342.934 87.475 343.18 87.6199C343.427 87.7576 343.687 87.8264 343.963 87.8264H344.017C344.256 87.8264 344.481 87.8735 344.691 87.9677C344.901 88.0619 345.082 88.1887 345.235 88.3481C345.394 88.5003 345.517 88.6815 345.604 88.8916C345.698 89.1018 345.745 89.3228 345.745 89.5547C345.745 89.7938 345.698 90.0184 345.604 90.2286C345.517 90.4387 345.394 90.6199 345.235 90.7721C345.082 90.9242 344.901 91.0438 344.691 91.1307C344.481 91.2177 344.253 91.2612 344.006 91.2612ZM342.912 89.5438C342.912 89.3047 342.959 89.08 343.053 88.8699C343.14 88.6597 343.263 88.4786 343.423 88.3264C343.575 88.167 343.76 88.0438 343.977 87.9568C344.187 87.8699 344.412 87.8264 344.651 87.8264C344.919 87.8264 345.249 87.8228 345.64 87.8155C346.039 87.801 346.463 87.7793 346.912 87.7503C347.361 87.7213 347.818 87.6851 348.282 87.6416C348.753 87.5981 349.198 87.5402 349.619 87.4677C350.046 87.3952 350.43 87.3119 350.771 87.2177C351.119 87.1163 351.39 87.0003 351.586 86.8699C350.854 86.9496 350.18 86.9822 349.564 86.9677C348.948 86.946 348.398 86.8844 347.912 86.7829C347.427 86.6815 347.01 86.5438 346.662 86.3699C346.321 86.1887 346.061 85.9822 345.879 85.7503V85.7612C345.684 85.5148 345.499 85.1851 345.325 84.7721C345.158 84.359 345.075 83.8481 345.075 83.2394C345.075 82.9134 345.097 82.609 345.14 82.3264C345.358 81.0945 345.792 80.0764 346.445 79.2721L346.434 79.2829C346.825 78.7612 347.267 78.3735 347.76 78.1199C348.253 77.859 348.771 77.7286 349.314 77.7286C349.865 77.7286 350.408 77.8626 350.945 78.1307C351.481 78.3989 351.966 78.7612 352.401 79.2177C352.713 79.5728 352.992 79.975 353.238 80.4242C353.492 80.8735 353.706 81.3518 353.879 81.859C354.061 82.3663 354.198 82.8952 354.292 83.446C354.394 83.9894 354.445 84.5365 354.445 85.0873C354.445 85.2539 354.441 85.4206 354.434 85.5873C354.427 85.7467 354.416 85.8989 354.401 86.0438C354.314 86.7974 354.122 87.4496 353.825 88.0003C353.528 88.5438 353.148 89.0076 352.684 89.3916C352.227 89.7757 351.702 90.0873 351.108 90.3264C350.513 90.5655 349.876 90.7539 349.195 90.8916C348.513 91.0293 347.8 91.1235 347.053 91.1742C346.314 91.225 345.568 91.2539 344.814 91.2612H344.629C344.39 91.2612 344.166 91.2141 343.956 91.1199C343.745 91.0329 343.564 90.9134 343.412 90.7612C343.26 90.609 343.14 90.4278 343.053 90.2177C342.959 90.0076 342.912 89.7829 342.912 89.5438ZM349.292 81.1851C349.126 81.1778 348.956 81.2286 348.782 81.3373C348.615 81.4387 348.459 81.5764 348.314 81.7503C348.177 81.9242 348.061 82.1235 347.966 82.3481C347.879 82.5728 347.836 82.801 347.836 83.0329C347.836 83.2358 347.883 83.417 347.977 83.5764C348.028 83.6634 348.129 83.7394 348.282 83.8047C348.441 83.8626 348.626 83.9134 348.836 83.9568C349.053 83.9931 349.285 84.0257 349.532 84.0547C349.778 84.0764 350.013 84.0909 350.238 84.0981C350.463 84.1054 350.666 84.1054 350.847 84.0981C351.035 84.0909 351.173 84.08 351.26 84.0655C351.195 83.7394 351.108 83.4097 350.999 83.0764C350.898 82.7431 350.767 82.4387 350.608 82.1634C350.448 81.888 350.26 81.6597 350.042 81.4786C349.825 81.2974 349.575 81.1996 349.292 81.1851ZM348.869 71.5329L351.282 73.946L348.869 76.359L346.456 73.946L348.869 71.5329Z" fill="#303030"/>
<path d="M261.416 131.136C261.395 131.136 261.334 131.132 261.234 131.123C261.138 131.119 261.019 131.106 260.875 131.084C260.736 131.062 260.577 131.027 260.399 130.98C260.225 130.932 260.049 130.867 259.871 130.784C259.397 130.558 259.03 130.249 258.769 129.858C258.508 129.462 258.377 129.004 258.377 128.482C258.377 127.612 258.762 126.71 259.532 125.775C259.593 125.701 259.643 125.641 259.682 125.593C259.725 125.545 259.764 125.501 259.799 125.462C259.834 125.423 259.866 125.388 259.897 125.358C259.932 125.323 259.971 125.284 260.014 125.241C259.962 125.197 259.91 125.156 259.858 125.117C259.81 125.077 259.769 125.041 259.734 125.006L259.616 124.901L260.914 123.317C261.136 123.482 261.401 123.706 261.71 123.988C262.019 124.267 262.375 124.623 262.78 125.058C263.906 126.341 264.469 127.482 264.469 128.482C264.469 128.995 264.345 129.449 264.097 129.845C263.853 130.241 263.514 130.551 263.08 130.777C262.927 130.851 262.771 130.91 262.61 130.954C262.453 131.001 262.301 131.038 262.153 131.064C262.006 131.091 261.866 131.108 261.736 131.117C261.61 131.13 261.503 131.136 261.416 131.136ZM262.682 128.482C262.682 128.347 262.638 128.195 262.551 128.025C262.464 127.856 262.349 127.68 262.206 127.497C262.066 127.31 261.91 127.123 261.736 126.936C261.562 126.745 261.388 126.562 261.214 126.388C261.097 126.519 260.973 126.667 260.843 126.832C260.712 126.993 260.593 127.164 260.484 127.347C260.375 127.53 260.286 127.719 260.216 127.914C260.147 128.106 260.116 128.295 260.125 128.482C260.13 128.586 260.18 128.677 260.275 128.756C260.371 128.834 260.484 128.897 260.614 128.945C260.749 128.993 260.89 129.03 261.038 129.056C261.186 129.077 261.312 129.088 261.416 129.088C261.547 129.088 261.686 129.08 261.834 129.062C261.986 129.041 262.123 129.006 262.245 128.958C262.371 128.91 262.475 128.847 262.558 128.769C262.64 128.691 262.682 128.595 262.682 128.482ZM268.093 131.136C267.524 131.136 266.965 131.027 266.417 130.81C265.874 130.593 265.37 130.243 264.904 129.76L266.085 128.097C266.298 128.293 266.504 128.454 266.704 128.58C266.904 128.701 267.096 128.797 267.278 128.867C267.461 128.936 267.633 128.984 267.793 129.01C267.959 129.036 268.113 129.049 268.257 129.049C268.322 129.049 268.396 129.047 268.478 129.043C268.561 129.038 268.643 129.032 268.726 129.023C268.809 129.01 268.889 128.995 268.967 128.977C269.046 128.96 269.117 128.938 269.183 128.912C269.409 128.817 269.587 128.721 269.717 128.625C269.552 128.225 269.372 127.81 269.176 127.38C268.985 126.945 268.791 126.51 268.596 126.075C268.4 125.636 268.207 125.201 268.015 124.771C267.824 124.341 267.646 123.927 267.48 123.532L269.385 122.736L269.965 124.145C270.152 124.606 270.376 125.154 270.637 125.788C270.898 126.419 271.198 127.134 271.537 127.934C271.615 128.125 271.687 128.293 271.752 128.436C271.817 128.58 271.893 128.699 271.98 128.795C272.072 128.891 272.178 128.962 272.3 129.01C272.426 129.054 272.587 129.075 272.783 129.075C272.922 129.075 273.054 129.101 273.18 129.154C273.307 129.206 273.415 129.28 273.507 129.375C273.602 129.467 273.678 129.575 273.735 129.701C273.791 129.827 273.82 129.962 273.82 130.106C273.82 130.249 273.791 130.384 273.735 130.51C273.678 130.636 273.602 130.745 273.507 130.836C273.415 130.932 273.307 131.006 273.18 131.058C273.054 131.11 272.922 131.136 272.783 131.136C272.517 131.136 272.283 131.119 272.078 131.084C271.878 131.049 271.698 130.999 271.537 130.934C271.38 130.873 271.239 130.799 271.113 130.712C270.991 130.621 270.876 130.521 270.767 130.412C270.65 130.491 270.526 130.567 270.396 130.641C270.265 130.71 270.115 130.78 269.946 130.849C269.685 130.949 269.402 131.021 269.098 131.064C268.798 131.112 268.463 131.136 268.093 131.136ZM271.689 130.099C271.689 129.956 271.717 129.823 271.774 129.701C271.826 129.575 271.898 129.467 271.989 129.375C272.08 129.28 272.189 129.206 272.315 129.154C272.441 129.101 272.576 129.075 272.719 129.075H272.778C272.843 129.075 272.904 129.075 272.961 129.075C273.022 129.075 273.089 129.073 273.163 129.069C273.241 129.064 273.333 129.06 273.437 129.056C273.546 129.051 273.68 129.045 273.841 129.036C273.689 128.775 273.574 128.499 273.496 128.208C273.417 127.912 273.378 127.614 273.378 127.314C273.378 127.088 273.4 126.862 273.443 126.636C273.487 126.41 273.552 126.195 273.639 125.991C273.726 125.782 273.835 125.586 273.965 125.404C274.096 125.217 274.25 125.047 274.428 124.895L274.089 124.706L275.348 122.854C275.535 122.984 275.759 123.117 276.019 123.251C276.28 123.386 276.554 123.521 276.841 123.656C277.128 123.786 277.415 123.914 277.702 124.041C277.993 124.162 278.261 124.277 278.504 124.386C278.917 124.577 279.283 124.747 279.6 124.895C279.922 125.038 280.211 125.182 280.467 125.325C280.724 125.464 280.954 125.612 281.159 125.769C281.363 125.925 281.554 126.108 281.733 126.317C281.959 126.604 282.122 126.917 282.222 127.256C282.322 127.595 282.372 127.923 282.372 128.241C282.372 128.727 282.246 129.188 281.993 129.623C281.746 130.054 281.378 130.414 280.891 130.706C280.756 130.784 280.589 130.851 280.389 130.908C280.193 130.964 279.987 131.01 279.769 131.045C279.556 131.084 279.346 131.112 279.137 131.13C278.928 131.147 278.746 131.156 278.589 131.156C278.406 131.156 278.209 131.147 277.996 131.13C277.783 131.117 277.567 131.093 277.35 131.058C277.137 131.027 276.928 130.986 276.724 130.934C276.519 130.882 276.333 130.821 276.163 130.751C275.954 130.812 275.713 130.867 275.439 130.914C275.169 130.962 274.885 131.001 274.585 131.032C274.285 131.067 273.98 131.093 273.672 131.11C273.363 131.127 273.065 131.136 272.778 131.136H272.719C272.576 131.136 272.441 131.108 272.315 131.051C272.189 130.999 272.08 130.925 271.989 130.83C271.898 130.738 271.826 130.63 271.774 130.504C271.717 130.377 271.689 130.243 271.689 130.099ZM276.43 125.88C276.291 125.858 276.141 125.899 275.98 126.004C275.824 126.108 275.68 126.243 275.55 126.408C275.419 126.573 275.315 126.756 275.237 126.956C275.159 127.151 275.128 127.334 275.146 127.504V127.497C275.159 127.61 275.202 127.727 275.276 127.849C275.35 127.967 275.437 128.082 275.537 128.195C275.641 128.304 275.752 128.401 275.869 128.488C275.987 128.571 276.096 128.632 276.196 128.671C276.361 128.654 276.522 128.614 276.678 128.554C276.839 128.493 276.983 128.401 277.109 128.28C277.235 128.158 277.337 128.001 277.415 127.81C277.493 127.619 277.533 127.384 277.533 127.106C277.533 126.962 277.491 126.821 277.409 126.682C277.33 126.543 277.235 126.417 277.122 126.304C277.009 126.186 276.887 126.091 276.756 126.017C276.63 125.938 276.522 125.893 276.43 125.88ZM279.248 126.962C279.248 127.145 279.226 127.336 279.183 127.536C279.139 127.736 279.08 127.934 279.006 128.13C278.933 128.325 278.848 128.517 278.752 128.704C278.661 128.886 278.563 129.056 278.459 129.212H278.517C278.835 129.212 279.126 129.201 279.391 129.18C279.661 129.154 279.893 129.106 280.089 129.036C280.285 128.962 280.439 128.862 280.552 128.736C280.669 128.606 280.739 128.434 280.761 128.221C280.769 128.117 280.726 128.004 280.63 127.882C280.535 127.756 280.411 127.632 280.259 127.51C280.111 127.384 279.946 127.262 279.763 127.145C279.58 127.027 279.409 126.923 279.248 126.832V126.962ZM286.784 131.136C286.25 131.136 285.791 131.069 285.408 130.934C285.026 130.804 284.695 130.601 284.417 130.327C284.243 130.154 284.108 129.971 284.013 129.78C283.921 129.588 283.854 129.401 283.81 129.219C283.771 129.032 283.747 128.856 283.739 128.691C283.734 128.525 283.732 128.384 283.732 128.267V128.169C283.736 128.008 283.741 127.777 283.745 127.477C283.754 127.173 283.758 126.817 283.758 126.408C283.758 125.999 283.756 125.549 283.752 125.058C283.747 124.567 283.734 124.077 283.713 123.591C283.695 123.099 283.667 122.627 283.628 122.175C283.593 121.723 283.543 121.33 283.478 120.995L285.428 120.401C285.484 120.688 285.53 121.027 285.565 121.419C285.6 121.806 285.628 122.212 285.65 122.638C285.676 123.064 285.693 123.493 285.702 123.923C285.715 124.354 285.723 124.754 285.728 125.123C285.732 125.449 285.719 125.769 285.689 126.082C285.663 126.391 285.641 126.695 285.623 126.995C285.606 127.291 285.606 127.58 285.623 127.862C285.645 128.141 285.706 128.412 285.806 128.677C285.845 128.777 285.893 128.854 285.95 128.906C286.01 128.958 286.08 128.997 286.158 129.023C286.236 129.045 286.321 129.058 286.413 129.062C286.508 129.067 286.613 129.069 286.726 129.069H286.784C286.923 129.069 287.056 129.097 287.182 129.154C287.308 129.21 287.417 129.286 287.508 129.382C287.604 129.473 287.68 129.582 287.736 129.708C287.793 129.834 287.821 129.967 287.821 130.106C287.821 130.249 287.793 130.384 287.736 130.51C287.68 130.636 287.604 130.745 287.508 130.836C287.417 130.932 287.308 131.006 287.182 131.058C287.056 131.11 286.923 131.136 286.784 131.136ZM285.724 130.106C285.724 129.971 285.752 129.843 285.809 129.721C285.865 129.599 285.944 129.493 286.044 129.401C286.139 129.306 286.254 129.23 286.389 129.173C286.52 129.117 286.661 129.084 286.813 129.075C287.044 129.075 287.259 129.038 287.459 128.964C287.659 128.886 287.848 128.738 288.026 128.521C288.204 128.304 288.372 127.997 288.528 127.601C288.685 127.206 288.835 126.688 288.978 126.049L290.713 126.297C290.726 126.245 290.717 126.273 290.687 126.382C290.661 126.491 290.628 126.645 290.589 126.845C290.554 127.041 290.52 127.262 290.485 127.51C290.454 127.754 290.439 127.988 290.439 128.214C290.444 128.436 290.47 128.63 290.517 128.795C290.57 128.956 290.659 129.051 290.785 129.082C290.92 129.117 291.05 129.091 291.176 129.004C291.302 128.912 291.422 128.784 291.535 128.619C291.648 128.449 291.752 128.254 291.848 128.032C291.944 127.806 292.03 127.575 292.109 127.341C292.187 127.106 292.254 126.875 292.311 126.649C292.367 126.423 292.411 126.223 292.441 126.049L294.163 126.297C294.154 126.406 294.139 126.551 294.117 126.734C294.096 126.912 294.078 127.104 294.065 127.308C294.052 127.512 294.046 127.719 294.046 127.927C294.05 128.132 294.074 128.319 294.117 128.488C294.161 128.654 294.228 128.791 294.32 128.899C294.411 129.004 294.537 129.056 294.698 129.056C294.841 129.056 294.965 129.008 295.07 128.912C295.174 128.817 295.261 128.693 295.33 128.541C295.404 128.384 295.463 128.208 295.507 128.012C295.55 127.812 295.583 127.61 295.604 127.406C295.626 127.201 295.637 127.004 295.637 126.812C295.637 126.617 295.63 126.445 295.617 126.297L297.378 126.049L297.594 127.888C297.62 128.088 297.676 128.262 297.763 128.41C297.85 128.558 297.952 128.682 298.07 128.782C298.187 128.877 298.311 128.951 298.441 129.004C298.572 129.051 298.696 129.075 298.813 129.075H298.891C299.052 129.075 299.198 129.101 299.328 129.154C299.463 129.206 299.578 129.28 299.674 129.375C299.77 129.467 299.844 129.575 299.896 129.701C299.948 129.827 299.974 129.962 299.974 130.106C299.974 130.249 299.948 130.384 299.896 130.51C299.844 130.636 299.767 130.745 299.667 130.836C299.572 130.927 299.45 130.999 299.302 131.051C299.159 131.108 298.996 131.136 298.813 131.136C298.391 131.136 297.994 131.062 297.62 130.914C297.246 130.767 296.922 130.517 296.648 130.164C296.622 130.199 296.596 130.23 296.57 130.256C296.544 130.282 296.52 130.308 296.498 130.334V130.327C296.263 130.575 295.991 130.771 295.683 130.914C295.378 131.062 295.05 131.136 294.698 131.136C294.302 131.136 293.937 131.051 293.602 130.882C293.272 130.712 292.996 130.482 292.774 130.191C292.513 130.477 292.217 130.71 291.887 130.888C291.557 131.067 291.194 131.156 290.798 131.156C290.428 131.156 290.085 131.073 289.767 130.908C289.45 130.743 289.187 130.517 288.978 130.23C288.744 130.556 288.452 130.788 288.104 130.927C287.761 131.067 287.335 131.136 286.826 131.136C286.661 131.136 286.511 131.108 286.376 131.051C286.241 130.999 286.126 130.927 286.03 130.836C285.935 130.745 285.861 130.636 285.809 130.51C285.752 130.384 285.724 130.249 285.724 130.106ZM295.813 123.395L294.561 124.654L293.322 123.414L292.096 124.641L290.83 123.382L292.083 122.123L293.322 123.362L294.548 122.136L295.813 123.395ZM292.161 121.504L293.322 120.343L294.489 121.51L293.328 122.671L292.161 121.504ZM297.981 130.106C297.981 129.962 298.008 129.83 298.06 129.708C298.112 129.586 298.184 129.48 298.275 129.388C298.366 129.297 298.475 129.225 298.601 129.173C298.723 129.117 298.855 129.084 298.999 129.075C299.29 129.075 299.542 129.019 299.755 128.906C299.973 128.793 300.164 128.645 300.329 128.462C300.495 128.28 300.642 128.075 300.773 127.849C300.903 127.623 301.027 127.397 301.145 127.171V127.177C301.258 126.943 301.377 126.71 301.503 126.48C301.634 126.249 301.775 126.036 301.927 125.841C302.162 125.567 302.425 125.356 302.716 125.208C303.008 125.056 303.318 124.98 303.649 124.98C304.04 124.98 304.395 125.06 304.712 125.221C305.034 125.382 305.325 125.612 305.586 125.912C305.781 126.147 305.94 126.417 306.062 126.721C306.184 127.021 306.264 127.341 306.303 127.68V127.667C306.329 127.836 306.342 128.03 306.342 128.247C306.342 128.482 306.321 128.712 306.277 128.938C306.238 129.16 306.181 129.371 306.108 129.571C305.964 129.936 305.758 130.243 305.488 130.491C305.223 130.734 304.934 130.901 304.621 130.993C304.516 131.023 304.412 131.043 304.308 131.051C304.208 131.064 304.101 131.071 303.988 131.071C303.792 131.071 303.584 131.047 303.362 130.999C303.145 130.951 302.929 130.886 302.716 130.804C302.629 130.764 302.531 130.719 302.423 130.667C302.314 130.61 302.199 130.549 302.077 130.484C301.96 130.419 301.842 130.351 301.725 130.282C301.608 130.212 301.499 130.145 301.399 130.08C301.225 130.241 301.051 130.386 300.877 130.517C300.703 130.647 300.521 130.758 300.329 130.849C300.138 130.941 299.934 131.01 299.716 131.058C299.499 131.11 299.262 131.136 299.005 131.136C298.862 131.136 298.729 131.108 298.608 131.051C298.481 130.999 298.373 130.927 298.281 130.836C298.186 130.745 298.112 130.636 298.06 130.51C298.008 130.384 297.981 130.249 297.981 130.106ZM302.605 128.391C302.74 128.477 302.899 128.562 303.081 128.645C303.268 128.727 303.453 128.801 303.636 128.867C303.818 128.932 303.986 128.986 304.138 129.03C304.295 129.069 304.412 129.088 304.49 129.088C304.508 129.088 304.525 129.088 304.542 129.088C304.564 129.084 304.586 129.08 304.608 129.075C304.66 129.062 304.71 128.997 304.758 128.88C304.81 128.758 304.829 128.593 304.816 128.384C304.816 128.245 304.777 128.093 304.699 127.927C304.621 127.758 304.518 127.601 304.392 127.458C304.266 127.31 304.121 127.188 303.955 127.093C303.795 126.993 303.629 126.943 303.46 126.943C303.399 126.943 303.321 127.03 303.225 127.204C303.129 127.377 302.99 127.636 302.808 127.98V127.973L302.605 128.391Z" fill="#303030"/>
<path d="M248.868 131.733C249.059 131.932 249.376 131.939 249.575 131.747C249.774 131.556 249.781 131.24 249.59 131.04L248.868 131.733ZM244.534 126.492L244.173 126.146C243.988 126.339 243.988 126.645 244.173 126.838L244.534 126.492ZM249.59 121.943C249.781 121.744 249.774 121.428 249.575 121.236C249.376 121.045 249.059 121.052 248.868 121.251L249.59 121.943ZM251.998 130.917C252.189 131.116 252.506 131.123 252.705 130.931C252.904 130.74 252.911 130.424 252.72 130.224L251.998 130.917ZM248.446 126.492L248.086 126.146C247.9 126.339 247.9 126.645 248.086 126.838L248.446 126.492ZM252.72 122.759C252.911 122.56 252.904 122.244 252.705 122.052C252.506 121.861 252.189 121.868 251.998 122.067L252.72 122.759ZM249.59 131.04L244.895 126.146L244.173 126.838L248.868 131.733L249.59 131.04ZM244.895 126.838L249.59 121.943L248.868 121.251L244.173 126.146L244.895 126.838ZM252.72 130.224L248.807 126.146L248.086 126.838L251.998 130.917L252.72 130.224ZM248.807 126.838L252.72 122.759L251.998 122.067L248.086 126.146L248.807 126.838Z" fill="url(#paint2_linear_1325_9262)"/>
<defs>
<linearGradient id="paint0_linear_1325_9262" x1="124.64" y1="38.1824" x2="124.64" y2="93.1418" gradientUnits="userSpaceOnUse">
<stop stop-color="#A5C9F0"/>
<stop offset="1" stop-color="#41D668"/>
</linearGradient>
<linearGradient id="paint1_linear_1325_9262" x1="41.7441" y1="72.8073" x2="41.7441" y2="149.888" gradientUnits="userSpaceOnUse">
<stop stop-color="#C8C8C8"/>
<stop offset="1" stop-color="#9B9B9B"/>
</linearGradient>
<linearGradient id="paint2_linear_1325_9262" x1="248.446" y1="121.597" x2="248.446" y2="131.387" gradientUnits="userSpaceOnUse">
<stop stop-color="#4C8CED"/>
<stop offset="1" stop-color="#38D165"/>
</linearGradient>
</defs>
</svg>
