<svg width="60" height="61" viewBox="0 0 60 61" fill="none" xmlns="http://www.w3.org/2000/svg">
<path d="M7.25293 4.60547V20.1711L14.3197 15.9596V4.60547H7.25293Z" fill="#FF7E7E"/>
<path d="M14.3186 4.60693V15.9628L7.25098 20.1716V12.3893C9.69509 11.8599 12.0495 8.17164 12.0495 5.32164C12.0495 5.0834 12.0318 4.84517 12.0054 4.60693H14.3186Z" fill="#EF3D3D"/>
<path d="M52.1488 19.1247V52.8985H7.85645V19.1247L30.007 5.55762L52.1488 19.1247Z" fill="#FBC41A"/>
<path d="M52.1447 19.1216V52.898H7.85938V47.4006C42.8462 42.9523 46.9388 16.4833 46.9388 16.4833L47.0447 15.998L52.1447 19.1216Z" fill="#F59F02"/>
<path d="M55.3758 23.9627C54.8668 23.9627 54.3515 23.8269 53.8853 23.5412L30.0068 8.90983L6.11808 23.5412C4.77179 24.3673 3.01291 23.9427 2.18808 22.5968C1.36326 21.2505 1.78617 19.4912 3.13246 18.6668L28.5145 3.12098C29.4314 2.55945 30.5846 2.56042 31.5006 3.12098L56.8718 18.6669C58.2176 19.4917 58.6405 21.2515 57.8157 22.5973C57.2766 23.4775 56.3374 23.9627 55.3758 23.9627Z" fill="#FF7E7E"/>
<path d="M35.7333 37.0419V52.8978H24.2627V37.0419C24.2627 33.8743 26.8392 31.3066 29.998 31.3066H30.0068C33.1656 31.3066 35.7333 33.8743 35.7333 37.0419Z" fill="#DEE1E6"/>
<path d="M35.7333 37.0421V52.898H24.2627V50.8157H25.9921C29.3892 50.8157 32.1421 48.0627 32.1421 44.6657V34.9598C32.1421 33.601 31.6745 32.3569 30.8892 31.3774C33.6333 31.801 35.7333 34.1745 35.7333 37.0421Z" fill="#C7CBD1"/>
<path d="M48.1306 28.1278V41.4037H40.1895V28.1278C40.1895 25.9361 41.9683 24.1572 44.16 24.1572C45.2559 24.1572 46.2565 24.6019 46.9712 25.3166C47.6859 26.0393 48.1306 27.0319 48.1306 28.1278Z" fill="#4DABF4"/>
<path d="M48.1306 28.1302V41.4008H40.1895V39.3979C42.8012 39.2832 44.8747 37.1302 44.8747 34.5008V26.1361C44.8747 25.4126 44.6806 24.7508 44.3453 24.1685C45.3689 24.2126 46.3042 24.6449 46.9747 25.3155C47.6895 26.039 48.1306 27.0273 48.1306 28.1302Z" fill="#1D7BD5"/>
<path d="M19.8113 28.1278V41.4037H11.8701V28.1278C11.8701 25.9361 13.6489 24.1572 15.8407 24.1572C16.9366 24.1572 17.9372 24.6019 18.6519 25.3166C19.3666 26.0393 19.8113 27.0319 19.8113 28.1278Z" fill="#4DABF4"/>
<path d="M19.8113 28.1302V41.4008H11.8701V39.3979C14.4819 39.2832 16.5554 37.1302 16.5554 34.5008V26.1361C16.5554 25.4126 16.3613 24.7508 16.026 24.1685C17.0495 24.2126 17.9848 24.6449 18.6554 25.3155C19.3701 26.039 19.8113 27.0273 19.8113 28.1302Z" fill="#1D7BD5"/>
<path d="M34.8514 20.1713C34.8514 22.8501 32.687 25.0242 29.9984 25.0242C27.3196 25.0242 25.1455 22.8501 25.1455 20.1713C25.1455 17.4828 27.3196 15.3184 29.9984 15.3184C32.687 15.3184 34.8514 17.4828 34.8514 20.1713Z" fill="white"/>
<path d="M34.8512 20.1716C34.8512 22.8539 32.6895 25.0245 29.9983 25.0245C27.5189 25.0245 25.4806 23.1716 25.1895 20.7716C25.86 21.1333 26.6365 21.3363 27.4483 21.3363C30.1395 21.3363 32.3012 19.1569 32.3012 16.4833C32.3012 16.2804 32.2925 16.0686 32.2571 15.8745C33.8012 16.6775 34.8512 18.301 34.8512 20.1716Z" fill="#DEE1E6"/>
<path d="M1.76758 53.7803V57.4062C1.76758 57.8935 2.16261 58.2885 2.64993 58.2885H57.3558C57.8431 58.2885 58.2382 57.8935 58.2382 57.4062V53.7803C58.2382 53.293 57.8431 52.8979 57.3558 52.8979H2.64993C2.1627 52.8979 1.76758 53.293 1.76758 53.7803Z" fill="#DEE1E6"/>
<path d="M40.1912 42.286H48.1324C48.6177 42.286 49.0148 41.889 49.0148 41.4037V28.1243C49.0148 25.4761 46.8781 23.2713 44.1618 23.2713C41.4795 23.2713 39.3089 25.4507 39.3089 28.1243V41.4037C39.3089 41.889 39.7059 42.286 40.1912 42.286ZM41.0736 28.1243C41.0736 26.4213 42.4589 25.036 44.1618 25.036C45.9031 25.036 47.2501 26.458 47.2501 28.1243V40.5213H41.0736V28.1243ZM11.8677 42.286H19.8089C20.303 42.286 20.6912 41.889 20.6912 41.4037V28.1243C20.6912 25.4863 18.5838 23.2713 15.8383 23.2713C13.1648 23.2713 10.9854 25.4507 10.9854 28.1243V41.4037C10.9854 41.889 11.3824 42.286 11.8677 42.286ZM12.7501 28.1243C12.7501 26.4213 14.1353 25.036 15.8383 25.036C17.5439 25.036 18.9265 26.4046 18.9265 28.1243V40.5213H12.7501V28.1243ZM40.189 46.25H48.1302C48.6174 46.25 49.0126 45.8549 49.0126 45.3676C49.0126 44.8804 48.6174 44.4853 48.1302 44.4853H40.189C39.7018 44.4853 39.3067 44.8804 39.3067 45.3676C39.3067 45.8549 39.7018 46.25 40.189 46.25ZM19.8118 44.4853H11.8706C11.3834 44.4853 10.9883 44.8804 10.9883 45.3676C10.9883 45.8549 11.3834 46.25 11.8706 46.25H19.8118C20.299 46.25 20.6941 45.8549 20.6941 45.3676C20.6941 44.8804 20.299 44.4853 19.8118 44.4853ZM30.0001 25.9096C33.1589 25.9096 35.7354 23.3331 35.7354 20.1743C35.7354 17.0066 33.1589 14.439 30.0001 14.439C26.8324 14.439 24.2648 17.0066 24.2648 20.1743C24.2648 23.3331 26.8324 25.9096 30.0001 25.9096ZM30.0001 16.2037C32.1883 16.2037 33.9706 17.986 33.9706 20.1743C33.9706 22.3625 32.1883 24.1448 30.0001 24.1448C27.8118 24.1448 26.0295 22.3625 26.0295 20.1743C26.0295 17.986 27.8118 16.2037 30.0001 16.2037Z" fill="black"/>
<path d="M57.3534 52.0183H53.0299V24.0477L53.4269 24.2948C55.1122 25.3272 57.4416 24.8948 58.571 23.0595C59.6299 21.3124 59.1093 19.0095 57.3358 17.9154L31.9593 2.36833C30.7858 1.6448 29.2328 1.6448 28.0505 2.36833L15.2034 10.2389V5.48762H15.6814C16.1686 5.48762 16.5637 5.09251 16.5637 4.60527C16.5637 4.11804 16.1686 3.72292 15.6814 3.72292H5.89228C5.40505 3.72292 5.00993 4.11804 5.00993 4.60527C5.00993 5.09251 5.40505 5.48762 5.89228 5.48762H6.37105V15.6477L2.67399 17.9154C0.873989 19.0095 0.379871 21.3124 1.43869 23.0595C2.56811 24.8948 4.89752 25.3271 6.58281 24.2948L6.97105 24.0566V52.0182H2.64752C1.67693 52.0182 0.882812 52.8035 0.882812 53.783V57.4094C0.882812 58.38 1.67693 59.1741 2.64752 59.1741H57.3534C58.3328 59.1741 59.1181 58.38 59.1181 57.4094V53.783C59.1181 52.8036 58.3328 52.0183 57.3534 52.0183ZM8.13575 5.49186H13.4387V11.3242L8.13575 14.5714V5.49186ZM5.65634 22.786C4.74752 23.3418 3.49458 23.033 2.93869 22.1329C2.41811 21.2682 2.6034 20.0329 3.59164 19.4153C12.2202 14.1363 28.8345 3.96415 28.9769 3.87707C29.2858 3.68295 29.6475 3.58589 30.0093 3.58589C30.371 3.58589 30.7328 3.68295 31.0416 3.87707L56.4093 19.4153C57.3799 20.0241 57.6181 21.2506 57.0622 22.1329C56.5152 23.0329 55.2534 23.3418 54.3446 22.786C48.9887 19.5036 36.2476 11.6948 30.0093 7.87421C-4.68501 29.1135 47.8265 -3.02964 5.65634 22.786ZM8.73575 22.9801L30.0093 9.94774L51.2652 22.9713V52.0183H36.6181V37.0448C36.6181 33.3919 33.6534 30.4272 30.0005 30.4272C26.3475 30.4272 23.3828 33.3919 23.3828 37.0448V52.0183H8.73575V22.9801ZM34.8534 52.0183H25.1475V37.0448C25.1475 34.3624 27.3269 32.1919 30.0093 32.1919C32.674 32.1919 34.8534 34.3624 34.8534 37.0448V52.0183ZM57.3534 57.4095H2.64752V53.783C20.058 53.783 41.2697 53.783 57.3534 53.783V57.4095Z" fill="black"/>
</svg>
