<svg width="56" height="60" viewBox="0 0 56 60" fill="none" xmlns="http://www.w3.org/2000/svg">
<path d="M54.2155 48.9832V54.5632C54.2155 55.6568 53.7899 56.7056 53.0323 57.4789C52.2747 58.2521 51.2473 58.6866 50.1759 58.6866H5.81615C4.74657 58.6842 3.72155 58.249 2.96589 57.4764C2.21023 56.7037 1.78561 55.6567 1.78516 54.565V48.9832L2.08838 45.7884C2.09637 45.6952 2.10665 45.6025 2.11922 45.5104C2.62288 41.3696 5.65169 38.0087 9.62272 37.0102L19.4972 35.1688L27.996 22.0889L36.5959 35.0727L46.3779 37.0119C50.3489 38.0104 53.3777 41.3713 53.8814 45.5122C53.894 45.6054 53.9042 45.6981 53.9122 45.7902L54.2155 48.9832Z" fill="#FF6666"/>
<path d="M20.4043 33.7542L27.9883 22.0889L35.6649 33.6772L27.9883 40.6316L20.4043 33.7542Z" fill="#FFCD85"/>
<path d="M27.9976 22.0889L26.3889 24.565L30.975 31.4967C31.376 32.1021 31.5478 32.8357 31.4583 33.5608C31.3688 34.2859 31.0241 34.9531 30.4885 35.4381L26.377 39.1663L28.001 40.6386L35.6758 33.6842L27.9976 22.0889Z" fill="#FFC166"/>
<path d="M34.1634 45.2604L40.0325 36.3038C40.1562 36.1154 40.2034 35.8854 40.164 35.6623C40.1247 35.4391 40.002 35.2403 39.8218 35.1077L37.2144 33.1929C37.0565 33.0769 36.8646 33.0193 36.6703 33.0295C36.476 33.0396 36.2909 33.117 36.1454 33.2489L27.9961 40.6317L32.8545 45.4038C32.9448 45.493 33.0531 45.5609 33.1719 45.6026C33.2907 45.6442 33.417 45.6588 33.5419 45.6451C33.6667 45.6314 33.7872 45.5898 33.8946 45.5234C34.002 45.4569 34.0937 45.3671 34.1634 45.2604Z" fill="#FF4E4E"/>
<path d="M21.8462 45.2604L15.9771 36.3038C15.8534 36.1154 15.8062 35.8854 15.8456 35.6623C15.8849 35.4391 16.0076 35.2403 16.1878 35.1077L18.7934 33.1929C18.9514 33.0769 19.1433 33.0193 19.3376 33.0295C19.5319 33.0396 19.717 33.117 19.8624 33.2489L28.0118 40.6317L23.1516 45.4038C23.0614 45.4924 22.9533 45.5597 22.8349 45.601C22.7165 45.6423 22.5906 45.6567 22.4662 45.643C22.3417 45.6293 22.2217 45.588 22.1146 45.5219C22.0075 45.4558 21.9159 45.3665 21.8462 45.2604Z" fill="#FF4E4E"/>
<path d="M34.1722 13.4049L17.6953 17.3482V5.57445C17.6953 3.39737 19.5421 1.06641 21.8171 1.06641H37.6207C37.7091 1.06641 37.7967 1.08418 37.8784 1.11872C37.96 1.15326 38.0343 1.20388 38.0968 1.26769C38.1593 1.33151 38.2089 1.40726 38.2427 1.49064C38.2766 1.57402 38.294 1.66338 38.294 1.75363V9.46347C38.294 11.6388 36.4472 13.4049 34.1722 13.4049Z" fill="#676E87"/>
<path d="M37.6207 1.07031H33.881C33.9693 1.07031 34.0568 1.0881 34.1383 1.12266C34.2199 1.15722 34.294 1.20786 34.3564 1.2717C34.4188 1.33554 34.4682 1.41131 34.5019 1.49468C34.5355 1.57805 34.5527 1.66737 34.5525 1.75753V9.46388C34.5525 11.6427 32.7075 13.4089 30.441 13.4089L17.6953 16.4585V17.3538L34.1722 13.4106C36.4472 13.4106 38.294 11.6445 38.294 9.46563V1.75404C38.2931 1.57238 38.2217 1.39848 38.0956 1.27036C37.9694 1.14223 37.7987 1.07031 37.6207 1.07031Z" fill="#595F74"/>
<path d="M19.4084 11.3438H36.5808C37.0352 11.3438 37.4709 11.528 37.7922 11.8559C38.1135 12.1839 38.294 12.6286 38.294 13.0924V22.7538C38.294 25.3458 37.2852 27.8316 35.4896 29.6645C33.694 31.4973 31.2587 32.527 28.7193 32.527H27.27C24.7306 32.527 22.2953 31.4973 20.4997 29.6645C18.7041 27.8316 17.6953 25.3458 17.6953 22.7538V13.0924C17.6953 12.6286 17.8758 12.1839 18.1971 11.8559C18.5183 11.528 18.9541 11.3438 19.4084 11.3438Z" fill="#FFCD85"/>
<path d="M36.5747 11.3438H32.3655C32.8199 11.3438 33.2556 11.528 33.5769 11.8559C33.8982 12.1839 34.0787 12.6286 34.0787 13.0924V22.7538C34.0784 25.1014 33.2503 27.3705 31.7457 29.1462C30.2411 30.9218 28.1607 32.0853 25.8848 32.4238C26.3414 32.4919 26.8023 32.5264 27.2638 32.527H28.7131C31.2525 32.527 33.6879 31.4973 35.4835 29.6645C37.2791 27.8316 38.2878 25.3458 38.2878 22.7538V13.0924C38.2878 12.6286 38.1073 12.1839 37.7861 11.8559C37.4648 11.528 37.029 11.3438 36.5747 11.3438Z" fill="#FFC166"/>
<path d="M55.4931 48.8593L55.1899 45.661C55.1796 45.5561 55.1694 45.4529 55.1557 45.348C54.5938 40.7298 51.1898 36.867 46.686 35.7304L46.6226 35.7164L40.9024 34.5832C40.8016 34.4757 40.6902 34.3791 40.5701 34.2947L37.9644 32.3712C37.7042 32.179 37.4048 32.0493 37.0886 31.9918C36.7723 31.9343 36.4475 31.9504 36.1382 32.0389L35.7408 31.4391C36.9437 30.4008 37.9104 29.1073 38.5735 27.6486C39.2365 26.1899 39.58 24.6012 39.5799 22.9931V13.337C39.579 12.7819 39.4291 12.2375 39.1465 11.7632C39.4313 11.1166 39.579 10.4158 39.5799 9.70681V1.99872C39.579 1.46891 39.3724 0.961064 39.0054 0.586432C38.6384 0.2118 38.1408 0.000924625 37.6218 0H21.8182C18.7243 0 16.4115 3.07239 16.4115 5.81954V22.9949C16.4115 24.621 16.7625 26.2271 17.4397 27.699C18.1168 29.1709 19.1035 30.4724 20.3295 31.5108L19.9629 32.0722C19.6412 31.9616 19.2984 31.9311 18.9629 31.9831C18.6274 32.0351 18.3089 32.1682 18.0339 32.3712L15.4299 34.2947C15.283 34.4026 15.1506 34.5296 15.0359 34.6724L9.38257 35.7304L9.3072 35.7461C4.80338 36.8775 1.39939 40.7403 0.837487 45.3637C0.823782 45.4686 0.813502 45.5718 0.803223 45.6767L0.5 48.8715V54.5792C0.504973 56.0162 1.06679 57.3929 2.06278 58.4085C3.05876 59.4242 4.40799 59.9963 5.81584 60H50.1756C51.587 59.9986 52.9402 59.4258 53.9384 58.4073C54.9366 57.3887 55.4982 56.0076 55.5 54.5669V48.9834C55.5 48.9432 55.4966 48.9013 55.4931 48.8593ZM36.7412 34.7074L38.7319 36.1693L33.3767 44.3408L29.8887 40.9151L36.7412 34.7074ZM28.0043 39.1193L22.0083 33.6844L22.4914 32.9412C23.983 33.693 25.6247 34.0826 27.2882 34.0796H28.7375C30.4265 34.0788 32.0918 33.6733 33.5994 32.8958L34.0773 33.6162L28.0043 39.1193ZM18.9812 5.81954C18.9812 4.37165 20.2472 2.62299 21.8182 2.62299H37.0102V9.70506C37.01 9.90571 36.9847 10.1055 36.9348 10.2996C36.8177 10.285 36.6999 10.2774 36.5819 10.2769H19.4095C19.2661 10.2779 19.123 10.2896 18.9812 10.3118V5.81954ZM18.9812 22.9949V13.337C18.9812 13.2211 19.0264 13.1099 19.1067 13.0279C19.187 12.9459 19.2959 12.8999 19.4095 12.8999H36.5819C36.6955 12.8999 36.8044 12.9459 36.8848 13.0279C36.9651 13.1099 37.0102 13.2211 37.0102 13.337V22.9949C37.0075 25.2382 36.1332 27.3889 34.5792 28.9752C33.0251 30.5615 30.9181 31.4539 28.7204 31.4566H27.2711C25.0733 31.4539 22.9663 30.5615 21.4123 28.9752C19.8582 27.3889 18.984 25.2382 18.9812 22.9949ZM19.257 34.7109L19.3033 34.7511C19.3859 34.8553 19.4835 34.9461 19.5928 35.0204L19.6117 35.0309L26.1113 40.9151L22.6216 44.3408L17.2664 36.1693L19.257 34.7109ZM52.9303 54.5669C52.9289 55.3121 52.6382 56.0263 52.1219 56.553C51.6055 57.0798 50.9056 57.3761 50.1756 57.377H46.3262V52.2587C46.3262 51.9109 46.1908 51.5773 45.9499 51.3313C45.7089 51.0854 45.3821 50.9472 45.0414 50.9472C44.7006 50.9472 44.3738 51.0854 44.1328 51.3313C43.8919 51.5773 43.7565 51.9109 43.7565 52.2587V57.377H12.2349V52.2587C12.2349 51.9109 12.0996 51.5773 11.8586 51.3313C11.6177 51.0854 11.2908 50.9472 10.9501 50.9472C10.6093 50.9472 10.2825 51.0854 10.0416 51.3313C9.80061 51.5773 9.66524 51.9109 9.66524 52.2587V57.377H5.81584C5.08582 57.3761 4.38593 57.0798 3.86957 56.553C3.35321 56.0263 3.06249 55.3121 3.06113 54.5669V49.0481L3.35921 45.918C3.35921 45.8376 3.37463 45.7554 3.38491 45.675C3.8149 42.1409 6.42571 39.1805 9.88452 38.2956L14.9468 37.3479L20.7715 46.2346C20.9454 46.4989 21.1738 46.7212 21.4408 46.8859C21.7079 47.0506 22.0069 47.1536 22.3171 47.1878C22.6273 47.222 22.941 47.1864 23.2363 47.0837C23.5316 46.9809 23.8013 46.8134 24.0264 46.593L27.9957 42.7005L31.9599 46.593C32.358 46.9857 32.8899 47.2051 33.4435 47.2051C33.5208 47.2048 33.598 47.2001 33.6747 47.1911C33.9861 47.1577 34.2865 47.0547 34.5545 46.8893C34.8224 46.724 35.0514 46.5005 35.2251 46.2346L41.0806 37.2989L46.0984 38.2939C49.5606 39.177 52.1731 42.1409 52.6082 45.675C52.6185 45.7554 52.6271 45.8376 52.6339 45.918L52.932 49.0481L52.9303 54.5669ZM27.9957 46.1506C27.7416 46.1506 27.4932 46.2275 27.2819 46.3716C27.0706 46.5158 26.9059 46.7206 26.8087 46.9602C26.7114 47.1999 26.686 47.4636 26.7356 47.718C26.7851 47.9724 26.9075 48.2061 27.0872 48.3895C27.2669 48.5729 27.4958 48.6978 27.7451 48.7484C27.9943 48.799 28.2526 48.773 28.4874 48.6738C28.7222 48.5745 28.9228 48.4064 29.064 48.1907C29.2052 47.9751 29.2806 47.7215 29.2806 47.4621C29.2806 47.1143 29.1452 46.7807 28.9042 46.5347C28.6633 46.2888 28.3365 46.1506 27.9957 46.1506ZM24.4684 24.761C24.2808 25.0513 24.2138 25.4059 24.2822 25.7466C24.3507 26.0873 24.5489 26.3863 24.8333 26.5779C25.744 27.1932 26.8078 27.5305 27.8998 27.5501H27.9957C29.1239 27.5461 30.2267 27.2078 31.1701 26.5761C31.4509 26.383 31.6456 26.0845 31.712 25.7456C31.7783 25.4068 31.7109 25.0548 31.5245 24.7664C31.338 24.4779 31.0476 24.2762 30.7163 24.2051C30.3849 24.1341 30.0395 24.1994 29.7551 24.3868C29.235 24.7396 28.6245 24.9278 28 24.9278C27.3755 24.9278 26.765 24.7396 26.2449 24.3868C25.9605 24.1966 25.6139 24.1291 25.2809 24.1993C24.9479 24.2694 24.6557 24.4714 24.4684 24.761ZM23.5073 18.9432C23.8481 18.9432 24.1749 18.8051 24.4158 18.5591C24.6568 18.3131 24.7922 17.9796 24.7922 17.6317V16.301C24.7922 15.9532 24.6568 15.6196 24.4158 15.3736C24.1749 15.1277 23.8481 14.9895 23.5073 14.9895C23.1666 14.9895 22.8398 15.1277 22.5988 15.3736C22.3578 15.6196 22.2225 15.9532 22.2225 16.301V17.6317C22.2225 17.9796 22.3578 18.3131 22.5988 18.5591C22.8398 18.8051 23.1666 18.9432 23.5073 18.9432ZM32.4841 18.9432C32.8249 18.9432 33.1517 18.8051 33.3926 18.5591C33.6336 18.3131 33.769 17.9796 33.769 17.6317V16.301C33.769 15.9532 33.6336 15.6196 33.3926 15.3736C33.1517 15.1277 32.8249 14.9895 32.4841 14.9895C32.1434 14.9895 31.8165 15.1277 31.5756 15.3736C31.3346 15.6196 31.1993 15.9532 31.1993 16.301V17.6317C31.1993 17.9796 31.3346 18.3131 31.5756 18.5591C31.8165 18.8051 32.1434 18.9432 32.4841 18.9432ZM27.9957 52.2587C27.7416 52.2587 27.4932 52.3356 27.2819 52.4797C27.0706 52.6238 26.9059 52.8286 26.8087 53.0683C26.7114 53.3079 26.686 53.5716 26.7356 53.826C26.7851 54.0804 26.9075 54.3141 27.0872 54.4975C27.2669 54.681 27.4958 54.8059 27.7451 54.8565C27.9943 54.9071 28.2526 54.8811 28.4874 54.7818C28.7222 54.6826 28.9228 54.5145 29.064 54.2988C29.2052 54.0831 29.2806 53.8296 29.2806 53.5702C29.2806 53.2223 29.1452 52.8888 28.9042 52.6428C28.6633 52.3969 28.3365 52.2587 27.9957 52.2587Z" fill="#272A33"/>
</svg>
