<svg width="25" height="25" viewBox="0 0 25 25" fill="none" xmlns="http://www.w3.org/2000/svg">
<path d="M6.09822 18.2183C5.85565 18.2183 5.62301 18.3157 5.45148 18.4891C5.27996 18.6626 5.18359 18.8978 5.18359 19.1431C5.18359 19.3884 5.27996 19.6236 5.45148 19.797C5.62301 19.9705 5.85565 20.0679 6.09822 20.0679H18.903C19.1456 20.0679 19.3783 19.9705 19.5498 19.797C19.7213 19.6236 19.8177 19.3884 19.8177 19.1431C19.8177 18.8978 19.7213 18.6626 19.5498 18.4891C19.3783 18.3157 19.1456 18.2183 18.903 18.2183H6.09822Z" fill="#636363"/>
<path fill-rule="evenodd" clip-rule="evenodd" d="M12.5001 0C11.6818 0 10.9598 0.272517 10.2086 0.707803C9.48909 1.12336 8.66959 1.73498 7.66105 2.48594L3.17693 5.82766C1.88425 6.78948 0.984255 7.45783 0.491574 8.44555C-0.00110653 9.43203 -0.00110665 10.5616 0.000112854 12.1856V16.7444C0.000112854 18.43 0.000112839 19.7901 0.142795 20.8592C0.289136 21.969 0.606208 22.9037 1.33913 23.646C2.07327 24.3884 2.99766 24.7065 4.09522 24.857C5.15253 25 6.49764 25 8.16471 25H16.8354C18.5025 25 19.8476 25 20.9049 24.857C22.0025 24.7065 22.9268 24.3884 23.661 23.646C24.3951 22.9037 24.7098 21.969 24.8585 20.8592C25 19.7901 25 18.43 25 16.7444V12.1856C25 10.5616 25.0012 9.43203 24.5085 8.44555C24.0159 7.45906 23.1159 6.78948 21.822 5.82643L17.3391 2.48594C16.3305 1.73375 15.5098 1.12336 14.7903 0.707803C14.0403 0.272517 13.3183 0 12.5001 0ZM8.70251 4.0076C9.76592 3.21594 10.5013 2.66968 11.1171 2.31207C11.7147 1.9668 12.1171 1.84966 12.5001 1.84966C12.8842 1.84966 13.2866 1.96804 13.8818 2.31207C14.4988 2.66968 15.2354 3.21594 16.2976 4.0076L20.5659 7.18901C22.1012 8.3321 22.6037 8.73533 22.8756 9.27913C23.1476 9.82293 23.1707 10.4715 23.1707 12.3989V16.6765C23.1707 18.446 23.1683 19.6804 23.0451 20.6126C22.9244 21.5177 22.7037 21.9962 22.3671 22.3377C22.0293 22.6793 21.5561 22.9013 20.6598 23.0233C19.739 23.1479 18.5183 23.1503 16.7683 23.1503H8.23178C6.48179 23.1503 5.25984 23.1479 4.33912 23.0233C3.444 22.9013 2.97083 22.6781 2.63303 22.3377C2.29522 21.9962 2.07571 21.5177 1.95498 20.6114C1.83181 19.6804 1.82937 18.446 1.82937 16.6765V12.4001C1.82937 10.4715 1.85254 9.82293 2.12449 9.28036C2.39644 8.73533 2.89888 8.33087 4.43424 7.18778L8.70251 4.0076Z" fill="#636363"/>
</svg>
