<svg width="50" height="55" viewBox="0 0 50 55" fill="none" xmlns="http://www.w3.org/2000/svg">
<path opacity="0.5" fill-rule="evenodd" clip-rule="evenodd" d="M37.8051 42.2475C33.0176 45.8274 27.0518 47.4611 21.1083 46.8198C15.1648 46.1784 9.68483 43.3096 5.77127 38.7907C1.8577 34.2718 -0.198964 28.4382 0.0151909 22.4641C0.229345 16.4899 2.69842 10.8186 6.9255 6.59152C11.1526 2.36444 16.8239 -0.104639 22.7981 -0.318793C28.7722 -0.532948 34.6058 1.52371 39.1247 5.43728C43.6436 9.35085 46.5124 14.8308 47.1537 20.7743C47.7951 26.7178 46.1614 32.6836 42.5814 37.4711L60.0518 54.9415C60.6671 55.5786 61.0076 56.4318 60.9999 57.3175C60.9922 58.2032 60.6369 59.0504 60.0106 59.6767C59.3844 60.3029 58.5371 60.6582 57.6515 60.6659C56.7658 60.6736 55.9126 60.3331 55.2755 59.7178L37.8051 42.2475ZM40.5345 23.3111C40.5345 27.7904 38.755 32.0863 35.5877 35.2537C32.4203 38.4211 28.1244 40.2005 23.6451 40.2005C19.1658 40.2005 14.8699 38.4211 11.7025 35.2537C8.53515 32.0863 6.75574 27.7904 6.75574 23.3111C6.75574 18.8318 8.53515 14.5359 11.7025 11.3685C14.8699 8.20116 19.1658 6.42175 23.6451 6.42175C28.1244 6.42175 32.4203 8.20116 35.5877 11.3685C38.755 14.5359 40.5345 18.8318 40.5345 23.3111Z" fill="url(#paint0_linear_6003_2277)"/>
<defs>
<linearGradient id="paint0_linear_6003_2277" x1="12.4773" y1="-0.333985" x2="30.5" y2="60.666" gradientUnits="userSpaceOnUse">
<stop stop-color="#429F56"/>
<stop offset="1" stop-color="#636363"/>
</linearGradient>
</defs>
</svg>
