<svg width="288" height="240" viewBox="0 0 288 240" fill="none" xmlns="http://www.w3.org/2000/svg">
<g filter="url(#filter0_d_1372_5066)">
<path d="M261.218 15.5455L140.355 0.181668C131.275 -0.971258 122.5 3.43979 116.242 11.2427C112.014 16.594 109.348 23.0101 108.538 29.7819L89.5144 179.414L214.167 195.259L233.187 45.6299C234.002 38.8562 236.673 32.4393 240.904 27.0875C247.166 19.2877 255.937 14.8735 265.017 16.0296L261.218 15.5455Z" fill="url(#paint0_linear_1372_5066)"/>
<g style="mix-blend-mode:multiply">
<path d="M201.626 140.771L196.935 146.762L175.102 144.004L172.032 168.158L196.186 171.228L198.865 150.144L204.467 142.994L201.626 140.771ZM194.106 168.528L174.72 166.062L177.185 146.679L195.205 148.969L188.109 158.017L184.01 152.536L181.122 154.696L188.036 163.957L195.963 153.839L194.106 168.528Z" fill="url(#paint1_linear_1372_5066)"/>
<path d="M118.287 90.2126L117.908 93.1952L207.77 104.611L208.149 101.629L118.287 90.2126Z" fill="url(#paint2_linear_1372_5066)"/>
<path d="M116.842 101.591L116.463 104.574L206.325 115.99L206.704 113.007L116.842 101.591Z" fill="url(#paint3_linear_1372_5066)"/>
<path d="M122.325 58.453L121.188 67.4007L211.05 78.8166L212.187 69.869L122.325 58.453Z" fill="url(#paint4_linear_1372_5066)"/>
<path d="M110.602 148.386L151.757 153.619L155.712 122.506L114.557 117.276L110.602 148.386ZM115.599 118.62L154.365 123.547L150.715 152.284L111.949 147.348L115.599 118.62Z" fill="url(#paint5_linear_1372_5066)"/>
<path d="M148.828 28.4297C149.072 28.6341 149.36 28.8442 149.693 29.0599C150.032 29.2763 150.379 29.481 150.734 29.6737C151.096 29.861 151.448 30.0213 151.791 30.1547C152.134 30.2881 152.436 30.3713 152.695 30.4041C152.79 30.4161 152.914 30.4286 153.066 30.4415C153.22 30.4481 153.38 30.4491 153.548 30.4446C153.723 30.4346 153.898 30.4183 154.075 30.3956C154.252 30.3667 154.415 30.323 154.564 30.2647C154.719 30.2072 154.847 30.1335 154.948 30.0435C155.051 29.9471 155.114 29.8266 155.139 29.6819C155.176 29.436 155.136 29.148 155.017 28.818C154.904 28.4888 154.736 28.1397 154.513 27.7708C154.297 27.3963 154.037 27.0163 153.732 26.6306C153.434 26.2394 153.122 25.8624 152.795 25.4996C152.469 25.1305 152.14 24.7867 151.807 24.4682C151.476 24.1434 151.167 23.8633 150.882 23.628L152.878 21.3449C153.437 21.8528 153.983 22.4105 154.517 23.018C155.057 23.6263 155.545 24.2634 155.982 24.9293C156.419 25.5888 156.784 26.2617 157.076 26.9479C157.368 27.6342 157.556 28.3072 157.64 28.9669C157.667 29.1568 157.678 29.3478 157.673 29.54C157.669 29.7259 157.656 29.9042 157.634 30.0751C157.56 30.6634 157.378 31.1899 157.087 31.6545C156.798 32.1128 156.425 32.4962 155.968 32.8047C155.518 33.1077 154.996 33.3212 154.402 33.4453C153.808 33.5693 153.169 33.588 152.486 33.5015C152.435 33.4951 152.385 33.4856 152.335 33.4728C152.285 33.4664 152.234 33.46 152.183 33.4536C151.747 33.3983 151.304 33.294 150.854 33.1406C150.41 32.9944 149.973 32.8169 149.543 32.6082C149.119 32.4003 148.708 32.1683 148.31 31.9122C147.918 31.6569 147.556 31.3957 147.223 31.1286L148.828 28.4297ZM158.669 34.2073C158.766 33.6925 158.866 33.1588 158.968 32.6061C159.07 32.0534 159.165 31.5062 159.253 30.9645C159.347 30.4237 159.43 29.8974 159.501 29.3858C159.572 28.8742 159.626 28.4021 159.661 27.9695C159.737 27.0663 159.799 26.2739 159.846 25.5922C159.901 24.9049 159.943 24.2964 159.971 23.7665C160.006 23.2374 160.03 22.7743 160.041 22.3773C160.06 21.9747 160.071 21.6066 160.075 21.2728C160.079 20.939 160.077 20.627 160.068 20.3367C160.061 20.0401 160.051 19.7336 160.04 19.4172L163.095 18.8205C163.127 19.6859 163.129 20.5539 163.103 21.4247C163.082 22.2963 163.044 23.1303 162.988 23.9267C162.933 24.7168 162.869 25.4511 162.796 26.1296C162.729 26.8089 162.666 27.389 162.605 27.8698C162.549 28.3063 162.487 28.7772 162.416 29.2825C162.352 29.7886 162.279 30.3129 162.198 30.8553C162.123 31.3986 162.04 31.9474 161.951 32.5017C161.861 33.056 161.764 33.5965 161.659 34.1231L158.669 34.2073ZM164.622 30.4295C164.866 30.6339 165.154 30.844 165.487 31.0597C165.826 31.2761 166.173 31.4808 166.528 31.6735C166.889 31.8608 167.242 32.0211 167.585 32.1545C167.928 32.288 168.229 32.3711 168.489 32.4039C168.584 32.4159 168.707 32.4284 168.86 32.4413C169.013 32.4479 169.174 32.4489 169.342 32.4444C169.517 32.4344 169.692 32.4181 169.869 32.3955C170.046 32.3665 170.209 32.3228 170.358 32.2645C170.513 32.207 170.641 32.1333 170.742 32.0433C170.844 31.947 170.908 31.8264 170.933 31.6817C170.97 31.4358 170.93 31.1478 170.811 30.8178C170.698 30.4886 170.53 30.1395 170.307 29.7706C170.091 29.3961 169.83 29.0161 169.526 28.6304C169.228 28.2392 168.916 27.8622 168.589 27.4994C168.263 27.1303 167.934 26.7865 167.601 26.468C167.27 26.1432 166.961 25.8631 166.676 25.6278L168.672 23.3447C169.231 23.8526 169.777 24.4103 170.311 25.0178C170.851 25.6261 171.339 26.2632 171.776 26.9291C172.213 27.5887 172.577 28.2615 172.87 28.9478C173.162 29.634 173.35 30.307 173.434 30.9668C173.461 31.1566 173.472 31.3477 173.467 31.5399C173.463 31.7257 173.45 31.9041 173.428 32.0749C173.354 32.6632 173.171 33.1897 172.881 33.6543C172.592 34.1126 172.219 34.496 171.762 34.8045C171.312 35.1075 170.79 35.3211 170.196 35.4451C169.602 35.5691 168.963 35.5879 168.28 35.5013C168.229 35.4949 168.179 35.4854 168.129 35.4726C168.078 35.4662 168.028 35.4598 167.977 35.4534C167.541 35.3981 167.098 35.2938 166.648 35.1404C166.203 34.9942 165.766 34.8167 165.336 34.608C164.913 34.4001 164.502 34.1681 164.104 33.912C163.712 33.6567 163.35 33.3955 163.017 33.1284L164.622 30.4295ZM179.513 29.7503C179.667 30.464 179.791 31.1579 179.886 31.8319C179.925 32.1262 179.964 32.4332 180 32.7528C180.038 33.066 180.065 33.3813 180.083 33.6985C180.108 34.0101 180.12 34.317 180.121 34.6192C180.122 34.915 180.106 35.1894 180.074 35.4425C179.999 36.0372 179.844 36.6056 179.608 37.1478C179.378 37.6972 179.08 38.2187 178.715 38.7125C178.357 39.207 177.945 39.6722 177.478 40.1081C177.011 40.5503 176.503 40.9552 175.955 41.3229C175.407 41.6906 174.829 42.0223 174.219 42.3179C173.609 42.6199 172.984 42.8815 172.346 43.1027L170.923 40.4832C171.407 40.3132 171.902 40.1123 172.407 39.8805C172.904 39.6543 173.386 39.4036 173.852 39.1283C174.324 38.8538 174.766 38.5594 175.178 38.2453C175.597 37.932 175.966 37.6059 176.286 37.2671C176.611 36.9291 176.878 36.5771 177.085 36.2113C177.291 35.8517 177.417 35.4885 177.464 35.1215C177.497 34.8558 177.496 34.5632 177.459 34.2436C177.429 33.9248 177.373 33.5802 177.291 33.2099C177.217 32.8341 177.119 32.4361 176.999 32.0159C176.879 31.5894 176.75 31.136 176.612 30.6557L179.513 29.7503ZM181.262 37.068C181.359 36.5532 181.459 36.0195 181.561 35.4668C181.663 34.9141 181.758 34.3669 181.846 33.8253C181.94 33.2844 182.023 32.7582 182.094 32.2465C182.165 31.7349 182.219 31.2628 182.254 30.8302C182.33 29.9271 182.392 29.1346 182.439 28.4529C182.494 27.7657 182.536 27.1571 182.565 26.6272C182.599 26.0981 182.623 25.6351 182.634 25.238C182.653 24.8355 182.664 24.4673 182.668 24.1335C182.672 23.7997 182.67 23.4877 182.661 23.1974C182.654 22.9008 182.645 22.5943 182.633 22.2779L185.688 21.6813C185.72 22.5466 185.722 23.4147 185.696 24.2855C185.675 25.157 185.637 25.991 185.581 26.7874C185.526 27.5775 185.462 28.3118 185.389 28.9903C185.322 29.6696 185.259 30.2497 185.198 30.7305C185.143 31.167 185.08 31.6379 185.009 32.1432C184.945 32.6493 184.872 33.1736 184.791 33.7161C184.716 34.2593 184.633 34.8081 184.544 35.3624C184.454 35.9167 184.357 36.4572 184.252 36.9838L181.262 37.068ZM192.983 38.5232C192.844 38.5056 192.649 38.4713 192.398 38.4203C192.148 38.3692 191.885 38.2652 191.609 38.1082C191.37 38.875 191.014 39.5851 190.539 40.2385C190.069 40.8989 189.514 41.5004 188.874 42.0427C188.232 42.5914 187.518 43.0795 186.731 43.5069C185.944 43.9343 185.117 44.302 184.248 44.6099L182.816 41.9892C183.294 41.8183 183.778 41.6257 184.268 41.4113C184.757 41.2033 185.226 40.9735 185.676 40.7219C186.131 40.4774 186.557 40.2131 186.953 39.929C187.354 39.652 187.71 39.3564 188.02 39.0421C188.329 38.7278 188.583 38.3968 188.782 38.0491C188.979 37.7077 189.101 37.3504 189.149 36.9771C189.151 36.9582 189.152 36.9293 189.15 36.8905C189.155 36.8526 189.16 36.8146 189.164 36.7767C189.169 36.7387 189.17 36.7098 189.166 36.6901C189.168 36.6711 189.168 36.6742 189.165 36.6995L189.163 36.709C189.166 36.3365 189.147 35.9774 189.107 35.6317C189.067 35.286 189.006 34.9311 188.924 34.5672C188.847 34.204 188.751 33.8222 188.635 33.4218C188.519 33.0151 188.389 32.5711 188.244 32.09L191.138 31.2416C191.295 32.0328 191.452 32.6955 191.609 33.2296C191.767 33.7637 191.931 34.1959 192.101 34.526C192.278 34.8569 192.465 35.0992 192.664 35.2529C192.864 35.4004 193.084 35.4893 193.325 35.5198L193.372 35.5258C193.581 35.5522 193.772 35.6182 193.945 35.7236C194.118 35.8291 194.262 35.9598 194.377 36.1158C194.5 36.2663 194.587 36.4381 194.64 36.6312C194.699 36.825 194.716 37.0232 194.69 37.2256C194.664 37.4344 194.598 37.6253 194.492 37.7984C194.393 37.9722 194.266 38.1168 194.11 38.232C193.96 38.348 193.788 38.4324 193.595 38.4851C193.402 38.5377 193.198 38.5505 192.983 38.5232ZM191.563 36.82C191.589 36.6113 191.655 36.4204 191.761 36.2473C191.86 36.0735 191.988 35.9289 192.144 35.8137C192.294 35.6913 192.469 35.6042 192.668 35.5523C192.861 35.4996 193.062 35.4865 193.271 35.5129C193.505 35.5426 193.793 35.5759 194.136 35.6128C194.485 35.6442 194.858 35.6721 195.253 35.6964C195.649 35.7208 196.051 35.7396 196.461 35.7529C196.877 35.7671 197.272 35.7657 197.647 35.7489C198.029 35.7329 198.373 35.7026 198.681 35.658C198.996 35.6079 199.246 35.5367 199.431 35.4445C198.783 35.4332 198.191 35.3871 197.655 35.3064C197.12 35.2193 196.646 35.1047 196.233 34.9624C195.821 34.8202 195.472 34.6539 195.188 34.4636C194.91 34.2678 194.705 34.0587 194.573 33.8362L194.572 33.8457C194.428 33.609 194.303 33.3007 194.197 32.9209C194.097 32.5419 194.081 32.0867 194.148 31.5553C194.184 31.2706 194.237 31.0073 194.306 30.7654C194.632 29.7139 195.124 28.8731 195.782 28.243L195.772 28.2513C196.171 27.8391 196.6 27.5495 197.058 27.3825C197.517 27.2092 197.984 27.1526 198.458 27.2127C198.939 27.2736 199.399 27.4507 199.837 27.7441C200.276 28.0374 200.66 28.4074 200.989 28.854C201.221 29.1984 201.421 29.5804 201.586 29.9999C201.758 30.4201 201.892 30.8613 201.987 31.3234C202.089 31.7862 202.151 32.2633 202.172 32.7545C202.201 33.2402 202.185 33.7234 202.124 34.2042C202.105 34.3497 202.084 34.4948 202.059 34.6395C202.035 34.7779 202.009 34.9095 201.98 35.0345C201.821 35.6828 201.581 36.2309 201.261 36.6789C200.942 37.1205 200.558 37.4833 200.111 37.7674C199.67 38.0522 199.177 38.2662 198.631 38.4092C198.086 38.5523 197.509 38.6463 196.899 38.6912C196.289 38.7361 195.655 38.7395 194.998 38.7012C194.347 38.6638 193.692 38.6066 193.034 38.5296L192.872 38.5092C192.664 38.4828 192.473 38.4168 192.3 38.3114C192.126 38.2122 191.981 38.0878 191.865 37.9381C191.749 37.7884 191.664 37.6171 191.612 37.424C191.553 37.2301 191.536 37.0288 191.563 36.82ZM198.057 30.228C197.913 30.2032 197.758 30.2287 197.594 30.3043C197.438 30.3745 197.286 30.4775 197.141 30.6133C197.001 30.7499 196.878 30.911 196.771 31.0967C196.67 31.2832 196.607 31.4777 196.581 31.6802C196.559 31.8573 196.58 32.0207 196.645 32.1702C196.679 32.2518 196.759 32.3294 196.885 32.4032C197.018 32.4714 197.174 32.5361 197.352 32.5973C197.538 32.653 197.737 32.7071 197.949 32.7596C198.161 32.8058 198.365 32.8445 198.561 32.8757C198.756 32.9068 198.933 32.9293 199.092 32.943C199.257 32.9575 199.379 32.9632 199.456 32.9601C199.436 32.6682 199.396 32.3708 199.338 32.0678C199.286 31.7655 199.206 31.4854 199.097 31.2274C198.989 30.9694 198.849 30.7493 198.68 30.5671C198.51 30.3849 198.302 30.2718 198.057 30.228ZM202.238 24.6252L200.184 26.226L198.609 24.1947L196.599 25.7528L194.99 23.6883L197.044 22.0875L198.619 24.1188L200.629 22.5607L202.238 24.6252Z" fill="#AFC0EB"/>
<path d="M120.703 73.5959L119.566 82.5435L172.374 89.2521L173.511 80.3045L120.703 73.5959Z" fill="url(#paint6_linear_1372_5066)"/>
</g>
<path d="M283.694 29.1427C279.397 21.964 272.827 17.0242 265.005 16.0305C257.183 15.0368 249.596 18.1771 243.641 24.0532L283.694 29.1427Z" fill="url(#paint7_linear_1372_5066)"/>
<path d="M111.118 183.259C111.118 183.259 111.118 183.259 111.118 183.233L85.5367 125.215C85.2133 124.478 84.6398 123.879 83.9176 123.525C83.1954 123.171 82.3711 123.083 81.5906 123.278L20.0524 138.591C19.8185 138.649 19.5999 138.756 19.4114 138.907C19.223 139.057 19.0693 139.246 18.9607 139.461C18.8521 139.676 18.7913 139.912 18.7823 140.152C18.7734 140.393 18.8166 140.633 18.909 140.855C18.909 140.887 18.9345 140.916 18.9472 140.948C18.96 140.98 18.9727 141.012 18.9854 141.043C18.9982 141.075 19.0109 141.104 19.0237 141.136L19.0619 141.231C19.0619 141.263 19.0905 141.292 19.1033 141.324C19.116 141.356 19.1288 141.387 19.1415 141.419C19.1542 141.451 19.167 141.48 19.1797 141.512C19.1905 141.543 19.2033 141.574 19.2179 141.604L19.2562 141.699C19.2562 141.731 19.2848 141.76 19.2976 141.792C19.3103 141.824 19.323 141.856 19.3358 141.887C19.3485 141.919 19.3613 141.948 19.374 141.98C19.3867 142.012 19.3995 142.043 19.4122 142.075L19.4504 142.168C19.4504 142.199 19.4791 142.231 19.4918 142.26C19.5046 142.289 19.5173 142.324 19.5301 142.356C19.5428 142.387 19.5555 142.416 19.5683 142.448C19.581 142.48 19.5938 142.512 19.6065 142.543C19.6192 142.575 19.6352 142.604 19.6447 142.636L19.6861 142.731C19.6861 142.763 19.7116 142.792 19.7243 142.824C19.7351 142.855 19.7479 142.886 19.7626 142.916C19.7626 142.948 19.788 142.98 19.8008 143.012C19.8135 143.043 19.8294 143.072 19.8422 143.104C19.8549 143.136 19.8677 143.168 19.8804 143.2C19.8931 143.231 19.9059 143.26 19.9186 143.292C19.9314 143.324 19.9441 143.356 19.9568 143.387C19.9696 143.419 19.9823 143.448 19.9951 143.48C20.0078 143.512 20.0237 143.544 20.0365 143.572C20.0473 143.605 20.06 143.637 20.0747 143.668C20.0747 143.7 20.1002 143.728 20.1129 143.76C20.1256 143.792 20.1384 143.824 20.1511 143.856C20.1639 143.887 20.1766 143.916 20.1893 143.948L20.2307 144.044C20.2307 144.075 20.2562 144.104 20.269 144.136C20.2817 144.168 20.2944 144.2 20.3072 144.231C20.3199 144.263 20.3326 144.292 20.3454 144.324C20.3562 144.355 20.369 144.386 20.3836 144.416L20.425 144.512C20.425 144.544 20.4505 144.572 20.4632 144.604C20.476 144.636 20.4887 144.668 20.5014 144.7C20.5142 144.731 20.5269 144.76 20.5397 144.792L20.5779 144.888C20.5779 144.919 20.6065 144.948 20.6193 144.98C20.6301 145.011 20.6429 145.042 20.6575 145.072C20.6575 145.104 20.683 145.136 20.6957 145.168C20.7085 145.2 20.7212 145.228 20.7339 145.26L20.7722 145.356C20.7722 145.388 20.8008 145.416 20.8136 145.448C20.8263 145.48 20.839 145.512 20.8518 145.544C20.9221 145.752 21.0337 145.944 21.1798 146.108C21.3259 146.272 21.5035 146.405 21.7022 146.499L23.7628 147.509L4.335 187.141C4.1213 187.578 4.00729 188.056 4.00123 188.542C3.99517 189.028 4.09721 189.509 4.29997 189.95L4.33819 190.043L4.37641 190.138C4.37641 190.167 4.40189 190.199 4.41781 190.231C4.42862 190.262 4.44138 190.293 4.45603 190.323L4.49425 190.419L4.53247 190.511L4.57068 190.606C4.57068 190.638 4.59616 190.67 4.61209 190.699C4.62801 190.728 4.63438 190.763 4.65031 190.794L4.68852 190.887L4.72674 190.979C4.72674 191.011 4.75222 191.043 4.76815 191.075C4.77896 191.106 4.79172 191.137 4.80637 191.167C4.80637 191.199 4.82866 191.231 4.84458 191.263L4.8828 191.355L4.92102 191.45C4.92102 191.479 4.9465 191.511 4.96242 191.543C4.97835 191.575 4.98472 191.607 5.00064 191.638L5.03886 191.731L5.07708 191.823L5.1153 191.919C5.12717 191.95 5.14099 191.981 5.1567 192.011C5.1567 192.043 5.179 192.075 5.19492 192.107L5.23314 192.199L5.27136 192.294L5.30958 192.387C5.32144 192.418 5.33527 192.449 5.35098 192.479C5.35098 192.511 5.37327 192.543 5.3892 192.575L5.42742 192.667L5.46564 192.763L5.50385 192.855C5.51978 192.887 5.52933 192.919 5.54526 192.951C5.56118 192.982 5.56755 193.011 5.58348 193.043L5.62169 193.135L5.65991 193.231L5.69813 193.323C5.71406 193.355 5.72361 193.387 5.73954 193.419C5.75034 193.45 5.76311 193.481 5.77775 193.511L5.81597 193.607L5.85419 193.699L5.89241 193.791C5.90833 193.823 5.91789 193.855 5.93381 193.887C5.94462 193.918 5.95738 193.949 5.97203 193.979L6.01025 194.075L6.04847 194.167L6.08669 194.263C6.10261 194.291 6.11216 194.323 6.12809 194.355C6.14401 194.387 6.15038 194.419 6.16631 194.451L6.20453 194.543L6.24274 194.635C6.54758 195.364 7.10669 195.957 7.81608 196.304L31.0657 207.703C31.6904 208.005 32.4091 208.048 33.0652 207.822C33.7214 207.597 34.2619 207.121 34.5691 206.499L47.592 179.934C47.777 179.556 48.0348 179.218 48.3504 178.94C48.6661 178.662 49.0335 178.449 49.4317 178.313C49.8298 178.177 50.2509 178.12 50.6708 178.147C51.0908 178.174 51.5013 178.283 51.8789 178.469L66.4274 185.6L53.5 211.971C53.3277 212.321 53.2361 212.705 53.2317 213.095C53.2273 213.485 53.3102 213.872 53.4745 214.226L53.5127 214.321L53.5509 214.413L53.5891 214.509C53.601 214.541 53.6148 214.571 53.6306 214.601C53.6306 214.633 53.6528 214.665 53.6688 214.697L53.707 214.789L53.7452 214.885L53.7834 214.977C53.7994 215.009 53.8089 215.041 53.8248 215.07C53.8408 215.098 53.8471 215.133 53.8631 215.165L53.9013 215.257L53.9395 215.353L53.9777 215.445C53.9936 215.477 54.0032 215.509 54.0191 215.541C54.035 215.573 54.0414 215.601 54.0573 215.633L54.0956 215.726L54.1338 215.821L54.172 215.914C54.1879 215.945 54.1975 215.977 54.2134 216.009C54.2293 216.041 54.2357 216.07 54.2516 216.101L54.2898 216.197L54.328 216.289C54.3399 216.321 54.3537 216.352 54.3694 216.382C54.3694 216.414 54.3917 216.445 54.4077 216.477C54.4185 216.509 54.4312 216.54 54.4459 216.57L54.4841 216.665L54.5223 216.758C54.5223 216.789 54.5478 216.821 54.5637 216.853C54.5797 216.885 54.586 216.914 54.6019 216.945C54.6128 216.977 54.6255 217.008 54.6402 217.038L54.6784 217.133L54.7166 217.226C54.7166 217.258 54.7421 217.289 54.758 217.321C54.7688 217.353 54.7816 217.384 54.7962 217.414L54.8344 217.509L54.8727 217.602L54.9109 217.697C54.9109 217.726 54.9364 217.758 54.9523 217.789C54.9631 217.821 54.9759 217.852 54.9905 217.882L55.0287 217.977L55.0669 218.07L55.1052 218.165C55.1052 218.197 55.1306 218.226 55.1466 218.258C55.1625 218.289 55.1689 218.321 55.1848 218.353L55.223 218.446L55.2612 218.538L55.2994 218.633C55.3113 218.665 55.3251 218.696 55.3408 218.726C55.3408 218.758 55.3631 218.789 55.3791 218.821L55.4173 218.914C55.6623 219.505 56.1155 219.987 56.6912 220.267L79.9408 231.666C80.3266 231.855 80.746 231.967 81.1749 231.994C81.6039 232.022 82.034 231.964 82.4407 231.825C82.8474 231.686 83.2227 231.468 83.5452 231.184C83.8677 230.9 84.131 230.555 84.3201 230.169L105.257 187.466L110.818 190.186C111.127 190.338 111.475 190.391 111.815 190.338C112.154 190.285 112.47 190.129 112.718 189.891C112.966 189.652 113.135 189.344 113.201 189.006C113.267 188.669 113.228 188.319 113.089 188.004L113.06 187.938V187.912L113.032 187.845C113.03 187.836 113.03 187.826 113.032 187.817L113 187.75C113.001 187.741 113.001 187.733 113 187.724L112.971 187.657V187.629L112.943 187.562V187.536L112.914 187.469V187.444L112.885 187.377C112.884 187.368 112.884 187.358 112.885 187.348L112.853 187.281C112.855 187.273 112.855 187.264 112.853 187.256L112.825 187.189V187.16L112.796 187.094V187.068L112.767 187.001V186.973L112.739 186.906C112.739 186.906 112.739 186.89 112.739 186.88L112.707 186.813C112.707 186.813 112.707 186.794 112.707 186.788L112.678 186.721V186.692L112.65 186.625V186.6L112.621 186.533V186.504L112.592 186.437C112.591 186.429 112.591 186.42 112.592 186.412L112.56 186.345C112.562 186.336 112.562 186.326 112.56 186.316L112.532 186.25V186.224L112.503 186.157V186.129L112.474 186.062V186.036L112.446 185.969C112.445 185.961 112.445 185.952 112.446 185.944L112.414 185.877C112.415 185.867 112.415 185.858 112.414 185.848L112.385 185.781V185.756L112.357 185.689V185.66L112.328 185.593C112.328 185.593 112.328 185.578 112.328 185.568L112.296 185.501C112.296 185.501 112.296 185.482 112.296 185.472L112.264 185.406C112.265 185.397 112.265 185.389 112.264 185.38L112.236 185.313V185.288L112.207 185.221V185.192L112.178 185.125C112.177 185.117 112.177 185.108 112.178 185.1L112.146 185.033C112.146 185.033 112.146 185.014 112.146 185.004L112.114 184.937C112.116 184.929 112.116 184.92 112.114 184.912L112.086 184.845V184.816L112.057 184.749V184.724L112.028 184.657C112.028 184.649 112.028 184.64 112.028 184.632L111.997 184.565C111.998 184.555 111.998 184.546 111.997 184.536L111.968 184.469C111.969 184.461 111.969 184.452 111.968 184.444L111.939 184.377V184.348L111.911 184.281V184.256L111.882 184.189C111.881 184.179 111.881 184.17 111.882 184.16L111.85 184.093C111.851 184.085 111.851 184.076 111.85 184.068L111.821 184.001V183.976L111.793 183.909V183.88L111.764 183.813V183.788L111.735 183.721C111.734 183.711 111.734 183.702 111.735 183.692L111.704 183.625C111.705 183.617 111.705 183.608 111.704 183.6L111.675 183.533V183.504L111.646 183.437V183.412L111.618 183.345V183.316L111.118 183.259ZM75.7655 139.171C77.0512 138.641 78.466 138.507 79.8281 138.788C81.1902 139.068 82.4373 139.749 83.4092 140.744C83.4253 142.134 83.0249 143.498 82.2595 144.659C81.4941 145.82 80.3987 146.725 79.1144 147.258C77.83 147.791 76.4156 147.928 75.053 147.65C73.6905 147.372 72.4423 146.693 71.4691 145.7C71.4504 144.307 71.8491 142.941 72.6137 141.778C73.3783 140.614 74.4738 139.706 75.7591 139.171H75.7655Z" fill="url(#paint8_linear_1372_5066)"/>
<path d="M85.5366 125.215C85.2133 124.478 84.6397 123.879 83.9175 123.525C83.1953 123.171 82.3711 123.083 81.5906 123.278L20.0523 138.591C19.7195 138.676 19.4208 138.861 19.1965 139.121C18.9722 139.381 18.8333 139.703 18.7986 140.045C18.7638 140.387 18.8349 140.731 19.0022 141.031C19.1695 141.331 19.4249 141.572 19.7339 141.722L25.2819 144.442L4.33496 187.151C4.14549 187.537 4.03392 187.956 4.00661 188.385C3.9793 188.814 4.0368 189.244 4.17582 189.651C4.31484 190.057 4.53265 190.433 4.8168 190.755C5.10096 191.078 5.44588 191.341 5.83186 191.53L29.0815 202.932C29.3923 203.085 29.7304 203.176 30.0764 203.199C30.4223 203.221 30.7693 203.175 31.0975 203.063C31.4256 202.952 31.7284 202.776 31.9886 202.547C32.2488 202.318 32.4611 202.039 32.6135 201.728L45.6365 175.163C45.8215 174.785 46.0792 174.447 46.3949 174.169C46.7105 173.891 47.078 173.678 47.4761 173.542C47.8743 173.406 48.2954 173.349 48.7153 173.376C49.1352 173.403 49.5457 173.512 49.9233 173.698L65.0802 181.128C65.84 181.504 66.4202 182.165 66.6936 182.967C66.9669 183.77 66.9113 184.647 66.5388 185.409L53.5159 211.974C53.2131 212.598 53.1698 213.317 53.3954 213.974C53.6209 214.63 54.0971 215.171 54.7198 215.477L77.9694 226.876C78.3552 227.065 78.7745 227.177 79.2035 227.204C79.6324 227.232 80.0625 227.174 80.4692 227.035C80.8759 226.896 81.2512 226.678 81.5737 226.394C81.8962 226.11 82.1595 225.765 82.3486 225.379L103.286 182.695L108.834 185.409C109.143 185.56 109.491 185.612 109.83 185.559C110.17 185.506 110.485 185.35 110.733 185.112C110.981 184.874 111.15 184.566 111.217 184.228C111.284 183.891 111.246 183.542 111.108 183.227L85.5366 125.215ZM79.1127 147.273C77.839 147.801 76.4374 147.939 75.0851 147.67C73.7327 147.402 72.4905 146.738 71.5153 145.763C70.5402 144.788 69.876 143.546 69.6066 142.194C69.3373 140.842 69.4749 139.44 70.0021 138.166C70.5294 136.892 71.4225 135.803 72.5686 135.037C73.7147 134.271 75.0623 133.861 76.4411 133.861C77.8199 133.86 79.1678 134.268 80.3146 135.034C81.4613 135.799 82.3554 136.888 82.8836 138.161C83.2345 139.007 83.4153 139.914 83.4157 140.829C83.4161 141.745 83.236 142.652 82.8859 143.498C82.5357 144.344 82.0222 145.113 81.3748 145.761C80.7274 146.409 79.9588 146.922 79.1127 147.273Z" fill="url(#paint9_linear_1372_5066)"/>
<path d="M125.631 152.437C120.672 152.495 115.791 151.2 111.513 148.691C107.235 146.182 103.721 142.554 101.351 138.198C98.9803 133.842 97.8424 128.922 98.0593 123.967C98.2763 119.012 99.8399 114.21 102.582 110.078C105.324 105.945 109.141 102.638 113.622 100.513C118.103 98.3879 123.079 97.5245 128.014 98.0158C132.949 98.5071 137.657 100.335 141.631 103.302C145.605 106.269 148.695 110.263 150.569 114.855L153.203 116.979C153.543 117.263 153.978 117.408 154.42 117.386C154.862 117.364 155.28 117.177 155.591 116.862L158.744 113.801C159.044 113.498 159.443 113.313 159.868 113.281C160.293 113.249 160.715 113.371 161.057 113.626L167.544 120.992C167.855 121.222 168.231 121.345 168.618 121.343L173.459 121.285C173.915 121.278 174.351 121.097 174.678 120.779L178.376 114.766C178.702 114.447 179.139 114.265 179.595 114.26C180.051 114.255 180.492 114.426 180.825 114.737L184.329 120.177C184.627 120.454 185.012 120.618 185.418 120.644C185.825 120.669 186.227 120.554 186.558 120.317L192.291 116.237C192.605 116.008 192.982 115.882 193.37 115.877L196.523 115.842C196.834 115.843 197.141 115.917 197.418 116.059C197.694 116.2 197.934 116.406 198.116 116.658L199.046 117.894C199.22 118.146 199.453 118.352 199.724 118.496C199.995 118.639 200.297 118.715 200.604 118.717C200.911 118.72 201.213 118.648 201.487 118.508C201.76 118.369 201.995 118.166 202.173 117.916L203.83 115.756L205.362 115.737C205.737 115.74 206.107 115.833 206.439 116.008C206.772 116.183 207.058 116.435 207.272 116.744L214.279 124.521C214.645 125.034 214.838 125.651 214.83 126.281C214.821 126.911 214.611 127.522 214.231 128.025L210.203 133.175C209.992 133.455 209.721 133.685 209.41 133.845C209.098 134.006 208.754 134.093 208.403 134.101L150.846 134.767C148.911 139.909 145.468 144.346 140.969 147.499C136.471 150.652 131.125 152.373 125.631 152.437ZM106.971 125.365C106.984 126.469 107.323 127.544 107.947 128.454C108.57 129.365 109.45 130.07 110.474 130.48C111.499 130.891 112.622 130.989 113.702 130.761C114.781 130.533 115.77 129.991 116.541 129.201C117.312 128.412 117.832 127.412 118.035 126.327C118.238 125.243 118.115 124.122 117.681 123.107C117.247 122.093 116.522 121.229 115.598 120.627C114.673 120.024 113.591 119.709 112.487 119.722C111.754 119.73 111.029 119.883 110.355 120.171C109.681 120.46 109.07 120.878 108.558 121.403C108.046 121.928 107.642 122.548 107.369 123.229C107.097 123.91 106.962 124.638 106.971 125.372V125.365Z" fill="url(#paint10_linear_1372_5066)"/>
<path d="M205.371 117.435C205.477 117.441 205.58 117.474 205.671 117.529C205.762 117.585 205.838 117.662 205.893 117.753L206.004 117.89L210.986 123.413L155.585 124.05L155.55 119.737L164.107 119.639L166.378 122.253L166.531 122.362C167.136 122.809 167.871 123.047 168.623 123.037L173.48 122.986C174.36 122.976 175.204 122.634 175.844 122.031L176.006 121.878L179.611 115.979L183.01 121.269L183.178 121.422C183.766 121.959 184.521 122.279 185.315 122.326C186.11 122.374 186.897 122.147 187.545 121.683L193.278 117.604C193.31 117.577 193.35 117.561 193.392 117.559L196.542 117.524C196.587 117.53 196.629 117.546 196.667 117.57C196.705 117.595 196.737 117.627 196.762 117.664L197.692 118.9C198.025 119.36 198.461 119.735 198.966 119.994C199.471 120.254 200.03 120.391 200.598 120.394C201.166 120.397 201.726 120.266 202.234 120.012C202.742 119.758 203.182 119.388 203.52 118.932L204.673 117.428L205.371 117.435Z" fill="url(#paint11_linear_1372_5066)"/>
<path d="M155.495 129.467L213.616 128.795L212.887 129.732L155.505 130.394L155.495 129.467Z" fill="url(#paint12_linear_1372_5066)"/>
<path d="M102.222 125.427C102.17 120.86 103.473 116.38 105.966 112.553C108.46 108.726 112.032 105.725 116.231 103.929C120.43 102.132 125.068 101.621 129.558 102.46C134.047 103.3 138.187 105.451 141.454 108.643C144.721 111.835 146.968 115.924 147.911 120.393C148.853 124.862 148.45 129.51 146.751 133.75C145.053 137.99 142.135 141.63 138.367 144.212C134.599 146.793 130.151 148.2 125.584 148.253C119.461 148.317 113.562 145.95 109.183 141.671C104.803 137.392 102.3 131.549 102.222 125.427ZM118.131 125.245C118.118 124.142 117.779 123.067 117.155 122.156C116.531 121.246 115.652 120.541 114.628 120.13C113.603 119.719 112.48 119.622 111.4 119.849C110.321 120.077 109.332 120.62 108.561 121.409C107.79 122.198 107.27 123.198 107.067 124.283C106.864 125.368 106.987 126.488 107.421 127.503C107.855 128.518 108.58 129.381 109.504 129.984C110.429 130.586 111.511 130.901 112.615 130.889C113.348 130.88 114.071 130.728 114.745 130.44C115.419 130.152 116.03 129.734 116.542 129.21C117.054 128.685 117.458 128.066 117.731 127.385C118.003 126.705 118.139 125.978 118.131 125.245Z" fill="url(#paint13_linear_1372_5066)"/>
<path d="M148.84 124.896C148.785 120.244 147.352 115.712 144.723 111.875C142.093 108.037 138.384 105.065 134.065 103.335C129.747 101.605 125.012 101.194 120.46 102.155C115.908 103.116 111.743 105.405 108.492 108.732C105.24 112.06 103.049 116.277 102.194 120.851C101.34 125.424 101.861 130.148 103.691 134.425C105.521 138.702 108.578 142.341 112.476 144.881C116.374 147.42 120.938 148.747 125.59 148.693C131.827 148.613 137.777 146.063 142.135 141.602C146.494 137.141 148.905 131.133 148.84 124.896ZM102.659 125.431C102.608 120.95 103.886 116.554 106.333 112.8C108.779 109.045 112.284 106.101 116.404 104.338C120.524 102.575 125.074 102.073 129.479 102.896C133.884 103.719 137.946 105.83 141.152 108.961C144.358 112.093 146.563 116.104 147.489 120.489C148.415 124.873 148.02 129.434 146.355 133.594C144.689 137.754 141.827 141.327 138.131 143.861C134.435 146.395 130.071 147.776 125.59 147.83C119.579 147.896 113.787 145.574 109.487 141.373C105.186 137.172 102.73 131.436 102.656 125.425L102.659 125.431Z" fill="url(#paint14_linear_1372_5066)"/>
<path d="M128.991 122.13C124.976 125.04 120.243 126.8 115.302 127.222C110.361 127.643 105.399 126.709 100.949 124.521C96.499 122.333 92.7296 118.974 90.046 114.804C87.3625 110.634 85.8664 105.811 85.7187 100.854C85.5709 95.8977 86.7771 90.9945 89.2075 86.6721C91.6379 82.3496 95.2006 78.7715 99.5125 76.3224C103.824 73.8732 108.722 72.6458 113.679 72.772C118.637 72.8983 123.466 74.3734 127.647 77.0388L131.023 77.2554C131.465 77.2892 131.903 77.1562 132.252 76.8826C132.6 76.609 132.834 76.2148 132.906 75.7776L133.711 71.4621C133.78 71.0412 133.999 70.6595 134.328 70.3873C134.656 70.1152 135.072 69.9709 135.498 69.9812L145.053 72.252C145.438 72.2587 145.816 72.1414 146.129 71.9175L150.05 69.0735C150.417 68.8045 150.669 68.4061 150.754 67.9587L150.295 60.9106C150.377 60.4616 150.629 60.0616 150.999 59.794C151.368 59.5264 151.827 59.4118 152.279 59.4742L158.27 61.9011C158.676 61.9556 159.088 61.8676 159.437 61.6522C159.785 61.4367 160.048 61.1071 160.181 60.7195L162.496 54.0822C162.623 53.715 162.859 53.395 163.172 53.165L165.719 51.3178C165.974 51.1377 166.267 51.0207 166.576 50.9764C166.884 50.9321 167.199 50.9617 167.493 51.063L168.965 51.5343C169.253 51.6396 169.562 51.6741 169.866 51.6347C170.171 51.5953 170.461 51.4832 170.713 51.308C170.964 51.1327 171.17 50.8995 171.313 50.6279C171.455 50.3563 171.531 50.0544 171.532 49.7476L171.637 47.0277L172.876 46.1296C173.184 45.913 173.54 45.7741 173.913 45.7248C174.286 45.6754 174.666 45.717 175.019 45.8461L185.246 48.1392C185.835 48.3472 186.344 48.7366 186.698 49.2517C187.052 49.7667 187.234 50.3808 187.217 51.0056L186.915 57.5506C186.905 57.9015 186.817 58.2458 186.655 58.5575C186.493 58.8692 186.263 59.1402 185.982 59.35L139.374 93.1448C140.764 98.4598 140.516 104.071 138.663 109.242C136.811 114.414 133.44 118.906 128.991 122.13ZM98.1268 110.808C98.7743 111.702 99.6723 112.383 100.707 112.766C101.742 113.15 102.867 113.218 103.941 112.961C105.014 112.705 105.987 112.136 106.737 111.327C107.488 110.518 107.981 109.504 108.155 108.414C108.329 107.325 108.176 106.208 107.716 105.205C107.255 104.202 106.507 103.358 105.567 102.78C104.627 102.202 103.537 101.916 102.434 101.958C101.331 102 100.266 102.367 99.3721 103.015C98.7785 103.445 98.2754 103.987 97.8916 104.612C97.5078 105.236 97.2507 105.93 97.1351 106.653C97.0194 107.377 97.0475 108.117 97.2176 108.829C97.3878 109.542 97.6967 110.215 98.1268 110.808Z" fill="url(#paint15_linear_1372_5066)"/>
<path d="M173.879 47.5028C173.967 47.4451 174.068 47.4103 174.174 47.4014C174.279 47.3925 174.384 47.4098 174.481 47.4518L174.653 47.4996L181.908 49.1334L137.046 81.6479L134.53 78.1636L141.457 73.141L144.839 73.9373H145.04C145.793 73.952 146.53 73.7205 147.139 73.278L151.059 70.4371C151.772 69.9169 152.262 69.1468 152.432 68.2809L152.477 68.0611L152.018 61.1977L157.846 63.5577L158.072 63.5832C158.862 63.6831 159.663 63.5081 160.339 63.0877C161.015 62.6672 161.526 62.0269 161.786 61.2742L164.101 54.6401C164.115 54.6002 164.139 54.5648 164.171 54.5382L166.719 52.6877C166.76 52.6693 166.805 52.6597 166.85 52.6597C166.895 52.6597 166.939 52.6693 166.981 52.6877L168.452 53.1591C168.989 53.3418 169.562 53.3954 170.124 53.3154C170.686 53.2355 171.222 53.0243 171.687 52.6989C172.152 52.3736 172.534 51.9432 172.802 51.4427C173.07 50.9423 173.216 50.3857 173.229 49.8182L173.302 47.9263L173.879 47.5028Z" fill="url(#paint16_linear_1372_5066)"/>
<path d="M140.106 86.1279L187.173 52.021L187.118 53.2026L140.651 86.8795L140.106 86.1279Z" fill="url(#paint17_linear_1372_5066)"/>
<path d="M94.2829 113.596C91.6024 109.897 90.0788 105.487 89.9047 100.923C89.7307 96.3587 90.914 91.8454 93.305 87.9537C95.6961 84.062 99.1874 80.9667 103.338 79.0593C107.488 77.1519 112.11 76.5181 116.621 77.2379C121.131 77.9577 125.327 79.9989 128.677 83.1033C132.028 86.2077 134.382 90.2359 135.443 94.6785C136.504 99.1211 136.224 103.779 134.638 108.062C133.052 112.345 130.231 116.062 126.533 118.742C121.571 122.328 115.39 123.8 109.344 122.835C103.299 121.87 97.8825 118.547 94.2829 113.596ZM107.163 104.261C106.515 103.367 105.617 102.685 104.582 102.302C103.547 101.918 102.421 101.851 101.348 102.107C100.274 102.363 99.3008 102.932 98.5506 103.742C97.8005 104.552 97.3074 105.566 97.1336 106.656C96.9598 107.746 97.1132 108.863 97.5743 109.866C98.0354 110.868 98.7836 111.712 99.7242 112.289C100.665 112.867 101.756 113.153 102.859 113.11C103.961 113.068 105.027 112.699 105.92 112.051C106.514 111.621 107.016 111.079 107.4 110.454C107.783 109.83 108.04 109.137 108.155 108.413C108.271 107.69 108.243 106.951 108.072 106.238C107.902 105.526 107.593 104.854 107.163 104.261Z" fill="url(#paint18_linear_1372_5066)"/>
<path d="M132.029 86.2379C129.299 82.4708 125.513 79.598 121.15 77.9827C116.787 76.3673 112.043 76.0821 107.517 77.163C102.992 78.2438 98.8892 80.6423 95.7272 84.0551C92.5651 87.4679 90.486 91.7417 89.7529 96.336C89.0198 100.93 89.6655 105.639 91.6084 109.866C93.5513 114.094 96.7041 117.65 100.668 120.086C104.632 122.521 109.229 123.727 113.879 123.549C118.528 123.372 123.02 121.82 126.787 119.09C131.833 115.424 135.219 109.907 136.202 103.748C137.185 97.5891 135.684 91.2918 132.029 86.2379ZM94.6325 113.341C92.0027 109.712 90.5082 105.385 90.3378 100.906C90.1674 96.4279 91.3288 91.9996 93.6751 88.1812C96.0215 84.3628 99.4474 81.3258 103.52 79.4545C107.592 77.5831 112.128 76.9613 116.553 77.6676C120.979 78.374 125.096 80.3768 128.383 83.4228C131.671 86.4689 133.981 90.4213 135.022 94.7804C136.063 99.1394 135.789 103.709 134.233 107.912C132.677 112.115 129.909 115.762 126.281 118.392C121.412 121.913 115.345 123.359 109.412 122.412C103.479 121.465 98.1634 118.203 94.6325 113.341Z" fill="url(#paint19_linear_1372_5066)"/>
<path d="M83.0078 104.686C87.1635 102.97 91.7544 102.607 96.1279 103.65C100.501 104.693 104.435 107.088 107.369 110.495C108.028 109.442 108.319 108.199 108.194 106.963C105.665 104.492 102.628 102.601 99.2953 101.422C95.9622 100.243 92.4123 99.8032 88.8922 100.134C85.3721 100.465 81.9662 101.558 78.911 103.337C75.8559 105.117 73.2248 107.54 71.2004 110.439C69.1761 113.338 67.8071 116.642 67.1885 120.123C66.5699 123.604 66.7165 127.178 67.6182 130.597C68.5199 134.016 70.155 137.197 72.41 139.92C74.665 142.644 77.4858 144.843 80.6764 146.366C81.5156 145.725 82.1984 144.902 82.6733 143.959C78.8349 142.288 75.5727 139.525 73.293 136.013C71.0133 132.502 69.8168 128.398 69.8524 124.212C69.8881 120.025 71.1543 115.942 73.4935 112.47C75.8326 108.998 79.1414 106.291 83.0078 104.686Z" fill="url(#paint20_linear_1372_5066)"/>
<path d="M112.318 127.308C111.699 131.854 109.628 136.08 106.415 139.355C103.202 142.63 99.0167 144.781 94.4829 145.487L95.7409 148.354C100.837 147.384 105.491 144.812 109.023 141.013C112.556 137.213 114.782 132.385 115.379 127.232C114.361 127.315 113.339 127.34 112.318 127.308Z" fill="url(#paint21_linear_1372_5066)"/>
</g>
<defs>
<filter id="filter0_d_1372_5066" x="0" y="0" width="287.694" height="240.001" filterUnits="userSpaceOnUse" color-interpolation-filters="sRGB">
<feFlood flood-opacity="0" result="BackgroundImageFix"/>
<feColorMatrix in="SourceAlpha" type="matrix" values="0 0 0 0 0 0 0 0 0 0 0 0 0 0 0 0 0 0 127 0" result="hardAlpha"/>
<feOffset dy="4"/>
<feGaussianBlur stdDeviation="2"/>
<feComposite in2="hardAlpha" operator="out"/>
<feColorMatrix type="matrix" values="0 0 0 0 0 0 0 0 0 0 0 0 0 0 0 0 0 0 0.25 0"/>
<feBlend mode="normal" in2="BackgroundImageFix" result="effect1_dropShadow_1372_5066"/>
<feBlend mode="normal" in="SourceGraphic" in2="effect1_dropShadow_1372_5066" result="shape"/>
</filter>
<linearGradient id="paint0_linear_1372_5066" x1="157.157" y1="339.928" x2="175.527" y2="118.877" gradientUnits="userSpaceOnUse">
<stop stop-color="white"/>
<stop offset="1" stop-color="#CFDAF4"/>
</linearGradient>
<linearGradient id="paint1_linear_1372_5066" x1="256.398" y1="62.5614" x2="146.525" y2="210.206" gradientUnits="userSpaceOnUse">
<stop stop-color="white"/>
<stop offset="1" stop-color="#CFDAF4"/>
</linearGradient>
<linearGradient id="paint2_linear_1372_5066" x1="208.575" y1="36.2114" x2="98.7013" y2="183.859" gradientUnits="userSpaceOnUse">
<stop stop-color="white"/>
<stop offset="1" stop-color="#CFDAF4"/>
</linearGradient>
<linearGradient id="paint3_linear_1372_5066" x1="213.096" y1="39.5738" x2="103.222" y2="187.221" gradientUnits="userSpaceOnUse">
<stop stop-color="white"/>
<stop offset="1" stop-color="#CFDAF4"/>
</linearGradient>
<linearGradient id="paint4_linear_1372_5066" x1="197.147" y1="27.7054" x2="87.2735" y2="175.353" gradientUnits="userSpaceOnUse">
<stop stop-color="white"/>
<stop offset="1" stop-color="#CFDAF4"/>
</linearGradient>
<linearGradient id="paint5_linear_1372_5066" x1="207.593" y1="35.4609" x2="97.7167" y2="183.105" gradientUnits="userSpaceOnUse">
<stop stop-color="white"/>
<stop offset="1" stop-color="#CFDAF4"/>
</linearGradient>
<linearGradient id="paint6_linear_1372_5066" x1="190.308" y1="22.6111" x2="80.4342" y2="170.259" gradientUnits="userSpaceOnUse">
<stop stop-color="white"/>
<stop offset="1" stop-color="#CFDAF4"/>
</linearGradient>
<linearGradient id="paint7_linear_1372_5066" x1="245.499" y1="30.1843" x2="280.87" y2="19.6079" gradientUnits="userSpaceOnUse">
<stop stop-color="#8393CE"/>
<stop offset="1" stop-color="#B5BDE1"/>
</linearGradient>
<linearGradient id="paint8_linear_1372_5066" x1="9.53384" y1="202.535" x2="103.058" y2="163.758" gradientUnits="userSpaceOnUse">
<stop stop-color="#424161"/>
<stop offset="1" stop-color="#5B60A3"/>
</linearGradient>
<linearGradient id="paint9_linear_1372_5066" x1="49.5304" y1="117.989" x2="63.8993" y2="238.792" gradientUnits="userSpaceOnUse">
<stop stop-color="#81D715"/>
<stop offset="1" stop-color="#1766AF"/>
</linearGradient>
<linearGradient id="paint10_linear_1372_5066" x1="86.7412" y1="134.659" x2="212.733" y2="101.337" gradientUnits="userSpaceOnUse">
<stop stop-color="#8393CE"/>
<stop offset="1" stop-color="#5B60A3"/>
</linearGradient>
<linearGradient id="paint11_linear_1372_5066" x1="92.8137" y1="136.438" x2="214.9" y2="117.103" gradientUnits="userSpaceOnUse">
<stop stop-color="#424161"/>
<stop offset="1" stop-color="#5B60A3"/>
</linearGradient>
<linearGradient id="paint12_linear_1372_5066" x1="94.0752" y1="144.417" x2="216.162" y2="125.079" gradientUnits="userSpaceOnUse">
<stop stop-color="#424161"/>
<stop offset="1" stop-color="#5B60A3"/>
</linearGradient>
<linearGradient id="paint13_linear_1372_5066" x1="154.512" y1="123.716" x2="53.7622" y2="122.28" gradientUnits="userSpaceOnUse">
<stop stop-color="#8393CE"/>
<stop offset="1" stop-color="#5B60A3"/>
</linearGradient>
<linearGradient id="paint14_linear_1372_5066" x1="147.806" y1="123.622" x2="100.757" y2="122.952" gradientUnits="userSpaceOnUse">
<stop stop-color="#424161"/>
<stop offset="1" stop-color="#5B60A3"/>
</linearGradient>
<linearGradient id="paint15_linear_1372_5066" x1="82.8278" y1="42.4871" x2="149.271" y2="91.0102" gradientUnits="userSpaceOnUse">
<stop stop-color="#8393CE"/>
<stop offset="1" stop-color="#B5BDE1"/>
</linearGradient>
<linearGradient id="paint16_linear_1372_5066" x1="182.64" y1="56.6226" x2="255.502" y2="35.2837" gradientUnits="userSpaceOnUse">
<stop stop-color="#8393CE"/>
<stop offset="1" stop-color="#B5BDE1"/>
</linearGradient>
<linearGradient id="paint17_linear_1372_5066" x1="188.49" y1="53.8422" x2="257.94" y2="9.63875" gradientUnits="userSpaceOnUse">
<stop stop-color="#8393CE"/>
<stop offset="1" stop-color="#B5BDE1"/>
</linearGradient>
<linearGradient id="paint18_linear_1372_5066" x1="130.947" y1="120.274" x2="77.8292" y2="60.3754" gradientUnits="userSpaceOnUse">
<stop stop-color="#8393CE"/>
<stop offset="1" stop-color="#B5BDE1"/>
</linearGradient>
<linearGradient id="paint19_linear_1372_5066" x1="132.326" y1="86.7143" x2="93.5688" y2="113.392" gradientUnits="userSpaceOnUse">
<stop stop-color="#8393CE"/>
<stop offset="1" stop-color="#5B60A3"/>
</linearGradient>
<linearGradient id="paint20_linear_1372_5066" x1="71.565" y1="140.222" x2="106.814" y2="81.096" gradientUnits="userSpaceOnUse">
<stop stop-color="#424161"/>
<stop offset="1" stop-color="#5B60A3"/>
</linearGradient>
<linearGradient id="paint21_linear_1372_5066" x1="98.4025" y1="149.443" x2="118.813" y2="115.208" gradientUnits="userSpaceOnUse">
<stop stop-color="#424161"/>
<stop offset="1" stop-color="#5B60A3"/>
</linearGradient>
</defs>
</svg>
