<svg width="26" height="26" viewBox="0 0 26 26" fill="none" xmlns="http://www.w3.org/2000/svg">
<path d="M9.4 25.001H16.6C22.6 25.001 25 22.601 25 16.601V9.40098C25 3.40098 22.6 1.00098 16.6 1.00098H9.4C3.4 1.00098 1 3.40098 1 9.40098V16.601C1 22.601 3.4 25.001 9.4 25.001Z" stroke="url(#paint0_linear_4933_18846)" stroke-width="1.5" stroke-linecap="round" stroke-linejoin="round"/>
<path d="M18.1331 14.932C16.7771 16.288 14.8331 16.708 13.1171 16.168L10.0091 19.264C9.79311 19.492 9.34911 19.636 9.02511 19.588L7.58511 19.396C7.10511 19.336 6.67311 18.88 6.60111 18.412L6.40911 16.972C6.36111 16.66 6.51711 16.216 6.73311 15.988L9.82911 12.892C9.30111 11.176 9.70911 9.23197 11.0651 7.87597C13.0091 5.93197 16.1771 5.93197 18.1331 7.87597C20.0771 9.80797 20.0771 12.976 18.1331 14.932Z" stroke="url(#paint1_linear_4933_18846)" stroke-width="1.5" stroke-miterlimit="10" stroke-linecap="round" stroke-linejoin="round"/>
<path d="M11.143 18.1365L10.123 17.1045" stroke="url(#paint2_linear_4933_18846)" stroke-width="1.5" stroke-miterlimit="10" stroke-linecap="round" stroke-linejoin="round"/>
<path d="M14.6735 11.4418H14.6843" stroke="url(#paint3_linear_4933_18846)" stroke-width="2" stroke-linecap="round" stroke-linejoin="round"/>
<defs>
<linearGradient id="paint0_linear_4933_18846" x1="13" y1="1.00098" x2="13" y2="25.001" gradientUnits="userSpaceOnUse">
<stop stop-color="#A1DA19"/>
<stop offset="1" stop-color="#054B6F"/>
</linearGradient>
<linearGradient id="paint1_linear_4933_18846" x1="12.9958" y1="6.41797" x2="12.9958" y2="19.5972" gradientUnits="userSpaceOnUse">
<stop stop-color="#A1DA19"/>
<stop offset="1" stop-color="#054B6F"/>
</linearGradient>
<linearGradient id="paint2_linear_4933_18846" x1="10.633" y1="17.1045" x2="10.633" y2="18.1365" gradientUnits="userSpaceOnUse">
<stop stop-color="#A1DA19"/>
<stop offset="1" stop-color="#054B6F"/>
</linearGradient>
<linearGradient id="paint3_linear_4933_18846" x1="14.6789" y1="10.8418" x2="14.6789" y2="12.0418" gradientUnits="userSpaceOnUse">
<stop stop-color="#A1DA19"/>
<stop offset="1" stop-color="#054B6F"/>
</linearGradient>
</defs>
</svg>
