<svg width="147" height="90" viewBox="0 0 147 90" fill="none" xmlns="http://www.w3.org/2000/svg">
<rect x="0.75" y="0.75" width="145.5" height="88.5" rx="9.25" fill="white" stroke="url(#paint0_linear_2611_57722)" stroke-width="1.5"/>
<path d="M41.4824 49.813C41.6836 49.813 41.8766 49.733 42.0188 49.5908C42.1611 49.4485 42.241 49.2555 42.241 49.0543V45.2611C42.241 45.0599 42.1611 44.8669 42.0188 44.7246C41.8766 44.5824 41.6836 44.5024 41.4824 44.5024H36.9305C36.7293 44.5024 36.5364 44.5824 36.3941 44.7246C36.2518 44.8669 36.1719 45.0599 36.1719 45.2611V49.0543C36.1719 49.2555 36.2518 49.4485 36.3941 49.5908C36.5364 49.733 36.7293 49.813 36.9305 49.813H41.4824ZM37.6892 46.0197H40.7237V48.2957H37.6892V46.0197Z" fill="#303030"/>
<path d="M45.2751 55.123H43.7578V56.6403H45.2751V55.123Z" fill="#303030"/>
<path d="M58.9308 54.3647V52.0888C58.9308 51.8876 58.8508 51.6946 58.7086 51.5523C58.5663 51.4101 58.3733 51.3301 58.1721 51.3301H55.8962V50.5715H58.9308V49.0542H55.1376C54.9363 49.0542 54.7434 49.1341 54.6011 49.2764C54.4588 49.4187 54.3789 49.6116 54.3789 49.8128V52.0888C54.3789 52.29 54.4588 52.4829 54.6011 52.6252C54.7434 52.7675 54.9363 52.8474 55.1376 52.8474H57.4135V53.6061H54.3789V55.1234H58.1721C58.3733 55.1234 58.5663 55.0434 58.7086 54.9012C58.8508 54.7589 58.9308 54.5659 58.9308 54.3647ZM61.2067 52.8474H62.724V55.1234H64.2413V49.8128C64.2413 49.6116 64.1614 49.4187 64.0191 49.2764C63.8768 49.1341 63.6839 49.0542 63.4826 49.0542H60.4481C60.2469 49.0542 60.0539 49.1341 59.9116 49.2764C59.7694 49.4187 59.6894 49.6116 59.6894 49.8128V55.1234H61.2067V52.8474ZM62.724 50.5715V51.3301H61.2067V50.5715H62.724ZM65.7586 55.1234H69.5518V53.6061H66.5172V49.0542H64.9999V54.3647C64.9999 54.5659 65.0799 54.7589 65.2221 54.9012C65.3644 55.0434 65.5574 55.1234 65.7586 55.1234ZM71.0691 55.1234H74.8623V53.6061H71.8277V52.8474H74.1037V51.3301H71.8277V50.5715H74.8623V49.0542H71.0691C70.8679 49.0542 70.6749 49.1341 70.5327 49.2764C70.3904 49.4187 70.3105 49.6116 70.3105 49.8128V54.3647C70.3105 54.5659 70.3904 54.7589 70.5327 54.9012C70.6749 55.0434 70.8679 55.1234 71.0691 55.1234Z" fill="#303030"/>
<path d="M76.38 58.1579C76.5812 58.1579 76.7742 58.0779 76.9165 57.9356C77.0588 57.7934 77.1387 57.6004 77.1387 57.3992V46.7782C77.1387 46.577 77.0588 46.384 76.9165 46.2417C76.7742 46.0995 76.5812 46.0195 76.38 46.0195H58.9312V44.6843L60.1526 45.2002C60.2467 45.2385 60.347 45.259 60.4485 45.2609C60.649 45.2587 60.8407 45.1781 60.9825 45.0363C61.1243 44.8945 61.205 44.7028 61.2071 44.5022V41.4677C61.2077 41.3186 61.164 41.1727 61.0817 41.0485C60.9993 40.9242 60.8819 40.8272 60.7444 40.7697L55.8966 38.7289V33.8812C55.8966 33.68 55.8167 33.487 55.6744 33.3448C55.5321 33.2025 55.3392 33.1226 55.138 33.1226H51.3448C51.1435 33.1226 50.9506 33.2025 50.8083 33.3448C50.666 33.487 50.5861 33.68 50.5861 33.8812V36.4909L46.3301 34.7005C46.2369 34.6593 46.1361 34.6379 46.0342 34.6379C45.9323 34.6379 45.8315 34.6593 45.7384 34.7005L31.3241 40.7697C31.1866 40.8272 31.0692 40.9242 30.9868 41.0485C30.9044 41.1727 30.8608 41.3186 30.8613 41.4677V44.5022C30.862 44.6272 30.8935 44.7501 30.953 44.8599C31.0126 44.9697 31.0984 45.0632 31.2027 45.1319C31.3064 45.2021 31.426 45.2451 31.5506 45.2571C31.6752 45.269 31.8008 45.2494 31.9159 45.2002L33.1373 44.6843V58.9165H32.3786C32.1774 58.9165 31.9845 58.9964 31.8422 59.1387C31.6999 59.281 31.62 59.4739 31.62 59.6751V63.4684H77.1387V61.9511H75.6214V58.1579H76.38ZM52.1034 34.6398H54.3793V38.0917L52.1034 37.1282V34.6398ZM32.3786 43.3567V41.9684L46.0342 36.2178L59.6898 41.9684V43.3567L46.3301 37.7351C46.2366 37.6951 46.1359 37.6745 46.0342 37.6745C45.9325 37.6745 45.8319 37.6951 45.7384 37.7351L32.3786 43.3567ZM53.6207 61.9511H33.1373V60.4338H53.6207V61.9511ZM42.9997 58.9165V54.3646C42.9997 53.5598 43.3194 52.7879 43.8885 52.2189C44.4576 51.6498 45.2294 51.33 46.0342 51.33C46.8391 51.33 47.6109 51.6498 48.18 52.2189C48.7491 52.7879 49.0688 53.5598 49.0688 54.3646V58.9165H42.9997ZM53.6207 58.9165H50.5861V54.3646C50.5861 53.1574 50.1065 51.9996 49.2529 51.146C48.3993 50.2923 47.2415 49.8128 46.0342 49.8128C44.827 49.8128 43.6692 50.2923 42.8156 51.146C41.9619 51.9996 41.4824 53.1574 41.4824 54.3646V58.9165H34.6546V44.0471L46.0342 39.2524L57.4139 44.0471V46.0195H52.862C52.6608 46.0195 52.4679 46.0995 52.3256 46.2417C52.1833 46.384 52.1034 46.577 52.1034 46.7782V57.3992C52.1034 57.6004 52.1833 57.7934 52.3256 57.9356C52.4679 58.0779 52.6608 58.1579 52.862 58.1579H53.6207V58.9165ZM58.9312 61.9511H55.138V60.4338H58.9312V61.9511ZM55.138 58.9165V58.1579H57.4139V58.9165H55.138ZM74.1041 61.9511H60.4485V59.6751C60.4485 59.4739 60.3686 59.281 60.2263 59.1387C60.084 58.9964 59.8911 58.9165 59.6898 58.9165H58.9312V58.1579H74.1041V61.9511ZM53.6207 56.6406V47.5368H75.6214V56.6406H53.6207Z" fill="#303030"/>
<path d="M77.1388 64.9858H31.6201V66.5031H77.1388V64.9858Z" fill="#303030"/>
<path d="M35.4137 33.1225C36.1183 33.1246 36.8011 32.8777 37.3414 32.4253C38.1932 32.8998 39.1578 33.1342 40.1323 33.1034C41.1068 33.0727 42.0547 32.778 42.8749 32.2508C43.5489 32.8131 44.3984 33.1215 45.2761 33.1225C45.7975 33.1267 46.3143 33.0233 46.794 32.8188C47.2738 32.6142 47.7062 32.313 48.0642 31.9338C48.4223 31.5547 48.6983 31.1057 48.8751 30.6151C49.0519 30.1244 49.1256 29.6026 49.0916 29.0822C49.0576 28.5618 48.9166 28.054 48.6776 27.5905C48.4385 27.127 48.1064 26.7178 47.7021 26.3884C47.2977 26.0591 46.8298 25.8166 46.3275 25.6762C45.8253 25.5358 45.2995 25.5005 44.7829 25.5725C44.298 24.5274 43.4864 23.6683 42.4705 23.1249C41.4545 22.5815 40.2894 22.3832 39.1509 22.5599C38.0124 22.7367 36.9623 23.2789 36.159 24.1048C35.3557 24.9307 34.8427 25.9954 34.6975 27.1383C33.9754 27.3129 33.3424 27.7463 32.9185 28.3564C32.4946 28.9665 32.3092 29.7109 32.3975 30.4485C32.4858 31.1862 32.8416 31.8658 33.3975 32.3587C33.9534 32.8515 34.6708 33.1233 35.4137 33.1225ZM35.4137 28.5707C35.6149 28.5707 35.8078 28.4907 35.9501 28.3485C36.0924 28.2062 36.1723 28.0132 36.1723 27.812C36.1717 26.9039 36.4969 26.0257 37.0887 25.337C37.6806 24.6483 38.4999 24.1948 39.3978 24.0589C40.2957 23.923 41.2125 24.1137 41.9817 24.5964C42.7509 25.079 43.3214 25.8216 43.5896 26.6892C43.619 26.7867 43.6678 26.8772 43.733 26.9554C43.7981 27.0336 43.8784 27.0979 43.9689 27.1444C44.0589 27.1906 44.1572 27.2183 44.2581 27.2257C44.359 27.2331 44.4603 27.2202 44.5561 27.1877C44.7871 27.1038 45.0303 27.0585 45.2761 27.0534C45.6606 27.0506 46.0396 27.1453 46.3776 27.3287C46.7156 27.512 47.0017 27.7781 47.2091 28.1019C47.4164 28.4258 47.5384 28.7969 47.5635 29.1806C47.5886 29.5644 47.5161 29.9482 47.3527 30.2963C47.1893 30.6444 46.9403 30.9455 46.6291 31.1713C46.3178 31.3972 45.9544 31.5405 45.5728 31.5878C45.1912 31.6352 44.8038 31.5851 44.4468 31.4422C44.0897 31.2993 43.7747 31.0683 43.5312 30.7707C43.4668 30.6926 43.3875 30.6281 43.2979 30.581C43.2082 30.534 43.1101 30.5054 43.0092 30.4969C42.988 30.4969 42.9675 30.4969 42.9463 30.4969C42.7637 30.4968 42.5873 30.5625 42.4493 30.682C41.7885 31.238 40.9599 31.5558 40.0966 31.5843C39.2334 31.6128 38.3857 31.3503 37.6896 30.839C37.6099 30.7792 37.5192 30.7357 37.4227 30.711C37.3262 30.6863 37.2257 30.6808 37.1271 30.6949C37.0285 30.709 36.9336 30.7424 36.8479 30.7931C36.7622 30.8439 36.6873 30.911 36.6275 30.9907C36.4878 31.1815 36.3051 31.3366 36.0942 31.4434C35.8833 31.5502 35.6501 31.6056 35.4137 31.6052C35.0113 31.6052 34.6253 31.4454 34.3408 31.1608C34.0562 30.8763 33.8964 30.4904 33.8964 30.088C33.8964 29.6855 34.0562 29.2996 34.3408 29.0151C34.6253 28.7305 35.0113 28.5707 35.4137 28.5707ZM64.2422 37.6744H73.3459C74.3519 37.6744 75.3168 37.2748 76.0281 36.5634C76.7395 35.852 77.1391 34.8872 77.1391 33.8812C77.1391 32.8752 76.7395 31.9103 76.0281 31.199C75.3168 30.4876 74.3519 30.088 73.3459 30.088C72.9141 30.0876 72.4855 30.1618 72.079 30.3072C71.7106 29.5751 71.1508 28.9564 70.4591 28.5169C69.7673 28.0774 68.9695 27.8335 68.1502 27.811C67.331 27.7885 66.5209 27.9883 65.8061 28.3892C65.0913 28.7901 64.4984 29.3772 64.0904 30.088C63.0844 30.1081 62.1276 30.527 61.4305 31.2526C60.7333 31.9782 60.353 32.951 60.3731 33.957C60.3932 34.9631 60.8121 35.9199 61.5377 36.617C62.2633 37.3142 63.2362 37.6945 64.2422 37.6744ZM64.2422 31.6052C64.2763 31.6067 64.3102 31.6105 64.3438 31.6166L64.469 31.6318C64.6298 31.6483 64.7916 31.6131 64.9309 31.5312C65.0703 31.4493 65.1798 31.3251 65.2436 31.1766C65.4881 30.5977 65.907 30.1095 66.442 29.7798C66.977 29.45 67.6015 29.2953 68.2285 29.337C68.8555 29.3788 69.454 29.6149 69.9405 30.0126C70.4271 30.4103 70.7776 30.9497 70.9433 31.5559C70.9753 31.6713 71.0342 31.7775 71.1151 31.8657C71.1961 31.954 71.2967 32.0218 71.4089 32.0637C71.5211 32.1056 71.6416 32.1203 71.7606 32.1067C71.8795 32.0931 71.9936 32.0515 72.0934 31.9853C72.3895 31.7887 72.7274 31.6641 73.0803 31.6216C73.4331 31.5791 73.7911 31.6198 74.1254 31.7405C74.4596 31.8611 74.761 32.0584 75.0054 32.3165C75.2497 32.5746 75.4302 32.8863 75.5324 33.2267C75.6346 33.5671 75.6557 33.9267 75.5939 34.2767C75.5321 34.6267 75.3893 34.9574 75.1767 35.2422C74.9642 35.5271 74.6879 35.7582 74.37 35.9171C74.052 36.0759 73.7013 36.1582 73.3459 36.1571H64.2422C63.6386 36.1571 63.0597 35.9173 62.6328 35.4905C62.206 35.0637 61.9662 34.4848 61.9662 33.8812C61.9662 33.2776 62.206 32.6987 62.6328 32.2718C63.0597 31.845 63.6386 31.6052 64.2422 31.6052Z" fill="#303030"/>
<path d="M91.895 38.3652C91.3634 38.3652 90.8419 38.2638 90.3306 38.0609C89.8234 37.858 89.3526 37.5313 88.9184 37.0809L90.0202 35.5287C90.219 35.7113 90.4118 35.8614 90.5984 35.9791C90.7851 36.0928 90.9637 36.182 91.1341 36.247C91.3045 36.3119 91.4648 36.3565 91.615 36.3809C91.7692 36.4052 91.9132 36.4174 92.0471 36.4174C92.108 36.4174 92.177 36.4154 92.2541 36.4113C92.3312 36.4072 92.4083 36.4012 92.4854 36.393C92.5625 36.3809 92.6376 36.3667 92.7106 36.3504C92.7837 36.3342 92.8506 36.3139 92.9115 36.2896C93.1225 36.2003 93.2889 36.111 93.4106 36.0217C93.2564 35.6484 93.088 35.2609 92.9054 34.8591C92.7269 34.4533 92.5463 34.0475 92.3637 33.6417C92.1811 33.2319 92.0005 32.8261 91.8219 32.4243C91.6434 32.0226 91.477 31.6371 91.3228 31.2678L93.1002 30.5252L93.6419 31.84C93.8164 32.2701 94.0254 32.7814 94.2689 33.3739C94.5124 33.9623 94.7924 34.6299 95.1089 35.3765C95.1819 35.5551 95.2489 35.7113 95.3097 35.8452C95.3706 35.9791 95.4416 36.0907 95.5228 36.18C95.608 36.2693 95.7074 36.3362 95.8211 36.3809C95.9387 36.4214 96.0889 36.4417 96.2715 36.4417C96.4013 36.4417 96.5251 36.4661 96.6428 36.5148C96.7605 36.5635 96.8619 36.6325 96.9471 36.7217C97.0364 36.807 97.1074 36.9084 97.1602 37.0261C97.2129 37.1438 97.2393 37.2696 97.2393 37.4035C97.2393 37.5374 97.2129 37.6632 97.1602 37.7809C97.1074 37.8986 97.0364 38 96.9471 38.0852C96.8619 38.1745 96.7605 38.2435 96.6428 38.2922C96.5251 38.3409 96.4013 38.3652 96.2715 38.3652C96.024 38.3652 95.8048 38.349 95.6141 38.3165C95.4274 38.2841 95.259 38.2374 95.1089 38.1765C94.9628 38.1197 94.8309 38.0507 94.7132 37.9696C94.5996 37.8843 94.4921 37.791 94.3906 37.6896C94.2811 37.7626 94.1654 37.8336 94.0437 37.9026C93.9219 37.9675 93.7819 38.0325 93.6237 38.0974C93.3802 38.1907 93.1164 38.2577 92.8324 38.2983C92.5524 38.3429 92.2399 38.3652 91.895 38.3652ZM100.893 40.3678L99.7247 41.5426L98.5682 40.3861L97.4239 41.5304L96.243 40.3557L97.4117 39.1809L98.5682 40.3374L99.7126 39.193L100.893 40.3678ZM95.0074 37.4035C95.0074 37.2696 95.0337 37.1438 95.0865 37.0261C95.1352 36.9084 95.2021 36.807 95.2874 36.7217C95.3726 36.6325 95.474 36.5635 95.5917 36.5148C95.7094 36.4661 95.8352 36.4417 95.9691 36.4417H96.6447H96.9369C97.1195 36.4417 97.3204 36.4336 97.5395 36.4174C97.7587 36.4012 97.9697 36.3748 98.1726 36.3383C98.3755 36.3017 98.5581 36.253 98.7204 36.1922C98.8868 36.1272 99.0085 36.0461 99.0856 35.9487C99.1302 35.8797 99.1526 35.7864 99.1526 35.6687C99.1526 35.4942 99.11 35.2872 99.0247 35.0478C98.9436 34.8084 98.8462 34.5649 98.7326 34.3174C98.6189 34.0699 98.5013 33.8325 98.3795 33.6052C98.2618 33.378 98.1665 33.1893 98.0934 33.0391L99.8282 32.187C99.954 32.4061 100.076 32.6658 100.193 32.9661C100.311 33.2623 100.417 33.5687 100.51 33.8852C100.603 34.1977 100.678 34.5061 100.735 34.8104C100.792 35.1107 100.82 35.3725 100.82 35.5957C100.82 36.0055 100.747 36.3809 100.601 36.7217C100.431 37.1032 100.197 37.4197 99.9013 37.6713C99.605 37.9188 99.25 38.1014 98.836 38.2191C98.7143 38.2516 98.5621 38.278 98.3795 38.2983C98.1969 38.3186 98.0123 38.3328 97.8256 38.3409C97.6389 38.353 97.4624 38.3591 97.296 38.3591C97.1297 38.3632 96.9998 38.3652 96.9065 38.3652H96.0239H95.9691C95.8352 38.3652 95.7094 38.3409 95.5917 38.2922C95.474 38.2435 95.3726 38.1745 95.2874 38.0852C95.2021 38 95.1352 37.8986 95.0865 37.7809C95.0337 37.6632 95.0074 37.5374 95.0074 37.4035ZM106.772 38.3652C106.682 38.3652 106.556 38.3591 106.394 38.347C106.232 38.3348 106.057 38.2901 105.871 38.213C105.781 38.7162 105.613 39.193 105.365 39.6435C105.122 40.098 104.82 40.522 104.458 40.9157C104.097 41.3133 103.685 41.6786 103.223 42.0113C102.76 42.3441 102.267 42.6423 101.744 42.9061L100.63 41.3661C100.918 41.22 101.208 41.0597 101.5 40.8852C101.792 40.7148 102.07 40.5322 102.334 40.3374C102.602 40.1467 102.849 39.9458 103.077 39.7348C103.308 39.5278 103.509 39.3128 103.679 39.0896C103.85 38.8664 103.984 38.6371 104.081 38.4017C104.178 38.1704 104.227 37.9351 104.227 37.6957C104.227 37.6835 104.225 37.6652 104.221 37.6409C104.221 37.6165 104.221 37.5922 104.221 37.5678C104.221 37.5435 104.219 37.5252 104.215 37.513C104.215 37.5009 104.215 37.5029 104.215 37.5191V37.5252C104.187 37.2899 104.146 37.0646 104.093 36.8496C104.04 36.6345 103.974 36.4154 103.892 36.1922C103.815 35.969 103.724 35.7357 103.618 35.4922C103.513 35.2446 103.395 34.9748 103.265 34.6826L105.025 33.9157C105.187 34.4026 105.339 34.8084 105.481 35.133C105.623 35.4577 105.761 35.7174 105.895 35.9122C106.033 36.107 106.171 36.2449 106.309 36.3261C106.447 36.4032 106.593 36.4417 106.747 36.4417H106.778C106.912 36.4417 107.037 36.4681 107.155 36.5209C107.273 36.5736 107.374 36.6446 107.459 36.7339C107.549 36.8191 107.618 36.9206 107.666 37.0383C107.719 37.1559 107.745 37.2797 107.745 37.4096C107.745 37.5435 107.719 37.6693 107.666 37.787C107.618 37.9046 107.549 38.0061 107.459 38.0913C107.374 38.1765 107.273 38.2435 107.155 38.2922C107.037 38.3409 106.909 38.3652 106.772 38.3652ZM105.739 37.4035C105.739 37.2696 105.765 37.1438 105.818 37.0261C105.867 36.9084 105.936 36.807 106.025 36.7217C106.11 36.6325 106.214 36.5635 106.335 36.5148C106.453 36.4661 106.579 36.4417 106.713 36.4417H107.881C108.539 36.4417 109.141 36.4032 109.689 36.3261C110.241 36.2449 110.756 36.1374 111.235 36.0035C111.714 35.8696 112.167 35.7154 112.593 35.5409C113.023 35.3623 113.445 35.1777 113.859 34.987C113.583 34.9099 113.305 34.8145 113.025 34.7009C112.749 34.5872 112.471 34.4777 112.191 34.3722C111.915 34.2667 111.639 34.1774 111.363 34.1043C111.087 34.0272 110.813 33.9887 110.541 33.9887C110.355 33.9887 110.172 34.0394 109.994 34.1409C109.815 34.2423 109.653 34.358 109.507 34.4878C109.36 34.6177 109.237 34.7455 109.135 34.8713C109.038 34.993 108.977 35.0762 108.953 35.1209L107.547 34.2139C107.701 33.942 107.883 33.6762 108.094 33.4165C108.305 33.1568 108.537 32.9275 108.788 32.7287C109.044 32.5258 109.318 32.3635 109.61 32.2417C109.906 32.12 110.217 32.0591 110.541 32.0591C110.781 32.0591 111.02 32.0855 111.26 32.1383C111.499 32.187 111.736 32.2519 111.972 32.333C112.211 32.4142 112.447 32.5075 112.678 32.613C112.909 32.7145 113.138 32.818 113.366 32.9235C113.585 33.0249 113.802 33.1264 114.017 33.2278C114.236 33.3252 114.461 33.4165 114.693 33.5017C114.924 33.5829 115.163 33.6499 115.411 33.7026C115.658 33.7554 115.92 33.7838 116.196 33.7878L116.044 35.6565L115.18 36.0704C114.827 36.2409 114.476 36.4174 114.127 36.6C113.778 36.7786 113.42 36.953 113.055 37.1235C112.694 37.2899 112.321 37.4501 111.935 37.6043C111.554 37.7545 111.152 37.8864 110.73 38C110.308 38.1096 109.862 38.1968 109.391 38.2617C108.92 38.3307 108.417 38.3652 107.881 38.3652H106.761H106.713C106.579 38.3652 106.453 38.3388 106.335 38.2861C106.214 38.2374 106.11 38.1704 106.025 38.0852C105.936 38 105.867 37.8986 105.818 37.7809C105.765 37.6632 105.739 37.5374 105.739 37.4035ZM110.286 28.7661L111.637 30.1174L110.286 31.4687L108.934 30.1174L110.286 28.7661ZM95.3054 60.513C94.7292 60.513 94.2341 60.4359 93.8202 60.2817C93.4063 60.1235 93.0776 59.9023 92.8341 59.6183C92.6921 59.4357 92.5886 59.2388 92.5237 59.0278C92.4628 58.8128 92.4324 58.6078 92.4324 58.413C92.4324 58.2426 92.4466 58.0884 92.475 57.9504C92.5034 57.8125 92.5379 57.6948 92.5785 57.5974C92.7408 57.2565 92.9396 56.9583 93.175 56.7026C93.4144 56.447 93.662 56.2258 93.9176 56.0391C94.1773 55.8484 94.433 55.6901 94.6846 55.5643C94.9402 55.4386 95.1675 55.3351 95.3663 55.2539C95.3582 55.1606 95.3501 55.0652 95.342 54.9678C95.3379 54.8704 95.3318 54.7771 95.3237 54.6878L95.2933 54.3043L97.1924 53.8965C97.1965 53.933 97.2046 54.0183 97.2167 54.1522C97.233 54.2861 97.2492 54.4464 97.2654 54.633C97.2857 54.8157 97.306 55.0125 97.3263 55.2235C97.3507 55.4304 97.371 55.6252 97.3872 55.8078C97.4075 55.9904 97.4237 56.1487 97.4359 56.2826C97.4521 56.4165 97.4623 56.4977 97.4663 56.5261C97.5272 57.0252 97.5779 57.4351 97.6185 57.7557C97.6631 58.0762 97.6996 58.3319 97.7281 58.5226C97.7605 58.7093 97.7869 58.8452 97.8072 58.9304C97.8275 59.0116 97.8437 59.0664 97.8559 59.0948C97.9167 59.2246 98.0081 59.3159 98.1298 59.3687C98.2556 59.4174 98.422 59.4417 98.6289 59.4417C98.7588 59.4417 98.8825 59.4661 99.0002 59.5148C99.1179 59.5635 99.2194 59.6325 99.3046 59.7217C99.3939 59.807 99.4649 59.9084 99.5176 60.0261C99.5704 60.1438 99.5967 60.2696 99.5967 60.4035C99.5967 60.5374 99.5704 60.6632 99.5176 60.7809C99.4649 60.8986 99.3939 61 99.3046 61.0852C99.2194 61.1704 99.1179 61.2374 99.0002 61.2861C98.8825 61.3388 98.7588 61.3652 98.6289 61.3652C98.5437 61.3652 98.4483 61.3612 98.3428 61.353C98.2373 61.349 98.1257 61.3368 98.0081 61.3165C97.8944 61.3003 97.7747 61.2739 97.6489 61.2374C97.5272 61.2049 97.4054 61.1603 97.2837 61.1035C97.1133 61.0223 96.9631 60.931 96.8333 60.8296C96.7075 60.7241 96.5857 60.5922 96.4681 60.4339C96.2611 60.4623 96.0602 60.4826 95.8654 60.4948C95.6747 60.507 95.4881 60.513 95.3054 60.513ZM95.2689 58.6017C95.3541 58.6017 95.4414 58.5997 95.5307 58.5957C95.624 58.5875 95.7133 58.5794 95.7985 58.5713C95.7782 58.4333 95.7559 58.2791 95.7315 58.1087C95.7112 57.9383 95.691 57.7557 95.6707 57.5609L95.6098 57.0009C95.4556 57.078 95.2831 57.1713 95.0924 57.2809C94.9017 57.3864 94.7211 57.5 94.5507 57.6217C94.3843 57.7394 94.2443 57.8612 94.1307 57.987C94.017 58.1087 93.9602 58.2223 93.9602 58.3278C93.9602 58.3806 94.0049 58.4252 94.0941 58.4617C94.1875 58.4942 94.3011 58.5226 94.435 58.547C94.5689 58.5672 94.711 58.5814 94.8611 58.5896C95.0112 58.5977 95.1472 58.6017 95.2689 58.6017ZM97.6207 60.4035C97.6207 60.2696 97.647 60.1438 97.6998 60.0261C97.7485 59.9084 97.8154 59.807 97.9007 59.7217C97.9859 59.6325 98.0873 59.5635 98.205 59.5148C98.3227 59.4661 98.4485 59.4417 98.5824 59.4417H99.2093H99.4833C99.6334 59.4417 99.7896 59.4357 99.952 59.4235C100.118 59.4113 100.273 59.387 100.415 59.3504C100.561 59.3139 100.688 59.2632 100.798 59.1983C100.912 59.1333 100.993 59.0461 101.042 58.9365C101.074 58.8635 101.09 58.7539 101.09 58.6078C101.09 58.5104 101.062 58.3643 101.005 58.1696C100.948 57.9748 100.873 57.7597 100.78 57.5243C100.686 57.2849 100.581 57.0354 100.463 56.7757C100.346 56.5159 100.226 56.2704 100.104 56.0391L101.845 55.1748C101.959 55.4304 102.07 55.7023 102.18 55.9904C102.293 56.2786 102.395 56.5707 102.484 56.867C102.573 57.1632 102.644 57.4594 102.697 57.7557C102.754 58.0478 102.782 58.3278 102.782 58.5957C102.782 59.0055 102.709 59.3809 102.563 59.7217C102.393 60.1032 102.159 60.4197 101.863 60.6713C101.567 60.9188 101.212 61.1014 100.798 61.2191C100.555 61.2881 100.321 61.3287 100.098 61.3409C99.8749 61.3571 99.6659 61.3652 99.4711 61.3652H98.6372H98.5824C98.4485 61.3652 98.3227 61.3409 98.205 61.2922C98.0873 61.2435 97.9859 61.1745 97.9007 61.0852C97.8154 61 97.7485 60.8986 97.6998 60.7809C97.647 60.6632 97.6207 60.5374 97.6207 60.4035ZM100.634 51.7357L101.985 53.087L100.634 54.4383L99.2824 53.087L100.634 51.7357ZM106.728 61.3652C106.229 61.3652 105.801 61.3023 105.444 61.1765C105.087 61.0548 104.779 60.8661 104.519 60.6104C104.357 60.4481 104.231 60.2777 104.141 60.0991C104.056 59.9206 103.993 59.7461 103.953 59.5757C103.916 59.4012 103.894 59.2368 103.886 59.0826C103.882 58.9284 103.88 58.7965 103.88 58.687V58.5957C103.884 58.4455 103.888 58.2304 103.892 57.9504C103.9 57.6664 103.904 57.3336 103.904 56.9522C103.904 56.5707 103.902 56.1507 103.898 55.6922C103.894 55.2336 103.882 54.7771 103.861 54.3226C103.845 53.8641 103.819 53.4238 103.782 53.0017C103.75 52.5797 103.703 52.2125 103.642 51.9L105.462 51.3461C105.515 51.6139 105.558 51.9304 105.59 52.2957C105.623 52.6568 105.649 53.0362 105.669 53.4339C105.694 53.8316 105.71 54.2313 105.718 54.633C105.73 55.0348 105.738 55.4081 105.742 55.753C105.746 56.0574 105.734 56.3557 105.706 56.6478C105.681 56.9359 105.661 57.22 105.645 57.5C105.629 57.7759 105.629 58.0458 105.645 58.3096C105.665 58.5693 105.722 58.8229 105.815 59.0704C105.852 59.1638 105.897 59.2348 105.949 59.2835C106.006 59.3322 106.071 59.3687 106.144 59.393C106.217 59.4133 106.296 59.4255 106.381 59.4296C106.471 59.4336 106.568 59.4357 106.674 59.4357H106.728C106.858 59.4357 106.982 59.462 107.1 59.5148C107.217 59.5675 107.319 59.6386 107.404 59.7278C107.493 59.813 107.564 59.9145 107.617 60.0322C107.67 60.1499 107.696 60.2736 107.696 60.4035C107.696 60.5374 107.67 60.6632 107.617 60.7809C107.564 60.8986 107.493 61 107.404 61.0852C107.319 61.1745 107.217 61.2435 107.1 61.2922C106.982 61.3409 106.858 61.3652 106.728 61.3652ZM105.739 60.4035C105.739 60.2696 105.765 60.1438 105.818 60.0261C105.867 59.9084 105.936 59.807 106.025 59.7217C106.11 59.6325 106.214 59.5635 106.335 59.5148C106.453 59.4661 106.579 59.4417 106.713 59.4417H107.881C108.539 59.4417 109.141 59.4032 109.689 59.3261C110.241 59.2449 110.756 59.1374 111.235 59.0035C111.714 58.8696 112.167 58.7154 112.593 58.5409C113.023 58.3623 113.445 58.1777 113.859 57.987C113.583 57.9099 113.305 57.8145 113.025 57.7009C112.749 57.5872 112.471 57.4777 112.191 57.3722C111.915 57.2667 111.639 57.1774 111.363 57.1043C111.087 57.0272 110.813 56.9887 110.541 56.9887C110.355 56.9887 110.172 57.0394 109.994 57.1409C109.815 57.2423 109.653 57.358 109.507 57.4878C109.36 57.6177 109.237 57.7455 109.135 57.8713C109.038 57.993 108.977 58.0762 108.953 58.1209L107.547 57.2139C107.701 56.942 107.883 56.6762 108.094 56.4165C108.305 56.1568 108.537 55.9275 108.788 55.7287C109.044 55.5258 109.318 55.3635 109.61 55.2417C109.906 55.12 110.217 55.0591 110.541 55.0591C110.781 55.0591 111.02 55.0855 111.26 55.1383C111.499 55.187 111.736 55.2519 111.972 55.333C112.211 55.4142 112.447 55.5075 112.678 55.613C112.909 55.7145 113.138 55.818 113.366 55.9235C113.585 56.0249 113.802 56.1264 114.017 56.2278C114.236 56.3252 114.461 56.4165 114.693 56.5017C114.924 56.5829 115.163 56.6499 115.411 56.7026C115.658 56.7554 115.92 56.7838 116.196 56.7878L116.044 58.6565L115.18 59.0704C114.827 59.2409 114.476 59.4174 114.127 59.6C113.778 59.7786 113.42 59.953 113.055 60.1235C112.694 60.2899 112.321 60.4501 111.935 60.6043C111.554 60.7545 111.152 60.8864 110.73 61C110.308 61.1096 109.862 61.1968 109.391 61.2617C108.92 61.3307 108.417 61.3652 107.881 61.3652H106.761H106.713C106.579 61.3652 106.453 61.3388 106.335 61.2861C106.214 61.2374 106.11 61.1704 106.025 61.0852C105.936 61 105.867 60.8986 105.818 60.7809C105.765 60.6632 105.739 60.5374 105.739 60.4035ZM110.286 51.7661L111.637 53.1174L110.286 54.4687L108.934 53.1174L110.286 51.7661Z" fill="#303030"/>
<defs>
<linearGradient id="paint0_linear_2611_57722" x1="5.08426" y1="6.15789" x2="151.122" y2="67.5913" gradientUnits="userSpaceOnUse">
<stop stop-color="#EAEAEA"/>
<stop offset="1" stop-color="#BDBDBD"/>
</linearGradient>
</defs>
</svg>
