<svg width="125" height="47" viewBox="0 0 125 47" fill="none" xmlns="http://www.w3.org/2000/svg">
<path d="M30.4824 28.8127C30.6836 28.8127 30.8766 28.7328 31.0188 28.5905C31.1611 28.4482 31.241 28.2553 31.241 28.0541V24.2608C31.241 24.0596 31.1611 23.8667 31.0188 23.7244C30.8766 23.5821 30.6836 23.5022 30.4824 23.5022H25.9305C25.7293 23.5022 25.5364 23.5821 25.3941 23.7244C25.2518 23.8667 25.1719 24.0596 25.1719 24.2608V28.0541C25.1719 28.2553 25.2518 28.4482 25.3941 28.5905C25.5364 28.7328 25.7293 28.8127 25.9305 28.8127H30.4824ZM26.6892 25.0195H29.7237V27.2954H26.6892V25.0195Z" fill="#303030"/>
<path d="M34.2756 34.1233H32.7583V35.6406H34.2756V34.1233Z" fill="#303030"/>
<path d="M47.9313 33.3646V31.0887C47.9313 30.8875 47.8513 30.6945 47.7091 30.5522C47.5668 30.4099 47.3738 30.33 47.1726 30.33H44.8967V29.5714H47.9313V28.0541H44.138C43.9368 28.0541 43.7439 28.134 43.6016 28.2763C43.4593 28.4186 43.3794 28.6115 43.3794 28.8127V31.0887C43.3794 31.2899 43.4593 31.4828 43.6016 31.6251C43.7439 31.7674 43.9368 31.8473 44.138 31.8473H46.414V32.6059H43.3794V34.1232H47.1726C47.3738 34.1232 47.5668 34.0433 47.7091 33.901C47.8513 33.7588 47.9313 33.5658 47.9313 33.3646ZM50.2072 31.8473H51.7245V34.1232H53.2418V28.8127C53.2418 28.6115 53.1619 28.4186 53.0196 28.2763C52.8773 28.134 52.6843 28.0541 52.4831 28.0541H49.4486C49.2474 28.0541 49.0544 28.134 48.9121 28.2763C48.7698 28.4186 48.6899 28.6115 48.6899 28.8127V34.1232H50.2072V31.8473ZM51.7245 29.5714V30.33H50.2072V29.5714H51.7245ZM54.7591 34.1232H58.5523V32.6059H55.5177V28.0541H54.0004V33.3646C54.0004 33.5658 54.0804 33.7588 54.2226 33.901C54.3649 34.0433 54.5579 34.1232 54.7591 34.1232ZM60.0696 34.1232H63.8628V32.6059H60.8282V31.8473H63.1042V30.33H60.8282V29.5714H63.8628V28.0541H60.0696C59.8684 28.0541 59.6754 28.134 59.5331 28.2763C59.3909 28.4186 59.3109 28.6115 59.3109 28.8127V33.3646C59.3109 33.5658 59.3909 33.7588 59.5331 33.901C59.6754 34.0433 59.8684 34.1232 60.0696 34.1232Z" fill="#303030"/>
<path d="M65.38 37.1579C65.5812 37.1579 65.7742 37.0779 65.9165 36.9356C66.0588 36.7934 66.1387 36.6004 66.1387 36.3992V25.7782C66.1387 25.577 66.0588 25.384 65.9165 25.2417C65.7742 25.0995 65.5812 25.0195 65.38 25.0195H47.9312V23.6843L49.1526 24.2002C49.2467 24.2385 49.347 24.259 49.4485 24.2609C49.649 24.2587 49.8407 24.1781 49.9825 24.0363C50.1243 23.8945 50.205 23.7028 50.2071 23.5022V20.4677C50.2077 20.3186 50.164 20.1727 50.0817 20.0485C49.9993 19.9242 49.8819 19.8272 49.7444 19.7697L44.8966 17.7289V12.8812C44.8966 12.68 44.8167 12.487 44.6744 12.3448C44.5321 12.2025 44.3392 12.1226 44.138 12.1226H40.3448C40.1435 12.1226 39.9506 12.2025 39.8083 12.3448C39.666 12.487 39.5861 12.68 39.5861 12.8812V15.4909L35.3301 13.7005C35.2369 13.6593 35.1361 13.6379 35.0342 13.6379C34.9323 13.6379 34.8315 13.6593 34.7384 13.7005L20.3241 19.7697C20.1866 19.8272 20.0692 19.9242 19.9868 20.0485C19.9044 20.1727 19.8608 20.3186 19.8613 20.4677V23.5022C19.862 23.6272 19.8935 23.7501 19.953 23.8599C20.0126 23.9697 20.0984 24.0632 20.2027 24.1319C20.3064 24.2021 20.426 24.2451 20.5506 24.2571C20.6752 24.269 20.8008 24.2494 20.9159 24.2002L22.1373 23.6843V37.9165H21.3786C21.1774 37.9165 20.9845 37.9964 20.8422 38.1387C20.6999 38.281 20.62 38.4739 20.62 38.6751V42.4684H66.1387V40.9511H64.6214V37.1579H65.38ZM41.1034 13.6398H43.3793V17.0917L41.1034 16.1282V13.6398ZM21.3786 22.3567V20.9684L35.0342 15.2178L48.6898 20.9684V22.3567L35.3301 16.7351C35.2366 16.6951 35.1359 16.6745 35.0342 16.6745C34.9325 16.6745 34.8319 16.6951 34.7384 16.7351L21.3786 22.3567ZM42.6207 40.9511H22.1373V39.4338H42.6207V40.9511ZM31.9997 37.9165V33.3646C31.9997 32.5598 32.3194 31.7879 32.8885 31.2189C33.4576 30.6498 34.2294 30.33 35.0342 30.33C35.8391 30.33 36.6109 30.6498 37.18 31.2189C37.7491 31.7879 38.0688 32.5598 38.0688 33.3646V37.9165H31.9997ZM42.6207 37.9165H39.5861V33.3646C39.5861 32.1574 39.1065 30.9996 38.2529 30.146C37.3993 29.2923 36.2415 28.8128 35.0342 28.8128C33.827 28.8128 32.6692 29.2923 31.8156 30.146C30.9619 30.9996 30.4824 32.1574 30.4824 33.3646V37.9165H23.6546V23.0471L35.0342 18.2524L46.4139 23.0471V25.0195H41.862C41.6608 25.0195 41.4679 25.0995 41.3256 25.2417C41.1833 25.384 41.1034 25.577 41.1034 25.7782V36.3992C41.1034 36.6004 41.1833 36.7934 41.3256 36.9356C41.4679 37.0779 41.6608 37.1579 41.862 37.1579H42.6207V37.9165ZM47.9312 40.9511H44.138V39.4338H47.9312V40.9511ZM44.138 37.9165V37.1579H46.4139V37.9165H44.138ZM63.1041 40.9511H49.4485V38.6751C49.4485 38.4739 49.3686 38.281 49.2263 38.1387C49.084 37.9964 48.8911 37.9165 48.6898 37.9165H47.9312V37.1579H63.1041V40.9511ZM42.6207 35.6406V26.5368H64.6214V35.6406H42.6207Z" fill="#303030"/>
<path d="M66.1386 43.9856H20.6199V45.5029H66.1386V43.9856Z" fill="#303030"/>
<path d="M24.4132 12.1225C25.1178 12.1246 25.8006 11.8777 26.3409 11.4253C27.1927 11.8998 28.1573 12.1342 29.1318 12.1034C30.1063 12.0727 31.0543 11.778 31.8744 11.2508C32.5484 11.8131 33.3979 12.1215 34.2756 12.1225C34.7971 12.1267 35.3138 12.0233 35.7936 11.8188C36.2733 11.6142 36.7057 11.313 37.0638 10.9338C37.4218 10.5547 37.6979 10.1057 37.8746 9.61508C38.0514 9.12444 38.1251 8.60261 38.0911 8.08221C38.0571 7.5618 37.9161 7.05399 37.6771 6.59051C37.438 6.12702 37.1059 5.71781 36.7016 5.38844C36.2972 5.05907 35.8293 4.81662 35.327 4.67623C34.8248 4.53584 34.299 4.50053 33.7824 4.5725C33.2975 3.52738 32.4859 2.66831 31.47 2.12489C30.454 1.58147 29.2889 1.38319 28.1505 1.55995C27.012 1.73671 25.9618 2.27893 25.1585 3.1048C24.3552 3.93067 23.8422 4.99539 23.697 6.13834C22.9749 6.31291 22.3419 6.7463 21.918 7.3564C21.4941 7.96649 21.3087 8.7109 21.397 9.44855C21.4853 10.1862 21.8411 10.8658 22.397 11.3587C22.9529 11.8515 23.6703 12.1233 24.4132 12.1225ZM24.4132 7.57066C24.6144 7.57066 24.8073 7.49073 24.9496 7.34846C25.0919 7.20619 25.1718 7.01322 25.1718 6.81202C25.1712 5.90392 25.4964 5.02574 26.0883 4.33704C26.6801 3.64834 27.4994 3.19483 28.3973 3.05892C29.2952 2.923 30.212 3.1137 30.9812 3.59637C31.7504 4.07903 32.3209 4.82163 32.5891 5.68922C32.6185 5.78666 32.6673 5.87718 32.7325 5.95538C32.7976 6.03358 32.8779 6.09787 32.9684 6.14441C33.0584 6.19063 33.1567 6.21828 33.2576 6.22571C33.3585 6.23314 33.4598 6.22019 33.5556 6.18765C33.7866 6.10384 34.0299 6.05847 34.2756 6.05337C34.6601 6.05061 35.0391 6.14532 35.3771 6.32868C35.7151 6.51204 36.0012 6.77807 36.2086 7.10192C36.416 7.42576 36.5379 7.79688 36.563 8.18062C36.5881 8.56435 36.5156 8.94819 36.3522 9.29631C36.1888 9.64442 35.9398 9.94546 35.6286 10.1713C35.3174 10.3972 34.9539 10.5405 34.5723 10.5878C34.1907 10.6352 33.8033 10.5851 33.4463 10.4422C33.0892 10.2993 32.7742 10.0683 32.5307 9.77073C32.4664 9.69257 32.387 9.62807 32.2974 9.58103C32.2078 9.534 32.1096 9.50538 32.0087 9.49686C31.9875 9.49686 31.967 9.49686 31.9458 9.49686C31.7633 9.49678 31.5868 9.5625 31.4489 9.68197C30.788 10.238 29.9594 10.5558 29.0962 10.5843C28.2329 10.6128 27.3852 10.3503 26.6891 9.83901C26.6094 9.77923 26.5187 9.73574 26.4222 9.71102C26.3257 9.68629 26.2253 9.68082 26.1266 9.69491C26.028 9.709 25.9331 9.74237 25.8474 9.79313C25.7617 9.84389 25.6868 9.91104 25.627 9.99074C25.4874 10.1815 25.3046 10.3366 25.0937 10.4434C24.8828 10.5502 24.6496 10.6056 24.4132 10.6052C24.0108 10.6052 23.6248 10.4454 23.3403 10.1608C23.0557 9.87629 22.8959 9.49036 22.8959 9.08795C22.8959 8.68554 23.0557 8.29961 23.3403 8.01507C23.6248 7.73052 24.0108 7.57066 24.4132 7.57066ZM53.2417 16.6744H62.3454C63.3515 16.6744 64.3163 16.2748 65.0276 15.5634C65.739 14.852 66.1387 13.8872 66.1387 12.8812C66.1387 11.8752 65.739 10.9103 65.0276 10.199C64.3163 9.48759 63.3515 9.08795 62.3454 9.08795C61.9136 9.0876 61.485 9.16177 61.0785 9.3072C60.7101 8.5751 60.1503 7.95644 59.4586 7.51693C58.7668 7.07742 57.969 6.83346 57.1497 6.81098C56.3305 6.78849 55.5204 6.98832 54.8056 7.38923C54.0908 7.79013 53.4979 8.37716 53.09 9.08795C52.0839 9.10807 51.1271 9.52701 50.43 10.2526C49.7328 10.9782 49.3525 11.951 49.3726 12.957C49.3927 13.9631 49.8117 14.9199 50.5373 15.617C51.2628 16.3142 52.2357 16.6945 53.2417 16.6744ZM53.2417 10.6052C53.2758 10.6067 53.3098 10.6105 53.3433 10.6166L53.4685 10.6318C53.6293 10.6483 53.7911 10.6131 53.9304 10.5312C54.0698 10.4493 54.1793 10.3251 54.2431 10.1766C54.4876 9.59772 54.9066 9.10946 55.4415 8.77975C55.9765 8.45005 56.601 8.29529 57.228 8.33702C57.855 8.37875 58.4535 8.61489 58.94 9.01258C59.4266 9.41028 59.7771 9.94975 59.9428 10.5559C59.9748 10.6713 60.0337 10.7775 60.1147 10.8657C60.1956 10.954 60.2963 11.0218 60.4084 11.0637C60.5206 11.1056 60.6411 11.1203 60.7601 11.1067C60.879 11.0931 60.9931 11.0515 61.0929 10.9853C61.389 10.7887 61.727 10.6641 62.0798 10.6216C62.4327 10.5791 62.7906 10.6198 63.1249 10.7405C63.4592 10.8611 63.7605 11.0584 64.0049 11.3165C64.2492 11.5746 64.4297 11.8863 64.5319 12.2267C64.6341 12.5671 64.6552 12.9267 64.5934 13.2767C64.5316 13.6267 64.3888 13.9574 64.1762 14.2422C63.9637 14.5271 63.6874 14.7582 63.3695 14.9171C63.0515 15.0759 62.7008 15.1582 62.3454 15.1571H53.2417C52.6381 15.1571 52.0592 14.9173 51.6324 14.4905C51.2055 14.0637 50.9658 13.4848 50.9658 12.8812C50.9658 12.2776 51.2055 11.6987 51.6324 11.2718C52.0592 10.845 52.6381 10.6052 53.2417 10.6052Z" fill="#303030"/>
<path d="M80.895 17.3652C80.3634 17.3652 79.8419 17.2638 79.3306 17.0609C78.8234 16.858 78.3526 16.5313 77.9184 16.0809L79.0202 14.5287C79.219 14.7113 79.4118 14.8614 79.5984 14.9791C79.7851 15.0928 79.9637 15.182 80.1341 15.247C80.3045 15.3119 80.4648 15.3565 80.615 15.3809C80.7692 15.4052 80.9132 15.4174 81.0471 15.4174C81.108 15.4174 81.177 15.4154 81.2541 15.4113C81.3312 15.4072 81.4083 15.4012 81.4854 15.393C81.5625 15.3809 81.6376 15.3667 81.7106 15.3504C81.7837 15.3342 81.8506 15.3139 81.9115 15.2896C82.1225 15.2003 82.2889 15.111 82.4106 15.0217C82.2564 14.6484 82.088 14.2609 81.9054 13.8591C81.7269 13.4533 81.5463 13.0475 81.3637 12.6417C81.1811 12.2319 81.0005 11.8261 80.8219 11.4243C80.6434 11.0226 80.477 10.6371 80.3228 10.2678L82.1002 9.52522L82.6419 10.84C82.8164 11.2701 83.0254 11.7814 83.2689 12.3739C83.5124 12.9623 83.7924 13.6299 84.1089 14.3765C84.1819 14.5551 84.2489 14.7113 84.3097 14.8452C84.3706 14.9791 84.4416 15.0907 84.5228 15.18C84.608 15.2693 84.7074 15.3362 84.8211 15.3809C84.9387 15.4214 85.0889 15.4417 85.2715 15.4417C85.4013 15.4417 85.5251 15.4661 85.6428 15.5148C85.7605 15.5635 85.8619 15.6325 85.9471 15.7217C86.0364 15.807 86.1074 15.9084 86.1602 16.0261C86.2129 16.1438 86.2393 16.2696 86.2393 16.4035C86.2393 16.5374 86.2129 16.6632 86.1602 16.7809C86.1074 16.8986 86.0364 17 85.9471 17.0852C85.8619 17.1745 85.7605 17.2435 85.6428 17.2922C85.5251 17.3409 85.4013 17.3652 85.2715 17.3652C85.024 17.3652 84.8048 17.349 84.6141 17.3165C84.4274 17.2841 84.259 17.2374 84.1089 17.1765C83.9628 17.1197 83.8309 17.0507 83.7132 16.9696C83.5996 16.8843 83.4921 16.791 83.3906 16.6896C83.2811 16.7626 83.1654 16.8336 83.0437 16.9026C82.9219 16.9675 82.7819 17.0325 82.6237 17.0974C82.3802 17.1907 82.1164 17.2577 81.8324 17.2983C81.5524 17.3429 81.2399 17.3652 80.895 17.3652ZM89.8934 19.3678L88.7247 20.5426L87.5682 19.3861L86.4239 20.5304L85.243 19.3557L86.4117 18.1809L87.5682 19.3374L88.7126 18.193L89.8934 19.3678ZM84.0074 16.4035C84.0074 16.2696 84.0337 16.1438 84.0865 16.0261C84.1352 15.9084 84.2021 15.807 84.2874 15.7217C84.3726 15.6325 84.474 15.5635 84.5917 15.5148C84.7094 15.4661 84.8352 15.4417 84.9691 15.4417H85.6447H85.9369C86.1195 15.4417 86.3204 15.4336 86.5395 15.4174C86.7587 15.4012 86.9697 15.3748 87.1726 15.3383C87.3755 15.3017 87.5581 15.253 87.7204 15.1922C87.8868 15.1272 88.0085 15.0461 88.0856 14.9487C88.1302 14.8797 88.1526 14.7864 88.1526 14.6687C88.1526 14.4942 88.11 14.2872 88.0247 14.0478C87.9436 13.8084 87.8462 13.5649 87.7326 13.3174C87.6189 13.0699 87.5013 12.8325 87.3795 12.6052C87.2618 12.378 87.1665 12.1893 87.0934 12.0391L88.8282 11.187C88.954 11.4061 89.0758 11.6658 89.1934 11.9661C89.3111 12.2623 89.4166 12.5687 89.51 12.8852C89.6033 13.1977 89.6784 13.5061 89.7352 13.8104C89.792 14.1107 89.8204 14.3725 89.8204 14.5957C89.8204 15.0055 89.7474 15.3809 89.6013 15.7217C89.4308 16.1032 89.1975 16.4197 88.9013 16.6713C88.605 16.9188 88.25 17.1014 87.836 17.2191C87.7143 17.2516 87.5621 17.278 87.3795 17.2983C87.1969 17.3186 87.0123 17.3328 86.8256 17.3409C86.6389 17.353 86.4624 17.3591 86.296 17.3591C86.1297 17.3632 85.9998 17.3652 85.9065 17.3652H85.0239H84.9691C84.8352 17.3652 84.7094 17.3409 84.5917 17.2922C84.474 17.2435 84.3726 17.1745 84.2874 17.0852C84.2021 17 84.1352 16.8986 84.0865 16.7809C84.0337 16.6632 84.0074 16.5374 84.0074 16.4035ZM95.7715 17.3652C95.6822 17.3652 95.5564 17.3591 95.3941 17.347C95.2318 17.3348 95.0573 17.2901 94.8706 17.213C94.7814 17.7162 94.613 18.193 94.3654 18.6435C94.1219 19.098 93.8196 19.522 93.4585 19.9157C93.0973 20.3133 92.6854 20.6786 92.2228 21.0113C91.7602 21.3441 91.2672 21.6423 90.7437 21.9061L89.6298 20.3661C89.9179 20.22 90.208 20.0597 90.5002 19.8852C90.7924 19.7148 91.0704 19.5322 91.3341 19.3374C91.6019 19.1467 91.8495 18.9458 92.0767 18.7348C92.308 18.5278 92.5089 18.3128 92.6793 18.0896C92.8498 17.8664 92.9837 17.6371 93.0811 17.4017C93.1785 17.1704 93.2272 16.9351 93.2272 16.6957C93.2272 16.6835 93.2251 16.6652 93.2211 16.6409C93.2211 16.6165 93.2211 16.5922 93.2211 16.5678C93.2211 16.5435 93.219 16.5252 93.215 16.513C93.215 16.5009 93.215 16.5029 93.215 16.5191V16.5252C93.1866 16.2899 93.146 16.0646 93.0933 15.8496C93.0405 15.6345 92.9735 15.4154 92.8924 15.1922C92.8153 14.969 92.724 14.7357 92.6185 14.4922C92.513 14.2446 92.3953 13.9748 92.2654 13.6826L94.0246 12.9157C94.1869 13.4026 94.339 13.8084 94.4811 14.133C94.6231 14.4577 94.7611 14.7174 94.895 14.9122C95.033 15.107 95.1709 15.2449 95.3089 15.3261C95.4469 15.4032 95.593 15.4417 95.7472 15.4417H95.7776C95.9115 15.4417 96.0373 15.4681 96.155 15.5209C96.2727 15.5736 96.3741 15.6446 96.4593 15.7339C96.5486 15.8191 96.6176 15.9206 96.6663 16.0383C96.719 16.1559 96.7454 16.2797 96.7454 16.4096C96.7454 16.5435 96.719 16.6693 96.6663 16.787C96.6176 16.9046 96.5486 17.0061 96.4593 17.0913C96.3741 17.1765 96.2727 17.2435 96.155 17.2922C96.0373 17.3409 95.9095 17.3652 95.7715 17.3652ZM94.7387 16.4035C94.7387 16.2696 94.7651 16.1438 94.8179 16.0261C94.8666 15.9084 94.9356 15.807 95.0248 15.7217C95.1101 15.6325 95.2135 15.5635 95.3353 15.5148C95.453 15.4661 95.5787 15.4417 95.7127 15.4417H96.8814C97.5388 15.4417 98.1414 15.4032 98.6892 15.3261C99.2411 15.2449 99.7564 15.1374 100.235 15.0035C100.714 14.8696 101.167 14.7154 101.593 14.5409C102.023 14.3623 102.445 14.1777 102.859 13.987C102.583 13.9099 102.305 13.8145 102.025 13.7009C101.749 13.5872 101.471 13.4777 101.191 13.3722C100.915 13.2667 100.639 13.1774 100.363 13.1043C100.087 13.0272 99.8132 12.9887 99.5414 12.9887C99.3547 12.9887 99.1721 13.0394 98.9935 13.1409C98.815 13.2423 98.6527 13.358 98.5066 13.4878C98.3605 13.6177 98.2367 13.7455 98.1353 13.8713C98.0379 13.993 97.977 14.0762 97.9527 14.1209L96.5466 13.2139C96.7008 12.942 96.8834 12.6762 97.0944 12.4165C97.3054 12.1568 97.5367 11.9275 97.7883 11.7287C98.044 11.5258 98.3179 11.3635 98.6101 11.2417C98.9063 11.12 99.2167 11.0591 99.5414 11.0591C99.7808 11.0591 100.02 11.0855 100.26 11.1383C100.499 11.187 100.736 11.2519 100.972 11.333C101.211 11.4142 101.447 11.5075 101.678 11.613C101.909 11.7145 102.138 11.818 102.366 11.9235C102.585 12.0249 102.802 12.1264 103.017 12.2278C103.236 12.3252 103.461 12.4165 103.693 12.5017C103.924 12.5829 104.163 12.6499 104.411 12.7026C104.658 12.7554 104.92 12.7838 105.196 12.7878L105.044 14.6565L104.18 15.0704C103.827 15.2409 103.476 15.4174 103.127 15.6C102.778 15.7786 102.42 15.953 102.055 16.1235C101.694 16.2899 101.321 16.4501 100.935 16.6043C100.554 16.7545 100.152 16.8864 99.7301 17C99.308 17.1096 98.8616 17.1968 98.3909 17.2617C97.9202 17.3307 97.417 17.3652 96.8814 17.3652H95.7614H95.7127C95.5787 17.3652 95.453 17.3388 95.3353 17.2861C95.2135 17.2374 95.1101 17.1704 95.0248 17.0852C94.9356 17 94.8666 16.8986 94.8179 16.7809C94.7651 16.6632 94.7387 16.5374 94.7387 16.4035ZM99.2857 7.76609L100.637 9.11739L99.2857 10.4687L97.9344 9.11739L99.2857 7.76609ZM84.3054 39.513C83.7292 39.513 83.2341 39.4359 82.8202 39.2817C82.4063 39.1235 82.0776 38.9023 81.8341 38.6183C81.6921 38.4357 81.5886 38.2388 81.5237 38.0278C81.4628 37.8128 81.4324 37.6078 81.4324 37.413C81.4324 37.2426 81.4466 37.0884 81.475 36.9504C81.5034 36.8125 81.5379 36.6948 81.5785 36.5974C81.7408 36.2565 81.9396 35.9583 82.175 35.7026C82.4144 35.447 82.662 35.2258 82.9176 35.0391C83.1773 34.8484 83.433 34.6901 83.6846 34.5643C83.9402 34.4386 84.1675 34.3351 84.3663 34.2539C84.3582 34.1606 84.3501 34.0652 84.342 33.9678C84.3379 33.8704 84.3318 33.7771 84.3237 33.6878L84.2933 33.3043L86.1924 32.8965C86.1965 32.933 86.2046 33.0183 86.2167 33.1522C86.233 33.2861 86.2492 33.4464 86.2654 33.633C86.2857 33.8157 86.306 34.0125 86.3263 34.2235C86.3507 34.4304 86.371 34.6252 86.3872 34.8078C86.4075 34.9904 86.4237 35.1487 86.4359 35.2826C86.4521 35.4165 86.4623 35.4977 86.4663 35.5261C86.5272 36.0252 86.5779 36.4351 86.6185 36.7557C86.6631 37.0762 86.6996 37.3319 86.7281 37.5226C86.7605 37.7093 86.7869 37.8452 86.8072 37.9304C86.8275 38.0116 86.8437 38.0664 86.8559 38.0948C86.9167 38.2246 87.0081 38.3159 87.1298 38.3687C87.2556 38.4174 87.422 38.4417 87.6289 38.4417C87.7588 38.4417 87.8825 38.4661 88.0002 38.5148C88.1179 38.5635 88.2194 38.6325 88.3046 38.7217C88.3939 38.807 88.4649 38.9084 88.5176 39.0261C88.5704 39.1438 88.5967 39.2696 88.5967 39.4035C88.5967 39.5374 88.5704 39.6632 88.5176 39.7809C88.4649 39.8986 88.3939 40 88.3046 40.0852C88.2194 40.1704 88.1179 40.2374 88.0002 40.2861C87.8825 40.3388 87.7588 40.3652 87.6289 40.3652C87.5437 40.3652 87.4483 40.3612 87.3428 40.353C87.2373 40.349 87.1257 40.3368 87.0081 40.3165C86.8944 40.3003 86.7747 40.2739 86.6489 40.2374C86.5272 40.2049 86.4054 40.1603 86.2837 40.1035C86.1133 40.0223 85.9631 39.931 85.8333 39.8296C85.7075 39.7241 85.5857 39.5922 85.4681 39.4339C85.2611 39.4623 85.0602 39.4826 84.8654 39.4948C84.6747 39.507 84.4881 39.513 84.3054 39.513ZM84.2689 37.6017C84.3541 37.6017 84.4414 37.5997 84.5307 37.5957C84.624 37.5875 84.7133 37.5794 84.7985 37.5713C84.7782 37.4333 84.7559 37.2791 84.7315 37.1087C84.7112 36.9383 84.691 36.7557 84.6707 36.5609L84.6098 36.0009C84.4556 36.078 84.2831 36.1713 84.0924 36.2809C83.9017 36.3864 83.7211 36.5 83.5507 36.6217C83.3843 36.7394 83.2443 36.8612 83.1307 36.987C83.017 37.1087 82.9602 37.2223 82.9602 37.3278C82.9602 37.3806 83.0049 37.4252 83.0941 37.4617C83.1875 37.4942 83.3011 37.5226 83.435 37.547C83.5689 37.5672 83.711 37.5814 83.8611 37.5896C84.0112 37.5977 84.1472 37.6017 84.2689 37.6017ZM86.6207 39.4035C86.6207 39.2696 86.647 39.1438 86.6998 39.0261C86.7485 38.9084 86.8154 38.807 86.9007 38.7217C86.9859 38.6325 87.0873 38.5635 87.205 38.5148C87.3227 38.4661 87.4485 38.4417 87.5824 38.4417H88.2093H88.4833C88.6334 38.4417 88.7896 38.4357 88.952 38.4235C89.1183 38.4113 89.2725 38.387 89.4146 38.3504C89.5607 38.3139 89.6885 38.2632 89.798 38.1983C89.9117 38.1333 89.9928 38.0461 90.0415 37.9365C90.074 37.8635 90.0902 37.7539 90.0902 37.6078C90.0902 37.5104 90.0618 37.3643 90.005 37.1696C89.9482 36.9748 89.8731 36.7597 89.7798 36.5243C89.6864 36.2849 89.5809 36.0354 89.4633 35.7757C89.3456 35.5159 89.2259 35.2704 89.1041 35.0391L90.845 34.1748C90.9586 34.4304 91.0702 34.7023 91.1798 34.9904C91.2934 35.2786 91.3949 35.5707 91.4841 35.867C91.5734 36.1632 91.6444 36.4594 91.6972 36.7557C91.754 37.0478 91.7824 37.3278 91.7824 37.5957C91.7824 38.0055 91.7093 38.3809 91.5633 38.7217C91.3928 39.1032 91.1595 39.4197 90.8633 39.6713C90.567 39.9188 90.212 40.1014 89.798 40.2191C89.5546 40.2881 89.3212 40.3287 89.098 40.3409C88.8749 40.3571 88.6659 40.3652 88.4711 40.3652H87.6372H87.5824C87.4485 40.3652 87.3227 40.3409 87.205 40.2922C87.0873 40.2435 86.9859 40.1745 86.9007 40.0852C86.8154 40 86.7485 39.8986 86.6998 39.7809C86.647 39.6632 86.6207 39.5374 86.6207 39.4035ZM89.6337 30.7357L90.985 32.087L89.6337 33.4383L88.2824 32.087L89.6337 30.7357ZM95.7284 40.3652C95.2293 40.3652 94.8012 40.3023 94.4441 40.1765C94.087 40.0548 93.7785 39.8661 93.5188 39.6104C93.3565 39.4481 93.2307 39.2777 93.1414 39.0991C93.0562 38.9206 92.9933 38.7461 92.9528 38.5757C92.9162 38.4012 92.8939 38.2368 92.8858 38.0826C92.8817 37.9284 92.8797 37.7965 92.8797 37.687V37.5957C92.8838 37.4455 92.8878 37.2304 92.8919 36.9504C92.9 36.6664 92.9041 36.3336 92.9041 35.9522C92.9041 35.5707 92.902 35.1507 92.898 34.6922C92.8939 34.2336 92.8817 33.7771 92.8614 33.3226C92.8452 32.8641 92.8188 32.4238 92.7823 32.0017C92.7499 31.5797 92.7032 31.2125 92.6423 30.9L94.4623 30.3461C94.5151 30.6139 94.5577 30.9304 94.5901 31.2957C94.6226 31.6568 94.649 32.0362 94.6693 32.4339C94.6936 32.8316 94.7099 33.2313 94.718 33.633C94.7301 34.0348 94.7383 34.4081 94.7423 34.753C94.7464 35.0574 94.7342 35.3557 94.7058 35.6478C94.6814 35.9359 94.6612 36.22 94.6449 36.5C94.6287 36.7759 94.6287 37.0458 94.6449 37.3096C94.6652 37.5693 94.722 37.8229 94.8154 38.0704C94.8519 38.1638 94.8965 38.2348 94.9493 38.2835C95.0061 38.3322 95.071 38.3687 95.1441 38.393C95.2171 38.4133 95.2962 38.4255 95.3814 38.4296C95.4707 38.4336 95.5681 38.4357 95.6736 38.4357H95.7284C95.8583 38.4357 95.982 38.462 96.0997 38.5148C96.2174 38.5675 96.3188 38.6386 96.4041 38.7278C96.4933 38.813 96.5643 38.9145 96.6171 39.0322C96.6699 39.1499 96.6962 39.2736 96.6962 39.4035C96.6962 39.5374 96.6699 39.6632 96.6171 39.7809C96.5643 39.8986 96.4933 40 96.4041 40.0852C96.3188 40.1745 96.2174 40.2435 96.0997 40.2922C95.982 40.3409 95.8583 40.3652 95.7284 40.3652ZM94.7387 39.4035C94.7387 39.2696 94.7651 39.1438 94.8179 39.0261C94.8666 38.9084 94.9356 38.807 95.0248 38.7217C95.1101 38.6325 95.2135 38.5635 95.3353 38.5148C95.453 38.4661 95.5787 38.4417 95.7127 38.4417H96.8814C97.5388 38.4417 98.1414 38.4032 98.6892 38.3261C99.2411 38.2449 99.7564 38.1374 100.235 38.0035C100.714 37.8696 101.167 37.7154 101.593 37.5409C102.023 37.3623 102.445 37.1777 102.859 36.987C102.583 36.9099 102.305 36.8145 102.025 36.7009C101.749 36.5872 101.471 36.4777 101.191 36.3722C100.915 36.2667 100.639 36.1774 100.363 36.1043C100.087 36.0272 99.8132 35.9887 99.5414 35.9887C99.3547 35.9887 99.1721 36.0394 98.9935 36.1409C98.815 36.2423 98.6527 36.358 98.5066 36.4878C98.3605 36.6177 98.2367 36.7455 98.1353 36.8713C98.0379 36.993 97.977 37.0762 97.9527 37.1209L96.5466 36.2139C96.7008 35.942 96.8834 35.6762 97.0944 35.4165C97.3054 35.1568 97.5367 34.9275 97.7883 34.7287C98.044 34.5258 98.3179 34.3635 98.6101 34.2417C98.9063 34.12 99.2167 34.0591 99.5414 34.0591C99.7808 34.0591 100.02 34.0855 100.26 34.1383C100.499 34.187 100.736 34.2519 100.972 34.333C101.211 34.4142 101.447 34.5075 101.678 34.613C101.909 34.7145 102.138 34.818 102.366 34.9235C102.585 35.0249 102.802 35.1264 103.017 35.2278C103.236 35.3252 103.461 35.4165 103.693 35.5017C103.924 35.5829 104.163 35.6499 104.411 35.7026C104.658 35.7554 104.92 35.7838 105.196 35.7878L105.044 37.6565L104.18 38.0704C103.827 38.2409 103.476 38.4174 103.127 38.6C102.778 38.7786 102.42 38.953 102.055 39.1235C101.694 39.2899 101.321 39.4501 100.935 39.6043C100.554 39.7545 100.152 39.8864 99.7301 40C99.308 40.1096 98.8616 40.1968 98.3909 40.2617C97.9202 40.3307 97.417 40.3652 96.8814 40.3652H95.7614H95.7127C95.5787 40.3652 95.453 40.3388 95.3353 40.2861C95.2135 40.2374 95.1101 40.1704 95.0248 40.0852C94.9356 40 94.8666 39.8986 94.8179 39.7809C94.7651 39.6632 94.7387 39.5374 94.7387 39.4035ZM99.2857 30.7661L100.637 32.1174L99.2857 33.4687L97.9344 32.1174L99.2857 30.7661Z" fill="#303030"/>
</svg>
