<svg width="24" height="24" viewBox="0 0 24 24" fill="none" xmlns="http://www.w3.org/2000/svg">
<path d="M15.6221 6.68243C15.2452 6.30617 15.2447 5.69562 15.621 5.31873C15.9972 4.94183 16.6078 4.94131 16.9847 5.31757L15.6221 6.68243ZM23.1812 11.5036C23.5581 11.8799 23.5586 12.4904 23.1824 12.8673C22.8061 13.2442 22.1956 13.2447 21.8187 12.8685L23.1812 11.5036ZM21.8402 11.4828C22.2286 11.1184 22.8388 11.1378 23.2032 11.5262C23.5676 11.9146 23.5482 12.5248 23.1598 12.8892L21.8402 11.4828ZM16.9633 18.7032C16.5749 19.0676 15.9647 19.0482 15.6003 18.6598C15.2359 18.2715 15.2553 17.6612 15.6437 17.2968L16.9633 18.7032ZM22.5 11.2217C23.0326 11.2217 23.4643 11.6535 23.4643 12.186C23.4643 12.7186 23.0326 13.1503 22.5 13.1503V11.2217ZM6.94491 12.186V13.1503L6.94198 13.1503L6.94491 12.186ZM3.10099 13.7649L2.42112 13.081L3.10099 13.7649ZM2.46416 17.6022C2.46269 18.1348 2.02978 18.5653 1.49722 18.5638C0.964659 18.5624 0.534126 18.1294 0.535597 17.5969L2.46416 17.6022ZM16.9847 5.31757L23.1812 11.5036L21.8187 12.8685L15.6221 6.68243L16.9847 5.31757ZM23.1598 12.8892L16.9633 18.7032L15.6437 17.2968L21.8402 11.4828L23.1598 12.8892ZM22.5 13.1503H6.94491V11.2217H22.5V13.1503ZM6.94198 13.1503C5.75777 13.1467 4.62065 13.6137 3.78086 14.4487L2.42112 13.081C3.6237 11.8854 5.25206 11.2166 6.94784 11.2217L6.94198 13.1503ZM3.78086 14.4487C2.94107 15.2836 2.46743 16.418 2.46416 17.6022L0.535597 17.5969C0.540276 15.9011 1.21853 14.2766 2.42112 13.081L3.78086 14.4487Z" fill="#636363"/>
</svg>
