<svg width="68" height="68" viewBox="0 0 68 68" fill="none" xmlns="http://www.w3.org/2000/svg">
<path d="M34 67.5C52.5015 67.5 67.5 52.5015 67.5 34C67.5 15.4985 52.5015 0.5 34 0.5C15.4985 0.5 0.5 15.4985 0.5 34C0.5 52.5015 15.4985 67.5 34 67.5Z" fill="white" stroke="#334FA8"/>
<path d="M27.2282 19.0083C27.0604 19.0127 26.9006 19.0813 26.7819 19.2C26.6632 19.3187 26.5945 19.4784 26.5901 19.6462V24.2505C26.5901 25.187 27.118 26.0105 27.9041 26.4599V27.5472C27.9041 27.6226 27.9418 27.698 27.9418 27.7734C27.9418 27.9241 27.9041 28.072 27.9041 28.2228V30.1712C27.9041 32.3458 28.9541 34.216 30.5668 35.4134C30.5223 35.8703 30.3782 36.3118 30.1447 36.7071C29.9112 37.1023 29.5939 37.4416 29.2151 37.7011C28.316 38.3738 27.0426 38.8232 25.6938 39.4234C24.3451 39.9859 22.9209 40.6992 21.7984 41.8966C20.7106 43.1318 20 44.8541 20 47.3273V48H49V47.3244C49 44.9266 48.2894 43.242 47.1639 42.0445C46.0762 40.8818 44.6926 40.2062 43.341 39.6467C41.9922 39.0842 40.7594 38.597 39.8603 37.9215C39.1061 37.3242 38.6217 36.6109 38.5086 35.3757C40.0807 34.1754 41.093 32.3023 41.093 30.1683V24.2476C41.093 22.073 39.3324 20.2753 37.1598 20.2753H29.4414C29.0692 20.2596 28.702 20.1842 28.3537 20.0521C28.2057 19.9767 28.0549 19.9013 27.9795 19.8259C27.9418 19.7505 27.9041 19.7157 27.9041 19.6404C27.9069 19.5526 27.891 19.4652 27.8575 19.384C27.8241 19.3028 27.7737 19.2296 27.7098 19.1693C27.6459 19.109 27.57 19.063 27.487 19.0342C27.4039 19.0055 27.3158 18.9946 27.2282 19.0025V19.0083Z" fill="#334FA8"/>
</svg>
