<svg width="68" height="68" viewBox="0 0 68 68" fill="none" xmlns="http://www.w3.org/2000/svg">
<g filter="url(#filter0_b_6209_22525)">
<circle cx="34" cy="34" r="33" fill="white"/>
<circle cx="34" cy="34" r="33.5" stroke="#9C4040"/>
</g>
<path fill-rule="evenodd" clip-rule="evenodd" d="M14 46C14 45.4477 14.4477 45 15 45H51C51.5523 45 52 45.4477 52 46C52 46.5523 51.5523 47 51 47H15C14.4477 47 14 46.5523 14 46Z" fill="#9C4040"/>
<path fill-rule="evenodd" clip-rule="evenodd" d="M20 31V46H48V31L34 23L20 31ZM38 34H44V45H38V34ZM35 34H24V40H35V34Z" fill="#9C4040"/>
<path d="M42 23.8182V21H45V26L42 23.8182Z" fill="#9C4040"/>
<path fill-rule="evenodd" clip-rule="evenodd" d="M41 21C41 20.4477 41.4477 20 42 20H45C45.5523 20 46 20.4477 46 21V26C46 26.3761 45.7889 26.7204 45.4538 26.8911C45.1186 27.0618 44.716 27.03 44.4118 26.8087L41.4118 24.6269C41.1531 24.4387 41 24.1381 41 23.8182V21ZM43 22V23.309L44 24.0362V22H43Z" fill="#9C4040"/>
<path fill-rule="evenodd" clip-rule="evenodd" d="M33.4928 19.1381C33.8057 18.954 34.1939 18.954 34.5068 19.1381L52.3688 29.6451L51.3547 31.369L33.9998 21.1602L16.6449 31.369L15.6309 29.6451L33.4928 19.1381Z" fill="#9C4040"/>
<defs>
<filter id="filter0_b_6209_22525" x="-2.3" y="-2.3" width="72.6" height="72.6" filterUnits="userSpaceOnUse" color-interpolation-filters="sRGB">
<feFlood flood-opacity="0" result="BackgroundImageFix"/>
<feGaussianBlur in="BackgroundImageFix" stdDeviation="1.15"/>
<feComposite in2="SourceAlpha" operator="in" result="effect1_backgroundBlur_6209_22525"/>
<feBlend mode="normal" in="SourceGraphic" in2="effect1_backgroundBlur_6209_22525" result="shape"/>
</filter>
</defs>
</svg>
