<svg width="104" height="57" viewBox="0 0 104 57" fill="none" xmlns="http://www.w3.org/2000/svg">
<g filter="url(#filter0_d_2611_53137)">
<path d="M25.18 51.58C25.99 51.58 28.59 50.5 32.31 47.06C38.22 41.62 45.12 32.06 45.12 23.06C45.12 17.7398 43.0065 12.6374 39.2446 8.87544C35.4826 5.11346 30.3802 3 25.06 3C19.7398 3 14.6374 5.11346 10.8754 8.87544C7.11346 12.6374 5 17.7398 5 23.06C5 37.2 21.47 51.28 25.18 51.58ZM25.06 11.11C26.9508 11.11 28.7991 11.6707 30.3713 12.7211C31.9434 13.7716 33.1687 15.2647 33.8923 17.0115C34.6159 18.7584 34.8052 20.6806 34.4363 22.5351C34.0674 24.3895 33.1569 26.0929 31.8199 27.4299C30.483 28.7669 28.7795 29.6774 26.9251 30.0463C25.0706 30.4152 23.1484 30.2259 21.4015 29.5023C19.6547 28.7787 18.1616 27.5534 17.1112 25.9813C16.0607 24.4091 15.5 22.5608 15.5 20.67C15.5026 18.1353 16.5107 15.7053 18.303 13.913C20.0953 12.1207 22.5253 11.1126 25.06 11.11Z" fill="#CB2B2B"/>
</g>
<g filter="url(#filter1_d_2611_53137)">
<rect x="11" y="7" width="91" height="27" rx="13.5" fill="white"/>
<rect x="11" y="7" width="91" height="27" rx="13.5" stroke="url(#paint0_linear_2611_53137)" stroke-width="0.5"/>
</g>
<g filter="url(#filter2_dd_2611_53137)">
<circle cx="25.5" cy="20.5" r="7.5" fill="#CB2B2B"/>
</g>
<path d="M49.9435 23.2609C49.4652 23.2609 49.0594 23.1826 48.7261 23.0261C48.3957 22.8696 48.1261 22.6087 47.9174 22.2435C47.5058 22.5942 47.0072 22.8536 46.4217 23.0217C45.8391 23.1899 45.158 23.2739 44.3783 23.2739C43.9174 23.271 43.4797 23.2406 43.0652 23.1826C42.6536 23.1275 42.2783 23.0435 41.9391 22.9304C41.6 22.8145 41.3029 22.671 41.0478 22.5C40.7928 22.3261 40.5928 22.1217 40.4478 21.887C40.358 21.7333 40.2928 21.5565 40.2522 21.3565C40.2116 21.1536 40.1986 20.9348 40.213 20.7C40.2275 20.4623 40.2725 20.2116 40.3478 19.9478C40.4261 19.6812 40.5377 19.4058 40.6826 19.1217L41.7174 19.7217C41.6594 19.8348 41.6058 19.9449 41.5565 20.0522C41.5072 20.1594 41.4696 20.271 41.4435 20.387C41.4174 20.5029 41.4043 20.6275 41.4043 20.7609C41.4072 20.8913 41.4304 21.0362 41.4739 21.1957C41.5464 21.3203 41.6754 21.4261 41.8609 21.513C42.0493 21.6 42.2754 21.671 42.5391 21.7261C42.8029 21.7812 43.0928 21.8217 43.4087 21.8478C43.7246 21.8739 44.0478 21.887 44.3783 21.887C44.6826 21.887 44.971 21.8768 45.2435 21.8565C45.5159 21.8333 45.7667 21.7986 45.9957 21.7522C46.2275 21.7029 46.4362 21.6406 46.6217 21.5652C46.8101 21.487 46.971 21.3928 47.1043 21.2826C47.2261 21.1841 47.3261 21.0754 47.4043 20.9565C47.4826 20.8377 47.5493 20.713 47.6043 20.5826C47.6594 20.4493 47.7043 20.3101 47.7391 20.1652C47.7768 20.0203 47.813 19.8739 47.8478 19.7261L49.0652 20.0348L48.887 20.9565C48.8609 21.0899 48.8667 21.213 48.9043 21.3261C48.9449 21.4391 49.013 21.5377 49.1087 21.6217C49.2043 21.7029 49.3261 21.7681 49.4739 21.8174C49.6217 21.8638 49.7899 21.887 49.9783 21.887C50.0739 21.887 50.1638 21.9043 50.2478 21.9391C50.3319 21.9739 50.4043 22.0232 50.4652 22.087C50.529 22.1478 50.5783 22.2203 50.613 22.3043C50.6507 22.3884 50.6696 22.4783 50.6696 22.5739C50.6696 22.6696 50.6507 22.7594 50.613 22.8435C50.5783 22.9275 50.529 23 50.4652 23.0609C50.4043 23.1246 50.3319 23.1739 50.2478 23.2087C50.1638 23.2435 50.0739 23.2609 49.9783 23.2609H49.9435ZM46.3826 18.7217L45.5478 19.5609L44.7217 18.7348L43.9043 19.5522L43.0609 18.713L43.8957 17.8739L44.7217 18.7L45.5391 17.8826L46.3826 18.7217ZM49.3 22.5739C49.3 22.4783 49.3188 22.3884 49.3565 22.3043C49.3913 22.2203 49.4406 22.1478 49.5043 22.087C49.5652 22.0232 49.6391 21.9739 49.7261 21.9391C49.8101 21.9043 49.9 21.887 49.9957 21.887C50.1029 21.887 50.2348 21.8855 50.3913 21.8826C50.5507 21.8768 50.7203 21.8681 50.9 21.8565C51.0797 21.8449 51.2623 21.8304 51.4478 21.813C51.6362 21.7957 51.8145 21.7725 51.9826 21.7435C52.1536 21.7145 52.3072 21.6812 52.4435 21.6435C52.5826 21.6029 52.6913 21.5565 52.7696 21.5043C52.4768 21.5362 52.2072 21.5493 51.9609 21.5435C51.7145 21.5348 51.4942 21.5101 51.3 21.4696C51.1058 21.429 50.9391 21.3739 50.8 21.3043C50.6638 21.2319 50.5594 21.1493 50.487 21.0565V21.0609C50.4087 20.9623 50.3348 20.8304 50.2652 20.6652C50.1986 20.5 50.1652 20.2957 50.1652 20.0522C50.1652 19.9217 50.1739 19.8 50.1913 19.687C50.2783 19.1942 50.4522 18.787 50.713 18.4652L50.7087 18.4696C50.8652 18.2609 51.042 18.1058 51.2391 18.0043C51.4362 17.9 51.6435 17.8478 51.8609 17.8478C52.0812 17.8478 52.2986 17.9014 52.513 18.0087C52.7275 18.1159 52.9217 18.2609 53.0957 18.4435C53.2203 18.5855 53.3319 18.7464 53.4304 18.9261C53.5319 19.1058 53.6174 19.2971 53.687 19.5C53.7594 19.7029 53.8145 19.9145 53.8522 20.1348C53.8928 20.3522 53.913 20.571 53.913 20.7913C53.913 20.858 53.9116 20.9246 53.9087 20.9913C53.9058 21.0551 53.9014 21.1159 53.8957 21.1739C53.8609 21.4754 53.7841 21.7362 53.6652 21.9565C53.5464 22.1739 53.3942 22.3594 53.2087 22.513C53.0261 22.6667 52.8159 22.7913 52.5783 22.887C52.3406 22.9826 52.0855 23.058 51.813 23.113C51.5406 23.1681 51.2551 23.2058 50.9565 23.2261C50.6609 23.2464 50.3623 23.258 50.0609 23.2609H49.987C49.8913 23.2609 49.8014 23.242 49.7174 23.2043C49.6333 23.1696 49.5609 23.1217 49.5 23.0609C49.4391 23 49.3913 22.9275 49.3565 22.8435C49.3188 22.7594 49.3 22.6696 49.3 22.5739ZM51.8522 19.2304C51.7855 19.2275 51.7174 19.2478 51.6478 19.2913C51.5812 19.3319 51.5188 19.387 51.4609 19.4565C51.4058 19.5261 51.3594 19.6058 51.3217 19.6957C51.287 19.7855 51.2696 19.8768 51.2696 19.9696C51.2696 20.0507 51.2884 20.1232 51.3261 20.187C51.3464 20.2217 51.387 20.2522 51.4478 20.2783C51.5116 20.3014 51.5855 20.3217 51.6696 20.3391C51.7565 20.3536 51.8493 20.3667 51.9478 20.3783C52.0464 20.387 52.1406 20.3928 52.2304 20.3957C52.3203 20.3986 52.4014 20.3986 52.4739 20.3957C52.5493 20.3928 52.6043 20.3884 52.6391 20.3826C52.613 20.2522 52.5783 20.1203 52.5348 19.987C52.4942 19.8536 52.442 19.7319 52.3783 19.6217C52.3145 19.5116 52.2391 19.4203 52.1522 19.3478C52.0652 19.2754 51.9652 19.2362 51.8522 19.2304ZM53.4174 16.4652L52.5826 17.3043L51.7565 16.4783L50.9391 17.2957L50.0957 16.4565L50.9304 15.6174L51.7565 16.4435L52.5739 15.6261L53.4174 16.4652ZM54.6592 23.2739C54.6736 23.0362 54.6881 22.7899 54.7026 22.5348C54.7171 22.2797 54.7287 22.0275 54.7374 21.7783C54.749 21.529 54.7563 21.287 54.7592 21.0522C54.7621 20.8174 54.7592 20.6014 54.7505 20.4043C54.7331 19.9928 54.7157 19.6319 54.6983 19.3217C54.6838 19.0087 54.6678 18.7319 54.6505 18.4913C54.636 18.2507 54.62 18.0406 54.6026 17.8609C54.5881 17.6783 54.5722 17.5116 54.5548 17.3609C54.5374 17.2101 54.5186 17.0696 54.4983 16.9391C54.478 16.8058 54.4563 16.6681 54.4331 16.5261L55.7765 16.0826C55.8403 16.471 55.891 16.8623 55.9287 17.2565C55.9693 17.6507 55.9997 18.029 56.02 18.3913C56.0403 18.7507 56.0534 19.0855 56.0592 19.3957C56.0678 19.7058 56.0722 19.971 56.0722 20.1913C56.0722 20.3913 56.0707 20.6072 56.0678 20.8391C56.0678 21.071 56.065 21.3116 56.0592 21.5609C56.0563 21.8101 56.0505 22.0623 56.0418 22.3174C56.0331 22.5725 56.02 22.8217 56.0026 23.0652L54.6592 23.2739ZM58.7671 23.2609C58.3873 23.2609 58.0149 23.1884 57.6497 23.0435C57.2873 22.8986 56.9511 22.6652 56.641 22.3435L57.4279 21.2348C57.57 21.3652 57.7076 21.4725 57.841 21.5565C57.9743 21.6377 58.1018 21.7014 58.2236 21.7478C58.3453 21.7942 58.4598 21.8261 58.5671 21.8435C58.6772 21.8609 58.7801 21.8696 58.8757 21.8696C58.9192 21.8696 58.9685 21.8681 59.0236 21.8652C59.0786 21.8623 59.1337 21.858 59.1888 21.8522C59.2439 21.8435 59.2975 21.8333 59.3497 21.8217C59.4018 21.8101 59.4497 21.7957 59.4931 21.7783C59.6439 21.7145 59.7627 21.6507 59.8497 21.587C59.7395 21.3203 59.6192 21.0435 59.4888 20.7565C59.3613 20.4667 59.2323 20.1768 59.1018 19.887C58.9714 19.5942 58.8424 19.3043 58.7149 19.0174C58.5873 18.7304 58.4685 18.4551 58.3584 18.1913L59.6279 17.6609L60.0149 18.6C60.1395 18.9072 60.2888 19.2725 60.4627 19.6957C60.6366 20.1159 60.8366 20.5928 61.0627 21.1261C61.1149 21.2536 61.1627 21.3652 61.2062 21.4609C61.2497 21.5565 61.3004 21.6362 61.3584 21.7C61.4192 21.7638 61.4902 21.8116 61.5714 21.8435C61.6555 21.8725 61.7627 21.887 61.8931 21.887C61.9859 21.887 62.0743 21.9043 62.1584 21.9391C62.2424 21.9739 62.3149 22.0232 62.3757 22.087C62.4395 22.1478 62.4902 22.2203 62.5279 22.3043C62.5656 22.3884 62.5844 22.4783 62.5844 22.5739C62.5844 22.6696 62.5656 22.7594 62.5279 22.8435C62.4902 22.9275 62.4395 23 62.3757 23.0609C62.3149 23.1246 62.2424 23.1739 62.1584 23.2087C62.0743 23.2435 61.9859 23.2609 61.8931 23.2609C61.7163 23.2609 61.5598 23.2493 61.4236 23.2261C61.2902 23.2029 61.17 23.1696 61.0627 23.1261C60.9584 23.0855 60.8642 23.0362 60.7801 22.9783C60.6989 22.9174 60.6221 22.8507 60.5497 22.7783C60.4714 22.8304 60.3888 22.8812 60.3018 22.9304C60.2149 22.9768 60.1149 23.0232 60.0018 23.0696C59.8279 23.1362 59.6395 23.1841 59.4366 23.213C59.2366 23.2449 59.0134 23.2609 58.7671 23.2609ZM61.2032 22.5739C61.2032 22.4783 61.2221 22.3884 61.2597 22.3043C61.2945 22.2203 61.3438 22.1478 61.4076 22.087C61.4713 22.0232 61.5453 21.9739 61.6293 21.9391C61.7134 21.9043 61.8018 21.887 61.8945 21.887C62.0366 21.887 62.1583 21.8768 62.2597 21.8565C62.3612 21.8362 62.4453 21.8116 62.5119 21.7826C62.5815 21.7507 62.6366 21.7174 62.6771 21.6826C62.7177 21.6449 62.7496 21.6101 62.7728 21.5783L62.7684 21.5826C62.809 21.5217 62.8496 21.4522 62.8902 21.3739C62.9308 21.2928 62.9742 21.1855 63.0206 21.0522C63.0699 20.9188 63.1221 20.7507 63.1771 20.5478C63.2351 20.342 63.3003 20.0855 63.3728 19.7783L64.5119 20.1478C64.4829 20.258 64.4554 20.3638 64.4293 20.4652C64.4032 20.5638 64.3844 20.6609 64.3728 20.7565C64.3641 20.8522 64.3641 20.9478 64.3728 21.0435C64.3815 21.1391 64.4061 21.2391 64.4467 21.3435C64.5684 21.1406 64.696 20.9406 64.8293 20.7435C64.9626 20.5435 65.1061 20.3551 65.2597 20.1783C65.4163 19.9986 65.5844 19.8319 65.7641 19.6783C65.9438 19.5246 66.1409 19.3928 66.3554 19.2826C66.5728 19.1696 66.809 19.0812 67.0641 19.0174C67.3192 18.9507 67.6003 18.9159 67.9076 18.913C68.2612 18.9101 68.5728 18.9696 68.8424 19.0913C69.1119 19.2101 69.3366 19.3681 69.5163 19.5652C69.6989 19.7594 69.8337 19.9812 69.9206 20.2304C70.0076 20.4768 70.0453 20.7232 70.0337 20.9696C70.0192 21.2768 69.9395 21.5638 69.7945 21.8304C69.6525 22.0971 69.467 22.3261 69.238 22.5174C69.0264 22.6826 68.7902 22.8188 68.5293 22.9261C68.2713 23.0333 68.0047 23.1174 67.7293 23.1783C67.4569 23.242 67.1829 23.2855 66.9076 23.3087C66.6351 23.3348 66.3786 23.3478 66.138 23.3478C65.854 23.3478 65.5989 23.3391 65.3728 23.3217C65.1467 23.3043 64.9351 23.2696 64.738 23.2174C64.5438 23.1681 64.3597 23.0971 64.1858 23.0043C64.0148 22.9145 63.8424 22.7957 63.6684 22.6478C63.4597 22.8565 63.2134 23.0101 62.9293 23.1087C62.6482 23.2072 62.3163 23.258 61.9337 23.2609H61.8945C61.8018 23.2609 61.7134 23.2435 61.6293 23.2087C61.5453 23.1739 61.4713 23.1246 61.4076 23.0609C61.3438 23 61.2945 22.9275 61.2597 22.8435C61.2221 22.7594 61.2032 22.6696 61.2032 22.5739ZM67.8902 20.2957C67.6119 20.2957 67.3438 20.3507 67.0858 20.4609C66.8279 20.5681 66.5916 20.7029 66.3771 20.8652C66.1655 21.0275 65.9786 21.2014 65.8163 21.387C65.6569 21.5725 65.5337 21.7435 65.4467 21.9C65.5597 21.9058 65.6873 21.9101 65.8293 21.913C65.9713 21.9159 66.109 21.9174 66.2424 21.9174C66.4221 21.9174 66.6076 21.913 66.7989 21.9043C66.9931 21.8928 67.1829 21.8739 67.3684 21.8478C67.5569 21.8188 67.7366 21.7797 67.9076 21.7304C68.0815 21.6812 68.238 21.6188 68.3771 21.5435C68.5192 21.4652 68.6395 21.3725 68.738 21.2652C68.8395 21.158 68.9105 21.0319 68.9511 20.887C68.9221 20.6841 68.8134 20.5348 68.625 20.4391C68.4395 20.3435 68.1945 20.2957 67.8902 20.2957ZM76.6654 21.8652C76.7349 21.8681 76.8045 21.871 76.874 21.8739C76.9465 21.8739 77.0146 21.8739 77.0784 21.8739C77.3074 21.8739 77.5262 21.8652 77.7349 21.8478C77.9436 21.8304 78.1364 21.8072 78.3132 21.7783C78.49 21.7493 78.6451 21.7188 78.7784 21.687C78.9146 21.6522 79.0233 21.6188 79.1045 21.587H79.1001C79.2509 21.5232 79.361 21.4667 79.4306 21.4174C79.5001 21.3681 79.5465 21.3304 79.5697 21.3043C79.6132 21.2551 79.6436 21.2043 79.661 21.1522C79.6813 21.0971 79.6914 21.0406 79.6914 20.9826C79.6914 20.858 79.6436 20.7246 79.548 20.5826C79.4523 20.4377 79.3291 20.2913 79.1784 20.1435C79.0306 19.9957 78.8654 19.8478 78.6827 19.7C78.503 19.5522 78.3277 19.4101 78.1567 19.2739L77.248 18.5261L77.3914 17.2391L81.3132 15.5304L81.8523 16.8087L78.7871 18.1174C78.9494 18.2536 79.1132 18.3942 79.2784 18.5391C79.4465 18.6841 79.6074 18.8333 79.761 18.987C79.9146 19.1377 80.0581 19.2928 80.1914 19.4522C80.3277 19.6087 80.4451 19.7696 80.5436 19.9348C80.6451 20.0971 80.7248 20.2623 80.7827 20.4304C80.8407 20.5986 80.8697 20.7696 80.8697 20.9435C80.8697 21.1348 80.8364 21.329 80.7697 21.5261C80.7059 21.7232 80.6001 21.9261 80.4523 22.1348H80.4567C80.4393 22.1609 80.4088 22.1986 80.3654 22.2478C80.3248 22.2971 80.2683 22.3522 80.1958 22.413C80.1262 22.4739 80.0393 22.5391 79.9349 22.6087C79.8306 22.6754 79.7074 22.742 79.5654 22.8087C79.1654 22.9855 78.7625 23.1043 78.3567 23.1652C77.9509 23.2261 77.5378 23.2565 77.1175 23.2565H77.0262C76.9654 23.2565 76.903 23.2565 76.8393 23.2565C76.7755 23.2565 76.7132 23.2536 76.6523 23.2478C76.1103 23.242 75.6248 23.2072 75.1958 23.1435C74.7668 23.0826 74.39 22.9913 74.0654 22.8696C73.4074 22.6145 72.9552 22.2406 72.7088 21.7478V21.7522C72.5697 21.4826 72.5001 21.1841 72.5001 20.8565C72.5001 20.7145 72.5175 20.5609 72.5523 20.3957C72.5871 20.2304 72.632 20.0696 72.6871 19.913C72.7219 19.8319 72.7509 19.7638 72.774 19.7087C72.8001 19.6536 72.8248 19.6029 72.848 19.5565C72.8712 19.5101 72.8972 19.4638 72.9262 19.4174C72.9552 19.371 72.9914 19.3145 73.0349 19.2478L74.0654 20C74.0248 20.0725 73.9798 20.1464 73.9306 20.2217C73.8842 20.2971 73.8407 20.3739 73.8001 20.4522C73.7625 20.5304 73.7306 20.6101 73.7045 20.6913C73.6784 20.7725 73.6654 20.8536 73.6654 20.9348C73.6654 21.0478 73.7045 21.1493 73.7827 21.2391C73.8639 21.3261 73.974 21.4029 74.1132 21.4696C74.2552 21.5333 74.4204 21.5884 74.6088 21.6348C74.8001 21.6812 75.0059 21.7203 75.2262 21.7522C75.4494 21.7841 75.6827 21.8087 75.9262 21.8261C76.1697 21.8435 76.4146 21.8565 76.661 21.8652H76.6654ZM87.7175 21.7652C87.7957 21.8087 87.8769 21.8391 87.961 21.8565C88.0479 21.871 88.1334 21.8812 88.2175 21.887C88.3102 21.887 88.3986 21.9058 88.4827 21.9435C88.5668 21.9783 88.6392 22.0261 88.7001 22.087C88.7639 22.1478 88.8146 22.2203 88.8523 22.3043C88.8899 22.3884 88.9088 22.4783 88.9088 22.5739C88.9088 22.6696 88.8899 22.7594 88.8523 22.8435C88.8146 22.9275 88.7639 23 88.7001 23.0609C88.6392 23.1246 88.5668 23.1739 88.4827 23.2087C88.3986 23.2435 88.3102 23.2609 88.2175 23.2609H88.1783C88.103 23.2609 88.0059 23.2565 87.887 23.2478C87.7711 23.2391 87.645 23.2145 87.5088 23.1739C87.3725 23.1362 87.2334 23.0783 87.0914 23C86.9494 22.9246 86.816 22.8174 86.6914 22.6783C86.5233 22.8377 86.3363 22.9739 86.1305 23.087C85.9276 23.2 85.7117 23.2928 85.4827 23.3652C85.2537 23.4406 85.0175 23.4957 84.774 23.5304C84.5305 23.5652 84.2856 23.5826 84.0392 23.5826C83.9001 23.5826 83.7523 23.5739 83.5957 23.5565C83.4421 23.542 83.2697 23.5145 83.0783 23.4739L83.4653 22.1783C83.5986 22.1957 83.7247 22.2101 83.8436 22.2217C83.9653 22.2304 84.0769 22.2348 84.1783 22.2348C84.2711 22.2348 84.3639 22.2304 84.4566 22.2217C84.5494 22.213 84.6407 22.1971 84.7305 22.1739C84.6436 21.8609 84.5392 21.5536 84.4175 21.2522C84.2957 20.9478 84.1639 20.6551 84.0218 20.3739C83.8798 20.0928 83.7334 19.8246 83.5827 19.5696C83.432 19.3145 83.2827 19.0783 83.1349 18.8609C82.9899 18.6435 82.8508 18.4464 82.7175 18.2696C82.587 18.0899 82.4711 17.9362 82.3697 17.8087L83.3479 16.7957L84.5392 18.713C84.6783 18.9652 84.8102 19.2217 84.9349 19.4826C85.0624 19.7435 85.1798 20.0014 85.287 20.2565C85.3972 20.5087 85.4943 20.7536 85.5783 20.9913C85.6653 21.229 85.7378 21.4493 85.7957 21.6522C85.9088 21.5594 86.0073 21.4551 86.0914 21.3391C86.1783 21.2232 86.2233 21.1043 86.2262 20.9826C86.1943 20.5333 86.1552 20.0957 86.1088 19.6696C86.0624 19.2406 86.0131 18.8304 85.961 18.4391C85.9117 18.0478 85.861 17.6783 85.8088 17.3304C85.7566 16.9826 85.7088 16.6638 85.6653 16.3739L87.0131 16.1217C87.0131 16.1275 87.0175 16.1783 87.0262 16.2739C87.0378 16.3667 87.0523 16.4957 87.0697 16.6609C87.0899 16.8232 87.1117 17.0159 87.1349 17.2391C87.1581 17.4594 87.1827 17.6986 87.2088 17.9565C87.2378 18.2116 87.2653 18.4797 87.2914 18.7609C87.3204 19.0391 87.3465 19.3203 87.3697 19.6043C87.3957 19.8855 87.4189 20.1638 87.4392 20.4391C87.4624 20.7116 87.4812 20.9696 87.4957 21.213C87.5044 21.3435 87.5305 21.4609 87.574 21.5652C87.6204 21.6667 87.6682 21.7333 87.7175 21.7652ZM87.4912 22.5739C87.4912 22.4783 87.5086 22.3899 87.5434 22.3087C87.5782 22.2275 87.626 22.1565 87.6869 22.0957C87.7477 22.0348 87.8202 21.987 87.9043 21.9522C87.9854 21.9145 88.0738 21.8928 88.1695 21.887C88.3637 21.887 88.5318 21.8493 88.6738 21.7739C88.8188 21.6986 88.9463 21.6 89.0564 21.4783C89.1666 21.3565 89.2651 21.2203 89.3521 21.0696C89.439 20.9188 89.5217 20.7681 89.5999 20.6174V20.6217C89.6753 20.4652 89.755 20.3101 89.839 20.1565C89.926 20.0029 90.0202 19.8609 90.1217 19.7304C90.2782 19.5478 90.4535 19.4072 90.6477 19.3087C90.8419 19.2072 91.0492 19.1565 91.2695 19.1565C91.5303 19.1565 91.7666 19.2101 91.9782 19.3174C92.1927 19.4246 92.3869 19.5783 92.5608 19.7783C92.6912 19.9348 92.797 20.1145 92.8782 20.3174C92.9593 20.5174 93.013 20.7304 93.039 20.9565V20.9478C93.0564 21.0609 93.0651 21.1899 93.0651 21.3348C93.0651 21.4913 93.0506 21.6449 93.0217 21.7957C92.9956 21.9435 92.9579 22.0841 92.9086 22.2174C92.813 22.4609 92.6753 22.6652 92.4956 22.8304C92.3188 22.9928 92.126 23.1043 91.9173 23.1652C91.8477 23.1855 91.7782 23.1986 91.7086 23.2043C91.6419 23.213 91.5709 23.2174 91.4956 23.2174C91.3651 23.2174 91.226 23.2014 91.0782 23.1696C90.9332 23.1377 90.7898 23.0942 90.6477 23.0391C90.5898 23.013 90.5246 22.9826 90.4521 22.9478C90.3796 22.9101 90.3028 22.8696 90.2217 22.8261C90.1434 22.7826 90.0651 22.7377 89.9869 22.6913C89.9086 22.6449 89.8361 22.6 89.7695 22.5565C89.6535 22.6638 89.5376 22.7609 89.4217 22.8478C89.3057 22.9348 89.184 23.0087 89.0564 23.0696C88.9289 23.1304 88.7927 23.1768 88.6477 23.2087C88.5028 23.2435 88.3448 23.2609 88.1738 23.2609C88.0782 23.2609 87.9898 23.242 87.9086 23.2043C87.8246 23.1696 87.7521 23.1217 87.6912 23.0609C87.6275 23 87.5782 22.9275 87.5434 22.8435C87.5086 22.7594 87.4912 22.6696 87.4912 22.5739ZM90.5738 21.4304C90.6637 21.4884 90.7695 21.5449 90.8912 21.6C91.0159 21.6551 91.139 21.7043 91.2608 21.7478C91.3825 21.7913 91.4941 21.8275 91.5956 21.8565C91.6999 21.8826 91.7782 21.8957 91.8303 21.8957C91.8419 21.8957 91.8535 21.8957 91.8651 21.8957C91.8796 21.8928 91.8941 21.8899 91.9086 21.887C91.9434 21.8783 91.9767 21.8348 92.0086 21.7565C92.0434 21.6754 92.0564 21.5652 92.0477 21.4261C92.0477 21.3333 92.0217 21.2319 91.9695 21.1217C91.9173 21.0087 91.8492 20.9043 91.7651 20.8087C91.6811 20.7101 91.584 20.629 91.4738 20.5652C91.3666 20.4986 91.2564 20.4652 91.1434 20.4652C91.1028 20.4652 91.0506 20.5232 90.9869 20.6391C90.9231 20.7551 90.8303 20.9275 90.7086 21.1565V21.1522L90.5738 21.4304ZM93.6728 23.2739C93.6873 23.0362 93.7018 22.7899 93.7163 22.5348C93.7308 22.2797 93.7424 22.0275 93.7511 21.7783C93.7627 21.529 93.7699 21.287 93.7728 21.0522C93.7757 20.8174 93.7728 20.6014 93.7641 20.4043C93.7467 19.9928 93.7293 19.6319 93.712 19.3217C93.6975 19.0087 93.6815 18.7319 93.6641 18.4913C93.6496 18.2507 93.6337 18.0406 93.6163 17.8609C93.6018 17.6783 93.5859 17.5116 93.5685 17.3609C93.5511 17.2101 93.5322 17.0696 93.512 16.9391C93.4917 16.8058 93.4699 16.6681 93.4467 16.5261L94.7902 16.0826C94.854 16.471 94.9047 16.8623 94.9424 17.2565C94.983 17.6507 95.0134 18.029 95.0337 18.3913C95.054 18.7507 95.067 19.0855 95.0728 19.3957C95.0815 19.7058 95.0859 19.971 95.0859 20.1913C95.0859 20.3913 95.0844 20.6072 95.0815 20.8391C95.0815 21.071 95.0786 21.3116 95.0728 21.5609C95.0699 21.8101 95.0641 22.0623 95.0554 22.3174C95.0467 22.5725 95.0337 22.8217 95.0163 23.0652L93.6728 23.2739Z" fill="#303030"/>
<defs>
<filter id="filter0_d_2611_53137" x="0.5" y="0.5" width="47.1201" height="55.5801" filterUnits="userSpaceOnUse" color-interpolation-filters="sRGB">
<feFlood flood-opacity="0" result="BackgroundImageFix"/>
<feColorMatrix in="SourceAlpha" type="matrix" values="0 0 0 0 0 0 0 0 0 0 0 0 0 0 0 0 0 0 127 0" result="hardAlpha"/>
<feOffset dx="-1" dy="1"/>
<feGaussianBlur stdDeviation="1.75"/>
<feComposite in2="hardAlpha" operator="out"/>
<feColorMatrix type="matrix" values="0 0 0 0 0 0 0 0 0 0 0 0 0 0 0 0 0 0 0.25 0"/>
<feBlend mode="normal" in2="BackgroundImageFix" result="effect1_dropShadow_2611_53137"/>
<feBlend mode="normal" in="SourceGraphic" in2="effect1_dropShadow_2611_53137" result="shape"/>
</filter>
<filter id="filter1_d_2611_53137" x="10.75" y="6.75" width="93.2" height="29.2" filterUnits="userSpaceOnUse" color-interpolation-filters="sRGB">
<feFlood flood-opacity="0" result="BackgroundImageFix"/>
<feColorMatrix in="SourceAlpha" type="matrix" values="0 0 0 0 0 0 0 0 0 0 0 0 0 0 0 0 0 0 127 0" result="hardAlpha"/>
<feOffset dx="1" dy="1"/>
<feGaussianBlur stdDeviation="0.35"/>
<feComposite in2="hardAlpha" operator="out"/>
<feColorMatrix type="matrix" values="0 0 0 0 0 0 0 0 0 0 0 0 0 0 0 0 0 0 0.1 0"/>
<feBlend mode="normal" in2="BackgroundImageFix" result="effect1_dropShadow_2611_53137"/>
<feBlend mode="normal" in="SourceGraphic" in2="effect1_dropShadow_2611_53137" result="shape"/>
</filter>
<filter id="filter2_dd_2611_53137" x="16" y="10" width="19" height="20.3" filterUnits="userSpaceOnUse" color-interpolation-filters="sRGB">
<feFlood flood-opacity="0" result="BackgroundImageFix"/>
<feColorMatrix in="SourceAlpha" type="matrix" values="0 0 0 0 0 0 0 0 0 0 0 0 0 0 0 0 0 0 127 0" result="hardAlpha"/>
<feOffset dy="1"/>
<feGaussianBlur stdDeviation="0.65"/>
<feComposite in2="hardAlpha" operator="out"/>
<feColorMatrix type="matrix" values="0 0 0 0 0 0 0 0 0 0 0 0 0 0 0 0 0 0 0.25 0"/>
<feBlend mode="normal" in2="BackgroundImageFix" result="effect1_dropShadow_2611_53137"/>
<feColorMatrix in="SourceAlpha" type="matrix" values="0 0 0 0 0 0 0 0 0 0 0 0 0 0 0 0 0 0 127 0" result="hardAlpha"/>
<feOffset dy="-1"/>
<feGaussianBlur stdDeviation="1"/>
<feComposite in2="hardAlpha" operator="out"/>
<feColorMatrix type="matrix" values="0 0 0 0 0 0 0 0 0 0 0 0 0 0 0 0 0 0 0.25 0"/>
<feBlend mode="normal" in2="effect1_dropShadow_2611_53137" result="effect2_dropShadow_2611_53137"/>
<feBlend mode="normal" in="SourceGraphic" in2="effect2_dropShadow_2611_53137" result="shape"/>
</filter>
<linearGradient id="paint0_linear_2611_53137" x1="11" y1="21" x2="102" y2="21" gradientUnits="userSpaceOnUse">
<stop offset="0.357038" stop-color="white"/>
<stop offset="0.594" stop-color="#B4B4B4"/>
</linearGradient>
</defs>
</svg>
