<svg width="15" height="18" viewBox="0 0 15 18" fill="none" xmlns="http://www.w3.org/2000/svg">
<path fill-rule="evenodd" clip-rule="evenodd" d="M12.049 3.42178C13.2643 4.54666 13.9521 6.10617 13.9521 7.7369C13.9521 9.36762 13.2643 10.9271 12.049 12.052L7.45215 16.3671L2.8553 12.052C1.63996 10.9271 0.952148 9.36762 0.952148 7.7369C0.952148 6.10617 1.63996 4.54666 2.8553 3.42178C5.42857 1.03779 9.47572 1.03779 12.049 3.42178Z" stroke="#636363" stroke-width="1.5" stroke-linecap="round" stroke-linejoin="round"/>
<path fill-rule="evenodd" clip-rule="evenodd" d="M10.0521 7.89517C10.0425 8.58875 9.75745 9.25011 9.25969 9.73371C8.76194 10.2173 8.09226 10.4835 7.398 10.4738C6.70375 10.4835 6.03406 10.2173 5.53631 9.73371C5.03855 9.25011 4.75351 8.58875 4.7439 7.89517C4.76452 6.45127 5.9527 5.29737 7.398 5.31765C8.8433 5.29737 10.0315 6.45127 10.0521 7.89517V7.89517Z" stroke="#636363" stroke-width="1.5" stroke-linecap="round" stroke-linejoin="round"/>
</svg>
