<svg width="14" height="16" viewBox="0 0 14 16" fill="none" xmlns="http://www.w3.org/2000/svg">
<path fill-rule="evenodd" clip-rule="evenodd" d="M11.2427 2.69886C12.3644 3.76766 12.9993 5.24943 12.9993 6.79886C12.9993 8.34829 12.3644 9.83006 11.2427 10.8989L6.99965 14.9989L2.75665 10.8989C1.63486 9.83006 1 8.34829 1 6.79886C1 5.24943 1.63486 3.76766 2.75665 2.69886C5.13184 0.433714 8.86746 0.433714 11.2427 2.69886Z" stroke="#303030" stroke-width="1.5" stroke-linecap="round" stroke-linejoin="round"/>
<path fill-rule="evenodd" clip-rule="evenodd" d="M9.39961 6.44261C9.39092 7.0704 9.13316 7.66902 8.68306 8.10674C8.23296 8.54446 7.62739 8.78543 6.99961 8.77661C6.37182 8.78543 5.76626 8.54446 5.31616 8.10674C4.86606 7.66902 4.6083 7.0704 4.59961 6.44261C4.61826 5.13569 5.69269 4.09126 6.99961 4.10961C8.30653 4.09126 9.38096 5.13569 9.39961 6.44261V6.44261Z" stroke="#303030" stroke-width="1.5" stroke-linecap="round" stroke-linejoin="round"/>
</svg>
