<svg width="22" height="24" viewBox="0 0 22 24" fill="none" xmlns="http://www.w3.org/2000/svg">
<path fill-rule="evenodd" clip-rule="evenodd" d="M17.7185 3.67034C19.4947 5.35002 20.5 7.6787 20.5 10.1137C20.5 12.5487 19.4947 14.8774 17.7185 16.5571L11 23.0005L4.28152 16.5571C2.50526 14.8774 1.5 12.5487 1.5 10.1137C1.5 7.6787 2.50526 5.35002 4.28152 3.67034C8.04247 0.110537 13.9575 0.110537 17.7185 3.67034Z" stroke="#303030" stroke-width="2" stroke-linecap="round" stroke-linejoin="round"/>
<path fill-rule="evenodd" clip-rule="evenodd" d="M14.7997 9.55207C14.7859 10.5387 14.3778 11.4794 13.6651 12.1673C12.9524 12.8552 11.9935 13.2339 10.9994 13.2201C10.0054 13.2339 9.04652 12.8552 8.33382 12.1673C7.62112 11.4794 7.21298 10.5387 7.19922 9.55207C7.22874 7.49817 8.93002 5.85678 10.9994 5.88563C13.0689 5.85678 14.7701 7.49817 14.7997 9.55207V9.55207Z" stroke="#CF2E2E" stroke-width="2" stroke-linecap="round" stroke-linejoin="round"/>
</svg>
