<svg width="16" height="17" viewBox="0 0 16 17" fill="none" xmlns="http://www.w3.org/2000/svg">
<path fill-rule="evenodd" clip-rule="evenodd" d="M12.5969 2.82035C13.8122 3.96559 14.5 5.55333 14.5 7.21357C14.5 8.87381 13.8122 10.4615 12.5969 11.6068L8 16L3.40315 11.6068C2.18781 10.4615 1.5 8.87381 1.5 7.21357C1.5 5.55333 2.18781 3.96559 3.40315 2.82035C5.97643 0.393215 10.0236 0.393215 12.5969 2.82035Z" stroke="#636363" stroke-width="1.5" stroke-linecap="round" stroke-linejoin="round"/>
<path fill-rule="evenodd" clip-rule="evenodd" d="M10.6012 7.37468C10.5916 8.08082 10.3065 8.75415 9.80877 9.2465C9.31101 9.73886 8.64133 10.0099 7.94707 9.99998C7.25282 10.0099 6.58314 9.73886 6.08538 9.2465C5.58762 8.75415 5.30258 8.08082 5.29297 7.37468C5.31359 5.90465 6.50178 4.72987 7.94707 4.75051C9.39237 4.72987 10.5806 5.90465 10.6012 7.37468V7.37468Z" stroke="#9C4040" stroke-width="1.5" stroke-linecap="round" stroke-linejoin="round"/>
</svg>
