<svg width="18" height="10" viewBox="0 0 18 10" fill="none" xmlns="http://www.w3.org/2000/svg">
<g clip-path="url(#clip0_6273_22889)">
<path d="M-531 -102H1236V-104H-531V-102ZM1237 -101V3135H1239V-101H1237ZM1236 3136H-531V3138H1236V3136ZM-532 3135V-101H-534V3135H-532ZM-531 3136C-531.552 3136 -532 3135.55 -532 3135H-534C-534 3136.66 -532.657 3138 -531 3138V3136ZM1237 3135C1237 3135.55 1236.55 3136 1236 3136V3138C1237.66 3138 1239 3136.66 1239 3135H1237ZM1236 -102C1236.55 -102 1237 -101.552 1237 -101H1239C1239 -102.657 1237.66 -104 1236 -104V-102ZM-531 -104C-532.657 -104 -534 -102.657 -534 -101H-532C-532 -101.552 -531.552 -102 -531 -102V-104Z" fill="black" fill-opacity="0.1"/>
<path d="M9 10C13.9706 10 18 8.65685 18 7C18 5.34315 13.9706 4 9 4C4.02944 4 0 5.34315 0 7C0 8.65685 4.02944 10 9 10Z" fill="#CDCDCD" fill-opacity="0.8"/>
<path d="M11.9744 4.30884L11.9736 4.30967C11.1396 5.17986 10.4424 5.73959 9.92163 6.0778C9.66089 6.24713 9.44949 6.35759 9.29159 6.42401C9.16997 6.47516 9.09896 6.49215 9.07063 6.4977C8.96592 6.47723 8.75506 6.39568 8.43129 6.19551C8.09003 5.98451 7.67601 5.67532 7.21458 5.27631C6.29272 4.47917 5.20969 3.34795 4.176 1.99224C2.09858 -0.732326 0.279297 -4.28516 0.279297 -7.79394C0.279297 -10.4393 1.21118 -12.9659 2.85462 -14.8203C4.49631 -16.6727 6.70906 -17.6997 9.00152 -17.6997C11.294 -17.6997 13.5067 -16.6727 15.1484 -14.8203C16.7919 -12.9659 17.7237 -10.4393 17.7237 -7.79394C17.7237 -5.56735 16.9652 -3.2413 15.8545 -1.1075C14.7456 1.02299 13.3023 2.92969 11.9744 4.30884ZM9.00152 -14.4928C7.68305 -14.4912 6.43256 -13.8991 5.52091 -12.8704C4.61099 -11.8437 4.10781 -10.4633 4.10648 -9.03418C4.10648 -7.967 4.38671 -6.91924 4.91696 -6.02382C5.44741 -5.12807 6.20729 -4.42007 7.10791 -3.99915C8.00967 -3.57769 9.00622 -3.46609 9.96844 -3.68205C10.9298 -3.89783 11.8037 -4.42842 12.4835 -5.19548C13.1628 -5.96195 13.6198 -6.93165 13.8045 -7.97944C13.9892 -9.02721 13.8948 -10.1138 13.5314 -11.1038C13.1679 -12.0939 12.549 -12.9496 11.7443 -13.5563C10.9386 -14.1637 9.9841 -14.4928 9.00152 -14.4928Z" fill="#4C8CED" stroke="white"/>
</g>
<defs>
<clipPath id="clip0_6273_22889">
<rect width="18" height="10" fill="white"/>
</clipPath>
</defs>
</svg>
