<svg width="104" height="57" viewBox="0 0 104 57" fill="none" xmlns="http://www.w3.org/2000/svg">
<g filter="url(#filter0_d_2611_53149)">
<path d="M25.18 51.58C25.99 51.58 28.59 50.5 32.31 47.06C38.22 41.62 45.12 32.06 45.12 23.06C45.12 17.7398 43.0065 12.6374 39.2446 8.87544C35.4826 5.11346 30.3802 3 25.06 3C19.7398 3 14.6374 5.11346 10.8754 8.87544C7.11346 12.6374 5 17.7398 5 23.06C5 37.2 21.47 51.28 25.18 51.58ZM25.06 11.11C26.9508 11.11 28.7991 11.6707 30.3713 12.7211C31.9434 13.7716 33.1687 15.2647 33.8923 17.0115C34.6159 18.7584 34.8052 20.6806 34.4363 22.5351C34.0674 24.3895 33.1569 26.0929 31.8199 27.4299C30.483 28.7669 28.7795 29.6774 26.9251 30.0463C25.0706 30.4152 23.1484 30.2259 21.4015 29.5023C19.6547 28.7787 18.1616 27.5534 17.1112 25.9813C16.0607 24.4091 15.5 22.5608 15.5 20.67C15.5026 18.1353 16.5107 15.7053 18.303 13.913C20.0953 12.1207 22.5253 11.1126 25.06 11.11Z" fill="#4C8CED"/>
</g>
<g filter="url(#filter1_d_2611_53149)">
<rect x="11" y="7" width="91" height="27" rx="13.5" fill="white"/>
<rect x="11" y="7" width="91" height="27" rx="13.5" stroke="url(#paint0_linear_2611_53149)" stroke-width="0.5"/>
</g>
<g filter="url(#filter2_dd_2611_53149)">
<circle cx="25.5" cy="20.5" r="7.5" fill="#4C8CED"/>
</g>
<path d="M45.9043 19.1304C45.9913 19.1072 46.0797 19.0913 46.1696 19.0826C46.2594 19.0739 46.3478 19.0696 46.4348 19.0696C46.629 19.0696 46.829 19.0986 47.0348 19.1565C47.2435 19.2116 47.4522 19.2942 47.6609 19.4043L47.1783 20.6783C47.0391 20.6174 46.9072 20.571 46.7826 20.5391C46.658 20.5043 46.5406 20.487 46.4304 20.487C46.3551 20.487 46.2696 20.4957 46.1739 20.513C46.0812 20.5217 45.9812 20.5493 45.8739 20.5957C45.7667 20.6391 45.6594 20.6957 45.5522 20.7652C45.4478 20.8348 45.3464 20.9159 45.2478 21.0087C45.1493 21.0986 45.0609 21.1942 44.9826 21.2957C44.9072 21.3971 44.8449 21.5029 44.7957 21.613C44.7464 21.7203 44.7188 21.8246 44.713 21.9261C44.7072 22.0072 44.7304 22.0739 44.7826 22.1261C44.8348 22.1754 44.9043 22.2188 44.9913 22.2565C45.0783 22.2913 45.1768 22.3232 45.287 22.3522C45.3971 22.3783 45.5087 22.4087 45.6217 22.4435L45.7478 22.4739C45.9333 22.5174 46.1174 22.5667 46.3 22.6217C46.4855 22.6768 46.6522 22.7551 46.8 22.8565C46.9478 22.9551 47.0667 23.0855 47.1565 23.2478C47.2493 23.4101 47.2957 23.6203 47.2957 23.8783C47.2957 23.9304 47.2928 23.9841 47.287 24.0391C47.2841 24.0971 47.2768 24.1565 47.2652 24.2174C47.2362 24.3739 47.1841 24.5261 47.1087 24.6739C47.0333 24.8246 46.9377 24.9667 46.8217 25.1C46.7087 25.2362 46.5768 25.3623 46.4261 25.4783C46.2783 25.5971 46.1159 25.7029 45.9391 25.7957C45.6058 25.9609 45.2246 26.0884 44.7957 26.1783C44.3667 26.271 43.9058 26.3174 43.413 26.3174C42.8217 26.3174 42.3 26.2304 41.8478 26.0565C41.3957 25.8855 41.0203 25.6348 40.7217 25.3043C40.4957 25.0348 40.329 24.7391 40.2217 24.4174C40.1174 24.0957 40.0652 23.7594 40.0652 23.4087C40.0652 23.3333 40.0681 23.258 40.0739 23.1826C40.0797 23.1072 40.0855 23.0362 40.0913 22.9696C40.1029 22.7609 40.1261 22.5565 40.1609 22.3565C40.1957 22.1536 40.2348 21.9638 40.2783 21.787C40.3246 21.6072 40.3739 21.442 40.4261 21.2913C40.4783 21.1377 40.5261 21.0043 40.5696 20.8913C40.613 20.7754 40.6493 20.6841 40.6783 20.6174C40.7101 20.5478 40.729 20.5058 40.7348 20.4913L41.8261 20.9478C41.7536 21.1188 41.6841 21.287 41.6174 21.4522C41.5536 21.6145 41.4957 21.7826 41.4435 21.9565C41.3942 22.1275 41.3522 22.3087 41.3174 22.5C41.2855 22.6913 41.2652 22.9 41.2565 23.1261C41.2536 23.158 41.2507 23.1928 41.2478 23.2304C41.2449 23.2681 41.2435 23.3014 41.2435 23.3304C41.2435 23.513 41.271 23.6928 41.3261 23.8696C41.3841 24.0464 41.4783 24.2058 41.6087 24.3478C41.687 24.4377 41.7884 24.5159 41.913 24.5826C42.0406 24.6522 42.1841 24.7101 42.3435 24.7565C42.5029 24.8058 42.6739 24.842 42.8565 24.8652C43.0391 24.8913 43.2246 24.9043 43.413 24.9043C43.7812 24.9043 44.1246 24.8783 44.4435 24.8261C44.7652 24.7768 45.0478 24.7101 45.2913 24.6261C45.5348 24.5449 45.7304 24.4493 45.8783 24.3391C46.029 24.2319 46.1159 24.1217 46.1391 24.0087C46.1333 24.0087 46.1159 24.0058 46.087 24C46.058 23.9942 46.0203 23.9855 45.9739 23.9739C45.9304 23.9652 45.8797 23.9536 45.8217 23.9391C45.7667 23.9275 45.7087 23.9145 45.6478 23.9L45.413 23.8478C45.1551 23.7841 44.9116 23.7101 44.6826 23.6261C44.4565 23.5449 44.258 23.4362 44.087 23.3C43.9188 23.1667 43.7841 22.9986 43.6826 22.7957C43.5841 22.5899 43.5348 22.3304 43.5348 22.0174C43.5493 21.6841 43.6188 21.3594 43.7435 21.0435C43.8681 20.7275 44.0362 20.4391 44.2478 20.1783C44.4594 19.9174 44.7058 19.6957 44.987 19.513C45.271 19.3275 45.5783 19.2 45.9087 19.1304H45.9043ZM49.9682 23.2609C49.5885 23.2609 49.216 23.1884 48.8508 23.0435C48.4885 22.8986 48.1523 22.6652 47.8421 22.3435L48.6291 21.2348C48.7711 21.3652 48.9088 21.4725 49.0421 21.5565C49.1755 21.6377 49.303 21.7014 49.4247 21.7478C49.5465 21.7942 49.661 21.8261 49.7682 21.8435C49.8784 21.8609 49.9813 21.8696 50.0769 21.8696C50.1204 21.8696 50.1697 21.8681 50.2247 21.8652C50.2798 21.8623 50.3349 21.858 50.39 21.8522C50.445 21.8435 50.4987 21.8333 50.5508 21.8217C50.603 21.8101 50.6508 21.7957 50.6943 21.7783C50.845 21.7145 50.9639 21.6507 51.0508 21.587C50.9407 21.3203 50.8204 21.0435 50.69 20.7565C50.5624 20.4667 50.4334 20.1768 50.303 19.887C50.1726 19.5942 50.0436 19.3043 49.916 19.0174C49.7885 18.7304 49.6697 18.4551 49.5595 18.1913L50.8291 17.6609L51.216 18.6C51.3407 18.9072 51.49 19.2725 51.6639 19.6957C51.8378 20.1159 52.0378 20.5928 52.2639 21.1261C52.316 21.2536 52.3639 21.3652 52.4074 21.4609C52.4508 21.5565 52.5016 21.6362 52.5595 21.7C52.6204 21.7638 52.6914 21.8116 52.7726 21.8435C52.8566 21.8725 52.9639 21.887 53.0943 21.887C53.1871 21.887 53.2755 21.9043 53.3595 21.9391C53.4436 21.9739 53.516 22.0232 53.5769 22.087C53.6407 22.1478 53.6914 22.2203 53.7291 22.3043C53.7668 22.3884 53.7856 22.4783 53.7856 22.5739C53.7856 22.6696 53.7668 22.7594 53.7291 22.8435C53.6914 22.9275 53.6407 23 53.5769 23.0609C53.516 23.1246 53.4436 23.1739 53.3595 23.2087C53.2755 23.2435 53.1871 23.2609 53.0943 23.2609C52.9175 23.2609 52.761 23.2493 52.6247 23.2261C52.4914 23.2029 52.3711 23.1696 52.2639 23.1261C52.1595 23.0855 52.0653 23.0362 51.9813 22.9783C51.9001 22.9174 51.8233 22.8507 51.7508 22.7783C51.6726 22.8304 51.59 22.8812 51.503 22.9304C51.416 22.9768 51.316 23.0232 51.203 23.0696C51.0291 23.1362 50.8407 23.1841 50.6378 23.213C50.4378 23.2449 50.2146 23.2609 49.9682 23.2609ZM56.687 22.0174C56.7798 21.9942 56.8348 21.8739 56.8522 21.6565C56.8696 21.4304 56.8276 21.2275 56.7261 21.0478C56.6363 20.8826 56.5001 20.7391 56.3174 20.6174C56.1348 20.4957 55.9972 20.4536 55.9044 20.4913C55.7798 20.5435 55.5914 20.8652 55.3392 21.4565C56.0667 21.8739 56.516 22.0609 56.687 22.0174ZM58.8827 22.5739C58.8827 22.7623 58.816 22.9232 58.6827 23.0565C58.5464 23.1899 58.3841 23.258 58.1957 23.2609H58.1914C57.8261 23.2609 57.5305 23.1362 57.3044 22.887C57.0667 23.1246 56.7638 23.2435 56.3957 23.2435C55.9696 23.2435 55.3508 23.029 54.5392 22.6C54.487 22.7101 54.387 22.8217 54.2392 22.9348C54.1087 23.0333 53.9595 23.1101 53.7914 23.1652C53.5798 23.2348 53.3421 23.2696 53.0783 23.2696C52.887 23.2696 52.7247 23.2029 52.5914 23.0696C52.458 22.9362 52.3914 22.7739 52.3914 22.5826C52.3914 22.3942 52.458 22.2333 52.5914 22.1C52.7247 21.9667 52.887 21.9 53.0783 21.9C53.4406 21.9 53.7566 21.7203 54.0261 21.3609C54.1218 21.2304 54.2232 21.0609 54.3305 20.8522C54.3624 20.7884 54.4058 20.7014 54.4609 20.5913L54.5218 20.4609L54.5827 20.3391C54.974 19.5623 55.4624 19.1739 56.0479 19.1739C56.474 19.1739 56.8508 19.3159 57.1783 19.6C57.5493 19.9217 57.7595 20.3638 57.8087 20.9261L57.8131 20.9652C57.8189 20.9826 57.8218 21.0029 57.8218 21.0261C57.8276 21.1681 57.8479 21.3116 57.8827 21.4565C57.9145 21.5812 57.9522 21.6797 57.9957 21.7522C58.0537 21.842 58.1203 21.887 58.1957 21.887C58.3841 21.887 58.545 21.9536 58.6783 22.087C58.8145 22.2203 58.8827 22.3826 58.8827 22.5739ZM57.5324 22.5739C57.5324 22.4783 57.5513 22.3884 57.5889 22.3043C57.6237 22.2203 57.673 22.1478 57.7368 22.087C57.7976 22.0232 57.8716 21.9739 57.9585 21.9391C58.0426 21.9043 58.1324 21.887 58.2281 21.887H59.0629C59.5324 21.887 59.9629 21.8594 60.3542 21.8043C60.7484 21.7464 61.1165 21.6696 61.4585 21.5739C61.8005 21.4783 62.1237 21.3681 62.4281 21.2435C62.7353 21.1159 63.0368 20.9841 63.3324 20.8478C63.1353 20.7928 62.9368 20.7246 62.7368 20.6435C62.5397 20.5623 62.3411 20.4841 62.1411 20.4087C61.944 20.3333 61.7469 20.2696 61.5498 20.2174C61.3527 20.1623 61.1571 20.1348 60.9629 20.1348C60.8295 20.1348 60.6991 20.171 60.5716 20.2435C60.444 20.3159 60.3281 20.3986 60.2237 20.4913C60.1194 20.5841 60.031 20.6754 59.9585 20.7652C59.8889 20.8522 59.8455 20.9116 59.8281 20.9435L58.8237 20.2957C58.9339 20.1014 59.0643 19.9116 59.215 19.7261C59.3658 19.5406 59.531 19.3768 59.7107 19.2348C59.8933 19.0899 60.0889 18.9739 60.2976 18.887C60.5092 18.8 60.731 18.7565 60.9629 18.7565C61.1339 18.7565 61.3049 18.7754 61.4759 18.813C61.6469 18.8478 61.8165 18.8942 61.9846 18.9522C62.1556 19.0101 62.3237 19.0768 62.4889 19.1522C62.6542 19.2246 62.8179 19.2986 62.9802 19.3739C63.1368 19.4464 63.2918 19.5188 63.4455 19.5913C63.602 19.6609 63.7629 19.7261 63.9281 19.787C64.0933 19.8449 64.2643 19.8928 64.4411 19.9304C64.6179 19.9681 64.8049 19.9884 65.002 19.9913L64.8933 21.3261L64.2759 21.6217C64.0237 21.7435 63.773 21.8696 63.5237 22C63.2745 22.1275 63.0194 22.2522 62.7585 22.3739C62.5005 22.4928 62.2339 22.6072 61.9585 22.7174C61.686 22.8246 61.3991 22.9188 61.0976 23C60.7962 23.0783 60.4773 23.1406 60.1411 23.187C59.8049 23.2362 59.4455 23.2609 59.0629 23.2609H58.2629H58.2281C58.1324 23.2609 58.0426 23.242 57.9585 23.2043C57.8716 23.1696 57.7976 23.1217 57.7368 23.0609C57.673 23 57.6237 22.9275 57.5889 22.8435C57.5513 22.7594 57.5324 22.6696 57.5324 22.5739ZM65.5088 23.2739C65.5233 23.0362 65.5377 22.7899 65.5522 22.5348C65.5667 22.2797 65.5783 22.0275 65.587 21.7783C65.5986 21.529 65.6059 21.287 65.6088 21.0522C65.6117 20.8174 65.6088 20.6014 65.6001 20.4043C65.5827 19.9928 65.5653 19.6319 65.5479 19.3217C65.5334 19.0087 65.5175 18.7319 65.5001 18.4913C65.4856 18.2507 65.4696 18.0406 65.4522 17.8609C65.4377 17.6783 65.4218 17.5116 65.4044 17.3609C65.387 17.2101 65.3682 17.0696 65.3479 16.9391C65.3276 16.8058 65.3059 16.6681 65.2827 16.5261L66.6262 16.0826C66.6899 16.471 66.7406 16.8623 66.7783 17.2565C66.8189 17.6507 66.8493 18.029 66.8696 18.3913C66.8899 18.7507 66.903 19.0855 66.9088 19.3957C66.9175 19.7058 66.9218 19.971 66.9218 20.1913C66.9218 20.3913 66.9204 20.6072 66.9175 20.8391C66.9175 21.071 66.9146 21.3116 66.9088 21.5609C66.9059 21.8101 66.9001 22.0623 66.8914 22.3174C66.8827 22.5725 66.8696 22.8217 66.8522 23.0652L65.5088 23.2739ZM72.4092 23.2609C72.0527 23.2609 71.7469 23.2159 71.4918 23.1261C71.2368 23.0391 71.0165 22.9043 70.831 22.7217C70.715 22.6058 70.6252 22.4841 70.5614 22.3565C70.5005 22.229 70.4556 22.1043 70.4266 21.9826C70.4005 21.858 70.3846 21.7406 70.3788 21.6304C70.3759 21.5203 70.3745 21.4261 70.3745 21.3478V21.2826C70.3774 21.1754 70.3803 21.0217 70.3832 20.8217C70.3889 20.6188 70.3918 20.3812 70.3918 20.1087C70.3918 19.8362 70.3904 19.5362 70.3875 19.2087C70.3846 18.8812 70.3759 18.5551 70.3614 18.2304C70.3498 17.9029 70.331 17.5884 70.3049 17.287C70.2817 16.9855 70.2484 16.7232 70.2049 16.5L71.5049 16.1043C71.5426 16.2957 71.573 16.5217 71.5962 16.7826C71.6194 17.0406 71.6382 17.3116 71.6527 17.5957C71.6701 17.8797 71.6817 18.1652 71.6875 18.4522C71.6962 18.7391 71.702 19.0058 71.7049 19.2522C71.7078 19.4696 71.6991 19.6826 71.6788 19.8913C71.6614 20.0971 71.6469 20.3 71.6353 20.5C71.6237 20.6971 71.6237 20.8899 71.6353 21.0783C71.6498 21.2638 71.6904 21.4449 71.7571 21.6217C71.7832 21.6884 71.815 21.7391 71.8527 21.7739C71.8933 21.8087 71.9397 21.8348 71.9918 21.8522C72.044 21.8667 72.1005 21.8754 72.1614 21.8783C72.2252 21.8812 72.2947 21.8826 72.3701 21.8826H72.4092C72.502 21.8826 72.5904 21.9014 72.6745 21.9391C72.7585 21.9768 72.831 22.0275 72.8918 22.0913C72.9556 22.1522 73.0063 22.2246 73.044 22.3087C73.0817 22.3928 73.1005 22.4812 73.1005 22.5739C73.1005 22.6696 73.0817 22.7594 73.044 22.8435C73.0063 22.9275 72.9556 23 72.8918 23.0609C72.831 23.1246 72.7585 23.1739 72.6745 23.2087C72.5904 23.2435 72.502 23.2609 72.4092 23.2609ZM71.711 22.5739C71.711 22.4783 71.7299 22.3884 71.7676 22.3043C71.8023 22.2203 71.8516 22.1478 71.9154 22.087C71.9792 22.0232 72.0531 21.9739 72.1371 21.9391C72.2212 21.9043 72.3096 21.887 72.4023 21.887C72.5444 21.887 72.6661 21.8768 72.7676 21.8565C72.869 21.8362 72.9531 21.8116 73.0197 21.7826C73.0893 21.7507 73.1444 21.7174 73.185 21.6826C73.2255 21.6449 73.2574 21.6101 73.2806 21.5783L73.2763 21.5826C73.3168 21.5217 73.3574 21.4522 73.398 21.3739C73.4386 21.2928 73.4821 21.1855 73.5284 21.0522C73.5777 20.9188 73.6299 20.7507 73.685 20.5478C73.7429 20.342 73.8081 20.0855 73.8806 19.7783L75.0197 20.1478C74.9907 20.258 74.9632 20.3638 74.9371 20.4652C74.911 20.5638 74.8922 20.6609 74.8806 20.7565C74.8719 20.8522 74.8719 20.9478 74.8806 21.0435C74.8893 21.1391 74.9139 21.2391 74.9545 21.3435C75.0763 21.1406 75.2038 20.9406 75.3371 20.7435C75.4705 20.5435 75.6139 20.3551 75.7676 20.1783C75.9241 19.9986 76.0922 19.8319 76.2719 19.6783C76.4516 19.5246 76.6487 19.3928 76.8632 19.2826C77.0806 19.1696 77.3168 19.0812 77.5719 19.0174C77.827 18.9507 78.1081 18.9159 78.4154 18.913C78.769 18.9101 79.0806 18.9696 79.3502 19.0913C79.6197 19.2101 79.8444 19.3681 80.0241 19.5652C80.2067 19.7594 80.3415 19.9812 80.4284 20.2304C80.5154 20.4768 80.5531 20.7232 80.5415 20.9696C80.527 21.2768 80.4473 21.5638 80.3023 21.8304C80.1603 22.0971 79.9748 22.3261 79.7458 22.5174C79.5342 22.6826 79.298 22.8188 79.0371 22.9261C78.7792 23.0333 78.5125 23.1174 78.2371 23.1783C77.9647 23.242 77.6907 23.2855 77.4154 23.3087C77.1429 23.3348 76.8864 23.3478 76.6458 23.3478C76.3618 23.3478 76.1067 23.3391 75.8806 23.3217C75.6545 23.3043 75.4429 23.2696 75.2458 23.2174C75.0516 23.1681 74.8676 23.0971 74.6936 23.0043C74.5226 22.9145 74.3502 22.7957 74.1763 22.6478C73.9676 22.8565 73.7212 23.0101 73.4371 23.1087C73.156 23.2072 72.8241 23.258 72.4415 23.2609H72.4023C72.3096 23.2609 72.2212 23.2435 72.1371 23.2087C72.0531 23.1739 71.9792 23.1246 71.9154 23.0609C71.8516 23 71.8023 22.9275 71.7676 22.8435C71.7299 22.7594 71.711 22.6696 71.711 22.5739ZM78.398 20.2957C78.1197 20.2957 77.8516 20.3507 77.5936 20.4609C77.3357 20.5681 77.0994 20.7029 76.885 20.8652C76.6734 21.0275 76.4864 21.2014 76.3241 21.387C76.1647 21.5725 76.0415 21.7435 75.9545 21.9C76.0676 21.9058 76.1951 21.9101 76.3371 21.913C76.4792 21.9159 76.6168 21.9174 76.7502 21.9174C76.9299 21.9174 77.1154 21.913 77.3067 21.9043C77.5009 21.8928 77.6907 21.8739 77.8763 21.8478C78.0647 21.8188 78.2444 21.7797 78.4154 21.7304C78.5893 21.6812 78.7458 21.6188 78.885 21.5435C79.027 21.4652 79.1473 21.3725 79.2458 21.2652C79.3473 21.158 79.4183 21.0319 79.4589 20.887C79.4299 20.6841 79.3212 20.5348 79.1328 20.4391C78.9473 20.3435 78.7023 20.2957 78.398 20.2957ZM78.0241 16.3261L78.9893 17.2913L78.0241 18.2565L77.0589 17.2913L78.0241 16.3261ZM84.2857 23.2609C84.222 23.2609 84.1321 23.2565 84.0162 23.2478C83.9002 23.2391 83.7756 23.2072 83.6423 23.1522C83.5785 23.5116 83.4582 23.8522 83.2814 24.1739C83.1075 24.4986 82.8915 24.8014 82.6336 25.0826C82.3756 25.3667 82.0814 25.6275 81.751 25.8652C81.4205 26.1029 81.0683 26.3159 80.6944 26.5043L79.8988 25.4043C80.1046 25.3 80.3118 25.1855 80.5205 25.0609C80.7292 24.9391 80.9278 24.8087 81.1162 24.6696C81.3075 24.5333 81.4843 24.3899 81.6466 24.2391C81.8118 24.0913 81.9553 23.9377 82.077 23.7783C82.1988 23.6188 82.2944 23.4551 82.364 23.287C82.4336 23.1217 82.4683 22.9536 82.4683 22.7826C82.4683 22.7739 82.4669 22.7609 82.464 22.7435C82.464 22.7261 82.464 22.7087 82.464 22.6913C82.464 22.6739 82.4625 22.6609 82.4596 22.6522C82.4596 22.6435 82.4596 22.6449 82.4596 22.6565V22.6609C82.4394 22.4928 82.4104 22.3319 82.3727 22.1783C82.335 22.0246 82.2872 21.8681 82.2292 21.7087C82.1741 21.5493 82.1089 21.3826 82.0336 21.2087C81.9582 21.0319 81.8741 20.8391 81.7814 20.6304L83.0379 20.0826C83.1538 20.4304 83.2625 20.7203 83.364 20.9522C83.4654 21.1841 83.564 21.3696 83.6596 21.5087C83.7582 21.6478 83.8567 21.7464 83.9553 21.8043C84.0538 21.8594 84.1582 21.887 84.2683 21.887H84.2901C84.3857 21.887 84.4756 21.9058 84.5596 21.9435C84.6437 21.9812 84.7162 22.0319 84.777 22.0957C84.8408 22.1565 84.8901 22.229 84.9249 22.313C84.9625 22.3971 84.9814 22.4855 84.9814 22.5783C84.9814 22.6739 84.9625 22.7638 84.9249 22.8478C84.8901 22.9319 84.8408 23.0043 84.777 23.0652C84.7162 23.1261 84.6437 23.1739 84.5596 23.2087C84.4756 23.2435 84.3843 23.2609 84.2857 23.2609ZM83.5307 22.5739C83.5307 22.4783 83.548 22.3884 83.5828 22.3043C83.6176 22.2203 83.6669 22.1478 83.7307 22.087C83.7915 22.0232 83.864 21.9739 83.948 21.9391C84.0321 21.9043 84.122 21.887 84.2176 21.887H84.548C84.7567 21.887 84.9567 21.8783 85.148 21.8609C85.3422 21.8435 85.5133 21.8072 85.6611 21.7522C85.8089 21.6942 85.9278 21.6145 86.0176 21.513C86.1104 21.4087 86.1596 21.271 86.1654 21.1C86.1683 21.0362 86.1683 20.9841 86.1654 20.9435C86.1654 20.9 86.1582 20.8493 86.1437 20.7913C86.1292 20.7304 86.1075 20.6522 86.0785 20.5565C86.0524 20.458 86.0147 20.3203 85.9654 20.1435L87.2307 19.787C87.2857 19.9261 87.3365 20.1101 87.3828 20.3391C87.4292 20.5681 87.464 20.8188 87.4872 21.0913C87.493 21.1783 87.5031 21.2681 87.5176 21.3609C87.5321 21.4536 87.5553 21.5391 87.5872 21.6174C87.622 21.6957 87.6683 21.7609 87.7263 21.813C87.7843 21.8623 87.8596 21.887 87.9524 21.887C88.048 21.887 88.1379 21.9043 88.222 21.9391C88.306 21.9739 88.3785 22.0232 88.4394 22.087C88.5031 22.1478 88.5524 22.2203 88.5872 22.3043C88.6249 22.3884 88.6437 22.4783 88.6437 22.5739C88.6437 22.6696 88.6249 22.7594 88.5872 22.8435C88.5524 22.9275 88.5031 23 88.4394 23.0609C88.3756 23.1246 88.3017 23.1739 88.2176 23.2087C88.1365 23.2435 88.0495 23.2609 87.9567 23.2609C87.6785 23.2609 87.4394 23.2174 87.2394 23.1304C87.0422 23.0464 86.8727 22.9362 86.7307 22.8C86.6002 22.887 86.4495 22.9594 86.2785 23.0174C86.1104 23.0754 85.9307 23.1217 85.7394 23.1565C85.548 23.1942 85.3509 23.2203 85.148 23.2348C84.9451 23.2522 84.7451 23.2609 84.548 23.2609H84.2176C84.122 23.2609 84.0321 23.2435 83.948 23.2087C83.864 23.1739 83.7915 23.1246 83.7307 23.0609C83.6669 23 83.6176 22.9275 83.5828 22.8435C83.548 22.7594 83.5307 22.6696 83.5307 22.5739ZM87.6915 24.8217L86.8567 25.6609L86.0307 24.8348L85.2133 25.6522L84.3698 24.813L85.2046 23.9739L86.0307 24.8L86.848 23.9826L87.6915 24.8217ZM87.2622 22.5739C87.2622 22.4783 87.281 22.3884 87.3187 22.3043C87.3535 22.2203 87.4013 22.1478 87.4622 22.087C87.5231 22.0261 87.5955 21.9783 87.6796 21.9435C87.7636 21.9058 87.8535 21.887 87.9492 21.887H87.9883H88.2665H88.2622C88.3607 21.9101 88.452 21.9 88.5361 21.8565C88.6202 21.8101 88.6926 21.7449 88.7535 21.6609C88.8144 21.5739 88.8622 21.4754 88.897 21.3652C88.9318 21.2522 88.9492 21.1406 88.9492 21.0304C88.9549 20.7841 88.952 20.4696 88.9405 20.087C88.9289 19.7043 88.9202 19.258 88.9144 18.7478C88.9086 18.2812 88.9013 17.8536 88.8926 17.4652C88.8868 17.0768 88.8723 16.7014 88.8492 16.3391L90.2013 16.0913C90.2245 16.2768 90.2419 16.4783 90.2535 16.6957C90.268 16.9101 90.2781 17.1348 90.2839 17.3696C90.2926 17.6043 90.2984 17.8464 90.3013 18.0957C90.3042 18.3449 90.3057 18.5957 90.3057 18.8478C90.3057 19.2449 90.3013 19.6435 90.2926 20.0435C90.2868 20.2435 90.2825 20.4522 90.2796 20.6696C90.2767 20.887 90.2752 21.1 90.2752 21.3087C90.2752 21.358 90.281 21.4188 90.2926 21.4913C90.3042 21.5638 90.3303 21.6333 90.3709 21.7H90.3665C90.4013 21.7522 90.452 21.7971 90.5187 21.8348C90.5854 21.8696 90.6883 21.887 90.8274 21.887C90.9231 21.887 91.0129 21.9058 91.097 21.9435C91.181 21.9783 91.2535 22.0261 91.3144 22.087C91.3781 22.1478 91.4289 22.2203 91.4665 22.3043C91.5042 22.3884 91.5231 22.4783 91.5231 22.5739C91.5231 22.6696 91.5042 22.7594 91.4665 22.8435C91.4289 22.9275 91.3781 23 91.3144 23.0609C91.2535 23.1246 91.181 23.1739 91.097 23.2087C91.0129 23.2435 90.9231 23.2609 90.8274 23.2609C90.5694 23.2667 90.3405 23.2217 90.1405 23.1261C89.9405 23.0333 89.7709 22.9188 89.6318 22.7826C89.4665 22.9333 89.2825 23.0493 89.0796 23.1304C88.8767 23.2116 88.6709 23.2551 88.4622 23.2609H87.9883H87.9492C87.8535 23.2609 87.7636 23.2435 87.6796 23.2087C87.5955 23.1739 87.5231 23.1246 87.4622 23.0609C87.4013 23 87.3535 22.9275 87.3187 22.8435C87.281 22.7594 87.2622 22.6696 87.2622 22.5739ZM94.8257 20.387C94.7504 20.3464 94.6736 20.3101 94.5953 20.2783C94.5199 20.2435 94.4417 20.2116 94.3605 20.1826C94.2214 20.1333 94.0663 20.0928 93.8953 20.0609C93.7243 20.029 93.5475 20.0232 93.3649 20.0435C93.2402 20.058 93.1199 20.0913 93.004 20.1435C92.8909 20.1957 92.7895 20.2609 92.6996 20.3391C92.6127 20.4145 92.5431 20.5 92.4909 20.5957C92.4388 20.6913 92.4127 20.7884 92.4127 20.887C92.4127 21.0261 92.4562 21.1493 92.5431 21.2565C92.6301 21.3609 92.7402 21.4478 92.8736 21.5174C93.0098 21.587 93.1591 21.6391 93.3214 21.6739C93.4837 21.7087 93.6417 21.7232 93.7953 21.7174C93.9605 21.7029 94.1315 21.6826 94.3083 21.6565C94.488 21.6304 94.6562 21.6029 94.8127 21.5739C94.9025 21.5594 94.9924 21.5435 95.0823 21.5261C95.1721 21.5087 95.262 21.4899 95.3518 21.4696L95.5301 22.8217C95.3359 22.8739 95.1185 22.9261 94.8779 22.9783C94.6373 23.0275 94.3649 23.0725 94.0605 23.113C93.7562 23.1565 93.4156 23.1899 93.0388 23.213C92.662 23.2391 92.2417 23.2522 91.7779 23.2522L90.8301 23.2609C90.7344 23.2609 90.6446 23.242 90.5605 23.2043C90.4736 23.1696 90.3996 23.1203 90.3388 23.0565C90.275 22.9957 90.2257 22.9232 90.1909 22.8391C90.1533 22.7551 90.1344 22.6652 90.1344 22.5696C90.1344 22.4739 90.1533 22.3855 90.1909 22.3043C90.2286 22.2232 90.2794 22.1522 90.3431 22.0913C90.4069 22.0304 90.4808 21.9826 90.5649 21.9478C90.646 21.9101 90.733 21.8884 90.8257 21.8826L91.504 21.8739C91.3996 21.7087 91.3272 21.5406 91.2866 21.3696C91.246 21.1986 91.2272 21.0116 91.2301 20.8087C91.233 20.5536 91.2895 20.3029 91.3996 20.0565C91.5127 19.8101 91.6649 19.5884 91.8562 19.3913C92.0504 19.1942 92.2765 19.0304 92.5344 18.9C92.7924 18.7696 93.0692 18.6928 93.3649 18.6696C93.5127 18.658 93.6547 18.6594 93.7909 18.6739C93.9272 18.6855 94.0562 18.7072 94.1779 18.7391C94.2996 18.7681 94.4141 18.8043 94.5214 18.8478C94.6286 18.8884 94.7257 18.9319 94.8127 18.9783C94.9141 19.0333 95.0112 19.0928 95.104 19.1565C95.1967 19.2174 95.2837 19.2841 95.3649 19.3565L94.8257 20.387Z" fill="#303030"/>
<defs>
<filter id="filter0_d_2611_53149" x="0.5" y="0.5" width="47.1201" height="55.5801" filterUnits="userSpaceOnUse" color-interpolation-filters="sRGB">
<feFlood flood-opacity="0" result="BackgroundImageFix"/>
<feColorMatrix in="SourceAlpha" type="matrix" values="0 0 0 0 0 0 0 0 0 0 0 0 0 0 0 0 0 0 127 0" result="hardAlpha"/>
<feOffset dx="-1" dy="1"/>
<feGaussianBlur stdDeviation="1.75"/>
<feComposite in2="hardAlpha" operator="out"/>
<feColorMatrix type="matrix" values="0 0 0 0 0 0 0 0 0 0 0 0 0 0 0 0 0 0 0.25 0"/>
<feBlend mode="normal" in2="BackgroundImageFix" result="effect1_dropShadow_2611_53149"/>
<feBlend mode="normal" in="SourceGraphic" in2="effect1_dropShadow_2611_53149" result="shape"/>
</filter>
<filter id="filter1_d_2611_53149" x="10.75" y="6.75" width="93.2" height="29.2" filterUnits="userSpaceOnUse" color-interpolation-filters="sRGB">
<feFlood flood-opacity="0" result="BackgroundImageFix"/>
<feColorMatrix in="SourceAlpha" type="matrix" values="0 0 0 0 0 0 0 0 0 0 0 0 0 0 0 0 0 0 127 0" result="hardAlpha"/>
<feOffset dx="1" dy="1"/>
<feGaussianBlur stdDeviation="0.35"/>
<feComposite in2="hardAlpha" operator="out"/>
<feColorMatrix type="matrix" values="0 0 0 0 0 0 0 0 0 0 0 0 0 0 0 0 0 0 0.1 0"/>
<feBlend mode="normal" in2="BackgroundImageFix" result="effect1_dropShadow_2611_53149"/>
<feBlend mode="normal" in="SourceGraphic" in2="effect1_dropShadow_2611_53149" result="shape"/>
</filter>
<filter id="filter2_dd_2611_53149" x="16" y="10" width="19" height="20.3" filterUnits="userSpaceOnUse" color-interpolation-filters="sRGB">
<feFlood flood-opacity="0" result="BackgroundImageFix"/>
<feColorMatrix in="SourceAlpha" type="matrix" values="0 0 0 0 0 0 0 0 0 0 0 0 0 0 0 0 0 0 127 0" result="hardAlpha"/>
<feOffset dy="1"/>
<feGaussianBlur stdDeviation="0.65"/>
<feComposite in2="hardAlpha" operator="out"/>
<feColorMatrix type="matrix" values="0 0 0 0 0 0 0 0 0 0 0 0 0 0 0 0 0 0 0.25 0"/>
<feBlend mode="normal" in2="BackgroundImageFix" result="effect1_dropShadow_2611_53149"/>
<feColorMatrix in="SourceAlpha" type="matrix" values="0 0 0 0 0 0 0 0 0 0 0 0 0 0 0 0 0 0 127 0" result="hardAlpha"/>
<feOffset dy="-1"/>
<feGaussianBlur stdDeviation="1"/>
<feComposite in2="hardAlpha" operator="out"/>
<feColorMatrix type="matrix" values="0 0 0 0 0 0 0 0 0 0 0 0 0 0 0 0 0 0 0.25 0"/>
<feBlend mode="normal" in2="effect1_dropShadow_2611_53149" result="effect2_dropShadow_2611_53149"/>
<feBlend mode="normal" in="SourceGraphic" in2="effect2_dropShadow_2611_53149" result="shape"/>
</filter>
<linearGradient id="paint0_linear_2611_53149" x1="11" y1="21" x2="102" y2="21" gradientUnits="userSpaceOnUse">
<stop offset="0.357038" stop-color="white"/>
<stop offset="0.594" stop-color="#B4B4B4"/>
</linearGradient>
</defs>
</svg>
