<svg width="22" height="22" viewBox="0 0 22 22" fill="none" xmlns="http://www.w3.org/2000/svg">
<path d="M11.0001 18.4989C15.1423 18.4989 18.5003 15.141 18.5003 10.9989C18.5003 6.85685 15.1423 3.49902 11.0001 3.49902C6.85793 3.49902 3.5 6.85685 3.5 10.9989C3.5 15.141 6.85793 18.4989 11.0001 18.4989Z" stroke="url(#paint0_linear_4756_9311)" stroke-width="2" stroke-linecap="round" stroke-linejoin="round"/>
<path d="M11.002 13.999C12.6589 13.999 14.0021 12.6558 14.0021 10.999C14.0021 9.34216 12.6589 7.99902 11.002 7.99902C9.34512 7.99902 8.00195 9.34216 8.00195 10.999C8.00195 12.6558 9.34512 13.999 11.002 13.999Z" stroke="url(#paint1_linear_4756_9311)" stroke-width="2" stroke-linecap="round" stroke-linejoin="round"/>
<path d="M11 2.999V0.999023" stroke="url(#paint2_linear_4756_9311)" stroke-width="2" stroke-linecap="round" stroke-linejoin="round"/>
<path d="M3.00004 10.999H1" stroke="url(#paint3_linear_4756_9311)" stroke-width="2" stroke-linecap="round" stroke-linejoin="round"/>
<path d="M11 18.999V20.999" stroke="url(#paint4_linear_4756_9311)" stroke-width="2" stroke-linecap="round" stroke-linejoin="round"/>
<path d="M19 10.999H21" stroke="url(#paint5_linear_4756_9311)" stroke-width="2" stroke-linecap="round" stroke-linejoin="round"/>
<defs>
<linearGradient id="paint0_linear_4756_9311" x1="11.0001" y1="3.49902" x2="11.0001" y2="18.4989" gradientUnits="userSpaceOnUse">
<stop stop-color="#1C43CE"/>
<stop offset="1" stop-color="#636363"/>
</linearGradient>
<linearGradient id="paint1_linear_4756_9311" x1="11.002" y1="7.99902" x2="11.002" y2="13.999" gradientUnits="userSpaceOnUse">
<stop stop-color="#1C43CE"/>
<stop offset="1" stop-color="#636363"/>
</linearGradient>
<linearGradient id="paint2_linear_4756_9311" x1="11.5" y1="0.999023" x2="11.5" y2="2.999" gradientUnits="userSpaceOnUse">
<stop stop-color="#1C43CE"/>
<stop offset="1" stop-color="#636363"/>
</linearGradient>
<linearGradient id="paint3_linear_4756_9311" x1="2.00002" y1="10.999" x2="2.00002" y2="11.999" gradientUnits="userSpaceOnUse">
<stop stop-color="#1C43CE"/>
<stop offset="1" stop-color="#636363"/>
</linearGradient>
<linearGradient id="paint4_linear_4756_9311" x1="11.5" y1="18.999" x2="11.5" y2="20.999" gradientUnits="userSpaceOnUse">
<stop stop-color="#1C43CE"/>
<stop offset="1" stop-color="#636363"/>
</linearGradient>
<linearGradient id="paint5_linear_4756_9311" x1="20" y1="10.999" x2="20" y2="11.999" gradientUnits="userSpaceOnUse">
<stop stop-color="#1C43CE"/>
<stop offset="1" stop-color="#636363"/>
</linearGradient>
</defs>
</svg>
