<svg width="23" height="24" viewBox="0 0 23 24" fill="none" xmlns="http://www.w3.org/2000/svg">
<path d="M12.25 11.998C12.25 11.5838 11.9142 11.248 11.5 11.248C11.0858 11.248 10.75 11.5838 10.75 11.998H12.25ZM10.75 20.2454C10.75 20.6596 11.0858 20.9954 11.5 20.9954C11.9142 20.9954 12.25 20.6596 12.25 20.2454H10.75ZM11.427 3.57321C11.0148 3.61351 10.7133 3.98036 10.7536 4.39261C10.7938 4.80486 11.1607 5.10639 11.573 5.0661L11.427 3.57321ZM13.7759 6.22799C13.9499 6.60384 14.3958 6.76741 14.7716 6.59332C15.1475 6.41924 15.311 5.97342 15.137 5.59757L13.7759 6.22799ZM6.92075 18.2445C7.33312 18.2055 7.63581 17.8396 7.59681 17.4272C7.55782 17.0148 7.19191 16.7122 6.77954 16.7511L6.92075 18.2445ZM1.9693 18.8806L1.63555 18.209C1.61833 18.2175 1.60144 18.2268 1.58493 18.2366L1.9693 18.8806ZM1.31532 20.805L0.759254 21.3083C0.786517 21.3384 0.816183 21.3663 0.847958 21.3916L1.31532 20.805ZM5.1777 22.4133L5.328 21.6785C5.30942 21.6747 5.29071 21.6716 5.2719 21.6692L5.1777 22.4133ZM11.5 22.9961L11.513 22.2462C11.5043 22.246 11.4956 22.246 11.4869 22.2462L11.5 22.9961ZM17.8223 22.4119L17.7271 21.6679C17.7086 21.6703 17.6902 21.6734 17.6718 21.6771L17.8223 22.4119ZM21.6847 20.7968L22.1531 21.3825C22.1841 21.3578 22.213 21.3306 22.2397 21.3012L21.6847 20.7968ZM21.0307 18.8724L21.4164 18.2291C21.3991 18.2188 21.3814 18.2091 21.3633 18.2002L21.0307 18.8724ZM16.2194 16.751C15.8069 16.7127 15.4415 17.0159 15.4031 17.4283C15.3647 17.8407 15.6679 18.2062 16.0803 18.2446L16.2194 16.751ZM10.75 11.998V20.2454H12.25V11.998H10.75ZM11.573 5.0661C12.5481 4.97079 13.4274 5.47567 13.7759 6.22799L15.137 5.59757C14.4947 4.21086 12.9733 3.42209 11.427 3.57321L11.573 5.0661ZM6.77954 16.7511C4.97916 16.9214 3.23105 17.4162 1.63555 18.209L2.30304 19.5523C3.73082 18.8428 5.30017 18.3977 6.92075 18.2445L6.77954 16.7511ZM1.58493 18.2366C1.0233 18.5718 0.531481 19.0098 0.335979 19.585C0.115677 20.233 0.335949 20.8406 0.759254 21.3083L1.87138 20.3017C1.78448 20.2057 1.75997 20.1436 1.75336 20.1194C1.74884 20.1028 1.74807 20.0915 1.75617 20.0677C1.78191 19.992 1.90882 19.7901 2.35366 19.5247L1.58493 18.2366ZM0.847958 21.3916C2.04922 22.3487 3.52148 22.9595 5.08349 23.1573L5.2719 21.6692C3.97287 21.5047 2.76103 20.9979 1.78268 20.2184L0.847958 21.3916ZM5.0274 23.148C7.15594 23.5834 9.33323 23.7841 11.5131 23.746L11.4869 22.2462C9.41628 22.2824 7.34861 22.0918 5.328 21.6785L5.0274 23.148ZM11.487 23.746C13.667 23.7837 15.8443 23.5825 17.9728 23.1466L17.6718 21.6771C15.6513 22.0909 13.5836 22.282 11.513 22.2462L11.487 23.746ZM17.9175 23.1558C19.4804 22.9559 20.9528 22.3424 22.1531 21.3825L21.2163 20.211C20.2388 20.9927 19.0269 21.5017 17.7271 21.6679L17.9175 23.1558ZM22.2397 21.3012C22.6641 20.8343 22.8843 20.2269 22.664 19.5788C22.4687 19.0043 21.9776 18.5656 21.4164 18.2291L20.645 19.5156C21.0903 19.7826 21.2179 19.9852 21.2438 20.0615C21.252 20.0855 21.2511 20.0965 21.2467 20.1123C21.2403 20.1358 21.2162 20.1971 21.1297 20.2923L22.2397 21.3012ZM21.3633 18.2002C19.7671 17.4104 18.0191 16.9186 16.2194 16.751L16.0803 18.2446C17.7003 18.3954 19.2697 18.8378 20.6981 19.5446L21.3633 18.2002Z" fill="black"/>
<path fill-rule="evenodd" clip-rule="evenodd" d="M17.4996 6.49826C17.4996 9.53486 14.8134 11.9965 11.4998 11.9965C8.18621 11.9965 5.5 9.53486 5.5 6.49826C5.5 3.46165 8.18621 1 11.4998 1C13.0911 1 14.6171 1.57928 15.7423 2.6104C16.8675 3.64153 17.4996 5.04003 17.4996 6.49826Z" stroke="#429F56" stroke-width="1.5" stroke-linecap="round" stroke-linejoin="round"/>
</svg>
