<svg width="372" height="77" viewBox="0 0 372 77" fill="none" xmlns="http://www.w3.org/2000/svg">
<path d="M159.467 9.96289C159.604 10.1452 159.799 10.2363 160.053 10.2363H161.176V13H159.955C159.721 13 159.486 12.9154 159.252 12.7461C158.959 14.4128 158.041 15.8092 156.498 16.9355C155.001 18.0163 153.347 18.5566 151.537 18.5566C149.734 18.5566 148.288 18.0977 147.201 17.1797C146.153 16.2943 145.629 15.1517 145.629 13.752C145.629 12.3522 146.286 10.9785 147.602 9.63086C148.728 8.47201 150.245 7.41732 152.152 6.4668V9.15234C151.098 9.5625 150.098 10.1484 149.154 10.9102C148.028 11.8086 147.465 12.6191 147.465 13.3418C147.465 14.0449 147.904 14.6113 148.783 15.041C149.63 15.4577 150.688 15.666 151.957 15.666C153.572 15.666 154.896 15.321 155.932 14.6309C157.051 13.8822 157.611 12.8503 157.611 11.5352C157.611 10.4544 157.243 9.26628 156.508 7.9707L158.871 7.21875C159.223 8 159.421 8.91471 159.467 9.96289ZM153.686 6.03711V3.50781H156.195V6.03711H153.686ZM167.045 13H160.658V10.2363H167.045V13ZM175.766 9.60156C175.766 10.0052 175.548 10.6367 175.111 11.4961C174.623 12.4727 174.164 12.9609 173.734 12.9609C173.24 12.9609 172.68 12.8763 172.055 12.707C171.404 12.5247 170.87 12.3001 170.453 12.0332C170.082 12.3066 169.519 12.5378 168.764 12.7266C168.054 12.9089 167.406 13 166.82 13H166.527V10.2363H167.143C167.559 10.2363 167.947 10.168 168.305 10.0312C168.005 9.69271 167.855 9.35742 167.855 9.02539C167.855 8.37435 168.057 7.74935 168.461 7.15039L167.846 6.84766V4.20117C169.656 4.7806 171.332 5.5293 172.875 6.44727C174.802 7.60612 175.766 8.65755 175.766 9.60156ZM173.266 10.5C173.344 10.3828 173.383 10.2591 173.383 10.1289C173.383 9.69922 173.093 9.33464 172.514 9.03516C172.436 9.51693 172.191 10.0247 171.781 10.5586C172.133 10.6693 172.436 10.7246 172.689 10.7246C172.976 10.7246 173.168 10.6497 173.266 10.5ZM169.945 9.47461C170.434 9.19466 170.72 8.75846 170.805 8.16602C170.473 8.0293 170.16 7.96094 169.867 7.96094C169.581 7.96094 169.395 8.04883 169.311 8.22461C169.258 8.3418 169.232 8.45573 169.232 8.56641C169.232 8.93099 169.47 9.23372 169.945 9.47461ZM182.826 12.6875C182.826 14.5299 182.299 16.125 181.244 17.4727C180.242 18.7487 178.907 19.6406 177.24 20.1484V17.3945C179.721 16.5612 180.961 15.181 180.961 13.2539C180.961 12.6289 180.788 11.916 180.443 11.1152C180.111 10.347 179.717 9.70898 179.262 9.20117L181.498 8C181.713 8.14323 181.983 8.73242 182.309 9.76758C182.654 10.8809 182.826 11.8542 182.826 12.6875Z" fill="url(#paint0_linear_2611_59673)"/>
<path d="M200.447 12.8145C200.135 14.4616 199.21 15.8418 197.674 16.9551C196.183 18.0228 194.533 18.5566 192.723 18.5566C190.919 18.5566 189.474 18.0977 188.387 17.1797C187.339 16.2943 186.814 15.1517 186.814 13.752C186.814 12.4043 187.472 11.0469 188.787 9.67969C189.946 8.46875 191.463 7.39779 193.338 6.4668V9.15234C192.283 9.5625 191.284 10.1484 190.34 10.9102C189.214 11.8086 188.65 12.6191 188.65 13.3418C188.65 14.0449 189.09 14.6113 189.969 15.041C190.815 15.4577 191.873 15.666 193.143 15.666C194.757 15.666 196.082 15.321 197.117 14.6309C198.237 13.8822 198.797 12.8503 198.797 11.5352C198.797 10.4544 198.429 9.26628 197.693 7.9707L200.057 7.21875C200.467 8.13021 200.672 9.23047 200.672 10.5195C200.672 11.2878 200.597 12.0527 200.447 12.8145ZM194.871 6.03711V3.50781H197.381V6.03711H194.871ZM204.676 12.4141L202.4 13C202.706 11.0273 202.804 9.0026 202.693 6.92578C202.622 5.63021 202.573 4.79362 202.547 4.41602C202.449 3.23112 202.312 2.28385 202.137 1.57422L204.402 0.832031C204.65 2.01693 204.845 3.86589 204.988 6.37891C205.125 8.80078 205.021 10.8125 204.676 12.4141ZM214.09 10.2363V13H213.514C212.915 13 212.472 12.8958 212.186 12.6875C212.186 14.6797 211.609 16.3464 210.457 17.6875C209.467 18.8268 208.152 19.6471 206.512 20.1484V17.3945C209.044 16.5417 210.311 15.1615 210.311 13.2539C210.311 12.6289 210.151 11.9453 209.832 11.2031C209.533 10.5 209.155 9.89453 208.699 9.38672L210.975 8.20508C211.053 8.25716 211.229 8.62826 211.502 9.31836C211.743 9.93034 212 10.2363 212.273 10.2363H214.09ZM208.006 5.69531V3.16602H210.516V5.69531H208.006ZM219.354 13C219.035 13 218.781 12.9023 218.592 12.707C218.481 12.5964 218.377 12.4206 218.279 12.1797C218.201 11.9844 218.136 11.8867 218.084 11.8867C218.064 11.8867 217.869 12.0723 217.498 12.4434C217.127 12.8145 216.762 13 216.404 13H213.709V10.2363H216.023C216.889 10.2363 217.654 9.2793 218.318 7.36523L220.35 8.3125C220.337 8.38411 220.197 8.63151 219.93 9.05469C219.669 9.47786 219.539 9.77409 219.539 9.94336C219.539 10.1387 219.679 10.2363 219.959 10.2363H221.932V13H219.354ZM217.361 16.8379V14.3086H219.871V16.8379H217.361ZM214.109 16.8379V14.3086H216.619V16.8379H214.109ZM227.801 9.875C227.801 9.6276 227.628 9.36068 227.283 9.07422C226.971 8.82031 226.652 8.64453 226.326 8.54688L225.74 10.0801C226.163 10.334 226.593 10.4609 227.029 10.4609C227.544 10.4609 227.801 10.2656 227.801 9.875ZM229.988 10.8125C229.76 12.4531 228.868 13.2734 227.312 13.2734C227.039 13.2734 226.756 13.2409 226.463 13.1758C225.831 13.0456 225.405 12.86 225.184 12.6191C225.027 12.4434 224.9 12.1113 224.803 11.623C223.924 12.541 223.012 13 222.068 13H221.541V10.2363H222.098C222.983 10.2363 223.576 9.94987 223.875 9.37695C224.025 9.08398 224.21 8.5599 224.432 7.80469C224.633 7.14062 224.826 6.67839 225.008 6.41797C225.281 6.02083 225.659 5.82227 226.141 5.82227C226.85 5.82227 227.654 6.28776 228.553 7.21875C229.536 8.24089 230.027 9.29557 230.027 10.3828C230.027 10.526 230.014 10.6693 229.988 10.8125Z" fill="url(#paint1_linear_2611_59673)"/>
<path d="M166.144 37.9809C165.783 37.9809 165.439 37.9043 165.115 37.7513C164.795 37.6029 164.521 37.4058 164.294 37.16C164.043 37.4151 163.758 37.6145 163.438 37.7583C163.118 37.902 162.773 37.9739 162.402 37.9739C162.003 37.9739 161.641 37.8858 161.317 37.7096C160.992 37.538 160.709 37.3154 160.468 37.0417C160.227 36.7681 160.03 36.4643 159.877 36.1304C159.728 35.7919 159.626 35.458 159.57 35.1287C159.547 34.9988 159.531 34.8643 159.522 34.7252C159.512 34.5814 159.508 34.4354 159.508 34.287C159.508 34.0087 159.524 33.7235 159.557 33.4313C159.594 33.1391 159.647 32.847 159.717 32.5548C159.809 32.1559 159.93 31.7548 160.078 31.3513C160.227 30.9432 160.408 30.5212 160.621 30.0852C160.839 29.6493 161.087 29.1901 161.365 28.7078C161.643 28.2255 161.957 27.7107 162.304 27.1635C162.253 27.1032 162.195 27.0452 162.13 26.9896C162.07 26.9293 162.017 26.8736 161.97 26.8226L163.612 25.1809C163.659 25.2319 163.714 25.2899 163.779 25.3548C163.844 25.4197 163.914 25.487 163.988 25.5565C164.062 25.6261 164.134 25.6957 164.203 25.7652C164.278 25.8348 164.345 25.8974 164.405 25.953V25.9461C164.433 25.9693 164.461 25.9948 164.489 26.0226C164.517 26.0504 164.542 26.0783 164.565 26.1061C164.959 26.4725 165.349 26.8481 165.734 27.233C166.123 27.618 166.497 28.0354 166.854 28.4852C167.341 29.102 167.765 29.749 168.127 30.4261C168.493 31.0986 168.79 31.7803 169.017 32.4713C169.096 32.7171 169.154 32.9791 169.191 33.2574C169.233 33.5357 169.254 33.8186 169.254 34.1061C169.254 34.5838 169.194 35.0499 169.073 35.5043C168.957 35.9542 168.774 36.36 168.523 36.7217C168.273 37.0835 167.951 37.378 167.557 37.6052C167.167 37.8371 166.701 37.9623 166.158 37.9809H166.144ZM165.372 33.0904C165.372 33.2945 165.381 33.538 165.4 33.8209C165.419 34.1038 165.456 34.3774 165.511 34.6417C165.572 34.9014 165.648 35.1287 165.741 35.3235C165.838 35.5136 165.963 35.6203 166.117 35.6435C166.26 35.6157 166.397 35.553 166.527 35.4557C166.657 35.3583 166.77 35.24 166.868 35.1009C166.965 34.9617 167.042 34.811 167.097 34.6487C167.153 34.4817 167.181 34.3171 167.181 34.1548C167.181 33.9832 167.167 33.8093 167.139 33.633C167.111 33.4568 167.081 33.3014 167.049 33.167H167.056C166.903 32.7078 166.703 32.2742 166.457 31.8661C166.212 31.458 165.945 31.073 165.657 30.7113C165.37 30.3496 165.073 30.0133 164.767 29.7026C164.466 29.3872 164.183 29.0951 163.918 28.8261L163.821 28.7357C163.589 29.051 163.357 29.3942 163.125 29.7652C162.898 30.1362 162.687 30.5119 162.492 30.8922C162.297 31.2725 162.123 31.6458 161.97 32.0122C161.822 32.3786 161.711 32.7171 161.637 33.0278C161.595 33.2365 161.56 33.4638 161.532 33.7096C161.509 33.9507 161.497 34.1849 161.497 34.4122C161.497 34.5791 161.521 34.7368 161.567 34.8852C161.618 35.029 161.685 35.1565 161.769 35.2678C161.852 35.3791 161.947 35.4672 162.054 35.5322C162.161 35.5925 162.277 35.6226 162.402 35.6226C162.467 35.6226 162.536 35.6017 162.61 35.56C162.689 35.5136 162.766 35.451 162.84 35.3722C162.919 35.2933 162.993 35.1983 163.063 35.087C163.132 34.971 163.19 34.8412 163.237 34.6974C163.292 34.5072 163.336 34.3217 163.369 34.1409C163.406 33.9554 163.438 33.7907 163.466 33.647C163.475 33.5635 163.485 33.4684 163.494 33.3617C163.508 33.2504 163.522 33.1554 163.536 33.0765L165.372 33.0904ZM172.154 33.8626C172.154 34.0203 172.181 34.1687 172.237 34.3078C172.297 34.4423 172.378 34.5629 172.48 34.6696C172.587 34.7716 172.708 34.8528 172.842 34.913C172.981 34.9687 173.13 34.9965 173.287 34.9965C173.45 34.9965 173.6 34.9687 173.74 34.913C173.879 34.8528 173.999 34.7716 174.101 34.6696C174.208 34.5629 174.292 34.4423 174.352 34.3078C174.417 34.1687 174.449 34.0203 174.449 33.8626C174.449 33.7003 174.417 33.5496 174.352 33.4104C174.292 33.2713 174.208 33.1507 174.101 33.0487C173.999 32.942 173.879 32.8586 173.74 32.7983C173.6 32.7333 173.45 32.7009 173.287 32.7009C173.13 32.7009 172.981 32.7333 172.842 32.7983C172.708 32.8586 172.587 32.942 172.48 33.0487C172.378 33.1507 172.297 33.2713 172.237 33.4104C172.181 33.5496 172.154 33.7003 172.154 33.8626ZM170.428 33.8626C170.428 33.4684 170.503 33.0974 170.651 32.7496C170.804 32.3971 171.008 32.091 171.263 31.8313C171.523 31.5716 171.827 31.3652 172.174 31.2122C172.522 31.0591 172.893 30.9826 173.287 30.9826C173.682 30.9826 174.053 31.0591 174.4 31.2122C174.753 31.3652 175.059 31.5716 175.319 31.8313C175.578 32.091 175.785 32.3971 175.938 32.7496C176.091 33.0974 176.167 33.4684 176.167 33.8626C176.167 34.2568 176.091 34.6278 175.938 34.9757C175.785 35.3235 175.578 35.6272 175.319 35.887C175.059 36.142 174.753 36.3461 174.4 36.4991C174.053 36.6475 173.682 36.7217 173.287 36.7217C172.893 36.7217 172.522 36.6475 172.174 36.4991C171.827 36.3461 171.523 36.142 171.263 35.887C171.008 35.6272 170.804 35.3235 170.651 34.9757C170.503 34.6278 170.428 34.2568 170.428 33.8626ZM179.185 33.8626C179.185 34.0203 179.213 34.1687 179.268 34.3078C179.329 34.4423 179.41 34.5629 179.512 34.6696C179.618 34.7716 179.739 34.8528 179.873 34.913C180.013 34.9687 180.161 34.9965 180.319 34.9965C180.481 34.9965 180.632 34.9687 180.771 34.913C180.91 34.8528 181.031 34.7716 181.133 34.6696C181.239 34.5629 181.323 34.4423 181.383 34.3078C181.448 34.1687 181.48 34.0203 181.48 33.8626C181.48 33.7003 181.448 33.5496 181.383 33.4104C181.323 33.2713 181.239 33.1507 181.133 33.0487C181.031 32.942 180.91 32.8586 180.771 32.7983C180.632 32.7333 180.481 32.7009 180.319 32.7009C180.161 32.7009 180.013 32.7333 179.873 32.7983C179.739 32.8586 179.618 32.942 179.512 33.0487C179.41 33.1507 179.329 33.2713 179.268 33.4104C179.213 33.5496 179.185 33.7003 179.185 33.8626ZM177.46 33.8626C177.46 33.4684 177.534 33.0974 177.682 32.7496C177.835 32.3971 178.039 32.091 178.294 31.8313C178.554 31.5716 178.858 31.3652 179.206 31.2122C179.553 31.0591 179.924 30.9826 180.319 30.9826C180.713 30.9826 181.084 31.0591 181.432 31.2122C181.784 31.3652 182.09 31.5716 182.35 31.8313C182.61 32.091 182.816 32.3971 182.969 32.7496C183.122 33.0974 183.199 33.4684 183.199 33.8626C183.199 34.2568 183.122 34.6278 182.969 34.9757C182.816 35.3235 182.61 35.6272 182.35 35.887C182.09 36.142 181.784 36.3461 181.432 36.4991C181.084 36.6475 180.713 36.7217 180.319 36.7217C179.924 36.7217 179.553 36.6475 179.206 36.4991C178.858 36.3461 178.554 36.142 178.294 35.887C178.039 35.6272 177.835 35.3235 177.682 34.9757C177.534 34.6278 177.46 34.2568 177.46 33.8626ZM184.846 36.6452C184.846 36.2603 184.975 35.9472 185.235 35.7061C185.495 35.4649 185.822 35.3443 186.216 35.3443C186.615 35.3443 186.944 35.4649 187.204 35.7061C187.464 35.9472 187.593 36.2603 187.593 36.6452C187.593 37.0255 187.464 37.3339 187.204 37.5704C186.949 37.8116 186.62 37.9322 186.216 37.9322C185.817 37.9322 185.488 37.8116 185.228 37.5704C184.973 37.3339 184.846 37.0255 184.846 36.6452ZM191.232 33.8626C191.232 34.0203 191.259 34.1687 191.315 34.3078C191.375 34.4423 191.457 34.5629 191.559 34.6696C191.665 34.7716 191.786 34.8528 191.92 34.913C192.059 34.9687 192.208 34.9965 192.366 34.9965C192.528 34.9965 192.679 34.9687 192.818 34.913C192.957 34.8528 193.077 34.7716 193.179 34.6696C193.286 34.5629 193.37 34.4423 193.43 34.3078C193.495 34.1687 193.527 34.0203 193.527 33.8626C193.527 33.7003 193.495 33.5496 193.43 33.4104C193.37 33.2713 193.286 33.1507 193.179 33.0487C193.077 32.942 192.957 32.8586 192.818 32.7983C192.679 32.7333 192.528 32.7009 192.366 32.7009C192.208 32.7009 192.059 32.7333 191.92 32.7983C191.786 32.8586 191.665 32.942 191.559 33.0487C191.457 33.1507 191.375 33.2713 191.315 33.4104C191.259 33.5496 191.232 33.7003 191.232 33.8626ZM189.506 33.8626C189.506 33.4684 189.581 33.0974 189.729 32.7496C189.882 32.3971 190.086 32.091 190.341 31.8313C190.601 31.5716 190.905 31.3652 191.253 31.2122C191.6 31.0591 191.971 30.9826 192.366 30.9826C192.76 30.9826 193.131 31.0591 193.479 31.2122C193.831 31.3652 194.137 31.5716 194.397 31.8313C194.657 32.091 194.863 32.3971 195.016 32.7496C195.169 33.0974 195.246 33.4684 195.246 33.8626C195.246 34.2568 195.169 34.6278 195.016 34.9757C194.863 35.3235 194.657 35.6272 194.397 35.887C194.137 36.142 193.831 36.3461 193.479 36.4991C193.131 36.6475 192.76 36.7217 192.366 36.7217C191.971 36.7217 191.6 36.6475 191.253 36.4991C190.905 36.3461 190.601 36.142 190.341 35.887C190.086 35.6272 189.882 35.3235 189.729 34.9757C189.581 34.6278 189.506 34.2568 189.506 33.8626ZM198.263 33.8626C198.263 34.0203 198.291 34.1687 198.346 34.3078C198.407 34.4423 198.488 34.5629 198.59 34.6696C198.697 34.7716 198.817 34.8528 198.952 34.913C199.091 34.9687 199.239 34.9965 199.397 34.9965C199.559 34.9965 199.71 34.9687 199.849 34.913C199.988 34.8528 200.109 34.7716 200.211 34.6696C200.317 34.5629 200.401 34.4423 200.461 34.3078C200.526 34.1687 200.559 34.0203 200.559 33.8626C200.559 33.7003 200.526 33.5496 200.461 33.4104C200.401 33.2713 200.317 33.1507 200.211 33.0487C200.109 32.942 199.988 32.8586 199.849 32.7983C199.71 32.7333 199.559 32.7009 199.397 32.7009C199.239 32.7009 199.091 32.7333 198.952 32.7983C198.817 32.8586 198.697 32.942 198.59 33.0487C198.488 33.1507 198.407 33.2713 198.346 33.4104C198.291 33.5496 198.263 33.7003 198.263 33.8626ZM196.538 33.8626C196.538 33.4684 196.612 33.0974 196.76 32.7496C196.913 32.3971 197.117 32.091 197.372 31.8313C197.632 31.5716 197.936 31.3652 198.284 31.2122C198.632 31.0591 199.003 30.9826 199.397 30.9826C199.791 30.9826 200.162 31.0591 200.51 31.2122C200.862 31.3652 201.168 31.5716 201.428 31.8313C201.688 32.091 201.894 32.3971 202.047 32.7496C202.2 33.0974 202.277 33.4684 202.277 33.8626C202.277 34.2568 202.2 34.6278 202.047 34.9757C201.894 35.3235 201.688 35.6272 201.428 35.887C201.168 36.142 200.862 36.3461 200.51 36.4991C200.162 36.6475 199.791 36.7217 199.397 36.7217C199.003 36.7217 198.632 36.6475 198.284 36.4991C197.936 36.3461 197.632 36.142 197.372 35.887C197.117 35.6272 196.913 35.3235 196.76 34.9757C196.612 34.6278 196.538 34.2568 196.538 33.8626ZM205.294 33.8626C205.294 34.0203 205.322 34.1687 205.378 34.3078C205.438 34.4423 205.519 34.5629 205.621 34.6696C205.728 34.7716 205.848 34.8528 205.983 34.913C206.122 34.9687 206.27 34.9965 206.428 34.9965C206.59 34.9965 206.741 34.9687 206.88 34.913C207.019 34.8528 207.14 34.7716 207.242 34.6696C207.349 34.5629 207.432 34.4423 207.492 34.3078C207.557 34.1687 207.59 34.0203 207.59 33.8626C207.59 33.7003 207.557 33.5496 207.492 33.4104C207.432 33.2713 207.349 33.1507 207.242 33.0487C207.14 32.942 207.019 32.8586 206.88 32.7983C206.741 32.7333 206.59 32.7009 206.428 32.7009C206.27 32.7009 206.122 32.7333 205.983 32.7983C205.848 32.8586 205.728 32.942 205.621 33.0487C205.519 33.1507 205.438 33.2713 205.378 33.4104C205.322 33.5496 205.294 33.7003 205.294 33.8626ZM203.569 33.8626C203.569 33.4684 203.643 33.0974 203.792 32.7496C203.945 32.3971 204.149 32.091 204.404 31.8313C204.663 31.5716 204.967 31.3652 205.315 31.2122C205.663 31.0591 206.034 30.9826 206.428 30.9826C206.822 30.9826 207.193 31.0591 207.541 31.2122C207.894 31.3652 208.2 31.5716 208.459 31.8313C208.719 32.091 208.925 32.3971 209.079 32.7496C209.232 33.0974 209.308 33.4684 209.308 33.8626C209.308 34.2568 209.232 34.6278 209.079 34.9757C208.925 35.3235 208.719 35.6272 208.459 35.887C208.2 36.142 207.894 36.3461 207.541 36.4991C207.193 36.6475 206.822 36.7217 206.428 36.7217C206.034 36.7217 205.663 36.6475 205.315 36.4991C204.967 36.3461 204.663 36.142 204.404 35.887C204.149 35.6272 203.945 35.3235 203.792 34.9757C203.643 34.6278 203.569 34.2568 203.569 33.8626ZM210.955 36.6452C210.955 36.2603 211.085 35.9472 211.345 35.7061C211.604 35.4649 211.931 35.3443 212.325 35.3443C212.724 35.3443 213.054 35.4649 213.313 35.7061C213.573 35.9472 213.703 36.2603 213.703 36.6452C213.703 37.0255 213.573 37.3339 213.313 37.5704C213.058 37.8116 212.729 37.9322 212.325 37.9322C211.927 37.9322 211.597 37.8116 211.338 37.5704C211.083 37.3339 210.955 37.0255 210.955 36.6452ZM217.341 33.8626C217.341 34.0203 217.369 34.1687 217.425 34.3078C217.485 34.4423 217.566 34.5629 217.668 34.6696C217.775 34.7716 217.895 34.8528 218.03 34.913C218.169 34.9687 218.317 34.9965 218.475 34.9965C218.637 34.9965 218.788 34.9687 218.927 34.913C219.066 34.8528 219.187 34.7716 219.289 34.6696C219.396 34.5629 219.479 34.4423 219.539 34.3078C219.604 34.1687 219.637 34.0203 219.637 33.8626C219.637 33.7003 219.604 33.5496 219.539 33.4104C219.479 33.2713 219.396 33.1507 219.289 33.0487C219.187 32.942 219.066 32.8586 218.927 32.7983C218.788 32.7333 218.637 32.7009 218.475 32.7009C218.317 32.7009 218.169 32.7333 218.03 32.7983C217.895 32.8586 217.775 32.942 217.668 33.0487C217.566 33.1507 217.485 33.2713 217.425 33.4104C217.369 33.5496 217.341 33.7003 217.341 33.8626ZM215.616 33.8626C215.616 33.4684 215.69 33.0974 215.838 32.7496C215.991 32.3971 216.196 32.091 216.451 31.8313C216.71 31.5716 217.014 31.3652 217.362 31.2122C217.71 31.0591 218.081 30.9826 218.475 30.9826C218.869 30.9826 219.24 31.0591 219.588 31.2122C219.94 31.3652 220.247 31.5716 220.506 31.8313C220.766 32.091 220.972 32.3971 221.125 32.7496C221.278 33.0974 221.355 33.4684 221.355 33.8626C221.355 34.2568 221.278 34.6278 221.125 34.9757C220.972 35.3235 220.766 35.6272 220.506 35.887C220.247 36.142 219.94 36.3461 219.588 36.4991C219.24 36.6475 218.869 36.7217 218.475 36.7217C218.081 36.7217 217.71 36.6475 217.362 36.4991C217.014 36.3461 216.71 36.142 216.451 35.887C216.196 35.6272 215.991 35.3235 215.838 34.9757C215.69 34.6278 215.616 34.2568 215.616 33.8626ZM224.372 33.8626C224.372 34.0203 224.4 34.1687 224.456 34.3078C224.516 34.4423 224.597 34.5629 224.699 34.6696C224.806 34.7716 224.926 34.8528 225.061 34.913C225.2 34.9687 225.349 34.9965 225.506 34.9965C225.669 34.9965 225.819 34.9687 225.958 34.913C226.098 34.8528 226.218 34.7716 226.32 34.6696C226.427 34.5629 226.51 34.4423 226.571 34.3078C226.635 34.1687 226.668 34.0203 226.668 33.8626C226.668 33.7003 226.635 33.5496 226.571 33.4104C226.51 33.2713 226.427 33.1507 226.32 33.0487C226.218 32.942 226.098 32.8586 225.958 32.7983C225.819 32.7333 225.669 32.7009 225.506 32.7009C225.349 32.7009 225.2 32.7333 225.061 32.7983C224.926 32.8586 224.806 32.942 224.699 33.0487C224.597 33.1507 224.516 33.2713 224.456 33.4104C224.4 33.5496 224.372 33.7003 224.372 33.8626ZM222.647 33.8626C222.647 33.4684 222.721 33.0974 222.87 32.7496C223.023 32.3971 223.227 32.091 223.482 31.8313C223.742 31.5716 224.045 31.3652 224.393 31.2122C224.741 31.0591 225.112 30.9826 225.506 30.9826C225.9 30.9826 226.271 31.0591 226.619 31.2122C226.972 31.3652 227.278 31.5716 227.537 31.8313C227.797 32.091 228.004 32.3971 228.157 32.7496C228.31 33.0974 228.386 33.4684 228.386 33.8626C228.386 34.2568 228.31 34.6278 228.157 34.9757C228.004 35.3235 227.797 35.6272 227.537 35.887C227.278 36.142 226.972 36.3461 226.619 36.4991C226.271 36.6475 225.9 36.7217 225.506 36.7217C225.112 36.7217 224.741 36.6475 224.393 36.4991C224.045 36.3461 223.742 36.142 223.482 35.887C223.227 35.6272 223.023 35.3235 222.87 34.9757C222.721 34.6278 222.647 34.2568 222.647 33.8626ZM231.404 33.8626C231.404 34.0203 231.431 34.1687 231.487 34.3078C231.547 34.4423 231.628 34.5629 231.73 34.6696C231.837 34.7716 231.958 34.8528 232.092 34.913C232.231 34.9687 232.38 34.9965 232.537 34.9965C232.7 34.9965 232.85 34.9687 232.99 34.913C233.129 34.8528 233.249 34.7716 233.351 34.6696C233.458 34.5629 233.542 34.4423 233.602 34.3078C233.667 34.1687 233.699 34.0203 233.699 33.8626C233.699 33.7003 233.667 33.5496 233.602 33.4104C233.542 33.2713 233.458 33.1507 233.351 33.0487C233.249 32.942 233.129 32.8586 232.99 32.7983C232.85 32.7333 232.7 32.7009 232.537 32.7009C232.38 32.7009 232.231 32.7333 232.092 32.7983C231.958 32.8586 231.837 32.942 231.73 33.0487C231.628 33.1507 231.547 33.2713 231.487 33.4104C231.431 33.5496 231.404 33.7003 231.404 33.8626ZM229.678 33.8626C229.678 33.4684 229.753 33.0974 229.901 32.7496C230.054 32.3971 230.258 32.091 230.513 31.8313C230.773 31.5716 231.077 31.3652 231.424 31.2122C231.772 31.0591 232.143 30.9826 232.537 30.9826C232.932 30.9826 233.303 31.0591 233.65 31.2122C234.003 31.3652 234.309 31.5716 234.569 31.8313C234.828 32.091 235.035 32.3971 235.188 32.7496C235.341 33.0974 235.417 33.4684 235.417 33.8626C235.417 34.2568 235.341 34.6278 235.188 34.9757C235.035 35.3235 234.828 35.6272 234.569 35.887C234.309 36.142 234.003 36.3461 233.65 36.4991C233.303 36.6475 232.932 36.7217 232.537 36.7217C232.143 36.7217 231.772 36.6475 231.424 36.4991C231.077 36.3461 230.773 36.142 230.513 35.887C230.258 35.6272 230.054 35.3235 229.901 34.9757C229.753 34.6278 229.678 34.2568 229.678 33.8626Z" fill="#303030"/>
<path d="M154.168 36.1715H153.25V34.5568H154.327C154.597 34.5568 154.779 34.5397 154.874 34.5054C155.08 34.4256 155.182 34.2525 155.182 33.9862C155.182 33.5906 155.059 33.1455 154.812 32.651L156.197 32.0976C156.295 32.4856 156.345 32.8736 156.345 33.2616C156.345 34.1022 156.176 34.7812 155.838 35.2985C155.45 35.8805 154.893 36.1715 154.168 36.1715ZM155.536 31.9036V30.4258H157V31.9036H155.536ZM153.638 31.9036V30.4258H155.102V31.9036H153.638Z" fill="#A6A6A6"/>
<path d="M151.641 34.6491C151.611 34.4361 151.514 34.2554 151.351 34.107C151.176 33.9511 150.967 33.8731 150.724 33.8731C150.481 33.8731 150.359 33.9891 150.359 34.2211C150.359 34.282 150.376 34.3315 150.41 34.3695C150.608 34.5901 150.876 34.7004 151.214 34.7004C151.351 34.7004 151.493 34.6833 151.641 34.6491ZM152.622 34.5578H153.46V36.1725H152.525C152.282 37.1768 151.782 38.0326 151.026 38.7401C150.239 39.4705 149.386 39.8357 148.467 39.8357L148.683 38.2323C149.345 38.2323 149.954 37.9965 150.513 37.5248C151.045 37.0759 151.311 36.6138 151.311 36.1383C151.246 36.1459 151.18 36.1497 151.111 36.1497C150.655 36.1497 150.262 36.0508 149.932 35.853C149.525 35.6096 149.322 35.2577 149.322 34.7974C149.322 34.2154 149.516 33.6848 149.903 33.2055C150.268 32.7567 150.633 32.5322 150.997 32.5322C151.37 32.5322 151.702 32.6901 151.995 33.0058C152.337 33.3748 152.546 33.8921 152.622 34.5578Z" fill="#A6A6A6"/>
<path d="M146.337 34.3459C146.337 34.2014 146.236 34.0454 146.035 33.8781C145.853 33.7297 145.666 33.627 145.476 33.5699L145.134 34.4658C145.381 34.6141 145.632 34.6883 145.887 34.6883C146.187 34.6883 146.337 34.5742 146.337 34.3459ZM147.614 34.8937C147.481 35.8523 146.96 36.3316 146.052 36.3316C145.892 36.3316 145.727 36.3125 145.556 36.2745C145.188 36.1984 144.939 36.09 144.81 35.9493C144.718 35.8466 144.644 35.6526 144.587 35.3673C144.074 35.9036 143.542 36.1718 142.991 36.1718H142.684V34.5571H143.008C143.525 34.5571 143.871 34.3897 144.046 34.0549C144.133 33.8838 144.241 33.5776 144.371 33.1363C144.488 32.7483 144.601 32.4782 144.707 32.3261C144.867 32.094 145.087 31.978 145.368 31.978C145.782 31.978 146.251 32.25 146.776 32.794C147.35 33.3912 147.636 34.0074 147.636 34.6426C147.636 34.7263 147.629 34.81 147.614 34.8937Z" fill="#A6A6A6"/>
<path d="M142.985 36.1719H139.258V34.5571H142.985V36.1719Z" fill="#A6A6A6"/>
<path d="M139.61 34.5572V36.1719H138.864C138.142 36.1719 137.633 35.9152 137.336 35.4016C137.112 35.0099 137 34.4126 137 33.61C137 33.4198 137.006 33.1935 137.017 32.931C137.085 31.497 137.234 30.2075 137.462 29.0625L138.858 29.4961C138.588 30.7324 138.427 31.8336 138.374 32.7998C138.358 33.1041 138.351 33.3342 138.351 33.4902C138.351 33.8858 138.402 34.1578 138.505 34.3061C138.615 34.4735 138.822 34.5572 139.126 34.5572H139.61Z" fill="#A6A6A6"/>
<path d="M147.078 28.2731C146.895 29.2355 146.356 30.0419 145.459 30.6923C144.589 31.3162 143.626 31.6281 142.569 31.6281C141.517 31.6281 140.673 31.3599 140.039 30.8236C139.427 30.3062 139.121 29.6387 139.121 28.8208C139.121 28.0334 139.505 27.2403 140.272 26.4415C140.949 25.734 141.834 25.1083 142.928 24.5643V26.1334C142.313 26.373 141.73 26.7154 141.179 27.1604C140.521 27.6854 140.193 28.159 140.193 28.5812C140.193 28.992 140.449 29.3229 140.962 29.574C141.456 29.8175 142.073 29.9392 142.814 29.9392C143.757 29.9392 144.53 29.7376 145.134 29.3344C145.788 28.8969 146.114 28.294 146.114 27.5256C146.114 26.8942 145.9 26.2 145.47 25.443L146.85 25.0037C147.089 25.5362 147.209 26.1791 147.209 26.9322C147.209 27.3811 147.165 27.828 147.078 28.2731ZM143.823 24.3133V22.8354H145.288V24.3133H143.823Z" fill="#A6A6A6"/>
<path d="M208.868 63.2349C208.868 63.7726 208.636 64.3013 208.171 64.8208C207.588 65.4679 206.829 65.7915 205.895 65.7915C205.102 65.7915 204.443 65.5522 203.919 65.0737C203.395 64.5952 203.133 63.9731 203.133 63.2075C203.133 62.5239 203.436 61.854 204.042 61.1978C204.334 60.8742 204.999 60.3068 206.038 59.4956C207.925 60.8947 208.868 62.1411 208.868 63.2349ZM207.043 62.9888C207.043 62.7791 206.877 62.5103 206.544 62.1821C206.28 61.9224 205.993 61.6945 205.683 61.4985C205.437 61.6991 205.209 61.936 204.999 62.2095C204.753 62.5422 204.63 62.8179 204.63 63.0366C204.63 63.6473 205.015 63.9526 205.785 63.9526C206.624 63.9526 207.043 63.6313 207.043 62.9888ZM213.811 65.5728C213.811 66.8625 213.441 67.979 212.703 68.9224C212.001 69.8156 211.067 70.4399 209.9 70.7954V68.8677C211.637 68.2843 212.505 67.3182 212.505 65.9692C212.505 65.5317 212.384 65.0327 212.143 64.4722C211.91 63.9344 211.634 63.4878 211.315 63.1323L212.881 62.2915C213.031 62.3918 213.22 62.8042 213.448 63.5288C213.69 64.3081 213.811 64.9894 213.811 65.5728ZM217.967 63.8569V65.7915H217.071C216.205 65.7915 215.595 65.4839 215.239 64.8687C214.97 64.3993 214.836 63.6838 214.836 62.7222C214.836 62.4943 214.843 62.2231 214.856 61.9087C214.938 60.1906 215.116 58.6457 215.39 57.2739L217.064 57.7935C216.741 59.2746 216.547 60.5939 216.483 61.7515C216.465 62.116 216.456 62.3918 216.456 62.5786C216.456 63.0526 216.518 63.3784 216.641 63.5562C216.773 63.7567 217.021 63.8569 217.386 63.8569H217.967ZM222.027 64.9849C221.727 65.2127 221.225 65.4087 220.523 65.5728C219.895 65.7186 219.341 65.7915 218.862 65.7915H217.646V63.8569H219.095C220.366 63.8569 221.214 63.6017 221.638 63.0913C221.068 62.6994 220.517 62.5034 219.983 62.5034C219.619 62.5034 219.154 62.6174 218.589 62.8452V61.0815C218.972 60.8446 219.443 60.7261 220.004 60.7261C220.359 60.7261 220.776 60.8263 221.255 61.0269C221.615 61.1864 221.975 61.3459 222.335 61.5054C223.009 61.756 223.729 61.8813 224.495 61.8813C224.627 61.8813 224.739 61.8745 224.83 61.8608V63.5356C223.777 63.8866 222.843 64.3696 222.027 64.9849ZM220.653 68.478V66.7075H222.41V68.478H220.653ZM227.633 65.3813L226.04 65.7915C226.254 64.4106 226.323 62.9933 226.245 61.5396C226.195 60.6326 226.161 60.047 226.143 59.7827C226.074 58.9533 225.979 58.2902 225.855 57.7935L227.441 57.2739C227.615 58.1034 227.751 59.3976 227.852 61.1567C227.947 62.8521 227.874 64.2603 227.633 65.3813Z" fill="url(#paint2_linear_2611_59673)"/>
<path d="M240.941 65.6616C240.723 66.8146 240.076 67.7808 239 68.5601C237.956 69.3075 236.801 69.6812 235.534 69.6812C234.272 69.6812 233.26 69.3599 232.499 68.7173C231.765 68.0975 231.398 67.2977 231.398 66.3179C231.398 65.3745 231.859 64.4243 232.779 63.4673C233.59 62.6196 234.652 61.87 235.965 61.2183V63.0981C235.227 63.3853 234.527 63.7954 233.866 64.3286C233.078 64.9575 232.684 65.5249 232.684 66.0308C232.684 66.5229 232.991 66.9194 233.606 67.2202C234.199 67.5119 234.939 67.6577 235.828 67.6577C236.958 67.6577 237.886 67.4162 238.61 66.9331C239.394 66.409 239.786 65.6867 239.786 64.7661C239.786 64.0096 239.529 63.1779 239.014 62.271L240.668 61.7446C240.955 62.3826 241.099 63.1528 241.099 64.0552C241.099 64.5929 241.046 65.1284 240.941 65.6616ZM237.038 60.9175V59.147H238.795V60.9175H237.038ZM243.901 65.3813L242.309 65.7915C242.523 64.4106 242.591 62.9933 242.514 61.5396C242.464 60.6326 242.429 60.047 242.411 59.7827C242.343 58.9533 242.247 58.2902 242.124 57.7935L243.71 57.2739C243.883 58.1034 244.02 59.3976 244.12 61.1567C244.216 62.8521 244.143 64.2603 243.901 65.3813ZM250.491 63.8569V65.7915H250.088C249.669 65.7915 249.359 65.7186 249.158 65.5728C249.158 66.9673 248.755 68.134 247.948 69.0728C247.256 69.8703 246.335 70.4445 245.187 70.7954V68.8677C246.959 68.2707 247.846 67.3045 247.846 65.9692C247.846 65.5317 247.734 65.0532 247.511 64.5337C247.301 64.0415 247.037 63.6177 246.718 63.2622L248.311 62.4351C248.365 62.4715 248.488 62.7313 248.68 63.2144C248.848 63.6427 249.028 63.8569 249.22 63.8569H250.491ZM246.232 60.6782V58.9077H247.989V60.6782H246.232ZM254.176 65.7915C253.952 65.7915 253.775 65.7231 253.643 65.5864C253.565 65.509 253.492 65.3859 253.424 65.2173C253.369 65.0806 253.324 65.0122 253.287 65.0122C253.273 65.0122 253.137 65.1421 252.877 65.4019C252.617 65.6616 252.362 65.7915 252.111 65.7915H250.225V63.8569H251.845C252.451 63.8569 252.986 63.187 253.451 61.8472L254.873 62.5103C254.864 62.5604 254.766 62.7336 254.579 63.0298C254.397 63.326 254.306 63.5334 254.306 63.6519C254.306 63.7886 254.404 63.8569 254.6 63.8569H255.98V65.7915H254.176ZM252.781 68.478V66.7075H254.538V68.478H252.781ZM250.505 68.478V66.7075H252.262V68.478H250.505ZM260.089 63.604C260.089 63.4308 259.968 63.244 259.727 63.0435C259.508 62.8657 259.285 62.7427 259.057 62.6743L258.646 63.7476C258.943 63.9253 259.243 64.0142 259.549 64.0142C259.909 64.0142 260.089 63.8774 260.089 63.604ZM261.62 64.2603C261.461 65.4087 260.836 65.9829 259.747 65.9829C259.556 65.9829 259.357 65.9601 259.152 65.9146C258.71 65.8234 258.412 65.6935 258.257 65.5249C258.147 65.4019 258.059 65.1694 257.99 64.8276C257.375 65.4702 256.737 65.7915 256.076 65.7915H255.707V63.8569H256.097C256.716 63.8569 257.131 63.6564 257.341 63.2554C257.446 63.0503 257.576 62.6834 257.73 62.1548C257.872 61.6899 258.006 61.3664 258.134 61.1841C258.325 60.9061 258.59 60.7671 258.927 60.7671C259.424 60.7671 259.986 61.0929 260.615 61.7446C261.303 62.4601 261.647 63.1984 261.647 63.9595C261.647 64.0597 261.638 64.16 261.62 64.2603Z" fill="url(#paint3_linear_2611_59673)"/>
<path d="M134.082 67.5428C134.082 66.8703 134.078 66.1886 134.069 65.4976C134.064 64.8066 134.045 64.1225 134.013 63.4454C133.98 62.7637 133.932 62.0982 133.867 61.4489C133.807 60.7996 133.721 60.1759 133.609 59.5776C133.503 58.9747 133.368 58.4089 133.206 57.8802C133.044 57.3469 132.844 56.8622 132.608 56.4263L134.562 55.2089C134.827 55.6216 135.047 56.0553 135.223 56.5098C135.4 56.9643 135.548 57.435 135.669 57.9219C135.789 58.4043 135.889 58.9028 135.968 59.4176C136.051 59.9324 136.128 60.4541 136.197 60.9828C136.248 61.3956 136.288 61.8385 136.316 62.3115C136.348 62.7845 136.373 63.2669 136.392 63.7585C136.411 64.2454 136.422 64.7301 136.427 65.2124C136.431 65.6901 136.434 66.1376 136.434 66.555V66.8819V67.5428H134.082ZM140.099 63.6541C140.099 63.8118 140.127 63.9602 140.182 64.0993C140.243 64.2338 140.324 64.3544 140.426 64.4611C140.532 64.5631 140.653 64.6443 140.788 64.7045C140.927 64.7602 141.075 64.788 141.233 64.788C141.395 64.788 141.546 64.7602 141.685 64.7045C141.824 64.6443 141.945 64.5631 142.047 64.4611C142.153 64.3544 142.237 64.2338 142.297 64.0993C142.362 63.9602 142.394 63.8118 142.394 63.6541C142.394 63.4918 142.362 63.3411 142.297 63.2019C142.237 63.0628 142.153 62.9422 142.047 62.8402C141.945 62.7335 141.824 62.6501 141.685 62.5898C141.546 62.5248 141.395 62.4924 141.233 62.4924C141.075 62.4924 140.927 62.5248 140.788 62.5898C140.653 62.6501 140.532 62.7335 140.426 62.8402C140.324 62.9422 140.243 63.0628 140.182 63.2019C140.127 63.3411 140.099 63.4918 140.099 63.6541ZM138.374 63.6541C138.374 63.2599 138.448 62.8889 138.596 62.5411C138.749 62.1886 138.953 61.8825 139.208 61.6228C139.468 61.3631 139.772 61.1567 140.12 61.0037C140.468 60.8506 140.839 60.7741 141.233 60.7741C141.627 60.7741 141.998 60.8506 142.346 61.0037C142.698 61.1567 143.004 61.3631 143.264 61.6228C143.524 61.8825 143.73 62.1886 143.883 62.5411C144.036 62.8889 144.113 63.2599 144.113 63.6541C144.113 64.0483 144.036 64.4193 143.883 64.7672C143.73 65.115 143.524 65.4188 143.264 65.6785C143.004 65.9335 142.698 66.1376 142.346 66.2906C141.998 66.439 141.627 66.5132 141.233 66.5132C140.839 66.5132 140.468 66.439 140.12 66.2906C139.772 66.1376 139.468 65.9335 139.208 65.6785C138.953 65.4188 138.749 65.115 138.596 64.7672C138.448 64.4193 138.374 64.0483 138.374 63.6541ZM145.76 66.4367C145.76 66.0518 145.89 65.7388 146.149 65.4976C146.409 65.2564 146.736 65.1359 147.13 65.1359C147.529 65.1359 147.858 65.2564 148.118 65.4976C148.378 65.7388 148.507 66.0518 148.507 66.4367C148.507 66.817 148.378 67.1254 148.118 67.3619C147.863 67.6031 147.534 67.7237 147.13 67.7237C146.731 67.7237 146.402 67.6031 146.142 67.3619C145.887 67.1254 145.76 66.817 145.76 66.4367ZM152.146 63.6541C152.146 63.8118 152.174 63.9602 152.229 64.0993C152.289 64.2338 152.371 64.3544 152.473 64.4611C152.579 64.5631 152.7 64.6443 152.834 64.7045C152.974 64.7602 153.122 64.788 153.28 64.788C153.442 64.788 153.593 64.7602 153.732 64.7045C153.871 64.6443 153.992 64.5631 154.094 64.4611C154.2 64.3544 154.284 64.2338 154.344 64.0993C154.409 63.9602 154.441 63.8118 154.441 63.6541C154.441 63.4918 154.409 63.3411 154.344 63.2019C154.284 63.0628 154.2 62.9422 154.094 62.8402C153.992 62.7335 153.871 62.6501 153.732 62.5898C153.593 62.5248 153.442 62.4924 153.28 62.4924C153.122 62.4924 152.974 62.5248 152.834 62.5898C152.7 62.6501 152.579 62.7335 152.473 62.8402C152.371 62.9422 152.289 63.0628 152.229 63.2019C152.174 63.3411 152.146 63.4918 152.146 63.6541ZM150.421 63.6541C150.421 63.2599 150.495 62.8889 150.643 62.5411C150.796 62.1886 151 61.8825 151.255 61.6228C151.515 61.3631 151.819 61.1567 152.167 61.0037C152.514 60.8506 152.885 60.7741 153.28 60.7741C153.674 60.7741 154.045 60.8506 154.393 61.0037C154.745 61.1567 155.051 61.3631 155.311 61.6228C155.571 61.8825 155.777 62.1886 155.93 62.5411C156.083 62.8889 156.16 63.2599 156.16 63.6541C156.16 64.0483 156.083 64.4193 155.93 64.7672C155.777 65.115 155.571 65.4188 155.311 65.6785C155.051 65.9335 154.745 66.1376 154.393 66.2906C154.045 66.439 153.674 66.5132 153.28 66.5132C152.885 66.5132 152.514 66.439 152.167 66.2906C151.819 66.1376 151.515 65.9335 151.255 65.6785C151 65.4188 150.796 65.115 150.643 64.7672C150.495 64.4193 150.421 64.0483 150.421 63.6541ZM159.177 63.6541C159.177 63.8118 159.205 63.9602 159.26 64.0993C159.321 64.2338 159.402 64.3544 159.504 64.4611C159.611 64.5631 159.731 64.6443 159.866 64.7045C160.005 64.7602 160.153 64.788 160.311 64.788C160.473 64.788 160.624 64.7602 160.763 64.7045C160.902 64.6443 161.023 64.5631 161.125 64.4611C161.231 64.3544 161.315 64.2338 161.375 64.0993C161.44 63.9602 161.473 63.8118 161.473 63.6541C161.473 63.4918 161.44 63.3411 161.375 63.2019C161.315 63.0628 161.231 62.9422 161.125 62.8402C161.023 62.7335 160.902 62.6501 160.763 62.5898C160.624 62.5248 160.473 62.4924 160.311 62.4924C160.153 62.4924 160.005 62.5248 159.866 62.5898C159.731 62.6501 159.611 62.7335 159.504 62.8402C159.402 62.9422 159.321 63.0628 159.26 63.2019C159.205 63.3411 159.177 63.4918 159.177 63.6541ZM157.452 63.6541C157.452 63.2599 157.526 62.8889 157.674 62.5411C157.827 62.1886 158.031 61.8825 158.287 61.6228C158.546 61.3631 158.85 61.1567 159.198 61.0037C159.546 60.8506 159.917 60.7741 160.311 60.7741C160.705 60.7741 161.076 60.8506 161.424 61.0037C161.776 61.1567 162.082 61.3631 162.342 61.6228C162.602 61.8825 162.808 62.1886 162.961 62.5411C163.114 62.8889 163.191 63.2599 163.191 63.6541C163.191 64.0483 163.114 64.4193 162.961 64.7672C162.808 65.115 162.602 65.4188 162.342 65.6785C162.082 65.9335 161.776 66.1376 161.424 66.2906C161.076 66.439 160.705 66.5132 160.311 66.5132C159.917 66.5132 159.546 66.439 159.198 66.2906C158.85 66.1376 158.546 65.9335 158.287 65.6785C158.031 65.4188 157.827 65.115 157.674 64.7672C157.526 64.4193 157.452 64.0483 157.452 63.6541ZM166.208 63.6541C166.208 63.8118 166.236 63.9602 166.292 64.0993C166.352 64.2338 166.433 64.3544 166.535 64.4611C166.642 64.5631 166.762 64.6443 166.897 64.7045C167.036 64.7602 167.184 64.788 167.342 64.788C167.504 64.788 167.655 64.7602 167.794 64.7045C167.933 64.6443 168.054 64.5631 168.156 64.4611C168.263 64.3544 168.346 64.2338 168.406 64.0993C168.471 63.9602 168.504 63.8118 168.504 63.6541C168.504 63.4918 168.471 63.3411 168.406 63.2019C168.346 63.0628 168.263 62.9422 168.156 62.8402C168.054 62.7335 167.933 62.6501 167.794 62.5898C167.655 62.5248 167.504 62.4924 167.342 62.4924C167.184 62.4924 167.036 62.5248 166.897 62.5898C166.762 62.6501 166.642 62.7335 166.535 62.8402C166.433 62.9422 166.352 63.0628 166.292 63.2019C166.236 63.3411 166.208 63.4918 166.208 63.6541ZM164.483 63.6541C164.483 63.2599 164.557 62.8889 164.706 62.5411C164.859 62.1886 165.063 61.8825 165.318 61.6228C165.577 61.3631 165.881 61.1567 166.229 61.0037C166.577 60.8506 166.948 60.7741 167.342 60.7741C167.736 60.7741 168.107 60.8506 168.455 61.0037C168.808 61.1567 169.114 61.3631 169.373 61.6228C169.633 61.8825 169.84 62.1886 169.993 62.5411C170.146 62.8889 170.222 63.2599 170.222 63.6541C170.222 64.0483 170.146 64.4193 169.993 64.7672C169.84 65.115 169.633 65.4188 169.373 65.6785C169.114 65.9335 168.808 66.1376 168.455 66.2906C168.107 66.439 167.736 66.5132 167.342 66.5132C166.948 66.5132 166.577 66.439 166.229 66.2906C165.881 66.1376 165.577 65.9335 165.318 65.6785C165.063 65.4188 164.859 65.115 164.706 64.7672C164.557 64.4193 164.483 64.0483 164.483 63.6541ZM171.869 66.4367C171.869 66.0518 171.999 65.7388 172.259 65.4976C172.518 65.2564 172.845 65.1359 173.239 65.1359C173.638 65.1359 173.968 65.2564 174.227 65.4976C174.487 65.7388 174.617 66.0518 174.617 66.4367C174.617 66.817 174.487 67.1254 174.227 67.3619C173.972 67.6031 173.643 67.7237 173.239 67.7237C172.841 67.7237 172.511 67.6031 172.252 67.3619C171.997 67.1254 171.869 66.817 171.869 66.4367ZM178.255 63.6541C178.255 63.8118 178.283 63.9602 178.339 64.0993C178.399 64.2338 178.48 64.3544 178.582 64.4611C178.689 64.5631 178.809 64.6443 178.944 64.7045C179.083 64.7602 179.231 64.788 179.389 64.788C179.551 64.788 179.702 64.7602 179.841 64.7045C179.98 64.6443 180.101 64.5631 180.203 64.4611C180.31 64.3544 180.393 64.2338 180.453 64.0993C180.518 63.9602 180.551 63.8118 180.551 63.6541C180.551 63.4918 180.518 63.3411 180.453 63.2019C180.393 63.0628 180.31 62.9422 180.203 62.8402C180.101 62.7335 179.98 62.6501 179.841 62.5898C179.702 62.5248 179.551 62.4924 179.389 62.4924C179.231 62.4924 179.083 62.5248 178.944 62.5898C178.809 62.6501 178.689 62.7335 178.582 62.8402C178.48 62.9422 178.399 63.0628 178.339 63.2019C178.283 63.3411 178.255 63.4918 178.255 63.6541ZM176.53 63.6541C176.53 63.2599 176.604 62.8889 176.752 62.5411C176.906 62.1886 177.11 61.8825 177.365 61.6228C177.624 61.3631 177.928 61.1567 178.276 61.0037C178.624 60.8506 178.995 60.7741 179.389 60.7741C179.783 60.7741 180.154 60.8506 180.502 61.0037C180.855 61.1567 181.161 61.3631 181.42 61.6228C181.68 61.8825 181.886 62.1886 182.039 62.5411C182.192 62.8889 182.269 63.2599 182.269 63.6541C182.269 64.0483 182.192 64.4193 182.039 64.7672C181.886 65.115 181.68 65.4188 181.42 65.6785C181.161 65.9335 180.855 66.1376 180.502 66.2906C180.154 66.439 179.783 66.5132 179.389 66.5132C178.995 66.5132 178.624 66.439 178.276 66.2906C177.928 66.1376 177.624 65.9335 177.365 65.6785C177.11 65.4188 176.906 65.115 176.752 64.7672C176.604 64.4193 176.53 64.0483 176.53 63.6541ZM185.286 63.6541C185.286 63.8118 185.314 63.9602 185.37 64.0993C185.43 64.2338 185.511 64.3544 185.613 64.4611C185.72 64.5631 185.841 64.6443 185.975 64.7045C186.114 64.7602 186.263 64.788 186.42 64.788C186.583 64.788 186.733 64.7602 186.872 64.7045C187.012 64.6443 187.132 64.5631 187.234 64.4611C187.341 64.3544 187.424 64.2338 187.485 64.0993C187.55 63.9602 187.582 63.8118 187.582 63.6541C187.582 63.4918 187.55 63.3411 187.485 63.2019C187.424 63.0628 187.341 62.9422 187.234 62.8402C187.132 62.7335 187.012 62.6501 186.872 62.5898C186.733 62.5248 186.583 62.4924 186.42 62.4924C186.263 62.4924 186.114 62.5248 185.975 62.5898C185.841 62.6501 185.72 62.7335 185.613 62.8402C185.511 62.9422 185.43 63.0628 185.37 63.2019C185.314 63.3411 185.286 63.4918 185.286 63.6541ZM183.561 63.6541C183.561 63.2599 183.635 62.8889 183.784 62.5411C183.937 62.1886 184.141 61.8825 184.396 61.6228C184.656 61.3631 184.959 61.1567 185.307 61.0037C185.655 60.8506 186.026 60.7741 186.42 60.7741C186.814 60.7741 187.185 60.8506 187.533 61.0037C187.886 61.1567 188.192 61.3631 188.452 61.6228C188.711 61.8825 188.918 62.1886 189.071 62.5411C189.224 62.8889 189.3 63.2599 189.3 63.6541C189.3 64.0483 189.224 64.4193 189.071 64.7672C188.918 65.115 188.711 65.4188 188.452 65.6785C188.192 65.9335 187.886 66.1376 187.533 66.2906C187.185 66.439 186.814 66.5132 186.42 66.5132C186.026 66.5132 185.655 66.439 185.307 66.2906C184.959 66.1376 184.656 65.9335 184.396 65.6785C184.141 65.4188 183.937 65.115 183.784 64.7672C183.635 64.4193 183.561 64.0483 183.561 63.6541ZM192.318 63.6541C192.318 63.8118 192.345 63.9602 192.401 64.0993C192.461 64.2338 192.543 64.3544 192.645 64.4611C192.751 64.5631 192.872 64.6443 193.006 64.7045C193.145 64.7602 193.294 64.788 193.452 64.788C193.614 64.788 193.765 64.7602 193.904 64.7045C194.043 64.6443 194.163 64.5631 194.265 64.4611C194.372 64.3544 194.456 64.2338 194.516 64.0993C194.581 63.9602 194.613 63.8118 194.613 63.6541C194.613 63.4918 194.581 63.3411 194.516 63.2019C194.456 63.0628 194.372 62.9422 194.265 62.8402C194.163 62.7335 194.043 62.6501 193.904 62.5898C193.765 62.5248 193.614 62.4924 193.452 62.4924C193.294 62.4924 193.145 62.5248 193.006 62.5898C192.872 62.6501 192.751 62.7335 192.645 62.8402C192.543 62.9422 192.461 63.0628 192.401 63.2019C192.345 63.3411 192.318 63.4918 192.318 63.6541ZM190.592 63.6541C190.592 63.2599 190.667 62.8889 190.815 62.5411C190.968 62.1886 191.172 61.8825 191.427 61.6228C191.687 61.3631 191.991 61.1567 192.338 61.0037C192.686 60.8506 193.057 60.7741 193.452 60.7741C193.846 60.7741 194.217 60.8506 194.565 61.0037C194.917 61.1567 195.223 61.3631 195.483 61.6228C195.743 61.8825 195.949 62.1886 196.102 62.5411C196.255 62.8889 196.332 63.2599 196.332 63.6541C196.332 64.0483 196.255 64.4193 196.102 64.7672C195.949 65.115 195.743 65.4188 195.483 65.6785C195.223 65.9335 194.917 66.1376 194.565 66.2906C194.217 66.439 193.846 66.5132 193.452 66.5132C193.057 66.5132 192.686 66.439 192.338 66.2906C191.991 66.1376 191.687 65.9335 191.427 65.6785C191.172 65.4188 190.968 65.115 190.815 64.7672C190.667 64.4193 190.592 64.0483 190.592 63.6541Z" fill="#303030"/>
<path d="M127.168 65.963H126.25V64.3483H127.327C127.597 64.3483 127.779 64.3312 127.874 64.2969C128.08 64.2171 128.182 64.044 128.182 63.7777C128.182 63.3821 128.059 62.9371 127.812 62.4425L129.197 61.8891C129.295 62.2771 129.345 62.6651 129.345 63.0531C129.345 63.8937 129.176 64.5727 128.838 65.09C128.45 65.672 127.893 65.963 127.168 65.963ZM128.536 61.6951V60.2173H130V61.6951H128.536ZM126.638 61.6951V60.2173H128.102V61.6951H126.638Z" fill="#A6A6A6"/>
<path d="M124.641 64.4406C124.611 64.2276 124.514 64.0469 124.351 63.8985C124.176 63.7426 123.967 63.6646 123.724 63.6646C123.481 63.6646 123.359 63.7806 123.359 64.0126C123.359 64.0735 123.376 64.123 123.41 64.161C123.608 64.3816 123.876 64.4919 124.214 64.4919C124.351 64.4919 124.493 64.4748 124.641 64.4406ZM125.622 64.3493H126.46V65.964H125.525C125.282 66.9683 124.782 67.8241 124.026 68.5316C123.239 69.262 122.386 69.6272 121.467 69.6272L121.683 68.0238C122.345 68.0238 122.954 67.788 123.513 67.3163C124.045 66.8675 124.311 66.4053 124.311 65.9298C124.246 65.9374 124.18 65.9412 124.111 65.9412C123.655 65.9412 123.262 65.8423 122.932 65.6445C122.525 65.4011 122.322 65.0492 122.322 64.5889C122.322 64.0069 122.516 63.4763 122.903 62.997C123.268 62.5482 123.633 62.3237 123.997 62.3237C124.37 62.3237 124.702 62.4816 124.995 62.7973C125.337 63.1663 125.546 63.6836 125.622 64.3493Z" fill="#A6A6A6"/>
<path d="M119.337 64.1374C119.337 63.9929 119.236 63.8369 119.035 63.6696C118.853 63.5212 118.666 63.4185 118.476 63.3615L118.134 64.2573C118.381 64.4056 118.632 64.4798 118.887 64.4798C119.187 64.4798 119.337 64.3657 119.337 64.1374ZM120.614 64.6852C120.481 65.6438 119.96 66.1231 119.052 66.1231C118.892 66.1231 118.727 66.104 118.556 66.066C118.188 65.9899 117.939 65.8815 117.81 65.7408C117.718 65.6381 117.644 65.4441 117.587 65.1588C117.074 65.6951 116.542 65.9633 115.991 65.9633H115.684V64.3486H116.008C116.525 64.3486 116.871 64.1812 117.046 63.8464C117.133 63.6753 117.241 63.3691 117.371 62.9278C117.488 62.5398 117.601 62.2697 117.707 62.1176C117.867 61.8855 118.087 61.7695 118.368 61.7695C118.782 61.7695 119.251 62.0415 119.776 62.5855C120.35 63.1827 120.636 63.7989 120.636 64.4341C120.636 64.5178 120.629 64.6015 120.614 64.6852Z" fill="#A6A6A6"/>
<path d="M115.985 65.9634H112.258V64.3486H115.985V65.9634Z" fill="#A6A6A6"/>
<path d="M112.61 64.3487V65.9634H111.864C111.142 65.9634 110.633 65.7067 110.336 65.1932C110.112 64.8014 110 64.2041 110 63.4015C110 63.2113 110.006 62.985 110.017 62.7225C110.085 61.2885 110.234 59.999 110.462 58.854L111.858 59.2876C111.588 60.5239 111.427 61.6251 111.374 62.5913C111.358 62.8956 111.351 63.1257 111.351 63.2817C111.351 63.6773 111.402 63.9493 111.505 64.0976C111.615 64.265 111.822 64.3487 112.126 64.3487H112.61Z" fill="#A6A6A6"/>
<path d="M120.078 58.0646C119.895 59.027 119.356 59.8334 118.459 60.4838C117.589 61.1077 116.626 61.4196 115.569 61.4196C114.517 61.4196 113.673 61.1514 113.039 60.6151C112.427 60.0978 112.121 59.4302 112.121 58.6123C112.121 57.8249 112.505 57.0318 113.272 56.233C113.949 55.5255 114.834 54.8998 115.928 54.3558V55.9249C115.313 56.1646 114.73 56.5069 114.179 56.952C113.521 57.4769 113.193 57.9505 113.193 58.3727C113.193 58.7835 113.449 59.1145 113.962 59.3655C114.456 59.609 115.073 59.7307 115.814 59.7307C116.757 59.7307 117.53 59.5291 118.134 59.1259C118.788 58.6884 119.114 58.0855 119.114 57.3171C119.114 56.6857 118.9 55.9915 118.47 55.2345L119.85 54.7952C120.089 55.3277 120.209 55.9706 120.209 56.7237C120.209 57.1726 120.165 57.6195 120.078 58.0646ZM116.823 54.1048V52.627H118.288V54.1048H116.823Z" fill="#A6A6A6"/>
<path d="M339.622 50.4365C339.622 50.283 339.515 50.1174 339.3 49.9397C339.107 49.7822 338.909 49.6732 338.707 49.6126L338.343 50.5637C338.606 50.7212 338.872 50.8 339.143 50.8C339.462 50.8 339.622 50.6788 339.622 50.4365ZM340.979 51.0181C340.837 52.0358 340.284 52.5447 339.319 52.5447C339.149 52.5447 338.973 52.5245 338.792 52.4841C338.4 52.4034 338.135 52.2883 337.998 52.1388C337.901 52.0298 337.822 51.8238 337.762 51.5209C337.216 52.0904 336.651 52.3751 336.065 52.3751H335.738V50.6606H336.084C336.633 50.6606 337 50.4829 337.186 50.1275C337.279 49.9458 337.394 49.6207 337.531 49.1522C337.657 48.7402 337.776 48.4535 337.889 48.2919C338.059 48.0455 338.293 47.9224 338.592 47.9224C339.032 47.9224 339.531 48.2111 340.088 48.7887C340.698 49.4228 341.003 50.077 341.003 50.7515C341.003 50.8404 340.995 50.9292 340.979 51.0181Z" fill="#E2E2E2"/>
<path d="M335.963 50.6615V52.3759H335.605C335.234 52.3759 334.959 52.3113 334.781 52.182C334.781 53.4179 334.424 54.4518 333.709 55.2838C333.095 55.9906 332.279 56.4995 331.262 56.8105V55.1021C332.833 54.573 333.618 53.7168 333.618 52.5334C333.618 52.1457 333.519 51.7216 333.321 51.2612C333.136 50.825 332.901 50.4494 332.619 50.1344L334.03 49.4014C334.079 49.4337 334.188 49.6639 334.357 50.092C334.507 50.4716 334.666 50.6615 334.836 50.6615H335.963Z" fill="#E2E2E2"/>
<path d="M328.028 52.3763H327.053V50.6618H328.198C328.484 50.6618 328.678 50.6437 328.779 50.6073C328.997 50.5225 329.106 50.3387 329.106 50.056C329.106 49.636 328.975 49.1635 328.713 48.6384L330.185 48.0508C330.29 48.4627 330.342 48.8747 330.342 49.2866C330.342 50.1792 330.163 50.9001 329.803 51.4494C329.391 52.0673 328.799 52.3763 328.028 52.3763ZM327.592 54.7571V53.1881H329.143V54.7571H327.592Z" fill="#E2E2E2"/>
<path d="M327.282 52.376H325.223C324.714 52.376 324.322 52.1417 324.047 51.6732C323.575 51.855 323.191 52.1761 322.896 52.6365C322.601 53.1009 322.454 53.5957 322.454 54.1207C322.454 54.8517 322.767 55.4232 323.393 55.8352C324.019 56.2471 324.885 56.4531 325.992 56.4531C326.262 56.4531 326.543 56.439 326.834 56.4107V58.0827C326.539 58.111 326.252 58.1252 325.974 58.1252C324.479 58.1252 323.288 57.7879 322.399 57.1134C321.466 56.4067 321 55.4172 321 54.145C321 53.5391 321.178 52.9253 321.533 52.3033C321.864 51.7298 322.28 51.2492 322.781 50.8615V50.4132C322.781 50.1991 322.616 50.0416 322.284 49.9406C322.058 49.8679 321.808 49.8316 321.533 49.8316V48.2867C322.745 47.9071 323.878 47.7173 324.932 47.7173C325.465 47.7173 325.885 47.8485 326.192 48.1111C326.499 48.3695 326.652 48.7088 326.652 49.1288C326.652 49.7064 326.305 50.2173 325.61 50.6615H327.282V52.376ZM324.98 49.3954C324.956 49.3308 324.792 49.3005 324.489 49.3045C324.195 49.3086 323.958 49.3388 323.781 49.3954C323.938 49.5206 324.015 49.6842 324.011 49.8861C324.011 49.9669 323.995 50.0456 323.962 50.1224C324.14 50.0618 324.356 49.9467 324.611 49.777C324.885 49.5953 325.008 49.4681 324.98 49.3954Z" fill="#E2E2E2"/>
<path d="M344.161 57.6757C344.161 57.5223 344.054 57.3567 343.84 57.179C343.646 57.0215 343.448 56.9124 343.246 56.8518L342.882 57.803C343.145 57.9605 343.411 58.0392 343.682 58.0392C344.001 58.0392 344.161 57.9181 344.161 57.6757ZM345.518 58.2573C345.376 59.2751 344.823 59.784 343.858 59.784C343.688 59.784 343.512 59.7638 343.331 59.7234C342.939 59.6426 342.674 59.5275 342.537 59.3781C342.44 59.269 342.361 59.0631 342.301 58.7601C341.756 59.3296 341.19 59.6143 340.604 59.6143H340.277V57.8999H340.623C341.172 57.8999 341.539 57.7222 341.725 57.3668C341.818 57.185 341.933 56.8599 342.071 56.3914C342.196 55.9795 342.315 55.6927 342.428 55.5312C342.598 55.2848 342.832 55.1616 343.131 55.1616C343.571 55.1616 344.07 55.4504 344.627 56.0279C345.237 56.662 345.542 57.3163 345.542 57.9908C345.542 58.0796 345.534 58.1685 345.518 58.2573Z" fill="#E2E2E2"/>
<path d="M338.92 59.6142C338.722 59.6142 338.564 59.5536 338.447 59.4325C338.378 59.3638 338.314 59.2548 338.253 59.1053C338.205 58.9842 338.164 58.9236 338.132 58.9236C338.12 58.9236 337.999 59.0387 337.769 59.2689C337.538 59.4991 337.312 59.6142 337.09 59.6142H335.418V57.8998H336.854C337.391 57.8998 337.865 57.3061 338.277 56.1187L339.537 56.7063C339.529 56.7507 339.443 56.9042 339.277 57.1667C339.115 57.4292 339.035 57.613 339.035 57.718C339.035 57.8392 339.122 57.8998 339.295 57.8998H340.519V59.6142H338.92ZM338.023 55.0827V53.5137H339.58V55.0827H338.023ZM336.006 55.0827V53.5137H337.563V55.0827H336.006Z" fill="#E2E2E2"/>
<path d="M335.643 57.8993V59.6137H335.285C334.914 59.6137 334.639 59.5491 334.461 59.4198C334.461 60.6557 334.104 61.6896 333.389 62.5216C332.775 63.2284 331.959 63.7373 330.941 64.0483V62.3399C332.512 61.8108 333.298 60.9546 333.298 59.7712C333.298 59.3835 333.199 58.9594 333.001 58.499C332.815 58.0628 332.581 57.6872 332.298 57.3722L333.71 56.6392C333.758 56.6715 333.867 56.9017 334.037 57.3298C334.187 57.7094 334.346 57.8993 334.516 57.8993H335.643Z" fill="#E2E2E2"/>
<path d="M349.539 61.4686C349.539 60.7961 349.535 60.1144 349.526 59.4234C349.521 58.7324 349.502 58.0483 349.47 57.3712C349.437 56.6895 349.389 56.024 349.324 55.3747C349.264 54.7254 349.178 54.1016 349.066 53.5034C348.96 52.9005 348.825 52.3347 348.663 51.806C348.501 51.2726 348.301 50.788 348.065 50.3521L350.019 49.1347C350.284 49.5474 350.504 49.9811 350.68 50.4355C350.857 50.89 351.005 51.3608 351.126 51.8477C351.246 52.33 351.346 52.8286 351.425 53.3434C351.508 53.8582 351.585 54.3799 351.654 54.9086C351.705 55.3213 351.745 55.7642 351.773 56.2373C351.805 56.7103 351.831 57.1926 351.849 57.6842C351.868 58.1712 351.879 58.6558 351.884 59.1382C351.888 59.6158 351.891 60.0634 351.891 60.4808V60.8077V61.4686H349.539ZM360.265 61.6982C359.904 61.6982 359.561 61.6216 359.236 61.4686C358.916 61.3202 358.642 61.1231 358.415 60.8773C358.165 61.1324 357.879 61.3318 357.559 61.4755C357.239 61.6193 356.894 61.6912 356.523 61.6912C356.124 61.6912 355.762 61.6031 355.438 61.4269C355.113 61.2553 354.83 61.0326 354.589 60.759C354.348 60.4854 354.151 60.1816 353.998 59.8477C353.849 59.5092 353.747 59.1753 353.692 58.846C353.668 58.7161 353.652 58.5816 353.643 58.4425C353.634 58.2987 353.629 58.1526 353.629 58.0042C353.629 57.726 353.645 57.4408 353.678 57.1486C353.715 56.8564 353.768 56.5642 353.838 56.2721C353.93 55.8732 354.051 55.4721 354.199 55.0686C354.348 54.6605 354.529 54.2384 354.742 53.8025C354.96 53.3666 355.208 52.9074 355.486 52.4251C355.765 51.9428 356.078 51.428 356.425 50.8808C356.374 50.8205 356.316 50.7625 356.252 50.7069C356.191 50.6466 356.138 50.5909 356.092 50.5399L357.733 48.8982C357.78 48.9492 357.835 49.0071 357.9 49.0721C357.965 49.137 358.035 49.2042 358.109 49.2738C358.183 49.3434 358.255 49.4129 358.325 49.4825C358.399 49.5521 358.466 49.6147 358.526 49.6703V49.6634C358.554 49.6866 358.582 49.7121 358.61 49.7399C358.638 49.7677 358.663 49.7955 358.686 49.8234C359.081 50.1897 359.47 50.5654 359.855 50.9503C360.245 51.3353 360.618 51.7526 360.975 52.2025C361.462 52.8193 361.886 53.4663 362.248 54.1434C362.614 54.8158 362.911 55.4976 363.138 56.1886C363.217 56.4344 363.275 56.6964 363.312 56.9747C363.354 57.2529 363.375 57.5358 363.375 57.8234C363.375 58.3011 363.315 58.7671 363.194 59.2216C363.078 59.6715 362.895 60.0773 362.645 60.439C362.394 60.8008 362.072 61.0953 361.678 61.3225C361.288 61.5544 360.822 61.6796 360.279 61.6982H360.265ZM359.493 56.8077C359.493 57.0118 359.503 57.2553 359.521 57.5382C359.54 57.8211 359.577 58.0947 359.632 58.359C359.693 58.6187 359.769 58.846 359.862 59.0408C359.959 59.2309 360.085 59.3376 360.238 59.3608C360.381 59.3329 360.518 59.2703 360.648 59.1729C360.778 59.0755 360.892 58.9573 360.989 58.8182C361.086 58.679 361.163 58.5283 361.218 58.366C361.274 58.199 361.302 58.0344 361.302 57.8721C361.302 57.7005 361.288 57.5266 361.26 57.3503C361.232 57.1741 361.202 57.0187 361.17 56.8842H361.177C361.024 56.4251 360.824 55.9915 360.578 55.5834C360.333 55.1753 360.066 54.7903 359.778 54.4286C359.491 54.0669 359.194 53.7306 358.888 53.4199C358.587 53.1045 358.304 52.8124 358.039 52.5434L357.942 52.4529C357.71 52.7683 357.478 53.1115 357.246 53.4825C357.019 53.8535 356.808 54.2292 356.613 54.6095C356.418 54.9897 356.245 55.3631 356.092 55.7295C355.943 56.0958 355.832 56.4344 355.758 56.7451C355.716 56.9538 355.681 57.1811 355.653 57.4269C355.63 57.668 355.618 57.9022 355.618 58.1295C355.618 58.2964 355.642 58.4541 355.688 58.6025C355.739 58.7463 355.806 58.8738 355.89 58.9851C355.973 59.0964 356.068 59.1845 356.175 59.2495C356.282 59.3097 356.398 59.3399 356.523 59.3399C356.588 59.3399 356.657 59.319 356.732 59.2773C356.81 59.2309 356.887 59.1683 356.961 59.0895C357.04 59.0106 357.114 58.9155 357.184 58.8042C357.253 58.6883 357.311 58.5584 357.358 58.4147C357.413 58.2245 357.457 58.039 357.49 57.8582C357.527 57.6726 357.559 57.508 357.587 57.3642C357.596 57.2808 357.606 57.1857 357.615 57.079C357.629 56.9677 357.643 56.8726 357.657 56.7938L359.493 56.8077ZM366.275 57.5799C366.275 57.7376 366.302 57.886 366.358 58.0251C366.418 58.1596 366.5 58.2802 366.602 58.3869C366.708 58.4889 366.829 58.57 366.963 58.6303C367.102 58.686 367.251 58.7138 367.409 58.7138C367.571 58.7138 367.722 58.686 367.861 58.6303C368 58.57 368.12 58.4889 368.222 58.3869C368.329 58.2802 368.413 58.1596 368.473 58.0251C368.538 57.886 368.57 57.7376 368.57 57.5799C368.57 57.4176 368.538 57.2669 368.473 57.1277C368.413 56.9886 368.329 56.868 368.222 56.766C368.12 56.6593 368 56.5758 367.861 56.5155C367.722 56.4506 367.571 56.4182 367.409 56.4182C367.251 56.4182 367.102 56.4506 366.963 56.5155C366.829 56.5758 366.708 56.6593 366.602 56.766C366.5 56.868 366.418 56.9886 366.358 57.1277C366.302 57.2669 366.275 57.4176 366.275 57.5799ZM364.549 57.5799C364.549 57.1857 364.624 56.8147 364.772 56.4669C364.925 56.1144 365.129 55.8083 365.384 55.5486C365.644 55.2889 365.948 55.0825 366.295 54.9295C366.643 54.7764 367.014 54.6999 367.409 54.6999C367.803 54.6999 368.174 54.7764 368.522 54.9295C368.874 55.0825 369.18 55.2889 369.44 55.5486C369.7 55.8083 369.906 56.1144 370.059 56.4669C370.212 56.8147 370.289 57.1857 370.289 57.5799C370.289 57.9741 370.212 58.3451 370.059 58.6929C369.906 59.0408 369.7 59.3445 369.44 59.6042C369.18 59.8593 368.874 60.0634 368.522 60.2164C368.174 60.3648 367.803 60.439 367.409 60.439C367.014 60.439 366.643 60.3648 366.295 60.2164C365.948 60.0634 365.644 59.8593 365.384 59.6042C365.129 59.3445 364.925 59.0408 364.772 58.6929C364.624 58.3451 364.549 57.9741 364.549 57.5799Z" fill="#303030"/>
<path d="M367.93 20.5558C367.93 20.2148 367.692 19.8468 367.216 19.4519C366.785 19.1019 366.346 18.8596 365.897 18.725L365.089 20.8385C365.673 21.1885 366.265 21.3635 366.866 21.3635C367.575 21.3635 367.93 21.0942 367.93 20.5558ZM370.945 21.8481C370.631 24.1096 369.401 25.2404 367.257 25.2404C366.88 25.2404 366.489 25.1955 366.085 25.1058C365.215 24.9263 364.627 24.6705 364.322 24.3385C364.107 24.0962 363.932 23.6385 363.797 22.9654C362.585 24.2308 361.329 24.8635 360.028 24.8635H359.301V21.0539H360.068C361.289 21.0539 362.105 20.659 362.518 19.8692C362.724 19.4654 362.98 18.743 363.285 17.7019C363.564 16.7865 363.828 16.1494 364.08 15.7904C364.457 15.243 364.977 14.9692 365.641 14.9692C366.619 14.9692 367.728 15.6109 368.966 16.8942C370.321 18.3032 370.999 19.7571 370.999 21.2558C370.999 21.4532 370.981 21.6506 370.945 21.8481Z" fill="#B7B7B7"/>
<path d="M356.287 24.8634C355.847 24.8634 355.497 24.7288 355.237 24.4595C355.084 24.307 354.94 24.0647 354.806 23.7326C354.698 23.4634 354.608 23.3288 354.537 23.3288C354.51 23.3288 354.24 23.5845 353.729 24.0961C353.217 24.6076 352.715 24.8634 352.221 24.8634H348.506V21.0538H351.696C352.89 21.0538 353.944 19.7345 354.86 17.0961L357.66 18.4018C357.642 18.5006 357.449 18.8416 357.081 19.4249C356.722 20.0083 356.542 20.4166 356.542 20.6499C356.542 20.9192 356.735 21.0538 357.121 21.0538H359.84V24.8634H356.287ZM354.294 14.7942V11.3076H357.754V14.7942H354.294ZM349.812 14.7942V11.3076H353.271V14.7942H349.812Z" fill="#B7B7B7"/>
<path d="M349.003 21.0539V24.8635H348.209C347.383 24.8635 346.773 24.7199 346.378 24.4328C346.378 27.1789 345.584 29.4763 343.995 31.3251C342.631 32.8956 340.818 34.0263 338.557 34.7174V30.9212C342.048 29.7456 343.793 27.843 343.793 25.2135C343.793 24.352 343.573 23.4097 343.134 22.3866C342.721 21.4174 342.2 20.5828 341.572 19.8828L344.709 18.2539C344.816 18.3257 345.059 18.8372 345.435 19.7885C345.768 20.6321 346.122 21.0539 346.499 21.0539H349.003Z" fill="#B7B7B7"/>
<path d="M336.027 24.0557L332.891 24.8634C333.313 22.1442 333.447 19.3532 333.295 16.4903C333.196 14.7044 333.129 13.5512 333.093 13.0307C332.958 11.3974 332.77 10.0916 332.527 9.11341L335.65 8.09033C335.991 9.72367 336.261 12.2724 336.458 15.7365C336.647 19.0749 336.503 21.848 336.027 24.0557Z" fill="#B7B7B7"/>
<path d="M329.7 24.4327C329.7 26.9724 328.973 29.1712 327.519 31.0288C326.137 32.7878 324.297 34.0173 322 34.7173V30.9212C325.419 29.7724 327.129 27.8699 327.129 25.2135C327.129 24.3519 326.891 23.3692 326.415 22.2654C325.958 21.2064 325.415 20.3269 324.787 19.6269L327.869 17.9712C328.165 18.1686 328.538 18.9808 328.987 20.4077C329.462 21.9423 329.7 23.284 329.7 24.4327ZM327.95 10.4865H324.504V7H327.95V10.4865ZM330.198 15.0096H326.738V11.5231H330.198V15.0096ZM325.715 15.0096H322.256V11.5231H325.715V15.0096Z" fill="#B7B7B7"/>
<path d="M49.6597 21.0703L46.5026 21.8833C46.9271 19.1462 47.0626 16.3368 46.9091 13.4552C46.8097 11.6576 46.742 10.4968 46.7058 9.97286C46.5703 8.32879 46.3806 7.01444 46.1367 6.0298L49.2803 5C49.6236 6.64407 49.8946 9.20954 50.0933 12.6964C50.283 16.0568 50.1385 18.8481 49.6597 21.0703Z" fill="#B7B7B7"/>
<path d="M37.0878 21.8832H34.9062V18.0485H37.4672C38.1086 18.0485 38.5422 18.0078 38.768 17.9265C39.2558 17.7368 39.4997 17.3258 39.4997 16.6935C39.4997 15.754 39.2061 14.6971 38.619 13.5228L41.9116 12.2084C42.1465 13.1298 42.2639 14.0512 42.2639 14.9726C42.2639 16.969 41.8619 18.5815 41.058 19.81C40.1366 21.1921 38.8132 21.8832 37.0878 21.8832ZM40.3398 11.7477V8.23828H43.8222V11.7477H40.3398ZM35.8277 11.7477V8.23828H39.31V11.7477H35.8277Z" fill="#B7B7B7"/>
<path d="M35.6234 21.8835H26.7617V18.0488H35.6234V21.8835Z" fill="#B7B7B7"/>
<path d="M27.6024 18.0487V21.8833H25.8273C24.111 21.8833 22.9005 21.2736 22.1959 20.0541C21.663 19.1236 21.3965 17.7054 21.3965 15.7994C21.3965 15.3477 21.41 14.8102 21.4371 14.1869C21.5997 10.7813 21.952 7.71904 22.494 5L25.8138 6.0298C25.1724 8.96564 24.7885 11.5808 24.662 13.8753C24.6259 14.5979 24.6078 15.1444 24.6078 15.5148C24.6078 16.4543 24.7298 17.1002 24.9737 17.4525C25.2357 17.8499 25.728 18.0487 26.4506 18.0487H27.6024Z" fill="#B7B7B7"/>
<path d="M16.653 17.615C16.5807 17.1092 16.3504 16.6801 15.9619 16.3278C15.5464 15.9574 15.0496 15.7722 14.4714 15.7722C13.8843 15.7722 13.5907 16.0432 13.5907 16.5852C13.5907 16.7207 13.6358 16.8427 13.7262 16.9511C14.2049 17.5112 14.7921 17.7912 15.4877 17.7912C15.8038 17.7912 16.1923 17.7325 16.653 17.615ZM8.19776 29.5933C5.69552 29.5933 3.69012 28.9564 2.18155 27.6827C0.727184 26.4542 0 24.8688 0 22.9266C0 20.9935 0.934951 19.0875 2.80485 17.2085C4.38569 15.6096 6.50853 14.1462 9.17336 12.8183V16.5446C7.69189 17.1227 6.28721 17.9357 4.95931 18.9836C3.35137 20.2302 2.5474 21.3548 2.5474 22.3575C2.5474 23.3331 3.15715 24.119 4.37666 24.7153C5.55099 25.2934 7.01891 25.5825 8.78041 25.5825C10.9394 25.5825 12.7054 25.176 14.0785 24.3629C15.4967 23.5319 16.2058 22.4298 16.2058 21.0567C15.8084 21.12 15.4244 21.1516 15.0541 21.1516C13.943 21.1516 13.0487 20.8761 12.3712 20.325C11.6666 19.7469 11.3143 18.9565 11.3143 17.9538C11.3143 16.5717 11.6891 15.3251 12.4389 14.214C13.1977 13.0939 14.0604 12.5338 15.027 12.5338C16.3097 12.5338 17.3756 13.261 18.2248 14.7153C18.9745 15.9981 19.3494 17.4073 19.3494 18.9429C19.3494 22.1317 18.2112 24.7378 15.9348 26.7613C13.7939 28.6493 11.2149 29.5933 8.19776 29.5933ZM13.821 10.1896V6.68018H17.2898V10.1896H13.821ZM9.29531 10.1896V6.68018H12.7777V10.1896H9.29531Z" fill="#B7B7B7"/>
<path d="M46.0825 33.7766H44.8359V31.5853H46.2993C46.6658 31.5853 46.9136 31.5621 47.0427 31.5156C47.3214 31.4072 47.4608 31.1724 47.4608 30.811C47.4608 30.2742 47.293 29.6703 46.9575 28.9992L48.839 28.2482C48.9732 28.7747 49.0403 29.3012 49.0403 29.8277C49.0403 30.9685 48.8106 31.8899 48.3512 32.5919C47.8247 33.3817 47.0685 33.7766 46.0825 33.7766ZM47.9408 27.9849V25.9795H49.9307V27.9849H47.9408ZM45.3625 27.9849V25.9795H47.3524V27.9849H45.3625Z" fill="#E2E2E2"/>
<path d="M42.2654 29.967C42.2293 29.8844 42.0177 29.8457 41.6305 29.8509C41.2589 29.8561 40.9569 29.8948 40.7246 29.967C40.9259 30.1271 41.0266 30.3335 41.0266 30.5865C41.0266 30.6949 41.0059 30.7981 40.9646 30.8962C41.1918 30.8188 41.4679 30.6716 41.7931 30.4548C42.139 30.2226 42.2964 30.06 42.2654 29.967ZM38.1307 33.7765H37.0312V31.5853H38.4172C38.9541 31.5853 39.2973 31.5156 39.447 31.3762C39.447 30.8084 38.9153 30.5245 37.852 30.5245V28.5501C39.4006 28.0649 40.8485 27.8223 42.1957 27.8223C42.8771 27.8223 43.4191 27.99 43.8217 28.3256C44.2089 28.6559 44.4025 29.0895 44.4025 29.6264C44.4025 30.3645 43.956 31.0175 43.0629 31.5853H45.1303V33.7765H42.5751C41.7338 33.7765 41.1814 33.4771 40.9182 32.8784C40.6136 33.1313 40.1852 33.3455 39.6329 33.521C39.0857 33.6914 38.585 33.7765 38.1307 33.7765Z" fill="#E2E2E2"/>
<path d="M37.4649 33.7763H35.955C35.6144 33.7763 35.3666 33.6214 35.2117 33.3117C35.0569 32.9968 34.9562 32.8394 34.9098 32.8394C34.8839 32.8394 34.7394 32.922 34.4762 33.0872C34.1613 33.2782 33.7896 33.4279 33.3612 33.5363C32.7263 33.6963 31.9391 33.7763 30.9996 33.7763C30.3492 33.7763 29.9001 33.7505 29.6523 33.6989V31.5851H33.3921C33.8516 31.5851 34.0813 31.4689 34.0813 31.2366C34.0813 31.2005 34.0761 31.1618 34.0658 31.1205C33.6167 29.5822 32.894 28.0259 31.8978 26.4515L33.6709 25.4604C34.631 27.2413 35.3588 29.1512 35.8544 31.1902C35.9163 31.4534 36.1589 31.5851 36.5822 31.5851H37.4649V33.7763Z" fill="#E2E2E2"/>
<path d="M28.1967 33.3119L26.3927 33.7765C26.6353 32.2125 26.7127 30.6071 26.6249 28.9605C26.5682 27.9332 26.5294 27.2699 26.5088 26.9705C26.4314 26.0311 26.323 25.28 26.1836 24.7174L27.9799 24.1289C28.1761 25.0684 28.3309 26.5344 28.4445 28.5269C28.5529 30.4471 28.4703 32.0421 28.1967 33.3119Z" fill="#E2E2E2"/>
<path d="M25.0147 30.3463C25.0147 32.6331 23.4919 33.7764 20.4464 33.7764H19.0449V31.5852H21.1355C21.8891 31.5852 22.4053 31.5568 22.6841 31.5C23.288 31.3761 23.59 31.1026 23.59 30.6793C23.59 30.1218 23.2287 29.4766 22.506 28.7436C21.8143 28.0467 21.0348 27.5021 20.1676 27.1098V24.9341C23.399 26.4001 25.0147 28.2042 25.0147 30.3463Z" fill="#E2E2E2"/>
<path d="M37.4607 49.9338C37.5233 50.3459 37.5729 50.7242 37.6094 51.0685C37.6459 51.4129 37.6642 51.7311 37.6642 52.0233C37.6642 52.592 37.5885 53.1451 37.4372 53.6825C37.2859 54.2146 37.0042 54.7416 36.592 55.2633C36.2476 55.6703 35.8433 55.9755 35.379 56.179C34.9198 56.3825 34.4085 56.4842 33.845 56.4842C33.699 56.4842 33.5555 56.4816 33.4146 56.4764C33.2737 56.4659 33.1381 56.4477 33.0076 56.4216C33.0755 57.0164 33.1276 57.632 33.1642 58.2685C33.2007 58.9051 33.2268 59.5442 33.2424 60.1859C33.2633 60.8225 33.2737 61.4485 33.2737 62.0642C33.279 62.6798 33.2816 63.2564 33.2816 63.7938H30.6363C30.6363 62.8285 30.6259 61.8581 30.605 60.8825C30.5842 59.9068 30.5372 58.9625 30.4642 58.0494C30.3963 57.1364 30.292 56.2729 30.1511 55.459C30.0155 54.6451 29.8329 53.9172 29.6033 53.2755V53.2833L29.4155 52.8294L29.3607 52.6885H29.3685L29.3372 52.6103V52.6181C29.2798 52.4772 29.2094 52.3181 29.1259 52.1407C29.0476 51.9581 28.9198 51.7129 28.7424 51.4051L30.965 49.9964C31.085 50.1842 31.1868 50.3538 31.2703 50.5051C31.3537 50.6564 31.4268 50.7972 31.4894 50.9277C31.552 51.0581 31.6068 51.1807 31.6537 51.2955C31.7059 51.4051 31.7555 51.5146 31.8024 51.6242L32.0294 52.1877C32.1337 52.4277 32.2433 52.652 32.3581 52.8607C32.4729 53.0694 32.6007 53.2494 32.7416 53.4007C32.8824 53.5468 33.0416 53.6616 33.219 53.7451C33.4016 53.8285 33.6103 53.8677 33.845 53.8625C34.1476 53.852 34.3772 53.7816 34.5337 53.6511C34.6903 53.5207 34.805 53.3564 34.8781 53.1581C34.9511 52.9598 34.9903 52.7381 34.9955 52.4929C35.0059 52.2477 35.0111 52.0103 35.0111 51.7807C35.0111 51.5668 34.9981 51.3555 34.972 51.1468C34.9459 50.9329 34.9094 50.6825 34.8624 50.3955L37.4607 49.9338Z" fill="#303030"/>
<path d="M22.2327 58.8183C22.2327 58.3355 22.5958 57.7798 23.3218 57.151C24.0179 56.5485 24.7458 56.1218 25.5056 55.8711V57.4317C25.4345 57.4168 25.3596 57.4093 25.281 57.4093C24.9292 57.4093 24.5943 57.5141 24.2761 57.7236C23.958 57.9295 23.799 58.1578 23.799 58.4085C23.799 58.6817 23.9225 58.9194 24.1695 59.1215C24.4165 59.3198 24.7084 59.419 25.0452 59.419C25.5842 59.419 26.1025 59.2824 26.6002 59.0092V60.5249L24.9835 60.7663C24.9423 60.7738 24.5306 60.8561 23.7484 61.0133C23.1758 61.1293 22.723 61.1873 22.3899 61.1873H21.5254V59.5986H22.5527C22.3394 59.3479 22.2327 59.0878 22.2327 58.8183Z" fill="#E2E2E2"/>
<path d="M21.8401 61.1874H20.7454C20.4984 61.1874 20.3188 61.0751 20.2065 60.8506C20.0942 60.6223 20.0212 60.5081 19.9875 60.5081C19.9688 60.5081 19.864 60.568 19.6732 60.6878C19.4449 60.8263 19.1754 60.9348 18.8648 61.0134C18.4045 61.1294 17.8337 61.1874 17.1526 61.1874C16.681 61.1874 16.3554 61.1687 16.1758 61.1313V59.5987H18.8872C19.2203 59.5987 19.3869 59.5145 19.3869 59.3461C19.3869 59.3199 19.3831 59.2918 19.3756 59.2619C19.05 58.1466 18.5261 57.0182 17.8038 55.8768L19.0893 55.1582C19.7854 56.4494 20.3131 57.8341 20.6724 59.3124C20.7173 59.5033 20.8932 59.5987 21.2001 59.5987H21.8401V61.1874Z" fill="#E2E2E2"/>
<path d="M15.3282 58.7004C15.3282 60.3583 14.2242 61.1873 12.0161 61.1873H11V59.5986H12.5157C13.0621 59.5986 13.4364 59.578 13.6385 59.5369C14.0764 59.447 14.2953 59.2487 14.2953 58.9418C14.2953 58.5376 14.0333 58.0698 13.5094 57.5383C13.0079 57.0331 12.4427 56.6383 11.814 56.3538V54.7764C14.1568 55.8392 15.3282 57.1473 15.3282 58.7004Z" fill="#E2E2E2"/>
<defs>
<linearGradient id="paint0_linear_2611_59673" x1="163.5" y1="1" x2="150" y2="21" gradientUnits="userSpaceOnUse">
<stop stop-color="#4C8CED"/>
<stop offset="1" stop-color="#3BC083"/>
</linearGradient>
<linearGradient id="paint1_linear_2611_59673" x1="179.549" y1="23" x2="228.452" y2="7.8915" gradientUnits="userSpaceOnUse">
<stop stop-color="#38CD6A"/>
<stop offset="1" stop-color="#4C8CED"/>
</linearGradient>
<linearGradient id="paint2_linear_2611_59673" x1="215" y1="56.7915" x2="205.386" y2="70.3563" gradientUnits="userSpaceOnUse">
<stop stop-color="#4C8CED"/>
<stop offset="1" stop-color="#3BC083"/>
</linearGradient>
<linearGradient id="paint3_linear_2611_59673" x1="226" y1="72.1915" x2="260.679" y2="61.3075" gradientUnits="userSpaceOnUse">
<stop stop-color="#38CD6A"/>
<stop offset="1" stop-color="#4C8CED"/>
</linearGradient>
</defs>
</svg>
