<svg width="124" height="63" viewBox="0 0 124 63" fill="none" xmlns="http://www.w3.org/2000/svg">
<path d="M32.1326 54.8538L32.4092 59.4294C32.4322 59.8083 32.1614 60.1421 31.7846 60.1987C30.4352 60.4021 29.0541 60.5053 27.6807 60.5053C26.3088 60.5053 24.9282 60.4021 23.5773 60.1987C23.2005 60.1421 22.9293 59.8083 22.9522 59.4296L23.189 55.5008C20.3038 54.9246 17.604 53.8099 15.1462 52.1794L12.526 55.1243C12.2734 55.4076 11.8449 55.4535 11.5385 55.2281C9.32195 53.6019 7.36943 51.6567 5.73489 49.4468C5.50865 49.1414 5.55366 48.7147 5.83896 48.4629L8.79424 45.8534C7.15767 43.4056 6.03838 40.716 5.4598 37.8405L1.51698 38.0769C1.14112 38.1 0.802294 37.83 0.744723 37.4544C0.541043 36.1111 0.4375 34.7359 0.4375 33.3666C0.4375 31.9975 0.541043 30.6223 0.744723 29.2787C0.801762 28.9031 1.13633 28.6271 1.51698 28.6562L5.46076 28.8926C6.03934 26.0181 7.1582 23.3283 8.79477 20.8805L5.83896 18.2704C5.55419 18.0185 5.50865 17.5918 5.73446 17.2864C7.3672 15.0786 9.31961 13.1337 11.5381 11.5051C11.8449 11.2799 12.2734 11.3255 12.5256 11.609L15.1467 14.5541C17.6193 12.9179 20.424 11.7701 23.3299 11.2052L23.0126 7.31082C22.9814 6.92591 23.2547 6.58287 23.6382 6.52605C26.3044 6.13064 29.0569 6.13064 31.7231 6.52605C32.1067 6.58287 32.3798 6.92601 32.3488 7.31082L31.9767 11.8692C31.9442 12.2732 31.5846 12.5741 31.1834 12.5409C30.7779 12.5079 30.4758 12.1541 30.5089 11.7504L30.8244 7.88506C28.7411 7.63245 26.6203 7.63245 24.537 7.88506L24.852 11.7501C24.8832 12.1309 24.6152 12.4719 24.237 12.5335C21.0962 13.0444 18.0585 14.286 15.4522 16.1237C15.1454 16.3401 14.7245 16.2911 14.4762 16.0118L11.8762 13.09C10.1745 14.4083 8.6476 15.9292 7.32559 17.623L10.2583 20.2129C10.5392 20.4611 10.5877 20.8802 10.371 21.1856C8.53022 23.7764 7.32612 26.6704 6.79202 29.7872C6.72828 30.1561 6.39318 30.4185 6.02221 30.3958L2.10919 30.1613C1.97691 31.22 1.9103 32.2954 1.9103 33.3667C1.9103 34.4382 1.97691 35.5134 2.10919 36.572L6.02083 36.3375C6.3919 36.3127 6.72743 36.5775 6.79064 36.9461C7.32517 40.0639 8.52979 42.9581 10.3706 45.5485C10.5872 45.8539 10.5388 46.2729 10.2579 46.5212L7.32612 49.1103C8.64919 50.8058 10.1759 52.3265 11.8763 53.6432L14.4763 50.7214C14.7246 50.4416 15.1455 50.3929 15.4523 50.6092C18.0538 52.4431 20.9587 53.6427 24.0875 54.1748C24.4576 54.2379 24.7208 54.5683 24.6982 54.9417L24.4633 58.8395C26.5932 59.1038 28.7733 59.1038 30.8983 58.8395L30.6629 54.9419C30.6385 54.5375 30.9477 54.19 31.3537 54.1657C31.7577 54.144 32.1082 54.4496 32.1326 54.8538ZM47.9382 23.1133C49.1179 23.1133 50.0781 24.0696 50.0781 25.245C50.0781 26.4204 49.1179 27.3767 47.9382 27.3767C47.6671 27.3767 47.4098 27.3211 47.1709 27.2291L45.1688 29.2945C45.0298 29.4375 44.839 29.5185 44.6391 29.5185H34.4099C34.0034 29.5185 33.6736 29.1902 33.6736 28.785C33.6736 28.3799 34.0034 28.0516 34.4099 28.0516H44.3265L46.0662 26.2567C45.9007 25.9542 45.7981 25.6131 45.7981 25.2451C45.7984 24.0695 46.7584 23.1133 47.9382 23.1133ZM47.2709 25.245C47.2709 25.6115 47.5701 25.9097 47.9382 25.9097C48.3064 25.9097 48.6054 25.6115 48.6054 25.245C48.6054 24.8786 48.3063 24.5804 47.9382 24.5804C47.5701 24.5803 47.2709 24.8785 47.2709 25.245ZM39.942 21.1841L42.6712 17.2741C42.3956 16.9153 42.2251 16.4723 42.2251 15.9866C42.2251 14.8112 43.1853 13.8549 44.365 13.8549C45.5448 13.8549 46.505 14.8112 46.505 15.9866C46.505 17.162 45.5448 18.1183 44.365 18.1183C44.209 18.1183 44.0576 18.0994 43.911 18.0677L40.9313 22.3365C40.7937 22.5335 40.568 22.6512 40.3269 22.6512H32.228C31.8215 22.6512 31.4917 22.3229 31.4917 21.9178C31.4917 21.5126 31.8215 21.1843 32.228 21.1843H39.942V21.1841ZM43.6977 15.9866C43.6977 16.353 43.9968 16.6512 44.3649 16.6512C44.7331 16.6512 45.0322 16.353 45.0322 15.9866C45.0322 15.6201 44.733 15.3219 44.3649 15.3219C43.9968 15.3218 43.6977 15.62 43.6977 15.9866ZM46.3276 50.7471C46.3276 51.9225 45.3674 52.8788 44.1876 52.8788C43.0079 52.8788 42.0477 51.9225 42.0477 50.7471C42.0477 50.1724 42.2796 49.6522 42.6522 49.2683L39.9419 45.3853H32.228C31.8215 45.3853 31.4917 45.0569 31.4917 44.6518C31.4917 44.2466 31.8215 43.9183 32.228 43.9183H40.3269C40.568 43.9183 40.7938 44.036 40.9313 44.2331L44.0031 48.6342C44.065 48.6288 44.1244 48.6155 44.1876 48.6155C45.3674 48.6154 46.3276 49.5717 46.3276 50.7471ZM44.855 50.7471C44.855 50.3806 44.5558 50.0824 44.1878 50.0824C43.8196 50.0824 43.5205 50.3806 43.5205 50.7471C43.5205 51.1136 43.8197 51.4118 44.1878 51.4118C44.5558 51.4118 44.855 51.1136 44.855 50.7471ZM49.9007 41.6926C49.9007 42.868 48.9405 43.8243 47.7608 43.8243C46.581 43.8243 45.6209 42.868 45.6209 41.6926C45.6209 41.235 45.7694 40.8133 46.0167 40.4656L44.3265 38.7219H34.4099C34.0034 38.7219 33.6736 38.3937 33.6736 37.9885C33.6736 37.5833 34.0034 37.255 34.4099 37.255H44.6391C44.8389 37.255 45.0297 37.336 45.1688 37.479L47.2524 39.6284C47.4161 39.5883 47.5847 39.561 47.7607 39.561C48.9405 39.5609 49.9007 40.5171 49.9007 41.6926ZM48.4281 41.6926C48.4281 41.3261 48.129 41.0279 47.7609 41.0279C47.3928 41.0279 47.0937 41.3261 47.0937 41.6926C47.0937 42.0591 47.3928 42.3573 47.7609 42.3573C48.129 42.3573 48.4281 42.0591 48.4281 41.6926ZM50.5382 33.3865C50.5382 34.5619 49.578 35.5182 48.3983 35.5182C47.4782 35.5182 46.6986 34.9335 46.3969 34.1197H30.2568V47.0859C30.2568 49.7426 28.0872 51.9042 25.42 51.9042C23.4667 51.9042 21.7476 50.7639 20.9864 49.0159C20.9558 49.0166 20.9255 49.0169 20.8953 49.0169C18.2281 49.0169 16.0585 46.8554 16.0585 44.1986C16.0585 44.0714 16.0638 43.9441 16.0738 43.8173C14.9253 43.5883 13.8376 42.9996 12.9488 42.1138C11.8079 40.9775 11.18 39.4669 11.18 37.86C11.18 36.2531 11.8079 34.7425 12.9488 33.6065C13.0343 33.5212 13.1303 33.4465 13.2214 33.3668C13.1303 33.287 13.0343 33.2122 12.9488 33.1271C11.8079 31.9908 11.18 30.4802 11.18 28.8736C11.18 27.2667 11.8079 25.7561 12.9488 24.6198C13.8376 23.734 14.9253 23.1452 16.0738 22.9163C16.0637 22.7895 16.0585 22.6623 16.0585 22.535C16.0585 19.878 18.2281 17.7165 20.8953 17.7165C20.9255 17.7165 20.9558 17.7167 20.9864 17.7175C21.7476 15.9697 23.4667 14.8294 25.42 14.8294C28.0872 14.8294 30.2568 16.9909 30.2568 19.6476V32.6529H46.3972C46.699 31.8394 47.4785 31.255 48.3983 31.255C49.5781 31.2549 50.5382 32.2111 50.5382 33.3865ZM13.9901 32.0898C14.1944 32.2934 14.4265 32.472 14.6724 32.6332H28.7843V19.6474C28.7843 17.7994 27.2752 16.2962 25.4201 16.2962C24.1834 16.2962 23.0823 16.9528 22.4945 17.9866C23.0904 18.1944 23.6436 18.5181 24.122 18.945C24.1276 18.95 24.1295 18.9571 24.1349 18.9622C24.4093 18.8346 24.7119 18.758 25.0343 18.758C26.214 18.758 27.1742 19.7143 27.1742 20.8894C27.1742 22.0648 26.214 23.0211 25.0343 23.0211C23.8545 23.0211 22.8944 22.0648 22.8944 20.8894C22.8944 20.5716 22.9693 20.2727 23.0951 20.0015C22.4843 19.4744 21.706 19.1832 20.8953 19.1832C19.0402 19.1832 17.5312 20.6867 17.5312 22.5347C17.5312 22.6405 17.541 22.7457 17.5509 22.8507C18.4232 22.9405 19.2578 23.2148 20.0097 23.6637C20.3395 23.4566 20.7269 23.3319 21.1447 23.3319C22.3244 23.3319 23.2846 24.2882 23.2846 25.4636C23.2846 26.6388 22.3244 27.595 21.1447 27.595C19.9649 27.595 19.0047 26.6387 19.0047 25.4636C19.0047 25.248 19.0467 25.0438 19.1067 24.8475C18.4439 24.4838 17.7067 24.2851 16.9375 24.2827C15.8683 24.3411 14.8221 24.8278 13.9901 25.6568C13.1277 26.5161 12.6527 27.6583 12.6527 28.8733C12.6527 30.0883 13.1278 31.2305 13.9901 32.0898ZM20.4773 25.4637C20.4773 25.8302 20.7765 26.1282 21.1446 26.1282C21.5128 26.1282 21.8118 25.8302 21.8118 25.4637C21.8118 25.0973 21.5126 24.7991 21.1446 24.7991C20.7765 24.799 20.4773 25.0972 20.4773 25.4637ZM25.0342 21.5542C25.4024 21.5542 25.7014 21.256 25.7014 20.8895C25.7014 20.523 25.4023 20.2251 25.0342 20.2251C24.6661 20.2251 24.3669 20.523 24.3669 20.8895C24.3669 21.256 24.6661 21.5542 25.0342 21.5542ZM28.7843 47.0859V34.1001H14.6594C14.4173 34.2597 14.1924 34.442 13.9902 34.6435C13.1278 35.5026 12.6528 36.6448 12.6528 37.8599C12.6528 39.075 13.1278 40.2172 13.9902 41.0765C14.8222 41.9055 15.8684 42.3921 16.9376 42.4505C17.6944 42.4481 18.4215 42.2569 19.0765 41.904C19.0341 41.737 19.0048 41.5651 19.0048 41.3852C19.0048 40.2098 19.965 39.2535 21.1448 39.2535C22.3245 39.2535 23.2847 40.2098 23.2847 41.3852C23.2847 42.5606 22.3245 43.5169 21.1448 43.5169C20.6858 43.5169 20.2625 43.3691 19.9135 43.123C19.1865 43.5391 18.3866 43.7965 17.5511 43.8826C17.5412 43.9877 17.5314 44.0928 17.5314 44.1986C17.5314 46.0466 19.0405 47.5498 20.8955 47.5498C21.6894 47.5498 22.4507 47.2699 23.0555 46.7641C22.9531 46.5154 22.8946 46.2442 22.8946 45.9592C22.8946 44.7838 23.8548 43.8275 25.0345 43.8275C26.2142 43.8275 27.1744 44.7838 27.1744 45.9592C27.1744 47.1346 26.2142 48.0909 25.0345 48.0909C24.6795 48.0909 24.3496 47.9961 24.0545 47.843C23.5915 48.2415 23.0636 48.5484 22.4948 48.7465C23.0825 49.7806 24.1836 50.4372 25.4203 50.4372C27.2753 50.4372 28.7843 48.934 28.7843 47.0859ZM25.0342 46.6239C25.4024 46.6239 25.7014 46.3257 25.7014 45.9593C25.7014 45.5928 25.4023 45.2946 25.0342 45.2946C24.6661 45.2946 24.3669 45.5928 24.3669 45.9593C24.3669 46.3257 24.6661 46.6239 25.0342 46.6239ZM21.1447 42.0499C21.5129 42.0499 21.8119 41.7517 21.8119 41.3853C21.8119 41.0188 21.5128 40.7206 21.1447 40.7206C20.7765 40.7206 20.4774 41.0188 20.4774 41.3853C20.4774 41.5082 20.5134 41.622 20.572 41.7209C20.5842 41.7352 20.5981 41.7473 20.6093 41.7628C20.6212 41.7792 20.6289 41.7972 20.6393 41.8143C20.7617 41.9572 20.9415 42.0499 21.1447 42.0499ZM49.0657 33.3865C49.0657 33.02 48.7665 32.7218 48.3984 32.7218C48.0303 32.7218 47.7312 33.02 47.7312 33.3865C47.7312 33.753 48.0303 34.0512 48.3984 34.0512C48.7665 34.0512 49.0657 33.753 49.0657 33.3865Z" fill="#636363"/>
<rect width="16.7002" height="50.1007" transform="translate(2.22656 60.5052) rotate(-90)" fill="white"/>
<path d="M48.2773 52.8329C48.2773 52.7807 48.2876 52.7316 48.3082 52.6857C48.3272 52.6398 48.3533 52.6003 48.3866 52.567C48.4198 52.5322 48.4594 52.5053 48.5053 52.4863C48.5512 52.4673 48.6003 52.4578 48.6525 52.4578H48.897H49.0039C49.0625 52.4578 49.1234 52.4554 49.1867 52.4507C49.2516 52.4459 49.3118 52.4364 49.3672 52.4222C49.4241 52.4079 49.474 52.3881 49.5167 52.3628C49.5611 52.3375 49.5927 52.3035 49.6117 52.2607C49.6244 52.2322 49.6307 52.1895 49.6307 52.1325C49.6307 52.0945 49.6196 52.0375 49.5975 51.9616C49.5753 51.8856 49.546 51.8017 49.5096 51.7099C49.4732 51.6165 49.4321 51.5191 49.3862 51.4178C49.3402 51.3165 49.2936 51.2208 49.2461 51.1305L49.9251 50.7934C49.9694 50.8931 50.013 50.9992 50.0557 51.1116C50.1 51.2239 50.1396 51.3379 50.1744 51.4535C50.2092 51.569 50.2369 51.6846 50.2575 51.8001C50.2797 51.9141 50.2908 52.0233 50.2908 52.1278C50.2908 52.2876 50.2623 52.4341 50.2053 52.567C50.1388 52.7158 50.0478 52.8393 49.9322 52.9374C49.8167 53.034 49.6782 53.1052 49.5167 53.1511C49.4218 53.178 49.3308 53.1938 49.2437 53.1986C49.1566 53.2049 49.0751 53.2081 48.9991 53.2081H48.6739H48.6525C48.6003 53.2081 48.5512 53.1986 48.5053 53.1796C48.4594 53.1606 48.4198 53.1337 48.3866 53.0989C48.3533 53.0656 48.3272 53.026 48.3082 52.9801C48.2876 52.9342 48.2773 52.8852 48.2773 52.8329ZM49.3553 53.4241L49.8824 53.9512L49.3553 54.4783L48.8282 53.9512L49.3553 53.4241Z" fill="#303030"/>
<path d="M48.6906 53.208C48.6558 53.208 48.6067 53.2057 48.5434 53.2009C48.4801 53.1962 48.412 53.1788 48.3392 53.1487C48.3044 53.345 48.2387 53.5309 48.1421 53.7066C48.0472 53.8839 47.9292 54.0493 47.7884 54.2029C47.6475 54.358 47.4868 54.5005 47.3064 54.6303C47.1259 54.7601 46.9336 54.8764 46.7294 54.9793L46.2949 54.3786C46.4073 54.3216 46.5205 54.2591 46.6344 54.191C46.7484 54.1245 46.8568 54.0533 46.9597 53.9773C47.0642 53.9029 47.1608 53.8246 47.2494 53.7423C47.3396 53.6615 47.418 53.5776 47.4845 53.4906C47.5509 53.4035 47.6032 53.3141 47.6412 53.2223C47.6792 53.1321 47.6981 53.0403 47.6981 52.9469C47.6981 52.9421 47.6974 52.935 47.6958 52.9255C47.6958 52.916 47.6958 52.9065 47.6958 52.897C47.6958 52.8875 47.695 52.8804 47.6934 52.8756C47.6934 52.8709 47.6934 52.8717 47.6934 52.878V52.8804C47.6823 52.7886 47.6665 52.7007 47.6459 52.6168C47.6253 52.5329 47.5992 52.4475 47.5676 52.3604C47.5375 52.2733 47.5019 52.1823 47.4607 52.0874C47.4196 51.9908 47.3737 51.8855 47.323 51.7716L48.0092 51.4724C48.0725 51.6624 48.1319 51.8206 48.1873 51.9473C48.2427 52.0739 48.2965 52.1752 48.3487 52.2512C48.4025 52.3272 48.4563 52.381 48.5102 52.4126C48.564 52.4427 48.621 52.4578 48.6811 52.4578H48.693C48.7452 52.4578 48.7943 52.468 48.8402 52.4886C48.8861 52.5092 48.9257 52.5369 48.9589 52.5717C48.9937 52.605 49.0206 52.6445 49.0396 52.6904C49.0602 52.7363 49.0705 52.7846 49.0705 52.8353C49.0705 52.8875 49.0602 52.9366 49.0396 52.9825C49.0206 53.0284 48.9937 53.068 48.9589 53.1012C48.9257 53.1344 48.8861 53.1606 48.8402 53.1795C48.7943 53.1985 48.7444 53.208 48.6906 53.208Z" fill="#303030"/>
<path d="M43.0146 52.8329C43.0146 52.7807 43.0249 52.7316 43.0455 52.6857C43.0645 52.6398 43.0906 52.6002 43.1239 52.567C43.1571 52.5321 43.1967 52.5052 43.2426 52.4862C43.2885 52.4672 43.3376 52.4577 43.3898 52.4577H43.6533H43.7673C43.8385 52.4577 43.9169 52.4546 44.0024 52.4482C44.0878 52.4419 44.1702 52.4316 44.2493 52.4174C44.3284 52.4031 44.3997 52.3841 44.463 52.3604C44.5279 52.3351 44.5754 52.3034 44.6054 52.2654C44.6229 52.2385 44.6316 52.2021 44.6316 52.1562C44.6316 52.0881 44.6149 52.0074 44.5817 51.914C44.55 51.8206 44.5121 51.7257 44.4677 51.6291C44.4234 51.5326 44.3775 51.44 44.33 51.3513C44.2841 51.2627 44.2469 51.1891 44.2184 51.1305L44.8951 50.7981C44.9442 50.8836 44.9917 50.9849 45.0376 51.102C45.0835 51.2176 45.1246 51.3371 45.161 51.4605C45.1974 51.5824 45.2267 51.7027 45.2489 51.8214C45.271 51.9386 45.2821 52.0407 45.2821 52.1277C45.2821 52.2876 45.2536 52.434 45.1966 52.567C45.1302 52.7158 45.0392 52.8392 44.9236 52.9374C44.8081 53.0339 44.6695 53.1051 44.5081 53.151C44.4606 53.1637 44.4013 53.174 44.33 53.1819C44.2588 53.1898 44.1868 53.1954 44.114 53.1985C44.0411 53.2033 43.9723 53.2057 43.9074 53.2057C43.8425 53.2072 43.7918 53.208 43.7554 53.208H43.4112H43.3898C43.3376 53.208 43.2885 53.1985 43.2426 53.1795C43.1967 53.1605 43.1571 53.1336 43.1239 53.0988C43.0906 53.0656 43.0645 53.026 43.0455 52.9801C43.0249 52.9342 43.0146 52.8851 43.0146 52.8329ZM44.8025 54.4189L44.3561 53.9726L43.905 54.4237L43.4491 53.9654L43.9098 53.5072L44.3561 53.9536L44.8073 53.5024L45.2631 53.9607L44.8025 54.4189ZM44.3585 54.2242L44.7811 54.6469L44.3561 55.0719L43.9335 54.6492L44.3585 54.2242Z" fill="#303030"/>
<path d="M43.3942 53.2081C43.1995 53.2081 43.0325 53.1835 42.8932 53.1345C42.7539 53.087 42.6336 53.0134 42.5323 52.9136C42.469 52.8503 42.4199 52.7838 42.3851 52.7142C42.3519 52.6446 42.3273 52.5765 42.3115 52.51C42.2973 52.4419 42.2886 52.3778 42.2854 52.3177C42.2838 52.2575 42.283 52.2061 42.283 52.1634V52.1277C42.2846 52.0692 42.2862 51.9853 42.2878 51.8761C42.2909 51.7653 42.2925 51.6355 42.2925 51.4867C42.2925 51.3379 42.2917 51.1741 42.2901 50.9952C42.2886 50.8163 42.2838 50.6383 42.2759 50.461C42.2696 50.2821 42.2593 50.1104 42.245 49.9457C42.2324 49.7811 42.2142 49.6379 42.1904 49.516L42.9004 49.2999C42.9209 49.4044 42.9375 49.5279 42.9502 49.6703C42.9629 49.8112 42.9732 49.9592 42.9811 50.1143C42.9906 50.2694 42.9969 50.4254 43.0001 50.5821C43.0048 50.7388 43.008 50.8844 43.0096 51.0189C43.0112 51.1377 43.0064 51.254 42.9953 51.368C42.9858 51.4803 42.9779 51.5911 42.9716 51.7004C42.9652 51.808 42.9652 51.9133 42.9716 52.0161C42.9795 52.1175 43.0017 52.2164 43.0381 52.3129C43.0523 52.3493 43.0697 52.377 43.0903 52.396C43.1125 52.415 43.1378 52.4293 43.1663 52.4388C43.1948 52.4467 43.2256 52.4514 43.2589 52.453C43.2937 52.4546 43.3317 52.4554 43.3728 52.4554H43.3942C43.4449 52.4554 43.4931 52.4657 43.539 52.4863C43.5849 52.5068 43.6245 52.5345 43.6578 52.5694C43.6926 52.6026 43.7203 52.6422 43.7409 52.6881C43.7614 52.734 43.7717 52.7823 43.7717 52.8329C43.7717 52.8852 43.7614 52.9342 43.7409 52.9801C43.7203 53.026 43.6926 53.0656 43.6578 53.0988C43.6245 53.1337 43.5849 53.1606 43.539 53.1796C43.4931 53.1986 43.4449 53.2081 43.3942 53.2081Z" fill="#303030"/>
<path d="M41.8106 53.9892L41.3547 54.4474L40.9036 53.9963L40.4573 54.4427L39.9966 53.9844L40.4525 53.5262L40.9036 53.9773L41.35 53.5309L41.8106 53.9892ZM39.5146 52.8329C39.5146 52.7807 39.5249 52.7316 39.5455 52.6857C39.5645 52.6398 39.5906 52.6002 39.6239 52.567C39.6571 52.5321 39.6967 52.5052 39.7426 52.4862C39.7885 52.4672 39.8376 52.4577 39.8898 52.4577H40.1533H40.2673C40.3385 52.4577 40.4169 52.4546 40.5024 52.4482C40.5878 52.4419 40.6702 52.4316 40.7493 52.4174C40.8284 52.4031 40.8997 52.3841 40.963 52.3604C41.0279 52.3351 41.0754 52.3034 41.1054 52.2654C41.1229 52.2385 41.1316 52.2021 41.1316 52.1562C41.1316 52.0881 41.1149 52.0074 41.0817 51.914C41.05 51.8206 41.0121 51.7257 40.9677 51.6291C40.9234 51.5326 40.8775 51.44 40.83 51.3513C40.7841 51.2627 40.7469 51.1891 40.7184 51.1305L41.3951 50.7981C41.4442 50.8836 41.4917 50.9849 41.5376 51.102C41.5835 51.2176 41.6246 51.3371 41.661 51.4605C41.6974 51.5824 41.7267 51.7027 41.7489 51.8214C41.771 51.9386 41.7821 52.0407 41.7821 52.1277C41.7821 52.2876 41.7536 52.434 41.6966 52.567C41.6302 52.7158 41.5392 52.8392 41.4236 52.9374C41.3081 53.0339 41.1695 53.1051 41.0081 53.151C40.9606 53.1637 40.9013 53.174 40.83 53.1819C40.7588 53.1898 40.6868 53.1954 40.614 53.1985C40.5411 53.2033 40.4723 53.2057 40.4074 53.2057C40.3425 53.2072 40.2918 53.208 40.2554 53.208H39.9112H39.8898C39.8376 53.208 39.7885 53.1985 39.7426 53.1795C39.6967 53.1605 39.6571 53.1336 39.6239 53.0988C39.5906 53.0656 39.5645 53.026 39.5455 52.9801C39.5249 52.9342 39.5146 52.8851 39.5146 52.8329Z" fill="#303030"/>
<path d="M38.7144 52.8756C38.4897 52.8756 38.2965 52.8456 38.1351 52.7854C37.9736 52.7237 37.8454 52.6374 37.7505 52.5266C37.6951 52.4554 37.6547 52.3786 37.6294 52.2963C37.6056 52.2124 37.5938 52.1325 37.5938 52.0565C37.5938 51.99 37.5993 51.9299 37.6104 51.876C37.6215 51.8222 37.6349 51.7763 37.6507 51.7383C37.7141 51.6054 37.7916 51.489 37.8834 51.3893C37.9768 51.2896 38.0734 51.2033 38.1731 51.1305C38.2744 51.0561 38.3741 50.9944 38.4722 50.9453C38.572 50.8962 38.6606 50.8559 38.7382 50.8242C38.735 50.7878 38.7318 50.7506 38.7287 50.7126C38.7271 50.6746 38.7247 50.6382 38.7216 50.6034L38.7097 50.4538L39.4505 50.2947C39.4521 50.309 39.4552 50.3422 39.46 50.3945C39.4663 50.4467 39.4726 50.5092 39.479 50.582C39.4869 50.6533 39.4948 50.73 39.5027 50.8123C39.5122 50.8931 39.5201 50.969 39.5264 51.0403C39.5344 51.1115 39.5407 51.1732 39.5454 51.2255C39.5518 51.2777 39.5557 51.3094 39.5573 51.3204C39.5811 51.5151 39.6008 51.675 39.6167 51.8001C39.6341 51.9251 39.6483 52.0248 39.6594 52.0992C39.6721 52.172 39.6824 52.2251 39.6903 52.2583C39.6982 52.29 39.7045 52.3113 39.7093 52.3224C39.733 52.3731 39.7686 52.4087 39.8161 52.4293C39.8652 52.4482 39.9301 52.4577 40.0108 52.4577C40.0615 52.4577 40.1097 52.4672 40.1556 52.4862C40.2015 52.5052 40.2411 52.5321 40.2744 52.567C40.3092 52.6002 40.3369 52.6398 40.3575 52.6857C40.378 52.7316 40.3883 52.7807 40.3883 52.8329C40.3883 52.8851 40.378 52.9342 40.3575 52.9801C40.3369 53.026 40.3092 53.0656 40.2744 53.0988C40.2411 53.1321 40.2015 53.1582 40.1556 53.1772C40.1097 53.1977 40.0615 53.208 40.0108 53.208C39.9776 53.208 39.9404 53.2064 39.8992 53.2033C39.8581 53.2017 39.8145 53.1969 39.7686 53.189C39.7243 53.1827 39.6776 53.1724 39.6285 53.1582C39.5811 53.1455 39.5336 53.1281 39.4861 53.1059C39.4196 53.0743 39.361 53.0387 39.3104 52.9991C39.2613 52.9579 39.2138 52.9065 39.1679 52.8448C39.0872 52.8558 39.0088 52.8638 38.9329 52.8685C38.8585 52.8733 38.7857 52.8756 38.7144 52.8756ZM38.7002 52.1301C38.7334 52.1301 38.7675 52.1293 38.8023 52.1277C38.8387 52.1245 38.8735 52.1214 38.9068 52.1182C38.8988 52.0644 38.8901 52.0042 38.8806 51.9378C38.8727 51.8713 38.8648 51.8001 38.8569 51.7241L38.8331 51.5056C38.773 51.5357 38.7057 51.5721 38.6313 51.6149C38.5569 51.656 38.4865 51.7003 38.42 51.7478C38.3551 51.7937 38.3005 51.8412 38.2562 51.8903C38.2119 51.9378 38.1897 51.9821 38.1897 52.0232C38.1897 52.0438 38.2071 52.0612 38.2419 52.0755C38.2783 52.0881 38.3227 52.0992 38.3749 52.1087C38.4271 52.1166 38.4825 52.1222 38.5411 52.1253C38.5997 52.1285 38.6527 52.1301 38.7002 52.1301Z" fill="#303030"/>
<path d="M32.1064 52.8306C32.1064 52.7783 32.1167 52.73 32.1373 52.6857C32.1563 52.6398 32.1824 52.6002 32.2157 52.567C32.2489 52.5322 32.2885 52.5053 32.3344 52.4863C32.3803 52.4673 32.4294 52.4578 32.4816 52.4578H32.503C32.5267 52.4578 32.5489 52.4578 32.5694 52.4578C32.5916 52.4578 32.6161 52.457 32.643 52.4554C32.6715 52.4538 32.7048 52.4522 32.7428 52.4507C32.7823 52.4491 32.8314 52.4467 32.89 52.4435C32.8346 52.3486 32.7926 52.2481 32.7641 52.142C32.7356 52.0344 32.7214 51.9259 32.7214 51.8167C32.7214 51.7344 32.7293 51.6521 32.7451 51.5698C32.761 51.4875 32.7847 51.4091 32.8164 51.3347C32.848 51.2588 32.8876 51.1875 32.9351 51.121C32.9826 51.053 33.0388 50.9913 33.1037 50.9359L32.9802 50.867L33.4384 50.1927C33.5065 50.2402 33.588 50.2885 33.683 50.3375C33.778 50.3866 33.8777 50.4357 33.9822 50.4847C34.0866 50.5322 34.1911 50.5789 34.2956 50.6248C34.4016 50.6691 34.499 50.7111 34.5876 50.7507C34.738 50.8203 34.8709 50.882 34.9865 50.9359C35.1036 50.9881 35.2089 51.0403 35.3023 51.0926C35.3957 51.1432 35.4796 51.197 35.554 51.254C35.6284 51.311 35.698 51.3775 35.7629 51.4535C35.8452 51.5579 35.9046 51.6719 35.941 51.7954C35.9774 51.9188 35.9956 52.0383 35.9956 52.1539C35.9956 52.3312 35.9497 52.4989 35.8579 52.6572C35.7676 52.8139 35.6339 52.9453 35.4566 53.0514C35.4075 53.0799 35.3466 53.1044 35.2738 53.125C35.2026 53.1456 35.1274 53.1622 35.0482 53.1748C34.9707 53.1891 34.8939 53.1994 34.8179 53.2057C34.7419 53.212 34.6755 53.2152 34.6185 53.2152C34.552 53.2152 34.48 53.212 34.4024 53.2057C34.3249 53.201 34.2465 53.1922 34.1674 53.1796C34.0898 53.1685 34.0138 53.1535 33.9394 53.1345C33.865 53.1155 33.797 53.0933 33.7352 53.068C33.6592 53.0902 33.5714 53.1099 33.4717 53.1273C33.3735 53.1448 33.2699 53.159 33.1606 53.1701C33.0514 53.1827 32.9406 53.1922 32.8282 53.1986C32.7159 53.2049 32.6074 53.2081 32.503 53.2081H32.4816C32.4294 53.2081 32.3803 53.1978 32.3344 53.1772C32.2885 53.1582 32.2489 53.1313 32.2157 53.0965C32.1824 53.0632 32.1563 53.0237 32.1373 52.9778C32.1167 52.9319 32.1064 52.8828 32.1064 52.8306ZM33.8326 51.2944C33.7819 51.2865 33.7273 51.3015 33.6687 51.3395C33.6118 51.3775 33.5595 51.4265 33.512 51.4867C33.4646 51.5468 33.4266 51.6133 33.3981 51.6861C33.3696 51.7574 33.3585 51.8238 33.3648 51.8856V51.8832C33.3696 51.9244 33.3854 51.9671 33.4123 52.0114C33.4392 52.0542 33.4709 52.0961 33.5073 52.1373C33.5453 52.1768 33.5856 52.2124 33.6284 52.2441C33.6711 52.2742 33.7107 52.2963 33.7471 52.3106C33.8073 52.3043 33.8658 52.29 33.9228 52.2678C33.9814 52.2457 34.0336 52.2124 34.0795 52.1681C34.1254 52.1238 34.1626 52.0668 34.1911 51.9972C34.2196 51.9275 34.2338 51.842 34.2338 51.7407C34.2338 51.6885 34.2188 51.6371 34.1887 51.5864C34.1602 51.5358 34.1254 51.4899 34.0843 51.4487C34.0431 51.406 33.9988 51.3711 33.9513 51.3442C33.9054 51.3157 33.8658 51.2991 33.8326 51.2944ZM34.8583 51.6885C34.8583 51.755 34.8504 51.8246 34.8345 51.8975C34.8187 51.9703 34.7973 52.0423 34.7704 52.1135C34.7435 52.1847 34.7127 52.2544 34.6778 52.3225C34.6446 52.3889 34.609 52.4507 34.571 52.5077H34.5924C34.7079 52.5077 34.814 52.5037 34.9105 52.4958C35.0087 52.4863 35.0933 52.4689 35.1646 52.4435C35.2358 52.4166 35.292 52.3802 35.3331 52.3343C35.3759 52.2868 35.4012 52.2243 35.4091 52.1468C35.4123 52.1088 35.3965 52.0676 35.3616 52.0233C35.3268 51.9774 35.2817 51.9323 35.2263 51.888C35.1725 51.842 35.1123 51.7977 35.0459 51.755C34.9794 51.7123 34.9168 51.6743 34.8583 51.641V51.6885Z" fill="#303030"/>
<path d="M30.0977 54.1507C30.3208 54.1064 30.5227 54.0502 30.7031 53.9821C30.8851 53.9156 31.0442 53.8404 31.1803 53.7565C31.3181 53.6742 31.4312 53.5864 31.5199 53.493C31.6085 53.3996 31.6718 53.3046 31.7098 53.2081C31.6418 53.2081 31.5729 53.2065 31.5033 53.2033C31.4336 53.2017 31.3742 53.1994 31.3252 53.1962C31.1416 53.1804 30.9738 53.1392 30.8218 53.0727C30.6699 53.0078 30.5488 52.9192 30.4586 52.8068C30.3921 52.7213 30.3446 52.6287 30.3161 52.529C30.2892 52.4293 30.2757 52.324 30.2757 52.2132C30.2757 52.1278 30.2836 52.0423 30.2995 51.9568C30.3153 51.8698 30.3375 51.7859 30.366 51.7051C30.3944 51.6228 30.4277 51.5453 30.4657 51.4724C30.5052 51.3996 30.5472 51.3332 30.5915 51.273C30.6865 51.1543 30.7902 51.0649 30.9026 51.0047C31.0165 50.943 31.136 50.9121 31.2611 50.9121C31.5286 50.9121 31.77 51.0292 31.9852 51.2635C32.0517 51.3379 32.1119 51.4202 32.1657 51.5104C32.2195 51.6007 32.267 51.6972 32.3081 51.8001C32.3493 51.9014 32.3825 52.0075 32.4079 52.1183C32.4348 52.2291 32.453 52.3422 32.4625 52.4578H32.5076C32.5598 52.4578 32.6089 52.4673 32.6548 52.4863C32.7007 52.5053 32.7403 52.5322 32.7735 52.567C32.8083 52.6003 32.836 52.6398 32.8566 52.6857C32.8772 52.7316 32.8875 52.7815 32.8875 52.8353C32.8875 52.886 32.8772 52.9342 32.8566 52.9801C32.836 53.0245 32.8083 53.0632 32.7735 53.0965C32.7403 53.1313 32.7007 53.1582 32.6548 53.1772C32.6089 53.1978 32.5598 53.2081 32.5076 53.2081H32.4031C32.3414 53.4408 32.2425 53.6513 32.1063 53.8396C31.9718 54.028 31.8103 54.1926 31.622 54.3335C31.4352 54.4744 31.2262 54.5907 30.9951 54.6825C30.7656 54.7743 30.525 54.84 30.2734 54.8796L30.0977 54.1507ZM31.2611 51.6648C31.2263 51.6648 31.1875 51.6806 31.1447 51.7123C31.1036 51.7423 31.0648 51.7811 31.0284 51.8286C30.992 51.8761 30.9611 51.9291 30.9358 51.9877C30.912 52.0462 30.9002 52.1032 30.9002 52.1586C30.9002 52.2124 30.9152 52.2568 30.9453 52.2916C30.9754 52.3264 31.0134 52.3549 31.0593 52.3771C31.1067 52.3976 31.1582 52.4135 31.2136 52.4246C31.269 52.434 31.3228 52.4412 31.375 52.4459C31.4035 52.4491 31.4344 52.4515 31.4676 52.453C31.5025 52.453 31.5381 52.453 31.5745 52.453C31.6109 52.453 31.6465 52.4538 31.6813 52.4554C31.7177 52.4554 31.751 52.4562 31.781 52.4578C31.77 52.3802 31.7526 52.3074 31.7288 52.2394C31.7051 52.1713 31.6782 52.108 31.6481 52.0494C31.6196 51.9908 31.5879 51.9386 31.5531 51.8927C31.5199 51.8452 31.4874 51.8041 31.4558 51.7692C31.4447 51.7582 31.4304 51.7463 31.413 51.7336C31.3972 51.721 31.3806 51.7099 31.3632 51.7004C31.3458 51.6893 31.3276 51.6806 31.3086 51.6743C31.2911 51.6679 31.2753 51.6648 31.2611 51.6648Z" fill="#303030"/>
<path d="M29.5113 50.7031C29.5208 50.7221 29.5374 50.7569 29.5612 50.8076C29.5865 50.8567 29.615 50.9168 29.6467 50.988C29.6783 51.0577 29.7116 51.136 29.7464 51.2231C29.7812 51.3101 29.8129 51.402 29.8414 51.4985C29.8698 51.5935 29.8928 51.6908 29.9102 51.7906C29.9292 51.8887 29.9387 51.9852 29.9387 52.0802C29.9371 52.2369 29.9134 52.3833 29.8675 52.5195C29.8232 52.6556 29.7575 52.7743 29.6704 52.8756C29.5833 52.9753 29.4757 53.0545 29.3475 53.1131C29.2193 53.1716 29.0713 53.2009 28.9035 53.2009C28.7579 53.2009 28.6384 53.1764 28.545 53.1273C28.4532 53.0782 28.3772 53.011 28.317 52.9255C28.2838 52.9682 28.2482 53.007 28.2102 53.0418C28.1722 53.0751 28.1271 53.1036 28.0749 53.1273C28.0242 53.1526 27.9641 53.1716 27.8944 53.1843C27.8263 53.1969 27.7448 53.2033 27.6499 53.2033C27.5834 53.2033 27.5224 53.1985 27.467 53.189C27.4116 53.1795 27.361 53.1677 27.3151 53.1534C27.3135 53.3386 27.285 53.5072 27.2296 53.6591C27.1758 53.8111 27.1014 53.9472 27.0064 54.0675C26.913 54.1878 26.803 54.2923 26.6764 54.3809C26.5498 54.4696 26.4136 54.5424 26.268 54.5994C26.1224 54.6579 25.9696 54.7015 25.8098 54.73C25.6515 54.7585 25.494 54.7727 25.3373 54.7727C25.0951 54.7727 24.8711 54.7323 24.6653 54.6516C24.4596 54.5725 24.2815 54.4601 24.1311 54.3145C23.9823 54.1704 23.866 53.9963 23.7821 53.7921C23.6982 53.5895 23.6562 53.3655 23.6562 53.1202C23.661 52.9777 23.68 52.8321 23.7132 52.6833C23.7481 52.5345 23.7916 52.3889 23.8438 52.2464C23.8976 52.104 23.957 51.9686 24.0219 51.8404C24.0884 51.7106 24.1557 51.5943 24.2237 51.4914L24.7413 51.8903C24.6843 51.9837 24.6289 52.0826 24.5751 52.1871C24.5213 52.29 24.4738 52.396 24.4327 52.5052C24.3915 52.6129 24.3583 52.7205 24.3329 52.8281C24.3076 52.9358 24.2949 53.0394 24.2949 53.1392C24.2902 53.2595 24.3139 53.3726 24.3662 53.4787C24.42 53.5847 24.4936 53.6773 24.587 53.7565C24.682 53.8372 24.7928 53.9005 24.9194 53.9464C25.0476 53.9923 25.1837 54.0153 25.3278 54.0153C25.4908 54.0153 25.6412 54.0003 25.7789 53.9702C25.9182 53.9401 26.0409 53.8982 26.1469 53.8443C26.2545 53.7921 26.3448 53.728 26.4176 53.652C26.4904 53.5776 26.5426 53.4953 26.5743 53.4051L26.5719 53.4075C26.6115 53.2777 26.6313 53.1439 26.6313 53.0062C26.6313 52.9002 26.6162 52.7925 26.5862 52.6833C26.5561 52.5741 26.5173 52.4641 26.4698 52.3533C26.4223 52.2409 26.3693 52.1285 26.3107 52.0161C26.2538 51.9021 26.1976 51.7882 26.1422 51.6742L26.7927 51.3086C26.8339 51.402 26.875 51.4961 26.9162 51.5911C26.9573 51.6861 26.9985 51.7771 27.0397 51.8642C27.0824 51.9496 27.1259 52.0296 27.1702 52.104C27.2146 52.1784 27.2605 52.2425 27.308 52.2963C27.3554 52.3485 27.4045 52.3881 27.4552 52.415C27.5074 52.4419 27.5628 52.4514 27.6214 52.4435C27.6878 52.434 27.7417 52.411 27.7828 52.3746C27.824 52.3366 27.8548 52.29 27.8754 52.2346C27.8976 52.1792 27.911 52.1174 27.9158 52.0494C27.9221 51.9797 27.9237 51.9093 27.9205 51.838C27.9174 51.7668 27.9118 51.6964 27.9039 51.6267C27.8976 51.5571 27.892 51.493 27.8873 51.4344L28.5426 51.3466C28.5537 51.3956 28.5632 51.455 28.5711 51.5246C28.579 51.5927 28.5877 51.6647 28.5972 51.7407C28.6083 51.8167 28.6217 51.8934 28.6376 51.971C28.6534 52.0486 28.6748 52.1206 28.7017 52.1871C28.7286 52.2535 28.7618 52.3113 28.8014 52.3604C28.841 52.4095 28.8908 52.4443 28.951 52.4649C29.0001 52.4649 29.046 52.4562 29.0887 52.4387C29.1314 52.4197 29.1686 52.3928 29.2003 52.358C29.2319 52.3232 29.2565 52.2805 29.2739 52.2298C29.2929 52.1776 29.3024 52.1174 29.3024 52.0494C29.3024 51.9924 29.2913 51.9267 29.2691 51.8523C29.2486 51.7763 29.2201 51.6948 29.1837 51.6077C29.1473 51.5207 29.1045 51.4297 29.0555 51.3347C29.008 51.2381 28.9573 51.1408 28.9035 51.0426L29.5113 50.7031ZM28.9985 50.3493L28.5426 50.8076L28.0915 50.3565L27.6451 50.8028L27.1845 50.3446L27.6404 49.8863L28.0915 50.3375L28.5379 49.8911L28.9985 50.3493ZM27.6689 49.6608L28.0915 49.2382L28.5165 49.6632L28.0939 50.0858L27.6689 49.6608Z" fill="#303030"/>
<path d="M19.1953 52.8329C19.1953 52.7807 19.2048 52.7324 19.2238 52.6881C19.2428 52.6437 19.2689 52.605 19.3022 52.5717C19.3354 52.5385 19.375 52.5124 19.4209 52.4934C19.4652 52.4728 19.5135 52.4609 19.5657 52.4577C19.6718 52.4577 19.7636 52.4372 19.8411 52.396C19.9203 52.3549 19.9899 52.301 20.0501 52.2346C20.1102 52.1681 20.164 52.0937 20.2115 52.0114C20.259 51.9291 20.3041 51.8468 20.3469 51.7644V51.7668C20.388 51.6813 20.4315 51.5967 20.4774 51.5128C20.5249 51.4289 20.5764 51.3513 20.6318 51.2801C20.7173 51.1804 20.813 51.1036 20.9191 51.0498C21.0251 50.9944 21.1383 50.9667 21.2586 50.9667C21.4011 50.9667 21.5301 50.996 21.6456 51.0545C21.7627 51.1131 21.8688 51.197 21.9638 51.3062C22.035 51.3917 22.0928 51.4898 22.1371 51.6006C22.1814 51.7098 22.2107 51.8262 22.2249 51.9496V51.9449C22.2344 52.0066 22.2392 52.0771 22.2392 52.1562C22.2392 52.2417 22.2313 52.3256 22.2154 52.4079C22.2012 52.4886 22.1806 52.5654 22.1537 52.6382C22.1015 52.7712 22.0263 52.8828 21.9282 52.973C21.8316 53.0616 21.7263 53.1226 21.6124 53.1558C21.5744 53.1669 21.5364 53.174 21.4984 53.1772C21.462 53.1819 21.4232 53.1843 21.3821 53.1843C21.3108 53.1843 21.2349 53.1756 21.1541 53.1582C21.075 53.1408 20.9966 53.117 20.9191 53.0869C20.8874 53.0727 20.8518 53.0561 20.8122 53.0371C20.7727 53.0165 20.7307 52.9943 20.6864 52.9706C20.6436 52.9469 20.6009 52.9223 20.5582 52.897C20.5154 52.8717 20.4759 52.8471 20.4395 52.8234C20.3761 52.882 20.3128 52.935 20.2495 52.9825C20.1862 53.03 20.1197 53.0703 20.0501 53.1036C19.9804 53.1368 19.906 53.1621 19.8269 53.1795C19.7477 53.1985 19.6615 53.208 19.5681 53.208C19.5158 53.208 19.4676 53.1977 19.4232 53.1772C19.3773 53.1582 19.3378 53.1321 19.3045 53.0988C19.2697 53.0656 19.2428 53.026 19.2238 52.9801C19.2048 52.9342 19.1953 52.8851 19.1953 52.8329ZM20.8787 52.2084C20.9278 52.2401 20.9855 52.271 21.052 52.301C21.1201 52.3311 21.1874 52.358 21.2538 52.3818C21.3203 52.4055 21.3813 52.4253 21.4367 52.4411C21.4937 52.4554 21.5364 52.4625 21.5649 52.4625C21.5712 52.4625 21.5775 52.4625 21.5839 52.4625C21.5918 52.4609 21.5997 52.4593 21.6076 52.4577C21.6266 52.453 21.6448 52.4293 21.6622 52.3865C21.6812 52.3422 21.6883 52.282 21.6836 52.2061C21.6836 52.1554 21.6694 52.1 21.6409 52.0399C21.6124 51.9781 21.5752 51.9212 21.5293 51.8689C21.4834 51.8151 21.4303 51.7708 21.3702 51.736C21.3116 51.6995 21.2515 51.6813 21.1897 51.6813C21.1676 51.6813 21.1391 51.713 21.1043 51.7763C21.0694 51.8396 21.0188 51.9338 20.9523 52.0589V52.0565L20.8787 52.2084Z" fill="#303030"/>
<path d="M14.5986 52.8353C14.5986 52.7831 14.6089 52.734 14.6295 52.6881C14.6485 52.6422 14.6746 52.6026 14.7079 52.5694C14.7411 52.5346 14.7807 52.5076 14.8266 52.4886C14.8725 52.4681 14.9215 52.4578 14.9738 52.4578H14.9951H14.9928C15.1574 52.453 15.2634 52.4388 15.3109 52.415C15.3663 52.3881 15.4146 52.347 15.4558 52.2916C15.4795 52.2615 15.5009 52.2259 15.5199 52.1847C15.5404 52.1436 15.5626 52.0874 15.5864 52.0162C15.6101 51.9433 15.637 51.8507 15.6671 51.7384C15.6987 51.626 15.7375 51.4827 15.7834 51.3086L16.4055 51.5081C16.3802 51.5745 16.3612 51.6386 16.3485 51.7004C16.3358 51.7605 16.3279 51.8199 16.3248 51.8784C16.3232 51.937 16.3248 51.9956 16.3295 52.0541C16.3358 52.1111 16.3438 52.1705 16.3533 52.2322C16.3833 52.18 16.4197 52.1198 16.4625 52.0518C16.5068 51.9821 16.5551 51.9101 16.6073 51.8357C16.6611 51.7613 16.7181 51.6877 16.7783 51.6149C16.8384 51.5405 16.9009 51.4716 16.9658 51.4083C17.1194 51.2643 17.284 51.1464 17.4597 51.0546C17.637 50.9612 17.8182 50.8971 18.0034 50.8622C18.0541 50.8527 18.1015 50.8464 18.1459 50.8432C18.1902 50.8385 18.2329 50.8361 18.2741 50.8361C18.4466 50.8361 18.6081 50.8654 18.7584 50.924C18.9104 50.981 19.0434 51.0688 19.1573 51.1875C19.2634 51.2983 19.3394 51.4202 19.3853 51.5532C19.4328 51.6861 19.4525 51.8223 19.4446 51.9615C19.4367 52.0534 19.4138 52.1404 19.3758 52.2227C19.3394 52.3035 19.3006 52.3818 19.2594 52.4578H19.5657C19.6179 52.4578 19.667 52.4681 19.7129 52.4886C19.7588 52.5076 19.7984 52.5346 19.8316 52.5694C19.8665 52.6026 19.8942 52.6422 19.9147 52.6881C19.9353 52.734 19.9456 52.7831 19.9456 52.8353C19.9456 52.8875 19.9353 52.9366 19.9147 52.9825C19.8942 53.0284 19.8665 53.068 19.8316 53.1012C19.7984 53.1345 19.7588 53.1606 19.7129 53.1796C19.667 53.1986 19.6179 53.2081 19.5657 53.2081L18.9674 53.2104C18.8835 53.2104 18.8083 53.2096 18.7418 53.2081C18.6769 53.2065 18.6184 53.2033 18.5661 53.1986C18.5139 53.1954 18.4672 53.1891 18.426 53.1796C18.3849 53.1717 18.3461 53.1606 18.3097 53.1463C18.2274 53.1685 18.1427 53.1859 18.0556 53.1986C17.9702 53.2128 17.8847 53.2239 17.7992 53.2318C17.7153 53.2397 17.6322 53.2453 17.5499 53.2484C17.4676 53.2516 17.39 53.2532 17.3172 53.2532C17.1779 53.2532 17.0442 53.2508 16.916 53.2461C16.7893 53.2413 16.6682 53.2239 16.5527 53.1938C16.4387 53.1653 16.3303 53.1202 16.2274 53.0585C16.1261 52.9968 16.0319 52.9089 15.9449 52.7949C15.9338 52.8266 15.9164 52.8567 15.8926 52.8852C15.8689 52.9137 15.842 52.9406 15.8119 52.9659C15.7818 52.9912 15.751 53.0142 15.7193 53.0347C15.6877 53.0537 15.6592 53.0696 15.6338 53.0822C15.4581 53.1661 15.2381 53.2081 14.9738 53.2081C14.9215 53.2081 14.8725 53.1986 14.8266 53.1796C14.7807 53.1606 14.7411 53.1345 14.7079 53.1012C14.6746 53.068 14.6485 53.0284 14.6295 52.9825C14.6089 52.9366 14.5986 52.8875 14.5986 52.8353ZM17.4027 51.9164C17.3568 51.9608 17.3117 52.0075 17.2674 52.0565C17.223 52.1056 17.1811 52.1547 17.1415 52.2037C17.102 52.2512 17.0656 52.2979 17.0323 52.3438C16.9991 52.3897 16.9706 52.4317 16.9468 52.4697C17.007 52.476 17.0758 52.4807 17.1534 52.4839C17.2325 52.4871 17.3046 52.4886 17.3695 52.4886C17.4755 52.4886 17.5832 52.4847 17.6924 52.4768C17.8032 52.4673 17.91 52.4538 18.0129 52.4364C18.1158 52.4174 18.2131 52.3937 18.3049 52.3652C18.3983 52.3351 18.4806 52.2995 18.5519 52.2583C18.6247 52.2156 18.6848 52.1665 18.7323 52.1111C18.7814 52.0557 18.8131 51.9924 18.8273 51.9212C18.8178 51.8674 18.7941 51.8191 18.7561 51.7764C18.7181 51.7336 18.6722 51.698 18.6184 51.6695C18.5661 51.6394 18.5091 51.6165 18.4474 51.6007C18.3873 51.5848 18.3287 51.5769 18.2717 51.5769C18.1989 51.5769 18.1229 51.5856 18.0438 51.603C17.9662 51.6204 17.8886 51.6442 17.8111 51.6743C17.7351 51.7043 17.6615 51.7399 17.5903 51.7811C17.5206 51.8223 17.4581 51.8674 17.4027 51.9164Z" fill="#303030"/>
<path d="M12.9268 52.8329C12.9268 52.7807 12.9363 52.7316 12.9552 52.6857C12.9742 52.6398 13.0012 52.6002 13.036 52.567C13.0692 52.5338 13.1088 52.5077 13.1547 52.4887C13.2006 52.4681 13.2497 52.4578 13.3019 52.4578H13.3423C13.5623 52.4578 13.7285 52.423 13.8409 52.3533C13.9533 52.2821 14.0094 52.1745 14.0094 52.0304C14.0094 52.0019 14.0094 51.9766 14.0094 51.9544C14.011 51.9323 14.0087 51.9038 14.0023 51.869C13.9976 51.8326 13.9873 51.7859 13.9715 51.7289C13.9572 51.6703 13.9351 51.5904 13.905 51.4891L14.5817 51.3252C14.6149 51.4202 14.6442 51.5271 14.6695 51.6458C14.6948 51.7629 14.7075 51.8911 14.7075 52.0304C14.7075 52.0763 14.7115 52.1246 14.7194 52.1752C14.7289 52.2243 14.7431 52.2702 14.7621 52.313C14.7827 52.3541 14.8096 52.3889 14.8428 52.4174C14.8777 52.4443 14.9212 52.4578 14.9734 52.4578C15.0241 52.4578 15.0724 52.4681 15.1183 52.4887C15.1642 52.5077 15.2037 52.5338 15.237 52.567C15.2718 52.6002 15.2995 52.6398 15.3201 52.6857C15.3407 52.7316 15.3509 52.7807 15.3509 52.8329C15.3509 52.8852 15.3407 52.9342 15.3201 52.9801C15.3011 53.026 15.2742 53.0656 15.2393 53.0989C15.2045 53.1337 15.1642 53.1606 15.1183 53.1796C15.0739 53.1986 15.0264 53.2081 14.9758 53.2081C14.8238 53.2081 14.694 53.1859 14.5864 53.1416C14.4788 53.0989 14.3862 53.0411 14.3086 52.9683C14.1946 53.0506 14.0585 53.1107 13.9002 53.1487C13.7435 53.1883 13.5575 53.2081 13.3423 53.2081H13.3019C13.2497 53.2081 13.2006 53.1986 13.1547 53.1796C13.1088 53.1606 13.0692 53.1337 13.036 53.0989C13.0012 53.0656 12.9742 53.026 12.9552 52.9801C12.9363 52.9342 12.9268 52.8852 12.9268 52.8329ZM14.2255 49.8817L14.7526 50.4088L14.2255 50.9359L13.6984 50.4088L14.2255 49.8817Z" fill="#303030"/>
<path d="M10.8936 54.1507C11.1167 54.1064 11.3186 54.0502 11.499 53.9821C11.681 53.9156 11.8401 53.8404 11.9762 53.7565C12.114 53.6742 12.2271 53.5864 12.3158 53.493C12.4044 53.3996 12.4677 53.3046 12.5057 53.2081C12.4377 53.2081 12.3688 53.2065 12.2992 53.2033C12.2295 53.2017 12.1701 53.1994 12.1211 53.1962C11.9375 53.1804 11.7697 53.1392 11.6177 53.0727C11.4658 53.0078 11.3447 52.9192 11.2545 52.8068C11.188 52.7213 11.1405 52.6287 11.112 52.529C11.0851 52.4293 11.0716 52.324 11.0716 52.2132C11.0716 52.1278 11.0795 52.0423 11.0954 51.9568C11.1112 51.8698 11.1334 51.7859 11.1619 51.7051C11.1903 51.6228 11.2236 51.5453 11.2616 51.4724C11.3011 51.3996 11.3431 51.3332 11.3874 51.273C11.4824 51.1543 11.5861 51.0649 11.6984 51.0047C11.8124 50.943 11.9319 50.9121 12.057 50.9121C12.3245 50.9121 12.5659 51.0292 12.7811 51.2635C12.8476 51.3379 12.9078 51.4202 12.9616 51.5104C13.0154 51.6007 13.0629 51.6972 13.104 51.8001C13.1452 51.9014 13.1784 52.0075 13.2038 52.1183C13.2307 52.2291 13.2489 52.3422 13.2584 52.4578H13.3035C13.3557 52.4578 13.4048 52.4673 13.4507 52.4863C13.4966 52.5053 13.5362 52.5322 13.5694 52.567C13.6042 52.6003 13.6319 52.6398 13.6525 52.6857C13.6731 52.7316 13.6834 52.7815 13.6834 52.8353C13.6834 52.886 13.6731 52.9342 13.6525 52.9801C13.6319 53.0245 13.6042 53.0632 13.5694 53.0965C13.5362 53.1313 13.4966 53.1582 13.4507 53.1772C13.4048 53.1978 13.3557 53.2081 13.3035 53.2081H13.199C13.1373 53.4408 13.0384 53.6513 12.9022 53.8396C12.7677 54.028 12.6062 54.1926 12.4179 54.3335C12.2311 54.4744 12.0221 54.5907 11.791 54.6825C11.5615 54.7743 11.3209 54.84 11.0693 54.8796L10.8936 54.1507ZM12.057 51.6648C12.0221 51.6648 11.9834 51.6806 11.9406 51.7123C11.8995 51.7423 11.8607 51.7811 11.8243 51.8286C11.7879 51.8761 11.757 51.9291 11.7317 51.9877C11.7079 52.0462 11.6961 52.1032 11.6961 52.1586C11.6961 52.2124 11.7111 52.2568 11.7412 52.2916C11.7713 52.3264 11.8093 52.3549 11.8552 52.3771C11.9026 52.3976 11.9541 52.4135 12.0095 52.4246C12.0649 52.434 12.1187 52.4412 12.1709 52.4459C12.1994 52.4491 12.2303 52.4515 12.2635 52.453C12.2984 52.453 12.334 52.453 12.3704 52.453C12.4068 52.453 12.4424 52.4538 12.4772 52.4554C12.5136 52.4554 12.5469 52.4562 12.5769 52.4578C12.5659 52.3802 12.5485 52.3074 12.5247 52.2394C12.501 52.1713 12.4741 52.108 12.444 52.0494C12.4155 51.9908 12.3838 51.9386 12.349 51.8927C12.3158 51.8452 12.2833 51.8041 12.2517 51.7692C12.2406 51.7582 12.2263 51.7463 12.2089 51.7336C12.1931 51.721 12.1765 51.7099 12.1591 51.7004C12.1417 51.6893 12.1235 51.6806 12.1045 51.6743C12.087 51.6679 12.0712 51.6648 12.057 51.6648Z" fill="#303030"/>
<path d="M10.4652 51.6386C10.4241 51.6165 10.3821 51.5967 10.3394 51.5793C10.2982 51.5603 10.2555 51.5428 10.2112 51.527C10.1352 51.5001 10.0505 51.4779 9.95711 51.4605C9.86372 51.4431 9.76716 51.44 9.66744 51.451C9.59938 51.459 9.53369 51.4772 9.47037 51.5056C9.40864 51.5341 9.35324 51.5698 9.30417 51.6125C9.25668 51.6536 9.21869 51.7003 9.1902 51.7526C9.16171 51.8048 9.14746 51.8578 9.14746 51.9117C9.14746 51.9876 9.17121 52.0549 9.21869 52.1135C9.26618 52.1705 9.32633 52.2179 9.39914 52.2559C9.47354 52.2939 9.55506 52.3224 9.6437 52.3414C9.73234 52.3604 9.81861 52.3683 9.9025 52.3652C9.99272 52.3572 10.0861 52.3462 10.1827 52.3319C10.2808 52.3177 10.3726 52.3026 10.4581 52.2868C10.5072 52.2789 10.5562 52.2702 10.6053 52.2607C10.6544 52.2512 10.7034 52.2409 10.7525 52.2298L10.8499 52.9682C10.7438 52.9967 10.6251 53.0252 10.4937 53.0537C10.3623 53.0806 10.2135 53.1051 10.0473 53.1273C9.88113 53.1511 9.69514 53.1693 9.48937 53.1819C9.28359 53.1962 9.05407 53.2033 8.80081 53.2033L8.28321 53.208C8.23098 53.208 8.18191 53.1977 8.136 53.1772C8.08852 53.1582 8.04815 53.1313 8.01491 53.0964C7.98009 53.0632 7.95318 53.0236 7.93419 52.9777C7.91361 52.9318 7.90332 52.8828 7.90332 52.8305C7.90332 52.7783 7.91361 52.73 7.93419 52.6857C7.95476 52.6414 7.98246 52.6026 8.01729 52.5693C8.05211 52.5361 8.09247 52.51 8.13838 52.491C8.1827 52.4704 8.23019 52.4585 8.28084 52.4554L8.65123 52.4506C8.59425 52.3604 8.55468 52.2686 8.53252 52.1752C8.51035 52.0818 8.50007 51.9797 8.50165 51.8689C8.50323 51.7296 8.5341 51.5927 8.59425 51.4582C8.65598 51.3236 8.73908 51.2025 8.84355 51.0949C8.9496 50.9873 9.07307 50.8978 9.21395 50.8266C9.35482 50.7554 9.50599 50.7134 9.66744 50.7008C9.74817 50.6944 9.82573 50.6952 9.90012 50.7031C9.97452 50.7095 10.045 50.7213 10.1114 50.7387C10.1779 50.7546 10.2404 50.7744 10.299 50.7981C10.3576 50.8203 10.4106 50.844 10.4581 50.8693C10.5135 50.8994 10.5665 50.9319 10.6172 50.9667C10.6678 50.9999 10.7153 51.0363 10.7596 51.0759L10.4652 51.6386Z" fill="#303030"/>
<path d="M6.14218 54.7561C5.99497 54.7561 5.84302 54.7474 5.68631 54.73C5.53119 54.7142 5.38082 54.6833 5.23519 54.6374C5.09115 54.5915 4.9566 54.5266 4.83156 54.4427C4.70651 54.3604 4.60125 54.2528 4.51577 54.1198C4.43504 53.9916 4.37252 53.8507 4.3282 53.6972C4.28388 53.5436 4.26172 53.3719 4.26172 53.182C4.26172 53.0427 4.26726 52.9105 4.27834 52.7855C4.291 52.6588 4.31 52.5338 4.33532 52.4103C4.36065 52.2868 4.3931 52.1618 4.43267 52.0352C4.47382 51.9085 4.52289 51.774 4.57988 51.6315L5.19008 51.8856C5.14417 51.9996 5.1046 52.1024 5.07136 52.1942C5.0397 52.2861 5.0128 52.3699 4.99064 52.4459C4.96847 52.5203 4.95106 52.5892 4.9384 52.6525C4.92574 52.7158 4.91624 52.7767 4.90991 52.8353C4.90358 52.8923 4.89962 52.9493 4.89804 53.0063C4.89645 53.0617 4.89566 53.1202 4.89566 53.182C4.89566 53.3007 4.91466 53.4036 4.95265 53.4906C4.99064 53.5777 5.04208 53.6513 5.10698 53.7114C5.17187 53.7716 5.24627 53.8207 5.33016 53.8586C5.41564 53.8982 5.50428 53.9283 5.59609 53.9489C5.68789 53.9694 5.78049 53.9837 5.87388 53.9916C5.96886 53.9995 6.05829 54.0035 6.14218 54.0035C6.18334 54.0035 6.24428 54.0003 6.325 53.994C6.40573 53.9892 6.49358 53.9797 6.58855 53.9655C6.68511 53.9528 6.78325 53.9354 6.88297 53.9133C6.98427 53.8911 7.07608 53.8634 7.15839 53.8302C7.2407 53.7985 7.30797 53.7605 7.36021 53.7162C7.41244 53.6734 7.43856 53.6228 7.43856 53.5642C7.43856 53.5579 7.42511 53.5468 7.3982 53.531C7.37287 53.5152 7.33726 53.4962 7.29135 53.474C7.24703 53.4534 7.1948 53.4297 7.13465 53.4028C7.07608 53.3774 7.01276 53.3513 6.9447 53.3244H6.94708C6.8711 53.3007 6.79116 53.2801 6.70727 53.2627C6.62496 53.2469 6.54344 53.2326 6.46271 53.22C6.45005 53.2184 6.43343 53.216 6.41285 53.2128C6.39386 53.2097 6.37407 53.2057 6.3535 53.201C6.33292 53.1978 6.31234 53.1938 6.29176 53.1891C6.27277 53.1859 6.25694 53.1828 6.24428 53.1796L6.34162 52.4578H8.24583C8.29648 52.4578 8.34476 52.4673 8.39066 52.4863C8.43657 52.5053 8.47614 52.5322 8.50938 52.567C8.5442 52.6003 8.5719 52.6398 8.59248 52.6857C8.61306 52.7316 8.62335 52.7807 8.62335 52.8329C8.62335 52.8852 8.61306 52.9342 8.59248 52.9801C8.5719 53.026 8.5442 53.0656 8.50938 53.0989C8.47614 53.1337 8.43657 53.1606 8.39066 53.1796C8.34476 53.1986 8.29648 53.2081 8.24583 53.2081H7.98228C8.01552 53.2714 8.03926 53.3347 8.05351 53.398C8.06934 53.4629 8.07804 53.5183 8.07963 53.5642C8.07171 53.713 8.03372 53.8452 7.96566 53.9607C7.89918 54.0779 7.81291 54.1808 7.70686 54.2694C7.6008 54.358 7.48051 54.4332 7.34596 54.495C7.21142 54.5567 7.07371 54.6066 6.93283 54.6445C6.79195 54.6841 6.65266 54.7126 6.51495 54.73C6.37882 54.7474 6.25457 54.7561 6.14218 54.7561Z" fill="#303030"/>
<path d="M117.196 8.23965C116.941 8.23965 116.687 8.13726 116.485 7.91787L113.803 4.99259C113.414 4.56842 113.414 3.86636 113.803 3.44219C114.192 3.01803 114.836 3.01803 115.225 3.44219L117.196 5.59227L121.85 0.516916C122.239 0.0927502 122.882 0.0927502 123.271 0.516916C123.66 0.941081 123.66 1.64315 123.271 2.06731L117.907 7.91787C117.706 8.13726 117.451 8.23965 117.196 8.23965Z" fill="#00BD61"/>
<path d="M117.196 33.3673C116.941 33.3673 116.687 33.2649 116.485 33.0455L113.803 30.1202C113.414 29.696 113.414 28.994 113.803 28.5698C114.192 28.1457 114.836 28.1457 115.225 28.5698L117.196 30.7199L121.85 25.6445C122.239 25.2204 122.882 25.2204 123.271 25.6445C123.66 26.0687 123.66 26.7708 123.271 27.1949L117.907 33.0455C117.706 33.2649 117.451 33.3673 117.196 33.3673Z" fill="#00BD61"/>
<path d="M117.196 58.495C116.941 58.495 116.687 58.3926 116.485 58.1732L113.803 55.248C113.414 54.8238 113.414 54.1217 113.803 53.6976C114.192 53.2734 114.836 53.2734 115.225 53.6976L117.196 55.8476L121.85 50.7723C122.239 50.3481 122.882 50.3481 123.271 50.7723C123.66 51.1965 123.66 51.8985 123.271 52.3227L117.907 58.1732C117.706 58.3926 117.451 58.495 117.196 58.495Z" fill="#00BD61"/>
<path d="M102.422 58.908C102.444 58.5496 102.466 58.1782 102.487 57.7936C102.509 57.409 102.527 57.0288 102.54 56.653C102.557 56.2772 102.568 55.9123 102.573 55.5583C102.577 55.2044 102.573 54.8788 102.56 54.5816C102.533 53.9611 102.507 53.417 102.481 52.9494C102.459 52.4775 102.435 52.0601 102.409 51.6974C102.387 51.3347 102.363 51.0179 102.337 50.7469C102.315 50.4716 102.291 50.2203 102.265 49.9931C102.238 49.7659 102.21 49.5539 102.179 49.3573C102.149 49.1562 102.116 48.9487 102.081 48.7345L104.107 48.0659C104.203 48.6515 104.279 49.2415 104.336 49.8358C104.397 50.4301 104.443 51.0004 104.474 51.5466C104.504 52.0885 104.524 52.5933 104.533 53.0609C104.546 53.5285 104.552 53.9283 104.552 54.2604C104.552 54.562 104.55 54.8875 104.546 55.2371C104.546 55.5867 104.541 55.9495 104.533 56.3253C104.528 56.7011 104.52 57.0813 104.506 57.4659C104.493 57.8504 104.474 58.2262 104.447 58.5933L102.422 58.908Z" fill="#303030"/>
<path d="M95.8916 57.8527C95.8916 57.7085 95.92 57.573 95.9768 57.4463C96.0293 57.3196 96.1014 57.2103 96.1931 57.1185C96.2849 57.0224 96.3942 56.9481 96.5209 56.8957C96.6476 56.8432 96.7831 56.817 96.9273 56.817H97.6025H97.8974C98.0591 56.817 98.2274 56.8104 98.4022 56.7973C98.5814 56.7842 98.7474 56.758 98.9004 56.7187C99.0577 56.6793 99.1953 56.6247 99.3133 56.5548C99.4357 56.4849 99.5231 56.3909 99.5755 56.2729C99.6105 56.1943 99.628 56.0763 99.628 55.919C99.628 55.8141 99.5974 55.6568 99.5362 55.447C99.475 55.2372 99.3942 55.0056 99.2937 54.7522C99.1932 54.4943 99.0795 54.2256 98.9528 53.9459C98.8261 53.6662 98.6972 53.4018 98.5661 53.1527L100.441 52.2219C100.563 52.4972 100.683 52.79 100.801 53.1003C100.924 53.4106 101.033 53.7252 101.129 54.0442C101.225 54.3632 101.302 54.6822 101.359 55.0013C101.42 55.3159 101.45 55.6174 101.45 55.9058C101.45 56.3472 101.372 56.7514 101.214 57.1185C101.031 57.5293 100.779 57.8702 100.46 58.1411C100.141 58.4077 99.7591 58.6043 99.3133 58.7311C99.0511 58.8054 98.7999 58.8491 98.5595 58.8622C98.3192 58.8797 98.0941 58.8884 97.8843 58.8884H96.9863H96.9273C96.7831 58.8884 96.6476 58.8622 96.5209 58.8097C96.3942 58.7573 96.2849 58.683 96.1931 58.5869C96.1014 58.4951 96.0293 58.3858 95.9768 58.2591C95.92 58.1324 95.8916 57.9969 95.8916 57.8527ZM99.1363 48.5183L100.592 49.9735L99.1363 51.4288L97.6811 49.9735L99.1363 48.5183Z" fill="#303030"/>
<path d="M90.1943 57.8526C90.1943 57.7084 90.2206 57.5729 90.273 57.4462C90.3254 57.3195 90.3997 57.2102 90.4959 57.1184C90.5876 57.0223 90.6969 56.948 90.8236 56.8956C90.9503 56.8431 91.0858 56.8169 91.23 56.8169H91.7282C92.0429 56.8169 92.3444 56.8038 92.6328 56.7776C92.9256 56.7514 93.1834 56.6967 93.4063 56.6137C93.6292 56.5263 93.8083 56.4061 93.9438 56.2532C94.0837 56.0959 94.158 55.8883 94.1667 55.6305C94.1711 55.5343 94.1711 55.4556 94.1667 55.3945C94.1667 55.3289 94.1558 55.2524 94.1339 55.165C94.1121 55.0733 94.0793 54.9553 94.0356 54.8111C93.9963 54.6625 93.9395 54.4549 93.8652 54.1883L95.7727 53.6508C95.8557 53.8606 95.9322 54.1381 96.0021 54.4833C96.072 54.8285 96.1245 55.2066 96.1594 55.6173C96.1682 55.7484 96.1835 55.8839 96.2053 56.0238C96.2272 56.1636 96.2621 56.2925 96.3102 56.4105C96.3626 56.5285 96.4326 56.6268 96.52 56.7055C96.6074 56.7798 96.721 56.8169 96.8608 56.8169C97.005 56.8169 97.1405 56.8431 97.2672 56.8956C97.394 56.948 97.5032 57.0223 97.595 57.1184C97.6911 57.2102 97.7654 57.3195 97.8179 57.4462C97.8747 57.5729 97.9031 57.7084 97.9031 57.8526C97.9031 57.9968 97.8747 58.1323 97.8179 58.259C97.7654 58.3858 97.6911 58.495 97.595 58.5868C97.4988 58.6829 97.3874 58.7572 97.2607 58.8096C97.1383 58.8621 97.0072 58.8883 96.8674 58.8883C96.4479 58.8883 96.0873 58.8228 95.7858 58.6917C95.4886 58.5649 95.233 58.3989 95.0188 58.1935C94.8222 58.3246 94.595 58.4338 94.3371 58.5212C94.0837 58.6086 93.8127 58.6785 93.5243 58.731C93.2359 58.7878 92.9387 58.8271 92.6328 58.849C92.3269 58.8752 92.0254 58.8883 91.7282 58.8883H91.23C91.0858 58.8883 90.9503 58.8621 90.8236 58.8096C90.6969 58.7572 90.5876 58.6829 90.4959 58.5868C90.3997 58.495 90.3254 58.3858 90.273 58.259C90.2206 58.1323 90.1943 57.9968 90.1943 57.8526ZM96.7035 51.5335L95.4449 52.7987L94.1995 51.5532L92.9671 52.7856L91.6954 51.5204L92.954 50.2553L94.1995 51.5008L95.4318 50.2684L96.7035 51.5335Z" fill="#303030"/>
<path d="M79.2939 57.8591C79.2939 57.7192 79.3224 57.5859 79.3792 57.4592C79.4316 57.3325 79.5059 57.2232 79.602 57.1315C79.6938 57.0353 79.8031 56.9588 79.9298 56.902C80.0565 56.8452 80.192 56.8168 80.3362 56.8168H81.5358C82.0165 56.8168 82.5343 56.7709 83.0893 56.6792C83.6443 56.583 84.1993 56.4585 84.7543 56.3055C85.3137 56.1526 85.8534 55.9821 86.3734 55.7942C86.8978 55.602 87.3676 55.4075 87.7827 55.2108C87.5118 55.1453 87.2103 55.0535 86.8781 54.9355C86.546 54.8175 86.2095 54.7017 85.8687 54.5881C85.5278 54.4745 85.1957 54.3783 84.8723 54.2997C84.5533 54.2167 84.267 54.1773 84.0136 54.1817C83.8519 54.1861 83.6946 54.221 83.5416 54.2866C83.393 54.3478 83.2532 54.4264 83.1221 54.5226C82.9954 54.6143 82.8796 54.7148 82.7747 54.8241C82.6742 54.929 82.5868 55.0295 82.5125 55.1256C82.4382 55.2174 82.3792 55.2961 82.3355 55.3616C82.2962 55.4228 82.2765 55.4534 82.2765 55.4534L80.7229 54.5619C80.8977 54.2385 81.1075 53.9282 81.3522 53.6311C81.597 53.3295 81.8635 53.0651 82.1519 52.8379C82.4404 52.6063 82.7419 52.4228 83.0565 52.2873C83.3756 52.1518 83.6946 52.0863 84.0136 52.0906C84.2496 52.095 84.4834 52.1234 84.715 52.1758C84.951 52.2283 85.1869 52.296 85.4229 52.3791C85.6589 52.4577 85.8971 52.5517 86.1374 52.6609C86.3778 52.7658 86.6203 52.8751 86.865 52.9887C87.1141 53.111 87.3894 53.2312 87.691 53.3492C87.9969 53.4672 88.3137 53.5721 88.6414 53.6638C88.9736 53.7556 89.3101 53.8299 89.6509 53.8867C89.9962 53.9435 90.3326 53.9719 90.6604 53.9719L90.3195 55.9057C90.219 55.9494 90.1054 56.0018 89.9787 56.063C89.8563 56.1198 89.7471 56.1722 89.6509 56.2203L89.4805 56.3055C89.581 56.4235 89.7077 56.5175 89.8607 56.5874C90.018 56.6573 90.1775 56.7098 90.3392 56.7447C90.5053 56.7753 90.6626 56.795 90.8112 56.8037C90.9641 56.8125 91.0843 56.8168 91.1717 56.8168H91.2635C91.4077 56.8168 91.5431 56.8452 91.6699 56.902C91.7966 56.9588 91.9059 57.0353 91.9976 57.1315C92.0938 57.2232 92.1681 57.3325 92.2205 57.4592C92.2773 57.5859 92.3057 57.7192 92.3057 57.8591C92.3057 58.0033 92.2773 58.1388 92.2205 58.2655C92.1681 58.3922 92.0938 58.5015 91.9976 58.5932C91.9059 58.685 91.7966 58.7571 91.6699 58.8096C91.5431 58.862 91.4077 58.8882 91.2635 58.8882H91.1717C90.7522 58.8882 90.3567 58.8511 89.9852 58.7768C89.6181 58.7025 89.2817 58.5954 88.9757 58.4556C88.6742 58.3114 88.4055 58.1388 88.1695 57.9377C87.9335 57.7323 87.739 57.5007 87.5861 57.2429C87.1534 57.4527 86.7033 57.6581 86.2357 57.8591C85.7681 58.0557 85.2831 58.2305 84.7805 58.3835C84.278 58.5364 83.7557 58.6588 83.2139 58.7506C82.6763 58.8467 82.117 58.8948 81.5358 58.8948L80.3362 58.8882C80.192 58.8882 80.0565 58.862 79.9298 58.8096C79.8031 58.7571 79.6938 58.685 79.602 58.5932C79.5059 58.5015 79.4316 58.3922 79.3792 58.2655C79.3224 58.1388 79.2939 58.0033 79.2939 57.8591ZM83.9808 48.6165L85.436 50.0717L83.9808 51.5269L82.5256 50.0717L83.9808 48.6165Z" fill="#303030"/>
<path d="M80.3468 58.8883C79.8093 58.8883 79.3483 58.8206 78.9637 58.6851C78.5792 58.554 78.247 58.3508 77.9674 58.0755C77.7926 57.9007 77.6571 57.7171 77.561 57.5249C77.4692 57.3326 77.4014 57.1447 77.3577 56.9611C77.3184 56.7732 77.2944 56.5962 77.2856 56.4302C77.2813 56.2641 77.2791 56.1221 77.2791 56.0041V55.9058C77.2835 55.7441 77.2878 55.5125 77.2922 55.2109C77.3009 54.905 77.3053 54.5467 77.3053 54.1359C77.3053 53.7251 77.3031 53.2728 77.2987 52.779C77.2944 52.2852 77.2813 51.7936 77.2594 51.3041C77.2419 50.8103 77.2135 50.3362 77.1742 49.8817C77.1392 49.4272 77.089 49.0317 77.0234 48.6952L78.9834 48.0987C79.0402 48.3871 79.0861 48.728 79.1211 49.1213C79.156 49.5102 79.1844 49.9188 79.2063 50.3471C79.2325 50.7753 79.25 51.2058 79.2587 51.6384C79.2718 52.0711 79.2806 52.4731 79.2849 52.8445C79.2893 53.1723 79.2762 53.4935 79.2456 53.8081C79.2194 54.1184 79.1975 54.4243 79.18 54.7258C79.1626 55.023 79.1626 55.3136 79.18 55.5977C79.2019 55.8773 79.2631 56.1505 79.3636 56.4171C79.4029 56.5176 79.451 56.594 79.5078 56.6465C79.569 56.6989 79.6389 56.7382 79.7176 56.7645C79.7962 56.7863 79.8814 56.7994 79.9732 56.8038C80.0693 56.8082 80.1742 56.8104 80.2879 56.8104H80.3468C80.4867 56.8104 80.62 56.8388 80.7467 56.8956C80.8734 56.9524 80.9827 57.0289 81.0745 57.125C81.1706 57.2168 81.2471 57.326 81.3039 57.4527C81.3607 57.5795 81.3891 57.7128 81.3891 57.8526C81.3891 57.9968 81.3607 58.1323 81.3039 58.259C81.2471 58.3858 81.1706 58.495 81.0745 58.5868C80.9827 58.6829 80.8734 58.7572 80.7467 58.8096C80.62 58.8621 80.4867 58.8883 80.3468 58.8883Z" fill="#303030"/>
<path d="M69.6521 58.8883C68.8305 58.8883 68.0942 58.838 67.443 58.7375C66.7963 58.6414 66.2282 58.5015 65.7387 58.318C64.7467 57.9334 64.065 57.3697 63.6935 56.6268V56.6334C63.4838 56.2269 63.3789 55.7768 63.3789 55.283C63.3789 55.0689 63.4051 54.8373 63.4576 54.5882C63.51 54.3391 63.5777 54.0965 63.6608 53.8606C63.7657 53.5853 63.8793 53.3427 64.0016 53.133C64.124 52.9188 64.2507 52.6938 64.3818 52.4578L65.9223 53.7491C65.8567 53.8409 65.7802 53.9611 65.6928 54.1097C65.6054 54.2539 65.5202 54.4068 65.4372 54.5685C65.3585 54.7302 65.2908 54.8941 65.234 55.0601C65.1815 55.2218 65.1553 55.3639 65.1553 55.4862C65.1553 55.5736 65.1684 55.6457 65.1947 55.7025C65.2821 55.8817 65.4547 56.039 65.7125 56.1745C65.9747 56.31 66.3025 56.4258 66.6958 56.5219C67.0891 56.6137 67.537 56.6836 68.0395 56.7317C68.5421 56.7797 69.0796 56.8038 69.6521 56.8038C69.9624 56.8038 70.3141 56.7885 70.7074 56.7579C71.1051 56.7273 71.5137 56.6792 71.9332 56.6137C72.3528 56.5438 72.7701 56.4564 73.1853 56.3515C73.6004 56.2422 73.9806 56.1111 74.3258 55.9582C74.2734 55.7528 74.21 55.5561 74.1357 55.3682C74.0658 55.1803 73.9784 54.9858 73.8735 54.7848C73.7687 54.5794 73.6441 54.3609 73.4999 54.1293C73.3557 53.8977 73.1853 53.6333 72.9886 53.3362L74.6011 52.2874C74.6798 52.4141 74.7716 52.5692 74.8765 52.7528C74.9813 52.9363 75.0862 53.1351 75.1911 53.3493C75.3004 53.559 75.4052 53.7819 75.5057 54.0179C75.6106 54.2539 75.7024 54.4898 75.7811 54.7258C75.8641 54.9618 75.9275 55.1934 75.9712 55.4207C76.0149 55.6435 76.0323 55.8533 76.0236 56.0499C76.0017 56.417 75.875 56.7426 75.6434 57.0267C75.4118 57.3063 75.1146 57.5511 74.7519 57.7608C74.3936 57.9706 73.9872 58.1476 73.5327 58.2918C73.0826 58.436 72.6237 58.5518 72.1561 58.6392C71.6929 58.7266 71.2428 58.79 70.8058 58.8293C70.3688 58.8686 69.9842 58.8883 69.6521 58.8883ZM69.698 59.3865L71.1532 60.8417L69.698 62.2969L68.2428 60.8417L69.698 59.3865Z" fill="#303030"/>
<path d="M100.575 32.7249C100.575 32.5807 100.604 32.4452 100.66 32.3185C100.713 32.1918 100.785 32.0825 100.877 31.9907C100.968 31.8946 101.078 31.8203 101.204 31.7679C101.331 31.7154 101.467 31.6892 101.611 31.6892H102.338H102.653C102.85 31.6892 103.066 31.6805 103.302 31.663C103.538 31.6455 103.765 31.6171 103.984 31.5778C104.202 31.5385 104.399 31.486 104.574 31.4205C104.753 31.3505 104.884 31.2631 104.967 31.1583C105.015 31.084 105.039 30.9835 105.039 30.8567C105.039 30.6688 104.993 30.4459 104.902 30.1881C104.814 29.9303 104.709 29.6681 104.587 29.4015C104.465 29.1349 104.338 28.8793 104.207 28.6346C104.08 28.3898 103.977 28.1866 103.899 28.0249L105.767 27.1072C105.902 27.3432 106.033 27.6229 106.16 27.9463C106.287 28.2653 106.4 28.5952 106.501 28.9361C106.601 29.2726 106.682 29.6047 106.743 29.9325C106.805 30.2558 106.835 30.5377 106.835 30.7781C106.835 31.2194 106.757 31.6237 106.599 31.9907C106.416 32.4015 106.164 32.7424 105.845 33.0133C105.526 33.2799 105.144 33.4766 104.698 33.6033C104.567 33.6382 104.403 33.6667 104.207 33.6885C104.01 33.7104 103.811 33.7257 103.61 33.7344C103.409 33.7475 103.219 33.7541 103.04 33.7541C102.861 33.7584 102.721 33.7606 102.62 33.7606H101.67H101.611C101.467 33.7606 101.331 33.7344 101.204 33.6819C101.078 33.6295 100.968 33.5552 100.877 33.4591C100.785 33.3673 100.713 33.2581 100.66 33.1313C100.604 33.0046 100.575 32.8691 100.575 32.7249ZM105.511 37.1037L104.279 35.8713L103.033 37.1168L101.775 35.8517L103.046 34.5865L104.279 35.8189L105.524 34.5734L106.783 35.8386L105.511 37.1037ZM104.285 36.5662L105.452 37.733L104.279 38.9063L103.112 37.7395L104.285 36.5662Z" fill="#303030"/>
<path d="M94.8906 32.725C94.8906 32.5808 94.9168 32.4453 94.9693 32.3186C95.0217 32.1918 95.096 32.0826 95.1922 31.9908C95.2839 31.8947 95.3932 31.8204 95.5199 31.7679C95.6466 31.7155 95.7821 31.6893 95.9263 31.6893H96.4245C96.7392 31.6893 97.0407 31.6762 97.3291 31.65C97.6219 31.6237 97.8797 31.5691 98.1026 31.4861C98.3255 31.3987 98.5046 31.2785 98.6401 31.1255C98.78 30.9682 98.8542 30.7607 98.863 30.5028C98.8674 30.4067 98.8674 30.328 98.863 30.2668C98.863 30.2013 98.8521 30.1248 98.8302 30.0374C98.8084 29.9456 98.7756 29.8276 98.7319 29.6834C98.6926 29.5349 98.6357 29.3273 98.5615 29.0607L100.469 28.5232C100.552 28.733 100.628 29.0104 100.698 29.3557C100.768 29.7009 100.821 30.0789 100.856 30.4897C100.864 30.6208 100.88 30.7563 100.902 30.8961C100.923 31.036 100.958 31.1649 101.006 31.2829C101.059 31.4009 101.129 31.4992 101.216 31.5778C101.304 31.6521 101.417 31.6893 101.557 31.6893C101.701 31.6893 101.837 31.7155 101.964 31.7679C102.09 31.8204 102.2 31.8947 102.291 31.9908C102.387 32.0826 102.462 32.1918 102.514 32.3186C102.571 32.4453 102.599 32.5808 102.599 32.725C102.599 32.8692 102.571 33.0047 102.514 33.1314C102.462 33.2581 102.387 33.3674 102.291 33.4591C102.195 33.5553 102.084 33.6296 101.957 33.682C101.835 33.7345 101.704 33.7607 101.564 33.7607C101.144 33.7607 100.784 33.6951 100.482 33.564C100.185 33.4373 99.9293 33.2712 99.7151 33.0658C99.5185 33.1969 99.2912 33.3062 99.0334 33.3936C98.78 33.481 98.509 33.5509 98.2206 33.6034C97.9322 33.6602 97.635 33.6995 97.3291 33.7213C97.0232 33.7476 96.7217 33.7607 96.4245 33.7607H95.9263C95.7821 33.7607 95.6466 33.7345 95.5199 33.682C95.3932 33.6296 95.2839 33.5553 95.1922 33.4591C95.096 33.3674 95.0217 33.2581 94.9693 33.1314C94.9168 33.0047 94.8906 32.8692 94.8906 32.725ZM101.164 36.1139L99.9052 37.3791L98.6598 36.1336L97.4274 37.366L96.1558 36.1008L97.4143 34.8357L98.6598 36.0812L99.8921 34.8488L101.164 36.1139Z" fill="#303030"/>
<path d="M82.623 32.7249C82.623 32.5894 82.6515 32.4605 82.7083 32.3381C82.7651 32.2158 82.8437 32.1087 82.9442 32.0169C83.0404 31.9208 83.1562 31.8443 83.2917 31.7875C83.4228 31.7307 83.5648 31.6979 83.7177 31.6892C83.9494 31.6892 84.1657 31.6521 84.3667 31.5778C84.5677 31.4991 84.7578 31.3505 84.937 31.132C85.1161 30.9135 85.2844 30.6054 85.4417 30.2078C85.599 29.8101 85.7498 29.29 85.894 28.6477L87.6377 28.8967C87.6508 28.8443 87.642 28.8727 87.6114 28.982C87.5852 29.0912 87.5524 29.2463 87.5131 29.4474C87.4782 29.644 87.4432 29.8669 87.4082 30.116C87.3776 30.3607 87.3623 30.5967 87.3623 30.8239C87.3667 31.0468 87.3929 31.2413 87.441 31.4073C87.4934 31.569 87.583 31.6652 87.7098 31.6957C87.8452 31.7307 87.9763 31.7045 88.1031 31.6171C88.2298 31.5253 88.35 31.3964 88.4636 31.2303C88.5772 31.0599 88.6821 30.8633 88.7782 30.6404C88.8744 30.4131 88.9618 30.1815 89.0404 29.9456C89.1191 29.7096 89.1868 29.478 89.2436 29.2507C89.3005 29.0235 89.3442 28.8225 89.3747 28.6477L91.1053 28.8967C91.0965 29.006 91.0812 29.1524 91.0594 29.3359C91.0375 29.5151 91.0201 29.7074 91.007 29.9128C90.9938 30.1182 90.9873 30.3257 90.9873 30.5355C90.9917 30.7409 91.0157 30.9288 91.0594 31.0992C91.1031 31.2653 91.1708 31.403 91.2626 31.5122C91.3544 31.6171 91.4811 31.6695 91.6428 31.6695C91.787 31.6695 91.9115 31.6215 92.0164 31.5253C92.1213 31.4292 92.2087 31.3046 92.2786 31.1517C92.3529 30.9944 92.4119 30.8174 92.4556 30.6207C92.4993 30.4197 92.5321 30.2165 92.5539 30.0111C92.5758 29.8057 92.5867 29.6069 92.5867 29.4146C92.5867 29.2179 92.5802 29.0453 92.5671 28.8967L94.3369 28.6477L94.5532 30.4962C94.5795 30.6972 94.6363 30.872 94.7237 31.0206C94.8111 31.1692 94.9138 31.2937 95.0317 31.3942C95.1497 31.4904 95.2743 31.5647 95.4054 31.6171C95.5365 31.6652 95.661 31.6892 95.779 31.6892H95.8577C96.0194 31.6892 96.1658 31.7154 96.2969 31.7679C96.4323 31.8203 96.5482 31.8946 96.6443 31.9907C96.7404 32.0825 96.8147 32.1917 96.8672 32.3185C96.9196 32.4452 96.9458 32.5807 96.9458 32.7249C96.9458 32.8691 96.9196 33.0046 96.8672 33.1313C96.8147 33.258 96.7382 33.3673 96.6377 33.4591C96.5416 33.5508 96.4192 33.6229 96.2707 33.6754C96.1264 33.7322 95.9626 33.7606 95.779 33.7606C95.3551 33.7606 94.9553 33.6863 94.5795 33.5377C94.2036 33.3891 93.8781 33.1379 93.6027 32.7839C93.5765 32.8188 93.5503 32.8494 93.5241 32.8757C93.4979 32.9019 93.4738 32.9281 93.452 32.9543V32.9478C93.216 33.1969 92.9429 33.3935 92.6326 33.5377C92.3267 33.6863 91.9968 33.7606 91.6428 33.7606C91.2451 33.7606 90.878 33.6754 90.5415 33.5049C90.2094 33.3345 89.9319 33.1029 89.7091 32.8101C89.4468 33.0985 89.1497 33.3323 88.8176 33.5115C88.4854 33.6907 88.1205 33.7803 87.7229 33.7803C87.3514 33.7803 87.0062 33.6972 86.6872 33.5312C86.3682 33.3651 86.1038 33.1379 85.894 32.8494C85.658 33.1772 85.3652 33.411 85.0156 33.5508C84.6704 33.6907 84.2421 33.7606 83.7308 33.7606C83.5648 33.7606 83.414 33.7322 83.2786 33.6754C83.1431 33.6229 83.0273 33.5508 82.9311 33.4591C82.835 33.3673 82.7607 33.258 82.7083 33.1313C82.6515 33.0046 82.623 32.8691 82.623 32.7249ZM92.7637 25.9798L91.5051 27.2449L90.2597 25.9994L89.0273 27.2318L87.7556 25.9666L89.0142 24.7015L90.2597 25.947L91.492 24.7146L92.7637 25.9798ZM89.0929 24.0788L90.2597 22.912L91.433 24.0853L90.2662 25.2521L89.0929 24.0788Z" fill="#303030"/>
<path d="M78.0195 32.7248C78.0195 32.5806 78.0458 32.4451 78.0982 32.3184C78.1506 32.1917 78.2249 32.0824 78.3211 31.9907C78.4128 31.8989 78.5221 31.8268 78.6488 31.7743C78.7755 31.7175 78.911 31.6891 79.0552 31.6891H79.1667C79.7741 31.6891 80.233 31.593 80.5432 31.4007C80.8535 31.2041 81.0086 30.9069 81.0086 30.5092C81.0086 30.4306 81.0086 30.3606 81.0086 30.2995C81.013 30.2383 81.0064 30.1596 80.989 30.0635C80.9759 29.963 80.9475 29.8341 80.9038 29.6767C80.8644 29.515 80.8032 29.2944 80.7202 29.0147L82.5884 28.5624C82.6802 28.8246 82.761 29.1195 82.8309 29.4473C82.9009 29.7707 82.9358 30.1247 82.9358 30.5092C82.9358 30.636 82.9467 30.7692 82.9686 30.9091C82.9948 31.0445 83.0341 31.1713 83.0866 31.2893C83.1434 31.4029 83.2177 31.499 83.3095 31.5777C83.4056 31.652 83.5258 31.6891 83.67 31.6891C83.8098 31.6891 83.9431 31.7175 84.0698 31.7743C84.1966 31.8268 84.3058 31.8989 84.3976 31.9907C84.4937 32.0824 84.5702 32.1917 84.627 32.3184C84.6838 32.4451 84.7122 32.5806 84.7122 32.7248C84.7122 32.869 84.6838 33.0045 84.627 33.1312C84.5746 33.258 84.5003 33.3672 84.4041 33.459C84.308 33.5551 84.1966 33.6294 84.0698 33.6819C83.9475 33.7343 83.8164 33.7605 83.6765 33.7605C83.257 33.7605 82.8987 33.6993 82.6015 33.577C82.3043 33.459 82.0487 33.2995 81.8346 33.0985C81.5199 33.3257 81.1441 33.4918 80.7071 33.5966C80.2745 33.7059 79.761 33.7605 79.1667 33.7605H79.0552C78.911 33.7605 78.7755 33.7343 78.6488 33.6819C78.5221 33.6294 78.4128 33.5551 78.3211 33.459C78.2249 33.3672 78.1506 33.258 78.0982 33.1312C78.0458 33.0045 78.0195 32.869 78.0195 32.7248ZM81.6051 24.5769L83.0604 26.0321L81.6051 27.4873L80.1499 26.0321L81.6051 24.5769Z" fill="#303030"/>
<path d="M71.4316 32.7249C71.4316 32.5807 71.4579 32.4452 71.5103 32.3185C71.5627 32.1917 71.637 32.0825 71.7332 31.9907C71.8249 31.899 71.9342 31.8268 72.0609 31.7744C72.1877 31.7176 72.3231 31.6892 72.4673 31.6892H72.8082C72.8213 31.4008 72.865 31.0883 72.9393 30.7518C73.018 30.411 73.1228 30.0701 73.2539 29.7292C73.385 29.384 73.5402 29.0519 73.7194 28.7329C73.8985 28.4095 74.0952 28.1211 74.3093 27.8676C74.5278 27.6141 74.7638 27.4087 75.0173 27.2514C75.2707 27.0897 75.5351 27.0001 75.8104 26.9827C76.1032 26.987 76.3741 27.0701 76.6232 27.2318C76.8767 27.3891 77.0952 27.5967 77.2787 27.8545C77.4623 28.1123 77.6065 28.4051 77.7114 28.7329C77.8163 29.0606 77.8687 29.3927 77.8687 29.7292C77.8687 30.1269 77.7813 30.5136 77.6065 30.8895C77.4361 31.2653 77.2088 31.6171 76.9248 31.9448C76.6451 32.2682 76.3261 32.561 75.9677 32.8232C75.6138 33.081 75.2532 33.293 74.8862 33.4591C74.9167 33.5639 74.9801 33.6885 75.0762 33.8327C75.1768 33.9813 75.2882 34.1298 75.4106 34.2784C75.5373 34.427 75.664 34.5669 75.7907 34.698C75.9175 34.8291 76.0245 34.9339 76.1119 35.0126C76.1076 34.7591 76.1447 34.4991 76.2234 34.2325C76.302 33.9703 76.4113 33.7169 76.5511 33.4722C76.6953 33.2274 76.8636 32.998 77.0559 32.7839C77.2482 32.5654 77.4535 32.3753 77.672 32.2136C77.8949 32.0519 78.1243 31.9252 78.3603 31.8334C78.5963 31.7373 78.8301 31.6892 79.0617 31.6892C79.2059 31.6892 79.3414 31.7176 79.4681 31.7744C79.5949 31.8268 79.7041 31.899 79.7959 31.9907C79.892 32.0825 79.9663 32.1917 80.0188 32.3185C80.0756 32.4452 80.104 32.5807 80.104 32.7249C80.104 32.8691 80.0756 33.0046 80.0188 33.1313C79.9663 33.258 79.892 33.3673 79.7959 33.4591C79.7041 33.5552 79.5949 33.6295 79.4681 33.6819C79.3414 33.7344 79.2059 33.7606 79.0617 33.7606H79.0355C78.8432 33.7868 78.6575 33.8502 78.4783 33.9507C78.2991 34.0556 78.1396 34.1845 77.9998 34.3374C77.8643 34.4947 77.7551 34.6674 77.672 34.8553C77.589 35.0476 77.5475 35.242 77.5475 35.4387C77.5475 35.5261 77.5541 35.6069 77.5672 35.6812C77.5803 35.7599 77.6043 35.8385 77.6393 35.9172C77.6742 35.9959 77.7201 36.0789 77.7769 36.1663C77.8381 36.2537 77.9146 36.3476 78.0064 36.4482L76.8068 37.9099C76.2824 37.5909 75.8213 37.2653 75.4237 36.9332C75.026 36.6011 74.6808 36.2602 74.388 35.9106C74.0995 35.5654 73.8548 35.2136 73.6538 34.8553C73.4572 34.4969 73.2955 34.132 73.1687 33.7606H73.1425H72.4673C72.3231 33.7606 72.1877 33.7344 72.0609 33.6819C71.9342 33.6295 71.8249 33.5552 71.7332 33.4591C71.637 33.3673 71.5627 33.258 71.5103 33.1313C71.4579 33.0046 71.4316 32.8691 71.4316 32.7249ZM76.2037 30.0177C76.2125 29.8953 76.2103 29.7664 76.1972 29.6309C76.1884 29.4911 76.1666 29.3578 76.1316 29.231C76.101 29.0999 76.0573 28.982 76.0005 28.8771C75.9437 28.7722 75.8738 28.6935 75.7907 28.6411C75.7077 28.6848 75.6159 28.7678 75.5154 28.8902C75.4193 29.0125 75.321 29.1611 75.2205 29.3359C75.1199 29.5107 75.0216 29.703 74.9255 29.9128C74.8337 30.1182 74.7507 30.3279 74.6764 30.5421C74.6021 30.7562 74.5409 30.9659 74.4928 31.1713C74.4491 31.3724 74.4251 31.5537 74.4207 31.7154C74.6087 31.6804 74.8031 31.6105 75.0041 31.5056C75.2095 31.3964 75.3974 31.2653 75.5679 31.1123C75.7427 30.955 75.8891 30.7824 76.0071 30.5945C76.1251 30.4066 76.1906 30.2143 76.2037 30.0177Z" fill="#303030"/>
<path d="M72.4845 33.7606C71.947 33.7606 71.486 33.6929 71.1014 33.5574C70.7169 33.4263 70.3847 33.2231 70.1051 32.9478C69.9303 32.773 69.7948 32.5894 69.6986 32.3972C69.6069 32.2049 69.5391 32.017 69.4954 31.8334C69.4561 31.6455 69.4321 31.4685 69.4233 31.3025C69.419 31.1364 69.4168 30.9944 69.4168 30.8764V30.7781C69.4211 30.6164 69.4255 30.3848 69.4299 30.0832C69.4386 29.7773 69.443 29.419 69.443 29.0082C69.443 28.5974 69.4408 28.1451 69.4364 27.6513C69.4321 27.1575 69.419 26.6659 69.3971 26.1764C69.3796 25.6826 69.3512 25.2085 69.3119 24.754C69.2769 24.2995 69.2267 23.904 69.1611 23.5675L71.1211 22.971C71.1779 23.2594 71.2238 23.6003 71.2587 23.9936C71.2937 24.3825 71.3221 24.7911 71.344 25.2194C71.3702 25.6477 71.3877 26.0781 71.3964 26.5107C71.4095 26.9434 71.4183 27.3454 71.4226 27.7169C71.427 28.0446 71.4139 28.3658 71.3833 28.6805C71.3571 28.9907 71.3352 29.2966 71.3177 29.5982C71.3003 29.8953 71.3003 30.1859 71.3177 30.47C71.3396 30.7497 71.4008 31.0228 71.5013 31.2894C71.5406 31.3899 71.5887 31.4663 71.6455 31.5188C71.7067 31.5712 71.7766 31.6106 71.8553 31.6368C71.9339 31.6586 72.0191 31.6717 72.1109 31.6761C72.207 31.6805 72.3119 31.6827 72.4255 31.6827H72.4845C72.6244 31.6827 72.7577 31.7111 72.8844 31.7679C73.0111 31.8247 73.1204 31.9012 73.2122 31.9973C73.3083 32.0891 73.3848 32.1983 73.4416 32.3251C73.4984 32.4518 73.5268 32.5851 73.5268 32.7249C73.5268 32.8691 73.4984 33.0046 73.4416 33.1313C73.3848 33.2581 73.3083 33.3673 73.2122 33.4591C73.1204 33.5552 73.0111 33.6295 72.8844 33.682C72.7577 33.7344 72.6244 33.7606 72.4845 33.7606Z" fill="#303030"/>
<path d="M62.0189 30.6993C62.2024 30.8173 62.4165 30.9353 62.6613 31.0533C62.9104 31.1713 63.1638 31.2805 63.4216 31.381C63.6838 31.4772 63.9373 31.5558 64.182 31.617C64.4268 31.6782 64.6387 31.7088 64.8179 31.7088C64.8834 31.7088 64.9686 31.7066 65.0735 31.7022C65.1784 31.6935 65.2877 31.6804 65.4013 31.6629C65.5193 31.6411 65.6373 31.6148 65.7552 31.5842C65.8732 31.5493 65.9803 31.5056 66.0764 31.4531C66.177 31.4007 66.2578 31.3395 66.319 31.2696C66.3802 31.1953 66.4129 31.1079 66.4173 31.0074C66.4217 30.837 66.3692 30.6447 66.26 30.4306C66.1551 30.2164 66.0109 29.9936 65.8273 29.7619C65.6482 29.526 65.4384 29.29 65.1981 29.054C64.9621 28.8136 64.7174 28.5842 64.4639 28.3657C64.2104 28.1428 63.957 27.9375 63.7035 27.7495C63.4501 27.5573 63.2163 27.3934 63.0021 27.2579L64.1624 25.5339C64.5863 25.8311 65.0058 26.1632 65.4209 26.5303C65.8405 26.8974 66.2272 27.2885 66.5812 27.7037C66.9352 28.1144 67.2411 28.5405 67.4989 28.9819C67.7567 29.4233 67.9424 29.8646 68.0561 30.306C68.091 30.4327 68.1151 30.5617 68.1282 30.6928C68.1413 30.8195 68.1478 30.9419 68.1478 31.0598C68.1478 31.4663 68.0692 31.8399 67.9119 32.1808C67.7545 32.5172 67.5338 32.81 67.2498 33.0591C66.9701 33.3039 66.6336 33.4939 66.2403 33.6294C65.847 33.7649 65.4144 33.8326 64.9424 33.8326C64.9075 33.8326 64.8725 33.8304 64.8375 33.8261C64.8026 33.8261 64.7676 33.8261 64.7327 33.8261C64.4311 33.8261 64.1209 33.7933 63.8018 33.7277C63.4872 33.6666 63.1747 33.5835 62.8645 33.4787C62.5586 33.3738 62.2592 33.2514 61.9664 33.1116C61.678 32.9717 61.4092 32.8253 61.1602 32.6724L62.0189 30.6993Z" fill="#303030"/>
<path d="M95.7637 7.59725C95.7637 7.45304 95.7921 7.31757 95.8489 7.19084C95.9013 7.06411 95.9756 6.95486 96.0718 6.86309C96.1635 6.76695 96.275 6.69265 96.4061 6.64021C96.5328 6.58777 96.6683 6.56155 96.8125 6.56155H98.071C98.779 6.56155 99.4279 6.52004 100.018 6.43701C100.612 6.34961 101.167 6.2338 101.683 6.08959C102.199 5.94538 102.686 5.77932 103.145 5.59141C103.608 5.39913 104.062 5.20029 104.508 4.9949C104.211 4.91187 103.912 4.80917 103.61 4.68681C103.313 4.56445 103.014 4.44646 102.712 4.33284C102.415 4.21922 102.118 4.12308 101.821 4.04442C101.523 3.96139 101.228 3.91987 100.936 3.91987C100.735 3.91987 100.538 3.97449 100.346 4.08375C100.153 4.193 99.9786 4.31754 99.8212 4.45738C99.6639 4.59722 99.5306 4.73488 99.4214 4.87035C99.3165 5.00145 99.251 5.09104 99.2247 5.13911L97.7105 4.16241C97.8766 3.86961 98.0732 3.58338 98.3005 3.3037C98.5277 3.02401 98.7768 2.77711 99.0478 2.56297C99.3231 2.34447 99.618 2.16967 99.9327 2.03857C100.252 1.90747 100.586 1.84192 100.936 1.84192C101.193 1.84192 101.451 1.87032 101.709 1.92714C101.967 1.97958 102.223 2.0495 102.476 2.1369C102.734 2.2243 102.987 2.32481 103.236 2.43843C103.486 2.54768 103.732 2.65912 103.977 2.77274C104.213 2.88199 104.447 2.99124 104.679 3.10049C104.915 3.20537 105.157 3.3037 105.406 3.39547C105.655 3.48287 105.913 3.55497 106.18 3.61178C106.446 3.66859 106.728 3.69918 107.025 3.70355L106.861 5.71595L105.931 6.1617C105.55 6.34524 105.172 6.53533 104.797 6.73199C104.421 6.92427 104.036 7.11218 103.643 7.29572C103.254 7.47489 102.852 7.64751 102.437 7.81357C102.026 7.97526 101.593 8.11729 101.139 8.23965C100.684 8.35764 100.204 8.45159 99.6967 8.52151C99.1898 8.5958 98.6479 8.63295 98.071 8.63295H96.8649H96.8125C96.6683 8.63295 96.5328 8.60454 96.4061 8.54773C96.275 8.49529 96.1635 8.42319 96.0718 8.33142C95.9756 8.23965 95.9013 8.1304 95.8489 8.00366C95.7921 7.87693 95.7637 7.74146 95.7637 7.59725ZM101.794 9.15735L103.25 10.6126L101.794 12.0678L100.339 10.6126L101.794 9.15735Z" fill="#303030"/>
<path d="M83.5859 7.59714C83.5859 7.46167 83.6143 7.33275 83.6712 7.21039C83.728 7.08803 83.8066 6.98096 83.9071 6.88919C84.0033 6.79305 84.1191 6.71657 84.2546 6.65976C84.3857 6.60295 84.5277 6.57018 84.6806 6.56144C84.9122 6.56144 85.1286 6.52429 85.3296 6.45C85.5306 6.37134 85.7207 6.22276 85.8999 6.00426C86.079 5.78576 86.2473 5.47767 86.4046 5.08C86.5619 4.68233 86.7127 4.16229 86.8569 3.5199L88.6005 3.76899C88.6137 3.71655 88.6049 3.74495 88.5743 3.8542C88.5481 3.96346 88.5153 4.11859 88.476 4.31961C88.441 4.51626 88.4061 4.73914 88.3711 4.98823C88.3405 5.23295 88.3252 5.46893 88.3252 5.69617C88.3296 5.91904 88.3558 6.11351 88.4039 6.27957C88.4563 6.44126 88.5459 6.5374 88.6727 6.56799C88.8081 6.60295 88.9392 6.57673 89.066 6.48933C89.1927 6.39756 89.3129 6.26865 89.4265 6.10259C89.5401 5.93215 89.645 5.7355 89.7411 5.51263C89.8373 5.28539 89.9247 5.05378 90.0033 4.8178C90.082 4.58181 90.1497 4.3502 90.2065 4.12296C90.2633 3.89572 90.307 3.6947 90.3376 3.5199L92.0682 3.76899C92.0594 3.87824 92.0441 4.02464 92.0223 4.20818C92.0004 4.38735 91.983 4.57963 91.9698 4.78502C91.9567 4.99041 91.9502 5.19799 91.9502 5.40775C91.9545 5.61314 91.9786 5.80105 92.0223 5.97148C92.066 6.13755 92.1337 6.2752 92.2255 6.38445C92.3173 6.48933 92.444 6.54177 92.6057 6.54177C92.7499 6.54177 92.8744 6.4937 92.9793 6.39756C93.0842 6.30142 93.1716 6.17688 93.2415 6.02393C93.3158 5.8666 93.3748 5.68962 93.4185 5.49297C93.4622 5.29194 93.495 5.08874 93.5168 4.88335C93.5387 4.67796 93.5496 4.47912 93.5496 4.28684C93.5496 4.09019 93.5431 3.91757 93.5299 3.76899L95.2998 3.5199L95.5161 5.36842C95.5423 5.56944 95.5992 5.74424 95.6866 5.89282C95.774 6.04141 95.8767 6.16595 95.9946 6.26646C96.1126 6.3626 96.2372 6.43689 96.3683 6.48933C96.4994 6.5374 96.6239 6.56144 96.7419 6.56144H96.8206C96.9823 6.56144 97.1287 6.58766 97.2598 6.6401C97.3952 6.69254 97.511 6.76683 97.6072 6.86297C97.7033 6.95474 97.7776 7.06399 97.8301 7.19072C97.8825 7.31745 97.9087 7.45293 97.9087 7.59714C97.9087 7.74135 97.8825 7.87682 97.8301 8.00355C97.7776 8.13028 97.7011 8.23953 97.6006 8.3313C97.5045 8.42307 97.3821 8.49518 97.2335 8.54762C97.0893 8.60443 96.9255 8.63283 96.7419 8.63283C96.318 8.63283 95.9182 8.55854 95.5423 8.40996C95.1665 8.26138 94.841 8.0101 94.5656 7.65613C94.5394 7.69109 94.5132 7.72168 94.487 7.7479C94.4608 7.77412 94.4367 7.80034 94.4149 7.82656V7.82001C94.1789 8.0691 93.9058 8.26575 93.5955 8.40996C93.2896 8.55854 92.9597 8.63283 92.6057 8.63283C92.208 8.63283 91.8409 8.54762 91.5044 8.37719C91.1723 8.20676 90.8948 7.97514 90.6719 7.68235C90.4097 7.97077 90.1126 8.20457 89.7805 8.38374C89.4483 8.56291 89.0834 8.6525 88.6858 8.6525C88.3143 8.6525 87.9691 8.56947 87.6501 8.40341C87.3311 8.23735 87.0667 8.0101 86.8569 7.72168C86.6209 8.04943 86.3281 8.28323 85.9785 8.42307C85.6333 8.56291 85.205 8.63283 84.6937 8.63283C84.5277 8.63283 84.3769 8.60443 84.2414 8.54762C84.106 8.49518 83.9902 8.42307 83.894 8.3313C83.7979 8.23953 83.7236 8.13028 83.6712 8.00355C83.6143 7.87682 83.5859 7.74135 83.5859 7.59714Z" fill="#303030"/>
<path d="M77.9072 7.5973C77.9072 7.45309 77.9334 7.31762 77.9859 7.19089C78.0383 7.06416 78.1126 6.9549 78.2088 6.86313C78.3005 6.76699 78.4098 6.6927 78.5365 6.64026C78.6632 6.58782 78.7987 6.5616 78.9429 6.5616H79.4411C79.7557 6.5616 80.0573 6.54849 80.3457 6.52227C80.6385 6.49605 80.8963 6.44143 81.1192 6.3584C81.3421 6.27099 81.5212 6.15082 81.6567 5.99787C81.7966 5.84055 81.8708 5.63297 81.8796 5.37514C81.884 5.279 81.884 5.20034 81.8796 5.13916C81.8796 5.07361 81.8687 4.99713 81.8468 4.90973C81.825 4.81796 81.7922 4.69997 81.7485 4.55576C81.7092 4.40718 81.6523 4.1996 81.5781 3.93303L83.4856 3.39551C83.5686 3.60528 83.6451 3.88277 83.715 4.228C83.7849 4.57324 83.8374 4.95124 83.8723 5.36203C83.8811 5.49313 83.8964 5.6286 83.9182 5.76844C83.9401 5.90828 83.975 6.0372 84.0231 6.15519C84.0755 6.27318 84.1454 6.37151 84.2328 6.45017C84.3202 6.52446 84.4339 6.5616 84.5737 6.5616C84.7179 6.5616 84.8534 6.58782 84.9801 6.64026C85.1069 6.6927 85.2161 6.76699 85.3079 6.86313C85.404 6.9549 85.4783 7.06416 85.5307 7.19089C85.5876 7.31762 85.616 7.45309 85.616 7.5973C85.616 7.74151 85.5876 7.87698 85.5307 8.00371C85.4783 8.13044 85.404 8.23969 85.3079 8.33146C85.2117 8.42761 85.1003 8.5019 84.9736 8.55434C84.8512 8.60678 84.7201 8.633 84.5803 8.633C84.1607 8.633 83.8002 8.56745 83.4987 8.43635C83.2015 8.30961 82.9459 8.14355 82.7317 7.93816C82.5351 8.06926 82.3078 8.17851 82.05 8.26591C81.7966 8.35331 81.5256 8.42324 81.2372 8.47568C80.9488 8.53249 80.6516 8.57182 80.3457 8.59367C80.0398 8.61989 79.7383 8.633 79.4411 8.633H78.9429C78.7987 8.633 78.6632 8.60678 78.5365 8.55434C78.4098 8.5019 78.3005 8.42761 78.2088 8.33146C78.1126 8.23969 78.0383 8.13044 77.9859 8.00371C77.9334 7.87698 77.9072 7.74151 77.9072 7.5973ZM84.4164 1.27823L83.1578 2.54336L81.9124 1.2979L80.68 2.53025L79.4083 1.26512L80.6669 0L81.9124 1.24546L83.1447 0.0131095L84.4164 1.27823Z" fill="#303030"/>
<path d="M67.0518 7.60385C67.0518 7.46401 67.0802 7.33072 67.137 7.20399C67.1894 7.07726 67.2637 6.96801 67.3598 6.87624C67.4516 6.7801 67.5609 6.70362 67.6876 6.64681C67.8143 6.59 67.9498 6.5616 68.094 6.5616H69.2936C69.7743 6.5616 70.2921 6.51571 70.8471 6.42394C71.4021 6.3278 71.9571 6.20326 72.5121 6.0503C73.0715 5.89735 73.6112 5.72692 74.1312 5.53901C74.6556 5.34673 75.1254 5.15226 75.5405 4.95561C75.2696 4.89006 74.9681 4.79829 74.6359 4.6803C74.3038 4.56231 73.9673 4.4465 73.6265 4.33288C73.2856 4.21926 72.9535 4.12312 72.6301 4.04446C72.3111 3.96143 72.0249 3.9221 71.7714 3.92647C71.6097 3.93084 71.4524 3.9658 71.2994 4.03135C71.1508 4.09253 71.011 4.17119 70.8799 4.26733C70.7532 4.3591 70.6374 4.45961 70.5325 4.56886C70.432 4.67375 70.3446 4.77426 70.2703 4.8704C70.196 4.96217 70.137 5.04083 70.0933 5.10638C70.054 5.16756 70.0343 5.19815 70.0343 5.19815L68.4808 4.30666C68.6556 3.98328 68.8653 3.67301 69.11 3.37585C69.3548 3.07431 69.6213 2.80993 69.9098 2.58268C70.1982 2.35107 70.4997 2.16753 70.8144 2.03206C71.1334 1.89659 71.4524 1.83104 71.7714 1.83541C72.0074 1.83978 72.2412 1.86819 72.4728 1.92063C72.7088 1.97307 72.9447 2.0408 73.1807 2.12383C73.4167 2.20249 73.6549 2.29645 73.8952 2.4057C74.1356 2.51058 74.3781 2.61983 74.6228 2.73345C74.8719 2.85581 75.1472 2.97599 75.4488 3.09398C75.7547 3.21197 76.0715 3.31685 76.3993 3.40862C76.7314 3.50039 77.0679 3.57468 77.4087 3.63149C77.754 3.6883 78.0905 3.71671 78.4182 3.71671L78.0773 5.65045C77.9768 5.69415 77.8632 5.74659 77.7365 5.80777C77.6141 5.86458 77.5049 5.91702 77.4087 5.96509L77.2383 6.0503C77.3388 6.1683 77.4655 6.26225 77.6185 6.33217C77.7758 6.40209 77.9353 6.45453 78.097 6.48949C78.2631 6.52008 78.4204 6.53975 78.569 6.54849C78.7219 6.55723 78.8421 6.5616 78.9295 6.5616H79.0213C79.1655 6.5616 79.301 6.59 79.4277 6.64681C79.5544 6.70362 79.6637 6.7801 79.7554 6.87624C79.8516 6.96801 79.9259 7.07726 79.9783 7.20399C80.0351 7.33072 80.0635 7.46401 80.0635 7.60385C80.0635 7.74806 80.0351 7.88353 79.9783 8.01026C79.9259 8.13699 79.8516 8.24625 79.7554 8.33802C79.6637 8.42979 79.5544 8.50189 79.4277 8.55433C79.301 8.60677 79.1655 8.63299 79.0213 8.63299H78.9295C78.51 8.63299 78.1145 8.59585 77.743 8.52156C77.376 8.44727 77.0395 8.3402 76.7336 8.20036C76.432 8.05615 76.1633 7.88353 75.9273 7.68251C75.6913 7.47712 75.4968 7.24551 75.3439 6.98768C74.9113 7.19744 74.4611 7.40283 73.9936 7.60385C73.526 7.8005 73.0409 7.9753 72.5383 8.12825C72.0358 8.28121 71.5136 8.40357 70.9717 8.49534C70.4342 8.59148 69.8748 8.63955 69.2936 8.63955L68.094 8.63299C67.9498 8.63299 67.8143 8.60677 67.6876 8.55433C67.5609 8.50189 67.4516 8.42979 67.3598 8.33802C67.2637 8.24625 67.1894 8.13699 67.137 8.01026C67.0802 7.88353 67.0518 7.74806 67.0518 7.60385ZM73.2266 9.14429L74.6818 10.5995L73.2266 12.0547L71.7714 10.5995L73.2266 9.14429Z" fill="#303030"/>
<path d="M61.4453 11.2353C62.0615 11.1129 62.6187 10.9578 63.1168 10.7699C63.6194 10.5863 64.0586 10.3787 64.4344 10.1471C64.8146 9.91989 65.1271 9.67736 65.3718 9.41953C65.6165 9.16169 65.7913 8.89949 65.8962 8.63292C65.7083 8.63292 65.5182 8.62855 65.3259 8.61981C65.1336 8.61544 64.9697 8.60888 64.8343 8.60014C64.3273 8.55644 63.8641 8.44282 63.4446 8.25928C63.0251 8.08011 62.6908 7.83539 62.4417 7.52512C62.2581 7.28913 62.127 7.03349 62.0484 6.75818C61.9741 6.48286 61.9369 6.19226 61.9369 5.88635C61.9369 5.65037 61.9588 5.41439 62.0025 5.17841C62.0462 4.93806 62.1074 4.70645 62.186 4.48358C62.2647 4.25633 62.3565 4.0422 62.4613 3.84118C62.5706 3.64016 62.6864 3.45662 62.8088 3.29056C63.071 2.9628 63.3572 2.7159 63.6675 2.54984C63.9821 2.3794 64.3121 2.29419 64.6573 2.29419C65.3958 2.29419 66.0623 2.61757 66.6566 3.26434C66.8401 3.46973 67.0062 3.69697 67.1548 3.94606C67.3033 4.19515 67.4344 4.46172 67.5481 4.74578C67.6617 5.02546 67.7535 5.31825 67.8234 5.62415C67.8977 5.93006 67.9479 6.24251 67.9741 6.56152H68.0987C68.2429 6.56152 68.3784 6.58774 68.5051 6.64018C68.6318 6.69263 68.7411 6.76692 68.8329 6.86306C68.929 6.95483 69.0055 7.06408 69.0623 7.19081C69.1191 7.31754 69.1475 7.4552 69.1475 7.60378C69.1475 7.74362 69.1191 7.8769 69.0623 8.00364C69.0055 8.126 68.929 8.23306 68.8329 8.32483C68.7411 8.42097 68.6318 8.49526 68.5051 8.5477C68.3784 8.60452 68.2429 8.63292 68.0987 8.63292H67.8103C67.6398 9.27531 67.3667 9.85653 66.9909 10.3766C66.6194 10.8966 66.1737 11.3511 65.6537 11.74C65.138 12.1289 64.5611 12.4501 63.9231 12.7036C63.2895 12.9571 62.6252 13.1384 61.9304 13.2477L61.4453 11.2353ZM64.6573 4.37214C64.5611 4.37214 64.4541 4.41584 64.3361 4.50324C64.2225 4.58627 64.1154 4.69334 64.0149 4.82444C63.9144 4.95554 63.8292 5.10193 63.7592 5.26363C63.6937 5.42532 63.6609 5.58264 63.6609 5.73559C63.6609 5.88417 63.7024 6.00653 63.7855 6.10267C63.8685 6.19881 63.9734 6.27747 64.1001 6.33865C64.2312 6.39546 64.3732 6.43916 64.5262 6.46975C64.6791 6.49597 64.8277 6.51564 64.9719 6.52875C65.0506 6.53749 65.1358 6.54404 65.2276 6.54841C65.3237 6.54841 65.422 6.54841 65.5226 6.54841C65.6231 6.54841 65.7214 6.5506 65.8175 6.55497C65.918 6.55497 66.0098 6.55715 66.0928 6.56152C66.0623 6.34739 66.0142 6.14637 65.9486 5.95846C65.8831 5.77055 65.8088 5.59575 65.7258 5.43406C65.6471 5.27237 65.5597 5.12815 65.4636 5.00142C65.3718 4.87032 65.2822 4.7567 65.1948 4.66056C65.1642 4.62997 65.1249 4.5972 65.0768 4.56224C65.0331 4.52727 64.9872 4.49669 64.9392 4.47046C64.8911 4.43987 64.8408 4.41584 64.7884 4.39836C64.7403 4.38088 64.6966 4.37214 64.6573 4.37214Z" fill="#303030"/>
</svg>
