<svg width="96" height="46" viewBox="0 0 96 46" fill="none" xmlns="http://www.w3.org/2000/svg">
<path d="M32.3196 36.2708C32.2165 35.2273 31.3999 34.4155 30.334 34.2964L20.9918 33.2661C20.6993 33.2425 20.4062 33.3028 20.1468 33.44C19.8874 33.5771 19.6725 33.7855 19.5274 34.0405C19.5265 34.0414 18.6649 35.5798 18.2365 36.3167C18.1117 36.5318 18.0774 36.7876 18.1412 37.028C18.205 37.2683 18.3617 37.4735 18.5768 37.5983C18.7919 37.7231 19.0477 37.7574 19.2881 37.6935C19.5284 37.6297 19.7335 37.473 19.8584 37.258C20.1968 36.6739 20.8052 35.5948 21.0499 35.1589L30.1277 36.1602C30.2177 36.1705 30.4296 36.2183 30.4502 36.4086L30.4624 36.6036C30.4868 36.8942 30.4849 37.1839 30.4596 37.4661C30.1793 40.4258 27.4737 42.9523 24.4296 43.0967C18.0387 43.408 12.2627 41.263 8.1396 37.0817C4.05492 32.9398 2.01585 27.2023 2.40023 20.9267C2.58492 17.9098 5.16023 15.2577 8.1396 15.0158C8.42367 14.9942 8.71617 14.9952 9.01054 15.0233L9.15867 15.0336C9.39023 15.0589 9.44367 15.2464 9.45398 15.3542L10.3427 24.3655C9.89648 24.6027 8.81648 25.1764 8.2221 25.497C8.00848 25.618 7.85081 25.8179 7.78297 26.0538C7.71512 26.2897 7.74252 26.5428 7.85926 26.7587C7.97601 26.9747 8.17279 27.1362 8.40734 27.2086C8.64189 27.2811 8.89549 27.2586 9.11367 27.1461C9.87023 26.7364 11.4218 25.9152 11.4255 25.9133C11.9618 25.6264 12.2805 25.0564 12.2337 24.4395L11.3187 15.1677C11.2118 14.1045 10.4065 13.2833 9.36023 13.1689L9.18304 13.1548C8.78556 13.1185 8.38573 13.1153 7.98773 13.1455C4.11398 13.4605 0.768042 16.8992 0.528042 20.8105C0.110854 27.6261 2.34023 33.8717 6.80367 38.398C11.029 42.6805 16.8265 44.9998 23.2409 44.9998C23.6637 44.9998 24.0893 44.9895 24.5177 44.9698C28.458 44.7823 31.9596 41.4955 32.3252 37.6414C32.3618 37.2505 32.3637 36.8492 32.329 36.4217L32.3196 36.2708Z" fill="#303030"/>
<path d="M8.8098 28.2178C8.69879 28.2711 8.59937 28.3458 8.51724 28.4376C8.4351 28.5294 8.37185 28.6365 8.33111 28.7527C8.29036 28.8689 8.27292 28.992 8.27977 29.115C8.28663 29.238 8.31765 29.3584 8.37106 29.4694C9.15703 31.1083 10.2116 32.6043 11.4911 33.8953C12.8017 35.2178 14.3299 36.3052 16.0089 37.11C16.2326 37.218 16.4902 37.2327 16.7248 37.1509C16.9594 37.0691 17.1519 36.8974 17.26 36.6736C17.368 36.4498 17.3827 36.1923 17.3009 35.9577C17.219 35.723 17.0473 35.5305 16.8236 35.4225C13.8628 34.0059 11.4762 31.6186 10.0604 28.6575C10.0075 28.5463 9.93302 28.4466 9.8414 28.3642C9.74978 28.2819 9.64278 28.2184 9.52655 28.1776C9.41033 28.1367 9.28717 28.1192 9.16416 28.1261C9.04116 28.133 8.92073 28.1642 8.8098 28.2178ZM25.7917 0C18.7848 0 12.2514 3.77062 8.73949 9.84187C8.6737 9.94852 8.62995 10.0673 8.61083 10.1911C8.59171 10.315 8.59762 10.4414 8.6282 10.5629C8.65878 10.6844 8.71341 10.7986 8.78886 10.8986C8.86431 10.9987 8.95905 11.0826 9.06749 11.1454C9.17592 11.2082 9.29585 11.2486 9.42018 11.2643C9.5445 11.2799 9.67071 11.2705 9.79133 11.2366C9.91195 11.2026 10.0245 11.1448 10.1225 11.0666C10.2204 10.9884 10.3016 10.8914 10.3614 10.7812C13.5404 5.2875 19.4514 1.875 25.7917 1.875C35.6139 1.875 43.6042 9.86531 43.6042 19.6875C43.6042 26.0269 40.1907 31.9387 34.697 35.1169C34.5869 35.1766 34.4898 35.2579 34.4116 35.3558C34.3334 35.4537 34.2756 35.5663 34.2417 35.6869C34.2077 35.8075 34.1983 35.9337 34.214 36.0581C34.2296 36.1824 34.2701 36.3023 34.3329 36.4108C34.3957 36.5192 34.4796 36.6139 34.5796 36.6894C34.6797 36.7648 34.7938 36.8195 34.9153 36.85C35.0369 36.8806 35.1633 36.8865 35.2871 36.8674C35.411 36.8483 35.5297 36.8045 35.6364 36.7387C41.7076 33.2278 45.4792 26.6944 45.4792 19.6875C45.4792 8.83219 36.647 0 25.7917 0Z" fill="#303030"/>
<path d="M25.1986 17.0174C25.4986 16.4342 25.6486 15.8764 25.6486 15.3439C25.6486 14.4261 25.3495 13.7071 24.7514 13.1867C24.1532 12.6664 23.3367 12.4067 22.3017 12.4067C21.5836 12.4067 20.9507 12.5511 20.4014 12.8389C19.852 13.1277 19.4301 13.5308 19.1339 14.0511C18.8376 14.5714 18.6904 15.1564 18.6904 15.8052H20.4698C20.4698 15.1949 20.6282 14.7139 20.9461 14.3624C21.2639 14.0108 21.7101 13.8355 22.2867 13.8355C22.7704 13.8355 23.1548 13.992 23.4398 14.3042C23.7257 14.6164 23.8682 15.0271 23.8682 15.5342C23.8682 15.9205 23.7595 16.3049 23.542 16.6874C23.3254 17.0708 22.9598 17.548 22.447 18.1189L18.8948 21.9936V23.217H26.0648V21.7967H21.1139L23.7211 19.0058C24.4073 18.2633 24.8986 17.6005 25.1986 17.0174ZM34.7676 19.4155H33.442V12.553H31.6036L27.0042 19.7605L27.0557 20.8442H31.6626V23.217H33.442V20.8442H34.7676V19.4155ZM31.6626 19.4155H28.8717L31.5304 15.1967L31.6626 14.9624V19.4155Z" fill="#303030"/>
<path d="M69.1953 15.3652C69.1061 15.3652 68.9803 15.3591 68.8179 15.347C68.6556 15.3348 68.4811 15.2901 68.2945 15.213C68.2052 15.7162 68.0368 16.193 67.7893 16.6435C67.5458 17.098 67.2435 17.522 66.8823 17.9157C66.5211 18.3133 66.1093 18.6786 65.6466 19.0113C65.184 19.3441 64.691 19.6423 64.1675 19.9061L63.0536 18.3661C63.3417 18.22 63.6319 18.0597 63.924 17.8852C64.2162 17.7148 64.4942 17.5322 64.7579 17.3374C65.0258 17.1467 65.2733 16.9458 65.5006 16.7348C65.7319 16.5278 65.9327 16.3128 66.1032 16.0896C66.2736 15.8664 66.4075 15.6371 66.5049 15.4017C66.6023 15.1704 66.651 14.9351 66.651 14.6957C66.651 14.6835 66.649 14.6652 66.6449 14.6409C66.6449 14.6165 66.6449 14.5922 66.6449 14.5678C66.6449 14.5435 66.6429 14.5252 66.6388 14.513C66.6388 14.5009 66.6388 14.5029 66.6388 14.5191V14.5252C66.6104 14.2899 66.5698 14.0646 66.5171 13.8496C66.4643 13.6345 66.3974 13.4154 66.3162 13.1922C66.2391 12.969 66.1478 12.7357 66.0423 12.4922C65.9368 12.2446 65.8191 11.9748 65.6893 11.6826L67.4484 10.9157C67.6107 11.4026 67.7629 11.8084 67.9049 12.133C68.0469 12.4577 68.1849 12.7174 68.3188 12.9122C68.4568 13.107 68.5948 13.2449 68.7327 13.3261C68.8707 13.4032 69.0168 13.4417 69.171 13.4417H69.2014C69.3353 13.4417 69.4611 13.4681 69.5788 13.5209C69.6965 13.5736 69.7979 13.6446 69.8832 13.7339C69.9724 13.8191 70.0414 13.9206 70.0901 14.0383C70.1429 14.1559 70.1693 14.2797 70.1693 14.4096C70.1693 14.5435 70.1429 14.6693 70.0901 14.787C70.0414 14.9046 69.9724 15.0061 69.8832 15.0913C69.7979 15.1765 69.6965 15.2435 69.5788 15.2922C69.4611 15.3409 69.3333 15.3652 69.1953 15.3652ZM66.4988 7.2513L67.8501 8.60261L66.4988 9.95391L65.1475 8.60261L66.4988 7.2513ZM68.0804 14.4096C68.0804 14.2716 68.1047 14.1438 68.1534 14.0261C68.2021 13.9084 68.2731 13.807 68.3664 13.7217C68.4557 13.6325 68.5633 13.5635 68.6891 13.5148C68.8108 13.4661 68.9488 13.4417 69.103 13.4417H69.4438H69.7421C69.9612 13.4417 70.2027 13.4397 70.4664 13.4357C70.7302 13.4275 70.9838 13.4072 71.2273 13.3748C71.4748 13.3383 71.696 13.2855 71.8908 13.2165C72.0896 13.1475 72.2337 13.0522 72.323 12.9304C72.4447 12.7438 72.5056 12.5307 72.5056 12.2913C72.5056 12.2101 72.4975 12.129 72.4812 12.0478C72.4691 11.9626 72.4528 11.8754 72.4325 11.7861C72.4041 11.6846 72.3433 11.5629 72.2499 11.4209C72.1606 11.2748 72.045 11.1165 71.903 10.9461C71.7609 10.7716 71.5986 10.589 71.416 10.3983C71.2334 10.2035 71.0386 10.0067 70.8317 9.80783C70.6247 9.60493 70.4076 9.40406 70.1804 9.20522C69.9531 9.00638 69.7259 8.81362 69.4986 8.62696L69.6873 6.9713L74.8004 4.69478L75.5369 6.32609L71.4951 8.20087C71.694 8.33884 71.8989 8.50319 72.1099 8.69391C72.3209 8.88464 72.5259 9.09362 72.7247 9.32087C72.9235 9.54406 73.1102 9.78145 73.2847 10.033C73.4592 10.2846 73.6114 10.5423 73.7412 10.8061C73.8711 11.0699 73.9725 11.3357 74.0456 11.6035C74.1227 11.8713 74.1592 12.133 74.1551 12.3887C74.1511 12.693 74.1105 12.9771 74.0334 13.2409C73.9563 13.5006 73.8609 13.7339 73.7473 13.9409C73.3253 14.6957 72.6293 15.1562 71.6595 15.3226L71.6656 15.3165C71.556 15.3368 71.4525 15.351 71.3551 15.3591C71.2577 15.3672 71.1624 15.3713 71.0691 15.3713L69.103 15.3652C68.9528 15.3652 68.8148 15.3409 68.6891 15.2922C68.5633 15.2435 68.4557 15.1745 68.3664 15.0852C68.2772 15 68.2082 14.9006 68.1595 14.787C68.1067 14.6693 68.0804 14.5435 68.0804 14.4096ZM79.9004 15.3652C79.8111 15.3652 79.6853 15.3591 79.523 15.347C79.3607 15.3348 79.1862 15.2901 78.9995 15.213C78.9103 15.7162 78.7419 16.193 78.4943 16.6435C78.2509 17.098 77.9485 17.522 77.5874 17.9157C77.2262 18.3133 76.8143 18.6786 76.3517 19.0113C75.8891 19.3441 75.3961 19.6423 74.8726 19.9061L73.7587 18.3661C74.0468 18.22 74.3369 18.0597 74.6291 17.8852C74.9213 17.7148 75.1993 17.5322 75.463 17.3374C75.7309 17.1467 75.9784 16.9458 76.2056 16.7348C76.4369 16.5278 76.6378 16.3128 76.8082 16.0896C76.9787 15.8664 77.1126 15.6371 77.21 15.4017C77.3074 15.1704 77.3561 14.9351 77.3561 14.6957C77.3561 14.6835 77.354 14.6652 77.35 14.6409C77.35 14.6165 77.35 14.5922 77.35 14.5678C77.35 14.5435 77.348 14.5252 77.3439 14.513C77.3439 14.5009 77.3439 14.5029 77.3439 14.5191V14.5252C77.3155 14.2899 77.2749 14.0646 77.2222 13.8496C77.1694 13.6345 77.1024 13.4154 77.0213 13.1922C76.9442 12.969 76.8529 12.7357 76.7474 12.4922C76.6419 12.2446 76.5242 11.9748 76.3943 11.6826L78.1535 10.9157C78.3158 11.4026 78.468 11.8084 78.61 12.133C78.752 12.4577 78.89 12.7174 79.0239 12.9122C79.1619 13.107 79.2998 13.2449 79.4378 13.3261C79.5758 13.4032 79.7219 13.4417 79.8761 13.4417H79.9065C80.0404 13.4417 80.1662 13.4681 80.2839 13.5209C80.4016 13.5736 80.503 13.6446 80.5882 13.7339C80.6775 13.8191 80.7465 13.9206 80.7952 14.0383C80.848 14.1559 80.8743 14.2797 80.8743 14.4096C80.8743 14.5435 80.848 14.6693 80.7952 14.787C80.7465 14.9046 80.6775 15.0061 80.5882 15.0913C80.503 15.1765 80.4016 15.2435 80.2839 15.2922C80.1662 15.3409 80.0384 15.3652 79.9004 15.3652ZM78.892 14.4035C78.892 14.2696 78.9164 14.1458 78.965 14.0322C79.0137 13.9186 79.0807 13.8191 79.1659 13.7339C79.2511 13.6487 79.3526 13.5817 79.4703 13.533C79.5839 13.4803 79.7077 13.4499 79.8416 13.4417C80.1135 13.4417 80.3488 13.389 80.5477 13.2835C80.7506 13.178 80.9291 13.04 81.0833 12.8696C81.2375 12.6991 81.3755 12.5084 81.4972 12.2974C81.619 12.0864 81.7346 11.8754 81.8442 11.6643V11.6704C81.9497 11.4513 82.0613 11.2342 82.179 11.0191C82.3007 10.8041 82.4326 10.6052 82.5746 10.4226C82.7937 10.167 83.0393 9.97014 83.3111 9.83217C83.583 9.69014 83.8732 9.61913 84.1816 9.61913C84.5468 9.61913 84.8775 9.6942 85.1737 9.84435C85.474 9.99449 85.7459 10.2096 85.9894 10.4896C86.172 10.7087 86.3201 10.9603 86.4337 11.2443C86.5474 11.5243 86.6224 11.8226 86.659 12.1391V12.127C86.6833 12.2852 86.6955 12.4658 86.6955 12.6687C86.6955 12.8878 86.6752 13.1029 86.6346 13.3139C86.5981 13.5209 86.5453 13.7177 86.4764 13.9043C86.3424 14.2452 86.1497 14.5313 85.8981 14.7626C85.6506 14.9899 85.3807 15.1461 85.0885 15.2313C84.9911 15.2597 84.8937 15.278 84.7964 15.2861C84.703 15.2983 84.6036 15.3043 84.4981 15.3043C84.3155 15.3043 84.1207 15.282 83.9137 15.2374C83.7108 15.1928 83.51 15.1319 83.3111 15.0548C83.23 15.0183 83.1387 14.9757 83.0372 14.927C82.9358 14.8742 82.8282 14.8174 82.7146 14.7565C82.605 14.6957 82.4955 14.6328 82.3859 14.5678C82.2764 14.5029 82.1749 14.44 82.0816 14.3791C81.9193 14.5293 81.7569 14.6652 81.5946 14.787C81.4323 14.9087 81.2619 15.0122 81.0833 15.0974C80.9048 15.1826 80.714 15.2475 80.5111 15.2922C80.3082 15.3409 80.0871 15.3652 79.8477 15.3652C79.7137 15.3652 79.59 15.3388 79.4764 15.2861C79.3587 15.2374 79.2572 15.1704 79.172 15.0852C79.0827 15 79.0137 14.8986 78.965 14.7809C78.9164 14.6632 78.892 14.5374 78.892 14.4035ZM83.2077 12.8026C83.3335 12.8838 83.4816 12.9629 83.652 13.04C83.8265 13.1171 83.999 13.1861 84.1694 13.247C84.3398 13.3078 84.4961 13.3586 84.6381 13.3991C84.7842 13.4357 84.8937 13.4539 84.9668 13.4539C84.983 13.4539 84.9993 13.4539 85.0155 13.4539C85.0358 13.4499 85.0561 13.4458 85.0764 13.4417C85.125 13.4296 85.1717 13.3687 85.2164 13.2591C85.265 13.1455 85.2833 12.9913 85.2711 12.7965C85.2711 12.6667 85.2346 12.5246 85.1616 12.3704C85.0885 12.2122 84.9932 12.0661 84.8755 11.9322C84.7578 11.7942 84.6219 11.6806 84.4677 11.5913C84.3175 11.498 84.1633 11.4513 84.005 11.4513C83.9482 11.4513 83.8752 11.5325 83.7859 11.6948C83.6966 11.8571 83.5668 12.0986 83.3964 12.4191V12.413L83.2077 12.8026ZM59.0108 38.3652C58.9905 38.3652 58.9337 38.3612 58.8403 38.353C58.7511 38.349 58.6395 38.3368 58.5056 38.3165C58.3757 38.2962 58.2276 38.2638 58.0612 38.2191C57.8989 38.1745 57.7345 38.1136 57.5682 38.0365C57.1258 37.8255 56.7829 37.5374 56.5395 37.1722C56.296 36.8029 56.1742 36.3748 56.1742 35.8878C56.1742 35.0762 56.5334 34.2342 57.2516 33.3617C57.3084 33.2928 57.3551 33.2359 57.3916 33.1913C57.4322 33.1467 57.4687 33.1061 57.5012 33.0696C57.5337 33.033 57.5641 33.0006 57.5925 32.9722C57.625 32.9397 57.6615 32.9032 57.7021 32.8626C57.6534 32.822 57.6047 32.7835 57.556 32.747C57.5113 32.7104 57.4728 32.6759 57.4403 32.6435L57.3308 32.5461L58.5421 31.067C58.749 31.2212 58.9966 31.4301 59.2847 31.6939C59.5728 31.9536 59.9056 32.2864 60.2829 32.6922C61.334 33.8893 61.8595 34.9545 61.8595 35.8878C61.8595 36.3667 61.7438 36.7907 61.5125 37.16C61.2853 37.5293 60.9687 37.8194 60.5629 38.0304C60.4209 38.0994 60.2748 38.1542 60.1247 38.1948C59.9786 38.2394 59.8366 38.2739 59.6986 38.2983C59.5606 38.3226 59.4308 38.3388 59.309 38.347C59.1913 38.3591 59.0919 38.3652 59.0108 38.3652ZM60.1916 35.8878C60.1916 35.762 60.1511 35.62 60.0699 35.4617C59.9887 35.3035 59.8812 35.1391 59.7473 34.9687C59.6174 34.7942 59.4713 34.6197 59.309 34.4452C59.1467 34.2667 58.9844 34.0962 58.8221 33.9339C58.7125 34.0557 58.5969 34.1936 58.4751 34.3478C58.3534 34.498 58.2418 34.6583 58.1403 34.8287C58.0389 34.9991 57.9557 35.1757 57.8908 35.3583C57.8258 35.5368 57.7974 35.7133 57.8056 35.8878C57.8096 35.9852 57.8563 36.0704 57.9456 36.1435C58.0348 36.2165 58.1403 36.2754 58.2621 36.32C58.3879 36.3646 58.5198 36.3991 58.6577 36.4235C58.7957 36.4438 58.9134 36.4539 59.0108 36.4539C59.1325 36.4539 59.2624 36.4458 59.4003 36.4296C59.5424 36.4093 59.6702 36.3768 59.7838 36.3322C59.9015 36.2875 59.9989 36.2287 60.076 36.1557C60.1531 36.0826 60.1916 35.9933 60.1916 35.8878ZM65.4313 33.9035C65.5855 34.3417 65.7194 34.7699 65.8331 35.1878C65.8818 35.3704 65.9304 35.5612 65.9791 35.76C66.0278 35.9548 66.0704 36.1516 66.107 36.3504C66.1475 36.5452 66.18 36.738 66.2044 36.9287C66.2287 37.1154 66.2409 37.2899 66.2409 37.4522C66.2409 37.8336 66.1881 38.2049 66.0826 38.5661C65.9812 38.9313 65.8351 39.2843 65.6444 39.6252C65.4577 39.9661 65.2345 40.2928 64.9748 40.6052C64.7151 40.9217 64.427 41.218 64.1104 41.4939C63.7939 41.7699 63.4551 42.0255 63.0939 42.2609C62.7328 42.5003 62.3594 42.7154 61.9739 42.9061L60.8661 41.3661C61.1583 41.22 61.4545 41.0536 61.7548 40.867C62.051 40.6843 62.3351 40.4875 62.607 40.2765C62.8829 40.0655 63.1386 39.8443 63.3739 39.613C63.6133 39.3817 63.8203 39.1464 63.9948 38.907C64.1733 38.6675 64.3133 38.4241 64.4148 38.1765C64.5162 37.933 64.567 37.6936 64.567 37.4583C64.567 37.2878 64.5426 37.1032 64.4939 36.9043C64.4493 36.7055 64.3864 36.4925 64.3052 36.2652C64.2281 36.0339 64.1348 35.7904 64.0252 35.5348C63.9157 35.2751 63.798 34.9991 63.6722 34.707L65.4313 33.9035ZM69.5066 34.4087C69.4213 34.3925 69.324 34.4229 69.2144 34.5C69.1089 34.573 69.0074 34.6745 68.91 34.8043C68.8167 34.9301 68.7376 35.0701 68.6726 35.2243C68.6118 35.3786 68.5813 35.5267 68.5813 35.6687C68.5813 35.8026 68.6199 35.9142 68.697 36.0035C68.7741 36.0928 68.8715 36.1658 68.9892 36.2226C69.1109 36.2794 69.2428 36.322 69.3848 36.3504C69.5309 36.3788 69.6709 36.3991 69.8048 36.4113H69.7987C69.9042 36.4194 70.024 36.4255 70.1579 36.4296C70.2958 36.4296 70.4297 36.4296 70.5596 36.4296C70.6002 36.4296 70.6306 36.4316 70.6509 36.4357C70.6753 36.4357 70.6955 36.4357 70.7118 36.4357C70.728 36.4357 70.7442 36.4357 70.7605 36.4357C70.7808 36.4357 70.8092 36.4336 70.8457 36.4296C70.7848 36.178 70.7118 35.9386 70.6266 35.7113C70.5454 35.48 70.45 35.273 70.3405 35.0904C70.2309 34.9078 70.1071 34.7577 69.9692 34.64C69.8312 34.5183 69.677 34.4412 69.5066 34.4087ZM66.524 40.7817C67.0961 40.6681 67.6176 40.5241 68.0883 40.3496C68.559 40.1791 68.9709 39.9864 69.324 39.7713C69.6811 39.5603 69.9753 39.3351 70.2066 39.0957C70.4419 38.8562 70.6083 38.6128 70.7057 38.3652C70.5312 38.3652 70.3466 38.3612 70.1518 38.353C69.957 38.349 69.7967 38.3429 69.6709 38.3348C69.2002 38.2942 68.77 38.1887 68.3805 38.0183C67.9909 37.8519 67.6805 37.6246 67.4492 37.3365C67.2787 37.1174 67.157 36.88 67.084 36.6243C67.015 36.3687 66.9805 36.0988 66.9805 35.8148C66.9805 35.5957 67.0008 35.3765 67.0413 35.1574C67.0819 34.9342 67.1387 34.7191 67.2118 34.5122C67.2848 34.3012 67.37 34.1023 67.4674 33.9157C67.5689 33.729 67.6764 33.5586 67.79 33.4043C68.0335 33.1 68.2993 32.8707 68.5874 32.7165C68.8796 32.5583 69.186 32.4791 69.5066 32.4791C70.1924 32.4791 70.8112 32.7794 71.3631 33.38C71.5579 33.5991 71.7324 33.8446 71.8866 34.1165C72.0408 34.3884 72.1706 34.6786 72.2761 34.987C72.3857 35.2913 72.4689 35.6119 72.5257 35.9487C72.5825 36.2814 72.6109 36.6203 72.6109 36.9652C72.6109 37.0707 72.6068 37.1762 72.5987 37.2817C72.5947 37.3872 72.5886 37.4867 72.5805 37.58C72.5318 38.0548 72.4242 38.4991 72.2579 38.913C72.0955 39.331 71.8845 39.7145 71.6248 40.0635C71.3692 40.4165 71.0709 40.7351 70.73 41.0191C70.3892 41.3072 70.0179 41.5588 69.6161 41.7739C69.2184 41.993 68.7964 42.1757 68.35 42.3217C67.9037 42.4678 67.4451 42.5774 66.9744 42.6504L66.524 40.7817ZM76.5624 38.3652C76.0633 38.3652 75.6351 38.3023 75.278 38.1765C74.9209 38.0548 74.6125 37.8661 74.3528 37.6104C74.1905 37.4481 74.0647 37.2777 73.9754 37.0991C73.8902 36.9206 73.8273 36.7461 73.7867 36.5757C73.7502 36.4012 73.7279 36.2368 73.7198 36.0826C73.7157 35.9284 73.7137 35.7965 73.7137 35.687V35.5957C73.7178 35.4455 73.7218 35.2304 73.7259 34.9504C73.734 34.6664 73.738 34.3336 73.738 33.9522C73.738 33.5707 73.736 33.1507 73.732 32.6922C73.7279 32.2336 73.7157 31.7771 73.6954 31.3226C73.6792 30.8641 73.6528 30.4238 73.6163 30.0017C73.5838 29.5797 73.5372 29.2125 73.4763 28.9L75.2963 28.3461C75.3491 28.6139 75.3917 28.9304 75.4241 29.2957C75.4566 29.6568 75.483 30.0362 75.5033 30.4339C75.5276 30.8316 75.5438 31.2313 75.552 31.633C75.5641 32.0348 75.5722 32.4081 75.5763 32.753C75.5804 33.0574 75.5682 33.3557 75.5398 33.6478C75.5154 33.9359 75.4951 34.22 75.4789 34.5C75.4627 34.7759 75.4627 35.0458 75.4789 35.3096C75.4992 35.5693 75.556 35.8229 75.6493 36.0704C75.6859 36.1638 75.7305 36.2348 75.7833 36.2835C75.8401 36.3322 75.905 36.3687 75.978 36.393C76.0511 36.4133 76.1302 36.4255 76.2154 36.4296C76.3047 36.4336 76.4021 36.4357 76.5076 36.4357H76.5624C76.6922 36.4357 76.816 36.462 76.9337 36.5148C77.0514 36.5675 77.1528 36.6386 77.238 36.7278C77.3273 36.813 77.3983 36.9145 77.4511 37.0322C77.5038 37.1499 77.5302 37.2736 77.5302 37.4035C77.5302 37.5374 77.5038 37.6632 77.4511 37.7809C77.3983 37.8986 77.3273 38 77.238 38.0852C77.1528 38.1745 77.0514 38.2435 76.9337 38.2922C76.816 38.3409 76.6922 38.3652 76.5624 38.3652ZM75.5727 37.4035C75.5727 37.2777 75.5991 37.158 75.6519 37.0443C75.7046 36.9307 75.7777 36.8313 75.871 36.7461C75.9603 36.6568 76.0678 36.5858 76.1936 36.533C76.3153 36.4803 76.4472 36.4499 76.5893 36.4417C76.8043 36.4417 77.0052 36.4072 77.1919 36.3383C77.3785 36.2652 77.5551 36.1272 77.7214 35.9243C77.8878 35.7214 78.044 35.4354 78.1901 35.0661C78.3362 34.6968 78.4762 34.2139 78.6101 33.6174L80.2293 33.8487C80.2414 33.8 80.2333 33.8264 80.2049 33.9278C80.1806 34.0293 80.1501 34.1733 80.1136 34.36C80.0811 34.5426 80.0487 34.7496 80.0162 34.9809C79.9878 35.2081 79.9736 35.4272 79.9736 35.6383C79.9777 35.8452 80.002 36.0258 80.0466 36.18C80.0953 36.3301 80.1785 36.4194 80.2962 36.4478C80.422 36.4803 80.5437 36.4559 80.6614 36.3748C80.7791 36.2896 80.8907 36.1699 80.9962 36.0157C81.1017 35.8574 81.1991 35.6748 81.2884 35.4678C81.3777 35.2568 81.4588 35.0417 81.5319 34.8226C81.6049 34.6035 81.6678 34.3884 81.7206 34.1774C81.7733 33.9664 81.8139 33.7797 81.8423 33.6174L83.4493 33.8487C83.4411 33.9501 83.4269 34.0861 83.4066 34.2565C83.3864 34.4229 83.3701 34.6014 83.358 34.7922C83.3458 34.9829 83.3397 35.1757 83.3397 35.3704C83.3437 35.5612 83.3661 35.7357 83.4066 35.8939C83.4472 36.0481 83.5101 36.1759 83.5953 36.2774C83.6806 36.3748 83.7982 36.4235 83.9484 36.4235C84.0823 36.4235 84.198 36.3788 84.2953 36.2896C84.3927 36.2003 84.4739 36.0846 84.5388 35.9426C84.6078 35.7965 84.6626 35.6322 84.7032 35.4496C84.7437 35.2629 84.7742 35.0742 84.7945 34.8835C84.8148 34.6928 84.8249 34.5081 84.8249 34.3296C84.8249 34.147 84.8188 33.9867 84.8066 33.8487L86.4501 33.6174L86.651 35.3339C86.6753 35.5206 86.7281 35.6829 86.8093 35.8209C86.8904 35.9588 86.9858 36.0745 87.0953 36.1678C87.2049 36.2571 87.3206 36.3261 87.4423 36.3748C87.564 36.4194 87.6797 36.4417 87.7893 36.4417H87.8623C88.0124 36.4417 88.1484 36.4661 88.2701 36.5148C88.3959 36.5635 88.5035 36.6325 88.5927 36.7217C88.682 36.807 88.751 36.9084 88.7997 37.0261C88.8484 37.1438 88.8727 37.2696 88.8727 37.4035C88.8727 37.5374 88.8484 37.6632 88.7997 37.7809C88.751 37.8986 88.68 38 88.5866 38.0852C88.4974 38.1704 88.3837 38.2374 88.2458 38.2861C88.1119 38.3388 87.9597 38.3652 87.7893 38.3652C87.3956 38.3652 87.0243 38.2962 86.6753 38.1583C86.3264 38.0203 86.024 37.787 85.7684 37.4583C85.744 37.4907 85.7197 37.5191 85.6953 37.5435C85.671 37.5678 85.6487 37.5922 85.6284 37.6165V37.6104C85.4093 37.8417 85.1556 38.0243 84.8675 38.1583C84.5835 38.2962 84.2771 38.3652 83.9484 38.3652C83.5791 38.3652 83.2382 38.2861 82.9258 38.1278C82.6174 37.9696 82.3597 37.7545 82.1527 37.4826C81.9093 37.7504 81.6333 37.9675 81.3249 38.1339C81.0165 38.3003 80.6777 38.3835 80.3084 38.3835C79.9635 38.3835 79.6429 38.3064 79.3466 38.1522C79.0504 37.998 78.8049 37.787 78.6101 37.5191C78.391 37.8235 78.1191 38.0406 77.7945 38.1704C77.4739 38.3003 77.0762 38.3652 76.6014 38.3652C76.4472 38.3652 76.3072 38.3388 76.1814 38.2861C76.0556 38.2374 75.9481 38.1704 75.8588 38.0852C75.7695 38 75.7006 37.8986 75.6519 37.7809C75.5991 37.6632 75.5727 37.5374 75.5727 37.4035ZM84.9893 31.14L83.8206 32.3148L82.664 31.1583L81.5197 32.3026L80.3388 31.1278L81.5075 29.953L82.664 31.1096L83.8084 29.9652L84.9893 31.14ZM81.5806 29.3748L82.664 28.2913L83.7536 29.3809L82.6701 30.4643L81.5806 29.3748ZM87.0131 37.4035C87.0131 37.2696 87.0374 37.1458 87.0861 37.0322C87.1348 36.9186 87.2018 36.8191 87.287 36.7339C87.3722 36.6487 87.4737 36.5817 87.5914 36.533C87.705 36.4803 87.8287 36.4499 87.9627 36.4417C88.2345 36.4417 88.4699 36.389 88.6688 36.2835C88.8716 36.178 89.0502 36.04 89.2044 35.8696C89.3586 35.6991 89.4966 35.5084 89.6183 35.2974C89.7401 35.0864 89.8557 34.8754 89.9653 34.6643V34.6704C90.0708 34.4513 90.1824 34.2342 90.3001 34.0191C90.4218 33.8041 90.5537 33.6052 90.6957 33.4226C90.9148 33.167 91.1603 32.9701 91.4322 32.8322C91.7041 32.6901 91.9943 32.6191 92.3027 32.6191C92.6679 32.6191 92.9986 32.6942 93.2948 32.8443C93.5951 32.9945 93.867 33.2096 94.1105 33.4896C94.2931 33.7087 94.4412 33.9603 94.5548 34.2443C94.6685 34.5243 94.7435 34.8226 94.7801 35.1391V35.127C94.8044 35.2852 94.8166 35.4658 94.8166 35.6687C94.8166 35.8878 94.7963 36.1029 94.7557 36.3139C94.7192 36.5209 94.6664 36.7177 94.5974 36.9043C94.4635 37.2452 94.2708 37.5313 94.0192 37.7626C93.7716 37.9899 93.5018 38.1461 93.2096 38.2313C93.1122 38.2597 93.0148 38.278 92.9174 38.2861C92.8241 38.2983 92.7247 38.3043 92.6192 38.3043C92.4366 38.3043 92.2418 38.282 92.0348 38.2374C91.8319 38.1928 91.6311 38.1319 91.4322 38.0548C91.3511 38.0183 91.2598 37.9757 91.1583 37.927C91.0569 37.8742 90.9493 37.8174 90.8357 37.7565C90.7261 37.6957 90.6166 37.6328 90.507 37.5678C90.3974 37.5029 90.296 37.44 90.2027 37.3791C90.0403 37.5293 89.878 37.6652 89.7157 37.787C89.5534 37.9087 89.383 38.0122 89.2044 38.0974C89.0259 38.1826 88.8351 38.2475 88.6322 38.2922C88.4293 38.3409 88.2082 38.3652 87.9688 38.3652C87.8348 38.3652 87.7111 38.3388 87.5974 38.2861C87.4798 38.2374 87.3783 38.1704 87.2931 38.0852C87.2038 38 87.1348 37.8986 87.0861 37.7809C87.0374 37.6632 87.0131 37.5374 87.0131 37.4035ZM91.3288 35.8026C91.4545 35.8838 91.6027 35.9629 91.7731 36.04C91.9476 36.1171 92.1201 36.1861 92.2905 36.247C92.4609 36.3078 92.6172 36.3586 92.7592 36.3991C92.9053 36.4357 93.0148 36.4539 93.0879 36.4539C93.1041 36.4539 93.1203 36.4539 93.1366 36.4539C93.1569 36.4499 93.1772 36.4458 93.1974 36.4417C93.2461 36.4296 93.2928 36.3687 93.3374 36.2591C93.3861 36.1455 93.4044 35.9913 93.3922 35.7965C93.3922 35.6667 93.3557 35.5246 93.2827 35.3704C93.2096 35.2122 93.1143 35.0661 92.9966 34.9322C92.8789 34.7942 92.743 34.6806 92.5888 34.5913C92.4386 34.498 92.2844 34.4513 92.1261 34.4513C92.0693 34.4513 91.9963 34.5325 91.907 34.6948C91.8177 34.8571 91.6879 35.0986 91.5174 35.4191V35.413L91.3288 35.8026Z" fill="#303030"/>
</svg>
