<svg width="30" height="13" viewBox="0 0 30 13" fill="none" xmlns="http://www.w3.org/2000/svg">
<path fill-rule="evenodd" clip-rule="evenodd" d="M0 2.5C0 1.11929 1.11929 0 2.5 0L27.5 0C28.8807 0 30 1.11929 30 2.5C30 3.88071 28.8807 5 27.5 5L2.5 5C1.11929 5 0 3.88071 0 2.5Z" fill="url(#paint0_linear_1190_3534)"/>
<path fill-rule="evenodd" clip-rule="evenodd" d="M0 10.5C0 9.11929 1.11929 8 2.5 8L27.5 8C28.8807 8 30 9.11929 30 10.5C30 11.8807 28.8807 13 27.5 13L2.5 13C1.11929 13 0 11.8807 0 10.5Z" fill="url(#paint1_linear_1190_3534)"/>
<defs>
<linearGradient id="paint0_linear_1190_3534" x1="0.789474" y1="5" x2="28.9209" y2="1.2985" gradientUnits="userSpaceOnUse">
<stop stop-color="#39CD6C"/>
<stop offset="1" stop-color="#4A90E3"/>
</linearGradient>
<linearGradient id="paint1_linear_1190_3534" x1="0.789474" y1="13" x2="28.9209" y2="9.2985" gradientUnits="userSpaceOnUse">
<stop stop-color="#39CD6C"/>
<stop offset="1" stop-color="#4A90E3"/>
</linearGradient>
</defs>
</svg>
