<svg width="23" height="22" viewBox="0 0 23 22" fill="none" xmlns="http://www.w3.org/2000/svg">
<g filter="url(#filter0_d_4933_1773)">
<path d="M7.06207 6.18877C6.71022 6.18877 6.425 6.474 6.425 6.82584C6.425 7.17768 6.71022 7.46291 7.06207 7.46291V6.18877ZM15.1888 7.46291C15.5407 7.46291 15.8259 7.17768 15.8259 6.82584C15.8259 6.474 15.5407 6.18877 15.1888 6.18877V7.46291ZM8.07758 9.16091C7.72574 9.16091 7.44051 9.44613 7.44051 9.79798C7.44051 10.1498 7.72574 10.435 8.07758 10.435V9.16091ZM14.1727 10.435C14.5245 10.435 14.8097 10.1498 14.8097 9.79798C14.8097 9.44613 14.5245 9.16091 14.1727 9.16091V10.435ZM7.25274 1.87305V1.23596L7.2481 1.23599L7.25274 1.87305ZM15.0022 1.87305L15.007 1.23598H15.0022V1.87305ZM19.2537 6.18843L18.6166 6.18375V6.18843H19.2537ZM19.2537 11.428H18.6166L18.6166 11.4326L19.2537 11.428ZM18.0211 14.4664L17.5674 14.0193L18.0211 14.4664ZM15.001 15.7433V16.3804L15.0057 16.3804L15.001 15.7433ZM7.25274 15.7433V15.1063C7.14367 15.1063 7.03642 15.1343 6.94127 15.1876L7.25274 15.7433ZM3.00012 18.1268H2.36305C2.36305 18.353 2.48294 18.5622 2.67807 18.6765C2.8732 18.7908 3.11431 18.7931 3.31159 18.6826L3.00012 18.1268ZM3.00012 6.18843H3.6372L3.63717 6.18375L3.00012 6.18843ZM4.23266 3.14994L3.7789 2.70278L3.7789 2.70278L4.23266 3.14994ZM7.06207 7.46291H15.1888V6.18877H7.06207V7.46291ZM8.07758 10.435H14.1727V9.16091H8.07758V10.435ZM7.25274 2.51012H15.0022V1.23598H7.25274V2.51012ZM14.9974 2.5101C17.0111 2.52532 18.6314 4.16994 18.6166 6.18375L19.8907 6.19311C19.9107 3.47575 17.7244 1.25654 15.007 1.236L14.9974 2.5101ZM18.6166 6.18843V11.428H19.8907V6.18843H18.6166ZM18.6166 11.4326C18.6237 12.3999 18.2463 13.3303 17.5674 14.0193L18.4749 14.9136C19.391 13.984 19.9003 12.7284 19.8907 11.4233L18.6166 11.4326ZM17.5674 14.0193C16.8884 14.7082 15.9636 15.0992 14.9964 15.1063L15.0057 16.3804C16.3108 16.3709 17.5588 15.8433 18.4749 14.9136L17.5674 14.0193ZM15.001 15.1063H7.25274V16.3804H15.001V15.1063ZM6.94127 15.1876L2.68864 17.5711L3.31159 18.6826L7.56422 16.2991L6.94127 15.1876ZM3.63718 18.1268V6.18843H2.36305V18.1268H3.63718ZM3.63717 6.18375C3.63006 5.2165 4.0075 4.28606 4.68643 3.59711L3.7789 2.70278C2.86277 3.63243 2.35348 4.88794 2.36306 6.19311L3.63717 6.18375ZM4.68643 3.59711C5.36536 2.90816 6.29016 2.51715 7.25739 2.5101L7.2481 1.23599C5.94294 1.24551 4.69503 1.77313 3.7789 2.70278L4.68643 3.59711Z" fill="#636363"/>
</g>
<g filter="url(#filter1_d_4933_1773)">
<circle cx="18.6677" cy="14.9925" r="2.92654" fill="#9C4040"/>
</g>
<defs>
<filter id="filter0_d_4933_1773" x="0.579488" y="0.726185" width="21.0949" height="21.0954" filterUnits="userSpaceOnUse" color-interpolation-filters="sRGB">
<feFlood flood-opacity="0" result="BackgroundImageFix"/>
<feColorMatrix in="SourceAlpha" type="matrix" values="0 0 0 0 0 0 0 0 0 0 0 0 0 0 0 0 0 0 127 0" result="hardAlpha"/>
<feOffset dy="1.27414"/>
<feGaussianBlur stdDeviation="0.891897"/>
<feComposite in2="hardAlpha" operator="out"/>
<feColorMatrix type="matrix" values="0 0 0 0 0 0 0 0 0 0 0 0 0 0 0 0 0 0 0.25 0"/>
<feBlend mode="normal" in2="BackgroundImageFix" result="effect1_dropShadow_4933_1773"/>
<feBlend mode="normal" in="SourceGraphic" in2="effect1_dropShadow_4933_1773" result="shape"/>
</filter>
<filter id="filter1_d_4933_1773" x="14.4671" y="12.0659" width="8.40179" height="8.4013" filterUnits="userSpaceOnUse" color-interpolation-filters="sRGB">
<feFlood flood-opacity="0" result="BackgroundImageFix"/>
<feColorMatrix in="SourceAlpha" type="matrix" values="0 0 0 0 0 0 0 0 0 0 0 0 0 0 0 0 0 0 127 0" result="hardAlpha"/>
<feOffset dy="1.27414"/>
<feGaussianBlur stdDeviation="0.637069"/>
<feComposite in2="hardAlpha" operator="out"/>
<feColorMatrix type="matrix" values="0 0 0 0 0 0 0 0 0 0 0 0 0 0 0 0 0 0 0.25 0"/>
<feBlend mode="normal" in2="BackgroundImageFix" result="effect1_dropShadow_4933_1773"/>
<feBlend mode="normal" in="SourceGraphic" in2="effect1_dropShadow_4933_1773" result="shape"/>
</filter>
</defs>
</svg>
