<svg width="26" height="26" viewBox="0 0 26 26" fill="none" xmlns="http://www.w3.org/2000/svg">
<path d="M7 7.31508C6.44772 7.31508 6 7.76279 6 8.31508C6 8.86736 6.44772 9.31507 7 9.31507V7.31508ZM18.9998 9.31507C19.5521 9.31507 19.9998 8.86736 19.9998 8.31508C19.9998 7.76279 19.5521 7.31508 18.9998 7.31508V9.31507ZM8.49639 11.6997C7.94411 11.6997 7.49639 12.1474 7.49639 12.6997C7.49639 13.252 7.94411 13.6997 8.49639 13.6997V11.6997ZM17.4963 13.6997C18.0485 13.6997 18.4963 13.252 18.4963 12.6997C18.4963 12.1474 18.0485 11.6997 17.4963 11.6997V13.6997ZM7.27951 1V-2.65837e-05L7.27222 2.65837e-05L7.27951 1ZM18.7222 1L18.7298 0H18.7222V1ZM24.9998 7.372L23.9998 7.36465V7.372H24.9998ZM24.9998 15.1086H23.9998L23.9999 15.1159L24.9998 15.1086ZM23.1799 19.5951L22.4676 18.8932H22.4676L23.1799 19.5951ZM18.7205 21.4806V22.4806L18.7278 22.4805L18.7205 21.4806ZM7.27951 21.4806V20.4806C7.10829 20.4806 6.93995 20.5245 6.79059 20.6082L7.27951 21.4806ZM1.00017 25H0.000170827C0.000170827 25.355 0.188369 25.6834 0.494661 25.8628C0.800954 26.0423 1.17942 26.0459 1.48909 25.8723L1.00017 25ZM1.00017 7.372H2.0002L2.00014 7.36466L1.00017 7.372ZM2.82012 2.88544L2.10786 2.18353L2.82012 2.88544ZM7 9.31507H18.9998V7.31508H7V9.31507ZM8.49639 13.6997H17.4963V11.6997H8.49639V13.6997ZM7.27951 2H18.7222V0H7.27951V2ZM18.7146 1.99997C21.6554 2.02221 24.0215 4.42386 23.9999 7.36465L25.9998 7.37935C26.0295 3.3342 22.7749 0.0306154 18.7298 2.86102e-05L18.7146 1.99997ZM23.9998 7.372V15.1086H25.9998V7.372H23.9998ZM23.9999 15.1159C24.0102 16.5284 23.4591 17.8871 22.4676 18.8932L23.8921 20.297C25.2559 18.9131 26.0141 17.0441 25.9998 15.1012L23.9999 15.1159ZM22.4676 18.8932C21.4762 19.8993 20.1257 20.4703 18.7132 20.4806L18.7278 22.4805C20.6707 22.4664 22.5284 21.6809 23.8921 20.297L22.4676 18.8932ZM18.7205 20.4806H7.27951V22.4806H18.7205V20.4806ZM6.79059 20.6082L0.51125 24.1277L1.48909 25.8723L7.76843 22.3529L6.79059 20.6082ZM2.00017 25V7.372H0.000170827V25H2.00017ZM2.00014 7.36466C1.98977 5.95217 2.54094 4.59343 3.53239 3.58735L2.10786 2.18353C0.74408 3.56743 -0.0140705 5.43643 0.000197768 7.37934L2.00014 7.36466ZM3.53239 3.58735C4.52384 2.58127 5.87435 2.01027 7.2868 1.99997L7.27222 2.65837e-05C5.32932 0.0141911 3.47164 0.799626 2.10786 2.18353L3.53239 3.58735Z" fill="#334FA8"/>
</svg>
