<svg width="14" height="13" viewBox="0 0 14 13" fill="none" xmlns="http://www.w3.org/2000/svg">
<path d="M3.99922 3.8067C3.80592 3.8067 3.64922 3.9634 3.64922 4.1567C3.64922 4.35 3.80592 4.5067 3.99922 4.5067V3.8067ZM9.99913 4.5067C10.1924 4.5067 10.3491 4.35 10.3491 4.1567C10.3491 3.9634 10.1924 3.8067 9.99913 3.8067V4.5067ZM4.74941 6.00123C4.55611 6.00123 4.39941 6.15793 4.39941 6.35123C4.39941 6.54453 4.55611 6.70123 4.74941 6.70123V6.00123ZM9.24935 6.70123C9.44265 6.70123 9.59935 6.54453 9.59935 6.35123C9.59935 6.15793 9.44265 6.00123 9.24935 6.00123V6.70123ZM4.13975 0.5V0.149991L4.1372 0.150009L4.13975 0.5ZM9.8611 0.5L9.86375 0.15H9.8611V0.5ZM12.9999 3.686L12.6499 3.68343V3.686H12.9999ZM12.9999 7.55429H12.6499L12.6499 7.55686L12.9999 7.55429ZM12.0899 9.79757L11.8406 9.5519L12.0899 9.79757ZM9.86025 10.7403V11.0903L9.8628 11.0903L9.86025 10.7403ZM4.13975 10.7403V10.3903C4.07983 10.3903 4.02091 10.4057 3.96863 10.435L4.13975 10.7403ZM1.00009 12.5H0.650085C0.650085 12.6242 0.715955 12.7392 0.823157 12.802C0.930359 12.8648 1.06282 12.8661 1.17121 12.8053L1.00009 12.5ZM1.00009 3.686H1.35009L1.35008 3.68343L1.00009 3.686ZM1.91006 1.44272L1.66077 1.19705H1.66077L1.91006 1.44272ZM3.99922 4.5067H9.99913V3.8067H3.99922V4.5067ZM4.74941 6.70123H9.24935V6.00123H4.74941V6.70123ZM4.13975 0.85H9.8611V0.15H4.13975V0.85ZM9.85846 0.84999C11.4116 0.861734 12.6613 2.1302 12.6499 3.68343L13.3499 3.68857C13.3642 1.74883 11.8035 0.164677 9.86375 0.15001L9.85846 0.84999ZM12.6499 3.686V7.55429H13.3499V3.686H12.6499ZM12.6499 7.55686C12.6554 8.30288 12.3643 9.02052 11.8406 9.5519L12.3392 10.0432C12.9932 9.37962 13.3567 8.48339 13.3499 7.55172L12.6499 7.55686ZM11.8406 9.5519C11.317 10.0833 10.6037 10.3849 9.85769 10.3903L9.8628 11.0903C10.7945 11.0835 11.6853 10.7068 12.3392 10.0432L11.8406 9.5519ZM9.86025 10.3903H4.13975V11.0903H9.86025V10.3903ZM3.96863 10.435L0.828963 12.1947L1.17121 12.8053L4.31088 11.0456L3.96863 10.435ZM1.35009 12.5V3.686H0.650085V12.5H1.35009ZM1.35008 3.68343C1.3446 2.93741 1.63571 2.21976 2.15936 1.68839L1.66077 1.19705C1.0068 1.86067 0.643253 2.7569 0.650095 3.68857L1.35008 3.68343ZM2.15936 1.68839C2.68301 1.15701 3.3963 0.855429 4.14231 0.849991L4.1372 0.150009C3.20554 0.156802 2.31473 0.533436 1.66077 1.19705L2.15936 1.68839Z" fill="#636363"/>
</svg>
