<svg width="62" height="14" viewBox="0 0 62 14" fill="none" xmlns="http://www.w3.org/2000/svg">
<path d="M11.5136 6.87402C11.6093 7.00163 11.746 7.06543 11.9237 7.06543H12.7099V9H11.8554C11.6913 9 11.5272 8.94076 11.3632 8.82227C11.1581 9.98893 10.5155 10.9665 9.43544 11.7549C8.38726 12.5114 7.22971 12.8896 5.96278 12.8896C4.70041 12.8896 3.68869 12.5684 2.92762 11.9258C2.1939 11.306 1.82704 10.5062 1.82704 9.52637C1.82704 8.54655 2.28733 7.58496 3.2079 6.6416C3.99631 5.8304 5.05816 5.09212 6.39345 4.42676V6.30664C5.65516 6.59375 4.95562 7.00391 4.29481 7.53711C3.5064 8.16602 3.1122 8.7334 3.1122 9.23926C3.1122 9.73145 3.41981 10.1279 4.03505 10.4287C4.62749 10.7204 5.36805 10.8662 6.25673 10.8662C7.38693 10.8662 8.31434 10.6247 9.03895 10.1416C9.82281 9.61751 10.2147 8.89518 10.2147 7.97461C10.2147 7.2181 9.95725 6.38639 9.44227 5.47949L11.0966 4.95312C11.3427 5.5 11.4817 6.1403 11.5136 6.87402ZM7.46669 4.12598V2.35547H9.22352V4.12598H7.46669ZM16.8182 9H12.3475V7.06543H16.8182V9ZM22.9227 6.62109C22.9227 6.90365 22.7701 7.3457 22.4647 7.94727C22.1229 8.63086 21.8016 8.97266 21.5009 8.97266C21.1545 8.97266 20.7626 8.91341 20.3251 8.79492C19.8694 8.66732 19.4957 8.51009 19.204 8.32324C18.9442 8.51465 18.55 8.67643 18.0214 8.80859C17.5246 8.9362 17.0712 9 16.661 9H16.4559V7.06543H16.8866C17.1783 7.06543 17.4494 7.01758 17.7001 6.92188C17.4905 6.6849 17.3856 6.4502 17.3856 6.21777C17.3856 5.76204 17.5269 5.32454 17.8095 4.90527L17.3788 4.69336V2.84082C18.6457 3.24642 19.8192 3.77051 20.8993 4.41309C22.2483 5.22428 22.9227 5.96029 22.9227 6.62109ZM21.1727 7.25C21.2274 7.16797 21.2548 7.08138 21.2548 6.99023C21.2548 6.68945 21.052 6.43424 20.6464 6.22461C20.5917 6.56185 20.4208 6.91732 20.1337 7.29102C20.3798 7.36849 20.5917 7.40723 20.7694 7.40723C20.9699 7.40723 21.1044 7.35482 21.1727 7.25ZM18.8485 6.53223C19.1903 6.33626 19.3908 6.03092 19.4501 5.61621C19.2177 5.52051 18.9989 5.47266 18.7938 5.47266C18.5933 5.47266 18.4634 5.53418 18.4042 5.65723C18.3677 5.73926 18.3495 5.81901 18.3495 5.89648C18.3495 6.15169 18.5158 6.36361 18.8485 6.53223ZM27.8651 8.78125C27.8651 10.071 27.496 11.1875 26.7577 12.1309C26.0559 13.0241 25.1216 13.6484 23.955 14.0039V12.0762C25.6913 11.4928 26.5595 10.5267 26.5595 9.17773C26.5595 8.74023 26.4387 8.24121 26.1972 7.68066C25.9647 7.1429 25.689 6.69629 25.37 6.34082L26.9354 5.5C27.0858 5.60026 27.275 6.0127 27.5028 6.7373C27.7444 7.5166 27.8651 8.19792 27.8651 8.78125Z" fill="url(#paint0_linear_4261_16824)"/>
<path d="M40.9424 8.87012C40.7236 10.0231 40.0765 10.9893 39.001 11.7686C37.9574 12.516 36.8021 12.8896 35.5352 12.8896C34.2728 12.8896 33.2611 12.5684 32.5 11.9258C31.7663 11.306 31.3994 10.5062 31.3994 9.52637C31.3994 8.58301 31.8597 7.63281 32.7803 6.67578C33.5915 5.82812 34.6533 5.07845 35.9658 4.42676V6.30664C35.2275 6.59375 34.528 7.00391 33.8672 7.53711C33.0788 8.16602 32.6846 8.7334 32.6846 9.23926C32.6846 9.73145 32.9922 10.1279 33.6074 10.4287C34.1999 10.7204 34.9404 10.8662 35.8291 10.8662C36.9593 10.8662 37.8867 10.6247 38.6113 10.1416C39.3952 9.61751 39.7871 8.89518 39.7871 7.97461C39.7871 7.2181 39.5296 6.38639 39.0146 5.47949L40.6689 4.95312C40.9561 5.59115 41.0996 6.36133 41.0996 7.26367C41.0996 7.80143 41.0472 8.33691 40.9424 8.87012ZM37.0391 4.12598V2.35547H38.7959V4.12598H37.0391ZM43.9023 8.58984L42.3096 9C42.5238 7.61914 42.5921 6.20182 42.5146 4.74805C42.4645 3.84115 42.4303 3.25553 42.4121 2.99121C42.3438 2.16178 42.248 1.4987 42.125 1.00195L43.7109 0.482422C43.8841 1.31185 44.0208 2.60612 44.1211 4.36523C44.2168 6.06055 44.1439 7.46875 43.9023 8.58984ZM50.4922 7.06543V9H50.0889C49.6696 9 49.3597 8.92708 49.1592 8.78125C49.1592 10.1758 48.7559 11.3424 47.9492 12.2812C47.2565 13.0788 46.3359 13.653 45.1875 14.0039V12.0762C46.9603 11.4792 47.8467 10.513 47.8467 9.17773C47.8467 8.74023 47.735 8.26172 47.5117 7.74219C47.3021 7.25 47.0378 6.82617 46.7188 6.4707L48.3115 5.64355C48.3662 5.68001 48.4893 5.93978 48.6807 6.42285C48.8493 6.85124 49.0293 7.06543 49.2207 7.06543H50.4922ZM46.2334 3.88672V2.11621H47.9902V3.88672H46.2334ZM54.1768 9C53.9535 9 53.7757 8.93164 53.6436 8.79492C53.5661 8.71745 53.4932 8.5944 53.4248 8.42578C53.3701 8.28906 53.3245 8.2207 53.2881 8.2207C53.2744 8.2207 53.1377 8.35059 52.8779 8.61035C52.6182 8.87012 52.363 9 52.1123 9H50.2256V7.06543H51.8457C52.4518 7.06543 52.9873 6.39551 53.4521 5.05566L54.874 5.71875C54.8649 5.76888 54.7669 5.94206 54.5801 6.23828C54.3978 6.53451 54.3066 6.74186 54.3066 6.86035C54.3066 6.99707 54.4046 7.06543 54.6006 7.06543H55.9814V9H54.1768ZM52.7822 11.6865V9.91602H54.5391V11.6865H52.7822ZM50.5059 11.6865V9.91602H52.2627V11.6865H50.5059ZM60.0898 6.8125C60.0898 6.63932 59.9691 6.45247 59.7275 6.25195C59.5088 6.07422 59.2855 5.95117 59.0576 5.88281L58.6475 6.95605C58.9437 7.13379 59.2445 7.22266 59.5498 7.22266C59.9098 7.22266 60.0898 7.08594 60.0898 6.8125ZM61.6211 7.46875C61.4616 8.61719 60.8372 9.19141 59.748 9.19141C59.5566 9.19141 59.3584 9.16862 59.1533 9.12305C58.7113 9.0319 58.4128 8.90202 58.2578 8.7334C58.1484 8.61035 58.0596 8.37793 57.9912 8.03613C57.376 8.67871 56.738 9 56.0771 9H55.708V7.06543H56.0977C56.7174 7.06543 57.1322 6.86491 57.3418 6.46387C57.4466 6.25879 57.5765 5.89193 57.7314 5.36328C57.8727 4.89844 58.0072 4.57487 58.1348 4.39258C58.3262 4.11458 58.5905 3.97559 58.9277 3.97559C59.4245 3.97559 59.9873 4.30143 60.6162 4.95312C61.3044 5.66862 61.6484 6.4069 61.6484 7.16797C61.6484 7.26823 61.6393 7.36849 61.6211 7.46875Z" fill="url(#paint1_linear_4261_16824)"/>
<defs>
<linearGradient id="paint0_linear_4261_16824" x1="14.3368" y1="0" x2="4.88839" y2="14.0039" gradientUnits="userSpaceOnUse">
<stop stop-color="#4C8CED"/>
<stop offset="1" stop-color="#3BC083"/>
</linearGradient>
<linearGradient id="paint1_linear_4261_16824" x1="26.001" y1="15.4" x2="60.6797" y2="4.51598" gradientUnits="userSpaceOnUse">
<stop stop-color="#38CD6A"/>
<stop offset="1" stop-color="#4C8CED"/>
</linearGradient>
</defs>
</svg>
