<svg width="39" height="11" viewBox="0 0 39 11" fill="none" xmlns="http://www.w3.org/2000/svg">
<path d="M4.9126 5.10645C4.9126 5.45215 4.76318 5.79199 4.46436 6.12598C4.08936 6.54199 3.60156 6.75 3.00098 6.75C2.49121 6.75 2.06787 6.59619 1.73096 6.28857C1.39404 5.98096 1.22559 5.58105 1.22559 5.08887C1.22559 4.64941 1.42041 4.21875 1.81006 3.79688C1.99756 3.58887 2.42529 3.22412 3.09326 2.70264C4.30615 3.60205 4.9126 4.40332 4.9126 5.10645ZM3.73926 4.94824C3.73926 4.81348 3.63232 4.64062 3.41846 4.42969C3.24854 4.2627 3.06396 4.11621 2.86475 3.99023C2.70654 4.11914 2.56006 4.27148 2.42529 4.44727C2.26709 4.66113 2.18799 4.83838 2.18799 4.979C2.18799 5.37158 2.43555 5.56787 2.93066 5.56787C3.46973 5.56787 3.73926 5.36133 3.73926 4.94824ZM8.08984 6.60938C8.08984 7.43848 7.85254 8.15625 7.37793 8.7627C6.92676 9.33691 6.32617 9.73828 5.57617 9.9668V8.72754C6.69238 8.35254 7.25049 7.73145 7.25049 6.86426C7.25049 6.58301 7.17285 6.26221 7.01758 5.90186C6.86816 5.55615 6.69092 5.26904 6.48584 5.04053L7.49219 4.5C7.58887 4.56445 7.71045 4.82959 7.85693 5.29541C8.01221 5.79639 8.08984 6.23438 8.08984 6.60938ZM10.7617 5.50635V6.75H10.186C9.62939 6.75 9.23682 6.55225 9.0083 6.15674C8.83545 5.85498 8.74902 5.39502 8.74902 4.77686C8.74902 4.63037 8.75342 4.45605 8.76221 4.25391C8.81494 3.14941 8.9292 2.15625 9.10498 1.27441L10.1816 1.6084C9.97363 2.56055 9.84912 3.40869 9.80811 4.15283C9.79639 4.38721 9.79053 4.56445 9.79053 4.68457C9.79053 4.98926 9.83008 5.19873 9.90918 5.31299C9.99414 5.44189 10.1538 5.50635 10.3882 5.50635H10.7617ZM13.3721 6.23145C13.1787 6.37793 12.8564 6.50391 12.4053 6.60938C12.001 6.70312 11.645 6.75 11.3374 6.75H10.5552V5.50635H11.4868C12.3042 5.50635 12.8491 5.34229 13.1216 5.01416C12.7554 4.76221 12.4009 4.63623 12.0581 4.63623C11.8237 4.63623 11.5249 4.70947 11.1616 4.85596V3.72217C11.4077 3.56982 11.7109 3.49365 12.0713 3.49365C12.2998 3.49365 12.5679 3.55811 12.8755 3.68701C13.1069 3.78955 13.3384 3.89209 13.5698 3.99463C14.0034 4.15576 14.4663 4.23633 14.9585 4.23633C15.0435 4.23633 15.1152 4.23193 15.1738 4.22314V5.2998C14.4971 5.52539 13.8965 5.83594 13.3721 6.23145ZM12.4888 8.47705V7.33887H13.6182V8.47705H12.4888ZM16.9756 6.48633L15.9517 6.75C16.0894 5.8623 16.1333 4.95117 16.0835 4.0166C16.0513 3.43359 16.0293 3.05713 16.0176 2.88721C15.9736 2.354 15.9121 1.92773 15.833 1.6084L16.8525 1.27441C16.9639 1.80762 17.0518 2.63965 17.1162 3.77051C17.1777 4.86035 17.1309 5.76562 16.9756 6.48633Z" fill="url(#paint0_linear_4261_16811)"/>
<path d="M24.6025 6.1665C24.4619 6.90771 24.0459 7.52881 23.3545 8.02979C22.6836 8.51025 21.9409 8.75049 21.1265 8.75049C20.3149 8.75049 19.6646 8.54395 19.1753 8.13086C18.7036 7.73242 18.4678 7.21826 18.4678 6.58838C18.4678 5.98193 18.7637 5.37109 19.3555 4.75586C19.877 4.21094 20.5596 3.729 21.4033 3.31006V4.51855C20.9287 4.70312 20.479 4.9668 20.0542 5.30957C19.5474 5.71387 19.2939 6.07861 19.2939 6.40381C19.2939 6.72021 19.4917 6.9751 19.8872 7.16846C20.2681 7.35596 20.7441 7.44971 21.3154 7.44971C22.042 7.44971 22.6382 7.29443 23.104 6.98389C23.6079 6.64697 23.8599 6.18262 23.8599 5.59082C23.8599 5.10449 23.6943 4.56982 23.3633 3.98682L24.4268 3.64844C24.6113 4.05859 24.7036 4.55371 24.7036 5.13379C24.7036 5.47949 24.6699 5.82373 24.6025 6.1665ZM22.0933 3.1167V1.97852H23.2227V3.1167H22.0933ZM26.5054 5.98633L25.4814 6.25C25.6191 5.3623 25.6631 4.45117 25.6133 3.5166C25.5811 2.93359 25.5591 2.55713 25.5474 2.38721C25.5034 1.854 25.4419 1.42773 25.3628 1.1084L26.3823 0.774414C26.4937 1.30762 26.5815 2.13965 26.646 3.27051C26.7075 4.36035 26.6606 5.26562 26.5054 5.98633ZM30.7417 5.00635V6.25H30.4824C30.2129 6.25 30.0137 6.20312 29.8848 6.10938C29.8848 7.00586 29.6255 7.75586 29.1069 8.35938C28.6616 8.87207 28.0698 9.24121 27.3315 9.4668V8.22754C28.4712 7.84375 29.041 7.22266 29.041 6.36426C29.041 6.08301 28.9692 5.77539 28.8257 5.44141C28.6909 5.125 28.521 4.85254 28.3159 4.62402L29.3398 4.09229C29.375 4.11572 29.4541 4.28271 29.5771 4.59326C29.6855 4.86865 29.8013 5.00635 29.9243 5.00635H30.7417ZM28.0039 2.96289V1.82471H29.1333V2.96289H28.0039ZM33.1104 6.25C32.9668 6.25 32.8525 6.20605 32.7676 6.11816C32.7178 6.06836 32.6709 5.98926 32.627 5.88086C32.5918 5.79297 32.5625 5.74902 32.5391 5.74902C32.5303 5.74902 32.4424 5.83252 32.2754 5.99951C32.1084 6.1665 31.9443 6.25 31.7832 6.25H30.5703V5.00635H31.6118C32.0015 5.00635 32.3457 4.57568 32.6445 3.71436L33.5586 4.14062C33.5527 4.17285 33.4897 4.28418 33.3696 4.47461C33.2524 4.66504 33.1938 4.79834 33.1938 4.87451C33.1938 4.9624 33.2568 5.00635 33.3828 5.00635H34.2705V6.25H33.1104ZM32.2139 7.97705V6.83887H33.3433V7.97705H32.2139ZM30.7505 7.97705V6.83887H31.8799V7.97705H30.7505ZM36.9116 4.84375C36.9116 4.73242 36.834 4.6123 36.6787 4.4834C36.5381 4.36914 36.3945 4.29004 36.248 4.24609L35.9844 4.93604C36.1748 5.05029 36.3682 5.10742 36.5645 5.10742C36.7959 5.10742 36.9116 5.01953 36.9116 4.84375ZM37.896 5.26562C37.7935 6.00391 37.3921 6.37305 36.6919 6.37305C36.5688 6.37305 36.4414 6.3584 36.3096 6.3291C36.0254 6.27051 35.8335 6.18701 35.7339 6.07861C35.6636 5.99951 35.6064 5.8501 35.5625 5.63037C35.167 6.04346 34.7568 6.25 34.332 6.25H34.0947V5.00635H34.3452C34.7437 5.00635 35.0103 4.87744 35.145 4.61963C35.2124 4.48779 35.2959 4.25195 35.3955 3.91211C35.4863 3.61328 35.5728 3.40527 35.6548 3.28809C35.7778 3.10938 35.9478 3.02002 36.1646 3.02002C36.4839 3.02002 36.8457 3.22949 37.25 3.64844C37.6924 4.1084 37.9136 4.58301 37.9136 5.07227C37.9136 5.13672 37.9077 5.20117 37.896 5.26562Z" fill="url(#paint1_linear_4261_16811)"/>
<defs>
<linearGradient id="paint0_linear_4261_16811" x1="8.85449" y1="1.75" x2="2.70942" y2="10.5685" gradientUnits="userSpaceOnUse">
<stop stop-color="#4C8CED"/>
<stop offset="1" stop-color="#3BC083"/>
</linearGradient>
<linearGradient id="paint1_linear_4261_16811" x1="14.7295" y1="11.15" x2="37.4018" y2="3.88598" gradientUnits="userSpaceOnUse">
<stop stop-color="#38CD6A"/>
<stop offset="1" stop-color="#4C8CED"/>
</linearGradient>
</defs>
</svg>
