<svg width="16" height="18" viewBox="0 0 16 18" fill="none" xmlns="http://www.w3.org/2000/svg">
<path fill-rule="evenodd" clip-rule="evenodd" d="M12 5C12 7.20914 10.2091 9 8 9C5.79086 9 4 7.20914 4 5C4 2.79086 5.79086 1 8 1C9.06087 1 10.0783 1.42143 10.8284 2.17157C11.5786 2.92172 12 3.93913 12 5Z" stroke="black" stroke-width="1.5" stroke-linecap="round" stroke-linejoin="round"/>
<path d="M8.75022 8.99999C8.75022 8.58578 8.41443 8.24999 8.00022 8.24999C7.586 8.24999 7.25022 8.58578 7.25022 8.99999H8.75022ZM7.25022 15C7.25022 15.4142 7.586 15.75 8.00022 15.75C8.41443 15.75 8.75022 15.4142 8.75022 15H7.25022ZM7.92068 2.66722C7.5088 2.71115 7.21052 3.08065 7.25445 3.49253C7.29837 3.90441 7.66788 4.20269 8.07976 4.15876L7.92068 2.66722ZM9.28083 4.86503C9.44267 5.24632 9.88297 5.42421 10.2643 5.26237C10.6455 5.10053 10.8234 4.66024 10.6616 4.27895L9.28083 4.86503ZM4.9772 13.746C5.38922 13.7035 5.68877 13.335 5.64626 12.923C5.60374 12.511 5.23526 12.2114 4.82324 12.254L4.9772 13.746ZM1.64622 14.006L1.28872 13.3467C1.27105 13.3563 1.25376 13.3665 1.23692 13.3775L1.64622 14.006ZM1.21022 15.406L0.632943 15.8848C0.658925 15.9161 0.687413 15.9453 0.718126 15.972L1.21022 15.406ZM3.78522 16.576L3.9486 15.844C3.92852 15.8395 3.90825 15.8359 3.88787 15.833L3.78522 16.576ZM8.00022 17L8.01437 16.2501C8.00488 16.2499 7.99538 16.2499 7.9859 16.2501L8.00022 17ZM12.2152 16.575L12.1115 15.8322C12.0914 15.835 12.0715 15.8386 12.0517 15.843L12.2152 16.575ZM14.7902 15.4L15.2833 15.9651C15.3133 15.939 15.3411 15.9105 15.3665 15.88L14.7902 15.4ZM14.3542 14L14.7648 13.3724C14.7472 13.3608 14.7291 13.3501 14.7105 13.34L14.3542 14ZM11.176 12.2538C10.7639 12.212 10.3959 12.5121 10.3541 12.9242C10.3122 13.3363 10.6123 13.7043 11.0244 13.7462L11.176 12.2538ZM7.25022 8.99999V15H8.75022V8.99999H7.25022ZM8.07976 4.15876C8.59193 4.10414 9.07958 4.39089 9.28083 4.86503L10.6616 4.27895C10.2023 3.19695 9.08949 2.54256 7.92068 2.66722L8.07976 4.15876ZM4.82324 12.254C3.58458 12.3818 2.38339 12.7531 1.28872 13.3467L2.00371 14.6653C2.92463 14.166 3.93515 13.8536 4.9772 13.746L4.82324 12.254ZM1.23692 13.3775C0.835133 13.6392 0.463017 13.9947 0.314656 14.4709C0.149329 15.0017 0.314213 15.5005 0.632943 15.8848L1.78749 14.9272C1.74637 14.8776 1.74465 14.8576 1.74747 14.8689C1.75162 14.8855 1.75016 14.9062 1.74678 14.9171C1.74518 14.9222 1.75194 14.8962 1.79987 14.8425C1.84819 14.7884 1.92879 14.717 2.05552 14.6345L1.23692 13.3775ZM0.718126 15.972C1.55457 16.6992 2.58462 17.1672 3.68257 17.3189L3.88787 15.833C3.07839 15.7212 2.31898 15.3762 1.70231 14.84L0.718126 15.972ZM3.62183 17.308C5.06324 17.6297 6.53793 17.7781 8.01454 17.7499L7.9859 16.2501C6.62876 16.276 5.27339 16.1397 3.9486 15.844L3.62183 17.308ZM7.98607 17.7499C9.46272 17.7777 10.9374 17.629 12.3788 17.3069L12.0517 15.843C10.7269 16.1391 9.37154 16.2757 8.01437 16.2501L7.98607 17.7499ZM12.3189 17.3178C13.4175 17.1644 14.4476 16.6944 15.2833 15.9651L14.2971 14.8349C13.6809 15.3726 12.9215 15.7191 12.1115 15.8322L12.3189 17.3178ZM15.3665 15.88C15.6863 15.4961 15.8511 14.9972 15.6858 14.4664C15.5376 13.9908 15.1661 13.6349 14.7648 13.3724L13.9436 14.6276C14.0706 14.7107 14.1514 14.7825 14.2 14.8371C14.2483 14.8912 14.2552 14.9175 14.2537 14.9126C14.2503 14.9019 14.2487 14.8809 14.2531 14.8637C14.256 14.8517 14.2547 14.8711 14.214 14.92L15.3665 15.88ZM14.7105 13.34C13.6154 12.7488 12.4142 12.3796 11.176 12.2538L11.0244 13.7462C12.0661 13.852 13.0766 14.1625 13.9979 14.6599L14.7105 13.34Z" fill="black"/>
</svg>
