<svg width="125" height="47" viewBox="0 0 125 47" fill="none" xmlns="http://www.w3.org/2000/svg">
<path d="M22.8244 46C23.0109 46 23.1898 45.9259 23.3217 45.794C23.4536 45.6621 23.5277 45.4832 23.5277 45.2967V37.5282C23.5277 35.9908 24.3477 34.542 25.6671 33.7515L31.1724 30.4475L34.1937 34.2241C34.2557 34.3013 34.3331 34.3646 34.4211 34.4099C34.509 34.4552 34.6055 34.4815 34.7043 34.4872L34.7437 34.4886C34.9294 34.4886 35.1094 34.4154 35.2416 34.2832L36.8916 32.6333V45.2967C36.8916 45.4832 36.9657 45.6621 37.0975 45.794C37.2294 45.9259 37.4083 46 37.5949 46C37.7814 46 37.9603 45.9259 38.0921 45.794C38.224 45.6621 38.2981 45.4832 38.2981 45.2967V31.2366L38.2967 31.2281L39 30.5234L39.7047 31.2281L39.7033 31.2366V45.2967C39.7033 45.4832 39.7774 45.6621 39.9093 45.794C40.0412 45.9259 40.2201 46 40.4066 46C40.5931 46 40.772 45.9259 40.9039 45.794C41.0358 45.6621 41.1099 45.4832 41.1099 45.2967V32.6333L42.7598 34.2832C42.8252 34.3485 42.9029 34.4002 42.9883 34.4354C43.0738 34.4707 43.1653 34.4887 43.2577 34.4886L43.2971 34.4872C43.3959 34.4815 43.4924 34.4552 43.5804 34.4099C43.6683 34.3646 43.7458 34.3013 43.8077 34.2241L46.829 30.4475L52.3358 33.7515C52.9859 34.145 53.5239 34.699 53.898 35.3604C54.2722 36.0218 54.47 36.7683 54.4724 37.5282V45.2967C54.4724 45.4832 54.5465 45.6621 54.6784 45.794C54.8102 45.9259 54.9891 46 55.1757 46C55.3622 46 55.5411 45.9259 55.673 45.794C55.8049 45.6621 55.8789 45.4832 55.8789 45.2967V37.5282C55.8789 35.4985 54.7973 33.5898 53.0574 32.5461L47.1132 28.9804L44.8851 26.5048C44.7924 26.4057 44.6724 26.3363 44.5402 26.3052C44.408 26.2742 44.2697 26.2829 44.1425 26.3304V23.8366C45.2431 23.0308 46.1384 21.9771 46.756 20.7609C47.3735 19.5447 47.6958 18.2001 47.6969 16.836V13.5221L48.7926 7.41617C48.895 6.86079 48.8852 6.29051 48.7637 5.73899C48.6422 5.18747 48.4114 4.66587 48.0851 4.20495C47.7615 3.74204 47.3485 3.3486 46.8704 3.04784C46.3923 2.74708 45.8589 2.54508 45.3015 2.45377L36.9211 1.05703C36.3212 0.95699 35.7066 0.988843 35.1202 1.15038C34.5339 1.31191 33.9897 1.59925 33.5256 1.99241C32.7339 2.66451 32.2217 3.60809 32.0895 4.63818C31.2596 4.7929 30.5085 5.23597 29.967 5.90551C29.6307 6.31987 29.3917 6.8044 29.2675 7.3234C29.1434 7.8424 29.1373 8.38265 29.2496 8.90433L30.2849 13.75C30.2863 13.7598 30.2933 13.7641 30.2947 13.7711V16.8346C30.2947 19.7054 31.6985 22.2499 33.8491 23.8351V26.3276C33.7227 26.2824 33.5858 26.2749 33.4552 26.3061C33.3245 26.3373 33.2058 26.4059 33.1135 26.5034L30.8869 28.9776L24.9427 32.5447C24.0842 33.0633 23.3736 33.7942 22.8795 34.667C22.3853 35.5398 22.1241 36.5252 22.1211 37.5282V45.2967C22.1211 45.4832 22.1952 45.6621 22.3271 45.794C22.459 45.9259 22.6379 46 22.8244 46ZM45.7403 29.5557L43.1987 32.7332L40.2012 29.7357L44.1917 27.8355L45.7403 29.5557ZM31.0599 6.79165C31.2631 6.53932 31.5204 6.33588 31.8128 6.19637C32.1052 6.05687 32.4252 5.98486 32.7492 5.98568C33.1374 5.98568 33.4525 5.57637 33.4525 5.18815C33.4517 4.82288 33.5231 4.46106 33.6625 4.12343C33.8019 3.78581 34.0066 3.47902 34.2648 3.22067C34.523 2.96232 34.8297 2.75749 35.1673 2.61792C35.5048 2.47835 35.8666 2.40679 36.2319 2.40735C36.3855 2.40747 36.5389 2.42017 36.6904 2.44533L45.0708 3.84206C45.8304 3.96865 46.4915 4.385 46.9345 5.01374C47.3776 5.64388 47.5464 6.40765 47.4071 7.1658L46.5308 12.048L45.0314 10.3489V8.83681C45.0314 8.65029 44.9573 8.4714 44.8254 8.33951C44.6935 8.20762 44.5147 8.13352 44.3281 8.13352H33.6635C33.4769 8.13352 33.2981 8.20762 33.1662 8.33951C33.0343 8.4714 32.9602 8.65029 32.9602 8.83681V10.3447L31.3707 12.1099L30.6239 8.61176C30.4874 7.96755 30.6464 7.30364 31.0599 6.79165ZM31.7013 16.8346V13.8456L34.1867 11.0845C34.3028 10.9556 34.367 10.7882 34.3668 10.6147V9.5401H43.6248V10.6147C43.6248 10.7863 43.6867 10.9523 43.8007 11.0803L46.2903 13.9005V16.8346C46.2898 18.0289 45.9961 19.2049 45.435 20.2592C44.8738 21.3135 44.0625 22.214 43.0721 22.8815L43.0692 22.8829C42.7242 23.1102 42.3605 23.3079 41.982 23.4737C41.809 23.551 41.6289 23.6115 41.4503 23.6748C41.0248 23.8268 40.5865 23.9403 40.1408 24.0138C40.0114 24.0349 39.8791 24.0405 39.7483 24.0532C39.247 24.1038 38.7418 24.1038 38.2405 24.0532C38.1111 24.0391 37.9788 24.0349 37.8508 24.0138C37.406 23.9402 36.9687 23.8267 36.5441 23.6748C36.3641 23.6115 36.1826 23.5496 36.0068 23.4722C35.6304 23.3071 35.2685 23.1104 34.9252 22.8843L34.9153 22.8787C33.9261 22.2109 33.1158 21.3107 32.5554 20.257C31.9951 19.2032 31.7018 18.0281 31.7013 16.8346ZM35.9829 24.9871C36.0659 25.0167 36.1461 25.0504 36.2291 25.0772C37.1203 25.3792 38.0548 25.5341 38.9958 25.5357C39.9364 25.5342 40.8704 25.3793 41.7611 25.0772C41.8455 25.049 41.9271 25.0167 42.0115 24.9857C42.2042 24.914 42.3955 24.838 42.5826 24.7536C42.6332 24.7311 42.6867 24.7143 42.7373 24.6903V26.969L39 28.7497L35.2557 26.9662V24.6918C35.3049 24.7157 35.357 24.7311 35.4062 24.7536C35.5947 24.838 35.7874 24.9154 35.9829 24.9871ZM33.8083 27.8355L37.7988 29.7357L34.8014 32.7332L32.2597 29.5557L33.8083 27.8355Z" fill="black"/>
<path d="M29.8573 46.0001C30.0439 46.0001 30.2228 45.926 30.3546 45.7941C30.4865 45.6622 30.5606 45.4833 30.5606 45.2968V42.0026C30.5621 40.5521 30.0195 39.1538 29.0401 38.0838L27.9753 36.9178C27.913 36.8495 27.8378 36.7942 27.7541 36.755C27.6704 36.7158 27.5798 36.6935 27.4874 36.6893C27.3951 36.6851 27.3028 36.6992 27.2159 36.7307C27.129 36.7621 27.0491 36.8104 26.9809 36.8728C26.9126 36.9351 26.8573 37.0103 26.8181 37.094C26.7789 37.1777 26.7566 37.2683 26.7524 37.3607C26.7482 37.453 26.7623 37.5453 26.7938 37.6322C26.8253 37.7191 26.8735 37.799 26.9359 37.8672L28.0007 39.0333C28.7434 39.8436 29.155 40.9033 29.1541 42.0026V45.2968C29.1541 45.4833 29.2281 45.6622 29.36 45.7941C29.4919 45.926 29.6708 46.0001 29.8573 46.0001ZM50.0248 36.9178L48.9601 38.0852C47.9808 39.1547 47.4382 40.5525 47.4396 42.0026V45.2968C47.4396 45.4833 47.5137 45.6622 47.6455 45.7941C47.7774 45.926 47.9563 46.0001 48.1428 46.0001C48.3294 46.0001 48.5083 45.926 48.6401 45.7941C48.772 45.6622 48.8461 45.4833 48.8461 45.2968V42.0026C48.8461 40.9012 49.2554 39.8463 49.9981 39.0333L51.0629 37.8672C51.1252 37.7991 51.1735 37.7193 51.2051 37.6325C51.2366 37.5456 51.2507 37.4535 51.2466 37.3612C51.2424 37.2689 51.2202 37.1783 51.1811 37.0946C51.142 37.011 51.0868 36.9358 51.0186 36.8735C50.9504 36.8111 50.8707 36.7628 50.7838 36.7313C50.697 36.6998 50.6048 36.6857 50.5125 36.6898C50.4203 36.6939 50.3297 36.7162 50.246 36.7553C50.1623 36.7944 50.0872 36.8496 50.0248 36.9178Z" fill="black"/>
<path d="M73.4098 12.4035C73.564 12.8417 73.6979 13.2699 73.8116 13.6878C73.8603 13.8704 73.909 14.0612 73.9577 14.26C74.0064 14.4548 74.049 14.6516 74.0855 14.8504C74.1261 15.0452 74.1585 15.238 74.1829 15.4287C74.2072 15.6154 74.2194 15.7899 74.2194 15.9522C74.2194 16.3336 74.1666 16.7049 74.0611 17.0661C73.9597 17.4313 73.8136 17.7843 73.6229 18.1252C73.4362 18.4661 73.213 18.7928 72.9533 19.1052C72.6936 19.4217 72.4055 19.718 72.089 19.9939C71.7724 20.2699 71.4336 20.5255 71.0724 20.7609C70.7113 21.0003 70.3379 21.2154 69.9524 21.4061L68.8446 19.8661C69.1368 19.72 69.433 19.5536 69.7333 19.367C70.0295 19.1843 70.3136 18.9875 70.5855 18.7765C70.8614 18.5655 71.1171 18.3443 71.3524 18.113C71.5919 17.8817 71.7988 17.6464 71.9733 17.407C72.1519 17.1675 72.2919 16.9241 72.3933 16.6765C72.4948 16.433 72.5455 16.1936 72.5455 15.9583C72.5455 15.7878 72.5211 15.6032 72.4724 15.4043C72.4278 15.2055 72.3649 14.9925 72.2837 14.7652C72.2066 14.5339 72.1133 14.2904 72.0037 14.0348C71.8942 13.7751 71.7765 13.4991 71.6507 13.207L73.4098 12.4035ZM77.4851 12.9087C77.3999 12.8925 77.3025 12.9229 77.1929 13C77.0874 13.073 76.9859 13.1745 76.8886 13.3043C76.7952 13.4301 76.7161 13.5701 76.6512 13.7243C76.5903 13.8786 76.5599 14.0267 76.5599 14.1687C76.5599 14.3026 76.5984 14.4142 76.6755 14.5035C76.7526 14.5928 76.85 14.6658 76.9677 14.7226C77.0894 14.7794 77.2213 14.822 77.3633 14.8504C77.5094 14.8788 77.6494 14.8991 77.7833 14.9113H77.7772C77.8828 14.9194 78.0025 14.9255 78.1364 14.9296C78.2744 14.9296 78.4083 14.9296 78.5381 14.9296C78.5787 14.9296 78.6091 14.9316 78.6294 14.9357C78.6538 14.9357 78.6741 14.9357 78.6903 14.9357C78.7065 14.9357 78.7228 14.9357 78.739 14.9357C78.7593 14.9357 78.7877 14.9336 78.8242 14.9296C78.7633 14.678 78.6903 14.4386 78.6051 14.2113C78.5239 13.98 78.4286 13.773 78.319 13.5904C78.2094 13.4078 78.0857 13.2577 77.9477 13.14C77.8097 13.0183 77.6555 12.9412 77.4851 12.9087ZM74.5025 19.2817C75.0746 19.1681 75.5961 19.0241 76.0668 18.8496C76.5375 18.6791 76.9494 18.4864 77.3025 18.2713C77.6596 18.0603 77.9538 17.8351 78.1851 17.5957C78.4204 17.3562 78.5868 17.1128 78.6842 16.8652C78.5097 16.8652 78.3251 16.8612 78.1303 16.853C77.9355 16.849 77.7752 16.8429 77.6494 16.8348C77.1787 16.7942 76.7486 16.6887 76.359 16.5183C75.9694 16.3519 75.659 16.1246 75.4277 15.8365C75.2572 15.6174 75.1355 15.38 75.0625 15.1243C74.9935 14.8687 74.959 14.5988 74.959 14.3148C74.959 14.0957 74.9793 13.8765 75.0199 13.6574C75.0604 13.4342 75.1172 13.2191 75.1903 13.0122C75.2633 12.8012 75.3486 12.6023 75.4459 12.4157C75.5474 12.229 75.6549 12.0586 75.7686 11.9043C76.012 11.6 76.2778 11.3707 76.5659 11.2165C76.8581 11.0583 77.1645 10.9791 77.4851 10.9791C78.1709 10.9791 78.7897 11.2794 79.3416 11.88C79.5364 12.0991 79.7109 12.3446 79.8651 12.6165C80.0193 12.8884 80.1491 13.1786 80.2546 13.487C80.3642 13.7913 80.4474 14.1119 80.5042 14.4487C80.561 14.7814 80.5894 15.1203 80.5894 15.4652C80.5894 15.5707 80.5854 15.6762 80.5772 15.7817C80.5732 15.8872 80.5671 15.9867 80.559 16.08C80.5103 16.5548 80.4028 16.9991 80.2364 17.413C80.0741 17.831 79.863 18.2145 79.6033 18.5635C79.3477 18.9165 79.0494 19.2351 78.7086 19.5191C78.3677 19.8072 77.9964 20.0588 77.5946 20.2739C77.197 20.493 76.7749 20.6757 76.3286 20.8217C75.8822 20.9678 75.4236 21.0774 74.9529 21.1504L74.5025 19.2817ZM84.5409 16.8652C84.0418 16.8652 83.6137 16.8023 83.2566 16.6765C82.8995 16.5548 82.591 16.3661 82.3313 16.1104C82.169 15.9481 82.0432 15.7777 81.9539 15.5991C81.8687 15.4206 81.8058 15.2461 81.7653 15.0757C81.7287 14.9012 81.7064 14.7368 81.6983 14.5826C81.6942 14.4284 81.6922 14.2965 81.6922 14.187V14.0957C81.6963 13.9455 81.7003 13.7304 81.7044 13.4504C81.7125 13.1664 81.7166 12.8336 81.7166 12.4522C81.7166 12.0707 81.7145 11.6507 81.7105 11.1922C81.7064 10.7336 81.6942 10.2771 81.6739 9.82261C81.6577 9.36406 81.6313 8.92377 81.5948 8.50174C81.5624 8.07971 81.5157 7.71246 81.4548 7.4L83.2748 6.84609C83.3276 7.11391 83.3702 7.43043 83.4026 7.79565C83.4351 8.15681 83.4615 8.53623 83.4818 8.93391C83.5061 9.33159 83.5224 9.7313 83.5305 10.133C83.5426 10.5348 83.5508 10.9081 83.5548 11.253C83.5589 11.5574 83.5467 11.8557 83.5183 12.1478C83.4939 12.4359 83.4737 12.72 83.4574 13C83.4412 13.2759 83.4412 13.5458 83.4574 13.8096C83.4777 14.0693 83.5345 14.3229 83.6279 14.5704C83.6644 14.6638 83.709 14.7348 83.7618 14.7835C83.8186 14.8322 83.8835 14.8687 83.9566 14.893C84.0296 14.9133 84.1087 14.9255 84.1939 14.9296C84.2832 14.9336 84.3806 14.9357 84.4861 14.9357H84.5409C84.6708 14.9357 84.7945 14.962 84.9122 15.0148C85.0299 15.0675 85.1313 15.1386 85.2166 15.2278C85.3058 15.313 85.3768 15.4145 85.4296 15.5322C85.4824 15.6499 85.5087 15.7736 85.5087 15.9035C85.5087 16.0374 85.4824 16.1632 85.4296 16.2809C85.3768 16.3986 85.3058 16.5 85.2166 16.5852C85.1313 16.6745 85.0299 16.7435 84.9122 16.7922C84.7945 16.8409 84.6708 16.8652 84.5409 16.8652ZM83.5512 15.9035C83.5512 15.7777 83.5776 15.658 83.6304 15.5443C83.6831 15.4307 83.7562 15.3313 83.8495 15.2461C83.9388 15.1568 84.0463 15.0858 84.1721 15.033C84.2939 14.9803 84.4257 14.9499 84.5678 14.9417C84.7828 14.9417 84.9837 14.9072 85.1704 14.8383C85.357 14.7652 85.5336 14.6272 85.6999 14.4243C85.8663 14.2214 86.0226 13.9354 86.1686 13.5661C86.3147 13.1968 86.4547 12.7139 86.5886 12.1174L88.2078 12.3487C88.2199 12.3 88.2118 12.3264 88.1834 12.4278C88.1591 12.5293 88.1286 12.6733 88.0921 12.86C88.0597 13.0426 88.0272 13.2496 87.9947 13.4809C87.9663 13.7081 87.9521 13.9272 87.9521 14.1383C87.9562 14.3452 87.9805 14.5258 88.0252 14.68C88.0739 14.8301 88.157 14.9194 88.2747 14.9478C88.4005 14.9803 88.5223 14.9559 88.6399 14.8748C88.7576 14.7896 88.8692 14.6699 88.9747 14.5157C89.0802 14.3574 89.1776 14.1748 89.2669 13.9678C89.3562 13.7568 89.4373 13.5417 89.5104 13.3226C89.5834 13.1035 89.6463 12.8884 89.6991 12.6774C89.7518 12.4664 89.7924 12.2797 89.8208 12.1174L91.4278 12.3487C91.4197 12.4501 91.4055 12.5861 91.3852 12.7565C91.3649 12.9229 91.3486 13.1014 91.3365 13.2922C91.3243 13.4829 91.3182 13.6757 91.3182 13.8704C91.3223 14.0612 91.3446 14.2357 91.3852 14.3939C91.4257 14.5481 91.4886 14.6759 91.5739 14.7774C91.6591 14.8748 91.7768 14.9235 91.9269 14.9235C92.0608 14.9235 92.1765 14.8788 92.2739 14.7896C92.3713 14.7003 92.4524 14.5846 92.5173 14.4426C92.5863 14.2965 92.6411 14.1322 92.6817 13.9496C92.7223 13.7629 92.7527 13.5742 92.773 13.3835C92.7933 13.1928 92.8034 13.0081 92.8034 12.8296C92.8034 12.647 92.7973 12.4867 92.7852 12.3487L94.4286 12.1174L94.6295 13.8339C94.6539 14.0206 94.7066 14.1829 94.7878 14.3209C94.8689 14.4588 94.9643 14.5745 95.0739 14.6678C95.1834 14.7571 95.2991 14.8261 95.4208 14.8748C95.5426 14.9194 95.6582 14.9417 95.7678 14.9417H95.8408C95.991 14.9417 96.1269 14.9661 96.2486 15.0148C96.3744 15.0635 96.482 15.1325 96.5713 15.2217C96.6605 15.307 96.7295 15.4084 96.7782 15.5261C96.8269 15.6438 96.8512 15.7696 96.8512 15.9035C96.8512 16.0374 96.8269 16.1632 96.7782 16.2809C96.7295 16.3986 96.6585 16.5 96.5652 16.5852C96.4759 16.6704 96.3623 16.7374 96.2243 16.7861C96.0904 16.8388 95.9382 16.8652 95.7678 16.8652C95.3741 16.8652 95.0028 16.7962 94.6539 16.6583C94.3049 16.5203 94.0026 16.287 93.7469 15.9583C93.7226 15.9907 93.6982 16.0191 93.6739 16.0435C93.6495 16.0678 93.6272 16.0922 93.6069 16.1165V16.1104C93.3878 16.3417 93.1341 16.5243 92.846 16.6583C92.562 16.7962 92.2556 16.8652 91.9269 16.8652C91.5576 16.8652 91.2168 16.7861 90.9043 16.6278C90.5959 16.4696 90.3382 16.2545 90.1313 15.9826C89.8878 16.2504 89.6118 16.4675 89.3034 16.6339C88.995 16.8003 88.6562 16.8835 88.2869 16.8835C87.942 16.8835 87.6214 16.8064 87.3252 16.6522C87.0289 16.498 86.7834 16.287 86.5886 16.0191C86.3695 16.3235 86.0976 16.5406 85.773 16.6704C85.4524 16.8003 85.0547 16.8652 84.5799 16.8652C84.4257 16.8652 84.2857 16.8388 84.1599 16.7861C84.0341 16.7374 83.9266 16.6704 83.8373 16.5852C83.7481 16.5 83.6791 16.3986 83.6304 16.2809C83.5776 16.1632 83.5512 16.0374 83.5512 15.9035ZM92.9678 9.64L91.7991 10.8148L90.6426 9.65826L89.4982 10.8026L88.3173 9.62783L89.486 8.45304L90.6426 9.60957L91.7869 8.46522L92.9678 9.64ZM89.5591 7.87478L90.6426 6.7913L91.7321 7.88087L90.6486 8.96435L89.5591 7.87478ZM94.9916 15.9035C94.9916 15.7696 95.016 15.6458 95.0647 15.5322C95.1134 15.4186 95.1803 15.3191 95.2655 15.2339C95.3507 15.1487 95.4522 15.0817 95.5699 15.033C95.6835 14.9803 95.8073 14.9499 95.9412 14.9417C96.2131 14.9417 96.4484 14.889 96.6473 14.7835C96.8502 14.678 97.0287 14.54 97.1829 14.3696C97.3371 14.1991 97.4751 14.0084 97.5968 13.7974C97.7186 13.5864 97.8342 13.3754 97.9438 13.1643V13.1704C98.0493 12.9513 98.1609 12.7342 98.2786 12.5191C98.4003 12.3041 98.5322 12.1052 98.6742 11.9226C98.8934 11.667 99.1389 11.4701 99.4107 11.3322C99.6826 11.1901 99.9728 11.1191 100.281 11.1191C100.646 11.1191 100.977 11.1942 101.273 11.3443C101.574 11.4945 101.846 11.7096 102.089 11.9896C102.272 12.2087 102.42 12.4603 102.533 12.7443C102.647 13.0243 102.722 13.3226 102.759 13.6391V13.627C102.783 13.7852 102.795 13.9658 102.795 14.1687C102.795 14.3878 102.775 14.6029 102.734 14.8139C102.698 15.0209 102.645 15.2177 102.576 15.4043C102.442 15.7452 102.249 16.0313 101.998 16.2626C101.75 16.4899 101.48 16.6461 101.188 16.7313C101.091 16.7597 100.993 16.778 100.896 16.7861C100.803 16.7983 100.703 16.8043 100.598 16.8043C100.415 16.8043 100.22 16.782 100.013 16.7374C99.8105 16.6928 99.6096 16.6319 99.4107 16.5548C99.3296 16.5183 99.2383 16.4757 99.1368 16.427C99.0354 16.3742 98.9278 16.3174 98.8142 16.2565C98.7047 16.1957 98.5951 16.1328 98.4855 16.0678C98.376 16.0029 98.2745 15.94 98.1812 15.8791C98.0189 16.0293 97.8565 16.1652 97.6942 16.287C97.5319 16.4087 97.3615 16.5122 97.1829 16.5974C97.0044 16.6826 96.8136 16.7475 96.6107 16.7922C96.4078 16.8409 96.1867 16.8652 95.9473 16.8652C95.8134 16.8652 95.6896 16.8388 95.576 16.7861C95.4583 16.7374 95.3568 16.6704 95.2716 16.5852C95.1823 16.5 95.1134 16.3986 95.0647 16.2809C95.016 16.1632 94.9916 16.0374 94.9916 15.9035ZM99.3073 14.3026C99.4331 14.3838 99.5812 14.4629 99.7516 14.54C99.9261 14.6171 100.099 14.6861 100.269 14.747C100.439 14.8078 100.596 14.8586 100.738 14.8991C100.884 14.9357 100.993 14.9539 101.066 14.9539C101.083 14.9539 101.099 14.9539 101.115 14.9539C101.135 14.9499 101.156 14.9458 101.176 14.9417C101.225 14.9296 101.271 14.8687 101.316 14.7591C101.365 14.6455 101.383 14.4913 101.371 14.2965C101.371 14.1667 101.334 14.0246 101.261 13.8704C101.188 13.7122 101.093 13.5661 100.975 13.4322C100.857 13.2942 100.721 13.1806 100.567 13.0913C100.417 12.998 100.263 12.9513 100.105 12.9513C100.048 12.9513 99.9748 13.0325 99.8855 13.1948C99.7963 13.3571 99.6664 13.5986 99.496 13.9191V13.913L99.3073 14.3026ZM76.5678 37.9113C76.6652 37.9154 76.7626 37.9194 76.86 37.9235C76.9614 37.9235 77.0568 37.9235 77.1461 37.9235C77.4667 37.9235 77.773 37.9113 78.0652 37.887C78.3574 37.8626 78.6272 37.8301 78.8748 37.7896C79.1223 37.749 79.3394 37.7064 79.5261 37.6617C79.7168 37.613 79.869 37.5664 79.9826 37.5217H79.9765C80.1875 37.4325 80.3417 37.3533 80.4391 37.2843C80.5365 37.2154 80.6014 37.1626 80.6339 37.1261C80.6948 37.0571 80.7374 36.9861 80.7617 36.913C80.7901 36.8359 80.8043 36.7568 80.8043 36.6757C80.8043 36.5012 80.7374 36.3145 80.6035 36.1157C80.4696 35.9128 80.2971 35.7078 80.0861 35.5009C79.8791 35.2939 79.6478 35.087 79.3922 34.88C79.1406 34.673 78.8951 34.4742 78.6556 34.2835L77.3835 33.2365L77.5843 31.4348L83.0748 29.0426L83.8296 30.8322L79.5383 32.6643C79.7655 32.8551 79.9948 33.0519 80.2261 33.2548C80.4614 33.4577 80.6867 33.6667 80.9017 33.8817C81.1168 34.0928 81.3177 34.3099 81.5043 34.533C81.6951 34.7522 81.8594 34.9774 81.9974 35.2087C82.1394 35.4359 82.251 35.6672 82.3322 35.9026C82.4133 36.138 82.4539 36.3774 82.4539 36.6209C82.4539 36.8887 82.4072 37.1606 82.3139 37.4365C82.2246 37.7125 82.0765 37.9965 81.8696 38.2887H81.8756C81.8513 38.3252 81.8087 38.378 81.7478 38.447C81.691 38.5159 81.6119 38.593 81.5104 38.6783C81.413 38.7635 81.2913 38.8548 81.1452 38.9522C80.9991 39.0455 80.8267 39.1388 80.6278 39.2322C80.0678 39.4797 79.5038 39.6461 78.9356 39.7313C78.3675 39.8165 77.7893 39.8591 77.2009 39.8591H77.073C76.9878 39.8591 76.9006 39.8591 76.8113 39.8591C76.722 39.8591 76.6348 39.8551 76.5496 39.847C75.7907 39.8388 75.111 39.7901 74.5104 39.7009C73.9099 39.6157 73.3823 39.4878 72.9278 39.3174C72.0067 38.9603 71.3736 38.4368 71.0287 37.747V37.753C70.8339 37.3757 70.7365 36.9577 70.7365 36.4991C70.7365 36.3003 70.7609 36.0852 70.8096 35.8539C70.8583 35.6226 70.9212 35.3974 70.9983 35.1783C71.047 35.0646 71.0875 34.9693 71.12 34.8922C71.1565 34.8151 71.191 34.7441 71.2235 34.6791C71.2559 34.6142 71.2925 34.5493 71.333 34.4843C71.3736 34.4194 71.4243 34.3403 71.4852 34.247L72.9278 35.3C72.871 35.4014 72.8081 35.5049 72.7391 35.6104C72.6742 35.7159 72.6133 35.8235 72.5565 35.933C72.5038 36.0426 72.4591 36.1542 72.4226 36.2678C72.3861 36.3814 72.3678 36.4951 72.3678 36.6087C72.3678 36.767 72.4226 36.909 72.5322 37.0348C72.6458 37.1565 72.8 37.2641 72.9948 37.3574C73.1936 37.4467 73.4249 37.5238 73.6887 37.5887C73.9565 37.6536 74.2446 37.7084 74.553 37.753C74.8655 37.7977 75.1922 37.8322 75.533 37.8565C75.8739 37.8809 76.2168 37.8991 76.5617 37.9113H76.5678ZM92.0408 37.7713C92.1504 37.8322 92.264 37.8748 92.3817 37.8991C92.5034 37.9194 92.6231 37.9336 92.7408 37.9417C92.8707 37.9417 92.9944 37.9681 93.1121 38.0209C93.2298 38.0696 93.3312 38.1365 93.4164 38.2217C93.5057 38.307 93.5767 38.4084 93.6295 38.5261C93.6822 38.6438 93.7086 38.7696 93.7086 38.9035C93.7086 39.0374 93.6822 39.1632 93.6295 39.2809C93.5767 39.3986 93.5057 39.5 93.4164 39.5852C93.3312 39.6745 93.2298 39.7435 93.1121 39.7922C92.9944 39.8409 92.8707 39.8652 92.7408 39.8652H92.686C92.5805 39.8652 92.4446 39.8591 92.2782 39.847C92.1159 39.8348 91.9393 39.8003 91.7486 39.7435C91.5579 39.6907 91.3631 39.6096 91.1643 39.5C90.9654 39.3945 90.7788 39.2443 90.6043 39.0496C90.3689 39.2728 90.1072 39.4635 89.8191 39.6217C89.535 39.78 89.2327 39.9099 88.9121 40.0113C88.5915 40.1168 88.2608 40.1939 87.9199 40.2426C87.5791 40.2913 87.2362 40.3157 86.8912 40.3157C86.6964 40.3157 86.4895 40.3035 86.2704 40.2791C86.0553 40.2588 85.8138 40.2203 85.546 40.1635L86.0878 38.3496C86.2744 38.3739 86.4509 38.3942 86.6173 38.4104C86.7878 38.4226 86.944 38.4287 87.086 38.4287C87.2159 38.4287 87.3457 38.4226 87.4756 38.4104C87.6054 38.3983 87.7333 38.3759 87.8591 38.3435C87.7373 37.9052 87.5912 37.4751 87.4208 37.053C87.2504 36.627 87.0657 36.2171 86.8669 35.8235C86.668 35.4299 86.4631 35.0545 86.2521 34.6974C86.0411 34.3403 85.8321 34.0096 85.6251 33.7052C85.4222 33.4009 85.2275 33.1249 85.0408 32.8774C84.8582 32.6258 84.6959 32.4107 84.5538 32.2322L85.9234 30.8139L87.5912 33.4983C87.786 33.8513 87.9707 34.2104 88.1451 34.5757C88.3237 34.9409 88.488 35.302 88.6382 35.6591C88.7924 36.0122 88.9283 36.3551 89.046 36.6878C89.1678 37.0206 89.2692 37.329 89.3504 37.613C89.5086 37.4832 89.6466 37.3371 89.7643 37.1748C89.886 37.0125 89.9489 36.8461 89.953 36.6757C89.9083 36.0467 89.8535 35.4339 89.7886 34.8374C89.7237 34.2368 89.6547 33.6626 89.5817 33.1148C89.5127 32.567 89.4417 32.0496 89.3686 31.5626C89.2956 31.0757 89.2286 30.6293 89.1678 30.2235L91.0547 29.8704C91.0547 29.8786 91.0608 29.9496 91.073 30.0835C91.0892 30.2133 91.1095 30.3939 91.1338 30.6252C91.1622 30.8525 91.1927 31.1223 91.2251 31.4348C91.2576 31.7432 91.2921 32.078 91.3286 32.4391C91.3692 32.7962 91.4078 33.1716 91.4443 33.5652C91.4849 33.9548 91.5214 34.3484 91.5538 34.7461C91.5904 35.1397 91.6228 35.5293 91.6512 35.9148C91.6837 36.2962 91.7101 36.6574 91.7304 36.9983C91.7425 37.1809 91.7791 37.3452 91.8399 37.4913C91.9049 37.6333 91.9718 37.7267 92.0408 37.7713ZM91.724 38.9035C91.724 38.7696 91.7484 38.6458 91.7971 38.5322C91.8458 38.4186 91.9127 38.3191 91.9979 38.2339C92.0832 38.1487 92.1846 38.0817 92.3023 38.033C92.4159 37.9803 92.5397 37.9499 92.6736 37.9417C92.9455 37.9417 93.1808 37.889 93.3797 37.7835C93.5826 37.678 93.7611 37.54 93.9153 37.3696C94.0695 37.1991 94.2075 37.0084 94.3293 36.7974C94.451 36.5864 94.5666 36.3754 94.6762 36.1643V36.1704C94.7817 35.9513 94.8933 35.7342 95.011 35.5191C95.1327 35.3041 95.2646 35.1052 95.4066 34.9226C95.6258 34.667 95.8713 34.4701 96.1432 34.3322C96.415 34.1901 96.7052 34.1191 97.0136 34.1191C97.3788 34.1191 97.7095 34.1942 98.0058 34.3443C98.3061 34.4945 98.5779 34.7096 98.8214 34.9896C99.004 35.2087 99.1522 35.4603 99.2658 35.7443C99.3794 36.0243 99.4545 36.3226 99.491 36.6391V36.627C99.5153 36.7852 99.5275 36.9658 99.5275 37.1687C99.5275 37.3878 99.5072 37.6029 99.4666 37.8139C99.4301 38.0209 99.3774 38.2177 99.3084 38.4043C99.1745 38.7452 98.9817 39.0313 98.7301 39.2626C98.4826 39.4899 98.2127 39.6461 97.9206 39.7313C97.8232 39.7597 97.7258 39.778 97.6284 39.7861C97.535 39.7983 97.4356 39.8043 97.3301 39.8043C97.1475 39.8043 96.9527 39.782 96.7458 39.7374C96.5429 39.6928 96.342 39.6319 96.1432 39.5548C96.062 39.5183 95.9707 39.4757 95.8693 39.427C95.7678 39.3742 95.6603 39.3174 95.5466 39.2565C95.4371 39.1957 95.3275 39.1328 95.2179 39.0678C95.1084 39.0029 95.0069 38.94 94.9136 38.8791C94.7513 39.0293 94.589 39.1652 94.4266 39.287C94.2643 39.4087 94.0939 39.5122 93.9153 39.5974C93.7368 39.6826 93.5461 39.7475 93.3432 39.7922C93.1403 39.8409 92.9191 39.8652 92.6797 39.8652C92.5458 39.8652 92.422 39.8388 92.3084 39.7861C92.1907 39.7374 92.0893 39.6704 92.004 39.5852C91.9148 39.5 91.8458 39.3986 91.7971 39.2809C91.7484 39.1632 91.724 39.0374 91.724 38.9035ZM96.0397 37.3026C96.1655 37.3838 96.3136 37.4629 96.484 37.54C96.6585 37.6171 96.831 37.6861 97.0014 37.747C97.1719 37.8078 97.3281 37.8586 97.4701 37.8991C97.6162 37.9357 97.7258 37.9539 97.7988 37.9539C97.815 37.9539 97.8313 37.9539 97.8475 37.9539C97.8678 37.9499 97.8881 37.9458 97.9084 37.9417C97.9571 37.9296 98.0037 37.8687 98.0484 37.7591C98.0971 37.6455 98.1153 37.4913 98.1032 37.2965C98.1032 37.1667 98.0666 37.0246 97.9936 36.8704C97.9206 36.7122 97.8252 36.5661 97.7075 36.4322C97.5898 36.2942 97.4539 36.1806 97.2997 36.0913C97.1495 35.998 96.9953 35.9513 96.8371 35.9513C96.7803 35.9513 96.7072 36.0325 96.6179 36.1948C96.5287 36.3571 96.3988 36.5986 96.2284 36.9191V36.913L96.0397 37.3026ZM100.378 39.8835C100.399 39.5507 100.419 39.2058 100.439 38.8487C100.459 38.4916 100.476 38.1386 100.488 37.7896C100.504 37.4406 100.514 37.1017 100.518 36.773C100.522 36.4443 100.518 36.142 100.506 35.8661C100.482 35.2899 100.457 34.7846 100.433 34.3504C100.413 33.9122 100.39 33.5246 100.366 33.1878C100.346 32.851 100.324 32.5568 100.299 32.3052C100.279 32.0496 100.257 31.8162 100.232 31.6052C100.208 31.3942 100.181 31.1974 100.153 31.0148C100.125 30.8281 100.094 30.6354 100.062 30.4365L101.943 29.8157C102.032 30.3594 102.103 30.9072 102.156 31.4591C102.212 32.011 102.255 32.5406 102.284 33.0478C102.312 33.551 102.33 34.0197 102.338 34.4539C102.35 34.8881 102.357 35.2594 102.357 35.5678C102.357 35.8478 102.355 36.1501 102.35 36.4748C102.35 36.7994 102.346 37.1362 102.338 37.4852C102.334 37.8342 102.326 38.1872 102.314 38.5443C102.302 38.9014 102.284 39.2504 102.259 39.5913L100.378 39.8835Z" fill="#303030"/>
</svg>
