<svg width="147" height="90" viewBox="0 0 147 90" fill="none" xmlns="http://www.w3.org/2000/svg">
<rect x="0.75" y="0.75" width="145.5" height="88.5" rx="9.25" fill="white" stroke="url(#paint0_linear_2611_57715)" stroke-width="1.5"/>
<path d="M33.8244 67C34.0109 67 34.1898 66.9259 34.3217 66.794C34.4536 66.6621 34.5277 66.4832 34.5277 66.2967V58.5282C34.5277 56.9908 35.3477 55.542 36.6671 54.7515L42.1724 51.4475L45.1937 55.2241C45.2557 55.3013 45.3331 55.3646 45.4211 55.4099C45.509 55.4552 45.6055 55.4815 45.7043 55.4872L45.7437 55.4886C45.9294 55.4886 46.1094 55.4154 46.2416 55.2832L47.8916 53.6333V66.2967C47.8916 66.4832 47.9657 66.6621 48.0975 66.794C48.2294 66.9259 48.4083 67 48.5949 67C48.7814 67 48.9603 66.9259 49.0921 66.794C49.224 66.6621 49.2981 66.4832 49.2981 66.2967V52.2366L49.2967 52.2281L50 51.5234L50.7047 52.2281L50.7033 52.2366V66.2967C50.7033 66.4832 50.7774 66.6621 50.9093 66.794C51.0412 66.9259 51.2201 67 51.4066 67C51.5931 67 51.772 66.9259 51.9039 66.794C52.0358 66.6621 52.1099 66.4832 52.1099 66.2967V53.6333L53.7598 55.2832C53.8252 55.3485 53.9029 55.4002 53.9883 55.4354C54.0738 55.4707 54.1653 55.4887 54.2577 55.4886L54.2971 55.4872C54.3959 55.4815 54.4924 55.4552 54.5804 55.4099C54.6683 55.3646 54.7458 55.3013 54.8077 55.2241L57.829 51.4475L63.3358 54.7515C63.9859 55.145 64.5239 55.699 64.898 56.3604C65.2722 57.0218 65.47 57.7683 65.4724 58.5282V66.2967C65.4724 66.4832 65.5465 66.6621 65.6784 66.794C65.8102 66.9259 65.9891 67 66.1757 67C66.3622 67 66.5411 66.9259 66.673 66.794C66.8049 66.6621 66.8789 66.4832 66.8789 66.2967V58.5282C66.8789 56.4985 65.7973 54.5898 64.0574 53.5461L58.1132 49.9804L55.8851 47.5048C55.7924 47.4057 55.6724 47.3363 55.5402 47.3052C55.408 47.2742 55.2697 47.2829 55.1425 47.3304V44.8366C56.2431 44.0308 57.1384 42.9771 57.756 41.7609C58.3735 40.5447 58.6958 39.2001 58.6969 37.836V34.5221L59.7926 28.4162C59.895 27.8608 59.8852 27.2905 59.7637 26.739C59.6422 26.1875 59.4114 25.6659 59.0851 25.205C58.7615 24.742 58.3485 24.3486 57.8704 24.0478C57.3923 23.7471 56.8589 23.5451 56.3015 23.4538L47.9211 22.057C47.3212 21.957 46.7066 21.9888 46.1202 22.1504C45.5339 22.3119 44.9897 22.5993 44.5256 22.9924C43.7339 23.6645 43.2217 24.6081 43.0895 25.6382C42.2596 25.7929 41.5085 26.236 40.967 26.9055C40.6307 27.3199 40.3917 27.8044 40.2675 28.3234C40.1434 28.8424 40.1373 29.3826 40.2496 29.9043L41.2849 34.75C41.2863 34.7598 41.2933 34.7641 41.2947 34.7711V37.8346C41.2947 40.7054 42.6985 43.2499 44.8491 44.8351V47.3276C44.7227 47.2824 44.5858 47.2749 44.4552 47.3061C44.3245 47.3373 44.2058 47.4059 44.1135 47.5034L41.8869 49.9776L35.9427 53.5447C35.0842 54.0633 34.3736 54.7942 33.8795 55.667C33.3853 56.5398 33.1241 57.5252 33.1211 58.5282V66.2967C33.1211 66.4832 33.1952 66.6621 33.3271 66.794C33.459 66.9259 33.6379 67 33.8244 67ZM56.7403 50.5557L54.1987 53.7332L51.2012 50.7357L55.1917 48.8355L56.7403 50.5557ZM42.0599 27.7916C42.2631 27.5393 42.5204 27.3359 42.8128 27.1964C43.1052 27.0569 43.4252 26.9849 43.7492 26.9857C44.1374 26.9857 44.4525 26.5764 44.4525 26.1882C44.4517 25.8229 44.5231 25.4611 44.6625 25.1234C44.8019 24.7858 45.0066 24.479 45.2648 24.2207C45.523 23.9623 45.8297 23.7575 46.1673 23.6179C46.5048 23.4784 46.8666 23.4068 47.2319 23.4073C47.3855 23.4075 47.5389 23.4202 47.6904 23.4453L56.0708 24.8421C56.8304 24.9686 57.4915 25.385 57.9345 26.0137C58.3776 26.6439 58.5464 27.4077 58.4071 28.1658L57.5308 33.048L56.0314 31.3489V29.8368C56.0314 29.6503 55.9573 29.4714 55.8254 29.3395C55.6935 29.2076 55.5147 29.1335 55.3281 29.1335H44.6635C44.4769 29.1335 44.2981 29.2076 44.1662 29.3395C44.0343 29.4714 43.9602 29.6503 43.9602 29.8368V31.3447L42.3707 33.1099L41.6239 29.6118C41.4874 28.9675 41.6464 28.3036 42.0599 27.7916ZM42.7013 37.8346V34.8456L45.1867 32.0845C45.3028 31.9556 45.367 31.7882 45.3668 31.6147V30.5401H54.6248V31.6147C54.6248 31.7863 54.6867 31.9523 54.8007 32.0803L57.2903 34.9005V37.8346C57.2898 39.0289 56.9961 40.2049 56.435 41.2592C55.8738 42.3135 55.0625 43.214 54.0721 43.8815L54.0692 43.8829C53.7242 44.1102 53.3605 44.3079 52.982 44.4737C52.809 44.551 52.6289 44.6115 52.4503 44.6748C52.0248 44.8268 51.5865 44.9403 51.1408 45.0138C51.0114 45.0349 50.8791 45.0405 50.7483 45.0532C50.247 45.1038 49.7418 45.1038 49.2405 45.0532C49.1111 45.0391 48.9788 45.0349 48.8508 45.0138C48.406 44.9402 47.9687 44.8267 47.5441 44.6748C47.3641 44.6115 47.1826 44.5496 47.0068 44.4722C46.6304 44.3071 46.2685 44.1104 45.9252 43.8843L45.9153 43.8787C44.9261 43.2109 44.1158 42.3107 43.5554 41.257C42.9951 40.2032 42.7018 39.0281 42.7013 37.8346ZM46.9829 45.9871C47.0659 46.0167 47.1461 46.0504 47.2291 46.0772C48.1203 46.3792 49.0548 46.5341 49.9958 46.5357C50.9364 46.5342 51.8704 46.3793 52.7611 46.0772C52.8455 46.049 52.9271 46.0167 53.0115 45.9857C53.2042 45.914 53.3955 45.838 53.5826 45.7536C53.6332 45.7311 53.6867 45.7143 53.7373 45.6903V47.969L50 49.7497L46.2557 47.9662V45.6918C46.3049 45.7157 46.357 45.7311 46.4062 45.7536C46.5947 45.838 46.7874 45.9154 46.9829 45.9871ZM44.8083 48.8355L48.7988 50.7357L45.8014 53.7332L43.2597 50.5557L44.8083 48.8355Z" fill="black"/>
<path d="M40.8576 66.9999C41.0441 66.9999 41.223 66.9258 41.3549 66.7939C41.4868 66.662 41.5609 66.4832 41.5609 66.2966V63.0024C41.5623 61.5519 41.0198 60.1536 40.0404 59.0837L38.9756 57.9177C38.9132 57.8494 38.8381 57.7941 38.7544 57.7549C38.6706 57.7157 38.58 57.6934 38.4877 57.6892C38.3953 57.685 38.3031 57.6991 38.2162 57.7305C38.1293 57.762 38.0494 57.8103 37.9811 57.8726C37.9129 57.935 37.8576 58.0102 37.8184 58.0939C37.7792 58.1776 37.7569 58.2682 37.7527 58.3606C37.7485 58.4529 37.7625 58.5452 37.794 58.6321C37.8255 58.719 37.8738 58.7988 37.9361 58.8671L39.0009 60.0332C39.7437 60.8435 40.1553 61.9031 40.1543 63.0024V66.2966C40.1543 66.4832 40.2284 66.662 40.3603 66.7939C40.4922 66.9258 40.6711 66.9999 40.8576 66.9999ZM61.0251 57.9177L59.9603 59.0851C58.981 60.1545 58.4384 61.5524 58.4398 63.0024V66.2966C58.4398 66.4832 58.5139 66.662 58.6458 66.7939C58.7777 66.9258 58.9566 66.9999 59.1431 66.9999C59.3296 66.9999 59.5085 66.9258 59.6404 66.7939C59.7723 66.662 59.8464 66.4832 59.8464 66.2966V63.0024C59.8464 61.9011 60.2557 60.8462 60.9984 60.0332L62.0631 58.8671C62.1255 58.7989 62.1738 58.7192 62.2053 58.6323C62.2368 58.5455 62.2509 58.4533 62.2468 58.3611C62.2427 58.2688 62.2204 58.1782 62.1813 58.0945C62.1422 58.0108 62.087 57.9357 62.0188 57.8734C61.9507 57.811 61.8709 57.7627 61.7841 57.7312C61.6973 57.6997 61.6051 57.6856 61.5128 57.6897C61.4205 57.6938 61.3299 57.7161 61.2463 57.7552C61.1626 57.7943 61.0874 57.8495 61.0251 57.9177Z" fill="black"/>
<path d="M84.4098 33.4035C84.564 33.8417 84.6979 34.2699 84.8116 34.6878C84.8603 34.8704 84.909 35.0612 84.9577 35.26C85.0064 35.4548 85.049 35.6516 85.0855 35.8504C85.1261 36.0452 85.1585 36.238 85.1829 36.4287C85.2072 36.6154 85.2194 36.7899 85.2194 36.9522C85.2194 37.3336 85.1666 37.7049 85.0611 38.0661C84.9597 38.4313 84.8136 38.7843 84.6229 39.1252C84.4362 39.4661 84.213 39.7928 83.9533 40.1052C83.6936 40.4217 83.4055 40.718 83.089 40.9939C82.7724 41.2699 82.4336 41.5255 82.0724 41.7609C81.7113 42.0003 81.3379 42.2154 80.9524 42.4061L79.8446 40.8661C80.1368 40.72 80.433 40.5536 80.7333 40.367C81.0295 40.1843 81.3136 39.9875 81.5855 39.7765C81.8614 39.5655 82.1171 39.3443 82.3524 39.113C82.5919 38.8817 82.7988 38.6464 82.9733 38.407C83.1519 38.1675 83.2919 37.9241 83.3933 37.6765C83.4948 37.433 83.5455 37.1936 83.5455 36.9583C83.5455 36.7878 83.5211 36.6032 83.4724 36.4043C83.4278 36.2055 83.3649 35.9925 83.2837 35.7652C83.2066 35.5339 83.1133 35.2904 83.0037 35.0348C82.8942 34.7751 82.7765 34.4991 82.6507 34.207L84.4098 33.4035ZM88.4851 33.9087C88.3999 33.8925 88.3025 33.9229 88.1929 34C88.0874 34.073 87.9859 34.1745 87.8886 34.3043C87.7952 34.4301 87.7161 34.5701 87.6512 34.7243C87.5903 34.8786 87.5599 35.0267 87.5599 35.1687C87.5599 35.3026 87.5984 35.4142 87.6755 35.5035C87.7526 35.5928 87.85 35.6658 87.9677 35.7226C88.0894 35.7794 88.2213 35.822 88.3633 35.8504C88.5094 35.8788 88.6494 35.8991 88.7833 35.9113H88.7772C88.8828 35.9194 89.0025 35.9255 89.1364 35.9296C89.2744 35.9296 89.4083 35.9296 89.5381 35.9296C89.5787 35.9296 89.6091 35.9316 89.6294 35.9357C89.6538 35.9357 89.6741 35.9357 89.6903 35.9357C89.7065 35.9357 89.7228 35.9357 89.739 35.9357C89.7593 35.9357 89.7877 35.9336 89.8242 35.9296C89.7633 35.678 89.6903 35.4386 89.6051 35.2113C89.5239 34.98 89.4286 34.773 89.319 34.5904C89.2094 34.4078 89.0857 34.2577 88.9477 34.14C88.8097 34.0183 88.6555 33.9412 88.4851 33.9087ZM85.5025 40.2817C86.0746 40.1681 86.5961 40.0241 87.0668 39.8496C87.5375 39.6791 87.9494 39.4864 88.3025 39.2713C88.6596 39.0603 88.9538 38.8351 89.1851 38.5957C89.4204 38.3562 89.5868 38.1128 89.6842 37.8652C89.5097 37.8652 89.3251 37.8612 89.1303 37.853C88.9355 37.849 88.7752 37.8429 88.6494 37.8348C88.1787 37.7942 87.7486 37.6887 87.359 37.5183C86.9694 37.3519 86.659 37.1246 86.4277 36.8365C86.2572 36.6174 86.1355 36.38 86.0625 36.1243C85.9935 35.8687 85.959 35.5988 85.959 35.3148C85.959 35.0957 85.9793 34.8765 86.0199 34.6574C86.0604 34.4342 86.1172 34.2191 86.1903 34.0122C86.2633 33.8012 86.3486 33.6023 86.4459 33.4157C86.5474 33.229 86.6549 33.0586 86.7686 32.9043C87.012 32.6 87.2778 32.3707 87.5659 32.2165C87.8581 32.0583 88.1645 31.9791 88.4851 31.9791C89.1709 31.9791 89.7897 32.2794 90.3416 32.88C90.5364 33.0991 90.7109 33.3446 90.8651 33.6165C91.0193 33.8884 91.1491 34.1786 91.2546 34.487C91.3642 34.7913 91.4474 35.1119 91.5042 35.4487C91.561 35.7814 91.5894 36.1203 91.5894 36.4652C91.5894 36.5707 91.5854 36.6762 91.5772 36.7817C91.5732 36.8872 91.5671 36.9867 91.559 37.08C91.5103 37.5548 91.4028 37.9991 91.2364 38.413C91.0741 38.831 90.863 39.2145 90.6033 39.5635C90.3477 39.9165 90.0494 40.2351 89.7086 40.5191C89.3677 40.8072 88.9964 41.0588 88.5946 41.2739C88.197 41.493 87.7749 41.6757 87.3286 41.8217C86.8822 41.9678 86.4236 42.0774 85.9529 42.1504L85.5025 40.2817ZM95.5409 37.8652C95.0418 37.8652 94.6137 37.8023 94.2566 37.6765C93.8995 37.5548 93.591 37.3661 93.3313 37.1104C93.169 36.9481 93.0432 36.7777 92.9539 36.5991C92.8687 36.4206 92.8058 36.2461 92.7653 36.0757C92.7287 35.9012 92.7064 35.7368 92.6983 35.5826C92.6942 35.4284 92.6922 35.2965 92.6922 35.187V35.0957C92.6963 34.9455 92.7003 34.7304 92.7044 34.4504C92.7125 34.1664 92.7166 33.8336 92.7166 33.4522C92.7166 33.0707 92.7145 32.6507 92.7105 32.1922C92.7064 31.7336 92.6942 31.2771 92.6739 30.8226C92.6577 30.3641 92.6313 29.9238 92.5948 29.5017C92.5624 29.0797 92.5157 28.7125 92.4548 28.4L94.2748 27.8461C94.3276 28.1139 94.3702 28.4304 94.4026 28.7957C94.4351 29.1568 94.4615 29.5362 94.4818 29.9339C94.5061 30.3316 94.5224 30.7313 94.5305 31.133C94.5426 31.5348 94.5508 31.9081 94.5548 32.253C94.5589 32.5574 94.5467 32.8557 94.5183 33.1478C94.4939 33.4359 94.4737 33.72 94.4574 34C94.4412 34.2759 94.4412 34.5458 94.4574 34.8096C94.4777 35.0693 94.5345 35.3229 94.6279 35.5704C94.6644 35.6638 94.709 35.7348 94.7618 35.7835C94.8186 35.8322 94.8835 35.8687 94.9566 35.893C95.0296 35.9133 95.1087 35.9255 95.1939 35.9296C95.2832 35.9336 95.3806 35.9357 95.4861 35.9357H95.5409C95.6708 35.9357 95.7945 35.962 95.9122 36.0148C96.0299 36.0675 96.1313 36.1386 96.2166 36.2278C96.3058 36.313 96.3768 36.4145 96.4296 36.5322C96.4824 36.6499 96.5087 36.7736 96.5087 36.9035C96.5087 37.0374 96.4824 37.1632 96.4296 37.2809C96.3768 37.3986 96.3058 37.5 96.2166 37.5852C96.1313 37.6745 96.0299 37.7435 95.9122 37.7922C95.7945 37.8409 95.6708 37.8652 95.5409 37.8652ZM94.5512 36.9035C94.5512 36.7777 94.5776 36.658 94.6304 36.5443C94.6831 36.4307 94.7562 36.3313 94.8495 36.2461C94.9388 36.1568 95.0463 36.0858 95.1721 36.033C95.2939 35.9803 95.4257 35.9499 95.5678 35.9417C95.7828 35.9417 95.9837 35.9072 96.1704 35.8383C96.357 35.7652 96.5336 35.6272 96.6999 35.4243C96.8663 35.2214 97.0226 34.9354 97.1686 34.5661C97.3147 34.1968 97.4547 33.7139 97.5886 33.1174L99.2078 33.3487C99.2199 33.3 99.2118 33.3264 99.1834 33.4278C99.1591 33.5293 99.1286 33.6733 99.0921 33.86C99.0597 34.0426 99.0272 34.2496 98.9947 34.4809C98.9663 34.7081 98.9521 34.9272 98.9521 35.1383C98.9562 35.3452 98.9805 35.5258 99.0252 35.68C99.0739 35.8301 99.157 35.9194 99.2747 35.9478C99.4005 35.9803 99.5223 35.9559 99.6399 35.8748C99.7576 35.7896 99.8692 35.6699 99.9747 35.5157C100.08 35.3574 100.178 35.1748 100.267 34.9678C100.356 34.7568 100.437 34.5417 100.51 34.3226C100.583 34.1035 100.646 33.8884 100.699 33.6774C100.752 33.4664 100.792 33.2797 100.821 33.1174L102.428 33.3487C102.42 33.4501 102.405 33.5861 102.385 33.7565C102.365 33.9229 102.349 34.1014 102.336 34.2922C102.324 34.4829 102.318 34.6757 102.318 34.8704C102.322 35.0612 102.345 35.2357 102.385 35.3939C102.426 35.5481 102.489 35.6759 102.574 35.7774C102.659 35.8748 102.777 35.9235 102.927 35.9235C103.061 35.9235 103.176 35.8788 103.274 35.7896C103.371 35.7003 103.452 35.5846 103.517 35.4426C103.586 35.2965 103.641 35.1322 103.682 34.9496C103.722 34.7629 103.753 34.5742 103.773 34.3835C103.793 34.1928 103.803 34.0081 103.803 33.8296C103.803 33.647 103.797 33.4867 103.785 33.3487L105.429 33.1174L105.63 34.8339C105.654 35.0206 105.707 35.1829 105.788 35.3209C105.869 35.4588 105.964 35.5745 106.074 35.6678C106.183 35.7571 106.299 35.8261 106.421 35.8748C106.543 35.9194 106.658 35.9417 106.768 35.9417H106.841C106.991 35.9417 107.127 35.9661 107.249 36.0148C107.374 36.0635 107.482 36.1325 107.571 36.2217C107.661 36.307 107.73 36.4084 107.778 36.5261C107.827 36.6438 107.851 36.7696 107.851 36.9035C107.851 37.0374 107.827 37.1632 107.778 37.2809C107.73 37.3986 107.658 37.5 107.565 37.5852C107.476 37.6704 107.362 37.7374 107.224 37.7861C107.09 37.8388 106.938 37.8652 106.768 37.8652C106.374 37.8652 106.003 37.7962 105.654 37.6583C105.305 37.5203 105.003 37.287 104.747 36.9583C104.723 36.9907 104.698 37.0191 104.674 37.0435C104.65 37.0678 104.627 37.0922 104.607 37.1165V37.1104C104.388 37.3417 104.134 37.5243 103.846 37.6583C103.562 37.7962 103.256 37.8652 102.927 37.8652C102.558 37.8652 102.217 37.7861 101.904 37.6278C101.596 37.4696 101.338 37.2545 101.131 36.9826C100.888 37.2504 100.612 37.4675 100.303 37.6339C99.995 37.8003 99.6562 37.8835 99.2869 37.8835C98.942 37.8835 98.6214 37.8064 98.3252 37.6522C98.0289 37.498 97.7834 37.287 97.5886 37.0191C97.3695 37.3235 97.0976 37.5406 96.773 37.6704C96.4524 37.8003 96.0547 37.8652 95.5799 37.8652C95.4257 37.8652 95.2857 37.8388 95.1599 37.7861C95.0341 37.7374 94.9266 37.6704 94.8373 37.5852C94.7481 37.5 94.6791 37.3986 94.6304 37.2809C94.5776 37.1632 94.5512 37.0374 94.5512 36.9035ZM103.968 30.64L102.799 31.8148L101.643 30.6583L100.498 31.8026L99.3173 30.6278L100.486 29.453L101.643 30.6096L102.787 29.4652L103.968 30.64ZM100.559 28.8748L101.643 27.7913L102.732 28.8809L101.649 29.9643L100.559 28.8748ZM105.992 36.9035C105.992 36.7696 106.016 36.6458 106.065 36.5322C106.113 36.4186 106.18 36.3191 106.266 36.2339C106.351 36.1487 106.452 36.0817 106.57 36.033C106.683 35.9803 106.807 35.9499 106.941 35.9417C107.213 35.9417 107.448 35.889 107.647 35.7835C107.85 35.678 108.029 35.54 108.183 35.3696C108.337 35.1991 108.475 35.0084 108.597 34.7974C108.719 34.5864 108.834 34.3754 108.944 34.1643V34.1704C109.049 33.9513 109.161 33.7342 109.279 33.5191C109.4 33.3041 109.532 33.1052 109.674 32.9226C109.893 32.667 110.139 32.4701 110.411 32.3322C110.683 32.1901 110.973 32.1191 111.281 32.1191C111.646 32.1191 111.977 32.1942 112.273 32.3443C112.574 32.4945 112.846 32.7096 113.089 32.9896C113.272 33.2087 113.42 33.4603 113.533 33.7443C113.647 34.0243 113.722 34.3226 113.759 34.6391V34.627C113.783 34.7852 113.795 34.9658 113.795 35.1687C113.795 35.3878 113.775 35.6029 113.734 35.8139C113.698 36.0209 113.645 36.2177 113.576 36.4043C113.442 36.7452 113.249 37.0313 112.998 37.2626C112.75 37.4899 112.48 37.6461 112.188 37.7313C112.091 37.7597 111.993 37.778 111.896 37.7861C111.803 37.7983 111.703 37.8043 111.598 37.8043C111.415 37.8043 111.22 37.782 111.013 37.7374C110.81 37.6928 110.61 37.6319 110.411 37.5548C110.33 37.5183 110.238 37.4757 110.137 37.427C110.035 37.3742 109.928 37.3174 109.814 37.2565C109.705 37.1957 109.595 37.1328 109.486 37.0678C109.376 37.0029 109.275 36.94 109.181 36.8791C109.019 37.0293 108.857 37.1652 108.694 37.287C108.532 37.4087 108.361 37.5122 108.183 37.5974C108.004 37.6826 107.814 37.7475 107.611 37.7922C107.408 37.8409 107.187 37.8652 106.947 37.8652C106.813 37.8652 106.69 37.8388 106.576 37.7861C106.458 37.7374 106.357 37.6704 106.272 37.5852C106.182 37.5 106.113 37.3986 106.065 37.2809C106.016 37.1632 105.992 37.0374 105.992 36.9035ZM110.307 35.3026C110.433 35.3838 110.581 35.4629 110.752 35.54C110.926 35.6171 111.099 35.6861 111.269 35.747C111.439 35.8078 111.596 35.8586 111.738 35.8991C111.884 35.9357 111.993 35.9539 112.066 35.9539C112.083 35.9539 112.099 35.9539 112.115 35.9539C112.135 35.9499 112.156 35.9458 112.176 35.9417C112.225 35.9296 112.271 35.8687 112.316 35.7591C112.365 35.6455 112.383 35.4913 112.371 35.2965C112.371 35.1667 112.334 35.0246 112.261 34.8704C112.188 34.7122 112.093 34.5661 111.975 34.4322C111.857 34.2942 111.721 34.1806 111.567 34.0913C111.417 33.998 111.263 33.9513 111.105 33.9513C111.048 33.9513 110.975 34.0325 110.886 34.1948C110.796 34.3571 110.666 34.5986 110.496 34.9191V34.913L110.307 35.3026ZM87.5678 58.9113C87.6652 58.9154 87.7626 58.9194 87.86 58.9235C87.9614 58.9235 88.0568 58.9235 88.1461 58.9235C88.4667 58.9235 88.773 58.9113 89.0652 58.887C89.3574 58.8626 89.6272 58.8301 89.8748 58.7896C90.1223 58.749 90.3394 58.7064 90.5261 58.6617C90.7168 58.613 90.869 58.5664 90.9826 58.5217H90.9765C91.1875 58.4325 91.3417 58.3533 91.4391 58.2843C91.5365 58.2154 91.6014 58.1626 91.6339 58.1261C91.6948 58.0571 91.7374 57.9861 91.7617 57.913C91.7901 57.8359 91.8043 57.7568 91.8043 57.6757C91.8043 57.5012 91.7374 57.3145 91.6035 57.1157C91.4696 56.9128 91.2971 56.7078 91.0861 56.5009C90.8791 56.2939 90.6478 56.087 90.3922 55.88C90.1406 55.673 89.8951 55.4742 89.6556 55.2835L88.3835 54.2365L88.5843 52.4348L94.0748 50.0426L94.8296 51.8322L90.5383 53.6643C90.7655 53.8551 90.9948 54.0519 91.2261 54.2548C91.4614 54.4577 91.6867 54.6667 91.9017 54.8817C92.1168 55.0928 92.3177 55.3099 92.5043 55.533C92.6951 55.7522 92.8594 55.9774 92.9974 56.2087C93.1394 56.4359 93.251 56.6672 93.3322 56.9026C93.4133 57.138 93.4539 57.3774 93.4539 57.6209C93.4539 57.8887 93.4072 58.1606 93.3139 58.4365C93.2246 58.7125 93.0765 58.9965 92.8696 59.2887H92.8756C92.8513 59.3252 92.8087 59.378 92.7478 59.447C92.691 59.5159 92.6119 59.593 92.5104 59.6783C92.413 59.7635 92.2913 59.8548 92.1452 59.9522C91.9991 60.0455 91.8267 60.1388 91.6278 60.2322C91.0678 60.4797 90.5038 60.6461 89.9356 60.7313C89.3675 60.8165 88.7893 60.8591 88.2009 60.8591H88.073C87.9878 60.8591 87.9006 60.8591 87.8113 60.8591C87.722 60.8591 87.6348 60.8551 87.5496 60.847C86.7907 60.8388 86.111 60.7901 85.5104 60.7009C84.9099 60.6157 84.3823 60.4878 83.9278 60.3174C83.0067 59.9603 82.3736 59.4368 82.0287 58.747V58.753C81.8339 58.3757 81.7365 57.9577 81.7365 57.4991C81.7365 57.3003 81.7609 57.0852 81.8096 56.8539C81.8583 56.6226 81.9212 56.3974 81.9983 56.1783C82.047 56.0646 82.0875 55.9693 82.12 55.8922C82.1565 55.8151 82.191 55.7441 82.2235 55.6791C82.2559 55.6142 82.2925 55.5493 82.333 55.4843C82.3736 55.4194 82.4243 55.3403 82.4852 55.247L83.9278 56.3C83.871 56.4014 83.8081 56.5049 83.7391 56.6104C83.6742 56.7159 83.6133 56.8235 83.5565 56.933C83.5038 57.0426 83.4591 57.1542 83.4226 57.2678C83.3861 57.3814 83.3678 57.4951 83.3678 57.6087C83.3678 57.767 83.4226 57.909 83.5322 58.0348C83.6458 58.1565 83.8 58.2641 83.9948 58.3574C84.1936 58.4467 84.4249 58.5238 84.6887 58.5887C84.9565 58.6536 85.2446 58.7084 85.553 58.753C85.8655 58.7977 86.1922 58.8322 86.533 58.8565C86.8739 58.8809 87.2168 58.8991 87.5617 58.9113H87.5678ZM103.041 58.7713C103.15 58.8322 103.264 58.8748 103.382 58.8991C103.503 58.9194 103.623 58.9336 103.741 58.9417C103.871 58.9417 103.994 58.9681 104.112 59.0209C104.23 59.0696 104.331 59.1365 104.416 59.2217C104.506 59.307 104.577 59.4084 104.629 59.5261C104.682 59.6438 104.709 59.7696 104.709 59.9035C104.709 60.0374 104.682 60.1632 104.629 60.2809C104.577 60.3986 104.506 60.5 104.416 60.5852C104.331 60.6745 104.23 60.7435 104.112 60.7922C103.994 60.8409 103.871 60.8652 103.741 60.8652H103.686C103.581 60.8652 103.445 60.8591 103.278 60.847C103.116 60.8348 102.939 60.8003 102.749 60.7435C102.558 60.6907 102.363 60.6096 102.164 60.5C101.965 60.3945 101.779 60.2443 101.604 60.0496C101.369 60.2728 101.107 60.4635 100.819 60.6217C100.535 60.78 100.233 60.9099 99.9121 61.0113C99.5915 61.1168 99.2608 61.1939 98.9199 61.2426C98.5791 61.2913 98.2362 61.3157 97.8912 61.3157C97.6964 61.3157 97.4895 61.3035 97.2704 61.2791C97.0553 61.2588 96.8138 61.2203 96.546 61.1635L97.0878 59.3496C97.2744 59.3739 97.4509 59.3942 97.6173 59.4104C97.7878 59.4226 97.944 59.4287 98.086 59.4287C98.2159 59.4287 98.3457 59.4226 98.4756 59.4104C98.6054 59.3983 98.7333 59.3759 98.8591 59.3435C98.7373 58.9052 98.5912 58.4751 98.4208 58.053C98.2504 57.627 98.0657 57.2171 97.8669 56.8235C97.668 56.4299 97.4631 56.0545 97.2521 55.6974C97.0411 55.3403 96.8321 55.0096 96.6251 54.7052C96.4222 54.4009 96.2275 54.1249 96.0408 53.8774C95.8582 53.6258 95.6959 53.4107 95.5538 53.2322L96.9234 51.8139L98.5912 54.4983C98.786 54.8513 98.9707 55.2104 99.1451 55.5757C99.3237 55.9409 99.488 56.302 99.6382 56.6591C99.7924 57.0122 99.9283 57.3551 100.046 57.6878C100.168 58.0206 100.269 58.329 100.35 58.613C100.509 58.4832 100.647 58.3371 100.764 58.1748C100.886 58.0125 100.949 57.8461 100.953 57.6757C100.908 57.0467 100.854 56.4339 100.789 55.8374C100.724 55.2368 100.655 54.6626 100.582 54.1148C100.513 53.567 100.442 53.0496 100.369 52.5626C100.296 52.0757 100.229 51.6293 100.168 51.2235L102.055 50.8704C102.055 50.8786 102.061 50.9496 102.073 51.0835C102.089 51.2133 102.109 51.3939 102.134 51.6252C102.162 51.8525 102.193 52.1223 102.225 52.4348C102.258 52.7432 102.292 53.078 102.329 53.4391C102.369 53.7962 102.408 54.1716 102.444 54.5652C102.485 54.9548 102.521 55.3484 102.554 55.7461C102.59 56.1397 102.623 56.5293 102.651 56.9148C102.684 57.2962 102.71 57.6574 102.73 57.9983C102.743 58.1809 102.779 58.3452 102.84 58.4913C102.905 58.6333 102.972 58.7267 103.041 58.7713ZM102.724 59.9035C102.724 59.7696 102.748 59.6458 102.797 59.5322C102.846 59.4186 102.913 59.3191 102.998 59.2339C103.083 59.1487 103.185 59.0817 103.302 59.033C103.416 58.9803 103.54 58.9499 103.674 58.9417C103.945 58.9417 104.181 58.889 104.38 58.7835C104.583 58.678 104.761 58.54 104.915 58.3696C105.07 58.1991 105.208 58.0084 105.329 57.7974C105.451 57.5864 105.567 57.3754 105.676 57.1643V57.1704C105.782 56.9513 105.893 56.7342 106.011 56.5191C106.133 56.3041 106.265 56.1052 106.407 55.9226C106.626 55.667 106.871 55.4701 107.143 55.3322C107.415 55.1901 107.705 55.1191 108.014 55.1191C108.379 55.1191 108.71 55.1942 109.006 55.3443C109.306 55.4945 109.578 55.7096 109.821 55.9896C110.004 56.2087 110.152 56.4603 110.266 56.7443C110.379 57.0243 110.454 57.3226 110.491 57.6391V57.627C110.515 57.7852 110.528 57.9658 110.528 58.1687C110.528 58.3878 110.507 58.6029 110.467 58.8139C110.43 59.0209 110.377 59.2177 110.308 59.4043C110.174 59.7452 109.982 60.0313 109.73 60.2626C109.483 60.4899 109.213 60.6461 108.921 60.7313C108.823 60.7597 108.726 60.778 108.628 60.7861C108.535 60.7983 108.436 60.8043 108.33 60.8043C108.148 60.8043 107.953 60.782 107.746 60.7374C107.543 60.6928 107.342 60.6319 107.143 60.5548C107.062 60.5183 106.971 60.4757 106.869 60.427C106.768 60.3742 106.66 60.3174 106.547 60.2565C106.437 60.1957 106.328 60.1328 106.218 60.0678C106.108 60.0029 106.007 59.94 105.914 59.8791C105.751 60.0293 105.589 60.1652 105.427 60.287C105.264 60.4087 105.094 60.5122 104.915 60.5974C104.737 60.6826 104.546 60.7475 104.343 60.7922C104.14 60.8409 103.919 60.8652 103.68 60.8652C103.546 60.8652 103.422 60.8388 103.308 60.7861C103.191 60.7374 103.089 60.6704 103.004 60.5852C102.915 60.5 102.846 60.3986 102.797 60.2809C102.748 60.1632 102.724 60.0374 102.724 59.9035ZM107.04 58.3026C107.165 58.3838 107.314 58.4629 107.484 58.54C107.659 58.6171 107.831 58.6861 108.001 58.747C108.172 58.8078 108.328 58.8586 108.47 58.8991C108.616 58.9357 108.726 58.9539 108.799 58.9539C108.815 58.9539 108.831 58.9539 108.848 58.9539C108.868 58.9499 108.888 58.9458 108.908 58.9417C108.957 58.9296 109.004 58.8687 109.048 58.7591C109.097 58.6455 109.115 58.4913 109.103 58.2965C109.103 58.1667 109.067 58.0246 108.994 57.8704C108.921 57.7122 108.825 57.5661 108.708 57.4322C108.59 57.2942 108.454 57.1806 108.3 57.0913C108.15 56.998 107.995 56.9513 107.837 56.9513C107.78 56.9513 107.707 57.0325 107.618 57.1948C107.529 57.3571 107.399 57.5986 107.228 57.9191V57.913L107.04 58.3026ZM111.378 60.8835C111.399 60.5507 111.419 60.2058 111.439 59.8487C111.459 59.4916 111.476 59.1386 111.488 58.7896C111.504 58.4406 111.514 58.1017 111.518 57.773C111.522 57.4443 111.518 57.142 111.506 56.8661C111.482 56.2899 111.457 55.7846 111.433 55.3504C111.413 54.9122 111.39 54.5246 111.366 54.1878C111.346 53.851 111.324 53.5568 111.299 53.3052C111.279 53.0496 111.257 52.8162 111.232 52.6052C111.208 52.3942 111.181 52.1974 111.153 52.0148C111.125 51.8281 111.094 51.6354 111.062 51.4365L112.943 50.8157C113.032 51.3594 113.103 51.9072 113.156 52.4591C113.212 53.011 113.255 53.5406 113.284 54.0478C113.312 54.551 113.33 55.0197 113.338 55.4539C113.35 55.8881 113.357 56.2594 113.357 56.5678C113.357 56.8478 113.355 57.1501 113.35 57.4748C113.35 57.7994 113.346 58.1362 113.338 58.4852C113.334 58.8342 113.326 59.1872 113.314 59.5443C113.302 59.9014 113.284 60.2504 113.259 60.5913L111.378 60.8835Z" fill="#303030"/>
<defs>
<linearGradient id="paint0_linear_2611_57715" x1="5.08426" y1="6.15789" x2="151.122" y2="67.5913" gradientUnits="userSpaceOnUse">
<stop stop-color="#EAEAEA"/>
<stop offset="1" stop-color="#BDBDBD"/>
</linearGradient>
</defs>
</svg>
