<svg width="179" height="76" viewBox="0 0 179 76" fill="none" xmlns="http://www.w3.org/2000/svg">
<rect x="0.75" y="0.75" width="177.5" height="74.5" rx="9.25" fill="white"/>
<rect x="0.75" y="0.75" width="177.5" height="74.5" rx="9.25" stroke="url(#paint0_linear_4574_22145)" stroke-width="1.5"/>
<path d="M39.3244 60.5C39.5109 60.5 39.6898 60.4259 39.8217 60.294C39.9536 60.1621 40.0277 59.9832 40.0277 59.7967V52.0282C40.0277 50.4908 40.8477 49.042 42.1671 48.2515L47.6724 44.9475L50.6937 48.7241C50.7557 48.8013 50.8331 48.8646 50.9211 48.9099C51.009 48.9552 51.1055 48.9815 51.2043 48.9872L51.2437 48.9886C51.4294 48.9886 51.6094 48.9154 51.7416 48.7832L53.3916 47.1333V59.7967C53.3916 59.9832 53.4657 60.1621 53.5975 60.294C53.7294 60.4259 53.9083 60.5 54.0949 60.5C54.2814 60.5 54.4603 60.4259 54.5921 60.294C54.724 60.1621 54.7981 59.9832 54.7981 59.7967V45.7366L54.7967 45.7281L55.5 45.0234L56.2047 45.7281L56.2033 45.7366V59.7967C56.2033 59.9832 56.2774 60.1621 56.4093 60.294C56.5412 60.4259 56.7201 60.5 56.9066 60.5C57.0931 60.5 57.272 60.4259 57.4039 60.294C57.5358 60.1621 57.6099 59.9832 57.6099 59.7967V47.1333L59.2598 48.7832C59.3252 48.8485 59.4029 48.9002 59.4883 48.9354C59.5738 48.9707 59.6653 48.9887 59.7577 48.9886L59.7971 48.9872C59.8959 48.9815 59.9924 48.9552 60.0804 48.9099C60.1683 48.8646 60.2458 48.8013 60.3077 48.7241L63.329 44.9475L68.8358 48.2515C69.4859 48.645 70.0239 49.199 70.398 49.8604C70.7722 50.5218 70.97 51.2683 70.9724 52.0282V59.7967C70.9724 59.9832 71.0465 60.1621 71.1784 60.294C71.3102 60.4259 71.4891 60.5 71.6757 60.5C71.8622 60.5 72.0411 60.4259 72.173 60.294C72.3049 60.1621 72.3789 59.9832 72.3789 59.7967V52.0282C72.3789 49.9985 71.2973 48.0898 69.5574 47.0461L63.6132 43.4804L61.3851 41.0048C61.2924 40.9057 61.1724 40.8363 61.0402 40.8052C60.908 40.7742 60.7697 40.7829 60.6425 40.8304V38.3366C61.7431 37.5308 62.6384 36.4771 63.256 35.2609C63.8735 34.0447 64.1958 32.7001 64.1969 31.336V28.0221L65.2926 21.9162C65.395 21.3608 65.3852 20.7905 65.2637 20.239C65.1422 19.6875 64.9114 19.1659 64.5851 18.705C64.2615 18.242 63.8485 17.8486 63.3704 17.5478C62.8923 17.2471 62.3589 17.0451 61.8015 16.9538L53.4211 15.557C52.8212 15.457 52.2066 15.4888 51.6202 15.6504C51.0339 15.8119 50.4897 16.0993 50.0256 16.4924C49.2339 17.1645 48.7217 18.1081 48.5895 19.1382C47.7596 19.2929 47.0085 19.736 46.467 20.4055C46.1307 20.8199 45.8917 21.3044 45.7675 21.8234C45.6434 22.3424 45.6373 22.8826 45.7496 23.4043L46.7849 28.25C46.7863 28.2598 46.7933 28.2641 46.7947 28.2711V31.3346C46.7947 34.2054 48.1985 36.7499 50.3491 38.3351V40.8276C50.2227 40.7824 50.0858 40.7749 49.9552 40.8061C49.8245 40.8373 49.7058 40.9059 49.6135 41.0034L47.3869 43.4776L41.4427 47.0447C40.5842 47.5633 39.8736 48.2942 39.3795 49.167C38.8853 50.0398 38.6241 51.0252 38.6211 52.0282V59.7967C38.6211 59.9832 38.6952 60.1621 38.8271 60.294C38.959 60.4259 39.1379 60.5 39.3244 60.5ZM62.2403 44.0557L59.6987 47.2332L56.7012 44.2357L60.6917 42.3355L62.2403 44.0557ZM47.5599 21.2916C47.7631 21.0393 48.0204 20.8359 48.3128 20.6964C48.6052 20.5569 48.9252 20.4849 49.2492 20.4857C49.6374 20.4857 49.9525 20.0764 49.9525 19.6882C49.9517 19.3229 50.0231 18.9611 50.1625 18.6234C50.3019 18.2858 50.5066 17.979 50.7648 17.7207C51.023 17.4623 51.3297 17.2575 51.6673 17.1179C52.0048 16.9784 52.3666 16.9068 52.7319 16.9073C52.8855 16.9075 53.0389 16.9202 53.1904 16.9453L61.5708 18.3421C62.3304 18.4686 62.9915 18.885 63.4345 19.5137C63.8776 20.1439 64.0464 20.9077 63.9071 21.6658L63.0308 26.548L61.5314 24.8489V23.3368C61.5314 23.1503 61.4573 22.9714 61.3254 22.8395C61.1935 22.7076 61.0147 22.6335 60.8281 22.6335H50.1635C49.9769 22.6335 49.7981 22.7076 49.6662 22.8395C49.5343 22.9714 49.4602 23.1503 49.4602 23.3368V24.8447L47.8707 26.6099L47.1239 23.1118C46.9874 22.4675 47.1464 21.8036 47.5599 21.2916ZM48.2013 31.3346V28.3456L50.6867 25.5845C50.8028 25.4556 50.867 25.2882 50.8668 25.1147V24.0401H60.1248V25.1147C60.1248 25.2863 60.1867 25.4523 60.3007 25.5803L62.7903 28.4005V31.3346C62.7898 32.5289 62.4961 33.7049 61.935 34.7592C61.3738 35.8135 60.5625 36.714 59.5721 37.3815L59.5692 37.3829C59.2242 37.6102 58.8605 37.8079 58.482 37.9737C58.309 38.051 58.1289 38.1115 57.9503 38.1748C57.5248 38.3268 57.0865 38.4403 56.6408 38.5138C56.5114 38.5349 56.3791 38.5405 56.2483 38.5532C55.747 38.6038 55.2418 38.6038 54.7405 38.5532C54.6111 38.5391 54.4788 38.5349 54.3508 38.5138C53.906 38.4402 53.4687 38.3267 53.0441 38.1748C52.8641 38.1115 52.6826 38.0496 52.5068 37.9722C52.1304 37.8071 51.7685 37.6104 51.4252 37.3843L51.4153 37.3787C50.4261 36.7109 49.6158 35.8107 49.0554 34.757C48.4951 33.7032 48.2018 32.5281 48.2013 31.3346ZM52.4829 39.4871C52.5659 39.5167 52.6461 39.5504 52.7291 39.5772C53.6203 39.8792 54.5548 40.0341 55.4958 40.0357C56.4364 40.0342 57.3704 39.8793 58.2611 39.5772C58.3455 39.549 58.4271 39.5167 58.5115 39.4857C58.7042 39.414 58.8955 39.338 59.0826 39.2536C59.1332 39.2311 59.1867 39.2143 59.2373 39.1903V41.469L55.5 43.2497L51.7557 41.4662V39.1918C51.8049 39.2157 51.857 39.2311 51.9062 39.2536C52.0947 39.338 52.2874 39.4154 52.4829 39.4871ZM50.3083 42.3355L54.2988 44.2357L51.3014 47.2332L48.7597 44.0557L50.3083 42.3355Z" fill="black"/>
<path d="M46.3576 60.4999C46.5441 60.4999 46.723 60.4258 46.8549 60.2939C46.9868 60.162 47.0609 59.9832 47.0609 59.7966V56.5024C47.0623 55.0519 46.5198 53.6536 45.5404 52.5837L44.4756 51.4177C44.4132 51.3494 44.3381 51.2941 44.2544 51.2549C44.1706 51.2157 44.08 51.1934 43.9877 51.1892C43.8953 51.185 43.8031 51.1991 43.7162 51.2305C43.6293 51.262 43.5494 51.3103 43.4811 51.3726C43.4129 51.435 43.3576 51.5102 43.3184 51.5939C43.2792 51.6776 43.2569 51.7682 43.2527 51.8606C43.2485 51.9529 43.2625 52.0452 43.294 52.1321C43.3255 52.219 43.3738 52.2988 43.4361 52.3671L44.5009 53.5332C45.2437 54.3435 45.6553 55.4031 45.6543 56.5024V59.7966C45.6543 59.9832 45.7284 60.162 45.8603 60.2939C45.9922 60.4258 46.1711 60.4999 46.3576 60.4999ZM66.5251 51.4177L65.4603 52.5851C64.481 53.6545 63.9384 55.0524 63.9398 56.5024V59.7966C63.9398 59.9832 64.0139 60.162 64.1458 60.2939C64.2777 60.4258 64.4566 60.4999 64.6431 60.4999C64.8296 60.4999 65.0085 60.4258 65.1404 60.2939C65.2723 60.162 65.3464 59.9832 65.3464 59.7966V56.5024C65.3464 55.4011 65.7557 54.3462 66.4984 53.5332L67.5631 52.3671C67.6255 52.2989 67.6738 52.2192 67.7053 52.1323C67.7368 52.0455 67.7509 51.9533 67.7468 51.8611C67.7427 51.7688 67.7204 51.6782 67.6813 51.5945C67.6422 51.5108 67.587 51.4357 67.5188 51.3734C67.4507 51.311 67.3709 51.2627 67.2841 51.2312C67.1973 51.1997 67.1051 51.1856 67.0128 51.1897C66.9205 51.1938 66.8299 51.2161 66.7463 51.2552C66.6626 51.2943 66.5874 51.3495 66.5251 51.4177Z" fill="black"/>
<path d="M103.864 25.9035C104.018 26.3417 104.152 26.7699 104.266 27.1878C104.314 27.3704 104.363 27.5612 104.412 27.76C104.46 27.9548 104.503 28.1516 104.54 28.3504C104.58 28.5452 104.613 28.738 104.637 28.9287C104.661 29.1154 104.674 29.2899 104.674 29.4522C104.674 29.8336 104.621 30.2049 104.515 30.5661C104.414 30.9313 104.268 31.2843 104.077 31.6252C103.89 31.9661 103.667 32.2928 103.407 32.6052C103.148 32.9217 102.86 33.218 102.543 33.4939C102.227 33.7699 101.888 34.0255 101.527 34.2609C101.165 34.5003 100.792 34.7154 100.407 34.9061L99.2987 33.3661C99.5909 33.22 99.8871 33.0536 100.187 32.867C100.484 32.6843 100.768 32.4875 101.04 32.2765C101.316 32.0655 101.571 31.8443 101.807 31.613C102.046 31.3817 102.253 31.1464 102.427 30.907C102.606 30.6675 102.746 30.4241 102.847 30.1765C102.949 29.933 103 29.6936 103 29.4583C103 29.2878 102.975 29.1032 102.927 28.9043C102.882 28.7055 102.819 28.4925 102.738 28.2652C102.661 28.0339 102.567 27.7904 102.458 27.5348C102.348 27.2751 102.231 26.9991 102.105 26.707L103.864 25.9035ZM107.939 26.4087C107.854 26.3925 107.757 26.4229 107.647 26.5C107.541 26.573 107.44 26.6745 107.343 26.8043C107.249 26.9301 107.17 27.0701 107.105 27.2243C107.044 27.3786 107.014 27.5267 107.014 27.6687C107.014 27.8026 107.053 27.9142 107.13 28.0035C107.207 28.0928 107.304 28.1658 107.422 28.2226C107.544 28.2794 107.675 28.322 107.817 28.3504C107.964 28.3788 108.104 28.3991 108.237 28.4113H108.231C108.337 28.4194 108.457 28.4255 108.59 28.4296C108.728 28.4296 108.862 28.4296 108.992 28.4296C109.033 28.4296 109.063 28.4316 109.084 28.4357C109.108 28.4357 109.128 28.4357 109.144 28.4357C109.161 28.4357 109.177 28.4357 109.193 28.4357C109.213 28.4357 109.242 28.4336 109.278 28.4296C109.217 28.178 109.144 27.9386 109.059 27.7113C108.978 27.48 108.883 27.273 108.773 27.0904C108.664 26.9078 108.54 26.7577 108.402 26.64C108.264 26.5183 108.11 26.4412 107.939 26.4087ZM104.957 32.7817C105.529 32.6681 106.05 32.5241 106.521 32.3496C106.992 32.1791 107.404 31.9864 107.757 31.7713C108.114 31.5603 108.408 31.3351 108.639 31.0957C108.875 30.8562 109.041 30.6128 109.138 30.3652C108.964 30.3652 108.779 30.3612 108.584 30.353C108.39 30.349 108.229 30.3429 108.104 30.3348C107.633 30.2942 107.203 30.1887 106.813 30.0183C106.424 29.8519 106.113 29.6246 105.882 29.3365C105.711 29.1174 105.59 28.88 105.517 28.6243C105.448 28.3687 105.413 28.0988 105.413 27.8148C105.413 27.5957 105.433 27.3765 105.474 27.1574C105.515 26.9342 105.571 26.7191 105.644 26.5122C105.717 26.3012 105.803 26.1023 105.9 25.9157C106.001 25.729 106.109 25.5586 106.223 25.4043C106.466 25.1 106.732 24.8707 107.02 24.7165C107.312 24.5583 107.619 24.4791 107.939 24.4791C108.625 24.4791 109.244 24.7794 109.796 25.38C109.99 25.5991 110.165 25.8446 110.319 26.1165C110.473 26.3884 110.603 26.6786 110.709 26.987C110.818 27.2913 110.901 27.6119 110.958 27.9487C111.015 28.2814 111.044 28.6203 111.044 28.9652C111.044 29.0707 111.039 29.1762 111.031 29.2817C111.027 29.3872 111.021 29.4867 111.013 29.58C110.964 30.0548 110.857 30.4991 110.69 30.913C110.528 31.331 110.317 31.7145 110.057 32.0635C109.802 32.4165 109.504 32.7351 109.163 33.0191C108.822 33.3072 108.45 33.5588 108.049 33.7739C107.651 33.993 107.229 34.1757 106.783 34.3217C106.336 34.4678 105.878 34.5774 105.407 34.6504L104.957 32.7817ZM114.995 30.3652C114.496 30.3652 114.068 30.3023 113.711 30.1765C113.354 30.0548 113.045 29.8661 112.785 29.6104C112.623 29.4481 112.497 29.2777 112.408 29.0991C112.323 28.9206 112.26 28.7461 112.219 28.5757C112.183 28.4012 112.161 28.2368 112.152 28.0826C112.148 27.9284 112.146 27.7965 112.146 27.687V27.5957C112.15 27.4455 112.154 27.2304 112.158 26.9504C112.167 26.6664 112.171 26.3336 112.171 25.9522C112.171 25.5707 112.169 25.1507 112.165 24.6922C112.161 24.2336 112.148 23.7771 112.128 23.3226C112.112 22.8641 112.085 22.4238 112.049 22.0017C112.016 21.5797 111.97 21.2125 111.909 20.9L113.729 20.3461C113.782 20.6139 113.824 20.9304 113.857 21.2957C113.889 21.6568 113.916 22.0362 113.936 22.4339C113.96 22.8316 113.976 23.2313 113.985 23.633C113.997 24.0348 114.005 24.4081 114.009 24.753C114.013 25.0574 114.001 25.3557 113.972 25.6478C113.948 25.9359 113.928 26.22 113.912 26.5C113.895 26.7759 113.895 27.0458 113.912 27.3096C113.932 27.5693 113.989 27.8229 114.082 28.0704C114.118 28.1638 114.163 28.2348 114.216 28.2835C114.273 28.3322 114.338 28.3687 114.411 28.393C114.484 28.4133 114.563 28.4255 114.648 28.4296C114.737 28.4336 114.835 28.4357 114.94 28.4357H114.995C115.125 28.4357 115.249 28.462 115.366 28.5148C115.484 28.5675 115.585 28.6386 115.671 28.7278C115.76 28.813 115.831 28.9145 115.884 29.0322C115.936 29.1499 115.963 29.2736 115.963 29.4035C115.963 29.5374 115.936 29.6632 115.884 29.7809C115.831 29.8986 115.76 30 115.671 30.0852C115.585 30.1745 115.484 30.2435 115.366 30.2922C115.249 30.3409 115.125 30.3652 114.995 30.3652ZM114.005 29.4035C114.005 29.2777 114.032 29.158 114.084 29.0443C114.137 28.9307 114.21 28.8313 114.304 28.7461C114.393 28.6568 114.5 28.5858 114.626 28.533C114.748 28.4803 114.88 28.4499 115.022 28.4417C115.237 28.4417 115.438 28.4072 115.624 28.3383C115.811 28.2652 115.988 28.1272 116.154 27.9243C116.32 27.7214 116.477 27.4354 116.623 27.0661C116.769 26.6968 116.909 26.2139 117.043 25.6174L118.662 25.8487C118.674 25.8 118.666 25.8264 118.638 25.9278C118.613 26.0293 118.583 26.1733 118.546 26.36C118.514 26.5426 118.481 26.7496 118.449 26.9809C118.42 27.2081 118.406 27.4272 118.406 27.6383C118.41 27.8452 118.435 28.0258 118.479 28.18C118.528 28.3301 118.611 28.4194 118.729 28.4478C118.855 28.4803 118.976 28.4559 119.094 28.3748C119.212 28.2896 119.323 28.1699 119.429 28.0157C119.534 27.8574 119.632 27.6748 119.721 27.4678C119.81 27.2568 119.891 27.0417 119.964 26.8226C120.038 26.6035 120.1 26.3884 120.153 26.1774C120.206 25.9664 120.247 25.7797 120.275 25.6174L121.882 25.8487C121.874 25.9501 121.86 26.0861 121.839 26.2565C121.819 26.4229 121.803 26.6014 121.791 26.7922C121.778 26.9829 121.772 27.1757 121.772 27.3704C121.776 27.5612 121.799 27.7357 121.839 27.8939C121.88 28.0481 121.943 28.1759 122.028 28.2774C122.113 28.3748 122.231 28.4235 122.381 28.4235C122.515 28.4235 122.631 28.3788 122.728 28.2896C122.825 28.2003 122.907 28.0846 122.971 27.9426C123.04 27.7965 123.095 27.6322 123.136 27.4496C123.176 27.2629 123.207 27.0742 123.227 26.8835C123.247 26.6928 123.258 26.5081 123.258 26.3296C123.258 26.147 123.251 25.9867 123.239 25.8487L124.883 25.6174L125.084 27.3339C125.108 27.5206 125.161 27.6829 125.242 27.8209C125.323 27.9588 125.418 28.0745 125.528 28.1678C125.638 28.2571 125.753 28.3261 125.875 28.3748C125.997 28.4194 126.112 28.4417 126.222 28.4417H126.295C126.445 28.4417 126.581 28.4661 126.703 28.5148C126.829 28.5635 126.936 28.6325 127.025 28.7217C127.115 28.807 127.184 28.9084 127.232 29.0261C127.281 29.1438 127.305 29.2696 127.305 29.4035C127.305 29.5374 127.281 29.6632 127.232 29.7809C127.184 29.8986 127.113 30 127.019 30.0852C126.93 30.1704 126.816 30.2374 126.678 30.2861C126.544 30.3388 126.392 30.3652 126.222 30.3652C125.828 30.3652 125.457 30.2962 125.108 30.1583C124.759 30.0203 124.457 29.787 124.201 29.4583C124.177 29.4907 124.152 29.5191 124.128 29.5435C124.104 29.5678 124.081 29.5922 124.061 29.6165V29.6104C123.842 29.8417 123.588 30.0243 123.3 30.1583C123.016 30.2962 122.71 30.3652 122.381 30.3652C122.012 30.3652 121.671 30.2861 121.358 30.1278C121.05 29.9696 120.792 29.7545 120.585 29.4826C120.342 29.7504 120.066 29.9675 119.758 30.1339C119.449 30.3003 119.11 30.3835 118.741 30.3835C118.396 30.3835 118.075 30.3064 117.779 30.1522C117.483 29.998 117.238 29.787 117.043 29.5191C116.824 29.8235 116.552 30.0406 116.227 30.1704C115.907 30.3003 115.509 30.3652 115.034 30.3652C114.88 30.3652 114.74 30.3388 114.614 30.2861C114.488 30.2374 114.381 30.1704 114.291 30.0852C114.202 30 114.133 29.8986 114.084 29.7809C114.032 29.6632 114.005 29.5374 114.005 29.4035ZM123.422 23.14L122.253 24.3148L121.097 23.1583L119.952 24.3026L118.771 23.1278L119.94 21.953L121.097 23.1096L122.241 21.9652L123.422 23.14ZM120.013 21.3748L121.097 20.2913L122.186 21.3809L121.103 22.4643L120.013 21.3748ZM125.446 29.4035C125.446 29.2696 125.47 29.1458 125.519 29.0322C125.567 28.9186 125.634 28.8191 125.72 28.7339C125.805 28.6487 125.906 28.5817 126.024 28.533C126.138 28.4803 126.261 28.4499 126.395 28.4417C126.667 28.4417 126.903 28.389 127.101 28.2835C127.304 28.178 127.483 28.04 127.637 27.8696C127.791 27.6991 127.929 27.5084 128.051 27.2974C128.173 27.0864 128.288 26.8754 128.398 26.6643V26.6704C128.503 26.4513 128.615 26.2342 128.733 26.0191C128.854 25.8041 128.986 25.6052 129.128 25.4226C129.347 25.167 129.593 24.9701 129.865 24.8322C130.137 24.6901 130.427 24.6191 130.735 24.6191C131.1 24.6191 131.431 24.6942 131.727 24.8443C132.028 24.9945 132.3 25.2096 132.543 25.4896C132.726 25.7087 132.874 25.9603 132.987 26.2443C133.101 26.5243 133.176 26.8226 133.213 27.1391V27.127C133.237 27.2852 133.249 27.4658 133.249 27.6687C133.249 27.8878 133.229 28.1029 133.188 28.3139C133.152 28.5209 133.099 28.7177 133.03 28.9043C132.896 29.2452 132.703 29.5313 132.452 29.7626C132.204 29.9899 131.934 30.1461 131.642 30.2313C131.545 30.2597 131.447 30.278 131.35 30.2861C131.257 30.2983 131.157 30.3043 131.052 30.3043C130.869 30.3043 130.674 30.282 130.467 30.2374C130.265 30.1928 130.064 30.1319 129.865 30.0548C129.784 30.0183 129.692 29.9757 129.591 29.927C129.489 29.8742 129.382 29.8174 129.268 29.7565C129.159 29.6957 129.049 29.6328 128.94 29.5678C128.83 29.5029 128.729 29.44 128.635 29.3791C128.473 29.5293 128.311 29.6652 128.148 29.787C127.986 29.9087 127.816 30.0122 127.637 30.0974C127.458 30.1826 127.268 30.2475 127.065 30.2922C126.862 30.3409 126.641 30.3652 126.401 30.3652C126.267 30.3652 126.144 30.3388 126.03 30.2861C125.912 30.2374 125.811 30.1704 125.726 30.0852C125.636 30 125.567 29.8986 125.519 29.7809C125.47 29.6632 125.446 29.5374 125.446 29.4035ZM129.761 27.8026C129.887 27.8838 130.035 27.9629 130.206 28.04C130.38 28.1171 130.553 28.1861 130.723 28.247C130.894 28.3078 131.05 28.3586 131.192 28.3991C131.338 28.4357 131.447 28.4539 131.52 28.4539C131.537 28.4539 131.553 28.4539 131.569 28.4539C131.589 28.4499 131.61 28.4458 131.63 28.4417C131.679 28.4296 131.725 28.3687 131.77 28.2591C131.819 28.1455 131.837 27.9913 131.825 27.7965C131.825 27.6667 131.788 27.5246 131.715 27.3704C131.642 27.2122 131.547 27.0661 131.429 26.9322C131.312 26.7942 131.176 26.6806 131.021 26.5913C130.871 26.498 130.717 26.4513 130.559 26.4513C130.502 26.4513 130.429 26.5325 130.34 26.6948C130.25 26.8571 130.12 27.0986 129.95 27.4191V27.413L129.761 27.8026ZM106.694 51.4113C106.791 51.4154 106.889 51.4194 106.986 51.4235C107.087 51.4235 107.183 51.4235 107.272 51.4235C107.593 51.4235 107.899 51.4113 108.191 51.387C108.483 51.3626 108.753 51.3301 109.001 51.2896C109.248 51.249 109.465 51.2064 109.652 51.1617C109.843 51.113 109.995 51.0664 110.109 51.0217H110.102C110.314 50.9325 110.468 50.8533 110.565 50.7843C110.662 50.7154 110.727 50.6626 110.76 50.6261C110.821 50.5571 110.863 50.4861 110.888 50.413C110.916 50.3359 110.93 50.2568 110.93 50.1757C110.93 50.0012 110.863 49.8145 110.729 49.6157C110.596 49.4128 110.423 49.2078 110.212 49.0009C110.005 48.7939 109.774 48.587 109.518 48.38C109.267 48.173 109.021 47.9742 108.782 47.7835L107.509 46.7365L107.71 44.9348L113.201 42.5426L113.956 44.3322L109.664 46.1643C109.891 46.3551 110.121 46.5519 110.352 46.7548C110.587 46.9577 110.813 47.1667 111.028 47.3817C111.243 47.5928 111.444 47.8099 111.63 48.033C111.821 48.2522 111.985 48.4774 112.123 48.7087C112.265 48.9359 112.377 49.1672 112.458 49.4026C112.539 49.638 112.58 49.8774 112.58 50.1209C112.58 50.3887 112.533 50.6606 112.44 50.9365C112.351 51.2125 112.202 51.4965 111.996 51.7887H112.002C111.977 51.8252 111.935 51.878 111.874 51.947C111.817 52.0159 111.738 52.093 111.636 52.1783C111.539 52.2635 111.417 52.3548 111.271 52.4522C111.125 52.5455 110.953 52.6388 110.754 52.7322C110.194 52.9797 109.63 53.1461 109.062 53.2313C108.494 53.3165 107.915 53.3591 107.327 53.3591H107.199C107.114 53.3591 107.027 53.3591 106.937 53.3591C106.848 53.3591 106.761 53.3551 106.676 53.347C105.917 53.3388 105.237 53.2901 104.636 53.2009C104.036 53.1157 103.508 52.9878 103.054 52.8174C102.133 52.4603 101.5 51.9368 101.155 51.247V51.253C100.96 50.8757 100.862 50.4577 100.862 49.9991C100.862 49.8003 100.887 49.5852 100.936 49.3539C100.984 49.1226 101.047 48.8974 101.124 48.6783C101.173 48.5646 101.214 48.4693 101.246 48.3922C101.282 48.3151 101.317 48.2441 101.349 48.1791C101.382 48.1142 101.418 48.0493 101.459 47.9843C101.5 47.9194 101.55 47.8403 101.611 47.747L103.054 48.8C102.997 48.9014 102.934 49.0049 102.865 49.1104C102.8 49.2159 102.739 49.3235 102.682 49.433C102.63 49.5426 102.585 49.6542 102.549 49.7678C102.512 49.8814 102.494 49.9951 102.494 50.1087C102.494 50.267 102.549 50.409 102.658 50.5348C102.772 50.6565 102.926 50.7641 103.121 50.8574C103.32 50.9467 103.551 51.0238 103.815 51.0887C104.082 51.1536 104.371 51.2084 104.679 51.253C104.991 51.2977 105.318 51.3322 105.659 51.3565C106 51.3809 106.343 51.3991 106.688 51.4113H106.694ZM122.167 51.2713C122.276 51.3322 122.39 51.3748 122.508 51.3991C122.629 51.4194 122.749 51.4336 122.867 51.4417C122.997 51.4417 123.12 51.4681 123.238 51.5209C123.356 51.5696 123.457 51.6365 123.542 51.7217C123.632 51.807 123.703 51.9084 123.755 52.0261C123.808 52.1438 123.835 52.2696 123.835 52.4035C123.835 52.5374 123.808 52.6632 123.755 52.7809C123.703 52.8986 123.632 53 123.542 53.0852C123.457 53.1745 123.356 53.2435 123.238 53.2922C123.12 53.3409 122.997 53.3652 122.867 53.3652H122.812C122.706 53.3652 122.571 53.3591 122.404 53.347C122.242 53.3348 122.065 53.3003 121.875 53.2435C121.684 53.1907 121.489 53.1096 121.29 53C121.091 52.8945 120.905 52.7443 120.73 52.5496C120.495 52.7728 120.233 52.9635 119.945 53.1217C119.661 53.28 119.359 53.4099 119.038 53.5113C118.717 53.6168 118.387 53.6939 118.046 53.7426C117.705 53.7913 117.362 53.8157 117.017 53.8157C116.822 53.8157 116.615 53.8035 116.396 53.7791C116.181 53.7588 115.94 53.7203 115.672 53.6635L116.214 51.8496C116.4 51.8739 116.577 51.8942 116.743 51.9104C116.914 51.9226 117.07 51.9287 117.212 51.9287C117.342 51.9287 117.472 51.9226 117.602 51.9104C117.731 51.8983 117.859 51.8759 117.985 51.8435C117.863 51.4052 117.717 50.9751 117.547 50.553C117.376 50.127 117.192 49.7171 116.993 49.3235C116.794 48.9299 116.589 48.5545 116.378 48.1974C116.167 47.8403 115.958 47.5096 115.751 47.2052C115.548 46.9009 115.353 46.6249 115.167 46.3774C114.984 46.1258 114.822 45.9107 114.68 45.7322L116.049 44.3139L117.717 46.9983C117.912 47.3513 118.097 47.7104 118.271 48.0757C118.45 48.4409 118.614 48.802 118.764 49.1591C118.918 49.5122 119.054 49.8551 119.172 50.1878C119.294 50.5206 119.395 50.829 119.476 51.113C119.635 50.9832 119.773 50.8371 119.89 50.6748C120.012 50.5125 120.075 50.3461 120.079 50.1757C120.034 49.5467 119.98 48.9339 119.915 48.3374C119.85 47.7368 119.781 47.1626 119.708 46.6148C119.639 46.067 119.568 45.5496 119.495 45.0626C119.422 44.5757 119.355 44.1293 119.294 43.7235L121.181 43.3704C121.181 43.3786 121.187 43.4496 121.199 43.5835C121.215 43.7133 121.235 43.8939 121.26 44.1252C121.288 44.3525 121.319 44.6223 121.351 44.9348C121.384 45.2432 121.418 45.578 121.455 45.9391C121.495 46.2962 121.534 46.6716 121.57 47.0652C121.611 47.4548 121.647 47.8484 121.68 48.2461C121.716 48.6397 121.749 49.0293 121.777 49.4148C121.81 49.7962 121.836 50.1574 121.856 50.4983C121.869 50.6809 121.905 50.8452 121.966 50.9913C122.031 51.1333 122.098 51.2267 122.167 51.2713ZM121.85 52.4035C121.85 52.2696 121.874 52.1458 121.923 52.0322C121.972 51.9186 122.039 51.8191 122.124 51.7339C122.209 51.6487 122.311 51.5817 122.428 51.533C122.542 51.4803 122.666 51.4499 122.8 51.4417C123.071 51.4417 123.307 51.389 123.506 51.2835C123.709 51.178 123.887 51.04 124.041 50.8696C124.196 50.6991 124.333 50.5084 124.455 50.2974C124.577 50.0864 124.693 49.8754 124.802 49.6643V49.6704C124.908 49.4513 125.019 49.2342 125.137 49.0191C125.259 48.8041 125.391 48.6052 125.533 48.4226C125.752 48.167 125.997 47.9701 126.269 47.8322C126.541 47.6901 126.831 47.6191 127.14 47.6191C127.505 47.6191 127.836 47.6942 128.132 47.8443C128.432 47.9945 128.704 48.2096 128.947 48.4896C129.13 48.7087 129.278 48.9603 129.392 49.2443C129.505 49.5243 129.58 49.8226 129.617 50.1391V50.127C129.641 50.2852 129.653 50.4658 129.653 50.6687C129.653 50.8878 129.633 51.1029 129.593 51.3139C129.556 51.5209 129.503 51.7177 129.434 51.9043C129.3 52.2452 129.108 52.5313 128.856 52.7626C128.609 52.9899 128.339 53.1461 128.047 53.2313C127.949 53.2597 127.852 53.278 127.754 53.2861C127.661 53.2983 127.562 53.3043 127.456 53.3043C127.273 53.3043 127.079 53.282 126.872 53.2374C126.669 53.1928 126.468 53.1319 126.269 53.0548C126.188 53.0183 126.097 52.9757 125.995 52.927C125.894 52.8742 125.786 52.8174 125.673 52.7565C125.563 52.6957 125.453 52.6328 125.344 52.5678C125.234 52.5029 125.133 52.44 125.04 52.3791C124.877 52.5293 124.715 52.6652 124.553 52.787C124.39 52.9087 124.22 53.0122 124.041 53.0974C123.863 53.1826 123.672 53.2475 123.469 53.2922C123.266 53.3409 123.045 53.3652 122.806 53.3652C122.672 53.3652 122.548 53.3388 122.434 53.2861C122.317 53.2374 122.215 53.1704 122.13 53.0852C122.041 53 121.972 52.8986 121.923 52.7809C121.874 52.6632 121.85 52.5374 121.85 52.4035ZM126.166 50.8026C126.291 50.8838 126.44 50.9629 126.61 51.04C126.785 51.1171 126.957 51.1861 127.127 51.247C127.298 51.3078 127.454 51.3586 127.596 51.3991C127.742 51.4357 127.852 51.4539 127.925 51.4539C127.941 51.4539 127.957 51.4539 127.973 51.4539C127.994 51.4499 128.014 51.4458 128.034 51.4417C128.083 51.4296 128.13 51.3687 128.174 51.2591C128.223 51.1455 128.241 50.9913 128.229 50.7965C128.229 50.6667 128.193 50.5246 128.12 50.3704C128.047 50.2122 127.951 50.0661 127.833 49.9322C127.716 49.7942 127.58 49.6806 127.426 49.5913C127.276 49.498 127.121 49.4513 126.963 49.4513C126.906 49.4513 126.833 49.5325 126.744 49.6948C126.655 49.8571 126.525 50.0986 126.354 50.4191V50.413L126.166 50.8026ZM130.504 53.3835C130.525 53.0507 130.545 52.7058 130.565 52.3487C130.585 51.9916 130.602 51.6386 130.614 51.2896C130.63 50.9406 130.64 50.6017 130.644 50.273C130.648 49.9443 130.644 49.642 130.632 49.3661C130.608 48.7899 130.583 48.2846 130.559 47.8504C130.539 47.4122 130.516 47.0246 130.492 46.6878C130.472 46.351 130.449 46.0568 130.425 45.8052C130.405 45.5496 130.383 45.3162 130.358 45.1052C130.334 44.8942 130.307 44.6974 130.279 44.5148C130.251 44.3281 130.22 44.1354 130.188 43.9365L132.069 43.3157C132.158 43.8594 132.229 44.4072 132.282 44.9591C132.338 45.511 132.381 46.0406 132.409 46.5478C132.438 47.051 132.456 47.5197 132.464 47.9539C132.476 48.3881 132.483 48.7594 132.483 49.0678C132.483 49.3478 132.48 49.6501 132.476 49.9748C132.476 50.2994 132.472 50.6362 132.464 50.9852C132.46 51.3342 132.452 51.6872 132.44 52.0443C132.428 52.4014 132.409 52.7504 132.385 53.0913L130.504 53.3835Z" fill="#303030"/>
<defs>
<linearGradient id="paint0_linear_4574_22145" x1="6.19103" y1="5.2" x2="159.19" y2="98.0094" gradientUnits="userSpaceOnUse">
<stop stop-color="#EAEAEA"/>
<stop offset="1" stop-color="#BDBDBD"/>
</linearGradient>
</defs>
</svg>
