<svg width="21" height="21" viewBox="0 0 21 21" fill="none" xmlns="http://www.w3.org/2000/svg">
<path d="M8.12185 6.58691C8.12185 6.1727 7.78607 5.83691 7.37185 5.83691C6.95764 5.83691 6.62185 6.1727 6.62185 6.58691H8.12185ZM14.3845 6.58691C14.3845 6.1727 14.0487 5.83691 13.6345 5.83691C13.2203 5.83691 12.8845 6.1727 12.8845 6.58691H14.3845ZM6.61989 6.57381C6.61291 6.98797 6.94299 7.32936 7.35715 7.33634C7.7713 7.34331 8.1127 7.01323 8.11967 6.59907L6.61989 6.57381ZM8.13325 5.79323C8.14022 5.37907 7.81014 5.03768 7.39598 5.0307C6.98183 5.02373 6.64043 5.35381 6.63346 5.76796L8.13325 5.79323ZM8.09835 6.76597C8.19724 6.36374 7.95133 5.95749 7.5491 5.8586C7.14686 5.75971 6.74062 6.00562 6.64173 6.40786L8.09835 6.76597ZM7.15694 7.45368L7.88355 7.63966L7.88525 7.63274L7.15694 7.45368ZM5.22017 9.63569L5.48514 10.3373L5.22017 9.63569ZM2.79058 8.65385C2.45242 8.41464 1.98437 8.49486 1.74517 8.83303C1.50596 9.17119 1.58618 9.63924 1.92435 9.87844L2.79058 8.65385ZM3.10761 9.27365C3.11177 8.85945 2.77937 8.52031 2.36518 8.51615C1.95098 8.51199 1.61184 8.84439 1.60768 9.25858L3.10761 9.27365ZM2.28299 16.6973L3.03294 16.7062L3.03295 16.7049L2.28299 16.6973ZM3.06648 18.677L2.52778 19.1988H2.52778L3.06648 18.677ZM4.99763 19.4998V18.7498H4.99757L4.99763 19.4998ZM7.78691 20.2498C8.20113 20.2498 8.53691 19.914 8.53691 19.4998C8.53691 19.0856 8.20113 18.7498 7.78691 18.7498V20.2498ZM1.92183 9.87728C2.25926 10.1175 2.72755 10.0387 2.96779 9.70129C3.20803 9.36386 3.12923 8.89557 2.7918 8.65534L1.92183 9.87728ZM1.10673 5.78123L0.401992 5.52462C0.393933 5.54675 0.386922 5.56925 0.380981 5.59204L1.10673 5.78123ZM2.24009 2.66862L2.94482 2.92522C2.95181 2.90603 2.95801 2.88656 2.96341 2.86686L2.24009 2.66862ZM3.74535 1.5V0.749997L3.74314 0.750003L3.74535 1.5ZM17.2547 1.5L17.257 0.75H17.2547V1.5ZM18.76 2.66862L18.0367 2.86686C18.0421 2.88652 18.0483 2.90596 18.0552 2.92512L18.76 2.66862ZM19.8934 5.78262L20.6191 5.59351C20.6132 5.57072 20.6062 5.54823 20.5981 5.52611L19.8934 5.78262ZM18.2093 8.65558C17.872 8.89601 17.7935 9.36434 18.0339 9.70164C18.2743 10.0389 18.7427 10.1175 19.08 9.87704L18.2093 8.65558ZM7.03733 19.5004C7.03733 19.9146 7.37311 20.2504 7.78733 20.2504C8.20154 20.2504 8.53733 19.9146 8.53733 19.5004H7.03733ZM12.4666 19.5004C12.4666 19.9146 12.8024 20.2504 13.2166 20.2504C13.6308 20.2504 13.9666 19.9146 13.9666 19.5004H12.4666ZM7.78733 18.7499C7.37311 18.7499 7.03733 19.0857 7.03733 19.4999C7.03733 19.9141 7.37311 20.2499 7.78733 20.2499V18.7499ZM13.2166 20.2499C13.6308 20.2499 13.9666 19.9141 13.9666 19.4999C13.9666 19.0857 13.6308 18.7499 13.2166 18.7499V20.2499ZM12.8807 6.59528C12.8856 7.00947 13.2253 7.34127 13.6395 7.33639C14.0537 7.33151 14.3855 6.99178 14.3806 6.5776L12.8807 6.59528ZM14.3711 5.77175C14.3662 5.35757 14.0265 5.02576 13.6123 5.03065C13.1981 5.03553 12.8663 5.37525 12.8712 5.78944L14.3711 5.77175ZM14.3646 6.40704C14.2653 6.00492 13.8587 5.75946 13.4566 5.8588C13.0545 5.95814 12.809 6.36466 12.9084 6.76679L14.3646 6.40704ZM13.8496 7.44953L13.1215 7.62941L13.1229 7.63525L13.8496 7.44953ZM15.7836 9.63148L15.5179 10.3328L15.7836 9.63148ZM19.0771 9.87918C19.4156 9.64055 19.4967 9.17264 19.258 8.83407C19.0194 8.4955 18.5515 8.41448 18.2129 8.65311L19.0771 9.87918ZM19.3945 9.25899C19.3906 8.8448 19.0516 8.51221 18.6374 8.51615C18.2232 8.52008 17.8906 8.85904 17.8946 9.27324L19.3945 9.25899ZM18.7151 16.6973L17.9652 16.7045L17.9652 16.7062L18.7151 16.6973ZM17.9316 18.677L17.3929 18.1552L17.9316 18.677ZM16.0005 19.4998L16.0005 18.7498H16.0005V19.4998ZM13.2153 18.7498C12.8011 18.7498 12.4653 19.0856 12.4653 19.4998C12.4653 19.914 12.8011 20.2498 13.2153 20.2498V18.7498ZM6.62185 6.58691C6.62185 8.75115 8.34558 10.5312 10.5032 10.5312V9.03122C9.20202 9.03122 8.12185 7.95102 8.12185 6.58691H6.62185ZM10.5032 10.5312C12.6608 10.5312 14.3845 8.75115 14.3845 6.58691H12.8845C12.8845 7.95102 11.8043 9.03122 10.5032 9.03122V10.5312ZM8.11967 6.59907L8.13325 5.79323L6.63346 5.76796L6.61989 6.57381L8.11967 6.59907ZM6.64173 6.40786L6.42863 7.27462L7.88525 7.63274L8.09835 6.76597L6.64173 6.40786ZM6.43036 7.26771C6.23223 8.0418 5.6782 8.66102 4.95521 8.93405L5.48514 10.3373C6.67443 9.8882 7.56651 8.8782 7.88352 7.63965L6.43036 7.26771ZM4.95521 8.93405C4.23331 9.20667 3.42602 9.10333 2.79058 8.65385L1.92435 9.87844C2.96458 10.6143 4.29475 10.7869 5.48514 10.3373L4.95521 8.93405ZM1.60768 9.25858L1.53303 16.6898L3.03295 16.7049L3.10761 9.27365L1.60768 9.25858ZM1.53304 16.6885C1.52203 17.6244 1.87859 18.5286 2.52778 19.1988L3.60518 18.1552C3.23429 17.7723 3.02653 17.2507 3.03294 16.7062L1.53304 16.6885ZM2.52778 19.1988C3.17747 19.8695 4.06663 20.2499 4.99768 20.2498L4.99757 18.7498C4.47733 18.7498 3.97557 18.5375 3.60518 18.1552L2.52778 19.1988ZM4.99763 20.2498H7.78691V18.7498H4.99763V20.2498ZM2.7918 8.65534C1.95627 8.06047 1.56713 6.98833 1.83247 5.97042L0.380981 5.59204C-0.038864 7.20262 0.570978 8.91553 1.92183 9.87728L2.7918 8.65534ZM1.81146 6.03784L2.94482 2.92522L1.53535 2.41201L0.401992 5.52462L1.81146 6.03784ZM2.96341 2.86686C3.06557 2.49411 3.39184 2.25105 3.74757 2.25L3.74314 0.750003C2.69574 0.753096 1.79241 1.46463 1.51676 2.47037L2.96341 2.86686ZM3.74535 2.25H17.2547V0.75H3.74535V2.25ZM17.2525 2.25C17.6083 2.25105 17.9345 2.49411 18.0367 2.86686L19.4833 2.47037C19.2077 1.46463 18.3043 0.753096 17.257 0.750003L17.2525 2.25ZM18.0552 2.92512L19.1886 6.03912L20.5981 5.52611L19.4648 2.41211L18.0552 2.92512ZM19.1676 5.97172C19.4327 6.98907 19.044 8.06058 18.2093 8.65558L19.08 9.87704C20.4295 8.91508 21.0386 7.2032 20.6191 5.59351L19.1676 5.97172ZM8.53733 19.5004V15.3465H7.03733V19.5004H8.53733ZM8.53733 15.3465C8.53733 14.9819 8.82324 14.7119 9.14464 14.7119V13.2119C7.96679 13.2119 7.03733 14.1818 7.03733 15.3465H8.53733ZM9.14464 14.7119H11.8593V13.2119H9.14464V14.7119ZM11.8593 14.7119C12.1807 14.7119 12.4666 14.9819 12.4666 15.3465H13.9666C13.9666 14.1818 13.0371 13.2119 11.8593 13.2119V14.7119ZM12.4666 15.3465V19.5004H13.9666V15.3465H12.4666ZM7.78733 20.2499H13.2166V18.7499H7.78733V20.2499ZM14.3806 6.5776L14.3711 5.77175L12.8712 5.78944L12.8807 6.59528L14.3806 6.5776ZM12.9084 6.76679L13.1215 7.6294L14.5777 7.26966L14.3646 6.40704L12.9084 6.76679ZM13.1229 7.63525C13.4393 8.87301 14.33 9.88281 15.5179 10.3328L16.0493 8.93012C15.3271 8.65654 14.774 8.03741 14.5762 7.26381L13.1229 7.63525ZM15.5179 10.3328C16.707 10.7833 18.0364 10.6127 19.0771 9.87918L18.2129 8.65311C17.5772 9.10115 16.7704 9.2033 16.0493 8.93012L15.5179 10.3328ZM17.8946 9.27324L17.9652 16.7045L19.4651 16.6902L19.3945 9.25899L17.8946 9.27324ZM17.9652 16.7062C17.9716 17.2507 17.7638 17.7723 17.3929 18.1552L18.4703 19.1988C19.1195 18.5286 19.4761 17.6244 19.4651 16.6885L17.9652 16.7062ZM17.3929 18.1552C17.0225 18.5375 16.5208 18.7498 16.0005 18.7498L16.0004 20.2498C16.9315 20.2499 17.8206 19.8695 18.4703 19.1988L17.3929 18.1552ZM16.0005 18.7498H13.2153V20.2498H16.0005V18.7498Z" fill="url(#paint0_linear_5172_11033)"/>
<defs>
<linearGradient id="paint0_linear_5172_11033" x1="10.5" y1="1.5" x2="10.5" y2="19.5003" gradientUnits="userSpaceOnUse">
<stop stop-color="#FF9900"/>
<stop offset="1" stop-color="#636363"/>
</linearGradient>
</defs>
</svg>
