<svg width="40" height="40" viewBox="0 0 40 40" fill="none" xmlns="http://www.w3.org/2000/svg">
<path d="M26.7655 11.5854C26.7655 7.94836 23.7772 4.99997 20.0909 4.99997C16.4046 4.99997 13.4162 7.94836 13.4162 11.5854C13.4162 15.2224 16.4046 18.1708 20.0909 18.1708C23.7772 18.1708 26.7655 15.2224 26.7655 11.5854Z" stroke="#959595" stroke-width="2.3"/>
<path d="M6 28.8712C6 32.256 8.78114 34.9999 12.2118 34.9999H27.9489C31.3913 34.9999 34.1818 32.2467 34.1818 28.8504C34.1818 24.8885 30.4403 21.9604 26.5301 22.8622L21.9583 23.9167C20.6085 24.228 19.2036 24.2239 17.8556 23.9047L13.6615 22.9116C9.75534 21.9867 6 24.9078 6 28.8712Z" stroke="#959595" stroke-width="2.3" stroke-linejoin="round"/>
</svg>
