<svg width="33" height="32" viewBox="0 0 33 32" fill="none" xmlns="http://www.w3.org/2000/svg">
<mask id="path-1-inside-1_1806_73076" fill="white">
<path d="M17.5384 25.0667C17.5384 22.2664 17.5384 20.8663 18.0834 19.7967C18.5628 18.8559 19.3277 18.091 20.2685 17.6116C21.338 17.0667 22.7382 17.0667 25.5384 17.0667H30.8466C31.4066 17.0667 31.6867 17.0667 31.9006 17.1756C32.0887 17.2715 32.2417 17.4245 32.3376 17.6127C32.4466 17.8266 32.4466 18.1066 32.4466 18.6667V30.4C32.4466 30.96 32.4466 31.2401 32.3376 31.454C32.2417 31.6421 32.0887 31.7951 31.9006 31.891C31.6867 32 31.4066 32 30.8466 32H19.1384C18.5784 32 18.2983 32 18.0844 31.891C17.8963 31.7951 17.7433 31.6421 17.6474 31.454C17.5384 31.2401 17.5384 30.96 17.5384 30.4V25.0667Z"/>
</mask>
<path d="M17.5384 25.0667C17.5384 22.2664 17.5384 20.8663 18.0834 19.7967C18.5628 18.8559 19.3277 18.091 20.2685 17.6116C21.338 17.0667 22.7382 17.0667 25.5384 17.0667H30.8466C31.4066 17.0667 31.6867 17.0667 31.9006 17.1756C32.0887 17.2715 32.2417 17.4245 32.3376 17.6127C32.4466 17.8266 32.4466 18.1066 32.4466 18.6667V30.4C32.4466 30.96 32.4466 31.2401 32.3376 31.454C32.2417 31.6421 32.0887 31.7951 31.9006 31.891C31.6867 32 31.4066 32 30.8466 32H19.1384C18.5784 32 18.2983 32 18.0844 31.891C17.8963 31.7951 17.7433 31.6421 17.6474 31.454C17.5384 31.2401 17.5384 30.96 17.5384 30.4V25.0667Z" stroke="#959595" stroke-width="5" mask="url(#path-1-inside-1_1806_73076)"/>
<mask id="path-2-inside-2_1806_73076" fill="white">
<path d="M0.5 18.6667C0.5 18.1066 0.5 17.8266 0.608993 17.6127C0.704867 17.4245 0.857847 17.2715 1.04601 17.1756C1.25992 17.0667 1.53995 17.0667 2.1 17.0667H7.40815C10.2084 17.0667 11.6085 17.0667 12.6781 17.6116C13.6189 18.091 14.3838 18.8559 14.8632 19.7967C15.4082 20.8663 15.4082 22.2664 15.4082 25.0667V30.4C15.4082 30.96 15.4082 31.2401 15.2992 31.454C15.2033 31.6421 15.0503 31.7951 14.8621 31.891C14.6482 32 14.3682 32 13.8082 32H2.1C1.53995 32 1.25992 32 1.04601 31.891C0.857847 31.7951 0.704867 31.6421 0.608993 31.454C0.5 31.2401 0.5 30.96 0.5 30.4V18.6667Z"/>
</mask>
<path d="M0.5 18.6667C0.5 18.1066 0.5 17.8266 0.608993 17.6127C0.704867 17.4245 0.857847 17.2715 1.04601 17.1756C1.25992 17.0667 1.53995 17.0667 2.1 17.0667H7.40815C10.2084 17.0667 11.6085 17.0667 12.6781 17.6116C13.6189 18.091 14.3838 18.8559 14.8632 19.7967C15.4082 20.8663 15.4082 22.2664 15.4082 25.0667V30.4C15.4082 30.96 15.4082 31.2401 15.2992 31.454C15.2033 31.6421 15.0503 31.7951 14.8621 31.891C14.6482 32 14.3682 32 13.8082 32H2.1C1.53995 32 1.25992 32 1.04601 31.891C0.857847 31.7951 0.704867 31.6421 0.608993 31.454C0.5 31.2401 0.5 30.96 0.5 30.4V18.6667Z" stroke="#959595" stroke-width="5" mask="url(#path-2-inside-2_1806_73076)"/>
<mask id="path-3-inside-3_1806_73076" fill="white">
<path d="M0.5 1.6C0.5 1.03995 0.5 0.759921 0.608993 0.546009C0.704867 0.357847 0.857847 0.204867 1.04601 0.108993C1.25992 0 1.53995 0 2.1 0H13.8616C14.4216 0 14.7017 0 14.9156 0.108993C15.1037 0.204867 15.2567 0.357847 15.3526 0.546009C15.4616 0.759921 15.4616 1.03995 15.4616 1.6V6.98685C15.4616 9.78711 15.4616 11.1872 14.9166 12.2568C14.4373 13.1976 13.6724 13.9625 12.7315 14.4419C11.662 14.9868 10.2619 14.9868 7.46159 14.9868H2.1C1.53995 14.9868 1.25992 14.9868 1.04601 14.8779C0.857847 14.782 0.704867 14.629 0.608993 14.4408C0.5 14.2269 0.5 13.9469 0.5 13.3868V1.6Z"/>
</mask>
<path d="M0.5 1.6C0.5 1.03995 0.5 0.759921 0.608993 0.546009C0.704867 0.357847 0.857847 0.204867 1.04601 0.108993C1.25992 0 1.53995 0 2.1 0H13.8616C14.4216 0 14.7017 0 14.9156 0.108993C15.1037 0.204867 15.2567 0.357847 15.3526 0.546009C15.4616 0.759921 15.4616 1.03995 15.4616 1.6V6.98685C15.4616 9.78711 15.4616 11.1872 14.9166 12.2568C14.4373 13.1976 13.6724 13.9625 12.7315 14.4419C11.662 14.9868 10.2619 14.9868 7.46159 14.9868H2.1C1.53995 14.9868 1.25992 14.9868 1.04601 14.8779C0.857847 14.782 0.704867 14.629 0.608993 14.4408C0.5 14.2269 0.5 13.9469 0.5 13.3868V1.6Z" stroke="#959595" stroke-width="5" mask="url(#path-3-inside-3_1806_73076)"/>
<mask id="path-4-inside-4_1806_73076" fill="white">
<path d="M17.5384 1.6C17.5384 1.03995 17.5384 0.759921 17.6474 0.546009C17.7433 0.357847 17.8963 0.204867 18.0844 0.108993C18.2983 0 18.5784 0 19.1384 0H30.9C31.4601 0 31.7401 0 31.954 0.108993C32.1422 0.204867 32.2951 0.357847 32.391 0.546009C32.5 0.759921 32.5 1.03995 32.5 1.6V13.3868C32.5 13.9469 32.5 14.2269 32.391 14.4408C32.2951 14.629 32.1422 14.782 31.954 14.8779C31.7401 14.9868 31.4601 14.9868 30.9 14.9868H25.5384C22.7382 14.9868 21.338 14.9868 20.2685 14.4419C19.3277 13.9625 18.5628 13.1976 18.0834 12.2568C17.5384 11.1872 17.5384 9.78711 17.5384 6.98685V1.6Z"/>
</mask>
<path d="M17.5384 1.6C17.5384 1.03995 17.5384 0.759921 17.6474 0.546009C17.7433 0.357847 17.8963 0.204867 18.0844 0.108993C18.2983 0 18.5784 0 19.1384 0H30.9C31.4601 0 31.7401 0 31.954 0.108993C32.1422 0.204867 32.2951 0.357847 32.391 0.546009C32.5 0.759921 32.5 1.03995 32.5 1.6V13.3868C32.5 13.9469 32.5 14.2269 32.391 14.4408C32.2951 14.629 32.1422 14.782 31.954 14.8779C31.7401 14.9868 31.4601 14.9868 30.9 14.9868H25.5384C22.7382 14.9868 21.338 14.9868 20.2685 14.4419C19.3277 13.9625 18.5628 13.1976 18.0834 12.2568C17.5384 11.1872 17.5384 9.78711 17.5384 6.98685V1.6Z" stroke="#959595" stroke-width="5" mask="url(#path-4-inside-4_1806_73076)"/>
</svg>
