<svg width="40" height="40" viewBox="0 0 40 40" fill="none" xmlns="http://www.w3.org/2000/svg">
<path d="M11.7493 11.9482C10.9209 11.9482 10.2493 12.6198 10.2493 13.4482C10.2493 14.2767 10.9209 14.9482 11.7493 14.9482V11.9482ZM27.2491 14.9482C28.0775 14.9482 28.7491 14.2767 28.7491 13.4482C28.7491 12.6198 28.0775 11.9482 27.2491 11.9482V14.9482ZM13.6874 17.6148C12.859 17.6148 12.1874 18.2864 12.1874 19.1148C12.1874 19.9432 12.859 20.6148 13.6874 20.6148V17.6148ZM25.3122 20.6148C26.1406 20.6148 26.8122 19.9432 26.8122 19.1148C26.8122 18.2864 26.1406 17.6148 25.3122 17.6148V20.6148ZM12.111 4L12.111 2.49996L12.1001 2.50004L12.111 4ZM26.8912 4L26.9025 2.5H26.8912V4ZM34.9998 12.2305L33.4998 12.2195V12.2305H34.9998ZM34.9998 22.2236L33.4997 22.2236L33.4998 22.2346L34.9998 22.2236ZM32.649 28.0187L31.5806 26.9658L31.5806 26.9658L32.649 28.0187ZM26.889 30.4541L26.889 31.9541L26.8999 31.954L26.889 30.4541ZM12.111 30.4541V28.9541C11.8542 28.9541 11.6017 29.02 11.3777 29.1456L12.111 30.4541ZM4.00022 35H2.50022C2.50022 35.5325 2.78252 36.0251 3.24196 36.2942C3.7014 36.5634 4.2691 36.5688 4.7336 36.3085L4.00022 35ZM4.00022 12.2305L5.50026 12.2305L5.50018 12.2195L4.00022 12.2305ZM6.35099 6.43536L5.28259 5.38249L5.28259 5.38249L6.35099 6.43536ZM11.7493 14.9482H27.2491V11.9482H11.7493V14.9482ZM13.6874 20.6148H25.3122V17.6148H13.6874V20.6148ZM12.111 5.5H26.8912V2.5H12.111V5.5ZM26.8798 5.49996C30.5632 5.52781 33.5269 8.53599 33.4998 12.2195L36.4997 12.2415C36.539 6.90151 32.2425 2.54042 26.9025 2.50004L26.8798 5.49996ZM33.4998 12.2305V22.2236H36.4998V12.2305H33.4998ZM33.4998 22.2346C33.5128 24.0038 32.8224 25.7057 31.5806 26.9658L33.7174 29.0716C35.5177 27.2447 36.5186 24.7774 36.4997 22.2126L33.4998 22.2346ZM31.5806 26.9658C30.3388 28.226 28.6472 28.9412 26.878 28.9541L26.8999 31.954C29.4647 31.9353 31.9171 30.8985 33.7174 29.0716L31.5806 26.9658ZM26.889 28.9541H12.111V31.9541H26.889V28.9541ZM11.3777 29.1456L3.26684 33.6915L4.7336 36.3085L12.8444 31.7626L11.3777 29.1456ZM5.50022 35V12.2305H2.50022V35H5.50022ZM5.50018 12.2195C5.48719 10.4503 6.17756 8.74839 7.41939 7.48822L5.28259 5.38249C3.48226 7.20939 2.48143 9.67667 2.50026 12.2415L5.50018 12.2195ZM7.41939 7.48822C8.66123 6.22806 10.3528 5.51286 12.122 5.49996L12.1001 2.50004C9.53527 2.51874 7.08293 3.5556 5.28259 5.38249L7.41939 7.48822Z" fill="url(#paint0_linear_3_686)"/>
<defs>
<linearGradient id="paint0_linear_3_686" x1="19.5" y1="4" x2="19.5" y2="35" gradientUnits="userSpaceOnUse">
<stop stop-color="#4C8CED"/>
<stop offset="1" stop-color="#36D859"/>
</linearGradient>
</defs>
</svg>
