<svg width="40" height="40" viewBox="0 0 40 40" fill="none" xmlns="http://www.w3.org/2000/svg">
<circle cx="19.5" cy="19.5" r="17" stroke="url(#paint0_linear_3_688)" stroke-opacity="0.6"/>
<path fill-rule="evenodd" clip-rule="evenodd" d="M5.04348 19.4995C5.04398 12.603 9.91603 6.66727 16.6801 5.32229C23.4442 3.97732 30.2164 7.59768 32.8552 13.9693C35.494 20.341 33.2644 27.6893 27.5299 31.5205C21.7955 35.3516 14.1533 34.5985 9.27699 29.7218C6.56605 27.0106 5.0432 23.3335 5.04348 19.4995Z" stroke="url(#paint1_linear_3_688)" stroke-width="2.5" stroke-linecap="round" stroke-linejoin="round"/>
<path d="M14.0789 18.2497C13.3885 18.2497 12.8289 18.8093 12.8289 19.4997C12.8289 20.19 13.3885 20.7497 14.0789 20.7497V18.2497ZM19.4998 20.7497C20.1902 20.7497 20.7498 20.19 20.7498 19.4997C20.7498 18.8093 20.1902 18.2497 19.4998 18.2497V20.7497ZM19.4996 18.2497C18.8093 18.2497 18.2496 18.8093 18.2496 19.4997C18.2496 20.19 18.8093 20.7497 19.4996 20.7497V18.2497ZM24.9206 20.7497C25.611 20.7497 26.1706 20.19 26.1706 19.4997C26.1706 18.8093 25.611 18.2497 24.9206 18.2497V20.7497ZM20.7492 19.4996C20.7492 18.8093 20.1896 18.2496 19.4992 18.2496C18.8088 18.2496 18.2492 18.8093 18.2492 19.4996H20.7492ZM18.2492 24.9206C18.2492 25.6109 18.8088 26.1706 19.4992 26.1706C20.1896 26.1706 20.7492 25.6109 20.7492 24.9206H18.2492ZM18.2492 19.4997C18.2492 20.19 18.8088 20.7497 19.4992 20.7497C20.1896 20.7497 20.7492 20.19 20.7492 19.4997H18.2492ZM20.7492 14.0788C20.7492 13.3884 20.1896 12.8288 19.4992 12.8288C18.8088 12.8288 18.2492 13.3884 18.2492 14.0788H20.7492ZM14.0789 20.7497H19.4998V18.2497H14.0789V20.7497ZM19.4996 20.7497H24.9206V18.2497H19.4996V20.7497ZM18.2492 19.4996V24.9206H20.7492V19.4996H18.2492ZM20.7492 19.4997V14.0788H18.2492V19.4997H20.7492Z" fill="url(#paint2_linear_3_688)"/>
<defs>
<linearGradient id="paint0_linear_3_688" x1="19.5" y1="2" x2="19.5" y2="37" gradientUnits="userSpaceOnUse">
<stop stop-color="#4C8CED"/>
<stop offset="1" stop-color="#36D859"/>
</linearGradient>
<linearGradient id="paint1_linear_3_688" x1="19.5001" y1="5.04329" x2="19.5001" y2="33.9565" gradientUnits="userSpaceOnUse">
<stop stop-color="#4C8CED"/>
<stop offset="1" stop-color="#36D859"/>
</linearGradient>
<linearGradient id="paint2_linear_3_688" x1="19.4997" y1="14.0788" x2="19.4997" y2="24.9206" gradientUnits="userSpaceOnUse">
<stop stop-color="#4C8CED"/>
<stop offset="1" stop-color="#36D859"/>
</linearGradient>
</defs>
</svg>
