<svg width="35" height="36" viewBox="0 0 35 36" fill="none" xmlns="http://www.w3.org/2000/svg">
<path d="M24.842 8.74385C24.842 4.74313 21.5549 1.49991 17.4999 1.49991C13.445 1.49991 10.1578 4.74313 10.1578 8.74385C10.1578 12.7446 13.445 15.9878 17.4999 15.9878C21.5549 15.9878 24.842 12.7446 24.842 8.74385Z" stroke="#959595" stroke-width="3"/>
<path d="M2 27.7582C2 31.4815 5.05925 34.4999 8.83301 34.4999H26.1438C29.9304 34.4999 33 31.4713 33 27.7353C33 23.3772 28.8843 20.1563 24.5831 21.1483L19.5541 22.3083C18.0693 22.6507 16.5239 22.6462 15.0411 22.2951L10.4277 21.2027C6.13087 20.1853 2 23.3985 2 27.7582Z" stroke="#959595" stroke-width="3" stroke-linejoin="round"/>
</svg>
