<svg width="40" height="40" viewBox="0 0 40 40" fill="none" xmlns="http://www.w3.org/2000/svg">
<path d="M35 16.5636V28.5429C34.9979 30.2548 34.3169 31.896 33.1061 33.1065C31.8954 34.317 30.2539 34.9979 28.5417 35H27.25C26.9074 35 26.5789 34.8639 26.3367 34.6217C26.0944 34.3796 25.9583 34.0511 25.9583 33.7086C25.9583 33.3661 26.0944 33.0376 26.3367 32.7954C26.5789 32.5532 26.9074 32.4171 27.25 32.4171H28.5417C29.5694 32.4171 30.555 32.009 31.2817 31.2824C32.0084 30.5558 32.4167 29.5704 32.4167 28.5429V16.5636C32.4167 15.9294 32.261 15.3049 31.9633 14.7449C31.6656 14.1849 31.2349 13.7065 30.7091 13.3518L21.6674 7.2524C21.0285 6.81694 20.2732 6.58403 19.5 6.58403C18.7268 6.58403 17.9715 6.81694 17.3326 7.2524L8.29092 13.3518C7.76511 13.7065 7.33444 14.1849 7.03671 14.7449C6.73898 15.3049 6.5833 15.9294 6.58334 16.5636V28.5429C6.58334 29.5704 6.9916 30.5558 7.7183 31.2824C8.445 32.009 9.43062 32.4171 10.4583 32.4171H11.75C12.0926 32.4171 12.4211 32.5532 12.6633 32.7954C12.9056 33.0376 13.0417 33.3661 13.0417 33.7086C13.0417 34.0511 12.9056 34.3796 12.6633 34.6217C12.4211 34.8639 12.0926 35 11.75 35H10.4583C8.74611 34.9979 7.1046 34.317 5.89387 33.1065C4.68314 31.896 4.00206 30.2548 4.00001 28.5429V16.5636C3.99868 15.5068 4.25715 14.466 4.75266 13.5325C5.24818 12.5991 5.96556 11.8017 6.84167 11.2106L15.8833 5.10992C16.9493 4.38666 18.2079 4 19.4961 4C20.7844 4 22.043 4.38666 23.1089 5.10992L32.1506 11.2106C33.0276 11.8014 33.746 12.5985 34.2429 13.5319C34.7397 14.4652 34.9997 15.5063 35 16.5636ZM28.5417 23.3862C28.545 24.5737 28.3127 25.75 27.8581 26.8471C27.4036 27.9441 26.7359 28.9402 25.8938 29.7775L21.3535 34.2174C20.8565 34.6985 20.1918 34.9675 19.5 34.9675C18.8082 34.9675 18.1435 34.6985 17.6465 34.2174L13.1166 29.7878C12.0631 28.7378 11.285 27.4441 10.8512 26.0215C10.4175 24.5989 10.3415 23.0912 10.63 21.6322C10.9186 20.1732 11.5627 18.8079 12.5052 17.6573C13.4478 16.5068 14.6598 15.6065 16.0337 15.0363C17.4075 14.4661 18.9009 14.2437 20.3814 14.3886C21.8618 14.5336 23.2836 15.0415 24.5207 15.8674C25.7579 16.6932 26.7721 17.8115 27.4735 19.1231C28.1749 20.4346 28.5418 21.8989 28.5417 23.3862ZM25.9583 23.3862C25.9583 22.3243 25.6964 21.2789 25.1958 20.3424C24.6952 19.4059 23.9713 18.6073 23.0883 18.0174C22.2053 17.4274 21.1903 17.0642 20.1334 16.9601C19.0765 16.856 18.0102 17.014 17.0289 17.4203C16.0477 17.8266 15.1818 18.4685 14.508 19.2893C13.8342 20.1101 13.3732 21.0843 13.1659 22.1257C12.9586 23.1672 13.0114 24.2436 13.3195 25.2598C13.6277 26.276 14.1818 27.2004 14.9327 27.9514L19.4535 32.3707L24.0777 27.9411C24.6765 27.3437 25.151 26.6336 25.4738 25.8518C25.7966 25.07 25.9613 24.232 25.9583 23.3862ZM23.375 23.3772C23.375 24.1434 23.1477 24.8925 22.7219 25.5296C22.2962 26.1667 21.691 26.6633 20.9829 26.9565C20.2748 27.2498 19.4957 27.3265 18.744 27.177C17.9924 27.0275 17.3019 26.6585 16.76 26.1167C16.218 25.5749 15.849 24.8845 15.6995 24.133C15.5499 23.3815 15.6267 22.6025 15.92 21.8945C16.2133 21.1866 16.7099 20.5815 17.3472 20.1558C17.9844 19.7301 18.7336 19.5029 19.5 19.5029C20.5277 19.5029 21.5133 19.9111 22.24 20.6376C22.9667 21.3642 23.375 22.3496 23.375 23.3772Z" fill="url(#paint0_linear_3_697)"/>
<ellipse cx="19.5" cy="23.375" rx="2.325" ry="2.325" fill="white"/>
<defs>
<linearGradient id="paint0_linear_3_697" x1="19.5" y1="4" x2="19.5" y2="35" gradientUnits="userSpaceOnUse">
<stop stop-color="#4C8CED"/>
<stop offset="1" stop-color="#36D859"/>
</linearGradient>
</defs>
</svg>
