<svg width="40" height="40" viewBox="0 0 40 40" fill="none" xmlns="http://www.w3.org/2000/svg">
<mask id="path-1-inside-1_3_595" fill="white">
<path d="M21.506 28.5333C21.506 25.7331 21.506 24.3329 22.0509 23.2634C22.5303 22.3226 23.2952 21.5577 24.236 21.0783C25.3056 20.5333 26.7057 20.5333 29.506 20.5333H34.3482C34.9083 20.5333 35.1883 20.5333 35.4022 20.6423C35.5904 20.7382 35.7434 20.8912 35.8392 21.0793C35.9482 21.2933 35.9482 21.5733 35.9482 22.1333V33.4C35.9482 33.96 35.9482 34.2401 35.8392 34.454C35.7434 34.6422 35.5904 34.7951 35.4022 34.891C35.1883 35 34.9083 35 34.3482 35H23.106C22.5459 35 22.2659 35 22.052 34.891C21.8638 34.7951 21.7108 34.6422 21.615 34.454C21.506 34.2401 21.506 33.9601 21.506 33.4V28.5333Z"/>
</mask>
<path d="M21.506 28.5333C21.506 25.7331 21.506 24.3329 22.0509 23.2634C22.5303 22.3226 23.2952 21.5577 24.236 21.0783C25.3056 20.5333 26.7057 20.5333 29.506 20.5333H34.3482C34.9083 20.5333 35.1883 20.5333 35.4022 20.6423C35.5904 20.7382 35.7434 20.8912 35.8392 21.0793C35.9482 21.2933 35.9482 21.5733 35.9482 22.1333V33.4C35.9482 33.96 35.9482 34.2401 35.8392 34.454C35.7434 34.6422 35.5904 34.7951 35.4022 34.891C35.1883 35 34.9083 35 34.3482 35H23.106C22.5459 35 22.2659 35 22.052 34.891C21.8638 34.7951 21.7108 34.6422 21.615 34.454C21.506 34.2401 21.506 33.9601 21.506 33.4V28.5333Z" stroke="#959595" stroke-width="4" mask="url(#path-1-inside-1_3_595)"/>
<mask id="path-2-inside-2_3_595" fill="white">
<path d="M5 22.1333C5 21.5733 5 21.2933 5.10899 21.0793C5.20487 20.8912 5.35785 20.7382 5.54601 20.6423C5.75992 20.5333 6.03995 20.5333 6.6 20.5333H11.4423C14.2425 20.5333 15.6427 20.5333 16.7122 21.0783C17.653 21.5577 18.4179 22.3226 18.8973 23.2634C19.4423 24.3329 19.4423 25.7331 19.4423 28.5333V33.4C19.4423 33.96 19.4423 34.2401 19.3333 34.454C19.2374 34.6422 19.0844 34.7951 18.8963 34.891C18.6824 35 18.4023 35 17.8423 35H6.6C6.03995 35 5.75992 35 5.54601 34.891C5.35785 34.7951 5.20487 34.6422 5.10899 34.454C5 34.2401 5 33.9601 5 33.4V22.1333Z"/>
</mask>
<path d="M5 22.1333C5 21.5733 5 21.2933 5.10899 21.0793C5.20487 20.8912 5.35785 20.7382 5.54601 20.6423C5.75992 20.5333 6.03995 20.5333 6.6 20.5333H11.4423C14.2425 20.5333 15.6427 20.5333 16.7122 21.0783C17.653 21.5577 18.4179 22.3226 18.8973 23.2634C19.4423 24.3329 19.4423 25.7331 19.4423 28.5333V33.4C19.4423 33.96 19.4423 34.2401 19.3333 34.454C19.2374 34.6422 19.0844 34.7951 18.8963 34.891C18.6824 35 18.4023 35 17.8423 35H6.6C6.03995 35 5.75992 35 5.54601 34.891C5.35785 34.7951 5.20487 34.6422 5.10899 34.454C5 34.2401 5 33.9601 5 33.4V22.1333Z" stroke="#959595" stroke-width="4" mask="url(#path-2-inside-2_3_595)"/>
<mask id="path-3-inside-3_3_595" fill="white">
<path d="M5 5.6C5 5.03995 5 4.75992 5.10899 4.54601C5.20487 4.35785 5.35785 4.20487 5.54601 4.10899C5.75992 4 6.03995 4 6.6 4H17.894C18.4541 4 18.7341 4 18.948 4.10899C19.1362 4.20487 19.2892 4.35785 19.385 4.54601C19.494 4.75992 19.494 5.03995 19.494 5.6V10.5185C19.494 13.3188 19.494 14.7189 18.9491 15.7885C18.4697 16.7293 17.7048 17.4942 16.764 17.9735C15.6944 18.5185 14.2943 18.5185 11.494 18.5185H6.6C6.03995 18.5185 5.75992 18.5185 5.54601 18.4095C5.35785 18.3136 5.20487 18.1607 5.10899 17.9725C5 17.7586 5 17.4786 5 16.9185V5.6Z"/>
</mask>
<path d="M5 5.6C5 5.03995 5 4.75992 5.10899 4.54601C5.20487 4.35785 5.35785 4.20487 5.54601 4.10899C5.75992 4 6.03995 4 6.6 4H17.894C18.4541 4 18.7341 4 18.948 4.10899C19.1362 4.20487 19.2892 4.35785 19.385 4.54601C19.494 4.75992 19.494 5.03995 19.494 5.6V10.5185C19.494 13.3188 19.494 14.7189 18.9491 15.7885C18.4697 16.7293 17.7048 17.4942 16.764 17.9735C15.6944 18.5185 14.2943 18.5185 11.494 18.5185H6.6C6.03995 18.5185 5.75992 18.5185 5.54601 18.4095C5.35785 18.3136 5.20487 18.1607 5.10899 17.9725C5 17.7586 5 17.4786 5 16.9185V5.6Z" stroke="#959595" stroke-width="4" mask="url(#path-3-inside-3_3_595)"/>
<mask id="path-4-inside-4_3_595" fill="white">
<path d="M21.506 5.6C21.506 5.03995 21.506 4.75992 21.615 4.54601C21.7108 4.35785 21.8638 4.20487 22.052 4.10899C22.2659 4 22.5459 4 23.106 4H34.4C34.9601 4 35.2401 4 35.454 4.10899C35.6422 4.20487 35.7951 4.35785 35.891 4.54601C36 4.75992 36 5.03995 36 5.6V16.9185C36 17.4786 36 17.7586 35.891 17.9725C35.7951 18.1607 35.6422 18.3136 35.454 18.4095C35.2401 18.5185 34.9601 18.5185 34.4 18.5185H29.506C26.7057 18.5185 25.3056 18.5185 24.236 17.9735C23.2952 17.4942 22.5303 16.7293 22.0509 15.7885C21.506 14.7189 21.506 13.3188 21.506 10.5185V5.6Z"/>
</mask>
<path d="M21.506 5.6C21.506 5.03995 21.506 4.75992 21.615 4.54601C21.7108 4.35785 21.8638 4.20487 22.052 4.10899C22.2659 4 22.5459 4 23.106 4H34.4C34.9601 4 35.2401 4 35.454 4.10899C35.6422 4.20487 35.7951 4.35785 35.891 4.54601C36 4.75992 36 5.03995 36 5.6V16.9185C36 17.4786 36 17.7586 35.891 17.9725C35.7951 18.1607 35.6422 18.3136 35.454 18.4095C35.2401 18.5185 34.9601 18.5185 34.4 18.5185H29.506C26.7057 18.5185 25.3056 18.5185 24.236 17.9735C23.2952 17.4942 22.5303 16.7293 22.0509 15.7885C21.506 14.7189 21.506 13.3188 21.506 10.5185V5.6Z" stroke="#959595" stroke-width="4" mask="url(#path-4-inside-4_3_595)"/>
</svg>
