<svg width="40" height="40" viewBox="0 0 40 40" fill="none" xmlns="http://www.w3.org/2000/svg">
<circle cx="19.5" cy="19.5" r="17" stroke="#C0C0C0" stroke-opacity="0.8"/>
<path fill-rule="evenodd" clip-rule="evenodd" d="M5.04348 19.4995C5.04398 12.603 9.91603 6.66728 16.6801 5.3223C23.4442 3.97732 30.2164 7.59768 32.8552 13.9693C35.494 20.341 33.2644 27.6894 27.5299 31.5205C21.7955 35.3516 14.1533 34.5985 9.27699 29.7218C6.56605 27.0106 5.0432 23.3335 5.04348 19.4995Z" stroke="#959595" stroke-width="2" stroke-linecap="round" stroke-linejoin="round"/>
<path d="M14.0789 18.4997C13.5266 18.4997 13.0789 18.9474 13.0789 19.4997C13.0789 20.052 13.5266 20.4997 14.0789 20.4997V18.4997ZM19.4998 20.4997C20.0521 20.4997 20.4998 20.052 20.4998 19.4997C20.4998 18.9474 20.0521 18.4997 19.4998 18.4997V20.4997ZM19.4996 18.4997C18.9474 18.4997 18.4996 18.9474 18.4996 19.4997C18.4996 20.052 18.9474 20.4997 19.4996 20.4997V18.4997ZM24.9206 20.4997C25.4729 20.4997 25.9206 20.052 25.9206 19.4997C25.9206 18.9474 25.4729 18.4997 24.9206 18.4997V20.4997ZM20.4992 19.4996C20.4992 18.9474 20.0515 18.4996 19.4992 18.4996C18.9469 18.4996 18.4992 18.9474 18.4992 19.4996H20.4992ZM18.4992 24.9206C18.4992 25.4728 18.9469 25.9206 19.4992 25.9206C20.0515 25.9206 20.4992 25.4728 20.4992 24.9206H18.4992ZM18.4992 19.4997C18.4992 20.052 18.9469 20.4997 19.4992 20.4997C20.0515 20.4997 20.4992 20.052 20.4992 19.4997H18.4992ZM20.4992 14.0788C20.4992 13.5265 20.0515 13.0788 19.4992 13.0788C18.9469 13.0788 18.4992 13.5265 18.4992 14.0788H20.4992ZM14.0789 20.4997H19.4998V18.4997H14.0789V20.4997ZM19.4996 20.4997H24.9206V18.4997H19.4996V20.4997ZM18.4992 19.4996V24.9206H20.4992V19.4996H18.4992ZM20.4992 19.4997V14.0788H18.4992V19.4997H20.4992Z" fill="#959595"/>
</svg>
