<svg width="46" height="46" viewBox="0 0 46 46" fill="none" xmlns="http://www.w3.org/2000/svg">
<circle cx="23" cy="23" r="22.5" stroke="url(#paint0_linear_2864_2152)" stroke-opacity="0.6"/>
<path fill-rule="evenodd" clip-rule="evenodd" d="M4 22.9993C4.00065 13.9354 10.4039 6.13413 19.2938 4.36645C28.1838 2.59876 37.0844 7.35696 40.5525 15.7311C44.0206 24.1053 41.0903 33.7631 33.5536 38.7984C26.0169 43.8336 15.9729 42.8438 9.56404 36.4343C6.00109 32.871 3.99964 28.0383 4 22.9993Z" stroke="url(#paint1_linear_2864_2152)" stroke-width="3.5" stroke-linecap="round" stroke-linejoin="round"/>
<path d="M15.875 21.2496C14.9085 21.2496 14.125 22.0331 14.125 22.9996C14.125 23.9661 14.9085 24.7496 15.875 24.7496V21.2496ZM22.9997 24.7496C23.9662 24.7496 24.7497 23.9661 24.7497 22.9996C24.7497 22.0331 23.9662 21.2496 22.9997 21.2496V24.7496ZM22.9994 21.2496C22.0329 21.2496 21.2494 22.0331 21.2494 22.9996C21.2494 23.9661 22.0329 24.7496 22.9994 24.7496V21.2496ZM30.1241 24.7496C31.0906 24.7496 31.8741 23.9661 31.8741 22.9996C31.8741 22.0331 31.0906 21.2496 30.1241 21.2496V24.7496ZM24.7488 22.9996C24.7488 22.0331 23.9653 21.2496 22.9988 21.2496C22.0323 21.2496 21.2488 22.0331 21.2488 22.9996H24.7488ZM21.2488 30.1242C21.2488 31.0907 22.0323 31.8742 22.9988 31.8742C23.9653 31.8742 24.7488 31.0907 24.7488 30.1242H21.2488ZM21.2488 22.9996C21.2488 23.9661 22.0323 24.7496 22.9988 24.7496C23.9653 24.7496 24.7488 23.9661 24.7488 22.9996H21.2488ZM24.7488 15.875C24.7488 14.9085 23.9653 14.125 22.9988 14.125C22.0323 14.125 21.2488 14.9085 21.2488 15.875H24.7488ZM15.875 24.7496H22.9997V21.2496H15.875V24.7496ZM22.9994 24.7496H30.1241V21.2496H22.9994V24.7496ZM21.2488 22.9996V30.1242H24.7488V22.9996H21.2488ZM24.7488 22.9996V15.875H21.2488V22.9996H24.7488Z" fill="url(#paint2_linear_2864_2152)"/>
<defs>
<linearGradient id="paint0_linear_2864_2152" x1="23" y1="0" x2="23" y2="46" gradientUnits="userSpaceOnUse">
<stop stop-color="#4C8CED"/>
<stop offset="1" stop-color="#36D859"/>
</linearGradient>
<linearGradient id="paint1_linear_2864_2152" x1="23.0001" y1="3.99976" x2="23.0001" y2="42" gradientUnits="userSpaceOnUse">
<stop stop-color="#4C8CED"/>
<stop offset="1" stop-color="#36D859"/>
</linearGradient>
<linearGradient id="paint2_linear_2864_2152" x1="22.9995" y1="15.875" x2="22.9995" y2="30.1243" gradientUnits="userSpaceOnUse">
<stop stop-color="#4C8CED"/>
<stop offset="1" stop-color="#36D859"/>
</linearGradient>
</defs>
</svg>
