<svg width="40" height="40" viewBox="0 0 40 40" fill="none" xmlns="http://www.w3.org/2000/svg">
<path d="M11.7493 12.2982C11.1142 12.2982 10.5993 12.8131 10.5993 13.4482C10.5993 14.0834 11.1142 14.5982 11.7493 14.5982V12.2982ZM27.2491 14.5982C27.8842 14.5982 28.3991 14.0834 28.3991 13.4482C28.3991 12.8131 27.8842 12.2982 27.2491 12.2982V14.5982ZM13.6874 17.9648C13.0523 17.9648 12.5374 18.4797 12.5374 19.1148C12.5374 19.7499 13.0523 20.2648 13.6874 20.2648V17.9648ZM25.3122 20.2648C25.9473 20.2648 26.4622 19.7499 26.4622 19.1148C26.4622 18.4797 25.9473 17.9648 25.3122 17.9648V20.2648ZM12.111 4L12.111 2.84997L12.1026 2.85003L12.111 4ZM26.8912 4L26.8999 2.85H26.8912V4ZM34.9998 12.2305L33.8498 12.2221V12.2305H34.9998ZM34.9998 22.2236L33.8497 22.2236L33.8498 22.232L34.9998 22.2236ZM32.649 28.0187L31.8299 27.2115L31.8299 27.2115L32.649 28.0187ZM26.889 30.4541L26.889 31.6041L26.8973 31.604L26.889 30.4541ZM12.111 30.4541V29.3041C11.9141 29.3041 11.7205 29.3546 11.5488 29.4509L12.111 30.4541ZM4.00022 35H2.85022C2.85022 35.4082 3.06665 35.7859 3.41888 35.9922C3.77112 36.1986 4.20636 36.2028 4.56248 36.0032L4.00022 35ZM4.00022 12.2305L5.15025 12.2305L5.15019 12.2221L4.00022 12.2305ZM6.35099 6.43536L5.53189 5.62816L5.53189 5.62816L6.35099 6.43536ZM11.7493 14.5982H27.2491V12.2982H11.7493V14.5982ZM13.6874 20.2648H25.3122V17.9648H13.6874V20.2648ZM12.111 5.15H26.8912V2.85H12.111V5.15ZM26.8825 5.14997C30.7591 5.17928 33.8783 8.3453 33.8498 12.2221L36.1497 12.2389C36.1875 7.0922 32.0466 2.88895 26.8999 2.85003L26.8825 5.14997ZM33.8498 12.2305V22.2236H36.1498V12.2305H33.8498ZM33.8498 22.232C33.8635 24.094 33.1369 25.8852 31.8299 27.2115L33.4681 28.8259C35.2033 27.0651 36.1679 24.6871 36.1497 22.2151L33.8498 22.232ZM31.8299 27.2115C30.5229 28.5378 28.7426 29.2905 26.8806 29.3041L26.8973 31.604C29.3693 31.586 31.7329 30.5867 33.4681 28.8259L31.8299 27.2115ZM26.889 29.3041H12.111V31.6041H26.889V29.3041ZM11.5488 29.4509L3.43796 33.9968L4.56248 36.0032L12.6733 31.4572L11.5488 29.4509ZM5.15022 35V12.2305H2.85022V35H5.15022ZM5.15019 12.2221C5.13652 10.36 5.8631 8.56884 7.1701 7.24255L5.53189 5.62816C3.79671 7.38894 2.8321 9.76692 2.85025 12.2389L5.15019 12.2221ZM7.1701 7.24255C8.4771 5.91627 10.2574 5.16354 12.1194 5.14997L12.1026 2.85003C9.63065 2.86805 7.26706 3.86738 5.53189 5.62816L7.1701 7.24255Z" fill="#959595"/>
</svg>
