<svg width="33" height="34" viewBox="0 0 33 34" fill="none" xmlns="http://www.w3.org/2000/svg">
<path d="M33 13.8741V26.6263C32.9978 28.4486 32.2728 30.1957 30.9839 31.4843C29.6951 32.7729 27.9477 33.4978 26.125 33.5H24.75C24.3853 33.5 24.0356 33.3552 23.7777 33.0973C23.5199 32.8395 23.375 32.4899 23.375 32.1253C23.375 31.7606 23.5199 31.411 23.7777 31.1532C24.0356 30.8953 24.3853 30.7505 24.75 30.7505H26.125C27.219 30.7505 28.2682 30.316 29.0418 29.5425C29.8154 28.7691 30.25 27.7201 30.25 26.6263V13.8741C30.25 13.199 30.0843 12.5342 29.7674 11.9381C29.4504 11.342 28.992 10.8328 28.4322 10.4551L18.8073 3.96223C18.1271 3.49868 17.3231 3.25074 16.5 3.25074C15.6769 3.25074 14.8729 3.49868 14.1928 3.96223L4.56775 10.4551C4.00802 10.8328 3.54956 11.342 3.23263 11.9381C2.91569 12.5342 2.74997 13.199 2.75 13.8741V26.6263C2.75 27.7201 3.1846 28.7691 3.95819 29.5425C4.73178 30.316 5.78099 30.7505 6.875 30.7505H8.25C8.61468 30.7505 8.96441 30.8953 9.22227 31.1532C9.48014 31.411 9.625 31.7606 9.625 32.1253C9.625 32.4899 9.48014 32.8395 9.22227 33.0973C8.96441 33.3552 8.61468 33.5 8.25 33.5H6.875C5.05231 33.4978 3.3049 32.7729 2.01606 31.4843C0.727218 30.1957 0.00218869 28.4486 5.38597e-06 26.6263V13.8741C-0.00140382 12.7492 0.273739 11.6412 0.801224 10.6475C1.32871 9.65389 2.09237 8.80509 3.025 8.17582L12.65 1.68153C13.7847 0.911607 15.1245 0.5 16.4959 0.5C17.8672 0.5 19.207 0.911607 20.3418 1.68153L29.9667 8.17582C30.9003 8.80476 31.6651 9.65328 32.194 10.6468C32.7229 11.6404 32.9997 12.7486 33 13.8741ZM26.125 21.1369C26.1285 22.401 25.8812 23.6532 25.3974 24.8211C24.9135 25.9889 24.2028 27.0492 23.3063 27.9405L18.4731 32.6669C17.944 33.1791 17.2365 33.4654 16.5 33.4654C15.7636 33.4654 15.056 33.1791 14.5269 32.6669L9.70475 27.9515C8.5833 26.8338 7.75499 25.4567 7.29326 23.9422C6.83153 22.4278 6.75065 20.8229 7.05778 19.2698C7.36491 17.7166 8.05057 16.2632 9.05397 15.0384C10.0574 13.8136 11.3475 12.8553 12.81 12.2483C14.2725 11.6414 15.8622 11.4045 17.4382 11.5589C19.0142 11.7132 20.5277 12.2539 21.8447 13.133C23.1616 14.0122 24.2412 15.2026 24.9879 16.5988C25.7345 17.9949 26.1251 19.5537 26.125 21.1369ZM23.375 21.1369C23.375 20.0066 23.0962 18.8936 22.5633 17.8967C22.0304 16.8998 21.2598 16.0497 20.3198 15.4217C19.3798 14.7937 18.2994 14.4071 17.1743 14.2962C16.0492 14.1854 14.9141 14.3536 13.8695 14.7861C12.825 15.2186 11.9032 15.902 11.1859 16.7757C10.4686 17.6494 9.97792 18.6865 9.75724 19.7951C9.53657 20.9038 9.59275 22.0497 9.9208 23.1314C10.2489 24.2131 10.8387 25.1973 11.638 25.9966L16.4505 30.701L21.373 25.9856C22.0105 25.3497 22.5156 24.5938 22.8592 23.7616C23.2028 22.9293 23.3781 22.0373 23.375 21.1369ZM20.625 21.1273C20.625 21.943 20.3831 22.7404 19.9298 23.4186C19.4766 24.0968 18.8323 24.6254 18.0786 24.9376C17.3248 25.2497 16.4954 25.3314 15.6953 25.1723C14.8951 25.0131 14.1601 24.6204 13.5832 24.0436C13.0063 23.4668 12.6134 22.7319 12.4543 21.9319C12.2951 21.1319 12.3768 20.3026 12.689 19.549C13.0012 18.7954 13.5299 18.1513 14.2083 17.6981C14.8866 17.2449 15.6842 17.0031 16.5 17.0031C17.594 17.0031 18.6432 17.4376 19.4168 18.211C20.1904 18.9845 20.625 20.0335 20.625 21.1273Z" fill="url(#paint0_linear_2611_53971)"/>
<circle cx="16.5004" cy="21.1249" r="2.475" fill="white"/>
<defs>
<linearGradient id="paint0_linear_2611_53971" x1="16.5" y1="0.5" x2="16.5" y2="33.5" gradientUnits="userSpaceOnUse">
<stop stop-color="#4C8CED"/>
<stop offset="1" stop-color="#36D859"/>
</linearGradient>
</defs>
</svg>
