<svg width="33" height="32" viewBox="0 0 33 32" fill="none" xmlns="http://www.w3.org/2000/svg">
<mask id="path-1-inside-1_2850_2490" fill="white">
<path d="M17.5391 25.0669C17.5391 22.2666 17.5391 20.8665 18.084 19.7969C18.5634 18.8561 19.3283 18.0912 20.2691 17.6119C21.3387 17.0669 22.7388 17.0669 25.5391 17.0669H30.8472C31.4073 17.0669 31.6873 17.0669 31.9012 17.1759C32.0894 17.2718 32.2423 17.4247 32.3382 17.6129C32.4472 17.8268 32.4472 18.1068 32.4472 18.6669V30.4002C32.4472 30.9603 32.4472 31.2403 32.3382 31.4542C32.2423 31.6424 32.0894 31.7954 31.9012 31.8912C31.6873 32.0002 31.4073 32.0002 30.8472 32.0002H19.1391C18.579 32.0002 18.299 32.0002 18.0851 31.8912C17.8969 31.7954 17.7439 31.6424 17.6481 31.4542C17.5391 31.2403 17.5391 30.9603 17.5391 30.4002V25.0669Z"/>
</mask>
<path d="M17.5391 25.0669C17.5391 22.2666 17.5391 20.8665 18.084 19.7969C18.5634 18.8561 19.3283 18.0912 20.2691 17.6119C21.3387 17.0669 22.7388 17.0669 25.5391 17.0669H30.8472C31.4073 17.0669 31.6873 17.0669 31.9012 17.1759C32.0894 17.2718 32.2423 17.4247 32.3382 17.6129C32.4472 17.8268 32.4472 18.1068 32.4472 18.6669V30.4002C32.4472 30.9603 32.4472 31.2403 32.3382 31.4542C32.2423 31.6424 32.0894 31.7954 31.9012 31.8912C31.6873 32.0002 31.4073 32.0002 30.8472 32.0002H19.1391C18.579 32.0002 18.299 32.0002 18.0851 31.8912C17.8969 31.7954 17.7439 31.6424 17.6481 31.4542C17.5391 31.2403 17.5391 30.9603 17.5391 30.4002V25.0669Z" stroke="url(#paint0_linear_2850_2490)" stroke-width="5" mask="url(#path-1-inside-1_2850_2490)"/>
<mask id="path-2-inside-2_2850_2490" fill="white">
<path d="M0.5 18.6669C0.5 18.1068 0.5 17.8268 0.608993 17.6129C0.704867 17.4247 0.857847 17.2718 1.04601 17.1759C1.25992 17.0669 1.53995 17.0669 2.1 17.0669H7.40815C10.2084 17.0669 11.6085 17.0669 12.6781 17.6119C13.6189 18.0912 14.3838 18.8561 14.8632 19.7969C15.4082 20.8665 15.4082 22.2666 15.4082 25.0669V30.4002C15.4082 30.9603 15.4082 31.2403 15.2992 31.4542C15.2033 31.6424 15.0503 31.7954 14.8621 31.8912C14.6482 32.0002 14.3682 32.0002 13.8082 32.0002H2.1C1.53995 32.0002 1.25992 32.0002 1.04601 31.8912C0.857847 31.7954 0.704867 31.6424 0.608993 31.4542C0.5 31.2403 0.5 30.9603 0.5 30.4002V18.6669Z"/>
</mask>
<path d="M0.5 18.6669C0.5 18.1068 0.5 17.8268 0.608993 17.6129C0.704867 17.4247 0.857847 17.2718 1.04601 17.1759C1.25992 17.0669 1.53995 17.0669 2.1 17.0669H7.40815C10.2084 17.0669 11.6085 17.0669 12.6781 17.6119C13.6189 18.0912 14.3838 18.8561 14.8632 19.7969C15.4082 20.8665 15.4082 22.2666 15.4082 25.0669V30.4002C15.4082 30.9603 15.4082 31.2403 15.2992 31.4542C15.2033 31.6424 15.0503 31.7954 14.8621 31.8912C14.6482 32.0002 14.3682 32.0002 13.8082 32.0002H2.1C1.53995 32.0002 1.25992 32.0002 1.04601 31.8912C0.857847 31.7954 0.704867 31.6424 0.608993 31.4542C0.5 31.2403 0.5 30.9603 0.5 30.4002V18.6669Z" stroke="url(#paint1_linear_2850_2490)" stroke-width="5" mask="url(#path-2-inside-2_2850_2490)"/>
<mask id="path-3-inside-3_2850_2490" fill="white">
<path d="M0.5 1.6C0.5 1.03995 0.5 0.759921 0.608993 0.546009C0.704867 0.357847 0.857847 0.204867 1.04601 0.108993C1.25992 0 1.53995 0 2.1 0H13.8616C14.4216 0 14.7017 0 14.9156 0.108993C15.1037 0.204867 15.2567 0.357847 15.3526 0.546009C15.4616 0.759921 15.4616 1.03995 15.4616 1.6V6.98685C15.4616 9.78711 15.4616 11.1872 14.9166 12.2568C14.4373 13.1976 13.6724 13.9625 12.7315 14.4419C11.662 14.9868 10.2619 14.9868 7.46159 14.9868H2.1C1.53995 14.9868 1.25992 14.9868 1.04601 14.8779C0.857847 14.782 0.704867 14.629 0.608993 14.4408C0.5 14.2269 0.5 13.9469 0.5 13.3868V1.6Z"/>
</mask>
<path d="M0.5 1.6C0.5 1.03995 0.5 0.759921 0.608993 0.546009C0.704867 0.357847 0.857847 0.204867 1.04601 0.108993C1.25992 0 1.53995 0 2.1 0H13.8616C14.4216 0 14.7017 0 14.9156 0.108993C15.1037 0.204867 15.2567 0.357847 15.3526 0.546009C15.4616 0.759921 15.4616 1.03995 15.4616 1.6V6.98685C15.4616 9.78711 15.4616 11.1872 14.9166 12.2568C14.4373 13.1976 13.6724 13.9625 12.7315 14.4419C11.662 14.9868 10.2619 14.9868 7.46159 14.9868H2.1C1.53995 14.9868 1.25992 14.9868 1.04601 14.8779C0.857847 14.782 0.704867 14.629 0.608993 14.4408C0.5 14.2269 0.5 13.9469 0.5 13.3868V1.6Z" stroke="url(#paint2_linear_2850_2490)" stroke-width="5" mask="url(#path-3-inside-3_2850_2490)"/>
<mask id="path-4-inside-4_2850_2490" fill="white">
<path d="M17.5391 1.6C17.5391 1.03995 17.5391 0.759921 17.6481 0.546009C17.7439 0.357847 17.8969 0.204867 18.0851 0.108993C18.299 0 18.579 0 19.1391 0H30.9006C31.4607 0 31.7407 0 31.9546 0.108993C32.1428 0.204867 32.2958 0.357847 32.3917 0.546009C32.5007 0.759921 32.5007 1.03995 32.5007 1.6V13.3868C32.5007 13.9469 32.5007 14.2269 32.3917 14.4408C32.2958 14.629 32.1428 14.782 31.9546 14.8779C31.7407 14.9868 31.4607 14.9868 30.9007 14.9868H25.5391C22.7388 14.9868 21.3387 14.9868 20.2691 14.4419C19.3283 13.9625 18.5634 13.1976 18.084 12.2568C17.5391 11.1872 17.5391 9.78711 17.5391 6.98685V1.6Z"/>
</mask>
<path d="M17.5391 1.6C17.5391 1.03995 17.5391 0.759921 17.6481 0.546009C17.7439 0.357847 17.8969 0.204867 18.0851 0.108993C18.299 0 18.579 0 19.1391 0H30.9006C31.4607 0 31.7407 0 31.9546 0.108993C32.1428 0.204867 32.2958 0.357847 32.3917 0.546009C32.5007 0.759921 32.5007 1.03995 32.5007 1.6V13.3868C32.5007 13.9469 32.5007 14.2269 32.3917 14.4408C32.2958 14.629 32.1428 14.782 31.9546 14.8779C31.7407 14.9868 31.4607 14.9868 30.9007 14.9868H25.5391C22.7388 14.9868 21.3387 14.9868 20.2691 14.4419C19.3283 13.9625 18.5634 13.1976 18.084 12.2568C17.5391 11.1872 17.5391 9.78711 17.5391 6.98685V1.6Z" stroke="url(#paint3_linear_2850_2490)" stroke-width="5" mask="url(#path-4-inside-4_2850_2490)"/>
<defs>
<linearGradient id="paint0_linear_2850_2490" x1="24.9931" y1="17.0669" x2="24.9931" y2="32.0002" gradientUnits="userSpaceOnUse">
<stop stop-color="#4C8CED"/>
<stop offset="1" stop-color="#36D859"/>
</linearGradient>
<linearGradient id="paint1_linear_2850_2490" x1="7.95408" y1="17.0669" x2="7.95408" y2="32.0002" gradientUnits="userSpaceOnUse">
<stop stop-color="#4C8CED"/>
<stop offset="1" stop-color="#36D859"/>
</linearGradient>
<linearGradient id="paint2_linear_2850_2490" x1="7.98079" y1="0" x2="7.98079" y2="14.9868" gradientUnits="userSpaceOnUse">
<stop stop-color="#4C8CED"/>
<stop offset="1" stop-color="#36D859"/>
</linearGradient>
<linearGradient id="paint3_linear_2850_2490" x1="25.0199" y1="0" x2="25.0199" y2="14.9868" gradientUnits="userSpaceOnUse">
<stop stop-color="#4C8CED"/>
<stop offset="1" stop-color="#36D859"/>
</linearGradient>
</defs>
</svg>
