<svg width="33" height="34" viewBox="0 0 33 34" fill="none" xmlns="http://www.w3.org/2000/svg">
<path d="M8.99935 9.64345C8.17092 9.64345 7.49935 10.315 7.49935 11.1434C7.49935 11.9719 8.17092 12.6434 8.99935 12.6434V9.64345ZM23.9991 12.6434C24.8276 12.6434 25.4991 11.9719 25.4991 11.1434C25.4991 10.315 24.8276 9.64345 23.9991 9.64345V12.6434ZM10.8749 15.1272C10.0465 15.1272 9.37489 15.7988 9.37489 16.6272C9.37489 17.4556 10.0465 18.1272 10.8749 18.1272V15.1272ZM22.1247 18.1272C22.9532 18.1272 23.6247 17.4556 23.6247 16.6272C23.6247 15.7988 22.9532 15.1272 22.1247 15.1272V18.1272ZM9.34939 2V0.49996L9.33845 0.50004L9.34939 2ZM23.6528 2L23.6641 0.5H23.6528V2ZM31.4998 9.965L29.9998 9.95398V9.965H31.4998ZM31.4998 19.6357H29.9997L29.9998 19.6467L31.4998 19.6357ZM29.2248 25.2439L28.1564 24.191V24.1911L29.2248 25.2439ZM23.6506 27.6007V29.1008L23.6615 29.1007L23.6506 27.6007ZM9.34939 27.6007V26.1007C9.09256 26.1007 8.84004 26.1667 8.616 26.2922L9.34939 27.6007ZM1.50021 32H0.000213504C0.000213504 32.5325 0.282511 33.0251 0.741949 33.2942C1.20139 33.5634 1.76909 33.5688 2.23359 33.3085L1.50021 32ZM1.50021 9.965H3.00025L3.00017 9.95398L1.50021 9.965ZM3.77516 4.3568L2.70676 3.30393L2.70676 3.30393L3.77516 4.3568ZM8.99935 12.6434H23.9991V9.64345H8.99935V12.6434ZM10.8749 18.1272H22.1247V15.1272H10.8749V18.1272ZM9.34939 3.5H23.6528V0.5H9.34939V3.5ZM23.6414 3.49996C27.1793 3.52671 30.0258 6.41603 29.9998 9.95398L32.9997 9.97602C33.0379 4.78155 28.8585 0.53932 23.6641 0.500043L23.6414 3.49996ZM29.9998 9.965V19.6357H32.9998V9.965H29.9998ZM29.9998 19.6467C30.0123 21.346 29.3492 22.9807 28.1564 24.191L30.2932 26.2968C32.0445 24.5197 33.0181 22.1196 32.9997 19.6247L29.9998 19.6467ZM28.1564 24.1911C26.9637 25.4014 25.3389 26.0884 23.6397 26.1008L23.6615 29.1007C26.1565 29.0825 28.542 28.0739 30.2932 26.2968L28.1564 24.1911ZM23.6506 26.1007H9.34939V29.1007H23.6506V26.1007ZM8.616 26.2922L0.766833 30.6915L2.23359 33.3085L10.0828 28.9092L8.616 26.2922ZM3.00021 32V9.965H0.000213504V32H3.00021ZM3.00017 9.95398C2.98769 8.25468 3.65078 6.62003 4.84356 5.40966L2.70676 3.30393C0.955492 5.08104 -0.0180682 7.48107 0.000253916 9.97602L3.00017 9.95398ZM4.84356 5.40966C6.03633 4.19929 7.66106 3.51235 9.36032 3.49996L9.33845 0.50004C6.84352 0.518229 4.45802 1.52683 2.70676 3.30393L4.84356 5.40966Z" fill="#959595"/>
</svg>
