<svg width="46" height="46" viewBox="0 0 46 46" fill="none" xmlns="http://www.w3.org/2000/svg">
<circle cx="23" cy="23" r="23" fill="white"/>
<circle cx="23" cy="23" r="22.5" stroke="#C0C0C0" stroke-opacity="0.8"/>
<path fill-rule="evenodd" clip-rule="evenodd" d="M4 22.9993C4.00065 13.9354 10.4039 6.13413 19.2938 4.36645C28.1838 2.59876 37.0844 7.35696 40.5525 15.7311C44.0206 24.1053 41.0903 33.7631 33.5536 38.7984C26.0169 43.8336 15.9729 42.8438 9.56404 36.4343C6.00109 32.871 3.99964 28.0383 4 22.9993Z" stroke="#959595" stroke-width="3.5" stroke-linecap="round" stroke-linejoin="round"/>
<path d="M15.8751 21.2495C14.9086 21.2495 14.1251 22.033 14.1251 22.9995C14.1251 23.966 14.9086 24.7495 15.8751 24.7495V21.2495ZM22.9998 24.7495C23.9663 24.7495 24.7498 23.966 24.7498 22.9995C24.7498 22.033 23.9663 21.2495 22.9998 21.2495V24.7495ZM22.9995 21.2495C22.033 21.2495 21.2495 22.033 21.2495 22.9995C21.2495 23.966 22.033 24.7495 22.9995 24.7495V21.2495ZM30.1242 24.7495C31.0907 24.7495 31.8742 23.966 31.8742 22.9995C31.8742 22.033 31.0907 21.2495 30.1242 21.2495V24.7495ZM24.7489 22.9995C24.7489 22.033 23.9654 21.2495 22.9989 21.2495C22.0324 21.2495 21.2489 22.033 21.2489 22.9995H24.7489ZM21.2489 30.1241C21.2489 31.0906 22.0324 31.8741 22.9989 31.8741C23.9654 31.8741 24.7489 31.0906 24.7489 30.1241H21.2489ZM21.2489 22.9995C21.2489 23.966 22.0324 24.7495 22.9989 24.7495C23.9654 24.7495 24.7489 23.966 24.7489 22.9995H21.2489ZM24.7489 15.8749C24.7489 14.9084 23.9654 14.1249 22.9989 14.1249C22.0324 14.1249 21.2489 14.9084 21.2489 15.8749H24.7489ZM15.8751 24.7495H22.9998V21.2495H15.8751V24.7495ZM22.9995 24.7495H30.1242V21.2495H22.9995V24.7495ZM21.2489 22.9995V30.1241H24.7489V22.9995H21.2489ZM24.7489 22.9995V15.8749H21.2489V22.9995H24.7489Z" fill="#959595"/>
</svg>
