<svg width="54" height="55" viewBox="0 0 54 55" fill="none" xmlns="http://www.w3.org/2000/svg">
<rect x="1" y="1" width="51.8049" height="52.1115" rx="17" fill="white"/>
<rect x="1" y="1" width="51.8049" height="52.1115" rx="17" stroke="#676767" stroke-width="2"/>
<path d="M24.3206 23.181L22.622 28.7557C22.4777 29.2298 22.6095 29.7443 22.9653 30.0939C23.2253 30.3498 23.5748 30.4883 23.9324 30.4883C24.0637 30.4883 24.196 30.4699 24.3251 30.4313L29.9902 28.7601C30.207 28.6961 30.4047 28.5804 30.5645 28.4227L40.9508 18.2013C41.2072 17.9489 41.3515 17.6063 41.3515 17.2496C41.3515 16.8929 41.2072 16.5502 40.9508 16.2978L36.9839 12.3944C36.4496 11.8685 35.584 11.8685 35.0497 12.3944L24.6639 22.6157C24.5036 22.7735 24.3861 22.9671 24.3206 23.181ZM26.8422 24.2791L36.0168 15.2497L38.049 17.2496L28.8743 26.279L25.9721 27.1353L26.8422 24.2791Z" fill="url(#paint0_linear_6894_24574)"/>
<path d="M40.4361 25.0122C39.6805 25.0122 39.0683 25.6151 39.0683 26.3583V35.3325C39.0683 36.57 38.0455 37.5761 36.7886 37.5761H18.5506C17.2936 37.5761 16.2708 36.57 16.2708 35.3325V17.3841C16.2708 16.1466 17.2936 15.1405 18.5506 15.1405H27.6696C28.4252 15.1405 29.0374 14.5376 29.0374 13.7944C29.0374 13.0512 28.4252 12.4482 27.6696 12.4482H18.5506C15.7851 12.4482 13.5352 14.6629 13.5352 17.3841V35.3325C13.5352 38.0537 15.7851 40.2684 18.5506 40.2684H36.7886C39.5541 40.2684 41.804 38.0537 41.804 35.3325V26.3583C41.804 25.6151 41.1918 25.0122 40.4361 25.0122Z" fill="url(#paint1_linear_6894_24574)"/>
<circle cx="17.2235" cy="36.888" r="5.22345" fill="url(#paint2_linear_6894_24574)"/>
<path fill-rule="evenodd" clip-rule="evenodd" d="M17.2235 33.2715C17.6229 33.2715 17.9467 33.5952 17.9467 33.9946V36.164H20.1167C20.5161 36.164 20.8399 36.4878 20.8399 36.8871C20.8399 37.2865 20.5161 37.6102 20.1167 37.6102H17.9467V39.7809C17.9467 40.1802 17.6229 40.504 17.2235 40.504C16.8241 40.504 16.5003 40.1802 16.5003 39.7809V37.6102H14.3306C13.9312 37.6102 13.6074 37.2865 13.6074 36.8871C13.6074 36.4878 13.9312 36.164 14.3306 36.164H16.5003V33.9946C16.5003 33.5952 16.8241 33.2715 17.2235 33.2715Z" fill="white"/>
<defs>
<linearGradient id="paint0_linear_6894_24574" x1="31.958" y1="12" x2="31.958" y2="30.4883" gradientUnits="userSpaceOnUse">
<stop stop-color="#36D859"/>
<stop offset="1" stop-color="#4C8CED"/>
</linearGradient>
<linearGradient id="paint1_linear_6894_24574" x1="27.6696" y1="12.4482" x2="27.6696" y2="40.2684" gradientUnits="userSpaceOnUse">
<stop stop-color="#36D859"/>
<stop offset="1" stop-color="#4C8CED"/>
</linearGradient>
<linearGradient id="paint2_linear_6894_24574" x1="17.2235" y1="31.6645" x2="17.2235" y2="42.1115" gradientUnits="userSpaceOnUse">
<stop stop-color="#36D859"/>
<stop offset="1" stop-color="#4C8CED"/>
</linearGradient>
</defs>
</svg>
