<svg width="27" height="28" viewBox="0 0 27 28" fill="none" xmlns="http://www.w3.org/2000/svg">
<path fill-rule="evenodd" clip-rule="evenodd" d="M1 13.9996C1.00043 8.03655 5.21308 2.90419 11.0617 1.74124C16.9103 0.578299 22.7659 3.70867 25.0476 9.21796C27.3292 14.7272 25.4014 21.0811 20.443 24.3937C15.4847 27.7063 8.87686 27.0551 4.66053 22.8384C2.3165 20.4941 0.999761 17.3147 1 13.9996Z" stroke="#636363" stroke-width="1.5" stroke-linecap="round" stroke-linejoin="round"/>
<path d="M8.28227 18.155C7.98932 18.4478 7.98923 18.9227 8.28207 19.2157C8.5749 19.5086 9.04978 19.5087 9.34273 19.2159L8.28227 18.155ZM14.03 14.5304C14.3229 14.2376 14.323 13.7627 14.0302 13.4698C13.7374 13.1768 13.2625 13.1767 12.9695 13.4696L14.03 14.5304ZM12.9695 13.4699C12.6767 13.7629 12.6769 14.2378 12.9699 14.5306C13.2629 14.8234 13.7377 14.8232 14.0305 14.5302L12.9695 13.4699ZM18.716 9.84116C19.0088 9.54816 19.0086 9.07329 18.7156 8.7805C18.4226 8.48772 17.9477 8.4879 17.6549 8.78091L18.716 9.84116ZM14.0302 13.4696C13.7373 13.1767 13.2624 13.1768 12.9696 13.4698C12.6767 13.7627 12.6768 14.2376 12.9698 14.5304L14.0302 13.4696ZM17.657 19.2159C17.95 19.5087 18.4249 19.5086 18.7177 19.2157C19.0105 18.9227 19.0104 18.4478 18.7175 18.155L17.657 19.2159ZM12.9693 14.5303C13.2622 14.8232 13.737 14.8233 14.03 14.5305C14.3229 14.2376 14.323 13.7628 14.0302 13.4698L12.9693 14.5303ZM9.34293 8.7808C9.05009 8.48786 8.57522 8.48777 8.28227 8.78061C7.98932 9.07344 7.98923 9.54832 8.28207 9.84127L9.34293 8.7808ZM9.34273 19.2159L14.03 14.5304L12.9695 13.4696L8.28227 18.155L9.34273 19.2159ZM14.0305 14.5302L18.716 9.84116L17.6549 8.78091L12.9695 13.4699L14.0305 14.5302ZM12.9698 14.5304L17.657 19.2159L18.7175 18.155L14.0302 13.4696L12.9698 14.5304ZM14.0302 13.4698L9.34293 8.7808L8.28207 9.84127L12.9693 14.5303L14.0302 13.4698Z" fill="#A90000"/>
</svg>
