<svg width="18" height="17" viewBox="0 0 18 17" fill="none" xmlns="http://www.w3.org/2000/svg">
<path d="M17.7495 14.8462C17.7495 14.4319 17.4138 14.0962 16.9995 14.0962C16.5853 14.0962 16.2495 14.4319 16.2495 14.8462H17.7495ZM16.2495 16C16.2495 16.4142 16.5853 16.75 16.9995 16.75C17.4138 16.75 17.7495 16.4142 17.7495 16H16.2495ZM16.2495 14.8462C16.2495 15.2604 16.5853 15.5962 16.9995 15.5962C17.4138 15.5962 17.7495 15.2604 17.7495 14.8462H16.2495ZM17.7495 2.15385C17.7495 1.73963 17.4138 1.40385 16.9995 1.40385C16.5853 1.40385 16.2495 1.73963 16.2495 2.15385H17.7495ZM16.8424 15.5796C17.2474 15.6664 17.6461 15.4085 17.7329 15.0035C17.8197 14.5984 17.5617 14.1997 17.1567 14.1129L16.8424 15.5796ZM10.2337 12.6291C9.82864 12.5423 9.42994 12.8002 9.34313 13.2053C9.25632 13.6103 9.51428 14.009 9.91929 14.0958L10.2337 12.6291ZM1.5957 11.3846C1.5957 10.9704 1.25992 10.6346 0.845703 10.6346C0.43149 10.6346 0.0957031 10.9704 0.0957031 11.3846H1.5957ZM0.0957031 12.5385C0.0957031 12.9527 0.43149 13.2885 0.845703 13.2885C1.25992 13.2885 1.5957 12.9527 1.5957 12.5385H0.0957031ZM0.0957031 11.3846C0.0957031 11.7988 0.43149 12.1346 0.845703 12.1346C1.25992 12.1346 1.5957 11.7988 1.5957 11.3846H0.0957031ZM1.5957 5.61538C1.5957 5.20117 1.25992 4.86538 0.845703 4.86538C0.43149 4.86538 0.0957031 5.20117 0.0957031 5.61538H1.5957ZM1.00282 10.6513C0.597803 10.5645 0.199122 10.8225 0.112346 11.2275C0.02557 11.6325 0.283559 12.0312 0.688581 12.118L1.00282 10.6513ZM9.91935 14.0957C10.3244 14.1824 10.7231 13.9245 10.8098 13.5194C10.8966 13.1144 10.6386 12.7157 10.2336 12.629L9.91935 14.0957ZM16.2495 2.15385C16.2495 2.56806 16.5853 2.90385 16.9995 2.90385C17.4138 2.90385 17.7495 2.56806 17.7495 2.15385H16.2495ZM17.7495 1C17.7495 0.585786 17.4138 0.25 16.9995 0.25C16.5853 0.25 16.2495 0.585786 16.2495 1H17.7495ZM17.1567 2.8872C17.5617 2.80041 17.8197 2.40172 17.7329 1.9967C17.6461 1.59168 17.2474 1.3337 16.8424 1.42049L17.1567 2.8872ZM0.688556 4.88203C0.283537 4.96882 0.0255615 5.36751 0.112351 5.77253C0.199141 6.17755 0.597831 6.43553 1.00285 6.34874L0.688556 4.88203ZM0.0957031 5.61538C0.0957031 6.0296 0.43149 6.36538 0.845703 6.36538C1.25992 6.36538 1.5957 6.0296 1.5957 5.61538H0.0957031ZM1.5957 4.46154C1.5957 4.04732 1.25992 3.71154 0.845703 3.71154C0.43149 3.71154 0.0957031 4.04732 0.0957031 4.46154H1.5957ZM6.21109 12.3734C6.21109 11.9592 5.8753 11.6234 5.46109 11.6234C5.04688 11.6234 4.71109 11.9592 4.71109 12.3734H6.21109ZM5.46109 13.2965L6.20912 13.3508C6.21043 13.3327 6.21109 13.3146 6.21109 13.2965H5.46109ZM7.76878 15.9999L7.70506 16.7472C7.74686 16.7508 7.78889 16.7508 7.8307 16.7474L7.76878 15.9999ZM10.8255 13.3243C10.8046 12.9106 10.4522 12.5922 10.0385 12.6132C9.62485 12.6341 9.30648 12.9865 9.32744 13.4002L10.8255 13.3243ZM16.2495 14.8462V16H17.7495V14.8462H16.2495ZM17.7495 14.8462V2.15385H16.2495V14.8462H17.7495ZM17.1567 14.1129L10.2337 12.6291L9.91929 14.0958L16.8424 15.5796L17.1567 14.1129ZM0.0957031 11.3846V12.5385H1.5957V11.3846H0.0957031ZM1.5957 11.3846V5.61538H0.0957031V11.3846H1.5957ZM0.688581 12.118L9.91935 14.0957L10.2336 12.629L1.00282 10.6513L0.688581 12.118ZM17.7495 2.15385V1H16.2495V2.15385H17.7495ZM16.8424 1.42049L0.688556 4.88203L1.00285 6.34874L17.1567 2.8872L16.8424 1.42049ZM1.5957 5.61538V4.46154H0.0957031V5.61538H1.5957ZM4.71109 12.3734V13.2965H6.21109V12.3734H4.71109ZM4.71307 13.2421C4.58292 15.0324 5.91647 16.5947 7.70506 16.7472L7.8325 15.2526C6.86205 15.1699 6.1385 14.3222 6.20912 13.3508L4.71307 13.2421ZM7.8307 16.7474C9.58926 16.6017 10.9148 15.0866 10.8255 13.3243L9.32744 13.4002C9.37575 14.3538 8.65847 15.1737 7.70687 15.2525L7.8307 16.7474Z" fill="url(#paint0_linear_4261_21158)"/>
<defs>
<linearGradient id="paint0_linear_4261_21158" x1="8.92263" y1="1" x2="8.92263" y2="16" gradientUnits="userSpaceOnUse">
<stop stop-color="#FF9900"/>
<stop offset="1" stop-color="#636363"/>
</linearGradient>
</defs>
</svg>
