<svg width="20" height="21" viewBox="0 0 20 21" fill="none" xmlns="http://www.w3.org/2000/svg">
<path fill-rule="evenodd" clip-rule="evenodd" d="M8.97817 1.05366C8.17938 1.81656 8.15028 3.08255 8.91317 3.88134L15.2344 10.5L8.91317 17.1187C8.15028 17.9175 8.17938 19.1834 8.97817 19.9463C9.77696 20.7092 11.043 20.6801 11.8059 19.8813L19.4463 11.8813C20.1846 11.1084 20.1846 9.89161 19.4463 9.11866L11.8059 1.11866C11.043 0.319871 9.77696 0.290771 8.97817 1.05366ZM0.618732 2.3874C-0.180037 3.15031 -0.209101 4.41631 0.553816 5.21508L5.60151 10.5L0.553816 15.7849C-0.209101 16.5837 -0.180037 17.8497 0.618732 18.6126C1.4175 19.3755 2.6835 19.3464 3.44641 18.5477L9.81349 11.8814C10.5518 11.1084 10.5518 9.89156 9.81349 9.1186L3.44641 2.45231C2.6835 1.65354 1.4175 1.62448 0.618732 2.3874Z" fill="#A6A6A6"/>
</svg>
