<svg width="211" height="33" viewBox="0 0 211 33" fill="none" xmlns="http://www.w3.org/2000/svg">
<g filter="url(#filter0_b_2611_62649)">
<mask id="path-1-inside-1_2611_62649" fill="white">
<path fill-rule="evenodd" clip-rule="evenodd" d="M10 0C4.47715 0 0 4.47715 0 10V23C0 28.5228 4.47715 33 10 33H191C196.523 33 201 28.5228 201 23C201 22.7026 201.124 22.4187 201.342 22.2165L210.189 14.0074C211.533 12.7605 210.631 10.5132 208.798 10.5416L201.662 10.652C201.298 10.6577 201 10.3641 201 10C201 4.47715 196.523 0 191 0H10Z"/>
</mask>
<path fill-rule="evenodd" clip-rule="evenodd" d="M10 0C4.47715 0 0 4.47715 0 10V23C0 28.5228 4.47715 33 10 33H191C196.523 33 201 28.5228 201 23C201 22.7026 201.124 22.4187 201.342 22.2165L210.189 14.0074C211.533 12.7605 210.631 10.5132 208.798 10.5416L201.662 10.652C201.298 10.6577 201 10.3641 201 10C201 4.47715 196.523 0 191 0H10Z" fill="white"/>
<path d="M210.189 14.0074L209.509 13.2744V13.2744L210.189 14.0074ZM208.798 10.5416L208.782 9.54168L208.798 10.5416ZM201.342 22.2165L200.662 21.4834L201.342 22.2165ZM1 10C1 5.02944 5.02944 1 10 1V-1C3.92487 -1 -1 3.92487 -1 10H1ZM1 23V10H-1V23H1ZM10 32C5.02943 32 1 27.9706 1 23H-1C-1 29.0751 3.92486 34 10 34V32ZM191 32H10V34H191V32ZM200 23C200 27.9706 195.971 32 191 32V34C197.075 34 202 29.0751 202 23H200ZM209.509 13.2744L200.662 21.4834L202.022 22.9495L210.869 14.7405L209.509 13.2744ZM208.813 11.5414C209.73 11.5272 210.181 12.6509 209.509 13.2744L210.869 14.7405C212.885 12.8701 211.532 9.4991 208.782 9.54168L208.813 11.5414ZM201.678 11.6519L208.813 11.5414L208.782 9.54168L201.647 9.65217L201.678 11.6519ZM191 1C195.971 1 200 5.02944 200 10H202C202 3.92487 197.075 -1 191 -1V1ZM10 1H191V-1H10V1ZM201.647 9.65217C201.841 9.64916 202 9.80577 202 10H200C200 10.9224 200.755 11.6662 201.678 11.6519L201.647 9.65217ZM202 23C202 22.9808 202.008 22.9626 202.022 22.9495L200.662 21.4834C200.24 21.8749 200 22.4244 200 23H202Z" fill="url(#paint0_linear_2611_62649)" mask="url(#path-1-inside-1_2611_62649)"/>
</g>
<path d="M30.6079 18.4113C30.7053 18.4154 30.8026 18.4194 30.9 18.4235C31.0015 18.4235 31.0968 18.4235 31.1861 18.4235C31.5067 18.4235 31.8131 18.4113 32.1053 18.387C32.3974 18.3626 32.6673 18.3301 32.9148 18.2896C33.1624 18.249 33.3795 18.2064 33.5661 18.1617C33.7568 18.113 33.909 18.0664 34.0226 18.0217H34.0166C34.2276 17.9325 34.3818 17.8533 34.4792 17.7843C34.5766 17.7154 34.6415 17.6626 34.6739 17.6261C34.7348 17.5571 34.7774 17.4861 34.8018 17.413C34.8302 17.3359 34.8444 17.2568 34.8444 17.1757C34.8444 17.0012 34.7774 16.8145 34.6435 16.6157C34.5096 16.4128 34.3371 16.2078 34.1261 16.0009C33.9192 15.7939 33.6879 15.587 33.4322 15.38C33.1806 15.173 32.9351 14.9742 32.6957 14.7835L31.4235 13.7365L31.6244 11.9348L37.1148 9.54261L37.8696 11.3322L33.5783 13.1643C33.8055 13.3551 34.0348 13.5519 34.2661 13.7548C34.5015 13.9577 34.7267 14.1667 34.9418 14.3817C35.1568 14.5928 35.3577 14.8099 35.5444 15.033C35.7351 15.2522 35.8995 15.4774 36.0374 15.7087C36.1795 15.9359 36.2911 16.1672 36.3722 16.4026C36.4534 16.638 36.4939 16.8774 36.4939 17.1209C36.4939 17.3887 36.4473 17.6606 36.3539 17.9365C36.2647 18.2125 36.1166 18.4965 35.9096 18.7887H35.9157C35.8913 18.8252 35.8487 18.878 35.7879 18.947C35.7311 19.0159 35.6519 19.093 35.5505 19.1783C35.4531 19.2635 35.3313 19.3548 35.1853 19.4522C35.0392 19.5455 34.8667 19.6388 34.6679 19.7322C34.1079 19.9797 33.5438 20.1461 32.9757 20.2313C32.4076 20.3165 31.8293 20.3591 31.2409 20.3591H31.1131C31.0279 20.3591 30.9406 20.3591 30.8513 20.3591C30.7621 20.3591 30.6748 20.3551 30.5896 20.347C29.8308 20.3388 29.1511 20.2901 28.5505 20.2009C27.9499 20.1157 27.4224 19.9878 26.9679 19.8174C26.0467 19.4603 25.4137 18.9368 25.0687 18.247V18.253C24.8739 17.8757 24.7766 17.4577 24.7766 16.9991C24.7766 16.8003 24.8009 16.5852 24.8496 16.3539C24.8983 16.1226 24.9612 15.8974 25.0383 15.6783C25.087 15.5646 25.1276 15.4693 25.16 15.3922C25.1966 15.3151 25.2311 15.2441 25.2635 15.1791C25.296 15.1142 25.3325 15.0493 25.3731 14.9843C25.4137 14.9194 25.4644 14.8403 25.5253 14.747L26.9679 15.8C26.9111 15.9014 26.8482 16.0049 26.7792 16.1104C26.7142 16.2159 26.6534 16.3235 26.5966 16.433C26.5438 16.5426 26.4992 16.6542 26.4626 16.7678C26.4261 16.8814 26.4079 16.9951 26.4079 17.1087C26.4079 17.267 26.4626 17.409 26.5722 17.5348C26.6858 17.6565 26.84 17.7641 27.0348 17.8574C27.2337 17.9467 27.465 18.0238 27.7287 18.0887C27.9966 18.1536 28.2847 18.2084 28.5931 18.253C28.9055 18.2977 29.2322 18.3322 29.5731 18.3565C29.9139 18.3809 30.2568 18.3991 30.6018 18.4113H30.6079ZM46.0808 18.2713C46.1904 18.3322 46.304 18.3748 46.4217 18.3991C46.5434 18.4194 46.6632 18.4336 46.7808 18.4417C46.9107 18.4417 47.0345 18.4681 47.1521 18.5209C47.2698 18.5696 47.3713 18.6365 47.4565 18.7217C47.5458 18.807 47.6168 18.9084 47.6695 19.0261C47.7223 19.1438 47.7487 19.2696 47.7487 19.4035C47.7487 19.5374 47.7223 19.6632 47.6695 19.7809C47.6168 19.8986 47.5458 20 47.4565 20.0852C47.3713 20.1745 47.2698 20.2435 47.1521 20.2922C47.0345 20.3409 46.9107 20.3652 46.7808 20.3652H46.7261C46.6205 20.3652 46.4846 20.3591 46.3182 20.347C46.1559 20.3348 45.9794 20.3003 45.7887 20.2435C45.5979 20.1907 45.4032 20.1096 45.2043 20C45.0055 19.8945 44.8188 19.7443 44.6443 19.5496C44.409 19.7728 44.1472 19.9635 43.8591 20.1217C43.575 20.28 43.2727 20.4099 42.9521 20.5113C42.6316 20.6168 42.3008 20.6939 41.96 20.7426C41.6191 20.7913 41.2762 20.8157 40.9313 20.8157C40.7365 20.8157 40.5295 20.8035 40.3104 20.7791C40.0953 20.7588 39.8539 20.7203 39.5861 20.6635L40.1278 18.8496C40.3145 18.8739 40.491 18.8942 40.6574 18.9104C40.8278 18.9226 40.984 18.9287 41.1261 18.9287C41.2559 18.9287 41.3858 18.9226 41.5156 18.9104C41.6455 18.8983 41.7733 18.8759 41.8991 18.8435C41.7774 18.4052 41.6313 17.9751 41.4608 17.553C41.2904 17.127 41.1058 16.7171 40.9069 16.3235C40.7081 15.9299 40.5032 15.5545 40.2921 15.1974C40.0811 14.8403 39.8721 14.5096 39.6652 14.2052C39.4623 13.9009 39.2675 13.6249 39.0808 13.3774C38.8982 13.1258 38.7359 12.9107 38.5939 12.7322L39.9634 11.3139L41.6313 13.9983C41.8261 14.3513 42.0107 14.7104 42.1852 15.0757C42.3637 15.4409 42.5281 15.802 42.6782 16.1591C42.8324 16.5122 42.9684 16.8551 43.0861 17.1878C43.2078 17.5206 43.3092 17.829 43.3904 18.113C43.5487 17.9832 43.6866 17.8371 43.8043 17.6748C43.9261 17.5125 43.989 17.3461 43.993 17.1757C43.9484 16.5467 43.8936 15.9339 43.8287 15.3374C43.7637 14.7368 43.6947 14.1626 43.6217 13.6148C43.5527 13.067 43.4817 12.5496 43.4087 12.0626C43.3356 11.5757 43.2687 11.1293 43.2078 10.7235L45.0947 10.3704C45.0947 10.3786 45.1008 10.4496 45.113 10.5835C45.1292 10.7133 45.1495 10.8939 45.1739 11.1252C45.2023 11.3525 45.2327 11.6223 45.2652 11.9348C45.2976 12.2432 45.3321 12.578 45.3687 12.9391C45.4092 13.2962 45.4478 13.6716 45.4843 14.0652C45.5249 14.4548 45.5614 14.8484 45.5939 15.2461C45.6304 15.6397 45.6629 16.0293 45.6913 16.4148C45.7237 16.7962 45.7501 17.1574 45.7704 17.4983C45.7826 17.6809 45.8191 17.8452 45.88 17.9913C45.9449 18.1333 46.0118 18.2267 46.0808 18.2713ZM45.7641 19.4035C45.7641 19.2696 45.7884 19.1458 45.8371 19.0322C45.8858 18.9186 45.9528 18.8191 46.038 18.7339C46.1232 18.6487 46.2247 18.5817 46.3423 18.533C46.456 18.4803 46.5797 18.4499 46.7136 18.4417C46.9855 18.4417 47.2209 18.389 47.4197 18.2835C47.6226 18.178 47.8012 18.04 47.9554 17.8696C48.1096 17.6991 48.2476 17.5084 48.3693 17.2974C48.491 17.0864 48.6067 16.8754 48.7162 16.6643V16.6704C48.8218 16.4513 48.9333 16.2342 49.051 16.0191C49.1728 15.8041 49.3047 15.6052 49.4467 15.4226C49.6658 15.167 49.9113 14.9701 50.1832 14.8322C50.4551 14.6901 50.7452 14.6191 51.0536 14.6191C51.4189 14.6191 51.7496 14.6942 52.0458 14.8443C52.3461 14.9945 52.618 15.2096 52.8615 15.4896C53.0441 15.7087 53.1922 15.9603 53.3058 16.2443C53.4194 16.5243 53.4945 16.8226 53.531 17.1391V17.127C53.5554 17.2852 53.5676 17.4658 53.5676 17.6687C53.5676 17.8878 53.5473 18.1029 53.5067 18.3139C53.4702 18.5209 53.4174 18.7177 53.3484 18.9043C53.2145 19.2452 53.0218 19.5313 52.7702 19.7626C52.5226 19.9899 52.2528 20.1461 51.9606 20.2313C51.8632 20.2597 51.7658 20.278 51.6684 20.2861C51.5751 20.2983 51.4757 20.3043 51.3702 20.3043C51.1876 20.3043 50.9928 20.282 50.7858 20.2374C50.5829 20.1928 50.382 20.1319 50.1832 20.0548C50.102 20.0183 50.0107 19.9757 49.9093 19.927C49.8078 19.8742 49.7003 19.8174 49.5867 19.7565C49.4771 19.6957 49.3676 19.6328 49.258 19.5678C49.1484 19.5029 49.047 19.44 48.9536 19.3791C48.7913 19.5293 48.629 19.6652 48.4667 19.787C48.3044 19.9087 48.1339 20.0122 47.9554 20.0974C47.7768 20.1826 47.5861 20.2475 47.3832 20.2922C47.1803 20.3409 46.9591 20.3652 46.7197 20.3652C46.5858 20.3652 46.462 20.3388 46.3484 20.2861C46.2307 20.2374 46.1293 20.1704 46.0441 20.0852C45.9548 20 45.8858 19.8986 45.8371 19.7809C45.7884 19.6632 45.7641 19.5374 45.7641 19.4035ZM50.0797 17.8026C50.2055 17.8838 50.3536 17.9629 50.5241 18.04C50.6986 18.1171 50.871 18.1861 51.0415 18.247C51.2119 18.3078 51.3681 18.3586 51.5102 18.3991C51.6562 18.4357 51.7658 18.4539 51.8389 18.4539C51.8551 18.4539 51.8713 18.4539 51.8876 18.4539C51.9078 18.4499 51.9281 18.4458 51.9484 18.4417C51.9971 18.4296 52.0438 18.3687 52.0884 18.2591C52.1371 18.1455 52.1554 17.9913 52.1432 17.7965C52.1432 17.6667 52.1067 17.5246 52.0336 17.3704C51.9606 17.2122 51.8652 17.0661 51.7476 16.9322C51.6299 16.7942 51.4939 16.6806 51.3397 16.5913C51.1896 16.498 51.0354 16.4513 50.8771 16.4513C50.8203 16.4513 50.7473 16.5325 50.658 16.6948C50.5687 16.8571 50.4389 17.0986 50.2684 17.4191V17.413L50.0797 17.8026ZM54.4183 20.3835C54.4386 20.0507 54.4589 19.7058 54.4792 19.3487C54.4995 18.9916 54.5157 18.6386 54.5279 18.2896C54.5441 17.9406 54.5543 17.6017 54.5583 17.273C54.5624 16.9443 54.5583 16.642 54.5461 16.3661C54.5218 15.7899 54.4975 15.2846 54.4731 14.8504C54.4528 14.4122 54.4305 14.0246 54.4061 13.6878C54.3859 13.351 54.3635 13.0568 54.3392 12.8052C54.3189 12.5496 54.2966 12.3162 54.2722 12.1052C54.2479 11.8942 54.2215 11.6974 54.1931 11.5148C54.1647 11.3281 54.1343 11.1354 54.1018 10.9365L55.9827 10.3157C56.0719 10.8594 56.143 11.4072 56.1957 11.9591C56.2525 12.511 56.2951 13.0406 56.3235 13.5478C56.3519 14.051 56.3702 14.5197 56.3783 14.9539C56.3905 15.3881 56.3966 15.7594 56.3966 16.0678C56.3966 16.3478 56.3946 16.6501 56.3905 16.9748C56.3905 17.2994 56.3864 17.6362 56.3783 17.9852C56.3743 18.3342 56.3661 18.6872 56.354 19.0443C56.3418 19.4014 56.3235 19.7504 56.2992 20.0913L54.4183 20.3835ZM70.659 20.3652C70.2857 20.3652 69.9225 20.3064 69.5694 20.1887C69.5573 20.5174 69.5126 20.8522 69.4355 21.193C69.3584 21.5339 69.2468 21.8606 69.1007 22.173C68.9587 22.4896 68.7781 22.7817 68.559 23.0496C68.3439 23.3174 68.0903 23.5446 67.7981 23.7313C67.3842 23.9991 66.9297 24.202 66.4346 24.34C65.9436 24.478 65.3816 24.547 64.7486 24.547C64.0425 24.547 63.4358 24.4617 62.9286 24.2913C62.4254 24.1249 61.9871 23.8814 61.6138 23.5609C61.3865 23.358 61.1877 23.1328 61.0173 22.8852C60.8509 22.6417 60.7129 22.382 60.6033 22.1061C60.4938 21.8342 60.4106 21.5481 60.3538 21.2478C60.301 20.9516 60.2746 20.6493 60.2746 20.3409C60.2746 19.9919 60.299 19.6612 60.3477 19.3487C60.3964 19.0322 60.4715 18.7157 60.5729 18.3991C60.6744 18.0826 60.8001 17.758 60.9503 17.4252C61.1045 17.0925 61.2851 16.7333 61.492 16.3478L62.8616 17.3339C62.7439 17.5449 62.6303 17.7823 62.5207 18.0461C62.4112 18.3058 62.3138 18.5757 62.2286 18.8557C62.1474 19.1316 62.0804 19.4075 62.0277 19.6835C61.979 19.9594 61.9546 20.2171 61.9546 20.4565C61.9546 20.773 62.0317 21.0632 62.1859 21.327C62.3401 21.5907 62.543 21.8159 62.7946 22.0026C63.0503 22.1933 63.3404 22.3414 63.6651 22.447C63.9897 22.5565 64.3245 22.6133 64.6694 22.6174C65.1442 22.6255 65.5784 22.587 65.972 22.5017C66.3657 22.4206 66.7045 22.2887 66.9886 22.1061C67.2726 21.9235 67.4917 21.6881 67.6459 21.4C67.8042 21.1119 67.8833 20.7649 67.8833 20.3591C67.8833 20.1238 67.8488 19.8742 67.7799 19.6104C67.7109 19.3426 67.6196 19.0667 67.5059 18.7826C67.3964 18.4945 67.2665 18.2003 67.1164 17.9C66.9703 17.5957 66.8181 17.2852 66.6599 16.9687L68.3216 15.9157L68.9364 17.1026C69.1028 17.4394 69.263 17.6991 69.4173 17.8817C69.5755 18.0603 69.7277 18.1922 69.8738 18.2774C70.0199 18.3586 70.1578 18.4072 70.2877 18.4235C70.4216 18.4357 70.5454 18.4417 70.659 18.4417C70.7929 18.4417 70.9187 18.4661 71.0364 18.5148C71.1541 18.5635 71.2555 18.6325 71.3407 18.7217C71.43 18.807 71.499 18.9084 71.5477 19.0261C71.6004 19.1438 71.6268 19.2696 71.6268 19.4035C71.6268 19.5374 71.6004 19.6632 71.5477 19.7809C71.499 19.8986 71.43 20 71.3407 20.0852C71.2555 20.1704 71.1541 20.2374 71.0364 20.2861C70.9187 20.3388 70.7929 20.3652 70.659 20.3652ZM64.852 14.4913L66.2033 15.8426L64.852 17.1939L63.5007 15.8426L64.852 14.4913ZM75.3202 22.3678L74.1515 23.5426L72.995 22.3861L71.8506 23.5304L70.6698 22.3557L71.8385 21.1809L72.995 22.3374L74.1393 21.193L75.3202 22.3678ZM69.4341 19.4035C69.4341 19.2696 69.4605 19.1438 69.5132 19.0261C69.5619 18.9084 69.6289 18.807 69.7141 18.7217C69.7993 18.6325 69.9008 18.5635 70.0185 18.5148C70.1361 18.4661 70.2619 18.4417 70.3958 18.4417H71.0715H71.3637C71.5463 18.4417 71.7472 18.4336 71.9663 18.4174C72.1854 18.4012 72.3964 18.3748 72.5993 18.3383C72.8022 18.3017 72.9848 18.253 73.1472 18.1922C73.3135 18.1272 73.4353 18.0461 73.5124 17.9487C73.557 17.8797 73.5793 17.7864 73.5793 17.6687C73.5793 17.4942 73.5367 17.2872 73.4515 17.0478C73.3703 16.8084 73.2729 16.5649 73.1593 16.3174C73.0457 16.0699 72.928 15.8325 72.8063 15.6052C72.6886 15.378 72.5932 15.1893 72.5202 15.0391L74.255 14.187C74.3808 14.4061 74.5025 14.6658 74.6202 14.9661C74.7379 15.2623 74.8434 15.5687 74.9367 15.8852C75.0301 16.1977 75.1051 16.5061 75.1619 16.8104C75.2187 17.1107 75.2472 17.3725 75.2472 17.5957C75.2472 18.0055 75.1741 18.3809 75.028 18.7217C74.8576 19.1032 74.6243 19.4197 74.328 19.6713C74.0318 19.9188 73.6767 20.1014 73.2628 20.2191C73.1411 20.2516 72.9889 20.278 72.8063 20.2983C72.6237 20.3186 72.439 20.3328 72.2524 20.3409C72.0657 20.353 71.8892 20.3591 71.7228 20.3591C71.5564 20.3632 71.4266 20.3652 71.3332 20.3652H70.4506H70.3958C70.2619 20.3652 70.1361 20.3409 70.0185 20.2922C69.9008 20.2435 69.7993 20.1745 69.7141 20.0852C69.6289 20 69.5619 19.8986 69.5132 19.7809C69.4605 19.6632 69.4341 19.5374 69.4341 19.4035ZM79.6217 15.9035C79.776 16.3417 79.9099 16.7699 80.0235 17.1878C80.0722 17.3704 80.1209 17.5612 80.1696 17.76C80.2183 17.9548 80.2609 18.1516 80.2974 18.3504C80.338 18.5452 80.3704 18.738 80.3948 18.9287C80.4191 19.1154 80.4313 19.2899 80.4313 19.4522C80.4313 19.8336 80.3786 20.2049 80.2731 20.5661C80.1716 20.9313 80.0255 21.2843 79.8348 21.6252C79.6481 21.9661 79.4249 22.2928 79.1652 22.6052C78.9055 22.9217 78.6174 23.218 78.3009 23.4939C77.9844 23.7699 77.6455 24.0255 77.2844 24.2609C76.9232 24.5003 76.5499 24.7154 76.1644 24.9061L75.0565 23.3661C75.3487 23.22 75.6449 23.0536 75.9452 22.867C76.2415 22.6843 76.5255 22.4875 76.7974 22.2765C77.0733 22.0655 77.329 21.8443 77.5644 21.613C77.8038 21.3817 78.0107 21.1464 78.1852 20.907C78.3638 20.6675 78.5038 20.4241 78.6052 20.1765C78.7067 19.933 78.7574 19.6936 78.7574 19.4583C78.7574 19.2878 78.7331 19.1032 78.6844 18.9043C78.6397 18.7055 78.5768 18.4925 78.4957 18.2652C78.4186 18.0339 78.3252 17.7904 78.2157 17.5348C78.1061 17.2751 77.9884 16.9991 77.8626 16.707L79.6217 15.9035ZM83.697 16.4087C83.6118 16.3925 83.5144 16.4229 83.4048 16.5C83.2993 16.573 83.1979 16.6745 83.1005 16.8043C83.0071 16.9301 82.928 17.0701 82.8631 17.2243C82.8022 17.3786 82.7718 17.5267 82.7718 17.6687C82.7718 17.8026 82.8103 17.9142 82.8874 18.0035C82.9645 18.0928 83.0619 18.1658 83.1796 18.2226C83.3013 18.2794 83.4332 18.322 83.5752 18.3504C83.7213 18.3788 83.8613 18.3991 83.9952 18.4113H83.9892C84.0947 18.4194 84.2144 18.4255 84.3483 18.4296C84.4863 18.4296 84.6202 18.4296 84.75 18.4296C84.7906 18.4296 84.821 18.4316 84.8413 18.4357C84.8657 18.4357 84.886 18.4357 84.9022 18.4357C84.9184 18.4357 84.9347 18.4357 84.9509 18.4357C84.9712 18.4357 84.9996 18.4336 85.0361 18.4296C84.9752 18.178 84.9022 17.9386 84.817 17.7113C84.7358 17.48 84.6405 17.273 84.5309 17.0904C84.4213 16.9078 84.2976 16.7577 84.1596 16.64C84.0216 16.5183 83.8674 16.4412 83.697 16.4087ZM80.7144 22.7817C81.2866 22.6681 81.808 22.5241 82.2787 22.3496C82.7495 22.1791 83.1613 21.9864 83.5144 21.7713C83.8715 21.5603 84.1657 21.3351 84.397 21.0957C84.6324 20.8562 84.7987 20.6128 84.8961 20.3652C84.7216 20.3652 84.537 20.3612 84.3422 20.353C84.1474 20.349 83.9871 20.3429 83.8613 20.3348C83.3906 20.2942 82.9605 20.1887 82.5709 20.0183C82.1813 19.8519 81.8709 19.6246 81.6396 19.3365C81.4692 19.1174 81.3474 18.88 81.2744 18.6243C81.2054 18.3687 81.1709 18.0988 81.1709 17.8148C81.1709 17.5957 81.1912 17.3765 81.2318 17.1574C81.2724 16.9342 81.3292 16.7191 81.4022 16.5122C81.4752 16.3012 81.5605 16.1023 81.6579 15.9157C81.7593 15.729 81.8668 15.5586 81.9805 15.4043C82.2239 15.1 82.4897 14.8707 82.7779 14.7165C83.07 14.5583 83.3764 14.4791 83.697 14.4791C84.3828 14.4791 85.0016 14.7794 85.5535 15.38C85.7483 15.5991 85.9228 15.8446 86.077 16.1165C86.2312 16.3884 86.361 16.6786 86.4666 16.987C86.5761 17.2913 86.6593 17.6119 86.7161 17.9487C86.7729 18.2814 86.8013 18.6203 86.8013 18.9652C86.8013 19.0707 86.7973 19.1762 86.7892 19.2817C86.7851 19.3872 86.779 19.4867 86.7709 19.58C86.7222 20.0548 86.6147 20.4991 86.4483 20.913C86.286 21.331 86.075 21.7145 85.8152 22.0635C85.5596 22.4165 85.2613 22.7351 84.9205 23.0191C84.5796 23.3072 84.2083 23.5588 83.8066 23.7739C83.4089 23.993 82.9868 24.1757 82.5405 24.3217C82.0941 24.4678 81.6355 24.5774 81.1648 24.6504L80.7144 22.7817ZM90.7528 20.3652C90.2537 20.3652 89.8256 20.3023 89.4685 20.1765C89.1114 20.0548 88.803 19.8661 88.5433 19.6104C88.3809 19.4481 88.2551 19.2777 88.1659 19.0991C88.0806 18.9206 88.0177 18.7461 87.9772 18.5757C87.9406 18.4012 87.9183 18.2368 87.9102 18.0826C87.9062 17.9284 87.9041 17.7965 87.9041 17.687V17.5957C87.9082 17.4455 87.9122 17.2304 87.9163 16.9504C87.9244 16.6664 87.9285 16.3336 87.9285 15.9522C87.9285 15.5707 87.9264 15.1507 87.9224 14.6922C87.9183 14.2336 87.9062 13.7771 87.8859 13.3226C87.8696 12.8641 87.8433 12.4238 87.8067 12.0017C87.7743 11.5797 87.7276 11.2125 87.6667 10.9L89.4867 10.3461C89.5395 10.6139 89.5821 10.9304 89.6146 11.2957C89.647 11.6568 89.6734 12.0362 89.6937 12.4339C89.718 12.8316 89.7343 13.2313 89.7424 13.633C89.7546 14.0348 89.7627 14.4081 89.7667 14.753C89.7708 15.0574 89.7586 15.3557 89.7302 15.6478C89.7059 15.9359 89.6856 16.22 89.6693 16.5C89.6531 16.7759 89.6531 17.0458 89.6693 17.3096C89.6896 17.5693 89.7464 17.8229 89.8398 18.0704C89.8763 18.1638 89.9209 18.2348 89.9737 18.2835C90.0305 18.3322 90.0954 18.3687 90.1685 18.393C90.2415 18.4133 90.3206 18.4255 90.4059 18.4296C90.4951 18.4336 90.5925 18.4357 90.698 18.4357H90.7528C90.8827 18.4357 91.0064 18.462 91.1241 18.5148C91.2418 18.5675 91.3433 18.6386 91.4285 18.7278C91.5177 18.813 91.5888 18.9145 91.6415 19.0322C91.6943 19.1499 91.7206 19.2736 91.7206 19.4035C91.7206 19.5374 91.6943 19.6632 91.6415 19.7809C91.5888 19.8986 91.5177 20 91.4285 20.0852C91.3433 20.1745 91.2418 20.2435 91.1241 20.2922C91.0064 20.3409 90.8827 20.3652 90.7528 20.3652ZM89.7632 19.4035C89.7632 19.2777 89.7895 19.158 89.8423 19.0443C89.895 18.9307 89.9681 18.8313 90.0614 18.7461C90.1507 18.6568 90.2582 18.5858 90.384 18.533C90.5058 18.4803 90.6377 18.4499 90.7797 18.4417C90.9948 18.4417 91.1956 18.4072 91.3823 18.3383C91.569 18.2652 91.7455 18.1272 91.9119 17.9243C92.0782 17.7214 92.2345 17.4354 92.3806 17.0661C92.5266 16.6968 92.6666 16.2139 92.8006 15.6174L94.4197 15.8487C94.4319 15.8 94.4237 15.8264 94.3953 15.9278C94.371 16.0293 94.3406 16.1733 94.304 16.36C94.2716 16.5426 94.2391 16.7496 94.2066 16.9809C94.1782 17.2081 94.164 17.4272 94.164 17.6383C94.1681 17.8452 94.1924 18.0258 94.2371 18.18C94.2858 18.3301 94.369 18.4194 94.4866 18.4478C94.6124 18.4803 94.7342 18.4559 94.8519 18.3748C94.9695 18.2896 95.0811 18.1699 95.1866 18.0157C95.2921 17.8574 95.3895 17.6748 95.4788 17.4678C95.5681 17.2568 95.6493 17.0417 95.7223 16.8226C95.7953 16.6035 95.8582 16.3884 95.911 16.1774C95.9637 15.9664 96.0043 15.7797 96.0327 15.6174L97.6397 15.8487C97.6316 15.9501 97.6174 16.0861 97.5971 16.2565C97.5768 16.4229 97.5606 16.6014 97.5484 16.7922C97.5362 16.9829 97.5301 17.1757 97.5301 17.3704C97.5342 17.5612 97.5565 17.7357 97.5971 17.8939C97.6377 18.0481 97.7006 18.1759 97.7858 18.2774C97.871 18.3748 97.9887 18.4235 98.1388 18.4235C98.2727 18.4235 98.3884 18.3788 98.4858 18.2896C98.5832 18.2003 98.6643 18.0846 98.7293 17.9426C98.7982 17.7965 98.853 17.6322 98.8936 17.4496C98.9342 17.2629 98.9646 17.0742 98.9849 16.8835C99.0052 16.6928 99.0153 16.5081 99.0153 16.3296C99.0153 16.147 99.0093 15.9867 98.9971 15.8487L100.641 15.6174L100.841 17.3339C100.866 17.5206 100.919 17.6829 101 17.8209C101.081 17.9588 101.176 18.0745 101.286 18.1678C101.395 18.2571 101.511 18.3261 101.633 18.3748C101.754 18.4194 101.87 18.4417 101.98 18.4417H102.053C102.203 18.4417 102.339 18.4661 102.461 18.5148C102.586 18.5635 102.694 18.6325 102.783 18.7217C102.872 18.807 102.941 18.9084 102.99 19.0261C103.039 19.1438 103.063 19.2696 103.063 19.4035C103.063 19.5374 103.039 19.6632 102.99 19.7809C102.941 19.8986 102.87 20 102.777 20.0852C102.688 20.1704 102.574 20.2374 102.436 20.2861C102.302 20.3388 102.15 20.3652 101.98 20.3652C101.586 20.3652 101.215 20.2962 100.866 20.1583C100.517 20.0203 100.214 19.787 99.9588 19.4583C99.9345 19.4907 99.9101 19.5191 99.8858 19.5435C99.8614 19.5678 99.8391 19.5922 99.8188 19.6165V19.6104C99.5997 19.8417 99.3461 20.0243 99.0579 20.1583C98.7739 20.2962 98.4675 20.3652 98.1388 20.3652C97.7695 20.3652 97.4287 20.2861 97.1162 20.1278C96.8078 19.9696 96.5501 19.7545 96.3432 19.4826C96.0997 19.7504 95.8237 19.9675 95.5153 20.1339C95.2069 20.3003 94.8681 20.3835 94.4988 20.3835C94.1539 20.3835 93.8333 20.3064 93.5371 20.1522C93.2408 19.998 92.9953 19.787 92.8006 19.5191C92.5814 19.8235 92.3095 20.0406 91.9849 20.1704C91.6643 20.3003 91.2666 20.3652 90.7919 20.3652C90.6377 20.3652 90.4977 20.3388 90.3719 20.2861C90.2461 20.2374 90.1385 20.1704 90.0493 20.0852C89.96 20 89.891 19.8986 89.8423 19.7809C89.7895 19.6632 89.7632 19.5374 89.7632 19.4035ZM99.1797 13.14L98.011 14.3148L96.8545 13.1583L95.7101 14.3026L94.5293 13.1278L95.6979 11.953L96.8545 13.1096L97.9988 11.9652L99.1797 13.14ZM95.771 11.3748L96.8545 10.2913L97.944 11.3809L96.8606 12.4643L95.771 11.3748ZM101.204 19.4035C101.204 19.2696 101.228 19.1458 101.277 19.0322C101.325 18.9186 101.392 18.8191 101.477 18.7339C101.563 18.6487 101.664 18.5817 101.782 18.533C101.895 18.4803 102.019 18.4499 102.153 18.4417C102.425 18.4417 102.66 18.389 102.859 18.2835C103.062 18.178 103.241 18.04 103.395 17.8696C103.549 17.6991 103.687 17.5084 103.809 17.2974C103.93 17.0864 104.046 16.8754 104.156 16.6643V16.6704C104.261 16.4513 104.373 16.2342 104.49 16.0191C104.612 15.8041 104.744 15.6052 104.886 15.4226C105.105 15.167 105.351 14.9701 105.623 14.8322C105.895 14.6901 106.185 14.6191 106.493 14.6191C106.858 14.6191 107.189 14.6942 107.485 14.8443C107.786 14.9945 108.057 15.2096 108.301 15.4896C108.484 15.7087 108.632 15.9603 108.745 16.2443C108.859 16.5243 108.934 16.8226 108.97 17.1391V17.127C108.995 17.2852 109.007 17.4658 109.007 17.6687C109.007 17.8878 108.987 18.1029 108.946 18.3139C108.91 18.5209 108.857 18.7177 108.788 18.9043C108.654 19.2452 108.461 19.5313 108.21 19.7626C107.962 19.9899 107.692 20.1461 107.4 20.2313C107.303 20.2597 107.205 20.278 107.108 20.2861C107.015 20.2983 106.915 20.3043 106.81 20.3043C106.627 20.3043 106.432 20.282 106.225 20.2374C106.022 20.1928 105.821 20.1319 105.623 20.0548C105.541 20.0183 105.45 19.9757 105.349 19.927C105.247 19.8742 105.14 19.8174 105.026 19.7565C104.917 19.6957 104.807 19.6328 104.697 19.5678C104.588 19.5029 104.486 19.44 104.393 19.3791C104.231 19.5293 104.068 19.6652 103.906 19.787C103.744 19.9087 103.573 20.0122 103.395 20.0974C103.216 20.1826 103.026 20.2475 102.823 20.2922C102.62 20.3409 102.399 20.3652 102.159 20.3652C102.025 20.3652 101.901 20.3388 101.788 20.2861C101.67 20.2374 101.569 20.1704 101.484 20.0852C101.394 20 101.325 19.8986 101.277 19.7809C101.228 19.6632 101.204 19.5374 101.204 19.4035ZM105.519 17.8026C105.645 17.8838 105.793 17.9629 105.964 18.04C106.138 18.1171 106.31 18.1861 106.481 18.247C106.651 18.3078 106.808 18.3586 106.95 18.3991C107.096 18.4357 107.205 18.4539 107.278 18.4539C107.295 18.4539 107.311 18.4539 107.327 18.4539C107.347 18.4499 107.368 18.4458 107.388 18.4417C107.437 18.4296 107.483 18.3687 107.528 18.2591C107.577 18.1455 107.595 17.9913 107.583 17.7965C107.583 17.6667 107.546 17.5246 107.473 17.3704C107.4 17.2122 107.305 17.0661 107.187 16.9322C107.069 16.7942 106.933 16.6806 106.779 16.5913C106.629 16.498 106.475 16.4513 106.317 16.4513C106.26 16.4513 106.187 16.5325 106.097 16.6948C106.008 16.8571 105.878 17.0986 105.708 17.4191V17.413L105.519 17.8026ZM126.361 20.3652C125.692 20.3652 125.124 20.2557 124.657 20.0365C124.194 19.8174 123.817 19.4522 123.525 18.9409C122.949 19.4319 122.251 19.7951 121.431 20.0304C120.615 20.2658 119.662 20.3835 118.57 20.3835C117.925 20.3794 117.312 20.3368 116.732 20.2557C116.156 20.1786 115.63 20.0609 115.155 19.9026C114.68 19.7403 114.264 19.5394 113.907 19.3C113.55 19.0565 113.27 18.7704 113.067 18.4417C112.942 18.2267 112.85 17.9791 112.793 17.6991C112.737 17.4151 112.718 17.1087 112.739 16.78C112.759 16.4472 112.822 16.0962 112.927 15.727C113.037 15.3536 113.193 14.9681 113.396 14.5704L114.845 15.4104C114.764 15.5687 114.689 15.7229 114.62 15.873C114.551 16.0232 114.498 16.1794 114.461 16.3417C114.425 16.5041 114.407 16.6786 114.407 16.8652C114.411 17.0478 114.443 17.2507 114.504 17.4739C114.605 17.6484 114.786 17.7965 115.046 17.9183C115.309 18.04 115.626 18.1394 115.995 18.2165C116.364 18.2936 116.77 18.3504 117.213 18.387C117.655 18.4235 118.107 18.4417 118.57 18.4417C118.996 18.4417 119.4 18.4275 119.781 18.3991C120.163 18.3667 120.514 18.318 120.834 18.253C121.159 18.1841 121.451 18.0968 121.711 17.9913C121.975 17.8817 122.2 17.7499 122.387 17.5957C122.557 17.4577 122.697 17.3055 122.807 17.1391C122.916 16.9728 123.009 16.7983 123.087 16.6157C123.164 16.429 123.227 16.2342 123.275 16.0313C123.328 15.8284 123.379 15.6235 123.427 15.4165L125.132 15.8487L124.882 17.1391C124.846 17.3258 124.854 17.4983 124.907 17.6565C124.963 17.8148 125.059 17.9528 125.193 18.0704C125.327 18.1841 125.497 18.2754 125.704 18.3443C125.911 18.4093 126.146 18.4417 126.41 18.4417C126.544 18.4417 126.67 18.4661 126.787 18.5148C126.905 18.5635 127.007 18.6325 127.092 18.7217C127.181 18.807 127.25 18.9084 127.299 19.0261C127.351 19.1438 127.378 19.2696 127.378 19.4035C127.378 19.5374 127.351 19.6632 127.299 19.7809C127.25 19.8986 127.181 20 127.092 20.0852C127.007 20.1745 126.905 20.2435 126.787 20.2922C126.67 20.3409 126.544 20.3652 126.41 20.3652H126.361ZM121.376 14.0104L120.207 15.1852L119.051 14.0287L117.907 15.173L116.726 13.9983L117.894 12.8235L119.051 13.98L120.195 12.8357L121.376 14.0104ZM125.418 19.4035C125.418 19.2777 125.444 19.158 125.497 19.0443C125.55 18.9307 125.623 18.8313 125.716 18.7461C125.805 18.6568 125.913 18.5858 126.039 18.533C126.16 18.4803 126.292 18.4499 126.434 18.4417C126.649 18.4417 126.85 18.4072 127.037 18.3383C127.224 18.2652 127.4 18.1272 127.567 17.9243C127.733 17.7214 127.889 17.4354 128.035 17.0661C128.181 16.6968 128.321 16.2139 128.455 15.6174L130.074 15.8487C130.087 15.8 130.078 15.8264 130.05 15.9278C130.026 16.0293 129.995 16.1733 129.959 16.36C129.926 16.5426 129.894 16.7496 129.861 16.9809C129.833 17.2081 129.819 17.4272 129.819 17.6383C129.823 17.8452 129.847 18.0258 129.892 18.18C129.94 18.3301 130.024 18.4194 130.141 18.4478C130.267 18.4803 130.389 18.4559 130.507 18.3748C130.624 18.2896 130.736 18.1699 130.841 18.0157C130.947 17.8574 131.044 17.6748 131.133 17.4678C131.223 17.2568 131.304 17.0417 131.377 16.8226C131.45 16.6035 131.513 16.3884 131.566 16.1774C131.618 15.9664 131.659 15.7797 131.687 15.6174L133.294 15.8487C133.286 15.9501 133.272 16.0861 133.252 16.2565C133.231 16.4229 133.215 16.6014 133.203 16.7922C133.191 16.9829 133.185 17.1757 133.185 17.3704C133.189 17.5612 133.211 17.7357 133.252 17.8939C133.292 18.0481 133.355 18.1759 133.44 18.2774C133.526 18.3748 133.643 18.4235 133.793 18.4235C133.927 18.4235 134.043 18.3788 134.14 18.2896C134.238 18.2003 134.319 18.0846 134.384 17.9426C134.453 17.7965 134.508 17.6322 134.548 17.4496C134.589 17.2629 134.619 17.0742 134.64 16.8835C134.66 16.6928 134.67 16.5081 134.67 16.3296C134.67 16.147 134.664 15.9867 134.652 15.8487L136.295 15.6174L136.496 17.3339C136.52 17.5206 136.573 17.6829 136.654 17.8209C136.736 17.9588 136.831 18.0745 136.94 18.1678C137.05 18.2571 137.166 18.3261 137.287 18.3748C137.409 18.4194 137.525 18.4417 137.634 18.4417H137.707C137.858 18.4417 137.993 18.4661 138.115 18.5148C138.241 18.5635 138.349 18.6325 138.438 18.7217C138.527 18.807 138.596 18.9084 138.645 19.0261C138.693 19.1438 138.718 19.2696 138.718 19.4035C138.718 19.5374 138.693 19.6632 138.645 19.7809C138.596 19.8986 138.525 20 138.432 20.0852C138.342 20.1704 138.229 20.2374 138.091 20.2861C137.957 20.3388 137.805 20.3652 137.634 20.3652C137.241 20.3652 136.869 20.2962 136.52 20.1583C136.171 20.0203 135.869 19.787 135.613 19.4583C135.589 19.4907 135.565 19.5191 135.54 19.5435C135.516 19.5678 135.494 19.5922 135.473 19.6165V19.6104C135.254 19.8417 135.001 20.0243 134.713 20.1583C134.429 20.2962 134.122 20.3652 133.793 20.3652C133.424 20.3652 133.083 20.2861 132.771 20.1278C132.462 19.9696 132.205 19.7545 131.998 19.4826C131.754 19.7504 131.478 19.9675 131.17 20.1339C130.862 20.3003 130.523 20.3835 130.153 20.3835C129.809 20.3835 129.488 20.3064 129.192 20.1522C128.896 19.998 128.65 19.787 128.455 19.5191C128.236 19.8235 127.964 20.0406 127.64 20.1704C127.319 20.3003 126.921 20.3652 126.447 20.3652C126.292 20.3652 126.152 20.3388 126.027 20.2861C125.901 20.2374 125.793 20.1704 125.704 20.0852C125.615 20 125.546 19.8986 125.497 19.7809C125.444 19.6632 125.418 19.5374 125.418 19.4035ZM136.702 19.4035C136.702 19.2696 136.726 19.1438 136.775 19.0261C136.823 18.9084 136.892 18.807 136.982 18.7217C137.067 18.6325 137.168 18.5635 137.286 18.5148C137.404 18.4661 137.53 18.4417 137.663 18.4417H138.126C138.418 18.4417 138.698 18.4296 138.966 18.4052C139.238 18.3809 139.477 18.3301 139.684 18.253C139.891 18.1719 140.058 18.0603 140.183 17.9183C140.313 17.7722 140.382 17.5794 140.39 17.34C140.394 17.2507 140.394 17.1777 140.39 17.1209C140.39 17.06 140.38 16.989 140.36 16.9078C140.34 16.8226 140.309 16.713 140.269 16.5791C140.232 16.4412 140.179 16.2484 140.11 16.0009L141.882 15.5017C141.959 15.6965 142.03 15.9542 142.095 16.2748C142.16 16.5954 142.208 16.9464 142.241 17.3278C142.249 17.4496 142.263 17.5754 142.283 17.7052C142.304 17.8351 142.336 17.9548 142.381 18.0643C142.43 18.1739 142.494 18.2652 142.576 18.3383C142.657 18.4072 142.762 18.4417 142.892 18.4417C143.026 18.4417 143.152 18.4661 143.27 18.5148C143.387 18.5635 143.489 18.6325 143.574 18.7217C143.663 18.807 143.732 18.9084 143.781 19.0261C143.834 19.1438 143.86 19.2696 143.86 19.4035C143.86 19.5374 143.834 19.6632 143.781 19.7809C143.732 19.8986 143.663 20 143.574 20.0852C143.485 20.1745 143.381 20.2435 143.263 20.2922C143.15 20.3409 143.028 20.3652 142.898 20.3652C142.509 20.3652 142.174 20.3043 141.894 20.1826C141.618 20.0649 141.381 19.9107 141.182 19.72C140.999 19.8417 140.788 19.9432 140.549 20.0243C140.313 20.1055 140.062 20.1704 139.794 20.2191C139.526 20.2719 139.25 20.3084 138.966 20.3287C138.682 20.353 138.402 20.3652 138.126 20.3652H137.663C137.53 20.3652 137.404 20.3409 137.286 20.2922C137.168 20.2435 137.067 20.1745 136.982 20.0852C136.892 20 136.823 19.8986 136.775 19.7809C136.726 19.6632 136.702 19.5374 136.702 19.4035ZM142.527 22.5504L141.358 23.7252L140.202 22.5687L139.057 23.713L137.876 22.5383L139.045 21.3635L140.202 22.52L141.346 21.3757L142.527 22.5504ZM141.981 19.4035C141.981 19.2696 142.007 19.1438 142.06 19.0261C142.108 18.9084 142.175 18.807 142.261 18.7217C142.346 18.6325 142.447 18.5635 142.565 18.5148C142.683 18.4661 142.808 18.4417 142.942 18.4417H142.997H143.283C143.466 18.4417 143.628 18.4255 143.77 18.393C143.916 18.3606 144.018 18.3159 144.075 18.2591V18.2652C144.144 18.1881 144.196 18.0684 144.233 17.9061C144.273 17.7438 144.292 17.5287 144.288 17.2609C144.288 17.2284 144.282 17.1107 144.269 16.9078C144.257 16.7009 144.241 16.4432 144.221 16.1348C144.204 15.8223 144.182 15.4754 144.154 15.0939C144.129 14.7084 144.103 14.3188 144.075 13.9252C144.05 13.5316 144.026 13.1481 144.002 12.7748C143.977 12.4014 143.953 12.0728 143.928 11.7887C143.908 11.5046 143.89 11.2794 143.874 11.113C143.862 10.9426 143.853 10.8655 143.849 10.8817L145.779 10.407C145.783 10.4719 145.795 10.6241 145.815 10.8635C145.836 11.0988 145.86 11.391 145.888 11.74C145.917 12.089 145.945 12.4786 145.974 12.9087C146.002 13.3388 146.026 13.7771 146.047 14.2235L146.144 17.2365C146.148 17.407 146.144 17.5936 146.132 17.7965C146.12 17.9994 146.087 18.2064 146.035 18.4174C145.982 18.6243 145.903 18.8313 145.797 19.0383C145.696 19.2452 145.558 19.438 145.383 19.6165C144.884 20.1157 144.184 20.3652 143.283 20.3652H142.997H142.942C142.808 20.3652 142.683 20.3388 142.565 20.2861C142.447 20.2374 142.346 20.1704 142.261 20.0852C142.175 20 142.108 19.8986 142.06 19.7809C142.007 19.6632 141.981 19.5374 141.981 19.4035Z" fill="#636363"/>
<circle cx="175" cy="17" r="10" fill="#00BD61"/>
<path fill-rule="evenodd" clip-rule="evenodd" d="M178.91 12.7144L180.714 14.4289L173.496 21.2858H173.492L169.285 17.2884L171.091 15.575L173.494 17.8591L178.91 12.7144Z" fill="white"/>
<defs>
<filter id="filter0_b_2611_62649" x="-6" y="-6" width="222.834" height="45" filterUnits="userSpaceOnUse" color-interpolation-filters="sRGB">
<feFlood flood-opacity="0" result="BackgroundImageFix"/>
<feGaussianBlur in="BackgroundImageFix" stdDeviation="3"/>
<feComposite in2="SourceAlpha" operator="in" result="effect1_backgroundBlur_2611_62649"/>
<feBlend mode="normal" in="SourceGraphic" in2="effect1_backgroundBlur_2611_62649" result="shape"/>
</filter>
<linearGradient id="paint0_linear_2611_62649" x1="68.6704" y1="-29.4858" x2="68.6704" y2="80.932" gradientUnits="userSpaceOnUse">
<stop stop-color="#36D859"/>
<stop offset="1" stop-color="#4C8CED"/>
</linearGradient>
</defs>
</svg>
