<svg width="211" height="33" viewBox="0 0 211 33" fill="none" xmlns="http://www.w3.org/2000/svg">
<g filter="url(#filter0_b_4261_44152)">
<mask id="path-1-inside-1_4261_44152" fill="white">
<path fill-rule="evenodd" clip-rule="evenodd" d="M10 0C4.47715 0 0 4.47715 0 10V23C0 28.5228 4.47715 33 10 33H191C196.523 33 201 28.5228 201 23C201 22.7026 201.124 22.4187 201.342 22.2165L210.189 14.0074C211.533 12.7605 210.631 10.5132 208.798 10.5416L201.662 10.652C201.298 10.6577 201 10.3641 201 10C201 4.47715 196.523 0 191 0H10Z"/>
</mask>
<path fill-rule="evenodd" clip-rule="evenodd" d="M10 0C4.47715 0 0 4.47715 0 10V23C0 28.5228 4.47715 33 10 33H191C196.523 33 201 28.5228 201 23C201 22.7026 201.124 22.4187 201.342 22.2165L210.189 14.0074C211.533 12.7605 210.631 10.5132 208.798 10.5416L201.662 10.652C201.298 10.6577 201 10.3641 201 10C201 4.47715 196.523 0 191 0H10Z" fill="white"/>
<path d="M210.189 14.0074L209.509 13.2744V13.2744L210.189 14.0074ZM208.798 10.5416L208.782 9.54168L208.798 10.5416ZM201.342 22.2165L200.662 21.4834L201.342 22.2165ZM1 10C1 5.02944 5.02944 1 10 1V-1C3.92487 -1 -1 3.92487 -1 10H1ZM1 23V10H-1V23H1ZM10 32C5.02943 32 1 27.9706 1 23H-1C-1 29.0751 3.92486 34 10 34V32ZM191 32H10V34H191V32ZM200 23C200 27.9706 195.971 32 191 32V34C197.075 34 202 29.0751 202 23H200ZM209.509 13.2744L200.662 21.4834L202.022 22.9495L210.869 14.7405L209.509 13.2744ZM208.813 11.5414C209.73 11.5272 210.181 12.6509 209.509 13.2744L210.869 14.7405C212.885 12.8701 211.532 9.4991 208.782 9.54168L208.813 11.5414ZM201.678 11.6519L208.813 11.5414L208.782 9.54168L201.647 9.65217L201.678 11.6519ZM191 1C195.971 1 200 5.02944 200 10H202C202 3.92487 197.075 -1 191 -1V1ZM10 1H191V-1H10V1ZM201.647 9.65217C201.841 9.64916 202 9.80577 202 10H200C200 10.9224 200.755 11.6662 201.678 11.6519L201.647 9.65217ZM202 23C202 22.9808 202.008 22.9626 202.022 22.9495L200.662 21.4834C200.24 21.8749 200 22.4244 200 23H202Z" fill="url(#paint0_linear_4261_44152)" mask="url(#path-1-inside-1_4261_44152)"/>
</g>
<path d="M27.1625 18.4113C27.2599 18.4154 27.3573 18.4194 27.4547 18.4235C27.5562 18.4235 27.6515 18.4235 27.7408 18.4235C28.0614 18.4235 28.3678 18.4113 28.6599 18.387C28.9521 18.3626 29.222 18.3301 29.4695 18.2896C29.717 18.249 29.9341 18.2064 30.1208 18.1617C30.3115 18.113 30.4637 18.0664 30.5773 18.0217H30.5712C30.7823 17.9325 30.9365 17.8533 31.0339 17.7843C31.1312 17.7154 31.1962 17.6626 31.2286 17.6261C31.2895 17.5571 31.3321 17.4861 31.3565 17.413C31.3849 17.3359 31.3991 17.2568 31.3991 17.1757C31.3991 17.0012 31.3321 16.8145 31.1982 16.6157C31.0643 16.4128 30.8918 16.2078 30.6808 16.0009C30.4739 15.7939 30.2425 15.587 29.9869 15.38C29.7353 15.173 29.4898 14.9742 29.2504 14.7835L27.9782 13.7365L28.1791 11.9348L33.6695 9.54261L34.4243 11.3322L30.133 13.1643C30.3602 13.3551 30.5895 13.5519 30.8208 13.7548C31.0562 13.9577 31.2814 14.1667 31.4965 14.3817C31.7115 14.5928 31.9124 14.8099 32.0991 15.033C32.2898 15.2522 32.4541 15.4774 32.5921 15.7087C32.7341 15.9359 32.8457 16.1672 32.9269 16.4026C33.0081 16.638 33.0486 16.8774 33.0486 17.1209C33.0486 17.3887 33.002 17.6606 32.9086 17.9365C32.8194 18.2125 32.6712 18.4965 32.4643 18.7887H32.4704C32.446 18.8252 32.4034 18.878 32.3425 18.947C32.2857 19.0159 32.2066 19.093 32.1052 19.1783C32.0078 19.2635 31.886 19.3548 31.7399 19.4522C31.5939 19.5455 31.4214 19.6388 31.2225 19.7322C30.6625 19.9797 30.0985 20.1461 29.5304 20.2313C28.9623 20.3165 28.384 20.3591 27.7956 20.3591H27.6678C27.5825 20.3591 27.4953 20.3591 27.406 20.3591C27.3168 20.3591 27.2295 20.3551 27.1443 20.347C26.3854 20.3388 25.7057 20.2901 25.1052 20.2009C24.5046 20.1157 23.977 19.9878 23.5225 19.8174C22.6014 19.4603 21.9683 18.9368 21.6234 18.247V18.253C21.4286 17.8757 21.3312 17.4577 21.3312 16.9991C21.3312 16.8003 21.3556 16.5852 21.4043 16.3539C21.453 16.1226 21.5159 15.8974 21.593 15.6783C21.6417 15.5646 21.6823 15.4693 21.7147 15.3922C21.7512 15.3151 21.7857 15.2441 21.8182 15.1791C21.8507 15.1142 21.8872 15.0493 21.9278 14.9843C21.9683 14.9194 22.0191 14.8403 22.0799 14.747L23.5225 15.8C23.4657 15.9014 23.4028 16.0049 23.3339 16.1104C23.2689 16.2159 23.2081 16.3235 23.1512 16.433C23.0985 16.5426 23.0539 16.6542 23.0173 16.7678C22.9808 16.8814 22.9625 16.9951 22.9625 17.1087C22.9625 17.267 23.0173 17.409 23.1269 17.5348C23.2405 17.6565 23.3947 17.7641 23.5895 17.8574C23.7883 17.9467 24.0197 18.0238 24.2834 18.0887C24.5512 18.1536 24.8394 18.2084 25.1478 18.253C25.4602 18.2977 25.7869 18.3322 26.1278 18.3565C26.4686 18.3809 26.8115 18.3991 27.1565 18.4113H27.1625ZM42.6355 18.2713C42.7451 18.3322 42.8587 18.3748 42.9764 18.3991C43.0981 18.4194 43.2178 18.4336 43.3355 18.4417C43.4654 18.4417 43.5891 18.4681 43.7068 18.5209C43.8245 18.5696 43.926 18.6365 44.0112 18.7217C44.1004 18.807 44.1715 18.9084 44.2242 19.0261C44.277 19.1438 44.3033 19.2696 44.3033 19.4035C44.3033 19.5374 44.277 19.6632 44.2242 19.7809C44.1715 19.8986 44.1004 20 44.0112 20.0852C43.926 20.1745 43.8245 20.2435 43.7068 20.2922C43.5891 20.3409 43.4654 20.3652 43.3355 20.3652H43.2807C43.1752 20.3652 43.0393 20.3591 42.8729 20.347C42.7106 20.3348 42.5341 20.3003 42.3433 20.2435C42.1526 20.1907 41.9578 20.1096 41.759 20C41.5602 19.8945 41.3735 19.7443 41.199 19.5496C40.9636 19.7728 40.7019 19.9635 40.4138 20.1217C40.1297 20.28 39.8274 20.4099 39.5068 20.5113C39.1862 20.6168 38.8555 20.6939 38.5147 20.7426C38.1738 20.7913 37.8309 20.8157 37.486 20.8157C37.2912 20.8157 37.0842 20.8035 36.8651 20.7791C36.65 20.7588 36.4086 20.7203 36.1407 20.6635L36.6825 18.8496C36.8691 18.8739 37.0457 18.8942 37.212 18.9104C37.3825 18.9226 37.5387 18.9287 37.6807 18.9287C37.8106 18.9287 37.9404 18.9226 38.0703 18.9104C38.2002 18.8983 38.328 18.8759 38.4538 18.8435C38.332 18.4052 38.186 17.9751 38.0155 17.553C37.8451 17.127 37.6604 16.7171 37.4616 16.3235C37.2628 15.9299 37.0578 15.5545 36.8468 15.1974C36.6358 14.8403 36.4268 14.5096 36.2199 14.2052C36.017 13.9009 35.8222 13.6249 35.6355 13.3774C35.4529 13.1258 35.2906 12.9107 35.1486 12.7322L36.5181 11.3139L38.186 13.9983C38.3807 14.3513 38.5654 14.7104 38.7399 15.0757C38.9184 15.4409 39.0828 15.802 39.2329 16.1591C39.3871 16.5122 39.5231 16.8551 39.6407 17.1878C39.7625 17.5206 39.8639 17.829 39.9451 18.113C40.1033 17.9832 40.2413 17.8371 40.359 17.6748C40.4807 17.5125 40.5436 17.3461 40.5477 17.1757C40.5031 16.5467 40.4483 15.9339 40.3833 15.3374C40.3184 14.7368 40.2494 14.1626 40.1764 13.6148C40.1074 13.067 40.0364 12.5496 39.9633 12.0626C39.8903 11.5757 39.8233 11.1293 39.7625 10.7235L41.6494 10.3704C41.6494 10.3786 41.6555 10.4496 41.6677 10.5835C41.6839 10.7133 41.7042 10.8939 41.7286 11.1252C41.757 11.3525 41.7874 11.6223 41.8199 11.9348C41.8523 12.2432 41.8868 12.578 41.9233 12.9391C41.9639 13.2962 42.0025 13.6716 42.039 14.0652C42.0796 14.4548 42.1161 14.8484 42.1486 15.2461C42.1851 15.6397 42.2176 16.0293 42.246 16.4148C42.2784 16.7962 42.3048 17.1574 42.3251 17.4983C42.3373 17.6809 42.3738 17.8452 42.4347 17.9913C42.4996 18.1333 42.5665 18.2267 42.6355 18.2713ZM42.3188 19.4035C42.3188 19.2696 42.3431 19.1458 42.3918 19.0322C42.4405 18.9186 42.5075 18.8191 42.5927 18.7339C42.6779 18.6487 42.7793 18.5817 42.897 18.533C43.0106 18.4803 43.1344 18.4499 43.2683 18.4417C43.5402 18.4417 43.7756 18.389 43.9744 18.2835C44.1773 18.178 44.3559 18.04 44.5101 17.8696C44.6643 17.6991 44.8022 17.5084 44.924 17.2974C45.0457 17.0864 45.1614 16.8754 45.2709 16.6643V16.6704C45.3764 16.4513 45.488 16.2342 45.6057 16.0191C45.7275 15.8041 45.8593 15.6052 46.0014 15.4226C46.2205 15.167 46.466 14.9701 46.7379 14.8322C47.0098 14.6901 47.2999 14.6191 47.6083 14.6191C47.9735 14.6191 48.3043 14.6942 48.6005 14.8443C48.9008 14.9945 49.1727 15.2096 49.4162 15.4896C49.5988 15.7087 49.7469 15.9603 49.8605 16.2443C49.9741 16.5243 50.0492 16.8226 50.0857 17.1391V17.127C50.1101 17.2852 50.1222 17.4658 50.1222 17.6687C50.1222 17.8878 50.102 18.1029 50.0614 18.3139C50.0248 18.5209 49.9721 18.7177 49.9031 18.9043C49.7692 19.2452 49.5764 19.5313 49.3248 19.7626C49.0773 19.9899 48.8075 20.1461 48.5153 20.2313C48.4179 20.2597 48.3205 20.278 48.2231 20.2861C48.1298 20.2983 48.0304 20.3043 47.9248 20.3043C47.7422 20.3043 47.5475 20.282 47.3405 20.2374C47.1376 20.1928 46.9367 20.1319 46.7379 20.0548C46.6567 20.0183 46.5654 19.9757 46.464 19.927C46.3625 19.8742 46.255 19.8174 46.1414 19.7565C46.0318 19.6957 45.9222 19.6328 45.8127 19.5678C45.7031 19.5029 45.6017 19.44 45.5083 19.3791C45.346 19.5293 45.1837 19.6652 45.0214 19.787C44.8591 19.9087 44.6886 20.0122 44.5101 20.0974C44.3315 20.1826 44.1408 20.2475 43.9379 20.2922C43.735 20.3409 43.5138 20.3652 43.2744 20.3652C43.1405 20.3652 43.0167 20.3388 42.9031 20.2861C42.7854 20.2374 42.684 20.1704 42.5988 20.0852C42.5095 20 42.4405 19.8986 42.3918 19.7809C42.3431 19.6632 42.3188 19.5374 42.3188 19.4035ZM46.6344 17.8026C46.7602 17.8838 46.9083 17.9629 47.0788 18.04C47.2533 18.1171 47.4257 18.1861 47.5962 18.247C47.7666 18.3078 47.9228 18.3586 48.0648 18.3991C48.2109 18.4357 48.3205 18.4539 48.3935 18.4539C48.4098 18.4539 48.426 18.4539 48.4422 18.4539C48.4625 18.4499 48.4828 18.4458 48.5031 18.4417C48.5518 18.4296 48.5985 18.3687 48.6431 18.2591C48.6918 18.1455 48.7101 17.9913 48.6979 17.7965C48.6979 17.6667 48.6614 17.5246 48.5883 17.3704C48.5153 17.2122 48.4199 17.0661 48.3022 16.9322C48.1846 16.7942 48.0486 16.6806 47.8944 16.5913C47.7443 16.498 47.5901 16.4513 47.4318 16.4513C47.375 16.4513 47.302 16.5325 47.2127 16.6948C47.1234 16.8571 46.9935 17.0986 46.8231 17.4191V17.413L46.6344 17.8026ZM50.973 20.3835C50.9933 20.0507 51.0136 19.7058 51.0339 19.3487C51.0542 18.9916 51.0704 18.6386 51.0826 18.2896C51.0988 17.9406 51.109 17.6017 51.113 17.273C51.1171 16.9443 51.113 16.642 51.1008 16.3661C51.0765 15.7899 51.0521 15.2846 51.0278 14.8504C51.0075 14.4122 50.9852 14.0246 50.9608 13.6878C50.9405 13.351 50.9182 13.0568 50.8939 12.8052C50.8736 12.5496 50.8513 12.3162 50.8269 12.1052C50.8026 11.8942 50.7762 11.6974 50.7478 11.5148C50.7194 11.3281 50.689 11.1354 50.6565 10.9365L52.5374 10.3157C52.6266 10.8594 52.6976 11.4072 52.7504 11.9591C52.8072 12.511 52.8498 13.0406 52.8782 13.5478C52.9066 14.051 52.9249 14.5197 52.933 14.9539C52.9452 15.3881 52.9513 15.7594 52.9513 16.0678C52.9513 16.3478 52.9492 16.6501 52.9452 16.9748C52.9452 17.2994 52.9411 17.6362 52.933 17.9852C52.929 18.3342 52.9208 18.6872 52.9087 19.0443C52.8965 19.4014 52.8782 19.7504 52.8539 20.0913L50.973 20.3835ZM65.0893 14.5826C65.2111 14.5501 65.3348 14.5278 65.4606 14.5157C65.5864 14.5035 65.7102 14.4974 65.8319 14.4974C66.1038 14.4974 66.3838 14.538 66.6719 14.6191C66.9641 14.6962 67.2563 14.8119 67.5485 14.9661L66.8728 16.7496C66.678 16.6643 66.4934 16.5994 66.3189 16.5548C66.1444 16.5061 65.9801 16.4817 65.8259 16.4817C65.7203 16.4817 65.6006 16.4939 65.4667 16.5183C65.3369 16.5304 65.1969 16.569 65.0467 16.6339C64.8966 16.6948 64.7464 16.7739 64.5963 16.8713C64.4502 16.9687 64.3082 17.0823 64.1702 17.2122C64.0322 17.338 63.9085 17.4719 63.7989 17.6139C63.6934 17.7559 63.6061 17.9041 63.5372 18.0583C63.4682 18.2084 63.4296 18.3545 63.4215 18.4965C63.4134 18.6101 63.4459 18.7035 63.5189 18.7765C63.5919 18.8455 63.6893 18.9064 63.8111 18.9591C63.9328 19.0078 64.0708 19.0525 64.225 19.093C64.3792 19.1296 64.5354 19.1722 64.6937 19.2209L64.8702 19.2635C65.1299 19.3243 65.3876 19.3933 65.6432 19.4704C65.903 19.5475 66.1363 19.6571 66.3432 19.7991C66.5502 19.9371 66.7166 20.1197 66.8424 20.347C66.9722 20.5742 67.0372 20.8684 67.0372 21.2296C67.0372 21.3026 67.0331 21.3777 67.025 21.4548C67.0209 21.5359 67.0108 21.6191 66.9945 21.7043C66.954 21.9235 66.8809 22.1365 66.7754 22.3435C66.6699 22.5545 66.536 22.7533 66.3737 22.94C66.2154 23.1307 66.0308 23.3072 65.8198 23.4696C65.6128 23.6359 65.3856 23.7841 65.138 23.9139C64.6714 24.1452 64.1377 24.3238 63.5372 24.4496C62.9366 24.5794 62.2914 24.6443 61.6015 24.6443C60.7737 24.6443 60.0432 24.5226 59.4102 24.2791C58.7772 24.0397 58.2516 23.6887 57.8337 23.2261C57.5172 22.8487 57.2838 22.4348 57.1337 21.9843C56.9876 21.5339 56.9145 21.0632 56.9145 20.5722C56.9145 20.4667 56.9186 20.3612 56.9267 20.2557C56.9348 20.1501 56.943 20.0507 56.9511 19.9574C56.9673 19.6652 56.9998 19.3791 57.0485 19.0991C57.0972 18.8151 57.1519 18.5493 57.2128 18.3017C57.2777 18.0501 57.3467 17.8188 57.4198 17.6078C57.4928 17.3928 57.5598 17.2061 57.6206 17.0478C57.6815 16.8855 57.7322 16.7577 57.7728 16.6643C57.8174 16.567 57.8438 16.5081 57.8519 16.4878L59.3798 17.127C59.2783 17.3664 59.1809 17.6017 59.0876 17.833C58.9983 18.0603 58.9172 18.2957 58.8441 18.5391C58.7751 18.7786 58.7163 19.0322 58.6676 19.3C58.623 19.5678 58.5945 19.86 58.5824 20.1765C58.5783 20.2212 58.5743 20.2699 58.5702 20.3226C58.5661 20.3754 58.5641 20.422 58.5641 20.4626C58.5641 20.7183 58.6027 20.9699 58.6798 21.2174C58.7609 21.4649 58.8928 21.6881 59.0754 21.887C59.185 22.0128 59.327 22.1223 59.5015 22.2157C59.6801 22.313 59.8809 22.3942 60.1041 22.4591C60.3273 22.5281 60.5667 22.5788 60.8224 22.6113C61.078 22.6478 61.3377 22.6661 61.6015 22.6661C62.1169 22.6661 62.5977 22.6296 63.0441 22.5565C63.4945 22.4875 63.8902 22.3942 64.2311 22.2765C64.5719 22.1629 64.8459 22.029 65.0528 21.8748C65.2638 21.7246 65.3856 21.5704 65.418 21.4122C65.4099 21.4122 65.3856 21.4081 65.345 21.4C65.3044 21.3919 65.2516 21.3797 65.1867 21.3635C65.1259 21.3513 65.0548 21.3351 64.9737 21.3148C64.8966 21.2986 64.8154 21.2803 64.7302 21.26L64.4015 21.187C64.0403 21.0977 63.6995 20.9942 63.3789 20.8765C63.0624 20.7629 62.7844 20.6107 62.545 20.42C62.3096 20.2333 62.1209 19.998 61.9789 19.7139C61.8409 19.4258 61.7719 19.0626 61.7719 18.6243C61.7922 18.1577 61.8896 17.7032 62.0641 17.2609C62.2386 16.8186 62.474 16.4148 62.7702 16.0496C63.0664 15.6843 63.4114 15.3739 63.805 15.1183C64.2027 14.8586 64.6328 14.68 65.0954 14.5826H65.0893ZM71.3388 20.3652C70.8396 20.3652 70.4115 20.3023 70.0544 20.1765C69.6973 20.0548 69.3889 19.8661 69.1292 19.6104C68.9669 19.4481 68.8411 19.2777 68.7518 19.0991C68.6666 18.9206 68.6037 18.7461 68.5631 18.5757C68.5266 18.4012 68.5043 18.2368 68.4961 18.0826C68.4921 17.9284 68.4901 17.7965 68.4901 17.687V17.5957C68.4941 17.4455 68.4982 17.2304 68.5022 16.9504C68.5103 16.6664 68.5144 16.3336 68.5144 15.9522C68.5144 15.5707 68.5124 15.1507 68.5083 14.6922C68.5043 14.2336 68.4921 13.7771 68.4718 13.3226C68.4556 12.8641 68.4292 12.4238 68.3927 12.0017C68.3602 11.5797 68.3135 11.2125 68.2527 10.9L70.0727 10.3461C70.1254 10.6139 70.168 10.9304 70.2005 11.2957C70.233 11.6568 70.2593 12.0362 70.2796 12.4339C70.304 12.8316 70.3202 13.2313 70.3283 13.633C70.3405 14.0348 70.3486 14.4081 70.3527 14.753C70.3567 15.0574 70.3446 15.3557 70.3161 15.6478C70.2918 15.9359 70.2715 16.22 70.2553 16.5C70.239 16.7759 70.239 17.0458 70.2553 17.3096C70.2756 17.5693 70.3324 17.8229 70.4257 18.0704C70.4622 18.1638 70.5069 18.2348 70.5596 18.2835C70.6164 18.3322 70.6814 18.3687 70.7544 18.393C70.8275 18.4133 70.9066 18.4255 70.9918 18.4296C71.0811 18.4336 71.1785 18.4357 71.284 18.4357H71.3388C71.4686 18.4357 71.5924 18.462 71.7101 18.5148C71.8277 18.5675 71.9292 18.6386 72.0144 18.7278C72.1037 18.813 72.1747 18.9145 72.2275 19.0322C72.2802 19.1499 72.3066 19.2736 72.3066 19.4035C72.3066 19.5374 72.2802 19.6632 72.2275 19.7809C72.1747 19.8986 72.1037 20 72.0144 20.0852C71.9292 20.1745 71.8277 20.2435 71.7101 20.2922C71.5924 20.3409 71.4686 20.3652 71.3388 20.3652ZM70.3065 19.3974C70.3065 19.2635 70.3329 19.1397 70.3856 19.0261C70.4343 18.9084 70.5013 18.807 70.5865 18.7217C70.6717 18.6325 70.7732 18.5635 70.8908 18.5148C71.0085 18.4661 71.1343 18.4417 71.2682 18.4417H71.323C71.3839 18.4417 71.4407 18.4417 71.4934 18.4417C71.5503 18.4417 71.6132 18.4397 71.6821 18.4357C71.7552 18.4316 71.8404 18.4275 71.9378 18.4235C72.0392 18.4194 72.165 18.4133 72.3152 18.4052C72.1732 18.1617 72.0656 17.9041 71.9926 17.6322C71.9195 17.3562 71.883 17.0783 71.883 16.7983C71.883 16.5872 71.9033 16.3762 71.9439 16.1652C71.9845 15.9542 72.0453 15.7533 72.1265 15.5626C72.2077 15.3678 72.3091 15.1852 72.4308 15.0148C72.5526 14.8403 72.6966 14.682 72.863 14.54L72.5465 14.3635L73.7213 12.6348C73.8958 12.7565 74.1048 12.8803 74.3482 13.0061C74.5917 13.1319 74.8474 13.2577 75.1152 13.3835C75.383 13.5052 75.6508 13.6249 75.9187 13.7426C76.1906 13.8562 76.4401 13.9638 76.6674 14.0652C77.0529 14.2438 77.3937 14.402 77.69 14.54C77.9903 14.6739 78.2601 14.8078 78.4995 14.9417C78.739 15.0716 78.954 15.2096 79.1448 15.3557C79.3355 15.5017 79.514 15.6722 79.6804 15.867C79.8914 16.1348 80.0436 16.427 80.1369 16.7435C80.2303 17.06 80.2769 17.3664 80.2769 17.6626C80.2769 18.1171 80.1592 18.5472 79.9239 18.953C79.6926 19.3548 79.3497 19.6916 78.8952 19.9635C78.7694 20.0365 78.6132 20.0994 78.4265 20.1522C78.2439 20.2049 78.0511 20.2475 77.8482 20.28C77.6494 20.3165 77.4526 20.3429 77.2578 20.3591C77.063 20.3754 76.8926 20.3835 76.7465 20.3835C76.5761 20.3835 76.3914 20.3754 76.1926 20.3591C75.9937 20.347 75.7929 20.3246 75.59 20.2922C75.3911 20.2638 75.1963 20.2252 75.0056 20.1765C74.8149 20.1278 74.6404 20.071 74.4821 20.0061C74.2874 20.0629 74.0621 20.1136 73.8065 20.1583C73.5549 20.2029 73.2891 20.2394 73.0091 20.2678C72.7291 20.3003 72.445 20.3246 72.1569 20.3409C71.8688 20.3571 71.5908 20.3652 71.323 20.3652H71.2682C71.1343 20.3652 71.0085 20.3388 70.8908 20.2861C70.7732 20.2374 70.6717 20.1684 70.5865 20.0791C70.5013 19.9939 70.4343 19.8925 70.3856 19.7748C70.3329 19.6571 70.3065 19.5313 70.3065 19.3974ZM74.7317 15.4591C74.6019 15.4388 74.4619 15.4774 74.3117 15.5748C74.1656 15.6722 74.0317 15.798 73.91 15.9522C73.7882 16.1064 73.6908 16.2768 73.6178 16.4635C73.5448 16.6461 73.5163 16.8165 73.5326 16.9748V16.9687C73.5448 17.0742 73.5853 17.1838 73.6543 17.2974C73.7233 17.407 73.8045 17.5145 73.8978 17.62C73.9952 17.7214 74.0987 17.8128 74.2082 17.8939C74.3178 17.971 74.4192 18.0278 74.5126 18.0643C74.6668 18.0481 74.8169 18.0116 74.963 17.9548C75.1132 17.898 75.2471 17.8128 75.3648 17.6991C75.4824 17.5855 75.5778 17.4394 75.6508 17.2609C75.7239 17.0823 75.7604 16.8632 75.7604 16.6035C75.7604 16.4696 75.7219 16.3377 75.6448 16.2078C75.5717 16.078 75.4824 15.9603 75.3769 15.8548C75.2714 15.7452 75.1578 15.6559 75.0361 15.587C74.9184 15.5139 74.8169 15.4713 74.7317 15.4591ZM77.3613 16.4696C77.3613 16.64 77.341 16.8186 77.3004 17.0052C77.2598 17.1919 77.205 17.3765 77.1361 17.5591C77.0671 17.7417 76.9879 17.9203 76.8987 18.0948C76.8134 18.2652 76.7221 18.4235 76.6248 18.5696H76.6795C76.9758 18.5696 77.2477 18.5594 77.4952 18.5391C77.7468 18.5148 77.9639 18.4701 78.1465 18.4052C78.3291 18.3362 78.4732 18.2429 78.5787 18.1252C78.6882 18.0035 78.7532 17.8432 78.7734 17.6443C78.7816 17.547 78.741 17.4414 78.6517 17.3278C78.5624 17.2101 78.4468 17.0945 78.3048 16.9809C78.1668 16.8632 78.0126 16.7496 77.8421 16.64C77.6717 16.5304 77.5114 16.433 77.3613 16.3478V16.4696ZM88.9867 24.3339C88.6094 24.3339 88.2198 24.3116 87.818 24.267C87.4204 24.2264 87.0349 24.1472 86.6615 24.0296C86.2923 23.9119 85.9473 23.7455 85.6267 23.5304C85.3062 23.3194 85.0363 23.0435 84.8172 22.7026C84.6102 22.3739 84.4499 22.0128 84.3363 21.6191C84.2227 21.2255 84.1659 20.7852 84.1659 20.2983C84.1659 19.9412 84.1801 19.6023 84.2085 19.2817C84.2409 18.9571 84.2896 18.6365 84.3546 18.32C84.4195 18.0035 84.5027 17.6829 84.6041 17.3583C84.7096 17.0336 84.8354 16.6887 84.9815 16.3235L86.5459 16.9748C86.4282 17.267 86.3267 17.5307 86.2415 17.7661C86.1604 18.0014 86.0914 18.2165 86.0346 18.4113C85.9778 18.602 85.9331 18.7786 85.9007 18.9409C85.8682 19.1032 85.8438 19.2594 85.8276 19.4096C85.8114 19.5557 85.8012 19.7017 85.7972 19.8478C85.7931 19.9899 85.7911 20.14 85.7911 20.2983C85.7911 20.6026 85.8398 20.8664 85.9372 21.0896C86.0346 21.3128 86.1665 21.5014 86.3328 21.6557C86.4992 21.8099 86.6899 21.9357 86.905 22.033C87.1241 22.1345 87.3514 22.2116 87.5867 22.2643C87.8221 22.3171 88.0595 22.3536 88.2989 22.3739C88.5424 22.3942 88.7717 22.4043 88.9867 22.4043C89.0923 22.4043 89.2485 22.3962 89.4554 22.38C89.6624 22.3678 89.8876 22.3435 90.1311 22.307C90.3786 22.2745 90.6302 22.2299 90.8859 22.173C91.1456 22.1162 91.3809 22.0452 91.592 21.96C91.803 21.8788 91.9754 21.7814 92.1094 21.6678C92.2433 21.5583 92.3102 21.4284 92.3102 21.2783C92.3102 21.262 92.2757 21.2336 92.2067 21.193C92.1418 21.1525 92.0505 21.1038 91.9328 21.047C91.8192 20.9942 91.6853 20.9333 91.5311 20.8643C91.3809 20.7994 91.2186 20.7325 91.0441 20.6635H91.0502C90.8554 20.6026 90.6505 20.5499 90.4354 20.5052C90.2244 20.4646 90.0154 20.4281 89.8085 20.3957C89.776 20.3916 89.7334 20.3855 89.6807 20.3774C89.632 20.3693 89.5812 20.3591 89.5285 20.347C89.4757 20.3388 89.423 20.3287 89.3702 20.3165C89.3215 20.3084 89.2809 20.3003 89.2485 20.2922L89.498 18.4417H94.3798C94.5096 18.4417 94.6334 18.4661 94.7511 18.5148C94.8688 18.5635 94.9702 18.6325 95.0554 18.7217C95.1447 18.807 95.2157 18.9084 95.2685 19.0261C95.3212 19.1438 95.3476 19.2696 95.3476 19.4035C95.3476 19.5374 95.3212 19.6632 95.2685 19.7809C95.2157 19.8986 95.1447 20 95.0554 20.0852C94.9702 20.1745 94.8688 20.2435 94.7511 20.2922C94.6334 20.3409 94.5096 20.3652 94.3798 20.3652H93.7041C93.7894 20.5275 93.8502 20.6899 93.8867 20.8522C93.9273 21.0186 93.9496 21.1606 93.9537 21.2783C93.9334 21.6597 93.836 21.9986 93.6615 22.2948C93.4911 22.5951 93.2699 22.8588 92.998 23.0861C92.7262 23.3133 92.4178 23.5061 92.0728 23.6643C91.7279 23.8226 91.3749 23.9504 91.0137 24.0478C90.6525 24.1493 90.2954 24.2223 89.9424 24.267C89.5934 24.3116 89.2749 24.3339 88.9867 24.3339ZM93.5078 19.4035C93.5078 19.2696 93.5321 19.1438 93.5808 19.0261C93.6295 18.9084 93.6985 18.807 93.7878 18.7217C93.873 18.6365 93.9744 18.5696 94.0921 18.5209C94.2098 18.4681 94.3356 18.4417 94.4695 18.4417H94.786C94.7982 18.1739 94.8388 17.8838 94.9078 17.5713C94.9808 17.2548 95.0782 16.9383 95.1999 16.6217C95.3217 16.3012 95.4657 15.9928 95.6321 15.6965C95.7985 15.3962 95.9811 15.1284 96.1799 14.893C96.3828 14.6577 96.602 14.467 96.8373 14.3209C97.0727 14.1707 97.3182 14.0875 97.5738 14.0713C97.8457 14.0754 98.0973 14.1525 98.3286 14.3026C98.564 14.4487 98.7669 14.6414 98.9373 14.8809C99.1078 15.1203 99.2417 15.3922 99.3391 15.6965C99.4365 16.0009 99.4852 16.3093 99.4852 16.6217C99.4852 16.991 99.404 17.3501 99.2417 17.6991C99.0834 18.0481 98.8724 18.3748 98.6086 18.6791C98.3489 18.9794 98.0527 19.2513 97.7199 19.4948C97.3912 19.7342 97.0565 19.931 96.7156 20.0852C96.744 20.1826 96.8028 20.2983 96.8921 20.4322C96.9854 20.5701 97.0889 20.7081 97.2025 20.8461C97.3202 20.9841 97.4379 21.1139 97.5556 21.2357C97.6733 21.3574 97.7727 21.4548 97.8538 21.5278C97.8498 21.2925 97.8843 21.051 97.9573 20.8035C98.0304 20.56 98.1318 20.3246 98.2617 20.0974C98.3956 19.8701 98.5518 19.6571 98.7304 19.4583C98.9089 19.2554 99.0996 19.0788 99.3025 18.9287C99.5095 18.7786 99.7225 18.6609 99.9417 18.5757C100.161 18.4864 100.378 18.4417 100.593 18.4417C100.727 18.4417 100.853 18.4681 100.97 18.5209C101.088 18.5696 101.189 18.6365 101.275 18.7217C101.364 18.807 101.433 18.9084 101.482 19.0261C101.534 19.1438 101.561 19.2696 101.561 19.4035C101.561 19.5374 101.534 19.6632 101.482 19.7809C101.433 19.8986 101.364 20 101.275 20.0852C101.189 20.1745 101.088 20.2435 100.97 20.2922C100.853 20.3409 100.727 20.3652 100.593 20.3652H100.569C100.39 20.3896 100.218 20.4484 100.051 20.5417C99.8849 20.6391 99.7367 20.7588 99.6069 20.9009C99.4811 21.047 99.3796 21.2072 99.3025 21.3817C99.2254 21.5603 99.1869 21.7409 99.1869 21.9235C99.1869 22.0046 99.193 22.0797 99.2052 22.1487C99.2173 22.2217 99.2396 22.2948 99.2721 22.3678C99.3046 22.4409 99.3472 22.518 99.3999 22.5991C99.4567 22.6803 99.5278 22.7675 99.613 22.8609L98.4991 24.2183C98.0121 23.922 97.584 23.6197 97.2147 23.3113C96.8454 23.0029 96.5249 22.6864 96.253 22.3617C95.9852 22.0412 95.7579 21.7145 95.5712 21.3817C95.3886 21.049 95.2385 20.7101 95.1208 20.3652H95.0965H94.4695C94.3356 20.3652 94.2098 20.3409 94.0921 20.2922C93.9744 20.2435 93.873 20.1745 93.7878 20.0852C93.6985 20 93.6295 19.8986 93.5808 19.7809C93.5321 19.6632 93.5078 19.5374 93.5078 19.4035ZM97.9391 16.8896C97.9472 16.7759 97.9452 16.6562 97.933 16.5304C97.9249 16.4006 97.9046 16.2768 97.8721 16.1591C97.8437 16.0374 97.8031 15.9278 97.7504 15.8304C97.6976 15.733 97.6327 15.66 97.5556 15.6113C97.4785 15.6519 97.3933 15.729 97.2999 15.8426C97.2107 15.9562 97.1194 16.0942 97.026 16.2565C96.9327 16.4188 96.8414 16.5974 96.7521 16.7922C96.6669 16.9829 96.5898 17.1777 96.5208 17.3765C96.4518 17.5754 96.395 17.7701 96.3504 17.9609C96.3098 18.1475 96.2875 18.3159 96.2834 18.4661C96.4579 18.4336 96.6385 18.3687 96.8252 18.2713C97.0159 18.1699 97.1904 18.0481 97.3486 17.9061C97.5109 17.76 97.6469 17.5997 97.7565 17.4252C97.866 17.2507 97.9269 17.0722 97.9391 16.8896ZM99.5887 19.4096C99.5887 19.2716 99.613 19.1438 99.6617 19.0261C99.7104 18.9084 99.7814 18.807 99.8747 18.7217C99.964 18.6325 100.072 18.5635 100.197 18.5148C100.319 18.4661 100.457 18.4417 100.611 18.4417H100.952H101.25C101.47 18.4417 101.711 18.4397 101.975 18.4357C102.239 18.4275 102.492 18.4072 102.736 18.3748C102.983 18.3383 103.204 18.2855 103.399 18.2165C103.598 18.1475 103.742 18.0522 103.831 17.9304C103.953 17.7438 104.014 17.5307 104.014 17.2913C104.014 17.2101 104.006 17.129 103.99 17.0478C103.977 16.9626 103.961 16.8754 103.941 16.7861C103.912 16.6846 103.852 16.5629 103.758 16.4209C103.669 16.2748 103.553 16.1165 103.411 15.9461C103.269 15.7716 103.107 15.589 102.924 15.3983C102.742 15.2035 102.547 15.0067 102.34 14.8078C102.133 14.6049 101.916 14.4041 101.689 14.2052C101.461 14.0064 101.234 13.8136 101.007 13.627L101.196 11.9713L106.309 9.69478L107.045 11.3261L103.003 13.2009C103.202 13.3388 103.407 13.5032 103.618 13.6939C103.829 13.8846 104.034 14.0936 104.233 14.3209C104.432 14.5441 104.619 14.7814 104.793 15.033C104.967 15.2846 105.12 15.5423 105.25 15.8061C105.379 16.0699 105.481 16.3357 105.554 16.6035C105.631 16.8713 105.667 17.133 105.663 17.3887C105.659 17.693 105.619 17.9771 105.542 18.2409C105.465 18.5006 105.369 18.7339 105.256 18.9409C104.834 19.6957 104.138 20.1562 103.168 20.3226L103.174 20.3165C103.064 20.3368 102.961 20.351 102.863 20.3591C102.766 20.3672 102.671 20.3713 102.577 20.3713L100.611 20.3652C100.461 20.3652 100.323 20.3409 100.197 20.2922C100.072 20.2435 99.964 20.1745 99.8747 20.0852C99.7855 20 99.7165 19.9006 99.6678 19.787C99.615 19.6693 99.5887 19.5435 99.5887 19.4096ZM106.065 9.06174L101.025 11.1922L101.074 10.2791L105.73 8.33739L106.065 9.06174ZM109.225 20.3835C109.245 20.071 109.264 19.7443 109.28 19.4035C109.3 19.0626 109.316 18.7258 109.329 18.393C109.341 18.0603 109.351 17.7377 109.359 17.4252C109.367 17.1087 109.371 16.8206 109.371 16.5609C109.371 15.8832 109.361 15.3009 109.341 14.8139C109.32 14.327 109.296 13.911 109.268 13.5661C109.239 13.2171 109.207 12.927 109.17 12.6957C109.138 12.4603 109.107 12.2533 109.079 12.0748L109 11.6122L110.893 11.0096C110.909 11.0664 110.923 11.1191 110.936 11.1678C110.948 11.2165 110.958 11.2754 110.966 11.3443C110.978 11.4093 110.99 11.4904 111.003 11.5878C111.019 11.6852 111.035 11.813 111.051 11.9713C111.067 12.1296 111.086 12.3223 111.106 12.5496C111.13 12.7768 111.159 13.0548 111.191 13.3835C111.212 13.7 111.228 13.9841 111.24 14.2357C111.256 14.4872 111.268 14.7328 111.276 14.9722C111.285 15.2116 111.291 15.4591 111.295 15.7148C111.299 15.9664 111.301 16.2525 111.301 16.573C111.301 17.1006 111.293 17.6606 111.276 18.253C111.26 18.8414 111.23 19.4603 111.185 20.1096L109.225 20.3835ZM107.6 10.6383C107.6 10.6139 107.614 10.5693 107.643 10.5043C107.667 10.4354 107.697 10.3623 107.734 10.2852C107.766 10.2081 107.799 10.1371 107.831 10.0722C107.864 10.0032 107.886 9.95855 107.898 9.93826C108.044 9.71507 108.215 9.53246 108.409 9.39043C108.608 9.24841 108.805 9.15507 109 9.11043C109.04 9.10232 109.091 9.09826 109.152 9.09826C109.213 9.0942 109.262 9.09217 109.298 9.09217C109.493 9.09217 109.669 9.11652 109.828 9.16522C109.986 9.20985 110.128 9.26058 110.254 9.31739L110.443 9.4087C110.512 9.44116 110.58 9.47159 110.649 9.5C110.718 9.52435 110.792 9.53855 110.869 9.54261C110.934 9.54667 111 9.53043 111.069 9.49391C111.138 9.45739 111.205 9.4087 111.27 9.34783C111.339 9.2829 111.404 9.21188 111.465 9.13478C111.53 9.05768 111.591 8.98058 111.648 8.90348L112.597 9.51826C112.593 9.53043 112.571 9.56898 112.53 9.63391C112.49 9.69478 112.431 9.76985 112.354 9.85913C112.281 9.94841 112.192 10.0438 112.086 10.1452C111.985 10.2426 111.869 10.3339 111.739 10.4191C111.609 10.5003 111.467 10.5672 111.313 10.62C111.163 10.6728 111.003 10.6971 110.832 10.693C110.706 10.7012 110.578 10.6768 110.449 10.62C110.319 10.5591 110.185 10.4962 110.047 10.4313C109.913 10.3623 109.775 10.3055 109.633 10.2609C109.491 10.2122 109.343 10.2041 109.189 10.2365C109.095 10.2568 109.018 10.2933 108.957 10.3461C108.9 10.3948 108.852 10.4536 108.811 10.5226C108.771 10.5875 108.736 10.6586 108.708 10.7357C108.679 10.8128 108.649 10.8878 108.616 10.9609L107.6 10.6383ZM129.807 20.3652C129.137 20.3652 128.569 20.2557 128.102 20.0365C127.64 19.8174 127.262 19.4522 126.97 18.9409C126.394 19.4319 125.696 19.7951 124.876 20.0304C124.061 20.2658 123.107 20.3835 122.015 20.3835C121.37 20.3794 120.757 20.3368 120.177 20.2557C119.601 20.1786 119.075 20.0609 118.601 19.9026C118.126 19.7403 117.71 19.5394 117.353 19.3C116.996 19.0565 116.716 18.7704 116.513 18.4417C116.387 18.2267 116.296 17.9791 116.239 17.6991C116.182 17.4151 116.164 17.1087 116.184 16.78C116.204 16.4472 116.267 16.0962 116.373 15.727C116.482 15.3536 116.638 14.9681 116.841 14.5704L118.29 15.4104C118.209 15.5687 118.134 15.7229 118.065 15.873C117.996 16.0232 117.943 16.1794 117.907 16.3417C117.87 16.5041 117.852 16.6786 117.852 16.8652C117.856 17.0478 117.888 17.2507 117.949 17.4739C118.051 17.6484 118.231 17.7965 118.491 17.9183C118.755 18.04 119.071 18.1394 119.441 18.2165C119.81 18.2936 120.216 18.3504 120.658 18.387C121.1 18.4235 121.553 18.4417 122.015 18.4417C122.441 18.4417 122.845 18.4275 123.227 18.3991C123.608 18.3667 123.959 18.318 124.28 18.253C124.604 18.1841 124.896 18.0968 125.156 17.9913C125.42 17.8817 125.645 17.7499 125.832 17.5957C126.002 17.4577 126.142 17.3055 126.252 17.1391C126.361 16.9728 126.455 16.7983 126.532 16.6157C126.609 16.429 126.672 16.2342 126.721 16.0313C126.773 15.8284 126.824 15.6235 126.873 15.4165L128.577 15.8487L128.327 17.1391C128.291 17.3258 128.299 17.4983 128.352 17.6565C128.409 17.8148 128.504 17.9528 128.638 18.0704C128.772 18.1841 128.942 18.2754 129.149 18.3443C129.356 18.4093 129.592 18.4417 129.855 18.4417C129.989 18.4417 130.115 18.4661 130.233 18.5148C130.35 18.5635 130.452 18.6325 130.537 18.7217C130.626 18.807 130.695 18.9084 130.744 19.0261C130.797 19.1438 130.823 19.2696 130.823 19.4035C130.823 19.5374 130.797 19.6632 130.744 19.7809C130.695 19.8986 130.626 20 130.537 20.0852C130.452 20.1745 130.35 20.2435 130.233 20.2922C130.115 20.3409 129.989 20.3652 129.855 20.3652H129.807ZM124.821 14.0104L123.653 15.1852L122.496 14.0287L121.352 15.173L120.171 13.9983L121.34 12.8235L122.496 13.98L123.641 12.8357L124.821 14.0104ZM128.863 19.4035C128.863 19.2777 128.89 19.158 128.942 19.0443C128.995 18.9307 129.068 18.8313 129.161 18.7461C129.251 18.6568 129.358 18.5858 129.484 18.533C129.606 18.4803 129.738 18.4499 129.88 18.4417C130.095 18.4417 130.296 18.4072 130.482 18.3383C130.669 18.2652 130.845 18.1272 131.012 17.9243C131.178 17.7214 131.334 17.4354 131.481 17.0661C131.627 16.6968 131.767 16.2139 131.901 15.6174L133.52 15.8487C133.532 15.8 133.524 15.8264 133.495 15.9278C133.471 16.0293 133.441 16.1733 133.404 16.36C133.372 16.5426 133.339 16.7496 133.307 16.9809C133.278 17.2081 133.264 17.4272 133.264 17.6383C133.268 17.8452 133.292 18.0258 133.337 18.18C133.386 18.3301 133.469 18.4194 133.587 18.4478C133.712 18.4803 133.834 18.4559 133.952 18.3748C134.07 18.2896 134.181 18.1699 134.287 18.0157C134.392 17.8574 134.49 17.6748 134.579 17.4678C134.668 17.2568 134.749 17.0417 134.822 16.8226C134.895 16.6035 134.958 16.3884 135.011 16.1774C135.064 15.9664 135.104 15.7797 135.133 15.6174L136.74 15.8487C136.732 15.9501 136.717 16.0861 136.697 16.2565C136.677 16.4229 136.661 16.6014 136.648 16.7922C136.636 16.9829 136.63 17.1757 136.63 17.3704C136.634 17.5612 136.656 17.7357 136.697 17.8939C136.738 18.0481 136.801 18.1759 136.886 18.2774C136.971 18.3748 137.089 18.4235 137.239 18.4235C137.373 18.4235 137.488 18.3788 137.586 18.2896C137.683 18.2003 137.764 18.0846 137.829 17.9426C137.898 17.7965 137.953 17.6322 137.994 17.4496C138.034 17.2629 138.065 17.0742 138.085 16.8835C138.105 16.6928 138.115 16.5081 138.115 16.3296C138.115 16.147 138.109 15.9867 138.097 15.8487L139.741 15.6174L139.941 17.3339C139.966 17.5206 140.018 17.6829 140.1 17.8209C140.181 17.9588 140.276 18.0745 140.386 18.1678C140.495 18.2571 140.611 18.3261 140.733 18.3748C140.854 18.4194 140.97 18.4417 141.08 18.4417H141.153C141.303 18.4417 141.439 18.4661 141.561 18.5148C141.686 18.5635 141.794 18.6325 141.883 18.7217C141.972 18.807 142.041 18.9084 142.09 19.0261C142.139 19.1438 142.163 19.2696 142.163 19.4035C142.163 19.5374 142.139 19.6632 142.09 19.7809C142.041 19.8986 141.97 20 141.877 20.0852C141.788 20.1704 141.674 20.2374 141.536 20.2861C141.402 20.3388 141.25 20.3652 141.08 20.3652C140.686 20.3652 140.315 20.2962 139.966 20.1583C139.617 20.0203 139.314 19.787 139.059 19.4583C139.034 19.4907 139.01 19.5191 138.986 19.5435C138.961 19.5678 138.939 19.5922 138.919 19.6165V19.6104C138.7 19.8417 138.446 20.0243 138.158 20.1583C137.874 20.2962 137.567 20.3652 137.239 20.3652C136.87 20.3652 136.529 20.2861 136.216 20.1278C135.908 19.9696 135.65 19.7545 135.443 19.4826C135.2 19.7504 134.924 19.9675 134.615 20.1339C134.307 20.3003 133.968 20.3835 133.599 20.3835C133.254 20.3835 132.933 20.3064 132.637 20.1522C132.341 19.998 132.095 19.787 131.901 19.5191C131.681 19.8235 131.41 20.0406 131.085 20.1704C130.764 20.3003 130.367 20.3652 129.892 20.3652C129.738 20.3652 129.598 20.3388 129.472 20.2861C129.346 20.2374 129.238 20.1704 129.149 20.0852C129.06 20 128.991 19.8986 128.942 19.7809C128.89 19.6632 128.863 19.5374 128.863 19.4035ZM140.147 19.4035C140.147 19.2696 140.171 19.1438 140.22 19.0261C140.269 18.9084 140.338 18.807 140.427 18.7217C140.512 18.6325 140.614 18.5635 140.731 18.5148C140.849 18.4661 140.975 18.4417 141.109 18.4417H141.571C141.864 18.4417 142.144 18.4296 142.411 18.4052C142.683 18.3809 142.923 18.3301 143.13 18.253C143.337 18.1719 143.503 18.0603 143.629 17.9183C143.759 17.7722 143.828 17.5794 143.836 17.34C143.84 17.2507 143.84 17.1777 143.836 17.1209C143.836 17.06 143.826 16.989 143.805 16.9078C143.785 16.8226 143.755 16.713 143.714 16.5791C143.677 16.4412 143.625 16.2484 143.556 16.0009L145.327 15.5017C145.404 15.6965 145.475 15.9542 145.54 16.2748C145.605 16.5954 145.654 16.9464 145.686 17.3278C145.694 17.4496 145.708 17.5754 145.729 17.7052C145.749 17.8351 145.782 17.9548 145.826 18.0643C145.875 18.1739 145.94 18.2652 146.021 18.3383C146.102 18.4072 146.208 18.4417 146.337 18.4417C146.471 18.4417 146.597 18.4661 146.715 18.5148C146.833 18.5635 146.934 18.6325 147.019 18.7217C147.108 18.807 147.177 18.9084 147.226 19.0261C147.279 19.1438 147.305 19.2696 147.305 19.4035C147.305 19.5374 147.279 19.6632 147.226 19.7809C147.177 19.8986 147.108 20 147.019 20.0852C146.93 20.1745 146.826 20.2435 146.709 20.2922C146.595 20.3409 146.473 20.3652 146.344 20.3652C145.954 20.3652 145.619 20.3043 145.339 20.1826C145.063 20.0649 144.826 19.9107 144.627 19.72C144.444 19.8417 144.233 19.9432 143.994 20.0243C143.759 20.1055 143.507 20.1704 143.239 20.2191C142.971 20.2719 142.695 20.3084 142.411 20.3287C142.127 20.353 141.847 20.3652 141.571 20.3652H141.109C140.975 20.3652 140.849 20.3409 140.731 20.2922C140.614 20.2435 140.512 20.1745 140.427 20.0852C140.338 20 140.269 19.8986 140.22 19.7809C140.171 19.6632 140.147 19.5374 140.147 19.4035ZM145.972 22.5504L144.804 23.7252L143.647 22.5687L142.503 23.713L141.322 22.5383L142.49 21.3635L143.647 22.52L144.791 21.3757L145.972 22.5504ZM145.426 19.4035C145.426 19.2696 145.452 19.1438 145.505 19.0261C145.554 18.9084 145.621 18.807 145.706 18.7217C145.791 18.6325 145.893 18.5635 146.01 18.5148C146.128 18.4661 146.254 18.4417 146.388 18.4417H146.442H146.729C146.911 18.4417 147.073 18.4255 147.216 18.393C147.362 18.3606 147.463 18.3159 147.52 18.2591V18.2652C147.589 18.1881 147.642 18.0684 147.678 17.9061C147.719 17.7438 147.737 17.5287 147.733 17.2609C147.733 17.2284 147.727 17.1107 147.715 16.9078C147.702 16.7009 147.686 16.4432 147.666 16.1348C147.65 15.8223 147.627 15.4754 147.599 15.0939C147.575 14.7084 147.548 14.3188 147.52 13.9252C147.496 13.5316 147.471 13.1481 147.447 12.7748C147.422 12.4014 147.398 12.0728 147.374 11.7887C147.353 11.5046 147.335 11.2794 147.319 11.113C147.307 10.9426 147.299 10.8655 147.295 10.8817L149.224 10.407C149.228 10.4719 149.24 10.6241 149.261 10.8635C149.281 11.0988 149.305 11.391 149.334 11.74C149.362 12.089 149.391 12.4786 149.419 12.9087C149.447 13.3388 149.472 13.7771 149.492 14.2235L149.589 17.2365C149.593 17.407 149.589 17.5936 149.577 17.7965C149.565 17.9994 149.533 18.2064 149.48 18.4174C149.427 18.6243 149.348 18.8313 149.242 19.0383C149.141 19.2452 149.003 19.438 148.829 19.6165C148.329 20.1157 147.629 20.3652 146.729 20.3652H146.442H146.388C146.254 20.3652 146.128 20.3388 146.01 20.2861C145.893 20.2374 145.791 20.1704 145.706 20.0852C145.621 20 145.554 19.8986 145.505 19.7809C145.452 19.6632 145.426 19.5374 145.426 19.4035Z" fill="#636363"/>
<circle cx="175" cy="17" r="10" fill="#00BD61"/>
<path fill-rule="evenodd" clip-rule="evenodd" d="M178.91 12.7139L180.714 14.4284L173.496 21.2853H173.492L169.285 17.2879L171.091 15.5745L173.494 17.8586L178.91 12.7139Z" fill="white"/>
<defs>
<filter id="filter0_b_4261_44152" x="-6" y="-6" width="222.834" height="45" filterUnits="userSpaceOnUse" color-interpolation-filters="sRGB">
<feFlood flood-opacity="0" result="BackgroundImageFix"/>
<feGaussianBlur in="BackgroundImageFix" stdDeviation="3"/>
<feComposite in2="SourceAlpha" operator="in" result="effect1_backgroundBlur_4261_44152"/>
<feBlend mode="normal" in="SourceGraphic" in2="effect1_backgroundBlur_4261_44152" result="shape"/>
</filter>
<linearGradient id="paint0_linear_4261_44152" x1="68.6704" y1="-29.4858" x2="68.6704" y2="80.932" gradientUnits="userSpaceOnUse">
<stop stop-color="#36D859"/>
<stop offset="1" stop-color="#4C8CED"/>
</linearGradient>
</defs>
</svg>
