<svg width="282" height="31" viewBox="0 0 282 31" fill="none" xmlns="http://www.w3.org/2000/svg">
<path d="M282 31L141 31V0L282 0V31Z" fill="url(#paint0_linear_2613_6763)"/>
<path d="M0 31L141 31V0L0 0V31Z" fill="url(#paint1_linear_2613_6763)"/>
<path d="M23.2739 17.3652C22.7423 17.3652 22.2208 17.2638 21.7095 17.0609C21.2023 16.858 20.7316 16.5313 20.2974 16.0809L21.3991 14.5287C21.5979 14.7113 21.7907 14.8614 21.9774 14.9791C22.164 15.0928 22.3426 15.182 22.513 15.247C22.6834 15.3119 22.8437 15.3565 22.9939 15.3809C23.1481 15.4052 23.2921 15.4174 23.426 15.4174C23.4869 15.4174 23.5559 15.4154 23.633 15.4113C23.7101 15.4072 23.7872 15.4012 23.8643 15.393C23.9414 15.3809 24.0165 15.3667 24.0895 15.3504C24.1626 15.3342 24.2295 15.3139 24.2904 15.2896C24.5014 15.2003 24.6678 15.111 24.7895 15.0217C24.6353 14.6484 24.4669 14.2609 24.2843 13.8591C24.1058 13.4533 23.9252 13.0475 23.7426 12.6417C23.56 12.2319 23.3794 11.8261 23.2008 11.4243C23.0223 11.0226 22.8559 10.6371 22.7017 10.2678L24.4791 9.52522L25.0208 10.84C25.1953 11.2701 25.4043 11.7814 25.6478 12.3739C25.8913 12.9623 26.1713 13.6299 26.4878 14.3765C26.5608 14.5551 26.6278 14.7113 26.6887 14.8452C26.7495 14.9791 26.8205 15.0907 26.9017 15.18C26.9869 15.2693 27.0863 15.3362 27.2 15.3809C27.3176 15.4214 27.4678 15.4417 27.6504 15.4417C27.7802 15.4417 27.904 15.4661 28.0217 15.5148C28.1394 15.5635 28.2408 15.6325 28.326 15.7217C28.4153 15.807 28.4863 15.9084 28.5391 16.0261C28.5918 16.1438 28.6182 16.2696 28.6182 16.4035C28.6182 16.5374 28.5918 16.6632 28.5391 16.7809C28.4863 16.8986 28.4153 17 28.326 17.0852C28.2408 17.1745 28.1394 17.2435 28.0217 17.2922C27.904 17.3409 27.7802 17.3652 27.6504 17.3652C27.4029 17.3652 27.1837 17.349 26.993 17.3165C26.8063 17.2841 26.6379 17.2374 26.4878 17.1765C26.3417 17.1197 26.2098 17.0507 26.0921 16.9696C25.9785 16.8843 25.871 16.791 25.7695 16.6896C25.66 16.7626 25.5443 16.8336 25.4226 16.9026C25.3008 16.9675 25.1608 17.0325 25.0026 17.0974C24.7591 17.1907 24.4953 17.2577 24.2113 17.2983C23.9313 17.3429 23.6188 17.3652 23.2739 17.3652ZM26.648 16.4035C26.648 16.2696 26.6723 16.1438 26.721 16.0261C26.7697 15.9084 26.8387 15.807 26.928 15.7217C27.0132 15.6325 27.1147 15.5635 27.2323 15.5148C27.35 15.4661 27.4758 15.4417 27.6097 15.4417H28.0723C28.3645 15.4417 28.6445 15.4296 28.9123 15.4052C29.1842 15.3809 29.4236 15.3301 29.6306 15.253C29.8376 15.1719 30.0039 15.0603 30.1297 14.9183C30.2596 14.7722 30.3286 14.5794 30.3367 14.34C30.3407 14.2507 30.3407 14.1777 30.3367 14.1209C30.3367 14.06 30.3265 13.989 30.3063 13.9078C30.286 13.8226 30.2555 13.713 30.215 13.5791C30.1784 13.4412 30.1257 13.2484 30.0567 13.0009L31.828 12.5017C31.9051 12.6965 31.9761 12.9542 32.041 13.2748C32.106 13.5954 32.1547 13.9464 32.1871 14.3278C32.1952 14.4496 32.2094 14.5754 32.2297 14.7052C32.25 14.8351 32.2825 14.9548 32.3271 15.0643C32.3758 15.1739 32.4407 15.2652 32.5219 15.3383C32.6031 15.4072 32.7086 15.4417 32.8384 15.4417C32.9723 15.4417 33.0981 15.4661 33.2158 15.5148C33.3335 15.5635 33.435 15.6325 33.5202 15.7217C33.6094 15.807 33.6784 15.9084 33.7271 16.0261C33.7799 16.1438 33.8063 16.2696 33.8063 16.4035C33.8063 16.5374 33.7799 16.6632 33.7271 16.7809C33.6784 16.8986 33.6094 17 33.5202 17.0852C33.4309 17.1745 33.3274 17.2435 33.2097 17.2922C33.0961 17.3409 32.9744 17.3652 32.8445 17.3652C32.455 17.3652 32.1202 17.3043 31.8402 17.1826C31.5642 17.0649 31.3268 16.9107 31.128 16.72C30.9454 16.8417 30.7344 16.9432 30.495 17.0243C30.2596 17.1055 30.008 17.1704 29.7402 17.2191C29.4723 17.2719 29.1964 17.3084 28.9123 17.3287C28.6283 17.353 28.3483 17.3652 28.0723 17.3652H27.6097C27.4758 17.3652 27.35 17.3409 27.2323 17.2922C27.1147 17.2435 27.0132 17.1745 26.928 17.0852C26.8387 17 26.7697 16.8986 26.721 16.7809C26.6723 16.6632 26.648 16.5374 26.648 16.4035ZM32.4732 19.5504L31.3045 20.7252L30.148 19.5687L29.0036 20.713L27.8228 19.5383L28.9915 18.3635L30.148 19.52L31.2923 18.3757L32.4732 19.5504ZM31.8843 16.4035C31.8843 16.2696 31.9107 16.1438 31.9635 16.0261C32.0122 15.9084 32.0791 15.807 32.1643 15.7217C32.2495 15.6325 32.351 15.5635 32.4687 15.5148C32.5864 15.4661 32.7122 15.4417 32.8461 15.4417H33.473H33.7469C33.8971 15.4417 34.0533 15.4357 34.2156 15.4235C34.382 15.4113 34.5362 15.387 34.6782 15.3504C34.8243 15.3139 34.9522 15.2632 35.0617 15.1983C35.1753 15.1333 35.2565 15.0461 35.3052 14.9365C35.3377 14.8635 35.3539 14.7539 35.3539 14.6078C35.3539 14.5104 35.3255 14.3643 35.2687 14.1696C35.2119 13.9748 35.1368 13.7597 35.0435 13.5243C34.9501 13.2849 34.8446 13.0354 34.7269 12.7757C34.6093 12.5159 34.4895 12.2704 34.3678 12.0391L36.1087 11.1748C36.2223 11.4304 36.3339 11.7023 36.4435 11.9904C36.5571 12.2786 36.6585 12.5707 36.7478 12.867C36.8371 13.1632 36.9081 13.4594 36.9608 13.7557C37.0177 14.0478 37.0461 14.3278 37.0461 14.5957C37.0461 15.0055 36.973 15.3809 36.8269 15.7217C36.6565 16.1032 36.4232 16.4197 36.1269 16.6713C35.8307 16.9188 35.4756 17.1014 35.0617 17.2191C34.8182 17.2881 34.5849 17.3287 34.3617 17.3409C34.1385 17.3571 33.9295 17.3652 33.7348 17.3652H32.9008H32.8461C32.7122 17.3652 32.5864 17.3409 32.4687 17.2922C32.351 17.2435 32.2495 17.1745 32.1643 17.0852C32.0791 17 32.0122 16.8986 31.9635 16.7809C31.9107 16.6632 31.8843 16.5374 31.8843 16.4035ZM34.8974 7.73565L36.2487 9.08696L34.8974 10.4383L33.5461 9.08696L34.8974 7.73565ZM42.1973 17.3652C42.108 17.3652 41.9822 17.3591 41.8199 17.347C41.6576 17.3348 41.4831 17.2901 41.2964 17.213C41.2071 17.7162 41.0387 18.193 40.7912 18.6435C40.5477 19.098 40.2454 19.522 39.8842 19.9157C39.5231 20.3133 39.1112 20.6786 38.6486 21.0113C38.186 21.3441 37.6929 21.6423 37.1695 21.9061L36.0556 20.3661C36.3437 20.22 36.6338 20.0597 36.926 19.8852C37.2182 19.7148 37.4961 19.5322 37.7599 19.3374C38.0277 19.1467 38.2753 18.9458 38.5025 18.7348C38.7338 18.5278 38.9347 18.3128 39.1051 18.0896C39.2756 17.8664 39.4095 17.6371 39.5069 17.4017C39.6042 17.1704 39.6529 16.9351 39.6529 16.6957C39.6529 16.6835 39.6509 16.6652 39.6469 16.6409C39.6469 16.6165 39.6469 16.5922 39.6469 16.5678C39.6469 16.5435 39.6448 16.5252 39.6408 16.513C39.6408 16.5009 39.6408 16.5029 39.6408 16.5191V16.5252C39.6124 16.2899 39.5718 16.0646 39.519 15.8496C39.4663 15.6345 39.3993 15.4154 39.3182 15.1922C39.2411 14.969 39.1498 14.7357 39.0442 14.4922C38.9387 14.2446 38.8211 13.9748 38.6912 13.6826L40.4503 12.9157C40.6127 13.4026 40.7648 13.8084 40.9069 14.133C41.0489 14.4577 41.1869 14.7174 41.3208 14.9122C41.4587 15.107 41.5967 15.2449 41.7347 15.3261C41.8727 15.4032 42.0187 15.4417 42.1729 15.4417H42.2034C42.3373 15.4417 42.4631 15.4681 42.5808 15.5209C42.6985 15.5736 42.7999 15.6446 42.8851 15.7339C42.9744 15.8191 43.0434 15.9206 43.0921 16.0383C43.1448 16.1559 43.1712 16.2797 43.1712 16.4096C43.1712 16.5435 43.1448 16.6693 43.0921 16.787C43.0434 16.9046 42.9744 17.0061 42.8851 17.0913C42.7999 17.1765 42.6985 17.2435 42.5808 17.2922C42.4631 17.3409 42.3353 17.3652 42.1973 17.3652ZM39.5008 9.2513L40.8521 10.6026L39.5008 11.9539L38.1495 10.6026L39.5008 9.2513ZM41.1675 16.4035C41.1675 16.2696 41.1939 16.1438 41.2467 16.0261C41.2954 15.9084 41.3623 15.807 41.4475 15.7217C41.5327 15.6325 41.6342 15.5635 41.7519 15.5148C41.8696 15.4661 41.9954 15.4417 42.1293 15.4417H42.7562H43.0301C43.1803 15.4417 43.3365 15.4357 43.4988 15.4235C43.6652 15.4113 43.8194 15.387 43.9614 15.3504C44.1075 15.3139 44.2354 15.2632 44.3449 15.1983C44.4585 15.1333 44.5397 15.0461 44.5884 14.9365C44.6209 14.8635 44.6371 14.7539 44.6371 14.6078C44.6371 14.5104 44.6087 14.3643 44.5519 14.1696C44.4951 13.9748 44.42 13.7597 44.3267 13.5243C44.2333 13.2849 44.1278 13.0354 44.0101 12.7757C43.8925 12.5159 43.7727 12.2704 43.651 12.0391L45.3919 11.1748C45.5055 11.4304 45.6171 11.7023 45.7267 11.9904C45.8403 12.2786 45.9417 12.5707 46.031 12.867C46.1203 13.1632 46.1913 13.4594 46.244 13.7557C46.3009 14.0478 46.3293 14.3278 46.3293 14.5957C46.3293 15.0055 46.2562 15.3809 46.1101 15.7217C45.9397 16.1032 45.7064 16.4197 45.4101 16.6713C45.1139 16.9188 44.7588 17.1014 44.3449 17.2191C44.1014 17.2881 43.8681 17.3287 43.6449 17.3409C43.4217 17.3571 43.2127 17.3652 43.018 17.3652H42.184H42.1293C41.9954 17.3652 41.8696 17.3409 41.7519 17.2922C41.6342 17.2435 41.5327 17.1745 41.4475 17.0852C41.3623 17 41.2954 16.8986 41.2467 16.7809C41.1939 16.6632 41.1675 16.5374 41.1675 16.4035ZM43.931 17.9191L45.2823 19.2704L43.931 20.6217L42.5797 19.2704L43.931 17.9191ZM53.2761 16.513C52.6999 16.513 52.2048 16.4359 51.7909 16.2817C51.377 16.1235 51.0483 15.9023 50.8048 15.6183C50.6628 15.4357 50.5593 15.2388 50.4944 15.0278C50.4335 14.8128 50.4031 14.6078 50.4031 14.413C50.4031 14.2426 50.4173 14.0884 50.4457 13.9504C50.4741 13.8125 50.5086 13.6948 50.5492 13.5974C50.7115 13.2565 50.9104 12.9583 51.1457 12.7026C51.3851 12.447 51.6327 12.2258 51.8883 12.0391C52.148 11.8484 52.4037 11.6901 52.6553 11.5643C52.9109 11.4386 53.1382 11.3351 53.337 11.2539C53.3289 11.1606 53.3208 11.0652 53.3127 10.9678C53.3086 10.8704 53.3025 10.7771 53.2944 10.6878L53.264 10.3043L55.1631 9.89652C55.1672 9.93304 55.1753 10.0183 55.1875 10.1522C55.2037 10.2861 55.2199 10.4464 55.2361 10.633C55.2564 10.8157 55.2767 11.0125 55.297 11.2235C55.3214 11.4304 55.3417 11.6252 55.3579 11.8078C55.3782 11.9904 55.3944 12.1487 55.4066 12.2826C55.4228 12.4165 55.433 12.4977 55.437 12.5261C55.4979 13.0252 55.5486 13.4351 55.5892 13.7557C55.6338 14.0762 55.6704 14.3319 55.6988 14.5226C55.7312 14.7093 55.7576 14.8452 55.7779 14.9304C55.7982 15.0116 55.8144 15.0664 55.8266 15.0948C55.8875 15.2246 55.9788 15.3159 56.1005 15.3687C56.2263 15.4174 56.3927 15.4417 56.5996 15.4417C56.7295 15.4417 56.8532 15.4661 56.9709 15.5148C57.0886 15.5635 57.1901 15.6325 57.2753 15.7217C57.3646 15.807 57.4356 15.9084 57.4883 16.0261C57.5411 16.1438 57.5675 16.2696 57.5675 16.4035C57.5675 16.5374 57.5411 16.6632 57.4883 16.7809C57.4356 16.8986 57.3646 17 57.2753 17.0852C57.1901 17.1704 57.0886 17.2374 56.9709 17.2861C56.8532 17.3388 56.7295 17.3652 56.5996 17.3652C56.5144 17.3652 56.419 17.3612 56.3135 17.353C56.208 17.349 56.0964 17.3368 55.9788 17.3165C55.8651 17.3003 55.7454 17.2739 55.6196 17.2374C55.4979 17.2049 55.3761 17.1603 55.2544 17.1035C55.084 17.0223 54.9338 16.931 54.804 16.8296C54.6782 16.7241 54.5564 16.5922 54.4388 16.4339C54.2318 16.4623 54.0309 16.4826 53.8361 16.4948C53.6454 16.507 53.4588 16.513 53.2761 16.513ZM53.2396 14.6017C53.3248 14.6017 53.4121 14.5997 53.5014 14.5957C53.5947 14.5875 53.684 14.5794 53.7692 14.5713C53.7489 14.4333 53.7266 14.2791 53.7022 14.1087C53.6819 13.9383 53.6617 13.7557 53.6414 13.5609L53.5805 13.0009C53.4263 13.078 53.2538 13.1713 53.0631 13.2809C52.8724 13.3864 52.6918 13.5 52.5214 13.6217C52.355 13.7394 52.215 13.8612 52.1014 13.987C51.9877 14.1087 51.9309 14.2223 51.9309 14.3278C51.9309 14.3806 51.9756 14.4252 52.0648 14.4617C52.1582 14.4942 52.2718 14.5226 52.4057 14.547C52.5396 14.5672 52.6817 14.5814 52.8318 14.5896C52.9819 14.5977 53.1179 14.6017 53.2396 14.6017ZM55.5914 16.4035C55.5914 16.2696 55.6177 16.1438 55.6705 16.0261C55.7192 15.9084 55.7861 15.807 55.8714 15.7217C55.9566 15.6325 56.058 15.5635 56.1757 15.5148C56.2934 15.4661 56.4192 15.4417 56.5531 15.4417H57.1801H57.454C57.6041 15.4417 57.7603 15.4357 57.9227 15.4235C58.089 15.4113 58.2432 15.387 58.3853 15.3504C58.5314 15.3139 58.6592 15.2632 58.7687 15.1983C58.8824 15.1333 58.9635 15.0461 59.0122 14.9365C59.0447 14.8635 59.0609 14.7539 59.0609 14.6078C59.0609 14.5104 59.0325 14.3643 58.9757 14.1696C58.9189 13.9748 58.8438 13.7597 58.7505 13.5243C58.6572 13.2849 58.5516 13.0354 58.434 12.7757C58.3163 12.5159 58.1966 12.2704 58.0748 12.0391L59.8157 11.1748C59.9293 11.4304 60.0409 11.7023 60.1505 11.9904C60.2641 12.2786 60.3656 12.5707 60.4548 12.867C60.5441 13.1632 60.6151 13.4594 60.6679 13.7557C60.7247 14.0478 60.7531 14.3278 60.7531 14.5957C60.7531 15.0055 60.6801 15.3809 60.534 15.7217C60.3635 16.1032 60.1302 16.4197 59.834 16.6713C59.5377 16.9188 59.1827 17.1014 58.7687 17.2191C58.5253 17.2881 58.2919 17.3287 58.0687 17.3409C57.8456 17.3571 57.6366 17.3652 57.4418 17.3652H56.6079H56.5531C56.4192 17.3652 56.2934 17.3409 56.1757 17.2922C56.058 17.2435 55.9566 17.1745 55.8714 17.0852C55.7861 17 55.7192 16.8986 55.6705 16.7809C55.6177 16.6632 55.5914 16.5374 55.5914 16.4035ZM58.3548 17.9191L59.7061 19.2704L58.3548 20.6217L57.0035 19.2704L58.3548 17.9191ZM66.0547 17.3652C65.9654 17.3652 65.8396 17.3591 65.6773 17.347C65.515 17.3348 65.3405 17.2901 65.1538 17.213C65.0646 17.7162 64.8962 18.193 64.6486 18.6435C64.4051 19.098 64.1028 19.522 63.7417 19.9157C63.3805 20.3133 62.9686 20.6786 62.506 21.0113C62.0434 21.3441 61.5504 21.6423 61.0269 21.9061L59.913 20.3661C60.2011 20.22 60.4912 20.0597 60.7834 19.8852C61.0756 19.7148 61.3536 19.5322 61.6173 19.3374C61.8851 19.1467 62.1327 18.9458 62.3599 18.7348C62.5912 18.5278 62.7921 18.3128 62.9625 18.0896C63.133 17.8664 63.2669 17.6371 63.3643 17.4017C63.4617 17.1704 63.5104 16.9351 63.5104 16.6957C63.5104 16.6835 63.5083 16.6652 63.5043 16.6409C63.5043 16.6165 63.5043 16.5922 63.5043 16.5678C63.5043 16.5435 63.5023 16.5252 63.4982 16.513C63.4982 16.5009 63.4982 16.5029 63.4982 16.5191V16.5252C63.4698 16.2899 63.4292 16.0646 63.3765 15.8496C63.3237 15.6345 63.2567 15.4154 63.1756 15.1922C63.0985 14.969 63.0072 14.7357 62.9017 14.4922C62.7962 14.2446 62.6785 13.9748 62.5486 13.6826L64.3078 12.9157C64.4701 13.4026 64.6223 13.8084 64.7643 14.133C64.9063 14.4577 65.0443 14.7174 65.1782 14.9122C65.3162 15.107 65.4541 15.2449 65.5921 15.3261C65.7301 15.4032 65.8762 15.4417 66.0304 15.4417H66.0608C66.1947 15.4417 66.3205 15.4681 66.4382 15.5209C66.5559 15.5736 66.6573 15.6446 66.7425 15.7339C66.8318 15.8191 66.9008 15.9206 66.9495 16.0383C67.0023 16.1559 67.0286 16.2797 67.0286 16.4096C67.0286 16.5435 67.0023 16.6693 66.9495 16.787C66.9008 16.9046 66.8318 17.0061 66.7425 17.0913C66.6573 17.1765 66.5559 17.2435 66.4382 17.2922C66.3205 17.3409 66.1927 17.3652 66.0547 17.3652ZM65.0341 16.4035C65.0341 16.2696 65.0605 16.1438 65.1133 16.0261C65.162 15.9084 65.2309 15.807 65.3202 15.7217C65.4095 15.6325 65.513 15.5635 65.6306 15.5148C65.7483 15.4661 65.8721 15.4417 66.002 15.4417C66.2008 15.4417 66.3712 15.4275 66.5133 15.3991C66.6553 15.3707 66.773 15.3362 66.8663 15.2957C66.9637 15.251 67.0408 15.2043 67.0976 15.1557C67.1544 15.1029 67.1991 15.0542 67.2315 15.0096L67.2254 15.0157C67.2822 14.9304 67.3391 14.833 67.3959 14.7235C67.4527 14.6099 67.5135 14.4597 67.5785 14.273C67.6475 14.0864 67.7205 13.851 67.7976 13.567C67.8788 13.2788 67.9701 12.9197 68.0715 12.4896L69.6663 13.007C69.6257 13.1612 69.5872 13.3093 69.5506 13.4513C69.5141 13.5893 69.4878 13.7252 69.4715 13.8591C69.4593 13.993 69.4593 14.127 69.4715 14.2609C69.4837 14.3948 69.5182 14.5348 69.575 14.6809C69.7454 14.3968 69.924 14.1168 70.1106 13.8409C70.2973 13.5609 70.4982 13.2971 70.7133 13.0496C70.9324 12.798 71.1678 12.5646 71.4193 12.3496C71.6709 12.1345 71.9469 11.9499 72.2472 11.7957C72.5515 11.6374 72.8822 11.5136 73.2393 11.4243C73.5964 11.331 73.9901 11.2823 74.4202 11.2783C74.9153 11.2742 75.3515 11.3574 75.7289 11.5278C76.1063 11.6942 76.4208 11.9154 76.6724 12.1913C76.928 12.4632 77.1167 12.7736 77.2385 13.1226C77.3602 13.4675 77.413 13.8125 77.3967 14.1574C77.3764 14.5875 77.2649 14.9893 77.062 15.3626C76.8631 15.7359 76.6034 16.0565 76.2828 16.3243C75.9866 16.5557 75.6559 16.7464 75.2906 16.8965C74.9295 17.0467 74.5562 17.1643 74.1706 17.2496C73.7892 17.3388 73.4057 17.3997 73.0202 17.4322C72.6388 17.4687 72.2796 17.487 71.9428 17.487C71.5451 17.487 71.188 17.4748 70.8715 17.4504C70.555 17.4261 70.2588 17.3774 69.9828 17.3043C69.7109 17.2354 69.4533 17.1359 69.2098 17.0061C68.9704 16.8803 68.7289 16.7139 68.4854 16.507C68.1933 16.7991 67.8483 17.0142 67.4506 17.1522C67.057 17.2901 66.5924 17.3612 66.0567 17.3652H66.002C65.8721 17.3652 65.7483 17.3409 65.6306 17.2922C65.513 17.2435 65.4095 17.1745 65.3202 17.0852C65.2309 17 65.162 16.8986 65.1133 16.7809C65.0605 16.6632 65.0341 16.5374 65.0341 16.4035ZM74.3959 13.2139C74.0063 13.2139 73.6309 13.291 73.2698 13.4452C72.9086 13.5954 72.5779 13.7841 72.2776 14.0113C71.9814 14.2386 71.7196 14.482 71.4924 14.7417C71.2692 15.0014 71.0967 15.2409 70.975 15.46C71.1333 15.4681 71.3118 15.4742 71.5106 15.4783C71.7095 15.4823 71.9022 15.4843 72.0889 15.4843C72.3405 15.4843 72.6002 15.4783 72.868 15.4661C73.1399 15.4499 73.4057 15.4235 73.6654 15.387C73.9292 15.3464 74.1808 15.2916 74.4202 15.2226C74.6637 15.1536 74.8828 15.0664 75.0776 14.9609C75.2764 14.8513 75.4449 14.7214 75.5828 14.5713C75.7249 14.4212 75.8243 14.2446 75.8811 14.0417C75.8405 13.7577 75.6883 13.5487 75.4246 13.4148C75.1649 13.2809 74.822 13.2139 74.3959 13.2139ZM73.8724 7.65652L75.2237 9.00783L73.8724 10.3591L72.5211 9.00783L73.8724 7.65652ZM84.284 16.513C83.7077 16.513 83.2127 16.4359 82.7987 16.2817C82.3848 16.1235 82.0561 15.9023 81.8127 15.6183C81.6706 15.4357 81.5671 15.2388 81.5022 15.0278C81.4414 14.8128 81.4109 14.6078 81.4109 14.413C81.4109 14.2426 81.4251 14.0884 81.4535 13.9504C81.4819 13.8125 81.5164 13.6948 81.557 13.5974C81.7193 13.2565 81.9182 12.9583 82.1535 12.7026C82.3929 12.447 82.6405 12.2258 82.8961 12.0391C83.1558 11.8484 83.4115 11.6901 83.6631 11.5643C83.9187 11.4386 84.146 11.3351 84.3448 11.2539C84.3367 11.1606 84.3286 11.0652 84.3205 10.9678C84.3164 10.8704 84.3103 10.7771 84.3022 10.6878L84.2718 10.3043L86.1709 9.89652C86.175 9.93304 86.1831 10.0183 86.1953 10.1522C86.2115 10.2861 86.2277 10.4464 86.244 10.633C86.2643 10.8157 86.2845 11.0125 86.3048 11.2235C86.3292 11.4304 86.3495 11.6252 86.3657 11.8078C86.386 11.9904 86.4022 12.1487 86.4144 12.2826C86.4306 12.4165 86.4408 12.4977 86.4448 12.5261C86.5057 13.0252 86.5564 13.4351 86.597 13.7557C86.6416 14.0762 86.6782 14.3319 86.7066 14.5226C86.739 14.7093 86.7654 14.8452 86.7857 14.9304C86.806 15.0116 86.8222 15.0664 86.8344 15.0948C86.8953 15.2246 86.9866 15.3159 87.1083 15.3687C87.2341 15.4174 87.4005 15.4417 87.6074 15.4417C87.7373 15.4417 87.8611 15.4661 87.9787 15.5148C88.0964 15.5635 88.1979 15.6325 88.2831 15.7217C88.3724 15.807 88.4434 15.9084 88.4961 16.0261C88.5489 16.1438 88.5753 16.2696 88.5753 16.4035C88.5753 16.5374 88.5489 16.6632 88.4961 16.7809C88.4434 16.8986 88.3724 17 88.2831 17.0852C88.1979 17.1704 88.0964 17.2374 87.9787 17.2861C87.8611 17.3388 87.7373 17.3652 87.6074 17.3652C87.5222 17.3652 87.4269 17.3612 87.3214 17.353C87.2158 17.349 87.1043 17.3368 86.9866 17.3165C86.8729 17.3003 86.7532 17.2739 86.6274 17.2374C86.5057 17.2049 86.384 17.1603 86.2622 17.1035C86.0918 17.0223 85.9416 16.931 85.8118 16.8296C85.686 16.7241 85.5643 16.5922 85.4466 16.4339C85.2396 16.4623 85.0387 16.4826 84.844 16.4948C84.6532 16.507 84.4666 16.513 84.284 16.513ZM84.2474 14.6017C84.3327 14.6017 84.4199 14.5997 84.5092 14.5957C84.6025 14.5875 84.6918 14.5794 84.777 14.5713C84.7567 14.4333 84.7344 14.2791 84.71 14.1087C84.6898 13.9383 84.6695 13.7557 84.6492 13.5609L84.5883 13.0009C84.4341 13.078 84.2616 13.1713 84.0709 13.2809C83.8802 13.3864 83.6996 13.5 83.5292 13.6217C83.3628 13.7394 83.2228 13.8612 83.1092 13.987C82.9956 14.1087 82.9387 14.2223 82.9387 14.3278C82.9387 14.3806 82.9834 14.4252 83.0727 14.4617C83.166 14.4942 83.2796 14.5226 83.4135 14.547C83.5474 14.5672 83.6895 14.5814 83.8396 14.5896C83.9898 14.5977 84.1257 14.6017 84.2474 14.6017ZM86.6235 16.4035C86.6235 16.2777 86.6499 16.158 86.7026 16.0443C86.7554 15.9307 86.8284 15.8313 86.9218 15.7461C87.0111 15.6568 87.1186 15.5858 87.2444 15.533C87.3661 15.4803 87.498 15.4499 87.64 15.4417C87.8551 15.4417 88.056 15.4072 88.2426 15.3383C88.4293 15.2652 88.6058 15.1272 88.7722 14.9243C88.9386 14.7214 89.0948 14.4354 89.2409 14.0661C89.387 13.6968 89.527 13.2139 89.6609 12.6174L91.28 12.8487C91.2922 12.8 91.2841 12.8264 91.2557 12.9278C91.2313 13.0293 91.2009 13.1733 91.1644 13.36C91.1319 13.5426 91.0995 13.7496 91.067 13.9809C91.0386 14.2081 91.0244 14.4272 91.0244 14.6383C91.0284 14.8452 91.0528 15.0258 91.0974 15.18C91.1461 15.3301 91.2293 15.4194 91.347 15.4478C91.4728 15.4803 91.5945 15.4559 91.7122 15.3748C91.8299 15.2896 91.9415 15.1699 92.047 15.0157C92.1525 14.8574 92.2499 14.6748 92.3392 14.4678C92.4284 14.2568 92.5096 14.0417 92.5826 13.8226C92.6557 13.6035 92.7186 13.3884 92.7713 13.1774C92.8241 12.9664 92.8647 12.7797 92.8931 12.6174L94.5 12.8487C94.4919 12.9501 94.4777 13.0861 94.4574 13.2565C94.4371 13.4229 94.4209 13.6014 94.4087 13.7922C94.3966 13.9829 94.3905 14.1757 94.3905 14.3704C94.3945 14.5612 94.4168 14.7357 94.4574 14.8939C94.498 15.0481 94.5609 15.1759 94.6461 15.2774C94.7313 15.3748 94.849 15.4235 94.9992 15.4235C95.1331 15.4235 95.2487 15.3788 95.3461 15.2896C95.4435 15.2003 95.5247 15.0846 95.5896 14.9426C95.6586 14.7965 95.7134 14.6322 95.754 14.4496C95.7945 14.2629 95.825 14.0742 95.8453 13.8835C95.8655 13.6928 95.8757 13.5081 95.8757 13.3296C95.8757 13.147 95.8696 12.9867 95.8574 12.8487L97.5009 12.6174L97.7018 14.3339C97.7261 14.5206 97.7789 14.6829 97.86 14.8209C97.9412 14.9588 98.0366 15.0745 98.1461 15.1678C98.2557 15.2571 98.3713 15.3261 98.4931 15.3748C98.6148 15.4194 98.7305 15.4417 98.84 15.4417H98.9131C99.0632 15.4417 99.1992 15.4661 99.3209 15.5148C99.4467 15.5635 99.5542 15.6325 99.6435 15.7217C99.7328 15.807 99.8018 15.9084 99.8505 16.0261C99.8992 16.1438 99.9235 16.2696 99.9235 16.4035C99.9235 16.5374 99.8992 16.6632 99.8505 16.7809C99.8018 16.8986 99.7308 17 99.6374 17.0852C99.5482 17.1704 99.4345 17.2374 99.2966 17.2861C99.1626 17.3388 99.0105 17.3652 98.84 17.3652C98.4464 17.3652 98.0751 17.2962 97.7261 17.1583C97.3771 17.0203 97.0748 16.787 96.8192 16.4583C96.7948 16.4907 96.7705 16.5191 96.7461 16.5435C96.7218 16.5678 96.6995 16.5922 96.6792 16.6165V16.6104C96.46 16.8417 96.2064 17.0243 95.9183 17.1583C95.6342 17.2962 95.3279 17.3652 94.9992 17.3652C94.6299 17.3652 94.289 17.2861 93.9766 17.1278C93.6682 16.9696 93.4105 16.7545 93.2035 16.4826C92.96 16.7504 92.6841 16.9675 92.3757 17.1339C92.0673 17.3003 91.7284 17.3835 91.3592 17.3835C91.0142 17.3835 90.6937 17.3064 90.3974 17.1522C90.1012 16.998 89.8557 16.787 89.6609 16.5191C89.4418 16.8235 89.1699 17.0406 88.8453 17.1704C88.5247 17.3003 88.127 17.3652 87.6522 17.3652C87.498 17.3652 87.358 17.3388 87.2322 17.2861C87.1064 17.2374 86.9989 17.1704 86.9096 17.0852C86.8203 17 86.7513 16.8986 86.7026 16.7809C86.6499 16.6632 86.6235 16.5374 86.6235 16.4035ZM96.04 10.14L94.8713 11.3148L93.7148 10.1583L92.5705 11.3026L91.3896 10.1278L92.5583 8.95304L93.7148 10.1096L94.8592 8.96522L96.04 10.14ZM92.6313 8.37478L93.7148 7.2913L94.8044 8.38087L93.7209 9.46435L92.6313 8.37478ZM98.1856 16.4035C98.1856 16.2655 98.21 16.1377 98.2587 16.02C98.3074 15.9023 98.3763 15.8009 98.4656 15.7157C98.5508 15.6304 98.6523 15.5635 98.77 15.5148C98.8876 15.4661 99.0134 15.4417 99.1474 15.4417H99.5613C99.6424 15.4417 99.7236 15.4438 99.8047 15.4478C99.8859 15.4478 99.9671 15.4478 100.048 15.4478C100.121 15.4478 100.17 15.4499 100.194 15.4539C100.219 15.4539 100.235 15.4559 100.243 15.46C100.255 15.46 100.267 15.46 100.28 15.46C100.296 15.46 100.328 15.4559 100.377 15.4478C100.304 15.3667 100.233 15.2733 100.164 15.1678C100.099 15.0623 100.038 14.9487 99.9813 14.827C99.9285 14.7012 99.8839 14.5693 99.8474 14.4313C99.8108 14.2893 99.7885 14.1412 99.7804 13.987C99.7845 13.6055 99.8494 13.2383 99.9752 12.8852C100.101 12.5281 100.28 12.2035 100.511 11.9113C100.766 11.5948 101.061 11.3472 101.393 11.1687C101.726 10.9901 102.071 10.909 102.428 10.9252C102.781 10.9414 103.11 11.0328 103.414 11.1991C103.719 11.3655 103.98 11.5806 104.2 11.8443C104.423 12.1081 104.597 12.4084 104.723 12.7452C104.853 13.078 104.918 13.4209 104.918 13.7739C104.918 14.0539 104.871 14.3299 104.778 14.6017C104.684 14.8696 104.567 15.1252 104.425 15.3687C104.62 15.389 104.822 15.4072 105.033 15.4235C105.249 15.4357 105.437 15.4417 105.6 15.4417C105.738 15.4417 105.865 15.4661 105.983 15.5148C106.101 15.5635 106.202 15.6304 106.287 15.7157C106.377 15.8009 106.446 15.9023 106.494 16.02C106.543 16.1377 106.567 16.2655 106.567 16.4035C106.567 16.5374 106.543 16.6632 106.494 16.7809C106.446 16.8986 106.377 17 106.287 17.0852C106.202 17.1745 106.101 17.2435 105.983 17.2922C105.865 17.3409 105.738 17.3652 105.6 17.3652H105.545C105.415 17.3652 105.273 17.3612 105.119 17.353C104.964 17.349 104.81 17.3429 104.656 17.3348C104.502 17.3267 104.35 17.3145 104.2 17.2983C104.053 17.2861 103.922 17.2719 103.804 17.2557C103.585 17.2232 103.362 17.1806 103.134 17.1278C102.911 17.0751 102.678 16.9899 102.434 16.8722C102.284 16.9574 102.083 17.0304 101.832 17.0913C101.584 17.1562 101.312 17.207 101.016 17.2435C100.72 17.2841 100.413 17.3145 100.097 17.3348C99.7804 17.3551 99.4801 17.3652 99.1961 17.3652H99.1474C99.0134 17.3652 98.8876 17.3409 98.77 17.2922C98.6523 17.2435 98.5508 17.1745 98.4656 17.0852C98.3763 17 98.3074 16.8986 98.2587 16.7809C98.21 16.6632 98.1856 16.5374 98.1856 16.4035ZM103.305 13.9139C103.305 13.7841 103.272 13.6603 103.207 13.5426C103.146 13.4249 103.069 13.3194 102.976 13.2261C102.887 13.1328 102.789 13.0557 102.684 12.9948C102.578 12.9299 102.483 12.8852 102.398 12.8609C102.304 12.8812 102.197 12.9177 102.075 12.9704C101.958 13.0232 101.844 13.0983 101.734 13.1957C101.629 13.289 101.54 13.4046 101.466 13.5426C101.393 13.6765 101.357 13.8368 101.357 14.0235C101.357 14.0843 101.387 14.1696 101.448 14.2791C101.513 14.3846 101.594 14.4942 101.692 14.6078C101.793 14.7174 101.907 14.8209 102.033 14.9183C102.162 15.0116 102.294 15.0786 102.428 15.1191C102.53 15.0623 102.633 14.9852 102.739 14.8878C102.844 14.7864 102.938 14.6809 103.019 14.5713C103.104 14.4577 103.173 14.3441 103.226 14.2304C103.278 14.1128 103.305 14.0072 103.305 13.9139ZM104.644 8.82522L103.475 10L102.319 8.84348L101.174 9.98783L99.9934 8.81304L101.162 7.63826L102.319 8.79478L103.463 7.65043L104.644 8.82522ZM104.687 16.4035C104.687 16.2696 104.713 16.1438 104.766 16.0261C104.815 15.9084 104.882 15.807 104.967 15.7217C105.052 15.6325 105.154 15.5635 105.271 15.5148C105.389 15.4661 105.515 15.4417 105.649 15.4417H106.276H106.55C106.7 15.4417 106.856 15.4357 107.018 15.4235C107.185 15.4113 107.339 15.387 107.481 15.3504C107.627 15.3139 107.755 15.2632 107.864 15.1983C107.978 15.1333 108.059 15.0461 108.108 14.9365C108.14 14.8635 108.157 14.7539 108.157 14.6078C108.157 14.5104 108.128 14.3643 108.071 14.1696C108.015 13.9748 107.94 13.7597 107.846 13.5243C107.753 13.2849 107.647 13.0354 107.53 12.7757C107.412 12.5159 107.292 12.2704 107.171 12.0391L108.911 11.1748C109.025 11.4304 109.137 11.7023 109.246 11.9904C109.36 12.2786 109.461 12.5707 109.551 12.867C109.64 13.1632 109.711 13.4594 109.764 13.7557C109.82 14.0478 109.849 14.3278 109.849 14.5957C109.849 15.0055 109.776 15.3809 109.63 15.7217C109.459 16.1032 109.226 16.4197 108.93 16.6713C108.633 16.9188 108.278 17.1014 107.864 17.2191C107.621 17.2881 107.388 17.3287 107.164 17.3409C106.941 17.3571 106.732 17.3652 106.537 17.3652H105.704H105.649C105.515 17.3652 105.389 17.3409 105.271 17.2922C105.154 17.2435 105.052 17.1745 104.967 17.0852C104.882 17 104.815 16.8986 104.766 16.7809C104.713 16.6632 104.687 16.5374 104.687 16.4035ZM107.7 7.73565L109.051 9.08696L107.7 10.4383L106.349 9.08696L107.7 7.73565ZM116.487 13.4087C116.402 13.3925 116.304 13.4229 116.195 13.5C116.089 13.573 115.988 13.6745 115.891 13.8043C115.797 13.9301 115.718 14.0701 115.653 14.2243C115.592 14.3786 115.562 14.5267 115.562 14.6687C115.562 14.8026 115.6 14.9142 115.677 15.0035C115.755 15.0928 115.852 15.1658 115.97 15.2226C116.091 15.2794 116.223 15.322 116.365 15.3504C116.511 15.3788 116.651 15.3991 116.785 15.4113H116.779C116.885 15.4194 117.004 15.4255 117.138 15.4296C117.276 15.4296 117.41 15.4296 117.54 15.4296C117.581 15.4296 117.611 15.4316 117.631 15.4357C117.656 15.4357 117.676 15.4357 117.692 15.4357C117.708 15.4357 117.725 15.4357 117.741 15.4357C117.761 15.4357 117.79 15.4336 117.826 15.4296C117.765 15.178 117.692 14.9386 117.607 14.7113C117.526 14.48 117.431 14.273 117.321 14.0904C117.211 13.9078 117.088 13.7577 116.95 13.64C116.812 13.5183 116.657 13.4412 116.487 13.4087ZM113.504 19.7817C114.077 19.6681 114.598 19.5241 115.069 19.3496C115.539 19.1791 115.951 18.9864 116.304 18.7713C116.662 18.5603 116.956 18.3351 117.187 18.0957C117.422 17.8562 117.589 17.6128 117.686 17.3652C117.512 17.3652 117.327 17.3612 117.132 17.353C116.937 17.349 116.777 17.3429 116.651 17.3348C116.181 17.2942 115.751 17.1887 115.361 17.0183C114.971 16.8519 114.661 16.6246 114.43 16.3365C114.259 16.1174 114.137 15.88 114.064 15.6243C113.995 15.3687 113.961 15.0988 113.961 14.8148C113.961 14.5957 113.981 14.3765 114.022 14.1574C114.062 13.9342 114.119 13.7191 114.192 13.5122C114.265 13.3012 114.351 13.1023 114.448 12.9157C114.549 12.729 114.657 12.5586 114.771 12.4043C115.014 12.1 115.28 11.8707 115.568 11.7165C115.86 11.5583 116.166 11.4791 116.487 11.4791C117.173 11.4791 117.792 11.7794 118.344 12.38C118.538 12.5991 118.713 12.8446 118.867 13.1165C119.021 13.3884 119.151 13.6786 119.257 13.987C119.366 14.2913 119.449 14.6119 119.506 14.9487C119.563 15.2814 119.591 15.6203 119.591 15.9652C119.591 16.0707 119.587 16.1762 119.579 16.2817C119.575 16.3872 119.569 16.4867 119.561 16.58C119.512 17.0548 119.405 17.4991 119.238 17.913C119.076 18.331 118.865 18.7145 118.605 19.0635C118.35 19.4165 118.051 19.7351 117.711 20.0191C117.37 20.3072 116.998 20.5588 116.597 20.7739C116.199 20.993 115.777 21.1757 115.331 21.3217C114.884 21.4678 114.426 21.5774 113.955 21.6504L113.504 19.7817ZM123.172 12.9035C123.326 13.3417 123.46 13.7699 123.573 14.1878C123.622 14.3704 123.671 14.5612 123.719 14.76C123.768 14.9548 123.811 15.1516 123.847 15.3504C123.888 15.5452 123.92 15.738 123.945 15.9287C123.969 16.1154 123.981 16.2899 123.981 16.4522C123.981 16.8336 123.928 17.2049 123.823 17.5661C123.721 17.9313 123.575 18.2843 123.385 18.6252C123.198 18.9661 122.975 19.2928 122.715 19.6052C122.455 19.9217 122.167 20.218 121.851 20.4939C121.534 20.7699 121.195 21.0255 120.834 21.2609C120.473 21.5003 120.1 21.7154 119.714 21.9061L118.606 20.3661C118.899 20.22 119.195 20.0536 119.495 19.867C119.791 19.6843 120.075 19.4875 120.347 19.2765C120.623 19.0655 120.879 18.8443 121.114 18.613C121.354 18.3817 121.561 18.1464 121.735 17.907C121.914 17.6675 122.054 17.4241 122.155 17.1765C122.256 16.933 122.307 16.6936 122.307 16.4583C122.307 16.2878 122.283 16.1032 122.234 15.9043C122.19 15.7055 122.127 15.4925 122.045 15.2652C121.968 15.0339 121.875 14.7904 121.765 14.5348C121.656 14.2751 121.538 13.9991 121.412 13.707L123.172 12.9035ZM132.496 21.3339C132.118 21.3339 131.729 21.3116 131.327 21.267C130.929 21.2264 130.544 21.1472 130.17 21.0296C129.801 20.9119 129.456 20.7455 129.136 20.5304C128.815 20.3194 128.545 20.0435 128.326 19.7026C128.119 19.3739 127.959 19.0128 127.845 18.6191C127.731 18.2255 127.675 17.7852 127.675 17.2983C127.675 16.9412 127.689 16.6023 127.717 16.2817C127.75 15.9571 127.798 15.6365 127.863 15.32C127.928 15.0035 128.011 14.6829 128.113 14.3583C128.218 14.0336 128.344 13.6887 128.49 13.3235L130.055 13.9748C129.937 14.267 129.836 14.5307 129.75 14.7661C129.669 15.0014 129.6 15.2165 129.543 15.4113C129.487 15.602 129.442 15.7786 129.409 15.9409C129.377 16.1032 129.353 16.2594 129.336 16.4096C129.32 16.5557 129.31 16.7017 129.306 16.8478C129.302 16.9899 129.3 17.14 129.3 17.2983C129.3 17.6026 129.349 17.8664 129.446 18.0896C129.543 18.3128 129.675 18.5014 129.842 18.6557C130.008 18.8099 130.199 18.9357 130.414 19.033C130.633 19.1345 130.86 19.2116 131.096 19.2643C131.331 19.3171 131.568 19.3536 131.808 19.3739C132.051 19.3942 132.28 19.4043 132.496 19.4043C132.601 19.4043 132.757 19.3962 132.964 19.38C133.171 19.3678 133.396 19.3435 133.64 19.307C133.887 19.2745 134.139 19.2299 134.395 19.173C134.654 19.1162 134.89 19.0452 135.101 18.96C135.312 18.8788 135.484 18.7814 135.618 18.6678C135.752 18.5583 135.819 18.4284 135.819 18.2783C135.819 18.262 135.785 18.2336 135.716 18.193C135.651 18.1525 135.559 18.1038 135.442 18.047C135.328 17.9942 135.194 17.9333 135.04 17.8643C134.89 17.7994 134.727 17.7325 134.553 17.6635H134.559C134.364 17.6026 134.159 17.5499 133.944 17.5052C133.733 17.4646 133.524 17.4281 133.317 17.3957C133.285 17.3916 133.242 17.3855 133.189 17.3774C133.141 17.3693 133.09 17.3591 133.037 17.347C132.985 17.3388 132.932 17.3287 132.879 17.3165C132.83 17.3084 132.79 17.3003 132.757 17.2922L133.007 15.4417H137.889C138.018 15.4417 138.142 15.4661 138.26 15.5148C138.378 15.5635 138.479 15.6325 138.564 15.7217C138.654 15.807 138.725 15.9084 138.777 16.0261C138.83 16.1438 138.856 16.2696 138.856 16.4035C138.856 16.5374 138.83 16.6632 138.777 16.7809C138.725 16.8986 138.654 17 138.564 17.0852C138.479 17.1745 138.378 17.2435 138.26 17.2922C138.142 17.3409 138.018 17.3652 137.889 17.3652H137.213C137.298 17.5275 137.359 17.6899 137.396 17.8522C137.436 18.0186 137.458 18.1606 137.462 18.2783C137.442 18.6597 137.345 18.9986 137.17 19.2948C137 19.5951 136.779 19.8588 136.507 20.0861C136.235 20.3133 135.927 20.5061 135.582 20.6643C135.237 20.8226 134.884 20.9504 134.522 21.0478C134.161 21.1493 133.804 21.2223 133.451 21.267C133.102 21.3116 132.784 21.3339 132.496 21.3339ZM136.98 16.4035C136.98 16.2696 137.006 16.1438 137.059 16.0261C137.108 15.9084 137.175 15.807 137.26 15.7217C137.345 15.6325 137.447 15.5635 137.564 15.5148C137.682 15.4661 137.808 15.4417 137.942 15.4417H138.569H138.843C138.993 15.4417 139.149 15.4357 139.311 15.4235C139.478 15.4113 139.632 15.387 139.774 15.3504C139.92 15.3139 140.048 15.2632 140.157 15.1983C140.271 15.1333 140.352 15.0461 140.401 14.9365C140.433 14.8635 140.45 14.7539 140.45 14.6078C140.45 14.5104 140.421 14.3643 140.364 14.1696C140.308 13.9748 140.232 13.7597 140.139 13.5243C140.046 13.2849 139.94 13.0354 139.823 12.7757C139.705 12.5159 139.585 12.2704 139.464 12.0391L141.204 11.1748C141.318 11.4304 141.43 11.7023 141.539 11.9904C141.653 12.2786 141.754 12.5707 141.844 12.867C141.933 13.1632 142.004 13.4594 142.057 13.7557C142.113 14.0478 142.142 14.3278 142.142 14.5957C142.142 15.0055 142.069 15.3809 141.923 15.7217C141.752 16.1032 141.519 16.4197 141.223 16.6713C140.926 16.9188 140.571 17.1014 140.157 17.2191C139.914 17.2881 139.681 17.3287 139.457 17.3409C139.234 17.3571 139.025 17.3652 138.83 17.3652H137.997H137.942C137.808 17.3652 137.682 17.3409 137.564 17.2922C137.447 17.2435 137.345 17.1745 137.26 17.0852C137.175 17 137.108 16.8986 137.059 16.7809C137.006 16.6632 136.98 16.5374 136.98 16.4035ZM139.744 17.9191L141.095 19.2704L139.744 20.6217L138.392 19.2704L139.744 17.9191ZM146.238 17.3652C145.739 17.3652 145.311 17.3023 144.954 17.1765C144.597 17.0548 144.288 16.8661 144.029 16.6104C143.866 16.4481 143.74 16.2777 143.651 16.0991C143.566 15.9206 143.503 15.7461 143.463 15.5757C143.426 15.4012 143.404 15.2368 143.396 15.0826C143.392 14.9284 143.389 14.7965 143.389 14.687V14.5957C143.394 14.4455 143.398 14.2304 143.402 13.9504C143.41 13.6664 143.414 13.3336 143.414 12.9522C143.414 12.5707 143.412 12.1507 143.408 11.6922C143.404 11.2336 143.392 10.7771 143.371 10.3226C143.355 9.86406 143.329 9.42377 143.292 9.00174C143.26 8.57971 143.213 8.21246 143.152 7.9L144.972 7.34609C145.025 7.61391 145.067 7.93043 145.1 8.29565C145.132 8.65681 145.159 9.03623 145.179 9.43391C145.203 9.83159 145.22 10.2313 145.228 10.633C145.24 11.0348 145.248 11.4081 145.252 11.753C145.256 12.0574 145.244 12.3557 145.216 12.6478C145.191 12.9359 145.171 13.22 145.155 13.5C145.138 13.7759 145.138 14.0458 145.155 14.3096C145.175 14.5693 145.232 14.8229 145.325 15.0704C145.362 15.1638 145.406 15.2348 145.459 15.2835C145.516 15.3322 145.581 15.3687 145.654 15.393C145.727 15.4133 145.806 15.4255 145.891 15.4296C145.98 15.4336 146.078 15.4357 146.183 15.4357H146.238C146.368 15.4357 146.492 15.462 146.609 15.5148C146.727 15.5675 146.829 15.6386 146.914 15.7278C147.003 15.813 147.074 15.9145 147.127 16.0322C147.18 16.1499 147.206 16.2736 147.206 16.4035C147.206 16.5374 147.18 16.6632 147.127 16.7809C147.074 16.8986 147.003 17 146.914 17.0852C146.829 17.1745 146.727 17.2435 146.609 17.2922C146.492 17.3409 146.368 17.3652 146.238 17.3652ZM145.261 16.4096C145.261 16.2797 145.287 16.1559 145.34 16.0383C145.389 15.9206 145.458 15.8191 145.547 15.7339C145.632 15.6446 145.733 15.5736 145.851 15.5209C145.969 15.4681 146.095 15.4417 146.229 15.4417H147.342C147.789 15.4417 148.27 15.3991 148.785 15.3139C149.3 15.2246 149.816 15.109 150.331 14.967C150.851 14.8249 151.352 14.6667 151.835 14.4922C152.322 14.3136 152.758 14.133 153.143 13.9504C152.892 13.8896 152.612 13.8043 152.303 13.6948C151.995 13.5852 151.682 13.4777 151.366 13.3722C151.049 13.2667 150.741 13.1774 150.441 13.1043C150.144 13.0272 149.879 12.9907 149.643 12.9948C149.493 12.9988 149.347 13.0313 149.205 13.0922C149.067 13.149 148.937 13.222 148.815 13.3113C148.698 13.3965 148.59 13.4899 148.493 13.5913C148.4 13.6887 148.318 13.782 148.249 13.8713C148.18 13.9565 148.126 14.0296 148.085 14.0904C148.049 14.1472 148.03 14.1757 148.03 14.1757L146.588 13.3478C146.75 13.0475 146.945 12.7594 147.172 12.4835C147.399 12.2035 147.647 11.958 147.915 11.747C148.182 11.5319 148.462 11.3614 148.755 11.2357C149.051 11.1099 149.347 11.049 149.643 11.053C149.862 11.0571 150.08 11.0835 150.295 11.1322C150.514 11.1809 150.733 11.2438 150.952 11.3209C151.171 11.3939 151.392 11.4812 151.615 11.5826C151.839 11.68 152.064 11.7814 152.291 11.887C152.522 12.0006 152.778 12.1122 153.058 12.2217C153.342 12.3313 153.636 12.4287 153.941 12.5139C154.249 12.5991 154.562 12.6681 154.878 12.7209C155.199 12.7736 155.511 12.8 155.815 12.8L155.499 14.5957C155.406 14.6362 155.3 14.6849 155.182 14.7417C155.069 14.7945 154.967 14.8432 154.878 14.8878L154.72 14.967C154.813 15.0765 154.931 15.1638 155.073 15.2287C155.219 15.2936 155.367 15.3423 155.517 15.3748C155.671 15.4032 155.818 15.4214 155.955 15.4296C156.098 15.4377 156.209 15.4417 156.29 15.4417H156.375C156.509 15.4417 156.635 15.4681 156.753 15.5209C156.871 15.5736 156.972 15.6446 157.057 15.7339C157.146 15.8191 157.215 15.9206 157.264 16.0383C157.317 16.1559 157.343 16.2797 157.343 16.4096C157.343 16.5435 157.317 16.6693 157.264 16.787C157.215 16.9046 157.146 17.0061 157.057 17.0913C156.972 17.1765 156.871 17.2435 156.753 17.2922C156.635 17.3409 156.509 17.3652 156.375 17.3652H156.29C155.901 17.3652 155.533 17.3307 155.189 17.2617C154.848 17.1928 154.535 17.0933 154.251 16.9635C153.971 16.8296 153.722 16.6693 153.502 16.4826C153.283 16.2919 153.103 16.0768 152.961 15.8374C152.559 16.0322 152.141 16.2229 151.707 16.4096C151.273 16.5922 150.822 16.7545 150.355 16.8965C149.889 17.0386 149.404 17.1522 148.901 17.2374C148.402 17.3267 147.882 17.3713 147.342 17.3713L146.229 17.3652C146.095 17.3652 145.969 17.3409 145.851 17.2922C145.733 17.2435 145.632 17.1765 145.547 17.0913C145.458 17.0061 145.389 16.9046 145.34 16.787C145.287 16.6693 145.261 16.5435 145.261 16.4096ZM149.613 7.82696L150.964 9.17826L149.613 10.5296L148.262 9.17826L149.613 7.82696ZM155.382 16.4035C155.382 16.2696 155.407 16.1438 155.455 16.0261C155.504 15.9084 155.573 15.807 155.662 15.7217C155.748 15.6325 155.849 15.5635 155.967 15.5148C156.084 15.4661 156.21 15.4417 156.344 15.4417H156.807C157.099 15.4417 157.379 15.4296 157.647 15.4052C157.919 15.3809 158.158 15.3301 158.365 15.253C158.572 15.1719 158.738 15.0603 158.864 14.9183C158.994 14.7722 159.063 14.5794 159.071 14.34C159.075 14.2507 159.075 14.1777 159.071 14.1209C159.071 14.06 159.061 13.989 159.041 13.9078C159.02 13.8226 158.99 13.713 158.949 13.5791C158.913 13.4412 158.86 13.2484 158.791 13.0009L160.562 12.5017C160.639 12.6965 160.71 12.9542 160.775 13.2748C160.84 13.5954 160.889 13.9464 160.922 14.3278C160.93 14.4496 160.944 14.5754 160.964 14.7052C160.984 14.8351 161.017 14.9548 161.062 15.0643C161.11 15.1739 161.175 15.2652 161.256 15.3383C161.337 15.4072 161.443 15.4417 161.573 15.4417C161.707 15.4417 161.833 15.4661 161.95 15.5148C162.068 15.5635 162.169 15.6325 162.255 15.7217C162.344 15.807 162.413 15.9084 162.462 16.0261C162.514 16.1438 162.541 16.2696 162.541 16.4035C162.541 16.5374 162.514 16.6632 162.462 16.7809C162.413 16.8986 162.344 17 162.255 17.0852C162.165 17.1745 162.062 17.2435 161.944 17.2922C161.83 17.3409 161.709 17.3652 161.579 17.3652C161.189 17.3652 160.855 17.3043 160.575 17.1826C160.299 17.0649 160.061 16.9107 159.862 16.72C159.68 16.8417 159.469 16.9432 159.229 17.0243C158.994 17.1055 158.742 17.1704 158.475 17.2191C158.207 17.2719 157.931 17.3084 157.647 17.3287C157.363 17.353 157.083 17.3652 156.807 17.3652H156.344C156.21 17.3652 156.084 17.3409 155.967 17.2922C155.849 17.2435 155.748 17.1745 155.662 17.0852C155.573 17 155.504 16.8986 155.455 16.7809C155.407 16.6632 155.382 16.5374 155.382 16.4035ZM161.427 10.5357L160.258 11.7104L159.102 10.5539L157.957 11.6983L156.776 10.5235L157.945 9.3487L159.102 10.5052L160.246 9.36087L161.427 10.5357ZM160.673 16.4035C160.673 16.2696 160.7 16.1438 160.753 16.0261C160.801 15.9084 160.868 15.807 160.953 15.7217C161.039 15.6325 161.14 15.5635 161.258 15.5148C161.375 15.4661 161.501 15.4417 161.635 15.4417H162.262H162.536C162.686 15.4417 162.842 15.4357 163.005 15.4235C163.171 15.4113 163.325 15.387 163.467 15.3504C163.613 15.3139 163.741 15.2632 163.851 15.1983C163.964 15.1333 164.046 15.0461 164.094 14.9365C164.127 14.8635 164.143 14.7539 164.143 14.6078C164.143 14.5104 164.115 14.3643 164.058 14.1696C164.001 13.9748 163.926 13.7597 163.833 13.5243C163.739 13.2849 163.634 13.0354 163.516 12.7757C163.398 12.5159 163.279 12.2704 163.157 12.0391L164.898 11.1748C165.011 11.4304 165.123 11.7023 165.233 11.9904C165.346 12.2786 165.448 12.5707 165.537 12.867C165.626 13.1632 165.697 13.4594 165.75 13.7557C165.807 14.0478 165.835 14.3278 165.835 14.5957C165.835 15.0055 165.762 15.3809 165.616 15.7217C165.446 16.1032 165.212 16.4197 164.916 16.6713C164.62 16.9188 164.265 17.1014 163.851 17.2191C163.607 17.2881 163.374 17.3287 163.151 17.3409C162.928 17.3571 162.719 17.3652 162.524 17.3652H161.69H161.635C161.501 17.3652 161.375 17.3409 161.258 17.2922C161.14 17.2435 161.039 17.1745 160.953 17.0852C160.868 17 160.801 16.8986 160.753 16.7809C160.7 16.6632 160.673 16.5374 160.673 16.4035ZM163.686 7.73565L165.038 9.08696L163.686 10.4383L162.335 9.08696L163.686 7.73565ZM166.738 17.3835C166.758 17.0507 166.778 16.7058 166.799 16.3487C166.819 15.9916 166.835 15.6386 166.847 15.2896C166.863 14.9406 166.874 14.6017 166.878 14.273C166.882 13.9443 166.878 13.642 166.865 13.3661C166.841 12.7899 166.817 12.2846 166.792 11.8504C166.772 11.4122 166.75 11.0246 166.725 10.6878C166.705 10.351 166.683 10.0568 166.659 9.80522C166.638 9.54957 166.616 9.31623 166.592 9.10522C166.567 8.8942 166.541 8.69739 166.512 8.51478C166.484 8.32812 166.454 8.13536 166.421 7.93652L168.302 7.31565C168.391 7.85942 168.462 8.40725 168.515 8.95913C168.572 9.51101 168.614 10.0406 168.643 10.5478C168.671 11.051 168.69 11.5197 168.698 11.9539C168.71 12.3881 168.716 12.7594 168.716 13.0678C168.716 13.3478 168.714 13.6501 168.71 13.9748C168.71 14.2994 168.706 14.6362 168.698 14.9852C168.694 15.3342 168.685 15.6872 168.673 16.0443C168.661 16.4014 168.643 16.7504 168.619 17.0913L166.738 17.3835ZM187.799 10.9435C187.824 10.9922 187.866 11.0814 187.927 11.2113C187.992 11.3371 188.065 11.4913 188.146 11.6739C188.227 11.8525 188.313 12.0533 188.402 12.2765C188.491 12.4997 188.572 12.7351 188.645 12.9826C188.718 13.2261 188.777 13.4757 188.822 13.7313C188.87 13.9829 188.895 14.2304 188.895 14.4739C188.891 14.8757 188.83 15.251 188.712 15.6C188.599 15.949 188.43 16.2533 188.207 16.513C187.984 16.7687 187.708 16.9716 187.379 17.1217C187.05 17.2719 186.671 17.347 186.241 17.347C185.868 17.347 185.561 17.2841 185.322 17.1583C185.086 17.0325 184.892 16.86 184.737 16.6409C184.652 16.7504 184.561 16.8499 184.464 16.9391C184.366 17.0243 184.25 17.0974 184.117 17.1583C183.987 17.2232 183.833 17.2719 183.654 17.3043C183.479 17.3368 183.27 17.353 183.027 17.353C182.857 17.353 182.7 17.3409 182.558 17.3165C182.416 17.2922 182.286 17.2617 182.169 17.2252C182.165 17.7 182.092 18.1322 181.95 18.5217C181.812 18.9113 181.621 19.2603 181.377 19.5687C181.138 19.8771 180.856 20.1449 180.531 20.3722C180.207 20.5994 179.858 20.7861 179.484 20.9322C179.111 21.0823 178.719 21.1939 178.31 21.267C177.904 21.34 177.5 21.3765 177.098 21.3765C176.477 21.3765 175.903 21.273 175.376 21.0661C174.848 20.8632 174.392 20.5751 174.006 20.2017C173.625 19.8325 173.326 19.3861 173.111 18.8626C172.896 18.3432 172.789 17.769 172.789 17.14C172.801 16.7748 172.85 16.4014 172.935 16.02C173.024 15.6386 173.136 15.2652 173.27 14.9C173.408 14.5348 173.56 14.1878 173.726 13.8591C173.897 13.5264 174.069 13.2281 174.244 12.9643L175.57 13.987C175.424 14.2264 175.282 14.48 175.144 14.7478C175.006 15.0116 174.885 15.2835 174.779 15.5635C174.674 15.8394 174.588 16.1154 174.524 16.3913C174.459 16.6672 174.426 16.933 174.426 17.1887C174.414 17.4971 174.475 17.7872 174.609 18.0591C174.747 18.331 174.935 18.5684 175.175 18.7713C175.418 18.9783 175.702 19.1406 176.027 19.2583C176.356 19.3759 176.705 19.4348 177.074 19.4348C177.492 19.4348 177.877 19.3962 178.23 19.3191C178.588 19.242 178.902 19.1345 179.174 18.9965C179.45 18.8626 179.681 18.6983 179.868 18.5035C180.055 18.3128 180.188 18.1017 180.27 17.8704L180.264 17.8765C180.365 17.5438 180.416 17.2009 180.416 16.8478C180.416 16.5759 180.377 16.3 180.3 16.02C180.223 15.74 180.124 15.458 180.002 15.1739C179.88 14.8858 179.744 14.5977 179.594 14.3096C179.448 14.0174 179.304 13.7252 179.162 13.433L180.83 12.4957C180.935 12.7351 181.041 12.9765 181.146 13.22C181.252 13.4635 181.357 13.6968 181.463 13.92C181.572 14.1391 181.684 14.3441 181.797 14.5348C181.911 14.7255 182.029 14.8899 182.15 15.0278C182.272 15.1617 182.398 15.2632 182.528 15.3322C182.662 15.4012 182.804 15.4255 182.954 15.4052C183.124 15.3809 183.262 15.322 183.368 15.2287C183.473 15.1313 183.553 15.0116 183.605 14.8696C183.662 14.7275 183.697 14.5693 183.709 14.3948C183.725 14.2162 183.729 14.0357 183.721 13.853C183.713 13.6704 183.699 13.4899 183.678 13.3113C183.662 13.1328 183.648 12.9684 183.636 12.8183L185.316 12.593C185.344 12.7188 185.368 12.871 185.389 13.0496C185.409 13.2241 185.431 13.4087 185.456 13.6035C185.484 13.7983 185.519 13.9951 185.559 14.1939C185.6 14.3928 185.655 14.5774 185.724 14.7478C185.793 14.9183 185.878 15.0664 185.979 15.1922C186.081 15.318 186.208 15.4072 186.363 15.46C186.488 15.46 186.606 15.4377 186.716 15.393C186.825 15.3443 186.921 15.2754 187.002 15.1861C187.083 15.0968 187.146 14.9872 187.19 14.8574C187.239 14.7235 187.264 14.5693 187.264 14.3948C187.264 14.2487 187.235 14.0803 187.178 13.8896C187.126 13.6948 187.053 13.4858 186.959 13.2626C186.866 13.0394 186.756 12.8061 186.631 12.5626C186.509 12.3151 186.379 12.0655 186.241 11.8139L187.799 10.9435ZM192.611 12.9035C192.765 13.3417 192.899 13.7699 193.013 14.1878C193.061 14.3704 193.11 14.5612 193.159 14.76C193.208 14.9548 193.25 15.1516 193.287 15.3504C193.327 15.5452 193.36 15.738 193.384 15.9287C193.408 16.1154 193.421 16.2899 193.421 16.4522C193.421 16.8336 193.368 17.2049 193.262 17.5661C193.161 17.9313 193.015 18.2843 192.824 18.6252C192.637 18.9661 192.414 19.2928 192.154 19.6052C191.895 19.9217 191.607 20.218 191.29 20.4939C190.974 20.7699 190.635 21.0255 190.274 21.2609C189.912 21.5003 189.539 21.7154 189.154 21.9061L188.046 20.3661C188.338 20.22 188.634 20.0536 188.934 19.867C189.231 19.6843 189.515 19.4875 189.787 19.2765C190.063 19.0655 190.318 18.8443 190.554 18.613C190.793 18.3817 191 18.1464 191.174 17.907C191.353 17.6675 191.493 17.4241 191.594 17.1765C191.696 16.933 191.747 16.6936 191.747 16.4583C191.747 16.2878 191.722 16.1032 191.674 15.9043C191.629 15.7055 191.566 15.4925 191.485 15.2652C191.408 15.0339 191.314 14.7904 191.205 14.5348C191.095 14.2751 190.978 13.9991 190.852 13.707L192.611 12.9035ZM194.489 14.5226C194.659 14.6322 194.858 14.7417 195.085 14.8513C195.317 14.9609 195.552 15.0623 195.791 15.1557C196.035 15.2449 196.27 15.318 196.498 15.3748C196.725 15.4316 196.922 15.46 197.088 15.46C197.149 15.46 197.228 15.458 197.325 15.4539C197.423 15.4458 197.524 15.4336 197.63 15.4174C197.739 15.3971 197.849 15.3728 197.958 15.3443C198.068 15.3119 198.167 15.2713 198.257 15.2226C198.35 15.1739 198.425 15.1171 198.482 15.0522C198.539 14.9832 198.569 14.902 198.573 14.8087C198.577 14.6504 198.529 14.4719 198.427 14.273C198.33 14.0742 198.196 13.8672 198.025 13.6522C197.859 13.433 197.664 13.2139 197.441 12.9948C197.222 12.7716 196.995 12.5586 196.759 12.3557C196.524 12.1487 196.289 11.958 196.053 11.7835C195.818 11.6049 195.601 11.4528 195.402 11.327L196.479 9.72609C196.873 10.002 197.262 10.3104 197.648 10.6513C198.038 10.9922 198.397 11.3554 198.725 11.7409C199.054 12.1223 199.338 12.518 199.578 12.9278C199.817 13.3377 199.989 13.7475 200.095 14.1574C200.127 14.2751 200.15 14.3948 200.162 14.5165C200.174 14.6342 200.18 14.7478 200.18 14.8574C200.18 15.2348 200.107 15.5817 199.961 15.8983C199.815 16.2107 199.61 16.4826 199.346 16.7139C199.087 16.9412 198.774 17.1177 198.409 17.2435C198.044 17.3693 197.642 17.4322 197.204 17.4322C197.171 17.4322 197.139 17.4301 197.106 17.4261C197.074 17.4261 197.041 17.4261 197.009 17.4261C196.729 17.4261 196.441 17.3957 196.145 17.3348C195.852 17.278 195.562 17.2009 195.274 17.1035C194.99 17.0061 194.712 16.8925 194.44 16.7626C194.172 16.6328 193.923 16.4968 193.691 16.3548L194.489 14.5226ZM201.638 17.3835C201.659 17.071 201.677 16.7443 201.693 16.4035C201.713 16.0626 201.73 15.7258 201.742 15.393C201.754 15.0603 201.764 14.7377 201.772 14.4252C201.78 14.1087 201.784 13.8206 201.784 13.5609C201.784 12.8832 201.774 12.3009 201.754 11.8139C201.734 11.327 201.709 10.911 201.681 10.5661C201.652 10.2171 201.62 9.92696 201.583 9.69565C201.551 9.46029 201.521 9.25333 201.492 9.07478L201.413 8.61217L203.306 8.00956C203.322 8.06638 203.336 8.11913 203.349 8.16783C203.361 8.21652 203.371 8.27536 203.379 8.34435C203.391 8.40928 203.403 8.49043 203.416 8.58783C203.432 8.68522 203.448 8.81304 203.464 8.9713C203.481 9.12956 203.499 9.32232 203.519 9.54956C203.543 9.77681 203.572 10.0548 203.604 10.3835C203.625 10.7 203.641 10.9841 203.653 11.2357C203.669 11.4872 203.681 11.7328 203.69 11.9722C203.698 12.2116 203.704 12.4591 203.708 12.7148C203.712 12.9664 203.714 13.2525 203.714 13.573C203.714 14.1006 203.706 14.6606 203.69 15.253C203.673 15.8414 203.643 16.4603 203.598 17.1096L201.638 17.3835ZM200.013 7.63826C200.013 7.61391 200.027 7.56928 200.056 7.50435C200.08 7.43536 200.11 7.36232 200.147 7.28522C200.179 7.20812 200.212 7.1371 200.244 7.07217C200.277 7.00319 200.299 6.95855 200.311 6.93826C200.457 6.71507 200.628 6.53246 200.823 6.39043C201.021 6.24841 201.218 6.15507 201.413 6.11043C201.454 6.10232 201.504 6.09826 201.565 6.09826C201.626 6.0942 201.675 6.09217 201.711 6.09217C201.906 6.09217 202.083 6.11652 202.241 6.16522C202.399 6.20985 202.541 6.26058 202.667 6.31739L202.856 6.4087C202.925 6.44116 202.994 6.47159 203.063 6.5C203.132 6.52435 203.205 6.53855 203.282 6.54261C203.347 6.54667 203.414 6.53043 203.483 6.49391C203.552 6.45739 203.619 6.4087 203.683 6.34783C203.752 6.2829 203.817 6.21188 203.878 6.13478C203.943 6.05768 204.004 5.98058 204.061 5.90348L205.01 6.51826C205.006 6.53043 204.984 6.56898 204.943 6.63391C204.903 6.69478 204.844 6.76985 204.767 6.85913C204.694 6.94841 204.605 7.04377 204.499 7.14522C204.398 7.24261 204.282 7.33391 204.152 7.41913C204.022 7.50029 203.88 7.56725 203.726 7.62C203.576 7.67275 203.416 7.6971 203.245 7.69304C203.119 7.70116 202.992 7.67681 202.862 7.62C202.732 7.55913 202.598 7.49623 202.46 7.4313C202.326 7.36232 202.188 7.30551 202.046 7.26087C201.904 7.21217 201.756 7.20406 201.602 7.23652C201.508 7.25681 201.431 7.29333 201.37 7.34609C201.314 7.39478 201.265 7.45362 201.224 7.52261C201.184 7.58754 201.149 7.65855 201.121 7.73565C201.092 7.81275 201.062 7.88783 201.03 7.96087L200.013 7.63826ZM213.314 17.3652C213.225 17.3652 213.099 17.3591 212.937 17.347C212.775 17.3348 212.6 17.2901 212.414 17.213C212.324 17.7162 212.156 18.193 211.908 18.6435C211.665 19.098 211.363 19.522 211.001 19.9157C210.64 20.3133 210.228 20.6786 209.766 21.0113C209.303 21.3441 208.81 21.6423 208.287 21.9061L207.173 20.3661C207.461 20.22 207.751 20.0597 208.043 19.8852C208.335 19.7148 208.613 19.5322 208.877 19.3374C209.145 19.1467 209.392 18.9458 209.62 18.7348C209.851 18.5278 210.052 18.3128 210.222 18.0896C210.393 17.8664 210.527 17.6371 210.624 17.4017C210.721 17.1704 210.77 16.9351 210.77 16.6957C210.77 16.6835 210.768 16.6652 210.764 16.6409C210.764 16.6165 210.764 16.5922 210.764 16.5678C210.764 16.5435 210.762 16.5252 210.758 16.513C210.758 16.5009 210.758 16.5029 210.758 16.5191V16.5252C210.73 16.2899 210.689 16.0646 210.636 15.8496C210.583 15.6345 210.517 15.4154 210.435 15.1922C210.358 14.969 210.267 14.7357 210.161 14.4922C210.056 14.2446 209.938 13.9748 209.808 13.6826L211.568 12.9157C211.73 13.4026 211.882 13.8084 212.024 14.133C212.166 14.4577 212.304 14.7174 212.438 14.9122C212.576 15.107 212.714 15.2449 212.852 15.3261C212.99 15.4032 213.136 15.4417 213.29 15.4417H213.321C213.454 15.4417 213.58 15.4681 213.698 15.5209C213.816 15.5736 213.917 15.6446 214.002 15.7339C214.092 15.8191 214.161 15.9206 214.209 16.0383C214.262 16.1559 214.288 16.2797 214.288 16.4096C214.288 16.5435 214.262 16.6693 214.209 16.787C214.161 16.9046 214.092 17.0061 214.002 17.0913C213.917 17.1765 213.816 17.2435 213.698 17.2922C213.58 17.3409 213.452 17.3652 213.314 17.3652ZM224.182 19.453L223.013 20.6278L221.857 19.4713L220.712 20.6157L219.531 19.4409L220.7 18.2661L221.857 19.4226L223.001 18.2783L224.182 19.453ZM212.257 16.4035C212.257 16.2696 212.282 16.1438 212.33 16.0261C212.379 15.9084 212.448 15.807 212.537 15.7217C212.623 15.6325 212.724 15.5635 212.842 15.5148C212.959 15.4661 213.085 15.4417 213.219 15.4417H213.682C213.974 15.4417 214.254 15.4296 214.522 15.4052C214.794 15.3809 215.033 15.3301 215.24 15.253C215.447 15.1719 215.613 15.0603 215.739 14.9183C215.869 14.7722 215.938 14.5794 215.946 14.34C215.95 14.2507 215.95 14.1777 215.946 14.1209C215.946 14.06 215.936 13.989 215.916 13.9078C215.895 13.8226 215.865 13.713 215.824 13.5791C215.788 13.4412 215.735 13.2484 215.666 13.0009L217.437 12.5017C217.514 12.6965 217.585 12.9542 217.65 13.2748C217.715 13.5954 217.764 13.9464 217.797 14.3278C217.805 14.4496 217.819 14.5754 217.839 14.7052C217.859 14.8351 217.892 14.9548 217.937 15.0643C217.985 15.1739 218.05 15.2652 218.131 15.3383C218.212 15.4072 218.318 15.4417 218.448 15.4417C218.582 15.4417 218.708 15.4661 218.825 15.5148C218.943 15.5635 219.044 15.6325 219.13 15.7217C219.219 15.807 219.288 15.9084 219.337 16.0261C219.389 16.1438 219.416 16.2696 219.416 16.4035C219.416 16.5374 219.389 16.6632 219.337 16.7809C219.288 16.8986 219.219 17 219.13 17.0852C219.04 17.1745 218.937 17.2435 218.819 17.2922C218.705 17.3409 218.584 17.3652 218.454 17.3652C218.064 17.3652 217.73 17.3043 217.45 17.1826C217.174 17.0649 216.936 16.9107 216.737 16.72C216.555 16.8417 216.344 16.9432 216.104 17.0243C215.869 17.1055 215.617 17.1704 215.35 17.2191C215.082 17.2719 214.806 17.3084 214.522 17.3287C214.238 17.353 213.958 17.3652 213.682 17.3652H213.219C213.085 17.3652 212.959 17.3409 212.842 17.2922C212.724 17.2435 212.623 17.1745 212.537 17.0852C212.448 17 212.379 16.8986 212.33 16.7809C212.282 16.6632 212.257 16.5374 212.257 16.4035ZM218.083 19.9765L216.914 21.1513L215.757 19.9948L214.613 21.1391L213.432 19.9643L214.601 18.7896L215.757 19.9461L216.902 18.8017L218.083 19.9765ZM217.857 16.4035C217.857 16.2696 217.882 16.1438 217.93 16.0261C217.979 15.9084 218.046 15.807 218.131 15.7217C218.221 15.6325 218.324 15.5635 218.442 15.5148C218.559 15.4661 218.685 15.4417 218.819 15.4417H219.282C219.574 15.4417 219.854 15.4296 220.122 15.4052C220.394 15.3809 220.633 15.3301 220.84 15.253C221.047 15.1719 221.213 15.0603 221.339 14.9183C221.469 14.7722 221.538 14.5794 221.546 14.34C221.55 14.2507 221.55 14.1777 221.546 14.1209C221.546 14.06 221.536 13.989 221.516 13.9078C221.495 13.8226 221.465 13.713 221.424 13.5791C221.388 13.4412 221.335 13.2484 221.266 13.0009L223.037 12.5017C223.114 12.6965 223.185 12.9542 223.25 13.2748C223.315 13.5954 223.364 13.9464 223.397 14.3278C223.405 14.4496 223.419 14.5754 223.439 14.7052C223.459 14.8351 223.492 14.9548 223.537 15.0643C223.585 15.1739 223.65 15.2652 223.731 15.3383C223.812 15.4072 223.918 15.4417 224.048 15.4417C224.182 15.4417 224.308 15.4661 224.425 15.5148C224.543 15.5635 224.644 15.6325 224.73 15.7217C224.819 15.807 224.888 15.9084 224.937 16.0261C224.989 16.1438 225.016 16.2696 225.016 16.4035C225.016 16.5374 224.989 16.6632 224.937 16.7809C224.888 16.8986 224.819 17 224.73 17.0852C224.64 17.1745 224.537 17.2435 224.419 17.2922C224.305 17.3409 224.184 17.3652 224.054 17.3652C223.664 17.3652 223.33 17.3043 223.05 17.1826C222.774 17.0649 222.536 16.9107 222.337 16.72C222.155 16.8417 221.944 16.9432 221.704 17.0243C221.469 17.1055 221.217 17.1704 220.95 17.2191C220.682 17.2719 220.406 17.3084 220.122 17.3287C219.838 17.353 219.558 17.3652 219.282 17.3652H218.819C218.685 17.3652 218.559 17.3409 218.442 17.2922C218.324 17.2435 218.221 17.1745 218.131 17.0852C218.046 17 217.979 16.8986 217.93 16.7809C217.882 16.6632 217.857 16.5374 217.857 16.4035ZM231.242 15.4417C231.372 15.4417 231.495 15.4681 231.613 15.5209C231.731 15.5736 231.832 15.6446 231.917 15.7339C232.007 15.8191 232.078 15.9206 232.131 16.0383C232.183 16.1559 232.21 16.2817 232.21 16.4157C232.21 16.5496 232.183 16.6754 232.131 16.793C232.078 16.9067 232.007 17.0061 231.917 17.0913C231.832 17.1806 231.731 17.2496 231.613 17.2983C231.495 17.347 231.372 17.3713 231.242 17.3713C230.921 17.3713 230.609 17.3612 230.304 17.3409C230 17.3206 229.706 17.282 229.422 17.2252C229.142 17.1684 228.876 17.0893 228.624 16.9878C228.373 16.8823 228.14 16.7464 227.924 16.58C227.685 16.7261 227.415 16.8499 227.115 16.9513C226.815 17.0528 226.502 17.1339 226.177 17.1948C225.853 17.2597 225.526 17.3043 225.197 17.3287C224.869 17.3571 224.56 17.3713 224.272 17.3713C224.142 17.3713 224.019 17.347 223.901 17.2983C223.783 17.2496 223.68 17.1806 223.591 17.0913C223.501 17.0061 223.432 16.9067 223.384 16.793C223.331 16.6754 223.304 16.5496 223.304 16.4157C223.304 16.2817 223.331 16.1559 223.384 16.0383C223.432 15.9206 223.501 15.8191 223.591 15.7339C223.68 15.6446 223.783 15.5736 223.901 15.5209C224.019 15.4681 224.142 15.4417 224.272 15.4417C224.414 15.4417 224.562 15.4377 224.717 15.4296C224.875 15.4214 225.033 15.4113 225.191 15.3991C225.35 15.3829 225.506 15.3626 225.66 15.3383C225.814 15.3139 225.96 15.2855 226.098 15.253C226.054 15.2125 226.013 15.1739 225.977 15.1374C225.94 15.0968 225.902 15.0562 225.861 15.0157H225.867C225.648 14.7965 225.423 14.5713 225.191 14.34C224.964 14.1087 224.711 13.8652 224.431 13.6096L224.528 12.1852C224.767 11.9742 225.015 11.7957 225.271 11.6496C225.526 11.4994 225.778 11.3757 226.025 11.2783C226.277 11.1809 226.516 11.1058 226.744 11.053C226.975 11.0003 227.182 10.9638 227.364 10.9435C227.454 10.9354 227.549 10.9293 227.651 10.9252C227.752 10.9171 227.851 10.913 227.949 10.913C228.265 10.913 228.59 10.9455 228.923 11.0104C229.26 11.0754 229.564 11.1646 229.836 11.2783C230.071 11.3878 230.268 11.5116 230.426 11.6496C230.584 11.7875 230.71 11.9255 230.804 12.0635C230.897 12.2014 230.964 12.3354 231.004 12.4652C231.049 12.5951 231.073 12.7046 231.077 12.7939C231.09 12.9765 231.065 13.1774 231.004 13.3965C230.944 13.6116 230.854 13.8328 230.737 14.06C230.623 14.2832 230.487 14.5043 230.329 14.7235C230.171 14.9386 230 15.1374 229.817 15.32C230.248 15.4012 230.722 15.4417 231.242 15.4417ZM227.949 12.8061C227.851 12.8061 227.728 12.8142 227.577 12.8304C227.427 12.8426 227.271 12.8609 227.109 12.8852C226.946 12.9096 226.788 12.938 226.634 12.9704C226.484 13.0029 226.356 13.0374 226.251 13.0739L227.924 14.5043C228.042 14.4191 228.176 14.3136 228.326 14.1878C228.48 14.062 228.631 13.9322 228.777 13.7983C228.923 13.6603 229.055 13.5243 229.172 13.3904C229.294 13.2565 229.383 13.1388 229.44 13.0374C229.347 12.9968 229.237 12.9623 229.111 12.9339C228.986 12.9014 228.854 12.8771 228.716 12.8609C228.582 12.8406 228.448 12.8264 228.314 12.8183C228.18 12.8101 228.058 12.8061 227.949 12.8061ZM227.857 7.48L229.209 8.8313L227.857 10.1826L226.506 8.8313L227.857 7.48ZM236.234 9.42174L235.066 10.5965L233.909 9.44L232.765 10.5843L231.584 9.40957L232.753 8.23478L233.909 9.3913L235.054 8.24696L236.234 9.42174ZM230.141 16.4035C230.141 16.2696 230.168 16.1438 230.221 16.0261C230.269 15.9084 230.336 15.807 230.421 15.7217C230.507 15.6325 230.608 15.5635 230.726 15.5148C230.843 15.4661 230.969 15.4417 231.103 15.4417H231.779H232.071C232.254 15.4417 232.454 15.4336 232.674 15.4174C232.893 15.4012 233.104 15.3748 233.307 15.3383C233.51 15.3017 233.692 15.253 233.854 15.1922C234.021 15.1272 234.143 15.0461 234.22 14.9487C234.264 14.8797 234.287 14.7864 234.287 14.6687C234.287 14.4942 234.244 14.2872 234.159 14.0478C234.078 13.8084 233.98 13.5649 233.867 13.3174C233.753 13.0699 233.635 12.8325 233.514 12.6052C233.396 12.378 233.301 12.1893 233.227 12.0391L234.962 11.187C235.088 11.4061 235.21 11.6658 235.327 11.9661C235.445 12.2623 235.551 12.5687 235.644 12.8852C235.737 13.1977 235.812 13.5061 235.869 13.8104C235.926 14.1107 235.954 14.3725 235.954 14.5957C235.954 15.0055 235.881 15.3809 235.735 15.7217C235.565 16.1032 235.332 16.4197 235.035 16.6713C234.739 16.9188 234.384 17.1014 233.97 17.2191C233.848 17.2516 233.696 17.278 233.514 17.2983C233.331 17.3186 233.146 17.3328 232.96 17.3409C232.773 17.353 232.596 17.3591 232.43 17.3591C232.264 17.3632 232.134 17.3652 232.041 17.3652H231.158H231.103C230.969 17.3652 230.843 17.3409 230.726 17.2922C230.608 17.2435 230.507 17.1745 230.421 17.0852C230.336 17 230.269 16.8986 230.221 16.7809C230.168 16.6632 230.141 16.5374 230.141 16.4035ZM247.887 11.5826C248.009 11.5501 248.133 11.5278 248.258 11.5157C248.384 11.5035 248.508 11.4974 248.63 11.4974C248.902 11.4974 249.182 11.538 249.47 11.6191C249.762 11.6962 250.054 11.8119 250.346 11.9661L249.671 13.7496C249.476 13.6643 249.291 13.5994 249.117 13.5548C248.942 13.5061 248.778 13.4817 248.624 13.4817C248.518 13.4817 248.398 13.4939 248.265 13.5183C248.135 13.5304 247.995 13.569 247.845 13.6339C247.694 13.6948 247.544 13.7739 247.394 13.8713C247.248 13.9687 247.106 14.0823 246.968 14.2122C246.83 14.338 246.706 14.4719 246.597 14.6139C246.491 14.7559 246.404 14.9041 246.335 15.0583C246.266 15.2084 246.227 15.3545 246.219 15.4965C246.211 15.6101 246.244 15.7035 246.317 15.7765C246.39 15.8455 246.487 15.9064 246.609 15.9591C246.731 16.0078 246.869 16.0525 247.023 16.093C247.177 16.1296 247.333 16.1722 247.492 16.2209L247.668 16.2635C247.928 16.3243 248.185 16.3933 248.441 16.4704C248.701 16.5475 248.934 16.6571 249.141 16.7991C249.348 16.9371 249.514 17.1197 249.64 17.347C249.77 17.5742 249.835 17.8684 249.835 18.2296C249.835 18.3026 249.831 18.3777 249.823 18.4548C249.819 18.5359 249.809 18.6191 249.792 18.7043C249.752 18.9235 249.679 19.1365 249.573 19.3435C249.468 19.5545 249.334 19.7533 249.172 19.94C249.013 20.1307 248.829 20.3072 248.618 20.4696C248.411 20.6359 248.183 20.7841 247.936 20.9139C247.469 21.1452 246.936 21.3238 246.335 21.4496C245.734 21.5794 245.089 21.6443 244.399 21.6443C243.572 21.6443 242.841 21.5226 242.208 21.2791C241.575 21.0397 241.049 20.6887 240.632 20.2261C240.315 19.8487 240.082 19.4348 239.932 18.9843C239.785 18.5339 239.712 18.0632 239.712 17.5722C239.712 17.4667 239.716 17.3612 239.725 17.2557C239.733 17.1501 239.741 17.0507 239.749 16.9574C239.765 16.6652 239.798 16.3791 239.846 16.0991C239.895 15.8151 239.95 15.5493 240.011 15.3017C240.076 15.0501 240.145 14.8188 240.218 14.6078C240.291 14.3928 240.358 14.2061 240.418 14.0478C240.479 13.8855 240.53 13.7577 240.571 13.6643C240.615 13.567 240.642 13.5081 240.65 13.4878L242.178 14.127C242.076 14.3664 241.979 14.6017 241.885 14.833C241.796 15.0603 241.715 15.2957 241.642 15.5391C241.573 15.7786 241.514 16.0322 241.465 16.3C241.421 16.5678 241.392 16.86 241.38 17.1765C241.376 17.2212 241.372 17.2699 241.368 17.3226C241.364 17.3754 241.362 17.422 241.362 17.4626C241.362 17.7183 241.401 17.9699 241.478 18.2174C241.559 18.4649 241.691 18.6881 241.873 18.887C241.983 19.0128 242.125 19.1223 242.299 19.2157C242.478 19.313 242.679 19.3942 242.902 19.4591C243.125 19.5281 243.365 19.5788 243.62 19.6113C243.876 19.6478 244.136 19.6661 244.399 19.6661C244.915 19.6661 245.396 19.6296 245.842 19.5565C246.292 19.4875 246.688 19.3942 247.029 19.2765C247.37 19.1629 247.644 19.029 247.851 18.8748C248.062 18.7246 248.183 18.5704 248.216 18.4122C248.208 18.4122 248.183 18.4081 248.143 18.4C248.102 18.3919 248.049 18.3797 247.985 18.3635C247.924 18.3513 247.853 18.3351 247.772 18.3148C247.694 18.2986 247.613 18.2803 247.528 18.26L247.199 18.187C246.838 18.0977 246.497 17.9942 246.177 17.8765C245.86 17.7629 245.582 17.6107 245.343 17.42C245.107 17.2333 244.919 16.998 244.777 16.7139C244.639 16.4258 244.57 16.0626 244.57 15.6243C244.59 15.1577 244.687 14.7032 244.862 14.2609C245.036 13.8186 245.272 13.4148 245.568 13.0496C245.864 12.6843 246.209 12.3739 246.603 12.1183C247.001 11.8586 247.431 11.68 247.893 11.5826H247.887ZM251.093 17.3835C251.113 17.0507 251.134 16.7058 251.154 16.3487C251.174 15.9916 251.191 15.6386 251.203 15.2896C251.219 14.9406 251.229 14.6017 251.233 14.273C251.237 13.9443 251.233 13.642 251.221 13.3661C251.197 12.7899 251.172 12.2846 251.148 11.8504C251.128 11.4122 251.105 11.0246 251.081 10.6878C251.061 10.351 251.038 10.0568 251.014 9.80522C250.994 9.54957 250.971 9.31623 250.947 9.10522C250.923 8.8942 250.896 8.69739 250.868 8.51478C250.84 8.32812 250.809 8.13536 250.777 7.93652L252.657 7.31565C252.747 7.85942 252.818 8.40725 252.871 8.95913C252.927 9.51101 252.97 10.0406 252.998 10.5478C253.027 11.051 253.045 11.5197 253.053 11.9539C253.065 12.3881 253.071 12.7594 253.071 13.0678C253.071 13.3478 253.069 13.6501 253.065 13.9748C253.065 14.2994 253.061 14.6362 253.053 14.9852C253.049 15.3342 253.041 15.6872 253.029 16.0443C253.017 16.4014 252.998 16.7504 252.974 17.0913L251.093 17.3835ZM258.609 17.3652C258.52 17.3652 258.394 17.3591 258.232 17.347C258.07 17.3348 257.895 17.2901 257.709 17.213C257.619 17.7162 257.451 18.193 257.203 18.6435C256.96 19.098 256.658 19.522 256.296 19.9157C255.935 20.3133 255.523 20.6786 255.061 21.0113C254.598 21.3441 254.105 21.6423 253.582 21.9061L252.468 20.3661C252.756 20.22 253.046 20.0597 253.338 19.8852C253.63 19.7148 253.908 19.5322 254.172 19.3374C254.44 19.1467 254.687 18.9458 254.915 18.7348C255.146 18.5278 255.347 18.3128 255.517 18.0896C255.688 17.8664 255.822 17.6371 255.919 17.4017C256.016 17.1704 256.065 16.9351 256.065 16.6957C256.065 16.6835 256.063 16.6652 256.059 16.6409C256.059 16.6165 256.059 16.5922 256.059 16.5678C256.059 16.5435 256.057 16.5252 256.053 16.513C256.053 16.5009 256.053 16.5029 256.053 16.5191V16.5252C256.024 16.2899 255.984 16.0646 255.931 15.8496C255.878 15.6345 255.811 15.4154 255.73 15.1922C255.653 14.969 255.562 14.7357 255.456 14.4922C255.351 14.2446 255.233 13.9748 255.103 13.6826L256.862 12.9157C257.025 13.4026 257.177 13.8084 257.319 14.133C257.461 14.4577 257.599 14.7174 257.733 14.9122C257.871 15.107 258.009 15.2449 258.147 15.3261C258.285 15.4032 258.431 15.4417 258.585 15.4417H258.615C258.749 15.4417 258.875 15.4681 258.993 15.5209C259.111 15.5736 259.212 15.6446 259.297 15.7339C259.387 15.8191 259.455 15.9206 259.504 16.0383C259.557 16.1559 259.583 16.2797 259.583 16.4096C259.583 16.5435 259.557 16.6693 259.504 16.787C259.455 16.9046 259.387 17.0061 259.297 17.0913C259.212 17.1765 259.111 17.2435 258.993 17.2922C258.875 17.3409 258.747 17.3652 258.609 17.3652ZM257.552 16.4035C257.552 16.2696 257.579 16.1438 257.631 16.0261C257.68 15.9084 257.747 15.807 257.832 15.7217C257.918 15.6325 258.019 15.5635 258.137 15.5148C258.254 15.4661 258.38 15.4417 258.514 15.4417H259.141H259.415C259.565 15.4417 259.721 15.4357 259.884 15.4235C260.05 15.4113 260.204 15.387 260.346 15.3504C260.492 15.3139 260.62 15.2632 260.73 15.1983C260.843 15.1333 260.924 15.0461 260.973 14.9365C261.006 14.8635 261.022 14.7539 261.022 14.6078C261.022 14.5104 260.993 14.3643 260.937 14.1696C260.88 13.9748 260.805 13.7597 260.711 13.5243C260.618 13.2849 260.513 13.0354 260.395 12.7757C260.277 12.5159 260.158 12.2704 260.036 12.0391L261.777 11.1748C261.89 11.4304 262.002 11.7023 262.111 11.9904C262.225 12.2786 262.326 12.5707 262.416 12.867C262.505 13.1632 262.576 13.4594 262.629 13.7557C262.686 14.0478 262.714 14.3278 262.714 14.5957C262.714 15.0055 262.641 15.3809 262.495 15.7217C262.324 16.1032 262.091 16.4197 261.795 16.6713C261.499 16.9188 261.144 17.1014 260.73 17.2191C260.486 17.2881 260.253 17.3287 260.03 17.3409C259.806 17.3571 259.598 17.3652 259.403 17.3652H258.569H258.514C258.38 17.3652 258.254 17.3409 258.137 17.2922C258.019 17.2435 257.918 17.1745 257.832 17.0852C257.747 17 257.68 16.8986 257.631 16.7809C257.579 16.6632 257.552 16.5374 257.552 16.4035ZM260.316 17.9191L261.667 19.2704L260.316 20.6217L258.964 19.2704L260.316 17.9191Z" fill="#9C4040"/>
<defs>
<linearGradient id="paint0_linear_2613_6763" x1="143.404" y1="15.5" x2="282.037" y2="15.5" gradientUnits="userSpaceOnUse">
<stop offset="0.584642" stop-color="white"/>
<stop offset="0.959747" stop-color="white" stop-opacity="0"/>
</linearGradient>
<linearGradient id="paint1_linear_2613_6763" x1="138.596" y1="15.5" x2="-0.0365983" y2="15.5" gradientUnits="userSpaceOnUse">
<stop offset="0.638717" stop-color="white"/>
<stop offset="0.959747" stop-color="white" stop-opacity="0"/>
</linearGradient>
</defs>
</svg>
