<svg width="23" height="22" viewBox="0 0 23 22" fill="none" xmlns="http://www.w3.org/2000/svg">
<path fill-rule="evenodd" clip-rule="evenodd" d="M1.5 10.9997C1.50034 6.22924 4.87046 2.12335 9.54934 1.19299C14.2282 0.262639 18.9127 2.76694 20.738 7.17437C22.5634 11.5818 21.0211 16.6648 17.0544 19.3149C13.0878 21.965 7.80149 21.4441 4.42842 18.0707C2.5532 16.1953 1.49981 13.6518 1.5 10.9997Z" stroke="url(#paint0_linear_5212_16308)" stroke-width="1.5" stroke-linecap="round" stroke-linejoin="round"/>
<path d="M9.63832 15.6557C9.35214 15.6557 9.06596 15.5455 8.84003 15.3093L5.8276 12.1604C5.3908 11.7038 5.3908 10.948 5.8276 10.4914C6.2644 10.0348 6.98738 10.0348 7.42419 10.4914L9.63832 12.8059L14.8649 7.34245C15.3017 6.88585 16.0247 6.88585 16.4615 7.34245C16.8983 7.79905 16.8983 8.5548 16.4615 9.0114L10.4366 15.3093C10.2107 15.5455 9.9245 15.6557 9.63832 15.6557Z" fill="url(#paint1_linear_5212_16308)"/>
<defs>
<linearGradient id="paint0_linear_5212_16308" x1="1.5" y1="1" x2="21.5" y2="21" gradientUnits="userSpaceOnUse">
<stop stop-color="#4C8CED"/>
<stop offset="1" stop-color="#36D859"/>
</linearGradient>
<linearGradient id="paint1_linear_5212_16308" x1="5.5" y1="7" x2="13.8591" y2="17.9022" gradientUnits="userSpaceOnUse">
<stop stop-color="#4C8CED"/>
<stop offset="1" stop-color="#36D859"/>
</linearGradient>
</defs>
</svg>
