<svg width="273" height="186" viewBox="0 0 273 186" fill="none" xmlns="http://www.w3.org/2000/svg">
<g filter="url(#filter0_d_2280_27281)">
<path d="M201.189 102.549L233.407 64.9875L265.625 102.549V169.745H201.189V102.549Z" fill="url(#paint0_linear_2280_27281)"/>
<path d="M201.19 102.548H122.422V169.744H201.19V102.548Z" fill="url(#paint1_linear_2280_27281)"/>
<path style="mix-blend-mode:multiply" d="M124.094 114.418L202.8 114.418V106.958L124.094 106.958V114.418Z" fill="url(#paint2_linear_2280_27281)"/>
<path style="mix-blend-mode:multiply" d="M265.625 104.405V114.572L233.407 77.01L201.189 114.572V104.405L233.407 66.8433L265.625 104.405Z" fill="url(#paint3_linear_2280_27281)"/>
<path d="M118.666 102.549H202.026L234.244 64.9875H150.887L118.666 102.549Z" fill="url(#paint4_linear_2280_27281)"/>
<path d="M201.127 102.548H117.83V108.68H201.127V102.548Z" fill="url(#paint5_linear_2280_27281)"/>
<path d="M201.963 102.621L234.244 64.9875L269 105.508V111.703L234.244 71.1829L201.963 108.814V102.621Z" fill="url(#paint6_linear_2280_27281)"/>
<path d="M161.902 90.3528L140.049 115.83H183.752L161.902 90.3528Z" fill="url(#paint7_linear_2280_27281)"/>
<path d="M160.229 90.3528L176.01 108.753H182.079L198.288 90.3528H160.229Z" fill="url(#paint8_linear_2280_27281)"/>
<path d="M170.051 132.432H148.906V169.748H170.051V132.432Z" fill="url(#paint9_linear_2280_27281)"/>
<path d="M150.524 169.745H148.908V132.432L150.524 133.949V169.745Z" fill="url(#paint10_linear_2280_27281)"/>
<path d="M171.724 133.949H152.197L150.581 132.432H171.724V133.949Z" fill="url(#paint11_linear_2280_27281)"/>
<path d="M155.08 152.046C155.803 152.046 156.389 151.46 156.389 150.737C156.389 150.013 155.803 149.427 155.08 149.427C154.356 149.427 153.77 150.013 153.77 150.737C153.77 151.46 154.356 152.046 155.08 152.046Z" fill="url(#paint12_linear_2280_27281)"/>
<path d="M220.007 147.661H246.802V121.83H220.007V147.661Z" fill="url(#paint13_linear_2280_27281)"/>
<path d="M239.75 123.119L221.05 141.396V144.237L242.654 123.119H239.75Z" fill="url(#paint14_linear_2280_27281)"/>
<path d="M244.257 123.119L221.05 145.805V147.136L245.621 123.119H244.257Z" fill="url(#paint15_linear_2280_27281)"/>
<path d="M245.429 147.66H246.802V121.83L245.429 123.118V147.66Z" fill="url(#paint16_linear_2280_27281)"/>
<path d="M220.009 123.118H245.429L246.802 121.83H220.009V123.118Z" fill="url(#paint17_linear_2280_27281)"/>
<path d="M245.429 146.371H221.382V123.118L220.009 121.83V147.66H246.802L245.429 146.371Z" fill="url(#paint18_linear_2280_27281)"/>
<path d="M234.102 121.826H232.712V147.657H234.102V121.826Z" fill="url(#paint19_linear_2280_27281)"/>
<path d="M246.323 135.438V134.048H220.492V135.438H246.323Z" fill="url(#paint20_linear_2280_27281)"/>
<path d="M248.42 147.661H218.097V150.097H248.42V147.661Z" fill="url(#paint21_linear_2280_27281)"/>
<path d="M129.774 147.187H144.545V133.19H129.774V147.187Z" fill="url(#paint22_linear_2280_27281)"/>
<path d="M138.595 133.19L128.101 143.45V146.291L141.502 133.19H138.595Z" fill="url(#paint23_linear_2280_27281)"/>
<path d="M142.872 133.417L128.785 147.186H130.149L142.872 134.751V133.417Z" fill="url(#paint24_linear_2280_27281)"/>
<path d="M141.496 147.187H142.872V133.19L141.496 134.479V147.187Z" fill="url(#paint25_linear_2280_27281)"/>
<path d="M128.101 134.479H141.496L142.872 133.19H128.101V134.479Z" fill="url(#paint26_linear_2280_27281)"/>
<path d="M141.496 145.898H129.474V134.479L128.101 133.19V147.187H142.869L141.496 145.898Z" fill="url(#paint27_linear_2280_27281)"/>
<path d="M179.337 147.187H194.108V133.19H179.337V147.187Z" fill="url(#paint28_linear_2280_27281)"/>
<path d="M189.834 133.19L179.337 143.45V146.291L192.738 133.19H189.834Z" fill="url(#paint29_linear_2280_27281)"/>
<path d="M194.108 133.417L180.023 147.186H181.384L194.108 134.751V133.417Z" fill="url(#paint30_linear_2280_27281)"/>
<path d="M192.735 147.187H194.108V133.19L192.735 134.479V147.187Z" fill="url(#paint31_linear_2280_27281)"/>
<path d="M179.337 134.479H192.735L194.108 133.19H179.337V134.479Z" fill="url(#paint32_linear_2280_27281)"/>
<path d="M191.062 145.898H179.037V134.479L177.664 133.19V147.187H192.435L191.062 145.898Z" fill="url(#paint33_linear_2280_27281)"/>
<path d="M170.74 129.44C173.623 125.706 172.934 120.343 169.2 117.46C165.466 114.577 160.103 115.266 157.22 119C154.337 122.734 155.027 128.097 158.76 130.98C162.494 133.863 167.857 133.173 170.74 129.44Z" fill="url(#paint34_linear_2280_27281)"/>
<path d="M167.478 120.67C169.321 117.153 167.963 112.807 164.446 110.964C160.928 109.121 156.582 110.479 154.739 113.997C152.897 117.514 154.254 121.86 157.772 123.703C161.29 125.546 165.635 124.188 167.478 120.67Z" fill="url(#paint35_linear_2280_27281)"/>
<path d="M165.121 111.371L155.155 121.334C155.647 122.074 156.271 122.717 156.995 123.231L167.018 113.211C166.506 112.485 165.862 111.861 165.121 111.371Z" fill="url(#paint36_linear_2280_27281)"/>
<path d="M167.725 114.454L158.236 123.94C158.69 124.141 159.163 124.295 159.648 124.399L168.184 115.863C168.08 115.378 167.926 114.906 167.725 114.454Z" fill="url(#paint37_linear_2280_27281)"/>
<path style="mix-blend-mode:multiply" d="M160.229 96.5751L175.665 114.571H181L160.229 90.3528L139.458 114.571H144.793L160.229 96.5751Z" fill="url(#paint38_linear_2280_27281)"/>
<path d="M12.8089 0H85.6006C87.9376 0 90.179 0.928398 91.8316 2.58096C93.4842 4.23352 94.4125 6.47488 94.4125 8.81196V160.935C94.4125 163.272 93.4842 165.514 91.8316 167.166C90.179 168.819 87.9376 169.747 85.6006 169.747H12.8089C11.6521 169.747 10.5066 169.519 9.43789 169.077C8.36913 168.634 7.39808 167.985 6.58009 167.167C5.7621 166.349 5.1132 165.378 4.67051 164.309C4.22781 163.24 4 162.095 4 160.938V8.80897C4 6.47269 4.92809 4.23208 6.58009 2.58008C8.23209 0.928082 10.4726 0 12.8089 0Z" fill="url(#paint39_linear_2280_27281)"/>
<path d="M20.704 0H93.4956C95.8319 0 98.0724 0.928082 99.7244 2.58008C101.376 4.23208 102.305 6.47269 102.305 8.80897V160.935C102.305 163.272 101.376 165.514 99.7235 167.166C98.071 168.819 95.8297 169.747 93.4927 169.747H20.704C19.5472 169.747 18.4017 169.519 17.333 169.077C16.2642 168.634 15.2931 167.985 14.4751 167.167C13.6571 166.349 13.0083 165.378 12.5656 164.309C12.1229 163.24 11.895 162.095 11.895 160.938V8.80897C11.895 6.47269 12.8231 4.23208 14.4751 2.58008C16.1271 0.928082 18.3677 0 20.704 0Z" fill="url(#paint40_linear_2280_27281)"/>
<path d="M93.4952 4.79639H76.7973C76.4794 4.79639 76.1744 4.9227 75.9496 5.14754C75.7248 5.37238 75.5984 5.67732 75.5984 5.99529V9.04651C75.5984 10.3831 75.0677 11.6649 74.1229 12.6103C73.1781 13.5556 71.8965 14.0871 70.56 14.0879H43.6386C42.3026 14.0871 41.0215 13.556 40.0768 12.6113C39.1321 11.6666 38.601 10.3855 38.6002 9.04951V5.99529C38.6002 5.67732 38.4739 5.37238 38.249 5.14754C38.0242 4.9227 37.7193 4.79639 37.4013 4.79639H20.7035C19.6359 4.79639 18.612 5.22049 17.8572 5.97538C17.1023 6.73028 16.6782 7.75413 16.6782 8.82171V148.027C16.6782 149.094 17.1023 150.118 17.8572 150.873C18.612 151.628 19.6359 152.052 20.7035 152.052H93.4952C94.5635 152.052 95.5881 151.628 96.3436 150.872C97.099 150.117 97.5235 149.092 97.5235 148.024V8.80973C97.5203 7.74371 97.0944 6.72247 96.3392 5.97008C95.584 5.21769 94.5612 4.79559 93.4952 4.79639Z" fill="url(#paint41_linear_2280_27281)"/>
<path d="M66.4542 6.83182H47.7453C47.4842 6.84598 47.2384 6.95967 47.0586 7.14951C46.8788 7.33935 46.7786 7.5909 46.7786 7.85239C46.7786 8.11388 46.8788 8.36543 47.0586 8.55527C47.2384 8.74511 47.4842 8.8588 47.7453 8.87296H66.4542C66.5929 8.88048 66.7316 8.85965 66.862 8.81176C66.9924 8.76386 67.1116 8.68991 67.2124 8.5944C67.3133 8.49889 67.3936 8.38384 67.4484 8.25626C67.5033 8.12869 67.5316 7.99127 67.5316 7.85239C67.5316 7.71351 67.5033 7.57608 67.4484 7.44851C67.3936 7.32093 67.3133 7.20588 67.2124 7.11037C67.1116 7.01487 66.9924 6.94091 66.862 6.89301C66.7316 6.84512 66.5929 6.8243 66.4542 6.83182Z" fill="url(#paint42_linear_2280_27281)"/>
<path d="M66.0972 155.679H48.1136C46.9914 155.708 45.925 156.175 45.1418 156.979C44.3585 157.783 43.9202 158.861 43.9202 159.984C43.9202 161.107 44.3585 162.185 45.1418 162.989C45.925 163.793 46.9914 164.26 48.1136 164.29H66.0972C66.6722 164.305 67.2444 164.205 67.78 163.995C68.3157 163.786 68.8039 163.471 69.216 163.07C69.628 162.668 69.9555 162.188 70.1791 161.659C70.4027 161.129 70.5179 160.559 70.5179 159.984C70.5179 159.409 70.4027 158.84 70.1791 158.31C69.9555 157.78 69.628 157.3 69.216 156.899C68.8039 156.497 68.3157 156.183 67.78 155.973C67.2444 155.763 66.6722 155.663 66.0972 155.679Z" fill="url(#paint43_linear_2280_27281)"/>
<path d="M97.5238 140.65V131.806L62.5007 127.813L59.5035 113.534C63.7228 111.408 67.2696 108.153 69.7497 104.132C72.2298 100.11 73.546 95.4797 73.5517 90.755C73.5517 89.9967 73.5127 89.2563 73.4498 88.513L97.5507 83.1179V70.2417L74.4898 33.0156L97.5507 27.8544V18.8626L36.1248 32.593L30.2741 4.79639H21.2823L29.2521 42.6129L16.6636 36.7233V46.4254L31.53 53.3521L34.809 68.9049C30.029 71.7872 26.3279 76.1596 24.2745 81.3499C22.2211 86.5402 21.9291 92.2613 23.4434 97.6337L16.6786 99.1473V108.139L27.169 105.792L27.0431 105.229C29.3879 108.626 32.5221 111.402 36.1765 113.321C39.831 115.24 43.8965 116.243 48.0239 116.244C49.0358 116.241 50.0466 116.179 51.0512 116.058L58.6313 152.025H67.6231L64.425 136.85L97.5238 140.65ZM65.3841 35.0478L90.5461 75.6667L71.1479 80.0098C68.7484 74.8334 64.6826 70.6111 59.6006 68.0176C54.5187 65.4242 48.714 64.6095 43.1144 65.7038L37.9472 41.1922L65.3841 35.0478ZM48 107.48C44.6903 107.48 41.4548 106.498 38.7029 104.659C35.951 102.821 33.8062 100.207 32.5397 97.149C31.2733 94.0912 30.9421 90.7264 31.588 87.4803C32.2339 84.2342 33.8279 81.2525 36.1685 78.9124C38.509 76.5723 41.491 74.9788 44.7372 74.3334C47.9834 73.6881 51.3481 74.0199 54.4058 75.2869C57.4634 76.5539 60.0767 78.6992 61.915 81.4514C63.7534 84.2037 64.7343 87.4392 64.7337 90.749C64.7289 95.1843 62.9651 99.4366 59.8292 102.573C56.6932 105.71 52.4412 107.474 48.0059 107.48H48Z" fill="url(#paint44_linear_2280_27281)"/>
<path d="M39.997 125.333C39.8614 123.319 38.9656 121.432 37.491 120.053C36.0163 118.674 34.073 117.907 32.0542 117.907C30.0355 117.907 28.0922 118.674 26.6175 120.053C25.1429 121.432 24.2471 123.319 24.1115 125.333C23.7638 132.227 29.7374 138.15 31.5537 139.783C31.6951 139.912 31.8795 139.984 32.0708 139.984C32.2621 139.984 32.4464 139.912 32.5878 139.783C34.3711 138.15 40.3447 132.233 39.997 125.333Z" fill="url(#paint45_linear_2280_27281)"/>
<path d="M32.0366 131.618C35.2628 131.618 37.8782 129.003 37.8782 125.776C37.8782 122.55 35.2628 119.935 32.0366 119.935C28.8103 119.935 26.1948 122.55 26.1948 125.776C26.1948 129.003 28.8103 131.618 32.0366 131.618Z" fill="url(#paint46_linear_2280_27281)"/>
<path d="M36.038 125.03L32.2285 121.796C32.1796 121.756 32.1181 121.733 32.0546 121.733C31.9911 121.733 31.9297 121.756 31.8808 121.796L28.0323 125.015C28.0107 125.032 27.9949 125.055 27.9873 125.081C27.9797 125.107 27.9806 125.135 27.9899 125.161C27.9993 125.187 28.0165 125.209 28.0392 125.224C28.0619 125.239 28.0889 125.247 28.1162 125.246H28.6047V128.998C28.6055 129.067 28.6328 129.132 28.6809 129.181C28.729 129.23 28.7941 129.258 28.8625 129.259H30.9067C30.9341 129.26 30.9613 129.255 30.9867 129.244C31.0122 129.234 31.0354 129.219 31.0549 129.2C31.0744 129.18 31.0899 129.157 31.1005 129.132C31.111 129.107 31.1165 129.08 31.1165 129.052V126.723C31.1165 126.656 31.1434 126.591 31.1911 126.543C31.2389 126.496 31.3036 126.469 31.3712 126.469H32.7021C32.7696 126.469 32.8344 126.496 32.8822 126.543C32.93 126.591 32.9568 126.656 32.9568 126.723V129.058C32.9568 129.113 32.9786 129.166 33.0174 129.205C33.0562 129.243 33.1088 129.265 33.1636 129.265H35.2077C35.2764 129.265 35.3423 129.238 35.3911 129.19C35.4399 129.142 35.4677 129.076 35.4685 129.007V125.252H35.957C35.982 125.25 36.0061 125.241 36.0261 125.226C36.0462 125.211 36.0614 125.191 36.07 125.167C36.0786 125.144 36.0802 125.118 36.0745 125.094C36.0688 125.07 36.0561 125.047 36.038 125.03Z" fill="url(#paint47_linear_2280_27281)"/>
<path d="M57.1652 30.3083C57.0296 28.2941 56.1338 26.4067 54.6592 25.028C53.1845 23.6493 51.2412 22.8823 49.2225 22.8823C47.2037 22.8823 45.2604 23.6493 43.7857 25.028C42.3111 26.4067 41.4153 28.2941 41.2797 30.3083C40.932 37.202 46.9056 43.1246 48.7219 44.7581C48.8639 44.8857 49.048 44.9563 49.2389 44.9563C49.4298 44.9563 49.614 44.8857 49.756 44.7581C51.5394 43.1246 57.5129 37.208 57.1652 30.3083Z" fill="url(#paint48_linear_2280_27281)"/>
<path d="M54.9457 31.6716C55.4593 28.4865 53.2936 25.4881 50.1085 24.9745C46.9234 24.4609 43.925 26.6266 43.4114 29.8117C42.8978 32.9968 45.0635 35.9952 48.2486 36.5088C51.4338 37.0224 54.4322 34.8567 54.9457 31.6716Z" fill="url(#paint49_linear_2280_27281)"/>
<path d="M53.2091 30.0037L49.3876 26.7727C49.3392 26.7311 49.2775 26.7083 49.2137 26.7083C49.1499 26.7083 49.0883 26.7311 49.0399 26.7727L45.2064 29.9917C45.1854 30.009 45.1702 30.0324 45.163 30.0586C45.1557 30.0848 45.1568 30.1126 45.166 30.1382C45.1751 30.1638 45.1921 30.1859 45.2143 30.2016C45.2366 30.2172 45.2632 30.2256 45.2904 30.2255H45.7789V33.9811C45.7797 34.0492 45.8071 34.1143 45.8553 34.1625C45.9034 34.2107 45.9685 34.2381 46.0367 34.2389H48.0808C48.1082 34.2393 48.1354 34.2342 48.1609 34.224C48.1863 34.2138 48.2094 34.1986 48.2289 34.1794C48.2485 34.1601 48.264 34.1372 48.2746 34.1119C48.2852 34.0866 48.2906 34.0595 48.2906 34.0321V31.6972C48.2914 31.6301 48.3186 31.5661 48.3663 31.519C48.414 31.4718 48.4783 31.4454 48.5453 31.4454H49.8761C49.9093 31.445 49.9423 31.4513 49.973 31.4638C50.0037 31.4763 50.0316 31.4948 50.0551 31.5183C50.0786 31.5417 50.097 31.5696 50.1095 31.6004C50.1221 31.6311 50.1283 31.664 50.1279 31.6972V34.0321C50.1275 34.0595 50.1325 34.0867 50.1428 34.1121C50.153 34.1376 50.1682 34.1607 50.1874 34.1802C50.2066 34.1998 50.2296 34.2153 50.2549 34.2258C50.2802 34.2364 50.3073 34.2419 50.3347 34.2419H52.3789C52.4128 34.2423 52.4466 34.2359 52.478 34.2231C52.5095 34.2103 52.538 34.1913 52.562 34.1673C52.586 34.1432 52.605 34.1147 52.6179 34.0832C52.6307 34.0518 52.6371 34.0181 52.6367 33.9841V30.2315H53.1252C53.151 30.2303 53.176 30.2214 53.1968 30.2061C53.2177 30.1908 53.2335 30.1697 53.2425 30.1454C53.2514 30.1211 53.253 30.0947 53.2471 30.0695C53.2411 30.0443 53.228 30.0215 53.2091 30.0037Z" fill="url(#paint50_linear_2280_27281)"/>
<path d="M97.5237 44.1865C87.0589 44.9824 77.2809 49.7013 70.1468 57.3986C63.0126 65.0959 59.0488 75.2037 59.0488 85.6987C59.0488 96.1936 63.0126 106.301 70.1468 113.999C77.2809 121.696 87.0589 126.415 97.5237 127.211V44.1865Z" fill="#FCFBFC"/>
<mask id="mask0_2280_27281" style="mask-type:luminance" maskUnits="userSpaceOnUse" x="59" y="44" width="39" height="84">
<path d="M97.5242 44.1833C87.0594 44.9793 77.2814 49.6982 70.1472 57.3955C63.0131 65.0928 59.0493 75.2005 59.0493 85.6955C59.0493 96.1904 63.0131 106.298 70.1472 113.996C77.2814 121.693 87.0594 126.412 97.5242 127.208V44.1833Z" fill="white"/>
</mask>
<g mask="url(#mask0_2280_27281)">
<path d="M112.039 162.996V150.977L64.4189 145.549L60.3277 126.141C66.0642 123.252 70.8864 118.827 74.2577 113.36C77.629 107.892 79.4172 101.597 79.4232 95.1735C79.4232 94.1454 79.3693 93.1324 79.2824 92.1253L112.039 84.794V67.3019L80.6971 16.7111L112.039 9.69449V-2.54335L28.6076 16.1326L20.6409 -21.6599H8.43604L19.2681 29.7342L2.15971 21.7345V34.9225L22.3373 44.3579L26.7913 65.4946C20.2952 69.4124 15.2653 75.3549 12.4744 82.4089C9.68359 89.4629 9.28625 97.2382 11.3434 104.54L2.14771 106.599V118.84L16.3877 115.654L16.2139 114.884C19.7895 120.083 24.7209 124.204 30.473 126.799C36.225 129.394 42.5778 130.363 48.8421 129.603L59.1438 178.492H71.3486L67.0026 157.864L112.039 162.996ZM68.3604 19.4806L102.559 74.6872L76.1832 80.5888C72.9266 73.5516 67.403 67.8105 60.4966 64.2848C53.5903 60.7591 45.7007 59.6526 38.091 61.1426L31.0683 27.8279L68.3604 19.4806ZM44.7419 117.923C40.2443 117.923 35.8477 116.589 32.1081 114.09C28.3685 111.592 25.4538 108.04 23.7326 103.885C22.0115 99.7296 21.5612 95.1573 22.4386 90.7461C23.316 86.3349 25.4818 82.283 28.6621 79.1027C31.8424 75.9224 35.8943 73.7566 40.3055 72.8792C44.7167 72.0018 49.289 72.4521 53.4442 74.1732C57.5994 75.8944 61.151 78.8091 63.6497 82.5487C66.1484 86.2883 67.4822 90.6849 67.4822 95.1825C67.4695 101.209 65.0692 106.985 60.8071 111.245C56.545 115.506 50.7683 117.903 44.7419 117.914V117.923Z" fill="url(#paint51_linear_2280_27281)"/>
</g>
<path d="M96.7926 71.2513H96.7626C96.4988 66.4737 94.4151 61.9787 90.9396 58.6899C87.4642 55.4011 82.8611 53.5684 78.0762 53.5684C73.2913 53.5684 68.6882 55.4011 65.2128 58.6899C61.7373 61.9787 59.6536 66.4737 59.3898 71.2513H59.3598C58.5415 87.4755 72.5867 101.383 76.8608 105.225C77.194 105.526 77.6272 105.693 78.0762 105.693C78.5253 105.693 78.9583 105.526 79.2916 105.225C83.5657 101.383 97.6109 87.4755 96.7926 71.2513Z" fill="#4C8CED"/>
<path d="M91.7085 74.4917C92.907 67.0005 87.8059 59.9561 80.3147 58.7575C72.8235 57.559 65.7791 62.6602 64.5806 70.1513C63.382 77.6425 68.4832 84.6869 75.9744 85.8855C83.4655 87.084 90.5099 81.9828 91.7085 74.4917Z" fill="url(#paint52_linear_2280_27281)"/>
<path d="M87.4857 70.5346L78.494 62.9366C78.3797 62.841 78.2353 62.7886 78.0863 62.7886C77.9373 62.7886 77.793 62.841 77.6786 62.9366L68.6629 70.5016C68.6061 70.5387 68.5636 70.5938 68.5422 70.6582C68.5208 70.7225 68.5218 70.7921 68.5451 70.8558C68.5684 70.9194 68.6126 70.9733 68.6705 71.0086C68.7283 71.0439 68.7965 71.0585 68.8637 71.0502H70.0087V79.8741C70.0087 80.0331 70.0718 80.1856 70.1842 80.298C70.2967 80.4104 70.4492 80.4736 70.6081 80.4736H75.4038C75.5328 80.4736 75.6566 80.4225 75.7481 80.3315C75.8397 80.2406 75.8915 80.1171 75.8923 79.988V74.497C75.8923 74.338 75.9555 74.1856 76.0679 74.0731C76.1803 73.9607 76.3328 73.8976 76.4917 73.8976H79.6239C79.7829 73.8976 79.9354 73.9607 80.0478 74.0731C80.1602 74.1856 80.2233 74.338 80.2233 74.497V79.985C80.2229 80.049 80.2352 80.1125 80.2595 80.1717C80.2837 80.231 80.3194 80.2849 80.3645 80.3303C80.4096 80.3757 80.4633 80.4117 80.5224 80.4363C80.5815 80.4609 80.6449 80.4736 80.7089 80.4736H85.5045C85.6635 80.4736 85.816 80.4104 85.9284 80.298C86.0408 80.1856 86.104 80.0331 86.104 79.8741L86.122 71.0502H87.27C87.3304 71.0517 87.3899 71.035 87.4406 71.0022C87.4914 70.9694 87.531 70.922 87.5543 70.8663C87.5777 70.8105 87.5835 70.749 87.5713 70.6898C87.5591 70.6307 87.5292 70.5766 87.4857 70.5346Z" fill="url(#paint53_linear_2280_27281)"/>
<path d="M136.718 97.9872L129.146 111.103L161.823 129.97L169.395 116.854L136.718 97.9872Z" fill="url(#paint54_linear_2280_27281)"/>
<path style="mix-blend-mode:multiply" d="M153.389 107.404L144.374 102.207L141.376 107.386C141.128 107.853 140.873 108.318 140.606 108.78C140.339 109.241 140.064 109.697 139.785 110.143L136.788 115.323L145.824 120.52C148.916 116.501 151.463 112.091 153.398 107.404H153.389Z" fill="url(#paint55_linear_2280_27281)"/>
<path d="M157.495 112.281L151.913 121.95C150.407 124.558 151.3 127.892 153.908 129.398L191.022 150.825C193.629 152.331 196.964 151.437 198.469 148.83L204.052 139.161C205.557 136.553 204.664 133.219 202.056 131.713L164.943 110.286C162.335 108.78 159 109.674 157.495 112.281Z" fill="url(#paint56_linear_2280_27281)"/>
<path d="M48.5336 55.8284C43.4455 64.6391 41.0843 74.7608 41.7487 84.9135C42.4131 95.0662 46.0733 104.794 52.2663 112.866C58.4593 120.939 66.9071 126.994 76.5412 130.265C86.1754 133.536 96.5632 133.877 106.391 131.245C116.219 128.612 125.046 123.124 131.755 115.475C138.464 107.826 142.754 98.3596 144.082 88.2723C145.411 78.1851 143.719 67.9303 139.219 58.8049C134.72 49.6795 127.616 42.0932 118.805 37.0056C112.955 33.6272 106.497 31.4342 99.799 30.5518C93.1016 29.6694 86.2959 30.1149 79.7706 31.8627C73.2453 33.6106 67.1282 36.6267 61.7685 40.7387C56.4089 44.8508 51.9116 49.9783 48.5336 55.8284ZM129.127 102.367C125.01 109.497 118.872 115.246 111.488 118.887C104.104 122.528 95.8059 123.898 87.6434 122.823C79.4809 121.748 71.8205 118.276 65.6309 112.848C59.4413 107.419 55.0005 100.277 52.8702 92.3241C50.7398 84.3715 51.0155 75.9658 53.6625 68.1699C56.3095 60.374 61.2087 53.5382 67.7408 48.5268C74.2729 43.5154 82.1443 40.5536 90.3597 40.0158C98.5751 39.4781 106.766 41.3886 113.895 45.5058C123.455 51.0264 130.43 60.1184 133.287 70.7819C136.143 81.4453 134.647 92.8067 129.127 102.367Z" fill="url(#paint57_linear_2280_27281)"/>
<path style="mix-blend-mode:soft-light" d="M122.413 110.885C138.669 94.6292 138.669 68.2731 122.413 52.0171C106.157 35.7611 79.8011 35.7611 63.5452 52.0171C47.2892 68.2731 47.2892 94.6292 63.5451 110.885C79.8011 127.141 106.157 127.141 122.413 110.885Z" fill="url(#paint58_linear_2280_27281)"/>
<path style="mix-blend-mode:screen" d="M78.0231 86.1512C85.6452 86.1512 91.824 79.9723 91.824 72.3502C91.824 64.7282 85.6452 58.5493 78.0231 58.5493C70.4011 58.5493 64.2222 64.7282 64.2222 72.3502C64.2222 79.9723 70.4011 86.1512 78.0231 86.1512Z" fill="url(#paint59_linear_2280_27281)"/>
<line x1="105.207" y1="172.321" x2="268.253" y2="172.321" stroke="url(#paint60_linear_2280_27281)" stroke-width="10"/>
</g>
<defs>
<filter id="filter0_d_2280_27281" x="0" y="0" width="273" height="185.321" filterUnits="userSpaceOnUse" color-interpolation-filters="sRGB">
<feFlood flood-opacity="0" result="BackgroundImageFix"/>
<feColorMatrix in="SourceAlpha" type="matrix" values="0 0 0 0 0 0 0 0 0 0 0 0 0 0 0 0 0 0 127 0" result="hardAlpha"/>
<feOffset dy="4"/>
<feGaussianBlur stdDeviation="2"/>
<feComposite in2="hardAlpha" operator="out"/>
<feColorMatrix type="matrix" values="0 0 0 0 0 0 0 0 0 0 0 0 0 0 0 0 0 0 0.25 0"/>
<feBlend mode="normal" in2="BackgroundImageFix" result="effect1_dropShadow_2280_27281"/>
<feBlend mode="normal" in="SourceGraphic" in2="effect1_dropShadow_2280_27281" result="shape"/>
</filter>
<linearGradient id="paint0_linear_2280_27281" x1="241.506" y1="292.09" x2="232.682" y2="122.217" gradientUnits="userSpaceOnUse">
<stop stop-color="white"/>
<stop offset="1" stop-color="#CFDAF4"/>
</linearGradient>
<linearGradient id="paint1_linear_2280_27281" x1="161.131" y1="91.7877" x2="162.252" y2="165.604" gradientUnits="userSpaceOnUse">
<stop stop-color="#8393CE"/>
<stop offset="1" stop-color="#B5BDE1"/>
</linearGradient>
<linearGradient id="paint2_linear_2280_27281" x1="164.408" y1="133.466" x2="162.732" y2="93.7638" gradientUnits="userSpaceOnUse">
<stop stop-color="white"/>
<stop offset="1" stop-color="#CFDAF4"/>
</linearGradient>
<linearGradient id="paint3_linear_2280_27281" x1="233.935" y1="170.92" x2="233.377" y2="106.05" gradientUnits="userSpaceOnUse">
<stop stop-color="white"/>
<stop offset="1" stop-color="#CFDAF4"/>
</linearGradient>
<linearGradient id="paint4_linear_2280_27281" x1="175.413" y1="84.7785" x2="229.658" y2="32.2125" gradientUnits="userSpaceOnUse">
<stop stop-color="#1D3253"/>
<stop offset="1" stop-color="#334FA8"/>
</linearGradient>
<linearGradient id="paint5_linear_2280_27281" x1="144.721" y1="94.4043" x2="202.88" y2="138.581" gradientUnits="userSpaceOnUse">
<stop stop-color="#CFDAF4"/>
<stop offset="1" stop-color="#A0AFDE"/>
</linearGradient>
<linearGradient id="paint6_linear_2280_27281" x1="275.396" y1="102.957" x2="200.51" y2="81.9701" gradientUnits="userSpaceOnUse">
<stop stop-color="white"/>
<stop offset="1" stop-color="#CFDAF4"/>
</linearGradient>
<linearGradient id="paint7_linear_2280_27281" x1="161.488" y1="88.4915" x2="162.831" y2="177.19" gradientUnits="userSpaceOnUse">
<stop stop-color="#8393CE"/>
<stop offset="1" stop-color="#B5BDE1"/>
</linearGradient>
<linearGradient id="paint8_linear_2280_27281" x1="154.999" y1="75.1327" x2="224.886" y2="128.217" gradientUnits="userSpaceOnUse">
<stop stop-color="#CFDAF4"/>
<stop offset="1" stop-color="#A0AFDE"/>
</linearGradient>
<linearGradient id="paint9_linear_2280_27281" x1="159.426" y1="136.145" x2="159.597" y2="184.219" gradientUnits="userSpaceOnUse">
<stop stop-color="#424161"/>
<stop offset="1" stop-color="#5B60A3"/>
</linearGradient>
<linearGradient id="paint10_linear_2280_27281" x1="147.401" y1="131.856" x2="152.778" y2="178.329" gradientUnits="userSpaceOnUse">
<stop stop-color="#8393CE"/>
<stop offset="1" stop-color="#5B60A3"/>
</linearGradient>
<linearGradient id="paint11_linear_2280_27281" x1="167.693" y1="122.7" x2="154.442" y2="143.953" gradientUnits="userSpaceOnUse">
<stop stop-color="#8393CE"/>
<stop offset="1" stop-color="#5B60A3"/>
</linearGradient>
<linearGradient id="paint12_linear_2280_27281" x1="156.159" y1="148.608" x2="152.718" y2="155.412" gradientUnits="userSpaceOnUse">
<stop stop-color="#8393CE"/>
<stop offset="1" stop-color="#5B60A3"/>
</linearGradient>
<linearGradient id="paint13_linear_2280_27281" x1="233.404" y1="145.946" x2="233.404" y2="116.948" gradientUnits="userSpaceOnUse">
<stop stop-color="#CFDAF4"/>
<stop offset="1" stop-color="#A0AFDE"/>
</linearGradient>
<linearGradient id="paint14_linear_2280_27281" x1="232.631" y1="169.948" x2="231.114" y2="99.2904" gradientUnits="userSpaceOnUse">
<stop stop-color="white"/>
<stop offset="1" stop-color="#CFDAF4"/>
</linearGradient>
<linearGradient id="paint15_linear_2280_27281" x1="234.181" y1="174.516" x2="232.28" y2="85.9645" gradientUnits="userSpaceOnUse">
<stop stop-color="white"/>
<stop offset="1" stop-color="#CFDAF4"/>
</linearGradient>
<linearGradient id="paint16_linear_2280_27281" x1="245.582" y1="147.091" x2="246.922" y2="117.822" gradientUnits="userSpaceOnUse">
<stop stop-color="#424161"/>
<stop offset="1" stop-color="#5B60A3"/>
</linearGradient>
<linearGradient id="paint17_linear_2280_27281" x1="245.021" y1="109.058" x2="228.743" y2="126.955" gradientUnits="userSpaceOnUse">
<stop stop-color="#8393CE"/>
<stop offset="1" stop-color="#5B60A3"/>
</linearGradient>
<linearGradient id="paint18_linear_2280_27281" x1="232.679" y1="110.872" x2="233.578" y2="156.367" gradientUnits="userSpaceOnUse">
<stop stop-color="#424161"/>
<stop offset="1" stop-color="#5B60A3"/>
</linearGradient>
<linearGradient id="paint19_linear_2280_27281" x1="251.769" y1="114.561" x2="235.488" y2="132.458" gradientUnits="userSpaceOnUse">
<stop stop-color="#8393CE"/>
<stop offset="1" stop-color="#5B60A3"/>
</linearGradient>
<linearGradient id="paint20_linear_2280_27281" x1="233.21" y1="120.008" x2="233.707" y2="157.292" gradientUnits="userSpaceOnUse">
<stop stop-color="#424161"/>
<stop offset="1" stop-color="#5B60A3"/>
</linearGradient>
<linearGradient id="paint21_linear_2280_27281" x1="233.326" y1="145.35" x2="233.077" y2="158.028" gradientUnits="userSpaceOnUse">
<stop stop-color="#8393CE"/>
<stop offset="1" stop-color="#B5BDE1"/>
</linearGradient>
<linearGradient id="paint22_linear_2280_27281" x1="137.157" y1="146.258" x2="137.157" y2="130.546" gradientUnits="userSpaceOnUse">
<stop stop-color="#CFDAF4"/>
<stop offset="1" stop-color="#A0AFDE"/>
</linearGradient>
<linearGradient id="paint23_linear_2280_27281" x1="135.553" y1="174.768" x2="134.036" y2="104.113" gradientUnits="userSpaceOnUse">
<stop stop-color="white"/>
<stop offset="1" stop-color="#CFDAF4"/>
</linearGradient>
<linearGradient id="paint24_linear_2280_27281" x1="136.668" y1="179.347" x2="134.767" y2="90.7929" gradientUnits="userSpaceOnUse">
<stop stop-color="white"/>
<stop offset="1" stop-color="#CFDAF4"/>
</linearGradient>
<linearGradient id="paint25_linear_2280_27281" x1="141.907" y1="146.893" x2="142.635" y2="131.002" gradientUnits="userSpaceOnUse">
<stop stop-color="#424161"/>
<stop offset="1" stop-color="#5B60A3"/>
</linearGradient>
<linearGradient id="paint26_linear_2280_27281" x1="142.015" y1="126.015" x2="132.672" y2="136.283" gradientUnits="userSpaceOnUse">
<stop stop-color="#8393CE"/>
<stop offset="1" stop-color="#5B60A3"/>
</linearGradient>
<linearGradient id="paint27_linear_2280_27281" x1="135.091" y1="127.249" x2="135.579" y2="151.911" gradientUnits="userSpaceOnUse">
<stop stop-color="#424161"/>
<stop offset="1" stop-color="#5B60A3"/>
</linearGradient>
<linearGradient id="paint28_linear_2280_27281" x1="186.725" y1="146.258" x2="186.725" y2="130.546" gradientUnits="userSpaceOnUse">
<stop stop-color="#CFDAF4"/>
<stop offset="1" stop-color="#A0AFDE"/>
</linearGradient>
<linearGradient id="paint29_linear_2280_27281" x1="186.788" y1="174.768" x2="185.272" y2="104.113" gradientUnits="userSpaceOnUse">
<stop stop-color="white"/>
<stop offset="1" stop-color="#CFDAF4"/>
</linearGradient>
<linearGradient id="paint30_linear_2280_27281" x1="187.903" y1="179.347" x2="186.003" y2="90.7929" gradientUnits="userSpaceOnUse">
<stop stop-color="white"/>
<stop offset="1" stop-color="#CFDAF4"/>
</linearGradient>
<linearGradient id="paint31_linear_2280_27281" x1="193.143" y1="146.893" x2="193.871" y2="131.002" gradientUnits="userSpaceOnUse">
<stop stop-color="#424161"/>
<stop offset="1" stop-color="#5B60A3"/>
</linearGradient>
<linearGradient id="paint32_linear_2280_27281" x1="193.251" y1="126.015" x2="183.908" y2="136.283" gradientUnits="userSpaceOnUse">
<stop stop-color="#8393CE"/>
<stop offset="1" stop-color="#5B60A3"/>
</linearGradient>
<linearGradient id="paint33_linear_2280_27281" x1="184.654" y1="127.249" x2="185.142" y2="151.911" gradientUnits="userSpaceOnUse">
<stop stop-color="#424161"/>
<stop offset="1" stop-color="#5B60A3"/>
</linearGradient>
<linearGradient id="paint34_linear_2280_27281" x1="176.593" y1="108.5" x2="162.222" y2="126.457" gradientUnits="userSpaceOnUse">
<stop stop-color="#8393CE"/>
<stop offset="1" stop-color="#5B60A3"/>
</linearGradient>
<linearGradient id="paint35_linear_2280_27281" x1="161.136" y1="124.041" x2="161.043" y2="107.142" gradientUnits="userSpaceOnUse">
<stop stop-color="#CFDAF4"/>
<stop offset="1" stop-color="#A0AFDE"/>
</linearGradient>
<linearGradient id="paint36_linear_2280_27281" x1="148.027" y1="132.226" x2="181.461" y2="96.6489" gradientUnits="userSpaceOnUse">
<stop stop-color="white"/>
<stop offset="1" stop-color="#CFDAF4"/>
</linearGradient>
<linearGradient id="paint37_linear_2280_27281" x1="150.425" y1="134.587" x2="183.819" y2="99.0511" gradientUnits="userSpaceOnUse">
<stop stop-color="white"/>
<stop offset="1" stop-color="#CFDAF4"/>
</linearGradient>
<linearGradient id="paint38_linear_2280_27281" x1="159.899" y1="126.698" x2="160.63" y2="99.7732" gradientUnits="userSpaceOnUse">
<stop stop-color="white"/>
<stop offset="1" stop-color="#CFDAF4"/>
</linearGradient>
<linearGradient id="paint39_linear_2280_27281" x1="46.2764" y1="172.217" x2="52.6037" y2="-16.5239" gradientUnits="userSpaceOnUse">
<stop stop-color="#5B60A3"/>
<stop offset="1" stop-color="#424161"/>
</linearGradient>
<linearGradient id="paint40_linear_2280_27281" x1="57.6453" y1="18.64" x2="56.0627" y2="211.601" gradientUnits="userSpaceOnUse">
<stop stop-color="#8393CE"/>
<stop offset="1" stop-color="#B5BDE1"/>
</linearGradient>
<linearGradient id="paint41_linear_2280_27281" x1="92.4761" y1="-15.4441" x2="13.3932" y2="194.385" gradientUnits="userSpaceOnUse">
<stop stop-color="white"/>
<stop offset="1" stop-color="#CFDAF4"/>
</linearGradient>
<linearGradient id="paint42_linear_2280_27281" x1="57.3366" y1="21.2786" x2="56.809" y2="-8.77194" gradientUnits="userSpaceOnUse">
<stop stop-color="#5B60A3"/>
<stop offset="1" stop-color="#424161"/>
</linearGradient>
<linearGradient id="paint43_linear_2280_27281" x1="57.0994" y1="167.611" x2="57.0994" y2="138.088" gradientUnits="userSpaceOnUse">
<stop stop-color="#5B60A3"/>
<stop offset="1" stop-color="#424161"/>
</linearGradient>
<linearGradient id="paint44_linear_2280_27281" x1="47.0678" y1="171.756" x2="86.6078" y2="-155.644" gradientUnits="userSpaceOnUse">
<stop stop-color="#CFDAF4"/>
<stop offset="1" stop-color="#A0AFDE"/>
</linearGradient>
<linearGradient id="paint45_linear_2280_27281" x1="38.7921" y1="118.062" x2="7.35978" y2="159.403" gradientUnits="userSpaceOnUse">
<stop stop-color="#424161"/>
<stop offset="1" stop-color="#5B60A3"/>
</linearGradient>
<linearGradient id="paint46_linear_2280_27281" x1="36.6973" y1="119.383" x2="26.9802" y2="132.718" gradientUnits="userSpaceOnUse">
<stop stop-color="white"/>
<stop offset="1" stop-color="#CFDAF4"/>
</linearGradient>
<linearGradient id="paint47_linear_2280_27281" x1="27.7625" y1="130.263" x2="43.2944" y2="117.639" gradientUnits="userSpaceOnUse">
<stop stop-color="#424161"/>
<stop offset="1" stop-color="#5B60A3"/>
</linearGradient>
<linearGradient id="paint48_linear_2280_27281" x1="55.9603" y1="23.0369" x2="24.525" y2="64.3782" gradientUnits="userSpaceOnUse">
<stop stop-color="#424161"/>
<stop offset="1" stop-color="#5B60A3"/>
</linearGradient>
<linearGradient id="paint49_linear_2280_27281" x1="53.8344" y1="24.3755" x2="44.1173" y2="37.7103" gradientUnits="userSpaceOnUse">
<stop stop-color="white"/>
<stop offset="1" stop-color="#CFDAF4"/>
</linearGradient>
<linearGradient id="paint50_linear_2280_27281" x1="44.9276" y1="35.24" x2="60.4625" y2="22.6125" gradientUnits="userSpaceOnUse">
<stop stop-color="#424161"/>
<stop offset="1" stop-color="#5B60A3"/>
</linearGradient>
<linearGradient id="paint51_linear_2280_27281" x1="43.465" y1="205.272" x2="97.203" y2="-239.699" gradientUnits="userSpaceOnUse">
<stop stop-color="#CFDAF4"/>
<stop offset="1" stop-color="#A0AFDE"/>
</linearGradient>
<linearGradient id="paint52_linear_2280_27281" x1="89.1135" y1="57.2149" x2="66.2682" y2="88.5663" gradientUnits="userSpaceOnUse">
<stop stop-color="#C2D6A9"/>
<stop offset="1" stop-color="#F3F3F3"/>
</linearGradient>
<linearGradient id="paint53_linear_2280_27281" x1="68.0245" y1="82.8474" x2="104.546" y2="53.1595" gradientUnits="userSpaceOnUse">
<stop stop-color="#429F56"/>
<stop offset="1" stop-color="#FADB81"/>
</linearGradient>
<linearGradient id="paint54_linear_2280_27281" x1="158.89" y1="119.53" x2="133.929" y2="105.119" gradientUnits="userSpaceOnUse">
<stop stop-color="white"/>
<stop offset="1" stop-color="#CFDAF4"/>
</linearGradient>
<linearGradient id="paint55_linear_2280_27281" x1="157.259" y1="112.901" x2="149.707" y2="108.561" gradientUnits="userSpaceOnUse">
<stop stop-color="white"/>
<stop offset="1" stop-color="#CFDAF4"/>
</linearGradient>
<linearGradient id="paint56_linear_2280_27281" x1="176.211" y1="141.859" x2="183.128" y2="96.6102" gradientUnits="userSpaceOnUse">
<stop stop-color="#81D715"/>
<stop offset="1" stop-color="#1766AF"/>
</linearGradient>
<linearGradient id="paint57_linear_2280_27281" x1="52.0704" y1="131.92" x2="136.782" y2="27.8789" gradientUnits="userSpaceOnUse">
<stop stop-color="#1766AF"/>
<stop offset="1" stop-color="#81D715"/>
</linearGradient>
<linearGradient id="paint58_linear_2280_27281" x1="132.198" y1="57.5298" x2="45.5345" y2="110.228" gradientUnits="userSpaceOnUse">
<stop stop-color="white"/>
<stop offset="1" stop-color="#CFDAF4" stop-opacity="0"/>
</linearGradient>
<linearGradient id="paint59_linear_2280_27281" x1="88.2173" y1="69.2874" x2="60.7428" y2="77.6842" gradientUnits="userSpaceOnUse">
<stop stop-color="white" stop-opacity="0.5"/>
<stop offset="1" stop-color="#CFDAF4" stop-opacity="0"/>
</linearGradient>
<linearGradient id="paint60_linear_2280_27281" x1="186.712" y1="167.365" x2="186.829" y2="177.364" gradientUnits="userSpaceOnUse">
<stop stop-color="#334FA8"/>
<stop offset="1" stop-color="#429F56"/>
</linearGradient>
</defs>
</svg>
