<svg width="364" height="238" viewBox="0 0 364 238" fill="none" xmlns="http://www.w3.org/2000/svg">
<path d="M203.724 19.2838H142.882V227.175H203.724V19.2838Z" fill="url(#paint0_linear_1325_4311)"/>
<path d="M203.724 227.175H235.057L235.057 19.2838H203.724L203.724 227.175Z" fill="url(#paint1_linear_1325_4311)"/>
<path d="M264.732 60.5448H222.231V227.175H264.732V60.5448Z" fill="url(#paint2_linear_1325_4311)"/>
<path d="M264.732 227.175H286.616V60.5448H264.732V227.175Z" fill="url(#paint3_linear_1325_4311)"/>
<path d="M267.107 137.74L310.381 87.2885L353.655 137.74V227.996H267.107V137.74Z" fill="url(#paint4_linear_1325_4311)"/>
<path d="M267.107 137.74H161.308V227.996H267.107V137.74Z" fill="url(#paint5_linear_1325_4311)"/>
<path style="mix-blend-mode:multiply" d="M161.308 153.683H267.022V143.662H161.308V153.683Z" fill="url(#paint6_linear_1325_4311)"/>
<path style="mix-blend-mode:multiply" d="M353.655 140.232V153.888L310.381 103.436L267.107 153.888V140.232L310.381 89.7805L353.655 140.232Z" fill="url(#paint7_linear_1325_4311)"/>
<path d="M155.14 137.74H267.107L310.381 87.2885H198.418L155.14 137.74Z" fill="url(#paint8_linear_1325_4311)"/>
<path d="M267.023 137.74H155.14V145.977H267.023V137.74Z" fill="url(#paint9_linear_1325_4311)"/>
<path d="M267.022 137.837L310.381 87.2885L357.064 141.714V150.035L310.381 95.6099L267.022 146.154V137.837Z" fill="url(#paint10_linear_1325_4311)"/>
<path d="M212.09 121.359L182.737 155.579H241.438L212.09 121.359Z" fill="url(#paint11_linear_1325_4311)"/>
<path d="M212.09 121.359L233.286 146.074H241.438L263.21 121.359H212.09Z" fill="url(#paint12_linear_1325_4311)"/>
<path d="M225.282 177.878H196.88V228H225.282V177.878Z" fill="url(#paint13_linear_1325_4311)"/>
<path d="M199.054 227.996H196.884V177.878L199.054 179.915V227.996Z" fill="url(#paint14_linear_1325_4311)"/>
<path d="M225.282 179.915H199.054L196.884 177.878H225.282V179.915Z" fill="url(#paint15_linear_1325_4311)"/>
<path d="M205.173 204.223C206.145 204.223 206.933 203.436 206.933 202.464C206.933 201.492 206.145 200.705 205.173 200.705C204.202 200.705 203.414 201.492 203.414 202.464C203.414 203.436 204.202 204.223 205.173 204.223Z" fill="url(#paint16_linear_1325_4311)"/>
<path d="M292.381 198.333H328.373V163.639H292.381V198.333Z" fill="url(#paint17_linear_1325_4311)"/>
<path d="M318.9 165.37L293.782 189.919V193.736L322.801 165.37H318.9Z" fill="url(#paint18_linear_1325_4311)"/>
<path d="M324.954 165.37L293.782 195.841V197.629L326.786 165.37H324.954Z" fill="url(#paint19_linear_1325_4311)"/>
<path d="M326.529 198.333H328.373V163.639L326.529 165.37V198.333Z" fill="url(#paint20_linear_1325_4311)"/>
<path d="M292.385 165.37H326.529L328.373 163.639H292.385V165.37Z" fill="url(#paint21_linear_1325_4311)"/>
<path d="M326.529 196.602H294.229V165.37L292.385 163.639V198.333H328.373L326.529 196.602Z" fill="url(#paint22_linear_1325_4311)"/>
<path d="M311.315 163.635H309.447V198.329H311.315V163.635Z" fill="url(#paint23_linear_1325_4311)"/>
<path d="M327.728 181.916V180.048H293.034V181.916H327.728Z" fill="url(#paint24_linear_1325_4311)"/>
<path d="M330.546 198.333H289.817V201.606H330.546V198.333Z" fill="url(#paint25_linear_1325_4311)"/>
<path d="M168.937 197.697H188.776V178.897H168.937V197.697Z" fill="url(#paint26_linear_1325_4311)"/>
<path d="M183.031 178.897L168.937 192.677V196.494L186.936 178.897H183.031Z" fill="url(#paint27_linear_1325_4311)"/>
<path d="M188.776 179.203L169.855 197.697H171.686L188.776 180.994V179.203Z" fill="url(#paint28_linear_1325_4311)"/>
<path d="M186.928 197.697H188.776V178.897L186.928 180.628V197.697Z" fill="url(#paint29_linear_1325_4311)"/>
<path d="M168.937 180.628H186.928L188.776 178.897H168.937V180.628Z" fill="url(#paint30_linear_1325_4311)"/>
<path d="M186.928 195.966H170.78V180.628L168.937 178.897V197.697H188.772L186.928 195.966Z" fill="url(#paint31_linear_1325_4311)"/>
<path d="M235.508 197.697H255.348V178.897H235.508V197.697Z" fill="url(#paint32_linear_1325_4311)"/>
<path d="M249.607 178.897L235.508 192.677V196.494L253.508 178.897H249.607Z" fill="url(#paint33_linear_1325_4311)"/>
<path d="M255.347 179.203L236.43 197.697H238.258L255.347 180.994V179.203Z" fill="url(#paint34_linear_1325_4311)"/>
<path d="M253.504 197.697H255.348V178.897L253.504 180.628V197.697Z" fill="url(#paint35_linear_1325_4311)"/>
<path d="M235.508 180.628H253.504L255.348 178.897H235.508V180.628Z" fill="url(#paint36_linear_1325_4311)"/>
<path d="M253.504 195.966H237.352V180.628L235.508 178.897V197.697H255.348L253.504 195.966Z" fill="url(#paint37_linear_1325_4311)"/>
<path d="M223.961 173.86C227.833 168.845 226.907 161.641 221.892 157.768C216.878 153.896 209.673 154.822 205.801 159.837C201.929 164.852 202.855 172.057 207.87 175.929C212.885 179.801 220.089 178.875 223.961 173.86Z" fill="url(#paint38_linear_1325_4311)"/>
<path d="M219.579 162.08C222.055 157.355 220.231 151.518 215.506 149.043C210.782 146.568 204.945 148.391 202.469 153.116C199.994 157.841 201.818 163.678 206.542 166.153C211.267 168.629 217.104 166.805 219.579 162.08Z" fill="url(#paint39_linear_1325_4311)"/>
<path d="M216.413 149.593L203.027 162.974C203.688 163.968 204.526 164.832 205.499 165.523L218.962 152.064C218.273 151.089 217.409 150.251 216.413 149.593Z" fill="url(#paint40_linear_1325_4311)"/>
<path d="M219.912 153.731L207.166 166.473C207.775 166.742 208.411 166.949 209.062 167.089L220.528 155.623C220.388 154.973 220.182 154.339 219.912 153.731Z" fill="url(#paint41_linear_1325_4311)"/>
<path style="mix-blend-mode:multiply" d="M212.09 129.717L232.823 153.888H239.989L212.09 121.359L184.191 153.888H191.357L212.09 129.717Z" fill="url(#paint42_linear_1325_4311)"/>
<path d="M11.8319 0H109.604C112.743 0 115.753 1.247 117.973 3.46668C120.193 5.68636 121.44 8.69689 121.44 11.836V216.164C121.44 219.303 120.193 222.314 117.973 224.533C115.753 226.753 112.743 228 109.604 228H11.8319C10.2781 228 8.73955 227.694 7.30403 227.099C5.86851 226.505 4.56421 225.633 3.46551 224.534C2.36681 223.436 1.49522 222.131 0.900607 220.696C0.305995 219.26 0 217.722 0 216.168V11.832C0 8.69394 1.24659 5.68443 3.46551 3.4655C5.68444 1.24658 8.6939 0 11.8319 0Z" fill="url(#paint43_linear_1325_4311)"/>
<path d="M22.436 0H120.208C123.346 0 126.355 1.24658 128.574 3.4655C130.793 5.68443 132.04 8.69394 132.04 11.832V216.164C132.04 219.303 130.793 222.314 128.573 224.533C126.353 226.753 123.343 228 120.204 228H22.436C20.8822 228 19.3437 227.694 17.9081 227.099C16.4726 226.505 15.1682 225.633 14.0695 224.534C12.9708 223.436 12.0993 222.131 11.5047 220.696C10.9101 219.26 10.604 217.722 10.604 216.168V11.832C10.604 8.69394 11.8506 5.68443 14.0695 3.4655C16.2884 1.24658 19.298 0 22.436 0Z" fill="url(#paint44_linear_1325_4311)"/>
<path d="M120.208 6.44138H97.7797C97.3526 6.44138 96.9431 6.61104 96.6411 6.91303C96.3391 7.21503 96.1694 7.62463 96.1694 8.05172V12.15C96.1694 13.9452 95.4566 15.667 94.1875 16.9368C92.9185 18.2066 91.1971 18.9204 89.4019 18.9215H53.2418C51.4473 18.9204 49.7266 18.2071 48.4577 16.9382C47.1887 15.6693 46.4754 13.9486 46.4743 12.1541V8.05172C46.4743 7.62463 46.3046 7.21503 46.0026 6.91303C45.7006 6.61104 45.2911 6.44138 44.864 6.44138H22.436C21.002 6.44138 19.6268 7.01101 18.6128 8.02497C17.5988 9.03893 17.0293 10.4141 17.0293 11.8481V198.825C17.0293 200.259 17.5988 201.634 18.6128 202.648C19.6268 203.662 21.002 204.231 22.436 204.231H120.208C121.643 204.231 123.019 203.661 124.034 202.647C125.048 201.632 125.619 200.256 125.619 198.821V11.832C125.614 10.4001 125.042 9.02844 124.028 8.01784C123.013 7.00725 121.64 6.4403 120.208 6.44138Z" fill="url(#paint45_linear_1325_4311)"/>
<path d="M83.8865 9.17486H58.7572C58.4065 9.19388 58.0764 9.34659 57.8349 9.60158C57.5933 9.85657 57.4587 10.1944 57.4587 10.5457C57.4587 10.8969 57.5933 11.2348 57.8349 11.4898C58.0764 11.7447 58.4065 11.8975 58.7572 11.9165H83.8865C84.0728 11.9266 84.2592 11.8986 84.4343 11.8343C84.6094 11.7699 84.7696 11.6706 84.905 11.5423C85.0404 11.414 85.1483 11.2595 85.222 11.0881C85.2957 10.9168 85.3337 10.7322 85.3337 10.5457C85.3337 10.3591 85.2957 10.1745 85.222 10.0032C85.1483 9.83182 85.0404 9.67729 84.905 9.54901C84.7696 9.42072 84.6094 9.32139 84.4343 9.25706C84.2592 9.19273 84.0728 9.16477 83.8865 9.17486Z" fill="url(#paint46_linear_1325_4311)"/>
<path d="M83.4075 209.103H59.2524C57.7451 209.142 56.3128 209.769 55.2607 210.849C54.2086 211.93 53.6199 213.378 53.6199 214.886C53.6199 216.394 54.2086 217.842 55.2607 218.922C56.3128 220.002 57.7451 220.629 59.2524 220.669H83.4075C84.1798 220.689 84.9484 220.555 85.6678 220.273C86.3873 219.992 87.0431 219.569 87.5965 219.03C88.15 218.491 88.5898 217.847 88.8902 217.135C89.1905 216.423 89.3453 215.658 89.3453 214.886C89.3453 214.113 89.1905 213.348 88.8902 212.637C88.5898 211.925 88.15 211.28 87.5965 210.741C87.0431 210.202 86.3873 209.78 85.6678 209.498C84.9484 209.217 84.1798 209.082 83.4075 209.103Z" fill="url(#paint47_linear_1325_4311)"/>
<path d="M125.619 188.917V177.037L78.5766 171.674L74.5507 152.495C80.218 149.639 84.982 145.268 88.3132 139.866C91.6444 134.465 93.4122 128.245 93.4199 121.899C93.4199 120.88 93.3676 119.886 93.283 118.887L125.655 111.641V94.3458L94.68 44.3447L125.655 37.4122V25.3347L43.1491 43.7771L35.2906 6.44138H23.2131L33.9178 57.2355L17.0093 49.3247V62.3564L36.9774 71.6601L41.3818 92.5503C34.9614 96.4217 29.9901 102.295 27.232 109.266C24.474 116.238 24.0818 123.922 26.1157 131.138L17.0294 133.171V145.249L31.1199 142.096L30.9507 141.34C34.1003 145.902 38.31 149.632 43.2186 152.209C48.1271 154.786 53.5878 156.133 59.1317 156.135C60.4908 156.131 61.8485 156.048 63.1978 155.885L73.3792 204.195H85.4568L81.1611 183.812L125.619 188.917ZM82.4495 47.0743L116.246 101.633L90.1912 107.466C86.9682 100.513 81.5072 94.8419 74.6812 91.3585C67.8553 87.8751 60.0585 86.7809 52.5374 88.2507L45.5968 55.3273L82.4495 47.0743ZM59.0996 144.363C54.654 144.363 50.3083 143.045 46.612 140.575C42.9157 138.105 40.0348 134.594 38.3337 130.487C36.6326 126.38 36.1878 121.86 37.0554 117.5C37.923 113.14 40.064 109.135 43.2078 105.992C46.3515 102.849 50.3568 100.709 54.717 99.8417C59.0773 98.9749 63.5967 99.4206 67.7036 101.122C71.8106 102.824 75.3206 105.706 77.7899 109.402C80.2591 113.099 81.5766 117.445 81.5758 121.891C81.5694 127.848 79.2003 133.56 74.9882 137.772C70.7761 141.985 65.0649 144.356 59.1075 144.363H59.0996Z" fill="url(#paint48_linear_1325_4311)"/>
<path d="M48.3505 168.345C48.1683 165.64 46.9651 163.104 44.9844 161.253C43.0037 159.401 40.3935 158.371 37.682 158.371C34.9704 158.371 32.3602 159.401 30.3795 161.253C28.3988 163.104 27.1956 165.64 27.0135 168.345C26.5465 177.604 34.57 185.559 37.0097 187.754C37.1995 187.927 37.4472 188.023 37.7042 188.023C37.9611 188.023 38.2087 187.927 38.3986 187.754C40.794 185.559 48.8175 177.612 48.3505 168.345Z" fill="url(#paint49_linear_1325_4311)"/>
<path d="M37.6578 176.787C41.9912 176.787 45.5041 173.274 45.5041 168.941C45.5041 164.607 41.9912 161.094 37.6578 161.094C33.3243 161.094 29.8113 164.607 29.8113 168.941C29.8113 173.274 33.3243 176.787 37.6578 176.787Z" fill="url(#paint50_linear_1325_4311)"/>
<path d="M43.0323 167.938L37.9154 163.594C37.8497 163.54 37.7671 163.51 37.6819 163.51C37.5966 163.51 37.5141 163.54 37.4485 163.594L32.2792 167.918C32.2502 167.941 32.229 167.972 32.2188 168.007C32.2086 168.042 32.2098 168.08 32.2223 168.114C32.2349 168.149 32.2581 168.178 32.2886 168.199C32.3191 168.219 32.3553 168.23 32.392 168.228H33.0481V173.269C33.0491 173.36 33.0858 173.448 33.1504 173.514C33.215 173.579 33.3025 173.617 33.3944 173.619H36.1401C36.1769 173.619 36.2134 173.613 36.2476 173.599C36.2817 173.585 36.3129 173.565 36.3391 173.539C36.3653 173.513 36.3861 173.482 36.4003 173.448C36.4145 173.414 36.4218 173.378 36.4218 173.341V170.213C36.4218 170.122 36.4579 170.035 36.5221 169.971C36.5863 169.907 36.6732 169.871 36.764 169.871H38.5515C38.6423 169.871 38.7293 169.907 38.7935 169.971C38.8577 170.035 38.8937 170.122 38.8937 170.213V173.349C38.8937 173.423 38.923 173.493 38.9751 173.545C39.0271 173.598 39.0979 173.627 39.1715 173.627H41.9171C42.0093 173.627 42.0978 173.59 42.1634 173.526C42.229 173.461 42.2663 173.373 42.2674 173.281V168.236H42.9235C42.9571 168.234 42.9894 168.222 43.0163 168.202C43.0433 168.182 43.0638 168.154 43.0753 168.123C43.0868 168.091 43.0889 168.057 43.0813 168.024C43.0737 167.991 43.0566 167.962 43.0323 167.938Z" fill="url(#paint51_linear_1325_4311)"/>
<path d="M71.4105 40.7094C71.2284 38.004 70.0252 35.4688 68.0445 33.617C66.0638 31.7652 63.4535 30.735 60.742 30.735C58.0305 30.735 55.4203 31.7652 53.4396 33.617C51.4589 35.4688 50.2557 38.004 50.0735 40.7094C49.6065 49.9688 57.6301 57.9239 60.0697 60.118C60.2604 60.2895 60.5077 60.3843 60.7641 60.3843C61.0206 60.3843 61.268 60.2895 61.4586 60.118C63.854 57.9239 71.8775 49.9769 71.4105 40.7094Z" fill="url(#paint52_linear_1325_4311)"/>
<path d="M68.4287 42.5414C69.1186 38.2632 66.2097 34.2358 61.9315 33.546C57.6533 32.8562 53.6259 35.7651 52.9361 40.0432C52.2462 44.3214 55.1552 48.3488 59.4333 49.0386C63.7115 49.7285 67.7389 46.8196 68.4287 42.5414Z" fill="url(#paint53_linear_1325_4311)"/>
<path d="M66.0962 40.2987L60.9633 35.9589C60.8983 35.903 60.8154 35.8723 60.7297 35.8723C60.6441 35.8723 60.5613 35.903 60.4963 35.9589L55.3472 40.2826C55.319 40.3058 55.2986 40.3372 55.2889 40.3724C55.2791 40.4076 55.2805 40.445 55.2929 40.4793C55.3052 40.5137 55.328 40.5435 55.3579 40.5645C55.3878 40.5855 55.4234 40.5967 55.46 40.5966H56.1161V45.641C56.1172 45.7325 56.154 45.82 56.2188 45.8847C56.2835 45.9494 56.3709 45.9862 56.4624 45.9872H59.208C59.2448 45.9878 59.2814 45.981 59.3156 45.9673C59.3498 45.9536 59.3808 45.9332 59.407 45.9073C59.4332 45.8815 59.4541 45.8507 59.4683 45.8167C59.4825 45.7827 59.4899 45.7463 59.4899 45.7095V42.5733C59.4909 42.4833 59.5274 42.3973 59.5915 42.334C59.6555 42.2707 59.7419 42.2351 59.832 42.2352H61.6194C61.664 42.2346 61.7083 42.243 61.7496 42.2598C61.7908 42.2766 61.8283 42.3015 61.8599 42.333C61.8914 42.3645 61.9162 42.402 61.933 42.4433C61.9498 42.4846 61.9582 42.5288 61.9577 42.5733V45.7095C61.9571 45.7463 61.9639 45.7828 61.9776 45.817C61.9913 45.8512 62.0117 45.8823 62.0376 45.9085C62.0634 45.9347 62.0942 45.9555 62.1282 45.9697C62.1621 45.984 62.1986 45.9913 62.2354 45.9913H64.9811C65.0267 45.9918 65.072 45.9832 65.1142 45.966C65.1565 45.9488 65.1948 45.9233 65.2271 45.8911C65.2593 45.8588 65.2849 45.8204 65.3021 45.7782C65.3193 45.7359 65.3279 45.6907 65.3273 45.6451V40.6047H65.9835C66.0182 40.603 66.0517 40.5911 66.0797 40.5705C66.1077 40.55 66.129 40.5216 66.1411 40.489C66.1531 40.4564 66.1552 40.4209 66.1472 40.3871C66.1393 40.3533 66.1216 40.3225 66.0962 40.2987Z" fill="url(#paint54_linear_1325_4311)"/>
<path d="M125.619 59.349C111.563 60.4181 98.429 66.7564 88.8466 77.0952C79.2643 87.434 73.9402 101.011 73.9402 115.107C73.9402 129.204 79.2643 142.78 88.8466 153.119C98.429 163.458 111.563 169.796 125.619 170.865V59.349Z" fill="#FCFBFC"/>
<mask id="mask0_1325_4311" style="mask-type:luminance" maskUnits="userSpaceOnUse" x="73" y="59" width="53" height="112">
<path d="M125.619 59.349C111.563 60.4181 98.429 66.7564 88.8466 77.0952C79.2643 87.434 73.9402 101.011 73.9402 115.107C73.9402 129.204 79.2643 142.78 88.8466 153.119C98.429 163.458 111.563 169.796 125.619 170.865V59.349Z" fill="white"/>
</mask>
<g mask="url(#mask0_1325_4311)">
<path d="M145.116 218.934V202.79L81.153 195.499L75.6578 169.432C83.3629 165.551 89.84 159.607 94.3682 152.264C98.8965 144.92 101.298 136.464 101.306 127.837C101.306 126.456 101.234 125.095 101.117 123.743L145.116 113.895V90.4004L103.017 22.4481L145.116 13.0236V-3.41395L33.0522 21.6711L22.3515 -29.0908H5.95829L20.5077 39.9404L-2.47192 29.1954V46.9092L24.6301 59.5826L30.6126 87.9728C21.8873 93.2352 15.1312 101.217 11.3826 110.692C7.63397 120.166 7.10027 130.61 9.86334 140.418L-2.48804 143.183V159.625L16.6388 155.345L16.4053 154.311C21.208 161.295 27.8317 166.83 35.5577 170.315C43.2837 173.8 51.8167 175.103 60.2307 174.082L74.0676 239.747H90.4608L84.6234 212.041L145.116 218.934ZM86.4471 26.168L132.382 100.32L96.9545 108.247C92.5803 98.7948 85.1611 91.0835 75.8847 86.3479C66.6083 81.6122 56.0112 80.1261 45.79 82.1273L36.3574 37.38L86.4471 26.168ZM54.7234 158.393C48.6823 158.393 42.7769 156.602 37.7539 153.245C32.731 149.889 28.8161 145.119 26.5043 139.538C24.1925 133.956 23.5876 127.815 24.7662 121.89C25.9447 115.965 28.8537 110.523 33.1254 106.251C37.3971 101.979 42.8395 99.0702 48.7645 97.8917C54.6895 96.7131 60.8309 97.318 66.4121 99.6298C71.9933 101.942 76.7636 105.857 80.1198 110.879C83.4761 115.902 85.2675 121.808 85.2675 127.849C85.2505 135.943 82.0265 143.701 76.3018 149.424C70.577 155.146 62.8178 158.367 54.7234 158.381V158.393Z" fill="url(#paint55_linear_1325_4311)"/>
</g>
<path d="M124.636 95.7025H124.596C124.242 89.2854 121.443 83.2478 116.775 78.8303C112.107 74.4129 105.924 71.9513 99.4968 71.9513C93.0699 71.9513 86.8871 74.4129 82.219 78.8303C77.5509 83.2478 74.7521 89.2854 74.3977 95.7025H74.3574C73.2583 117.494 92.1234 136.174 97.8643 141.336C98.3119 141.74 98.8937 141.964 99.4968 141.964C100.1 141.964 100.682 141.74 101.129 141.336C106.87 136.174 125.735 117.494 124.636 95.7025Z" fill="#4C8CED"/>
<path d="M117.808 100.055C119.418 89.993 112.566 80.5311 102.504 78.9212C92.4425 77.3113 82.9806 84.1631 81.3707 94.2251C79.7609 104.287 86.6126 113.749 96.6746 115.359C106.737 116.969 116.198 110.117 117.808 100.055Z" fill="url(#paint56_linear_1325_4311)"/>
<path d="M112.136 94.7403L100.058 84.5348C99.9049 84.4064 99.7111 84.336 99.5109 84.336C99.3107 84.336 99.1169 84.4064 98.9634 84.5348L86.8537 94.696C86.7774 94.7458 86.7202 94.8199 86.6915 94.9063C86.6628 94.9926 86.6641 95.0862 86.6954 95.1717C86.7267 95.2572 86.7861 95.3296 86.8638 95.377C86.9415 95.4244 87.033 95.4441 87.1234 95.4328H88.6613V107.285C88.6613 107.498 88.7461 107.703 88.8971 107.854C89.0481 108.005 89.2529 108.09 89.4664 108.09H95.9078C96.0811 108.09 96.2474 108.021 96.3703 107.899C96.4933 107.777 96.5629 107.611 96.564 107.438V100.063C96.564 99.849 96.6489 99.6442 96.7998 99.4932C96.9508 99.3422 97.1556 99.2573 97.3691 99.2573H101.576C101.79 99.2573 101.995 99.3422 102.146 99.4932C102.297 99.6442 102.381 99.849 102.381 100.063V107.434C102.381 107.52 102.397 107.605 102.43 107.685C102.462 107.764 102.51 107.837 102.571 107.898C102.632 107.959 102.704 108.007 102.783 108.04C102.862 108.073 102.948 108.09 103.034 108.09H109.475C109.688 108.09 109.893 108.005 110.044 107.854C110.195 107.703 110.28 107.498 110.28 107.285L110.304 95.4328H111.846C111.927 95.4349 112.007 95.4125 112.075 95.3684C112.144 95.3243 112.197 95.2607 112.228 95.1858C112.259 95.1109 112.267 95.0283 112.251 94.9488C112.234 94.8693 112.194 94.7967 112.136 94.7403Z" fill="url(#paint57_linear_1325_4311)"/>
<path d="M188.437 137.178L178.266 154.795L222.157 180.136L232.328 162.519L188.437 137.178Z" fill="url(#paint58_linear_1325_4311)"/>
<path style="mix-blend-mode:multiply" d="M200.656 144.262L188.547 137.281L184.521 144.238C184.187 144.866 183.844 145.49 183.486 146.11C183.128 146.73 182.757 147.342 182.383 147.942L178.357 154.899L190.495 161.879C194.648 156.481 198.069 150.558 200.668 144.262H200.656Z" fill="url(#paint59_linear_1325_4311)"/>
<path d="M216.344 156.377L208.846 169.365C206.824 172.867 208.024 177.346 211.526 179.368L261.376 208.149C264.879 210.171 269.357 208.971 271.379 205.468L278.878 192.481C280.9 188.979 279.7 184.5 276.197 182.478L226.347 153.697C222.845 151.675 218.366 152.875 216.344 156.377Z" fill="url(#paint60_linear_1325_4311)"/>
<path d="M69.9893 80.5532C63.1551 92.3876 59.9836 105.983 60.876 119.62C61.7684 133.256 66.6847 146.322 75.003 157.165C83.3213 168.008 94.6681 176.14 107.608 180.534C120.549 184.928 134.501 185.386 147.702 181.85C160.903 178.314 172.758 170.943 181.77 160.669C190.781 150.395 196.543 137.68 198.328 124.131C200.113 110.582 197.84 96.8082 191.796 84.5512C185.753 72.2941 176.21 62.1045 164.375 55.2708C156.518 50.7331 147.844 47.7876 138.848 46.6024C129.852 45.4171 120.711 46.0154 111.946 48.3631C103.181 50.7108 94.965 54.762 87.7661 60.2851C80.5671 65.8083 74.5265 72.6954 69.9893 80.5532ZM178.24 143.063C172.711 152.639 164.466 160.361 154.548 165.252C144.63 170.142 133.484 171.982 122.521 170.538C111.557 169.094 101.268 164.432 92.9539 157.14C84.6402 149.848 78.6755 140.255 75.814 129.573C72.9526 118.892 73.323 107.601 76.8783 97.13C80.4336 86.6588 87.0142 77.477 95.7879 70.7459C104.562 64.0147 115.134 60.0364 126.169 59.3142C137.204 58.5919 148.205 61.1581 157.781 66.6882C170.622 74.1033 179.991 86.3155 183.828 100.638C187.665 114.961 185.655 130.221 178.24 143.063Z" fill="url(#paint61_linear_1325_4311)"/>
<path style="mix-blend-mode:soft-light" d="M169.359 154.64C191.193 132.806 191.193 97.4049 169.359 75.5702C147.524 53.7356 112.123 53.7356 90.2887 75.5702C68.4541 97.4048 68.4541 132.806 90.2887 154.64C112.123 176.475 147.524 176.475 169.359 154.64Z" fill="url(#paint62_linear_1325_4311)"/>
<path style="mix-blend-mode:screen" d="M128.336 102.809C137.499 99.2074 142.007 88.8596 138.405 79.6968C134.803 70.5341 124.455 66.0261 115.292 69.628C106.13 73.23 101.622 83.5777 105.223 92.7405C108.825 101.903 119.173 106.411 128.336 102.809Z" fill="url(#paint63_linear_1325_4311)"/>
<line x1="145" y1="233" x2="364" y2="233" stroke="url(#paint64_linear_1325_4311)" stroke-width="10"/>
<defs>
<linearGradient id="paint0_linear_1325_4311" x1="176.542" y1="244.764" x2="169.07" y2="-35.4919" gradientUnits="userSpaceOnUse">
<stop stop-color="white"/>
<stop offset="1" stop-color="#CFDAF4"/>
</linearGradient>
<linearGradient id="paint1_linear_1325_4311" x1="288.13" y1="217.915" x2="211.611" y2="112.518" gradientUnits="userSpaceOnUse">
<stop stop-color="white"/>
<stop offset="1" stop-color="#CFDAF4"/>
</linearGradient>
<linearGradient id="paint2_linear_1325_4311" x1="244.772" y1="192.299" x2="238.789" y2="-32.1101" gradientUnits="userSpaceOnUse">
<stop stop-color="white"/>
<stop offset="1" stop-color="#CFDAF4"/>
</linearGradient>
<linearGradient id="paint3_linear_1325_4311" x1="306.774" y1="186.695" x2="246.221" y2="103.291" gradientUnits="userSpaceOnUse">
<stop stop-color="white"/>
<stop offset="1" stop-color="#CFDAF4"/>
</linearGradient>
<linearGradient id="paint4_linear_1325_4311" x1="321.259" y1="392.327" x2="309.407" y2="164.158" gradientUnits="userSpaceOnUse">
<stop stop-color="white"/>
<stop offset="1" stop-color="#CFDAF4"/>
</linearGradient>
<linearGradient id="paint5_linear_1325_4311" x1="213.302" y1="123.288" x2="214.807" y2="222.436" gradientUnits="userSpaceOnUse">
<stop stop-color="#8393CE"/>
<stop offset="1" stop-color="#B5BDE1"/>
</linearGradient>
<linearGradient id="paint6_linear_1325_4311" x1="215.455" y1="179.267" x2="213.205" y2="125.941" gradientUnits="userSpaceOnUse">
<stop stop-color="white"/>
<stop offset="1" stop-color="#CFDAF4"/>
</linearGradient>
<linearGradient id="paint7_linear_1325_4311" x1="311.089" y1="229.574" x2="310.341" y2="142.443" gradientUnits="userSpaceOnUse">
<stop stop-color="white"/>
<stop offset="1" stop-color="#CFDAF4"/>
</linearGradient>
<linearGradient id="paint8_linear_1325_4311" x1="231.362" y1="113.871" x2="304.221" y2="43.2659" gradientUnits="userSpaceOnUse">
<stop stop-color="#1D3253"/>
<stop offset="1" stop-color="#334FA8"/>
</linearGradient>
<linearGradient id="paint9_linear_1325_4311" x1="191.26" y1="126.802" x2="269.378" y2="186.139" gradientUnits="userSpaceOnUse">
<stop stop-color="#CFDAF4"/>
<stop offset="1" stop-color="#A0AFDE"/>
</linearGradient>
<linearGradient id="paint10_linear_1325_4311" x1="365.656" y1="138.288" x2="265.07" y2="110.099" gradientUnits="userSpaceOnUse">
<stop stop-color="white"/>
<stop offset="1" stop-color="#CFDAF4"/>
</linearGradient>
<linearGradient id="paint11_linear_1325_4311" x1="211.534" y1="118.859" x2="213.338" y2="237.996" gradientUnits="userSpaceOnUse">
<stop stop-color="#8393CE"/>
<stop offset="1" stop-color="#B5BDE1"/>
</linearGradient>
<linearGradient id="paint12_linear_1325_4311" x1="205.065" y1="100.916" x2="298.935" y2="172.218" gradientUnits="userSpaceOnUse">
<stop stop-color="#CFDAF4"/>
<stop offset="1" stop-color="#A0AFDE"/>
</linearGradient>
<linearGradient id="paint13_linear_1325_4311" x1="211.011" y1="182.866" x2="211.24" y2="247.437" gradientUnits="userSpaceOnUse">
<stop stop-color="#424161"/>
<stop offset="1" stop-color="#5B60A3"/>
</linearGradient>
<linearGradient id="paint14_linear_1325_4311" x1="194.859" y1="177.105" x2="202.081" y2="239.526" gradientUnits="userSpaceOnUse">
<stop stop-color="#8393CE"/>
<stop offset="1" stop-color="#5B60A3"/>
</linearGradient>
<linearGradient id="paint15_linear_1325_4311" x1="219.868" y1="164.806" x2="202.069" y2="193.354" gradientUnits="userSpaceOnUse">
<stop stop-color="#8393CE"/>
<stop offset="1" stop-color="#5B60A3"/>
</linearGradient>
<linearGradient id="paint16_linear_1325_4311" x1="206.623" y1="199.606" x2="202.001" y2="208.744" gradientUnits="userSpaceOnUse">
<stop stop-color="#8393CE"/>
<stop offset="1" stop-color="#5B60A3"/>
</linearGradient>
<linearGradient id="paint17_linear_1325_4311" x1="310.377" y1="196.031" x2="310.377" y2="157.081" gradientUnits="userSpaceOnUse">
<stop stop-color="#CFDAF4"/>
<stop offset="1" stop-color="#A0AFDE"/>
</linearGradient>
<linearGradient id="paint18_linear_1325_4311" x1="309.338" y1="228.27" x2="307.301" y2="133.364" gradientUnits="userSpaceOnUse">
<stop stop-color="white"/>
<stop offset="1" stop-color="#CFDAF4"/>
</linearGradient>
<linearGradient id="paint19_linear_1325_4311" x1="311.419" y1="234.405" x2="308.867" y2="115.465" gradientUnits="userSpaceOnUse">
<stop stop-color="white"/>
<stop offset="1" stop-color="#CFDAF4"/>
</linearGradient>
<linearGradient id="paint20_linear_1325_4311" x1="326.734" y1="197.569" x2="328.534" y2="158.256" gradientUnits="userSpaceOnUse">
<stop stop-color="#424161"/>
<stop offset="1" stop-color="#5B60A3"/>
</linearGradient>
<linearGradient id="paint21_linear_1325_4311" x1="325.981" y1="146.484" x2="304.117" y2="170.523" gradientUnits="userSpaceOnUse">
<stop stop-color="#8393CE"/>
<stop offset="1" stop-color="#5B60A3"/>
</linearGradient>
<linearGradient id="paint22_linear_1325_4311" x1="309.403" y1="148.92" x2="310.611" y2="210.029" gradientUnits="userSpaceOnUse">
<stop stop-color="#424161"/>
<stop offset="1" stop-color="#5B60A3"/>
</linearGradient>
<linearGradient id="paint23_linear_1325_4311" x1="335.044" y1="153.876" x2="313.176" y2="177.915" gradientUnits="userSpaceOnUse">
<stop stop-color="#8393CE"/>
<stop offset="1" stop-color="#5B60A3"/>
</linearGradient>
<linearGradient id="paint24_linear_1325_4311" x1="310.115" y1="161.19" x2="310.784" y2="211.269" gradientUnits="userSpaceOnUse">
<stop stop-color="#424161"/>
<stop offset="1" stop-color="#5B60A3"/>
</linearGradient>
<linearGradient id="paint25_linear_1325_4311" x1="310.272" y1="195.23" x2="309.938" y2="212.259" gradientUnits="userSpaceOnUse">
<stop stop-color="#8393CE"/>
<stop offset="1" stop-color="#B5BDE1"/>
</linearGradient>
<linearGradient id="paint26_linear_1325_4311" x1="178.852" y1="196.449" x2="178.852" y2="175.346" gradientUnits="userSpaceOnUse">
<stop stop-color="#CFDAF4"/>
<stop offset="1" stop-color="#A0AFDE"/>
</linearGradient>
<linearGradient id="paint27_linear_1325_4311" x1="178.945" y1="234.743" x2="176.908" y2="139.842" gradientUnits="userSpaceOnUse">
<stop stop-color="white"/>
<stop offset="1" stop-color="#CFDAF4"/>
</linearGradient>
<linearGradient id="paint28_linear_1325_4311" x1="180.443" y1="240.895" x2="177.89" y2="121.951" gradientUnits="userSpaceOnUse">
<stop stop-color="white"/>
<stop offset="1" stop-color="#CFDAF4"/>
</linearGradient>
<linearGradient id="paint29_linear_1325_4311" x1="187.48" y1="197.303" x2="188.458" y2="175.958" gradientUnits="userSpaceOnUse">
<stop stop-color="#424161"/>
<stop offset="1" stop-color="#5B60A3"/>
</linearGradient>
<linearGradient id="paint30_linear_1325_4311" x1="187.625" y1="169.259" x2="175.076" y2="183.052" gradientUnits="userSpaceOnUse">
<stop stop-color="#8393CE"/>
<stop offset="1" stop-color="#5B60A3"/>
</linearGradient>
<linearGradient id="paint31_linear_1325_4311" x1="178.325" y1="170.918" x2="178.981" y2="204.042" gradientUnits="userSpaceOnUse">
<stop stop-color="#424161"/>
<stop offset="1" stop-color="#5B60A3"/>
</linearGradient>
<linearGradient id="paint32_linear_1325_4311" x1="245.432" y1="196.449" x2="245.432" y2="175.346" gradientUnits="userSpaceOnUse">
<stop stop-color="#CFDAF4"/>
<stop offset="1" stop-color="#A0AFDE"/>
</linearGradient>
<linearGradient id="paint33_linear_1325_4311" x1="245.516" y1="234.743" x2="243.479" y2="139.842" gradientUnits="userSpaceOnUse">
<stop stop-color="white"/>
<stop offset="1" stop-color="#CFDAF4"/>
</linearGradient>
<linearGradient id="paint34_linear_1325_4311" x1="247.014" y1="240.895" x2="244.462" y2="121.951" gradientUnits="userSpaceOnUse">
<stop stop-color="white"/>
<stop offset="1" stop-color="#CFDAF4"/>
</linearGradient>
<linearGradient id="paint35_linear_1325_4311" x1="254.051" y1="197.303" x2="255.029" y2="175.958" gradientUnits="userSpaceOnUse">
<stop stop-color="#424161"/>
<stop offset="1" stop-color="#5B60A3"/>
</linearGradient>
<linearGradient id="paint36_linear_1325_4311" x1="254.196" y1="169.259" x2="241.648" y2="183.052" gradientUnits="userSpaceOnUse">
<stop stop-color="#8393CE"/>
<stop offset="1" stop-color="#5B60A3"/>
</linearGradient>
<linearGradient id="paint37_linear_1325_4311" x1="244.896" y1="170.918" x2="245.553" y2="204.042" gradientUnits="userSpaceOnUse">
<stop stop-color="#424161"/>
<stop offset="1" stop-color="#5B60A3"/>
</linearGradient>
<linearGradient id="paint38_linear_1325_4311" x1="231.823" y1="145.734" x2="212.52" y2="169.853" gradientUnits="userSpaceOnUse">
<stop stop-color="#8393CE"/>
<stop offset="1" stop-color="#5B60A3"/>
</linearGradient>
<linearGradient id="paint39_linear_1325_4311" x1="211.061" y1="166.607" x2="210.936" y2="143.909" gradientUnits="userSpaceOnUse">
<stop stop-color="#CFDAF4"/>
<stop offset="1" stop-color="#A0AFDE"/>
</linearGradient>
<linearGradient id="paint40_linear_1325_4311" x1="193.453" y1="177.604" x2="238.361" y2="129.818" gradientUnits="userSpaceOnUse">
<stop stop-color="white"/>
<stop offset="1" stop-color="#CFDAF4"/>
</linearGradient>
<linearGradient id="paint41_linear_1325_4311" x1="196.675" y1="180.774" x2="241.528" y2="133.043" gradientUnits="userSpaceOnUse">
<stop stop-color="white"/>
<stop offset="1" stop-color="#CFDAF4"/>
</linearGradient>
<linearGradient id="paint42_linear_1325_4311" x1="211.647" y1="170.177" x2="212.629" y2="134.012" gradientUnits="userSpaceOnUse">
<stop stop-color="white"/>
<stop offset="1" stop-color="#CFDAF4"/>
</linearGradient>
<linearGradient id="paint43_linear_1325_4311" x1="56.7846" y1="231.317" x2="65.2832" y2="-22.1945" gradientUnits="userSpaceOnUse">
<stop stop-color="#5B60A3"/>
<stop offset="1" stop-color="#424161"/>
</linearGradient>
<linearGradient id="paint44_linear_1325_4311" x1="72.0546" y1="25.0368" x2="69.9289" y2="284.217" gradientUnits="userSpaceOnUse">
<stop stop-color="#8393CE"/>
<stop offset="1" stop-color="#B5BDE1"/>
</linearGradient>
<linearGradient id="paint45_linear_1325_4311" x1="118.839" y1="-20.7452" x2="12.617" y2="261.092" gradientUnits="userSpaceOnUse">
<stop stop-color="white"/>
<stop offset="1" stop-color="#CFDAF4"/>
</linearGradient>
<linearGradient id="paint46_linear_1325_4311" x1="71.64" y1="28.5795" x2="70.9314" y2="-11.7837" gradientUnits="userSpaceOnUse">
<stop stop-color="#5B60A3"/>
<stop offset="1" stop-color="#424161"/>
</linearGradient>
<linearGradient id="paint47_linear_1325_4311" x1="71.3219" y1="225.13" x2="71.3219" y2="185.475" gradientUnits="userSpaceOnUse">
<stop stop-color="#5B60A3"/>
<stop offset="1" stop-color="#424161"/>
</linearGradient>
<linearGradient id="paint48_linear_1325_4311" x1="57.8475" y1="230.697" x2="110.957" y2="-209.058" gradientUnits="userSpaceOnUse">
<stop stop-color="#CFDAF4"/>
<stop offset="1" stop-color="#A0AFDE"/>
</linearGradient>
<linearGradient id="paint49_linear_1325_4311" x1="46.7321" y1="158.578" x2="4.513" y2="214.107" gradientUnits="userSpaceOnUse">
<stop stop-color="#424161"/>
<stop offset="1" stop-color="#5B60A3"/>
</linearGradient>
<linearGradient id="paint50_linear_1325_4311" x1="43.9179" y1="160.354" x2="30.8662" y2="178.265" gradientUnits="userSpaceOnUse">
<stop stop-color="white"/>
<stop offset="1" stop-color="#CFDAF4"/>
</linearGradient>
<linearGradient id="paint51_linear_1325_4311" x1="31.9169" y1="174.967" x2="52.7789" y2="158.01" gradientUnits="userSpaceOnUse">
<stop stop-color="#424161"/>
<stop offset="1" stop-color="#5B60A3"/>
</linearGradient>
<linearGradient id="paint52_linear_1325_4311" x1="69.7921" y1="30.9427" x2="27.569" y2="86.4712" gradientUnits="userSpaceOnUse">
<stop stop-color="#424161"/>
<stop offset="1" stop-color="#5B60A3"/>
</linearGradient>
<linearGradient id="paint53_linear_1325_4311" x1="66.9361" y1="32.7414" x2="53.8843" y2="50.6524" gradientUnits="userSpaceOnUse">
<stop stop-color="white"/>
<stop offset="1" stop-color="#CFDAF4"/>
</linearGradient>
<linearGradient id="paint54_linear_1325_4311" x1="54.9728" y1="47.3319" x2="75.8388" y2="30.371" gradientUnits="userSpaceOnUse">
<stop stop-color="#424161"/>
<stop offset="1" stop-color="#5B60A3"/>
</linearGradient>
<linearGradient id="paint55_linear_1325_4311" x1="53.0083" y1="275.718" x2="125.188" y2="-321.955" gradientUnits="userSpaceOnUse">
<stop stop-color="#CFDAF4"/>
<stop offset="1" stop-color="#A0AFDE"/>
</linearGradient>
<linearGradient id="paint56_linear_1325_4311" x1="114.323" y1="76.8492" x2="83.6376" y2="118.96" gradientUnits="userSpaceOnUse">
<stop stop-color="#C2D6A9"/>
<stop offset="1" stop-color="#F3F3F3"/>
</linearGradient>
<linearGradient id="paint57_linear_1325_4311" x1="85.9961" y1="111.279" x2="135.051" y2="71.4025" gradientUnits="userSpaceOnUse">
<stop stop-color="#429F56"/>
<stop offset="1" stop-color="#FADB81"/>
</linearGradient>
<linearGradient id="paint58_linear_1325_4311" x1="218.217" y1="166.114" x2="184.691" y2="146.758" gradientUnits="userSpaceOnUse">
<stop stop-color="white"/>
<stop offset="1" stop-color="#CFDAF4"/>
</linearGradient>
<linearGradient id="paint59_linear_1325_4311" x1="205.854" y1="151.646" x2="195.71" y2="145.817" gradientUnits="userSpaceOnUse">
<stop stop-color="white"/>
<stop offset="1" stop-color="#CFDAF4"/>
</linearGradient>
<linearGradient id="paint60_linear_1325_4311" x1="241.483" y1="196.106" x2="250.773" y2="135.328" gradientUnits="userSpaceOnUse">
<stop stop-color="#81D715"/>
<stop offset="1" stop-color="#1766AF"/>
</linearGradient>
<linearGradient id="paint61_linear_1325_4311" x1="74.7399" y1="182.757" x2="188.522" y2="43.0122" gradientUnits="userSpaceOnUse">
<stop stop-color="#1766AF"/>
<stop offset="1" stop-color="#81D715"/>
</linearGradient>
<linearGradient id="paint62_linear_1325_4311" x1="182.501" y1="82.9747" x2="66.0973" y2="153.758" gradientUnits="userSpaceOnUse">
<stop stop-color="white"/>
<stop offset="1" stop-color="#CFDAF4" stop-opacity="0"/>
</linearGradient>
<linearGradient id="paint63_linear_1325_4311" x1="132.621" y1="77.7193" x2="103.561" y2="100.797" gradientUnits="userSpaceOnUse">
<stop stop-color="white"/>
<stop offset="1" stop-color="#CFDAF4" stop-opacity="0"/>
</linearGradient>
<linearGradient id="paint64_linear_1325_4311" x1="254.475" y1="228.044" x2="254.563" y2="238.044" gradientUnits="userSpaceOnUse">
<stop stop-color="#334FA8"/>
<stop offset="1" stop-color="#429F56"/>
</linearGradient>
</defs>
</svg>
