<svg width="25" height="25" viewBox="0 0 25 25" fill="none" xmlns="http://www.w3.org/2000/svg">
<path d="M17.709 21.875H7.29232C3.12565 21.875 2.08398 20.8333 2.08398 16.6667V8.33333C2.08398 4.16667 3.12565 3.125 7.29232 3.125H17.709C21.8757 3.125 22.9173 4.16667 22.9173 8.33333V16.6667C22.9173 20.8333 21.8757 21.875 17.709 21.875Z" stroke="url(#paint0_linear_5172_15167)" stroke-width="1.5" stroke-linecap="round" stroke-linejoin="round"/>
<path d="M14.584 8.3335H19.7923" stroke="url(#paint1_linear_5172_15167)" stroke-width="1.5" stroke-linecap="round" stroke-linejoin="round"/>
<path d="M15.625 12.5H19.7917" stroke="url(#paint2_linear_5172_15167)" stroke-width="1.5" stroke-linecap="round" stroke-linejoin="round"/>
<path d="M17.709 16.6665H19.7923" stroke="url(#paint3_linear_5172_15167)" stroke-width="1.5" stroke-linecap="round" stroke-linejoin="round"/>
<path d="M8.85417 11.7606C9.89545 11.7606 10.7396 10.9164 10.7396 9.87516C10.7396 8.83388 9.89545 7.98975 8.85417 7.98975C7.81288 7.98975 6.96875 8.83388 6.96875 9.87516C6.96875 10.9164 7.81288 11.7606 8.85417 11.7606Z" stroke="url(#paint4_linear_5172_15167)" stroke-width="1.5" stroke-linecap="round" stroke-linejoin="round"/>
<path d="M12.5007 17.0106C12.3548 15.5002 11.1569 14.3127 9.64648 14.1772C9.12565 14.1252 8.5944 14.1252 8.06315 14.1772C6.55273 14.3231 5.35482 15.5002 5.20898 17.0106" stroke="url(#paint5_linear_5172_15167)" stroke-width="1.5" stroke-linecap="round" stroke-linejoin="round"/>
<defs>
<linearGradient id="paint0_linear_5172_15167" x1="12.5007" y1="3.125" x2="12.5007" y2="21.875" gradientUnits="userSpaceOnUse">
<stop stop-color="#FF9900"/>
<stop offset="1" stop-color="#636363"/>
</linearGradient>
<linearGradient id="paint1_linear_5172_15167" x1="17.1882" y1="8.3335" x2="17.1882" y2="9.3335" gradientUnits="userSpaceOnUse">
<stop stop-color="#FF9900"/>
<stop offset="1" stop-color="#636363"/>
</linearGradient>
<linearGradient id="paint2_linear_5172_15167" x1="17.7083" y1="12.5" x2="17.7083" y2="13.5" gradientUnits="userSpaceOnUse">
<stop stop-color="#FF9900"/>
<stop offset="1" stop-color="#636363"/>
</linearGradient>
<linearGradient id="paint3_linear_5172_15167" x1="18.7507" y1="16.6665" x2="18.7507" y2="17.6665" gradientUnits="userSpaceOnUse">
<stop stop-color="#FF9900"/>
<stop offset="1" stop-color="#636363"/>
</linearGradient>
<linearGradient id="paint4_linear_5172_15167" x1="8.85417" y1="7.98975" x2="8.85417" y2="11.7606" gradientUnits="userSpaceOnUse">
<stop stop-color="#FF9900"/>
<stop offset="1" stop-color="#636363"/>
</linearGradient>
<linearGradient id="paint5_linear_5172_15167" x1="8.85482" y1="14.1382" x2="8.85482" y2="17.0106" gradientUnits="userSpaceOnUse">
<stop stop-color="#FF9900"/>
<stop offset="1" stop-color="#636363"/>
</linearGradient>
</defs>
</svg>
