<svg width="19" height="25" viewBox="0 0 19 25" fill="none" xmlns="http://www.w3.org/2000/svg">
<path d="M9.5 24.9998C7.41181 24.9997 5.37974 24.4076 3.70759 23.3119C2.03545 22.2163 0.813071 20.676 0.223212 18.9213C-0.794717 15.8932 1.79668 12.8569 5.40061 12.8569H13.5994C17.2033 12.8569 19.7947 15.8921 18.7768 18.9201C18.1872 20.675 16.9649 22.2156 15.2927 23.3115C13.6206 24.4074 11.5884 24.9996 9.5 24.9998Z" fill="#A6A6A6"/>
<path d="M9.50015 10.7143C12.3253 10.7143 14.6155 8.31581 14.6155 5.35714C14.6155 2.39847 12.3253 0 9.50015 0C6.675 0 4.38477 2.39847 4.38477 5.35714C4.38477 8.31581 6.675 10.7143 9.50015 10.7143Z" fill="#A6A6A6"/>
<path d="M15.6404 20.8696L14.2769 21.3609C14.0245 21.4513 13.743 21.4513 13.4905 21.3609L12.1277 20.8684C11.9989 20.8222 11.8885 20.7424 11.8107 20.6393C11.733 20.5363 11.6914 20.4147 11.6914 20.2902V16.9327C11.6925 16.7992 11.7521 16.6715 11.8573 16.5772C11.9626 16.4829 12.1049 16.4295 12.2536 16.4287H15.5138C15.6625 16.4295 15.8049 16.4829 15.9101 16.5772C16.0153 16.6715 16.0749 16.7992 16.076 16.9327V20.2914C16.0761 20.4158 16.0346 20.5374 15.957 20.6405C15.8793 20.7435 15.7691 20.8234 15.6404 20.8696Z" fill="#36D859"/>
</svg>
