<svg width="31" height="26" viewBox="0 0 31 26" fill="none" xmlns="http://www.w3.org/2000/svg">
<g filter="url(#filter0_d_1751_2829)">
<path d="M20.6 4.3982H22.4803C23.724 4.3982 24.8542 4.86413 25.6729 5.61424C26.4915 6.36434 27 7.40029 27 8.53961V17.8585C27 18.9981 26.4916 20.0338 25.673 20.7839C24.8544 21.5341 23.724 22 22.4803 22H6.51968C5.27598 22 4.14578 21.5341 3.32718 20.7839C2.50847 20.0338 2 18.9981 2 17.8585V8.53961C2 7.39998 2.50847 6.36423 3.32718 5.61413C4.14578 4.86392 5.27598 4.3982 6.51968 4.3982H8.40016C8.57786 3.87061 8.92505 3.40646 9.35209 3.03125C10.0782 2.39287 11.0749 2 11.8467 2H17.1532C17.9249 2 18.9218 2.39287 19.6478 3.03125C20.0747 3.40646 20.422 3.87061 20.6 4.3982ZM22.4803 5.9514H19.8813C19.4133 5.9514 19.0338 5.60368 19.0338 5.17485C19.0338 4.79149 18.799 4.43123 18.476 4.14747C18.0577 3.77968 17.531 3.5533 17.1533 3.5533H11.8468C11.4691 3.5533 10.9424 3.77968 10.5242 4.14747C10.2011 4.43133 9.96629 4.79149 9.96629 5.17485C9.96629 5.60368 9.58682 5.9514 9.11884 5.9514H6.51979C5.74374 5.9514 5.0376 6.24289 4.52548 6.71217C4.01336 7.18154 3.69514 7.8286 3.69514 8.53972V17.8586C3.69514 18.5695 4.01336 19.2168 4.52548 19.686C5.03772 20.1553 5.74385 20.4469 6.51979 20.4469H22.4804C23.2565 20.4469 23.9629 20.1553 24.4749 19.686C24.9871 19.2167 25.3051 18.5697 25.3051 17.8586V8.53972C25.3051 7.8288 24.987 7.18154 24.4747 6.71237C23.9625 6.243 23.2563 5.9514 22.4803 5.9514Z" fill="white"/>
<path d="M16.0354 17.9597C15.6959 17.9597 15.3738 17.8939 15.0692 17.7623C14.7689 17.6347 14.5121 17.4652 14.2989 17.2538C14.0639 17.4732 13.7962 17.6446 13.496 17.7683C13.1957 17.8919 12.8714 17.9537 12.5233 17.9537C12.149 17.9537 11.8095 17.8779 11.5049 17.7264C11.2003 17.5788 10.9348 17.3874 10.7085 17.1521C10.4822 16.9168 10.2972 16.6556 10.1536 16.3685C10.0143 16.0774 9.91859 15.7903 9.86637 15.5071C9.84461 15.3955 9.82938 15.2798 9.82067 15.1602C9.81197 15.0366 9.80762 14.9109 9.80762 14.7833C9.80762 14.5441 9.82285 14.2988 9.85331 14.0476C9.88813 13.7963 9.93818 13.5451 10.0035 13.2939C10.0905 12.9509 10.2037 12.6059 10.3429 12.259C10.4822 11.9081 10.6519 11.5452 10.8521 11.1703C11.0566 10.7954 11.2895 10.4006 11.5506 9.98591C11.8117 9.57117 12.1055 9.12851 12.4319 8.65794C12.384 8.6061 12.3296 8.55625 12.2687 8.5084C12.2121 8.45656 12.1621 8.4087 12.1185 8.36483L13.6592 6.95312C13.7027 6.99699 13.7549 7.04684 13.8158 7.10267C13.8768 7.1585 13.942 7.21633 14.0117 7.27614C14.0813 7.33596 14.1488 7.39578 14.214 7.4556C14.2837 7.51542 14.3468 7.56925 14.4033 7.61711V7.61113C14.4295 7.63106 14.4556 7.653 14.4817 7.67693C14.5078 7.70085 14.5317 7.72478 14.5535 7.74871C14.9234 8.06375 15.289 8.38677 15.6502 8.71776C16.0158 9.04876 16.3661 9.40767 16.7012 9.79449C17.1582 10.3249 17.5564 10.8812 17.8958 11.4634C18.2396 12.0417 18.5182 12.6279 18.7314 13.2221C18.8054 13.4334 18.8598 13.6587 18.8946 13.898C18.9338 14.1373 18.9534 14.3806 18.9534 14.6278C18.9534 15.0386 18.8968 15.4393 18.7837 15.8301C18.6749 16.217 18.5029 16.5659 18.2679 16.877C18.0329 17.188 17.7305 17.4413 17.3605 17.6367C16.995 17.8361 16.5576 17.9437 16.0484 17.9597H16.0354ZM15.3107 13.7545C15.3107 13.9299 15.3194 14.1393 15.3369 14.3825C15.3543 14.6258 15.3891 14.8611 15.4413 15.0884C15.4979 15.3117 15.5697 15.5071 15.6567 15.6746C15.7481 15.8381 15.8656 15.9298 16.0092 15.9498C16.1442 15.9259 16.2725 15.872 16.3944 15.7883C16.5163 15.7045 16.6229 15.6028 16.7143 15.4832C16.8057 15.3636 16.8775 15.234 16.9297 15.0944C16.9819 14.9508 17.008 14.8092 17.008 14.6697C17.008 14.5221 16.995 14.3726 16.9689 14.221C16.9427 14.0695 16.9145 13.9359 16.884 13.8203H16.8905C16.7469 13.4255 16.5598 13.0526 16.3291 12.7017C16.0985 12.3507 15.8482 12.0197 15.5784 11.7087C15.3086 11.3976 15.03 11.1085 14.7428 10.8413C14.4599 10.5701 14.1944 10.3189 13.9464 10.0876L13.855 10.0098C13.6374 10.281 13.4198 10.5761 13.2022 10.8951C12.9889 11.2142 12.7909 11.5372 12.6081 11.8642C12.4254 12.1912 12.2622 12.5122 12.1185 12.8273C11.9793 13.1423 11.8748 13.4334 11.8052 13.7006C11.766 13.8801 11.7334 14.0755 11.7073 14.2868C11.6855 14.4942 11.6746 14.6956 11.6746 14.891C11.6746 15.0346 11.6964 15.1702 11.7399 15.2978C11.7878 15.4214 11.8509 15.5311 11.9292 15.6268C12.0076 15.7225 12.0968 15.7982 12.1969 15.8541C12.297 15.9059 12.4058 15.9318 12.5233 15.9318C12.5842 15.9318 12.6495 15.9139 12.7191 15.878C12.7931 15.8381 12.8649 15.7843 12.9345 15.7165C13.0085 15.6487 13.0782 15.5669 13.1434 15.4712C13.2087 15.3715 13.2631 15.2599 13.3066 15.1363C13.3589 14.9728 13.4002 14.8132 13.4307 14.6577C13.4655 14.4982 13.496 14.3566 13.5221 14.233C13.5308 14.1612 13.5395 14.0795 13.5482 13.9877C13.5612 13.892 13.5743 13.8103 13.5873 13.7425L15.3107 13.7545Z" fill="white"/>
</g>
<circle cx="26" cy="20.5" r="5" fill="white"/>
<path d="M25.5542 23.9222C25.5542 23.5439 25.5516 23.1605 25.5463 22.7718C25.5437 22.3831 25.5333 21.9983 25.515 21.6174C25.4968 21.2339 25.4694 20.8596 25.4329 20.4944C25.399 20.1292 25.3507 19.7783 25.2881 19.4418C25.2281 19.1026 25.1524 18.7844 25.0611 18.487C24.9698 18.187 24.8577 17.9144 24.7246 17.6692L25.8242 16.9844C25.9729 17.2165 26.0968 17.4605 26.1959 17.7161C26.295 17.9718 26.3785 18.2365 26.4463 18.5105C26.5142 18.7818 26.5703 19.0622 26.6146 19.3518C26.6616 19.6413 26.7046 19.9348 26.7437 20.2322C26.7724 20.4644 26.7946 20.7135 26.8103 20.9796C26.8285 21.2457 26.8429 21.517 26.8533 21.7935C26.8637 22.0674 26.8703 22.34 26.8729 22.6113C26.8755 22.88 26.8768 23.1318 26.8768 23.3665V23.5505V23.9222H25.5542Z" fill="#303030"/>
<defs>
<filter id="filter0_d_1751_2829" x="0" y="0" width="29" height="24" filterUnits="userSpaceOnUse" color-interpolation-filters="sRGB">
<feFlood flood-opacity="0" result="BackgroundImageFix"/>
<feColorMatrix in="SourceAlpha" type="matrix" values="0 0 0 0 0 0 0 0 0 0 0 0 0 0 0 0 0 0 127 0" result="hardAlpha"/>
<feOffset/>
<feGaussianBlur stdDeviation="1"/>
<feComposite in2="hardAlpha" operator="out"/>
<feColorMatrix type="matrix" values="0 0 0 0 0 0 0 0 0 0 0 0 0 0 0 0 0 0 0.4 0"/>
<feBlend mode="normal" in2="BackgroundImageFix" result="effect1_dropShadow_1751_2829"/>
<feBlend mode="normal" in="SourceGraphic" in2="effect1_dropShadow_1751_2829" result="shape"/>
</filter>
</defs>
</svg>
