<svg width="8" height="9" viewBox="0 0 8 9" fill="none" xmlns="http://www.w3.org/2000/svg">
<path d="M0.582089 6.46232C0.191564 6.85285 0.191564 7.48601 0.582089 7.87654C0.972613 8.26706 1.60578 8.26706 1.9963 7.87654L0.582089 6.46232ZM4.74579 5.12705C5.13631 4.73652 5.13631 4.10336 4.74579 3.71284C4.35527 3.32231 3.7221 3.32231 3.33158 3.71284L4.74579 5.12705ZM3.3361 3.71266C2.94557 4.10318 2.94557 4.73635 3.3361 5.12687C3.72662 5.51739 4.35979 5.51739 4.75031 5.12687L3.3361 3.71266ZM7.4998 2.37738C7.89032 1.98686 7.89032 1.35369 7.4998 0.963167C7.10927 0.572643 6.47611 0.572643 6.08559 0.963167L7.4998 2.37738ZM4.75032 3.71332C4.35979 3.3228 3.72663 3.3228 3.3361 3.71332C2.94558 4.10384 2.94558 4.73701 3.3361 5.12753L4.75032 3.71332ZM6.08555 7.87698C6.47608 8.26751 7.10924 8.26751 7.49977 7.87698C7.89029 7.48646 7.89029 6.85329 7.49977 6.46277L6.08555 7.87698ZM3.33372 5.12759C3.72424 5.51811 4.3574 5.51811 4.74793 5.12759C5.13845 4.73706 5.13845 4.1039 4.74793 3.71337L3.33372 5.12759ZM1.99848 0.963923C1.60796 0.573398 0.97479 0.573398 0.584266 0.963923C0.193742 1.35445 0.193742 1.98761 0.584266 2.37814L1.99848 0.963923ZM1.9963 7.87654L4.74579 5.12705L3.33158 3.71284L0.582089 6.46232L1.9963 7.87654ZM4.75031 5.12687L7.4998 2.37738L6.08559 0.963167L3.3361 3.71266L4.75031 5.12687ZM3.3361 5.12753L6.08555 7.87698L7.49977 6.46277L4.75032 3.71332L3.3361 5.12753ZM4.74793 3.71337L1.99848 0.963923L0.584266 2.37814L3.33372 5.12759L4.74793 3.71337Z" fill="#CF2E2E"/>
</svg>
