<svg width="118" height="84" viewBox="0 0 118 84" fill="none" xmlns="http://www.w3.org/2000/svg">
<rect x="0.5" y="0.5" width="117" height="83" rx="9.5" fill="white"/>
<rect x="0.5" y="0.5" width="117" height="83" rx="9.5" stroke="#A6A6A6"/>
<path d="M52.2474 18.9791C51.8331 18.9791 51.4974 19.3149 51.4974 19.7291C51.4974 20.1433 51.8331 20.4791 52.2474 20.4791V18.9791ZM65.7472 20.4791C66.1614 20.4791 66.4972 20.1433 66.4972 19.7291C66.4972 19.3149 66.1614 18.9791 65.7472 18.9791V20.4791ZM53.9349 23.9147C53.5206 23.9147 53.1849 24.2505 53.1849 24.6647C53.1849 25.0789 53.5206 25.4147 53.9349 25.4147V23.9147ZM64.0597 25.4147C64.4739 25.4147 64.8097 25.0789 64.8097 24.6647C64.8097 24.2505 64.4739 23.9147 64.0597 23.9147V25.4147ZM52.5644 11.5V10.75L52.559 10.75L52.5644 11.5ZM65.4375 11.5L65.4431 10.75H65.4375V11.5ZM72.4998 18.6685L71.7498 18.663V18.6685H72.4998ZM72.4998 27.3721H71.7498L71.7498 27.3777L72.4998 27.3721ZM70.4524 32.4195L69.9182 31.8931L70.4524 32.4195ZM65.4356 34.5406V35.2907L65.441 35.2906L65.4356 34.5406ZM52.5644 34.5406V33.7906C52.436 33.7906 52.3098 33.8236 52.1978 33.8864L52.5644 34.5406ZM45.5002 38.5H44.7502C44.7502 38.7662 44.8913 39.0125 45.1211 39.1471C45.3508 39.2817 45.6346 39.2844 45.8669 39.1542L45.5002 38.5ZM45.5002 18.6685H46.2502L46.2502 18.663L45.5002 18.6685ZM47.5476 13.6211L47.0134 13.0947L47.5476 13.6211ZM52.2474 20.4791H65.7472V18.9791H52.2474V20.4791ZM53.9349 25.4147H64.0597V23.9147H53.9349V25.4147ZM52.5644 12.25H65.4375V10.75H52.5644V12.25ZM65.4318 12.25C68.9472 12.2766 71.7756 15.1475 71.7498 18.663L73.2498 18.674C73.2817 14.3303 69.7868 10.7829 65.4431 10.75L65.4318 12.25ZM71.7498 18.6685V27.3721H73.2498V18.6685H71.7498ZM71.7498 27.3777C71.7622 29.0662 71.1033 30.6904 69.9182 31.8931L70.9866 32.946C72.451 31.4599 73.2651 29.453 73.2498 27.3666L71.7498 27.3777ZM69.9182 31.8931C68.733 33.0958 67.1185 33.7784 65.4301 33.7907L65.441 35.2906C67.5273 35.2754 69.5221 34.432 70.9866 32.946L69.9182 31.8931ZM65.4356 33.7906H52.5644V35.2906H65.4356V33.7906ZM52.1978 33.8864L45.1335 37.8458L45.8669 39.1542L52.9311 35.1949L52.1978 33.8864ZM46.2502 38.5V18.6685H44.7502V38.5H46.2502ZM46.2502 18.663C46.2378 16.9745 46.8966 15.3502 48.0818 14.1476L47.0134 13.0947C45.549 14.5807 44.7349 16.5877 44.7502 18.674L46.2502 18.663ZM48.0818 14.1476C49.267 12.9449 50.8815 12.2623 52.5699 12.25L52.559 10.75C50.4727 10.7652 48.4779 11.6086 47.0134 13.0947L48.0818 14.1476Z" fill="#1766AF"/>
<path d="M30.8662 65.4704L30.6679 60.4826C30.6679 60.4583 30.6697 60.4043 30.6731 60.3209C30.6766 60.2339 30.6923 60.1348 30.7201 60.0235C30.7514 59.9087 30.8001 59.7922 30.8662 59.6739C30.9323 59.5522 31.0279 59.4443 31.1531 59.3504C31.1984 59.3052 31.261 59.2652 31.341 59.2304C31.421 59.1957 31.5079 59.1696 31.6018 59.1522C31.6958 59.1313 31.7914 59.1209 31.8888 59.1209C31.9862 59.1209 32.0749 59.1313 32.1549 59.1522C32.2001 59.013 32.2592 58.867 32.3323 58.7139C32.4053 58.5574 32.4853 58.4061 32.5723 58.26C32.6627 58.1104 32.7549 57.9713 32.8488 57.8426C32.9462 57.7104 33.0418 57.5974 33.1358 57.5035C33.5218 57.1243 33.9427 56.9417 34.3984 56.9557C34.7079 56.9696 34.9862 57.0374 35.2331 57.1591C35.4801 57.2809 35.6923 57.4617 35.8697 57.7017C36.1479 58.0878 36.3062 58.5522 36.3444 59.0948C36.3479 59.133 36.3497 59.173 36.3497 59.2148C36.3497 59.2565 36.3497 59.2965 36.3497 59.3348C36.3497 59.5435 36.3323 59.747 36.2975 59.9452C36.2662 60.14 36.2123 60.3261 36.1358 60.5035V60.4983C36.0244 60.78 35.8801 61.0061 35.7027 61.1765C35.5253 61.347 35.3201 61.4513 35.0871 61.4896C35.0071 61.5209 34.8923 61.5243 34.7427 61.5C34.5931 61.4757 34.4227 61.4357 34.2314 61.38C34.0436 61.3209 33.8418 61.2513 33.6262 61.1713C33.414 61.0913 33.2036 61.0113 32.9949 60.9313C32.7897 60.8478 32.5931 60.7713 32.4053 60.7017C32.2175 60.6287 32.0558 60.5713 31.9201 60.5296L32.1862 65.2617L30.8662 65.4704ZM33.4905 59.0113C33.4453 59.0983 33.4036 59.1852 33.3653 59.2722C33.3305 59.3591 33.2958 59.4426 33.261 59.5226C33.3758 59.5713 33.5097 59.6287 33.6627 59.6948C33.8192 59.7574 33.981 59.82 34.1479 59.8826C34.3149 59.9452 34.4784 60.0043 34.6384 60.06C34.7984 60.1122 34.9392 60.1522 35.061 60.18C35.0853 60.1383 35.1079 60.0843 35.1288 60.0183C35.1531 59.9487 35.1723 59.8757 35.1862 59.7991C35.2036 59.7226 35.2158 59.6461 35.2227 59.5696C35.2331 59.493 35.2384 59.427 35.2384 59.3713C35.2384 59.2183 35.2123 59.0757 35.1601 58.9435C35.1079 58.8078 35.0401 58.6913 34.9566 58.5939C34.8731 58.493 34.7775 58.4165 34.6697 58.3643C34.5653 58.3122 34.4592 58.2896 34.3514 58.2965C34.3062 58.3 34.2471 58.3157 34.174 58.3435C34.1044 58.3678 34.0297 58.4096 33.9497 58.4687C33.8697 58.5243 33.7879 58.5974 33.7044 58.6878C33.6244 58.7783 33.5531 58.8861 33.4905 59.0113ZM39.8188 61.6565C39.4153 61.6565 39.0693 61.6061 38.7806 61.5052C38.4919 61.4078 38.2432 61.2583 38.0345 61.0565C37.9093 60.9313 37.8119 60.7974 37.7423 60.6548C37.6762 60.5087 37.6275 60.3678 37.5962 60.2322C37.5649 60.093 37.5458 59.9626 37.5388 59.8409C37.5353 59.7157 37.5336 59.6078 37.5336 59.5174C37.5371 59.4061 37.5406 59.2217 37.544 58.9643C37.551 58.707 37.5545 58.3957 37.5545 58.0304C37.5545 57.8113 37.5527 57.5783 37.5493 57.3313C37.5493 57.0809 37.5475 56.827 37.544 56.5696C37.5406 56.3122 37.5336 56.0548 37.5232 55.7974C37.5162 55.5365 37.504 55.2861 37.4866 55.0461C37.4727 54.8061 37.4536 54.5817 37.4293 54.373C37.4084 54.1609 37.3823 53.973 37.351 53.8096L38.6606 53.4183C38.6988 53.62 38.7319 53.8635 38.7597 54.1487C38.7875 54.4339 38.8101 54.7383 38.8275 55.0617C38.8449 55.3817 38.8588 55.7104 38.8693 56.0478C38.8797 56.3817 38.8849 56.7 38.8849 57.0026C38.8849 57.093 38.8849 57.1887 38.8849 57.2896C38.8884 57.3904 38.8901 57.4913 38.8901 57.5922C38.8936 57.6896 38.8953 57.7852 38.8953 57.8791C38.8953 57.973 38.8953 58.0583 38.8953 58.1348C38.8953 58.267 38.8936 58.3922 38.8901 58.5104C38.8901 58.6252 38.8884 58.7365 38.8849 58.8443C38.8849 58.9522 38.8832 59.0583 38.8797 59.1626C38.8797 59.267 38.8797 59.373 38.8797 59.4809C38.8762 59.613 38.8797 59.7383 38.8901 59.8565C38.9006 59.9713 38.9353 60.0565 38.9945 60.1122C39.1197 60.2443 39.3788 60.3122 39.7719 60.3157H39.8188C39.9093 60.3157 39.9945 60.3348 40.0745 60.373C40.158 60.4078 40.2293 60.4565 40.2884 60.5191C40.351 60.5783 40.3997 60.6496 40.4345 60.733C40.4727 60.813 40.4919 60.8983 40.4919 60.9887C40.4919 61.0826 40.4727 61.1713 40.4345 61.2548C40.3997 61.3348 40.351 61.4043 40.2884 61.4635C40.2293 61.5226 40.158 61.5696 40.0745 61.6043C39.9945 61.6391 39.9093 61.6565 39.8188 61.6565ZM39.1062 60.9887C39.1062 60.8948 39.1236 60.8078 39.1584 60.7278C39.1932 60.6443 39.2401 60.573 39.2992 60.5139C39.3584 60.4548 39.4297 60.4078 39.5132 60.373C39.5932 60.3383 39.6801 60.3209 39.774 60.3209H40.1705C40.4419 60.3209 40.701 60.3087 40.9479 60.2843C41.1984 60.26 41.4192 60.2096 41.6105 60.133C41.8053 60.053 41.9601 59.9417 42.0749 59.7991C42.1932 59.653 42.2575 59.4617 42.2679 59.2252C42.2714 59.1313 42.2679 59.0391 42.2575 58.9487C42.2471 58.8583 42.2297 58.7626 42.2053 58.6617C42.1845 58.5574 42.1566 58.4443 42.1219 58.3226C42.0871 58.2009 42.0471 58.06 42.0019 57.9L43.2801 57.54C43.3253 57.707 43.3619 57.86 43.3897 57.9991C43.4175 58.1348 43.4401 58.267 43.4575 58.3957C43.4749 58.5209 43.4888 58.6496 43.4992 58.7817C43.5132 58.9139 43.5271 59.06 43.541 59.22C43.5514 59.3383 43.5671 59.4635 43.5879 59.5957C43.6088 59.7243 43.6436 59.8426 43.6923 59.9504C43.7445 60.0583 43.814 60.147 43.901 60.2165C43.9914 60.2861 44.1097 60.3209 44.2558 60.3209C44.3497 60.3209 44.4366 60.3383 44.5166 60.373C44.6001 60.4078 44.6714 60.4548 44.7305 60.5139C44.7932 60.573 44.8419 60.6443 44.8766 60.7278C44.9114 60.8078 44.9288 60.8948 44.9288 60.9887C44.9288 61.0826 44.9097 61.1713 44.8714 61.2548C44.8366 61.3348 44.7879 61.4043 44.7253 61.4635C44.6662 61.5226 44.5966 61.5696 44.5166 61.6043C44.4366 61.6391 44.3514 61.6565 44.261 61.6565C43.9201 61.6565 43.6314 61.6009 43.3949 61.4896C43.1619 61.3783 42.9653 61.2339 42.8053 61.0565C42.6592 61.1678 42.4853 61.2617 42.2836 61.3383C42.0853 61.4148 41.8697 61.4757 41.6366 61.5209C41.4036 61.5696 41.1619 61.6043 40.9114 61.6252C40.661 61.6461 40.414 61.6565 40.1705 61.6565H39.774C39.6801 61.6565 39.5932 61.6391 39.5132 61.6043C39.4297 61.5696 39.3584 61.5226 39.2992 61.4635C39.2401 61.4043 39.1932 61.3348 39.1584 61.2548C39.1236 61.1713 39.1062 61.0826 39.1062 60.9887ZM41.5636 63.4826L40.6766 64.3696L39.7792 63.4774L40.6662 62.5852L41.5636 63.4826ZM43.5358 63.4878L42.6488 64.38L41.7514 63.4826L42.6384 62.5957L43.5358 63.4878ZM43.6049 60.9887C43.6049 60.8948 43.624 60.8078 43.6623 60.7278C43.7006 60.6478 43.751 60.5783 43.8136 60.5191C43.8762 60.4565 43.9493 60.4078 44.0327 60.373C44.1162 60.3383 44.2049 60.3209 44.2988 60.3209H49.0362C49.1267 60.3209 49.2119 60.3383 49.2919 60.373C49.3753 60.4078 49.4467 60.4565 49.5058 60.5191C49.5684 60.5783 49.6171 60.6478 49.6519 60.7278C49.6901 60.8078 49.7093 60.8948 49.7093 60.9887C49.7093 61.0826 49.6901 61.1713 49.6519 61.2548C49.6171 61.3348 49.5684 61.4043 49.5058 61.4635C49.4467 61.5226 49.3753 61.5696 49.2919 61.6043C49.2119 61.6391 49.1267 61.6565 49.0362 61.6565H44.2936C44.2032 61.6565 44.1162 61.6391 44.0327 61.6043C43.9493 61.5696 43.8762 61.5226 43.8136 61.4635C43.751 61.4043 43.7006 61.3348 43.6623 61.2548C43.624 61.1713 43.6049 61.0826 43.6049 60.9887ZM48.3393 60.9887C48.3393 60.8948 48.3584 60.8078 48.3967 60.7278C48.4349 60.6478 48.4854 60.5783 48.548 60.5191C48.6106 60.4565 48.6836 60.4078 48.7671 60.373C48.8506 60.3383 48.9393 60.3209 49.0332 60.3209H53.7706C53.861 60.3209 53.9462 60.3383 54.0262 60.373C54.1097 60.4078 54.181 60.4565 54.2402 60.5191C54.3028 60.5783 54.3515 60.6478 54.3862 60.7278C54.4245 60.8078 54.4436 60.8948 54.4436 60.9887C54.4436 61.0826 54.4245 61.1713 54.3862 61.2548C54.3515 61.3348 54.3028 61.4043 54.2402 61.4635C54.181 61.5226 54.1097 61.5696 54.0262 61.6043C53.9462 61.6391 53.861 61.6565 53.7706 61.6565H49.028C48.9376 61.6565 48.8506 61.6391 48.7671 61.6043C48.6836 61.5696 48.6106 61.5226 48.548 61.4635C48.4854 61.4043 48.4349 61.3348 48.3967 61.2548C48.3584 61.1713 48.3393 61.0826 48.3393 60.9887ZM53.0998 60.9887C53.0998 60.8948 53.1171 60.8078 53.1519 60.7278C53.1867 60.6443 53.2354 60.573 53.298 60.5139C53.3571 60.4548 53.4267 60.4078 53.5067 60.373C53.5867 60.3383 53.6737 60.3209 53.7676 60.3209H54.3467H54.5971C54.7676 60.3209 54.9484 60.3157 55.1398 60.3052C55.3311 60.2913 55.5137 60.267 55.6876 60.2322C55.865 60.1939 56.025 60.1435 56.1676 60.0809C56.3102 60.0148 56.4163 59.9313 56.4858 59.8304C56.538 59.7539 56.5641 59.6513 56.5641 59.5226C56.5676 59.3939 56.5502 59.253 56.5119 59.1C56.4771 58.947 56.4284 58.787 56.3658 58.62C56.3067 58.4496 56.2424 58.2861 56.1728 58.1296C56.1032 57.9696 56.0337 57.82 55.9641 57.6809C55.898 57.5383 55.8424 57.4183 55.7971 57.3209L57.0128 56.7209C57.1067 56.8878 57.1989 57.0896 57.2893 57.3261C57.3832 57.5591 57.465 57.8009 57.5345 58.0513C57.6041 58.3017 57.6598 58.5487 57.7015 58.7922C57.7467 59.0357 57.7693 59.2513 57.7693 59.4391C57.7693 59.7765 57.7119 60.0774 57.5971 60.3417C57.465 60.6478 57.2789 60.9 57.0389 61.0983C56.7989 61.293 56.5137 61.4391 56.1832 61.5365C56.0824 61.5643 55.9554 61.5852 55.8024 61.5991C55.6528 61.6165 55.4998 61.6287 55.3432 61.6357C55.1867 61.6461 55.0371 61.6513 54.8945 61.6513C54.7554 61.6548 54.6476 61.6565 54.5711 61.6565H53.8145H53.7676C53.6737 61.6565 53.5867 61.6391 53.5067 61.6043C53.4267 61.5696 53.3571 61.5226 53.298 61.4635C53.2354 61.4043 53.1867 61.3348 53.1519 61.2548C53.1171 61.1713 53.0998 61.0826 53.0998 60.9887ZM54.7171 64.26L53.8302 63.3678L54.7276 62.4757L55.6145 63.3626L54.7171 64.26ZM56.6893 64.2496L55.8024 63.3626L56.6998 62.4652L57.5867 63.3574L56.6893 64.2496ZM55.7137 64.0513L56.5276 64.8652L55.7084 65.6843L54.8945 64.8704L55.7137 64.0513ZM63.5613 59.8513C63.4639 59.9939 63.3752 60.1661 63.2952 60.3678C63.2256 60.5417 63.163 60.7591 63.1074 61.02C63.0517 61.2774 63.0239 61.5817 63.0239 61.933C63.0239 62.1452 63.0552 62.3365 63.1178 62.507C63.1804 62.6774 63.2639 62.827 63.3683 62.9557C63.4726 63.0878 63.5909 63.2009 63.723 63.2948C63.8587 63.3922 63.9978 63.4722 64.1404 63.5348C64.283 63.5974 64.4222 63.6443 64.5578 63.6757C64.6969 63.7104 64.8222 63.7313 64.9335 63.7383C64.9613 63.7417 64.9856 63.7435 65.0065 63.7435C65.0309 63.7435 65.0552 63.7435 65.0796 63.7435C65.3196 63.7435 65.5735 63.7017 65.8413 63.6183C66.1091 63.5383 66.3561 63.4096 66.5822 63.2322C66.8083 63.0583 66.9943 62.8322 67.1404 62.5539C67.29 62.2791 67.3648 61.9452 67.3648 61.5522C67.3648 61.2774 67.3596 60.9539 67.3491 60.5817C67.3387 60.2096 67.3248 59.8148 67.3074 59.3974C67.2935 58.9765 67.2761 58.5435 67.2552 58.0983C67.2343 57.653 67.2135 57.2183 67.1926 56.7939C67.1439 55.8026 67.0883 54.7661 67.0256 53.6843L68.3874 53.4287C68.4326 54.5591 68.4743 55.6409 68.5126 56.6739C68.5265 57.1157 68.5404 57.5678 68.5543 58.0304C68.5717 58.493 68.5874 58.9417 68.6013 59.3765C68.6152 59.8078 68.6256 60.213 68.6326 60.5922C68.6396 60.9713 68.643 61.2983 68.643 61.573C68.643 62.0113 68.5891 62.4026 68.4813 62.747C68.3769 63.0913 68.2343 63.3922 68.0535 63.6496C67.8726 63.9104 67.6622 64.1313 67.4222 64.3122C67.1856 64.493 66.9369 64.6409 66.6761 64.7557C66.4152 64.8704 66.1491 64.9522 65.8778 65.0009C65.61 65.053 65.3543 65.0791 65.1109 65.0791C65.083 65.0791 65.05 65.0791 65.0117 65.0791C64.9735 65.0791 64.9404 65.0774 64.9126 65.0739C64.6935 65.0565 64.4639 65.0165 64.2239 64.9539C63.9839 64.8948 63.7491 64.8096 63.5196 64.6983C63.29 64.587 63.0709 64.4478 62.8622 64.2809C62.6569 64.1174 62.4761 63.9209 62.3196 63.6913C62.1665 63.4652 62.043 63.2061 61.9491 62.9139C61.8587 62.6217 61.8152 62.293 61.8187 61.9278C61.8222 61.4652 61.8552 61.0704 61.9178 60.7435C61.9839 60.4165 62.0552 60.1487 62.1317 59.94C62.2222 59.6965 62.323 59.493 62.4343 59.3296L63.5613 59.8513ZM72.6313 61.6565C72.2278 61.6565 71.8818 61.6061 71.5931 61.5052C71.3044 61.4078 71.0557 61.2583 70.847 61.0565C70.7218 60.9313 70.6244 60.7974 70.5548 60.6548C70.4887 60.5087 70.44 60.3678 70.4087 60.2322C70.3774 60.093 70.3583 59.9626 70.3513 59.8409C70.3478 59.7157 70.3461 59.6078 70.3461 59.5174C70.3496 59.4061 70.3531 59.2217 70.3565 58.9643C70.3635 58.707 70.367 58.3957 70.367 58.0304C70.367 57.8113 70.3652 57.5783 70.3618 57.3313C70.3618 57.0809 70.36 56.827 70.3565 56.5696C70.3531 56.3122 70.3461 56.0548 70.3357 55.7974C70.3287 55.5365 70.3165 55.2861 70.2991 55.0461C70.2852 54.8061 70.2661 54.5817 70.2418 54.373C70.2209 54.1609 70.1948 53.973 70.1635 53.8096L71.4731 53.4183C71.5113 53.62 71.5444 53.8635 71.5722 54.1487C71.6 54.4339 71.6226 54.7383 71.64 55.0617C71.6574 55.3817 71.6713 55.7104 71.6818 56.0478C71.6922 56.3817 71.6974 56.7 71.6974 57.0026C71.6974 57.093 71.6974 57.1887 71.6974 57.2896C71.7009 57.3904 71.7026 57.4913 71.7026 57.5922C71.7061 57.6896 71.7078 57.7852 71.7078 57.8791C71.7078 57.973 71.7078 58.0583 71.7078 58.1348C71.7078 58.267 71.7061 58.3922 71.7026 58.5104C71.7026 58.6252 71.7009 58.7365 71.6974 58.8443C71.6974 58.9522 71.6957 59.0583 71.6922 59.1626C71.6922 59.267 71.6922 59.373 71.6922 59.4809C71.6887 59.613 71.6922 59.7383 71.7026 59.8565C71.7131 59.9713 71.7478 60.0565 71.807 60.1122C71.9322 60.2443 72.1913 60.3122 72.5844 60.3157H72.6313C72.7218 60.3157 72.807 60.3348 72.887 60.373C72.9705 60.4078 73.0418 60.4565 73.1009 60.5191C73.1635 60.5783 73.2122 60.6496 73.247 60.733C73.2852 60.813 73.3044 60.8983 73.3044 60.9887C73.3044 61.0826 73.2852 61.1713 73.247 61.2548C73.2122 61.3348 73.1635 61.4043 73.1009 61.4635C73.0418 61.5226 72.9705 61.5696 72.887 61.6043C72.807 61.6391 72.7218 61.6565 72.6313 61.6565ZM71.9865 60.9939C71.9865 60.907 72.0039 60.8235 72.0387 60.7435C72.07 60.6635 72.1152 60.5939 72.1744 60.5348C72.23 60.4757 72.2961 60.427 72.3726 60.3887C72.4491 60.3504 72.5309 60.3278 72.6178 60.3209C72.8265 60.3209 73.0109 60.2791 73.1709 60.1957C73.3344 60.1122 73.4752 60.0009 73.5935 59.8617C73.7152 59.7226 73.8196 59.5643 73.9065 59.387C73.9935 59.2096 74.0683 59.027 74.1309 58.8391C74.197 58.6513 74.2526 58.467 74.2978 58.2861C74.3465 58.1017 74.39 57.9365 74.4283 57.7904L75.7326 58.0774C75.7013 58.1748 75.6596 58.3 75.6074 58.453C75.5587 58.6026 75.51 58.7626 75.4613 58.933C75.4126 59.1 75.3726 59.2704 75.3413 59.4443C75.31 59.6148 75.2996 59.7696 75.31 59.9087C75.3204 60.0443 75.357 60.1557 75.4196 60.2426C75.4857 60.3261 75.5917 60.3678 75.7378 60.3678C75.8944 60.3678 76.0352 60.3243 76.1604 60.2374C76.2857 60.147 76.397 60.0304 76.4944 59.8878C76.5952 59.7417 76.6822 59.5765 76.7552 59.3922C76.8317 59.2078 76.8961 59.02 76.9483 58.8287C77.0039 58.6339 77.0491 58.4443 77.0839 58.26C77.1222 58.0757 77.1517 57.9104 77.1726 57.7643L78.3935 57.9991C78.383 58.107 78.3657 58.22 78.3413 58.3383C78.3204 58.4565 78.2978 58.58 78.2735 58.7087C78.2491 58.8339 78.2283 58.9661 78.2109 59.1052C78.1935 59.2409 78.1848 59.3817 78.1848 59.5278C78.1848 59.6426 78.1952 59.7504 78.2161 59.8513C78.2404 59.9522 78.2787 60.0426 78.3309 60.1226C78.3865 60.1991 78.4578 60.2617 78.5448 60.3104C78.6352 60.3557 78.7448 60.38 78.8735 60.3835C79.1204 60.3835 79.3222 60.3209 79.4787 60.1957C79.6352 60.0704 79.7135 59.8791 79.7135 59.6217C79.7135 59.4339 79.6874 59.2304 79.6352 59.0113C79.5865 58.7922 79.5257 58.5783 79.4526 58.3696C79.383 58.1574 79.3083 57.9609 79.2283 57.78C79.1483 57.5957 79.0787 57.4426 79.0196 57.3209L80.1413 56.6948C80.1622 56.733 80.1952 56.8043 80.2404 56.9087C80.2891 57.0096 80.343 57.133 80.4022 57.2791C80.4613 57.4252 80.5222 57.5904 80.5848 57.7748C80.6509 57.9591 80.71 58.1522 80.7622 58.3539C80.8144 58.5557 80.8578 58.7643 80.8926 58.98C80.9274 59.1922 80.9448 59.4009 80.9448 59.6061C80.9448 59.9296 80.8944 60.2217 80.7935 60.4826C80.6961 60.7435 80.55 60.9661 80.3552 61.1504C80.1639 61.3348 79.9274 61.4757 79.6457 61.573C79.3639 61.6739 79.0404 61.7226 78.6752 61.7191C78.4978 61.7226 78.3378 61.7017 78.1952 61.6565C78.0561 61.6113 77.9291 61.5504 77.8144 61.4739C77.703 61.3939 77.6022 61.3035 77.5117 61.2026C77.4248 61.1017 77.3465 60.9991 77.277 60.8948C77.197 61.013 77.11 61.1209 77.0161 61.2183C76.9222 61.3157 76.8126 61.4009 76.6874 61.4739C76.5657 61.547 76.4265 61.6043 76.27 61.6461C76.117 61.6913 75.9396 61.7157 75.7378 61.7191C75.5674 61.7226 75.4126 61.7017 75.2735 61.6565C75.1344 61.6148 75.0074 61.5574 74.8926 61.4843C74.7813 61.4078 74.6787 61.3191 74.5848 61.2183C74.4944 61.1174 74.4109 61.0113 74.3344 60.9C74.2683 60.9974 74.1917 61.093 74.1048 61.187C74.0178 61.2774 73.9117 61.3574 73.7865 61.427C73.6613 61.4965 73.51 61.5522 73.3326 61.5939C73.1587 61.6391 72.95 61.6617 72.7065 61.6617H72.6178C72.5309 61.6583 72.4491 61.6374 72.3726 61.5991C72.2961 61.5643 72.23 61.5174 72.1744 61.4583C72.1152 61.3957 72.07 61.3261 72.0387 61.2496C72.0039 61.1696 71.9865 61.0843 71.9865 60.9939ZM84.0017 58.187C84.12 58.5209 84.2243 58.8565 84.3148 59.1939C84.353 59.3365 84.3913 59.4878 84.4295 59.6478C84.4678 59.8043 84.5008 59.9626 84.5287 60.1226C84.56 60.2826 84.5843 60.4409 84.6017 60.5974C84.6191 60.7504 84.6278 60.8948 84.6278 61.0304C84.6278 61.3435 84.5791 61.6478 84.4817 61.9435C84.3878 62.2426 84.2556 62.5296 84.0852 62.8043C83.9182 63.0826 83.7182 63.347 83.4852 63.5974C83.2556 63.8478 83.0052 64.0843 82.7339 64.307C82.4626 64.5296 82.1756 64.7365 81.873 64.9278C81.5704 65.1191 81.2643 65.2913 80.9548 65.4443L80.36 64.2496C80.6069 64.1278 80.8504 63.9922 81.0904 63.8426C81.3304 63.6965 81.5582 63.54 81.7739 63.373C81.993 63.2061 82.1948 63.0287 82.3791 62.8409C82.5669 62.6565 82.7269 62.4652 82.8591 62.267C82.9948 62.0722 83.1008 61.8704 83.1774 61.6617C83.2539 61.4565 83.2921 61.2461 83.2921 61.0304C83.2921 60.8322 83.2695 60.6235 83.2243 60.4043C83.1791 60.1852 83.1252 59.9678 83.0626 59.7522C83 59.5365 82.9339 59.3313 82.8643 59.1365C82.7948 58.9383 82.7374 58.7626 82.6921 58.6096L84.0017 58.187ZM86.9 53.3296C87.0739 54.6478 87.1643 55.8809 87.1713 57.0287C87.1783 58.8757 87.1522 60.3452 87.093 61.4374L85.7261 61.6461C85.8304 60.0391 85.8617 58.693 85.82 57.6078C85.7643 56.1887 85.6774 54.9087 85.5591 53.7678L86.9 53.3296Z" fill="#636363"/>
</svg>
