<svg width="99" height="23" viewBox="0 0 99 23" fill="none" xmlns="http://www.w3.org/2000/svg">
<path d="M13.7341 15.4829H13V14.1531H13.8618C14.0776 14.1531 14.2235 14.139 14.2995 14.1108C14.4636 14.045 14.5457 13.9025 14.5457 13.6832C14.5457 13.3574 14.4469 12.9909 14.2493 12.5836L15.3573 12.1278C15.4364 12.4473 15.4759 12.7669 15.4759 13.0864C15.4759 13.7787 15.3406 14.3379 15.0701 14.764C14.76 15.2433 14.3147 15.4829 13.7341 15.4829ZM14.8284 11.968V10.751H16.0002V11.968H14.8284ZM13.3101 11.968V10.751H14.4819V11.968H13.3101Z" fill="#A6A6A6"/>
<path d="M11.7131 14.2287C11.6887 14.0533 11.6112 13.9045 11.4805 13.7823C11.3407 13.6539 11.1735 13.5896 10.979 13.5896C10.7844 13.5896 10.6871 13.6852 10.6871 13.8763C10.6871 13.9264 10.7008 13.9671 10.7282 13.9985C10.8862 14.1801 11.1005 14.271 11.3711 14.271C11.4805 14.271 11.5945 14.2569 11.7131 14.2287ZM12.4973 14.1535H13.1676V15.4834H12.4198C12.2253 16.3104 11.8255 17.0153 11.2206 17.5979C10.5914 18.1994 9.90896 18.5002 9.17334 18.5002L9.34661 17.1797C9.87552 17.1797 10.3634 16.9855 10.8102 16.597C11.2358 16.2274 11.4486 15.8467 11.4486 15.4552C11.3969 15.4614 11.3437 15.4646 11.289 15.4646C10.9242 15.4646 10.6096 15.3831 10.3452 15.2202C10.0199 15.0197 9.85728 14.7299 9.85728 14.3509C9.85728 13.8716 10.0123 13.4346 10.3224 13.0398C10.6142 12.6702 10.906 12.4854 11.1978 12.4854C11.4957 12.4854 11.7617 12.6154 11.9958 12.8754C12.2693 13.1792 12.4365 13.6053 12.4973 14.1535Z" fill="#A6A6A6"/>
<path d="M7.46862 13.9794C7.46862 13.8604 7.38807 13.7319 7.22696 13.5941C7.08106 13.4719 6.93211 13.3873 6.78012 13.3403L6.50654 14.0781C6.70413 14.2003 6.90475 14.2614 7.10841 14.2614C7.34855 14.2614 7.46862 14.1674 7.46862 13.9794ZM8.48998 14.4305C8.38359 15.22 7.96714 15.6147 7.24064 15.6147C7.11297 15.6147 6.98074 15.599 6.84395 15.5677C6.5491 15.505 6.34999 15.4158 6.24664 15.2998C6.17369 15.2153 6.11441 15.0555 6.06882 14.8205C5.65845 15.2623 5.23288 15.4831 4.79212 15.4831H4.5459V14.1533H4.8058C5.2192 14.1533 5.49582 14.0154 5.63565 13.7398C5.70557 13.5988 5.7922 13.3466 5.89555 12.9832C5.98978 12.6637 6.07946 12.4412 6.16457 12.3159C6.29224 12.1248 6.46854 12.0293 6.69349 12.0293C7.02482 12.0293 7.40023 12.2533 7.81972 12.7013C8.27872 13.1931 8.50822 13.7006 8.50822 14.2238C8.50822 14.2927 8.50214 14.3616 8.48998 14.4305Z" fill="#A6A6A6"/>
<path d="M4.78767 15.4832H1.80566V14.1533H4.78767V15.4832Z" fill="#A6A6A6"/>
<path d="M2.08831 14.1531V15.483H1.491C0.913447 15.483 0.506119 15.2715 0.269018 14.8486C0.0896728 14.5259 0 14.0341 0 13.3731C0 13.2164 0.00455964 13.0301 0.0136789 12.8139C0.0683945 11.6329 0.186945 10.5709 0.36933 9.62793L1.48644 9.98506C1.27062 11.0032 1.14143 11.9101 1.09887 12.7058C1.08671 12.9564 1.08063 13.146 1.08063 13.2744C1.08063 13.6002 1.12167 13.8242 1.20374 13.9464C1.2919 14.0842 1.45756 14.1531 1.70074 14.1531H2.08831Z" fill="#A6A6A6"/>
<path d="M8.06203 8.97821C7.91612 9.77078 7.48447 10.4349 6.76709 10.9706C6.07099 11.4844 5.30041 11.7413 4.45536 11.7413C3.61334 11.7413 2.93852 11.5204 2.43088 11.0787C1.94148 10.6526 1.69678 10.1029 1.69678 9.42932C1.69678 8.78085 2.00379 8.12768 2.61782 7.46981C3.1589 6.88713 3.86716 6.37179 4.74261 5.92382V7.21606C4.25017 7.41342 3.78357 7.69536 3.34281 8.06189C2.81693 8.49421 2.55399 8.88423 2.55399 9.23196C2.55399 9.57029 2.75917 9.84284 3.16954 10.0496C3.56471 10.2501 4.05867 10.3503 4.65142 10.3503C5.40528 10.3503 6.02387 10.1843 6.50719 9.85223C7.03003 9.49197 7.29145 8.99544 7.29145 8.36263C7.29145 7.8426 7.1197 7.27088 6.77621 6.64747L7.87964 6.28564C8.07115 6.72422 8.1669 7.25365 8.1669 7.87393C8.1669 8.24359 8.13194 8.61168 8.06203 8.97821ZM5.45848 5.71706V4.5H6.6303V5.71706H5.45848Z" fill="#A6A6A6"/>
<path d="M19.747 15.6574C19.747 15.069 19.7429 14.4725 19.7348 13.8678C19.7307 13.2632 19.7145 12.6646 19.6861 12.0722C19.6577 11.4757 19.6151 10.8933 19.5583 10.3252C19.5055 9.7571 19.4304 9.2113 19.333 8.68783C19.2397 8.16029 19.122 7.66522 18.98 7.20261C18.838 6.73594 18.6635 6.31188 18.4565 5.93043L20.167 4.86522C20.3983 5.22638 20.591 5.6058 20.7452 6.00348C20.8994 6.40116 21.0293 6.81304 21.1348 7.23913C21.2403 7.66116 21.3275 8.09739 21.3965 8.54783C21.4696 8.99826 21.5365 9.45478 21.5974 9.91739C21.642 10.2786 21.6765 10.6661 21.7009 11.08C21.7293 11.4939 21.7516 11.9159 21.7678 12.3461C21.7841 12.7722 21.7942 13.1962 21.7983 13.6183C21.8023 14.0362 21.8043 14.4278 21.8043 14.793V15.0791V15.6574H19.747ZM29.7713 5.0113C29.82 5.33188 29.8585 5.62609 29.8869 5.89391C29.9154 6.16174 29.9296 6.40928 29.9296 6.63652C29.9296 7.07884 29.8707 7.50899 29.753 7.92696C29.6354 8.34087 29.4162 8.75072 29.0956 9.15652C28.8278 9.47304 28.5133 9.71043 28.1522 9.8687C27.7951 10.027 27.3974 10.1061 26.9591 10.1061C26.8455 10.1061 26.7339 10.1041 26.6243 10.1C26.5148 10.0919 26.4093 10.0777 26.3078 10.0574C26.3606 10.52 26.4011 10.9988 26.4296 11.4939C26.458 11.989 26.4783 12.4861 26.4904 12.9852C26.5067 13.4803 26.5148 13.9672 26.5148 14.4461C26.5188 14.9249 26.5209 15.3733 26.5209 15.7913H24.4635C24.4635 15.0406 24.4554 14.2858 24.4391 13.527C24.4229 12.7681 24.3864 12.0336 24.3296 11.3235C24.2768 10.6133 24.1956 9.94174 24.0861 9.3087C23.9806 8.67565 23.8385 8.10957 23.66 7.61044V7.61652L23.5139 7.26348L23.4713 7.15391H23.4774L23.453 7.09304V7.09913C23.4084 6.98956 23.3536 6.8658 23.2887 6.72783C23.2278 6.5858 23.1284 6.39507 22.9904 6.15565L24.7191 5.06C24.8125 5.20609 24.8916 5.33797 24.9565 5.45565C25.0214 5.57333 25.0783 5.6829 25.1269 5.78435C25.1756 5.8858 25.2183 5.98116 25.2548 6.07043C25.2954 6.15565 25.3339 6.24087 25.3704 6.32609L25.5469 6.76435C25.6281 6.95101 25.7133 7.12551 25.8026 7.28783C25.8919 7.45014 25.9913 7.59014 26.1009 7.70783C26.2104 7.82145 26.3342 7.91072 26.4722 7.97565C26.6142 8.04058 26.7765 8.07101 26.9591 8.06696C27.1945 8.05884 27.373 8.00406 27.4948 7.90261C27.6165 7.80116 27.7058 7.67333 27.7626 7.51913C27.8194 7.36493 27.8498 7.19246 27.8539 7.00174C27.862 6.81101 27.8661 6.62638 27.8661 6.44783C27.8661 6.28145 27.8559 6.1171 27.8356 5.95478C27.8154 5.78841 27.7869 5.59362 27.7504 5.37043L29.7713 5.0113ZM31.3727 14.6896C31.3727 14.3528 31.4863 14.0788 31.7136 13.8678C31.9408 13.6568 32.2269 13.5513 32.5718 13.5513C32.9208 13.5513 33.2089 13.6568 33.4362 13.8678C33.6634 14.0788 33.7771 14.3528 33.7771 14.6896C33.7771 15.0223 33.6634 15.2922 33.4362 15.4991C33.213 15.7101 32.9249 15.8157 32.5718 15.8157C32.2229 15.8157 31.9347 15.7101 31.7075 15.4991C31.4843 15.2922 31.3727 15.0223 31.3727 14.6896ZM36.9605 12.2548C36.9605 12.3928 36.9849 12.5226 37.0336 12.6443C37.0863 12.762 37.1573 12.8675 37.2466 12.9609C37.3399 13.0501 37.4454 13.1212 37.5631 13.1739C37.6849 13.2226 37.8147 13.247 37.9527 13.247C38.0947 13.247 38.2266 13.2226 38.3483 13.1739C38.4701 13.1212 38.5756 13.0501 38.6649 12.9609C38.7582 12.8675 38.8312 12.762 38.884 12.6443C38.9408 12.5226 38.9692 12.3928 38.9692 12.2548C38.9692 12.1128 38.9408 11.9809 38.884 11.8591C38.8312 11.7374 38.7582 11.6319 38.6649 11.5426C38.5756 11.4493 38.4701 11.3762 38.3483 11.3235C38.2266 11.2667 38.0947 11.2383 37.9527 11.2383C37.8147 11.2383 37.6849 11.2667 37.5631 11.3235C37.4454 11.3762 37.3399 11.4493 37.2466 11.5426C37.1573 11.6319 37.0863 11.7374 37.0336 11.8591C36.9849 11.9809 36.9605 12.1128 36.9605 12.2548ZM35.4509 12.2548C35.4509 11.9099 35.5159 11.5852 35.6457 11.2809C35.7796 10.9725 35.9582 10.7046 36.1814 10.4774C36.4086 10.2501 36.6744 10.0696 36.9788 9.93565C37.2831 9.80174 37.6078 9.73478 37.9527 9.73478C38.2976 9.73478 38.6223 9.80174 38.9266 9.93565C39.235 10.0696 39.5028 10.2501 39.7301 10.4774C39.9573 10.7046 40.1379 10.9725 40.2718 11.2809C40.4057 11.5852 40.4727 11.9099 40.4727 12.2548C40.4727 12.5997 40.4057 12.9243 40.2718 13.2287C40.1379 13.533 39.9573 13.7988 39.7301 14.0261C39.5028 14.2493 39.235 14.4278 38.9266 14.5617C38.6223 14.6916 38.2976 14.7565 37.9527 14.7565C37.6078 14.7565 37.2831 14.6916 36.9788 14.5617C36.6744 14.4278 36.4086 14.2493 36.1814 14.0261C35.9582 13.7988 35.7796 13.533 35.6457 13.2287C35.5159 12.9243 35.4509 12.5997 35.4509 12.2548ZM43.1129 12.2548C43.1129 12.3928 43.1372 12.5226 43.1859 12.6443C43.2387 12.762 43.3097 12.8675 43.3989 12.9609C43.4923 13.0501 43.5978 13.1212 43.7155 13.1739C43.8372 13.2226 43.9671 13.247 44.105 13.247C44.2471 13.247 44.3789 13.2226 44.5007 13.1739C44.6224 13.1212 44.7279 13.0501 44.8172 12.9609C44.9105 12.8675 44.9836 12.762 45.0363 12.6443C45.0931 12.5226 45.1216 12.3928 45.1216 12.2548C45.1216 12.1128 45.0931 11.9809 45.0363 11.8591C44.9836 11.7374 44.9105 11.6319 44.8172 11.5426C44.7279 11.4493 44.6224 11.3762 44.5007 11.3235C44.3789 11.2667 44.2471 11.2383 44.105 11.2383C43.9671 11.2383 43.8372 11.2667 43.7155 11.3235C43.5978 11.3762 43.4923 11.4493 43.3989 11.5426C43.3097 11.6319 43.2387 11.7374 43.1859 11.8591C43.1372 11.9809 43.1129 12.1128 43.1129 12.2548ZM41.6033 12.2548C41.6033 11.9099 41.6682 11.5852 41.7981 11.2809C41.932 10.9725 42.1105 10.7046 42.3337 10.4774C42.561 10.2501 42.8268 10.0696 43.1311 9.93565C43.4355 9.80174 43.7601 9.73478 44.105 9.73478C44.45 9.73478 44.7746 9.80174 45.0789 9.93565C45.3873 10.0696 45.6552 10.2501 45.8824 10.4774C46.1097 10.7046 46.2902 10.9725 46.4242 11.2809C46.5581 11.5852 46.625 11.9099 46.625 12.2548C46.625 12.5997 46.5581 12.9243 46.4242 13.2287C46.2902 13.533 46.1097 13.7988 45.8824 14.0261C45.6552 14.2493 45.3873 14.4278 45.0789 14.5617C44.7746 14.6916 44.45 14.7565 44.105 14.7565C43.7601 14.7565 43.4355 14.6916 43.1311 14.5617C42.8268 14.4278 42.561 14.2493 42.3337 14.0261C42.1105 13.7988 41.932 13.533 41.7981 13.2287C41.6682 12.9243 41.6033 12.5997 41.6033 12.2548ZM49.2652 12.2548C49.2652 12.3928 49.2895 12.5226 49.3382 12.6443C49.391 12.762 49.462 12.8675 49.5513 12.9609C49.6446 13.0501 49.7501 13.1212 49.8678 13.1739C49.9895 13.2226 50.1194 13.247 50.2574 13.247C50.3994 13.247 50.5313 13.2226 50.653 13.1739C50.7748 13.1212 50.8803 13.0501 50.9695 12.9609C51.0629 12.8675 51.1359 12.762 51.1887 12.6443C51.2455 12.5226 51.2739 12.3928 51.2739 12.2548C51.2739 12.1128 51.2455 11.9809 51.1887 11.8591C51.1359 11.7374 51.0629 11.6319 50.9695 11.5426C50.8803 11.4493 50.7748 11.3762 50.653 11.3235C50.5313 11.2667 50.3994 11.2383 50.2574 11.2383C50.1194 11.2383 49.9895 11.2667 49.8678 11.3235C49.7501 11.3762 49.6446 11.4493 49.5513 11.5426C49.462 11.6319 49.391 11.7374 49.3382 11.8591C49.2895 11.9809 49.2652 12.1128 49.2652 12.2548ZM47.7556 12.2548C47.7556 11.9099 47.8206 11.5852 47.9504 11.2809C48.0843 10.9725 48.2629 10.7046 48.4861 10.4774C48.7133 10.2501 48.9791 10.0696 49.2835 9.93565C49.5878 9.80174 49.9124 9.73478 50.2574 9.73478C50.6023 9.73478 50.9269 9.80174 51.2313 9.93565C51.5397 10.0696 51.8075 10.2501 52.0348 10.4774C52.262 10.7046 52.4426 10.9725 52.5765 11.2809C52.7104 11.5852 52.7774 11.9099 52.7774 12.2548C52.7774 12.5997 52.7104 12.9243 52.5765 13.2287C52.4426 13.533 52.262 13.7988 52.0348 14.0261C51.8075 14.2493 51.5397 14.4278 51.2313 14.5617C50.9269 14.6916 50.6023 14.7565 50.2574 14.7565C49.9124 14.7565 49.5878 14.6916 49.2835 14.5617C48.9791 14.4278 48.7133 14.2493 48.4861 14.0261C48.2629 13.7988 48.0843 13.533 47.9504 13.2287C47.8206 12.9243 47.7556 12.5997 47.7556 12.2548ZM54.2184 14.6896C54.2184 14.3528 54.332 14.0788 54.5593 13.8678C54.7865 13.6568 55.0726 13.5513 55.4175 13.5513C55.7665 13.5513 56.0546 13.6568 56.2819 13.8678C56.5091 14.0788 56.6228 14.3528 56.6228 14.6896C56.6228 15.0223 56.5091 15.2922 56.2819 15.4991C56.0587 15.7101 55.7706 15.8157 55.4175 15.8157C55.0686 15.8157 54.7804 15.7101 54.5532 15.4991C54.33 15.2922 54.2184 15.0223 54.2184 14.6896ZM59.8062 12.2548C59.8062 12.3928 59.8306 12.5226 59.8793 12.6443C59.932 12.762 60.003 12.8675 60.0923 12.9609C60.1856 13.0501 60.2911 13.1212 60.4088 13.1739C60.5306 13.2226 60.6604 13.247 60.7984 13.247C60.9404 13.247 61.0723 13.2226 61.194 13.1739C61.3158 13.1212 61.4213 13.0501 61.5106 12.9609C61.6039 12.8675 61.6769 12.762 61.7297 12.6443C61.7865 12.5226 61.8149 12.3928 61.8149 12.2548C61.8149 12.1128 61.7865 11.9809 61.7297 11.8591C61.6769 11.7374 61.6039 11.6319 61.5106 11.5426C61.4213 11.4493 61.3158 11.3762 61.194 11.3235C61.0723 11.2667 60.9404 11.2383 60.7984 11.2383C60.6604 11.2383 60.5306 11.2667 60.4088 11.3235C60.2911 11.3762 60.1856 11.4493 60.0923 11.5426C60.003 11.6319 59.932 11.7374 59.8793 11.8591C59.8306 11.9809 59.8062 12.1128 59.8062 12.2548ZM58.2967 12.2548C58.2967 11.9099 58.3616 11.5852 58.4914 11.2809C58.6253 10.9725 58.8039 10.7046 59.0271 10.4774C59.2543 10.2501 59.5201 10.0696 59.8245 9.93565C60.1288 9.80174 60.4535 9.73478 60.7984 9.73478C61.1433 9.73478 61.468 9.80174 61.7723 9.93565C62.0807 10.0696 62.3485 10.2501 62.5758 10.4774C62.803 10.7046 62.9836 10.9725 63.1175 11.2809C63.2514 11.5852 63.3184 11.9099 63.3184 12.2548C63.3184 12.5997 63.2514 12.9243 63.1175 13.2287C62.9836 13.533 62.803 13.7988 62.5758 14.0261C62.3485 14.2493 62.0807 14.4278 61.7723 14.5617C61.468 14.6916 61.1433 14.7565 60.7984 14.7565C60.4535 14.7565 60.1288 14.6916 59.8245 14.5617C59.5201 14.4278 59.2543 14.2493 59.0271 14.0261C58.8039 13.7988 58.6253 13.533 58.4914 13.2287C58.3616 12.9243 58.2967 12.5997 58.2967 12.2548ZM65.9586 12.2548C65.9586 12.3928 65.9829 12.5226 66.0316 12.6443C66.0844 12.762 66.1554 12.8675 66.2446 12.9609C66.338 13.0501 66.4435 13.1212 66.5612 13.1739C66.6829 13.2226 66.8128 13.247 66.9507 13.247C67.0928 13.247 67.2246 13.2226 67.3464 13.1739C67.4681 13.1212 67.5736 13.0501 67.6629 12.9609C67.7562 12.8675 67.8293 12.762 67.882 12.6443C67.9388 12.5226 67.9673 12.3928 67.9673 12.2548C67.9673 12.1128 67.9388 11.9809 67.882 11.8591C67.8293 11.7374 67.7562 11.6319 67.6629 11.5426C67.5736 11.4493 67.4681 11.3762 67.3464 11.3235C67.2246 11.2667 67.0928 11.2383 66.9507 11.2383C66.8128 11.2383 66.6829 11.2667 66.5612 11.3235C66.4435 11.3762 66.338 11.4493 66.2446 11.5426C66.1554 11.6319 66.0844 11.7374 66.0316 11.8591C65.9829 11.9809 65.9586 12.1128 65.9586 12.2548ZM64.449 12.2548C64.449 11.9099 64.5139 11.5852 64.6438 11.2809C64.7777 10.9725 64.9562 10.7046 65.1794 10.4774C65.4067 10.2501 65.6725 10.0696 65.9768 9.93565C66.2812 9.80174 66.6058 9.73478 66.9507 9.73478C67.2957 9.73478 67.6203 9.80174 67.9246 9.93565C68.2331 10.0696 68.5009 10.2501 68.7281 10.4774C68.9554 10.7046 69.136 10.9725 69.2699 11.2809C69.4038 11.5852 69.4707 11.9099 69.4707 12.2548C69.4707 12.5997 69.4038 12.9243 69.2699 13.2287C69.136 13.533 68.9554 13.7988 68.7281 14.0261C68.5009 14.2493 68.2331 14.4278 67.9246 14.5617C67.6203 14.6916 67.2957 14.7565 66.9507 14.7565C66.6058 14.7565 66.2812 14.6916 65.9768 14.5617C65.6725 14.4278 65.4067 14.2493 65.1794 14.0261C64.9562 13.7988 64.7777 13.533 64.6438 13.2287C64.5139 12.9243 64.449 12.5997 64.449 12.2548ZM72.1109 12.2548C72.1109 12.3928 72.1353 12.5226 72.1839 12.6443C72.2367 12.762 72.3077 12.8675 72.397 12.9609C72.4903 13.0501 72.5958 13.1212 72.7135 13.1739C72.8353 13.2226 72.9651 13.247 73.1031 13.247C73.2451 13.247 73.377 13.2226 73.4987 13.1739C73.6205 13.1212 73.726 13.0501 73.8153 12.9609C73.9086 12.8675 73.9816 12.762 74.0344 12.6443C74.0912 12.5226 74.1196 12.3928 74.1196 12.2548C74.1196 12.1128 74.0912 11.9809 74.0344 11.8591C73.9816 11.7374 73.9086 11.6319 73.8153 11.5426C73.726 11.4493 73.6205 11.3762 73.4987 11.3235C73.377 11.2667 73.2451 11.2383 73.1031 11.2383C72.9651 11.2383 72.8353 11.2667 72.7135 11.3235C72.5958 11.3762 72.4903 11.4493 72.397 11.5426C72.3077 11.6319 72.2367 11.7374 72.1839 11.8591C72.1353 11.9809 72.1109 12.1128 72.1109 12.2548ZM70.6013 12.2548C70.6013 11.9099 70.6663 11.5852 70.7961 11.2809C70.93 10.9725 71.1086 10.7046 71.3318 10.4774C71.559 10.2501 71.8248 10.0696 72.1292 9.93565C72.4335 9.80174 72.7582 9.73478 73.1031 9.73478C73.448 9.73478 73.7726 9.80174 74.077 9.93565C74.3854 10.0696 74.6532 10.2501 74.8805 10.4774C75.1077 10.7046 75.2883 10.9725 75.4222 11.2809C75.5561 11.5852 75.6231 11.9099 75.6231 12.2548C75.6231 12.5997 75.5561 12.9243 75.4222 13.2287C75.2883 13.533 75.1077 13.7988 74.8805 14.0261C74.6532 14.2493 74.3854 14.4278 74.077 14.5617C73.7726 14.6916 73.448 14.7565 73.1031 14.7565C72.7582 14.7565 72.4335 14.6916 72.1292 14.5617C71.8248 14.4278 71.559 14.2493 71.3318 14.0261C71.1086 13.7988 70.93 13.533 70.7961 13.2287C70.6663 12.9243 70.6013 12.5997 70.6013 12.2548ZM77.0641 14.6896C77.0641 14.3528 77.1777 14.0788 77.405 13.8678C77.6322 13.6568 77.9183 13.5513 78.2632 13.5513C78.6122 13.5513 78.9003 13.6568 79.1276 13.8678C79.3548 14.0788 79.4685 14.3528 79.4685 14.6896C79.4685 15.0223 79.3548 15.2922 79.1276 15.4991C78.9044 15.7101 78.6163 15.8157 78.2632 15.8157C77.9143 15.8157 77.6261 15.7101 77.3989 15.4991C77.1757 15.2922 77.0641 15.0223 77.0641 14.6896ZM82.6519 12.2548C82.6519 12.3928 82.6763 12.5226 82.725 12.6443C82.7777 12.762 82.8487 12.8675 82.938 12.9609C83.0313 13.0501 83.1368 13.1212 83.2545 13.1739C83.3763 13.2226 83.5061 13.247 83.6441 13.247C83.7861 13.247 83.918 13.2226 84.0397 13.1739C84.1615 13.1212 84.267 13.0501 84.3563 12.9609C84.4496 12.8675 84.5226 12.762 84.5754 12.6443C84.6322 12.5226 84.6606 12.3928 84.6606 12.2548C84.6606 12.1128 84.6322 11.9809 84.5754 11.8591C84.5226 11.7374 84.4496 11.6319 84.3563 11.5426C84.267 11.4493 84.1615 11.3762 84.0397 11.3235C83.918 11.2667 83.7861 11.2383 83.6441 11.2383C83.5061 11.2383 83.3763 11.2667 83.2545 11.3235C83.1368 11.3762 83.0313 11.4493 82.938 11.5426C82.8487 11.6319 82.7777 11.7374 82.725 11.8591C82.6763 11.9809 82.6519 12.1128 82.6519 12.2548ZM81.1424 12.2548C81.1424 11.9099 81.2073 11.5852 81.3371 11.2809C81.471 10.9725 81.6496 10.7046 81.8728 10.4774C82.1 10.2501 82.3658 10.0696 82.6702 9.93565C82.9745 9.80174 83.2992 9.73478 83.6441 9.73478C83.989 9.73478 84.3137 9.80174 84.618 9.93565C84.9264 10.0696 85.1942 10.2501 85.4215 10.4774C85.6487 10.7046 85.8293 10.9725 85.9632 11.2809C86.0971 11.5852 86.1641 11.9099 86.1641 12.2548C86.1641 12.5997 86.0971 12.9243 85.9632 13.2287C85.8293 13.533 85.6487 13.7988 85.4215 14.0261C85.1942 14.2493 84.9264 14.4278 84.618 14.5617C84.3137 14.6916 83.989 14.7565 83.6441 14.7565C83.2992 14.7565 82.9745 14.6916 82.6702 14.5617C82.3658 14.4278 82.1 14.2493 81.8728 14.0261C81.6496 13.7988 81.471 13.533 81.3371 13.2287C81.2073 12.9243 81.1424 12.5997 81.1424 12.2548ZM88.8043 12.2548C88.8043 12.3928 88.8286 12.5226 88.8773 12.6443C88.9301 12.762 89.0011 12.8675 89.0903 12.9609C89.1837 13.0501 89.2892 13.1212 89.4069 13.1739C89.5286 13.2226 89.6585 13.247 89.7964 13.247C89.9385 13.247 90.0704 13.2226 90.1921 13.1739C90.3138 13.1212 90.4193 13.0501 90.5086 12.9609C90.6019 12.8675 90.675 12.762 90.7277 12.6443C90.7846 12.5226 90.813 12.3928 90.813 12.2548C90.813 12.1128 90.7846 11.9809 90.7277 11.8591C90.675 11.7374 90.6019 11.6319 90.5086 11.5426C90.4193 11.4493 90.3138 11.3762 90.1921 11.3235C90.0704 11.2667 89.9385 11.2383 89.7964 11.2383C89.6585 11.2383 89.5286 11.2667 89.4069 11.3235C89.2892 11.3762 89.1837 11.4493 89.0903 11.5426C89.0011 11.6319 88.9301 11.7374 88.8773 11.8591C88.8286 11.9809 88.8043 12.1128 88.8043 12.2548ZM87.2947 12.2548C87.2947 11.9099 87.3596 11.5852 87.4895 11.2809C87.6234 10.9725 87.8019 10.7046 88.0251 10.4774C88.2524 10.2501 88.5182 10.0696 88.8225 9.93565C89.1269 9.80174 89.4515 9.73478 89.7964 9.73478C90.1414 9.73478 90.466 9.80174 90.7704 9.93565C91.0788 10.0696 91.3466 10.2501 91.5738 10.4774C91.8011 10.7046 91.9817 10.9725 92.1156 11.2809C92.2495 11.5852 92.3164 11.9099 92.3164 12.2548C92.3164 12.5997 92.2495 12.9243 92.1156 13.2287C91.9817 13.533 91.8011 13.7988 91.5738 14.0261C91.3466 14.2493 91.0788 14.4278 90.7704 14.5617C90.466 14.6916 90.1414 14.7565 89.7964 14.7565C89.4515 14.7565 89.1269 14.6916 88.8225 14.5617C88.5182 14.4278 88.2524 14.2493 88.0251 14.0261C87.8019 13.7988 87.6234 13.533 87.4895 13.2287C87.3596 12.9243 87.2947 12.5997 87.2947 12.2548ZM94.9566 12.2548C94.9566 12.3928 94.981 12.5226 95.0297 12.6443C95.0824 12.762 95.1534 12.8675 95.2427 12.9609C95.336 13.0501 95.4415 13.1212 95.5592 13.1739C95.681 13.2226 95.8108 13.247 95.9488 13.247C96.0908 13.247 96.2227 13.2226 96.3444 13.1739C96.4662 13.1212 96.5717 13.0501 96.661 12.9609C96.7543 12.8675 96.8273 12.762 96.8801 12.6443C96.9369 12.5226 96.9653 12.3928 96.9653 12.2548C96.9653 12.1128 96.9369 11.9809 96.8801 11.8591C96.8273 11.7374 96.7543 11.6319 96.661 11.5426C96.5717 11.4493 96.4662 11.3762 96.3444 11.3235C96.2227 11.2667 96.0908 11.2383 95.9488 11.2383C95.8108 11.2383 95.681 11.2667 95.5592 11.3235C95.4415 11.3762 95.336 11.4493 95.2427 11.5426C95.1534 11.6319 95.0824 11.7374 95.0297 11.8591C94.981 11.9809 94.9566 12.1128 94.9566 12.2548ZM93.447 12.2548C93.447 11.9099 93.512 11.5852 93.6418 11.2809C93.7757 10.9725 93.9543 10.7046 94.1775 10.4774C94.4047 10.2501 94.6705 10.0696 94.9749 9.93565C95.2792 9.80174 95.6039 9.73478 95.9488 9.73478C96.2937 9.73478 96.6183 9.80174 96.9227 9.93565C97.2311 10.0696 97.4989 10.2501 97.7262 10.4774C97.9534 10.7046 98.134 10.9725 98.2679 11.2809C98.4018 11.5852 98.4688 11.9099 98.4688 12.2548C98.4688 12.5997 98.4018 12.9243 98.2679 13.2287C98.134 13.533 97.9534 13.7988 97.7262 14.0261C97.4989 14.2493 97.2311 14.4278 96.9227 14.5617C96.6183 14.6916 96.2937 14.7565 95.9488 14.7565C95.6039 14.7565 95.2792 14.6916 94.9749 14.5617C94.6705 14.4278 94.4047 14.2493 94.1775 14.0261C93.9543 13.7988 93.7757 13.533 93.6418 13.2287C93.512 12.9243 93.447 12.5997 93.447 12.2548Z" fill="#636363"/>
</svg>
