<svg width="19" height="19" viewBox="0 0 19 19" fill="none" xmlns="http://www.w3.org/2000/svg">
<path d="M10.6172 17.5201C10.6172 16.4033 10.6174 15.5894 10.6592 14.9442C10.7007 14.3032 10.7816 13.8636 10.9271 13.4923C11.3844 12.3245 12.3084 11.4005 13.4762 10.9432C13.8476 10.7977 14.2864 10.7168 14.9256 10.6753C15.569 10.6335 16.3802 10.6333 17.4936 10.6333C17.7214 10.6333 17.8685 10.6335 17.9813 10.6409C18.0898 10.6479 18.1314 10.66 18.1512 10.6677C18.2809 10.7185 18.3836 10.8212 18.4344 10.951C18.4422 10.9708 18.4542 11.0124 18.4613 11.1209C18.4686 11.2336 18.4688 11.3807 18.4688 11.6086V17.3999C18.4688 17.6882 18.4685 17.8743 18.4569 18.016C18.4458 18.1518 18.4269 18.2022 18.4143 18.2269C18.3664 18.321 18.2899 18.3975 18.1958 18.4454C18.1711 18.458 18.1208 18.4768 17.9849 18.4879C17.8433 18.4995 17.6571 18.4999 17.3688 18.4999H11.595C11.3659 18.4999 11.218 18.4997 11.1047 18.4923C10.9956 18.4852 10.9539 18.473 10.9339 18.4651C10.8049 18.4143 10.7028 18.3122 10.652 18.1831L10.1868 18.3664L10.652 18.1831C10.6442 18.1634 10.632 18.1215 10.6248 18.012C10.6174 17.8983 10.6172 17.7498 10.6172 17.5201Z" stroke="#636363"/>
<path d="M0.5 11.6086C0.5 11.3807 0.500245 11.2336 0.507559 11.1209C0.514601 11.0124 0.52667 10.9708 0.534432 10.951C0.585249 10.8212 0.68791 10.7186 0.817664 10.6677C0.837482 10.66 0.879056 10.6479 0.987586 10.6409C1.10031 10.6335 1.24741 10.6333 1.47528 10.6333C2.58863 10.6333 3.39984 10.6335 4.04323 10.6753C4.68241 10.7168 5.12119 10.7977 5.49268 10.9432C6.66047 11.4005 7.58441 12.3245 8.04177 13.4923C8.18721 13.8636 8.26817 14.3032 8.30966 14.9442C8.35141 15.5894 8.35166 16.4033 8.35166 17.5201C8.35166 17.7498 8.35141 17.8983 8.34401 18.012C8.33688 18.1215 8.32466 18.1634 8.31687 18.1831C8.26604 18.3122 8.16392 18.4143 8.0349 18.4651C8.01498 18.473 7.97322 18.4852 7.86414 18.4923C7.75084 18.4997 7.60296 18.4999 7.37389 18.4999H1.6C1.31172 18.4999 1.12559 18.4995 0.983918 18.4879C0.848086 18.4768 0.797727 18.458 0.773005 18.4454L0.548335 18.8863L0.773004 18.4454C0.678924 18.3975 0.602434 18.321 0.554497 18.2269C0.5419 18.2022 0.523062 18.1518 0.511964 18.016C0.500389 17.8743 0.5 17.6882 0.5 17.3999V11.6086Z" stroke="#636363"/>
<path d="M0.5 1.6C0.5 1.31172 0.500389 1.12559 0.511964 0.983918C0.523062 0.848086 0.5419 0.797727 0.554497 0.773005C0.602433 0.678924 0.678924 0.602433 0.773005 0.554497C0.797727 0.5419 0.848086 0.523062 0.983918 0.511964C1.12559 0.500389 1.31172 0.5 1.6 0.5H7.40032C7.63195 0.5 7.78148 0.500253 7.89602 0.507806C8.00627 0.515076 8.04843 0.52753 8.06856 0.535556C8.19603 0.586378 8.297 0.687354 8.34783 0.81482C8.3558 0.834821 8.36829 0.877053 8.37557 0.987802C8.38313 1.10274 8.38338 1.25284 8.38338 1.48515C8.38338 2.61443 8.38313 3.43739 8.34046 4.0896C8.29805 4.73766 8.21531 5.1818 8.06664 5.55679C7.60923 6.71059 6.69559 7.62423 5.54179 8.08164C5.16667 8.23036 4.7233 8.31307 4.07712 8.35546C3.42669 8.39813 2.60639 8.39838 1.48056 8.39838C1.25014 8.39838 1.10139 8.39813 0.987436 8.39066C0.877734 8.38346 0.835763 8.37113 0.815733 8.36319C0.687532 8.31236 0.586017 8.21085 0.535193 8.08265C0.527252 8.06262 0.514922 8.02065 0.507726 7.91095C0.50025 7.79699 0.5 7.64824 0.5 7.41782V1.6Z" stroke="#636363"/>
<path d="M10.6172 1.48515C10.6172 1.25284 10.6174 1.10274 10.625 0.987802C10.6323 0.877053 10.6448 0.834821 10.6527 0.81482C10.7036 0.687354 10.8045 0.586378 10.932 0.535556C10.9521 0.52753 10.9943 0.515076 11.1046 0.507806C11.2191 0.500253 11.3686 0.5 11.6003 0.5H17.4006C17.6888 0.5 17.875 0.500389 18.0167 0.511964C18.1525 0.523062 18.2028 0.5419 18.2276 0.554497C18.3216 0.602434 18.3981 0.678924 18.4461 0.773004L18.887 0.548335L18.4461 0.773005C18.4587 0.797727 18.4775 0.848086 18.4886 0.983918C18.5002 1.12559 18.5006 1.31172 18.5006 1.6V7.41782C18.5006 7.64824 18.5003 7.79699 18.4928 7.91095C18.4856 8.02065 18.4733 8.06262 18.4654 8.08265C18.4146 8.21085 18.313 8.31236 18.1848 8.36319C18.1648 8.37113 18.1228 8.38346 18.0131 8.39066C17.8992 8.39813 17.7504 8.39838 17.52 8.39838C16.3942 8.39838 15.5739 8.39813 14.9234 8.35546C14.2773 8.31307 13.8339 8.23036 13.4588 8.08164C12.305 7.62423 11.3913 6.71059 10.9339 5.55679C10.7853 5.1818 10.7025 4.73766 10.6601 4.0896C10.6174 3.43739 10.6172 2.61443 10.6172 1.48515Z" stroke="#636363"/>
</svg>
