<svg width="22" height="23" viewBox="0 0 22 23" fill="none" xmlns="http://www.w3.org/2000/svg">
<ellipse cx="11" cy="11.5" rx="11" ry="11.5" fill="#E2E2E2"/>
<path fill-rule="evenodd" clip-rule="evenodd" d="M3.53906 11.8538C3.53906 11.2992 4.06394 10.8496 4.71142 10.8496H17.2165C17.864 10.8496 18.3889 11.2992 18.3889 11.8538C18.3889 12.4083 17.864 12.8579 17.2165 12.8579H4.71142C4.06394 12.8579 3.53906 12.4083 3.53906 11.8538Z" fill="#636363"/>
<path fill-rule="evenodd" clip-rule="evenodd" d="M11.0385 4.42285C11.5927 4.42285 12.0419 4.94815 12.0419 5.59613L12.0419 18.1111C12.0419 18.7591 11.5927 19.2844 11.0385 19.2844C10.4844 19.2844 10.0352 18.7591 10.0352 18.1111L10.0352 5.59613C10.0352 4.94815 10.4844 4.42285 11.0385 4.42285Z" fill="#636363"/>
</svg>
