<svg width="21" height="25" viewBox="0 0 21 25" fill="none" xmlns="http://www.w3.org/2000/svg">
<path d="M0.373786 24.4281H20.6196C20.7205 24.4281 20.8173 24.3881 20.8886 24.3167C20.9599 24.2454 21 24.1486 21 24.0478C21 23.9469 20.9599 23.8501 20.8886 23.7788C20.8173 23.7075 20.7205 23.6674 20.6196 23.6674H17.3945V14.6438L17.5974 14.7528C17.6449 14.7789 17.6975 14.7944 17.7516 14.7983C17.8058 14.8021 17.8601 14.7942 17.9108 14.7751C17.9615 14.7562 18.0076 14.7267 18.046 14.6886C18.0844 14.6505 18.1142 14.6046 18.1335 14.554L18.8805 12.6004C18.9137 12.5142 18.9143 12.419 18.8823 12.3325C18.8502 12.2459 18.7878 12.174 18.7066 12.1302L17.4589 11.4542V7.51392C17.4589 7.41304 17.4188 7.31629 17.3475 7.24496C17.2762 7.17362 17.1794 7.13354 17.0785 7.13354H14.6441C14.5432 7.13354 14.4465 7.17362 14.3751 7.24496C14.3038 7.31629 14.2637 7.41304 14.2637 7.51392V9.72216L10.4538 7.65746C10.4068 7.63266 10.3548 7.61863 10.3017 7.61637C10.2186 7.6025 10.1332 7.61697 10.0593 7.65746L1.80604 12.1307C1.72491 12.1746 1.66251 12.2465 1.6305 12.333C1.59849 12.4195 1.59905 12.5147 1.63208 12.6009L2.37965 14.5545C2.39891 14.6052 2.42878 14.6511 2.46726 14.6893C2.50575 14.7275 2.55196 14.757 2.60279 14.7758C2.65361 14.7946 2.70788 14.8024 2.76195 14.7985C2.81602 14.7946 2.86862 14.7792 2.91624 14.7533L3.11911 14.6448V23.6674H0.38038C0.279497 23.6674 0.182745 23.7075 0.11141 23.7788C0.0400753 23.8501 0 23.9469 0 24.0478C0 24.1486 0.0400753 24.2454 0.11141 24.3167C0.182745 24.3881 0.279497 24.4281 0.38038 24.4281H0.373786ZM6.5192 23.6674V16.995H10.1161V23.6674H6.5192ZM15.0209 7.8943H16.6946V11.0418L15.0209 10.134V7.8943ZM2.45624 12.642L10.2525 8.41669L18.0483 12.642L17.5756 13.8789L10.4331 10.0047C10.3774 9.97442 10.3151 9.95859 10.2517 9.95859C10.1884 9.95859 10.1261 9.97442 10.0704 10.0047L2.92943 13.8769L2.45624 12.642ZM3.87176 14.2335L10.252 10.775L16.6337 14.2314V23.6674H10.8768V16.6146C10.8768 16.5138 10.8368 16.417 10.7654 16.3457C10.6941 16.2743 10.5973 16.2343 10.4964 16.2343H6.13933C6.03844 16.2343 5.94169 16.2743 5.87036 16.3457C5.79902 16.417 5.75895 16.5138 5.75895 16.6146V23.6674H3.87176V14.2335Z" fill="#636363"/>
<path d="M12.1616 19.4747H15.089C15.1899 19.4747 15.2867 19.4346 15.358 19.3632C15.4293 19.2919 15.4694 19.1952 15.4694 19.0943V16.6142C15.4694 16.5133 15.4293 16.4166 15.358 16.3452C15.2867 16.2739 15.1899 16.2338 15.089 16.2338H12.1616C12.0607 16.2338 11.964 16.2739 11.8927 16.3452C11.8213 16.4166 11.7813 16.5133 11.7813 16.6142V19.0943C11.7812 19.1952 11.8213 19.2919 11.8927 19.3632C11.964 19.4346 12.0607 19.4747 12.1616 19.4747ZM12.542 16.9946H14.7071V18.7139H12.542V16.9946ZM16.4822 6.01225C16.5522 6.08485 16.6481 6.12669 16.7489 6.1286C16.8497 6.1305 16.9472 6.0923 17.0198 6.0224C17.338 5.7181 17.5226 5.30009 17.5331 4.85996C17.7596 4.73986 17.9509 4.5629 18.0883 4.34646C18.2257 4.13002 18.3044 3.88156 18.3167 3.6255C18.3044 3.36783 18.2248 3.11788 18.0858 2.90057C17.9468 2.68327 17.7532 2.50618 17.5245 2.38698C17.5307 2.33362 17.5337 2.27993 17.5336 2.22621C17.5336 1.78199 17.3571 1.35596 17.043 1.04185C16.7289 0.727736 16.3029 0.55127 15.8587 0.55127C15.4144 0.55127 14.9884 0.727736 14.6743 1.04185C14.3602 1.35596 14.1837 1.78199 14.1837 2.22621C14.1837 2.27992 14.1866 2.33359 14.1924 2.38698C13.9636 2.50622 13.7701 2.68332 13.6311 2.90062C13.4921 3.11792 13.4125 3.36784 13.4001 3.6255C13.4124 3.8817 13.4911 4.1303 13.6286 4.34684C13.7661 4.56338 13.9576 4.74039 14.1842 4.86046C14.1948 5.24814 14.3396 5.62013 14.594 5.91285C14.6262 5.95247 14.666 5.9852 14.7111 6.00911C14.7562 6.03302 14.8057 6.0476 14.8565 6.052C14.9073 6.05641 14.9586 6.05053 15.0071 6.03473C15.0556 6.01892 15.1005 5.99351 15.139 5.96001C15.1775 5.92651 15.2088 5.88561 15.2312 5.83973C15.2536 5.79386 15.2665 5.74395 15.2692 5.69298C15.2718 5.64202 15.2642 5.59103 15.2468 5.54307C15.2293 5.4951 15.2024 5.45114 15.1676 5.41379C15.0237 5.24748 14.9446 5.03478 14.945 4.81482C14.9468 4.77485 14.9512 4.73503 14.9582 4.69563C14.9688 4.61645 14.9541 4.53595 14.9164 4.46557C14.8786 4.39518 14.8196 4.33851 14.7477 4.30359C14.3805 4.12506 14.1614 3.87148 14.1614 3.62601C14.1614 3.37242 14.3932 3.11376 14.7812 2.93422C14.8633 2.89623 14.9291 2.83021 14.9668 2.74803C15.0046 2.66584 15.0118 2.57289 14.9871 2.48588C14.9612 2.40168 14.947 2.31429 14.945 2.22621C14.945 1.98375 15.0413 1.75123 15.2128 1.57979C15.3842 1.40834 15.6167 1.31203 15.8592 1.31203C16.1016 1.31203 16.3342 1.40834 16.5056 1.57979C16.677 1.75123 16.7734 1.98375 16.7734 2.22621C16.7713 2.31383 16.757 2.40072 16.7308 2.48436C16.7056 2.57152 16.7126 2.66478 16.7502 2.74729C16.7879 2.8298 16.8538 2.89611 16.9362 2.93422C17.3247 3.11376 17.5564 3.37242 17.5564 3.62601C17.5564 3.87148 17.3368 4.12506 16.9696 4.30359C16.8963 4.34288 16.8369 4.40402 16.7998 4.47853C16.7628 4.55305 16.7498 4.63725 16.7627 4.71947C16.7687 4.75093 16.7723 4.78281 16.7734 4.81482C16.7737 4.93804 16.749 5.06004 16.7007 5.1734C16.6524 5.28675 16.5815 5.38908 16.4924 5.47414C16.4198 5.5442 16.3779 5.64021 16.376 5.7411C16.3741 5.84199 16.4123 5.93951 16.4822 6.01225Z" fill="#636363"/>
</svg>
