<svg width="20" height="21" viewBox="0 0 20 21" fill="none" xmlns="http://www.w3.org/2000/svg">
<path d="M7.56353 5.18664H7.83072V8.75982C7.83072 8.92701 7.96635 9.06264 8.13354 9.06264H13.0733C13.2405 9.06264 13.3761 8.92701 13.3761 8.75982V5.18664H13.6433C13.7739 5.18664 13.8899 5.10351 13.9308 4.97976C13.9724 4.85601 13.9296 4.71913 13.8252 4.641L10.7983 2.37597C10.6901 2.29534 10.5433 2.29472 10.4358 2.37534L7.38259 4.64038C7.27759 4.71851 7.23477 4.85476 7.27571 4.97913C7.31696 5.10289 7.4329 5.18664 7.56353 5.18664ZM11.0523 8.45607H10.2095V7.39886C10.2095 7.16761 10.3992 6.97885 10.6326 6.97885C10.7436 6.97885 10.848 7.02229 10.9298 7.10323C11.0073 7.17948 11.0526 7.28698 11.0526 7.39855L11.0523 8.45607ZM10.6161 2.9966L12.7327 4.58038H8.48104L10.6161 2.9966ZM8.43698 5.18664H12.7699V8.45638H11.6583V7.39917C11.6583 7.12511 11.5467 6.85948 11.3548 6.67291C11.1614 6.47947 10.9051 6.37322 10.632 6.37322C10.0645 6.37322 9.60294 6.83354 9.60294 7.39917V8.45638H8.43698V5.18664ZM2.06125 10.7305H7.56353C7.73072 10.7305 7.86697 10.5948 7.86697 10.4277C7.86697 10.2605 7.73072 10.1242 7.56353 10.1242H2.06125C1.89406 10.1242 1.75781 10.2605 1.75781 10.4277C1.75781 10.5948 1.89406 10.7305 2.06125 10.7305ZM2.06125 12.8424H7.56353C7.73072 12.8424 7.86697 12.7068 7.86697 12.5389C7.86697 12.3718 7.73072 12.2361 7.56353 12.2361H2.06125C1.89406 12.2361 1.75781 12.3718 1.75781 12.5389C1.75781 12.7068 1.89406 12.8424 2.06125 12.8424ZM7.86697 14.6509C7.86697 14.4837 7.73072 14.348 7.56353 14.348H2.06125C1.89406 14.348 1.75781 14.4837 1.75781 14.6509C1.75781 14.8187 1.89406 14.9543 2.06125 14.9543H7.56353C7.73072 14.954 7.86697 14.8187 7.86697 14.6509Z" fill="#636363"/>
<path d="M19.6147 5.48541L19.1928 5.06353C18.6972 4.56852 17.9103 4.54852 17.4387 5.01947L15.9628 6.49543V1.78473C15.9628 1.10409 15.4093 0.55127 14.7293 0.55127H5.94009C5.93384 0.55127 5.92916 0.55377 5.92291 0.554395C5.89478 0.555645 5.86728 0.560957 5.84041 0.570957C5.83197 0.574082 5.82322 0.575957 5.8154 0.58002C5.78259 0.594708 5.75134 0.613458 5.72572 0.639708L0.0884389 6.27699C0.0621885 6.30261 0.0440632 6.33292 0.0293755 6.36542C0.0250004 6.37449 0.0228129 6.38449 0.0190628 6.39417C0.0106252 6.4198 0.00562509 6.44543 0.00375006 6.47168C0.00312505 6.47824 0 6.48449 0 6.49105V19.0713C0 19.7519 0.553134 20.3047 1.23346 20.3047H14.7293C15.4093 20.3047 15.9628 19.7516 15.9628 19.0713V10.9358L18.8734 8.02514C18.8741 8.02514 18.8741 8.02451 18.8741 8.02451L19.6584 7.2395C20.1303 6.76824 20.1109 5.98104 19.6147 5.48541ZM3.33568 3.88664L5.63665 1.58566V5.56041C5.63665 5.90635 5.3554 6.18792 5.00914 6.18792H1.0347L3.33568 3.88664ZM15.3568 19.0713C15.3568 19.4172 15.0756 19.6988 14.7293 19.6988H1.23346C0.887514 19.6988 0.605947 19.4175 0.605947 19.0713V6.79387H5.00914C5.68915 6.79387 6.2426 6.24074 6.2426 5.56041V1.15659H14.729C15.0749 1.15659 15.3565 1.43847 15.3565 1.78473V7.10169L8.51389 13.9449C8.47795 13.9802 8.4517 14.0249 8.43701 14.0737L7.69043 16.6115C7.65918 16.7178 7.68856 16.8331 7.76669 16.9112C7.82419 16.9693 7.90169 17.0003 7.98106 17.0003C8.00982 17.0003 8.03857 16.9959 8.06638 16.9875L10.6049 16.2409C10.6536 16.2268 10.6977 16.2006 10.7336 16.1646L15.3565 11.5418L15.3568 19.0713ZM8.92608 14.5602L10.118 15.7528L8.4292 16.2496L8.92608 14.5602ZM15.4484 10.5933C15.4465 10.5946 15.4452 10.5964 15.4434 10.5977L10.6317 15.4096L9.2689 14.0462L16.8678 6.4473L17.3353 6.91481L15.7665 8.48296C15.6481 8.6014 15.6481 8.79359 15.7665 8.9114C15.8256 8.97047 15.9034 9.00047 15.9809 9.00047C16.0584 9.00047 16.1359 8.97047 16.1953 8.9114L17.764 7.34325L18.2309 7.81076L15.4484 10.5933ZM19.23 6.81106L18.6594 7.38232L17.2965 6.01886L17.8672 5.44822C18.1022 5.21322 18.505 5.23291 18.7644 5.49229L19.1862 5.91417C19.4456 6.17323 19.4656 6.57605 19.23 6.81106Z" fill="#636363"/>
</svg>
