<svg width="14" height="15" viewBox="0 0 14 15" fill="none" xmlns="http://www.w3.org/2000/svg">
<path d="M14 7.4995V2.04532C14 0.917666 13.0809 0 11.9514 0H2.39144C1.262 0 0.342874 0.917666 0.342874 2.04532V7.4995C0.342874 8.62715 1.262 9.54482 2.39144 9.54482H11.9514C13.0809 9.54482 14 8.62715 14 7.4995ZM11.3273 1.36355L7.17144 4.58969L3.01557 1.36355H11.3273ZM1.70859 7.4995V2.07532L6.75216 5.99142C6.87184 6.08497 7.01945 6.1358 7.17144 6.1358C7.32343 6.1358 7.47104 6.08497 7.59071 5.99142L12.6343 2.07395V7.49814C12.6343 7.87311 12.327 8.17991 11.9514 8.17991H2.39144C2.21057 8.17991 2.03709 8.10827 1.90907 7.98071C1.78105 7.85314 1.70895 7.68008 1.70859 7.4995ZM0.682856 13.6341C0.77709 13.6341 0.860398 13.6205 0.940975 13.5795C1.06814 13.5318 1.17732 13.4458 1.2534 13.3335C1.32949 13.2211 1.36874 13.0879 1.36571 12.9523C1.36571 12.8569 1.35205 12.7751 1.32474 12.6932C1.28598 12.6134 1.23533 12.5398 1.17451 12.4751C1.04376 12.3509 0.870172 12.2816 0.689683 12.2816C0.509194 12.2816 0.335613 12.3509 0.204856 12.4751C0.077418 12.6018 0.0040111 12.7728 0 12.9523C0 13.1432 0.068286 13.3068 0.203492 13.4296C0.273143 13.4977 0.341428 13.5523 0.422005 13.5795C0.505314 13.6205 0.599547 13.6341 0.682856 13.6341ZM2.93492 13.4296C3.00457 13.4977 3.07285 13.5523 3.15343 13.5795C3.23674 13.6205 3.33097 13.6341 3.41428 13.6341C3.50852 13.6341 3.59182 13.6205 3.6724 13.5795C3.79956 13.5318 3.90874 13.4458 3.98483 13.3335C4.06092 13.2211 4.10016 13.0879 4.09714 12.9523C4.0982 12.7738 4.02906 12.6019 3.90457 12.4737C3.77381 12.3495 3.60023 12.2802 3.41974 12.2802C3.23925 12.2802 3.06567 12.3495 2.93492 12.4737C2.81337 12.5978 2.73142 12.7751 2.73142 12.9523C2.73142 13.1296 2.79971 13.3068 2.93492 13.4296ZM9.76348 14.7986C9.82673 14.8624 9.90202 14.913 9.985 14.9476C10.068 14.9822 10.157 15 10.2469 15C10.3369 15 10.4259 14.9822 10.5089 14.9476C10.5919 14.913 10.6672 14.8624 10.7304 14.7986L12.0961 13.435C12.2241 13.3072 12.296 13.1338 12.296 12.953C12.296 12.7722 12.2241 12.5988 12.0961 12.471L10.7304 11.1074C10.6016 10.9833 10.4291 10.9145 10.2501 10.9161C10.071 10.9176 9.89977 10.9893 9.77316 11.1157C9.64655 11.2422 9.57474 11.4131 9.57318 11.5919C9.57163 11.7707 9.64046 11.9429 9.76484 12.0715L9.96424 12.2705H6.1498C5.9687 12.2705 5.79501 12.3424 5.66695 12.4702C5.53889 12.5981 5.46695 12.7715 5.46695 12.9523C5.46695 13.1331 5.53889 13.3065 5.66695 13.4344C5.79501 13.5623 5.9687 13.6341 6.1498 13.6341H9.96424L9.76484 13.8332C9.70116 13.8964 9.6506 13.9716 9.61606 14.0544C9.58152 14.1371 9.56367 14.2259 9.56354 14.3156C9.56342 14.4053 9.58101 14.4941 9.61532 14.577C9.64963 14.6598 9.69998 14.7351 9.76348 14.7986Z" fill="#636363"/>
</svg>
