<svg width="45" height="45" viewBox="0 0 45 45" fill="none" xmlns="http://www.w3.org/2000/svg">
<path d="M22.5 45C34.9264 45 45 34.9264 45 22.5C45 10.0736 34.9264 0 22.5 0C10.0736 0 0 10.0736 0 22.5C0 34.9264 10.0736 45 22.5 45Z" fill="#B7B7B7"/>
<path d="M22.9891 20.5435C26.5009 20.5435 29.3478 17.4776 29.3478 13.6957C29.3478 9.91372 26.5009 6.84784 22.9891 6.84784C19.4773 6.84784 16.6304 9.91372 16.6304 13.6957C16.6304 17.4776 19.4773 20.5435 22.9891 20.5435Z" fill="white"/>
<path d="M22.9893 38.1522C20.5164 38.1521 18.11 37.3888 16.1298 35.9765C14.1497 34.5642 12.7021 32.5788 12.0036 30.3169C10.7981 26.4138 13.8669 22.5 18.1347 22.5H27.8438C32.1116 22.5 35.1804 26.4123 33.9749 30.3154C33.2767 32.5775 31.8293 34.5633 29.8491 35.9759C27.8689 37.3885 25.4623 38.152 22.9893 38.1522Z" fill="white"/>
<path d="M29.8401 32.6046L28.3191 33.1812C28.0375 33.2874 27.7235 33.2874 27.4418 33.1812L25.9216 32.6031C25.7779 32.5489 25.6547 32.4552 25.5679 32.3342C25.4812 32.2132 25.4348 32.0704 25.4348 31.9243V27.9829C25.4361 27.8262 25.5026 27.6763 25.6199 27.5656C25.7373 27.4549 25.8961 27.3923 26.062 27.3913H29.6989C29.8648 27.3923 30.0236 27.4549 30.141 27.5656C30.2584 27.6763 30.3249 27.8262 30.3261 27.9829V31.9258C30.3262 32.0718 30.2799 32.2146 30.1933 32.3355C30.1067 32.4565 29.9837 32.5502 29.8401 32.6046Z" fill="#36D859"/>
</svg>
