<svg width="22" height="22" viewBox="0 0 22 22" fill="none" xmlns="http://www.w3.org/2000/svg">
<path d="M5.6874 7.21571C5.41126 7.21571 5.1874 7.43957 5.1874 7.71571C5.1874 7.99186 5.41126 8.21571 5.6874 8.21571V7.21571ZM15.0639 8.21571C15.34 8.21571 15.5639 7.99186 15.5639 7.71571C15.5639 7.43957 15.34 7.21571 15.0639 7.21571V8.21571ZM6.86035 10.6433C6.5842 10.6433 6.36035 10.8671 6.36035 11.1433C6.36035 11.4194 6.5842 11.6433 6.86035 11.6433V10.6433ZM13.8927 11.6433C14.1689 11.6433 14.3927 11.4194 14.3927 11.1433C14.3927 10.8671 14.1689 10.6433 13.8927 10.6433V11.6433ZM5.90672 2V1.49999L5.90307 1.50001L5.90672 2ZM14.8479 2L14.8516 1.5H14.8479V2ZM19.7531 6.97899L19.2531 6.97531V6.97899H19.7531ZM19.7531 13.0242H19.2531L19.2531 13.0279L19.7531 13.0242ZM18.331 16.53L17.9749 16.179L18.331 16.53ZM14.8465 18.0032V18.5032L14.8502 18.5032L14.8465 18.0032ZM5.90672 18.0032V17.5032C5.82111 17.5032 5.73693 17.5252 5.66225 17.5671L5.90672 18.0032ZM1.00013 20.7532H0.500133C0.500133 20.9307 0.594233 21.0949 0.747379 21.1847C0.900525 21.2744 1.08976 21.2762 1.24459 21.1894L1.00013 20.7532ZM1.00013 6.97899H1.50015L1.50012 6.97532L1.00013 6.97899ZM2.42222 3.47325L2.06608 3.1223V3.1223L2.42222 3.47325ZM5.6874 8.21571H15.0639V7.21571H5.6874V8.21571ZM6.86035 11.6433H13.8927V10.6433H6.86035V11.6433ZM5.90672 2.5H14.8479V1.5H5.90672V2.5ZM14.8441 2.49999C17.2973 2.51854 19.2711 4.52205 19.2531 6.97531L20.2531 6.98266C20.2752 3.97722 17.8571 1.52274 14.8516 1.50001L14.8441 2.49999ZM19.2531 6.97899V13.0242H20.2531V6.97899H19.2531ZM19.2531 13.0279C19.2618 14.2062 18.802 15.3397 17.9749 16.179L18.6872 16.8809C19.7004 15.8527 20.2637 14.4641 20.2531 13.0206L19.2531 13.0279ZM17.9749 16.179C17.1478 17.0183 16.0212 17.4946 14.8429 17.5032L14.8502 18.5032C16.2937 18.4927 17.6739 17.9091 18.6872 16.8809L17.9749 16.179ZM14.8465 17.5032H5.90672V18.5032H14.8465V17.5032ZM5.66225 17.5671L0.755673 20.3171L1.24459 21.1894L6.15118 18.4394L5.66225 17.5671ZM1.50013 20.7532V6.97899H0.500133V20.7532H1.50013ZM1.50012 6.97532C1.49147 5.79699 1.95126 4.6635 2.77835 3.82421L2.06608 3.1223C1.05283 4.1505 0.489546 5.53912 0.500147 6.98266L1.50012 6.97532ZM2.77835 3.82421C3.60544 2.98492 4.73206 2.50858 5.91036 2.49999L5.90307 1.50001C4.45955 1.51054 3.07934 2.09409 2.06608 3.1223L2.77835 3.82421Z" fill="#636363"/>
<g filter="url(#filter0_d_1118_3608)">
<circle cx="18.5" cy="2.5" r="2.5" fill="#9C4040"/>
</g>
<defs>
<filter id="filter0_d_1118_3608" x="15" y="0" width="7" height="7" filterUnits="userSpaceOnUse" color-interpolation-filters="sRGB">
<feFlood flood-opacity="0" result="BackgroundImageFix"/>
<feColorMatrix in="SourceAlpha" type="matrix" values="0 0 0 0 0 0 0 0 0 0 0 0 0 0 0 0 0 0 127 0" result="hardAlpha"/>
<feOffset dy="1"/>
<feGaussianBlur stdDeviation="0.5"/>
<feComposite in2="hardAlpha" operator="out"/>
<feColorMatrix type="matrix" values="0 0 0 0 0 0 0 0 0 0 0 0 0 0 0 0 0 0 0.25 0"/>
<feBlend mode="normal" in2="BackgroundImageFix" result="effect1_dropShadow_1118_3608"/>
<feBlend mode="normal" in="SourceGraphic" in2="effect1_dropShadow_1118_3608" result="shape"/>
</filter>
</defs>
</svg>
