<svg width="18" height="19" viewBox="0 0 18 19" fill="none" xmlns="http://www.w3.org/2000/svg">
<path d="M17.7375 11.0956C17.894 11.0454 18 10.8998 18 10.7354V8.37467C18 8.21027 17.8938 8.06471 17.7373 8.01446L15.5105 7.30032C15.4118 7.02619 15.3108 6.78199 15.2048 6.56106L16.2751 4.47295C16.3499 4.32701 16.322 4.14931 16.2062 4.0333L14.5377 2.36119C14.4217 2.24444 14.2442 2.2171 14.0981 2.29136L12.0096 3.35648C11.7748 3.23936 11.5243 3.13481 11.2611 3.04393L10.5483 0.814316C10.498 0.65767 10.3525 0.55127 10.1879 0.55127H7.82728C7.66325 0.55127 7.51787 0.656931 7.46726 0.813207L6.74665 3.04171C6.52092 3.12003 6.2612 3.22015 5.99778 3.35168L3.92205 2.28397C3.77538 2.20898 3.5973 2.23705 3.48111 2.35343L1.809 4.02961C1.69336 4.14562 1.66547 4.32258 1.73991 4.46851L2.79819 6.54332C2.67923 6.78531 2.57615 7.0358 2.49026 7.29145L0.269698 8.00707C0.113792 8.05732 0.0079453 8.20214 0.0073911 8.36618L2.16935e-06 10.7269C-0.000551984 10.8913 0.10511 11.0369 0.261386 11.0879L2.49081 11.812C2.57578 12.0514 2.67683 12.2927 2.80022 12.5513L1.73622 14.6338C1.66177 14.7798 1.68948 14.9567 1.80512 15.0727L3.46966 16.7449C3.58548 16.8612 3.76319 16.8908 3.9093 16.8151L5.99668 15.7522C6.24254 15.8726 6.48675 15.9749 6.73594 16.0617L7.46005 18.2866C7.51067 18.4425 7.65586 18.5478 7.81971 18.5478H10.1803C10.3441 18.5478 10.4893 18.4425 10.5399 18.2866L11.2648 16.0603C11.5264 15.9675 11.77 15.8671 12.0018 15.7558L14.0866 16.8191C14.2333 16.8934 14.4097 16.8653 14.5259 16.75L16.1941 15.0853C16.31 14.9697 16.3384 14.7923 16.2642 14.6464L15.2022 12.5535C15.3134 12.3292 15.415 12.0843 15.5097 11.8124L17.7375 11.0956ZM14.4395 12.7223L15.4652 14.7436L14.1858 16.0204L12.1759 14.9952C12.0669 14.939 11.9385 14.9397 11.8302 14.9959C11.5304 15.1511 11.2081 15.2844 10.8451 15.4038C10.7308 15.4414 10.641 15.5316 10.6039 15.6461L9.90561 17.7911H8.09439L7.39614 15.6461C7.35846 15.5301 7.26683 15.4392 7.15046 15.4027C6.81888 15.2977 6.49857 15.1636 6.17124 14.9926C6.06299 14.9364 5.93369 14.9353 5.82451 14.9911L3.8114 16.0159L2.53496 14.7336L3.55999 12.7271C3.61467 12.62 3.61522 12.4933 3.56147 12.3858C3.38173 12.0263 3.25039 11.7115 3.14806 11.3945C3.11074 11.2793 3.02041 11.1887 2.90496 11.1511L0.757553 10.4535L0.763094 8.64326L2.90792 7.95203C3.02651 7.9136 3.11869 7.81939 3.15434 7.70006C3.25557 7.36165 3.39078 7.03284 3.55685 6.72177C3.61504 6.61278 3.61633 6.482 3.55999 6.3719L2.53866 4.3695L3.82156 3.08346L5.82692 4.11495C5.93978 4.17222 6.07371 4.17037 6.18417 4.10904C6.45516 3.95794 6.7485 3.83528 7.16542 3.69896C7.2805 3.66164 7.37065 3.57113 7.40796 3.45586L8.10252 1.3079H9.9117L10.5992 3.45845C10.6369 3.57593 10.7293 3.66755 10.8468 3.70413C11.2016 3.81496 11.5312 3.95313 11.8262 4.11421C11.9359 4.17369 12.0682 4.17591 12.1794 4.11902L14.1965 3.09048L15.4761 4.37283L14.4439 6.38631C14.3879 6.49567 14.3885 6.62534 14.4454 6.73396C14.5898 7.01067 14.7247 7.33468 14.8575 7.72482C14.8961 7.83824 14.9861 7.92653 15.1 7.96311L17.2434 8.65065V10.4598L15.0961 11.1507C14.9801 11.188 14.8894 11.2789 14.8519 11.3945C14.7295 11.774 14.5963 12.0932 14.4448 12.3695C14.385 12.4792 14.3829 12.6111 14.4395 12.7223Z" fill="#636363"/>
<path d="M9.47426 5.97957C7.50677 5.71726 5.69131 7.10601 5.42882 9.07405C5.30155 10.0291 5.55259 10.9767 6.13594 11.7418C6.72004 12.5077 7.56736 12.9998 8.5222 13.1269C8.68309 13.1483 8.84288 13.1587 9.001 13.1587C10.781 13.1587 12.3347 11.8375 12.576 10.0261C12.8383 8.05808 11.4469 6.24261 9.47426 5.97957ZM11.826 9.92637C11.6185 11.4851 10.1843 12.5849 8.62195 12.3769C7.86809 12.2764 7.19884 11.8881 6.73777 11.283C6.2767 10.6782 6.07812 9.92932 6.1788 9.1738C6.36906 7.74589 7.59378 6.70442 8.99694 6.70442C9.12163 6.70442 9.24761 6.71255 9.37433 6.72954C10.9334 6.93754 12.033 8.37137 11.826 9.92637Z" fill="#636363"/>
</svg>
