<svg width="19" height="25" viewBox="0 0 19 25" fill="none" xmlns="http://www.w3.org/2000/svg">
<path d="M0.390789 25.0046C0.494432 25.0046 0.593831 24.9635 0.667118 24.8902C0.740405 24.8169 0.781577 24.7175 0.781577 24.6139V20.2972C0.781577 19.4429 1.23724 18.6379 1.97036 18.1987L5.02945 16.3627L6.70828 18.4613C6.74269 18.5042 6.78573 18.5393 6.8346 18.5645C6.88348 18.5897 6.9371 18.6043 6.99199 18.6074L7.01387 18.6082C7.11704 18.6082 7.21708 18.5676 7.29055 18.4941L8.20734 17.5773V24.6139C8.20734 24.7175 8.24852 24.8169 8.3218 24.8902C8.39509 24.9635 8.49449 25.0046 8.59813 25.0046C8.70178 25.0046 8.80117 24.9635 8.87446 24.8902C8.94775 24.8169 8.98892 24.7175 8.98892 24.6139V16.8012L8.98814 16.7965L9.37893 16.405L9.7705 16.7965L9.76972 16.8012V24.6139C9.76972 24.7175 9.81089 24.8169 9.88418 24.8902C9.95746 24.9635 10.0569 25.0046 10.1605 25.0046C10.2641 25.0046 10.3635 24.9635 10.4368 24.8902C10.5101 24.8169 10.5513 24.7175 10.5513 24.6139V17.5773L11.4681 18.4941C11.5044 18.5304 11.5476 18.5591 11.5951 18.5787C11.6425 18.5983 11.6934 18.6083 11.7448 18.6082L11.7666 18.6074C11.8215 18.6043 11.8752 18.5897 11.924 18.5645C11.9729 18.5393 12.0159 18.5042 12.0504 18.4613L13.7292 16.3627L16.7891 18.1987C17.1503 18.4173 17.4492 18.7252 17.6571 19.0927C17.8651 19.4602 17.975 19.875 17.9763 20.2972V24.6139C17.9763 24.7175 18.0175 24.8169 18.0907 24.8902C18.164 24.9635 18.2634 25.0046 18.3671 25.0046C18.4707 25.0046 18.5701 24.9635 18.6434 24.8902C18.7167 24.8169 18.7579 24.7175 18.7579 24.6139V20.2972C18.7579 19.1694 18.1568 18.1088 17.19 17.5289L13.8871 15.5476L12.649 14.172C12.5975 14.1169 12.5308 14.0783 12.4574 14.0611C12.3839 14.0438 12.307 14.0487 12.2364 14.0751V12.6893C12.8479 12.2416 13.3455 11.6561 13.6886 10.9803C14.0317 10.3045 14.2108 9.55736 14.2114 8.79943V6.95803L14.8203 3.5652C14.8772 3.2566 14.8717 2.93972 14.8042 2.63326C14.7367 2.32681 14.6085 2.03697 14.4271 1.78086C14.2473 1.52364 14.0178 1.30502 13.7522 1.1379C13.4865 0.97078 13.1901 0.85854 12.8804 0.807798L8.22376 0.0316916C7.89039 -0.0238989 7.54892 -0.0061995 7.22309 0.0835588C6.89726 0.173317 6.5949 0.332979 6.33703 0.55144C5.89709 0.924902 5.6125 1.44921 5.53904 2.02159C5.07791 2.10756 4.66055 2.35376 4.35964 2.72579C4.17279 2.95603 4.03997 3.22527 3.97099 3.51365C3.902 3.80204 3.8986 4.10223 3.96103 4.39211L4.53627 7.08464C4.53706 7.09012 4.54096 7.09246 4.54175 7.09637V8.79864C4.54175 10.3938 5.32176 11.8077 6.51679 12.6886V14.0735C6.44653 14.0484 6.37046 14.0442 6.29788 14.0616C6.2253 14.0789 6.15933 14.117 6.10803 14.1712L4.87079 15.546L1.56784 17.5281C1.09081 17.8163 0.695992 18.2224 0.421399 18.7074C0.146806 19.1924 0.00168299 19.7399 0 20.2972V24.6139C0 24.7175 0.0411723 24.8169 0.114459 24.8902C0.187747 24.9635 0.287145 25.0046 0.390789 25.0046ZM13.1242 15.8672L11.7119 17.6328L10.0464 15.9673L12.2637 14.9114L13.1242 15.8672ZM4.96692 3.21818C5.07983 3.07797 5.22281 2.96493 5.38528 2.88741C5.54776 2.80989 5.72558 2.76988 5.9056 2.77034C6.12131 2.77034 6.29639 2.5429 6.29639 2.32718C6.29597 2.12422 6.33564 1.92317 6.41309 1.73556C6.49055 1.54796 6.60428 1.37749 6.74776 1.23394C6.89125 1.09038 7.06166 0.976564 7.24922 0.899011C7.43679 0.821459 7.63782 0.781697 7.84078 0.782006C7.92615 0.782071 8.01136 0.789129 8.09558 0.803108L12.7522 1.57921C13.1743 1.64956 13.5416 1.8809 13.7878 2.23027C14.034 2.58042 14.1278 3.00481 14.0504 3.42608L13.5635 6.13894L12.7303 5.19479V4.3546C12.7303 4.25095 12.6892 4.15155 12.6159 4.07827C12.5426 4.00498 12.4432 3.96381 12.3395 3.96381H6.41362C6.30998 3.96381 6.21058 4.00498 6.13729 4.07827C6.06401 4.15155 6.02283 4.25095 6.02283 4.3546V5.19245L5.13965 6.17333L4.72463 4.22954C4.64882 3.87158 4.73714 3.50268 4.96692 3.21818ZM5.32332 8.79864V7.13779L6.70437 5.60356C6.76889 5.53193 6.80454 5.43891 6.80441 5.34251V4.74538H11.9488V5.34251C11.9488 5.43786 11.9831 5.53009 12.0465 5.60121L13.4298 7.16827V8.79864C13.4296 9.46229 13.2663 10.1157 12.9546 10.7016C12.6428 11.2874 12.1919 11.7877 11.6416 12.1586L11.64 12.1594C11.4483 12.2857 11.2462 12.3956 11.0359 12.4877C10.9397 12.5307 10.8397 12.5643 10.7404 12.5995C10.504 12.6839 10.2605 12.747 10.0128 12.7878C9.94088 12.7995 9.86741 12.8027 9.79473 12.8097C9.51615 12.8378 9.23545 12.8378 8.95688 12.8097C8.88497 12.8019 8.8115 12.7995 8.74038 12.7878C8.4932 12.7469 8.25019 12.6839 8.01429 12.5995C7.91425 12.5643 7.81343 12.5299 7.71573 12.4869C7.50654 12.3951 7.30548 12.2858 7.1147 12.1602L7.10923 12.1571C6.55956 11.7861 6.10931 11.2858 5.79794 10.7003C5.48658 10.1148 5.32361 9.46181 5.32332 8.79864ZM7.70244 13.3287C7.74856 13.3451 7.79311 13.3638 7.83922 13.3787C8.33444 13.5465 8.85369 13.6326 9.37658 13.6335C9.89922 13.6327 10.4182 13.5466 10.9132 13.3787C10.9601 13.3631 11.0054 13.3451 11.0523 13.3279C11.1594 13.288 11.2657 13.2458 11.3696 13.1989C11.3977 13.1864 11.4274 13.177 11.4556 13.1638V14.4299L9.37893 15.4194L7.29837 14.4283V13.1645C7.32572 13.1778 7.35464 13.1864 7.382 13.1989C7.48673 13.2458 7.5938 13.2888 7.70244 13.3287ZM6.49413 14.9114L8.71146 15.9673L7.04592 17.6328L5.63361 15.8672L6.49413 14.9114Z" fill="#636363"/>
<path d="M4.29794 25.0046C4.40158 25.0046 4.50098 24.9634 4.57427 24.8901C4.64756 24.8168 4.68873 24.7174 4.68873 24.6138V22.7833C4.68953 21.9773 4.38805 21.2004 3.84384 20.6058L3.25219 19.9579C3.21755 19.92 3.17578 19.8893 3.12926 19.8675C3.08274 19.8457 3.03239 19.8333 2.98108 19.831C2.92977 19.8286 2.8785 19.8365 2.83021 19.8539C2.78191 19.8714 2.73754 19.8983 2.69961 19.9329C2.66169 19.9675 2.63096 20.0093 2.60918 20.0558C2.58739 20.1023 2.57499 20.1527 2.57267 20.204C2.57034 20.2553 2.57815 20.3066 2.59564 20.3549C2.61313 20.4032 2.63996 20.4476 2.6746 20.4855L3.26626 21.1334C3.67899 21.5837 3.9077 22.1725 3.90715 22.7833V24.6138C3.90715 24.7174 3.94832 24.8168 4.02161 24.8901C4.0949 24.9634 4.19429 25.0046 4.29794 25.0046ZM15.5042 19.9579L14.9125 20.6066C14.3684 21.2009 14.0669 21.9776 14.0677 22.7833V24.6138C14.0677 24.7174 14.1088 24.8168 14.1821 24.8901C14.2554 24.9634 14.3548 25.0046 14.4584 25.0046C14.5621 25.0046 14.6615 24.9634 14.7348 24.8901C14.8081 24.8168 14.8492 24.7174 14.8492 24.6138V22.7833C14.8492 22.1713 15.0767 21.5852 15.4893 21.1334L16.081 20.4855C16.1156 20.4476 16.1425 20.4033 16.16 20.355C16.1775 20.3068 16.1853 20.2556 16.183 20.2043C16.1808 20.153 16.1684 20.1027 16.1467 20.0562C16.1249 20.0097 16.0943 19.9679 16.0564 19.9333C16.0185 19.8987 15.9742 19.8718 15.9259 19.8543C15.8777 19.8368 15.8265 19.829 15.7752 19.8312C15.7239 19.8335 15.6736 19.8459 15.6271 19.8676C15.5806 19.8894 15.5388 19.92 15.5042 19.9579Z" fill="#636363"/>
</svg>
