<svg width="284" height="265" viewBox="0 0 284 265" fill="none" xmlns="http://www.w3.org/2000/svg">
<g filter="url(#filter0_d_2280_27029)">
<mask id="mask0_2280_27029" style="mask-type:luminance" maskUnits="userSpaceOnUse" x="11" y="0" width="267" height="249">
<path d="M277.995 0H11.0894V248.645H277.995V0Z" fill="white"/>
</mask>
<g mask="url(#mask0_2280_27029)">
<path d="M234.983 187.394H246.736V97.93H234.983V187.394Z" fill="url(#paint0_linear_2280_27029)"/>
<path d="M259.582 96.125H234.695V136.269H259.582V96.125Z" fill="url(#paint1_linear_2280_27029)"/>
<path d="M259.586 136.272H272.402V96.1285H259.586V136.272Z" fill="url(#paint2_linear_2280_27029)"/>
<path d="M232.045 96.125H259.739V91.6742H232.045V96.125Z" fill="url(#paint3_linear_2280_27029)"/>
<path d="M274.438 91.6743H259.739V96.1251H274.438V91.6743Z" fill="url(#paint4_linear_2280_27029)"/>
<path style="mix-blend-mode:multiply" d="M259.582 96.125H234.695V100.179H259.582V96.125Z" fill="url(#paint5_linear_2280_27029)"/>
<path style="mix-blend-mode:multiply" d="M259.586 100.18H272.402V96.1256H259.586V100.18Z" fill="url(#paint6_linear_2280_27029)"/>
<path d="M253.239 122.869H192.223V272.934H253.239V122.869Z" fill="url(#paint7_linear_2280_27029)"/>
<path d="M253.244 272.935H284.665V122.87H253.244L253.244 272.935Z" fill="url(#paint8_linear_2280_27029)"/>
<path d="M253.244 118.42H187.986V122.87H253.244V118.42Z" fill="url(#paint9_linear_2280_27029)"/>
<path d="M253.243 122.869H286.849V118.418H253.243V122.869Z" fill="url(#paint10_linear_2280_27029)"/>
<path style="mix-blend-mode:multiply" d="M253.239 122.865H192.223V127.813H253.239V122.865Z" fill="url(#paint11_linear_2280_27029)"/>
<path style="mix-blend-mode:multiply" d="M253.244 127.817H284.665V122.869H253.244V127.817Z" fill="url(#paint12_linear_2280_27029)"/>
<path d="M234.926 210.868H245.658V192.742H234.926V210.868Z" fill="url(#paint13_linear_2280_27029)"/>
<path d="M245.659 194.108V192.744H234.926L236.234 194.108H245.659Z" fill="url(#paint14_linear_2280_27029)"/>
<path d="M236.234 210.869V194.108L234.926 192.744V210.869H236.234Z" fill="url(#paint15_linear_2280_27029)"/>
<path d="M217.367 210.868H228.1V192.742H217.367V210.868Z" fill="url(#paint16_linear_2280_27029)"/>
<path d="M228.1 194.108V192.744H217.367L218.675 194.108H228.1Z" fill="url(#paint17_linear_2280_27029)"/>
<path d="M218.675 210.869V194.108L217.367 192.744V210.869H218.675Z" fill="url(#paint18_linear_2280_27029)"/>
<path d="M199.809 210.868H210.541V192.742H199.809V210.868Z" fill="url(#paint19_linear_2280_27029)"/>
<path d="M210.54 194.108V192.744H199.808L201.116 194.108H210.54Z" fill="url(#paint20_linear_2280_27029)"/>
<path d="M201.116 210.869V194.108L199.808 192.744V210.869H201.116Z" fill="url(#paint21_linear_2280_27029)"/>
<path d="M234.926 181.44H245.658V163.314H234.926V181.44Z" fill="url(#paint22_linear_2280_27029)"/>
<path d="M245.659 164.675V163.31H234.926L236.234 164.675H245.659Z" fill="url(#paint23_linear_2280_27029)"/>
<path d="M236.234 181.436V164.675L234.926 163.31V181.436H236.234Z" fill="url(#paint24_linear_2280_27029)"/>
<path d="M217.367 181.44H228.1V163.314H217.367V181.44Z" fill="url(#paint25_linear_2280_27029)"/>
<path d="M228.1 164.675V163.31H217.367L218.675 164.675H228.1Z" fill="url(#paint26_linear_2280_27029)"/>
<path d="M218.675 181.436V164.675L217.367 163.31V181.436H218.675Z" fill="url(#paint27_linear_2280_27029)"/>
<path d="M199.809 181.44H210.541V163.314H199.809V181.44Z" fill="url(#paint28_linear_2280_27029)"/>
<path d="M210.54 164.675V163.31H199.808L201.116 164.675H210.54Z" fill="url(#paint29_linear_2280_27029)"/>
<path d="M201.116 181.436V164.675L199.808 163.31V181.436H201.116Z" fill="url(#paint30_linear_2280_27029)"/>
<path d="M234.926 152.002H245.658V133.877H234.926V152.002Z" fill="url(#paint31_linear_2280_27029)"/>
<path d="M245.659 135.239V133.875H234.926L236.234 135.239H245.659Z" fill="url(#paint32_linear_2280_27029)"/>
<path d="M236.234 152.001V135.239L234.926 133.875V152.001H236.234Z" fill="url(#paint33_linear_2280_27029)"/>
<path d="M217.367 152.002H228.1V133.877H217.367V152.002Z" fill="url(#paint34_linear_2280_27029)"/>
<path d="M228.1 135.239V133.875H217.367L218.675 135.239H228.1Z" fill="url(#paint35_linear_2280_27029)"/>
<path d="M218.675 152.001V135.239L217.367 133.875V152.001H218.675Z" fill="url(#paint36_linear_2280_27029)"/>
<path d="M199.809 152.002H210.541V133.877H199.809V152.002Z" fill="url(#paint37_linear_2280_27029)"/>
<path d="M210.54 135.239V133.875H199.808L201.116 135.239H210.54Z" fill="url(#paint38_linear_2280_27029)"/>
<path d="M201.116 152.001V135.239L199.808 133.875V152.001H201.116Z" fill="url(#paint39_linear_2280_27029)"/>
<path d="M234.926 240.298H245.658V222.172H234.926V240.298Z" fill="url(#paint40_linear_2280_27029)"/>
<path d="M245.659 223.541V222.172H234.926L236.234 223.541H245.659Z" fill="url(#paint41_linear_2280_27029)"/>
<path d="M236.234 240.302V223.541L234.926 222.172V240.302H236.234Z" fill="url(#paint42_linear_2280_27029)"/>
<path d="M217.367 240.298H228.1V222.172H217.367V240.298Z" fill="url(#paint43_linear_2280_27029)"/>
<path d="M228.1 223.541V222.172H217.367L218.675 223.541H228.1Z" fill="url(#paint44_linear_2280_27029)"/>
<path d="M218.675 240.302V223.541L217.367 222.172V240.302H218.675Z" fill="url(#paint45_linear_2280_27029)"/>
<path d="M199.809 240.298H210.541V222.172H199.809V240.298Z" fill="url(#paint46_linear_2280_27029)"/>
<path d="M210.54 223.541V222.172H199.808L201.116 223.541H210.54Z" fill="url(#paint47_linear_2280_27029)"/>
<path d="M201.116 240.302V223.541L199.808 222.172V240.302H201.116Z" fill="url(#paint48_linear_2280_27029)"/>
<path d="M260.437 269.731H266.954V133.877H260.437V269.731Z" fill="url(#paint49_linear_2280_27029)"/>
<path d="M266.954 135.239V133.875H260.437L261.744 135.239H266.954Z" fill="url(#paint50_linear_2280_27029)"/>
<path d="M261.744 269.73V135.239L260.437 133.875V269.73H261.744Z" fill="url(#paint51_linear_2280_27029)"/>
<path d="M270.72 269.731H277.237V133.877H270.72V269.731Z" fill="url(#paint52_linear_2280_27029)"/>
<path d="M277.237 135.239V133.875H270.715L272.023 135.239H277.237Z" fill="url(#paint53_linear_2280_27029)"/>
<path d="M272.023 269.73V135.239L270.715 133.875V269.73H272.023Z" fill="url(#paint54_linear_2280_27029)"/>
<path d="M225.715 109.399H224.7V118.549H225.715V109.399Z" fill="url(#paint55_linear_2280_27029)"/>
<path d="M219.438 109.399H218.422V118.549H219.438V109.399Z" fill="url(#paint56_linear_2280_27029)"/>
<path d="M213.161 109.399H212.145V118.549H213.161V109.399Z" fill="url(#paint57_linear_2280_27029)"/>
<path d="M206.888 109.399H205.872V118.549H206.888V109.399Z" fill="url(#paint58_linear_2280_27029)"/>
<path d="M200.611 109.399H199.595V118.549H200.611V109.399Z" fill="url(#paint59_linear_2280_27029)"/>
<path d="M250.694 109.399H249.678V118.549H250.694V109.399Z" fill="url(#paint60_linear_2280_27029)"/>
<path d="M244.421 109.399H243.405V118.549H244.421V109.399Z" fill="url(#paint61_linear_2280_27029)"/>
<path d="M238.143 109.399H237.127V118.549H238.143V109.399Z" fill="url(#paint62_linear_2280_27029)"/>
<path d="M231.866 109.399H230.851V118.549H231.866V109.399Z" fill="url(#paint63_linear_2280_27029)"/>
<path d="M275.676 109.399H274.661V118.549H275.676V109.399Z" fill="url(#paint64_linear_2280_27029)"/>
<path d="M269.399 109.399H268.384V118.549H269.399V109.399Z" fill="url(#paint65_linear_2280_27029)"/>
<path d="M263.126 109.399H262.11V118.549H263.126V109.399Z" fill="url(#paint66_linear_2280_27029)"/>
<path d="M256.849 109.399H255.833V118.549H256.849V109.399Z" fill="url(#paint67_linear_2280_27029)"/>
<path d="M194.334 109.399H193.318V118.549H194.334V109.399Z" fill="url(#paint68_linear_2280_27029)"/>
<path d="M190.606 109.909L284.665 109.909V108.893L190.606 108.893V109.909Z" fill="url(#paint69_linear_2280_27029)"/>
<path d="M159.547 174.347L131.984 147.093L104.42 174.347V284.731H159.547V174.347Z" fill="url(#paint70_linear_2280_27029)"/>
<path d="M195.637 174.347H159.547V284.726H195.637V174.347Z" fill="url(#paint71_linear_2280_27029)"/>
<path d="M141.513 178.627V177.712C141.511 175.204 140.571 172.789 138.876 170.941C137.182 169.093 134.856 167.947 132.358 167.729V178.627H141.513Z" fill="url(#paint72_linear_2280_27029)"/>
<path d="M130.624 178.627V167.729C128.126 167.947 125.8 169.093 124.106 170.941C122.411 172.789 121.471 175.204 121.469 177.712V178.627H130.624Z" fill="url(#paint73_linear_2280_27029)"/>
<path d="M141.513 180.362H132.358V189.983H141.513V180.362Z" fill="url(#paint74_linear_2280_27029)"/>
<path d="M141.513 191.718H132.358V200.55H141.513V191.718Z" fill="url(#paint75_linear_2280_27029)"/>
<path d="M130.624 180.362H121.469V189.983H130.624V180.362Z" fill="url(#paint76_linear_2280_27029)"/>
<path d="M130.624 191.718H121.469V200.55H130.624V191.718Z" fill="url(#paint77_linear_2280_27029)"/>
<path d="M132.358 167.729V168.435H132.751C134.277 168.433 135.783 168.781 137.154 169.451C135.732 168.47 134.079 167.876 132.358 167.729Z" fill="url(#paint78_linear_2280_27029)"/>
<path d="M122.729 178.627V178.448C122.729 176.16 123.513 173.94 124.949 172.158C126.385 170.377 128.387 169.14 130.624 168.653V167.729C128.126 167.947 125.8 169.093 124.106 170.941C122.411 172.789 121.471 175.204 121.469 177.712V178.627H122.729Z" fill="url(#paint79_linear_2280_27029)"/>
<path d="M122.729 180.362H121.469V189.983H122.729V180.362Z" fill="url(#paint80_linear_2280_27029)"/>
<path d="M122.729 191.718H121.469V200.55H122.729V191.718Z" fill="url(#paint81_linear_2280_27029)"/>
<path d="M130.41 222.755V221.844C130.409 219.337 129.468 216.921 127.774 215.073C126.079 213.226 123.754 212.08 121.256 211.862V222.76L130.41 222.755Z" fill="url(#paint82_linear_2280_27029)"/>
<path d="M119.516 222.756V211.858C117.018 212.076 114.693 213.222 112.998 215.07C111.304 216.918 110.363 219.333 110.362 221.841V222.756H119.516Z" fill="url(#paint83_linear_2280_27029)"/>
<path d="M130.406 224.504H121.251V234.124H130.406V224.504Z" fill="url(#paint84_linear_2280_27029)"/>
<path d="M119.516 224.504H110.362V234.124H119.516V224.504Z" fill="url(#paint85_linear_2280_27029)"/>
<path d="M121.251 211.858V212.568C121.382 212.568 121.513 212.568 121.648 212.568C123.174 212.57 124.679 212.923 126.047 213.602C124.627 212.613 122.974 212.012 121.251 211.858Z" fill="url(#paint86_linear_2280_27029)"/>
<path d="M111.626 222.756V222.582C111.626 220.294 112.409 218.075 113.844 216.293C115.279 214.511 117.281 213.274 119.516 212.786V211.858C117.018 212.076 114.693 213.222 112.998 215.07C111.304 216.918 110.363 219.333 110.362 221.841V222.756H111.626Z" fill="url(#paint87_linear_2280_27029)"/>
<path d="M111.622 224.504H110.362V234.124H111.622V224.504Z" fill="url(#paint88_linear_2280_27029)"/>
<path d="M155.035 222.755V221.844C155.034 219.337 154.093 216.921 152.399 215.073C150.704 213.226 148.379 212.08 145.881 211.862V222.76L155.035 222.755Z" fill="url(#paint89_linear_2280_27029)"/>
<path d="M144.142 222.756V211.858C141.644 212.076 139.319 213.222 137.624 215.07C135.929 216.918 134.989 219.333 134.987 221.841V222.756H144.142Z" fill="url(#paint90_linear_2280_27029)"/>
<path d="M155.031 224.504H145.876V234.124H155.031V224.504Z" fill="url(#paint91_linear_2280_27029)"/>
<path d="M144.142 224.504H134.987V234.124H144.142V224.504Z" fill="url(#paint92_linear_2280_27029)"/>
<path d="M145.876 211.858V212.568H146.273C147.799 212.57 149.304 212.923 150.672 213.602C149.252 212.613 147.599 212.012 145.876 211.858Z" fill="url(#paint93_linear_2280_27029)"/>
<path d="M136.251 222.756V222.582C136.252 220.294 137.034 218.075 138.47 216.293C139.905 214.511 141.906 213.274 144.142 212.786V211.858C141.644 212.076 139.319 213.222 137.624 215.07C135.929 216.918 134.989 219.333 134.987 221.841V222.756H136.251Z" fill="url(#paint94_linear_2280_27029)"/>
<path d="M136.247 224.504H134.987V234.124H136.247V224.504Z" fill="url(#paint95_linear_2280_27029)"/>
<path d="M130.41 259.015V258.104C130.409 255.597 129.468 253.181 127.774 251.334C126.079 249.486 123.754 248.34 121.256 248.122V259.02L130.41 259.015Z" fill="url(#paint96_linear_2280_27029)"/>
<path d="M119.516 259.014V248.116C117.018 248.334 114.693 249.48 112.998 251.328C111.304 253.176 110.363 255.592 110.362 258.099V259.01L119.516 259.014Z" fill="url(#paint97_linear_2280_27029)"/>
<path d="M121.251 248.116V248.827H121.648C123.173 248.825 124.677 249.172 126.047 249.843C124.624 248.862 122.972 248.267 121.251 248.116Z" fill="url(#paint98_linear_2280_27029)"/>
<path d="M111.626 259.015V258.841C111.626 256.553 112.409 254.334 113.844 252.552C115.279 250.771 117.281 249.533 119.516 249.046V248.122C117.018 248.34 114.693 249.486 112.998 251.334C111.304 253.181 110.363 255.597 110.362 258.104V259.015H111.626Z" fill="url(#paint99_linear_2280_27029)"/>
<path d="M155.035 259.015V258.104C155.034 255.597 154.093 253.181 152.399 251.334C150.704 249.486 148.379 248.34 145.881 248.122V259.02L155.035 259.015Z" fill="url(#paint100_linear_2280_27029)"/>
<path d="M144.142 259.014V248.116C141.644 248.334 139.319 249.48 137.624 251.328C135.929 253.176 134.989 255.592 134.987 258.099V259.01L144.142 259.014Z" fill="url(#paint101_linear_2280_27029)"/>
<path d="M145.876 248.116V248.827H146.273C147.798 248.825 149.302 249.172 150.672 249.843C149.249 248.862 147.597 248.267 145.876 248.116Z" fill="url(#paint102_linear_2280_27029)"/>
<path d="M136.251 259.015V258.841C136.252 256.553 137.034 254.334 138.47 252.552C139.905 250.771 141.906 249.533 144.142 249.046V248.122C141.644 248.34 139.319 249.486 137.624 251.334C135.929 253.181 134.989 255.597 134.987 258.104V259.015H136.251Z" fill="url(#paint103_linear_2280_27029)"/>
<path d="M167.406 199.578H176.112V188.065H167.406V199.578Z" fill="url(#paint104_linear_2280_27029)"/>
<path d="M176.112 189.171V188.06H167.407L168.466 189.171H176.112Z" fill="url(#paint105_linear_2280_27029)"/>
<path d="M168.466 199.577V189.171L167.407 188.06V199.577H168.466Z" fill="white"/>
<path d="M177.503 199.578H186.208V188.065H177.503V199.578Z" fill="url(#paint106_linear_2280_27029)"/>
<path d="M186.208 188.06H177.502V189.167H186.208V188.06Z" fill="url(#paint107_linear_2280_27029)"/>
<path d="M167.406 212.634H176.112V201.121H167.406V212.634Z" fill="url(#paint108_linear_2280_27029)"/>
<path d="M168.466 201.121H167.407V212.634H168.466V201.121Z" fill="white"/>
<path d="M177.503 212.634H186.208V201.121H177.503V212.634Z" fill="url(#paint109_linear_2280_27029)"/>
<path d="M167.406 244.857H176.112V233.345H167.406V244.857Z" fill="url(#paint110_linear_2280_27029)"/>
<path d="M176.112 234.452V233.344H167.407L168.466 234.452H176.112Z" fill="url(#paint111_linear_2280_27029)"/>
<path d="M168.466 244.857V234.452L167.407 233.344V244.857H168.466Z" fill="white"/>
<path d="M177.503 244.857H186.208V233.345H177.503V244.857Z" fill="url(#paint112_linear_2280_27029)"/>
<path d="M186.208 233.344H177.502V234.452H186.208V233.344Z" fill="url(#paint113_linear_2280_27029)"/>
<path d="M167.406 257.917H176.112V246.404H167.406V257.917Z" fill="url(#paint114_linear_2280_27029)"/>
<path d="M168.466 246.4H167.407V257.913H168.466V246.4Z" fill="white"/>
<path d="M177.503 257.917H186.208V246.404H177.503V257.917Z" fill="url(#paint115_linear_2280_27029)"/>
<path style="mix-blend-mode:multiply" d="M195.637 177.547H159.6V182.962H195.637V177.547Z" fill="url(#paint116_linear_2280_27029)"/>
<path style="mix-blend-mode:multiply" d="M104.42 175.693V183.073L131.984 155.815L159.547 183.073V175.693L131.984 148.435L104.42 175.693Z" fill="url(#paint117_linear_2280_27029)"/>
<path d="M195.632 174.347H159.547L131.983 147.093H168.069L195.632 174.347Z" fill="url(#paint118_linear_2280_27029)"/>
<path d="M195.637 174.347H159.6V178.798H195.637V174.347Z" fill="url(#paint119_linear_2280_27029)"/>
<path d="M159.6 174.399L131.984 147.093L102.25 176.496V180.99L131.984 151.588L159.6 178.894V174.399Z" fill="url(#paint120_linear_2280_27029)"/>
<path d="M38.9549 157.541H6.57471V162.249H38.9549V157.541Z" fill="url(#paint121_linear_2280_27029)"/>
<path d="M38.9546 157.503V162.473L39.1115 162.769L103.419 127.599V122.817L38.9546 157.503Z" fill="url(#paint122_linear_2280_27029)"/>
<path d="M38.9507 162.254H10.6943V262.128H38.9507V162.254Z" fill="url(#paint123_linear_2280_27029)"/>
<path d="M38.9546 162.255L100.768 129.025V262.129H38.9546V162.255Z" fill="url(#paint124_linear_2280_27029)"/>
<path d="M103.419 122.817H71.1869L6.57471 157.542H38.9549L103.419 122.817Z" fill="url(#paint125_linear_2280_27029)"/>
<path style="mix-blend-mode:multiply" d="M38.9507 162.254H10.6943V166.082H38.9507V162.254Z" fill="url(#paint126_linear_2280_27029)"/>
<path style="mix-blend-mode:multiply" d="M38.9546 162.255V166.06L100.768 132.83V129.025L38.9546 162.255Z" fill="url(#paint127_linear_2280_27029)"/>
<path d="M45.7727 177.342H94.8486V166.226H45.7727V177.342Z" fill="url(#paint128_linear_2280_27029)"/>
<path d="M94.8489 167.59V166.225H45.7729L47.0807 167.59H94.8489Z" fill="url(#paint129_linear_2280_27029)"/>
<path d="M47.0807 177.341V167.59L45.7729 166.225V177.341H47.0807Z" fill="url(#paint130_linear_2280_27029)"/>
<path d="M45.7727 193.705H94.8486V182.589H45.7727V193.705Z" fill="url(#paint131_linear_2280_27029)"/>
<path d="M94.8489 183.955V182.59H45.7729L47.0807 183.955H94.8489Z" fill="url(#paint132_linear_2280_27029)"/>
<path d="M47.0807 193.706V183.955L45.7729 182.59V193.706H47.0807Z" fill="url(#paint133_linear_2280_27029)"/>
<path d="M45.7727 210.067H94.8486V198.951H45.7727V210.067Z" fill="url(#paint134_linear_2280_27029)"/>
<path d="M94.8489 200.314V198.95H45.7729L47.0807 200.314H94.8489Z" fill="url(#paint135_linear_2280_27029)"/>
<path d="M47.0807 210.066V200.314L45.7729 198.95V210.066H47.0807Z" fill="url(#paint136_linear_2280_27029)"/>
<path d="M45.7727 226.43H94.8486V215.314H45.7727V226.43Z" fill="url(#paint137_linear_2280_27029)"/>
<path d="M94.8489 216.68V215.312H45.7729L47.0807 216.68H94.8489Z" fill="url(#paint138_linear_2280_27029)"/>
<path d="M36.1208 226.428V216.68L34.813 215.312V226.428H36.1208Z" fill="url(#paint139_linear_2280_27029)"/>
<path d="M45.7727 242.79H94.8486V231.674H45.7727V242.79Z" fill="url(#paint140_linear_2280_27029)"/>
<path d="M83.8889 233.039V231.675H34.813L36.1208 233.039H83.8889Z" fill="url(#paint141_linear_2280_27029)"/>
<path d="M36.1208 242.791V233.039L34.813 231.675V242.791H36.1208Z" fill="url(#paint142_linear_2280_27029)"/>
<path d="M34.8127 259.155H83.8887V248.039H34.8127V259.155Z" fill="url(#paint143_linear_2280_27029)"/>
<path d="M83.8889 249.403V248.038H34.813L36.1208 249.403H83.8889Z" fill="url(#paint144_linear_2280_27029)"/>
<path d="M36.1208 259.154V249.403L34.813 248.038V259.154H36.1208Z" fill="url(#paint145_linear_2280_27029)"/>
</g>
<path d="M168.796 120.629C168.796 117.536 167.927 114.505 166.289 111.881C164.65 109.258 162.307 107.148 159.527 105.792C156.747 104.436 153.642 103.888 150.566 104.21C147.489 104.533 144.566 105.713 142.128 107.617C139.69 109.521 137.836 112.071 136.777 114.977C135.718 117.884 135.497 121.029 136.139 124.055C136.781 127.08 138.26 129.865 140.408 132.091C142.556 134.317 145.285 135.895 148.286 136.644L151.464 142.895C151.523 143.068 151.634 143.219 151.782 143.325C151.93 143.431 152.108 143.489 152.29 143.489C152.473 143.489 152.651 143.431 152.799 143.325C152.947 143.219 153.058 143.068 153.116 142.895L156.29 136.649C159.862 135.755 163.034 133.693 165.3 130.791C167.566 127.888 168.797 124.311 168.796 120.629Z" fill="#023788"/>
<path d="M160.279 118.594L152.65 112.143C152.553 112.062 152.43 112.017 152.303 112.017C152.177 112.017 152.054 112.062 151.957 112.143L144.302 118.568C144.261 118.603 144.231 118.649 144.217 118.701C144.203 118.753 144.206 118.809 144.225 118.859C144.243 118.91 144.277 118.953 144.321 118.984C144.366 119.015 144.418 119.031 144.472 119.03H145.444V126.524C145.444 126.661 145.498 126.792 145.595 126.889C145.691 126.986 145.822 127.041 145.959 127.043H150.039C150.147 127.037 150.249 126.992 150.326 126.915C150.402 126.839 150.448 126.737 150.453 126.628V121.968C150.453 121.834 150.506 121.706 150.601 121.611C150.696 121.516 150.825 121.463 150.959 121.463H153.618C153.684 121.463 153.75 121.476 153.811 121.501C153.873 121.527 153.928 121.564 153.975 121.611C154.022 121.658 154.06 121.714 154.085 121.775C154.11 121.836 154.123 121.902 154.123 121.968V126.628C154.129 126.737 154.174 126.839 154.251 126.915C154.327 126.992 154.429 127.037 154.538 127.043H158.618C158.754 127.043 158.885 126.988 158.981 126.892C159.078 126.795 159.132 126.665 159.132 126.528V119.035H160.104C160.153 119.03 160.2 119.012 160.239 118.983C160.278 118.953 160.308 118.913 160.326 118.868C160.344 118.822 160.349 118.773 160.341 118.724C160.333 118.676 160.311 118.631 160.279 118.594Z" fill="url(#paint146_linear_2280_27029)"/>
<path d="M259.403 70.3269H218.793C217.852 70.3269 216.949 70.7006 216.282 71.3659C215.616 72.0312 215.241 72.9338 215.24 73.8753V79.4245C215.24 80.3668 215.615 81.2705 216.281 81.9367C216.947 82.603 217.851 82.9773 218.793 82.9773H252.795L254.974 87.2493C255.037 87.4049 255.145 87.5382 255.284 87.6321C255.423 87.7259 255.587 87.7761 255.755 87.7761C255.922 87.7761 256.086 87.7259 256.225 87.6321C256.364 87.5382 256.472 87.4049 256.535 87.2493L258.715 82.9773H259.443C259.909 82.9773 260.371 82.8854 260.801 82.7068C261.232 82.5282 261.624 82.2664 261.953 81.9365C262.283 81.6065 262.544 81.2148 262.722 80.7838C262.9 80.3528 262.992 79.8909 262.991 79.4245V73.8753C262.991 73.406 262.898 72.9413 262.717 72.5082C262.536 72.0751 262.272 71.6822 261.938 71.3522C261.604 71.0222 261.208 70.7616 260.773 70.5856C260.338 70.4096 259.873 70.3217 259.403 70.3269Z" fill="#36D859"/>
<path d="M226.888 76.3482C226.942 76.2948 226.98 76.2273 226.999 76.1533C227.017 76.0793 227.014 76.0018 226.99 75.9293C226.967 75.8569 226.923 75.7925 226.865 75.7432C226.807 75.694 226.736 75.662 226.661 75.6507L225.249 75.4458C225.183 75.4366 225.12 75.4116 225.067 75.3729C225.013 75.3341 224.969 75.2829 224.939 75.2235L224.307 73.9419C224.273 73.874 224.221 73.8169 224.156 73.7771C224.091 73.7372 224.017 73.7161 223.941 73.7161C223.865 73.7161 223.79 73.7372 223.726 73.7771C223.661 73.8169 223.609 73.874 223.575 73.9419L222.947 75.2235C222.916 75.2816 222.871 75.3318 222.818 75.3703C222.764 75.4088 222.703 75.4346 222.638 75.4458L221.225 75.6507C221.15 75.662 221.079 75.694 221.021 75.7432C220.963 75.7925 220.92 75.8569 220.896 75.9293C220.872 76.0018 220.87 76.0793 220.888 76.1533C220.906 76.2273 220.944 76.2948 220.998 76.3482L222.019 77.3421C222.067 77.3875 222.104 77.4445 222.124 77.5078C222.145 77.5711 222.149 77.6386 222.136 77.7039L221.896 79.1119C221.883 79.1874 221.891 79.2651 221.919 79.3363C221.947 79.4075 221.995 79.4693 222.057 79.5147C222.119 79.5601 222.192 79.5873 222.268 79.5931C222.345 79.599 222.421 79.5833 222.489 79.5478L223.753 78.8809C223.813 78.8523 223.877 78.8375 223.943 78.8375C224.009 78.8375 224.074 78.8523 224.133 78.8809L225.397 79.5478C225.465 79.5833 225.541 79.599 225.618 79.5931C225.694 79.5873 225.767 79.5601 225.829 79.5147C225.891 79.4693 225.939 79.4075 225.967 79.3363C225.996 79.2651 226.003 79.1874 225.99 79.1119L225.746 77.7039C225.737 77.6386 225.743 77.5722 225.763 77.5095C225.783 77.4468 225.818 77.3896 225.863 77.3421L226.888 76.3482Z" fill="white"/>
<path d="M234.464 76.3482C234.518 76.2948 234.557 76.2273 234.575 76.1533C234.593 76.0793 234.59 76.0018 234.566 75.9293C234.543 75.8569 234.5 75.7925 234.441 75.7432C234.383 75.694 234.313 75.662 234.237 75.6507L232.825 75.4458C232.76 75.4363 232.698 75.4111 232.645 75.3724C232.592 75.3336 232.549 75.2826 232.52 75.2235L231.888 73.9419C231.854 73.874 231.801 73.8169 231.737 73.7771C231.672 73.7372 231.597 73.7161 231.521 73.7161C231.445 73.7161 231.371 73.7372 231.306 73.7771C231.242 73.8169 231.189 73.874 231.155 73.9419L230.523 75.2235C230.493 75.2829 230.45 75.3341 230.396 75.3729C230.342 75.4116 230.279 75.4366 230.214 75.4458L228.801 75.6507C228.726 75.662 228.655 75.694 228.597 75.7432C228.539 75.7925 228.496 75.8569 228.472 75.9293C228.449 76.0018 228.446 76.0793 228.464 76.1533C228.482 76.2273 228.52 76.2948 228.575 76.3482L229.599 77.3421C229.645 77.3896 229.679 77.4468 229.699 77.5095C229.72 77.5722 229.726 77.6386 229.717 77.7039L229.473 79.1119C229.459 79.1874 229.467 79.2651 229.495 79.3363C229.524 79.4075 229.571 79.4693 229.633 79.5147C229.695 79.5601 229.768 79.5873 229.845 79.5931C229.921 79.599 229.998 79.5833 230.065 79.5478L231.33 78.8809C231.389 78.8523 231.454 78.8375 231.519 78.8375C231.585 78.8375 231.65 78.8523 231.709 78.8809L232.973 79.5478C233.041 79.5833 233.118 79.599 233.194 79.5931C233.27 79.5873 233.344 79.5601 233.405 79.5147C233.467 79.4693 233.515 79.4075 233.543 79.3363C233.572 79.2651 233.58 79.1874 233.566 79.1119L233.326 77.7039C233.314 77.6386 233.318 77.5711 233.338 77.5078C233.359 77.4445 233.395 77.3875 233.444 77.3421L234.464 76.3482Z" fill="white"/>
<path d="M242.04 76.3482C242.095 76.2948 242.133 76.2273 242.151 76.1533C242.169 76.0793 242.166 76.0018 242.143 75.9293C242.119 75.8569 242.076 75.7925 242.018 75.7432C241.96 75.694 241.889 75.662 241.814 75.6507L240.401 75.4458C240.336 75.4363 240.274 75.4111 240.221 75.3724C240.168 75.3336 240.125 75.2826 240.096 75.2235L239.464 73.9419C239.43 73.874 239.378 73.8169 239.313 73.7771C239.248 73.7372 239.174 73.7161 239.098 73.7161C239.022 73.7161 238.947 73.7372 238.883 73.7771C238.818 73.8169 238.766 73.874 238.732 73.9419L238.1 75.2235C238.07 75.2829 238.026 75.3341 237.972 75.3729C237.918 75.4116 237.856 75.4366 237.79 75.4458L236.378 75.6507C236.303 75.6627 236.232 75.6952 236.175 75.7446C236.117 75.7941 236.075 75.8586 236.052 75.931C236.029 76.0033 236.026 76.0806 236.044 76.1543C236.063 76.2279 236.101 76.2951 236.155 76.3482L237.175 77.3421C237.221 77.3896 237.255 77.4468 237.276 77.5095C237.296 77.5722 237.302 77.6386 237.293 77.7039L237.053 79.1119C237.04 79.1874 237.048 79.2651 237.076 79.3363C237.104 79.4075 237.152 79.4693 237.214 79.5147C237.276 79.5601 237.349 79.5873 237.425 79.5931C237.502 79.599 237.578 79.5833 237.646 79.5478L238.906 78.8809C238.965 78.8523 239.03 78.8375 239.096 78.8375C239.161 78.8375 239.226 78.8523 239.285 78.8809L240.549 79.5478C240.617 79.5833 240.694 79.599 240.77 79.5931C240.847 79.5873 240.92 79.5601 240.982 79.5147C241.043 79.4693 241.091 79.4075 241.12 79.3363C241.148 79.2651 241.156 79.1874 241.142 79.1119L240.902 77.7039C240.893 77.6386 240.899 77.5722 240.92 77.5095C240.94 77.4468 240.975 77.3896 241.02 77.3421L242.04 76.3482Z" fill="white"/>
<path d="M249.616 76.3482C249.671 76.2948 249.709 76.2273 249.727 76.1533C249.745 76.0793 249.742 76.0018 249.719 75.9293C249.695 75.8569 249.652 75.7925 249.594 75.7432C249.536 75.694 249.465 75.662 249.39 75.6507L247.982 75.4458C247.916 75.4366 247.853 75.4116 247.799 75.3729C247.746 75.3341 247.702 75.2829 247.672 75.2235L247.04 73.9419C247.006 73.874 246.954 73.8169 246.889 73.7771C246.824 73.7372 246.75 73.7161 246.674 73.7161C246.598 73.7161 246.523 73.7372 246.459 73.7771C246.394 73.8169 246.342 73.874 246.308 73.9419L245.676 75.2235C245.647 75.2826 245.604 75.3336 245.55 75.3724C245.497 75.4111 245.436 75.4363 245.37 75.4458L243.958 75.6507C243.883 75.662 243.812 75.694 243.754 75.7432C243.696 75.7925 243.652 75.8569 243.629 75.9293C243.605 76.0018 243.603 76.0793 243.621 76.1533C243.639 76.2273 243.677 76.2948 243.731 76.3482L244.751 77.3421C244.797 77.3896 244.831 77.4468 244.852 77.5095C244.872 77.5722 244.878 77.6386 244.869 77.7039L244.629 79.1119C244.616 79.1874 244.624 79.2651 244.652 79.3363C244.68 79.4075 244.728 79.4693 244.79 79.5147C244.852 79.5601 244.925 79.5873 245.001 79.5931C245.078 79.599 245.154 79.5833 245.222 79.5478L246.482 78.8809C246.542 78.8516 246.607 78.8364 246.674 78.8364C246.74 78.8364 246.806 78.8516 246.866 78.8809L248.125 79.5478C248.193 79.5833 248.27 79.599 248.346 79.5931C248.423 79.5873 248.496 79.5601 248.558 79.5147C248.62 79.4693 248.667 79.4075 248.696 79.3363C248.724 79.2651 248.732 79.1874 248.718 79.1119L248.479 77.7039C248.47 77.6386 248.475 77.5722 248.496 77.5095C248.516 77.4468 248.551 77.3896 248.596 77.3421L249.616 76.3482Z" fill="white"/>
<path d="M257.202 76.3482C257.256 76.2948 257.294 76.2273 257.312 76.1533C257.331 76.0793 257.328 76.0018 257.304 75.9293C257.281 75.8569 257.237 75.7925 257.179 75.7432C257.121 75.694 257.05 75.662 256.975 75.6507L255.563 75.4458C255.497 75.4366 255.434 75.4116 255.38 75.3729C255.327 75.3341 255.283 75.2829 255.253 75.2235L254.621 73.9419C254.587 73.874 254.535 73.8169 254.47 73.7771C254.405 73.7372 254.331 73.7161 254.255 73.7161C254.179 73.7161 254.104 73.7372 254.04 73.7771C253.975 73.8169 253.923 73.874 253.889 73.9419L253.257 75.2235C253.228 75.2826 253.185 75.3336 253.132 75.3724C253.078 75.4111 253.017 75.4363 252.952 75.4458L251.539 75.6507C251.464 75.662 251.393 75.694 251.335 75.7432C251.277 75.7925 251.234 75.8569 251.21 75.9293C251.186 76.0018 251.184 76.0793 251.202 76.1533C251.22 76.2273 251.258 76.2948 251.312 76.3482L252.333 77.3421C252.38 77.3882 252.416 77.4453 252.436 77.5083C252.457 77.5714 252.462 77.6386 252.45 77.7039L252.21 79.1119C252.197 79.1874 252.205 79.2651 252.233 79.3363C252.261 79.4075 252.309 79.4693 252.371 79.5147C252.433 79.5601 252.506 79.5873 252.582 79.5931C252.659 79.599 252.735 79.5833 252.803 79.5478L254.067 78.8809C254.127 78.8523 254.191 78.8375 254.257 78.8375C254.323 78.8375 254.388 78.8523 254.447 78.8809L255.711 79.5478C255.779 79.5833 255.855 79.599 255.932 79.5931C256.008 79.5873 256.081 79.5601 256.143 79.5147C256.205 79.4693 256.253 79.4075 256.281 79.3363C256.309 79.2651 256.317 79.1874 256.304 79.1119L256.06 77.7039C256.051 77.6386 256.057 77.5722 256.077 77.5095C256.097 77.4468 256.132 77.3896 256.177 77.3421L257.202 76.3482Z" fill="white"/>
<path d="M53.7879 205.749L59.6919 214.707L82.0105 199.996L76.1065 191.038L53.7879 205.749Z" fill="url(#paint147_linear_2280_27029)"/>
<path style="mix-blend-mode:multiply" d="M69.9561 195.1L76.1156 191.042L78.4478 194.581C78.644 194.9 78.8401 195.218 79.0494 195.536C79.2586 195.854 79.4853 196.159 79.6902 196.465L82.0223 200L75.8628 204.058C73.5075 201.346 71.5214 198.334 69.9561 195.1Z" fill="url(#paint148_linear_2280_27029)"/>
<path d="M56.5083 199.714L31.1579 216.423C29.3769 217.597 28.8847 219.993 30.0586 221.774L34.4129 228.38C35.5868 230.161 37.9822 230.653 39.7632 229.479L65.1136 212.77C66.8946 211.596 67.3868 209.2 66.2129 207.419L61.8586 200.813C60.6847 199.032 58.2893 198.54 56.5083 199.714Z" fill="url(#paint149_linear_2280_27029)"/>
<path d="M136.778 157.489C140.745 163.508 142.838 170.568 142.792 177.776C142.746 184.984 140.564 192.017 136.521 197.985C132.479 203.953 126.757 208.589 120.08 211.305C113.403 214.021 106.07 214.697 99.0096 213.246C91.9487 211.795 85.4766 208.283 80.4116 203.154C75.3466 198.025 71.9163 191.509 70.5544 184.431C69.1925 177.352 69.9601 170.029 72.7603 163.387C75.5604 156.744 80.2673 151.081 86.2857 147.114C90.2821 144.479 94.7584 142.657 99.459 141.752C104.16 140.848 108.992 140.878 113.681 141.841C118.37 142.805 122.823 144.683 126.786 147.368C130.75 150.052 134.145 153.492 136.778 157.489ZM81.7217 193.771C84.9311 198.641 89.5126 202.45 94.887 204.716C100.261 206.983 106.187 207.605 111.915 206.503C117.642 205.402 122.915 202.627 127.065 198.529C131.216 194.431 134.058 189.194 135.232 183.481C136.406 177.767 135.86 171.834 133.662 166.432C131.464 161.029 127.714 156.399 122.885 153.128C118.056 149.857 112.365 148.091 106.533 148.054C100.7 148.017 94.9876 149.711 90.1175 152.921C83.5872 157.224 79.0341 163.946 77.4596 171.607C75.8851 179.268 77.4182 187.24 81.7217 193.771Z" fill="url(#paint150_linear_2280_27029)"/>
<path style="mix-blend-mode:soft-light" d="M114.517 205.879C130.169 201.373 139.204 185.033 134.698 169.382C130.193 153.73 113.852 144.695 98.2009 149.201C82.5497 153.707 73.5144 170.047 78.02 185.698C82.5257 201.349 98.8661 210.385 114.517 205.879Z" fill="url(#paint151_linear_2280_27029)"/>
<path style="mix-blend-mode:screen" d="M135.78 178.643C135.78 162.249 122.49 148.96 106.096 148.96C89.7028 148.96 76.4131 162.249 76.4131 178.643C76.4131 195.036 89.7028 208.326 106.096 208.326C122.49 208.326 135.78 195.036 135.78 178.643Z" fill="url(#paint152_linear_2280_27029)"/>
<line x1="7" y1="251.006" x2="281" y2="251.006" stroke="url(#paint153_linear_2280_27029)" stroke-width="10"/>
</g>
<defs>
<filter id="filter0_d_2280_27029" x="0" y="69.3267" width="284" height="195.68" filterUnits="userSpaceOnUse" color-interpolation-filters="sRGB">
<feFlood flood-opacity="0" result="BackgroundImageFix"/>
<feColorMatrix in="SourceAlpha" type="matrix" values="0 0 0 0 0 0 0 0 0 0 0 0 0 0 0 0 0 0 127 0" result="hardAlpha"/>
<feOffset dx="-2" dy="4"/>
<feGaussianBlur stdDeviation="2.5"/>
<feComposite in2="hardAlpha" operator="out"/>
<feColorMatrix type="matrix" values="0 0 0 0 0 0 0 0 0 0 0 0 0 0 0 0 0 0 0.25 0"/>
<feBlend mode="normal" in2="BackgroundImageFix" result="effect1_dropShadow_2280_27029"/>
<feBlend mode="normal" in="SourceGraphic" in2="effect1_dropShadow_2280_27029" result="shape"/>
</filter>
<linearGradient id="paint0_linear_2280_27029" x1="257.56" y1="165.659" x2="225.044" y2="120.881" gradientUnits="userSpaceOnUse">
<stop stop-color="white"/>
<stop offset="1" stop-color="#CFDAF4"/>
</linearGradient>
<linearGradient id="paint1_linear_2280_27029" x1="249.094" y1="95.2139" x2="247.472" y2="112.664" gradientUnits="userSpaceOnUse">
<stop stop-color="#8393CE"/>
<stop offset="1" stop-color="#B5BDE1"/>
</linearGradient>
<linearGradient id="paint2_linear_2280_27029" x1="265.785" y1="108.352" x2="265.245" y2="88.0597" gradientUnits="userSpaceOnUse">
<stop stop-color="#CFDAF4"/>
<stop offset="1" stop-color="#A0AFDE"/>
</linearGradient>
<linearGradient id="paint3_linear_2280_27029" x1="234.517" y1="86.0814" x2="260.493" y2="103.937" gradientUnits="userSpaceOnUse">
<stop stop-color="#CFDAF4"/>
<stop offset="1" stop-color="#A0AFDE"/>
</linearGradient>
<linearGradient id="paint4_linear_2280_27029" x1="277.102" y1="86.9097" x2="262.765" y2="96.9228" gradientUnits="userSpaceOnUse">
<stop stop-color="white"/>
<stop offset="1" stop-color="#CFDAF4"/>
</linearGradient>
<linearGradient id="paint5_linear_2280_27029" x1="247.141" y1="104.233" x2="247.141" y2="95.0221" gradientUnits="userSpaceOnUse">
<stop stop-color="white"/>
<stop offset="1" stop-color="#CFDAF4"/>
</linearGradient>
<linearGradient id="paint6_linear_2280_27029" x1="266.143" y1="107.22" x2="265.92" y2="93.606" gradientUnits="userSpaceOnUse">
<stop stop-color="white"/>
<stop offset="1" stop-color="#CFDAF4"/>
</linearGradient>
<linearGradient id="paint7_linear_2280_27029" x1="222.733" y1="103.736" x2="222.733" y2="273.104" gradientUnits="userSpaceOnUse">
<stop stop-color="#8393CE"/>
<stop offset="1" stop-color="#B5BDE1"/>
</linearGradient>
<linearGradient id="paint8_linear_2280_27029" x1="271.814" y1="269.021" x2="260.995" y2="0.0925984" gradientUnits="userSpaceOnUse">
<stop stop-color="#CFDAF4"/>
<stop offset="1" stop-color="#A0AFDE"/>
</linearGradient>
<linearGradient id="paint9_linear_2280_27029" x1="238.135" y1="166.266" x2="201.204" y2="70.0936" gradientUnits="userSpaceOnUse">
<stop stop-color="#CFDAF4"/>
<stop offset="1" stop-color="#A0AFDE"/>
</linearGradient>
<linearGradient id="paint10_linear_2280_27029" x1="289.072" y1="100.981" x2="256.605" y2="134.53" gradientUnits="userSpaceOnUse">
<stop stop-color="white"/>
<stop offset="1" stop-color="#CFDAF4"/>
</linearGradient>
<linearGradient id="paint11_linear_2280_27029" x1="224.224" y1="140.263" x2="221.521" y2="113.209" gradientUnits="userSpaceOnUse">
<stop stop-color="white"/>
<stop offset="1" stop-color="#CFDAF4"/>
</linearGradient>
<linearGradient id="paint12_linear_2280_27029" x1="270.171" y1="141.283" x2="268.549" y2="120.044" gradientUnits="userSpaceOnUse">
<stop stop-color="white"/>
<stop offset="1" stop-color="#CFDAF4"/>
</linearGradient>
<linearGradient id="paint13_linear_2280_27029" x1="240.288" y1="211.047" x2="240.288" y2="191.02" gradientUnits="userSpaceOnUse">
<stop stop-color="#5B60A3"/>
<stop offset="1" stop-color="#424161"/>
</linearGradient>
<linearGradient id="paint14_linear_2280_27029" x1="234.782" y1="196.645" x2="250.833" y2="187.264" gradientUnits="userSpaceOnUse">
<stop stop-color="white"/>
<stop offset="1" stop-color="#CFDAF4"/>
</linearGradient>
<linearGradient id="paint15_linear_2280_27029" x1="235.759" y1="194.178" x2="235.127" y2="221.327" gradientUnits="userSpaceOnUse">
<stop stop-color="#CFDAF4"/>
<stop offset="1" stop-color="#A0AFDE"/>
</linearGradient>
<linearGradient id="paint16_linear_2280_27029" x1="222.729" y1="211.047" x2="222.729" y2="191.02" gradientUnits="userSpaceOnUse">
<stop stop-color="#5B60A3"/>
<stop offset="1" stop-color="#424161"/>
</linearGradient>
<linearGradient id="paint17_linear_2280_27029" x1="217.223" y1="196.645" x2="233.274" y2="187.264" gradientUnits="userSpaceOnUse">
<stop stop-color="white"/>
<stop offset="1" stop-color="#CFDAF4"/>
</linearGradient>
<linearGradient id="paint18_linear_2280_27029" x1="218.2" y1="194.178" x2="217.568" y2="221.327" gradientUnits="userSpaceOnUse">
<stop stop-color="#CFDAF4"/>
<stop offset="1" stop-color="#A0AFDE"/>
</linearGradient>
<linearGradient id="paint19_linear_2280_27029" x1="205.17" y1="211.047" x2="205.17" y2="191.02" gradientUnits="userSpaceOnUse">
<stop stop-color="#5B60A3"/>
<stop offset="1" stop-color="#424161"/>
</linearGradient>
<linearGradient id="paint20_linear_2280_27029" x1="199.664" y1="196.645" x2="215.715" y2="187.264" gradientUnits="userSpaceOnUse">
<stop stop-color="white"/>
<stop offset="1" stop-color="#CFDAF4"/>
</linearGradient>
<linearGradient id="paint21_linear_2280_27029" x1="200.641" y1="194.178" x2="200.009" y2="221.327" gradientUnits="userSpaceOnUse">
<stop stop-color="#CFDAF4"/>
<stop offset="1" stop-color="#A0AFDE"/>
</linearGradient>
<linearGradient id="paint22_linear_2280_27029" x1="240.288" y1="181.618" x2="240.288" y2="161.597" gradientUnits="userSpaceOnUse">
<stop stop-color="#5B60A3"/>
<stop offset="1" stop-color="#424161"/>
</linearGradient>
<linearGradient id="paint23_linear_2280_27029" x1="234.782" y1="167.212" x2="250.833" y2="157.831" gradientUnits="userSpaceOnUse">
<stop stop-color="white"/>
<stop offset="1" stop-color="#CFDAF4"/>
</linearGradient>
<linearGradient id="paint24_linear_2280_27029" x1="235.759" y1="164.749" x2="235.127" y2="191.894" gradientUnits="userSpaceOnUse">
<stop stop-color="#CFDAF4"/>
<stop offset="1" stop-color="#A0AFDE"/>
</linearGradient>
<linearGradient id="paint25_linear_2280_27029" x1="222.729" y1="181.618" x2="222.729" y2="161.597" gradientUnits="userSpaceOnUse">
<stop stop-color="#5B60A3"/>
<stop offset="1" stop-color="#424161"/>
</linearGradient>
<linearGradient id="paint26_linear_2280_27029" x1="217.223" y1="167.212" x2="233.274" y2="157.831" gradientUnits="userSpaceOnUse">
<stop stop-color="white"/>
<stop offset="1" stop-color="#CFDAF4"/>
</linearGradient>
<linearGradient id="paint27_linear_2280_27029" x1="218.2" y1="164.749" x2="217.568" y2="191.894" gradientUnits="userSpaceOnUse">
<stop stop-color="#CFDAF4"/>
<stop offset="1" stop-color="#A0AFDE"/>
</linearGradient>
<linearGradient id="paint28_linear_2280_27029" x1="205.17" y1="181.618" x2="205.17" y2="161.597" gradientUnits="userSpaceOnUse">
<stop stop-color="#5B60A3"/>
<stop offset="1" stop-color="#424161"/>
</linearGradient>
<linearGradient id="paint29_linear_2280_27029" x1="199.664" y1="167.212" x2="215.715" y2="157.831" gradientUnits="userSpaceOnUse">
<stop stop-color="white"/>
<stop offset="1" stop-color="#CFDAF4"/>
</linearGradient>
<linearGradient id="paint30_linear_2280_27029" x1="200.641" y1="164.749" x2="200.009" y2="191.894" gradientUnits="userSpaceOnUse">
<stop stop-color="#CFDAF4"/>
<stop offset="1" stop-color="#A0AFDE"/>
</linearGradient>
<linearGradient id="paint31_linear_2280_27029" x1="240.288" y1="152.181" x2="240.288" y2="132.159" gradientUnits="userSpaceOnUse">
<stop stop-color="#5B60A3"/>
<stop offset="1" stop-color="#424161"/>
</linearGradient>
<linearGradient id="paint32_linear_2280_27029" x1="234.782" y1="137.776" x2="250.833" y2="128.4" gradientUnits="userSpaceOnUse">
<stop stop-color="white"/>
<stop offset="1" stop-color="#CFDAF4"/>
</linearGradient>
<linearGradient id="paint33_linear_2280_27029" x1="235.759" y1="135.314" x2="235.127" y2="162.458" gradientUnits="userSpaceOnUse">
<stop stop-color="#CFDAF4"/>
<stop offset="1" stop-color="#A0AFDE"/>
</linearGradient>
<linearGradient id="paint34_linear_2280_27029" x1="222.729" y1="152.181" x2="222.729" y2="132.159" gradientUnits="userSpaceOnUse">
<stop stop-color="#5B60A3"/>
<stop offset="1" stop-color="#424161"/>
</linearGradient>
<linearGradient id="paint35_linear_2280_27029" x1="217.223" y1="137.776" x2="233.274" y2="128.4" gradientUnits="userSpaceOnUse">
<stop stop-color="white"/>
<stop offset="1" stop-color="#CFDAF4"/>
</linearGradient>
<linearGradient id="paint36_linear_2280_27029" x1="218.2" y1="135.314" x2="217.568" y2="162.458" gradientUnits="userSpaceOnUse">
<stop stop-color="#CFDAF4"/>
<stop offset="1" stop-color="#A0AFDE"/>
</linearGradient>
<linearGradient id="paint37_linear_2280_27029" x1="205.17" y1="152.181" x2="205.17" y2="132.159" gradientUnits="userSpaceOnUse">
<stop stop-color="#5B60A3"/>
<stop offset="1" stop-color="#424161"/>
</linearGradient>
<linearGradient id="paint38_linear_2280_27029" x1="199.664" y1="137.776" x2="215.715" y2="128.4" gradientUnits="userSpaceOnUse">
<stop stop-color="white"/>
<stop offset="1" stop-color="#CFDAF4"/>
</linearGradient>
<linearGradient id="paint39_linear_2280_27029" x1="200.641" y1="135.314" x2="200.009" y2="162.458" gradientUnits="userSpaceOnUse">
<stop stop-color="#CFDAF4"/>
<stop offset="1" stop-color="#A0AFDE"/>
</linearGradient>
<linearGradient id="paint40_linear_2280_27029" x1="240.288" y1="240.481" x2="240.288" y2="220.459" gradientUnits="userSpaceOnUse">
<stop stop-color="#5B60A3"/>
<stop offset="1" stop-color="#424161"/>
</linearGradient>
<linearGradient id="paint41_linear_2280_27029" x1="234.782" y1="226.078" x2="250.833" y2="216.697" gradientUnits="userSpaceOnUse">
<stop stop-color="white"/>
<stop offset="1" stop-color="#CFDAF4"/>
</linearGradient>
<linearGradient id="paint42_linear_2280_27029" x1="235.759" y1="223.611" x2="235.127" y2="250.755" gradientUnits="userSpaceOnUse">
<stop stop-color="#CFDAF4"/>
<stop offset="1" stop-color="#A0AFDE"/>
</linearGradient>
<linearGradient id="paint43_linear_2280_27029" x1="222.729" y1="240.481" x2="222.729" y2="220.459" gradientUnits="userSpaceOnUse">
<stop stop-color="#5B60A3"/>
<stop offset="1" stop-color="#424161"/>
</linearGradient>
<linearGradient id="paint44_linear_2280_27029" x1="217.223" y1="226.078" x2="233.274" y2="216.697" gradientUnits="userSpaceOnUse">
<stop stop-color="white"/>
<stop offset="1" stop-color="#CFDAF4"/>
</linearGradient>
<linearGradient id="paint45_linear_2280_27029" x1="218.2" y1="223.611" x2="217.568" y2="250.755" gradientUnits="userSpaceOnUse">
<stop stop-color="#CFDAF4"/>
<stop offset="1" stop-color="#A0AFDE"/>
</linearGradient>
<linearGradient id="paint46_linear_2280_27029" x1="205.17" y1="240.481" x2="205.17" y2="220.459" gradientUnits="userSpaceOnUse">
<stop stop-color="#5B60A3"/>
<stop offset="1" stop-color="#424161"/>
</linearGradient>
<linearGradient id="paint47_linear_2280_27029" x1="199.664" y1="226.078" x2="215.715" y2="216.697" gradientUnits="userSpaceOnUse">
<stop stop-color="white"/>
<stop offset="1" stop-color="#CFDAF4"/>
</linearGradient>
<linearGradient id="paint48_linear_2280_27029" x1="200.641" y1="223.611" x2="200.009" y2="250.755" gradientUnits="userSpaceOnUse">
<stop stop-color="#CFDAF4"/>
<stop offset="1" stop-color="#A0AFDE"/>
</linearGradient>
<linearGradient id="paint49_linear_2280_27029" x1="263.693" y1="271.087" x2="263.693" y2="121.013" gradientUnits="userSpaceOnUse">
<stop stop-color="#5B60A3"/>
<stop offset="1" stop-color="#424161"/>
</linearGradient>
<linearGradient id="paint50_linear_2280_27029" x1="260.467" y1="136.447" x2="270.214" y2="130.749" gradientUnits="userSpaceOnUse">
<stop stop-color="white"/>
<stop offset="1" stop-color="#CFDAF4"/>
</linearGradient>
<linearGradient id="paint51_linear_2280_27029" x1="265.105" y1="239.411" x2="255.035" y2="146.77" gradientUnits="userSpaceOnUse">
<stop stop-color="white"/>
<stop offset="1" stop-color="#CFDAF4"/>
</linearGradient>
<linearGradient id="paint52_linear_2280_27029" x1="273.976" y1="271.087" x2="273.976" y2="121.013" gradientUnits="userSpaceOnUse">
<stop stop-color="#5B60A3"/>
<stop offset="1" stop-color="#424161"/>
</linearGradient>
<linearGradient id="paint53_linear_2280_27029" x1="270.746" y1="136.447" x2="280.497" y2="130.749" gradientUnits="userSpaceOnUse">
<stop stop-color="white"/>
<stop offset="1" stop-color="#CFDAF4"/>
</linearGradient>
<linearGradient id="paint54_linear_2280_27029" x1="275.384" y1="239.411" x2="265.314" y2="146.77" gradientUnits="userSpaceOnUse">
<stop stop-color="white"/>
<stop offset="1" stop-color="#CFDAF4"/>
</linearGradient>
<linearGradient id="paint55_linear_2280_27029" x1="225.21" y1="109.508" x2="225.21" y2="127.367" gradientUnits="userSpaceOnUse">
<stop stop-color="#334FA8"/>
<stop offset="1" stop-color="#429F56"/>
</linearGradient>
<linearGradient id="paint56_linear_2280_27029" x1="218.932" y1="109.508" x2="218.932" y2="127.367" gradientUnits="userSpaceOnUse">
<stop stop-color="#334FA8"/>
<stop offset="1" stop-color="#429F56"/>
</linearGradient>
<linearGradient id="paint57_linear_2280_27029" x1="212.655" y1="109.508" x2="212.655" y2="127.367" gradientUnits="userSpaceOnUse">
<stop stop-color="#334FA8"/>
<stop offset="1" stop-color="#429F56"/>
</linearGradient>
<linearGradient id="paint58_linear_2280_27029" x1="206.382" y1="109.508" x2="206.382" y2="127.367" gradientUnits="userSpaceOnUse">
<stop stop-color="#334FA8"/>
<stop offset="1" stop-color="#429F56"/>
</linearGradient>
<linearGradient id="paint59_linear_2280_27029" x1="200.105" y1="109.508" x2="200.105" y2="127.367" gradientUnits="userSpaceOnUse">
<stop stop-color="#334FA8"/>
<stop offset="1" stop-color="#429F56"/>
</linearGradient>
<linearGradient id="paint60_linear_2280_27029" x1="250.188" y1="109.508" x2="250.188" y2="127.367" gradientUnits="userSpaceOnUse">
<stop stop-color="#334FA8"/>
<stop offset="1" stop-color="#429F56"/>
</linearGradient>
<linearGradient id="paint61_linear_2280_27029" x1="243.915" y1="109.508" x2="243.915" y2="127.367" gradientUnits="userSpaceOnUse">
<stop stop-color="#334FA8"/>
<stop offset="1" stop-color="#429F56"/>
</linearGradient>
<linearGradient id="paint62_linear_2280_27029" x1="237.637" y1="109.508" x2="237.637" y2="127.367" gradientUnits="userSpaceOnUse">
<stop stop-color="#334FA8"/>
<stop offset="1" stop-color="#429F56"/>
</linearGradient>
<linearGradient id="paint63_linear_2280_27029" x1="231.361" y1="109.508" x2="231.361" y2="127.367" gradientUnits="userSpaceOnUse">
<stop stop-color="#334FA8"/>
<stop offset="1" stop-color="#429F56"/>
</linearGradient>
<linearGradient id="paint64_linear_2280_27029" x1="275.171" y1="109.508" x2="275.171" y2="127.367" gradientUnits="userSpaceOnUse">
<stop stop-color="#334FA8"/>
<stop offset="1" stop-color="#429F56"/>
</linearGradient>
<linearGradient id="paint65_linear_2280_27029" x1="268.894" y1="109.508" x2="268.894" y2="127.367" gradientUnits="userSpaceOnUse">
<stop stop-color="#334FA8"/>
<stop offset="1" stop-color="#429F56"/>
</linearGradient>
<linearGradient id="paint66_linear_2280_27029" x1="262.616" y1="109.508" x2="262.616" y2="127.367" gradientUnits="userSpaceOnUse">
<stop stop-color="#334FA8"/>
<stop offset="1" stop-color="#429F56"/>
</linearGradient>
<linearGradient id="paint67_linear_2280_27029" x1="256.343" y1="109.508" x2="256.343" y2="127.367" gradientUnits="userSpaceOnUse">
<stop stop-color="#334FA8"/>
<stop offset="1" stop-color="#429F56"/>
</linearGradient>
<linearGradient id="paint68_linear_2280_27029" x1="193.828" y1="109.508" x2="193.828" y2="127.367" gradientUnits="userSpaceOnUse">
<stop stop-color="#334FA8"/>
<stop offset="1" stop-color="#429F56"/>
</linearGradient>
<linearGradient id="paint69_linear_2280_27029" x1="237.634" y1="106.679" x2="237.634" y2="113.453" gradientUnits="userSpaceOnUse">
<stop stop-color="#429F56"/>
<stop offset="1" stop-color="#FADB81"/>
</linearGradient>
<linearGradient id="paint70_linear_2280_27029" x1="132.515" y1="292.037" x2="130.894" y2="102.093" gradientUnits="userSpaceOnUse">
<stop stop-color="#CFDAF4"/>
<stop offset="1" stop-color="#A0AFDE"/>
</linearGradient>
<linearGradient id="paint71_linear_2280_27029" x1="179.373" y1="301.501" x2="176.125" y2="170.428" gradientUnits="userSpaceOnUse">
<stop stop-color="white"/>
<stop offset="1" stop-color="#CFDAF4"/>
</linearGradient>
<linearGradient id="paint72_linear_2280_27029" x1="133.365" y1="180.244" x2="140.218" y2="166.687" gradientUnits="userSpaceOnUse">
<stop stop-color="white"/>
<stop offset="0.19" stop-color="#EBF0FA"/>
<stop offset="0.4" stop-color="#DBE3F7"/>
<stop offset="0.65" stop-color="#D2DCF5"/>
<stop offset="1" stop-color="#CFDAF4"/>
</linearGradient>
<linearGradient id="paint73_linear_2280_27029" x1="123.858" y1="181.308" x2="132.943" y2="163.322" gradientUnits="userSpaceOnUse">
<stop stop-color="white"/>
<stop offset="0.19" stop-color="#EBF0FA"/>
<stop offset="0.4" stop-color="#DBE3F7"/>
<stop offset="0.65" stop-color="#D2DCF5"/>
<stop offset="1" stop-color="#CFDAF4"/>
</linearGradient>
<linearGradient id="paint74_linear_2280_27029" x1="133.522" y1="191.927" x2="141.861" y2="175.419" gradientUnits="userSpaceOnUse">
<stop stop-color="white"/>
<stop offset="0.19" stop-color="#EBF0FA"/>
<stop offset="0.4" stop-color="#DBE3F7"/>
<stop offset="0.65" stop-color="#D2DCF5"/>
<stop offset="1" stop-color="#CFDAF4"/>
</linearGradient>
<linearGradient id="paint75_linear_2280_27029" x1="133.714" y1="202.512" x2="141.591" y2="186.923" gradientUnits="userSpaceOnUse">
<stop stop-color="white"/>
<stop offset="0.19" stop-color="#EBF0FA"/>
<stop offset="0.4" stop-color="#DBE3F7"/>
<stop offset="0.65" stop-color="#D2DCF5"/>
<stop offset="1" stop-color="#CFDAF4"/>
</linearGradient>
<linearGradient id="paint76_linear_2280_27029" x1="122.633" y1="191.927" x2="130.972" y2="175.419" gradientUnits="userSpaceOnUse">
<stop stop-color="white"/>
<stop offset="0.19" stop-color="#EBF0FA"/>
<stop offset="0.4" stop-color="#DBE3F7"/>
<stop offset="0.65" stop-color="#D2DCF5"/>
<stop offset="1" stop-color="#CFDAF4"/>
</linearGradient>
<linearGradient id="paint77_linear_2280_27029" x1="122.825" y1="202.512" x2="130.702" y2="186.923" gradientUnits="userSpaceOnUse">
<stop stop-color="white"/>
<stop offset="0.19" stop-color="#EBF0FA"/>
<stop offset="0.4" stop-color="#DBE3F7"/>
<stop offset="0.65" stop-color="#D2DCF5"/>
<stop offset="1" stop-color="#CFDAF4"/>
</linearGradient>
<linearGradient id="paint78_linear_2280_27029" x1="128.583" y1="159.137" x2="132.258" y2="164.97" gradientUnits="userSpaceOnUse">
<stop stop-color="#CFDAF4"/>
<stop offset="1" stop-color="#A0AFDE"/>
</linearGradient>
<linearGradient id="paint79_linear_2280_27029" x1="120.436" y1="164.268" x2="124.107" y2="170.1" gradientUnits="userSpaceOnUse">
<stop stop-color="#CFDAF4"/>
<stop offset="1" stop-color="#A0AFDE"/>
</linearGradient>
<linearGradient id="paint80_linear_2280_27029" x1="112.202" y1="169.455" x2="115.872" y2="175.284" gradientUnits="userSpaceOnUse">
<stop stop-color="#CFDAF4"/>
<stop offset="1" stop-color="#A0AFDE"/>
</linearGradient>
<linearGradient id="paint81_linear_2280_27029" x1="107.258" y1="172.568" x2="110.933" y2="178.397" gradientUnits="userSpaceOnUse">
<stop stop-color="#CFDAF4"/>
<stop offset="1" stop-color="#A0AFDE"/>
</linearGradient>
<linearGradient id="paint82_linear_2280_27029" x1="122.258" y1="224.386" x2="129.111" y2="210.824" gradientUnits="userSpaceOnUse">
<stop stop-color="white"/>
<stop offset="0.19" stop-color="#EBF0FA"/>
<stop offset="0.4" stop-color="#DBE3F7"/>
<stop offset="0.65" stop-color="#D2DCF5"/>
<stop offset="1" stop-color="#CFDAF4"/>
</linearGradient>
<linearGradient id="paint83_linear_2280_27029" x1="112.751" y1="225.446" x2="121.835" y2="207.464" gradientUnits="userSpaceOnUse">
<stop stop-color="white"/>
<stop offset="0.19" stop-color="#EBF0FA"/>
<stop offset="0.4" stop-color="#DBE3F7"/>
<stop offset="0.65" stop-color="#D2DCF5"/>
<stop offset="1" stop-color="#CFDAF4"/>
</linearGradient>
<linearGradient id="paint84_linear_2280_27029" x1="122.42" y1="236.064" x2="130.759" y2="219.56" gradientUnits="userSpaceOnUse">
<stop stop-color="white"/>
<stop offset="0.19" stop-color="#EBF0FA"/>
<stop offset="0.4" stop-color="#DBE3F7"/>
<stop offset="0.65" stop-color="#D2DCF5"/>
<stop offset="1" stop-color="#CFDAF4"/>
</linearGradient>
<linearGradient id="paint85_linear_2280_27029" x1="111.53" y1="236.064" x2="119.869" y2="219.56" gradientUnits="userSpaceOnUse">
<stop stop-color="white"/>
<stop offset="0.19" stop-color="#EBF0FA"/>
<stop offset="0.4" stop-color="#DBE3F7"/>
<stop offset="0.65" stop-color="#D2DCF5"/>
<stop offset="1" stop-color="#CFDAF4"/>
</linearGradient>
<linearGradient id="paint86_linear_2280_27029" x1="117.481" y1="203.279" x2="121.151" y2="209.107" gradientUnits="userSpaceOnUse">
<stop stop-color="#CFDAF4"/>
<stop offset="1" stop-color="#A0AFDE"/>
</linearGradient>
<linearGradient id="paint87_linear_2280_27029" x1="109.329" y1="208.41" x2="113.003" y2="214.238" gradientUnits="userSpaceOnUse">
<stop stop-color="#CFDAF4"/>
<stop offset="1" stop-color="#A0AFDE"/>
</linearGradient>
<linearGradient id="paint88_linear_2280_27029" x1="101.099" y1="213.593" x2="104.769" y2="219.425" gradientUnits="userSpaceOnUse">
<stop stop-color="#CFDAF4"/>
<stop offset="1" stop-color="#A0AFDE"/>
</linearGradient>
<linearGradient id="paint89_linear_2280_27029" x1="146.883" y1="224.386" x2="153.736" y2="210.824" gradientUnits="userSpaceOnUse">
<stop stop-color="white"/>
<stop offset="0.19" stop-color="#EBF0FA"/>
<stop offset="0.4" stop-color="#DBE3F7"/>
<stop offset="0.65" stop-color="#D2DCF5"/>
<stop offset="1" stop-color="#CFDAF4"/>
</linearGradient>
<linearGradient id="paint90_linear_2280_27029" x1="137.376" y1="225.446" x2="146.461" y2="207.464" gradientUnits="userSpaceOnUse">
<stop stop-color="white"/>
<stop offset="0.19" stop-color="#EBF0FA"/>
<stop offset="0.4" stop-color="#DBE3F7"/>
<stop offset="0.65" stop-color="#D2DCF5"/>
<stop offset="1" stop-color="#CFDAF4"/>
</linearGradient>
<linearGradient id="paint91_linear_2280_27029" x1="147.045" y1="236.064" x2="155.384" y2="219.56" gradientUnits="userSpaceOnUse">
<stop stop-color="white"/>
<stop offset="0.19" stop-color="#EBF0FA"/>
<stop offset="0.4" stop-color="#DBE3F7"/>
<stop offset="0.65" stop-color="#D2DCF5"/>
<stop offset="1" stop-color="#CFDAF4"/>
</linearGradient>
<linearGradient id="paint92_linear_2280_27029" x1="136.156" y1="236.064" x2="144.495" y2="219.56" gradientUnits="userSpaceOnUse">
<stop stop-color="white"/>
<stop offset="0.19" stop-color="#EBF0FA"/>
<stop offset="0.4" stop-color="#DBE3F7"/>
<stop offset="0.65" stop-color="#D2DCF5"/>
<stop offset="1" stop-color="#CFDAF4"/>
</linearGradient>
<linearGradient id="paint93_linear_2280_27029" x1="142.106" y1="203.279" x2="145.776" y2="209.107" gradientUnits="userSpaceOnUse">
<stop stop-color="#CFDAF4"/>
<stop offset="1" stop-color="#A0AFDE"/>
</linearGradient>
<linearGradient id="paint94_linear_2280_27029" x1="133.959" y1="208.41" x2="137.629" y2="214.238" gradientUnits="userSpaceOnUse">
<stop stop-color="#CFDAF4"/>
<stop offset="1" stop-color="#A0AFDE"/>
</linearGradient>
<linearGradient id="paint95_linear_2280_27029" x1="125.724" y1="213.593" x2="129.395" y2="219.425" gradientUnits="userSpaceOnUse">
<stop stop-color="#CFDAF4"/>
<stop offset="1" stop-color="#A0AFDE"/>
</linearGradient>
<linearGradient id="paint96_linear_2280_27029" x1="122.258" y1="260.637" x2="129.111" y2="247.08" gradientUnits="userSpaceOnUse">
<stop stop-color="white"/>
<stop offset="0.19" stop-color="#EBF0FA"/>
<stop offset="0.4" stop-color="#DBE3F7"/>
<stop offset="0.65" stop-color="#D2DCF5"/>
<stop offset="1" stop-color="#CFDAF4"/>
</linearGradient>
<linearGradient id="paint97_linear_2280_27029" x1="112.751" y1="261.7" x2="121.835" y2="243.714" gradientUnits="userSpaceOnUse">
<stop stop-color="white"/>
<stop offset="0.19" stop-color="#EBF0FA"/>
<stop offset="0.4" stop-color="#DBE3F7"/>
<stop offset="0.65" stop-color="#D2DCF5"/>
<stop offset="1" stop-color="#CFDAF4"/>
</linearGradient>
<linearGradient id="paint98_linear_2280_27029" x1="117.481" y1="239.529" x2="121.151" y2="245.357" gradientUnits="userSpaceOnUse">
<stop stop-color="#CFDAF4"/>
<stop offset="1" stop-color="#A0AFDE"/>
</linearGradient>
<linearGradient id="paint99_linear_2280_27029" x1="109.329" y1="244.661" x2="113.003" y2="250.489" gradientUnits="userSpaceOnUse">
<stop stop-color="#CFDAF4"/>
<stop offset="1" stop-color="#A0AFDE"/>
</linearGradient>
<linearGradient id="paint100_linear_2280_27029" x1="146.883" y1="260.637" x2="153.736" y2="247.08" gradientUnits="userSpaceOnUse">
<stop stop-color="white"/>
<stop offset="0.19" stop-color="#EBF0FA"/>
<stop offset="0.4" stop-color="#DBE3F7"/>
<stop offset="0.65" stop-color="#D2DCF5"/>
<stop offset="1" stop-color="#CFDAF4"/>
</linearGradient>
<linearGradient id="paint101_linear_2280_27029" x1="137.376" y1="261.7" x2="146.461" y2="243.714" gradientUnits="userSpaceOnUse">
<stop stop-color="white"/>
<stop offset="0.19" stop-color="#EBF0FA"/>
<stop offset="0.4" stop-color="#DBE3F7"/>
<stop offset="0.65" stop-color="#D2DCF5"/>
<stop offset="1" stop-color="#CFDAF4"/>
</linearGradient>
<linearGradient id="paint102_linear_2280_27029" x1="142.106" y1="239.529" x2="145.776" y2="245.357" gradientUnits="userSpaceOnUse">
<stop stop-color="#CFDAF4"/>
<stop offset="1" stop-color="#A0AFDE"/>
</linearGradient>
<linearGradient id="paint103_linear_2280_27029" x1="133.959" y1="244.661" x2="137.629" y2="250.489" gradientUnits="userSpaceOnUse">
<stop stop-color="#CFDAF4"/>
<stop offset="1" stop-color="#A0AFDE"/>
</linearGradient>
<linearGradient id="paint104_linear_2280_27029" x1="172.607" y1="215.729" x2="171.57" y2="188.928" gradientUnits="userSpaceOnUse">
<stop stop-color="#CFDAF4"/>
<stop offset="1" stop-color="#A0AFDE"/>
</linearGradient>
<linearGradient id="paint105_linear_2280_27029" x1="167.289" y1="191.229" x2="180.314" y2="183.622" gradientUnits="userSpaceOnUse">
<stop stop-color="white"/>
<stop offset="1" stop-color="#CFDAF4"/>
</linearGradient>
<linearGradient id="paint106_linear_2280_27029" x1="182.703" y1="215.729" x2="181.666" y2="188.928" gradientUnits="userSpaceOnUse">
<stop stop-color="#CFDAF4"/>
<stop offset="1" stop-color="#A0AFDE"/>
</linearGradient>
<linearGradient id="paint107_linear_2280_27029" x1="176.792" y1="191.573" x2="190.785" y2="183.4" gradientUnits="userSpaceOnUse">
<stop stop-color="white"/>
<stop offset="1" stop-color="#CFDAF4"/>
</linearGradient>
<linearGradient id="paint108_linear_2280_27029" x1="172.607" y1="228.785" x2="171.57" y2="201.984" gradientUnits="userSpaceOnUse">
<stop stop-color="#CFDAF4"/>
<stop offset="1" stop-color="#A0AFDE"/>
</linearGradient>
<linearGradient id="paint109_linear_2280_27029" x1="182.703" y1="228.785" x2="181.666" y2="201.984" gradientUnits="userSpaceOnUse">
<stop stop-color="#CFDAF4"/>
<stop offset="1" stop-color="#A0AFDE"/>
</linearGradient>
<linearGradient id="paint110_linear_2280_27029" x1="172.607" y1="261.008" x2="171.57" y2="234.208" gradientUnits="userSpaceOnUse">
<stop stop-color="#CFDAF4"/>
<stop offset="1" stop-color="#A0AFDE"/>
</linearGradient>
<linearGradient id="paint111_linear_2280_27029" x1="167.289" y1="236.509" x2="180.314" y2="228.903" gradientUnits="userSpaceOnUse">
<stop stop-color="white"/>
<stop offset="1" stop-color="#CFDAF4"/>
</linearGradient>
<linearGradient id="paint112_linear_2280_27029" x1="182.703" y1="261.008" x2="181.666" y2="234.208" gradientUnits="userSpaceOnUse">
<stop stop-color="#CFDAF4"/>
<stop offset="1" stop-color="#A0AFDE"/>
</linearGradient>
<linearGradient id="paint113_linear_2280_27029" x1="176.792" y1="236.858" x2="190.785" y2="228.68" gradientUnits="userSpaceOnUse">
<stop stop-color="white"/>
<stop offset="1" stop-color="#CFDAF4"/>
</linearGradient>
<linearGradient id="paint114_linear_2280_27029" x1="172.607" y1="274.068" x2="171.57" y2="247.267" gradientUnits="userSpaceOnUse">
<stop stop-color="#CFDAF4"/>
<stop offset="1" stop-color="#A0AFDE"/>
</linearGradient>
<linearGradient id="paint115_linear_2280_27029" x1="182.703" y1="274.068" x2="181.666" y2="247.267" gradientUnits="userSpaceOnUse">
<stop stop-color="#CFDAF4"/>
<stop offset="1" stop-color="#A0AFDE"/>
</linearGradient>
<linearGradient id="paint116_linear_2280_27029" x1="176.112" y1="201.881" x2="177.917" y2="175.908" gradientUnits="userSpaceOnUse">
<stop stop-color="white"/>
<stop offset="1" stop-color="#CFDAF4"/>
</linearGradient>
<linearGradient id="paint117_linear_2280_27029" x1="131.417" y1="189.385" x2="133.941" y2="144.834" gradientUnits="userSpaceOnUse">
<stop stop-color="white"/>
<stop offset="1" stop-color="#CFDAF4"/>
</linearGradient>
<linearGradient id="paint118_linear_2280_27029" x1="156.555" y1="147.416" x2="156.555" y2="200.607" gradientUnits="userSpaceOnUse">
<stop stop-color="#424161"/>
<stop offset="1" stop-color="#5B60A3"/>
</linearGradient>
<linearGradient id="paint119_linear_2280_27029" x1="167.211" y1="181.182" x2="205.088" y2="164.408" gradientUnits="userSpaceOnUse">
<stop stop-color="#8393CE"/>
<stop offset="1" stop-color="#5B60A3"/>
</linearGradient>
<linearGradient id="paint120_linear_2280_27029" x1="97.6292" y1="176.492" x2="161.339" y2="158.636" gradientUnits="userSpaceOnUse">
<stop stop-color="#8393CE"/>
<stop offset="1" stop-color="#5B60A3"/>
</linearGradient>
<linearGradient id="paint121_linear_2280_27029" x1="31.6794" y1="144.908" x2="6.86245" y2="186.648" gradientUnits="userSpaceOnUse">
<stop stop-color="white"/>
<stop offset="1" stop-color="#CFDAF4"/>
</linearGradient>
<linearGradient id="paint122_linear_2280_27029" x1="101.919" y1="114.77" x2="16.7488" y2="191.762" gradientUnits="userSpaceOnUse">
<stop stop-color="#CFDAF4"/>
<stop offset="1" stop-color="#A0AFDE"/>
</linearGradient>
<linearGradient id="paint123_linear_2280_27029" x1="24.8269" y1="300.55" x2="24.8269" y2="178.008" gradientUnits="userSpaceOnUse">
<stop stop-color="white"/>
<stop offset="1" stop-color="#CFDAF4"/>
</linearGradient>
<linearGradient id="paint124_linear_2280_27029" x1="66.1996" y1="126.889" x2="73.4359" y2="262.552" gradientUnits="userSpaceOnUse">
<stop stop-color="#8393CE"/>
<stop offset="1" stop-color="#B5BDE1"/>
</linearGradient>
<linearGradient id="paint125_linear_2280_27029" x1="20.158" y1="164.652" x2="109.278" y2="102.045" gradientUnits="userSpaceOnUse">
<stop stop-color="#424161"/>
<stop offset="1" stop-color="#5B60A3"/>
</linearGradient>
<linearGradient id="paint126_linear_2280_27029" x1="24.8269" y1="170.38" x2="24.8269" y2="160.083" gradientUnits="userSpaceOnUse">
<stop stop-color="white"/>
<stop offset="1" stop-color="#CFDAF4"/>
</linearGradient>
<linearGradient id="paint127_linear_2280_27029" x1="66.5963" y1="141.008" x2="71.2476" y2="150.315" gradientUnits="userSpaceOnUse">
<stop stop-color="white"/>
<stop offset="1" stop-color="#CFDAF4"/>
</linearGradient>
<linearGradient id="paint128_linear_2280_27029" x1="70.3063" y1="177.455" x2="70.3063" y2="165.175" gradientUnits="userSpaceOnUse">
<stop stop-color="#5B60A3"/>
<stop offset="1" stop-color="#424161"/>
</linearGradient>
<linearGradient id="paint129_linear_2280_27029" x1="44.0423" y1="182.254" x2="117.447" y2="139.368" gradientUnits="userSpaceOnUse">
<stop stop-color="white"/>
<stop offset="1" stop-color="#CFDAF4"/>
</linearGradient>
<linearGradient id="paint130_linear_2280_27029" x1="46.5358" y1="167.114" x2="46.1478" y2="183.758" gradientUnits="userSpaceOnUse">
<stop stop-color="#CFDAF4"/>
<stop offset="1" stop-color="#A0AFDE"/>
</linearGradient>
<linearGradient id="paint131_linear_2280_27029" x1="70.3063" y1="193.814" x2="70.3063" y2="181.539" gradientUnits="userSpaceOnUse">
<stop stop-color="#5B60A3"/>
<stop offset="1" stop-color="#424161"/>
</linearGradient>
<linearGradient id="paint132_linear_2280_27029" x1="44.0423" y1="198.619" x2="117.447" y2="155.729" gradientUnits="userSpaceOnUse">
<stop stop-color="white"/>
<stop offset="1" stop-color="#CFDAF4"/>
</linearGradient>
<linearGradient id="paint133_linear_2280_27029" x1="46.5358" y1="183.475" x2="46.1478" y2="200.123" gradientUnits="userSpaceOnUse">
<stop stop-color="#CFDAF4"/>
<stop offset="1" stop-color="#A0AFDE"/>
</linearGradient>
<linearGradient id="paint134_linear_2280_27029" x1="70.3063" y1="210.18" x2="70.3063" y2="197.9" gradientUnits="userSpaceOnUse">
<stop stop-color="#5B60A3"/>
<stop offset="1" stop-color="#424161"/>
</linearGradient>
<linearGradient id="paint135_linear_2280_27029" x1="44.0423" y1="214.979" x2="117.447" y2="172.093" gradientUnits="userSpaceOnUse">
<stop stop-color="white"/>
<stop offset="1" stop-color="#CFDAF4"/>
</linearGradient>
<linearGradient id="paint136_linear_2280_27029" x1="46.5358" y1="199.839" x2="46.1478" y2="216.483" gradientUnits="userSpaceOnUse">
<stop stop-color="#CFDAF4"/>
<stop offset="1" stop-color="#A0AFDE"/>
</linearGradient>
<linearGradient id="paint137_linear_2280_27029" x1="70.3063" y1="226.539" x2="70.3063" y2="214.264" gradientUnits="userSpaceOnUse">
<stop stop-color="#5B60A3"/>
<stop offset="1" stop-color="#424161"/>
</linearGradient>
<linearGradient id="paint138_linear_2280_27029" x1="44.0423" y1="231.345" x2="117.447" y2="188.455" gradientUnits="userSpaceOnUse">
<stop stop-color="white"/>
<stop offset="1" stop-color="#CFDAF4"/>
</linearGradient>
<linearGradient id="paint139_linear_2280_27029" x1="35.5758" y1="216.201" x2="35.1879" y2="232.849" gradientUnits="userSpaceOnUse">
<stop stop-color="#CFDAF4"/>
<stop offset="1" stop-color="#A0AFDE"/>
</linearGradient>
<linearGradient id="paint140_linear_2280_27029" x1="70.3063" y1="242.903" x2="70.3063" y2="230.623" gradientUnits="userSpaceOnUse">
<stop stop-color="#5B60A3"/>
<stop offset="1" stop-color="#424161"/>
</linearGradient>
<linearGradient id="paint141_linear_2280_27029" x1="33.0824" y1="247.704" x2="106.487" y2="204.818" gradientUnits="userSpaceOnUse">
<stop stop-color="white"/>
<stop offset="1" stop-color="#CFDAF4"/>
</linearGradient>
<linearGradient id="paint142_linear_2280_27029" x1="35.5758" y1="232.564" x2="35.1879" y2="249.208" gradientUnits="userSpaceOnUse">
<stop stop-color="#CFDAF4"/>
<stop offset="1" stop-color="#A0AFDE"/>
</linearGradient>
<linearGradient id="paint143_linear_2280_27029" x1="59.3463" y1="259.264" x2="59.3463" y2="246.988" gradientUnits="userSpaceOnUse">
<stop stop-color="#5B60A3"/>
<stop offset="1" stop-color="#424161"/>
</linearGradient>
<linearGradient id="paint144_linear_2280_27029" x1="33.0824" y1="264.067" x2="106.487" y2="221.177" gradientUnits="userSpaceOnUse">
<stop stop-color="white"/>
<stop offset="1" stop-color="#CFDAF4"/>
</linearGradient>
<linearGradient id="paint145_linear_2280_27029" x1="35.5758" y1="248.923" x2="35.1879" y2="265.571" gradientUnits="userSpaceOnUse">
<stop stop-color="#CFDAF4"/>
<stop offset="1" stop-color="#A0AFDE"/>
</linearGradient>
<linearGradient id="paint146_linear_2280_27029" x1="158.243" y1="114.048" x2="132.319" y2="148.15" gradientUnits="userSpaceOnUse">
<stop stop-color="white"/>
<stop offset="1" stop-color="#FADB81"/>
</linearGradient>
<linearGradient id="paint147_linear_2280_27029" x1="61.3259" y1="207.213" x2="78.3742" y2="195.976" gradientUnits="userSpaceOnUse">
<stop stop-color="white"/>
<stop offset="1" stop-color="#CFDAF4"/>
</linearGradient>
<linearGradient id="paint148_linear_2280_27029" x1="73.3416" y1="199.841" x2="78.4468" y2="196.458" gradientUnits="userSpaceOnUse">
<stop stop-color="white"/>
<stop offset="1" stop-color="#CFDAF4"/>
</linearGradient>
<linearGradient id="paint149_linear_2280_27029" x1="49.86" y1="222.531" x2="46.0723" y2="202.123" gradientUnits="userSpaceOnUse">
<stop stop-color="#1766AF"/>
<stop offset="1" stop-color="#81D715"/>
</linearGradient>
<linearGradient id="paint150_linear_2280_27029" x1="79.4296" y1="214.873" x2="135.001" y2="137.748" gradientUnits="userSpaceOnUse">
<stop stop-color="#334FA8"/>
<stop offset="1" stop-color="#429F56"/>
</linearGradient>
<linearGradient id="paint151_linear_2280_27029" x1="73.8624" y1="162.006" x2="137.487" y2="195.516" gradientUnits="userSpaceOnUse">
<stop stop-color="white"/>
<stop offset="1" stop-color="#CFDAF4" stop-opacity="0"/>
</linearGradient>
<linearGradient id="paint152_linear_2280_27029" x1="82.9045" y1="178.943" x2="142.631" y2="162.918" gradientUnits="userSpaceOnUse">
<stop stop-color="white"/>
<stop offset="1" stop-color="#CFDAF4" stop-opacity="0"/>
</linearGradient>
<linearGradient id="paint153_linear_2280_27029" x1="143.969" y1="246.051" x2="144.039" y2="256.05" gradientUnits="userSpaceOnUse">
<stop stop-color="#334FA8"/>
<stop offset="1" stop-color="#429F56"/>
</linearGradient>
</defs>
</svg>
