<svg width="20" height="27" viewBox="0 0 20 27" fill="none" xmlns="http://www.w3.org/2000/svg">
<path d="M0.416667 26.9995C0.527174 26.9995 0.633154 26.9551 0.711294 26.876C0.789435 26.7968 0.833333 26.6895 0.833333 26.5776V21.9165C0.833333 20.9941 1.31917 20.1249 2.10083 19.6506L5.3625 17.6682L7.1525 19.9341C7.18919 19.9804 7.23508 20.0184 7.28719 20.0456C7.3393 20.0728 7.39647 20.0886 7.455 20.092L7.47833 20.0928C7.58833 20.0928 7.695 20.0489 7.77333 19.9696L8.75083 18.9797V26.5776C8.75083 26.6895 8.79473 26.7968 8.87287 26.876C8.95101 26.9551 9.05699 26.9995 9.1675 26.9995C9.27801 26.9995 9.38399 26.9551 9.46213 26.876C9.54027 26.7968 9.58417 26.6895 9.58417 26.5776V18.1416L9.58333 18.1366L10 17.7138L10.4175 18.1366L10.4167 18.1416V26.5776C10.4167 26.6895 10.4606 26.7968 10.5387 26.876C10.6168 26.9551 10.7228 26.9995 10.8333 26.9995C10.9438 26.9995 11.0498 26.9551 11.128 26.876C11.2061 26.7968 11.25 26.6895 11.25 26.5776V18.9797L12.2275 19.9696C12.2663 20.0087 12.3123 20.0398 12.3629 20.0609C12.4135 20.0821 12.4677 20.0929 12.5225 20.0928L12.5458 20.092C12.6044 20.0886 12.6615 20.0728 12.7136 20.0456C12.7658 20.0184 12.8116 19.9804 12.8483 19.9341L14.6383 17.6682L17.9008 19.6506C18.286 19.8866 18.6047 20.2191 18.8264 20.6159C19.0481 21.0127 19.1653 21.4606 19.1667 21.9165V26.5776C19.1667 26.6895 19.2106 26.7968 19.2887 26.876C19.3668 26.9551 19.4728 26.9995 19.5833 26.9995C19.6938 26.9995 19.7998 26.9551 19.878 26.876C19.9561 26.7968 20 26.6895 20 26.5776V21.9165C20 20.6987 19.3592 19.5535 18.3283 18.9273L14.8067 16.788L13.4867 15.3026C13.4317 15.2432 13.3606 15.2015 13.2823 15.1829C13.204 15.1643 13.122 15.1695 13.0467 15.198V13.7017C13.6987 13.2183 14.2292 12.5861 14.595 11.8563C14.9609 11.1266 15.1519 10.3199 15.1525 9.50145V7.51315L15.8017 3.84964C15.8624 3.51641 15.8565 3.17426 15.7845 2.84335C15.7125 2.51244 15.5758 2.19948 15.3825 1.92294C15.1908 1.6452 14.9461 1.40914 14.6628 1.22868C14.3796 1.04823 14.0636 0.927035 13.7333 0.872245L8.76833 0.03422C8.4129 -0.0258056 8.04881 -0.00669411 7.7014 0.0902252C7.354 0.187145 7.03161 0.359545 6.75667 0.595435C6.2876 0.998692 5.98416 1.56483 5.90583 2.18287C5.41417 2.2757 4.96917 2.54154 4.64833 2.94325C4.44911 3.19187 4.3075 3.48258 4.23395 3.79398C4.16039 4.10537 4.15677 4.42951 4.22333 4.74252L4.83667 7.64987C4.8375 7.65577 4.84167 7.6583 4.8425 7.66252V9.50061C4.8425 11.2231 5.67417 12.7497 6.94833 13.7009V15.1963C6.87341 15.1692 6.79232 15.1647 6.71493 15.1834C6.63754 15.2021 6.5672 15.2433 6.5125 15.3018L5.19333 16.7863L1.67167 18.9265C1.16304 19.2377 0.742081 19.6762 0.449304 20.1999C0.156527 20.7236 0.00179444 21.3148 0 21.9165V26.5776C0 26.6895 0.0438988 26.7968 0.122039 26.876C0.200179 26.9551 0.30616 26.9995 0.416667 26.9995ZM13.9933 17.1331L12.4875 19.0396L10.7117 17.2412L13.0758 16.101L13.9933 17.1331ZM5.29583 3.47493C5.41622 3.32353 5.56866 3.20147 5.7419 3.11777C5.91513 3.03407 6.10473 2.99087 6.29667 2.99136C6.52667 2.99136 6.71333 2.74577 6.71333 2.51285C6.71289 2.29369 6.75518 2.0766 6.83777 1.87403C6.92035 1.67146 7.04162 1.48739 7.1946 1.33238C7.34758 1.17737 7.52928 1.05448 7.72927 0.970735C7.92925 0.886995 8.14359 0.844061 8.36 0.844395C8.45102 0.844465 8.54188 0.852086 8.63167 0.867181L13.5967 1.70521C14.0467 1.78116 14.4383 2.03096 14.7008 2.4082C14.9633 2.78628 15.0633 3.24454 14.9808 3.69942L14.4617 6.62871L13.5733 5.60924V4.70201C13.5733 4.5901 13.5294 4.48277 13.4513 4.40363C13.3732 4.3245 13.2672 4.28004 13.1567 4.28004H6.83833C6.72783 4.28004 6.62185 4.3245 6.54371 4.40363C6.46557 4.48277 6.42167 4.5901 6.42167 4.70201V5.6067L5.48 6.66584L5.0375 4.56698C4.95667 4.18046 5.05083 3.78212 5.29583 3.47493ZM5.67583 9.50061V7.70725L7.14833 6.05061C7.21713 5.97327 7.25514 5.87283 7.255 5.76874V5.12398H12.74V5.76874C12.74 5.8717 12.7767 5.97128 12.8442 6.04808L14.3192 7.74017V9.50061C14.3189 10.2172 14.1448 10.9228 13.8124 11.5553C13.48 12.1879 12.9993 12.7282 12.4125 13.1287L12.4108 13.1295C12.2064 13.2659 11.9909 13.3845 11.7667 13.484C11.6642 13.5304 11.5575 13.5667 11.4517 13.6047C11.1996 13.6959 10.9399 13.7639 10.6758 13.808C10.5992 13.8207 10.5208 13.8241 10.4433 13.8317C10.1463 13.862 9.84702 13.862 9.55 13.8317C9.47333 13.8232 9.395 13.8207 9.31917 13.808C9.05562 13.7639 8.79652 13.6958 8.545 13.6047C8.43833 13.5667 8.33083 13.5295 8.22667 13.4831C8.00362 13.384 7.78925 13.266 7.58583 13.1304L7.58 13.127C6.99393 12.7264 6.51387 12.1862 6.18188 11.554C5.8499 10.9218 5.67614 10.2167 5.67583 9.50061ZM8.2125 14.392C8.26167 14.4098 8.30917 14.43 8.35833 14.4461C8.88634 14.6273 9.43998 14.7202 9.9975 14.7212C10.5547 14.7203 11.1081 14.6274 11.6358 14.4461C11.6858 14.4292 11.7342 14.4098 11.7842 14.3912C11.8983 14.3482 12.0117 14.3026 12.1225 14.2519C12.1525 14.2384 12.1842 14.2283 12.2142 14.214V15.5811L10 16.6496L7.78167 15.5795V14.2148C7.81083 14.2292 7.84167 14.2384 7.87083 14.2519C7.9825 14.3026 8.09667 14.349 8.2125 14.392ZM6.92417 16.101L9.28833 17.2412L7.5125 19.0396L6.00667 17.1331L6.92417 16.101Z" fill="#A6A6A6"/>
<path d="M4.58409 26.9999C4.69459 26.9999 4.80058 26.9554 4.87872 26.8763C4.95686 26.7971 5.00075 26.6898 5.00075 26.5779V24.6014C5.00161 23.7311 4.68017 22.8922 4.09992 22.2502L3.46909 21.5506C3.43215 21.5096 3.38762 21.4765 3.33802 21.4529C3.28842 21.4294 3.23474 21.416 3.18003 21.4135C3.12532 21.411 3.07066 21.4194 3.01916 21.4383C2.96767 21.4572 2.92036 21.4862 2.87992 21.5236C2.83948 21.561 2.80672 21.6061 2.7835 21.6563C2.76027 21.7066 2.74704 21.7609 2.74457 21.8163C2.74209 21.8717 2.75041 21.9271 2.76906 21.9792C2.78771 22.0314 2.81632 22.0793 2.85325 22.1202L3.48409 22.8199C3.92415 23.3061 4.16801 23.9418 4.16742 24.6014V26.5779C4.16742 26.6898 4.21132 26.7971 4.28946 26.8763C4.3676 26.9554 4.47358 26.9999 4.58409 26.9999ZM16.5324 21.5506L15.9016 22.2511C15.3214 22.8927 14.9999 23.7314 15.0008 24.6014V26.5779C15.0008 26.6898 15.0447 26.7971 15.1228 26.8763C15.2009 26.9554 15.3069 26.9999 15.4174 26.9999C15.5279 26.9999 15.6339 26.9554 15.712 26.8763C15.7902 26.7971 15.8341 26.6898 15.8341 26.5779V24.6014C15.8341 23.9406 16.0766 23.3077 16.5166 22.8199L17.1474 22.1202C17.1844 22.0794 17.213 22.0315 17.2316 21.9794C17.2503 21.9273 17.2587 21.872 17.2562 21.8166C17.2538 21.7613 17.2406 21.7069 17.2174 21.6567C17.1943 21.6065 17.1616 21.5614 17.1212 21.524C17.0808 21.4866 17.0335 21.4576 16.9821 21.4387C16.9306 21.4198 16.876 21.4113 16.8214 21.4138C16.7667 21.4163 16.713 21.4296 16.6635 21.4531C16.6139 21.4766 16.5694 21.5097 16.5324 21.5506Z" fill="#A6A6A6"/>
</svg>
