<svg width="163" height="19" viewBox="0 0 163 19" fill="none" xmlns="http://www.w3.org/2000/svg">
<rect x="46.5" y="0.5" width="43" height="18" rx="9" fill="white"/>
<rect x="46.5" y="0.5" width="43" height="18" rx="9" stroke="#A6A6A6"/>
<path d="M58.1109 12.2609C58.0472 12.2609 57.9573 12.2565 57.8414 12.2478C57.7254 12.2391 57.6008 12.2072 57.4675 12.1522C57.4037 12.5116 57.2834 12.8522 57.1066 13.1739C56.9327 13.4986 56.7167 13.8014 56.4588 14.0826C56.2008 14.3667 55.9066 14.6275 55.5761 14.8652C55.2457 15.1029 54.8935 15.3159 54.5196 15.5043L53.724 14.4043C53.9298 14.3 54.137 14.1855 54.3457 14.0609C54.5544 13.9391 54.753 13.8087 54.9414 13.6696C55.1327 13.5333 55.3095 13.3899 55.4718 13.2391C55.637 13.0913 55.7805 12.9377 55.9022 12.7783C56.024 12.6188 56.1196 12.4551 56.1892 12.287C56.2588 12.1217 56.2935 11.9536 56.2935 11.7826C56.2935 11.7739 56.2921 11.7609 56.2892 11.7435C56.2892 11.7261 56.2892 11.7087 56.2892 11.6913C56.2892 11.6739 56.2877 11.6609 56.2848 11.6522C56.2848 11.6435 56.2848 11.6449 56.2848 11.6565V11.6609C56.2646 11.4928 56.2356 11.3319 56.1979 11.1783C56.1602 11.0246 56.1124 10.8681 56.0544 10.7087C55.9993 10.5493 55.9341 10.3826 55.8588 10.2087C55.7834 10.0319 55.6993 9.83913 55.6066 9.63043L56.8631 9.08261C56.979 9.43043 57.0877 9.72029 57.1892 9.95217C57.2906 10.1841 57.3892 10.3696 57.4848 10.5087C57.5834 10.6478 57.6819 10.7464 57.7805 10.8043C57.879 10.8594 57.9834 10.887 58.0935 10.887H58.1153C58.2109 10.887 58.3008 10.9058 58.3848 10.9435C58.4689 10.9812 58.5414 11.0319 58.6022 11.0957C58.666 11.1565 58.7153 11.229 58.7501 11.313C58.7877 11.3971 58.8066 11.4855 58.8066 11.5783C58.8066 11.6739 58.7877 11.7638 58.7501 11.8478C58.7153 11.9319 58.666 12.0043 58.6022 12.0652C58.5414 12.1261 58.4689 12.1739 58.3848 12.2087C58.3008 12.2435 58.2095 12.2609 58.1109 12.2609ZM57.3559 11.5739C57.3559 11.4783 57.3732 11.3884 57.408 11.3043C57.4428 11.2203 57.4921 11.1478 57.5559 11.087C57.6167 11.0232 57.6892 10.9739 57.7732 10.9391C57.8573 10.9043 57.9472 10.887 58.0428 10.887H58.3732C58.5819 10.887 58.7819 10.8783 58.9732 10.8609C59.1674 10.8435 59.3385 10.8072 59.4863 10.7522C59.6341 10.6942 59.753 10.6145 59.8428 10.513C59.9356 10.4087 59.9848 10.271 59.9906 10.1C59.9935 10.0362 59.9935 9.98406 59.9906 9.94348C59.9906 9.9 59.9834 9.84928 59.9689 9.7913C59.9544 9.73043 59.9327 9.65217 59.9037 9.55652C59.8776 9.45797 59.8399 9.32029 59.7906 9.14348L61.0559 8.78696C61.1109 8.92609 61.1616 9.11014 61.208 9.33913C61.2544 9.56812 61.2892 9.81884 61.3124 10.0913C61.3182 10.1783 61.3283 10.2681 61.3428 10.3609C61.3573 10.4536 61.3805 10.5391 61.4124 10.6174C61.4472 10.6957 61.4935 10.7609 61.5515 10.813C61.6095 10.8623 61.6848 10.887 61.7776 10.887C61.8732 10.887 61.9631 10.9043 62.0472 10.9391C62.1312 10.9739 62.2037 11.0232 62.2645 11.087C62.3283 11.1478 62.3776 11.2203 62.4124 11.3043C62.4501 11.3884 62.4689 11.4783 62.4689 11.5739C62.4689 11.6696 62.4501 11.7594 62.4124 11.8435C62.3776 11.9275 62.3283 12 62.2645 12.0609C62.2008 12.1246 62.1269 12.1739 62.0428 12.2087C61.9616 12.2435 61.8747 12.2609 61.7819 12.2609C61.5037 12.2609 61.2645 12.2174 61.0645 12.1304C60.8674 12.0464 60.6979 11.9362 60.5559 11.8C60.4254 11.887 60.2747 11.9594 60.1037 12.0174C59.9356 12.0754 59.7559 12.1217 59.5645 12.1565C59.3732 12.1942 59.1761 12.2203 58.9732 12.2348C58.7703 12.2522 58.5703 12.2609 58.3732 12.2609H58.0428C57.9472 12.2609 57.8573 12.2435 57.7732 12.2087C57.6892 12.1739 57.6167 12.1246 57.5559 12.0609C57.4921 12 57.4428 11.9275 57.408 11.8435C57.3732 11.7594 57.3559 11.6696 57.3559 11.5739ZM61.6732 7.38261L60.8385 8.22174L60.0124 7.39565L59.195 8.21304L58.3515 7.37391L59.1863 6.53478L60.0124 7.36087L60.8298 6.54348L61.6732 7.38261ZM61.1699 11.5739C61.1699 11.4783 61.1873 11.3899 61.2221 11.3087C61.2569 11.2275 61.3047 11.1565 61.3656 11.0957C61.4265 11.0348 61.4989 10.987 61.583 10.9522C61.6641 10.9145 61.7525 10.8928 61.8482 10.887C62.0424 10.887 62.2105 10.8493 62.3525 10.7739C62.4975 10.6986 62.625 10.6 62.7351 10.4783C62.8453 10.3565 62.9438 10.2203 63.0308 10.0696C63.1178 9.91884 63.2004 9.76812 63.2786 9.61739V9.62174C63.354 9.46522 63.4337 9.31014 63.5178 9.15652C63.6047 9.0029 63.6989 8.86087 63.8004 8.73043C63.9569 8.54783 64.1322 8.40725 64.3265 8.3087C64.5207 8.20725 64.7279 8.15652 64.9482 8.15652C65.2091 8.15652 65.4453 8.21014 65.6569 8.31739C65.8714 8.42464 66.0656 8.57826 66.2395 8.77826C66.3699 8.93478 66.4757 9.11449 66.5569 9.31739C66.638 9.51739 66.6917 9.73043 66.7178 9.95652V9.94783C66.7351 10.0609 66.7438 10.1899 66.7438 10.3348C66.7438 10.4913 66.7294 10.6449 66.7004 10.7957C66.6743 10.9435 66.6366 11.0841 66.5873 11.2174C66.4917 11.4609 66.354 11.6652 66.1743 11.8304C65.9975 11.9928 65.8047 12.1043 65.596 12.1652C65.5265 12.1855 65.4569 12.1986 65.3873 12.2043C65.3207 12.213 65.2496 12.2174 65.1743 12.2174C65.0438 12.2174 64.9047 12.2014 64.7569 12.1696C64.612 12.1377 64.4685 12.0942 64.3265 12.0391C64.2685 12.013 64.2033 11.9826 64.1308 11.9478C64.0583 11.9101 63.9815 11.8696 63.9004 11.8261C63.8221 11.7826 63.7438 11.7377 63.6656 11.6913C63.5873 11.6449 63.5149 11.6 63.4482 11.5565C63.3322 11.6638 63.2163 11.7609 63.1004 11.8478C62.9844 11.9348 62.8627 12.0087 62.7351 12.0696C62.6076 12.1304 62.4714 12.1768 62.3265 12.2087C62.1815 12.2435 62.0236 12.2609 61.8525 12.2609C61.7569 12.2609 61.6685 12.242 61.5873 12.2043C61.5033 12.1696 61.4308 12.1217 61.3699 12.0609C61.3062 12 61.2569 11.9275 61.2221 11.8435C61.1873 11.7594 61.1699 11.6696 61.1699 11.5739ZM64.2525 10.4304C64.3424 10.4884 64.4482 10.5449 64.5699 10.6C64.6946 10.6551 64.8178 10.7043 64.9395 10.7478C65.0612 10.7913 65.1728 10.8275 65.2743 10.8565C65.3786 10.8826 65.4569 10.8957 65.5091 10.8957C65.5207 10.8957 65.5322 10.8957 65.5438 10.8957C65.5583 10.8928 65.5728 10.8899 65.5873 10.887C65.6221 10.8783 65.6554 10.8348 65.6873 10.7565C65.7221 10.6754 65.7351 10.5652 65.7265 10.4261C65.7265 10.3333 65.7004 10.2319 65.6482 10.1217C65.596 10.0087 65.5279 9.90435 65.4438 9.8087C65.3598 9.71014 65.2627 9.62899 65.1525 9.56522C65.0453 9.49855 64.9351 9.46522 64.8221 9.46522C64.7815 9.46522 64.7294 9.52319 64.6656 9.63913C64.6018 9.75507 64.5091 9.92754 64.3873 10.1565V10.1522L64.2525 10.4304ZM70.4441 12.4696C70.4441 12.0493 70.4412 11.6232 70.4354 11.1913C70.4325 10.7594 70.4209 10.3319 70.4006 9.9087C70.3803 9.48261 70.3499 9.06667 70.3093 8.66087C70.2717 8.25507 70.218 7.86522 70.1485 7.4913C70.0818 7.11449 69.9977 6.76087 69.8963 6.43043C69.7948 6.0971 69.6702 5.7942 69.5224 5.52174L70.7441 4.76087C70.9093 5.01884 71.047 5.28986 71.1572 5.57391C71.2673 5.85797 71.3601 6.15217 71.4354 6.45652C71.5108 6.75797 71.5731 7.06957 71.6224 7.3913C71.6745 7.71304 71.7224 8.03913 71.7659 8.36957C71.7977 8.62754 71.8224 8.90435 71.8398 9.2C71.8601 9.49565 71.876 9.7971 71.8876 10.1043C71.8992 10.4087 71.9064 10.7116 71.9093 11.013C71.9122 11.3116 71.9137 11.5913 71.9137 11.8522V12.0565V12.4696H70.4441ZM74.2044 10.0391C74.2044 10.1377 74.2217 10.2304 74.2565 10.3174C74.2942 10.4014 74.3449 10.4768 74.4087 10.5435C74.4754 10.6072 74.5507 10.658 74.6348 10.6957C74.7217 10.7304 74.8145 10.7478 74.9131 10.7478C75.0145 10.7478 75.1087 10.7304 75.1957 10.6957C75.2826 10.658 75.358 10.6072 75.4217 10.5435C75.4884 10.4768 75.5406 10.4014 75.5783 10.3174C75.6188 10.2304 75.6391 10.1377 75.6391 10.0391C75.6391 9.93768 75.6188 9.84348 75.5783 9.75652C75.5406 9.66957 75.4884 9.5942 75.4217 9.53043C75.358 9.46377 75.2826 9.41159 75.1957 9.37391C75.1087 9.33333 75.0145 9.31304 74.9131 9.31304C74.8145 9.31304 74.7217 9.33333 74.6348 9.37391C74.5507 9.41159 74.4754 9.46377 74.4087 9.53043C74.3449 9.5942 74.2942 9.66957 74.2565 9.75652C74.2217 9.84348 74.2044 9.93768 74.2044 10.0391ZM73.1261 10.0391C73.1261 9.79275 73.1725 9.56087 73.2652 9.34348C73.3609 9.12319 73.4884 8.93188 73.6478 8.76957C73.8102 8.60725 74 8.47826 74.2174 8.38261C74.4348 8.28696 74.6667 8.23913 74.9131 8.23913C75.1594 8.23913 75.3913 8.28696 75.6087 8.38261C75.829 8.47826 76.0203 8.60725 76.1826 8.76957C76.3449 8.93188 76.4739 9.12319 76.5696 9.34348C76.6652 9.56087 76.7131 9.79275 76.7131 10.0391C76.7131 10.2855 76.6652 10.5174 76.5696 10.7348C76.4739 10.9522 76.3449 11.142 76.1826 11.3043C76.0203 11.4638 75.829 11.5913 75.6087 11.687C75.3913 11.7797 75.1594 11.8261 74.9131 11.8261C74.6667 11.8261 74.4348 11.7797 74.2174 11.687C74 11.5913 73.8102 11.4638 73.6478 11.3043C73.4884 11.142 73.3609 10.9522 73.2652 10.7348C73.1725 10.5174 73.1261 10.2855 73.1261 10.0391ZM78.5989 10.0391C78.5989 10.1377 78.6163 10.2304 78.6511 10.3174C78.6887 10.4014 78.7395 10.4768 78.8032 10.5435C78.8699 10.6072 78.9453 10.658 79.0293 10.6957C79.1163 10.7304 79.209 10.7478 79.3076 10.7478C79.409 10.7478 79.5032 10.7304 79.5902 10.6957C79.6771 10.658 79.7525 10.6072 79.8163 10.5435C79.8829 10.4768 79.9351 10.4014 79.9728 10.3174C80.0134 10.2304 80.0337 10.1377 80.0337 10.0391C80.0337 9.93768 80.0134 9.84348 79.9728 9.75652C79.9351 9.66957 79.8829 9.5942 79.8163 9.53043C79.7525 9.46377 79.6771 9.41159 79.5902 9.37391C79.5032 9.33333 79.409 9.31304 79.3076 9.31304C79.209 9.31304 79.1163 9.33333 79.0293 9.37391C78.9453 9.41159 78.8699 9.46377 78.8032 9.53043C78.7395 9.5942 78.6887 9.66957 78.6511 9.75652C78.6163 9.84348 78.5989 9.93768 78.5989 10.0391ZM77.5206 10.0391C77.5206 9.79275 77.567 9.56087 77.6598 9.34348C77.7554 9.12319 77.8829 8.93188 78.0424 8.76957C78.2047 8.60725 78.3945 8.47826 78.6119 8.38261C78.8293 8.28696 79.0612 8.23913 79.3076 8.23913C79.554 8.23913 79.7858 8.28696 80.0032 8.38261C80.2235 8.47826 80.4148 8.60725 80.5771 8.76957C80.7395 8.93188 80.8685 9.12319 80.9641 9.34348C81.0598 9.56087 81.1076 9.79275 81.1076 10.0391C81.1076 10.2855 81.0598 10.5174 80.9641 10.7348C80.8685 10.9522 80.7395 11.142 80.5771 11.3043C80.4148 11.4638 80.2235 11.5913 80.0032 11.687C79.7858 11.7797 79.554 11.8261 79.3076 11.8261C79.0612 11.8261 78.8293 11.7797 78.6119 11.687C78.3945 11.5913 78.2047 11.4638 78.0424 11.3043C77.8829 11.142 77.7554 10.9522 77.6598 10.7348C77.567 10.5174 77.5206 10.2855 77.5206 10.0391Z" fill="#636363"/>
<rect x="95.5" y="0.5" width="67" height="18" rx="9" fill="white"/>
<rect x="95.5" y="0.5" width="67" height="18" rx="9" stroke="#A6A6A6"/>
<path d="M105.445 15.2565C105.245 15.2565 105.039 15.2464 104.828 15.2261C104.619 15.2087 104.412 15.1725 104.206 15.1174C104 15.0652 103.801 14.9928 103.61 14.9C103.419 14.8072 103.241 14.687 103.075 14.5391C102.91 14.3942 102.767 14.2333 102.645 14.0565C102.526 13.8826 102.428 13.6971 102.349 13.5C102.271 13.3029 102.212 13.0971 102.171 12.8826C102.133 12.6681 102.115 12.4493 102.115 12.2261C102.115 11.7507 102.19 11.271 102.341 10.787C102.494 10.3029 102.72 9.83478 103.019 9.38261L103.997 10.087C103.939 10.1652 103.871 10.2826 103.793 10.4391C103.715 10.5957 103.639 10.7739 103.567 10.9739C103.494 11.1739 103.433 11.387 103.384 11.613C103.335 11.8362 103.31 12.0522 103.31 12.2609C103.31 12.5014 103.364 12.7188 103.471 12.913C103.581 13.1072 103.726 13.2739 103.906 13.413C104.088 13.5522 104.297 13.6609 104.532 13.7391C104.77 13.8174 105.016 13.8594 105.271 13.8652C105.477 13.8681 105.677 13.8507 105.871 13.813C106.065 13.7754 106.249 13.7203 106.423 13.6478C106.597 13.5754 106.755 13.487 106.897 13.3826C107.042 13.2783 107.165 13.1609 107.267 13.0304C107.371 12.9029 107.449 12.7638 107.501 12.613C107.557 12.4623 107.58 12.3043 107.571 12.1391C107.565 12.0145 107.542 11.8739 107.501 11.7174C107.461 11.5609 107.412 11.4014 107.354 11.2391C107.299 11.0739 107.236 10.9116 107.167 10.7522C107.1 10.5928 107.036 10.4464 106.975 10.313C106.917 10.1768 106.867 10.0609 106.823 9.96522C106.78 9.86957 106.752 9.80435 106.741 9.76957L107.923 9.11304C107.932 9.12464 107.957 9.17681 107.997 9.26957C108.041 9.36232 108.091 9.48261 108.149 9.63043C108.21 9.77536 108.274 9.94203 108.341 10.1304C108.407 10.3188 108.47 10.5159 108.528 10.7217C108.588 10.9275 108.641 11.1362 108.684 11.3478C108.728 11.5594 108.755 11.7609 108.767 11.9522C108.77 11.9754 108.771 12.0029 108.771 12.0348C108.771 12.0696 108.771 12.0986 108.771 12.1217C108.771 12.3797 108.742 12.6362 108.684 12.8913C108.626 13.1464 108.536 13.3899 108.415 13.6217C108.296 13.8565 108.145 14.0725 107.962 14.2696C107.783 14.4696 107.57 14.642 107.323 14.787C107.077 14.9348 106.797 15.0493 106.484 15.1304C106.171 15.2145 105.825 15.2565 105.445 15.2565ZM105.445 8.07826L106.41 9.04348L105.445 10.0087L104.48 9.04348L105.445 8.07826ZM109.479 12.2739C109.494 12.0362 109.508 11.7899 109.523 11.5348C109.537 11.2797 109.549 11.0275 109.558 10.7783C109.569 10.529 109.577 10.287 109.579 10.0522C109.582 9.81739 109.579 9.60145 109.571 9.40435C109.553 8.99275 109.536 8.63188 109.519 8.32174C109.504 8.0087 109.488 7.73188 109.471 7.4913C109.456 7.25072 109.44 7.04058 109.423 6.86087C109.408 6.67826 109.393 6.51159 109.375 6.36087C109.358 6.21014 109.339 6.06957 109.319 5.93913C109.298 5.8058 109.277 5.66812 109.253 5.52609L110.597 5.08261C110.661 5.47101 110.711 5.86232 110.749 6.25652C110.79 6.65072 110.82 7.02899 110.84 7.3913C110.861 7.75072 110.874 8.08551 110.879 8.39565C110.888 8.7058 110.893 8.97101 110.893 9.1913C110.893 9.3913 110.891 9.60725 110.888 9.83913C110.888 10.071 110.885 10.3116 110.879 10.5609C110.877 10.8101 110.871 11.0623 110.862 11.3174C110.853 11.5725 110.84 11.8217 110.823 12.0652L109.479 12.2739ZM114.848 12.2609C114.784 12.2609 114.695 12.2565 114.579 12.2478C114.463 12.2391 114.338 12.2072 114.205 12.1522C114.141 12.5116 114.021 12.8522 113.844 13.1739C113.67 13.4986 113.454 13.8014 113.196 14.0826C112.938 14.3667 112.644 14.6275 112.313 14.8652C111.983 15.1029 111.631 15.3159 111.257 15.5043L110.461 14.4043C110.667 14.3 110.874 14.1855 111.083 14.0609C111.292 13.9391 111.49 13.8087 111.679 13.6696C111.87 13.5333 112.047 13.3899 112.209 13.2391C112.374 13.0913 112.518 12.9377 112.64 12.7783C112.761 12.6188 112.857 12.4551 112.926 12.287C112.996 12.1217 113.031 11.9536 113.031 11.7826C113.031 11.7739 113.029 11.7609 113.026 11.7435C113.026 11.7261 113.026 11.7087 113.026 11.6913C113.026 11.6739 113.025 11.6609 113.022 11.6522C113.022 11.6435 113.022 11.6449 113.022 11.6565V11.6609C113.002 11.4928 112.973 11.3319 112.935 11.1783C112.898 11.0246 112.85 10.8681 112.792 10.7087C112.737 10.5493 112.671 10.3826 112.596 10.2087C112.521 10.0319 112.437 9.83913 112.344 9.63043L113.6 9.08261C113.716 9.43043 113.825 9.72029 113.926 9.95217C114.028 10.1841 114.126 10.3696 114.222 10.5087C114.321 10.6478 114.419 10.7464 114.518 10.8043C114.616 10.8594 114.721 10.887 114.831 10.887H114.853C114.948 10.887 115.038 10.9058 115.122 10.9435C115.206 10.9812 115.279 11.0319 115.34 11.0957C115.403 11.1565 115.453 11.229 115.487 11.313C115.525 11.3971 115.544 11.4855 115.544 11.5783C115.544 11.6739 115.525 11.7638 115.487 11.8478C115.453 11.9319 115.403 12.0043 115.34 12.0652C115.279 12.1261 115.206 12.1739 115.122 12.2087C115.038 12.2435 114.947 12.2609 114.848 12.2609ZM118.402 11.0174C118.495 10.9942 118.55 10.8739 118.567 10.6565C118.584 10.4304 118.542 10.2275 118.441 10.0478C118.351 9.88261 118.215 9.73913 118.032 9.61739C117.85 9.49565 117.712 9.45362 117.619 9.4913C117.495 9.54348 117.306 9.86522 117.054 10.4565C117.782 10.8739 118.231 11.0609 118.402 11.0174ZM120.598 11.5739C120.598 11.7623 120.531 11.9232 120.398 12.0565C120.261 12.1899 120.099 12.258 119.911 12.2609H119.906C119.541 12.2609 119.245 12.1362 119.019 11.887C118.782 12.1246 118.479 12.2435 118.111 12.2435C117.684 12.2435 117.066 12.029 116.254 11.6C116.202 11.7101 116.102 11.8217 115.954 11.9348C115.824 12.0333 115.674 12.1101 115.506 12.1652C115.295 12.2348 115.057 12.2696 114.793 12.2696C114.602 12.2696 114.44 12.2029 114.306 12.0696C114.173 11.9362 114.106 11.7739 114.106 11.5826C114.106 11.3942 114.173 11.2333 114.306 11.1C114.44 10.9667 114.602 10.9 114.793 10.9C115.155 10.9 115.471 10.7203 115.741 10.3609C115.837 10.2304 115.938 10.0609 116.045 9.85217C116.077 9.78841 116.121 9.70145 116.176 9.5913L116.237 9.46087L116.298 9.33913C116.689 8.56232 117.177 8.17391 117.763 8.17391C118.189 8.17391 118.566 8.31594 118.893 8.6C119.264 8.92174 119.474 9.36377 119.524 9.92609L119.528 9.96522C119.534 9.98261 119.537 10.0029 119.537 10.0261C119.542 10.1681 119.563 10.3116 119.598 10.4565C119.629 10.5812 119.667 10.6797 119.711 10.7522C119.769 10.842 119.835 10.887 119.911 10.887C120.099 10.887 120.26 10.9536 120.393 11.087C120.529 11.2203 120.598 11.3826 120.598 11.5739ZM119.247 11.5739C119.247 11.4783 119.266 11.3884 119.304 11.3043C119.339 11.2203 119.388 11.1478 119.452 11.087C119.512 11.0232 119.586 10.9739 119.673 10.9391C119.757 10.9043 119.847 10.887 119.943 10.887H120.778C121.247 10.887 121.678 10.8594 122.069 10.8043C122.463 10.7464 122.831 10.6696 123.173 10.5739C123.515 10.4783 123.839 10.3681 124.143 10.2435C124.45 10.1159 124.752 9.98406 125.047 9.84783C124.85 9.79275 124.652 9.72464 124.452 9.64348C124.255 9.56232 124.056 9.48406 123.856 9.4087C123.659 9.33333 123.462 9.26957 123.265 9.21739C123.068 9.16232 122.872 9.13478 122.678 9.13478C122.544 9.13478 122.414 9.17101 122.286 9.24348C122.159 9.31594 122.043 9.39855 121.939 9.4913C121.834 9.58406 121.746 9.67536 121.673 9.76522C121.604 9.85217 121.56 9.91159 121.543 9.94348L120.539 9.29565C120.649 9.10145 120.779 8.91159 120.93 8.72609C121.081 8.54058 121.246 8.37681 121.426 8.23478C121.608 8.08985 121.804 7.97391 122.012 7.88696C122.224 7.8 122.446 7.75652 122.678 7.75652C122.849 7.75652 123.02 7.77536 123.191 7.81304C123.362 7.84783 123.531 7.8942 123.699 7.95217C123.87 8.01014 124.039 8.07681 124.204 8.15217C124.369 8.22464 124.533 8.29855 124.695 8.37391C124.852 8.44638 125.007 8.51884 125.16 8.5913C125.317 8.66087 125.478 8.72609 125.643 8.78696C125.808 8.84493 125.979 8.89275 126.156 8.93043C126.333 8.96812 126.52 8.98841 126.717 8.9913L126.608 10.3261L125.991 10.6217C125.739 10.7435 125.488 10.8696 125.239 11C124.989 11.1275 124.734 11.2522 124.473 11.3739C124.215 11.4928 123.949 11.6072 123.673 11.7174C123.401 11.8246 123.114 11.9188 122.812 12C122.511 12.0783 122.192 12.1406 121.856 12.187C121.52 12.2362 121.16 12.2609 120.778 12.2609H119.978H119.943C119.847 12.2609 119.757 12.242 119.673 12.2043C119.586 12.1696 119.512 12.1217 119.452 12.0609C119.388 12 119.339 11.9275 119.304 11.8435C119.266 11.7594 119.247 11.6696 119.247 11.5739ZM124.03 14.4478L123.212 13.6304L122.386 14.4565L121.552 13.6174L122.395 12.7783L123.212 13.5957L124.039 12.7696L124.873 13.6087L124.03 14.4478ZM123.217 14.0913L123.991 14.8652L123.212 15.6435L122.439 14.8696L123.217 14.0913ZM132.661 9.85652H129.695V8.63043H132.661V9.85652ZM145.633 12.2609C145.155 12.2609 144.749 12.1826 144.416 12.0261C144.085 11.8696 143.816 11.6087 143.607 11.2435C143.195 11.5942 142.697 11.8536 142.111 12.0217C141.529 12.1899 140.847 12.2739 140.068 12.2739C139.607 12.271 139.169 12.2406 138.755 12.1826C138.343 12.1275 137.968 12.0435 137.629 11.9304C137.289 11.8145 136.992 11.671 136.737 11.5C136.482 11.3261 136.282 11.1217 136.137 10.887C136.047 10.7333 135.982 10.5565 135.942 10.3565C135.901 10.1536 135.888 9.93478 135.902 9.7C135.917 9.46232 135.962 9.21159 136.037 8.94783C136.116 8.68116 136.227 8.4058 136.372 8.12174L137.407 8.72174C137.349 8.83478 137.295 8.94493 137.246 9.05217C137.197 9.15942 137.159 9.27101 137.133 9.38696C137.107 9.5029 137.094 9.62754 137.094 9.76087C137.097 9.8913 137.12 10.0362 137.163 10.1957C137.236 10.3203 137.365 10.4261 137.55 10.513C137.739 10.6 137.965 10.671 138.229 10.7261C138.492 10.7812 138.782 10.8217 139.098 10.8478C139.414 10.8739 139.737 10.887 140.068 10.887C140.372 10.887 140.66 10.8768 140.933 10.8565C141.205 10.8333 141.456 10.7986 141.685 10.7522C141.917 10.7029 142.126 10.6406 142.311 10.5652C142.5 10.487 142.66 10.3928 142.794 10.2826C142.916 10.1841 143.016 10.0754 143.094 9.95652C143.172 9.83768 143.239 9.71304 143.294 9.58261C143.349 9.44928 143.394 9.31014 143.429 9.16522C143.466 9.02029 143.502 8.87391 143.537 8.72609L144.755 9.03478L144.576 9.95652C144.55 10.0899 144.556 10.213 144.594 10.3261C144.634 10.4391 144.702 10.5377 144.798 10.6217C144.894 10.7029 145.016 10.7681 145.163 10.8174C145.311 10.8638 145.479 10.887 145.668 10.887C145.763 10.887 145.853 10.9043 145.937 10.9391C146.021 10.9739 146.094 11.0232 146.155 11.087C146.218 11.1478 146.268 11.2203 146.302 11.3043C146.34 11.3884 146.359 11.4783 146.359 11.5739C146.359 11.6696 146.34 11.7594 146.302 11.8435C146.268 11.9275 146.218 12 146.155 12.0609C146.094 12.1246 146.021 12.1739 145.937 12.2087C145.853 12.2435 145.763 12.2609 145.668 12.2609H145.633ZM142.072 7.72174L141.237 8.56087L140.411 7.73478L139.594 8.55217L138.75 7.71304L139.585 6.87391L140.411 7.7L141.229 6.88261L142.072 7.72174ZM145.029 11.5783C145.029 11.4884 145.046 11.4029 145.081 11.3217C145.116 11.2406 145.162 11.1696 145.22 11.1087C145.278 11.0449 145.347 10.9942 145.429 10.9565C145.507 10.9159 145.591 10.8928 145.681 10.887C145.898 10.887 146.081 10.829 146.229 10.713C146.379 10.5942 146.508 10.4391 146.616 10.2478C146.723 10.0565 146.814 9.83913 146.889 9.59565C146.965 9.34928 147.036 9.09855 147.102 8.84348L148.259 9.05217C148.236 9.15362 148.207 9.27246 148.172 9.4087C148.14 9.54203 148.11 9.68116 148.081 9.82609C148.055 9.97101 148.033 10.113 148.016 10.2522C147.998 10.3884 147.994 10.5087 148.002 10.613C148.014 10.7174 148.042 10.8 148.085 10.8609C148.129 10.9188 148.195 10.9406 148.285 10.9261C148.401 10.9174 148.505 10.8768 148.598 10.8043C148.694 10.7319 148.779 10.6391 148.855 10.5261C148.93 10.413 148.997 10.2855 149.055 10.1435C149.113 10.0014 149.162 9.85507 149.202 9.70435C149.246 9.55362 149.281 9.40435 149.307 9.25652C149.336 9.1087 149.359 8.97391 149.376 8.85217L150.481 9.03913C150.478 9.12609 150.468 9.23333 150.45 9.36087C150.433 9.48841 150.417 9.62319 150.402 9.76522C150.388 9.90435 150.381 10.0449 150.381 10.187C150.381 10.3261 150.397 10.4522 150.429 10.5652C150.46 10.6754 150.513 10.7652 150.585 10.8348C150.66 10.9043 150.765 10.9391 150.898 10.9391C150.979 10.9391 151.062 10.9261 151.146 10.9C151.23 10.871 151.305 10.8319 151.372 10.7826C151.439 10.7304 151.492 10.6696 151.533 10.6C151.576 10.5304 151.598 10.4522 151.598 10.3652C151.598 10.2145 151.574 10.0493 151.524 9.86957C151.475 9.68696 151.416 9.50725 151.346 9.33043C151.276 9.15072 151.202 8.98116 151.124 8.82174C151.049 8.66232 150.985 8.52754 150.933 8.41739L152.011 7.81304C152.029 7.85072 152.059 7.91739 152.102 8.01304C152.146 8.1058 152.195 8.21884 152.25 8.35217C152.305 8.48551 152.362 8.63623 152.42 8.80435C152.481 8.96957 152.536 9.14203 152.585 9.32174C152.634 9.50145 152.675 9.68551 152.707 9.87391C152.739 10.0623 152.755 10.2449 152.755 10.4217C152.755 10.7116 152.714 10.9725 152.633 11.2043C152.555 11.4362 152.434 11.6333 152.272 11.7957C152.113 11.958 151.911 12.0841 151.668 12.1739C151.427 12.2638 151.145 12.3101 150.82 12.313C150.663 12.313 150.521 12.2971 150.394 12.2652C150.266 12.2362 150.152 12.1942 150.05 12.1391C149.949 12.087 149.858 12.0246 149.776 11.9522C149.698 11.8797 149.629 11.8029 149.568 11.7217C149.498 11.8116 149.423 11.8928 149.342 11.9652C149.263 12.0348 149.172 12.0942 149.068 12.1435C148.966 12.1957 148.852 12.2362 148.724 12.2652C148.597 12.2942 148.452 12.3101 148.289 12.313C148.147 12.3159 148.018 12.3029 147.902 12.2739C147.789 12.2478 147.685 12.2087 147.589 12.1565C147.494 12.1043 147.407 12.042 147.329 11.9696C147.253 11.8942 147.182 11.8116 147.116 11.7217C147.055 11.7971 146.985 11.8681 146.907 11.9348C146.829 11.9986 146.736 12.0551 146.629 12.1043C146.521 12.1536 146.397 12.1928 146.255 12.2217C146.113 12.2507 145.947 12.2652 145.759 12.2652H145.681C145.591 12.2594 145.507 12.2377 145.429 12.2C145.347 12.1623 145.278 12.113 145.22 12.0522C145.162 11.9913 145.116 11.9203 145.081 11.8391C145.046 11.758 145.029 11.671 145.029 11.5783ZM151.42 6.96957L150.585 7.8087L149.759 6.98261L148.942 7.8L148.098 6.96087L148.933 6.12174L149.759 6.94783L150.576 6.13043L151.42 6.96957ZM148.985 5.7087L149.759 4.93478L150.537 5.71304L149.763 6.48696L148.985 5.7087ZM155.431 9.07391C155.541 9.38696 155.637 9.69275 155.718 9.9913C155.753 10.1217 155.788 10.258 155.822 10.4C155.857 10.5391 155.888 10.6797 155.914 10.8217C155.943 10.9609 155.966 11.0986 155.983 11.2348C156.001 11.3681 156.009 11.4928 156.009 11.6087C156.009 11.8812 155.972 12.1464 155.896 12.4043C155.824 12.6652 155.72 12.9174 155.583 13.1609C155.45 13.4043 155.291 13.6377 155.105 13.8609C154.92 14.087 154.714 14.2986 154.488 14.4957C154.262 14.6928 154.02 14.8754 153.762 15.0435C153.504 15.2145 153.237 15.3681 152.962 15.5043L152.17 14.4043C152.379 14.3 152.591 14.1812 152.805 14.0478C153.017 13.9174 153.22 13.7768 153.414 13.6261C153.611 13.4754 153.793 13.3174 153.962 13.1522C154.133 12.987 154.28 12.8188 154.405 12.6478C154.533 12.4768 154.633 12.3029 154.705 12.1261C154.778 11.9522 154.814 11.7812 154.814 11.613C154.814 11.4913 154.796 11.3594 154.762 11.2174C154.73 11.0754 154.685 10.9232 154.627 10.7609C154.572 10.5957 154.505 10.4217 154.427 10.2391C154.349 10.0536 154.264 9.85652 154.175 9.64783L155.431 9.07391Z" fill="#636363"/>
<rect x="0.5" y="0.5" width="40" height="18" rx="9" fill="white"/>
<rect x="0.5" y="0.5" width="40" height="18" rx="9" stroke="#A6A6A6"/>
<path d="M12.2192 13.6565C12.4713 13.6565 12.7061 13.6217 12.9235 13.5522C13.1438 13.4826 13.3424 13.3855 13.5192 13.2609C13.6989 13.1391 13.8554 12.9928 13.9887 12.8217C14.1221 12.6507 14.2279 12.4638 14.3061 12.2609L13.48 12.2565C13.138 12.2275 12.8293 12.1522 12.554 12.0304C12.2786 11.9116 12.0583 11.7464 11.8931 11.5348L11.8974 11.5391C11.7757 11.3913 11.68 11.229 11.6105 11.0522C11.5409 10.8754 11.5061 10.6826 11.5061 10.4739C11.5061 10.3174 11.5235 10.1594 11.5583 10C11.5931 9.84058 11.6395 9.68551 11.6974 9.53478C11.7583 9.38116 11.8264 9.23623 11.9018 9.1C11.9771 8.96377 12.0554 8.84203 12.1366 8.73478C12.3047 8.51739 12.4931 8.35217 12.7018 8.23913C12.9105 8.12609 13.1293 8.06957 13.3583 8.06957C13.8453 8.06957 14.2873 8.28551 14.6844 8.71739C14.8235 8.87391 14.9467 9.04928 15.054 9.24348C15.1641 9.43768 15.2569 9.64493 15.3322 9.86522C15.4076 10.0855 15.4656 10.3159 15.5061 10.5565C15.5467 10.7942 15.567 11.0348 15.567 11.2783C15.567 11.3449 15.5656 11.4116 15.5627 11.4783C15.5627 11.542 15.5612 11.6072 15.5583 11.6739C15.5583 11.7029 15.5525 11.771 15.5409 11.8783C15.5293 11.9826 15.5061 12.1101 15.4713 12.2609C15.4395 12.4145 15.3945 12.5826 15.3366 12.7652C15.2786 12.9507 15.2018 13.1348 15.1061 13.3174C14.9844 13.5522 14.8322 13.7725 14.6496 13.9783C14.4699 14.1841 14.28 14.3565 14.08 14.4957C13.825 14.6696 13.538 14.8029 13.2192 14.8957C12.9032 14.9913 12.5641 15.0391 12.2018 15.0391C11.9032 15.0391 11.609 15.0072 11.3192 14.9435C11.0322 14.8797 10.7757 14.7928 10.5496 14.6826C10.3032 14.558 10.0815 14.4058 9.88439 14.2261C9.68729 14.0493 9.52352 13.8464 9.39309 13.6174V13.6217C9.25106 13.3928 9.14381 13.1435 9.07135 12.8739C8.99888 12.6072 8.96265 12.3203 8.96265 12.013C8.96265 11.7957 8.9728 11.5884 8.99309 11.3913C9.01628 11.1913 9.05106 10.9942 9.09744 10.8C9.14671 10.6029 9.21048 10.4043 9.28874 10.2043C9.367 10.0014 9.46265 9.78841 9.5757 9.56522L10.6713 10.0261C10.5583 10.2348 10.4656 10.4304 10.3931 10.613C10.3235 10.7928 10.2684 10.9638 10.2279 11.1261C10.1902 11.2855 10.1641 11.4391 10.1496 11.587C10.1351 11.7319 10.1279 11.8725 10.1279 12.0087C10.1279 12.2667 10.1858 12.4986 10.3018 12.7043C10.4177 12.9101 10.5713 13.0841 10.7627 13.2261C10.9569 13.3681 11.18 13.4754 11.4322 13.5478C11.6844 13.6232 11.9467 13.6594 12.2192 13.6565ZM13.3583 9.45652C13.2742 9.44783 13.1887 9.47391 13.1018 9.53478C13.0177 9.59275 12.9409 9.67101 12.8713 9.76957C12.8018 9.86522 12.7467 9.97391 12.7061 10.0957C12.6656 10.2174 12.6496 10.3362 12.6583 10.4522V10.4478C12.6641 10.5261 12.7061 10.5928 12.7844 10.6478C12.8627 10.7 12.9525 10.7435 13.054 10.7783C13.1554 10.8101 13.2554 10.8348 13.354 10.8522C13.4525 10.8667 13.5235 10.8754 13.567 10.8783C13.6163 10.8841 13.6742 10.8884 13.7409 10.8913C13.8076 10.8913 13.8713 10.8913 13.9322 10.8913C14.0337 10.8913 14.1206 10.8913 14.1931 10.8913C14.2656 10.8884 14.3351 10.8855 14.4018 10.8826C14.396 10.8014 14.38 10.7116 14.354 10.613C14.3279 10.5145 14.2931 10.4145 14.2496 10.313C14.2061 10.2116 14.154 10.1116 14.0931 10.013C14.0351 9.91449 13.9685 9.82609 13.8931 9.74783C13.8177 9.66957 13.7351 9.60435 13.6453 9.55217C13.5554 9.5 13.4598 9.46812 13.3583 9.45652ZM14.8844 6.93478L14.0496 7.77391L13.2235 6.94783L12.4061 7.76522L11.5627 6.92609L12.3974 6.08696L13.2235 6.91304L14.0409 6.09565L14.8844 6.93478ZM18.4952 12.2609C18.1387 12.2609 17.8329 12.2159 17.5778 12.1261C17.3227 12.0391 17.1024 11.9043 16.9169 11.7217C16.801 11.6058 16.7111 11.4841 16.6474 11.3565C16.5865 11.229 16.5416 11.1043 16.5126 10.9826C16.4865 10.858 16.4705 10.7406 16.4647 10.6304C16.4618 10.5203 16.4604 10.4261 16.4604 10.3478V10.2826C16.4633 10.1754 16.4662 10.0217 16.4691 9.82174C16.4749 9.61884 16.4778 9.38116 16.4778 9.1087C16.4778 8.83623 16.4763 8.53623 16.4734 8.2087C16.4705 7.88116 16.4618 7.55507 16.4474 7.23043C16.4358 6.9029 16.4169 6.58841 16.3908 6.28696C16.3676 5.98551 16.3343 5.72319 16.2908 5.5L17.5908 5.10435C17.6285 5.29565 17.6589 5.52174 17.6821 5.78261C17.7053 6.04058 17.7242 6.31159 17.7387 6.59565C17.756 6.87971 17.7676 7.16522 17.7734 7.45217C17.7821 7.73913 17.7879 8.0058 17.7908 8.25217C17.7937 8.46957 17.785 8.68261 17.7647 8.8913C17.7474 9.0971 17.7329 9.3 17.7213 9.5C17.7097 9.6971 17.7097 9.88986 17.7213 10.0783C17.7358 10.2638 17.7763 10.4449 17.843 10.6217C17.8691 10.6884 17.901 10.7391 17.9387 10.7739C17.9792 10.8087 18.0256 10.8348 18.0778 10.8522C18.13 10.8667 18.1865 10.8754 18.2474 10.8783C18.3111 10.8812 18.3807 10.8826 18.456 10.8826H18.4952C18.5879 10.8826 18.6763 10.9014 18.7604 10.9391C18.8445 10.9768 18.9169 11.0275 18.9778 11.0913C19.0416 11.1522 19.0923 11.2246 19.13 11.3087C19.1676 11.3928 19.1865 11.4812 19.1865 11.5739C19.1865 11.6696 19.1676 11.7594 19.13 11.8435C19.0923 11.9275 19.0416 12 18.9778 12.0609C18.9169 12.1246 18.8445 12.1739 18.7604 12.2087C18.6763 12.2435 18.5879 12.2609 18.4952 12.2609ZM21.997 6.58696L21.1622 7.42609L20.3361 6.6L19.5187 7.41739L18.6752 6.57826L19.51 5.73913L20.3361 6.56522L21.1535 5.74783L21.997 6.58696ZM17.6448 11.5739C17.6448 11.4783 17.6636 11.3884 17.7013 11.3043C17.7361 11.2203 17.7839 11.1478 17.8448 11.087C17.9057 11.0232 17.9781 10.9739 18.0622 10.9391C18.1463 10.9043 18.2361 10.887 18.3318 10.887H18.8144H19.0231C19.1535 10.887 19.297 10.8812 19.4535 10.8696C19.61 10.858 19.7607 10.8391 19.9057 10.813C20.0506 10.787 20.181 10.7522 20.297 10.7087C20.4158 10.6623 20.5028 10.6043 20.5578 10.5348C20.5897 10.4855 20.6057 10.4188 20.6057 10.3348C20.6057 10.2101 20.5752 10.0623 20.5144 9.8913C20.4564 9.72029 20.3868 9.54638 20.3057 9.36957C20.2245 9.19275 20.1405 9.02319 20.0535 8.86087C19.9694 8.69855 19.9013 8.56377 19.8492 8.45652L21.0883 7.84783C21.1781 8.00435 21.2651 8.18986 21.3492 8.40435C21.4332 8.61594 21.5086 8.83478 21.5752 9.06087C21.6419 9.28406 21.6955 9.50435 21.7361 9.72174C21.7767 9.93623 21.797 10.1232 21.797 10.2826C21.797 10.5754 21.7448 10.8435 21.6405 11.087C21.5187 11.3594 21.352 11.5855 21.1405 11.7652C20.9289 11.942 20.6752 12.0725 20.3796 12.1565C20.2926 12.1797 20.1839 12.1986 20.0535 12.213C19.9231 12.2275 19.7912 12.2377 19.6578 12.2435C19.5245 12.2522 19.3984 12.2565 19.2796 12.2565C19.1607 12.2594 19.068 12.2609 19.0013 12.2609H18.3709H18.3318C18.2361 12.2609 18.1463 12.2435 18.0622 12.2087C17.9781 12.1739 17.9057 12.1246 17.8448 12.0609C17.7839 12 17.7361 11.9275 17.7013 11.8435C17.6636 11.7594 17.6448 11.6696 17.6448 11.5739ZM22.5713 12.2739C22.5858 12.0362 22.6002 11.7899 22.6147 11.5348C22.6292 11.2797 22.6408 11.0275 22.6495 10.7783C22.6611 10.529 22.6684 10.287 22.6713 10.0522C22.6742 9.81739 22.6713 9.60145 22.6626 9.40435C22.6452 8.99275 22.6278 8.63188 22.6104 8.32174C22.5959 8.0087 22.58 7.73188 22.5626 7.4913C22.5481 7.25072 22.5321 7.04058 22.5147 6.86087C22.5002 6.67826 22.4843 6.51159 22.4669 6.36087C22.4495 6.21014 22.4307 6.06957 22.4104 5.93913C22.3901 5.8058 22.3684 5.66812 22.3452 5.52609L23.6887 5.08261C23.7524 5.47101 23.8031 5.86232 23.8408 6.25652C23.8814 6.65072 23.9118 7.02899 23.9321 7.3913C23.9524 7.75072 23.9655 8.08551 23.9713 8.39565C23.98 8.7058 23.9843 8.97101 23.9843 9.1913C23.9843 9.3913 23.9829 9.60725 23.98 9.83913C23.98 10.071 23.9771 10.3116 23.9713 10.5609C23.9684 10.8101 23.9626 11.0623 23.9539 11.3174C23.9452 11.5725 23.9321 11.8217 23.9147 12.0652L22.5713 12.2739ZM31.6717 4.86522C31.7065 5.0942 31.7341 5.30435 31.7543 5.49565C31.7746 5.68696 31.7848 5.86377 31.7848 6.02609C31.7848 6.34203 31.7428 6.64928 31.6587 6.94783C31.5746 7.24348 31.4181 7.53623 31.1891 7.82609C30.9978 8.05217 30.7732 8.22174 30.5152 8.33478C30.2601 8.44783 29.9761 8.50435 29.663 8.50435C29.5819 8.50435 29.5022 8.5029 29.4239 8.5C29.3457 8.4942 29.2703 8.48406 29.1978 8.46957C29.2355 8.8 29.2645 9.14203 29.2848 9.49565C29.3051 9.84928 29.3196 10.2043 29.3283 10.5609C29.3399 10.9145 29.3457 11.2623 29.3457 11.6043C29.3486 11.9464 29.35 12.2667 29.35 12.5652H27.8804C27.8804 12.029 27.8746 11.4899 27.863 10.9478C27.8514 10.4058 27.8254 9.88116 27.7848 9.37391C27.7471 8.86667 27.6891 8.38696 27.6109 7.93478C27.5355 7.48261 27.4341 7.07826 27.3065 6.72174V6.72609L27.2022 6.47391L27.1717 6.39565H27.1761L27.1587 6.35217V6.35652C27.1268 6.27826 27.0877 6.18985 27.0413 6.0913C26.9978 5.98985 26.9268 5.85362 26.8283 5.68261L28.063 4.9C28.1297 5.00435 28.1862 5.09855 28.2326 5.18261C28.279 5.26667 28.3196 5.34493 28.3543 5.41739C28.3891 5.48985 28.4196 5.55797 28.4457 5.62174C28.4746 5.68261 28.5022 5.74348 28.5283 5.80435L28.6543 6.11739C28.7123 6.25072 28.7732 6.37536 28.837 6.4913C28.9007 6.60725 28.9717 6.70725 29.05 6.7913C29.1283 6.87246 29.2167 6.93623 29.3152 6.98261C29.4167 7.02899 29.5326 7.05072 29.663 7.04783C29.8312 7.04203 29.9587 7.0029 30.0457 6.93043C30.1326 6.85797 30.1964 6.76667 30.237 6.65652C30.2775 6.54638 30.2993 6.42319 30.3022 6.28696C30.308 6.15072 30.3109 6.01884 30.3109 5.8913C30.3109 5.77246 30.3036 5.65507 30.2891 5.53913C30.2746 5.42029 30.2543 5.28116 30.2283 5.12174L31.6717 4.86522Z" fill="#636363"/>
</svg>
