<svg width="29" height="31" viewBox="0 0 29 31" fill="none" xmlns="http://www.w3.org/2000/svg">
<g filter="url(#filter0_d_4803_10721)">
<path d="M25.8374 11.1111V10.4521C25.8366 9.8841 25.6557 9.33203 25.3223 8.8806C24.989 8.42917 24.5218 8.10333 23.9922 7.95305V6.65229C24.2378 6.46197 24.4371 6.21509 24.5744 5.93123C24.7117 5.64737 24.7832 5.33434 24.7832 5.01693V2.6168C24.7826 2.07447 24.5741 1.55453 24.2033 1.17104C23.8326 0.787555 23.33 0.571847 22.8057 0.57124H20.0107C19.9058 0.57124 19.8052 0.614343 19.7311 0.691066C19.6569 0.76779 19.6152 0.871849 19.6152 0.980353V5.01693C19.6153 5.33434 19.6867 5.64737 19.824 5.93123C19.9613 6.21509 20.1607 6.46197 20.4062 6.65229V8.17397C20.2803 8.25591 20.1637 8.35217 20.0585 8.46095L17.5294 11.0795H14.8518C14.6799 11.0795 14.5086 11.1014 14.3418 11.1448V10.998C14.3429 10.5634 14.2097 10.1397 13.9616 9.78899C13.7135 9.43822 13.3634 9.17869 12.9626 9.04827L11.058 8.42288C10.9779 8.39679 10.9079 8.34488 10.8583 8.27474C10.8087 8.20459 10.782 8.11988 10.7822 8.03296V7.18539C11.0321 6.93455 11.2306 6.63437 11.3662 6.30265C11.5018 5.97092 11.5716 5.61442 11.5714 5.25427V1.18316C11.5712 1.00203 11.5016 0.828387 11.3778 0.700314C11.2539 0.572241 11.0861 0.500202 10.911 0.5H8.07469C7.61858 0.500534 7.1813 0.688191 6.85878 1.0218C6.53627 1.35541 6.35485 1.80773 6.35433 2.27953V5.25422C6.3542 5.61436 6.42399 5.97087 6.55956 6.30259C6.69513 6.63431 6.89372 6.9345 7.14355 7.18534V8.03291C7.14377 8.11983 7.11712 8.20455 7.06749 8.2747C7.01787 8.34484 6.94786 8.39674 6.8677 8.42282L4.9632 9.04827C4.56238 9.17868 4.21236 9.4382 3.96424 9.78895C3.71611 10.1397 3.58288 10.5633 3.58398 10.9979V12.8326H1.39551C1.29061 12.8326 1.19001 12.8757 1.11584 12.9524C1.04167 13.0292 1 13.1332 1 13.2417V14.1597C1.0003 14.4134 1.07649 14.6608 1.21812 14.8679C1.35974 15.0751 1.55986 15.2318 1.79102 15.3166V27.5833C1.79125 27.8074 1.87745 28.0223 2.03068 28.1808C2.18392 28.3394 2.39169 28.4285 2.6084 28.4288H3.76855C3.85156 28.4288 3.93246 28.4017 3.9998 28.3515C4.06714 28.3013 4.11751 28.2305 4.14376 28.149L4.75448 26.2538C4.78066 26.1723 4.83102 26.1014 4.89838 26.0512C4.96575 26.001 5.0467 25.974 5.12973 25.9741H15.0637C15.1467 25.974 15.2276 26.001 15.295 26.0512C15.3624 26.1014 15.4127 26.1723 15.4389 26.2538L16.0495 28.149C16.0758 28.2305 16.1262 28.3014 16.1935 28.3516C16.2609 28.4018 16.3418 28.4288 16.4248 28.4288H17.585C17.8017 28.4285 18.0094 28.3394 18.1627 28.1808C18.3159 28.0223 18.4021 27.8074 18.4023 27.5833V20.0799H21.2549L22.2551 28.1429C22.2674 28.2416 22.3139 28.3323 22.3861 28.398C22.4583 28.4637 22.5512 28.5 22.6474 28.5H24.4404C24.4965 28.5 24.5519 28.4876 24.6031 28.4638C24.6542 28.4399 24.6998 28.405 24.7369 28.3615C24.7741 28.318 24.8018 28.2668 24.8183 28.2114C24.8348 28.1559 24.8398 28.0975 24.8328 28.0399L23.8657 20.0799H24.4404C25.3842 20.0788 26.2889 19.6905 26.9563 19.0003C27.6236 18.31 27.9989 17.3741 28 16.3979V13.725C27.9992 13.0944 27.781 12.4847 27.3846 12.0056C26.9882 11.5265 26.4396 11.2093 25.8374 11.1111ZM20.4062 1.38947H22.8057C23.1202 1.38983 23.4218 1.51925 23.6443 1.74934C23.8667 1.97944 23.9918 2.2914 23.9922 2.6168V2.98282L23.99 2.98424C23.7037 3.17494 23.3673 3.26919 23.0272 3.25401C22.687 3.23884 22.3597 3.115 22.0904 2.89953L20.4205 1.56075C20.4159 1.55704 20.411 1.55393 20.4062 1.55044V1.38947ZM20.4062 2.58451L21.6058 3.5462C21.94 3.81367 22.3357 3.98671 22.754 4.04838C23.1724 4.11005 23.599 4.05822 23.9922 3.89798V5.01693C23.9918 5.34233 23.8667 5.6543 23.6443 5.88439C23.4218 6.11448 23.1202 6.24391 22.8057 6.24427H21.5928C21.2782 6.24391 20.9766 6.11448 20.7542 5.88439C20.5317 5.6543 20.4066 5.34233 20.4062 5.01693V2.58451ZM23.2012 7.02131V7.86114H21.4575C21.3705 7.8613 21.2835 7.86731 21.1973 7.87914V7.02126C21.3274 7.04868 21.4599 7.06248 21.5928 7.06244H22.8057C22.9385 7.06248 23.071 7.04873 23.2012 7.02131ZM20.6181 9.03922C20.728 8.92477 20.8588 8.83403 21.0029 8.77226C21.147 8.71049 21.3015 8.67891 21.4575 8.67936H23.3324C23.7868 8.6799 24.2224 8.86685 24.5437 9.1992C24.865 9.53155 25.0458 9.98217 25.0463 10.4522V15.7979C25.0459 16.1233 24.9208 16.4353 24.6984 16.6654C24.4759 16.8955 24.1744 17.0249 23.8598 17.0253H18.4023V15.3166C18.6335 15.2318 18.8336 15.0751 18.9752 14.8679C19.1169 14.6608 19.1931 14.4134 19.1934 14.1597V13.4343C19.2593 13.3882 19.3209 13.3357 19.3772 13.2774L21.2943 11.2955C21.368 11.2187 21.4092 11.1148 21.409 11.0066C21.4088 10.8984 21.3672 10.7947 21.2933 10.7182C21.2193 10.6417 21.1191 10.5985 21.0145 10.5983C20.9099 10.598 20.8095 10.6406 20.7352 10.7167L20.111 11.3621L19.2769 10.4278L20.6181 9.03922ZM14.8518 11.8977H17.6933C17.7453 11.8977 17.7968 11.8871 17.8448 11.8665C17.8928 11.8459 17.9364 11.8157 17.9731 11.7777L18.7173 11.0072L19.5511 11.9409L18.818 12.6987C18.7429 12.7767 18.6433 12.8242 18.5372 12.8326H13.6129C13.6973 12.5613 13.8627 12.3247 14.0853 12.1567C14.308 11.9887 14.5763 11.898 14.8518 11.8977ZM7.14535 2.27953C7.14563 2.02467 7.24363 1.78032 7.41785 1.6001C7.59208 1.41989 7.8283 1.31851 8.07469 1.31823H10.7805V3.36804C10.4501 3.48829 10.0951 3.51725 9.75064 3.45205C9.55628 3.40784 9.36938 3.33393 9.19608 3.23276C8.96573 3.10103 8.71774 3.00544 8.46023 2.94911C8.02104 2.86665 7.56885 2.89989 7.14535 3.04577V2.27953ZM7.14535 3.91413C7.56828 3.73537 7.9583 3.68071 8.30724 3.7519C8.49345 3.79439 8.67247 3.86541 8.83839 3.96262C9.07538 4.09779 9.33035 4.19607 9.59507 4.25429C9.98787 4.33318 10.3927 4.32109 10.7804 4.21889V5.25422C10.7804 5.75284 10.5889 6.23104 10.2481 6.58362C9.90723 6.9362 9.44493 7.13428 8.96289 7.13428C8.48085 7.13428 8.01855 6.9362 7.67769 6.58362C7.33684 6.23104 7.14535 5.75284 7.14535 5.25422V3.91413ZM10.205 8.73637C9.40773 9.06567 8.51853 9.06522 7.72152 8.73511C7.86046 8.52917 7.93483 8.28403 7.93457 8.03291V7.73366C8.25942 7.87808 8.60931 7.95256 8.96289 7.95256C9.31648 7.95256 9.66636 7.87808 9.99121 7.73366V8.03291C9.99093 8.28455 10.0656 8.53017 10.205 8.73637ZM4.375 10.9979C4.37433 10.7372 4.45426 10.483 4.60313 10.2725C4.752 10.0621 4.96202 9.90634 5.20251 9.8281L6.94011 9.25752C7.55827 9.61381 8.25413 9.80098 8.96178 9.80131C8.99131 9.80131 9.02116 9.80099 9.05112 9.80033C9.72909 9.78491 10.3932 9.59861 10.9858 9.25758L12.7233 9.82815C12.9637 9.9064 13.1737 10.0621 13.3226 10.2725C13.4715 10.483 13.5514 10.7371 13.5508 10.9979V11.5507C13.1603 11.8716 12.8933 12.3262 12.7981 12.8326H11.9688V11.9176C11.9688 11.8091 11.9271 11.7051 11.8529 11.6283C11.7787 11.5516 11.6781 11.5085 11.5732 11.5085C11.4683 11.5085 11.3677 11.5516 11.2936 11.6283C11.2194 11.7051 11.1777 11.8091 11.1777 11.9176V12.8326H6.74805V11.9176C6.74805 11.8091 6.70638 11.7051 6.63221 11.6283C6.55803 11.5516 6.45743 11.5085 6.35254 11.5085C6.24764 11.5085 6.14705 11.5516 6.07287 11.6283C5.9987 11.7051 5.95703 11.8091 5.95703 11.9176V12.8326H4.375V10.9979ZM17.6113 27.5833C17.6113 27.5905 17.6085 27.5974 17.6036 27.6025C17.5987 27.6077 17.592 27.6105 17.585 27.6105H16.7099L16.1893 25.995C16.1107 25.7505 15.9597 25.5379 15.7576 25.3872C15.5555 25.2366 15.3127 25.1556 15.0636 25.1559H5.12973C4.88064 25.1556 4.63781 25.2366 4.43574 25.3872C4.23367 25.5379 4.08262 25.7506 4.00407 25.9951L3.48347 27.6105H2.6084C2.60141 27.6105 2.5947 27.6077 2.58975 27.6025C2.58481 27.5974 2.58203 27.5905 2.58203 27.5833V15.387H17.6113V27.5833ZM18.0068 14.5688H2.18652C2.08166 14.5687 1.98113 14.5255 1.90698 14.4488C1.83283 14.3721 1.79113 14.2681 1.79102 14.1597V13.6508H13.1206C13.132 13.6519 13.1436 13.6526 13.1553 13.6526H18.4023V14.1597C18.4022 14.2681 18.3605 14.3721 18.2864 14.4488C18.2122 14.5255 18.1117 14.5687 18.0068 14.5688ZM23.9921 27.6818H22.9955L22.0524 20.0799H23.0685L23.9921 27.6818ZM27.209 16.3979C27.2081 17.1572 26.9162 17.8851 26.3972 18.4219C25.8781 18.9588 25.1744 19.2608 24.4404 19.2617H18.4023V17.8434H23.8598C24.3841 17.8428 24.8868 17.6271 25.2575 17.2436C25.6282 16.8601 25.8368 16.3402 25.8374 15.7979V11.9443C26.2268 12.0372 26.5744 12.2638 26.8235 12.5872C27.0725 12.9105 27.2084 13.3116 27.209 13.725V16.3979Z" fill="url(#paint0_linear_4803_10721)"/>
</g>
<defs>
<filter id="filter0_d_4803_10721" x="0" y="0.5" width="29" height="30" filterUnits="userSpaceOnUse" color-interpolation-filters="sRGB">
<feFlood flood-opacity="0" result="BackgroundImageFix"/>
<feColorMatrix in="SourceAlpha" type="matrix" values="0 0 0 0 0 0 0 0 0 0 0 0 0 0 0 0 0 0 127 0" result="hardAlpha"/>
<feOffset dy="1"/>
<feGaussianBlur stdDeviation="0.5"/>
<feComposite in2="hardAlpha" operator="out"/>
<feColorMatrix type="matrix" values="0 0 0 0 0 0 0 0 0 0 0 0 0 0 0 0 0 0 0.25 0"/>
<feBlend mode="normal" in2="BackgroundImageFix" result="effect1_dropShadow_4803_10721"/>
<feBlend mode="normal" in="SourceGraphic" in2="effect1_dropShadow_4803_10721" result="shape"/>
</filter>
<linearGradient id="paint0_linear_4803_10721" x1="14.5" y1="0.5" x2="14.5" y2="28.5" gradientUnits="userSpaceOnUse">
<stop stop-color="#01BD61"/>
<stop offset="1" stop-color="#4C8CED"/>
</linearGradient>
</defs>
</svg>
