<svg width="22" height="21" viewBox="0 0 22 21" fill="none" xmlns="http://www.w3.org/2000/svg">
<path d="M16.4692 8.07735L19.2933 8.77625C19.6504 8.86848 20.0343 8.73802 20.2936 8.46961C20.3711 8.48984 21.774 5.85766 21.8526 5.75691C22.1509 5.22418 21.9821 4.53767 21.4757 4.22355C20.9699 3.91166 20.3177 4.08731 20.0187 4.62005L19.6722 5.23885C15.7583 -2.13225 5.17725 -1.62913 1.89209 6.14334C1.34143 7.495 3.2256 8.39616 3.83058 7.0672C6.32286 1.09017 14.4955 0.541486 17.6757 6.07627L16.9562 5.8983C15.5896 5.58464 15.1128 7.71698 16.4692 8.07735ZM1.55328 12.708L0.154498 15.2062C-0.532441 16.4821 1.25072 17.601 1.98838 16.3431L2.33486 15.7243C4.08649 18.9488 7.34713 21 11.0036 21C14.9207 21 18.497 18.5739 20.115 14.82C20.3575 14.2574 20.1206 13.5935 19.585 13.3384C19.0491 13.0833 18.419 13.3326 18.1766 13.8959C16.9028 16.851 14.0872 18.7612 11.0036 18.7612C8.23024 18.7612 5.7427 17.2657 4.33144 14.887L5.05095 15.0648C6.41711 15.38 6.89427 13.2454 5.53794 12.8858L2.71374 12.1869C2.27019 12.0815 1.78475 12.2917 1.55328 12.708Z" fill="#303030"/>
</svg>
