<svg width="35" height="25" viewBox="0 0 35 25" fill="none" xmlns="http://www.w3.org/2000/svg">
<path d="M34.3478 8.06227L31.5244 2.34126C30.4194 0.105665 29.7178 -0.130217 27.5654 1.01399C26.3452 1.6653 25.5317 2.19339 25.0741 2.76726L19.7695 1.17593C18.6888 0.851673 17.5402 0.864331 16.4664 1.21234C15.3926 1.56034 14.4408 2.22835 13.7294 3.1334C12.7885 2.78922 11.7883 2.65487 10.7941 2.73909L10.3602 2.7743C9.92299 2.05961 9.06884 1.49631 7.90962 0.792186C6.97073 0.218324 6.2996 -0.140779 5.57764 0.0528554C4.85567 0.24649 4.43876 0.904847 3.88966 1.88358L0.757748 7.42856C-0.462477 9.59727 -0.276054 10.3401 1.8085 11.6075C3.15413 12.4279 4.08964 12.8714 4.85906 12.8714C4.99118 12.8717 5.12297 12.8575 5.25224 12.8292L6.97412 14.2656L6.42163 14.9733C6.0907 15.3964 5.88189 15.9083 5.81937 16.4496C5.75686 16.9909 5.84318 17.5395 6.06837 18.032C6.29355 18.5244 6.64838 18.9406 7.09179 19.2323C7.53521 19.524 8.04909 19.6794 8.57397 19.6803C8.61125 19.6803 8.65193 19.6803 8.68921 19.6768C8.74492 20.4002 9.06006 21.0755 9.57226 21.569C10.0845 22.0626 10.7564 22.3384 11.4551 22.3419C11.4947 22.343 11.5344 22.3406 11.5737 22.3349C11.628 23.0588 11.9427 23.7349 12.4552 24.2288C12.9677 24.7226 13.6405 24.9979 14.3395 25C14.4141 25 14.4887 24.9965 14.5632 24.9894C14.9386 24.9595 15.3042 24.8505 15.6377 24.6691C15.9714 24.488 16.2656 24.2375 16.502 23.9333L17.3291 22.8771L18.6374 23.9825C19.0061 24.2941 19.4456 24.5022 19.9139 24.5871C20.3821 24.6719 20.8635 24.6306 21.312 24.4671C21.7605 24.3035 22.1611 24.0233 22.4756 23.6531C22.7901 23.2829 23.0079 22.8351 23.1082 22.3525C23.5463 22.5101 24.0154 22.5512 24.4727 22.4721C24.9301 22.393 25.361 22.1963 25.7264 21.8998C26.0917 21.6033 26.3797 21.2165 26.5642 20.7747C26.7487 20.3329 26.8237 19.8502 26.7824 19.3705C27.3127 19.3063 27.814 19.0846 28.2261 18.7321C28.6382 18.3795 28.9438 17.9111 29.1061 17.3828C29.2685 16.8545 29.2808 16.2888 29.1416 15.7534C29.0024 15.2181 28.7176 14.7357 28.3213 14.3642L29.6364 13.2059C29.7819 13.2418 29.9309 13.2596 30.0804 13.2587C30.5201 13.2433 30.9537 13.148 31.3617 12.9771C31.9462 12.7457 32.5167 12.4776 33.07 12.1744C34.0428 11.6568 34.6969 11.2625 34.924 10.5232C35.1511 9.78386 34.8427 9.07269 34.3478 8.06227ZM19.2984 2.86584L24.6403 4.46772C24.845 5.41742 25.1879 6.32917 25.6571 7.17156L27.1451 10.1887C27.4606 10.8633 27.8291 11.5098 28.2467 12.1216L26.9858 13.2341L24.8741 11.4526L18.6849 6.21747L18.6815 6.21395L18.6679 6.20338L17.7697 5.40773C17.6539 5.3034 17.5114 5.23614 17.3596 5.21409H17.3562C17.1737 5.1822 16.9861 5.21349 16.8224 5.30314C16.6587 5.39278 16.5278 5.53583 16.45 5.71026C16.3722 5.88469 16.3518 6.08085 16.3918 6.26854C16.4318 6.45624 16.5301 6.62508 16.6715 6.74908L16.9867 7.02721C16.9808 7.03615 16.974 7.04441 16.9664 7.05186C15.8343 8.50235 14.2039 9.52333 12.7193 9.66416C12.6166 9.67507 12.5131 9.65496 12.4211 9.60625C12.3291 9.55754 12.2526 9.4823 12.2007 9.38955C12.144 9.29603 12.1145 9.18748 12.1157 9.07694C12.1169 8.9664 12.1488 8.85857 12.2075 8.7664L14.3158 5.37956L14.709 4.74585C15.1688 3.95225 15.8675 3.33807 16.697 2.99825C17.5266 2.65843 18.4408 2.61189 19.2984 2.86584ZM4.89634 11.0971C4.86306 11.1057 4.82895 11.1104 4.79466 11.1111C4.37436 11.1111 3.51681 10.6077 2.66604 10.0902C2.64571 10.0761 2.61859 10.062 2.59148 10.0444C2.27224 9.86562 1.97227 9.652 1.69664 9.40716C1.83608 9.02709 2.0121 8.66262 2.22202 8.31928L3.86254 5.41125L5.10988 3.20029L5.35054 2.7743C5.53505 2.41559 5.75546 2.0781 6.0081 1.7674C6.37462 1.91079 6.72566 2.09368 7.05546 2.3131C7.41475 2.53137 7.76726 2.74965 8.07232 2.96089C8.5638 3.29535 8.92987 3.60517 8.99088 3.84105C9.00349 4.13075 8.93522 4.41806 8.79428 4.66839C8.56195 5.17965 8.304 5.67791 8.02148 6.16114L6.37078 9.08678C6.075 9.6393 5.74437 10.1709 5.38104 10.6781C5.25869 10.8605 5.09124 11.0052 4.89634 11.0971ZM7.85539 17.6313C7.64695 17.4389 7.51821 17.1703 7.4961 16.8816C7.47399 16.5929 7.56022 16.3064 7.73676 16.0823L8.29603 15.3641L9.08239 14.3607C9.17944 14.2355 9.3022 14.1345 9.44168 14.0649C9.57219 13.995 9.71537 13.9542 9.86198 13.9452H9.92977C10.0686 13.9443 10.2061 13.9719 10.3347 14.0262C10.4632 14.0806 10.5802 14.1608 10.6789 14.2621C10.817 14.3982 10.9177 14.5701 10.9707 14.7601C11.0237 14.95 11.0271 15.1512 10.9805 15.3429C10.9469 15.4863 10.8845 15.6206 10.7975 15.7372C10.7466 15.7936 10.6992 15.8499 10.6517 15.9097L9.98061 16.7688L9.30949 17.6243L9.3061 17.6313C9.12887 17.7975 8.90354 17.8978 8.66548 17.9165C8.51881 17.9297 8.37109 17.9112 8.23166 17.8621C8.09223 17.813 7.96411 17.7344 7.85539 17.6313ZM10.7365 20.2929C10.5361 20.1057 10.4099 19.8478 10.3823 19.5694C10.3547 19.2909 10.4278 19.0117 10.5873 18.7861C10.6406 18.732 10.6904 18.6744 10.7365 18.6136L11.3127 17.8743L12.0719 16.9061C12.0745 16.9008 12.0779 16.896 12.0821 16.892C12.212 16.7712 12.3677 16.6843 12.5363 16.6385C12.6039 16.6197 12.6732 16.6079 12.7431 16.6033H12.8109C12.9564 16.6041 13.1004 16.635 13.2343 16.6942C13.3682 16.7535 13.4893 16.8399 13.5907 16.9485C13.692 17.057 13.7714 17.1854 13.8244 17.3263C13.8773 17.4671 13.9026 17.6175 13.8989 17.7686C13.8913 18.002 13.8117 18.2266 13.6718 18.4094C13.6676 18.4134 13.6642 18.4182 13.6616 18.4235C13.6172 18.4691 13.5754 18.5173 13.5362 18.5678L12.9905 19.2649L12.1872 20.2894L12.1838 20.2929C11.9843 20.4767 11.7268 20.5782 11.4601 20.5782C11.1935 20.5782 10.936 20.4767 10.7365 20.2929ZM15.1869 22.8207C15.0947 22.9398 14.9802 23.038 14.8502 23.1094C14.7202 23.1809 14.5775 23.224 14.4309 23.2362C14.2844 23.2484 14.1369 23.2294 13.9976 23.1803C13.8584 23.1313 13.7302 23.0533 13.621 22.951C13.421 22.7653 13.2944 22.5092 13.2657 22.2322C13.2369 21.9552 13.3079 21.677 13.465 21.4512C13.5193 21.3949 13.5701 21.335 13.621 21.2717L14.3226 20.3739L14.9666 19.5536L14.97 19.5466C15.1511 19.3763 15.3835 19.2767 15.6275 19.2649C15.6489 19.262 15.6704 19.2608 15.6919 19.2614H15.6953C15.9004 19.2615 16.1012 19.322 16.2745 19.4358C16.4477 19.5497 16.5864 19.7122 16.6744 19.9045C16.7624 20.0969 16.7961 20.3112 16.7716 20.5226C16.7471 20.7341 16.6654 20.934 16.5359 21.0991L16.0072 21.7751L15.1869 22.8207ZM27.2976 17.2159C27.1155 17.4478 26.8522 17.5951 26.5656 17.6255C26.2789 17.6559 25.9924 17.5668 25.769 17.3778C25.7626 17.3701 25.7544 17.364 25.7452 17.3602L25.7412 17.3581L21.1616 13.4921C20.9872 13.3449 20.7636 13.2756 20.5401 13.2996C20.3165 13.3236 20.1113 13.4388 19.9695 13.6199C19.8277 13.8011 19.7611 14.0333 19.7841 14.2655C19.8072 14.4977 19.9182 14.7109 20.0926 14.8581L24.6999 18.7474L24.704 18.7502C24.927 18.9396 25.0685 19.2134 25.0972 19.5111C25.1259 19.8089 25.0396 20.1063 24.8572 20.338C24.6748 20.5696 24.4113 20.7166 24.1246 20.7464C23.8379 20.7762 23.5515 20.6866 23.3285 20.4971L22.2168 19.5642C22.2016 19.5475 22.185 19.5326 22.1669 19.5194C22.1591 19.5124 22.1534 19.5036 22.1452 19.4969L18.4635 16.3893C18.2888 16.2456 18.0666 16.1793 17.8451 16.2046C17.6236 16.2298 17.4206 16.3447 17.2801 16.5244C17.1396 16.704 17.0728 16.9339 17.0943 17.1643C17.1158 17.3947 17.2237 17.607 17.3948 17.7553L21.0277 20.8217L21.0304 20.8245C21.0474 20.8421 21.0677 20.8597 21.088 20.8773C21.1974 20.9701 21.288 21.0845 21.3546 21.2138C21.4212 21.3431 21.4625 21.4849 21.476 21.6309C21.4896 21.7769 21.4752 21.9242 21.4336 22.0644C21.392 22.2046 21.3241 22.3348 21.2338 22.4475C21.0517 22.679 20.789 22.8265 20.5029 22.8582C20.2167 22.8898 19.9301 22.803 19.7051 22.6165L18.2917 21.4195C18.4549 20.9735 18.5091 20.4924 18.4497 20.0192C18.3903 19.546 18.219 19.0955 17.9512 18.7078C17.6833 18.3201 17.3272 18.0073 16.9147 17.7974C16.5021 17.5874 16.046 17.4869 15.5869 17.5046C15.5279 16.7611 15.1952 16.0698 14.6579 15.5746C14.1206 15.0795 13.4202 14.8187 12.7024 14.8465C12.6628 14.3092 12.4791 13.7942 12.172 13.3599C11.865 12.9256 11.4469 12.5893 10.9653 12.3892C10.4836 12.189 9.95756 12.1331 9.44684 12.2277C8.93611 12.3222 8.46112 12.5636 8.07571 12.9243C7.60457 12.5335 7.13681 12.1427 6.68601 11.7695C7.11182 11.2018 7.49592 10.6016 7.83505 9.97397L9.48236 7.05186C10.0484 6.052 10.4755 5.24578 10.628 4.51701L10.9263 4.49236C11.5367 4.44194 12.151 4.49908 12.7431 4.66135L10.7839 7.81231C10.5543 8.18059 10.429 8.60845 10.4222 9.04714C10.4153 9.48582 10.5273 9.91768 10.7453 10.2935C10.9633 10.6693 11.2786 10.9739 11.6551 11.1726C12.0317 11.3713 12.4545 11.4562 12.8753 11.4174C14.8174 11.2308 16.8579 9.98454 18.2815 8.16085L23.9488 12.9419L26.4604 15.0648C26.4703 15.075 26.4818 15.0833 26.4943 15.0894L27.1383 15.6316C27.3598 15.8211 27.5007 16.0934 27.5305 16.3899C27.5603 16.6863 27.4767 16.983 27.2976 17.2159ZM32.2972 10.6077C31.9786 10.7767 31.6599 10.9421 31.3651 11.0865C30.7685 11.3717 30.2567 11.5618 30.016 11.4808C29.7991 11.4069 29.5313 11.0372 29.25 10.5373C29.0534 10.1958 28.8534 9.7909 28.6534 9.38603L27.1654 6.36885C26.935 5.90765 26.7113 5.44293 26.5519 5.04158C26.3806 4.72313 26.3017 4.35996 26.3248 3.99596C26.4874 3.71575 26.7238 3.48974 27.0061 3.34464C27.3756 3.10172 27.8569 2.83767 28.3382 2.58066C28.6806 2.3819 29.0418 2.22027 29.4161 2.09834C29.65 2.42465 29.851 2.77503 30.016 3.14396L32.8395 8.86498C33.0302 9.21973 33.1858 9.59365 33.3039 9.98102C32.9898 10.2251 32.6525 10.4351 32.2972 10.6077Z" fill="#9C4040"/>
</svg>
