<svg width="20" height="20" viewBox="0 0 20 20" fill="none" xmlns="http://www.w3.org/2000/svg">
<path d="M10.0033 16.3919C6.5105 16.3919 3.66797 13.524 3.66797 9.99992C3.66797 6.47588 6.5105 3.60791 10.0033 3.60791C13.4961 3.60791 16.3386 6.47588 16.3386 9.99992C16.3386 13.524 13.4991 16.3919 10.0033 16.3919ZM10.0033 4.214C6.84181 4.214 4.26868 6.81017 4.26868 9.99992C4.26868 13.1897 6.84181 15.7859 10.0033 15.7859C13.1647 15.7859 15.7379 13.1897 15.7379 9.99992C15.741 6.80704 13.1678 4.214 10.0033 4.214Z" fill="url(#paint0_linear_5935_13724)"/>
<path d="M9.9942 19.1193C5.10493 19.1193 1.1384 15.261 0.964995 10.3342C0.96248 10.2543 0.991327 10.1767 1.04526 10.1182C1.09919 10.0597 1.17384 10.025 1.25296 10.0218C1.42327 10.0093 1.55641 10.1468 1.56261 10.3123C1.72672 14.9111 5.43005 18.5132 9.9942 18.5132C10.019 18.5132 10.0468 18.5132 10.0747 18.5101C10.2388 18.4914 10.3843 18.6195 10.3998 18.785C10.4153 18.9506 10.2915 19.0974 10.1273 19.1131C10.084 19.1193 10.0375 19.1193 9.9942 19.1193Z" fill="url(#paint1_linear_5935_13724)"/>
<path d="M0.389365 11.6707C0.331848 11.671 0.275464 11.6546 0.226928 11.6234C0.178393 11.5923 0.139752 11.5477 0.115607 11.4951C0.091462 11.4424 0.0828313 11.3838 0.0907425 11.3263C0.0986538 11.2689 0.122774 11.2149 0.160229 11.1708L1.052 10.1118C1.10464 10.0461 1.18515 10.0087 1.26875 10.0055C1.35236 9.99928 1.43286 10.0336 1.4917 10.093L2.47327 11.0677C2.59093 11.1865 2.59403 11.377 2.47636 11.4958C2.3587 11.6145 2.16982 11.6176 2.05215 11.4989L1.29972 10.7522L0.615405 11.5645C0.559669 11.6332 0.472969 11.6707 0.389365 11.6707ZM18.7265 9.97429C18.6489 9.97436 18.5743 9.94415 18.5183 9.88999C18.4623 9.83584 18.4293 9.76193 18.4261 9.68374C18.262 5.08499 14.5587 1.48597 9.9976 1.48597H9.92638C9.8473 1.49381 9.76832 1.47007 9.70639 1.41984C9.64445 1.36961 9.60449 1.2969 9.59507 1.21729C9.58672 1.13739 9.61003 1.0574 9.65992 0.994771C9.70981 0.932145 9.78222 0.891968 9.86136 0.883007C9.90471 0.879883 9.95425 0.879883 9.9976 0.879883C14.8838 0.879883 18.8503 4.73821 19.0268 9.66187C19.033 9.83058 18.9029 9.96804 18.7388 9.97429H18.7265Z" fill="url(#paint2_linear_5935_13724)"/>
<path d="M18.7176 9.9894C18.6402 9.9894 18.5627 9.95816 18.507 9.90192L17.5254 8.92719C17.4973 8.89935 17.4748 8.86617 17.4594 8.82955C17.444 8.79294 17.436 8.75361 17.4357 8.71383C17.4354 8.67406 17.4429 8.63462 17.4578 8.59778C17.4726 8.56094 17.4946 8.52743 17.5223 8.49918C17.64 8.38046 17.8289 8.37734 17.9465 8.49606L18.699 9.24273L19.3833 8.43045C19.4917 8.30236 19.6806 8.28674 19.8075 8.39608C19.9345 8.50543 19.9499 8.696 19.8416 8.82409L18.9498 9.88318C18.8972 9.94879 18.8166 9.98628 18.733 9.9894H18.7176Z" fill="url(#paint3_linear_5935_13724)"/>
<path d="M13.9699 10.702L12.6807 9.33188V7.24624C12.6807 7.19471 12.6615 7.14529 12.6272 7.10886C12.5929 7.07242 12.5464 7.05195 12.4979 7.05195H11.6296C11.5811 7.05195 11.5346 7.07242 11.5004 7.10886C11.4661 7.14529 11.4468 7.19471 11.4468 7.24624V8.02036L10.1273 6.61812C10.0588 6.54526 9.93738 6.54526 9.86882 6.61812L6.02618 10.702C5.99191 10.7384 5.97266 10.7878 5.97266 10.8393C5.97266 10.8908 5.99191 10.9402 6.02618 10.9767L6.62034 11.608C6.65462 11.6444 6.70111 11.6649 6.74959 11.6649C6.79807 11.6649 6.84456 11.6444 6.87884 11.608L7.31523 11.1443V13.2423C7.31523 13.2939 7.33449 13.3433 7.36877 13.3797C7.40306 13.4161 7.44956 13.4366 7.49805 13.4366H12.4978C12.5463 13.4366 12.5928 13.4161 12.6271 13.3797C12.6614 13.3433 12.6806 13.2939 12.6806 13.2423V11.1443L13.117 11.6081C13.1513 11.6445 13.1978 11.6649 13.2463 11.6649C13.2948 11.6649 13.3413 11.6444 13.3756 11.608L13.9697 10.9767C13.9867 10.9587 14.0002 10.9373 14.0094 10.9137C14.0186 10.8901 14.0234 10.8649 14.0234 10.8394C14.0234 10.8138 14.0187 10.7886 14.0095 10.765C14.0003 10.7414 13.9869 10.72 13.9699 10.702ZM11.8124 7.44052H12.3151V8.94321L11.8124 8.40893V7.44052ZM9.69944 13.048V11.6797H10.2966V13.048H9.69944ZM12.3151 13.048H10.6623V11.4854C10.6623 11.4339 10.643 11.3845 10.6087 11.348C10.5744 11.3116 10.5279 11.2911 10.4794 11.2911H9.51662C9.46814 11.2911 9.42164 11.3116 9.38735 11.348C9.35307 11.3845 9.33381 11.4339 9.33381 11.4854V13.048H7.68095V10.7557L9.99817 8.29304L12.3152 10.7557L12.3151 13.048ZM13.2464 11.196L10.1273 7.88096C10.093 7.84454 10.0466 7.82408 9.99807 7.82408C9.9496 7.82408 9.90311 7.84454 9.86882 7.88096L6.74959 11.1959L6.41394 10.8393L9.99807 7.03019L12.3673 9.54831L12.3702 9.55132L13.582 10.8393L13.2464 11.196Z" fill="url(#paint4_linear_5935_13724)"/>
<defs>
<linearGradient id="paint0_linear_5935_13724" x1="10.0033" y1="3.60791" x2="10.0033" y2="16.3919" gradientUnits="userSpaceOnUse">
<stop stop-color="#4C8CED"/>
<stop offset="1" stop-color="#636363"/>
</linearGradient>
<linearGradient id="paint1_linear_5935_13724" x1="5.68299" y1="10.021" x2="5.68299" y2="19.1193" gradientUnits="userSpaceOnUse">
<stop stop-color="#4C8CED"/>
<stop offset="1" stop-color="#636363"/>
</linearGradient>
<linearGradient id="paint2_linear_5935_13724" x1="9.55745" y1="0.879883" x2="9.55745" y2="11.6707" gradientUnits="userSpaceOnUse">
<stop stop-color="#4C8CED"/>
<stop offset="1" stop-color="#636363"/>
</linearGradient>
<linearGradient id="paint3_linear_5935_13724" x1="17.7079" y1="8.32324" x2="17.7079" y2="16.0659" gradientUnits="userSpaceOnUse">
<stop stop-color="#4C8CED"/>
<stop offset="1" stop-color="#636363"/>
</linearGradient>
<linearGradient id="paint4_linear_5935_13724" x1="9.99802" y1="6.56348" x2="9.99802" y2="13.4366" gradientUnits="userSpaceOnUse">
<stop stop-color="#4C8CED"/>
<stop offset="1" stop-color="#636363"/>
</linearGradient>
</defs>
</svg>
