<svg width="20" height="20" viewBox="0 0 20 20" fill="none" xmlns="http://www.w3.org/2000/svg">
<path fill-rule="evenodd" clip-rule="evenodd" d="M8.97817 0.553665C8.17938 1.31656 8.15028 2.58255 8.91317 3.38134L15.2344 10L8.91317 16.6187C8.15028 17.4175 8.17938 18.6834 8.97817 19.4463C9.77696 20.2092 11.043 20.1801 11.8059 19.3813L19.4463 11.3813C20.1846 10.6084 20.1846 9.39161 19.4463 8.61866L11.8059 0.618662C11.043 -0.180129 9.77696 -0.209229 8.97817 0.553665ZM0.618732 1.8874C-0.180037 2.65031 -0.209101 3.91631 0.553816 4.71508L5.60151 9.99998L0.553816 15.2849C-0.209101 16.0837 -0.180037 17.3497 0.618732 18.1126C1.4175 18.8755 2.6835 18.8464 3.44641 18.0477L9.81349 11.3814C10.5518 10.6084 10.5518 9.39156 9.81349 8.6186L3.44641 1.95231C2.6835 1.15354 1.4175 1.12448 0.618732 1.8874Z" fill="url(#paint0_linear_2613_7069)"/>
<defs>
<linearGradient id="paint0_linear_2613_7069" x1="11.6329" y1="2" x2="11.6329" y2="18" gradientUnits="userSpaceOnUse">
<stop stop-color="#4C8CED"/>
<stop offset="1" stop-color="#38D165"/>
</linearGradient>
</defs>
</svg>
