<svg width="24" height="29" viewBox="0 0 24 29" fill="none" xmlns="http://www.w3.org/2000/svg">
<path d="M12.0183 4.56755C12.2942 4.5562 12.5086 4.32332 12.4973 4.04741C12.4859 3.7715 12.253 3.55704 11.9771 3.5684L12.0183 4.56755ZM4.6795 13.6549L4.17966 13.6677C4.17979 13.6726 4.17998 13.6775 4.18026 13.6824L4.6795 13.6549ZM2.61664 20.2448L2.97561 20.5928C2.98381 20.5844 2.99171 20.5756 2.99929 20.5666L2.61664 20.2448ZM1.90964 20.9449L2.23755 21.3223C2.24548 21.3154 2.25319 21.3083 2.26067 21.3009L1.90964 20.9449ZM8.85549 24.6424C9.13163 24.6424 9.35549 24.4186 9.35549 24.1424C9.35549 23.8663 9.13163 23.6424 8.85549 23.6424V24.6424ZM12.0195 3.56829C11.7436 3.55694 11.5108 3.7714 11.4994 4.04731C11.488 4.32322 11.7025 4.55609 11.9784 4.56745L12.0195 3.56829ZM19.3172 13.6548L19.8164 13.6822C19.8167 13.6774 19.8169 13.6725 19.817 13.6676L19.3172 13.6548ZM21.38 20.2428L20.9974 20.5646C21.005 20.5736 21.0129 20.5824 21.0211 20.5908L21.38 20.2428ZM22.087 20.9428L21.736 21.2989C21.7433 21.3061 21.7509 21.3131 21.7586 21.3199L22.087 20.9428ZM15.1412 23.6423C14.865 23.6423 14.6412 23.8662 14.6412 24.1423C14.6412 24.4185 14.865 24.6423 15.1412 24.6423V23.6423ZM11.4994 4.06835C11.4994 4.34449 11.7233 4.56835 11.9994 4.56835C12.2756 4.56835 12.4994 4.34449 12.4994 4.06835H11.4994ZM12.4994 1C12.4994 0.723858 12.2756 0.5 11.9994 0.5C11.7233 0.5 11.4994 0.723858 11.4994 1H12.4994ZM8.85547 23.6425C8.57933 23.6425 8.35547 23.8664 8.35547 24.1425C8.35547 24.4186 8.57933 24.6425 8.85547 24.6425V23.6425ZM15.1399 24.6425C15.416 24.6425 15.6399 24.4186 15.6399 24.1425C15.6399 23.8664 15.416 23.6425 15.1399 23.6425V24.6425ZM9.35547 24.1431C9.35547 23.8669 9.13161 23.6431 8.85547 23.6431C8.57933 23.6431 8.35547 23.8669 8.35547 24.1431H9.35547ZM15.6399 24.1431C15.6399 23.8669 15.416 23.6431 15.1399 23.6431C14.8637 23.6431 14.6399 23.8669 14.6399 24.1431H15.6399ZM11.9771 3.5684C7.44004 3.75517 4.04373 8.36681 4.17966 13.6677L5.17933 13.6421C5.05237 8.69096 8.20414 4.72456 12.0183 4.56755L11.9771 3.5684ZM4.18026 13.6824C4.30987 16.0313 3.58775 18.3134 2.23399 19.923L2.99929 20.5666C4.53373 18.7422 5.32086 16.2029 5.17874 13.6273L4.18026 13.6824ZM2.25766 19.8968C1.99717 20.1654 1.76676 20.3836 1.55861 20.5888L2.26067 21.3009C2.45158 21.1127 2.70507 20.8719 2.97561 20.5928L2.25766 19.8968ZM1.58173 20.5674C1.31864 20.796 1.06321 21.1398 0.869598 21.5143C0.67557 21.8896 0.521124 22.339 0.501995 22.7885C0.482527 23.246 0.604934 23.7403 1.01044 24.1115C1.405 24.4726 1.98744 24.6424 2.72819 24.6424V23.6424C2.12092 23.6424 1.82492 23.5013 1.6856 23.3738C1.55723 23.2563 1.49031 23.0843 1.50109 22.8311C1.5122 22.5699 1.60756 22.2643 1.7579 21.9735C1.90865 21.6819 2.09215 21.4486 2.23755 21.3223L1.58173 20.5674ZM2.72819 24.6424H8.85549V23.6424H2.72819V24.6424ZM11.9784 4.56745C15.7925 4.72445 18.9443 8.69086 18.8173 13.642L19.817 13.6676C19.9529 8.3667 16.5566 3.75506 12.0195 3.56829L11.9784 4.56745ZM18.8179 13.6273C18.6763 16.2022 19.4634 18.7407 20.9974 20.5646L21.7627 19.9209C20.4093 18.3118 19.6873 16.0305 19.8164 13.6822L18.8179 13.6273ZM21.0211 20.5908C21.2916 20.8699 21.5451 21.1107 21.736 21.2989L22.4381 20.5868C22.2299 20.3816 21.9995 20.1634 21.739 19.8947L21.0211 20.5908ZM21.7586 21.3199C21.9046 21.447 22.0888 21.6811 22.2402 21.9731C22.3912 22.2644 22.4872 22.5703 22.4988 22.8315C22.51 23.0847 22.4433 23.2563 22.3151 23.3736C22.1758 23.501 21.8792 23.6423 21.2701 23.6423V24.6423C22.012 24.6423 22.5953 24.4726 22.9901 24.1114C23.3962 23.7399 23.518 23.2451 23.4978 22.7874C23.4779 22.3377 23.3225 21.8881 23.1279 21.5128C22.9337 21.1382 22.678 20.7945 22.4154 20.5658L21.7586 21.3199ZM21.2701 23.6423H15.1412V24.6423H21.2701V23.6423ZM12.4994 4.06835V1H11.4994V4.06835H12.4994ZM8.85547 24.6425H15.1399V23.6425H8.85547V24.6425ZM8.35547 24.1431C8.35547 26.4488 9.89522 28.5002 11.9977 28.5002V27.5002C10.6293 27.5002 9.35547 26.0978 9.35547 24.1431H8.35547ZM11.9977 28.5002C14.1001 28.5002 15.6399 26.4488 15.6399 24.1431H14.6399C14.6399 26.0978 13.366 27.5002 11.9977 27.5002V28.5002Z" fill="#636363"/>
</svg>
