<svg width="24" height="26" viewBox="0 0 24 26" fill="none" xmlns="http://www.w3.org/2000/svg">
<path d="M12.0349 4.72687C12.5868 4.70668 13.0179 4.24289 12.9977 3.69097C12.9775 3.13906 12.5137 2.70801 11.9618 2.72821L12.0349 4.72687ZM4.67972 12.2493L3.68014 12.2781C3.68046 12.2891 3.68096 12.3002 3.68164 12.3112L4.67972 12.2493ZM2.61674 18.107L3.2925 18.8441C3.30995 18.8281 3.32682 18.8115 3.34309 18.7943L2.61674 18.107ZM1.9097 18.7293L2.52085 19.5208C2.53722 19.5081 2.55319 19.495 2.56875 19.4813L1.9097 18.7293ZM8.85597 22.5715C9.40825 22.5715 9.85597 22.1238 9.85597 21.5715C9.85597 21.0193 9.40825 20.5715 8.85597 20.5715V22.5715ZM12.0346 2.72821C11.4827 2.70801 11.0189 3.13906 10.9987 3.69097C10.9785 4.24289 11.4096 4.70668 11.9615 4.72687L12.0346 2.72821ZM19.3167 12.2493L20.3148 12.311C20.3155 12.3001 20.316 12.2891 20.3163 12.2781L19.3167 12.2493ZM21.3797 18.1053L20.6533 18.7926C20.6696 18.8098 20.6865 18.8264 20.7039 18.8424L21.3797 18.1053ZM22.0867 18.7275L21.4277 19.4796C21.4429 19.493 21.4585 19.5059 21.4745 19.5182L22.0867 18.7275ZM15.1404 20.5715C14.5882 20.5715 14.1404 21.0193 14.1404 21.5715C14.1404 22.1238 14.5882 22.5715 15.1404 22.5715V20.5715ZM10.9984 3.72743C10.9984 4.27971 11.4461 4.72743 11.9984 4.72743C12.5507 4.72743 12.9984 4.27971 12.9984 3.72743H10.9984ZM12.9984 1C12.9984 0.447715 12.5507 0 11.9984 0C11.4461 0 10.9984 0.447715 10.9984 1H12.9984ZM8.85547 20.571C8.30318 20.571 7.85547 21.0187 7.85547 21.571C7.85547 22.1233 8.30318 22.571 8.85547 22.571V20.571ZM15.1403 22.571C15.6926 22.571 16.1403 22.1233 16.1403 21.571C16.1403 21.0187 15.6926 20.571 15.1403 20.571V22.571ZM9.85547 21.5713C9.85547 21.019 9.40775 20.5713 8.85547 20.5713C8.30318 20.5713 7.85547 21.019 7.85547 21.5713H9.85547ZM16.1403 21.5713C16.1403 21.019 15.6926 20.5713 15.1403 20.5713C14.588 20.5713 14.1403 21.019 14.1403 21.5713H16.1403ZM11.9618 2.72821C7.15793 2.90397 3.53523 7.25525 3.68014 12.2781L5.67931 12.2204C5.56131 8.13035 8.48709 4.85668 12.0349 4.72687L11.9618 2.72821ZM3.68164 12.3112C3.80119 14.2369 3.13491 16.1044 1.89038 17.4196L3.34309 18.7943C4.98695 17.0571 5.83 14.639 5.6778 12.1873L3.68164 12.3112ZM1.94098 17.3698C1.68603 17.6036 1.46826 17.7865 1.25064 17.9772L2.56875 19.4813C2.75022 19.3223 3.01638 19.0972 3.2925 18.8441L1.94098 17.3698ZM1.29854 17.9377C0.972205 18.1897 0.672638 18.5529 0.449363 18.9367C0.227196 19.3187 0.0279483 19.8115 0.00268668 20.3391C-0.0241655 20.9 0.152281 21.5325 0.716965 21.9919C1.23715 22.4151 1.94425 22.5715 2.72829 22.5715V20.5715C2.16424 20.5715 1.99284 20.4516 1.97912 20.4404C1.97691 20.4386 1.98078 20.4415 1.98675 20.4496C1.99271 20.4578 1.99723 20.4665 2.00002 20.4736C2.00556 20.4877 1.99826 20.4795 2.0004 20.4348C2.00538 20.3307 2.05596 20.1524 2.17818 19.9423C2.29929 19.7341 2.43868 19.5842 2.52085 19.5208L1.29854 17.9377ZM2.72829 22.5715H8.85597V20.5715H2.72829V22.5715ZM11.9615 4.72687C15.5093 4.85668 18.4351 8.13035 18.3171 12.2204L20.3163 12.2781C20.4612 7.25525 16.8385 2.90397 12.0346 2.72821L11.9615 4.72687ZM18.3186 12.1875C18.1669 14.6385 19.0099 17.0558 20.6533 18.7926L22.1061 17.4179C20.8619 16.1031 20.1957 14.2361 20.3148 12.311L18.3186 12.1875ZM20.7039 18.8424C20.98 19.0955 21.2462 19.3206 21.4277 19.4796L22.7458 17.9754C22.5282 17.7847 22.3104 17.6019 22.0554 17.3681L20.7039 18.8424ZM21.4745 19.5182C21.5578 19.5828 21.6982 19.7338 21.82 19.9427C21.943 20.1536 21.9941 20.3323 21.9992 20.4364C22.0015 20.4811 21.9942 20.489 21.9999 20.4744C22.0027 20.4671 22.0074 20.4582 22.0135 20.4499C22.0196 20.4415 22.0236 20.4385 22.0214 20.4403C22.0078 20.4513 21.8359 20.5715 21.2697 20.5715V22.5715C22.0547 22.5715 22.7627 22.4153 23.2833 21.992C23.849 21.532 24.0247 20.8984 23.9968 20.3371C23.9705 19.8093 23.7702 19.3165 23.5475 18.9349C23.3237 18.5512 23.0241 18.1886 22.6989 17.9368L21.4745 19.5182ZM21.2697 20.5715H15.1404V22.5715H21.2697V20.5715ZM12.9984 3.72743V1H10.9984V3.72743H12.9984ZM8.85547 22.571H15.1403V20.571H8.85547V22.571ZM7.85547 21.5713C7.85547 23.9333 9.62983 25.9999 11.9979 25.9999V23.9999C10.8949 23.9999 9.85547 22.9964 9.85547 21.5713H7.85547ZM11.9979 25.9999C14.3659 25.9999 16.1403 23.9333 16.1403 21.5713H14.1403C14.1403 22.9964 13.1008 23.9999 11.9979 23.9999V25.9999Z" fill="url(#paint0_linear_4933_3933)"/>
<defs>
<linearGradient id="paint0_linear_4933_3933" x1="11.9998" y1="1" x2="11.9998" y2="24.9999" gradientUnits="userSpaceOnUse">
<stop stop-color="#FDDE3C"/>
<stop offset="1" stop-color="#303030"/>
</linearGradient>
</defs>
</svg>
