<svg width="76" height="25" viewBox="0 0 76 25" fill="none" xmlns="http://www.w3.org/2000/svg">
<rect x="0.1" y="6.1" width="68.8" height="12.8" rx="4.9" fill="white"/>
<rect x="0.1" y="6.1" width="68.8" height="12.8" rx="4.9" stroke="#303030" stroke-width="0.2"/>
<path d="M13.2139 15H6.51465C6.3584 15 6.28027 14.8535 6.28027 14.5605V13.1543C6.52116 12.7051 6.91667 12.3519 7.4668 12.0947V13.2178C7.4668 13.4066 7.58073 13.501 7.80859 13.501H11.0215V12.6709C11.1191 12.4854 11.2933 12.2835 11.5439 12.0654C11.7816 11.8571 12.0029 11.7057 12.208 11.6113V13.501H13.2139V15ZM9.89844 16.3525C9.89844 16.5316 9.83984 16.6813 9.72266 16.8018C9.60547 16.9255 9.45736 16.9873 9.27832 16.9873C9.10905 16.9873 8.95931 16.9238 8.8291 16.7969C8.70215 16.6732 8.63867 16.5251 8.63867 16.3525C8.63867 16.1768 8.70052 16.0286 8.82422 15.9082C8.95117 15.791 9.10254 15.7324 9.27832 15.7324C9.44759 15.7324 9.59245 15.7943 9.71289 15.918C9.83659 16.0417 9.89844 16.1865 9.89844 16.3525ZM17.5303 15H16.832C16.8353 15.306 16.736 15.4801 16.5342 15.5225L16.124 15H12.8037V13.501H15.1328C15.0645 13.3089 14.9489 13.112 14.7861 12.9102C14.5876 12.6595 14.4118 12.5342 14.2588 12.5342C14.1644 12.5342 14.0163 12.5977 13.8145 12.7246C13.6875 12.5846 13.624 12.3324 13.624 11.9678C13.624 11.7236 13.694 11.5153 13.834 11.3428C13.974 11.167 14.1628 11.0791 14.4004 11.0791C14.778 11.0791 15.1995 11.4583 15.665 12.2168C15.9808 12.7344 16.2314 13.1624 16.417 13.501H17.5303V15ZM14.6885 9.65332C14.6885 9.8291 14.6266 9.97884 14.5029 10.1025C14.3825 10.223 14.2344 10.2832 14.0586 10.2832C13.8828 10.2832 13.7347 10.223 13.6143 10.1025C13.4938 9.97884 13.4336 9.8291 13.4336 9.65332C13.4336 9.48079 13.4954 9.33105 13.6191 9.2041C13.7428 9.07715 13.8893 9.01367 14.0586 9.01367C14.2376 9.01367 14.3874 9.07552 14.5078 9.19922C14.6283 9.32292 14.6885 9.47428 14.6885 9.65332ZM20.958 10.3857C20.958 10.5648 20.8962 10.7161 20.7725 10.8398C20.6488 10.9603 20.4974 11.0205 20.3184 11.0205C20.1393 11.0205 19.9896 10.9603 19.8691 10.8398C19.7487 10.7161 19.6885 10.5648 19.6885 10.3857C19.6885 10.2067 19.7487 10.0586 19.8691 9.94141C19.9896 9.82096 20.1393 9.76074 20.3184 9.76074C20.4941 9.76074 20.6439 9.82096 20.7676 9.94141C20.8945 10.0618 20.958 10.21 20.958 10.3857ZM19.166 10.3857C19.166 10.5615 19.1058 10.7113 18.9854 10.835C18.8649 10.9587 18.7168 11.0205 18.541 11.0205C18.362 11.0205 18.2122 10.9603 18.0918 10.8398C17.9714 10.7161 17.9111 10.5648 17.9111 10.3857C17.9111 10.2067 17.9714 10.0586 18.0918 9.94141C18.2122 9.82096 18.362 9.76074 18.541 9.76074C18.7201 9.76074 18.8682 9.82096 18.9854 9.94141C19.1058 10.0586 19.166 10.2067 19.166 10.3857ZM21.627 15H17.0469V13.501H19.2295V12.6709C19.3239 12.4886 19.498 12.2884 19.752 12.0703C19.9863 11.8685 20.2077 11.7155 20.416 11.6113V13.501H21.627V15ZM23.5801 10.415C23.5801 10.5908 23.5182 10.7406 23.3945 10.8643C23.2741 10.9847 23.126 11.0449 22.9502 11.0449C22.7712 11.0449 22.6214 10.9847 22.501 10.8643C22.3805 10.7438 22.3203 10.5941 22.3203 10.415C22.3203 10.2393 22.3805 10.0911 22.501 9.9707C22.6247 9.85026 22.7744 9.79004 22.9502 9.79004C23.126 9.79004 23.2741 9.85026 23.3945 9.9707C23.5182 10.0911 23.5801 10.2393 23.5801 10.415ZM24.8447 15H21.1729V13.501H22.457V12.6709C22.5612 12.4788 22.7337 12.277 22.9746 12.0654C23.2155 11.8538 23.4385 11.7025 23.6436 11.6113V13.501H24.8447V15ZM28.5752 15H24.3369V13.501H25.499C25.499 13.0811 25.6064 12.7148 25.8213 12.4023C26.0524 12.0573 26.3649 11.8522 26.7588 11.7871C26.8988 11.7643 27.2536 11.7106 27.8232 11.626C27.9795 11.4079 28.0788 11.2793 28.1211 11.2402C28.2318 11.1393 28.3831 11.0889 28.5752 11.0889V15ZM27.4473 13.501V12.7393C27.1413 12.7393 26.9264 12.7881 26.8027 12.8857C26.6595 12.9997 26.5879 13.2048 26.5879 13.501H27.4473ZM40.6748 15H35.9727C35.8913 15.6641 35.6195 16.1833 35.1572 16.5576C34.7113 16.9189 34.1481 17.0996 33.4678 17.0996C32.8656 17.0996 32.387 16.9124 32.0322 16.5381C31.6839 16.1735 31.5098 15.6885 31.5098 15.083C31.5098 14.738 31.5798 14.4727 31.7197 14.2871C31.863 14.1016 32.099 13.9502 32.4277 13.833C32.4408 14.458 32.488 14.8779 32.5693 15.0928C32.7223 15.5029 33.0511 15.708 33.5557 15.708C33.8584 15.708 34.1123 15.5973 34.3174 15.376C34.5485 15.1253 34.6641 14.8665 34.6641 14.5996V12.9883C34.7292 12.8353 34.9326 12.6807 35.2744 12.5244C35.5934 12.3812 35.849 12.3079 36.041 12.3047V13.501H36.6172V12.4902C36.679 12.3307 36.8548 12.1826 37.1445 12.0459C37.4115 11.9222 37.641 11.8587 37.833 11.8555V13.501H38.4092V12.0752C38.4092 11.984 38.5866 11.8441 38.9414 11.6553C39.2539 11.486 39.5192 11.4014 39.7373 11.4014V13.501H40.6748V15ZM42.833 15H40.2061V13.501H42.833V15ZM44.7666 10.4248C44.7666 10.5973 44.7048 10.7454 44.5811 10.8691C44.4574 10.9928 44.3092 11.0547 44.1367 11.0547C43.9609 11.0547 43.8112 10.9945 43.6875 10.874C43.5671 10.7503 43.5068 10.6006 43.5068 10.4248C43.5068 10.2458 43.5671 10.096 43.6875 9.97559C43.8079 9.85514 43.9577 9.79492 44.1367 9.79492C44.3158 9.79492 44.4655 9.85514 44.5859 9.97559C44.7064 10.096 44.7666 10.2458 44.7666 10.4248ZM44.8154 14.541C44.8154 14.847 44.6657 15 44.3662 15H42.374V13.501H43.6289V12.6709C43.7266 12.4854 43.9007 12.2835 44.1514 12.0654C44.389 11.8571 44.6104 11.7057 44.8154 11.6113V14.541ZM47.1934 15H46.0068V9.28711C46.0915 9.11458 46.2656 8.91439 46.5293 8.68652C46.7702 8.47493 46.9915 8.32031 47.1934 8.22266V15ZM50.5918 15C50.5918 15.4329 50.486 15.7926 50.2744 16.0791C50.0368 16.4014 49.708 16.5625 49.2881 16.5625C48.9626 16.5625 48.6794 16.4437 48.4385 16.2061C48.2008 15.9684 48.082 15.6885 48.082 15.3662C48.082 15.3467 48.0853 15.2848 48.0918 15.1807C48.2415 15.2816 48.4336 15.332 48.668 15.332C49.0651 15.332 49.2637 15.2214 49.2637 15V13.501C49.3906 13.2796 49.5827 13.0566 49.8398 12.832C50.1165 12.5944 50.3672 12.4479 50.5918 12.3926V15ZM50.4746 9.50195C50.4746 9.67773 50.4128 9.82747 50.2891 9.95117C50.1654 10.0716 50.0156 10.1318 49.8398 10.1318C49.6608 10.1318 49.5111 10.0716 49.3906 9.95117C49.2734 9.83073 49.2148 9.68099 49.2148 9.50195C49.2148 9.32617 49.2751 9.17806 49.3955 9.05762C49.516 8.93717 49.6641 8.87695 49.8398 8.87695C50.0156 8.87695 50.1654 8.93717 50.2891 9.05762C50.4128 9.17806 50.4746 9.32617 50.4746 9.50195ZM51.373 11.0059C51.373 11.1816 51.3128 11.3314 51.1924 11.4551C51.0719 11.5755 50.9238 11.6357 50.748 11.6357C50.569 11.6357 50.4176 11.5755 50.2939 11.4551C50.1735 11.3346 50.1133 11.1849 50.1133 11.0059C50.1133 10.8268 50.1735 10.6787 50.2939 10.5615C50.4176 10.4411 50.569 10.3809 50.748 10.3809C50.9238 10.3809 51.0719 10.4427 51.1924 10.5664C51.3128 10.6868 51.373 10.8333 51.373 11.0059ZM49.5957 11.0059C49.5957 11.1816 49.5339 11.3314 49.4102 11.4551C49.2865 11.5755 49.1367 11.6357 48.9609 11.6357C48.7819 11.6357 48.6322 11.5771 48.5117 11.46C48.3945 11.3395 48.3359 11.1882 48.3359 11.0059C48.3359 10.8333 48.3962 10.6868 48.5166 10.5664C48.637 10.4427 48.7852 10.3809 48.9609 10.3809C49.1367 10.3809 49.2865 10.4427 49.4102 10.5664C49.5339 10.6868 49.5957 10.8333 49.5957 11.0059ZM55.1865 8.06641L55.123 8.60352C54.6868 8.93555 54.2588 9.10156 53.8389 9.10156C53.6729 9.10156 53.4303 9.05436 53.1113 8.95996C52.7956 8.8623 52.5547 8.81348 52.3887 8.81348C52.0892 8.81348 51.7539 8.88509 51.3828 9.02832L51.5439 8.44727C51.9281 8.24219 52.2568 8.13965 52.5303 8.13965C52.7061 8.13965 52.9616 8.18522 53.2969 8.27637C53.6322 8.36751 53.8861 8.41309 54.0586 8.41309C54.4004 8.41309 54.7764 8.29753 55.1865 8.06641ZM53.5264 15H52.335V10.5713C52.4131 10.4053 52.5872 10.2067 52.8574 9.97559C53.1048 9.764 53.3278 9.611 53.5264 9.5166V15Z" fill="#303030"/>
<path fill-rule="evenodd" clip-rule="evenodd" d="M67.4998 24.3665L59.5518 19.7729V3.14844L67.4998 7.74204L75.4479 3.14844V19.7729L67.4998 24.3665Z" fill="#8D8D8D"/>
<path fill-rule="evenodd" clip-rule="evenodd" d="M59 20.087V2.19629L67.5 7.10889L76 2.19629V20.087L67.5 24.9996L59 20.087ZM67.5 7.74199L59.5519 3.14839V19.7729L67.5 24.3665L75.4481 19.7729V3.14839L67.5 7.74199Z" fill="#101010"/>
<path d="M67.5 8.94278L75.4481 4.36133V19.7739L67.5 24.3675V8.94278Z" fill="#434343"/>
<path fill-rule="evenodd" clip-rule="evenodd" d="M74.4407 17.6201L67.4999 21.6326L60.5508 17.6202L60.5454 18.1412L67.4916 22.152L67.4916 22.1537L67.4931 22.1528L67.4946 22.1537L67.4946 22.152L74.4408 18.1412L74.4407 17.6201Z" fill="#101010"/>
<path fill-rule="evenodd" clip-rule="evenodd" d="M74.4407 12.7529L67.4999 16.7655L60.5508 12.753L60.5454 13.274L67.4916 17.2848L67.4916 17.2865L67.4931 17.2856L67.4946 17.2865L67.4946 17.2848L74.4408 13.274L74.4407 12.7529Z" fill="#101010"/>
<path fill-rule="evenodd" clip-rule="evenodd" d="M74.4407 14.7422L67.4999 18.7547L60.5508 14.7422L60.5454 15.2633L67.4916 19.274L67.4916 19.2758L67.4931 19.2749L67.4946 19.2757L67.4946 19.274L74.4408 15.2633L74.4407 14.7422Z" fill="white"/>
<path fill-rule="evenodd" clip-rule="evenodd" d="M74.4407 9.87598L67.4999 13.8885L60.5508 9.87603L60.5454 10.3971L67.4916 14.4078L67.4916 14.4096L67.4931 14.4087L67.4946 14.4095L67.4946 14.4078L74.4408 10.3971L74.4407 9.87598Z" fill="white"/>
<path fill-rule="evenodd" clip-rule="evenodd" d="M74.4407 15.8701L67.5 19.8826L67.4999 19.8844L60.5508 15.8719L60.5454 17.1789L67.4914 21.1896L67.4914 21.191L67.4927 21.1903L67.4946 21.1914L67.4946 21.1892L74.4405 17.1786L74.4407 15.8701Z" fill="#BDBDBD"/>
<path fill-rule="evenodd" clip-rule="evenodd" d="M74.4407 11.0029L67.5 15.0155L67.4999 15.0172L60.5508 11.0048L60.5454 12.3117L67.4914 16.3224L67.4914 16.3238L67.4927 16.3231L67.4946 16.3242L67.4946 16.322L74.4405 12.3114L74.4407 11.0029Z" fill="#BDBDBD"/>
<path d="M67.2958 0.134739C67.3712 -0.0449132 67.6281 -0.0449128 67.7035 0.134739L69.156 3.59469C69.1878 3.67043 69.2597 3.72218 69.3422 3.72873L73.1123 4.02819C73.308 4.04374 73.3874 4.28578 73.2382 4.41236L70.3658 6.85018C70.303 6.90355 70.2755 6.98728 70.2947 7.06706L71.1723 10.7121C71.2178 10.9014 71.01 11.0509 70.8424 10.9495L67.6147 8.99623C67.5441 8.95347 67.4552 8.95347 67.3846 8.99623L64.1569 10.9495C63.9893 11.0509 63.7815 10.9014 63.827 10.7121L64.7046 7.06706C64.7238 6.98728 64.6963 6.90355 64.6335 6.85018L61.7611 4.41236C61.6119 4.28578 61.6913 4.04374 61.887 4.02819L65.6571 3.72873C65.7396 3.72218 65.8115 3.67043 65.8433 3.59469L67.2958 0.134739Z" fill="url(#paint0_radial_1751_2806)"/>
<path fill-rule="evenodd" clip-rule="evenodd" d="M67.4996 0.788341L66.251 3.7627C66.1556 3.98991 65.94 4.14515 65.6924 4.16482L62.4514 4.42225L64.9207 6.51793C65.1093 6.67802 65.1917 6.92921 65.1341 7.16857L64.3797 10.302L67.1544 8.62288C67.3664 8.49461 67.6329 8.49461 67.8449 8.62288L70.6196 10.302L69.8652 7.16857C69.8076 6.92921 69.89 6.67802 70.0786 6.51793L72.5479 4.42225L69.3069 4.16482C69.0593 4.14515 68.8437 3.98991 68.7483 3.7627L67.4996 0.788341ZM67.7035 0.134739C67.6281 -0.0449128 67.3712 -0.0449132 67.2958 0.134739L65.8433 3.59469C65.8115 3.67043 65.7396 3.72218 65.6571 3.72873L61.887 4.02819C61.6913 4.04374 61.6119 4.28578 61.7611 4.41236L64.6335 6.85018C64.6963 6.90355 64.7238 6.98728 64.7046 7.06706L63.827 10.7121C63.7815 10.9014 63.9893 11.0509 64.1569 10.9495L67.3846 8.99623C67.4552 8.95347 67.5441 8.95347 67.6147 8.99623L70.8424 10.9495C71.01 11.0509 71.2178 10.9014 71.1723 10.7121L70.2947 7.06706C70.2755 6.98728 70.303 6.90355 70.3658 6.85018L73.2382 4.41236C73.3874 4.28578 73.308 4.04374 73.1123 4.02819L69.3422 3.72873C69.2597 3.72218 69.1878 3.67043 69.156 3.59469L67.7035 0.134739Z" fill="black"/>
<defs>
<radialGradient id="paint0_radial_1751_2806" cx="0" cy="0" r="1" gradientUnits="userSpaceOnUse" gradientTransform="translate(67.4997 6.04737) rotate(90) scale(6.39823 6.45779)">
<stop stop-color="#FEE744"/>
<stop offset="0.455" stop-color="#FCC628"/>
</radialGradient>
</defs>
</svg>
