<svg width="25" height="19" viewBox="0 0 25 19" fill="none" xmlns="http://www.w3.org/2000/svg">
<path fill-rule="evenodd" clip-rule="evenodd" d="M23.7484 9.3335C23.7484 13.7513 18.6919 17.3335 12.4543 17.3335C6.21669 17.3335 1.16016 13.7513 1.16016 9.3335C1.16016 4.91572 6.21669 1.3335 12.4543 1.3335C18.6919 1.3335 23.7484 4.91572 23.7484 9.3335Z" stroke="#429F56" stroke-width="1.5" stroke-linecap="round" stroke-linejoin="round"/>
<path fill-rule="evenodd" clip-rule="evenodd" d="M15.2776 9.3338C15.3125 10.4704 14.7821 11.5375 13.8941 12.1171C13.0061 12.6968 11.902 12.6968 11.014 12.1171C10.1261 11.5375 9.59565 10.4704 9.63053 9.3338C9.59565 8.19723 10.1261 7.13015 11.014 6.55048C11.902 5.9708 13.0061 5.9708 13.8941 6.55048C14.7821 7.13015 15.3125 8.19723 15.2776 9.3338V9.3338Z" stroke="#429F56" stroke-width="2" stroke-linecap="round" stroke-linejoin="round"/>
</svg>
