<svg width="19" height="14" viewBox="0 0 19 14" fill="none" xmlns="http://www.w3.org/2000/svg">
<path fill-rule="evenodd" clip-rule="evenodd" d="M18.5 6.99951C18.5 10.5199 14.4706 13.3745 9.5 13.3745C4.52943 13.3745 0.5 10.5199 0.5 6.99951C0.5 3.4791 4.52943 0.624512 9.5 0.624512C14.4706 0.624512 18.5 3.4791 18.5 6.99951Z" stroke="url(#paint0_linear_5935_13732)" stroke-width="0.7" stroke-linecap="round" stroke-linejoin="round"/>
<path fill-rule="evenodd" clip-rule="evenodd" d="M11.7493 6.99995C11.7771 7.90566 11.3545 8.75599 10.6469 9.21792C9.93928 9.67984 9.05939 9.67984 8.3518 9.21792C7.64421 8.75599 7.22155 7.90566 7.24934 6.99995C7.22155 6.09424 7.64421 5.24392 8.3518 4.78199C9.05939 4.32007 9.93928 4.32007 10.6469 4.78199C11.3545 5.24392 11.7771 6.09424 11.7493 6.99995V6.99995Z" stroke="url(#paint1_linear_5935_13732)" stroke-width="0.7" stroke-linecap="round" stroke-linejoin="round"/>
<defs>
<linearGradient id="paint0_linear_5935_13732" x1="9.5" y1="0.624512" x2="9.5" y2="13.3745" gradientUnits="userSpaceOnUse">
<stop stop-color="#00BD61"/>
<stop offset="1" stop-color="#303030"/>
</linearGradient>
<linearGradient id="paint1_linear_5935_13732" x1="9.49934" y1="4.43555" x2="9.49934" y2="9.56436" gradientUnits="userSpaceOnUse">
<stop stop-color="#00BD61"/>
<stop offset="1" stop-color="#303030"/>
</linearGradient>
</defs>
</svg>
