<svg width="25" height="18" viewBox="0 0 25 18" fill="none" xmlns="http://www.w3.org/2000/svg">
<path fill-rule="evenodd" clip-rule="evenodd" d="M23.7484 9.00049C23.7484 13.4183 18.6919 17.0005 12.4543 17.0005C6.21669 17.0005 1.16016 13.4183 1.16016 9.00049C1.16016 4.58271 6.21669 1.00049 12.4543 1.00049C18.6919 1.00049 23.7484 4.58271 23.7484 9.00049Z" stroke="#636363" stroke-width="1.5" stroke-linecap="round" stroke-linejoin="round"/>
<path fill-rule="evenodd" clip-rule="evenodd" d="M15.2776 9.00079C15.3125 10.1374 14.7821 11.2044 13.8941 11.7841C13.0061 12.3638 11.902 12.3638 11.014 11.7841C10.1261 11.2044 9.59565 10.1374 9.63053 9.00079C9.59565 7.86422 10.1261 6.79714 11.014 6.21747C11.902 5.6378 13.0061 5.6378 13.8941 6.21747C14.7821 6.79714 15.3125 7.86422 15.2776 9.00079V9.00079Z" stroke="#A6A6A6" stroke-width="2" stroke-linecap="round" stroke-linejoin="round"/>
</svg>
