<svg width="26" height="26" viewBox="0 0 26 26" fill="none" xmlns="http://www.w3.org/2000/svg">
<path fill-rule="evenodd" clip-rule="evenodd" d="M11.8 25.001C11.1716 25.001 10.6355 24.5461 10.5332 23.9261C10.439 23.4245 10.0778 23.0147 9.59201 22.8581C9.19617 22.7222 8.80915 22.5619 8.43315 22.3781C7.98575 22.1493 7.44904 22.1835 7.0343 22.4673C6.53241 22.8282 5.84295 22.7723 5.40573 22.3353L3.70516 20.6347C3.24749 20.177 3.18803 19.4554 3.56459 18.929C3.855 18.5047 3.89683 17.9576 3.6743 17.4941C3.52768 17.1721 3.39835 16.8425 3.28687 16.5067C3.12721 15.9775 2.6865 15.5811 2.14344 15.4781C1.48856 15.3735 1.00511 14.811 1.00002 14.1478V12.0204C0.99653 11.256 1.54865 10.6021 2.30287 10.4775C2.87504 10.3687 3.35281 9.97681 3.57144 9.43698C3.63659 9.28498 3.70516 9.13412 3.77716 8.98441C4.06794 8.42459 4.02777 7.75031 3.67259 7.22898C3.22839 6.61162 3.2966 5.76342 3.83373 5.22498L5.08344 3.97526C5.69981 3.35868 6.67191 3.27888 7.38058 3.78669L7.42001 3.81412C7.94919 4.17029 8.62256 4.23478 9.20973 3.98555C9.83788 3.75946 10.3008 3.21967 10.4286 2.56441L10.4457 2.50612C10.5869 1.63864 11.336 1.00133 12.2149 1.00098H13.7234C14.626 1.00056 15.3964 1.65339 15.544 2.54383L15.5714 2.66383C15.6926 3.29156 16.1316 3.81106 16.7303 4.03526C17.3073 4.28292 17.9708 4.21825 18.4891 3.86383L18.5749 3.80212C19.3019 3.27813 20.3017 3.35872 20.9354 3.99241L22.0857 5.14441C22.6622 5.72411 22.7347 6.63571 22.2571 7.29926C21.883 7.85387 21.8353 8.56655 22.132 9.16612L22.2057 9.33755C22.446 9.92291 22.9658 10.3472 23.5874 10.4655C24.3998 10.598 24.9973 11.2984 25 12.1215V14.0295C24.9998 14.7553 24.4748 15.3745 23.7589 15.4935C23.17 15.6065 22.6903 16.0328 22.5091 16.6044C22.4291 16.833 22.34 17.0615 22.2417 17.2901C22.013 17.7923 22.0637 18.3776 22.3754 18.833C22.7868 19.4052 22.7229 20.1912 22.2246 20.6895L20.6286 22.2873C20.1721 22.7436 19.4524 22.8024 18.928 22.4261C18.4903 22.1271 17.9232 22.0941 17.4537 22.3404C17.1192 22.5061 16.7759 22.6532 16.4251 22.781C15.9348 22.9501 15.5734 23.3699 15.4789 23.8798C15.3789 24.5214 14.8288 24.9961 14.1794 25.001H11.8Z" stroke="url(#paint0_linear_4933_1801)" stroke-width="2" stroke-linecap="round" stroke-linejoin="round"/>
<path fill-rule="evenodd" clip-rule="evenodd" d="M17.0067 12.9975C17.0067 15.2063 15.2161 16.9969 13.0072 16.9969C10.7984 16.9969 9.00781 15.2063 9.00781 12.9975C9.00781 10.7887 10.7984 8.99805 13.0072 8.99805C15.2161 8.99805 17.0067 10.7887 17.0067 12.9975Z" stroke="url(#paint1_linear_4933_1801)" stroke-width="2" stroke-linecap="round" stroke-linejoin="round"/>
<defs>
<linearGradient id="paint0_linear_4933_1801" x1="13" y1="-1.99902" x2="13" y2="25.001" gradientUnits="userSpaceOnUse">
<stop stop-color="#E2E2E2"/>
<stop offset="1" stop-color="#303030"/>
</linearGradient>
<linearGradient id="paint1_linear_4933_1801" x1="13.0072" y1="8.99805" x2="13.0072" y2="16.9969" gradientUnits="userSpaceOnUse">
<stop stop-color="#E2E2E2"/>
<stop offset="1" stop-color="#303030"/>
</linearGradient>
</defs>
</svg>
