<svg width="30" height="29" viewBox="0 0 30 29" fill="none" xmlns="http://www.w3.org/2000/svg">
<g filter="url(#filter0_d_2611_59507)">
<path d="M21.2818 7.53468C23.3586 7.53468 25.0491 5.84486 25.0491 3.76734C25.0491 1.68982 23.3586 0 21.2818 0C19.205 0 17.5145 1.68982 17.5145 3.76734C17.5145 4.12969 17.5692 4.47834 17.6645 4.80987L11.2668 8.00868C10.9191 7.54125 10.4666 7.16191 9.94569 6.90114C9.42475 6.64037 8.8499 6.50545 8.26734 6.50723C6.18982 6.50723 4.5 8.19705 4.5 10.2746C4.5 12.3521 6.18982 14.0419 8.26734 14.0419C8.85007 14.0439 9.42513 13.9092 9.94632 13.6485C10.4675 13.3879 10.9203 13.0086 11.2682 12.5411L17.6645 15.7393C17.5686 16.0708 17.5145 16.4194 17.5145 16.7818C17.5145 18.8593 19.205 20.5491 21.2818 20.5491C23.3586 20.5491 25.0491 18.8593 25.0491 16.7818C25.0491 14.7043 23.3586 13.0145 21.2818 13.0145C20.6995 13.015 20.1253 13.1508 19.6044 13.4111C19.0836 13.6715 18.6303 14.0492 18.2802 14.5145L11.8812 11.3157C11.9792 10.9801 12.0347 10.6328 12.0347 10.2746C12.0347 9.91564 11.9792 9.56836 11.8812 9.23341L18.2802 6.0346C18.6302 6.49999 19.0835 6.87774 19.6044 7.13806C20.1253 7.39838 20.6995 7.53415 21.2818 7.53468ZM21.2818 14.3844C22.6038 14.3844 23.6792 15.4598 23.6792 16.7818C23.6792 18.1038 22.6038 19.1792 21.2818 19.1792C19.9598 19.1792 18.8844 18.1038 18.8844 16.7818C18.8844 15.4598 19.9598 14.3844 21.2818 14.3844ZM8.26734 12.672C6.94535 12.672 5.86994 11.5966 5.86994 10.2746C5.86994 8.95257 6.94535 7.87717 8.26734 7.87717C8.71355 7.87481 9.15135 7.99847 9.53039 8.23392C9.90943 8.46936 10.2143 8.80703 10.4099 9.20807C10.5791 9.54028 10.6647 9.8992 10.6647 10.2746C10.6647 10.6499 10.5791 11.0089 10.4065 11.3479C10.2104 11.7474 9.90573 12.0834 9.52737 12.3176C9.14901 12.5518 8.71231 12.6746 8.26734 12.672ZM21.2818 1.36994C22.6038 1.36994 23.6792 2.44535 23.6792 3.76734C23.6792 5.08933 22.6038 6.16474 21.2818 6.16474C19.9598 6.16474 18.8844 5.08933 18.8844 3.76734C18.8844 2.44535 19.9598 1.36994 21.2818 1.36994Z" fill="white"/>
</g>
<defs>
<filter id="filter0_d_2611_59507" x="0.5" y="0" width="28.5488" height="28.5493" filterUnits="userSpaceOnUse" color-interpolation-filters="sRGB">
<feFlood flood-opacity="0" result="BackgroundImageFix"/>
<feColorMatrix in="SourceAlpha" type="matrix" values="0 0 0 0 0 0 0 0 0 0 0 0 0 0 0 0 0 0 127 0" result="hardAlpha"/>
<feOffset dy="4"/>
<feGaussianBlur stdDeviation="2"/>
<feComposite in2="hardAlpha" operator="out"/>
<feColorMatrix type="matrix" values="0 0 0 0 0 0 0 0 0 0 0 0 0 0 0 0 0 0 0.25 0"/>
<feBlend mode="normal" in2="BackgroundImageFix" result="effect1_dropShadow_2611_59507"/>
<feBlend mode="normal" in="SourceGraphic" in2="effect1_dropShadow_2611_59507" result="shape"/>
</filter>
</defs>
</svg>
