<svg width="114" height="23" viewBox="0 0 114 23" fill="none" xmlns="http://www.w3.org/2000/svg">
<path d="M13.7341 15.4828H13V14.153H13.8618C14.0776 14.153 14.2235 14.1389 14.2995 14.1107C14.4636 14.0449 14.5457 13.9024 14.5457 13.6831C14.5457 13.3573 14.4469 12.9908 14.2493 12.5836L15.3573 12.1278C15.4363 12.4473 15.4758 12.7668 15.4758 13.0863C15.4758 13.7787 15.3406 14.3378 15.07 14.7639C14.76 15.2432 14.3147 15.4828 13.7341 15.4828ZM14.8284 11.968V10.751H16.0002V11.968H14.8284ZM13.3101 11.968V10.751H14.4819V11.968H13.3101Z" fill="#A6A6A6"/>
<path d="M11.713 14.2287C11.6887 14.0532 11.6112 13.9044 11.4805 13.7823C11.3407 13.6538 11.1735 13.5896 10.9789 13.5896C10.7844 13.5896 10.6871 13.6851 10.6871 13.8762C10.6871 13.9264 10.7008 13.9671 10.7282 13.9984C10.8862 14.1801 11.1005 14.2709 11.371 14.2709C11.4805 14.2709 11.5945 14.2568 11.713 14.2287ZM12.4973 14.1535H13.1675V15.4833H12.4197C12.2252 16.3103 11.8255 17.0151 11.2206 17.5978C10.5914 18.1993 9.90895 18.5 9.17334 18.5L9.3466 17.1796C9.87551 17.1796 10.3634 16.9854 10.8102 16.5969C11.2358 16.2273 11.4486 15.8467 11.4486 15.4551C11.3969 15.4613 11.3437 15.4645 11.289 15.4645C10.9242 15.4645 10.6096 15.383 10.3451 15.2201C10.0199 15.0196 9.85727 14.7299 9.85727 14.3508C9.85727 13.8715 10.0123 13.4345 10.3223 13.0398C10.6142 12.6702 10.906 12.4854 11.1978 12.4854C11.4957 12.4854 11.7617 12.6154 11.9957 12.8754C12.2693 13.1792 12.4365 13.6053 12.4973 14.1535Z" fill="#A6A6A6"/>
<path d="M7.46858 13.9794C7.46858 13.8603 7.38803 13.7319 7.22692 13.594C7.08102 13.4719 6.93207 13.3873 6.78008 13.3403L6.50651 14.078C6.70409 14.2002 6.90471 14.2613 7.10837 14.2613C7.34851 14.2613 7.46858 14.1673 7.46858 13.9794ZM8.48992 14.4305C8.38353 15.2199 7.96709 15.6146 7.2406 15.6146C7.11293 15.6146 6.98071 15.5989 6.84392 15.5676C6.54907 15.5049 6.34997 15.4157 6.24662 15.2998C6.17366 15.2152 6.11439 15.0554 6.06879 14.8205C5.65843 15.2622 5.23287 15.483 4.79211 15.483H4.5459V14.1532H4.80579C5.21919 14.1532 5.49581 14.0154 5.63563 13.7397C5.70555 13.5987 5.79218 13.3466 5.89553 12.9832C5.98976 12.6637 6.07943 12.4412 6.16454 12.3159C6.29221 12.1248 6.46851 12.0293 6.69345 12.0293C7.02478 12.0293 7.40019 12.2533 7.81967 12.7012C8.27866 13.1931 8.50816 13.7006 8.50816 14.2237C8.50816 14.2926 8.50208 14.3615 8.48992 14.4305Z" fill="#A6A6A6"/>
<path d="M4.78811 15.4831H1.80615V14.1533H4.78811V15.4831Z" fill="#A6A6A6"/>
<path d="M2.08828 14.153V15.4828H1.49098C0.913433 15.4828 0.506112 15.2713 0.269014 14.8484C0.0896714 14.5258 0 14.034 0 13.373C0 13.2163 0.00455956 13.03 0.0136787 12.8138C0.0683935 11.6328 0.186942 10.5708 0.369325 9.62793L1.48642 9.98505C1.2706 11.0032 1.14141 11.91 1.09885 12.7057C1.0867 12.9563 1.08062 13.1459 1.08062 13.2743C1.08062 13.6001 1.12165 13.8241 1.20372 13.9462C1.29188 14.0841 1.45754 14.153 1.70072 14.153H2.08828Z" fill="#A6A6A6"/>
<path d="M8.06193 8.97808C7.91602 9.77063 7.48438 10.4347 6.76701 10.9704C6.07092 11.4842 5.30035 11.7411 4.45531 11.7411C3.61331 11.7411 2.9385 11.5202 2.43087 11.0785C1.94147 10.6525 1.69678 10.1027 1.69678 9.42918C1.69678 8.78073 2.00379 8.12757 2.61781 7.46972C3.15888 6.88706 3.86713 6.37174 4.74257 5.92378V7.21598C4.25013 7.41334 3.78354 7.69527 3.34278 8.06179C2.81691 8.49409 2.55398 8.8841 2.55398 9.23182C2.55398 9.57015 2.75916 9.84268 3.16952 10.0494C3.56468 10.2499 4.05863 10.3502 4.65137 10.3502C5.40522 10.3502 6.0238 10.1841 6.50712 9.85208C7.02995 9.49183 7.29136 8.99531 7.29136 8.36252C7.29136 7.84251 7.11962 7.2708 6.77613 6.64741L7.87955 6.28559C8.07105 6.72416 8.1668 7.25357 8.1668 7.87383C8.1668 8.24348 8.13184 8.61156 8.06193 8.97808ZM5.45842 5.71702V4.5H6.63023V5.71702H5.45842Z" fill="#A6A6A6"/>
<path d="M19.747 15.6574C19.747 15.069 19.7429 14.4725 19.7348 13.8678C19.7307 13.2632 19.7145 12.6646 19.6861 12.0722C19.6577 11.4757 19.6151 10.8933 19.5583 10.3252C19.5055 9.7571 19.4304 9.2113 19.333 8.68783C19.2397 8.16029 19.122 7.66522 18.98 7.20261C18.838 6.73594 18.6635 6.31188 18.4565 5.93043L20.167 4.86522C20.3983 5.22638 20.591 5.6058 20.7452 6.00348C20.8994 6.40116 21.0293 6.81304 21.1348 7.23913C21.2403 7.66116 21.3275 8.09739 21.3965 8.54783C21.4696 8.99826 21.5365 9.45478 21.5974 9.91739C21.642 10.2786 21.6765 10.6661 21.7009 11.08C21.7293 11.4939 21.7516 11.9159 21.7678 12.3461C21.7841 12.7722 21.7942 13.1962 21.7983 13.6183C21.8023 14.0362 21.8043 14.4278 21.8043 14.793V15.0791V15.6574H19.747ZM25.0113 12.2548C25.0113 12.3928 25.0356 12.5226 25.0843 12.6443C25.1371 12.762 25.2081 12.8675 25.2974 12.9609C25.3907 13.0501 25.4962 13.1212 25.6139 13.1739C25.7356 13.2226 25.8655 13.247 26.0035 13.247C26.1455 13.247 26.2774 13.2226 26.3991 13.1739C26.5209 13.1212 26.6264 13.0501 26.7156 12.9609C26.809 12.8675 26.882 12.762 26.9348 12.6443C26.9916 12.5226 27.02 12.3928 27.02 12.2548C27.02 12.1128 26.9916 11.9809 26.9348 11.8591C26.882 11.7374 26.809 11.6319 26.7156 11.5426C26.6264 11.4493 26.5209 11.3762 26.3991 11.3235C26.2774 11.2667 26.1455 11.2383 26.0035 11.2383C25.8655 11.2383 25.7356 11.2667 25.6139 11.3235C25.4962 11.3762 25.3907 11.4493 25.2974 11.5426C25.2081 11.6319 25.1371 11.7374 25.0843 11.8591C25.0356 11.9809 25.0113 12.1128 25.0113 12.2548ZM23.5017 12.2548C23.5017 11.9099 23.5667 11.5852 23.6965 11.2809C23.8304 10.9725 24.009 10.7046 24.2322 10.4774C24.4594 10.2501 24.7252 10.0696 25.0296 9.93565C25.3339 9.80174 25.6585 9.73478 26.0035 9.73478C26.3484 9.73478 26.673 9.80174 26.9774 9.93565C27.2858 10.0696 27.5536 10.2501 27.7809 10.4774C28.0081 10.7046 28.1887 10.9725 28.3226 11.2809C28.4565 11.5852 28.5235 11.9099 28.5235 12.2548C28.5235 12.5997 28.4565 12.9243 28.3226 13.2287C28.1887 13.533 28.0081 13.7988 27.7809 14.0261C27.5536 14.2493 27.2858 14.4278 26.9774 14.5617C26.673 14.6916 26.3484 14.7565 26.0035 14.7565C25.6585 14.7565 25.3339 14.6916 25.0296 14.5617C24.7252 14.4278 24.4594 14.2493 24.2322 14.0261C24.009 13.7988 23.8304 13.533 23.6965 13.2287C23.5667 12.9243 23.5017 12.5997 23.5017 12.2548ZM31.1636 12.2548C31.1636 12.3928 31.188 12.5226 31.2367 12.6443C31.2894 12.762 31.3604 12.8675 31.4497 12.9609C31.5431 13.0501 31.6486 13.1212 31.7662 13.1739C31.888 13.2226 32.0178 13.247 32.1558 13.247C32.2978 13.247 32.4297 13.2226 32.5515 13.1739C32.6732 13.1212 32.7787 13.0501 32.868 12.9609C32.9613 12.8675 33.0344 12.762 33.0871 12.6443C33.1439 12.5226 33.1723 12.3928 33.1723 12.2548C33.1723 12.1128 33.1439 11.9809 33.0871 11.8591C33.0344 11.7374 32.9613 11.6319 32.868 11.5426C32.7787 11.4493 32.6732 11.3762 32.5515 11.3235C32.4297 11.2667 32.2978 11.2383 32.1558 11.2383C32.0178 11.2383 31.888 11.2667 31.7662 11.3235C31.6486 11.3762 31.5431 11.4493 31.4497 11.5426C31.3604 11.6319 31.2894 11.7374 31.2367 11.8591C31.188 11.9809 31.1636 12.1128 31.1636 12.2548ZM29.6541 12.2548C29.6541 11.9099 29.719 11.5852 29.8489 11.2809C29.9828 10.9725 30.1613 10.7046 30.3845 10.4774C30.6118 10.2501 30.8776 10.0696 31.1819 9.93565C31.4862 9.80174 31.8109 9.73478 32.1558 9.73478C32.5007 9.73478 32.8254 9.80174 33.1297 9.93565C33.4381 10.0696 33.706 10.2501 33.9332 10.4774C34.1604 10.7046 34.341 10.9725 34.4749 11.2809C34.6089 11.5852 34.6758 11.9099 34.6758 12.2548C34.6758 12.5997 34.6089 12.9243 34.4749 13.2287C34.341 13.533 34.1604 13.7988 33.9332 14.0261C33.706 14.2493 33.4381 14.4278 33.1297 14.5617C32.8254 14.6916 32.5007 14.7565 32.1558 14.7565C31.8109 14.7565 31.4862 14.6916 31.1819 14.5617C30.8776 14.4278 30.6118 14.2493 30.3845 14.0261C30.1613 13.7988 29.9828 13.533 29.8489 13.2287C29.719 12.9243 29.6541 12.5997 29.6541 12.2548ZM36.1169 14.6896C36.1169 14.3528 36.2305 14.0788 36.4577 13.8678C36.685 13.6568 36.9711 13.5513 37.316 13.5513C37.665 13.5513 37.9531 13.6568 38.1803 13.8678C38.4076 14.0788 38.5212 14.3528 38.5212 14.6896C38.5212 15.0223 38.4076 15.2922 38.1803 15.4991C37.9571 15.7101 37.669 15.8157 37.316 15.8157C36.967 15.8157 36.6789 15.7101 36.4516 15.4991C36.2284 15.2922 36.1169 15.0223 36.1169 14.6896ZM41.7047 12.2548C41.7047 12.3928 41.729 12.5226 41.7777 12.6443C41.8305 12.762 41.9015 12.8675 41.9907 12.9609C42.0841 13.0501 42.1896 13.1212 42.3073 13.1739C42.429 13.2226 42.5589 13.247 42.6968 13.247C42.8389 13.247 42.9707 13.2226 43.0925 13.1739C43.2142 13.1212 43.3197 13.0501 43.409 12.9609C43.5023 12.8675 43.5754 12.762 43.6281 12.6443C43.6849 12.5226 43.7133 12.3928 43.7133 12.2548C43.7133 12.1128 43.6849 11.9809 43.6281 11.8591C43.5754 11.7374 43.5023 11.6319 43.409 11.5426C43.3197 11.4493 43.2142 11.3762 43.0925 11.3235C42.9707 11.2667 42.8389 11.2383 42.6968 11.2383C42.5589 11.2383 42.429 11.2667 42.3073 11.3235C42.1896 11.3762 42.0841 11.4493 41.9907 11.5426C41.9015 11.6319 41.8305 11.7374 41.7777 11.8591C41.729 11.9809 41.7047 12.1128 41.7047 12.2548ZM40.1951 12.2548C40.1951 11.9099 40.26 11.5852 40.3899 11.2809C40.5238 10.9725 40.7023 10.7046 40.9255 10.4774C41.1528 10.2501 41.4186 10.0696 41.7229 9.93565C42.0273 9.80174 42.3519 9.73478 42.6968 9.73478C43.0418 9.73478 43.3664 9.80174 43.6707 9.93565C43.9791 10.0696 44.247 10.2501 44.4742 10.4774C44.7015 10.7046 44.882 10.9725 45.016 11.2809C45.1499 11.5852 45.2168 11.9099 45.2168 12.2548C45.2168 12.5997 45.1499 12.9243 45.016 13.2287C44.882 13.533 44.7015 13.7988 44.4742 14.0261C44.247 14.2493 43.9791 14.4278 43.6707 14.5617C43.3664 14.6916 43.0418 14.7565 42.6968 14.7565C42.3519 14.7565 42.0273 14.6916 41.7229 14.5617C41.4186 14.4278 41.1528 14.2493 40.9255 14.0261C40.7023 13.7988 40.5238 13.533 40.3899 13.2287C40.26 12.9243 40.1951 12.5997 40.1951 12.2548ZM47.857 12.2548C47.857 12.3928 47.8813 12.5226 47.93 12.6443C47.9828 12.762 48.0538 12.8675 48.1431 12.9609C48.2364 13.0501 48.3419 13.1212 48.4596 13.1739C48.5813 13.2226 48.7112 13.247 48.8492 13.247C48.9912 13.247 49.1231 13.2226 49.2448 13.1739C49.3666 13.1212 49.4721 13.0501 49.5613 12.9609C49.6547 12.8675 49.7277 12.762 49.7805 12.6443C49.8373 12.5226 49.8657 12.3928 49.8657 12.2548C49.8657 12.1128 49.8373 11.9809 49.7805 11.8591C49.7277 11.7374 49.6547 11.6319 49.5613 11.5426C49.4721 11.4493 49.3666 11.3762 49.2448 11.3235C49.1231 11.2667 48.9912 11.2383 48.8492 11.2383C48.7112 11.2383 48.5813 11.2667 48.4596 11.3235C48.3419 11.3762 48.2364 11.4493 48.1431 11.5426C48.0538 11.6319 47.9828 11.7374 47.93 11.8591C47.8813 11.9809 47.857 12.1128 47.857 12.2548ZM46.3474 12.2548C46.3474 11.9099 46.4124 11.5852 46.5422 11.2809C46.6761 10.9725 46.8547 10.7046 47.0779 10.4774C47.3051 10.2501 47.5709 10.0696 47.8753 9.93565C48.1796 9.80174 48.5042 9.73478 48.8492 9.73478C49.1941 9.73478 49.5187 9.80174 49.8231 9.93565C50.1315 10.0696 50.3993 10.2501 50.6266 10.4774C50.8538 10.7046 51.0344 10.9725 51.1683 11.2809C51.3022 11.5852 51.3692 11.9099 51.3692 12.2548C51.3692 12.5997 51.3022 12.9243 51.1683 13.2287C51.0344 13.533 50.8538 13.7988 50.6266 14.0261C50.3993 14.2493 50.1315 14.4278 49.8231 14.5617C49.5187 14.6916 49.1941 14.7565 48.8492 14.7565C48.5042 14.7565 48.1796 14.6916 47.8753 14.5617C47.5709 14.4278 47.3051 14.2493 47.0779 14.0261C46.8547 13.7988 46.6761 13.533 46.5422 13.2287C46.4124 12.9243 46.3474 12.5997 46.3474 12.2548ZM54.0093 12.2548C54.0093 12.3928 54.0337 12.5226 54.0824 12.6443C54.1351 12.762 54.2062 12.8675 54.2954 12.9609C54.3888 13.0501 54.4943 13.1212 54.6119 13.1739C54.7337 13.2226 54.8635 13.247 55.0015 13.247C55.1435 13.247 55.2754 13.2226 55.3972 13.1739C55.5189 13.1212 55.6244 13.0501 55.7137 12.9609C55.807 12.8675 55.8801 12.762 55.9328 12.6443C55.9896 12.5226 56.018 12.3928 56.018 12.2548C56.018 12.1128 55.9896 11.9809 55.9328 11.8591C55.8801 11.7374 55.807 11.6319 55.7137 11.5426C55.6244 11.4493 55.5189 11.3762 55.3972 11.3235C55.2754 11.2667 55.1435 11.2383 55.0015 11.2383C54.8635 11.2383 54.7337 11.2667 54.6119 11.3235C54.4943 11.3762 54.3888 11.4493 54.2954 11.5426C54.2062 11.6319 54.1351 11.7374 54.0824 11.8591C54.0337 11.9809 54.0093 12.1128 54.0093 12.2548ZM52.4998 12.2548C52.4998 11.9099 52.5647 11.5852 52.6946 11.2809C52.8285 10.9725 53.007 10.7046 53.2302 10.4774C53.4575 10.2501 53.7233 10.0696 54.0276 9.93565C54.3319 9.80174 54.6566 9.73478 55.0015 9.73478C55.3464 9.73478 55.6711 9.80174 55.9754 9.93565C56.2838 10.0696 56.5517 10.2501 56.7789 10.4774C57.0062 10.7046 57.1867 10.9725 57.3206 11.2809C57.4546 11.5852 57.5215 11.9099 57.5215 12.2548C57.5215 12.5997 57.4546 12.9243 57.3206 13.2287C57.1867 13.533 57.0062 13.7988 56.7789 14.0261C56.5517 14.2493 56.2838 14.4278 55.9754 14.5617C55.6711 14.6916 55.3464 14.7565 55.0015 14.7565C54.6566 14.7565 54.3319 14.6916 54.0276 14.5617C53.7233 14.4278 53.4575 14.2493 53.2302 14.0261C53.007 13.7988 52.8285 13.533 52.6946 13.2287C52.5647 12.9243 52.4998 12.5997 52.4998 12.2548ZM58.9626 14.6896C58.9626 14.3528 59.0762 14.0788 59.3034 13.8678C59.5307 13.6568 59.8168 13.5513 60.1617 13.5513C60.5107 13.5513 60.7988 13.6568 61.026 13.8678C61.2533 14.0788 61.3669 14.3528 61.3669 14.6896C61.3669 15.0223 61.2533 15.2922 61.026 15.4991C60.8028 15.7101 60.5147 15.8157 60.1617 15.8157C59.8127 15.8157 59.5246 15.7101 59.2973 15.4991C59.0741 15.2922 58.9626 15.0223 58.9626 14.6896ZM64.5504 12.2548C64.5504 12.3928 64.5747 12.5226 64.6234 12.6443C64.6762 12.762 64.7472 12.8675 64.8364 12.9609C64.9298 13.0501 65.0353 13.1212 65.153 13.1739C65.2747 13.2226 65.4046 13.247 65.5425 13.247C65.6846 13.247 65.8164 13.2226 65.9382 13.1739C66.0599 13.1212 66.1654 13.0501 66.2547 12.9609C66.348 12.8675 66.4211 12.762 66.4738 12.6443C66.5306 12.5226 66.5591 12.3928 66.5591 12.2548C66.5591 12.1128 66.5306 11.9809 66.4738 11.8591C66.4211 11.7374 66.348 11.6319 66.2547 11.5426C66.1654 11.4493 66.0599 11.3762 65.9382 11.3235C65.8164 11.2667 65.6846 11.2383 65.5425 11.2383C65.4046 11.2383 65.2747 11.2667 65.153 11.3235C65.0353 11.3762 64.9298 11.4493 64.8364 11.5426C64.7472 11.6319 64.6762 11.7374 64.6234 11.8591C64.5747 11.9809 64.5504 12.1128 64.5504 12.2548ZM63.0408 12.2548C63.0408 11.9099 63.1057 11.5852 63.2356 11.2809C63.3695 10.9725 63.548 10.7046 63.7712 10.4774C63.9985 10.2501 64.2643 10.0696 64.5686 9.93565C64.873 9.80174 65.1976 9.73478 65.5425 9.73478C65.8875 9.73478 66.2121 9.80174 66.5164 9.93565C66.8248 10.0696 67.0927 10.2501 67.3199 10.4774C67.5472 10.7046 67.7277 10.9725 67.8617 11.2809C67.9956 11.5852 68.0625 11.9099 68.0625 12.2548C68.0625 12.5997 67.9956 12.9243 67.8617 13.2287C67.7277 13.533 67.5472 13.7988 67.3199 14.0261C67.0927 14.2493 66.8248 14.4278 66.5164 14.5617C66.2121 14.6916 65.8875 14.7565 65.5425 14.7565C65.1976 14.7565 64.873 14.6916 64.5686 14.5617C64.2643 14.4278 63.9985 14.2493 63.7712 14.0261C63.548 13.7988 63.3695 13.533 63.2356 13.2287C63.1057 12.9243 63.0408 12.5997 63.0408 12.2548ZM70.7027 12.2548C70.7027 12.3928 70.727 12.5226 70.7757 12.6443C70.8285 12.762 70.8995 12.8675 70.9888 12.9609C71.0821 13.0501 71.1876 13.1212 71.3053 13.1739C71.427 13.2226 71.5569 13.247 71.6949 13.247C71.8369 13.247 71.9688 13.2226 72.0905 13.1739C72.2123 13.1212 72.3178 13.0501 72.407 12.9609C72.5004 12.8675 72.5734 12.762 72.6262 12.6443C72.683 12.5226 72.7114 12.3928 72.7114 12.2548C72.7114 12.1128 72.683 11.9809 72.6262 11.8591C72.5734 11.7374 72.5004 11.6319 72.407 11.5426C72.3178 11.4493 72.2123 11.3762 72.0905 11.3235C71.9688 11.2667 71.8369 11.2383 71.6949 11.2383C71.5569 11.2383 71.427 11.2667 71.3053 11.3235C71.1876 11.3762 71.0821 11.4493 70.9888 11.5426C70.8995 11.6319 70.8285 11.7374 70.7757 11.8591C70.727 11.9809 70.7027 12.1128 70.7027 12.2548ZM69.1931 12.2548C69.1931 11.9099 69.2581 11.5852 69.3879 11.2809C69.5218 10.9725 69.7004 10.7046 69.9236 10.4774C70.1508 10.2501 70.4166 10.0696 70.721 9.93565C71.0253 9.80174 71.3499 9.73478 71.6949 9.73478C72.0398 9.73478 72.3644 9.80174 72.6688 9.93565C72.9772 10.0696 73.245 10.2501 73.4723 10.4774C73.6995 10.7046 73.8801 10.9725 74.014 11.2809C74.1479 11.5852 74.2149 11.9099 74.2149 12.2548C74.2149 12.5997 74.1479 12.9243 74.014 13.2287C73.8801 13.533 73.6995 13.7988 73.4723 14.0261C73.245 14.2493 72.9772 14.4278 72.6688 14.5617C72.3644 14.6916 72.0398 14.7565 71.6949 14.7565C71.3499 14.7565 71.0253 14.6916 70.721 14.5617C70.4166 14.4278 70.1508 14.2493 69.9236 14.0261C69.7004 13.7988 69.5218 13.533 69.3879 13.2287C69.2581 12.9243 69.1931 12.5997 69.1931 12.2548ZM76.855 12.2548C76.855 12.3928 76.8794 12.5226 76.9281 12.6443C76.9808 12.762 77.0519 12.8675 77.1411 12.9609C77.2345 13.0501 77.34 13.1212 77.4577 13.1739C77.5794 13.2226 77.7092 13.247 77.8472 13.247C77.9892 13.247 78.1211 13.2226 78.2429 13.1739C78.3646 13.1212 78.4701 13.0501 78.5594 12.9609C78.6527 12.8675 78.7258 12.762 78.7785 12.6443C78.8353 12.5226 78.8637 12.3928 78.8637 12.2548C78.8637 12.1128 78.8353 11.9809 78.7785 11.8591C78.7258 11.7374 78.6527 11.6319 78.5594 11.5426C78.4701 11.4493 78.3646 11.3762 78.2429 11.3235C78.1211 11.2667 77.9892 11.2383 77.8472 11.2383C77.7092 11.2383 77.5794 11.2667 77.4577 11.3235C77.34 11.3762 77.2345 11.4493 77.1411 11.5426C77.0519 11.6319 76.9808 11.7374 76.9281 11.8591C76.8794 11.9809 76.855 12.1128 76.855 12.2548ZM75.3455 12.2548C75.3455 11.9099 75.4104 11.5852 75.5403 11.2809C75.6742 10.9725 75.8527 10.7046 76.0759 10.4774C76.3032 10.2501 76.569 10.0696 76.8733 9.93565C77.1777 9.80174 77.5023 9.73478 77.8472 9.73478C78.1921 9.73478 78.5168 9.80174 78.8211 9.93565C79.1295 10.0696 79.3974 10.2501 79.6246 10.4774C79.8519 10.7046 80.0324 10.9725 80.1663 11.2809C80.3003 11.5852 80.3672 11.9099 80.3672 12.2548C80.3672 12.5997 80.3003 12.9243 80.1663 13.2287C80.0324 13.533 79.8519 13.7988 79.6246 14.0261C79.3974 14.2493 79.1295 14.4278 78.8211 14.5617C78.5168 14.6916 78.1921 14.7565 77.8472 14.7565C77.5023 14.7565 77.1777 14.6916 76.8733 14.5617C76.569 14.4278 76.3032 14.2493 76.0759 14.0261C75.8527 13.7988 75.6742 13.533 75.5403 13.2287C75.4104 12.9243 75.3455 12.5997 75.3455 12.2548Z" fill="#636363"/>
<path d="M97.0762 13.1182V14.5H96.7881C96.4886 14.5 96.2673 14.4479 96.124 14.3438C96.124 15.3398 95.8359 16.1732 95.2598 16.8438C94.765 17.4134 94.1074 17.8236 93.2871 18.0742V16.6973C94.5534 16.2708 95.1865 15.5807 95.1865 14.627C95.1865 14.3145 95.1068 13.9727 94.9473 13.6016C94.7975 13.25 94.6087 12.9473 94.3809 12.6934L95.5186 12.1025C95.5576 12.1286 95.6455 12.3141 95.7822 12.6592C95.9027 12.9652 96.0312 13.1182 96.168 13.1182H97.0762ZM99.7178 14.5C99.5583 14.5 99.4313 14.4512 99.3369 14.3535C99.2816 14.2982 99.2295 14.2103 99.1807 14.0898C99.1416 13.9922 99.109 13.9434 99.083 13.9434C99.0732 13.9434 98.9756 14.0361 98.79 14.2217C98.6045 14.4072 98.4222 14.5 98.2432 14.5H96.8955V13.1182H98.0527C98.4857 13.1182 98.8682 12.6396 99.2002 11.6826L100.216 12.1562C100.209 12.1921 100.139 12.3158 100.006 12.5273C99.8757 12.7389 99.8105 12.887 99.8105 12.9717C99.8105 13.0693 99.8805 13.1182 100.021 13.1182H101.007V14.5H99.7178ZM98.9951 10.8477V9.58301H100.25V10.8477H98.9951ZM97.3691 10.8477V9.58301H98.624V10.8477H97.3691ZM103.941 12.9375C103.941 12.8138 103.855 12.6803 103.683 12.5371C103.526 12.4102 103.367 12.3223 103.204 12.2734L102.911 13.04C103.123 13.167 103.338 13.2305 103.556 13.2305C103.813 13.2305 103.941 13.1328 103.941 12.9375ZM105.035 13.4062C104.921 14.2266 104.475 14.6367 103.697 14.6367C103.561 14.6367 103.419 14.6204 103.272 14.5879C102.957 14.5228 102.743 14.43 102.633 14.3096C102.555 14.2217 102.491 14.0557 102.442 13.8115C102.003 14.2705 101.547 14.5 101.075 14.5H100.812V13.1182H101.09C101.533 13.1182 101.829 12.9749 101.979 12.6885C102.053 12.542 102.146 12.2799 102.257 11.9023C102.358 11.5703 102.454 11.3392 102.545 11.209C102.682 11.0104 102.87 10.9111 103.111 10.9111C103.466 10.9111 103.868 11.1439 104.317 11.6094C104.809 12.1204 105.055 12.6478 105.055 13.1914C105.055 13.263 105.048 13.3346 105.035 13.4062ZM109.557 13.1182V14.5H109.269C108.969 14.5 108.748 14.4479 108.604 14.3438C108.604 15.3398 108.316 16.1732 107.74 16.8438C107.245 17.4134 106.588 17.8236 105.768 18.0742V16.6973C107.034 16.2708 107.667 15.5807 107.667 14.627C107.667 14.3145 107.587 13.9727 107.428 13.6016C107.278 13.25 107.089 12.9473 106.861 12.6934L107.999 12.1025C108.038 12.1286 108.126 12.3141 108.263 12.6592C108.383 12.9652 108.512 13.1182 108.648 13.1182H109.557ZM113.995 12.8008C113.995 13.0026 113.886 13.3184 113.668 13.748C113.424 14.2363 113.194 14.4805 112.979 14.4805C112.732 14.4805 112.452 14.4382 112.14 14.3535C111.814 14.2624 111.547 14.1501 111.339 14.0166C111.153 14.1533 110.872 14.2689 110.494 14.3633C110.139 14.4544 109.815 14.5 109.522 14.5H109.376V13.1182H109.684C109.892 13.1182 110.086 13.084 110.265 13.0156C110.115 12.8464 110.04 12.6787 110.04 12.5127C110.04 12.1872 110.141 11.8747 110.343 11.5752L110.035 11.4238V10.1006C110.94 10.3903 111.778 10.7646 112.55 11.2236C113.513 11.8031 113.995 12.3288 113.995 12.8008ZM112.745 13.25C112.784 13.1914 112.804 13.1296 112.804 13.0645C112.804 12.8496 112.659 12.6673 112.369 12.5176C112.33 12.7585 112.208 13.0124 112.003 13.2793C112.179 13.3346 112.33 13.3623 112.457 13.3623C112.6 13.3623 112.696 13.3249 112.745 13.25ZM111.085 12.7373C111.329 12.5973 111.472 12.3792 111.515 12.083C111.349 12.0146 111.192 11.9805 111.046 11.9805C110.903 11.9805 110.81 12.0244 110.768 12.1123C110.742 12.1709 110.729 12.2279 110.729 12.2832C110.729 12.4655 110.847 12.6169 111.085 12.7373Z" fill="url(#paint0_linear_1751_2774)"/>
<path d="M89.2373 8.5H87.5771C87.167 8.5 86.8512 8.3112 86.6299 7.93359C86.249 8.08008 85.9398 8.33887 85.7021 8.70996C85.4645 9.08431 85.3457 9.48307 85.3457 9.90625C85.3457 10.4954 85.598 10.9561 86.1025 11.2881C86.6071 11.6201 87.3053 11.7861 88.1973 11.7861C88.4154 11.7861 88.6416 11.7747 88.876 11.752V13.0996C88.6383 13.1224 88.4072 13.1338 88.1826 13.1338C86.9782 13.1338 86.0179 12.862 85.3018 12.3184C84.5498 11.7487 84.1738 10.9512 84.1738 9.92578C84.1738 9.4375 84.3171 8.94271 84.6035 8.44141C84.8704 7.97917 85.2057 7.5918 85.6094 7.2793V6.91797C85.6094 6.74544 85.4759 6.61849 85.209 6.53711C85.0267 6.47852 84.8249 6.44922 84.6035 6.44922V5.2041C85.5801 4.89811 86.4932 4.74512 87.3428 4.74512C87.7725 4.74512 88.111 4.85091 88.3584 5.0625C88.6058 5.27083 88.7295 5.54427 88.7295 5.88281C88.7295 6.34831 88.4495 6.76009 87.8896 7.11816H89.2373V8.5ZM87.3818 6.09766C87.3623 6.04557 87.2305 6.02116 86.9863 6.02441C86.7487 6.02767 86.5583 6.05208 86.415 6.09766C86.542 6.19857 86.6038 6.3304 86.6006 6.49316C86.6006 6.55827 86.5876 6.62174 86.5615 6.68359C86.7048 6.63477 86.8789 6.54199 87.084 6.40527C87.3053 6.25879 87.4046 6.15625 87.3818 6.09766ZM89.8379 8.5H89.0518V7.11816H89.9746C90.2057 7.11816 90.362 7.10352 90.4434 7.07422C90.6191 7.00586 90.707 6.85775 90.707 6.62988C90.707 6.29134 90.6012 5.91048 90.3896 5.4873L91.5762 5.01367C91.6608 5.3457 91.7031 5.67773 91.7031 6.00977C91.7031 6.72917 91.5583 7.31022 91.2686 7.75293C90.9365 8.25098 90.4596 8.5 89.8379 8.5ZM89.4863 10.4189V9.1543H90.7363V10.4189H89.4863ZM96.2344 7.11816V8.5H95.9463C95.6468 8.5 95.4255 8.44792 95.2822 8.34375C95.2822 9.33984 94.9941 10.1732 94.418 10.8438C93.9232 11.4134 93.2656 11.8236 92.4453 12.0742V10.6973C93.7116 10.2708 94.3447 9.58073 94.3447 8.62695C94.3447 8.31445 94.265 7.97266 94.1055 7.60156C93.9557 7.25 93.7669 6.94727 93.5391 6.69336L94.6768 6.10254C94.7158 6.12858 94.8037 6.31413 94.9404 6.65918C95.0609 6.96517 95.1895 7.11816 95.3262 7.11816H96.2344ZM99.1738 8.5H95.9805V7.11816H99.1738V8.5ZM102.035 8.5H98.8418V7.11816H102.035V8.5ZM104.906 6.9375C104.906 6.8138 104.82 6.68034 104.647 6.53711C104.491 6.41016 104.332 6.32227 104.169 6.27344L103.876 7.04004C104.088 7.16699 104.302 7.23047 104.521 7.23047C104.778 7.23047 104.906 7.13281 104.906 6.9375ZM106 7.40625C105.886 8.22656 105.44 8.63672 104.662 8.63672C104.525 8.63672 104.384 8.62044 104.237 8.58789C103.922 8.52279 103.708 8.43001 103.598 8.30957C103.52 8.22168 103.456 8.05566 103.407 7.81152C102.968 8.27051 102.512 8.5 102.04 8.5H101.776V7.11816H102.055C102.497 7.11816 102.794 6.97493 102.943 6.68848C103.018 6.54199 103.111 6.27995 103.222 5.90234C103.323 5.57031 103.419 5.33919 103.51 5.20898C103.646 5.01042 103.835 4.91113 104.076 4.91113C104.431 4.91113 104.833 5.14388 105.282 5.60938C105.774 6.12044 106.02 6.64779 106.02 7.19141C106.02 7.26302 106.013 7.33464 106 7.40625Z" fill="url(#paint1_linear_1751_2774)"/>
<defs>
<linearGradient id="paint0_linear_1751_2774" x1="114" y1="8.5" x2="91.0135" y2="13.1723" gradientUnits="userSpaceOnUse">
<stop stop-color="#4C8CED"/>
<stop offset="1" stop-color="#38D065"/>
</linearGradient>
<linearGradient id="paint1_linear_1751_2774" x1="84.5" y1="5.5" x2="85.4542" y2="15.8276" gradientUnits="userSpaceOnUse">
<stop stop-color="#4C8CED"/>
<stop offset="1" stop-color="#38D065"/>
</linearGradient>
</defs>
</svg>
