<svg width="31" height="19" viewBox="0 0 31 19" fill="none" xmlns="http://www.w3.org/2000/svg">
<path d="M14.0762 11.1182V12.5H13.7881C13.4886 12.5 13.2673 12.4479 13.124 12.3438C13.124 13.3398 12.8359 14.1732 12.2598 14.8438C11.765 15.4134 11.1074 15.8236 10.2871 16.0742V14.6973C11.5534 14.2708 12.1865 13.5807 12.1865 12.627C12.1865 12.3145 12.1068 11.9727 11.9473 11.6016C11.7975 11.25 11.6087 10.9473 11.3809 10.6934L12.5186 10.1025C12.5576 10.1286 12.6455 10.3141 12.7822 10.6592C12.9027 10.9652 13.0312 11.1182 13.168 11.1182H14.0762ZM16.7178 12.5C16.5583 12.5 16.4313 12.4512 16.3369 12.3535C16.2816 12.2982 16.2295 12.2103 16.1807 12.0898C16.1416 11.9922 16.109 11.9434 16.083 11.9434C16.0732 11.9434 15.9756 12.0361 15.79 12.2217C15.6045 12.4072 15.4222 12.5 15.2432 12.5H13.8955V11.1182H15.0527C15.4857 11.1182 15.8682 10.6396 16.2002 9.68262L17.2158 10.1562C17.2093 10.1921 17.1393 10.3158 17.0059 10.5273C16.8757 10.7389 16.8105 10.887 16.8105 10.9717C16.8105 11.0693 16.8805 11.1182 17.0205 11.1182H18.0068V12.5H16.7178ZM15.9951 8.84766V7.58301H17.25V8.84766H15.9951ZM14.3691 8.84766V7.58301H15.624V8.84766H14.3691ZM20.9414 10.9375C20.9414 10.8138 20.8551 10.6803 20.6826 10.5371C20.5264 10.4102 20.3669 10.3223 20.2041 10.2734L19.9111 11.04C20.1227 11.167 20.3376 11.2305 20.5557 11.2305C20.8128 11.2305 20.9414 11.1328 20.9414 10.9375ZM22.0352 11.4062C21.9212 12.2266 21.4753 12.6367 20.6973 12.6367C20.5605 12.6367 20.4189 12.6204 20.2725 12.5879C19.9567 12.5228 19.7435 12.43 19.6328 12.3096C19.5547 12.2217 19.4912 12.0557 19.4424 11.8115C19.0029 12.2705 18.5472 12.5 18.0752 12.5H17.8115V11.1182H18.0898C18.5326 11.1182 18.8288 10.9749 18.9785 10.6885C19.0534 10.542 19.1462 10.2799 19.2568 9.90234C19.3577 9.57031 19.4538 9.33919 19.5449 9.20898C19.6816 9.01042 19.8704 8.91113 20.1113 8.91113C20.4661 8.91113 20.8682 9.14388 21.3174 9.60938C21.8089 10.1204 22.0547 10.6478 22.0547 11.1914C22.0547 11.263 22.0482 11.3346 22.0352 11.4062ZM26.5566 11.1182V12.5H26.2686C25.9691 12.5 25.7477 12.4479 25.6045 12.3438C25.6045 13.3398 25.3164 14.1732 24.7402 14.8438C24.2454 15.4134 23.5879 15.8236 22.7676 16.0742V14.6973C24.0339 14.2708 24.667 13.5807 24.667 12.627C24.667 12.3145 24.5872 11.9727 24.4277 11.6016C24.278 11.25 24.0892 10.9473 23.8613 10.6934L24.999 10.1025C25.0381 10.1286 25.126 10.3141 25.2627 10.6592C25.3831 10.9652 25.5117 11.1182 25.6484 11.1182H26.5566ZM30.9951 10.8008C30.9951 11.0026 30.8861 11.3184 30.668 11.748C30.4238 12.2363 30.1943 12.4805 29.9795 12.4805C29.7321 12.4805 29.4521 12.4382 29.1396 12.3535C28.8141 12.2624 28.5472 12.1501 28.3389 12.0166C28.1533 12.1533 27.8717 12.2689 27.4941 12.3633C27.1393 12.4544 26.8154 12.5 26.5225 12.5H26.376V11.1182H26.6836C26.8919 11.1182 27.0856 11.084 27.2646 11.0156C27.1149 10.8464 27.04 10.6787 27.04 10.5127C27.04 10.1872 27.141 9.87467 27.3428 9.5752L27.0352 9.42383V8.10059C27.9401 8.3903 28.7783 8.76465 29.5498 9.22363C30.5133 9.80306 30.9951 10.3288 30.9951 10.8008ZM29.7451 11.25C29.7842 11.1914 29.8037 11.1296 29.8037 11.0645C29.8037 10.8496 29.6589 10.6673 29.3691 10.5176C29.3301 10.7585 29.208 11.0124 29.0029 11.2793C29.1787 11.3346 29.3301 11.3623 29.457 11.3623C29.6003 11.3623 29.6963 11.3249 29.7451 11.25ZM28.085 10.7373C28.3291 10.5973 28.4723 10.3792 28.5146 10.083C28.3486 10.0146 28.1924 9.98047 28.0459 9.98047C27.9027 9.98047 27.8099 10.0244 27.7676 10.1123C27.7415 10.1709 27.7285 10.2279 27.7285 10.2832C27.7285 10.4655 27.8473 10.6169 28.085 10.7373Z" fill="url(#paint0_linear_6130_22416)"/>
<path d="M6.2373 6.5H4.57715C4.16699 6.5 3.85124 6.3112 3.62988 5.93359C3.24902 6.08008 2.93978 6.33887 2.70215 6.70996C2.46452 7.08431 2.3457 7.48307 2.3457 7.90625C2.3457 8.49544 2.59798 8.95605 3.10254 9.28809C3.6071 9.62012 4.30534 9.78613 5.19727 9.78613C5.41536 9.78613 5.6416 9.77474 5.87598 9.75195V11.0996C5.63835 11.1224 5.40723 11.1338 5.18262 11.1338C3.97819 11.1338 3.0179 10.862 2.30176 10.3184C1.5498 9.7487 1.17383 8.95117 1.17383 7.92578C1.17383 7.4375 1.31706 6.94271 1.60352 6.44141C1.87044 5.97917 2.20573 5.5918 2.60938 5.2793V4.91797C2.60938 4.74544 2.47591 4.61849 2.20898 4.53711C2.02669 4.47852 1.82487 4.44922 1.60352 4.44922V3.2041C2.58008 2.89811 3.49316 2.74512 4.34277 2.74512C4.77246 2.74512 5.111 2.85091 5.3584 3.0625C5.60579 3.27083 5.72949 3.54427 5.72949 3.88281C5.72949 4.34831 5.44954 4.76009 4.88965 5.11816H6.2373V6.5ZM4.38184 4.09766C4.3623 4.04557 4.23047 4.02116 3.98633 4.02441C3.7487 4.02767 3.55827 4.05208 3.41504 4.09766C3.54199 4.19857 3.60384 4.3304 3.60059 4.49316C3.60059 4.55827 3.58757 4.62174 3.56152 4.68359C3.70475 4.63477 3.87891 4.54199 4.08398 4.40527C4.30534 4.25879 4.40462 4.15625 4.38184 4.09766ZM6.83789 6.5H6.05176V5.11816H6.97461C7.20573 5.11816 7.36198 5.10352 7.44336 5.07422C7.61914 5.00586 7.70703 4.85775 7.70703 4.62988C7.70703 4.29134 7.60124 3.91048 7.38965 3.4873L8.57617 3.01367C8.66081 3.3457 8.70312 3.67773 8.70312 4.00977C8.70312 4.72917 8.55827 5.31022 8.26855 5.75293C7.93652 6.25098 7.45964 6.5 6.83789 6.5ZM6.48633 8.41895V7.1543H7.73633V8.41895H6.48633ZM13.2344 5.11816V6.5H12.9463C12.6468 6.5 12.4255 6.44792 12.2822 6.34375C12.2822 7.33984 11.9941 8.17318 11.418 8.84375C10.9232 9.41341 10.2656 9.82357 9.44531 10.0742V8.69727C10.7116 8.27083 11.3447 7.58073 11.3447 6.62695C11.3447 6.31445 11.265 5.97266 11.1055 5.60156C10.9557 5.25 10.7669 4.94727 10.5391 4.69336L11.6768 4.10254C11.7158 4.12858 11.8037 4.31413 11.9404 4.65918C12.0609 4.96517 12.1895 5.11816 12.3262 5.11816H13.2344ZM16.1738 6.5H12.9805V5.11816H16.1738V6.5ZM19.0352 6.5H15.8418V5.11816H19.0352V6.5ZM21.9062 4.9375C21.9062 4.8138 21.82 4.68034 21.6475 4.53711C21.4912 4.41016 21.3317 4.32227 21.1689 4.27344L20.876 5.04004C21.0876 5.16699 21.3024 5.23047 21.5205 5.23047C21.7777 5.23047 21.9062 5.13281 21.9062 4.9375ZM23 5.40625C22.8861 6.22656 22.4401 6.63672 21.6621 6.63672C21.5254 6.63672 21.3838 6.62044 21.2373 6.58789C20.9215 6.52279 20.7083 6.43001 20.5977 6.30957C20.5195 6.22168 20.4561 6.05566 20.4072 5.81152C19.9678 6.27051 19.512 6.5 19.04 6.5H18.7764V5.11816H19.0547C19.4974 5.11816 19.7936 4.97493 19.9434 4.68848C20.0182 4.54199 20.111 4.27995 20.2217 3.90234C20.3226 3.57031 20.4186 3.33919 20.5098 3.20898C20.6465 3.01042 20.8353 2.91113 21.0762 2.91113C21.431 2.91113 21.833 3.14388 22.2822 3.60938C22.7738 4.12044 23.0195 4.64779 23.0195 5.19141C23.0195 5.26302 23.013 5.33464 23 5.40625Z" fill="url(#paint1_linear_6130_22416)"/>
<defs>
<linearGradient id="paint0_linear_6130_22416" x1="31.0001" y1="6.5" x2="8.01352" y2="11.1723" gradientUnits="userSpaceOnUse">
<stop stop-color="#4C8CED"/>
<stop offset="1" stop-color="#38D065"/>
</linearGradient>
<linearGradient id="paint1_linear_6130_22416" x1="1.5" y1="3.5" x2="2.45422" y2="13.8276" gradientUnits="userSpaceOnUse">
<stop stop-color="#4C8CED"/>
<stop offset="1" stop-color="#38D065"/>
</linearGradient>
</defs>
</svg>
