<svg width="372" height="159" viewBox="0 0 372 159" fill="none" xmlns="http://www.w3.org/2000/svg">
<g filter="url(#filter0_i_4261_40466)">
<g clip-path="url(#clip0_4261_40466)">
<rect width="372" height="159" rx="10" fill="white"/>
<path d="M49.0522 64.3339C48.6748 64.3339 48.2852 64.3116 47.8835 64.267C47.4858 64.2264 47.1003 64.1472 46.727 64.0296C46.3577 63.9119 46.0128 63.7455 45.6922 63.5304C45.3716 63.3194 45.1017 63.0435 44.8826 62.7026C44.6757 62.3739 44.5154 62.0128 44.4017 61.6191C44.2881 61.2255 44.2313 60.7852 44.2313 60.2983C44.2313 59.9412 44.2455 59.6023 44.2739 59.2817C44.3064 58.9571 44.3551 58.6365 44.42 58.32C44.4849 58.0035 44.5681 57.6829 44.6696 57.3583C44.7751 57.0336 44.9009 56.6887 45.047 56.3235L46.6113 56.9748C46.4936 57.267 46.3922 57.5307 46.307 57.7661C46.2258 58.0014 46.1568 58.2165 46.1 58.4113C46.0432 58.602 45.9986 58.7786 45.9661 58.9409C45.9336 59.1032 45.9093 59.2594 45.893 59.4096C45.8768 59.5557 45.8667 59.7017 45.8626 59.8478C45.8586 59.9899 45.8565 60.14 45.8565 60.2983C45.8565 60.6026 45.9052 60.8664 46.0026 61.0896C46.1 61.3128 46.2319 61.5014 46.3983 61.6557C46.5646 61.8099 46.7554 61.9357 46.9704 62.033C47.1896 62.1345 47.4168 62.2116 47.6522 62.2643C47.8875 62.3171 48.1249 62.3536 48.3643 62.3739C48.6078 62.3942 48.8371 62.4043 49.0522 62.4043C49.1577 62.4043 49.3139 62.3962 49.5209 62.38C49.7278 62.3678 49.953 62.3435 50.1965 62.307C50.4441 62.2745 50.6957 62.2299 50.9513 62.173C51.211 62.1162 51.4464 62.0452 51.6574 61.96C51.8684 61.8788 52.0409 61.7814 52.1748 61.6678C52.3087 61.5583 52.3757 61.4284 52.3757 61.2783C52.3757 61.262 52.3412 61.2336 52.2722 61.193C52.2072 61.1525 52.1159 61.1038 51.9983 61.047C51.8846 60.9942 51.7507 60.9333 51.5965 60.8643C51.4464 60.7994 51.2841 60.7325 51.1096 60.6635H51.1157C50.9209 60.6026 50.7159 60.5499 50.5009 60.5052C50.2899 60.4646 50.0809 60.4281 49.8739 60.3957C49.8414 60.3916 49.7988 60.3855 49.7461 60.3774C49.6974 60.3693 49.6467 60.3591 49.5939 60.347C49.5412 60.3388 49.4884 60.3287 49.4357 60.3165C49.387 60.3084 49.3464 60.3003 49.3139 60.2922L49.5635 58.4417H54.4452C54.5751 58.4417 54.6988 58.4661 54.8165 58.5148C54.9342 58.5635 55.0357 58.6325 55.1209 58.7217C55.2101 58.807 55.2812 58.9084 55.3339 59.0261C55.3867 59.1438 55.413 59.2696 55.413 59.4035C55.413 59.5374 55.3867 59.6632 55.3339 59.7809C55.2812 59.8986 55.2101 60 55.1209 60.0852C55.0357 60.1745 54.9342 60.2435 54.8165 60.2922C54.6988 60.3409 54.5751 60.3652 54.4452 60.3652H53.7696C53.8548 60.5275 53.9157 60.6899 53.9522 60.8522C53.9928 61.0186 54.0151 61.1606 54.0191 61.2783C53.9988 61.6597 53.9014 61.9986 53.727 62.2948C53.5565 62.5951 53.3354 62.8588 53.0635 63.0861C52.7916 63.3133 52.4832 63.5061 52.1383 63.6643C51.7933 63.8226 51.4403 63.9504 51.0791 64.0478C50.718 64.1493 50.3609 64.2223 50.0078 64.267C49.6588 64.3116 49.3403 64.3339 49.0522 64.3339ZM59.161 62.3678L57.9923 63.5426L56.8358 62.3861L55.6915 63.5304L54.5106 62.3557L55.6793 61.1809L56.8358 62.3374L57.9801 61.193L59.161 62.3678ZM53.2749 59.4035C53.2749 59.2696 53.3013 59.1438 53.3541 59.0261C53.4028 58.9084 53.4697 58.807 53.5549 58.7217C53.6401 58.6325 53.7416 58.5635 53.8593 58.5148C53.977 58.4661 54.1028 58.4417 54.2367 58.4417H54.9123H55.2045C55.3871 58.4417 55.588 58.4336 55.8071 58.4174C56.0262 58.4012 56.2372 58.3748 56.4401 58.3383C56.643 58.3017 56.8257 58.253 56.988 58.1922C57.1543 58.1272 57.2761 58.0461 57.3532 57.9487C57.3978 57.8797 57.4201 57.7864 57.4201 57.6687C57.4201 57.4942 57.3775 57.2872 57.2923 57.0478C57.2112 56.8084 57.1138 56.5649 57.0001 56.3174C56.8865 56.0699 56.7688 55.8325 56.6471 55.6052C56.5294 55.378 56.4341 55.1893 56.361 55.0391L58.0958 54.187C58.2216 54.4061 58.3433 54.6658 58.461 54.9661C58.5787 55.2623 58.6842 55.5687 58.7775 55.8852C58.8709 56.1977 58.9459 56.5061 59.0028 56.8104C59.0596 57.1107 59.088 57.3725 59.088 57.5957C59.088 58.0055 59.0149 58.3809 58.8688 58.7217C58.6984 59.1032 58.4651 59.4197 58.1688 59.6713C57.8726 59.9188 57.5175 60.1014 57.1036 60.2191C56.9819 60.2516 56.8297 60.278 56.6471 60.2983C56.4645 60.3186 56.2799 60.3328 56.0932 60.3409C55.9065 60.353 55.73 60.3591 55.5636 60.3591C55.3972 60.3632 55.2674 60.3652 55.1741 60.3652H54.2915H54.2367C54.1028 60.3652 53.977 60.3409 53.8593 60.2922C53.7416 60.2435 53.6401 60.1745 53.5549 60.0852C53.4697 60 53.4028 59.8986 53.3541 59.7809C53.3013 59.6632 53.2749 59.5374 53.2749 59.4035ZM63.2186 60.3652C62.7195 60.3652 62.2914 60.3023 61.9343 60.1765C61.5772 60.0548 61.2688 59.8661 61.0091 59.6104C60.8468 59.4481 60.721 59.2777 60.6317 59.0991C60.5465 58.9206 60.4836 58.7461 60.443 58.5757C60.4065 58.4012 60.3841 58.2368 60.376 58.0826C60.372 57.9284 60.3699 57.7965 60.3699 57.687V57.5957C60.374 57.4455 60.3781 57.2304 60.3821 56.9504C60.3902 56.6664 60.3943 56.3336 60.3943 55.9522C60.3943 55.5707 60.3923 55.1507 60.3882 54.6922C60.3841 54.2336 60.372 53.7771 60.3517 53.3226C60.3354 52.8641 60.3091 52.4238 60.2726 52.0017C60.2401 51.5797 60.1934 51.2125 60.1326 50.9L61.9526 50.3461C62.0053 50.6139 62.0479 50.9304 62.0804 51.2957C62.1128 51.6568 62.1392 52.0362 62.1595 52.4339C62.1839 52.8316 62.2001 53.2313 62.2082 53.633C62.2204 54.0348 62.2285 54.4081 62.2326 54.753C62.2366 55.0574 62.2244 55.3557 62.196 55.6478C62.1717 55.9359 62.1514 56.22 62.1352 56.5C62.1189 56.7759 62.1189 57.0458 62.1352 57.3096C62.1554 57.5693 62.2123 57.8229 62.3056 58.0704C62.3421 58.1638 62.3868 58.2348 62.4395 58.2835C62.4963 58.3322 62.5612 58.3687 62.6343 58.393C62.7073 58.4133 62.7865 58.4255 62.8717 58.4296C62.961 58.4336 63.0583 58.4357 63.1639 58.4357H63.2186C63.3485 58.4357 63.4723 58.462 63.5899 58.5148C63.7076 58.5675 63.8091 58.6386 63.8943 58.7278C63.9836 58.813 64.0546 58.9145 64.1073 59.0322C64.1601 59.1499 64.1865 59.2736 64.1865 59.4035C64.1865 59.5374 64.1601 59.6632 64.1073 59.7809C64.0546 59.8986 63.9836 60 63.8943 60.0852C63.8091 60.1745 63.7076 60.2435 63.5899 60.2922C63.4723 60.3409 63.3485 60.3652 63.2186 60.3652ZM62.2168 59.4035C62.2168 59.2696 62.2432 59.1438 62.2959 59.0261C62.3487 58.9084 62.4217 58.807 62.5151 58.7217C62.6043 58.6365 62.7099 58.5696 62.8316 58.5209C62.9493 58.4681 63.0751 58.4417 63.209 58.4417H68.7359C68.8658 58.4417 68.9896 58.4681 69.1072 58.5209C69.2249 58.5696 69.3264 58.6365 69.4116 58.7217C69.5009 58.807 69.5719 58.9084 69.6246 59.0261C69.6774 59.1438 69.7038 59.2696 69.7038 59.4035C69.7038 59.5374 69.6774 59.6632 69.6246 59.7809C69.5719 59.8986 69.5009 60 69.4116 60.0852C69.3264 60.1745 69.2249 60.2435 69.1072 60.2922C68.9896 60.3409 68.8658 60.3652 68.7359 60.3652H63.2029C63.073 60.3652 62.9493 60.3409 62.8316 60.2922C62.7099 60.2435 62.6043 60.1745 62.5151 60.0852C62.4217 60 62.3487 59.8986 62.2959 59.7809C62.2432 59.6632 62.2168 59.5374 62.2168 59.4035ZM67.7402 59.4035C67.7402 59.2696 67.7666 59.1438 67.8194 59.0261C67.8721 58.9084 67.9452 58.807 68.0385 58.7217C68.1278 58.6365 68.2333 58.5696 68.355 58.5209C68.4727 58.4681 68.5985 58.4417 68.7324 58.4417H74.2594C74.3892 58.4417 74.513 58.4681 74.6307 58.5209C74.7484 58.5696 74.8498 58.6365 74.935 58.7217C75.0243 58.807 75.0953 58.9084 75.1481 59.0261C75.2008 59.1438 75.2272 59.2696 75.2272 59.4035C75.2272 59.5374 75.2008 59.6632 75.1481 59.7809C75.0953 59.8986 75.0243 60 74.935 60.0852C74.8498 60.1745 74.7484 60.2435 74.6307 60.2922C74.513 60.3409 74.3892 60.3652 74.2594 60.3652H68.7263C68.5965 60.3652 68.4727 60.3409 68.355 60.2922C68.2333 60.2435 68.1278 60.1745 68.0385 60.0852C67.9452 60 67.8721 59.8986 67.8194 59.7809C67.7666 59.6632 67.7402 59.5374 67.7402 59.4035ZM78.8759 62.3678L77.7072 63.5426L76.5506 62.3861L75.4063 63.5304L74.2254 62.3557L75.3941 61.1809L76.5506 62.3374L77.695 61.193L78.8759 62.3678ZM72.9898 59.4035C72.9898 59.2696 73.0161 59.1438 73.0689 59.0261C73.1176 58.9084 73.1846 58.807 73.2698 58.7217C73.355 58.6325 73.4564 58.5635 73.5741 58.5148C73.6918 58.4661 73.8176 58.4417 73.9515 58.4417H74.6272H74.9193C75.1019 58.4417 75.3028 58.4336 75.5219 58.4174C75.7411 58.4012 75.9521 58.3748 76.155 58.3383C76.3579 58.3017 76.5405 58.253 76.7028 58.1922C76.8692 58.1272 76.9909 58.0461 77.068 57.9487C77.1127 57.8797 77.135 57.7864 77.135 57.6687C77.135 57.4942 77.0924 57.2872 77.0072 57.0478C76.926 56.8084 76.8286 56.5649 76.715 56.3174C76.6014 56.0699 76.4837 55.8325 76.3619 55.6052C76.2443 55.378 76.1489 55.1893 76.0759 55.0391L77.8106 54.187C77.9364 54.4061 78.0582 54.6658 78.1759 54.9661C78.2935 55.2623 78.399 55.5687 78.4924 55.8852C78.5857 56.1977 78.6608 56.5061 78.7176 56.8104C78.7744 57.1107 78.8028 57.3725 78.8028 57.5957C78.8028 58.0055 78.7298 58.3809 78.5837 58.7217C78.4133 59.1032 78.1799 59.4197 77.8837 59.6713C77.5875 59.9188 77.2324 60.1014 76.8185 60.2191C76.6967 60.2516 76.5446 60.278 76.3619 60.2983C76.1793 60.3186 75.9947 60.3328 75.808 60.3409C75.6214 60.353 75.4448 60.3591 75.2785 60.3591C75.1121 60.3632 74.9822 60.3652 74.8889 60.3652H74.0063H73.9515C73.8176 60.3652 73.6918 60.3409 73.5741 60.2922C73.4564 60.2435 73.355 60.1745 73.2698 60.0852C73.1846 60 73.1176 59.8986 73.0689 59.7809C73.0161 59.6632 72.9898 59.5374 72.9898 59.4035ZM82.2761 56.4087C82.1909 56.3925 82.0935 56.4229 81.9839 56.5C81.8784 56.573 81.777 56.6745 81.6796 56.8043C81.5862 56.9301 81.5071 57.0701 81.4422 57.2243C81.3813 57.3786 81.3509 57.5267 81.3509 57.6687C81.3509 57.8026 81.3894 57.9142 81.4665 58.0035C81.5436 58.0928 81.641 58.1658 81.7587 58.2226C81.8804 58.2794 82.0123 58.322 82.1544 58.3504C82.3004 58.3788 82.4404 58.3991 82.5744 58.4113H82.5683C82.6738 58.4194 82.7935 58.4255 82.9274 58.4296C83.0654 58.4296 83.1993 58.4296 83.3291 58.4296C83.3697 58.4296 83.4001 58.4316 83.4204 58.4357C83.4448 58.4357 83.4651 58.4357 83.4813 58.4357C83.4975 58.4357 83.5138 58.4357 83.53 58.4357C83.5503 58.4357 83.5787 58.4336 83.6152 58.4296C83.5544 58.178 83.4813 57.9386 83.3961 57.7113C83.3149 57.48 83.2196 57.273 83.11 57.0904C83.0004 56.9078 82.8767 56.7577 82.7387 56.64C82.6007 56.5183 82.4465 56.4412 82.2761 56.4087ZM79.2935 62.7817C79.8657 62.6681 80.3871 62.5241 80.8578 62.3496C81.3286 62.1791 81.7404 61.9864 82.0935 61.7713C82.4506 61.5603 82.7448 61.3351 82.9761 61.0957C83.2115 60.8562 83.3778 60.6128 83.4752 60.3652C83.3007 60.3652 83.1161 60.3612 82.9213 60.353C82.7265 60.349 82.5662 60.3429 82.4404 60.3348C81.9697 60.2942 81.5396 60.1887 81.15 60.0183C80.7604 59.8519 80.45 59.6246 80.2187 59.3365C80.0483 59.1174 79.9265 58.88 79.8535 58.6243C79.7845 58.3687 79.75 58.0988 79.75 57.8148C79.75 57.5957 79.7703 57.3765 79.8109 57.1574C79.8515 56.9342 79.9083 56.7191 79.9813 56.5122C80.0544 56.3012 80.1396 56.1023 80.237 55.9157C80.3384 55.729 80.4459 55.5586 80.5596 55.4043C80.803 55.1 81.0688 54.8707 81.357 54.7165C81.6491 54.5583 81.9555 54.4791 82.2761 54.4791C82.9619 54.4791 83.5807 54.7794 84.1326 55.38C84.3274 55.5991 84.5019 55.8446 84.6561 56.1165C84.8103 56.3884 84.9401 56.6786 85.0457 56.987C85.1552 57.2913 85.2384 57.6119 85.2952 57.9487C85.352 58.2814 85.3804 58.6203 85.3804 58.9652C85.3804 59.0707 85.3764 59.1762 85.3683 59.2817C85.3642 59.3872 85.3581 59.4867 85.35 59.58C85.3013 60.0548 85.1938 60.4991 85.0274 60.913C84.8651 61.331 84.6541 61.7145 84.3944 62.0635C84.1387 62.4165 83.8404 62.7351 83.4996 63.0191C83.1587 63.3072 82.7874 63.5588 82.3857 63.7739C81.988 63.993 81.5659 64.1757 81.1196 64.3217C80.6732 64.4678 80.2146 64.5774 79.7439 64.6504L79.2935 62.7817ZM88.9606 55.9035C89.1148 56.3417 89.2487 56.7699 89.3624 57.1878C89.411 57.3704 89.4597 57.5612 89.5084 57.76C89.5571 57.9548 89.5997 58.1516 89.6363 58.3504C89.6768 58.5452 89.7093 58.738 89.7337 58.9287C89.758 59.1154 89.7702 59.2899 89.7702 59.4522C89.7702 59.8336 89.7174 60.2049 89.6119 60.5661C89.5105 60.9313 89.3644 61.2843 89.1737 61.6252C88.987 61.9661 88.7638 62.2928 88.5041 62.6052C88.2444 62.9217 87.9563 63.218 87.6397 63.4939C87.3232 63.7699 86.9844 64.0255 86.6232 64.2609C86.2621 64.5003 85.8887 64.7154 85.5032 64.9061L84.3954 63.3661C84.6876 63.22 84.9838 63.0536 85.2841 62.867C85.5803 62.6843 85.8644 62.4875 86.1363 62.2765C86.4122 62.0655 86.6679 61.8443 86.9032 61.613C87.1426 61.3817 87.3496 61.1464 87.5241 60.907C87.7026 60.6675 87.8426 60.4241 87.9441 60.1765C88.0455 59.933 88.0963 59.6936 88.0963 59.4583C88.0963 59.2878 88.0719 59.1032 88.0232 58.9043C87.9786 58.7055 87.9157 58.4925 87.8345 58.2652C87.7574 58.0339 87.6641 57.7904 87.5545 57.5348C87.445 57.2751 87.3273 56.9991 87.2015 56.707L88.9606 55.9035ZM96.5437 59.513C95.9675 59.513 95.4724 59.4359 95.0585 59.2817C94.6446 59.1235 94.3159 58.9023 94.0724 58.6183C93.9304 58.4357 93.8269 58.2388 93.762 58.0278C93.7011 57.8128 93.6707 57.6078 93.6707 57.413C93.6707 57.2426 93.6849 57.0884 93.7133 56.9504C93.7417 56.8125 93.7762 56.6948 93.8168 56.5974C93.9791 56.2565 94.1779 55.9583 94.4133 55.7026C94.6527 55.447 94.9002 55.2258 95.1559 55.0391C95.4156 54.8484 95.6713 54.6901 95.9229 54.5643C96.1785 54.4386 96.4058 54.3351 96.6046 54.2539C96.5965 54.1606 96.5884 54.0652 96.5802 53.9678C96.5762 53.8704 96.5701 53.7771 96.562 53.6878L96.5316 53.3043L98.4307 52.8965C98.4347 52.933 98.4429 53.0183 98.455 53.1522C98.4713 53.2861 98.4875 53.4464 98.5037 53.633C98.524 53.8157 98.5443 54.0125 98.5646 54.2235C98.5889 54.4304 98.6092 54.6252 98.6255 54.8078C98.6458 54.9904 98.662 55.1487 98.6742 55.2826C98.6904 55.4165 98.7005 55.4977 98.7046 55.5261C98.7655 56.0252 98.8162 56.4351 98.8568 56.7557C98.9014 57.0762 98.9379 57.3319 98.9663 57.5226C98.9988 57.7093 99.0252 57.8452 99.0455 57.9304C99.0658 58.0116 99.082 58.0664 99.0942 58.0948C99.155 58.2246 99.2463 58.3159 99.3681 58.3687C99.4939 58.4174 99.6602 58.4417 99.8672 58.4417C99.9971 58.4417 100.121 58.4661 100.239 58.5148C100.356 58.5635 100.458 58.6325 100.543 58.7217C100.632 58.807 100.703 58.9084 100.756 59.0261C100.809 59.1438 100.835 59.2696 100.835 59.4035C100.835 59.5374 100.809 59.6632 100.756 59.7809C100.703 59.8986 100.632 60 100.543 60.0852C100.458 60.1704 100.356 60.2374 100.239 60.2861C100.121 60.3388 99.9971 60.3652 99.8672 60.3652C99.782 60.3652 99.6866 60.3612 99.5811 60.353C99.4756 60.349 99.364 60.3368 99.2463 60.3165C99.1327 60.3003 99.013 60.2739 98.8872 60.2374C98.7655 60.2049 98.6437 60.1603 98.522 60.1035C98.3516 60.0223 98.2014 59.931 98.0716 59.8296C97.9458 59.7241 97.824 59.5922 97.7063 59.4339C97.4994 59.4623 97.2985 59.4826 97.1037 59.4948C96.913 59.507 96.7263 59.513 96.5437 59.513ZM96.5072 57.6017C96.5924 57.6017 96.6797 57.5997 96.7689 57.5957C96.8623 57.5875 96.9516 57.5794 97.0368 57.5713C97.0165 57.4333 96.9942 57.2791 96.9698 57.1087C96.9495 56.9383 96.9292 56.7557 96.9089 56.5609L96.8481 56.0009C96.6939 56.078 96.5214 56.1713 96.3307 56.2809C96.14 56.3864 95.9594 56.5 95.7889 56.6217C95.6226 56.7394 95.4826 56.8612 95.3689 56.987C95.2553 57.1087 95.1985 57.2223 95.1985 57.3278C95.1985 57.3806 95.2431 57.4252 95.3324 57.4617C95.4258 57.4942 95.5394 57.5226 95.6733 57.547C95.8072 57.5672 95.9492 57.5814 96.0994 57.5896C96.2495 57.5977 96.3855 57.6017 96.5072 57.6017ZM98.8589 59.4035C98.8589 59.2696 98.8853 59.1438 98.9381 59.0261C98.9868 58.9084 99.0537 58.807 99.1389 58.7217C99.2242 58.6325 99.3256 58.5635 99.4433 58.5148C99.561 58.4661 99.6868 58.4417 99.8207 58.4417H100.448H100.722C100.872 58.4417 101.028 58.4357 101.19 58.4235C101.357 58.4113 101.511 58.387 101.653 58.3504C101.799 58.3139 101.927 58.2632 102.036 58.1983C102.15 58.1333 102.231 58.0461 102.28 57.9365C102.312 57.8635 102.328 57.7539 102.328 57.6078C102.328 57.5104 102.3 57.3643 102.243 57.1696C102.186 56.9748 102.111 56.7597 102.018 56.5243C101.925 56.2849 101.819 56.0354 101.702 55.7757C101.584 55.5159 101.464 55.2704 101.342 55.0391L103.083 54.1748C103.197 54.4304 103.308 54.7023 103.418 54.9904C103.532 55.2786 103.633 55.5707 103.722 55.867C103.812 56.1632 103.883 56.4594 103.935 56.7557C103.992 57.0478 104.021 57.3278 104.021 57.5957C104.021 58.0055 103.948 58.3809 103.802 58.7217C103.631 59.1032 103.398 59.4197 103.102 59.6713C102.805 59.9188 102.45 60.1014 102.036 60.2191C101.793 60.2881 101.56 60.3287 101.336 60.3409C101.113 60.3571 100.904 60.3652 100.709 60.3652H99.8755H99.8207C99.6868 60.3652 99.561 60.3409 99.4433 60.2922C99.3256 60.2435 99.2242 60.1745 99.1389 60.0852C99.0537 60 98.9868 59.8986 98.9381 59.7809C98.8853 59.6632 98.8589 59.5374 98.8589 59.4035ZM101.872 50.7357L103.223 52.087L101.872 53.4383L100.521 52.087L101.872 50.7357ZM107.967 60.3652C107.468 60.3652 107.039 60.3023 106.682 60.1765C106.325 60.0548 106.017 59.8661 105.757 59.6104C105.595 59.4481 105.469 59.2777 105.38 59.0991C105.295 58.9206 105.232 58.7461 105.191 58.5757C105.155 58.4012 105.132 58.2368 105.124 58.0826C105.12 57.9284 105.118 57.7965 105.118 57.687V57.5957C105.122 57.4455 105.126 57.2304 105.13 56.9504C105.138 56.6664 105.142 56.3336 105.142 55.9522C105.142 55.5707 105.14 55.1507 105.136 54.6922C105.132 54.2336 105.12 53.7771 105.1 53.3226C105.083 52.8641 105.057 52.4238 105.021 52.0017C104.988 51.5797 104.941 51.2125 104.881 50.9L106.701 50.3461C106.753 50.6139 106.796 50.9304 106.828 51.2957C106.861 51.6568 106.887 52.0362 106.908 52.4339C106.932 52.8316 106.948 53.2313 106.956 53.633C106.968 54.0348 106.977 54.4081 106.981 54.753C106.985 55.0574 106.972 55.3557 106.944 55.6478C106.92 55.9359 106.899 56.22 106.883 56.5C106.867 56.7759 106.867 57.0458 106.883 57.3096C106.903 57.5693 106.96 57.8229 107.054 58.0704C107.09 58.1638 107.135 58.2348 107.188 58.2835C107.244 58.3322 107.309 58.3687 107.382 58.393C107.455 58.4133 107.535 58.4255 107.62 58.4296C107.709 58.4336 107.806 58.4357 107.912 58.4357H107.967C108.097 58.4357 108.22 58.462 108.338 58.5148C108.456 58.5675 108.557 58.6386 108.642 58.7278C108.732 58.813 108.803 58.9145 108.855 59.0322C108.908 59.1499 108.935 59.2736 108.935 59.4035C108.935 59.5374 108.908 59.6632 108.855 59.7809C108.803 59.8986 108.732 60 108.642 60.0852C108.557 60.1745 108.456 60.2435 108.338 60.2922C108.22 60.3409 108.097 60.3652 107.967 60.3652ZM106.965 59.4035C106.965 59.2696 106.991 59.1438 107.044 59.0261C107.097 58.9084 107.17 58.807 107.263 58.7217C107.352 58.6365 107.458 58.5696 107.58 58.5209C107.697 58.4681 107.823 58.4417 107.957 58.4417H113.484C113.614 58.4417 113.738 58.4681 113.855 58.5209C113.973 58.5696 114.074 58.6365 114.16 58.7217C114.249 58.807 114.32 58.9084 114.373 59.0261C114.425 59.1438 114.452 59.2696 114.452 59.4035C114.452 59.5374 114.425 59.6632 114.373 59.7809C114.32 59.8986 114.249 60 114.16 60.0852C114.074 60.1745 113.973 60.2435 113.855 60.2922C113.738 60.3409 113.614 60.3652 113.484 60.3652H107.951C107.821 60.3652 107.697 60.3409 107.58 60.2922C107.458 60.2435 107.352 60.1745 107.263 60.0852C107.17 60 107.097 59.8986 107.044 59.7809C106.991 59.6632 106.965 59.5374 106.965 59.4035ZM112.488 59.4035C112.488 59.2696 112.515 59.1438 112.567 59.0261C112.62 58.9084 112.693 58.807 112.787 58.7217C112.876 58.6365 112.981 58.5696 113.103 58.5209C113.221 58.4681 113.347 58.4417 113.48 58.4417H119.007C119.137 58.4417 119.261 58.4681 119.379 58.5209C119.496 58.5696 119.598 58.6365 119.683 58.7217C119.772 58.807 119.843 58.9084 119.896 59.0261C119.949 59.1438 119.975 59.2696 119.975 59.4035C119.975 59.5374 119.949 59.6632 119.896 59.7809C119.843 59.8986 119.772 60 119.683 60.0852C119.598 60.1745 119.496 60.2435 119.379 60.2922C119.261 60.3409 119.137 60.3652 119.007 60.3652H113.474C113.345 60.3652 113.221 60.3409 113.103 60.2922C112.981 60.2435 112.876 60.1745 112.787 60.0852C112.693 60 112.62 59.8986 112.567 59.7809C112.515 59.6632 112.488 59.5374 112.488 59.4035ZM118.024 59.4035C118.024 59.2696 118.05 59.1438 118.103 59.0261C118.152 58.9084 118.221 58.807 118.31 58.7217C118.395 58.6325 118.499 58.5635 118.62 58.5148C118.738 58.4661 118.864 58.4417 118.998 58.4417H120.167C120.824 58.4417 121.427 58.4032 121.974 58.3261C122.526 58.2449 123.042 58.1374 123.52 58.0035C123.999 57.8696 124.452 57.7154 124.878 57.5409C125.308 57.3623 125.73 57.1777 126.144 56.987C125.868 56.9099 125.59 56.8145 125.31 56.7009C125.034 56.5872 124.756 56.4777 124.476 56.3722C124.2 56.2667 123.924 56.1774 123.648 56.1043C123.372 56.0272 123.098 55.9887 122.827 55.9887C122.64 55.9887 122.457 56.0394 122.279 56.1409C122.1 56.2423 121.938 56.358 121.792 56.4878C121.646 56.6177 121.522 56.7455 121.42 56.8713C121.323 56.993 121.262 57.0762 121.238 57.1209L119.832 56.2139C119.986 55.942 120.169 55.6762 120.38 55.4165C120.591 55.1568 120.822 54.9275 121.073 54.7287C121.329 54.5258 121.603 54.3635 121.895 54.2417C122.191 54.12 122.502 54.0591 122.827 54.0591C123.066 54.0591 123.305 54.0855 123.545 54.1383C123.784 54.187 124.022 54.2519 124.257 54.333C124.496 54.4142 124.732 54.5075 124.963 54.613C125.194 54.7145 125.424 54.818 125.651 54.9235C125.87 55.0249 126.087 55.1264 126.302 55.2278C126.521 55.3252 126.747 55.4165 126.978 55.5017C127.209 55.5829 127.449 55.6499 127.696 55.7026C127.944 55.7554 128.205 55.7838 128.481 55.7878L128.329 57.6565L127.465 58.0704C127.112 58.2409 126.761 58.4174 126.412 58.6C126.063 58.7786 125.706 58.953 125.34 59.1235C124.979 59.2899 124.606 59.4501 124.22 59.6043C123.839 59.7545 123.437 59.8864 123.015 60C122.593 60.1096 122.147 60.1968 121.676 60.2617C121.205 60.3307 120.702 60.3652 120.167 60.3652H119.047H118.998C118.864 60.3652 118.738 60.3388 118.62 60.2861C118.499 60.2374 118.395 60.1704 118.31 60.0852C118.221 60 118.152 59.8986 118.103 59.7809C118.05 59.6632 118.024 59.5374 118.024 59.4035ZM122.571 50.7661L123.922 52.1174L122.571 53.4687L121.22 52.1174L122.571 50.7661Z" fill="#E2E2E2"/>
<path d="M35.1797 81.5703C34.6641 81.9609 33.9922 82.1562 33.1641 82.1562H30.6719V80.0156C31.5833 80.0729 32.1901 80.1016 32.4922 80.1016C33.3724 80.1016 33.8125 80.0156 33.8125 79.8438C33.8125 79.6667 33.5729 79.1823 33.0938 78.3906C32.7812 77.8906 32.4688 77.3932 32.1562 76.8984L33.8984 75.7344L35.7812 79.2656C35.9792 79.6406 36.1328 79.862 36.2422 79.9297C36.3516 79.9974 36.6068 80.0286 37.0078 80.0234V82.1562C36.5182 82.1562 36.1719 82.1302 35.9688 82.0781C35.6875 82 35.4245 81.8307 35.1797 81.5703ZM40.7578 82.1562C40.112 82.1562 39.5755 81.987 39.1484 81.6484C38.6797 81.987 38.0234 82.1562 37.1797 82.1562H36.3828V80.0156C37.3828 80.0469 37.8828 79.9401 37.8828 79.6953C37.8828 79.5964 37.8047 79.1745 37.6484 78.4297L39.5781 77.9375C39.5938 78.026 39.6589 78.4089 39.7734 79.0859C39.8203 79.362 39.875 79.5547 39.9375 79.6641C40.0833 79.9036 40.5833 80.0234 41.4375 80.0234V82.1562H40.7578ZM38.7969 85.4375V83.5391H40.5703V85.4375H38.7969ZM36.8281 85.4375V83.5391H38.5938V85.4375H36.8281ZM42.2734 76.875V74.9297H44.0938V76.875H42.2734ZM45.2422 82.1562C44.5964 82.1562 44.0599 81.987 43.6328 81.6484C43.1641 81.987 42.5078 82.1562 41.6641 82.1562H40.8672V80.0156C41.8672 80.0469 42.3672 79.9401 42.3672 79.6953C42.3672 79.5964 42.2891 79.1745 42.1328 78.4297L44.0625 77.9375C44.0781 78.026 44.1432 78.4089 44.2578 79.0859C44.3047 79.362 44.3594 79.5547 44.4219 79.6641C44.5677 79.9036 45.0677 80.0234 45.9219 80.0234V82.1562H45.2422ZM48.2109 76.8281C48.7786 77.6615 49.0938 78.1354 49.1562 78.25C49.4844 78.8385 49.6484 79.3854 49.6484 79.8906C49.6484 80.6354 49.3281 81.2188 48.6875 81.6406C48.1562 81.9844 47.5339 82.1562 46.8203 82.1562H45.3203V80.0156C45.8516 80.0469 46.2214 80.0625 46.4297 80.0625C47.1953 80.0625 47.5781 79.9557 47.5781 79.7422C47.5781 79.513 46.9193 78.4453 45.6016 76.5391L49.0625 73.3828L50.3594 74.9297L48.2109 76.8281ZM66.5781 82.1562C65.7552 82.1562 65.0547 81.9453 64.4766 81.5234C63.9401 81.9453 63.1719 82.1562 62.1719 82.1562H57.3203C55.4714 82.1562 54.5469 81.4896 54.5469 80.1562C54.5469 79.7708 54.6458 79.1562 54.8438 78.3125L56.9375 78.7031C56.8385 79.2396 56.7891 79.5391 56.7891 79.6016C56.7891 79.8828 57.0443 80.0234 57.5547 80.0234H62.6016C62.9661 80.0234 63.1484 79.9349 63.1484 79.7578C63.1484 79.5547 62.8542 79.0156 62.2656 78.1406C61.8802 77.599 61.4974 77.0547 61.1172 76.5078L64.6562 73.3516L66.0234 74.9297L63.8281 76.8281L64.9922 78.6328C65.4557 79.3568 65.7552 79.763 65.8906 79.8516C66.0677 79.9661 66.5417 80.0234 67.3125 80.0234V82.1562H66.5781ZM71.0859 82.1562C70.4401 82.1562 69.9036 81.987 69.4766 81.6484C69.0078 81.987 68.3516 82.1562 67.5078 82.1562H66.7109V80.0156C67.7109 80.0469 68.2109 79.9401 68.2109 79.6953C68.2109 79.5964 68.1328 79.1745 67.9766 78.4297L69.9062 77.9375C69.9219 78.026 69.987 78.4089 70.1016 79.0859C70.1484 79.362 70.2031 79.5547 70.2656 79.6641C70.4115 79.9036 70.9115 80.0234 71.7656 80.0234V82.1562H71.0859ZM69.125 85.4375V83.5391H70.8984V85.4375H69.125ZM67.1562 85.4375V83.5391H68.9219V85.4375H67.1562ZM75.6484 82.1562C74.8776 82.1562 74.3281 81.9635 74 81.5781C73.651 81.9635 73.0469 82.1562 72.1875 82.1562H71.1953V80.0156L71.9219 80.0391C72.4375 80.0547 72.6953 79.8542 72.6953 79.4375C72.6953 78.75 72.6172 77.9297 72.4609 76.9766C72.3151 76.1641 72.1719 75.3516 72.0312 74.5391L74.0156 74.2031L74.8125 79.5469C74.849 79.7812 74.9974 79.9297 75.2578 79.9922C75.3776 80.0182 75.6406 80.0286 76.0469 80.0234V82.1562H75.6484ZM78.2891 76.8281C78.8568 77.6615 79.1719 78.1354 79.2344 78.25C79.5625 78.8385 79.7266 79.3854 79.7266 79.8906C79.7266 80.6354 79.4062 81.2188 78.7656 81.6406C78.2344 81.9844 77.612 82.1562 76.8984 82.1562H75.3984V80.0156C75.9297 80.0469 76.2995 80.0625 76.5078 80.0625C77.2734 80.0625 77.6562 79.9557 77.6562 79.7422C77.6562 79.513 76.9974 78.4453 75.6797 76.5391L79.1406 73.3828L80.4375 74.9297L78.2891 76.8281ZM90.5156 81.2891L89.1875 80.75C88.2552 81.4167 87.7214 81.8125 87.5859 81.9375C86.9766 82.4896 86.6719 83.0495 86.6719 83.6172C86.6719 84.1589 86.9714 84.5573 87.5703 84.8125C87.9089 84.9635 88.4219 85.0807 89.1094 85.1641C89.3646 85.1849 89.763 85.2318 90.3047 85.3047L89.8984 87.3984C89.0911 87.2682 88.2839 87.1354 87.4766 87C86.5599 86.7917 85.875 86.4688 85.4219 86.0312C84.8438 85.4688 84.5547 84.6589 84.5547 83.6016C84.5547 82.7057 84.8125 81.9193 85.3281 81.2422C85.6875 80.763 86.2865 80.2318 87.125 79.6484C86.6927 79.2214 86.4766 78.6979 86.4766 78.0781C86.4766 77.2552 86.9062 76.6016 87.7656 76.1172C88.0052 75.9818 88.7682 75.6901 90.0547 75.2422L90.7578 77.1641C89.3672 77.6536 88.6719 77.974 88.6719 78.125C88.6719 78.2917 89.5443 78.6875 91.2891 79.3125L90.5156 81.2891ZM95.8203 84.3047C95.4974 84.5339 94.6302 84.9948 93.2188 85.6875L92.3516 83.8672C92.8464 83.6276 93.3385 83.388 93.8281 83.1484C94.4479 82.8255 94.9036 82.526 95.1953 82.25C94.2995 82.1146 93.6849 81.9557 93.3516 81.7734C92.7422 81.4401 92.4375 80.8802 92.4375 80.0938C92.4375 79.5208 92.8151 78.8333 93.5703 78.0312C94.3307 77.224 94.9818 76.8203 95.5234 76.8203C96.0703 76.8203 96.5156 77.0625 96.8594 77.5469C97.1667 77.9844 97.3203 78.4922 97.3203 79.0703V81.9219C97.3203 82.8073 96.8203 83.6016 95.8203 84.3047ZM95.5078 79.2188C95.5078 79.0677 95.5026 78.9922 95.4922 78.9922C94.9349 79.3047 94.5339 79.6562 94.2891 80.0469C94.4505 80.1667 94.8568 80.2734 95.5078 80.3672V79.2188ZM103.93 82.1562C103.654 82.1615 103.435 82.1146 103.273 82.0156V82.0781C103.284 82.974 102.794 83.7786 101.805 84.4922C101.544 84.6849 100.682 85.1615 99.2188 85.9219L98.3047 84.0703C99.5182 83.4557 100.141 83.1406 100.172 83.125C100.958 82.625 101.352 82.1068 101.352 81.5703C101.352 81.2422 101.273 80.862 101.117 80.4297C100.971 80.0703 100.826 79.7083 100.68 79.3438L102.57 78.6328C102.648 78.8359 102.727 79.0417 102.805 79.25C102.924 79.5417 103.034 79.7318 103.133 79.8203C103.284 79.9609 103.688 80.0286 104.344 80.0234V82.1562H103.93ZM107.719 74.6719V72.7422H109.609V74.6719H107.719ZM108.844 76.8594V74.9297H110.727V76.8594H108.844ZM106.641 76.8594V74.9297H108.523V76.8594H106.641ZM110.633 82.1562C109.904 82.1562 109.401 81.9792 109.125 81.625C108.766 81.9792 108.339 82.1562 107.844 82.1562C107.276 82.1562 106.786 81.9349 106.375 81.4922C106.161 81.7891 105.831 81.9844 105.383 82.0781C105.138 82.1302 104.745 82.1562 104.203 82.1562H103.742V80.0156C104.164 80.0312 104.432 80.0312 104.547 80.0156C104.917 79.9688 105.102 79.8255 105.102 79.5859C105.102 79.4036 105.036 79.1016 104.906 78.6797L106.922 78.2812C106.99 78.6094 107.057 78.9401 107.125 79.2734C107.26 79.7734 107.424 80.0234 107.617 80.0234C107.862 80.0234 108.042 79.7812 108.156 79.2969C108.167 79.2552 108.216 78.9115 108.305 78.2656L110.281 78.625L110.078 79.8594C110.13 79.9688 110.294 80.0234 110.57 80.0234C111.039 80.0234 111.273 79.8958 111.273 79.6406C111.273 79.6302 111.148 79.125 110.898 78.125L112.875 77.6719C112.974 78.0573 113.073 78.4453 113.172 78.8359C113.276 79.2891 113.328 79.6823 113.328 80.0156C113.328 80.6979 113.021 81.2396 112.406 81.6406C111.885 81.9844 111.294 82.1562 110.633 82.1562ZM125 83.9688C123.979 84.4375 123.099 84.6719 122.359 84.6719C121.312 84.6719 120.458 84.3672 119.797 83.7578C119.104 83.1224 118.758 82.2656 118.758 81.1875C118.758 80.625 118.878 79.9818 119.117 79.2578C119.346 78.6432 119.576 78.0286 119.805 77.4141L121.766 78.0078C121.578 78.5078 121.391 79.0078 121.203 79.5078C121 80.1172 120.898 80.638 120.898 81.0703C120.898 81.4661 121.044 81.8125 121.336 82.1094C121.633 82.4062 121.974 82.5547 122.359 82.5547C123.036 82.5547 123.961 82.2292 125.133 81.5781C124.581 81.4688 124.12 81.2135 123.75 80.8125C123.354 80.3802 123.156 79.875 123.156 79.2969C123.156 77.9375 124.354 77.0026 126.75 76.4922L127.312 78.3203C125.896 78.5443 125.188 78.8854 125.188 79.3438C125.188 79.7135 125.779 79.9531 126.961 80.0625L127.508 82.5938C126.956 82.9219 126.12 83.3802 125 83.9688ZM129.203 82.1562V74.2578H131.008V82.1562H129.203ZM137.805 82.1562C137.529 82.1615 137.31 82.1146 137.148 82.0156V82.0781C137.159 82.974 136.669 83.7786 135.68 84.4922C135.419 84.6849 134.557 85.1615 133.094 85.9219L132.18 84.0703C133.393 83.4557 134.016 83.1406 134.047 83.125C134.833 82.625 135.227 82.1068 135.227 81.5703C135.227 81.2422 135.148 80.862 134.992 80.4297C134.846 80.0703 134.701 79.7083 134.555 79.3438L136.445 78.6328C136.523 78.8359 136.602 79.0417 136.68 79.25C136.799 79.5417 136.909 79.7318 137.008 79.8203C137.159 79.9609 137.562 80.0286 138.219 80.0234V82.1562H137.805ZM138.883 82.1562H137.617V80C137.945 80.0573 138.224 80.0859 138.453 80.0859C139 80.0859 139.273 79.9297 139.273 79.6172C139.273 79.4505 139.172 78.9531 138.969 78.125L140.805 77.7109C141.102 78.7214 141.25 79.4948 141.25 80.0312C141.25 80.7344 141 81.2786 140.5 81.6641C140.073 81.9922 139.534 82.1562 138.883 82.1562ZM138.75 85.4688V83.3984H140.672V85.4688H138.75Z" fill="#636363"/>
<g filter="url(#filter1_d_4261_40466)">
<rect x="47" y="95" width="79" height="20" rx="10" fill="white"/>
<rect x="47.5" y="95.5" width="78" height="19" rx="9.5" stroke="#4C8CED"/>
</g>
<path d="M79.0111 111.678C78.7879 111.678 78.5561 111.657 78.3155 111.613C78.0778 111.572 77.8416 111.507 77.6068 111.417C77.372 111.33 77.143 111.217 76.9198 111.078C76.6995 110.942 76.4966 110.778 76.3111 110.587C76.0764 110.332 75.8995 110.039 75.7807 109.709C75.6648 109.381 75.6068 109.03 75.6068 108.657C75.6068 108.297 75.6633 107.952 75.7764 107.622C75.8923 107.291 76.0633 106.981 76.2894 106.691C76.472 106.457 76.6792 106.252 76.9111 106.078C77.1459 105.904 77.3952 105.748 77.659 105.609C77.5865 105.536 77.5184 105.454 77.4546 105.361C77.3937 105.268 77.3401 105.167 77.2937 105.057C77.2474 104.943 77.2097 104.82 77.1807 104.687C77.1546 104.554 77.1416 104.409 77.1416 104.252C77.1445 104.072 77.1749 103.897 77.2329 103.726C77.2908 103.552 77.3691 103.387 77.4677 103.23C77.5662 103.074 77.6821 102.929 77.8155 102.796C77.9517 102.662 78.0981 102.546 78.2546 102.448C78.414 102.346 78.5807 102.267 78.7546 102.209C78.9314 102.148 79.1097 102.113 79.2894 102.104C79.4923 102.096 79.6807 102.106 79.8546 102.135C80.0285 102.161 80.1937 102.204 80.3503 102.265C80.5097 102.323 80.6648 102.399 80.8155 102.491C80.9662 102.581 81.1198 102.686 81.2764 102.804L80.7372 103.835C80.601 103.762 80.4575 103.697 80.3068 103.639C80.1764 103.59 80.0285 103.548 79.8633 103.513C79.701 103.478 79.5329 103.468 79.359 103.483C79.2488 103.491 79.1329 103.519 79.0111 103.565C78.8894 103.612 78.7764 103.672 78.672 103.748C78.5706 103.823 78.485 103.912 78.4155 104.013C78.3488 104.114 78.3155 104.225 78.3155 104.343C78.3155 104.445 78.3503 104.539 78.4198 104.626C78.4923 104.71 78.5879 104.783 78.7068 104.843C78.8256 104.901 78.9633 104.945 79.1198 104.974C79.2792 105.003 79.4459 105.012 79.6198 105L81.2546 104.891L81.1503 106.252C80.9213 106.281 80.6894 106.306 80.4546 106.326C80.2198 106.346 79.9807 106.375 79.7372 106.413C79.4966 106.451 79.2532 106.503 79.0068 106.57C78.7633 106.636 78.5169 106.73 78.2677 106.852C78.201 106.884 78.1184 106.928 78.0198 106.983C77.9213 107.038 77.8169 107.104 77.7068 107.183C77.5966 107.261 77.4865 107.351 77.3764 107.452C77.2662 107.554 77.1677 107.665 77.0807 107.787C76.9937 107.909 76.9227 108.042 76.8677 108.187C76.8126 108.335 76.785 108.491 76.785 108.657C76.785 108.833 76.8155 108.996 76.8764 109.143C76.9372 109.291 77.0213 109.423 77.1285 109.539C77.2358 109.658 77.3619 109.762 77.5068 109.852C77.6517 109.942 77.8068 110.016 77.972 110.074C78.1372 110.135 78.3097 110.18 78.4894 110.209C78.6691 110.238 78.8488 110.252 79.0285 110.252C79.1995 110.252 79.3792 110.239 79.5677 110.213C79.7561 110.187 79.9459 110.145 80.1372 110.087C80.3314 110.032 80.5242 109.959 80.7155 109.87C80.9097 109.783 81.0966 109.675 81.2764 109.548L81.9546 110.609C81.7285 110.8 81.4865 110.962 81.2285 111.096C80.9735 111.232 80.7169 111.343 80.459 111.43C80.201 111.517 79.9474 111.58 79.6981 111.617C79.4488 111.658 79.2198 111.678 79.0111 111.678ZM84.4407 105.435C84.3798 105.423 84.3102 105.445 84.232 105.5C84.1566 105.552 84.0841 105.625 84.0146 105.717C83.9479 105.807 83.8914 105.907 83.845 106.017C83.8015 106.128 83.7798 106.233 83.7798 106.335C83.7798 106.43 83.8073 106.51 83.8624 106.574C83.9175 106.638 83.987 106.69 84.0711 106.73C84.158 106.771 84.2522 106.801 84.3537 106.822C84.458 106.842 84.558 106.857 84.6537 106.865H84.6493C84.7247 106.871 84.8102 106.875 84.9059 106.878C85.0044 106.878 85.1001 106.878 85.1928 106.878C85.2218 106.878 85.2435 106.88 85.258 106.883C85.2754 106.883 85.2899 106.883 85.3015 106.883C85.3131 106.883 85.3247 106.883 85.3363 106.883C85.3508 106.883 85.3711 106.881 85.3972 106.878C85.3537 106.699 85.3015 106.528 85.2407 106.365C85.1827 106.2 85.1146 106.052 85.0363 105.922C84.958 105.791 84.8696 105.684 84.7711 105.6C84.6725 105.513 84.5624 105.458 84.4407 105.435ZM82.3102 109.987C82.7189 109.906 83.0914 109.803 83.4276 109.678C83.7638 109.557 84.058 109.419 84.3102 109.265C84.5653 109.114 84.7754 108.954 84.9407 108.783C85.1088 108.612 85.2276 108.438 85.2972 108.261C85.1725 108.261 85.0407 108.258 84.9015 108.252C84.7624 108.249 84.6479 108.245 84.558 108.239C84.2218 108.21 83.9146 108.135 83.6363 108.013C83.358 107.894 83.1363 107.732 82.9711 107.526C82.8493 107.37 82.7624 107.2 82.7102 107.017C82.6609 106.835 82.6363 106.642 82.6363 106.439C82.6363 106.283 82.6508 106.126 82.6798 105.97C82.7088 105.81 82.7493 105.657 82.8015 105.509C82.8537 105.358 82.9146 105.216 82.9841 105.083C83.0566 104.949 83.1334 104.828 83.2146 104.717C83.3885 104.5 83.5783 104.336 83.7841 104.226C83.9928 104.113 84.2117 104.057 84.4407 104.057C84.9305 104.057 85.3725 104.271 85.7667 104.7C85.9059 104.857 86.0305 105.032 86.1407 105.226C86.2508 105.42 86.3435 105.628 86.4189 105.848C86.4972 106.065 86.5566 106.294 86.5972 106.535C86.6378 106.772 86.658 107.014 86.658 107.261C86.658 107.336 86.6551 107.412 86.6493 107.487C86.6464 107.562 86.6421 107.633 86.6363 107.7C86.6015 108.039 86.5247 108.357 86.4059 108.652C86.2899 108.951 86.1392 109.225 85.9537 109.474C85.7711 109.726 85.558 109.954 85.3146 110.157C85.0711 110.362 84.8059 110.542 84.5189 110.696C84.2349 110.852 83.9334 110.983 83.6146 111.087C83.2957 111.191 82.9682 111.27 82.632 111.322L82.3102 109.987ZM90.3414 108.261C90.2776 108.261 90.1878 108.257 90.0718 108.248C89.9559 108.239 89.8313 108.207 89.6979 108.152C89.6342 108.512 89.5139 108.852 89.337 109.174C89.1631 109.499 88.9472 109.801 88.6892 110.083C88.4313 110.367 88.137 110.628 87.8066 110.865C87.4762 111.103 87.124 111.316 86.7501 111.504L85.9544 110.404C86.1602 110.3 86.3675 110.186 86.5762 110.061C86.7849 109.939 86.9834 109.809 87.1718 109.67C87.3631 109.533 87.5399 109.39 87.7023 109.239C87.8675 109.091 88.011 108.938 88.1327 108.778C88.2544 108.619 88.3501 108.455 88.4197 108.287C88.4892 108.122 88.524 107.954 88.524 107.783C88.524 107.774 88.5226 107.761 88.5197 107.743C88.5197 107.726 88.5197 107.709 88.5197 107.691C88.5197 107.674 88.5182 107.661 88.5153 107.652C88.5153 107.643 88.5153 107.645 88.5153 107.657V107.661C88.495 107.493 88.466 107.332 88.4284 107.178C88.3907 107.025 88.3428 106.868 88.2849 106.709C88.2298 106.549 88.1646 106.383 88.0892 106.209C88.0139 106.032 87.9298 105.839 87.837 105.63L89.0936 105.083C89.2095 105.43 89.3182 105.72 89.4197 105.952C89.5211 106.184 89.6197 106.37 89.7153 106.509C89.8139 106.648 89.9124 106.746 90.011 106.804C90.1095 106.859 90.2139 106.887 90.324 106.887H90.3457C90.4414 106.887 90.5313 106.906 90.6153 106.943C90.6994 106.981 90.7718 107.032 90.8327 107.096C90.8965 107.157 90.9457 107.229 90.9805 107.313C91.0182 107.397 91.0371 107.486 91.0371 107.578C91.0371 107.674 91.0182 107.764 90.9805 107.848C90.9457 107.932 90.8965 108.004 90.8327 108.065C90.7718 108.126 90.6994 108.174 90.6153 108.209C90.5313 108.243 90.4399 108.261 90.3414 108.261ZM89.6428 107.578C89.6428 107.488 89.6602 107.403 89.695 107.322C89.7298 107.241 89.7762 107.17 89.8341 107.109C89.8921 107.045 89.9617 106.994 90.0428 106.957C90.1211 106.916 90.2052 106.893 90.295 106.887C90.5124 106.887 90.695 106.829 90.8428 106.713C90.9936 106.594 91.1226 106.439 91.2298 106.248C91.337 106.057 91.4283 105.839 91.5037 105.596C91.5791 105.349 91.6501 105.099 91.7168 104.843L92.8733 105.052C92.8501 105.154 92.8211 105.272 92.7863 105.409C92.7544 105.542 92.724 105.681 92.695 105.826C92.6689 105.971 92.6472 106.113 92.6298 106.252C92.6124 106.388 92.6081 106.509 92.6168 106.613C92.6283 106.717 92.6559 106.8 92.6994 106.861C92.7428 106.919 92.8095 106.941 92.8994 106.926C93.0153 106.917 93.1197 106.877 93.2124 106.804C93.3081 106.732 93.3936 106.639 93.4689 106.526C93.5443 106.413 93.611 106.286 93.6689 106.143C93.7269 106.001 93.7762 105.855 93.8168 105.704C93.8602 105.554 93.895 105.404 93.9211 105.257C93.9501 105.109 93.9733 104.974 93.9907 104.852L95.095 105.039C95.0921 105.126 95.082 105.233 95.0646 105.361C95.0472 105.488 95.0312 105.623 95.0168 105.765C95.0023 105.904 94.995 106.045 94.995 106.187C94.995 106.326 95.011 106.452 95.0428 106.565C95.0747 106.675 95.1269 106.765 95.1994 106.835C95.2747 106.904 95.3791 106.939 95.5124 106.939C95.5936 106.939 95.6762 106.926 95.7602 106.9C95.8443 106.871 95.9197 106.832 95.9863 106.783C96.053 106.73 96.1066 106.67 96.1472 106.6C96.1907 106.53 96.2124 106.452 96.2124 106.365C96.2124 106.214 96.1878 106.049 96.1385 105.87C96.0892 105.687 96.0298 105.507 95.9602 105.33C95.8907 105.151 95.8168 104.981 95.7385 104.822C95.6631 104.662 95.5994 104.528 95.5472 104.417L96.6255 103.813C96.6428 103.851 96.6733 103.917 96.7168 104.013C96.7602 104.106 96.8095 104.219 96.8646 104.352C96.9197 104.486 96.9762 104.636 97.0341 104.804C97.095 104.97 97.1501 105.142 97.1994 105.322C97.2486 105.501 97.2892 105.686 97.3211 105.874C97.353 106.062 97.3689 106.245 97.3689 106.422C97.3689 106.712 97.3283 106.972 97.2472 107.204C97.1689 107.436 97.0486 107.633 96.8863 107.796C96.7269 107.958 96.5255 108.084 96.282 108.174C96.0414 108.264 95.7588 108.31 95.4341 108.313C95.2776 108.313 95.1356 108.297 95.0081 108.265C94.8805 108.236 94.766 108.194 94.6646 108.139C94.5631 108.087 94.4718 108.025 94.3907 107.952C94.3124 107.88 94.2428 107.803 94.182 107.722C94.1124 107.812 94.037 107.893 93.9559 107.965C93.8776 108.035 93.7863 108.094 93.682 108.143C93.5805 108.196 93.466 108.236 93.3385 108.265C93.211 108.294 93.066 108.31 92.9037 108.313C92.7617 108.316 92.6327 108.303 92.5168 108.274C92.4037 108.248 92.2994 108.209 92.2037 108.157C92.1081 108.104 92.0211 108.042 91.9428 107.97C91.8675 107.894 91.7965 107.812 91.7298 107.722C91.6689 107.797 91.5994 107.868 91.5211 107.935C91.4428 107.999 91.3501 108.055 91.2428 108.104C91.1356 108.154 91.011 108.193 90.8689 108.222C90.7269 108.251 90.5617 108.265 90.3733 108.265H90.295C90.2052 108.259 90.1211 108.238 90.0428 108.2C89.9617 108.162 89.8921 108.113 89.8341 108.052C89.7762 107.991 89.7298 107.92 89.695 107.839C89.6602 107.758 89.6428 107.671 89.6428 107.578ZM96.0341 102.97L95.1994 103.809L94.3733 102.983L93.5559 103.8L92.7124 102.961L93.5472 102.122L94.3733 102.948L95.1907 102.13L96.0341 102.97ZM93.5994 101.709L94.3733 100.935L95.1515 101.713L94.3776 102.487L93.5994 101.709Z" fill="#636363"/>
<mask id="mask0_4261_40466" style="mask-type:luminance" maskUnits="userSpaceOnUse" x="120" y="2" width="253" height="157">
<path d="M369.712 2H123.286C121.751 2 120.506 3.24082 120.506 4.77146V156.229C120.506 157.759 121.751 159 123.286 159H369.712C371.247 159 372.492 157.759 372.492 156.229V4.77146C372.492 3.24082 371.247 2 369.712 2Z" fill="white"/>
</mask>
<g mask="url(#mask0_4261_40466)">
<g opacity="0.22">
<path d="M382.464 115.619V3.97328C382.464 3.26244 382.689 2.10731 382.464 1.43454C381.696 -0.850327 377.629 -1.9843 375.363 -2.66553C369.039 -4.56112 361.831 -4.49342 355.643 -2.11547C349.968 0.063621 345.694 4.18061 342.218 9.13116C338.648 14.2213 336.802 20.2889 333.317 25.413C329.79 30.6047 325.32 32.5045 319.331 33.6512C302.685 36.8373 287.315 25.7811 270.55 26.9827C268.928 27.097 267.311 27.3466 265.741 27.7655C256.072 30.3508 251.258 39.0418 247.506 47.555C243.13 57.4984 238.767 66.1428 231.483 74.3472C226.632 79.8097 217.871 81.8576 215.125 88.9661C213.258 93.7982 213.601 99.2861 214.378 104.304C214.977 108.18 217.12 111.764 217.489 115.614C218.58 127.039 201 130.889 190.134 130.212C184.115 129.836 175.287 129.501 170.172 133.119C162.914 138.256 159.459 148.263 152.787 154.22C145.448 160.774 131.632 167.193 121.568 164.693V171.463H382.464V115.61V115.619Z" fill="#ACB4FF"/>
</g>
<g opacity="0.58">
<path d="M363.444 34.4139C362.918 33.0937 361.632 32.1629 360.121 32.1629C359.28 32.1629 358.512 32.4506 357.905 32.933C357.693 31.5324 356.479 30.4577 355.015 30.4577C354.361 30.4577 353.763 30.6735 353.274 31.0331C352.888 29.2391 351.292 27.8936 349.378 27.8936C347.243 27.8936 345.503 29.5691 345.401 31.6763C345.087 31.562 344.752 31.4986 344.399 31.4986C343.338 31.4986 342.409 32.0656 341.895 32.9118C341.471 32.7849 341.021 32.7129 340.558 32.7129C339.106 32.7129 337.816 33.3772 336.963 34.4181H363.44L363.444 34.4139Z" fill="white"/>
<path d="M279.348 43.5241C278.8 42.8132 277.939 42.352 276.967 42.352C276.61 42.352 276.271 42.4155 275.952 42.5297C275.732 42.132 275.307 41.8654 274.819 41.8654C274.675 41.8654 274.539 41.8908 274.412 41.9331C274.212 40.8795 273.287 40.0841 272.175 40.0841C271.725 40.0841 271.309 40.2152 270.952 40.4395C270.401 39.0686 269.059 38.0996 267.489 38.0996C265.918 38.0996 264.518 39.1109 263.991 40.5283C263.601 40.3168 263.155 40.1983 262.684 40.1983C261.538 40.1983 260.558 40.8965 260.146 41.8866C259.9 41.8443 259.645 41.8189 259.386 41.8189C257.934 41.8189 256.644 42.4832 255.791 43.5241H279.352H279.348Z" fill="white"/>
<path d="M298.736 60.0262C297.883 58.7273 296.41 57.8725 294.738 57.8725C293.872 57.8725 293.061 58.1053 292.361 58.5072C291.644 57.7245 290.616 57.2252 289.466 57.2252C288.961 57.2252 288.477 57.3225 288.036 57.496C287.904 55.4607 286.211 53.8444 284.135 53.8444C283.431 53.8444 282.773 54.0306 282.204 54.3564C281.351 52.5539 279.517 51.3057 277.386 51.3057C274.67 51.3057 272.433 53.3324 272.102 55.9516C270.829 55.9685 269.725 56.6963 269.173 57.7541C269.127 57.7541 269.08 57.7456 269.033 57.7456C267.094 57.7456 265.366 58.6342 264.229 60.022H298.732L298.736 60.0262Z" fill="white"/>
</g>
<path d="M260.728 122.283H291.098C291.314 121.83 291.441 121.327 291.441 120.789C291.441 118.881 289.888 117.332 287.974 117.332C287.825 117.332 287.685 117.345 287.541 117.362C287.142 116.338 286.148 115.61 284.977 115.61C284.811 115.61 284.646 115.627 284.489 115.657C284.489 115.572 284.502 115.487 284.502 115.403C284.502 112.61 282.231 110.342 279.425 110.342C278.661 110.342 277.944 110.516 277.294 110.816C276.866 107.715 274.2 105.32 270.97 105.32C268.602 105.32 266.539 106.606 265.435 108.514C264.57 107.922 263.521 107.575 262.388 107.575C259.506 107.575 257.154 109.83 256.997 112.665C256.272 112.801 255.601 113.088 255.019 113.499C254.374 113.165 253.64 112.97 252.859 112.97C250.274 112.97 248.177 115.06 248.177 117.637C248.177 117.675 248.182 117.713 248.182 117.751C246.688 118.136 245.584 119.486 245.584 121.094C245.584 121.513 245.66 121.91 245.8 122.283H260.72H260.728Z" fill="#99A1F2"/>
<path d="M403.613 72.7144H335.6V117.489H403.613V72.7144Z" fill="#BFC4F8"/>
<path d="M372.042 38.0483H298.732L265.531 72.7149H338.838L372.042 38.0483Z" fill="#C2C7F6"/>
<path d="M335.599 72.7148H272.076V117.49H335.599V72.7148Z" fill="#CED3FF"/>
<path d="M303.541 38.0488L270.336 72.7153H336.847L303.647 38.0488H303.541Z" fill="#CED3FF"/>
<path d="M303.541 41.1165H303.647L333.91 72.7153H336.847L303.647 38.0488H303.541L270.336 72.7153H273.277L303.541 41.1165Z" fill="#99A1F2"/>
<path d="M298.732 38.0483H372.043L405.243 72.7149H331.933L298.732 38.0483Z" fill="#FEFFFF"/>
<path d="M303.646 38.0483H376.957L410.157 72.7149H336.847L303.646 38.0483Z" fill="#ACB4FF"/>
<path d="M307.228 59.4463H298.777V69.5589H307.228V59.4463Z" fill="#EBEDFF" stroke="white" stroke-width="2.72" stroke-miterlimit="10"/>
<path d="M303 59.4463V69.5589" stroke="white" stroke-width="2.72" stroke-miterlimit="10"/>
<path d="M298.777 64.4443H307.228" stroke="white" stroke-width="2.72" stroke-miterlimit="10"/>
<path d="M289.048 98.458H277.689V83.3948C277.689 80.2679 280.232 77.7334 283.369 77.7334C286.505 77.7334 289.048 80.2679 289.048 83.3948V98.458Z" fill="#EBEDFF" stroke="white" stroke-width="2.72" stroke-miterlimit="10"/>
<path d="M283.373 77.7334V98.458" stroke="white" stroke-width="2.72" stroke-miterlimit="10"/>
<path d="M277.693 84.8677H289.047" stroke="white" stroke-width="2.72" stroke-miterlimit="10"/>
<path d="M277.693 91.5879H289.047" stroke="white" stroke-width="2.72" stroke-miterlimit="10"/>
<path d="M290.732 97.8188H276.008V100.362H290.732V97.8188Z" fill="#C3CAFE"/>
<path d="M290.732 99.6592H276.008V100.362H290.732V99.6592Z" fill="#99A1F2"/>
<path d="M329.983 98.458H318.625V83.3948C318.625 80.2679 321.167 77.7334 324.304 77.7334C327.441 77.7334 329.983 80.2679 329.983 83.3948V98.458Z" fill="#EBEDFF" stroke="white" stroke-width="2.72" stroke-miterlimit="10"/>
<path d="M324.305 77.7334V98.458" stroke="white" stroke-width="2.72" stroke-miterlimit="10"/>
<path d="M318.625 84.8677H329.983" stroke="white" stroke-width="2.72" stroke-miterlimit="10"/>
<path d="M318.625 91.5879H329.983" stroke="white" stroke-width="2.72" stroke-miterlimit="10"/>
<path d="M331.664 97.8188H316.939V100.362H331.664V97.8188Z" fill="#C3CAFE"/>
<path d="M331.664 99.6592H316.939V100.362H331.664V99.6592Z" fill="#99A1F2"/>
<path d="M312.881 78.3428H294.787V117.49H312.881V78.3428Z" fill="#ACB4FF"/>
<path d="M311.127 80.0903H296.539V117.49H311.127V80.0903Z" fill="#99A1F2"/>
<path d="M310.253 80.9658H297.418V117.49H310.253V80.9658Z" fill="#ACB4FF"/>
<path d="M308.115 100.151C308.734 100.151 309.235 99.6505 309.235 99.0335C309.235 98.4166 308.734 97.9165 308.115 97.9165C307.496 97.9165 306.994 98.4166 306.994 99.0335C306.994 99.6505 307.496 100.151 308.115 100.151Z" fill="#99A1F2"/>
<g opacity="0.28">
<path d="M372.564 88.9287H368.252V90.4308H372.564V88.9287Z" fill="#979EE7"/>
<path d="M362.438 100.184H358.244V101.686H362.438V100.184Z" fill="#979EE7"/>
<path d="M350.396 83.9985H347.734V85.5006H350.396V83.9985Z" fill="#979EE7"/>
<path d="M369.586 76.9585H366.033V78.4606H369.586V76.9585Z" fill="#979EE7"/>
<path d="M375.654 86.7534H371.342V88.2555H375.654V86.7534Z" fill="#979EE7"/>
<path d="M350.344 108.447H346.031V109.949H350.344V108.447Z" fill="#979EE7"/>
<path d="M344.933 108.447H342.271V109.949H344.933V108.447Z" fill="#979EE7"/>
<path d="M348.562 106.277H344.25V107.779H348.562V106.277Z" fill="#979EE7"/>
</g>
<path d="M311.762 42.3047H374.983" stroke="#99A1F2" stroke-width="1.03" stroke-miterlimit="10"/>
<path d="M318.451 48.7485H381.673" stroke="#99A1F2" stroke-width="1.03" stroke-miterlimit="10"/>
<path d="M325.141 55.1924H388.362" stroke="#99A1F2" stroke-width="1.03" stroke-miterlimit="10"/>
<path d="M331.828 61.6382H395.05" stroke="#99A1F2" stroke-width="1.03" stroke-miterlimit="10"/>
<path d="M338.523 68.082H401.745" stroke="#99A1F2" stroke-width="1.03" stroke-miterlimit="10"/>
<path d="M376.843 119.576H268.516V122.284H376.843V119.576Z" fill="#7C84D5"/>
<path d="M376.845 117.49H272.078V119.576H376.845V117.49Z" fill="#B5BEFF"/>
<path d="M354.832 122.284H390.949C391.632 121.383 392.044 120.262 392.044 119.043C392.044 116.47 390.231 114.321 387.816 113.788C387.693 111.101 385.477 108.96 382.752 108.96C381.14 108.96 379.701 109.713 378.771 110.885C377.926 110.335 376.916 110.014 375.83 110.014C375.507 110.014 375.197 110.047 374.892 110.098C374.183 107.348 371.687 105.317 368.707 105.317C365.477 105.317 362.812 107.708 362.383 110.813C361.734 110.513 361.016 110.339 360.252 110.339C357.451 110.339 355.176 112.603 355.176 115.4C355.176 115.62 355.193 115.832 355.223 116.043C355.146 116.039 355.07 116.03 354.994 116.03C353.958 116.03 353.058 116.602 352.587 117.444C352.307 117.372 352.01 117.325 351.704 117.325C349.79 117.325 348.236 118.874 348.236 120.782C348.236 121.319 348.364 121.823 348.58 122.276H354.832V122.284Z" fill="#EEF0FF"/>
<path d="M384.045 122.283H367.055C366.732 121.86 366.541 121.331 366.541 120.76C366.541 119.549 367.394 118.538 368.532 118.289C368.591 117.023 369.631 116.016 370.913 116.016C371.673 116.016 372.347 116.372 372.785 116.922C373.184 116.664 373.659 116.511 374.168 116.511C374.321 116.511 374.465 116.528 374.61 116.554C374.945 115.259 376.117 114.303 377.517 114.303C379.037 114.303 380.289 115.428 380.493 116.888C380.798 116.748 381.138 116.668 381.494 116.668C382.814 116.668 383.884 117.734 383.884 119.05C383.884 119.152 383.875 119.253 383.863 119.355C383.897 119.355 383.935 119.351 383.969 119.351C384.457 119.351 384.881 119.617 385.102 120.015C385.234 119.981 385.374 119.96 385.518 119.96C386.418 119.96 387.152 120.688 387.152 121.589C387.152 121.843 387.093 122.08 386.991 122.291H384.049L384.045 122.283Z" fill="#CED3FF"/>
<path d="M242.544 122.284H265.197C265.625 121.717 265.884 121.015 265.884 120.253C265.884 118.641 264.747 117.291 263.232 116.957C263.155 115.273 261.763 113.928 260.057 113.928C259.042 113.928 258.142 114.402 257.561 115.138C257.03 114.795 256.398 114.592 255.719 114.592C255.519 114.592 255.32 114.613 255.129 114.647C254.683 112.925 253.121 111.647 251.249 111.647C249.225 111.647 247.552 113.149 247.285 115.095C246.878 114.909 246.428 114.799 245.948 114.799C244.191 114.799 242.765 116.221 242.765 117.973C242.765 118.108 242.777 118.243 242.794 118.379C242.748 118.379 242.701 118.37 242.65 118.37C242.001 118.37 241.436 118.73 241.143 119.259C240.965 119.212 240.782 119.187 240.591 119.187C239.39 119.187 238.414 120.16 238.414 121.358C238.414 121.692 238.495 122.009 238.631 122.293H242.552L242.544 122.284Z" fill="#CED3FF"/>
<path d="M369 164.643C369.578 161.851 371.208 160.277 373.508 158.626C375.282 157.353 377.481 156.168 378.466 154.103C380.635 149.542 376.365 147.638 374.484 144.295C372.506 140.779 374.276 136.751 373.287 133.053C372.706 130.886 371.602 130.535 369.811 129.507C368.559 128.788 367.26 127.92 366.297 126.829C364.917 125.272 364.022 123.249 361.946 122.602C358.211 121.434 356.331 125.382 357.154 128.61C357.982 131.855 359.824 134.068 358.512 137.491C357.85 139.222 357.018 140.699 357.579 142.565C358.13 144.414 359.582 145.759 361.021 146.969C363.818 149.326 365.821 151.158 365.656 154.911C365.541 157.564 365.236 160.019 366.882 162.299C367.536 163.2 368.33 163.827 369.009 164.639L369 164.643Z" fill="#99A1F2"/>
<path d="M368.096 163.869C368.096 163.869 372.277 147.676 362.723 127.514" stroke="#7C84D5" stroke-width="0.52" stroke-miterlimit="10"/>
<path d="M368.725 148.857C368.725 148.857 365.521 145.269 360.949 143.094" stroke="#7C84D5" stroke-width="0.52" stroke-miterlimit="10"/>
<path d="M368.953 156.854C368.953 156.854 371.237 153.976 374.467 152.174" stroke="#7C84D5" stroke-width="0.52" stroke-miterlimit="10"/>
<path d="M367.791 142.645C367.791 142.645 368.389 138.376 370.898 135.774" stroke="#7C84D5" stroke-width="0.52" stroke-miterlimit="10"/>
<path d="M365.855 135.351C365.855 135.351 362.498 131.387 359.514 129.449" stroke="#7C84D5" stroke-width="0.52" stroke-miterlimit="10"/>
<path d="M370.507 167.85C370.507 167.85 368.173 149.207 344.068 127.708" stroke="#7C84D5" stroke-width="0.88" stroke-miterlimit="10"/>
<path d="M349.149 132.586C349.149 132.586 347.311 130.102 350.1 127.555C350.1 127.555 352.315 130.208 349.149 132.586Z" fill="#7C84D5"/>
<path d="M352.558 136.176C352.558 136.176 350.5 133.391 353.623 130.54C353.623 130.54 356.106 133.514 352.558 136.176Z" fill="#7C84D5"/>
<path d="M355.677 139.704C355.677 139.704 353.457 136.704 356.823 133.627C356.823 133.627 359.501 136.835 355.677 139.704Z" fill="#7C84D5"/>
<path d="M359.073 144.037C359.073 144.037 356.535 140.605 360.384 137.089C360.384 137.089 363.449 140.757 359.073 144.037Z" fill="#7C84D5"/>
<path d="M361.929 148.127C361.929 148.127 359.718 143.879 364.603 140.651C364.603 140.651 367.358 145.25 361.929 148.127Z" fill="#7C84D5"/>
<path d="M365.324 153.89C365.324 153.89 362.705 149.616 366.848 145.851C366.848 145.851 370.019 150.45 365.324 153.89Z" fill="#7C84D5"/>
<path d="M351.046 134.5C351.046 134.5 348.737 131.919 345.295 134.377C345.295 134.377 347.706 137.411 351.046 134.5Z" fill="#7C84D5"/>
<path d="M354.544 138.19C354.544 138.19 351.908 135.672 348.5 138.537C348.5 138.537 351.28 141.524 354.544 138.19Z" fill="#7C84D5"/>
<path d="M357.472 141.6C357.472 141.6 354.455 139.108 351.029 142.433C351.029 142.433 354.234 145.416 357.472 141.6Z" fill="#7C84D5"/>
<path d="M360.688 146.114C360.688 146.114 357.806 143.16 353.838 146.262C353.838 146.262 356.86 149.752 360.688 146.114Z" fill="#7C84D5"/>
<path d="M363.138 150.137C363.138 150.137 360.256 147.184 356.287 150.285C356.287 150.285 359.309 153.776 363.138 150.137Z" fill="#7C84D5"/>
<path d="M366.563 156.032C366.563 156.032 364.441 152.495 359.861 154.602C359.861 154.602 361.996 158.694 366.563 156.032Z" fill="#7C84D5"/>
<path d="M346.411 129.777C346.411 129.777 343.011 130.454 341.742 126.426C341.742 126.426 345.499 125.444 346.411 129.777Z" fill="#7C84D5"/>
<path d="M369.009 165.429C366.488 161.837 367.532 158.177 366.887 154.001C366.556 151.847 365.647 150.417 363.737 149.224C361.017 147.527 358.92 148.775 356.046 149.292C352.303 149.969 348.691 144.696 345.626 143.258C342.714 141.891 340.032 141.861 337.311 143.423C335.792 144.294 334.539 145.128 332.786 145.551C330.151 146.19 327.209 145.403 324.629 146.334C323.241 146.837 321.42 147.921 320.889 149.342C319.612 152.799 322.888 156.222 325.923 157.136C328.368 157.872 330.983 156.785 333.461 157.437C335.579 157.995 337.022 159.425 338.393 161.05C341.063 164.224 344.166 167.24 348.64 165.954C352.383 164.879 356.237 162.743 360.257 163.42C363.338 163.936 366.233 165.248 369.005 165.421L369.009 165.429Z" fill="#ACB4FF"/>
<path d="M369.009 165.427C369.009 165.427 354.722 151.155 327.867 148.655" stroke="#7C84D5" stroke-width="0.63" stroke-miterlimit="10"/>
<path d="M353.772 155.555C353.772 155.555 348.068 156.664 343 160.057" stroke="#7C84D5" stroke-width="0.63" stroke-miterlimit="10"/>
<path d="M362.235 160.227C362.235 160.227 360.643 156.098 360.749 151.655" stroke="#7C84D5" stroke-width="0.63" stroke-miterlimit="10"/>
<path d="M346.729 152.709C346.729 152.709 342.654 149.463 341.482 145.274" stroke="#7C84D5" stroke-width="0.63" stroke-miterlimit="10"/>
<path d="M337.952 150.229C337.952 150.229 331.764 151.266 327.914 153.165" stroke="#7C84D5" stroke-width="0.63" stroke-miterlimit="10"/>
<path opacity="0.22" d="M227.667 64.5438C233.125 61.5312 242.87 53.5722 240.09 46.1676C238.019 40.65 230.268 42.1225 228.286 46.743C227.166 49.3537 227.17 52.159 225.684 54.5666C224.526 56.4495 223.227 57.41 222.59 59.5087C221.758 62.2336 224.224 68.0431 227.667 64.5438Z" fill="#ACB4FF"/>
<path opacity="0.22" d="M326.798 24.719C326.942 25.2479 326.857 25.8529 326.717 26.4918C326.522 27.3677 325.745 28.1674 325.181 28.7217C324.013 29.8726 322.867 29.9657 321.403 30.2238C319.875 30.4946 318.462 31.0193 317.018 31.6455C315.524 32.2929 313.742 32.1829 312.193 31.8105C311.076 31.5439 309.714 30.3253 309.387 29.001C309.183 28.1843 309.226 26.9827 309.705 26.3184C310.775 24.829 312.783 24.2704 314.344 24.2197C316.208 24.1562 318.109 24.5539 319.951 24.1054C321.356 23.7627 322.71 23.1322 324.166 23.1407C324.905 23.1449 325.669 23.3184 326.267 23.8558C326.552 24.1097 326.717 24.3974 326.802 24.7147L326.798 24.719Z" fill="#ACB4FF"/>
</g>
<path opacity="0.18" d="M261.566 145.645C290.165 145.645 313.349 143.944 313.349 141.846C313.349 139.747 290.165 138.046 261.566 138.046C232.967 138.046 209.783 139.747 209.783 141.846C209.783 143.944 232.967 145.645 261.566 145.645Z" fill="#ACBFFF"/>
<path d="M297.049 139.602L295.967 130.806L298.743 131.203L299.125 139.949L297.957 141.011L297.049 139.602Z" fill="#FF8B66"/>
<path d="M299.124 139.95C299.124 139.95 299.765 141.867 299.4 142.032C299.035 142.197 298.076 142.18 297.69 142.032C297.69 142.032 296.293 142.505 293.25 142.15C293.25 142.15 292.999 141.329 293.967 140.864C294.939 140.398 296.276 140.178 297.049 139.599C297.049 139.599 297.982 139.975 299.124 139.95Z" fill="#1C2635"/>
<path d="M288.599 139.602L288.111 130.806L290.887 131.203L290.675 139.949L289.508 141.011L288.599 139.602Z" fill="#FF8B66"/>
<path d="M290.675 139.95C290.675 139.95 291.316 141.867 290.951 142.032C290.586 142.197 289.627 142.18 289.24 142.032C289.24 142.032 287.844 142.505 284.801 142.15C284.801 142.15 284.55 141.329 285.518 140.864C286.49 140.398 287.827 140.178 288.599 139.599C288.599 139.599 289.533 139.975 290.675 139.95Z" fill="#1C2635"/>
<path d="M299.418 97.73C299.418 97.73 301.345 109.451 300.084 138.824H296.595C296.595 138.824 293.76 119.407 292.597 111.291L291.654 138.824H288.263C288.263 138.824 285.186 105.207 286.905 97.73H299.418Z" fill="#253147"/>
<path d="M299.766 100.709C299.57 98.6778 299.418 97.73 299.418 97.73H286.901C286.718 98.5297 286.587 99.6298 286.506 100.95C286.514 100.95 293.7 103.286 299.766 100.705V100.709Z" fill="#1C2635"/>
<path d="M292.594 110.847L291.689 105.126C291.689 105.126 292.033 110.995 292.428 115.67L292.594 110.847Z" fill="#1C2635"/>
<path d="M278.234 94.3286C278.234 94.3286 277.322 94.9125 276.655 95.3356C276.074 95.7038 274.894 96.4019 274.601 96.6008C274.601 96.6008 272.381 97.6501 272.406 98.0183C272.453 98.6868 273.909 99.4146 275.356 98.9788C276.006 98.7799 276.85 98.0606 277.02 97.7094C277.368 96.9816 279.253 95.9661 279.253 95.9661L278.234 94.3328V94.3286Z" fill="#F97F5F"/>
<path d="M270.501 94.7979C270.501 94.7979 271.706 95.7499 272.067 95.7795C272.428 95.8091 272.895 95.8133 273.145 95.8472C273.396 95.8853 273.846 96.2915 274.181 96.338C274.516 96.3846 274.75 96.503 274.75 96.503C274.75 96.503 274.151 96.8669 274.083 96.9727C274.011 97.0869 274.593 97.3535 275.009 97.4635C275.42 97.5693 276.689 98.0136 276.757 98.1786C276.825 98.3436 275.599 99.1053 274.703 99.2153C273.892 99.3168 272.56 98.7287 272.33 98.5594C272.101 98.3902 271.863 97.874 271.405 97.6074C270.947 97.3408 269.41 96.6638 269.41 96.6638L270.505 94.7979H270.501Z" fill="#FF8B66"/>
<path d="M276.655 95.3359C276.655 95.3359 275.683 95.8141 274.588 95.7929C274.274 95.7887 273.497 96.4107 273.4 96.4953C273.302 96.5799 273.557 96.8253 273.956 96.6688C274.355 96.508 274.66 96.4361 274.754 96.4488C275.025 96.4911 276.048 96.3895 276.048 96.3895L276.655 95.3359Z" fill="#F97F5F"/>
<path d="M272.622 98.7246C272.622 98.7246 272.545 98.1491 272.622 98.0603C272.698 97.9714 274.163 98.7542 274.409 98.7246C274.659 98.6949 274.587 99.1731 274.447 99.2704C274.307 99.3677 272.851 99.0927 272.618 98.7246H272.622Z" fill="#F97F5F"/>
<path d="M289.828 76.5029C290.558 77.6538 290.04 81.6396 289.701 84.208C289.204 87.9527 289.001 89.7001 288.296 90.8764C286.271 94.2487 279.527 96.6351 278.113 97.3968C277.706 96.9609 276.883 95.8566 276.543 95.1246C276.543 95.1246 281.95 90.9738 283.695 88.3208C283.695 88.3208 285.371 81.5931 285.978 79.0671C286.81 75.5974 289.264 75.6101 289.828 76.5072V76.5029Z" fill="#405584"/>
<path d="M276.543 95.1213L277.838 93.8984C277.838 93.8984 278.478 95.6459 279.646 96.7799L278.113 97.3977C278.113 97.3977 277.023 96.581 276.543 95.1255V95.1213Z" fill="#596B99"/>
<path d="M250.15 139.602L251.232 130.806L248.456 131.203L248.074 139.949L249.241 141.011L250.15 139.602Z" fill="#FF8B66"/>
<path d="M248.074 139.95C248.074 139.95 247.433 141.867 247.798 142.032C248.163 142.197 249.122 142.18 249.508 142.032C249.508 142.032 250.905 142.505 253.948 142.15C253.948 142.15 254.199 141.329 253.231 140.864C252.259 140.398 250.922 140.178 250.149 139.599C250.149 139.599 249.216 139.975 248.074 139.95Z" fill="#1C2635"/>
<path d="M258.6 139.602L259.093 130.806L256.312 131.203L256.525 139.949L257.692 141.011L258.6 139.602Z" fill="#FF8B66"/>
<path d="M256.525 139.95C256.525 139.95 255.884 141.867 256.249 142.032C256.614 142.197 257.573 142.18 257.96 142.032C257.96 142.032 259.356 142.505 262.399 142.15C262.399 142.15 262.65 141.329 261.682 140.864C260.71 140.398 259.373 140.178 258.601 139.599C258.601 139.599 257.667 139.975 256.525 139.95Z" fill="#1C2635"/>
<path d="M248.133 97.73C248.133 97.73 246.206 109.451 247.467 138.824H250.956C250.956 138.824 253.791 119.407 254.954 111.291L255.896 138.824H259.288C259.288 138.824 262.365 105.207 260.646 97.73H248.133Z" fill="#253147"/>
<path d="M254.955 110.847L255.859 105.126C255.859 105.126 255.515 110.995 255.121 115.67L254.955 110.847Z" fill="#1C2635"/>
<path d="M250.162 100.491C250.162 100.491 249.046 117.924 249.207 138.826" stroke="#1C2635" stroke-width="0.38" stroke-miterlimit="10"/>
<path d="M249.988 103.585C249.988 103.585 253.371 102.519 253.112 100.132" stroke="#1C2635" stroke-width="0.38" stroke-miterlimit="10"/>
<path d="M257.722 76.5015C256.996 77.6524 257.51 81.6382 257.849 84.2065C258.346 87.9512 258.549 89.6987 259.254 90.875C261.279 94.2473 268.023 96.6337 269.437 97.3953C269.844 96.9595 270.774 95.6478 271.109 94.9158C271.109 94.9158 265.6 90.9765 263.855 88.3193C263.855 88.3193 262.026 81.6255 261.419 79.0952C260.587 75.6256 258.286 75.6087 257.717 76.5057L257.722 76.5015Z" fill="#FB9823"/>
<path d="M255.095 74.8943C255.095 74.8943 259.798 75.3428 260.745 77.3146C262.192 80.3315 261.551 86.9407 261.19 93.5372C261.071 95.7374 262.591 99.7952 260.974 100.015C260.974 100.015 253.172 102.347 247.888 99.6555C246.683 98.8812 247.914 95.3397 247.739 92.8813C247.277 86.3017 246.296 79.0536 247.697 77.1961C249.442 74.8816 254.666 74.8478 255.095 74.8901V74.8943Z" fill="#FFAA3F"/>
<path d="M247.891 99.659C246.686 98.8847 247.917 95.3432 247.742 92.8848C247.331 87.0076 246.503 80.5931 247.331 77.9697C248.867 78.7779 250.366 79.6453 250.353 79.9542C250.353 79.9542 250.514 88.0612 249.61 91.0273C248.706 93.9934 247.806 98.267 248.651 99.9975C248.392 99.8918 248.137 99.7817 247.891 99.6548V99.659Z" fill="#FB9823"/>
<path d="M252.866 67.164C252.866 67.164 251.614 66.669 251.138 67.7183C250.518 69.085 252.305 72.1992 253.027 74.2217C253.027 74.2217 254.568 68.3361 252.861 67.164H252.866Z" fill="#742F28"/>
<path d="M253.344 69.4771C253.344 69.4771 252.78 74.2541 252.682 75.0369C252.61 75.6166 253.454 77.2879 255.369 77.0764C256.689 76.9325 256.646 75.1427 256.608 74.5884C256.566 74.0341 256.566 70.556 256.566 70.556L253.344 69.4813V69.4771Z" fill="#F97F5F"/>
<path d="M258.561 67.9421C258.561 67.9421 259.457 74.5809 256.482 74.5809C253.799 74.5809 253.056 71.7291 253.099 71.2636C253.099 71.2636 252.399 70.9632 252.314 70.4682C252.233 69.9731 252.87 69.6431 253.286 69.9731C253.286 69.9731 253.43 68.2256 254.584 67.5232C255.739 66.8251 257.895 67.4555 258.561 67.9421Z" fill="#FF8B66"/>
<path d="M254.155 68.4538C254.155 68.4538 256.405 67.1252 258.561 67.9418C258.561 67.9418 261.651 66.702 260.259 64.6626C259.474 63.5117 258.077 64.7557 256.728 64.4975C255.675 64.2987 255.004 65.5427 253.858 65.5046C252.572 65.4623 251.643 66.1435 251.711 66.9855C251.855 68.7542 253.281 69.9685 253.281 69.9685C253.281 69.9685 253.425 70.2774 253.362 70.6286C253.362 70.6286 254.58 69.9685 254.151 68.4538H254.155Z" fill="#742F28"/>
<path d="M244.458 100.492C244.458 100.492 244.356 102.392 244.042 102.882C243.724 103.373 243.303 103.936 243.269 104.757C243.248 105.328 243.414 105.468 243.702 106.018C243.804 106.212 244.301 106.568 244.683 106.631C245.23 106.724 245.816 106.695 245.943 106.462C246.16 106.064 246.058 104.659 246.058 104.659C246.058 104.659 246.266 105.324 246.648 105.391C247.026 105.459 246.771 105.002 246.69 104.858C246.538 104.596 246.406 104.126 246.419 103.911C246.432 103.695 245.931 103.331 245.905 103.098C245.88 102.865 246.266 100.97 246.266 100.97L244.458 100.492Z" fill="#FF8B66"/>
<path d="M248.126 76.6154C247.027 77.4193 245.146 82.4206 244.047 88.594C243.767 90.1765 243.631 100.886 243.741 101.808C243.886 103.022 246.755 102.98 246.827 102.02C247.061 98.859 247.96 90.9254 248.389 89.3471C249.098 86.7534 249.994 83.5334 250.647 81.0158C251.513 77.6689 248.979 75.9849 248.122 76.6154H248.126Z" fill="#FFB64B"/>
<path d="M292.454 74.8943C292.454 74.8943 287.751 75.3428 286.804 77.3146C285.357 80.3315 285.998 86.9407 286.359 93.5372C286.478 95.7374 284.962 99.7952 286.579 100.015C286.579 100.015 294.381 102.347 299.665 99.6555C300.871 98.8812 299.64 95.3397 299.814 92.8813C300.276 86.3017 301.257 79.0536 299.856 77.1961C298.112 74.8816 292.887 74.8478 292.458 74.8901L292.454 74.8943Z" fill="#4A5F8E"/>
<path d="M299.66 99.6605C300.866 98.8862 299.635 95.3446 299.809 92.8863C300.221 87.0091 301.048 80.5946 300.221 77.9712C298.684 78.7794 297.186 79.6468 297.199 79.9556C297.199 79.9556 297.037 88.0627 297.941 91.0288C298.846 93.9949 299.745 98.2684 298.901 99.999C299.16 99.8932 299.414 99.7832 299.66 99.6563V99.6605Z" fill="#405584"/>
<path d="M294.768 66.3159C294.768 66.3159 296.237 66.4175 296.606 67.5091C297.302 69.557 295.528 72.8743 294.212 73.7079C294.212 73.7079 293.062 67.488 294.764 66.3159H294.768Z" fill="#442D24"/>
<path d="M294.203 69.479C294.203 69.479 294.661 73.9726 294.759 74.7511C294.831 75.3308 294.093 77.2856 292.178 77.0741C290.858 76.9302 290.901 75.1404 290.939 74.5861C290.981 74.0318 290.981 70.5537 290.981 70.5537L294.203 69.479Z" fill="#F97F5F"/>
<path d="M288.986 67.9418C288.986 67.9418 288.09 74.5806 291.066 74.5806C293.748 74.5806 294.491 71.7288 294.448 71.2633C294.448 71.2633 295.017 70.7767 295.098 70.2817C295.179 69.7866 294.673 69.6428 294.262 69.9728C294.262 69.9728 294.525 67.7006 293.37 66.9982C292.216 66.2958 289.066 66.8713 288.986 67.9418Z" fill="#FF8B66"/>
<path d="M294.054 67.7855C294.054 67.7855 290.824 68.6444 288.99 67.942C287.955 67.5485 287.751 63.8208 290.217 64.1466C293.396 64.5655 294.928 66.0126 295.115 66.3469C295.302 66.6811 294.61 67.9293 294.058 67.7855H294.054Z" fill="#442D24"/>
<path d="M292.357 67.2143C292.357 67.2143 292.017 68.5852 293.354 69.1564C293.902 69.3891 294.127 70.7051 294.127 70.7051C294.127 70.7051 294.195 70.1296 294.267 69.9688C294.339 69.808 295.209 68.9956 295.209 68.9956C295.209 68.9956 295.977 67.5105 294.763 67.1297C293.55 66.7488 292.357 67.2101 292.357 67.2101V67.2143Z" fill="#442D24"/>
<path d="M291.865 76.688C292.03 76.7176 292.62 77.1365 292.62 77.1365C292.62 77.1365 292.051 78.2112 291.763 78.2874C291.474 78.3678 291.186 77.1661 291.186 77.0434C291.186 76.9207 291.644 76.6457 291.865 76.6838V76.688Z" fill="#333A44"/>
<path d="M291.865 76.6877L292.583 78.1094C292.583 78.1094 294.637 76.9205 295.21 75.0883L294.751 74.6821C294.751 74.6821 294.106 76.2054 291.865 76.692V76.6877Z" fill="#596B99"/>
<path d="M290.927 74.9746C290.927 74.9746 290.978 76.1044 291.861 76.6883L291.165 77.7334C291.165 77.7334 290.596 76.4513 290.698 75.1904L290.927 74.9746Z" fill="#596B99"/>
<path d="M291.563 77.7329L290.133 91.239L291.118 92.6692L292.242 91.4506L291.903 77.7329H291.563Z" fill="#333A44"/>
<path d="M304.442 105.681L301.461 106.247C300.984 106.338 300.671 106.796 300.762 107.272L301.001 108.518C301.091 108.994 301.551 109.305 302.028 109.215L305.009 108.648C305.486 108.558 305.799 108.099 305.708 107.624L305.469 106.377C305.379 105.902 304.919 105.59 304.442 105.681Z" stroke="#5E3C2D" stroke-width="1.41" stroke-miterlimit="10"/>
<path d="M308.884 107.459L296.278 109.797C295.649 109.914 295.234 110.517 295.351 111.144L296.912 119.51C297.029 120.137 297.634 120.551 298.263 120.434L310.869 118.096C311.499 117.979 311.914 117.376 311.797 116.749L310.235 108.384C310.118 107.756 309.513 107.343 308.884 107.459Z" fill="#5E3C2D"/>
<path d="M308.917 107.429L296.311 109.767C295.682 109.883 295.267 110.486 295.384 111.114L296.945 119.479C297.062 120.106 297.667 120.52 298.296 120.403L310.903 118.065C311.532 117.949 311.947 117.345 311.83 116.718L310.268 108.353C310.151 107.726 309.546 107.312 308.917 107.429Z" fill="#5E3C2D"/>
<path d="M308.949 107.394L296.342 109.733C295.713 109.849 295.298 110.452 295.415 111.079L296.976 119.445C297.094 120.072 297.698 120.486 298.328 120.369L310.934 118.031C311.563 117.914 311.978 117.311 311.861 116.684L310.3 108.319C310.183 107.691 309.578 107.278 308.949 107.394Z" fill="#5E3C2D"/>
<path d="M308.98 107.367L296.374 109.705C295.744 109.822 295.329 110.425 295.446 111.052L297.008 119.418C297.125 120.045 297.73 120.459 298.359 120.342L310.965 118.004C311.594 117.887 312.009 117.284 311.892 116.657L310.331 108.291C310.214 107.664 309.609 107.25 308.98 107.367Z" fill="#5E3C2D"/>
<path d="M309.011 107.333L296.405 109.671C295.776 109.788 295.361 110.391 295.478 111.018L297.039 119.383C297.156 120.011 297.761 120.424 298.39 120.308L310.996 117.97C311.625 117.853 312.041 117.25 311.924 116.623L310.362 108.257C310.245 107.63 309.64 107.216 309.011 107.333Z" fill="#5E3C2D"/>
<path d="M309.044 107.302L296.438 109.64C295.809 109.756 295.394 110.36 295.511 110.987L297.072 119.352C297.189 119.979 297.794 120.393 298.423 120.276L311.03 117.938C311.659 117.822 312.074 117.219 311.957 116.591L310.395 108.226C310.278 107.599 309.673 107.185 309.044 107.302Z" fill="#5E3C2D"/>
<path d="M309.075 107.266L296.469 109.604C295.84 109.721 295.425 110.324 295.542 110.951L297.103 119.317C297.22 119.944 297.825 120.358 298.455 120.241L311.061 117.903C311.69 117.786 312.105 117.183 311.988 116.556L310.427 108.19C310.31 107.563 309.705 107.149 309.075 107.266Z" fill="#5E3C2D"/>
<path d="M309.107 107.24L296.501 109.578C295.871 109.695 295.456 110.298 295.573 110.925L297.135 119.291C297.252 119.918 297.857 120.332 298.486 120.215L311.092 117.877C311.721 117.76 312.136 117.157 312.019 116.53L310.458 108.164C310.341 107.537 309.736 107.123 309.107 107.24Z" fill="#5E3C2D"/>
<path d="M309.138 107.206L296.532 109.544C295.903 109.661 295.487 110.264 295.605 110.891L297.166 119.256C297.283 119.884 297.888 120.297 298.517 120.181L311.123 117.843C311.752 117.726 312.168 117.123 312.05 116.496L310.489 108.13C310.372 107.503 309.767 107.089 309.138 107.206Z" fill="#5E3C2D"/>
<path d="M309.171 107.175L296.565 109.513C295.936 109.63 295.521 110.233 295.638 110.86L297.199 119.226C297.316 119.853 297.921 120.267 298.55 120.15L311.156 117.812C311.786 117.695 312.201 117.092 312.084 116.465L310.522 108.099C310.405 107.472 309.8 107.058 309.171 107.175Z" fill="#5E3C2D"/>
<path d="M309.202 107.139L296.596 109.478C295.967 109.594 295.552 110.197 295.669 110.825L297.23 119.19C297.347 119.817 297.952 120.231 298.582 120.114L311.188 117.776C311.817 117.659 312.232 117.056 312.115 116.429L310.554 108.064C310.437 107.437 309.832 107.023 309.202 107.139Z" fill="#5E3C2D"/>
<path d="M309.236 107.114L296.629 109.452C296 109.568 295.585 110.172 295.702 110.799L297.264 119.164C297.381 119.791 297.986 120.205 298.615 120.088L311.221 117.75C311.85 117.634 312.265 117.031 312.148 116.403L310.587 108.038C310.47 107.411 309.865 106.997 309.236 107.114Z" fill="#5E3C2D"/>
<path d="M309.267 107.079L296.661 109.418C296.032 109.534 295.616 110.137 295.733 110.765L297.295 119.13C297.412 119.757 298.017 120.171 298.646 120.054L311.252 117.716C311.881 117.599 312.296 116.996 312.179 116.369L310.618 108.004C310.501 107.377 309.896 106.963 309.267 107.079Z" fill="#5E3C2D"/>
<path d="M309.298 107.049L296.692 109.387C296.063 109.504 295.648 110.107 295.765 110.734L297.326 119.099C297.443 119.726 298.048 120.14 298.677 120.024L311.283 117.685C311.913 117.569 312.328 116.966 312.211 116.338L310.649 107.973C310.532 107.346 309.927 106.932 309.298 107.049Z" fill="#5E3C2D"/>
<path d="M309.329 107.013L296.723 109.351C296.094 109.467 295.679 110.07 295.796 110.698L297.357 119.063C297.474 119.69 298.079 120.104 298.708 119.987L311.315 117.649C311.944 117.533 312.359 116.929 312.242 116.302L310.681 107.937C310.563 107.31 309.959 106.896 309.329 107.013Z" fill="#5E3C2D"/>
<path d="M309.363 106.987L296.756 109.325C296.127 109.442 295.712 110.045 295.829 110.672L297.391 119.037C297.508 119.664 298.113 120.078 298.742 119.962L311.348 117.623C311.977 117.507 312.392 116.904 312.275 116.276L310.714 107.911C310.597 107.284 309.992 106.87 309.363 106.987Z" fill="#5E3C2D"/>
<path d="M309.394 106.952L296.788 109.291C296.158 109.407 295.743 110.01 295.86 110.638L297.422 119.003C297.539 119.63 298.144 120.044 298.773 119.927L311.379 117.589C312.008 117.472 312.423 116.869 312.306 116.242L310.745 107.877C310.628 107.25 310.023 106.836 309.394 106.952Z" fill="#5E3C2D"/>
<path d="M309.425 106.922L296.819 109.26C296.19 109.377 295.775 109.98 295.892 110.607L297.453 118.972C297.57 119.599 298.175 120.013 298.804 119.897L311.41 117.558C312.04 117.442 312.455 116.839 312.338 116.211L310.776 107.846C310.659 107.219 310.054 106.805 309.425 106.922Z" fill="#5E3C2D"/>
<path d="M309.456 106.886L296.85 109.224C296.221 109.341 295.806 109.944 295.923 110.571L297.484 118.937C297.601 119.564 298.206 119.978 298.835 119.861L311.442 117.523C312.071 117.406 312.486 116.803 312.369 116.176L310.807 107.81C310.69 107.183 310.086 106.769 309.456 106.886Z" fill="#5E3C2D"/>
<path d="M309.49 106.86L296.883 109.198C296.254 109.315 295.839 109.918 295.956 110.545L297.517 118.911C297.635 119.538 298.239 119.952 298.869 119.835L311.475 117.497C312.104 117.38 312.519 116.777 312.402 116.15L310.841 107.784C310.724 107.157 310.119 106.743 309.49 106.86Z" fill="#5E3C2D"/>
<path d="M309.521 106.824L296.915 109.162C296.285 109.279 295.87 109.882 295.987 110.509L297.549 118.875C297.666 119.502 298.271 119.916 298.9 119.799L311.506 117.461C312.135 117.344 312.55 116.741 312.433 116.114L310.872 107.748C310.755 107.121 310.15 106.707 309.521 106.824Z" fill="#5E3C2D"/>
<path d="M309.554 106.795L296.948 109.133C296.319 109.25 295.903 109.853 296.021 110.48L297.582 118.846C297.699 119.473 298.304 119.887 298.933 119.77L311.539 117.432C312.168 117.315 312.584 116.712 312.467 116.085L310.905 107.72C310.788 107.092 310.183 106.679 309.554 106.795Z" fill="#5E3C2D"/>
<path d="M309.585 106.759L296.979 109.097C296.35 109.214 295.935 109.817 296.052 110.444L297.613 118.81C297.73 119.437 298.335 119.851 298.964 119.734L311.571 117.396C312.2 117.279 312.615 116.676 312.498 116.049L310.936 107.683C310.819 107.056 310.214 106.642 309.585 106.759Z" fill="#5E3C2D"/>
<path d="M309.617 106.733L297.01 109.071C296.381 109.188 295.966 109.791 296.083 110.418L297.644 118.784C297.761 119.411 298.366 119.825 298.996 119.708L311.602 117.37C312.231 117.253 312.646 116.65 312.529 116.023L310.968 107.658C310.851 107.03 310.246 106.617 309.617 106.733Z" fill="#5E3C2D"/>
<path d="M309.618 106.733L297.012 109.071C296.383 109.188 295.968 109.791 296.085 110.418L297.646 118.784C297.763 119.411 298.368 119.825 298.998 119.708L311.604 117.37C312.233 117.253 312.648 116.65 312.531 116.023L310.97 107.658C310.853 107.03 310.248 106.617 309.618 106.733Z" fill="#8E533A"/>
<path d="M309.016 106.842L297.62 108.956C297.193 109.035 296.912 109.444 296.991 109.869L297.748 113.92C297.827 114.345 298.237 114.626 298.663 114.547L310.059 112.433C310.486 112.354 310.767 111.945 310.688 111.52L309.931 107.469C309.852 107.044 309.442 106.763 309.016 106.842Z" fill="#AE6546"/>
<path d="M304.458 112.409C304.488 112.565 304.382 112.717 304.226 112.747C304.069 112.777 303.917 112.671 303.888 112.514C303.858 112.358 303.964 112.205 304.12 112.176C304.277 112.146 304.429 112.252 304.458 112.409Z" fill="#5E3C2D"/>
<path d="M303.095 100.493C303.095 100.493 303.197 102.393 303.511 102.884C303.829 103.375 304.249 103.937 304.283 104.758C304.305 105.329 304.322 106.002 303.825 106.307C303.638 106.421 303.248 106.569 302.866 106.633C302.318 106.726 301.732 106.696 301.605 106.463C301.389 106.066 301.491 104.661 301.491 104.661C301.491 104.661 301.283 105.325 300.901 105.393C300.523 105.461 300.777 105.004 300.858 104.86C301.011 104.597 301.143 104.128 301.13 103.912C301.117 103.696 301.618 103.332 301.643 103.1C301.669 102.867 301.283 100.971 301.283 100.971L303.091 100.493H303.095Z" fill="#FF8B66"/>
<path d="M299.367 76.6841C300.466 77.4881 302.41 82.4174 303.505 88.5908C303.785 90.1733 303.921 100.883 303.811 101.805C303.666 103.019 300.937 102.969 300.865 102.008C300.632 98.8473 299.592 90.9222 299.163 89.344C298.454 86.7502 297.3 83.9745 296.646 81.4569C295.78 78.11 298.509 76.0537 299.367 76.6841Z" fill="#596B99"/>
<path d="M300.576 100.95L300.844 102.393C300.844 102.393 302.495 103.265 303.781 102.258L303.976 100.743C303.976 100.743 301.977 101.501 300.576 100.955V100.95Z" fill="#6175A3"/>
</g>
<rect x="0.5" y="0.5" width="371" height="158" rx="9.5" stroke="url(#paint0_linear_4261_40466)"/>
</g>
<defs>
<filter id="filter0_i_4261_40466" x="-3" y="0" width="375" height="161" filterUnits="userSpaceOnUse" color-interpolation-filters="sRGB">
<feFlood flood-opacity="0" result="BackgroundImageFix"/>
<feBlend mode="normal" in="SourceGraphic" in2="BackgroundImageFix" result="shape"/>
<feColorMatrix in="SourceAlpha" type="matrix" values="0 0 0 0 0 0 0 0 0 0 0 0 0 0 0 0 0 0 127 0" result="hardAlpha"/>
<feOffset dx="-3" dy="2"/>
<feGaussianBlur stdDeviation="2"/>
<feComposite in2="hardAlpha" operator="arithmetic" k2="-1" k3="1"/>
<feColorMatrix type="matrix" values="0 0 0 0 0 0 0 0 0 0 0 0 0 0 0 0 0 0 0.25 0"/>
<feBlend mode="normal" in2="shape" result="effect1_innerShadow_4261_40466"/>
</filter>
<filter id="filter1_d_4261_40466" x="40" y="89" width="93" height="34" filterUnits="userSpaceOnUse" color-interpolation-filters="sRGB">
<feFlood flood-opacity="0" result="BackgroundImageFix"/>
<feColorMatrix in="SourceAlpha" type="matrix" values="0 0 0 0 0 0 0 0 0 0 0 0 0 0 0 0 0 0 127 0" result="hardAlpha"/>
<feOffset dy="1"/>
<feGaussianBlur stdDeviation="3.5"/>
<feComposite in2="hardAlpha" operator="out"/>
<feColorMatrix type="matrix" values="0 0 0 0 0.211765 0 0 0 0 0.847059 0 0 0 0 0.34902 0 0 0 0.5 0"/>
<feBlend mode="normal" in2="BackgroundImageFix" result="effect1_dropShadow_4261_40466"/>
<feBlend mode="normal" in="SourceGraphic" in2="effect1_dropShadow_4261_40466" result="shape"/>
</filter>
<linearGradient id="paint0_linear_4261_40466" x1="3.33799" y1="159" x2="388.234" y2="73.3946" gradientUnits="userSpaceOnUse">
<stop stop-color="#BFC4F8"/>
<stop offset="1" stop-color="#FCFCFC"/>
</linearGradient>
<clipPath id="clip0_4261_40466">
<rect width="372" height="159" rx="10" fill="white"/>
</clipPath>
</defs>
</svg>
