<svg width="35" height="35" viewBox="0 0 35 35" fill="none" xmlns="http://www.w3.org/2000/svg">
<path d="M24.5578 27.487C24.4799 26.6987 23.863 26.0852 23.0576 25.9953L15.999 25.2168C15.778 25.199 15.5566 25.2446 15.3606 25.3482C15.1646 25.4518 15.0022 25.6092 14.8926 25.8019C14.8919 25.8026 14.2409 26.965 13.9172 27.5218C13.8229 27.6843 13.797 27.8776 13.8452 28.0592C13.8934 28.2407 14.0118 28.3957 14.1743 28.4901C14.3368 28.5844 14.5301 28.6103 14.7117 28.562C14.8933 28.5138 15.0483 28.3954 15.1426 28.2329C15.3983 27.7916 15.858 26.9763 16.0429 26.647L22.9018 27.4035C22.9698 27.4113 23.1298 27.4474 23.1454 27.5912L23.1546 27.7385C23.173 27.9581 23.1716 28.177 23.1525 28.3902C22.9407 30.6264 20.8965 32.5354 18.5965 32.6445C13.7677 32.8796 9.40368 31.2589 6.28841 28.0998C3.20218 24.9703 1.66155 20.6353 1.95197 15.8937C2.09151 13.6143 4.03731 11.6104 6.28841 11.4276C6.50304 11.4113 6.72404 11.412 6.94646 11.4333L7.05837 11.4411C7.23333 11.4602 7.27371 11.6019 7.2815 11.6833L7.953 18.4919C7.61584 18.6711 6.79983 19.1046 6.35074 19.3468C6.18934 19.4382 6.07021 19.5892 6.01895 19.7675C5.96769 19.9457 5.98839 20.137 6.0766 20.3001C6.16481 20.4633 6.31349 20.5853 6.49071 20.6401C6.66792 20.6948 6.85953 20.6778 7.02437 20.5928C7.596 20.2833 8.7683 19.6628 8.77113 19.6613C9.1763 19.4446 9.41714 19.0139 9.38172 18.5478L8.69038 11.5424C8.60963 10.7391 8.00117 10.1186 7.21067 10.0322L7.07679 10.0216C6.77647 9.99409 6.47438 9.99173 6.17366 10.0145C3.24681 10.2525 0.718754 12.8507 0.53742 15.8059C0.22221 20.9555 1.90664 25.6744 5.27903 29.0943C8.47151 32.33 12.8519 34.0824 17.6983 34.0824C18.0178 34.0824 18.3394 34.0746 18.6631 34.0597C21.6402 33.918 24.2858 31.4346 24.5621 28.5226C24.5897 28.2273 24.5911 27.9241 24.5649 27.6011L24.5578 27.487Z" fill="#303030"/>
<path d="M6.7961 21.4023C6.71222 21.4426 6.63711 21.499 6.57505 21.5684C6.51299 21.6377 6.4652 21.7186 6.43442 21.8064C6.40363 21.8942 6.39045 21.9872 6.39563 22.0802C6.40081 22.1731 6.42424 22.2641 6.4646 22.3479C7.05845 23.5862 7.85522 24.7165 8.82194 25.692C9.81219 26.6912 10.9668 27.5128 12.2354 28.1209C12.4045 28.2025 12.5991 28.2136 12.7764 28.1518C12.9536 28.0899 13.0991 27.9602 13.1807 27.7911C13.2623 27.622 13.2734 27.4275 13.2116 27.2502C13.1498 27.0729 13.02 26.9275 12.851 26.8458C10.614 25.7755 8.81072 23.9718 7.74102 21.7345C7.701 21.6504 7.64476 21.5751 7.57553 21.5129C7.50631 21.4507 7.42546 21.4028 7.33765 21.3719C7.24983 21.341 7.15678 21.3278 7.06384 21.333C6.9709 21.3382 6.87991 21.3618 6.7961 21.4023ZM19.6269 0.0820312C14.3328 0.0820312 9.39641 2.93096 6.74297 7.51816C6.69326 7.59873 6.66021 7.68846 6.64576 7.78203C6.63132 7.8756 6.63578 7.97112 6.65888 8.06293C6.68199 8.15475 6.72326 8.241 6.78027 8.3166C6.83728 8.39219 6.90887 8.45558 6.99079 8.50304C7.07272 8.55049 7.16333 8.58103 7.25727 8.59287C7.35121 8.6047 7.44656 8.59758 7.5377 8.57194C7.62884 8.54629 7.71391 8.50263 7.78789 8.44354C7.86186 8.38445 7.92324 8.31113 7.9684 8.22791C10.3704 4.07705 14.8364 1.49871 19.6269 1.49871C27.0482 1.49871 33.0853 7.53586 33.0853 14.9571C33.0853 19.7469 30.5063 24.2137 26.3554 26.6149C26.2722 26.6601 26.1989 26.7215 26.1398 26.7954C26.0807 26.8694 26.037 26.9545 26.0114 27.0456C25.9857 27.1368 25.9786 27.2321 25.9905 27.3261C26.0023 27.42 26.0328 27.5106 26.0803 27.5925C26.1277 27.6745 26.1911 27.746 26.2667 27.8031C26.3423 27.8601 26.4286 27.9013 26.5204 27.9244C26.6122 27.9475 26.7077 27.952 26.8013 27.9376C26.8949 27.9231 26.9846 27.8901 27.0652 27.8404C31.6524 25.1876 34.502 20.2512 34.502 14.9571C34.502 6.75528 27.8288 0.0820312 19.6269 0.0820312Z" fill="#303030"/>
<path d="M23.7954 15.1847C23.5532 15.1847 23.3156 15.1633 23.0826 15.1203C22.8495 15.0743 22.6273 14.9992 22.4157 14.895C22.4556 15.2568 22.4862 15.6063 22.5077 15.9436C22.5322 16.2808 22.5506 16.6089 22.5629 16.9278C22.5782 17.2466 22.5874 17.5578 22.5905 17.8614C22.5935 18.1618 22.5951 18.4608 22.5951 18.7582H21.0452C21.0452 18.0775 21.0314 17.4045 21.0038 16.7392C20.9762 16.0708 20.9195 15.43 20.8336 14.8168C20.7478 14.2036 20.6221 13.6272 20.4565 13.0875C20.294 12.5449 20.0748 12.0574 19.7988 11.625L21.1096 10.8018C21.2169 10.9827 21.3181 11.1544 21.4131 11.3169C21.5081 11.4763 21.5909 11.6342 21.6614 11.7906C21.7657 11.6434 21.8868 11.507 22.0248 11.3813C22.1658 11.2556 22.3176 11.1483 22.4801 11.0594C22.6426 10.9674 22.8127 10.8938 22.9906 10.8386C23.1684 10.7804 23.3478 10.7436 23.5287 10.7282C23.5747 10.7252 23.6268 10.7236 23.685 10.7236C23.7464 10.7236 23.8015 10.7236 23.8506 10.7236C23.9947 10.7236 24.1403 10.7313 24.2875 10.7466C24.4347 10.762 24.5819 10.7926 24.729 10.8386C24.8793 10.8846 25.028 10.9521 25.1751 11.041C25.3223 11.1268 25.4664 11.2403 25.6074 11.3813L24.798 12.6552C24.798 12.6522 24.7597 12.6307 24.683 12.5909C24.6094 12.551 24.5144 12.5065 24.3979 12.4575C24.2844 12.4084 24.1572 12.3655 24.0162 12.3287C23.8751 12.2919 23.7387 12.275 23.6069 12.2781C23.5333 12.2873 23.4505 12.3072 23.3585 12.3379C23.2665 12.3655 23.1745 12.4008 23.0826 12.4437C22.9906 12.4835 22.9017 12.5311 22.8158 12.5863C22.73 12.6414 22.6548 12.6982 22.5905 12.7564C22.5291 12.8147 22.4801 12.876 22.4433 12.9404C22.4096 13.0048 22.3988 13.0676 22.4111 13.1289V13.1243C22.4295 13.2286 22.4877 13.316 22.5859 13.3865C22.687 13.4539 22.8051 13.5076 22.94 13.5475C23.078 13.5873 23.2205 13.6149 23.3677 13.6302C23.5179 13.6456 23.6544 13.6532 23.777 13.6532C23.8935 13.6532 24.0208 13.644 24.1587 13.6256C24.2967 13.6072 24.4377 13.5796 24.5819 13.5429C24.726 13.5061 24.867 13.4601 25.005 13.4049C25.1429 13.3466 25.2717 13.2807 25.3913 13.2071L26.0398 14.4213C25.6442 14.7126 25.2579 14.9134 24.8808 15.0238C24.5037 15.1311 24.1419 15.1847 23.7954 15.1847Z" fill="black"/>
<path d="M19.223 10.6592C19.2598 10.9014 19.2889 11.1237 19.3103 11.326C19.3318 11.5284 19.3425 11.7154 19.3425 11.8871C19.3425 12.2213 19.2981 12.5463 19.2092 12.8621C19.1203 13.1749 18.9547 13.4845 18.7125 13.7911C18.5101 14.0303 18.2725 14.2097 17.9996 14.3292C17.7298 14.4488 17.4293 14.5086 17.0982 14.5086C17.0123 14.5086 16.928 14.5071 16.8452 14.504C16.7625 14.4979 16.6827 14.4871 16.6061 14.4718C16.646 14.8213 16.6766 15.1831 16.6981 15.5572C16.7195 15.9312 16.7349 16.3068 16.7441 16.6839C16.7563 17.058 16.7625 17.4259 16.7625 17.7877C16.7655 18.1495 16.7671 18.4883 16.7671 18.8041H15.2126C15.2126 18.2369 15.2064 17.6666 15.1942 17.0933C15.1819 16.5199 15.1543 15.965 15.1114 15.4284C15.0715 14.8918 15.0102 14.3844 14.9274 13.9061C14.8477 13.4278 14.7404 13.0001 14.6055 12.623V12.6276L14.4951 12.3608L14.4629 12.278H14.4675L14.4491 12.2321V12.2367C14.4154 12.1539 14.374 12.0604 14.325 11.9561C14.279 11.8488 14.2039 11.7047 14.0996 11.5238L15.4057 10.696C15.4763 10.8063 15.536 10.906 15.5851 10.9949C15.6342 11.0838 15.6771 11.1666 15.7139 11.2433C15.7507 11.3199 15.7829 11.392 15.8105 11.4594C15.8411 11.5238 15.8702 11.5882 15.8978 11.6526L16.0312 11.9837C16.0925 12.1247 16.1569 12.2566 16.2244 12.3792C16.2918 12.5019 16.3669 12.6076 16.4497 12.6966C16.5325 12.7824 16.626 12.8499 16.7303 12.8989C16.8376 12.948 16.9602 12.971 17.0982 12.9679C17.276 12.9618 17.4109 12.9204 17.5029 12.8437C17.5949 12.7671 17.6623 12.6705 17.7053 12.554C17.7482 12.4375 17.7712 12.3072 17.7743 12.1631C17.7804 12.019 17.7835 11.8795 17.7835 11.7446C17.7835 11.6189 17.7758 11.4947 17.7605 11.372C17.7451 11.2463 17.7237 11.0992 17.6961 10.9305L19.223 10.6592Z" fill="black"/>
</svg>
