<svg width="118" height="84" viewBox="0 0 118 84" fill="none" xmlns="http://www.w3.org/2000/svg">
<rect x="0.5" y="0.5" width="117" height="83" rx="9.5" fill="white"/>
<rect x="0.5" y="0.5" width="117" height="83" rx="9.5" stroke="#A6A6A6"/>
<path fill-rule="evenodd" clip-rule="evenodd" d="M52.1915 15.0903C50.7817 15.2712 49.4861 15.9595 48.5469 17.0263C47.6069 18.094 47.0883 19.4677 47.0882 20.8903C47.0882 25.6699 48.9869 30.2537 52.3666 33.6334C55.7463 37.0131 60.3301 38.9118 65.1097 38.9118M52.1915 15.0903C52.2574 15.0827 52.324 15.0965 52.3814 15.1298C52.4394 15.1633 52.4849 15.2148 52.5111 15.2764L55.2917 21.7643C55.312 21.8117 55.3202 21.8634 55.3157 21.9148C55.3113 21.9661 55.2941 22.0156 55.2659 22.0587L52.9666 25.572L52.9652 25.5741C52.7855 25.8463 52.6792 26.1605 52.6567 26.486C52.6342 26.8123 52.6968 27.1389 52.8382 27.4339L52.8409 27.4394C54.0671 29.9463 56.0992 31.9691 58.6116 33.1839L58.6172 33.1866C58.914 33.3272 59.2422 33.3881 59.5696 33.3633C59.8962 33.3386 60.2109 33.2295 60.4826 33.0466L60.4845 33.0453L63.9447 30.738C63.9879 30.7092 64.0377 30.6916 64.0895 30.6868C64.1413 30.682 64.1935 30.6903 64.2413 30.7108L70.7212 33.4879L70.7236 33.4889C70.7852 33.5151 70.8367 33.5606 70.8702 33.6186C70.9035 33.676 70.9173 33.7426 70.9098 33.8085C70.7288 35.2182 70.0406 36.5139 68.9737 37.4531C67.906 38.3931 66.5322 38.9117 65.1097 38.9118M51.9988 13.5137C52.4071 13.4643 52.8205 13.549 53.1765 13.7549C53.5322 13.9606 53.8115 14.2762 53.9724 14.6542L53.9729 14.6555L56.7515 21.1387C56.875 21.4268 56.9253 21.741 56.8979 22.0533C56.8706 22.3655 56.7665 22.6662 56.5948 22.9285L54.2908 26.4489C54.2619 26.4926 54.2448 26.543 54.2412 26.5952C54.2376 26.6468 54.2473 26.6984 54.2693 26.7451C55.3389 28.9297 57.1099 30.6927 59.2994 31.7523C59.3463 31.7741 59.3981 31.7835 59.4498 31.7796C59.5022 31.7756 59.5527 31.7581 59.5962 31.7287L59.5998 31.7263L63.0635 29.4166C63.3266 29.2412 63.6293 29.1341 63.9442 29.1052C64.2591 29.0763 64.5763 29.1264 64.8669 29.2509L71.3445 32.0271C71.7227 32.1879 72.0393 32.4677 72.2451 32.8234C72.451 33.1795 72.5357 33.5929 72.4863 34.0012L72.4856 34.0065C72.2563 35.8008 71.3809 37.4499 70.0232 38.6452C68.6655 39.8405 66.9187 40.4999 65.1098 40.5C59.909 40.5 54.9211 38.434 51.2436 34.7564C47.566 31.0789 45.5 26.0911 45.5 20.8902C45.5001 19.0814 46.1595 17.3345 47.3548 15.9768C48.5501 14.6191 50.1992 13.7437 51.9935 13.5144L51.9988 13.5137ZM62.0487 15.15C62.1626 14.7264 62.5983 14.4754 63.0218 14.5893C65.0325 15.1301 66.8658 16.1897 68.3381 17.6619C69.8103 19.1342 70.8699 20.9675 71.4107 22.9782C71.5246 23.4017 71.2736 23.8374 70.85 23.9513C70.4265 24.0652 69.9908 23.8142 69.8769 23.3907C69.4085 21.6487 68.4905 20.0605 67.215 18.785C65.9395 17.5095 64.3513 16.5915 62.6093 16.1231C62.1858 16.0092 61.9348 15.5735 62.0487 15.15ZM60.9026 19.4274C61.0165 19.0039 61.4522 18.7529 61.8757 18.8668C63.1358 19.2057 64.2848 19.8697 65.2075 20.7925C66.1303 21.7152 66.7943 22.8642 67.1332 24.1243C67.2471 24.5479 66.9961 24.9835 66.5726 25.0974C66.1491 25.2113 65.7134 24.9603 65.5995 24.5368C65.3329 23.5454 64.8104 22.6415 64.0845 21.9155C63.3585 21.1896 62.4546 20.6671 61.4632 20.4005C61.0397 20.2866 60.7887 19.8509 60.9026 19.4274Z" fill="#429F56"/>
<path d="M32.9001 58.5226C32.921 58.5609 32.9558 58.6287 33.0045 58.7261C33.0566 58.8235 33.114 58.9435 33.1766 59.0861C33.2393 59.2287 33.3036 59.3887 33.3697 59.5661C33.4393 59.7435 33.5019 59.9296 33.5575 60.1243C33.6132 60.3191 33.6584 60.5209 33.6932 60.7296C33.7314 60.9348 33.7506 61.1365 33.7506 61.3348C33.7471 61.6548 33.6984 61.9557 33.6045 62.2374C33.514 62.5157 33.3784 62.7591 33.1975 62.9678C33.0201 63.1765 32.801 63.3417 32.5401 63.4635C32.2793 63.5817 31.9766 63.6409 31.6323 63.6409C31.4653 63.6409 31.3158 63.6217 31.1836 63.5835C31.0514 63.5487 30.9332 63.4983 30.8288 63.4322C30.7245 63.3661 30.6323 63.2896 30.5523 63.2026C30.4758 63.1157 30.4079 63.02 30.3488 62.9157C30.2723 63.0235 30.194 63.1226 30.114 63.213C30.034 63.3035 29.9384 63.3817 29.8271 63.4478C29.7193 63.5104 29.5888 63.5591 29.4358 63.5939C29.2827 63.6287 29.0966 63.6461 28.8775 63.6461C28.6793 63.6461 28.5053 63.627 28.3558 63.5887C28.2062 63.5504 28.081 63.507 27.9801 63.4583C28.001 63.8757 27.9593 64.2548 27.8549 64.5957C27.754 64.94 27.6045 65.2461 27.4062 65.5139C27.2114 65.7817 26.9784 66.0148 26.7071 66.213C26.4393 66.4148 26.1453 66.58 25.8253 66.7087C25.5088 66.8374 25.1766 66.933 24.8288 66.9957C24.4845 67.0617 24.1401 67.0948 23.7958 67.0948C23.2845 67.0948 22.8132 67.0096 22.3819 66.8391C21.9506 66.6722 21.5766 66.4357 21.2601 66.1296C20.9471 65.827 20.7019 65.4617 20.5245 65.0339C20.3471 64.6096 20.2584 64.1383 20.2584 63.62C20.2688 63.3174 20.3071 63.0113 20.3732 62.7017C20.4427 62.3887 20.5297 62.0861 20.634 61.7939C20.7384 61.5017 20.8566 61.2252 20.9888 60.9643C21.121 60.7035 21.2549 60.4704 21.3906 60.2652L22.4706 61.0635C22.3488 61.2583 22.2306 61.46 22.1158 61.6687C22.0045 61.8774 21.9053 62.0913 21.8184 62.3104C21.7314 62.5261 21.6601 62.747 21.6045 62.973C21.5523 63.1991 21.5262 63.427 21.5262 63.6565C21.5158 63.9452 21.5627 64.2148 21.6671 64.4652C21.7714 64.7191 21.9227 64.94 22.121 65.1278C22.3227 65.3191 22.5627 65.4687 22.841 65.5765C23.1227 65.6878 23.434 65.7435 23.7749 65.7435C24.1506 65.7435 24.4897 65.7087 24.7923 65.6391C25.0984 65.5696 25.3645 65.4704 25.5906 65.3417C25.8166 65.213 26.0062 65.06 26.1593 64.8826C26.3123 64.7087 26.4253 64.5139 26.4984 64.2983C26.5958 63.9748 26.641 63.6548 26.634 63.3383C26.6271 63.0217 26.5836 62.7052 26.5036 62.3887C26.4271 62.0722 26.3227 61.7574 26.1906 61.4443C26.0584 61.1313 25.9175 60.8183 25.7679 60.5052L26.9419 59.7852C26.9906 59.9104 27.0479 60.0635 27.114 60.2443C27.1801 60.4252 27.2549 60.613 27.3384 60.8078C27.4253 61.0026 27.5193 61.1957 27.6201 61.387C27.7245 61.5783 27.8375 61.747 27.9593 61.893C28.081 62.0357 28.2132 62.1452 28.3558 62.2217C28.4984 62.2983 28.6532 62.3209 28.8201 62.2896C28.994 62.2861 29.1314 62.2426 29.2323 62.1591C29.3366 62.0757 29.4166 61.9678 29.4723 61.8357C29.5279 61.7 29.5627 61.547 29.5766 61.3765C29.594 61.2026 29.6027 61.0235 29.6027 60.8391L29.5766 59.9574L30.8549 59.827C30.8619 59.9104 30.8671 59.9904 30.8706 60.067C30.874 60.133 30.8758 60.2009 30.8758 60.2704C30.8793 60.34 30.8827 60.3974 30.8862 60.4426C30.8897 60.5226 30.8984 60.6252 30.9123 60.7504C30.9262 60.8757 30.9471 61.0078 30.9749 61.147C31.0027 61.2861 31.0375 61.427 31.0793 61.5696C31.121 61.7122 31.1732 61.8409 31.2358 61.9557C31.2984 62.067 31.3697 62.1591 31.4497 62.2322C31.5332 62.3017 31.6288 62.3365 31.7366 62.3365C32.0079 62.3365 32.2079 62.2461 32.3366 62.0652C32.4653 61.8809 32.5297 61.6148 32.5297 61.267C32.5297 61.1348 32.5071 60.9887 32.4619 60.8287C32.4201 60.6652 32.361 60.493 32.2845 60.3122C32.2114 60.1313 32.1245 59.9435 32.0236 59.7487C31.9262 59.5504 31.8219 59.3504 31.7106 59.1487L32.9001 58.5226ZM37.4106 63.6565C37.0071 63.6565 36.6611 63.6061 36.3724 63.5052C36.0837 63.4078 35.835 63.2583 35.6263 63.0565C35.5011 62.9313 35.4037 62.7974 35.3341 62.6548C35.268 62.5087 35.2193 62.3678 35.188 62.2322C35.1567 62.093 35.1376 61.9626 35.1306 61.8409C35.1271 61.7157 35.1254 61.6078 35.1254 61.5174C35.1289 61.4061 35.1324 61.2217 35.1358 60.9643C35.1428 60.707 35.1463 60.3957 35.1463 60.0304C35.1463 59.8113 35.1445 59.5783 35.1411 59.3313C35.1411 59.0809 35.1393 58.827 35.1358 58.5696C35.1324 58.3122 35.1254 58.0548 35.115 57.7974C35.108 57.5365 35.0958 57.2861 35.0784 57.0461C35.0645 56.8061 35.0454 56.5817 35.0211 56.373C35.0002 56.1609 34.9741 55.973 34.9428 55.8096L36.2524 55.4183C36.2906 55.62 36.3237 55.8635 36.3515 56.1487C36.3793 56.4339 36.4019 56.7383 36.4193 57.0617C36.4367 57.3817 36.4506 57.7104 36.4611 58.0478C36.4715 58.3817 36.4767 58.7 36.4767 59.0026C36.4767 59.093 36.4767 59.1887 36.4767 59.2896C36.4802 59.3904 36.4819 59.4913 36.4819 59.5922C36.4854 59.6896 36.4871 59.7852 36.4871 59.8791C36.4871 59.973 36.4871 60.0583 36.4871 60.1348C36.4871 60.267 36.4854 60.3922 36.4819 60.5104C36.4819 60.6252 36.4802 60.7365 36.4767 60.8443C36.4767 60.9522 36.475 61.0583 36.4715 61.1626C36.4715 61.267 36.4715 61.373 36.4715 61.4809C36.468 61.613 36.4715 61.7383 36.4819 61.8565C36.4924 61.9713 36.5271 62.0565 36.5863 62.1122C36.7115 62.2443 36.9706 62.3122 37.3637 62.3157H37.4106C37.5011 62.3157 37.5863 62.3348 37.6663 62.373C37.7497 62.4078 37.8211 62.4565 37.8802 62.5191C37.9428 62.5783 37.9915 62.6496 38.0263 62.733C38.0645 62.813 38.0837 62.8983 38.0837 62.9887C38.0837 63.0826 38.0645 63.1713 38.0263 63.2548C37.9915 63.3348 37.9428 63.4043 37.8802 63.4635C37.8211 63.5226 37.7497 63.5696 37.6663 63.6043C37.5863 63.6391 37.5011 63.6565 37.4106 63.6565ZM41.6076 62.3939C41.8615 62.3209 41.9954 62.107 42.0093 61.7522C42.0232 61.4496 41.9641 61.18 41.8319 60.9435C41.7171 60.7383 41.5693 60.5783 41.3884 60.4635C41.1971 60.3452 41.0076 60.3052 40.8197 60.3435C40.705 60.3678 40.538 60.5974 40.3189 61.0322C40.2597 61.1504 40.1971 61.2757 40.131 61.4078C40.1102 61.453 40.091 61.4948 40.0736 61.533C40.0563 61.5643 40.0476 61.5817 40.0476 61.5852L39.9954 61.7104C40.8023 62.173 41.3102 62.4043 41.5189 62.4043C41.5536 62.4043 41.5832 62.4009 41.6076 62.3939ZM43.7989 62.3104C43.9832 62.3104 44.1397 62.3765 44.2684 62.5087C44.4006 62.6409 44.4667 62.7991 44.4667 62.9835C44.4667 63.1678 44.4006 63.3261 44.2684 63.4583C44.1397 63.587 43.9832 63.653 43.7989 63.6565H43.7936C43.258 63.6565 42.8702 63.5243 42.6302 63.26L42.5206 63.14L42.411 63.2548C42.1536 63.5087 41.8267 63.6357 41.4302 63.6357C41.2215 63.6357 40.9815 63.5904 40.7102 63.5C40.491 63.4304 40.258 63.333 40.011 63.2078C39.7293 63.0652 39.4841 62.9226 39.2754 62.78C39.178 62.9261 39.0284 63.0739 38.8267 63.2235C38.4197 63.5191 37.9589 63.667 37.4441 63.667C37.2597 63.667 37.1032 63.6009 36.9745 63.4687C36.8423 63.34 36.7763 63.1835 36.7763 62.9991C36.7763 62.8148 36.8423 62.6565 36.9745 62.5243C37.1032 62.3922 37.2597 62.3261 37.4441 62.3261C37.8476 62.3261 38.2076 62.1383 38.5241 61.7626C38.6458 61.6165 38.7693 61.4339 38.8945 61.2148C38.971 61.0757 39.0702 60.8809 39.1919 60.6304C39.251 60.5122 39.2945 60.4252 39.3223 60.3696C39.531 59.9557 39.7554 59.6426 39.9954 59.4304C40.2771 59.18 40.6163 59.0548 41.0128 59.0548C41.4893 59.0548 41.9084 59.213 42.2702 59.5296C42.6806 59.8913 42.9154 60.387 42.9745 61.0165V61.0635L42.9797 61.0791V61.0896C42.9832 61.1 42.985 61.1122 42.985 61.1261V61.1417V61.1522C42.985 61.1626 42.9867 61.1748 42.9902 61.1887C42.9936 61.227 42.9971 61.267 43.0006 61.3087C43.0145 61.4443 43.0354 61.5678 43.0632 61.6791C43.1641 62.0965 43.4058 62.307 43.7884 62.3104H43.7989ZM43.1069 62.9887C43.1069 62.8948 43.126 62.8078 43.1643 62.7278C43.2025 62.6478 43.253 62.5783 43.3156 62.5191C43.3782 62.4565 43.4512 62.4078 43.5347 62.373C43.6182 62.3383 43.7069 62.3209 43.8008 62.3209H48.5382C48.6286 62.3209 48.7138 62.3383 48.7938 62.373C48.8773 62.4078 48.9486 62.4565 49.0077 62.5191C49.0703 62.5783 49.119 62.6478 49.1538 62.7278C49.1921 62.8078 49.2112 62.8948 49.2112 62.9887C49.2112 63.0826 49.1921 63.1713 49.1538 63.2548C49.119 63.3348 49.0703 63.4043 49.0077 63.4635C48.9486 63.5226 48.8773 63.5696 48.7938 63.6043C48.7138 63.6391 48.6286 63.6565 48.5382 63.6565H43.7956C43.7051 63.6565 43.6182 63.6391 43.5347 63.6043C43.4512 63.5696 43.3782 63.5226 43.3156 63.4635C43.253 63.4043 43.2025 63.3348 43.1643 63.2548C43.126 63.1713 43.1069 63.0826 43.1069 62.9887ZM50.6534 56.9991L49.7665 57.8861L48.8691 56.9939L49.756 56.1017L50.6534 56.9991ZM52.6256 57.0043L51.7386 57.8965L50.8412 56.9991L51.7282 56.1122L52.6256 57.0043ZM47.6743 62.9887C47.6743 62.8948 47.6917 62.8078 47.7265 62.7278C47.7612 62.6443 47.8099 62.573 47.8725 62.5139C47.9317 62.4548 48.0012 62.4078 48.0812 62.373C48.1612 62.3383 48.2482 62.3209 48.3421 62.3209H48.9212H49.1717C49.3421 62.3209 49.523 62.3157 49.7143 62.3052C49.9056 62.2913 50.0882 62.267 50.2621 62.2322C50.4395 62.1939 50.5995 62.1435 50.7421 62.0809C50.8847 62.0148 50.9908 61.9313 51.0604 61.8304C51.1125 61.7539 51.1386 61.6513 51.1386 61.5226C51.1421 61.3939 51.1247 61.253 51.0865 61.1C51.0517 60.947 51.003 60.787 50.9404 60.62C50.8812 60.4496 50.8169 60.2861 50.7473 60.1296C50.6778 59.9696 50.6082 59.82 50.5386 59.6809C50.4725 59.5383 50.4169 59.4183 50.3717 59.3209L51.5873 58.7209C51.6812 58.8878 51.7734 59.0896 51.8639 59.3261C51.9578 59.5591 52.0395 59.8009 52.1091 60.0513C52.1786 60.3017 52.2343 60.5487 52.276 60.7922C52.3212 61.0357 52.3439 61.2513 52.3439 61.4391C52.3439 61.7765 52.2865 62.0774 52.1717 62.3417C52.0395 62.6478 51.8534 62.9 51.6134 63.0983C51.3734 63.293 51.0882 63.4391 50.7578 63.5365C50.6569 63.5643 50.5299 63.5852 50.3769 63.5991C50.2273 63.6165 50.0743 63.6287 49.9178 63.6357C49.7612 63.6461 49.6117 63.6513 49.4691 63.6513C49.3299 63.6548 49.2221 63.6565 49.1456 63.6565H48.3891H48.3421C48.2482 63.6565 48.1612 63.6391 48.0812 63.6043C48.0012 63.5696 47.9317 63.5226 47.8725 63.4635C47.8099 63.4043 47.7612 63.3348 47.7265 63.2548C47.6917 63.1713 47.6743 63.0826 47.6743 62.9887ZM61.1378 63.6565C60.4978 63.6496 59.9239 63.6096 59.416 63.5365C58.9082 63.4635 58.463 63.3557 58.0804 63.213C57.3221 62.9174 56.8073 62.493 56.536 61.94V61.9452C56.3795 61.6426 56.3012 61.3087 56.3012 60.9435C56.3012 60.773 56.3186 60.5974 56.3534 60.4165C56.3917 60.2322 56.4456 60.0478 56.5152 59.8635C56.5534 59.7661 56.5899 59.6791 56.6247 59.6026C56.6595 59.5226 56.6943 59.4478 56.7291 59.3783C56.7673 59.3087 56.8073 59.2391 56.8491 59.1696C56.8908 59.1 56.936 59.0217 56.9847 58.9348L57.9552 59.7487C57.896 59.8287 57.8282 59.9383 57.7517 60.0774C57.6786 60.2165 57.6125 60.3643 57.5534 60.5209C57.4978 60.6774 57.4578 60.8304 57.4334 60.98C57.4125 61.1261 57.4265 61.2478 57.4752 61.3452C57.5517 61.5017 57.6978 61.6409 57.9134 61.7626C58.1291 61.8809 58.3969 61.98 58.7169 62.06C59.0369 62.14 59.4021 62.2026 59.8125 62.2478C60.2265 62.2896 60.6682 62.3104 61.1378 62.3104C61.3986 62.3104 61.6925 62.3017 62.0195 62.2843C62.3499 62.267 62.6891 62.2339 63.0369 62.1852C63.3847 62.1365 63.7291 62.0704 64.0699 61.987C64.4108 61.9 64.7221 61.787 65.0039 61.6478C64.9621 61.4461 64.9047 61.2513 64.8317 61.0635C64.7586 60.8757 64.6769 60.6913 64.5865 60.5104C64.4995 60.3296 64.4056 60.1522 64.3047 59.9783C64.2039 59.8009 64.1012 59.6235 63.9969 59.4461L65.1134 58.7209C65.1239 58.7209 65.1552 58.773 65.2073 58.8774C65.263 58.9817 65.3291 59.1174 65.4056 59.2843C65.4856 59.4478 65.5691 59.6357 65.656 59.8478C65.743 60.06 65.823 60.2739 65.896 60.4896C65.9691 60.7017 66.0299 60.9087 66.0786 61.1104C66.1273 61.3122 66.1517 61.4861 66.1517 61.6322C66.1517 61.8443 66.103 62.0322 66.0056 62.1957C65.9082 62.3591 65.7343 62.5191 65.4839 62.6757C65.3239 62.773 65.136 62.867 64.9204 62.9574C64.7082 63.0443 64.4786 63.1243 64.2317 63.1974C63.9882 63.2704 63.7325 63.3365 63.4647 63.3957C63.2004 63.4548 62.9325 63.5035 62.6612 63.5417C62.3934 63.58 62.1291 63.6096 61.8682 63.6304C61.6108 63.6513 61.3673 63.66 61.1378 63.6565ZM61.1952 58.34L60.3082 59.227L59.4108 58.3348L60.2978 57.4426L61.1952 58.34ZM63.1673 58.3452L62.2804 59.2374L61.383 58.34L62.2699 57.453L63.1673 58.3452ZM69.4614 63.6565C69.0579 63.6565 68.7118 63.6061 68.4231 63.5052C68.1344 63.4078 67.8857 63.2583 67.6771 63.0565C67.5518 62.9313 67.4544 62.7974 67.3849 62.6548C67.3188 62.5087 67.2701 62.3678 67.2388 62.2322C67.2075 62.093 67.1884 61.9626 67.1814 61.8409C67.1779 61.7157 67.1762 61.6078 67.1762 61.5174C67.1797 61.4061 67.1831 61.2217 67.1866 60.9643C67.1936 60.707 67.1971 60.3957 67.1971 60.0304C67.1971 59.8113 67.1953 59.5783 67.1918 59.3313C67.1918 59.0809 67.1901 58.827 67.1866 58.5696C67.1831 58.3122 67.1762 58.0548 67.1657 57.7974C67.1588 57.5365 67.1466 57.2861 67.1292 57.0461C67.1153 56.8061 67.0962 56.5817 67.0718 56.373C67.051 56.1609 67.0249 55.973 66.9936 55.8096L68.3031 55.4183C68.3414 55.62 68.3744 55.8635 68.4023 56.1487C68.4301 56.4339 68.4527 56.7383 68.4701 57.0617C68.4875 57.3817 68.5014 57.7104 68.5118 58.0478C68.5223 58.3817 68.5275 58.7 68.5275 59.0026C68.5275 59.093 68.5275 59.1887 68.5275 59.2896C68.531 59.3904 68.5327 59.4913 68.5327 59.5922C68.5362 59.6896 68.5379 59.7852 68.5379 59.8791C68.5379 59.973 68.5379 60.0583 68.5379 60.1348C68.5379 60.267 68.5362 60.3922 68.5327 60.5104C68.5327 60.6252 68.531 60.7365 68.5275 60.8443C68.5275 60.9522 68.5257 61.0583 68.5223 61.1626C68.5223 61.267 68.5223 61.373 68.5223 61.4809C68.5188 61.613 68.5223 61.7383 68.5327 61.8565C68.5431 61.9713 68.5779 62.0565 68.6371 62.1122C68.7623 62.2443 69.0214 62.3122 69.4144 62.3157H69.4614C69.5518 62.3157 69.6371 62.3348 69.7171 62.373C69.8005 62.4078 69.8718 62.4565 69.931 62.5191C69.9936 62.5783 70.0423 62.6496 70.0771 62.733C70.1153 62.813 70.1344 62.8983 70.1344 62.9887C70.1344 63.0826 70.1153 63.1713 70.0771 63.2548C70.0423 63.3348 69.9936 63.4043 69.931 63.4635C69.8718 63.5226 69.8005 63.5696 69.7171 63.6043C69.6371 63.6391 69.5518 63.6565 69.4614 63.6565ZM68.7592 62.9887C68.7592 62.8948 68.7783 62.8078 68.8166 62.7278C68.8549 62.6478 68.9053 62.5783 68.9679 62.5191C69.0305 62.4565 69.1036 62.4078 69.187 62.373C69.2705 62.3383 69.3592 62.3209 69.4531 62.3209H74.1905C74.281 62.3209 74.3662 62.3383 74.4462 62.373C74.5296 62.4078 74.601 62.4565 74.6601 62.5191C74.7227 62.5783 74.7714 62.6478 74.8062 62.7278C74.8444 62.8078 74.8636 62.8948 74.8636 62.9887C74.8636 63.0826 74.8444 63.1713 74.8062 63.2548C74.7714 63.3348 74.7227 63.4043 74.6601 63.4635C74.601 63.5226 74.5296 63.5696 74.4462 63.6043C74.3662 63.6391 74.281 63.6565 74.1905 63.6565H69.4479C69.3575 63.6565 69.2705 63.6391 69.187 63.6043C69.1036 63.5696 69.0305 63.5226 68.9679 63.4635C68.9053 63.4043 68.8549 63.3348 68.8166 63.2548C68.7783 63.1713 68.7592 63.0826 68.7592 62.9887ZM78.7579 60.5939C78.6258 60.4443 78.4797 60.3122 78.3197 60.1974C78.1805 60.0965 78.0188 60.0061 77.8345 59.9261C77.6501 59.8426 77.4484 59.8009 77.2292 59.8009C77.0518 59.8009 76.8971 59.8322 76.7649 59.8948C76.6327 59.9539 76.5214 60.0339 76.431 60.1348C76.3405 60.2322 76.2727 60.3452 76.2275 60.4739C76.1823 60.6026 76.1597 60.7365 76.1597 60.8757C76.1597 61.0704 76.2032 61.2478 76.2901 61.4078C76.3771 61.5643 76.4936 61.6983 76.6397 61.8096C76.7892 61.9209 76.9597 62.0043 77.151 62.06C77.3458 62.1157 77.5475 62.1365 77.7562 62.1226C77.9579 62.1087 78.1597 62.0878 78.3614 62.06C78.5666 62.0287 78.7527 61.9991 78.9197 61.9713C79.111 61.9365 79.2971 61.9 79.4779 61.8617L79.6397 63.1609C79.424 63.2165 79.1823 63.2739 78.9145 63.333C78.6466 63.3887 78.3388 63.4409 77.991 63.4896C77.6466 63.5348 77.2536 63.5713 76.8118 63.5991C76.3736 63.6304 75.8779 63.6461 75.3249 63.6461L74.1875 63.6565C74.0936 63.6565 74.0066 63.6391 73.9266 63.6043C73.8432 63.5696 73.7701 63.5226 73.7075 63.4635C73.6449 63.4043 73.5962 63.3348 73.5614 63.2548C73.5266 63.1713 73.5092 63.0826 73.5092 62.9887C73.5092 62.8983 73.5284 62.813 73.5666 62.733C73.6014 62.653 73.6501 62.5835 73.7127 62.5243C73.7753 62.4652 73.8484 62.4183 73.9318 62.3835C74.0118 62.3452 74.0971 62.3243 74.1875 62.3209L75.3092 62.3104C75.1214 62.0913 74.9927 61.867 74.9232 61.6374C74.8571 61.4078 74.824 61.1539 74.824 60.8757C74.824 60.5487 74.8849 60.2391 75.0066 59.947C75.1284 59.6548 75.2953 59.3991 75.5075 59.18C75.7232 58.9609 75.9771 58.787 76.2692 58.6583C76.5649 58.5296 76.8849 58.4652 77.2292 58.4652C77.3997 58.4652 77.5632 58.4809 77.7197 58.5122C77.8797 58.5435 78.031 58.5852 78.1736 58.6374C78.3162 58.6896 78.4501 58.7487 78.5753 58.8148C78.704 58.8809 78.8205 58.947 78.9249 59.013C79.1718 59.173 79.3979 59.3539 79.6032 59.5557L78.7579 60.5939ZM86.7739 62.1539C86.8852 62.213 86.9947 62.2548 87.1026 62.2791C87.2104 62.3 87.313 62.3139 87.4104 62.3209H87.4H87.4469C87.5373 62.3209 87.6226 62.3383 87.7026 62.373C87.786 62.4078 87.8573 62.4565 87.9165 62.5191C87.9791 62.5783 88.0278 62.6478 88.0626 62.7278C88.1008 62.8078 88.12 62.8948 88.12 62.9887C88.12 63.0826 88.1008 63.1713 88.0626 63.2548C88.0278 63.3348 87.9791 63.4043 87.9165 63.4635C87.8573 63.5226 87.786 63.5696 87.7026 63.6043C87.6226 63.6391 87.5373 63.6565 87.4469 63.6565H87.4C87.3095 63.6565 87.193 63.6513 87.0504 63.6409C86.9078 63.6304 86.7547 63.5991 86.5913 63.547C86.4278 63.4983 86.2626 63.4217 86.0956 63.3174C85.9286 63.213 85.7739 63.0687 85.6313 62.8843C85.3843 63.1313 85.0939 63.3383 84.76 63.5052C84.4295 63.6757 84.0782 63.8043 83.706 63.8913C83.3373 63.9817 82.96 64.0322 82.5739 64.0426C82.1913 64.053 81.826 64.0235 81.4782 63.9539L81.8591 62.6861C81.9878 62.7035 82.1182 62.7174 82.2504 62.7278C82.386 62.7383 82.52 62.7435 82.6521 62.7435C82.7878 62.74 82.9217 62.7296 83.0539 62.7122C83.1895 62.6913 83.3234 62.6583 83.4556 62.613C83.3547 62.2235 83.2313 61.8426 83.0852 61.4704C82.9391 61.0948 82.7808 60.7348 82.6104 60.3904C82.4434 60.0461 82.2695 59.7191 82.0886 59.4096C81.9078 59.1 81.7286 58.813 81.5513 58.5487C81.3773 58.2843 81.2121 58.0461 81.0556 57.8339C80.8991 57.6183 80.76 57.4339 80.6382 57.2809L81.5773 56.3104C81.7095 56.5226 81.8904 56.7991 82.12 57.14C82.3495 57.4809 82.6086 57.9122 82.8973 58.4339C83.0817 58.7643 83.2539 59.0965 83.4139 59.4304C83.5739 59.7609 83.72 60.0843 83.8521 60.4009C83.9843 60.7174 84.1008 61.0235 84.2017 61.3191C84.3026 61.6148 84.3843 61.8896 84.4469 62.1435C84.5408 62.0809 84.6347 62.0113 84.7286 61.9348C84.8226 61.8548 84.906 61.7696 84.9791 61.6791C85.0556 61.5852 85.1147 61.4878 85.1565 61.387C85.2017 61.2861 85.2208 61.18 85.2139 61.0687C85.1756 60.5226 85.1286 59.9974 85.073 59.493C85.0208 58.9887 84.9652 58.5104 84.906 58.0583C84.8469 57.6026 84.7878 57.1765 84.7286 56.78C84.6695 56.38 84.6139 56.0113 84.5617 55.6739L85.8869 55.4235C85.8869 55.4304 85.8973 55.5278 85.9182 55.7157C85.9391 55.9035 85.9652 56.1539 85.9965 56.467C86.0313 56.7765 86.0678 57.133 86.106 57.5365C86.1443 57.94 86.1826 58.3609 86.2208 58.7991C86.2626 59.2374 86.3008 59.6774 86.3356 60.1191C86.3704 60.5609 86.4 60.9765 86.4243 61.3661C86.4382 61.5504 86.4678 61.7087 86.513 61.8409C86.5582 61.9696 86.6469 62.0739 86.7791 62.1539H86.7739ZM90.0293 62.3209C90.2415 62.3209 90.485 62.3157 90.7597 62.3052C91.038 62.2948 91.3232 62.2704 91.6154 62.2322C91.9076 62.1939 92.1911 62.1365 92.4658 62.06C92.7441 61.9835 92.9911 61.8809 93.2067 61.7522C93.4224 61.6235 93.5911 61.4635 93.7128 61.2722C93.838 61.0774 93.8919 60.8443 93.8745 60.573C93.8676 60.4687 93.8328 60.3713 93.7702 60.2809C93.7111 60.1904 93.6276 60.1139 93.5197 60.0513C93.4154 59.9852 93.2884 59.9348 93.1389 59.9C92.9928 59.8617 92.8293 59.8461 92.6484 59.853C92.4745 59.86 92.2676 59.9052 92.0276 59.9887C91.7911 60.0687 91.5337 60.2043 91.2554 60.3957C90.9806 60.587 90.6954 60.8391 90.3997 61.1522C90.1041 61.4652 89.8154 61.8548 89.5337 62.3209H90.0293ZM86.7058 62.9887C86.7058 62.8983 86.725 62.813 86.7632 62.733C86.798 62.653 86.8467 62.5835 86.9093 62.5243C86.9684 62.4617 87.0397 62.413 87.1232 62.3783C87.2032 62.34 87.2884 62.3209 87.3789 62.3209H87.4258H88.0832L88.1197 62.253C88.1789 62.1487 88.2624 62.0096 88.3702 61.8357C88.4815 61.6617 88.6206 61.467 88.7876 61.2513C88.8189 61.0322 88.845 60.7557 88.8658 60.4217C88.8867 60.0878 88.8989 59.7261 88.9024 59.3365C88.9024 59.1939 88.9006 59.053 88.8971 58.9139C88.8971 58.7748 88.8937 58.627 88.8867 58.4704C88.8797 58.3104 88.8693 58.14 88.8554 57.9591C88.8415 57.7748 88.8241 57.5678 88.8032 57.3383C88.7858 57.1052 88.7632 56.8461 88.7354 56.5609C88.7076 56.2722 88.6745 55.947 88.6363 55.5852L90.0084 55.2304C90.1858 56.5557 90.2745 57.9017 90.2745 59.2687C90.2745 59.3313 90.2745 59.3765 90.2745 59.4043C90.2745 59.4322 90.2745 59.4565 90.2745 59.4774C90.2745 59.4983 90.2745 59.5226 90.2745 59.5504C90.2745 59.5783 90.2745 59.6252 90.2745 59.6913C90.4624 59.5313 90.6571 59.3783 90.8589 59.2322C91.0641 59.0861 91.2763 58.9574 91.4954 58.8461C91.718 58.7348 91.9493 58.6461 92.1893 58.58C92.4293 58.5139 92.6797 58.4809 92.9406 58.4809C93.205 58.4809 93.4554 58.5226 93.6919 58.6061C93.9284 58.6896 94.1371 58.8113 94.318 58.9713C94.5024 59.1278 94.6537 59.3191 94.7719 59.5452C94.8902 59.7713 94.9632 60.0252 94.9911 60.307C95.0084 60.7035 94.9597 61.0635 94.845 61.387C94.7302 61.707 94.5667 61.9922 94.3545 62.2426C94.1458 62.4896 93.8954 62.7035 93.6032 62.8843C93.3145 63.0617 93.0015 63.2078 92.6641 63.3226C92.3302 63.4374 91.9789 63.5226 91.6102 63.5783C91.2415 63.6339 90.8763 63.6617 90.5145 63.6617L87.4258 63.6565H87.3789C87.2884 63.6565 87.2032 63.6391 87.1232 63.6043C87.0397 63.573 86.9684 63.5278 86.9093 63.4687C86.8467 63.4061 86.798 63.3348 86.7632 63.2548C86.725 63.1713 86.7058 63.0826 86.7058 62.9887ZM97.2887 55.3296C97.4626 56.6478 97.553 57.8809 97.56 59.0287C97.5669 60.8757 97.5408 62.3452 97.4817 63.4374L96.1147 63.6461C96.2191 62.0391 96.2504 60.693 96.2087 59.6078C96.153 58.1887 96.0661 56.9087 95.9478 55.7678L97.2887 55.3296Z" fill="#636363"/>
</svg>
