<svg width="302" height="32" viewBox="0 0 302 32" fill="none" xmlns="http://www.w3.org/2000/svg">
<path d="M302 31.297L151 31.297V0.296997L302 0.296997V31.297Z" fill="url(#paint0_linear_2612_6711)"/>
<path d="M0 31.297L151 31.297V0.296997L0 0.296997V31.297Z" fill="url(#paint1_linear_2612_6711)"/>
<path d="M42.355 10.0699L39.7115 9.3186L40.2054 7.79513L42.828 8.84556L42.6541 5.90991H44.3098L44.1359 8.90121L46.6889 7.87165L47.1898 9.40904L44.4906 10.1603L46.2576 12.4003L44.9219 13.3534L43.3915 10.8908L41.875 13.2699L40.5324 12.3586L42.355 10.0699Z" fill="#9C4040"/>
<path d="M53.9469 16.769C53.2884 16.769 52.7226 16.6809 52.2495 16.5047C51.7765 16.3238 51.4008 16.0711 51.1226 15.7464C50.9603 15.5377 50.842 15.3128 50.7678 15.0716C50.6982 14.8259 50.6634 14.5916 50.6634 14.369C50.6634 14.1743 50.6797 13.998 50.7121 13.8403C50.7446 13.6827 50.784 13.5482 50.8304 13.4369C51.0159 13.0473 51.2432 12.7064 51.5121 12.4143C51.7858 12.1221 52.0687 11.8693 52.3608 11.656C52.6576 11.438 52.9498 11.2572 53.2374 11.1134C53.5295 10.9696 53.7892 10.8514 54.0165 10.7586C54.0072 10.6519 53.9979 10.543 53.9887 10.4316C53.984 10.3203 53.9771 10.2137 53.9678 10.1116L53.933 9.67339L56.1034 9.2073C56.1081 9.24904 56.1174 9.34643 56.1313 9.49947C56.1498 9.65252 56.1684 9.83571 56.1869 10.049C56.2101 10.2577 56.2333 10.4827 56.2565 10.7238C56.2843 10.9603 56.3075 11.183 56.3261 11.3916C56.3492 11.6003 56.3678 11.7812 56.3817 11.9343C56.4003 12.0873 56.4118 12.1801 56.4165 12.2125C56.4861 12.783 56.544 13.2514 56.5904 13.6177C56.6414 13.9841 56.6832 14.2763 56.7156 14.4943C56.7527 14.7076 56.7829 14.863 56.8061 14.9603C56.8292 15.0531 56.8478 15.1157 56.8617 15.1482C56.9313 15.2966 57.0356 15.4009 57.1747 15.4612C57.3185 15.5169 57.5087 15.5447 57.7452 15.5447C57.8936 15.5447 58.035 15.5725 58.1695 15.6282C58.304 15.6838 58.42 15.7627 58.5174 15.8647C58.6194 15.9621 58.7005 16.078 58.7608 16.2125C58.8211 16.347 58.8513 16.4908 58.8513 16.6438C58.8513 16.7969 58.8211 16.9406 58.7608 17.0751C58.7005 17.2096 58.6194 17.3256 58.5174 17.423C58.42 17.5203 58.304 17.5969 58.1695 17.6525C58.035 17.7128 57.8936 17.743 57.7452 17.743C57.6478 17.743 57.5388 17.7383 57.4182 17.729C57.2976 17.7244 57.1701 17.7105 57.0356 17.6873C56.9058 17.6687 56.769 17.6386 56.6252 17.5969C56.4861 17.5598 56.3469 17.5087 56.2078 17.4438C56.013 17.3511 55.8414 17.2467 55.693 17.1308C55.5492 17.0102 55.4101 16.8595 55.2756 16.6786C55.0391 16.7111 54.8095 16.7343 54.5869 16.7482C54.369 16.7621 54.1556 16.769 53.9469 16.769ZM53.9052 14.5847C54.0026 14.5847 54.1023 14.5824 54.2043 14.5777C54.311 14.5685 54.413 14.5592 54.5104 14.5499C54.4872 14.3922 54.4617 14.216 54.4339 14.0212C54.4107 13.8264 54.3875 13.6177 54.3643 13.3951L54.2947 12.7551C54.1185 12.8432 53.9214 12.9499 53.7034 13.0751C53.4855 13.1957 53.2791 13.3256 53.0843 13.4647C52.8942 13.5992 52.7342 13.7383 52.6043 13.8821C52.4745 14.0212 52.4095 14.1511 52.4095 14.2716C52.4095 14.3319 52.4605 14.383 52.5626 14.4247C52.6692 14.4618 52.7991 14.4943 52.9521 14.5221C53.1052 14.5453 53.2675 14.5615 53.4391 14.5708C53.6107 14.5801 53.7661 14.5847 53.9052 14.5847ZM56.1407 16.6438C56.1407 16.5001 56.1708 16.3632 56.2311 16.2334C56.2914 16.1035 56.3749 15.9899 56.4816 15.8925C56.5836 15.7905 56.7065 15.7093 56.8503 15.649C56.9894 15.5887 57.1401 15.554 57.3024 15.5447C57.5482 15.5447 57.7778 15.5053 57.9911 15.4264C58.2045 15.343 58.4062 15.1853 58.5964 14.9534C58.7865 14.7215 58.965 14.3945 59.132 13.9725C59.299 13.5505 59.459 12.9986 59.612 12.3169L61.4624 12.5812C61.4764 12.5256 61.4671 12.5557 61.4346 12.6716C61.4068 12.7876 61.372 12.9522 61.3303 13.1656C61.2932 13.3743 61.2561 13.6108 61.219 13.8751C61.1865 14.1348 61.1703 14.3853 61.1703 14.6264C61.1749 14.863 61.2027 15.0693 61.2537 15.2456C61.3094 15.4172 61.4045 15.5192 61.539 15.5516C61.6827 15.5887 61.8219 15.5609 61.9564 15.4682C62.0908 15.3708 62.2184 15.234 62.339 15.0577C62.4595 14.8769 62.5708 14.6682 62.6729 14.4316C62.7749 14.1905 62.8677 13.9447 62.9511 13.6943C63.0346 13.4438 63.1065 13.198 63.1668 12.9569C63.2271 12.7157 63.2735 12.5024 63.3059 12.3169L65.1424 12.5812C65.1332 12.6972 65.1169 12.8525 65.0937 13.0473C65.0706 13.2374 65.052 13.4415 65.0381 13.6595C65.0242 13.8774 65.0172 14.0977 65.0172 14.3203C65.0219 14.5383 65.0474 14.7377 65.0937 14.9186C65.1401 15.0948 65.212 15.2409 65.3094 15.3569C65.4068 15.4682 65.5413 15.5238 65.7129 15.5238C65.8659 15.5238 65.9981 15.4728 66.1094 15.3708C66.2207 15.2687 66.3135 15.1366 66.3877 14.9743C66.4665 14.8073 66.5291 14.6195 66.5755 14.4108C66.6219 14.1974 66.6566 13.9818 66.6798 13.7638C66.703 13.5459 66.7146 13.3348 66.7146 13.1308C66.7146 12.9221 66.7077 12.7389 66.6937 12.5812L68.572 12.3169L68.8016 14.2786C68.8294 14.4919 68.8897 14.6774 68.9824 14.8351C69.0752 14.9928 69.1842 15.125 69.3094 15.2316C69.4346 15.3337 69.5668 15.4125 69.7059 15.4682C69.845 15.5192 69.9772 15.5447 70.1024 15.5447H70.1859C70.3575 15.5447 70.5129 15.5725 70.652 15.6282C70.7958 15.6838 70.9187 15.7627 71.0207 15.8647C71.1227 15.9621 71.2016 16.078 71.2572 16.2125C71.3129 16.347 71.3407 16.4908 71.3407 16.6438C71.3407 16.7969 71.3129 16.9406 71.2572 17.0751C71.2016 17.2096 71.1204 17.3256 71.0137 17.423C70.9117 17.5203 70.7819 17.5969 70.6242 17.6525C70.4711 17.7128 70.2972 17.743 70.1024 17.743C69.6526 17.743 69.2282 17.6641 68.8294 17.5064C68.4306 17.3487 68.085 17.0821 67.7929 16.7064C67.765 16.7435 67.7372 16.776 67.7094 16.8038C67.6816 16.8316 67.6561 16.8595 67.6329 16.8873V16.8803C67.3824 17.1447 67.0926 17.3534 66.7633 17.5064C66.4387 17.6641 66.0885 17.743 65.7129 17.743C65.2908 17.743 64.9013 17.6525 64.5442 17.4716C64.1917 17.2908 63.8972 17.045 63.6607 16.7343C63.3824 17.0403 63.0671 17.2885 62.7146 17.4786C62.3621 17.6687 61.9749 17.7638 61.5529 17.7638C61.1587 17.7638 60.7923 17.6757 60.4537 17.4995C60.1152 17.3232 59.8346 17.0821 59.612 16.776C59.3616 17.1238 59.0508 17.3719 58.6798 17.5203C58.3135 17.6687 57.859 17.743 57.3164 17.743C57.1401 17.743 56.9801 17.7128 56.8364 17.6525C56.6926 17.5969 56.5697 17.5203 56.4677 17.423C56.3656 17.3256 56.2868 17.2096 56.2311 17.0751C56.1708 16.9406 56.1407 16.7969 56.1407 16.6438ZM66.9024 9.48556L65.5668 10.8282L64.245 9.50643L62.9372 10.8143L61.5877 9.47165L62.9233 8.12904L64.245 9.45078L65.5529 8.14295L66.9024 9.48556ZM63.0068 7.46817L64.245 6.22991L65.4903 7.47513L64.252 8.71339L63.0068 7.46817ZM68.8745 16.6438C68.8745 16.4861 68.9024 16.3401 68.958 16.2056C69.0137 16.0711 69.0925 15.9551 69.1945 15.8577C69.2919 15.7603 69.4079 15.6838 69.5424 15.6282C69.6768 15.5725 69.8206 15.5447 69.9737 15.5447H70.4467C70.5395 15.5447 70.6322 15.547 70.725 15.5516C70.8177 15.5516 70.9105 15.5516 71.0032 15.5516C71.0867 15.5516 71.1424 15.554 71.1702 15.5586C71.198 15.5586 71.2166 15.5609 71.2258 15.5656C71.2397 15.5656 71.2537 15.5656 71.2676 15.5656C71.2861 15.5656 71.3232 15.5609 71.3789 15.5516C71.2954 15.4589 71.2142 15.3522 71.1354 15.2316C71.0612 15.1111 70.9916 14.9812 70.9267 14.8421C70.8664 14.6983 70.8154 14.5476 70.7737 14.3899C70.7319 14.2276 70.7064 14.0583 70.6971 13.8821C70.7018 13.4461 70.776 13.0264 70.9197 12.623C71.0635 12.2148 71.2676 11.8438 71.5319 11.5099C71.8241 11.1482 72.1603 10.8653 72.5406 10.6612C72.9209 10.4572 73.3151 10.3644 73.7232 10.383C74.1267 10.4015 74.5024 10.5059 74.8502 10.696C75.198 10.8861 75.4971 11.1319 75.7476 11.4334C76.0026 11.7348 76.2021 12.078 76.3458 12.463C76.4942 12.8432 76.5684 13.2351 76.5684 13.6386C76.5684 13.9586 76.5151 14.274 76.4084 14.5847C76.3018 14.8908 76.1673 15.183 76.005 15.4612C76.2276 15.4844 76.4595 15.5053 76.7006 15.5238C76.9464 15.5377 77.1621 15.5447 77.3476 15.5447C77.5053 15.5447 77.6513 15.5725 77.7858 15.6282C77.9203 15.6838 78.0363 15.7603 78.1337 15.8577C78.2357 15.9551 78.3145 16.0711 78.3702 16.2056C78.4258 16.3401 78.4537 16.4861 78.4537 16.6438C78.4537 16.7969 78.4258 16.9406 78.3702 17.0751C78.3145 17.2096 78.2357 17.3256 78.1337 17.423C78.0363 17.525 77.9203 17.6038 77.7858 17.6595C77.6513 17.7151 77.5053 17.743 77.3476 17.743H77.285C77.1366 17.743 76.9742 17.7383 76.798 17.729C76.6218 17.7244 76.4455 17.7174 76.2693 17.7082C76.0931 17.6989 75.9192 17.685 75.7476 17.6664C75.5806 17.6525 75.4299 17.6363 75.2954 17.6177C75.045 17.5806 74.7899 17.5319 74.5302 17.4716C74.2751 17.4114 74.0084 17.314 73.7302 17.1795C73.5586 17.2769 73.329 17.3603 73.0415 17.4299C72.7586 17.5041 72.4479 17.5621 72.1093 17.6038C71.7708 17.6502 71.4206 17.685 71.0589 17.7082C70.6971 17.7314 70.354 17.743 70.0293 17.743H69.9737C69.8206 17.743 69.6768 17.7151 69.5424 17.6595C69.4079 17.6038 69.2919 17.525 69.1945 17.423C69.0925 17.3256 69.0137 17.2096 68.958 17.0751C68.9024 16.9406 68.8745 16.7969 68.8745 16.6438ZM74.725 13.7986C74.725 13.6502 74.6879 13.5087 74.6137 13.3743C74.5441 13.2398 74.456 13.1192 74.3493 13.0125C74.2473 12.9059 74.136 12.8177 74.0154 12.7482C73.8948 12.674 73.7858 12.623 73.6884 12.5951C73.5818 12.6183 73.4589 12.6601 73.3197 12.7203C73.1853 12.7806 73.0554 12.8664 72.9302 12.9777C72.8096 13.0844 72.7076 13.2166 72.6241 13.3743C72.5406 13.5273 72.4989 13.7105 72.4989 13.9238C72.4989 13.9934 72.5337 14.0908 72.6032 14.216C72.6774 14.3366 72.7702 14.4618 72.8815 14.5916C72.9974 14.7169 73.1273 14.8351 73.2711 14.9464C73.4195 15.0531 73.5702 15.1296 73.7232 15.176C73.8392 15.1111 73.9574 15.023 74.078 14.9116C74.1986 14.7957 74.3053 14.6751 74.398 14.5499C74.4954 14.4201 74.5742 14.2902 74.6345 14.1603C74.6948 14.0259 74.725 13.9053 74.725 13.7986ZM76.2554 7.98295L74.9197 9.32556L73.598 8.00382L72.2902 9.31165L70.9406 7.96904L72.2763 6.62643L73.598 7.94817L74.9058 6.64034L76.2554 7.98295ZM75.8247 16.6438C75.8247 16.4908 75.8549 16.347 75.9152 16.2125C75.9708 16.078 76.0474 15.9621 76.1447 15.8647C76.2421 15.7627 76.3581 15.6838 76.4926 15.6282C76.6271 15.5725 76.7708 15.5447 76.9239 15.5447H77.6404H77.9534C78.125 15.5447 78.3036 15.5377 78.4891 15.5238C78.6792 15.5099 78.8555 15.4821 79.0178 15.4403C79.1847 15.3986 79.3308 15.3406 79.4561 15.2664C79.5859 15.1922 79.6787 15.0925 79.7343 14.9673C79.7714 14.8838 79.79 14.7586 79.79 14.5916C79.79 14.4803 79.7575 14.3134 79.6926 14.0908C79.6276 13.8682 79.5418 13.6224 79.4352 13.3534C79.3285 13.0798 79.2079 12.7945 79.0734 12.4977C78.9389 12.2009 78.8021 11.9203 78.663 11.656L80.6526 10.6682C80.7824 10.9603 80.91 11.2711 81.0352 11.6003C81.165 11.9296 81.281 12.2635 81.383 12.6021C81.485 12.9406 81.5662 13.2792 81.6265 13.6177C81.6914 13.9516 81.7239 14.2716 81.7239 14.5777C81.7239 15.0461 81.6404 15.4751 81.4734 15.8647C81.2787 16.3006 81.012 16.6624 80.6734 16.9499C80.3349 17.2328 79.9291 17.4415 79.4561 17.576C79.1778 17.6548 78.9111 17.7012 78.6561 17.7151C78.401 17.7337 78.1621 17.743 77.9395 17.743H76.9865H76.9239C76.7708 17.743 76.6271 17.7151 76.4926 17.6595C76.3581 17.6038 76.2421 17.525 76.1447 17.423C76.0474 17.3256 75.9708 17.2096 75.9152 17.0751C75.8549 16.9406 75.8247 16.7969 75.8247 16.6438ZM79.2682 6.73773L80.8126 8.28208L79.2682 9.82643L77.7239 8.28208L79.2682 6.73773ZM94.1939 11.1343C94.333 11.0972 94.4745 11.0716 94.6183 11.0577C94.762 11.0438 94.9035 11.0369 95.0426 11.0369C95.3533 11.0369 95.6733 11.0832 96.0026 11.176C96.3365 11.2641 96.6704 11.3963 97.0043 11.5725L96.2322 13.6108C96.0096 13.5134 95.7985 13.4392 95.5991 13.3882C95.3997 13.3325 95.2119 13.3047 95.0356 13.3047C94.9151 13.3047 94.7783 13.3186 94.6252 13.3464C94.4768 13.3603 94.3168 13.4044 94.1452 13.4786C93.9736 13.5482 93.802 13.6386 93.6304 13.7499C93.4635 13.8612 93.3012 13.9911 93.1435 14.1395C92.9858 14.2832 92.8443 14.4363 92.7191 14.5986C92.5985 14.7609 92.4988 14.9302 92.42 15.1064C92.3412 15.278 92.2971 15.445 92.2878 15.6073C92.2785 15.7372 92.3156 15.8438 92.3991 15.9273C92.4826 16.0061 92.5939 16.0757 92.733 16.136C92.8722 16.1916 93.0298 16.2427 93.2061 16.289C93.3823 16.3308 93.5609 16.3795 93.7417 16.4351L93.9435 16.4838C94.2403 16.5534 94.5348 16.6322 94.8269 16.7203C95.1238 16.8085 95.3904 16.9337 95.6269 17.096C95.8635 17.2537 96.0536 17.4624 96.1974 17.7221C96.3458 17.9818 96.42 18.318 96.42 18.7308C96.42 18.8143 96.4154 18.9001 96.4061 18.9882C96.4014 19.0809 96.3898 19.176 96.3713 19.2734C96.3249 19.5238 96.2414 19.7673 96.1209 20.0038C96.0003 20.245 95.8472 20.4722 95.6617 20.6856C95.4809 20.9035 95.2698 21.1053 95.0287 21.2908C94.7922 21.4809 94.5325 21.6502 94.2496 21.7986C93.7162 22.063 93.1064 22.267 92.42 22.4108C91.7336 22.5592 90.9962 22.6334 90.2078 22.6334C89.2617 22.6334 88.4269 22.4943 87.7035 22.216C86.98 21.9424 86.3794 21.5412 85.9017 21.0125C85.54 20.5812 85.2733 20.1082 85.1017 19.5934C84.9348 19.0786 84.8513 18.5406 84.8513 17.9795C84.8513 17.8589 84.8559 17.7383 84.8652 17.6177C84.8745 17.4972 84.8838 17.3835 84.893 17.2769C84.9116 16.943 84.9487 16.616 85.0043 16.296C85.06 15.9714 85.1226 15.6676 85.1922 15.3847C85.2664 15.0972 85.3452 14.8328 85.4287 14.5916C85.5122 14.3459 85.5887 14.1325 85.6583 13.9516C85.7278 13.7661 85.7858 13.6201 85.8322 13.5134C85.8832 13.4021 85.9133 13.3348 85.9226 13.3116L87.6687 14.0421C87.5527 14.3157 87.4414 14.5847 87.3348 14.849C87.2327 15.1087 87.14 15.3777 87.0565 15.656C86.9777 15.9296 86.9104 16.2195 86.8548 16.5256C86.8038 16.8316 86.7713 17.1656 86.7574 17.5273C86.7527 17.5783 86.7481 17.634 86.7435 17.6943C86.7388 17.7545 86.7365 17.8079 86.7365 17.8543C86.7365 18.1464 86.7806 18.434 86.8687 18.7169C86.9614 18.9998 87.1122 19.2548 87.3209 19.4821C87.4461 19.6259 87.6084 19.7511 87.8078 19.8577C88.0119 19.969 88.2414 20.0618 88.4965 20.136C88.7516 20.2148 89.0252 20.2728 89.3174 20.3099C89.6096 20.3516 89.9064 20.3725 90.2078 20.3725C90.7968 20.3725 91.3464 20.3308 91.8565 20.2473C92.3713 20.1685 92.8235 20.0618 93.213 19.9273C93.6026 19.7974 93.9156 19.6444 94.1522 19.4682C94.3933 19.2966 94.5325 19.1203 94.5696 18.9395C94.5603 18.9395 94.5325 18.9348 94.4861 18.9256C94.4397 18.9163 94.3794 18.9024 94.3052 18.8838C94.2356 18.8699 94.1545 18.8514 94.0617 18.8282C93.9736 18.8096 93.8809 18.7887 93.7835 18.7656L93.4078 18.6821C92.9951 18.5801 92.6055 18.4618 92.2391 18.3273C91.8774 18.1974 91.5597 18.0235 91.2861 17.8056C91.0171 17.5922 90.8014 17.3232 90.6391 16.9986C90.4814 16.6693 90.4026 16.2543 90.4026 15.7534C90.4258 15.2201 90.5371 14.7006 90.7365 14.1951C90.9359 13.6896 91.2049 13.2282 91.5435 12.8108C91.882 12.3934 92.2762 12.0386 92.7261 11.7464C93.1806 11.4496 93.6722 11.2456 94.2009 11.1343H94.1939ZM100.105 13.2212C100.007 13.2027 99.8961 13.2374 99.7709 13.3256C99.6503 13.409 99.5344 13.525 99.4231 13.6734C99.3164 13.8172 99.226 13.9772 99.1518 14.1534C99.0822 14.3296 99.0474 14.4989 99.0474 14.6612C99.0474 14.8143 99.0915 14.9418 99.1796 15.0438C99.2677 15.1459 99.379 15.2293 99.5135 15.2943C99.6526 15.3592 99.8034 15.4079 99.9657 15.4403C100.133 15.4728 100.293 15.496 100.446 15.5099H100.439C100.559 15.5192 100.696 15.5261 100.849 15.5308C101.007 15.5308 101.16 15.5308 101.308 15.5308C101.355 15.5308 101.389 15.5331 101.413 15.5377C101.44 15.5377 101.464 15.5377 101.482 15.5377C101.501 15.5377 101.519 15.5377 101.538 15.5377C101.561 15.5377 101.593 15.5354 101.635 15.5308C101.566 15.2432 101.482 14.9696 101.385 14.7099C101.292 14.4456 101.183 14.209 101.058 14.0003C100.933 13.7916 100.791 13.6201 100.633 13.4856C100.476 13.3464 100.3 13.2583 100.105 13.2212ZM96.6961 20.5047C97.35 20.3748 97.946 20.2102 98.4839 20.0108C99.0219 19.816 99.4926 19.5957 99.8961 19.3499C100.304 19.1087 100.64 18.8514 100.905 18.5777C101.174 18.3041 101.364 18.0259 101.475 17.743C101.276 17.743 101.065 17.7383 100.842 17.729C100.62 17.7244 100.436 17.7174 100.293 17.7082C99.7547 17.6618 99.2631 17.5412 98.8178 17.3464C98.3726 17.1563 98.0178 16.8966 97.7535 16.5673C97.5587 16.3169 97.4196 16.0456 97.3361 15.7534C97.2573 15.4612 97.2178 15.1528 97.2178 14.8282C97.2178 14.5777 97.241 14.3273 97.2874 14.0769C97.3338 13.8218 97.3987 13.576 97.4822 13.3395C97.5657 13.0983 97.6631 12.8711 97.7744 12.6577C97.8903 12.4444 98.0132 12.2496 98.1431 12.0734C98.4213 11.7256 98.7251 11.4635 99.0544 11.2873C99.3883 11.1064 99.7384 11.016 100.105 11.016C100.889 11.016 101.596 11.3592 102.227 12.0456C102.449 12.296 102.649 12.5766 102.825 12.8873C103.001 13.198 103.149 13.5296 103.27 13.8821C103.395 14.2299 103.49 14.5963 103.555 14.9812C103.62 15.3615 103.653 15.7487 103.653 16.143C103.653 16.2635 103.648 16.3841 103.639 16.5047C103.634 16.6253 103.627 16.7389 103.618 16.8456C103.562 17.3882 103.439 17.896 103.249 18.369C103.064 18.8467 102.822 19.285 102.526 19.6838C102.233 20.0873 101.893 20.4514 101.503 20.776C101.113 21.1053 100.689 21.3928 100.23 21.6386C99.7755 21.889 99.2932 22.0977 98.7831 22.2647C98.2729 22.4316 97.7489 22.5569 97.2109 22.6403L96.6961 20.5047ZM107.264 12.6438C107.44 13.1447 107.594 13.634 107.723 14.1116C107.779 14.3203 107.835 14.5383 107.89 14.7656C107.946 14.9882 107.995 15.2131 108.036 15.4403C108.083 15.663 108.12 15.8832 108.148 16.1012C108.176 16.3145 108.189 16.514 108.189 16.6995C108.189 17.1354 108.129 17.5598 108.009 17.9725C107.893 18.3899 107.726 18.7934 107.508 19.183C107.294 19.5725 107.039 19.9459 106.743 20.303C106.446 20.6647 106.116 21.0032 105.755 21.3186C105.393 21.634 105.006 21.9261 104.593 22.1951C104.18 22.4688 103.754 22.7145 103.313 22.9325L102.047 21.1725C102.381 21.0056 102.719 20.8154 103.063 20.6021C103.401 20.3934 103.726 20.1685 104.036 19.9273C104.352 19.6861 104.644 19.4334 104.913 19.169C105.187 18.9047 105.423 18.6357 105.623 18.3621C105.827 18.0885 105.987 17.8102 106.103 17.5273C106.218 17.249 106.276 16.9754 106.276 16.7064C106.276 16.5116 106.249 16.3006 106.193 16.0734C106.142 15.8461 106.07 15.6027 105.977 15.343C105.889 15.0786 105.783 14.8003 105.657 14.5082C105.532 14.2114 105.398 13.896 105.254 13.5621L107.264 12.6438ZM115.117 12.6438C115.293 13.1447 115.446 13.634 115.576 14.1116C115.632 14.3203 115.687 14.5383 115.743 14.7656C115.798 14.9882 115.847 15.2131 115.889 15.4403C115.935 15.663 115.972 15.8832 116 16.1012C116.028 16.3145 116.042 16.514 116.042 16.6995C116.042 17.1354 115.982 17.5598 115.861 17.9725C115.745 18.3899 115.578 18.7934 115.36 19.183C115.147 19.5725 114.892 19.9459 114.595 20.303C114.298 20.6647 113.969 21.0032 113.607 21.3186C113.245 21.634 112.858 21.9261 112.445 22.1951C112.033 22.4688 111.606 22.7145 111.165 22.9325L109.899 21.1725C110.233 21.0056 110.572 20.8154 110.915 20.6021C111.254 20.3934 111.578 20.1685 111.889 19.9273C112.204 19.6861 112.496 19.4334 112.765 19.169C113.039 18.9047 113.276 18.6357 113.475 18.3621C113.679 18.0885 113.839 17.8102 113.955 17.5273C114.071 17.249 114.129 16.9754 114.129 16.7064C114.129 16.5116 114.101 16.3006 114.045 16.0734C113.994 15.8461 113.923 15.6027 113.83 15.343C113.742 15.0786 113.635 14.8003 113.51 14.5082C113.385 14.2114 113.25 13.896 113.106 13.5621L115.117 12.6438ZM113.92 8.41426L115.465 9.9586L113.92 11.503L112.376 9.9586L113.92 8.41426ZM116.598 17.7638C116.622 17.3835 116.645 16.9893 116.668 16.5812C116.691 16.1731 116.71 15.7696 116.724 15.3708C116.742 14.9719 116.754 14.5847 116.758 14.209C116.763 13.8334 116.758 13.4879 116.745 13.1725C116.717 12.514 116.689 11.9366 116.661 11.4403C116.638 10.9395 116.612 10.4966 116.585 10.1116C116.561 9.72672 116.536 9.39049 116.508 9.10295C116.485 8.81078 116.459 8.54411 116.432 8.30295C116.404 8.06179 116.374 7.83687 116.341 7.62817C116.309 7.41484 116.274 7.19455 116.237 6.9673L118.386 6.25774C118.488 6.87918 118.569 7.50527 118.63 8.136C118.695 8.76672 118.743 9.37194 118.776 9.95165C118.808 10.5267 118.829 11.0624 118.838 11.5586C118.852 12.0548 118.859 12.4792 118.859 12.8316C118.859 13.1516 118.857 13.4972 118.852 13.8682C118.852 14.2392 118.848 14.6241 118.838 15.023C118.834 15.4218 118.825 15.8253 118.811 16.2334C118.797 16.6415 118.776 17.0403 118.748 17.4299L116.598 17.7638ZM138.464 15.5447C138.617 15.5447 138.76 15.5725 138.895 15.6282C139.029 15.6838 139.145 15.7627 139.243 15.8647C139.345 15.9621 139.424 16.078 139.479 16.2125C139.535 16.347 139.563 16.4908 139.563 16.6438C139.563 16.7969 139.535 16.9406 139.479 17.0751C139.424 17.2096 139.345 17.3256 139.243 17.423C139.145 17.5203 139.029 17.5969 138.895 17.6525C138.76 17.7128 138.617 17.743 138.464 17.743C137.726 17.743 137.047 17.6177 136.425 17.3673C135.809 17.1215 135.271 16.7528 134.811 16.2612C134.644 16.4374 134.457 16.5882 134.248 16.7134C134.044 16.8386 133.831 16.9499 133.608 17.0473C133.348 17.1632 133.065 17.2653 132.759 17.3534C132.458 17.4415 132.119 17.5134 131.744 17.569C131.373 17.6293 130.96 17.6734 130.505 17.7012C130.051 17.729 129.543 17.743 128.982 17.743C128.551 17.7383 128.149 17.7221 127.778 17.6943C127.412 17.6664 127.066 17.627 126.742 17.576C126.422 17.5296 126.12 17.4693 125.837 17.3951C125.555 17.3209 125.283 17.2351 125.024 17.1377C123.971 16.7296 123.247 16.1314 122.853 15.343V15.3499C122.631 14.9186 122.519 14.4409 122.519 13.9169C122.519 13.6896 122.547 13.4438 122.603 13.1795C122.658 12.9151 122.73 12.6577 122.818 12.4073C122.865 12.2821 122.906 12.1777 122.944 12.0943C122.981 12.0108 123.018 11.9319 123.055 11.8577C123.097 11.7835 123.141 11.7093 123.187 11.6351C123.238 11.5563 123.303 11.4635 123.382 11.3569L125.024 12.5534C124.963 12.6554 124.896 12.7667 124.822 12.8873C124.752 13.0079 124.685 13.1354 124.62 13.2699C124.555 13.3998 124.5 13.5343 124.453 13.6734C124.411 13.8079 124.391 13.9401 124.391 14.0699C124.391 14.2647 124.469 14.4363 124.627 14.5847C124.785 14.7331 124.996 14.863 125.26 14.9743C125.524 15.0809 125.831 15.1714 126.178 15.2456C126.531 15.3151 126.902 15.3731 127.291 15.4195C127.681 15.4612 128.075 15.4914 128.474 15.5099C128.877 15.5285 129.265 15.5377 129.636 15.5377C129.993 15.5377 130.343 15.5238 130.686 15.496C131.029 15.4682 131.349 15.4334 131.646 15.3916C131.943 15.3453 132.205 15.2966 132.432 15.2456C132.664 15.1899 132.847 15.1389 132.982 15.0925H132.975C133.323 14.958 133.573 14.805 133.726 14.6334C133.879 14.4618 133.956 14.2786 133.956 14.0838C133.956 13.8751 133.902 13.6502 133.796 13.409C133.689 13.1679 133.548 12.9221 133.371 12.6716C133.2 12.4212 133.003 12.1731 132.78 11.9273C132.557 11.6769 132.328 11.4403 132.091 11.2177C131.86 10.9905 131.63 10.7818 131.403 10.5916C131.175 10.3969 130.971 10.2299 130.791 10.0908L131.013 8.19165L137.434 5.49947L138.213 7.43339L132.877 9.59687C133.211 9.86121 133.517 10.1325 133.796 10.4108C134.074 10.6844 134.329 10.9673 134.561 11.2595C134.793 11.5516 135.002 11.8554 135.187 12.1708C135.377 12.4815 135.551 12.8085 135.709 13.1516V13.1447C135.778 13.3441 135.864 13.5482 135.966 13.7569C136.068 13.9656 136.186 14.1673 136.321 14.3621C136.455 14.5569 136.604 14.7377 136.766 14.9047C136.929 15.067 137.107 15.2061 137.302 15.3221H137.295C137.448 15.3916 137.608 15.445 137.775 15.4821C137.946 15.5192 138.157 15.5401 138.408 15.5447H138.464ZM136.823 16.6438C136.823 16.4908 136.853 16.347 136.914 16.2125C136.969 16.078 137.046 15.9621 137.143 15.8647C137.241 15.7673 137.357 15.6908 137.491 15.6351C137.626 15.5748 137.769 15.5447 137.922 15.5447H137.985H138.43H138.423C138.581 15.5818 138.727 15.5656 138.862 15.496C138.996 15.4218 139.112 15.3174 139.209 15.183C139.307 15.0438 139.383 14.8861 139.439 14.7099C139.495 14.529 139.522 14.3505 139.522 14.1743C139.532 13.7801 139.527 13.2769 139.509 12.6647C139.49 12.0525 139.476 11.3383 139.467 10.5221C139.458 9.77542 139.446 9.09136 139.432 8.46991C139.423 7.84846 139.4 7.24788 139.362 6.66817L141.526 6.27165C141.563 6.56846 141.591 6.89078 141.609 7.2386C141.633 7.58179 141.649 7.94121 141.658 8.31687C141.672 8.69252 141.681 9.07976 141.686 9.4786C141.691 9.87745 141.693 10.2786 141.693 10.6821C141.693 11.3174 141.686 11.9551 141.672 12.5951C141.663 12.9151 141.656 13.249 141.651 13.5969C141.647 13.9447 141.644 14.2856 141.644 14.6195C141.644 14.6983 141.653 14.7957 141.672 14.9116C141.691 15.0276 141.732 15.1389 141.797 15.2456H141.79C141.846 15.329 141.927 15.4009 142.034 15.4612C142.14 15.5169 142.305 15.5447 142.528 15.5447C142.681 15.5447 142.824 15.5748 142.959 15.6351C143.093 15.6908 143.209 15.7673 143.307 15.8647C143.409 15.9621 143.49 16.078 143.55 16.2125C143.611 16.347 143.641 16.4908 143.641 16.6438C143.641 16.7969 143.611 16.9406 143.55 17.0751C143.49 17.2096 143.409 17.3256 143.307 17.423C143.209 17.525 143.093 17.6038 142.959 17.6595C142.824 17.7151 142.681 17.743 142.528 17.743C142.115 17.7522 141.749 17.6803 141.429 17.5273C141.109 17.3789 140.837 17.1957 140.615 16.9777C140.35 17.2189 140.056 17.4044 139.731 17.5343C139.407 17.6641 139.077 17.7337 138.743 17.743H137.985H137.922C137.769 17.743 137.626 17.7151 137.491 17.6595C137.357 17.6038 137.241 17.525 137.143 17.423C137.046 17.3256 136.969 17.2096 136.914 17.0751C136.853 16.9406 136.823 16.7969 136.823 16.6438ZM140.96 16.6438C140.96 16.4908 140.988 16.3493 141.043 16.2195C141.099 16.0896 141.175 15.976 141.273 15.8786C141.37 15.7812 141.486 15.7047 141.621 15.649C141.75 15.5887 141.892 15.554 142.045 15.5447C142.356 15.5447 142.625 15.4844 142.852 15.3638C143.084 15.2432 143.288 15.0856 143.464 14.8908C143.64 14.696 143.798 14.478 143.937 14.2369C144.076 13.9957 144.208 13.7545 144.334 13.5134V13.5203C144.454 13.2699 144.582 13.0218 144.716 12.776C144.855 12.5302 145.006 12.303 145.168 12.0943C145.419 11.8021 145.699 11.5772 146.01 11.4195C146.321 11.2572 146.653 11.176 147.005 11.176C147.422 11.176 147.8 11.2618 148.139 11.4334C148.482 11.605 148.793 11.8508 149.071 12.1708C149.28 12.4212 149.449 12.7087 149.579 13.0334C149.709 13.3534 149.795 13.6943 149.836 14.056V14.0421C149.864 14.223 149.878 14.4293 149.878 14.6612C149.878 14.9116 149.855 15.1574 149.808 15.3986C149.767 15.6351 149.706 15.8601 149.628 16.0734C149.475 16.463 149.254 16.7899 148.967 17.0543C148.684 17.314 148.375 17.4925 148.042 17.5899C147.93 17.6224 147.819 17.6432 147.708 17.6525C147.601 17.6664 147.487 17.6734 147.367 17.6734C147.158 17.6734 146.935 17.6479 146.699 17.5969C146.467 17.5459 146.237 17.4763 146.01 17.3882C145.917 17.3464 145.813 17.2977 145.697 17.2421C145.581 17.1818 145.458 17.1169 145.328 17.0473C145.203 16.9777 145.078 16.9059 144.953 16.8316C144.828 16.7574 144.712 16.6856 144.605 16.616C144.419 16.7876 144.234 16.943 144.048 17.0821C143.863 17.2212 143.668 17.3395 143.464 17.4369C143.26 17.5343 143.042 17.6085 142.81 17.6595C142.578 17.7151 142.326 17.743 142.052 17.743C141.899 17.743 141.757 17.7128 141.628 17.6525C141.493 17.5969 141.377 17.5203 141.28 17.423C141.178 17.3256 141.099 17.2096 141.043 17.0751C140.988 16.9406 140.96 16.7969 140.96 16.6438ZM145.892 14.8143C146.036 14.907 146.205 14.9974 146.4 15.0856C146.599 15.1737 146.796 15.2525 146.991 15.3221C147.186 15.3916 147.364 15.4496 147.527 15.496C147.694 15.5377 147.819 15.5586 147.902 15.5586C147.921 15.5586 147.939 15.5586 147.958 15.5586C147.981 15.554 148.004 15.5493 148.028 15.5447C148.083 15.5308 148.137 15.4612 148.188 15.336C148.243 15.2061 148.264 15.0299 148.25 14.8073C148.25 14.6589 148.208 14.4966 148.125 14.3203C148.042 14.1395 147.933 13.9725 147.798 13.8195C147.664 13.6618 147.508 13.5319 147.332 13.4299C147.16 13.3232 146.984 13.2699 146.803 13.2699C146.738 13.2699 146.655 13.3627 146.553 13.5482C146.451 13.7337 146.302 14.0096 146.108 14.376V14.369L145.892 14.8143ZM169.232 17.743C168.466 17.743 167.817 17.6177 167.284 17.3673C166.755 17.1169 166.324 16.6995 165.99 16.1151C165.331 16.6763 164.534 17.0914 163.597 17.3603C162.665 17.6293 161.575 17.7638 160.327 17.7638C159.59 17.7592 158.889 17.7105 158.226 17.6177C157.568 17.5296 156.967 17.3951 156.425 17.2143C155.882 17.0287 155.407 16.7992 154.998 16.5256C154.59 16.2473 154.27 15.9203 154.038 15.5447C153.895 15.2989 153.79 15.016 153.725 14.696C153.661 14.3714 153.64 14.0212 153.663 13.6456C153.686 13.2653 153.758 12.8641 153.878 12.4421C154.004 12.0154 154.182 11.5748 154.414 11.1203L156.07 12.0803C155.977 12.2612 155.891 12.4374 155.812 12.609C155.734 12.7806 155.673 12.9592 155.632 13.1447C155.59 13.3302 155.569 13.5296 155.569 13.743C155.574 13.9516 155.611 14.1835 155.68 14.4386C155.796 14.638 156.003 14.8073 156.299 14.9464C156.601 15.0856 156.963 15.1992 157.385 15.2873C157.807 15.3754 158.27 15.4403 158.776 15.4821C159.281 15.5238 159.798 15.5447 160.327 15.5447C160.814 15.5447 161.276 15.5285 161.712 15.496C162.147 15.4589 162.549 15.4032 162.915 15.329C163.286 15.2502 163.62 15.1505 163.917 15.0299C164.218 14.9047 164.476 14.754 164.689 14.5777C164.884 14.4201 165.044 14.2461 165.169 14.056C165.294 13.8659 165.401 13.6664 165.489 13.4577C165.577 13.2444 165.649 13.0218 165.705 12.7899C165.765 12.558 165.823 12.3238 165.878 12.0873L167.826 12.5812L167.541 14.056C167.499 14.2693 167.509 14.4664 167.569 14.6473C167.634 14.8282 167.743 14.9859 167.896 15.1203C168.049 15.2502 168.244 15.3545 168.48 15.4334C168.717 15.5076 168.986 15.5447 169.287 15.5447C169.44 15.5447 169.584 15.5725 169.718 15.6282C169.853 15.6838 169.969 15.7627 170.066 15.8647C170.168 15.9621 170.247 16.078 170.303 16.2125C170.363 16.347 170.393 16.4908 170.393 16.6438C170.393 16.7969 170.363 16.9406 170.303 17.0751C170.247 17.2096 170.168 17.3256 170.066 17.423C169.969 17.525 169.853 17.6038 169.718 17.6595C169.584 17.7151 169.44 17.743 169.287 17.743H169.232ZM163.534 10.4803L162.198 11.823L160.877 10.5012L159.569 11.809L158.219 10.4664L159.555 9.12382L160.877 10.4456L162.185 9.13774L163.534 10.4803ZM168.974 16.6438C168.974 16.4908 169.002 16.347 169.058 16.2125C169.113 16.078 169.192 15.9621 169.294 15.8647C169.392 15.7627 169.507 15.6838 169.642 15.6282C169.776 15.5725 169.92 15.5447 170.073 15.5447H170.602C170.936 15.5447 171.256 15.5308 171.562 15.503C171.873 15.4751 172.146 15.4172 172.383 15.329C172.619 15.2363 172.809 15.1087 172.953 14.9464C173.102 14.7795 173.18 14.5592 173.19 14.2856C173.194 14.1835 173.194 14.1001 173.19 14.0351C173.19 13.9656 173.178 13.8844 173.155 13.7916C173.132 13.6943 173.097 13.569 173.051 13.416C173.009 13.2583 172.949 13.038 172.87 12.7551L174.894 12.1847C174.982 12.4073 175.063 12.7018 175.138 13.0682C175.212 13.4345 175.267 13.8357 175.305 14.2716C175.314 14.4108 175.33 14.5545 175.353 14.703C175.376 14.8514 175.414 14.9882 175.465 15.1134C175.52 15.2386 175.594 15.343 175.687 15.4264C175.78 15.5053 175.9 15.5447 176.049 15.5447C176.202 15.5447 176.346 15.5725 176.48 15.6282C176.615 15.6838 176.731 15.7627 176.828 15.8647C176.93 15.9621 177.009 16.078 177.065 16.2125C177.125 16.347 177.155 16.4908 177.155 16.6438C177.155 16.7969 177.125 16.9406 177.065 17.0751C177.009 17.2096 176.93 17.3256 176.828 17.423C176.726 17.525 176.608 17.6038 176.473 17.6595C176.343 17.7151 176.204 17.743 176.056 17.743C175.611 17.743 175.228 17.6734 174.908 17.5343C174.593 17.3998 174.321 17.2235 174.094 17.0056C173.885 17.1447 173.644 17.2606 173.371 17.3534C173.102 17.4461 172.814 17.5203 172.508 17.576C172.202 17.6363 171.887 17.678 171.562 17.7012C171.237 17.729 170.917 17.743 170.602 17.743H170.073C169.92 17.743 169.776 17.7151 169.642 17.6595C169.507 17.6038 169.392 17.525 169.294 17.423C169.192 17.3256 169.113 17.2096 169.058 17.0751C169.002 16.9406 168.974 16.7969 168.974 16.6438ZM175.632 20.2403L174.296 21.583L172.974 20.2612L171.666 21.569L170.317 20.2264L171.652 18.8838L172.974 20.2056L174.282 18.8977L175.632 20.2403ZM184.879 15.5447C185.027 15.5447 185.168 15.5748 185.303 15.6351C185.437 15.6954 185.553 15.7766 185.651 15.8786C185.753 15.976 185.834 16.0919 185.894 16.2264C185.954 16.3609 185.985 16.5047 185.985 16.6577C185.985 16.8108 185.954 16.9545 185.894 17.089C185.834 17.2189 185.753 17.3325 185.651 17.4299C185.553 17.5319 185.437 17.6108 185.303 17.6664C185.168 17.7221 185.027 17.7499 184.879 17.7499C184.512 17.7499 184.155 17.7383 183.807 17.7151C183.459 17.6919 183.123 17.6479 182.799 17.583C182.479 17.518 182.175 17.4276 181.887 17.3116C181.6 17.1911 181.333 17.0357 181.087 16.8456C180.814 17.0125 180.505 17.154 180.162 17.2699C179.819 17.3859 179.462 17.4786 179.091 17.5482C178.72 17.6224 178.346 17.6734 177.971 17.7012C177.595 17.7337 177.243 17.7499 176.913 17.7499C176.765 17.7499 176.623 17.7221 176.489 17.6664C176.354 17.6108 176.236 17.5319 176.134 17.4299C176.032 17.3325 175.953 17.2189 175.898 17.089C175.837 16.9545 175.807 16.8108 175.807 16.6577C175.807 16.5047 175.837 16.3609 175.898 16.2264C175.953 16.0919 176.032 15.976 176.134 15.8786C176.236 15.7766 176.354 15.6954 176.489 15.6351C176.623 15.5748 176.765 15.5447 176.913 15.5447C177.076 15.5447 177.245 15.5401 177.421 15.5308C177.602 15.5215 177.783 15.5099 177.964 15.496C178.145 15.4774 178.323 15.4543 178.499 15.4264C178.676 15.3986 178.843 15.3661 179 15.329C178.949 15.2827 178.903 15.2386 178.861 15.1969C178.819 15.1505 178.775 15.1041 178.729 15.0577H178.736C178.485 14.8073 178.228 14.5499 177.964 14.2856C177.704 14.0212 177.414 13.743 177.094 13.4508L177.205 11.823C177.479 11.5818 177.762 11.3777 178.054 11.2108C178.346 11.0392 178.634 10.8977 178.917 10.7864C179.204 10.6751 179.478 10.5893 179.738 10.529C180.002 10.4687 180.239 10.427 180.447 10.4038C180.549 10.3945 180.658 10.3876 180.774 10.383C180.89 10.3737 181.004 10.369 181.115 10.369C181.477 10.369 181.848 10.4061 182.228 10.4803C182.613 10.5545 182.961 10.6566 183.272 10.7864C183.541 10.9116 183.765 11.0531 183.946 11.2108C184.127 11.3685 184.271 11.5261 184.378 11.6838C184.484 11.8415 184.561 11.9945 184.607 12.143C184.658 12.2914 184.686 12.4166 184.691 12.5186C184.705 12.7273 184.677 12.9569 184.607 13.2073C184.538 13.4531 184.436 13.7059 184.301 13.9656C184.171 14.2206 184.016 14.4734 183.835 14.7238C183.654 14.9696 183.459 15.1969 183.251 15.4056C183.742 15.4983 184.285 15.5447 184.879 15.5447ZM181.115 12.5325C181.004 12.5325 180.862 12.5418 180.691 12.5603C180.519 12.5743 180.341 12.5951 180.155 12.623C179.97 12.6508 179.789 12.6832 179.612 12.7203C179.441 12.7574 179.295 12.7969 179.174 12.8386L181.087 14.4734C181.222 14.376 181.375 14.2554 181.546 14.1116C181.723 13.9679 181.894 13.8195 182.061 13.6664C182.228 13.5087 182.379 13.3534 182.513 13.2003C182.652 13.0473 182.754 12.9128 182.819 12.7969C182.713 12.7505 182.587 12.7111 182.444 12.6786C182.3 12.6415 182.149 12.6137 181.992 12.5951C181.839 12.5719 181.685 12.5557 181.532 12.5464C181.379 12.5372 181.24 12.5325 181.115 12.5325ZM184.524 16.6438C184.524 16.4908 184.554 16.347 184.614 16.2125C184.67 16.078 184.749 15.9621 184.851 15.8647C184.948 15.7627 185.066 15.6838 185.206 15.6282C185.34 15.5725 185.484 15.5447 185.637 15.5447C185.808 15.5447 186.019 15.5424 186.27 15.5377C186.525 15.5285 186.796 15.5145 187.084 15.496C187.371 15.4774 187.664 15.4543 187.96 15.4264C188.262 15.3986 188.547 15.3615 188.816 15.3151C189.09 15.2687 189.335 15.2154 189.553 15.1551C189.776 15.0902 189.95 15.016 190.075 14.9325C189.607 14.9835 189.175 15.0044 188.781 14.9951C188.387 14.9812 188.035 14.9418 187.724 14.8769C187.413 14.8119 187.146 14.7238 186.924 14.6125C186.706 14.4966 186.539 14.3644 186.423 14.216V14.223C186.298 14.0653 186.179 13.8543 186.068 13.5899C185.962 13.3256 185.908 12.9986 185.908 12.609C185.908 12.4003 185.922 12.2056 185.95 12.0247C186.089 11.2363 186.367 10.5847 186.785 10.0699L186.778 10.0769C187.028 9.74295 187.311 9.49484 187.626 9.33252C187.942 9.16556 188.273 9.08208 188.621 9.08208C188.974 9.08208 189.322 9.16788 189.665 9.33947C190.008 9.51107 190.319 9.74295 190.597 10.0351C190.796 10.2624 190.975 10.5198 191.133 10.8073C191.295 11.0948 191.432 11.4009 191.543 11.7256C191.659 12.0502 191.747 12.3887 191.807 12.7412C191.872 13.089 191.905 13.4392 191.905 13.7916C191.905 13.8983 191.902 14.005 191.898 14.1116C191.893 14.2137 191.886 14.3111 191.877 14.4038C191.821 14.8861 191.698 15.3035 191.508 15.656C191.318 16.0038 191.075 16.3006 190.778 16.5464C190.486 16.7922 190.149 16.9916 189.769 17.1447C189.389 17.2977 188.981 17.4183 188.545 17.5064C188.109 17.5945 187.652 17.6548 187.174 17.6873C186.701 17.7198 186.224 17.7383 185.741 17.743H185.623C185.47 17.743 185.326 17.7128 185.192 17.6525C185.057 17.5969 184.941 17.5203 184.844 17.423C184.746 17.3256 184.67 17.2096 184.614 17.0751C184.554 16.9406 184.524 16.7969 184.524 16.6438ZM188.607 11.2943C188.501 11.2896 188.392 11.3221 188.28 11.3916C188.174 11.4566 188.074 11.5447 187.981 11.656C187.893 11.7673 187.819 11.8948 187.759 12.0386C187.703 12.1824 187.675 12.3285 187.675 12.4769C187.675 12.6067 187.705 12.7227 187.766 12.8247C187.798 12.8803 187.863 12.929 187.96 12.9708C188.062 13.0079 188.181 13.0403 188.315 13.0682C188.454 13.0914 188.603 13.1122 188.76 13.1308C188.918 13.1447 189.069 13.154 189.213 13.1586C189.356 13.1632 189.486 13.1632 189.602 13.1586C189.723 13.154 189.811 13.147 189.866 13.1377C189.825 12.929 189.769 12.718 189.699 12.5047C189.635 12.2914 189.551 12.0966 189.449 11.9203C189.347 11.7441 189.226 11.598 189.087 11.4821C188.948 11.3661 188.788 11.3035 188.607 11.2943ZM191.112 6.86991L189.776 8.21252L188.454 6.89078L187.146 8.1986L185.797 6.856L187.133 5.51339L188.454 6.83513L189.762 5.5273L191.112 6.86991ZM193.217 20.5047C193.871 20.3748 194.462 20.2102 194.991 20.0108C195.524 19.816 195.99 19.5957 196.389 19.3499C196.792 19.1087 197.124 18.8514 197.384 18.5777C197.643 18.3041 197.829 18.0259 197.94 17.743C197.741 17.743 197.539 17.7383 197.335 17.729C197.131 17.7244 196.957 17.7174 196.813 17.7082C196.275 17.6618 195.784 17.5412 195.338 17.3464C194.893 17.1563 194.538 16.8966 194.274 16.5673C194.079 16.3169 193.94 16.0456 193.857 15.7534C193.778 15.4612 193.738 15.1528 193.738 14.8282C193.738 14.5777 193.762 14.3273 193.808 14.0769C193.854 13.8218 193.919 13.576 194.003 13.3395C194.086 13.0983 194.184 12.8711 194.295 12.6577C194.411 12.4444 194.534 12.2496 194.664 12.0734C194.942 11.7256 195.246 11.4635 195.575 11.2873C195.909 11.1064 196.259 11.016 196.625 11.016C197.409 11.016 198.116 11.3592 198.747 12.0456C198.942 12.2635 199.118 12.5047 199.276 12.769C199.434 13.0334 199.573 13.3163 199.693 13.6177C199.814 13.9145 199.911 14.2253 199.985 14.5499C200.064 14.8745 200.118 15.2061 200.145 15.5447H200.278C200.431 15.5447 200.574 15.5725 200.709 15.6282C200.843 15.6838 200.959 15.7627 201.057 15.8647C201.159 15.9621 201.24 16.078 201.3 16.2125C201.36 16.347 201.391 16.4931 201.391 16.6508C201.391 16.7992 201.36 16.9406 201.3 17.0751C201.24 17.205 201.159 17.3186 201.057 17.416C200.959 17.518 200.843 17.5969 200.709 17.6525C200.574 17.7128 200.431 17.743 200.278 17.743H199.972C199.791 18.4247 199.501 19.0415 199.102 19.5934C198.708 20.1453 198.235 20.6276 197.683 21.0403C197.136 21.4531 196.523 21.794 195.846 22.063C195.174 22.3319 194.469 22.5244 193.732 22.6403L193.217 20.5047ZM196.625 13.2212C196.523 13.2212 196.41 13.2676 196.285 13.3603C196.164 13.4485 196.05 13.5621 195.944 13.7012C195.837 13.8403 195.747 13.9957 195.672 14.1673C195.603 14.3389 195.568 14.5059 195.568 14.6682C195.568 14.8259 195.612 14.9557 195.7 15.0577C195.788 15.1598 195.9 15.2432 196.034 15.3082C196.173 15.3685 196.324 15.4148 196.486 15.4473C196.649 15.4751 196.806 15.496 196.959 15.5099C197.043 15.5192 197.133 15.5261 197.231 15.5308C197.333 15.5308 197.437 15.5308 197.544 15.5308C197.65 15.5308 197.755 15.5331 197.857 15.5377C197.963 15.5377 198.061 15.5401 198.149 15.5447C198.116 15.3174 198.065 15.1041 197.996 14.9047C197.926 14.7053 197.847 14.5198 197.759 14.3482C197.676 14.1766 197.583 14.0235 197.481 13.889C197.384 13.7499 197.289 13.6293 197.196 13.5273C197.163 13.4948 197.122 13.4601 197.071 13.423C197.024 13.3859 196.976 13.3534 196.925 13.3256C196.874 13.2931 196.82 13.2676 196.765 13.249C196.714 13.2305 196.667 13.2212 196.625 13.2212ZM199.98 16.6438C199.98 16.4908 200.008 16.3493 200.063 16.2195C200.119 16.0896 200.195 15.976 200.293 15.8786C200.39 15.7812 200.506 15.7047 200.641 15.649C200.77 15.5887 200.912 15.554 201.065 15.5447C201.376 15.5447 201.645 15.4844 201.872 15.3638C202.104 15.2432 202.308 15.0856 202.484 14.8908C202.66 14.696 202.818 14.478 202.957 14.2369C203.096 13.9957 203.228 13.7545 203.354 13.5134V13.5203C203.474 13.2699 203.602 13.0218 203.736 12.776C203.875 12.5302 204.026 12.303 204.188 12.0943C204.439 11.8021 204.719 11.5772 205.03 11.4195C205.341 11.2572 205.673 11.176 206.025 11.176C206.442 11.176 206.82 11.2618 207.159 11.4334C207.502 11.605 207.813 11.8508 208.091 12.1708C208.3 12.4212 208.469 12.7087 208.599 13.0334C208.729 13.3534 208.815 13.6943 208.856 14.056V14.0421C208.884 14.223 208.898 14.4293 208.898 14.6612C208.898 14.9116 208.875 15.1574 208.828 15.3986C208.787 15.6351 208.726 15.8601 208.648 16.0734C208.495 16.463 208.274 16.7899 207.987 17.0543C207.704 17.314 207.395 17.4925 207.062 17.5899C206.95 17.6224 206.839 17.6432 206.728 17.6525C206.621 17.6664 206.507 17.6734 206.387 17.6734C206.178 17.6734 205.955 17.6479 205.719 17.5969C205.487 17.5459 205.257 17.4763 205.03 17.3882C204.937 17.3464 204.833 17.2977 204.717 17.2421C204.601 17.1818 204.478 17.1169 204.348 17.0473C204.223 16.9777 204.098 16.9059 203.973 16.8316C203.848 16.7574 203.732 16.6856 203.625 16.616C203.439 16.7876 203.254 16.943 203.068 17.0821C202.883 17.2212 202.688 17.3395 202.484 17.4369C202.28 17.5343 202.062 17.6085 201.83 17.6595C201.598 17.7151 201.346 17.743 201.072 17.743C200.919 17.743 200.777 17.7128 200.648 17.6525C200.513 17.5969 200.397 17.5203 200.3 17.423C200.198 17.3256 200.119 17.2096 200.063 17.0751C200.008 16.9406 199.98 16.7969 199.98 16.6438ZM204.912 14.8143C205.056 14.907 205.225 14.9974 205.42 15.0856C205.619 15.1737 205.816 15.2525 206.011 15.3221C206.206 15.3916 206.384 15.4496 206.547 15.496C206.714 15.5377 206.839 15.5586 206.922 15.5586C206.941 15.5586 206.959 15.5586 206.978 15.5586C207.001 15.554 207.024 15.5493 207.048 15.5447C207.103 15.5308 207.157 15.4612 207.208 15.336C207.263 15.2061 207.284 15.0299 207.27 14.8073C207.27 14.6589 207.228 14.4966 207.145 14.3203C207.062 14.1395 206.953 13.9725 206.818 13.8195C206.684 13.6618 206.528 13.5319 206.352 13.4299C206.18 13.3232 206.004 13.2699 205.823 13.2699C205.758 13.2699 205.675 13.3627 205.573 13.5482C205.471 13.7337 205.322 14.0096 205.128 14.376V14.369L204.912 14.8143ZM221.365 17.743C220.493 17.743 219.711 17.6896 219.02 17.583C218.334 17.4809 217.731 17.3325 217.212 17.1377C216.159 16.7296 215.435 16.1314 215.041 15.343V15.3499C214.818 14.9186 214.707 14.4409 214.707 13.9169C214.707 13.6896 214.735 13.4438 214.791 13.1795C214.846 12.9151 214.918 12.6577 215.006 12.4073C215.118 12.1151 215.238 11.8577 215.368 11.6351C215.498 11.4079 215.632 11.169 215.772 10.9186L217.406 12.289C217.337 12.3864 217.256 12.514 217.163 12.6716C217.07 12.8247 216.98 12.987 216.892 13.1586C216.808 13.3302 216.736 13.5041 216.676 13.6803C216.62 13.8519 216.592 14.0027 216.592 14.1325C216.592 14.2253 216.606 14.3018 216.634 14.3621C216.727 14.5522 216.91 14.7192 217.184 14.863C217.462 15.0067 217.81 15.1296 218.227 15.2316C218.645 15.329 219.12 15.4032 219.653 15.4543C220.187 15.5053 220.757 15.5308 221.365 15.5308C221.694 15.5308 222.067 15.5145 222.485 15.4821C222.907 15.4496 223.34 15.3986 223.785 15.329C224.231 15.2548 224.674 15.1621 225.114 15.0508C225.555 14.9348 225.958 14.7957 226.325 14.6334C226.269 14.4154 226.202 14.2067 226.123 14.0073C226.049 13.8079 225.956 13.6015 225.845 13.3882C225.733 13.1702 225.601 12.9383 225.448 12.6925C225.295 12.4467 225.114 12.1661 224.905 11.8508L226.617 10.7377C226.7 10.8722 226.798 11.0369 226.909 11.2316C227.02 11.4264 227.132 11.6374 227.243 11.8647C227.359 12.0873 227.47 12.3238 227.577 12.5743C227.688 12.8247 227.785 13.0751 227.869 13.3256C227.957 13.576 228.024 13.8218 228.071 14.063C228.117 14.2995 228.136 14.5221 228.126 14.7308C228.103 15.1203 227.969 15.4659 227.723 15.7673C227.477 16.0641 227.162 16.3238 226.777 16.5464C226.396 16.769 225.965 16.9569 225.483 17.1099C225.005 17.263 224.518 17.3859 224.022 17.4786C223.53 17.5714 223.053 17.6386 222.589 17.6803C222.125 17.7221 221.717 17.743 221.365 17.743ZM221.413 18.2716L222.958 19.816L221.413 21.3603L219.869 19.816L221.413 18.2716ZM233.514 17.743C232.944 17.743 232.455 17.6711 232.046 17.5273C231.638 17.3882 231.286 17.1725 230.989 16.8803C230.804 16.6948 230.66 16.5001 230.558 16.296C230.46 16.0919 230.388 15.8925 230.342 15.6977C230.3 15.4983 230.275 15.3105 230.266 15.1343C230.261 14.958 230.259 14.8073 230.259 14.6821V14.5777C230.263 14.4061 230.268 14.1603 230.272 13.8403C230.282 13.5157 230.286 13.1354 230.286 12.6995C230.286 12.2635 230.284 11.7835 230.279 11.2595C230.275 10.7354 230.261 10.2137 230.238 9.69426C230.219 9.1702 230.189 8.66701 230.147 8.18469C230.11 7.70237 230.057 7.28266 229.987 6.92556L232.067 6.29252C232.128 6.5986 232.176 6.96034 232.213 7.37774C232.25 7.79049 232.281 8.22411 232.304 8.67861C232.332 9.1331 232.35 9.58991 232.359 10.049C232.373 10.5082 232.383 10.9348 232.387 11.329C232.392 11.6769 232.378 12.0177 232.346 12.3516C232.318 12.6809 232.295 13.0056 232.276 13.3256C232.257 13.6409 232.257 13.9493 232.276 14.2508C232.299 14.5476 232.364 14.8374 232.471 15.1203C232.512 15.227 232.564 15.3082 232.624 15.3638C232.689 15.4195 232.763 15.4612 232.846 15.489C232.93 15.5122 233.02 15.5261 233.118 15.5308C233.22 15.5354 233.331 15.5377 233.452 15.5377H233.514C233.663 15.5377 233.804 15.5679 233.939 15.6282C234.073 15.6885 234.189 15.7696 234.286 15.8716C234.388 15.969 234.47 16.085 234.53 16.2195C234.59 16.354 234.62 16.4954 234.62 16.6438C234.62 16.7969 234.59 16.9406 234.53 17.0751C234.47 17.2096 234.388 17.3256 234.286 17.423C234.189 17.525 234.073 17.6038 233.939 17.6595C233.804 17.7151 233.663 17.743 233.514 17.743ZM233.197 16.6508C233.197 16.5024 233.227 16.3609 233.288 16.2264C233.343 16.0919 233.422 15.976 233.524 15.8786C233.621 15.7766 233.737 15.6954 233.872 15.6351C234.006 15.5748 234.15 15.5447 234.303 15.5447H235.576C236.086 15.5447 236.636 15.496 237.225 15.3986C237.814 15.2966 238.403 15.1644 238.992 15.0021C239.586 14.8398 240.158 14.6589 240.71 14.4595C241.267 14.2554 241.765 14.049 242.206 13.8403C241.918 13.7708 241.598 13.6734 241.246 13.5482C240.893 13.423 240.536 13.3001 240.174 13.1795C239.813 13.0589 239.46 12.9569 239.117 12.8734C238.779 12.7853 238.475 12.7435 238.206 12.7482C238.034 12.7528 237.867 12.7899 237.705 12.8595C237.547 12.9244 237.399 13.0079 237.26 13.1099C237.125 13.2073 237.002 13.314 236.891 13.4299C236.784 13.5412 236.692 13.6479 236.613 13.7499C236.534 13.8473 236.471 13.9308 236.425 14.0003C236.383 14.0653 236.362 14.0977 236.362 14.0977L234.714 13.1516C234.899 12.8085 235.122 12.4792 235.381 12.1638C235.641 11.8438 235.924 11.5632 236.23 11.3221C236.536 11.0763 236.856 10.8815 237.19 10.7377C237.529 10.594 237.867 10.5244 238.206 10.529C238.456 10.5337 238.704 10.5638 238.95 10.6195C239.201 10.6751 239.451 10.747 239.701 10.8351C239.952 10.9186 240.205 11.0183 240.46 11.1343C240.715 11.2456 240.972 11.3615 241.232 11.4821C241.496 11.6119 241.788 11.7395 242.108 11.8647C242.433 11.9899 242.769 12.1012 243.117 12.1986C243.47 12.296 243.827 12.3748 244.188 12.4351C244.555 12.4954 244.912 12.5256 245.26 12.5256L244.898 14.5777C244.791 14.6241 244.671 14.6798 244.536 14.7447C244.406 14.805 244.29 14.8606 244.188 14.9116L244.008 15.0021C244.114 15.1273 244.249 15.227 244.411 15.3012C244.578 15.3754 244.747 15.4311 244.919 15.4682C245.095 15.5006 245.262 15.5215 245.42 15.5308C245.582 15.5401 245.71 15.5447 245.802 15.5447H245.9C246.053 15.5447 246.197 15.5748 246.331 15.6351C246.466 15.6954 246.581 15.7766 246.679 15.8786C246.781 15.976 246.86 16.0919 246.915 16.2264C246.976 16.3609 247.006 16.5024 247.006 16.6508C247.006 16.8038 246.976 16.9476 246.915 17.0821C246.86 17.2166 246.781 17.3325 246.679 17.4299C246.581 17.5273 246.466 17.6038 246.331 17.6595C246.197 17.7151 246.053 17.743 245.9 17.743H245.802C245.357 17.743 244.937 17.7035 244.543 17.6247C244.154 17.5459 243.797 17.4322 243.472 17.2838C243.152 17.1308 242.867 16.9476 242.616 16.7343C242.366 16.5163 242.159 16.2705 241.997 15.9969C241.538 16.2195 241.06 16.4374 240.564 16.6508C240.068 16.8595 239.553 17.045 239.02 17.2073C238.486 17.3696 237.932 17.4995 237.357 17.5969C236.787 17.6989 236.193 17.7499 235.576 17.7499L234.303 17.743C234.15 17.743 234.006 17.7151 233.872 17.6595C233.737 17.6038 233.621 17.5273 233.524 17.4299C233.422 17.3325 233.343 17.2166 233.288 17.0821C233.227 16.9476 233.197 16.8038 233.197 16.6508ZM238.171 6.84208L239.715 8.38643L238.171 9.93078L236.627 8.38643L238.171 6.84208ZM245.565 16.6438C245.565 16.4908 245.593 16.347 245.648 16.2125C245.704 16.078 245.783 15.9621 245.885 15.8647C245.982 15.7627 246.098 15.6838 246.233 15.6282C246.367 15.5725 246.511 15.5447 246.664 15.5447H247.193C247.526 15.5447 247.846 15.5308 248.153 15.503C248.463 15.4751 248.737 15.4172 248.973 15.329C249.21 15.2363 249.4 15.1087 249.544 14.9464C249.692 14.7795 249.771 14.5592 249.78 14.2856C249.785 14.1835 249.785 14.1001 249.78 14.0351C249.78 13.9656 249.769 13.8844 249.746 13.7916C249.722 13.6943 249.688 13.569 249.641 13.416C249.6 13.2583 249.539 13.038 249.46 12.7551L251.485 12.1847C251.573 12.4073 251.654 12.7018 251.728 13.0682C251.802 13.4345 251.858 13.8357 251.895 14.2716C251.904 14.4108 251.921 14.5545 251.944 14.703C251.967 14.8514 252.004 14.9882 252.055 15.1134C252.111 15.2386 252.185 15.343 252.278 15.4264C252.371 15.5053 252.491 15.5447 252.64 15.5447C252.793 15.5447 252.936 15.5725 253.071 15.6282C253.205 15.6838 253.321 15.7627 253.419 15.8647C253.521 15.9621 253.6 16.078 253.655 16.2125C253.715 16.347 253.746 16.4908 253.746 16.6438C253.746 16.7969 253.715 16.9406 253.655 17.0751C253.6 17.2096 253.521 17.3256 253.419 17.423C253.317 17.525 253.198 17.6038 253.064 17.6595C252.934 17.7151 252.795 17.743 252.646 17.743C252.201 17.743 251.819 17.6734 251.499 17.5343C251.183 17.3998 250.912 17.2235 250.685 17.0056C250.476 17.1447 250.235 17.2606 249.961 17.3534C249.692 17.4461 249.405 17.5203 249.099 17.576C248.793 17.6363 248.477 17.678 248.153 17.7012C247.828 17.729 247.508 17.743 247.193 17.743H246.664C246.511 17.743 246.367 17.7151 246.233 17.6595C246.098 17.6038 245.982 17.525 245.885 17.423C245.783 17.3256 245.704 17.2096 245.648 17.0751C245.593 16.9406 245.565 16.7969 245.565 16.6438ZM252.473 9.93774L251.137 11.2803L249.815 9.9586L248.507 11.2664L247.158 9.92382L248.493 8.58121L249.815 9.90295L251.123 8.59513L252.473 9.93774ZM252.412 16.6438C252.412 16.4908 252.442 16.347 252.502 16.2125C252.558 16.078 252.634 15.9621 252.732 15.8647C252.829 15.7627 252.945 15.6838 253.079 15.6282C253.214 15.5725 253.358 15.5447 253.511 15.5447H254.227H254.54C254.712 15.5447 254.89 15.5377 255.076 15.5238C255.266 15.5099 255.442 15.4821 255.605 15.4403C255.772 15.3986 255.918 15.3406 256.043 15.2664C256.173 15.1922 256.266 15.0925 256.321 14.9673C256.358 14.8838 256.377 14.7586 256.377 14.5916C256.377 14.4803 256.344 14.3134 256.279 14.0908C256.215 13.8682 256.129 13.6224 256.022 13.3534C255.915 13.0798 255.795 12.7945 255.66 12.4977C255.526 12.2009 255.389 11.9203 255.25 11.656L257.239 10.6682C257.369 10.9603 257.497 11.2711 257.622 11.6003C257.752 11.9296 257.868 12.2635 257.97 12.6021C258.072 12.9406 258.153 13.2792 258.213 13.6177C258.278 13.9516 258.311 14.2716 258.311 14.5777C258.311 15.0461 258.227 15.4751 258.06 15.8647C257.866 16.3006 257.599 16.6624 257.26 16.9499C256.922 17.2328 256.516 17.4415 256.043 17.576C255.765 17.6548 255.498 17.7012 255.243 17.7151C254.988 17.7337 254.749 17.743 254.526 17.743H253.573H253.511C253.358 17.743 253.214 17.7151 253.079 17.6595C252.945 17.6038 252.829 17.525 252.732 17.423C252.634 17.3256 252.558 17.2096 252.502 17.0751C252.442 16.9406 252.412 16.7969 252.412 16.6438ZM255.855 6.73773L257.399 8.28208L255.855 9.82643L254.311 8.28208L255.855 6.73773ZM260.142 17.7638C260.165 17.3835 260.189 16.9893 260.212 16.5812C260.235 16.1731 260.254 15.7696 260.267 15.3708C260.286 14.9719 260.298 14.5847 260.302 14.209C260.307 13.8334 260.302 13.4879 260.288 13.1725C260.26 12.514 260.233 11.9366 260.205 11.4403C260.182 10.9395 260.156 10.4966 260.128 10.1116C260.105 9.72672 260.08 9.39049 260.052 9.10295C260.029 8.81078 260.003 8.54411 259.975 8.30295C259.947 8.06179 259.917 7.83687 259.885 7.62817C259.852 7.41484 259.818 7.19455 259.78 6.9673L261.93 6.25774C262.032 6.87918 262.113 7.50527 262.174 8.136C262.238 8.76672 262.287 9.37194 262.32 9.95165C262.352 10.5267 262.373 11.0624 262.382 11.5586C262.396 12.0548 262.403 12.4792 262.403 12.8316C262.403 13.1516 262.401 13.4972 262.396 13.8682C262.396 14.2392 262.391 14.6241 262.382 15.023C262.378 15.4218 262.368 15.8253 262.354 16.2334C262.34 16.6415 262.32 17.0403 262.292 17.4299L260.142 17.7638Z" fill="#303030"/>
<line x1="263" y1="29.3256" x2="38.2075" y2="29.3256" stroke="url(#paint2_linear_2612_6711)" stroke-width="4"/>
<defs>
<linearGradient id="paint0_linear_2612_6711" x1="153.574" y1="15.797" x2="302.039" y2="15.797" gradientUnits="userSpaceOnUse">
<stop offset="0.344" stop-color="white"/>
<stop offset="0.959747" stop-color="white" stop-opacity="0"/>
</linearGradient>
<linearGradient id="paint1_linear_2612_6711" x1="148.426" y1="15.797" x2="-0.0391939" y2="15.797" gradientUnits="userSpaceOnUse">
<stop offset="0.303815" stop-color="white"/>
<stop offset="0.959747" stop-color="white" stop-opacity="0"/>
</linearGradient>
<linearGradient id="paint2_linear_2612_6711" x1="27" y1="27.2972" x2="281.5" y2="26.8256" gradientUnits="userSpaceOnUse">
<stop stop-color="white" stop-opacity="0.5"/>
<stop offset="0.266829" stop-color="#01BD62"/>
<stop offset="0.49661" stop-color="#00BD61"/>
<stop offset="0.729744" stop-color="#01BD61"/>
<stop offset="0.952926" stop-color="#F2F2F2" stop-opacity="0.5"/>
</linearGradient>
</defs>
</svg>
