<svg width="11" height="9" viewBox="0 0 11 9" fill="none" xmlns="http://www.w3.org/2000/svg">
<path d="M8.623 6.66792H8.16211V5.86052H8.70315C8.83865 5.86052 8.93026 5.85196 8.97797 5.83484C9.08103 5.7949 9.13256 5.70835 9.13256 5.57521C9.13256 5.3774 9.07053 5.15487 8.94648 4.9076L9.64211 4.63086C9.69173 4.82487 9.71654 5.01887 9.71654 5.21288C9.71654 5.63322 9.63161 5.97273 9.46176 6.23141C9.2671 6.52242 8.98751 6.66792 8.623 6.66792ZM9.31004 4.53386V3.79492H10.0457V4.53386H9.31004ZM8.35677 4.53386V3.79492H9.09248V4.53386H8.35677Z" fill="#A6A6A6"/>
<path d="M7.35427 5.90662C7.33901 5.80011 7.29034 5.70976 7.20828 5.63558C7.12049 5.5576 7.01552 5.51861 6.89338 5.51861C6.77124 5.51861 6.71017 5.57662 6.71017 5.69264C6.71017 5.72307 6.71876 5.7478 6.73594 5.76682C6.83518 5.87714 6.96972 5.9323 7.13957 5.9323C7.20828 5.9323 7.27984 5.92374 7.35427 5.90662ZM7.84665 5.86097H8.26747V6.66838H7.79799C7.67585 7.17051 7.42489 7.59847 7.04511 7.95224C6.65006 8.31743 6.22161 8.50002 5.75977 8.50002L5.86855 7.69832C6.20062 7.69832 6.50692 7.5804 6.78747 7.34455C7.05465 7.12011 7.18824 6.88901 7.18824 6.65126C7.1558 6.65506 7.1224 6.65697 7.08805 6.65697C6.85903 6.65697 6.66151 6.60751 6.49547 6.50861C6.29127 6.38688 6.18917 6.21094 6.18917 5.9808C6.18917 5.68979 6.2865 5.42446 6.48116 5.1848C6.66437 4.96036 6.84758 4.84814 7.03079 4.84814C7.21782 4.84814 7.38481 4.92708 7.53176 5.08495C7.70352 5.26944 7.80849 5.52812 7.84665 5.86097Z" fill="#A6A6A6"/>
<path d="M4.68849 5.7553C4.68849 5.68302 4.63792 5.60504 4.53677 5.52135C4.44516 5.44717 4.35165 5.39581 4.25623 5.36728L4.08447 5.81521C4.20851 5.88939 4.33447 5.92648 4.46234 5.92648C4.61311 5.92648 4.68849 5.86942 4.68849 5.7553ZM5.32973 6.02919C5.26293 6.5085 5.00147 6.74815 4.54536 6.74815C4.4652 6.74815 4.38218 6.73864 4.2963 6.71962C4.11118 6.68158 3.98618 6.62737 3.92129 6.557C3.87549 6.50564 3.83828 6.40864 3.80965 6.26599C3.55201 6.53417 3.28483 6.66827 3.0081 6.66827H2.85352V5.86086H3.01669C3.27624 5.86086 3.44991 5.77717 3.53769 5.60979C3.58159 5.5242 3.63598 5.37109 3.70087 5.15045C3.76003 4.95645 3.81633 4.8214 3.86976 4.74532C3.94992 4.6293 4.06061 4.57129 4.20183 4.57129C4.40986 4.57129 4.64555 4.70728 4.90892 4.97927C5.19709 5.27789 5.34118 5.58602 5.34118 5.90365C5.34118 5.9455 5.33736 5.98734 5.32973 6.02919Z" fill="#A6A6A6"/>
<path d="M3.005 6.66825H1.13281V5.86084H3.005V6.66825Z" fill="#A6A6A6"/>
<path d="M1.3111 5.86075V6.66816H0.936094C0.573489 6.66816 0.317757 6.53977 0.168898 6.283C0.0562992 6.08709 0 5.78847 0 5.38715C0 5.29204 0.00286267 5.17887 0.00858802 5.04764C0.0429401 4.33057 0.11737 3.68579 0.231877 3.11328L0.933231 3.33011C0.797732 3.94827 0.716622 4.4989 0.689904 4.98202C0.68227 5.13418 0.678454 5.24925 0.678454 5.32723C0.678454 5.52504 0.704218 5.66104 0.755746 5.73522C0.811091 5.8189 0.915101 5.86075 1.06778 5.86075H1.3111Z" fill="#A6A6A6"/>
<path d="M5.0627 2.71845C4.97109 3.19966 4.70009 3.60289 4.2497 3.92813C3.81266 4.24006 3.32887 4.39603 2.79832 4.39603C2.26968 4.39603 1.84601 4.26194 1.5273 3.99375C1.22004 3.73508 1.06641 3.40127 1.06641 2.99234C1.06641 2.59862 1.25916 2.20205 1.64467 1.80263C1.98437 1.44885 2.42904 1.13597 2.97867 0.86398V1.64856C2.6695 1.76839 2.37656 1.93957 2.09983 2.16211C1.76967 2.42459 1.60459 2.66139 1.60459 2.87251C1.60459 3.07793 1.73341 3.24341 1.99105 3.36894C2.23915 3.49067 2.54927 3.55153 2.92142 3.55153C3.39471 3.55153 3.78308 3.45073 4.08653 3.24911C4.41478 3.03038 4.57891 2.72891 4.57891 2.3447C4.57891 2.02897 4.47108 1.68185 4.25542 1.30335L4.94819 1.08366C5.06842 1.34995 5.12854 1.67139 5.12854 2.04799C5.12854 2.27243 5.10659 2.49591 5.0627 2.71845ZM3.42811 0.738446V-0.000488281H4.16382V0.738446H3.42811Z" fill="#A6A6A6"/>
</svg>
