<svg width="16" height="15" viewBox="0 0 16 15" fill="none" xmlns="http://www.w3.org/2000/svg">
<path d="M13.7341 11.4827H13V10.1529H13.8618C14.0776 10.1529 14.2235 10.1388 14.2995 10.1106C14.4636 10.0448 14.5457 9.90227 14.5457 9.68299C14.5457 9.35719 14.4469 8.99068 14.2493 8.58344L15.3573 8.12764C15.4363 8.44717 15.4758 8.7667 15.4758 9.08622C15.4758 9.77853 15.3406 10.3377 15.07 10.7637C14.76 11.243 14.3147 11.4827 13.7341 11.4827ZM14.8284 7.96788V6.75085H16.0002V7.96788H14.8284ZM13.3101 7.96788V6.75085H14.4819V7.96788H13.3101Z" fill="#A6A6A6"/>
<path d="M11.7135 10.2284C11.6892 10.053 11.6117 9.90418 11.481 9.78201C11.3411 9.65358 11.174 9.58936 10.9794 9.58936C10.7849 9.58936 10.6876 9.6849 10.6876 9.87599C10.6876 9.92611 10.7013 9.96684 10.7286 9.99816C10.8867 10.1799 11.101 10.2707 11.3715 10.2707C11.481 10.2707 11.595 10.2566 11.7135 10.2284ZM12.4977 10.1532H13.168V11.483H12.4202C12.2257 12.31 11.826 13.0149 11.2211 13.5975C10.5919 14.199 9.90944 14.4997 9.17383 14.4997L9.34709 13.1793C9.876 13.1793 10.3639 12.9851 10.8107 12.5967C11.2363 12.227 11.4491 11.8464 11.4491 11.4548C11.3974 11.4611 11.3442 11.4642 11.2895 11.4642C10.9247 11.4642 10.6101 11.3828 10.3456 11.2199C10.0204 11.0194 9.85776 10.7296 9.85776 10.3506C9.85776 9.87129 10.0128 9.43429 10.3228 9.03958C10.6147 8.66993 10.9065 8.48511 11.1983 8.48511C11.4962 8.48511 11.7621 8.61511 11.9962 8.87512C12.2698 9.17898 12.437 9.60502 12.4977 10.1532Z" fill="#A6A6A6"/>
<path d="M7.46956 9.9796C7.46956 9.86056 7.389 9.73212 7.2279 9.59429C7.08199 9.47211 6.93305 9.38753 6.78106 9.34054L6.50749 10.0783C6.70507 10.2004 6.90569 10.2615 7.10935 10.2615C7.34949 10.2615 7.46956 10.1676 7.46956 9.9796ZM8.4909 10.4307C8.38451 11.2201 7.96807 11.6148 7.24158 11.6148C7.11391 11.6148 6.98168 11.5992 6.8449 11.5678C6.55004 11.5052 6.35094 11.4159 6.24759 11.3C6.17464 11.2154 6.11537 11.0557 6.06977 10.8207C5.65941 11.2624 5.23385 11.4833 4.79309 11.4833H4.54688V10.1535H4.80677C5.22017 10.1535 5.49678 10.0156 5.63661 9.73995C5.70652 9.59898 5.79316 9.34681 5.89651 8.98342C5.99074 8.6639 6.08041 8.44148 6.16552 8.31618C6.29319 8.12509 6.46949 8.02954 6.69443 8.02954C7.02576 8.02954 7.40116 8.25352 7.82064 8.70149C8.27964 9.19331 8.50914 9.70079 8.50914 10.2239C8.50914 10.2929 8.50306 10.3618 8.4909 10.4307Z" fill="#A6A6A6"/>
<path d="M4.7886 11.4829H1.80664V10.1531H4.7886V11.4829Z" fill="#A6A6A6"/>
<path d="M2.08828 10.1531V11.4829H1.49098C0.913433 11.4829 0.506112 11.2715 0.269014 10.8486C0.0896714 10.5259 0 10.0341 0 9.3731C0 9.21647 0.00455956 9.03008 0.0136787 8.81393C0.0683935 7.63293 0.186942 6.57097 0.369325 5.62805L1.48642 5.98517C1.2706 7.00327 1.14141 7.91017 1.09885 8.70585C1.0867 8.95646 1.08062 9.14598 1.08062 9.27442C1.08062 9.60021 1.12165 9.8242 1.20372 9.94637C1.29188 10.0842 1.45754 10.1531 1.70072 10.1531H2.08828Z" fill="#A6A6A6"/>
<path d="M8.06242 4.97808C7.91651 5.77063 7.48487 6.43475 6.7675 6.97043C6.07141 7.48418 5.30084 7.74105 4.4558 7.74105C3.6138 7.74105 2.93899 7.5202 2.43136 7.0785C1.94196 6.65247 1.69727 6.10269 1.69727 5.42918C1.69727 4.78073 2.00428 4.12757 2.6183 3.46972C3.15937 2.88706 3.86762 2.37174 4.74305 1.92378V3.21598C4.25062 3.41334 3.78403 3.69527 3.34327 4.06179C2.8174 4.49409 2.55446 4.8841 2.55446 5.23182C2.55446 5.57015 2.75964 5.84268 3.17 6.04944C3.56517 6.24993 4.05912 6.35017 4.65186 6.35017C5.40571 6.35017 6.02429 6.18414 6.50761 5.85208C7.03044 5.49183 7.29185 4.99531 7.29185 4.36252C7.29185 3.84251 7.12011 3.2708 6.77662 2.64741L7.88003 2.28559C8.07154 2.72416 8.16729 3.25357 8.16729 3.87383C8.16729 4.24348 8.13233 4.61156 8.06242 4.97808ZM5.45891 1.71702V0.5H6.63071V1.71702H5.45891Z" fill="#A6A6A6"/>
</svg>
