<svg width="62" height="23" viewBox="0 0 62 23" fill="none" xmlns="http://www.w3.org/2000/svg">
<path d="M14.7549 9.20898C14.7549 7.57617 14.4362 4.98372 13.7988 1.43164L16.4521 0.615234C16.9391 3.29362 17.1826 5.71061 17.1826 7.86621C17.1826 9.44173 17.1719 10.319 17.1504 10.498C17.2721 10.8132 17.5586 10.9707 18.0098 10.9707H18.8047V14H18.1387C17.623 14 17.1647 13.7852 16.7637 13.3555C16.6348 13.8711 16.4987 14.3366 16.3555 14.752C15.8255 16.2415 14.8301 17.4948 13.3691 18.5117C11.8223 19.5788 10.1071 20.1123 8.22363 20.1123C6.23991 20.1123 4.65007 19.6074 3.4541 18.5977C2.30111 17.6237 1.72461 16.3669 1.72461 14.8271C1.72461 13.2946 2.46582 11.7835 3.94824 10.2939C5.2015 9.02637 6.88444 7.86621 8.99707 6.81348V9.76758C7.82259 10.2259 6.70898 10.8704 5.65625 11.7012C4.38151 12.6895 3.74414 13.5811 3.74414 14.376C3.74414 15.1494 4.22754 15.7725 5.19434 16.2451C6.12533 16.7035 7.28906 16.9326 8.68555 16.9326C10.1751 16.9326 11.3496 16.7249 12.209 16.3096C12.7246 16.0589 13.2546 15.6292 13.7988 15.0205C14.4362 14.3115 14.7549 12.3743 14.7549 9.20898ZM25.2607 14H18.2354V10.96H25.2607V14ZM28.666 10.0684C28.666 9.27344 27.6921 7.54753 25.7441 4.89062L27.3662 2.05469L33.8867 0.464844V3.32227L28.8379 4.67578C29.2174 5.17708 29.6185 5.8431 30.041 6.67383C30.6283 7.82682 30.9219 8.74349 30.9219 9.42383C30.9219 12.4746 29.6758 14 27.1836 14H24.6914V10.96H27.4307C27.7458 10.96 28.0286 10.8776 28.2793 10.7129C28.5371 10.541 28.666 10.3262 28.666 10.0684Z" fill="url(#paint0_linear_1751_2797)"/>
<path d="M23.082 18H17.334V15.5127H23.082V18ZM28.2324 18H22.4844V15.5127H28.2324V18ZM33.3828 18H27.6348V15.5127H33.3828V18ZM37.9971 18C37.71 18 37.4814 17.9121 37.3115 17.7363C37.2119 17.6367 37.1182 17.4785 37.0303 17.2617C36.96 17.0859 36.9014 16.998 36.8545 16.998C36.8369 16.998 36.6611 17.165 36.3271 17.499C35.9932 17.833 35.665 18 35.3428 18H32.917V15.5127H35C35.7793 15.5127 36.4678 14.6514 37.0654 12.9287L38.8936 13.7812C38.8818 13.8457 38.7559 14.0684 38.5156 14.4492C38.2812 14.8301 38.1641 15.0967 38.1641 15.249C38.1641 15.4248 38.29 15.5127 38.542 15.5127H40.3174V18H37.9971ZM36.6963 11.4258V9.14941H38.9551V11.4258H36.6963ZM33.7695 11.4258V9.14941H36.0283V11.4258H33.7695ZM45.5996 15.1875C45.5996 14.9648 45.4443 14.7246 45.1338 14.4668C44.8525 14.2383 44.5654 14.0801 44.2725 13.9922L43.7451 15.3721C44.1201 15.6006 44.5039 15.7148 44.8965 15.7148C45.3652 15.7148 45.5996 15.5391 45.5996 15.1875ZM42.0664 14.7393C42.2012 14.4756 42.3682 14.0039 42.5674 13.3242C42.749 12.7266 42.9219 12.3105 43.0859 12.0762C43.332 11.7188 43.6719 11.54 44.1055 11.54C44.7207 11.54 45.4443 11.9414 46.2764 12.7441C47.1377 13.5879 47.5684 14.3818 47.5684 15.126C47.6328 15.3838 47.8408 15.5127 48.1924 15.5127H48.7988V18H48.3682C48.1104 18 47.8672 17.8945 47.6387 17.6836C47.416 17.4727 47.2725 17.2324 47.208 16.9629C46.8447 17.3848 46.4404 17.6865 45.9951 17.8682C45.5967 18.0322 45.0576 18.1377 44.3779 18.1846C43.8213 18.2256 43.4346 18.0996 43.2178 17.8066C43.1006 17.6367 42.9951 17.2881 42.9014 16.7607C42.1104 17.5869 41.29 18 40.4404 18H39.9658V15.5127H40.4668C41.2637 15.5127 41.7969 15.2549 42.0664 14.7393ZM53.5361 18C53.249 18 53.0205 17.9121 52.8506 17.7363C52.751 17.6367 52.6572 17.4785 52.5693 17.2617C52.499 17.0859 52.4404 16.998 52.3936 16.998C52.376 16.998 52.2002 17.165 51.8662 17.499C51.5322 17.833 51.2041 18 50.8818 18H48.4561V15.5127H50.5391C51.3184 15.5127 52.0068 14.6514 52.6045 12.9287L54.4326 13.7812C54.4209 13.8457 54.2949 14.0684 54.0547 14.4492C53.8203 14.8301 53.7031 15.0967 53.7031 15.249C53.7031 15.4248 53.8291 15.5127 54.0811 15.5127H55.8564V18H53.5361ZM51.7432 21.4541V19.1777H54.002V21.4541H51.7432ZM48.8164 21.4541V19.1777H51.0752V21.4541H48.8164ZM59.6094 12.7881C59.5625 12.46 59.4131 12.1816 59.1611 11.9531C58.8916 11.7129 58.5723 11.5928 58.2031 11.5928C57.8164 11.5928 57.623 11.7686 57.623 12.1201C57.623 12.208 57.6523 12.2871 57.7109 12.3574C58.0215 12.7207 58.4023 12.9023 58.8535 12.9023C59.0586 12.9023 59.3105 12.8643 59.6094 12.7881ZM59.3193 15.0205C59.0615 15.0615 58.8125 15.082 58.5723 15.082C57.8516 15.082 57.2715 14.9033 56.832 14.5459C56.375 14.1709 56.1465 13.6582 56.1465 13.0078C56.1465 12.1055 56.3896 11.291 56.876 10.5645C57.3682 9.83203 57.9277 9.46582 58.5547 9.46582C59.4453 9.46582 60.1631 9.9873 60.708 11.0303C61.1416 11.8682 61.3584 12.7412 61.3584 13.6494C61.3584 14.8975 60.9453 15.9346 60.1191 16.7607C59.2988 17.5869 58.2559 18 56.9902 18H55.5049V15.5127H57.2803C58.001 15.5127 58.4229 15.5039 58.5459 15.4863C58.9971 15.4336 59.2549 15.2783 59.3193 15.0205ZM58.8623 8.61328V6.33691H61.1211V8.61328H58.8623ZM55.9355 8.61328V6.33691H58.1943V8.61328H55.9355Z" fill="url(#paint1_linear_1751_2797)"/>
<defs>
<linearGradient id="paint0_linear_1751_2797" x1="14.45" y1="1.88" x2="23.9175" y2="24.0887" gradientUnits="userSpaceOnUse">
<stop stop-color="#4C8CED"/>
<stop offset="1" stop-color="#38D065"/>
</linearGradient>
<linearGradient id="paint1_linear_1751_2797" x1="62.0002" y1="7.00001" x2="18.5568" y2="22.4817" gradientUnits="userSpaceOnUse">
<stop stop-color="#4C8CED"/>
<stop offset="1" stop-color="#38D065"/>
</linearGradient>
</defs>
</svg>
