<svg width="22" height="26" viewBox="0 0 22 26" fill="none" xmlns="http://www.w3.org/2000/svg">
<path d="M20.9989 2.00098C21.5512 2.00098 21.9989 1.55326 21.9989 1.00098C21.9989 0.448692 21.5512 0.000976562 20.9989 0.000976562V2.00098ZM1.00195 0.000976562C0.449668 0.000976562 0.00195312 0.448692 0.00195312 1.00098C0.00195312 1.55326 0.449668 2.00098 1.00195 2.00098V0.000976562ZM16.0386 25.7389C16.4457 26.112 17.0783 26.0845 17.4515 25.6774C17.8246 25.2702 17.7971 24.6377 17.39 24.2645L16.0386 25.7389ZM11.6757 19.0268C11.2686 18.6536 10.636 18.6811 10.2628 19.0882C9.88964 19.4954 9.91717 20.1279 10.3243 20.5011L11.6757 19.0268ZM4.61522 24.2649C4.20814 24.6382 4.18069 25.2707 4.55392 25.6778C4.92715 26.0849 5.55972 26.1124 5.96681 25.7391L4.61522 24.2649ZM11.6811 20.5001C12.0882 20.1268 12.1156 19.4943 11.7424 19.0872C11.3692 18.6801 10.7366 18.6526 10.3295 19.0259L11.6811 20.5001ZM11 19.7599L11.0002 18.7599H11V19.7599ZM5.65365 19.7599L5.6291 20.7596C5.63728 20.7598 5.64547 20.7599 5.65365 20.7599V19.7599ZM1.00151 15.1902L2.00116 15.2165C2.00139 15.2078 2.00151 15.199 2.00151 15.1902H1.00151ZM1.00151 8.33105H2.00151C2.00151 8.32218 2.00139 8.3133 2.00115 8.30443L1.00151 8.33105ZM5.65365 3.76004V2.76004C5.64547 2.76004 5.63729 2.76014 5.62911 2.76034L5.65365 3.76004ZM16.3449 3.76004L16.3691 2.76034C16.3611 2.76014 16.353 2.76004 16.3449 2.76004V3.76004ZM20.9985 8.33105L19.9988 8.30444C19.9986 8.31331 19.9985 8.32218 19.9985 8.33105H20.9985ZM20.9985 15.1889H19.9985C19.9985 15.1979 19.9986 15.2069 19.9988 15.2158L20.9985 15.1889ZM16.3463 19.7612L16.3461 20.7612C16.3543 20.7613 16.3626 20.7612 16.3708 20.7609L16.3463 19.7612ZM20.9989 0.000976562H1.00195V2.00098H20.9989V0.000976562ZM17.39 24.2645L11.6757 19.0268L10.3243 20.5011L16.0386 25.7389L17.39 24.2645ZM5.96681 25.7391L11.6811 20.5001L10.3295 19.0259L4.61522 24.2649L5.96681 25.7391ZM11 18.7599H5.65365V20.7599H11V18.7599ZM5.67821 18.7602C3.52971 18.7075 1.95265 17.0604 2.00116 15.2165L0.00185156 15.1639C-0.0790987 18.2408 2.5069 20.6829 5.6291 20.7596L5.67821 18.7602ZM2.00151 15.1902V8.33105H0.00150567V15.1902H2.00151ZM2.00115 8.30443C1.95204 6.46024 3.52922 4.8125 5.6782 4.75974L5.62911 2.76034C2.50624 2.83701 -0.0800933 5.28018 0.00186002 8.35767L2.00115 8.30443ZM5.65365 4.76004H16.3449V2.76004H5.65365V4.76004ZM16.3206 4.75975C18.4701 4.81192 20.0479 6.45987 19.9988 8.30444L21.9981 8.35766C22.08 5.27953 19.4927 2.83615 16.3691 2.76034L16.3206 4.75975ZM19.9985 8.33105V15.1889H21.9985V8.33105H19.9985ZM19.9988 15.2158C20.0485 17.0604 18.4712 18.7088 16.3218 18.7615L16.3708 20.7609C19.4944 20.6843 22.0811 18.2401 21.9981 15.162L19.9988 15.2158ZM16.3466 18.7612L11.0002 18.7599L10.9997 20.7599L16.3461 20.7612L16.3466 18.7612Z" fill="url(#paint0_linear_4261_18229)"/>
<defs>
<linearGradient id="paint0_linear_4261_18229" x1="11" y1="1.00098" x2="11" y2="25.002" gradientUnits="userSpaceOnUse">
<stop stop-color="#A7CF88"/>
<stop offset="1" stop-color="#303030"/>
</linearGradient>
</defs>
</svg>
