<svg width="24" height="25" viewBox="0 0 24 25" fill="none" xmlns="http://www.w3.org/2000/svg">
<path d="M18.1394 22.1198C17.2594 22.3798 16.2194 22.4998 14.9994 22.4998H8.99937C7.77937 22.4998 6.73937 22.3798 5.85938 22.1198C6.07937 19.5198 8.74937 17.4697 11.9994 17.4697C15.2494 17.4697 17.9194 19.5198 18.1394 22.1198Z" stroke="url(#paint0_linear_5172_12836)" stroke-width="1.5" stroke-linecap="round" stroke-linejoin="round"/>
<path d="M15 2.5H9C4 2.5 2 4.5 2 9.5V15.5C2 19.28 3.14 21.35 5.86 22.12C6.08 19.52 8.75 17.47 12 17.47C15.25 17.47 17.92 19.52 18.14 22.12C20.86 21.35 22 19.28 22 15.5V9.5C22 4.5 20 2.5 15 2.5ZM12 14.67C10.02 14.67 8.42 13.06 8.42 11.08C8.42 9.10002 10.02 7.5 12 7.5C13.98 7.5 15.58 9.10002 15.58 11.08C15.58 13.06 13.98 14.67 12 14.67Z" stroke="url(#paint1_linear_5172_12836)" stroke-width="1.5" stroke-linecap="round" stroke-linejoin="round"/>
<path d="M15.5799 11.08C15.5799 13.06 13.9799 14.67 11.9999 14.67C10.0199 14.67 8.41992 13.06 8.41992 11.08C8.41992 9.10002 10.0199 7.5 11.9999 7.5C13.9799 7.5 15.5799 9.10002 15.5799 11.08Z" stroke="url(#paint2_linear_5172_12836)" stroke-width="1.5" stroke-linecap="round" stroke-linejoin="round"/>
<defs>
<linearGradient id="paint0_linear_5172_12836" x1="11.9994" y1="17.4697" x2="11.9994" y2="22.4998" gradientUnits="userSpaceOnUse">
<stop stop-color="#FF9900"/>
<stop offset="1" stop-color="#636363"/>
</linearGradient>
<linearGradient id="paint1_linear_5172_12836" x1="12" y1="2.5" x2="12" y2="22.12" gradientUnits="userSpaceOnUse">
<stop stop-color="#FF9900"/>
<stop offset="1" stop-color="#636363"/>
</linearGradient>
<linearGradient id="paint2_linear_5172_12836" x1="11.9999" y1="7.5" x2="11.9999" y2="14.67" gradientUnits="userSpaceOnUse">
<stop stop-color="#FF9900"/>
<stop offset="1" stop-color="#636363"/>
</linearGradient>
</defs>
</svg>
