<svg width="17" height="14" viewBox="0 0 17 14" fill="none" xmlns="http://www.w3.org/2000/svg">
<path d="M16.5538 6.43833C16.9615 6.06572 16.9899 5.4332 16.6173 5.02554C16.2447 4.61788 15.6121 4.58946 15.2045 4.96206L16.5538 6.43833ZM8.43957 12.5L7.76492 13.2381C8.14692 13.5873 8.73222 13.5873 9.11423 13.2381L8.43957 12.5ZM1.67466 4.96206C1.267 4.58946 0.63447 4.61788 0.261868 5.02554C-0.110735 5.4332 -0.0823156 6.06572 0.325344 6.43833L1.67466 4.96206ZM15.315 1.9051C15.7227 1.53249 15.7511 0.899963 15.3785 0.492315C15.0059 0.0846656 14.3733 0.0562652 13.9657 0.428879L15.315 1.9051ZM8.44108 6.8335L7.7664 7.57161C8.14842 7.92079 8.73374 7.92079 9.11576 7.57161L8.44108 6.8335ZM2.91647 0.42888C2.50882 0.0562658 1.87629 0.0846662 1.50368 0.492315C1.13106 0.899963 1.15946 1.53249 1.56711 1.90511L2.91647 0.42888ZM15.2045 4.96206L7.76492 11.7619L9.11423 13.2381L16.5538 6.43833L15.2045 4.96206ZM9.11423 11.7619L1.67466 4.96206L0.325344 6.43833L7.76492 13.2381L9.11423 11.7619ZM13.9657 0.428879L7.7664 6.09538L9.11576 7.57161L15.315 1.9051L13.9657 0.428879ZM9.11576 6.09538L2.91647 0.42888L1.56711 1.90511L7.7664 7.57161L9.11576 6.09538Z" fill="url(#paint0_linear_566_7283)"/>
<defs>
<linearGradient id="paint0_linear_566_7283" x1="1" y1="6.8335" x2="15.8791" y2="6.8335" gradientUnits="userSpaceOnUse">
<stop stop-color="#4C8CED"/>
<stop offset="1" stop-color="#38D165"/>
</linearGradient>
</defs>
</svg>
