<svg width="26" height="26" viewBox="0 0 26 26" fill="none" xmlns="http://www.w3.org/2000/svg">
<path fill-rule="evenodd" clip-rule="evenodd" d="M6.79082 19.6712C3.80951 16.6894 3.34965 12.0169 5.69247 8.51117C8.0353 5.0054 12.5283 3.64276 16.4238 5.25659C20.3192 6.87041 22.5322 11.0112 21.7094 15.1467C20.8865 19.2822 17.257 22.2605 13.0405 22.2603C10.6963 22.2602 8.44825 21.3289 6.79082 19.6712Z" fill="white" stroke="#CF2E2E" stroke-width="2" stroke-linecap="round" stroke-linejoin="round"/>
<path d="M9.58202 15.4624C9.1915 15.8529 9.1915 16.4861 9.58202 16.8766C9.97255 17.2671 10.6057 17.2671 10.9962 16.8766L9.58202 15.4624ZM13.7457 14.1271C14.1362 13.7366 14.1362 13.1034 13.7457 12.7129C13.3552 12.3224 12.722 12.3224 12.3315 12.7129L13.7457 14.1271ZM12.336 12.7127C11.9455 13.1032 11.9455 13.7364 12.336 14.1269C12.7266 14.5175 13.3597 14.5175 13.7502 14.1269L12.336 12.7127ZM16.4997 11.3774C16.8903 10.9869 16.8903 10.3538 16.4997 9.96324C16.1092 9.57271 15.476 9.57271 15.0855 9.96324L16.4997 11.3774ZM13.7503 12.7134C13.3597 12.3229 12.7266 12.3229 12.336 12.7134C11.9455 13.1039 11.9455 13.7371 12.336 14.1276L13.7503 12.7134ZM15.0855 16.8771C15.476 17.2676 16.1092 17.2676 16.4997 16.8771C16.8902 16.4865 16.8902 15.8534 16.4997 15.4628L15.0855 16.8771ZM12.3336 14.1277C12.7242 14.5182 13.3573 14.5182 13.7479 14.1277C14.1384 13.7371 14.1384 13.104 13.7479 12.7134L12.3336 14.1277ZM10.9984 9.96399C10.6079 9.57347 9.97472 9.57347 9.5842 9.96399C9.19367 10.3545 9.19367 10.9877 9.5842 11.3782L10.9984 9.96399ZM10.9962 16.8766L13.7457 14.1271L12.3315 12.7129L9.58202 15.4624L10.9962 16.8766ZM13.7502 14.1269L16.4997 11.3774L15.0855 9.96324L12.336 12.7127L13.7502 14.1269ZM12.336 14.1276L15.0855 16.8771L16.4997 15.4628L13.7503 12.7134L12.336 14.1276ZM13.7479 12.7134L10.9984 9.96399L9.5842 11.3782L12.3336 14.1277L13.7479 12.7134Z" fill="#CF2E2E"/>
</svg>
