<svg width="24" height="24" viewBox="0 0 24 24" fill="none" xmlns="http://www.w3.org/2000/svg">
<path d="M1.23223 19.2322C0.255922 20.2085 0.255922 21.7915 1.23223 22.7678C2.20854 23.7441 3.79146 23.7441 4.76777 22.7678L1.23223 19.2322ZM13.7678 13.7678C14.7441 12.7915 14.7441 11.2085 13.7678 10.2322C12.7915 9.25592 11.2085 9.25592 10.2322 10.2322L13.7678 13.7678ZM10.2322 10.2322C9.25592 11.2085 9.25592 12.7915 10.2322 13.7678C11.2085 14.7441 12.7915 14.7441 13.7678 13.7678L10.2322 10.2322ZM22.7678 4.76777C23.7441 3.79146 23.7441 2.20854 22.7678 1.23223C21.7915 0.255922 20.2085 0.255922 19.2322 1.23223L22.7678 4.76777ZM13.7678 10.2322C12.7915 9.25592 11.2085 9.25592 10.2322 10.2322C9.25592 11.2085 9.25592 12.7915 10.2322 13.7678L13.7678 10.2322ZM19.2322 22.7678C20.2085 23.7441 21.7915 23.7441 22.7678 22.7678C23.7441 21.7915 23.7441 20.2085 22.7678 19.2322L19.2322 22.7678ZM10.2322 13.7678C11.2085 14.7441 12.7915 14.7441 13.7678 13.7678C14.7441 12.7915 14.7441 11.2085 13.7678 10.2322L10.2322 13.7678ZM4.76777 1.23223C3.79146 0.255922 2.20854 0.255922 1.23223 1.23223C0.255922 2.20854 0.255922 3.79146 1.23223 4.76777L4.76777 1.23223ZM4.76777 22.7678L13.7678 13.7678L10.2322 10.2322L1.23223 19.2322L4.76777 22.7678ZM13.7678 13.7678L22.7678 4.76777L19.2322 1.23223L10.2322 10.2322L13.7678 13.7678ZM10.2322 13.7678L19.2322 22.7678L22.7678 19.2322L13.7678 10.2322L10.2322 13.7678ZM13.7678 10.2322L4.76777 1.23223L1.23223 4.76777L10.2322 13.7678L13.7678 10.2322Z" fill="#303030"/>
</svg>
