<svg width="44" height="35" viewBox="0 0 44 35" fill="none" xmlns="http://www.w3.org/2000/svg">
<path fill-rule="evenodd" clip-rule="evenodd" d="M25.4924 5.66797H17.2901C16.9178 5.66797 16.5614 5.81831 16.3012 6.08432C15.342 7.06657 11.6766 10.8184 9.67472 12.8678C9.28603 13.2654 9.17386 13.8574 9.38963 14.37C9.6054 14.8825 10.1074 15.2159 10.6636 15.2159H20.6411C20.9636 15.2159 21.2253 14.9538 21.2253 14.6317C21.2253 14.3092 20.9636 14.0475 20.6411 14.0475H10.6636C10.5775 14.0475 10.5 13.9957 10.4665 13.9166C10.433 13.8372 10.4506 13.7457 10.5105 13.6841L17.137 6.90104C17.1772 6.85976 17.2325 6.83639 17.2901 6.83639H25.4924C25.8149 6.83639 26.0766 6.57466 26.0766 6.25218C26.0766 5.9297 25.8149 5.66797 25.4924 5.66797Z" fill="#E2E2E2"/>
<path fill-rule="evenodd" clip-rule="evenodd" d="M11.0451 34.208H22.9771C23.2995 34.208 23.5613 33.9463 23.5613 33.6238C23.5613 33.3013 23.2995 33.0396 22.9771 33.0396H11.0451C10.7231 33.0396 10.4609 33.3013 10.4609 33.6238C10.4609 33.9463 10.7231 34.208 11.0451 34.208ZM10.4609 14.6311V28.8847C10.4609 29.2071 10.7231 29.4689 11.0451 29.4689C11.3676 29.4689 11.6294 29.2071 11.6294 28.8847V14.6311C11.6294 14.3086 11.3676 14.0469 11.0451 14.0469C10.7231 14.0469 10.4609 14.3086 10.4609 14.6311ZM20.2118 21.4718C20.2118 20.6644 19.8909 19.8905 19.3203 19.3196C18.7493 18.749 17.9754 18.4281 17.1681 18.4281C17.14 18.4281 17.112 18.4281 17.0835 18.4281C16.2766 18.4281 15.5023 18.749 14.9317 19.3196C14.3607 19.8905 14.0402 20.6644 14.0402 21.4718C14.0402 23.0301 14.0402 24.9447 14.0402 26.0029C14.0402 26.7663 14.6591 27.3852 15.4224 27.3852H18.8296C19.5929 27.3852 20.2118 26.7663 20.2118 26.0029V21.4718ZM19.0434 21.4718V26.0029C19.0434 26.1209 18.9476 26.2168 18.8296 26.2168H15.4224C15.3044 26.2168 15.2086 26.1209 15.2086 26.0029V21.4718C15.2086 20.9744 15.4061 20.4973 15.7578 20.1456C16.1095 19.7939 16.5862 19.5965 17.0835 19.5965H17.1681C17.6654 19.5965 18.1425 19.7939 18.4942 20.1456C18.8455 20.4973 19.0434 20.9744 19.0434 21.4718Z" fill="#E2E2E2"/>
<path fill-rule="evenodd" clip-rule="evenodd" d="M14.6252 23.9375H19.6284C19.9509 23.9375 20.2126 23.6757 20.2126 23.3533C20.2126 23.0308 19.9509 22.769 19.6284 22.769H14.6252C14.3027 22.769 14.041 23.0308 14.041 23.3533C14.041 23.6757 14.3027 23.9375 14.6252 23.9375Z" fill="#E2E2E2"/>
<path fill-rule="evenodd" clip-rule="evenodd" d="M17.7114 26.2477V19.0125C17.7114 18.69 17.4497 18.4283 17.1272 18.4283C16.8047 18.4283 16.543 18.69 16.543 19.0125V26.2477C16.543 26.5702 16.8047 26.8319 17.1272 26.8319C17.4497 26.8319 17.7114 26.5702 17.7114 26.2477ZM22.9782 34.2082H40.4983C40.8208 34.2082 41.0825 33.9465 41.0825 33.624C41.0825 33.3015 40.8208 33.0398 40.4983 33.0398H22.9782C22.6558 33.0398 22.394 33.3015 22.394 33.624C22.394 33.9465 22.6558 34.2082 22.9782 34.2082ZM22.394 12.2878V27.5653C22.394 27.8878 22.6558 28.1495 22.9782 28.1495C23.3007 28.1495 23.5625 27.8878 23.5625 27.5653V12.2878C23.5625 11.9653 23.3007 11.7036 22.9782 11.7036C22.6558 11.7036 22.394 11.9653 22.394 12.2878ZM41.0825 19.5207V12.2878C41.0825 11.9653 40.8208 11.7036 40.4983 11.7036C40.1762 11.7036 39.9141 11.9653 39.9141 12.2878V19.5207C39.9141 19.8432 40.1762 20.105 40.4983 20.105C40.8208 20.105 41.0825 19.8432 41.0825 19.5207Z" fill="#E2E2E2"/>
<path opacity="0.3" fill-rule="evenodd" clip-rule="evenodd" d="M37.6126 24.4709C37.2263 25.1805 36.9961 26.0494 36.9961 26.988C36.9961 29.4705 38.614 31.4171 40.4975 31.4171C42.3813 31.4171 43.9992 29.4705 43.9992 26.988C43.9992 26.0498 43.769 25.1813 43.3842 24.4709C43.3842 24.4705 43.3839 24.4701 43.3835 24.4697C43.1478 24.037 43.0567 23.4972 43.1233 22.9718C43.1233 22.971 43.1237 22.9702 43.1237 22.9698C43.1439 22.8031 43.1548 22.6322 43.1548 22.4581C43.1548 20.5898 41.9151 19.1421 40.4975 19.1421C39.0798 19.1421 37.8405 20.5898 37.8405 22.4581C37.8405 22.6329 37.8514 22.8047 37.8732 22.9714C37.9398 23.4976 37.8487 24.0378 37.6126 24.4709ZM38.6389 25.0298C38.9863 24.3922 39.1304 23.5988 39.0323 22.8246C39.0323 22.8234 39.0319 22.8226 39.0319 22.8218C39.0163 22.7034 39.0089 22.5819 39.0089 22.4581C39.0089 21.7282 39.2644 21.075 39.6796 20.6739C39.9101 20.4511 40.1902 20.3105 40.4975 20.3105C40.8051 20.3105 41.0852 20.4511 41.3157 20.6739C41.7309 21.075 41.9864 21.7282 41.9864 22.4581C41.9864 22.5835 41.9786 22.7069 41.9638 22.8269C41.8661 23.5988 42.0102 24.3914 42.3576 25.029C42.6567 25.5805 42.8308 26.2578 42.8308 26.988C42.8308 28.0867 42.439 29.0667 41.8143 29.6707C41.4439 30.0283 40.9913 30.2487 40.4975 30.2487C40.004 30.2487 39.5514 30.0283 39.181 29.6707C38.5563 29.0667 38.1645 28.0867 38.1645 26.988C38.1645 26.2582 38.3386 25.5813 38.6389 25.0298Z" fill="#A6A6A6"/>
<path fill-rule="evenodd" clip-rule="evenodd" d="M39.9143 24.7702V33.6241C39.9143 33.9466 40.1764 34.2084 40.4985 34.2084C40.821 34.2084 41.0827 33.9466 41.0827 33.6241V24.7702C41.0827 24.4478 40.821 24.186 40.4985 24.186C40.1764 24.186 39.9143 24.4478 39.9143 24.7702ZM35.5066 33.6241V24.1864C35.5066 22.1783 33.8786 20.5503 31.8709 20.5503C31.7829 20.5503 31.6945 20.5503 31.6064 20.5503C29.5983 20.5503 27.9707 22.1783 27.9707 24.1864C27.9707 27.6562 27.9707 29.4455 27.9707 29.4455C27.9707 29.768 28.2324 30.0297 28.5549 30.0297C28.877 30.0297 29.1391 29.768 29.1391 29.4455V24.1864C29.1391 22.8236 30.2437 21.7191 31.6064 21.7187H31.8705C33.2337 21.7191 34.3382 22.8236 34.3382 24.1864V33.6241C34.3382 33.9466 34.5999 34.2084 34.9224 34.2084C35.2449 34.2084 35.5066 33.9466 35.5066 33.6241Z" fill="#E2E2E2"/>
<path fill-rule="evenodd" clip-rule="evenodd" d="M30.0456 25.988V26.9228C30.0456 27.2452 30.3074 27.507 30.6298 27.507C30.9523 27.507 31.2141 27.2452 31.2141 26.9228V25.988C31.2141 25.6655 30.9523 25.4038 30.6298 25.4038C30.3074 25.4038 30.0456 25.6655 30.0456 25.988ZM23.141 12.8721C23.497 12.8721 23.8394 12.735 24.0964 12.4889L31.5907 5.3206C31.6732 5.24154 31.8037 5.24154 31.8863 5.3206L39.3805 12.4889C39.6376 12.735 39.9799 12.8721 40.3359 12.8721H42.3055C42.8702 12.8721 43.3781 12.5286 43.5884 12.0047C43.7987 11.4805 43.669 10.8815 43.2609 10.4913C40.4929 7.84322 34.5328 2.1421 32.694 0.383242C32.1593 -0.127747 31.3173 -0.127747 30.7829 0.383242L20.2157 10.4913C19.8079 10.8815 19.6782 11.4805 19.8885 12.0047C20.0989 12.5286 20.6067 12.8721 21.1711 12.8721H23.141ZM23.141 11.7037H21.1711C21.0838 11.7037 21.0052 11.6507 20.9728 11.5697C20.9401 11.4887 20.9604 11.396 21.0235 11.3352L31.5907 1.22762C31.6732 1.14856 31.8037 1.14856 31.8863 1.22762L42.4535 11.3352C42.5166 11.396 42.5364 11.4887 42.5041 11.5697C42.4714 11.6507 42.3931 11.7037 42.3055 11.7037H40.3359C40.2806 11.7037 40.2276 11.6827 40.1879 11.6445L32.694 4.47622C32.1593 3.96484 31.3173 3.96484 30.7829 4.47622L23.2887 11.6445C23.2489 11.6827 23.196 11.7037 23.141 11.7037Z" fill="#E2E2E2"/>
<path opacity="0.3" fill-rule="evenodd" clip-rule="evenodd" d="M21.4961 32.905C21.5932 32.9668 21.7082 32.9998 21.8263 32.9998H28.7003C28.9054 32.9998 29.0958 32.9 29.2007 32.7369C29.3712 32.473 29.4691 32.1645 29.4691 31.8351C29.4691 30.8615 28.614 30.0707 27.5608 30.0707C27.5448 30.0707 27.5293 30.071 27.5137 30.0714C27.2309 29.4249 26.5448 28.9684 25.7445 28.9684C25.5584 28.9684 25.3785 28.9932 25.2083 29.0392C24.6916 28.4958 23.9344 28.1528 23.0913 28.1528C21.5361 28.1528 20.2734 29.3201 20.2734 30.7581C20.2734 31.6484 20.7575 32.4353 21.4961 32.905ZM22.0225 31.9224C21.6655 31.6419 21.439 31.2242 21.439 30.7581C21.439 29.9148 22.1791 29.2303 23.0913 29.2303C23.697 29.2303 24.2273 29.5327 24.5152 29.9827C24.596 30.1094 24.7301 30.2 24.8855 30.2334C25.0409 30.2664 25.204 30.2395 25.3373 30.1583C25.4542 30.0872 25.5941 30.0459 25.7445 30.0459C26.147 30.0459 26.4752 30.3425 26.4869 30.7121C26.4927 30.8881 26.5906 31.0504 26.7499 31.147C26.9088 31.2433 27.1089 31.2619 27.2857 31.1969C27.3708 31.1653 27.4636 31.1481 27.5608 31.1481C27.9706 31.1481 28.3036 31.4559 28.3036 31.8351C28.3036 31.8646 28.3016 31.8937 28.2978 31.9224H22.0225Z" fill="#A6A6A6"/>
<circle cx="32" cy="15" r="1.5" stroke="#E2E2E2"/>
<g filter="url(#filter0_b_2611_59656)">
<path d="M3.08776 20.7721C3.36859 20.4913 10.6703 20.4913 10.9511 20.7721C11.2319 21.053 12.3553 24.7038 12.3553 24.7038H1.68359C1.68359 24.7038 2.80693 21.053 3.08776 20.7721Z" fill="#4C8CED" fill-opacity="0.1"/>
</g>
<rect x="0.5625" y="25.0552" width="12.9183" height="6.17833" rx="1" fill="white"/>
<rect x="10.6719" y="31.2334" width="1.685" height="1.685" fill="white"/>
<rect x="1.68359" y="31.2334" width="1.685" height="1.685" fill="white"/>
<path d="M12.8715 24.7116L12.7896 24.4933C12.9049 24.4933 13.019 24.4684 13.1255 24.42C13.2319 24.3717 13.3287 24.3007 13.4102 24.2113C13.4917 24.1219 13.5563 24.0158 13.6004 23.8989C13.6445 23.7821 13.6672 23.6569 13.6672 23.5305C13.6672 23.404 13.6445 23.2788 13.6004 23.162C13.5563 23.0452 13.4917 22.939 13.4102 22.8496C13.3287 22.7602 13.2319 22.6893 13.1255 22.6409C13.019 22.5925 12.9049 22.5676 12.7896 22.5676H12.07L11.4147 20.7767C11.2842 20.5403 11.1006 20.3447 10.8813 20.2087C10.662 20.0726 10.4145 20.0008 10.1627 20H3.87901C3.61884 20.0029 3.36395 20.0809 3.14003 20.2263C2.91611 20.3717 2.73107 20.5792 2.60356 20.8281L1.96583 22.5676H1.24035C1.1251 22.5676 1.01098 22.5925 0.904503 22.6409C0.798027 22.6893 0.70128 22.7602 0.619787 22.8496C0.538294 22.939 0.47365 23.0452 0.429547 23.162C0.385443 23.2788 0.362743 23.404 0.362743 23.5305C0.362743 23.6569 0.385443 23.7821 0.429547 23.8989C0.47365 24.0158 0.538294 24.1219 0.619787 24.2113C0.70128 24.3007 0.798027 24.3717 0.904503 24.42C1.01098 24.4684 1.1251 24.4933 1.24035 24.4933L1.17014 24.7116C0.820227 24.8937 0.524557 25.1809 0.31744 25.54C0.110323 25.899 0.000252096 26.3151 3.04904e-08 26.74V29.9495C-6.87897e-05 30.3195 0.116365 30.6781 0.329597 30.9647C0.542829 31.2512 0.839761 31.4482 1.17014 31.5222V32.5171C1.17014 32.7725 1.2626 33.0174 1.42718 33.198C1.59177 33.3786 1.81499 33.48 2.04774 33.48H2.63281C2.86557 33.48 3.08879 33.3786 3.25337 33.198C3.41796 33.0174 3.51042 32.7725 3.51042 32.5171V31.5543H10.5312V32.5171C10.5312 32.7725 10.6237 33.0174 10.7883 33.198C10.9529 33.3786 11.1761 33.48 11.4089 33.48H11.9939C12.2267 33.48 12.4499 33.3786 12.6145 33.198C12.7791 33.0174 12.8715 32.7725 12.8715 32.5171V31.5222C13.2019 31.4482 13.4988 31.2512 13.7121 30.9647C13.9253 30.6781 14.0417 30.3195 14.0417 29.9495V26.74C14.0414 26.3151 13.9313 25.899 13.7242 25.54C13.5171 25.1809 13.2214 24.8937 12.8715 24.7116ZM12.8013 23.2095C12.8561 23.2094 12.9099 23.2262 12.9565 23.258C13.003 23.2897 13.0405 23.3352 13.0646 23.3893C13.0865 23.4382 13.0966 23.4925 13.0941 23.547C13.0915 23.6015 13.0763 23.6543 13.05 23.7006C13.0236 23.7468 12.987 23.785 12.9435 23.8114C12.9 23.8377 12.851 23.8515 12.8013 23.8514H12.538L12.304 23.2095H12.8013ZM1.96583 24.3008L2.43389 23.017L3.12427 21.0912C3.20486 20.9521 3.31647 20.8378 3.44854 20.7592C3.5806 20.6806 3.72876 20.6402 3.87901 20.6419H10.1627C10.3069 20.6411 10.4491 20.6794 10.5767 20.7533C10.7042 20.8272 10.8132 20.9344 10.894 21.0656L12.146 24.4933H1.89562L1.96583 24.3008ZM1.24035 23.8514C1.16276 23.8514 1.08835 23.8176 1.03349 23.7574C0.978633 23.6972 0.947812 23.6156 0.947812 23.5305C0.947812 23.4454 0.978633 23.3637 1.03349 23.3035C1.08835 23.2433 1.16276 23.2095 1.24035 23.2095H1.75521L1.52118 23.8514H1.24035ZM2.92535 32.5171C2.92535 32.6023 2.89453 32.6839 2.83967 32.7441C2.7848 32.8043 2.7104 32.8381 2.63281 32.8381H2.04774C1.97016 32.8381 1.89575 32.8043 1.84089 32.7441C1.78603 32.6839 1.75521 32.6023 1.75521 32.5171V31.5543H2.92535V32.5171ZM4.45238 30.9124L4.79172 28.9867H9.26165L9.60099 30.9124H4.45238ZM12.2865 32.5171C12.2865 32.6023 12.2556 32.6839 12.2008 32.7441C12.1459 32.8043 12.0715 32.8381 11.9939 32.8381H11.4089C11.3313 32.8381 11.2569 32.8043 11.202 32.7441C11.1471 32.6839 11.1163 32.6023 11.1163 32.5171V31.5543H12.2865V32.5171ZM13.4566 29.9495C13.4566 30.2049 13.3641 30.4498 13.1996 30.6304C13.035 30.8109 12.8117 30.9124 12.579 30.9124H10.1861L9.78236 28.6079C9.77007 28.5343 9.73469 28.4676 9.68233 28.4196C9.62997 28.3715 9.56394 28.345 9.49568 28.3448H4.54599C4.47772 28.345 4.41169 28.3715 4.35934 28.4196C4.30698 28.4676 4.27159 28.5343 4.25931 28.6079L3.85561 30.9124H1.46267C1.22992 30.9124 1.0067 30.8109 0.842114 30.6304C0.677531 30.4498 0.585069 30.2049 0.585069 29.9495V26.74C0.585069 26.3144 0.739172 25.9062 1.01348 25.6053C1.28778 25.3043 1.65982 25.1352 2.04774 25.1352H11.9939C12.3818 25.1352 12.7539 25.3043 13.0282 25.6053C13.3025 25.9062 13.4566 26.3144 13.4566 26.74V29.9495ZM3.80295 25.7771H2.04774C1.81499 25.7771 1.59177 25.8786 1.42718 26.0592C1.2626 26.2397 1.17014 26.4846 1.17014 26.74V27.3819C1.17014 27.467 1.20096 27.5487 1.25582 27.6089C1.31068 27.669 1.38509 27.7029 1.46267 27.7029H3.80295C3.88054 27.7029 3.95494 27.669 4.0098 27.6089C4.06467 27.5487 4.09549 27.467 4.09549 27.3819V26.0981C4.09549 26.013 4.06467 25.9313 4.0098 25.8711C3.95494 25.811 3.88054 25.7771 3.80295 25.7771ZM3.51042 27.061H1.75521V26.74C1.75521 26.6549 1.78603 26.5732 1.84089 26.5131C1.89575 26.4529 1.97016 26.419 2.04774 26.419H3.51042V27.061ZM2.04774 28.3448C1.87417 28.3448 1.70449 28.4012 1.56017 28.507C1.41585 28.6128 1.30337 28.7632 1.23694 28.9391C1.17052 29.1151 1.15314 29.3087 1.187 29.4955C1.22086 29.6822 1.30445 29.8538 1.42718 29.9885C1.54992 30.1231 1.70629 30.2148 1.87653 30.252C2.04677 30.2891 2.22323 30.2701 2.38359 30.1972C2.54395 30.1243 2.68101 30.0009 2.77744 29.8426C2.87388 29.6842 2.92535 29.4981 2.92535 29.3076C2.92535 29.0523 2.83289 28.8073 2.6683 28.6268C2.50372 28.4462 2.2805 28.3448 2.04774 28.3448ZM2.04774 29.6286C1.98989 29.6286 1.93333 29.6097 1.88522 29.5745C1.83711 29.5392 1.79962 29.4891 1.77748 29.4304C1.75533 29.3718 1.74954 29.3073 1.76083 29.245C1.77212 29.1827 1.79998 29.1256 1.84089 29.0807C1.8818 29.0358 1.93393 29.0052 1.99067 28.9928C2.04742 28.9804 2.10624 28.9868 2.15969 29.0111C2.21315 29.0354 2.25883 29.0765 2.29098 29.1293C2.32312 29.1821 2.34028 29.2441 2.34028 29.3076C2.34028 29.3927 2.30946 29.4744 2.2546 29.5346C2.19974 29.5948 2.12533 29.6286 2.04774 29.6286ZM8.48351 26.419H6.14323C6.06564 26.419 5.99124 26.4529 5.93638 26.5131C5.88152 26.5732 5.85069 26.6549 5.85069 26.74C5.85069 26.8251 5.88152 26.9068 5.93638 26.9669C5.99124 27.0271 6.06564 27.061 6.14323 27.061H8.48351C8.56109 27.061 8.6355 27.0271 8.69036 26.9669C8.74522 26.9068 8.77604 26.8251 8.77604 26.74C8.77604 26.6549 8.74522 26.5732 8.69036 26.5131C8.6355 26.4529 8.56109 26.419 8.48351 26.419ZM11.9939 25.7771H10.2387C10.1611 25.7771 10.0867 25.811 10.0319 25.8711C9.977 25.9313 9.94618 26.013 9.94618 26.0981V27.3819C9.94618 27.467 9.977 27.5487 10.0319 27.6089C10.0867 27.669 10.1611 27.7029 10.2387 27.7029H12.579C12.6566 27.7029 12.731 27.669 12.7858 27.6089C12.8407 27.5487 12.8715 27.467 12.8715 27.3819V26.74C12.8715 26.4846 12.7791 26.2397 12.6145 26.0592C12.4499 25.8786 12.2267 25.7771 11.9939 25.7771ZM12.2865 27.061H10.5312V26.419H11.9939C12.0715 26.419 12.1459 26.4529 12.2008 26.5131C12.2556 26.5732 12.2865 26.6549 12.2865 26.74V27.061ZM11.9939 28.3448C11.8203 28.3448 11.6507 28.4012 11.5064 28.507C11.362 28.6128 11.2495 28.7632 11.1831 28.9391C11.1167 29.1151 11.0993 29.3087 11.1332 29.4955C11.167 29.6822 11.2506 29.8538 11.3734 29.9885C11.4961 30.1231 11.6525 30.2148 11.8227 30.252C11.993 30.2891 12.1694 30.2701 12.3298 30.1972C12.4901 30.1243 12.6272 30.0009 12.7236 29.8426C12.8201 29.6842 12.8715 29.4981 12.8715 29.3076C12.8715 29.0523 12.7791 28.8073 12.6145 28.6268C12.4499 28.4462 12.2267 28.3448 11.9939 28.3448ZM11.9939 29.6286C11.9361 29.6286 11.8795 29.6097 11.8314 29.5745C11.7833 29.5392 11.7458 29.4891 11.7237 29.4304C11.7015 29.3718 11.6957 29.3073 11.707 29.245C11.7183 29.1827 11.7462 29.1256 11.7871 29.0807C11.828 29.0358 11.8801 29.0052 11.9369 28.9928C11.9936 28.9804 12.0524 28.9868 12.1059 29.0111C12.1593 29.0354 12.205 29.0765 12.2372 29.1293C12.2693 29.1821 12.2865 29.2441 12.2865 29.3076C12.2865 29.3927 12.2556 29.4744 12.2008 29.5346C12.1459 29.5948 12.0715 29.6286 11.9939 29.6286Z" fill="#D3D3D3"/>
<defs>
<filter id="filter0_b_2611_59656" x="1.18359" y="20.0615" width="11.6719" height="5.14209" filterUnits="userSpaceOnUse" color-interpolation-filters="sRGB">
<feFlood flood-opacity="0" result="BackgroundImageFix"/>
<feGaussianBlur in="BackgroundImageFix" stdDeviation="0.25"/>
<feComposite in2="SourceAlpha" operator="in" result="effect1_backgroundBlur_2611_59656"/>
<feBlend mode="normal" in="SourceGraphic" in2="effect1_backgroundBlur_2611_59656" result="shape"/>
</filter>
</defs>
</svg>
