<svg width="33" height="29" viewBox="0 0 33 29" fill="none" xmlns="http://www.w3.org/2000/svg">
<path d="M32.5035 28.1262H29.3791V16.4972C29.5276 16.5106 29.6754 16.5239 29.8312 16.5239C31.5835 16.5239 33 15.349 33 13.8873V13.8744C32.9927 13.822 32.986 13.7701 32.9629 13.7305C32.9629 13.7177 32.955 13.7043 32.955 13.7043C32.9337 13.6786 32.9179 13.6519 32.896 13.6262L29.3785 9.58025V3.08118H30.2468C30.5291 3.08118 30.7518 2.88535 30.7518 2.6371V0.445056C30.7518 0.1968 30.5291 0.000976562 30.2468 0.000976562H2.75324C2.47883 0.000976562 2.24884 0.1968 2.24884 0.445056V2.63763C2.24884 2.88589 2.47883 3.08171 2.75324 3.08171H3.62881V9.58079L0.104045 13.6267C0.0815326 13.6529 0.0669297 13.6792 0.0523268 13.7048C0.044417 13.7177 0.0444169 13.7177 0.0371155 13.7311C0.0152112 13.7701 0.00730142 13.8226 0 13.875V13.8878C0 15.349 1.42439 16.5245 3.16882 16.5245C3.32458 16.5245 3.47304 16.5116 3.62881 16.4977V28.1262H0.505015C0.223302 28.1262 0.000608408 28.322 0.000608408 28.5703C0.000608408 28.8046 0.223302 29.001 0.505015 29.001H32.5035C32.7773 29.001 33 28.8052 33 28.5703C33.0006 28.322 32.7779 28.1262 32.5035 28.1262ZM29.8318 15.6492C28.8236 15.6492 27.9766 15.0879 27.7399 14.3308H31.9328C31.6876 15.0884 30.8412 15.6492 29.8318 15.6492ZM4.62363 9.29348V3.08118H28.3776V9.29348H24.8826H20.6752H16.5043H12.3339H8.12648H4.62363ZM8.43801 10.1811H11.6957L11.0574 12.4523L10.7757 13.4443H6.63456L8.43801 10.1811ZM12.4447 11.1731L12.727 10.1811H15.9992V13.4437H11.8064L12.4447 11.1731ZM17.0093 10.1811H20.2821L21.2021 13.4437H17.0093V10.1811ZM22.2334 13.4437L21.3129 10.1811H24.5705L26.374 13.4437H22.2334ZM10.5974 14.3314C10.3595 15.0884 9.50645 15.6497 8.50494 15.6497C7.49552 15.6497 6.64186 15.0884 6.40457 14.3314H10.5974ZM15.9329 14.3314C15.6877 15.0884 14.842 15.6497 13.8332 15.6497C12.8316 15.6497 11.978 15.0884 11.7407 14.3314H15.9329ZM21.269 14.3314C21.0238 15.0884 20.1781 15.6497 19.1687 15.6497C18.1592 15.6497 17.3135 15.0884 17.0683 14.3314H21.269ZM26.6046 14.3314C26.366 15.0884 25.5136 15.6497 24.5042 15.6497C23.5021 15.6497 22.649 15.0884 22.4111 14.3314H26.6046ZM27.4868 13.4437L25.6834 10.1811H27.6055H28.6295L31.4868 13.4437H27.4868ZM3.25035 2.19355V0.889136H29.7503V2.19355H3.25035ZM4.37112 10.1811H6.11494H7.32454L5.5217 13.4437H1.51383L4.37112 10.1811ZM1.06905 14.3314H5.26189C5.02399 15.0884 4.17094 15.6497 3.16943 15.6497C2.1594 15.6492 1.31365 15.0884 1.06905 14.3314ZM13.0014 28.1262H7.99993V24.1327H13.0014V28.1262ZM13.0014 23.2579H7.99993V19.2639H13.0014V23.2579ZM14.0035 28.1262V18.8209C14.0035 18.586 13.7808 18.3896 13.5064 18.3896H7.50282C7.22841 18.3896 7.00572 18.5854 7.00572 18.8209V28.1262H4.62363V16.2238C5.12073 16.0146 5.5363 15.6888 5.83323 15.3099C6.39726 16.0408 7.38417 16.5239 8.50494 16.5239C9.6178 16.5239 10.6047 16.0408 11.1687 15.3099C11.7328 16.0408 12.7124 16.5239 13.8332 16.5239C14.9533 16.5239 15.9402 16.0408 16.5049 15.3099C17.0616 16.0408 18.0485 16.5239 19.1687 16.5239C20.2888 16.5239 21.2763 16.0408 21.841 15.2971C22.3971 16.0408 23.3913 16.5239 24.5048 16.5239C25.6256 16.5239 26.6125 16.0408 27.1759 15.3099C27.4728 15.7016 27.889 16.0146 28.3782 16.2238V28.1262H14.0035Z" fill="url(#paint0_linear_5128_16990)"/>
<path d="M10.2142 7.50891V4.87226C10.2142 4.62453 9.99155 4.42871 9.71714 4.42871H7.00101C6.7266 4.42871 6.50391 4.62453 6.50391 4.87226V7.50891C6.50391 7.75663 6.7266 7.95246 7.00101 7.95246H9.71714C9.99155 7.95192 10.2142 7.75663 10.2142 7.50891ZM9.21943 7.07821H7.50542V5.30349H9.21943V7.07821Z" fill="url(#paint1_linear_5128_16990)"/>
<path d="M12.4268 7.94801H15.1429C15.4173 7.94801 15.6394 7.75219 15.6394 7.50447V4.86835C15.6394 4.62063 15.4167 4.4248 15.1429 4.4248H12.4268C12.1518 4.4248 11.9297 4.62063 11.9297 4.86835V7.50501C11.9297 7.75273 12.1524 7.94801 12.4268 7.94801ZM12.9239 5.29905H14.6385V7.07377H12.9239V5.29905Z" fill="url(#paint2_linear_5128_16990)"/>
<path d="M17.88 7.94801H20.5888C20.8699 7.94801 21.0932 7.75219 21.0932 7.50447V4.86835C21.0932 4.62063 20.8699 4.4248 20.5888 4.4248H17.88C17.5977 4.4248 17.375 4.62063 17.375 4.86835V7.50501C17.375 7.75273 17.5977 7.94801 17.88 7.94801ZM18.3771 5.29905H20.0911V7.07377H18.3771V5.29905Z" fill="url(#paint3_linear_5128_16990)"/>
<path d="M23.2935 7.94801H26.0096C26.2846 7.94801 26.5073 7.75219 26.5073 7.50447V4.86835C26.5073 4.62063 26.2846 4.4248 26.0096 4.4248H23.2935C23.0197 4.4248 22.7891 4.62063 22.7891 4.86835V7.50501C22.7891 7.75273 23.0197 7.94801 23.2935 7.94801ZM23.7979 5.29905H25.5052V7.07377H23.7979V5.29905Z" fill="url(#paint4_linear_5128_16990)"/>
<path fill-rule="evenodd" clip-rule="evenodd" d="M17.0625 19.8975H26.8142V26.7427H17.0625V19.8975ZM17.671 20.4325V26.2077H26.2057V20.4325H17.671Z" fill="url(#paint5_linear_5128_16990)"/>
<path fill-rule="evenodd" clip-rule="evenodd" d="M22.6035 22.5046L26.3218 19.9541L26.696 20.376L22.9778 22.9265L22.6035 22.5046Z" fill="url(#paint6_linear_5128_16990)"/>
<path fill-rule="evenodd" clip-rule="evenodd" d="M22.4824 26.2089V22.7178H23.0909V26.2089H22.4824Z" fill="url(#paint7_linear_5128_16990)"/>
<path fill-rule="evenodd" clip-rule="evenodd" d="M20.502 22.5943L17.1641 20.3792L17.5306 19.9521L20.8685 22.1672L20.502 22.5943Z" fill="url(#paint8_linear_5128_16990)"/>
<path fill-rule="evenodd" clip-rule="evenodd" d="M20.3828 26.477V22.3818H20.9913V26.477H20.3828Z" fill="url(#paint9_linear_5128_16990)"/>
<defs>
<linearGradient id="paint0_linear_5128_16990" x1="16.5" y1="0.000976562" x2="16.5" y2="29.001" gradientUnits="userSpaceOnUse">
<stop stop-color="#FF9900"/>
<stop offset="1" stop-color="#636363"/>
</linearGradient>
<linearGradient id="paint1_linear_5128_16990" x1="8.35908" y1="4.42871" x2="8.35908" y2="7.95246" gradientUnits="userSpaceOnUse">
<stop stop-color="#FF9900"/>
<stop offset="1" stop-color="#636363"/>
</linearGradient>
<linearGradient id="paint2_linear_5128_16990" x1="13.7846" y1="4.4248" x2="13.7846" y2="7.94801" gradientUnits="userSpaceOnUse">
<stop stop-color="#FF9900"/>
<stop offset="1" stop-color="#636363"/>
</linearGradient>
<linearGradient id="paint3_linear_5128_16990" x1="19.2341" y1="4.4248" x2="19.2341" y2="7.94801" gradientUnits="userSpaceOnUse">
<stop stop-color="#FF9900"/>
<stop offset="1" stop-color="#636363"/>
</linearGradient>
<linearGradient id="paint4_linear_5128_16990" x1="24.6482" y1="4.4248" x2="24.6482" y2="7.94801" gradientUnits="userSpaceOnUse">
<stop stop-color="#FF9900"/>
<stop offset="1" stop-color="#636363"/>
</linearGradient>
<linearGradient id="paint5_linear_5128_16990" x1="21.9383" y1="19.8975" x2="21.9383" y2="26.7427" gradientUnits="userSpaceOnUse">
<stop stop-color="#FF9900"/>
<stop offset="1" stop-color="#636363"/>
</linearGradient>
<linearGradient id="paint6_linear_5128_16990" x1="24.6498" y1="19.9541" x2="24.6498" y2="22.9265" gradientUnits="userSpaceOnUse">
<stop stop-color="#FF9900"/>
<stop offset="1" stop-color="#636363"/>
</linearGradient>
<linearGradient id="paint7_linear_5128_16990" x1="22.7866" y1="22.7178" x2="22.7866" y2="26.2089" gradientUnits="userSpaceOnUse">
<stop stop-color="#FF9900"/>
<stop offset="1" stop-color="#636363"/>
</linearGradient>
<linearGradient id="paint8_linear_5128_16990" x1="19.0163" y1="19.9521" x2="19.0163" y2="22.5943" gradientUnits="userSpaceOnUse">
<stop stop-color="#FF9900"/>
<stop offset="1" stop-color="#636363"/>
</linearGradient>
<linearGradient id="paint9_linear_5128_16990" x1="20.687" y1="22.3818" x2="20.687" y2="26.477" gradientUnits="userSpaceOnUse">
<stop stop-color="#FF9900"/>
<stop offset="1" stop-color="#636363"/>
</linearGradient>
</defs>
</svg>
