<svg width="22" height="19" viewBox="0 0 22 19" fill="none" xmlns="http://www.w3.org/2000/svg">
<path d="M6.94009 4.86266V3.15453C6.94009 2.99405 6.79493 2.86719 6.61605 2.86719H4.84553C4.66665 2.86719 4.52148 2.99405 4.52148 3.15453V4.86266C4.52148 5.02315 4.66665 5.15001 4.84553 5.15001H6.61605C6.79493 5.14966 6.94009 5.02315 6.94009 4.86266ZM6.29161 4.58364H5.17433V3.43391H6.29161V4.58364Z" fill="#2E8E44"/>
<path d="M8.38654 5.14893H10.1571C10.3359 5.14893 10.4807 5.02207 10.4807 4.86158V3.1538C10.4807 2.99332 10.3355 2.86646 10.1571 2.86646H8.38654C8.20727 2.86646 8.0625 2.99332 8.0625 3.1538V4.86193C8.0625 5.02241 8.20766 5.14893 8.38654 5.14893ZM8.71058 3.43283H9.82826V4.58256H8.71058V3.43283Z" fill="#2E8E44"/>
<path d="M11.9288 5.14893H13.6946C13.8778 5.14893 14.0234 5.02207 14.0234 4.86158V3.1538C14.0234 2.99332 13.8778 2.86646 13.6946 2.86646H11.9288C11.7448 2.86646 11.5996 2.99332 11.5996 3.1538V4.86193C11.5996 5.02241 11.7448 5.14893 11.9288 5.14893ZM12.2528 3.43283H13.3701V4.58256H12.2528V3.43283Z" fill="#2E8E44"/>
<path d="M15.4636 5.14868H17.2341C17.4134 5.14868 17.5585 5.02182 17.5585 4.86134V3.15356C17.5585 2.99307 17.4134 2.86621 17.2341 2.86621H15.4636C15.2851 2.86621 15.1348 2.99307 15.1348 3.15356V4.86169C15.1348 5.02217 15.2851 5.14868 15.4636 5.14868ZM15.7924 3.43258H16.9053V4.58231H15.7924V3.43258Z" fill="#2E8E44"/>
<path fill-rule="evenodd" clip-rule="evenodd" d="M11.4023 12.8916H17.759V17.3262H11.4023V12.8916ZM11.799 13.2382V16.9796H17.3624V13.2382H11.799Z" fill="#636363"/>
<path d="M16.4038 16.3341L16.231 16.3793C16.2542 16.2272 16.2616 16.0712 16.2532 15.9111C16.2478 15.8112 16.2441 15.7468 16.2421 15.7176C16.2347 15.6263 16.2243 15.5533 16.2109 15.4986L16.383 15.4414C16.4018 15.5327 16.4166 15.6752 16.4275 15.8689C16.4379 16.0556 16.43 16.2107 16.4038 16.3341Z" fill="#636363"/>
<path d="M15.9364 16.1376C15.9364 16.1185 15.9233 16.0979 15.8971 16.0758C15.8733 16.0563 15.8491 16.0427 15.8244 16.0352L15.7799 16.1534C15.812 16.1729 15.8446 16.1827 15.8778 16.1827C15.9168 16.1827 15.9364 16.1677 15.9364 16.1376ZM16.1025 16.2098C16.0852 16.3363 16.0175 16.3995 15.8993 16.3995C15.8785 16.3995 15.857 16.397 15.8348 16.392C15.7868 16.3819 15.7544 16.3676 15.7376 16.3491C15.7257 16.3355 15.7161 16.3099 15.7087 16.2723C15.6419 16.3431 15.5727 16.3784 15.501 16.3784H15.4609V16.1654H15.5032C15.5705 16.1654 15.6155 16.1433 15.6382 16.0992C15.6496 16.0766 15.6637 16.0362 15.6805 15.978C15.6958 15.9268 15.7104 15.8912 15.7242 15.8711C15.745 15.8405 15.7737 15.8252 15.8103 15.8252C15.8642 15.8252 15.9252 15.8611 15.9935 15.9328C16.0682 16.0116 16.1055 16.0929 16.1055 16.1767C16.1055 16.1877 16.1045 16.1988 16.1025 16.2098Z" fill="#636363"/>
<path d="M15.4848 16.3793H15.4062C15.3389 16.3793 15.291 16.3469 15.2623 16.2822C15.2148 16.3469 15.1481 16.3793 15.062 16.3793H14.8128V16.1663H14.8499C14.8573 16.1602 14.861 16.1442 14.861 16.1181C14.861 16.0212 14.8104 15.8388 14.709 15.5709L14.89 15.5137C14.9829 15.7209 15.0301 15.9196 15.0316 16.1098L14.8736 16.1663H15.0546C15.1011 16.1663 15.1308 16.1607 15.1436 16.1497C15.1708 16.1261 15.1844 16.0699 15.1844 15.9811C15.1844 15.8762 15.1661 15.7154 15.1295 15.4986L15.3009 15.4414C15.3286 15.5914 15.3424 15.7422 15.3424 15.8938C15.3424 15.9093 15.3422 15.9297 15.3417 15.9547C15.3417 15.9798 15.3417 15.9974 15.3417 16.0074C15.3417 16.0702 15.3481 16.1113 15.3609 16.1309C15.3768 16.1545 15.4111 16.1663 15.464 16.1663H15.4848V16.3793Z" fill="#636363"/>
<path d="M14.2373 16.1026C14.2373 16.0469 14.1701 15.926 14.0356 15.7398L14.1476 15.5411L14.5978 15.4297V15.6299L14.2492 15.7247C14.2754 15.7599 14.3031 15.8065 14.3323 15.8647C14.3728 15.9455 14.3931 16.0098 14.3931 16.0574C14.3931 16.2712 14.307 16.3781 14.135 16.3781H13.9629V16.1651H14.152C14.1738 16.1651 14.1933 16.1593 14.2106 16.1478C14.2284 16.1357 14.2373 16.1207 14.2373 16.1026Z" fill="#636363"/>
<path d="M14.0046 16.3781H13.5195V16.165H14.0046V16.3781Z" fill="#636363"/>
<path d="M13.571 16.3781H13.0859V16.165H13.571V16.3781Z" fill="#636363"/>
<path d="M13.1355 16.3781H12.6504V16.165H13.1355V16.3781Z" fill="#636363"/>
<path d="M16.5804 13.5731C16.5468 13.7658 16.4506 13.8622 16.2919 13.8622C16.283 13.8622 16.2696 13.8614 16.2518 13.8599C16.234 13.8584 16.2207 13.8576 16.2118 13.8576C16.1514 13.8576 16.1027 13.8785 16.0656 13.9201C16.0384 13.9507 16.0202 13.9889 16.0108 14.0345L15.8535 13.9871C15.8703 13.9023 15.9057 13.8328 15.9596 13.7786C16.0135 13.7239 16.0763 13.6966 16.148 13.6966C16.1584 13.6966 16.1742 13.6976 16.1954 13.6996C16.2167 13.7016 16.2328 13.7026 16.2437 13.7026C16.2941 13.7026 16.3322 13.6898 16.3579 13.6642C16.3841 13.6386 16.4068 13.5917 16.4261 13.5234L16.5804 13.5731ZM16.2993 14.7917L16.1265 14.8369C16.1497 14.6849 16.1571 14.5288 16.1487 14.3687C16.1433 14.2689 16.1393 14.2044 16.1368 14.1753C16.1294 14.0839 16.119 14.0109 16.1057 13.9562L16.2778 13.899C16.2971 13.9904 16.3121 14.1329 16.323 14.3266C16.3329 14.5132 16.325 14.6683 16.2993 14.7917Z" fill="#636363"/>
<path d="M15.7231 14.8126C15.7231 14.9546 15.683 15.0776 15.6029 15.1815C15.5268 15.2798 15.4254 15.3486 15.2988 15.3877V15.1754C15.4872 15.1112 15.5814 15.0048 15.5814 14.8563C15.5814 14.8081 15.5683 14.7532 15.5421 14.6914C15.5169 14.6322 15.487 14.5831 15.4524 14.5439L15.6222 14.4513C15.6385 14.4624 15.6591 14.5078 15.6838 14.5876C15.71 14.6734 15.7231 14.7484 15.7231 14.8126ZM15.6267 14.0328H15.4368V13.8379H15.6267V14.0328ZM15.7505 14.2857H15.5599V14.0908H15.7505V14.2857ZM15.5035 14.2857H15.3129V14.0908H15.5035V14.2857Z" fill="#636363"/>
<path d="M15.1596 14.7921L14.9868 14.8373C15.0101 14.6852 15.0175 14.5292 15.0091 14.3691C15.0036 14.2692 14.9999 14.2048 14.9979 14.1757C14.9905 14.0843 14.9801 14.0113 14.9668 13.9566L15.1389 13.8994C15.1577 13.9907 15.1725 14.1333 15.1834 14.3269C15.1938 14.5136 15.1858 14.6687 15.1596 14.7921Z" fill="#636363"/>
<path d="M14.5725 14.8377H14.4531V14.6247H14.5933C14.6284 14.6247 14.6522 14.6224 14.6645 14.6179C14.6912 14.6074 14.7046 14.5845 14.7046 14.5494C14.7046 14.4972 14.6885 14.4385 14.6564 14.3733L14.8366 14.3003C14.8494 14.3515 14.8559 14.4026 14.8559 14.4538C14.8559 14.5647 14.8339 14.6543 14.7899 14.7225C14.7394 14.7993 14.667 14.8377 14.5725 14.8377ZM14.5926 14.2242V14.0293H14.7832V14.2242H14.5926Z" fill="#636363"/>
<path d="M14.3844 14.8366C14.3463 14.8366 14.3157 14.824 14.2924 14.7989C14.287 14.7929 14.2758 14.7746 14.259 14.744C14.218 14.8057 14.1705 14.8366 14.1166 14.8366C14.083 14.8366 14.0504 14.825 14.0187 14.8019C13.9945 14.7844 13.9764 14.7651 13.9646 14.744C13.9211 14.8057 13.8793 14.8366 13.8392 14.8366H13.7866C13.7653 14.8366 13.748 14.8318 13.7346 14.8223C13.7109 14.9492 13.6407 15.0556 13.524 15.1414C13.4108 15.2237 13.2854 15.2648 13.148 15.2648C13.011 15.2648 12.9012 15.2295 12.8186 15.1587C12.739 15.0905 12.6992 15.0024 12.6992 14.8945C12.6992 14.7871 12.7504 14.6813 12.8528 14.5769C12.9393 14.4881 13.0555 14.4068 13.2014 14.333V14.54C13.1203 14.5721 13.0434 14.6173 12.9707 14.6755C12.8827 14.7447 12.8387 14.8072 12.8387 14.8629C12.8387 14.9171 12.872 14.9608 12.9388 14.9939C13.0031 15.026 13.0834 15.042 13.1798 15.042C13.3025 15.042 13.4031 15.0155 13.4817 14.9623C13.5668 14.9046 13.6093 14.825 13.6093 14.7237C13.6093 14.6363 13.5836 14.5473 13.5322 14.4565L13.7124 14.3977C13.7292 14.4364 13.7431 14.4901 13.7539 14.5588C13.7609 14.602 13.773 14.6235 13.7903 14.6235H13.8274C13.8536 14.6235 13.8862 14.5922 13.9253 14.5295C13.9594 14.4738 13.9794 14.4299 13.9853 14.3977L14.1344 14.4534C14.1344 14.4534 14.1104 14.5019 14.064 14.5927C14.0625 14.5952 14.0617 14.598 14.0617 14.601C14.0617 14.616 14.0721 14.6235 14.0929 14.6235H14.1263C14.1525 14.6235 14.1849 14.5922 14.2234 14.5295C14.2576 14.4738 14.2776 14.4299 14.2835 14.3977L14.4333 14.4534C14.4333 14.4534 14.4094 14.5019 14.3629 14.5927C14.3614 14.5952 14.3606 14.598 14.3606 14.601C14.3606 14.616 14.371 14.6235 14.3918 14.6235H14.4801V14.8366H14.3844Z" fill="#636363"/>
<g filter="url(#filter0_b_4261_26063)">
<rect x="5.18359" y="12.2295" width="3.83368" height="3.02593" fill="#4C8CED" fill-opacity="0.5"/>
</g>
<path d="M21.4727 18.2206H19.4361V10.6869C19.5329 10.6956 19.6292 10.7042 19.7308 10.7042C20.8731 10.7042 21.7964 9.94306 21.7964 8.9961V8.98778C21.7916 8.95381 21.7873 8.92019 21.7722 8.89454C21.7722 8.88622 21.767 8.87756 21.767 8.87756C21.7532 8.86092 21.7428 8.84359 21.7286 8.82695L19.4357 6.20583V1.99547H20.0017C20.1857 1.99547 20.3309 1.86861 20.3309 1.70778V0.287692C20.3309 0.126862 20.1857 0 20.0017 0H2.07987C1.901 0 1.75107 0.126862 1.75107 0.287692V1.70813C1.75107 1.86896 1.901 1.99582 2.07987 1.99582H2.65061V6.20618L0.352979 8.8273C0.338304 8.84428 0.328785 8.86127 0.319266 8.8779C0.31411 8.88622 0.31411 8.88622 0.30935 8.89489C0.295072 8.92019 0.289916 8.95416 0.285156 8.98813V8.99645C0.285156 9.94306 1.21365 10.7046 2.35077 10.7046C2.4523 10.7046 2.54908 10.6963 2.65061 10.6872V18.2206H0.614353C0.430717 18.2206 0.285553 18.3475 0.285553 18.5083C0.285553 18.6601 0.430717 18.7873 0.614353 18.7873H21.4727C21.6512 18.7873 21.7964 18.6605 21.7964 18.5083C21.7968 18.3475 21.6516 18.2206 21.4727 18.2206ZM19.7312 10.1375C19.074 10.1375 18.5219 9.77391 18.3676 9.28344H21.1007C20.9409 9.77425 20.3892 10.1375 19.7312 10.1375ZM3.29909 6.02005V1.99547H18.7832V6.02005H16.505H13.7624H11.0435H8.3251H5.58245H3.29909ZM5.78552 6.59508H7.90904L7.49298 8.06647L7.30935 8.7091H4.60993L5.78552 6.59508ZM8.39728 7.23771L8.58131 6.59508H10.7144V8.70875H7.98122L8.39728 7.23771ZM11.3727 6.59508H13.5062L14.1059 8.70875H11.3727V6.59508ZM14.7781 8.70875L14.1781 6.59508H16.3016L17.4772 8.70875H14.7781ZM7.19313 9.28379C7.03805 9.77425 6.48199 10.1379 5.82915 10.1379C5.17115 10.1379 4.61469 9.77425 4.46001 9.28379H7.19313ZM10.6711 9.28379C10.5113 9.77425 9.95998 10.1379 9.30237 10.1379C8.64953 10.1379 8.09307 9.77425 7.93839 9.28379H10.6711ZM14.1495 9.28379C13.9897 9.77425 13.4384 10.1379 12.7804 10.1379C12.1224 10.1379 11.5711 9.77425 11.4112 9.28379H14.1495ZM17.6275 9.28379C17.472 9.77425 16.9163 10.1379 16.2583 10.1379C15.6051 10.1379 15.049 9.77425 14.894 9.28379H17.6275ZM18.2026 8.70875L17.027 6.59508H18.2799H18.9474L20.81 8.70875H18.2026ZM2.40392 1.42044V0.575384H19.678V1.42044H2.40392ZM3.13449 6.59508H4.27121H5.0597L3.88451 8.70875H1.27195L3.13449 6.59508ZM0.982022 9.28379H3.71515C3.56007 9.77425 3.00401 10.1379 2.35116 10.1379C1.69277 10.1375 1.14146 9.77425 0.982022 9.28379ZM8.76019 18.2206H5.49995V15.6335H8.76019V18.2206ZM8.76019 15.0668H5.49995V12.4793H8.76019V15.0668ZM9.41343 18.2206V12.1923C9.41343 12.0401 9.26826 11.9129 9.08939 11.9129H5.17591C4.99704 11.9129 4.85187 12.0397 4.85187 12.1923V18.2206H3.29909V10.5098C3.62313 10.3742 3.89403 10.1632 4.08758 9.91775C4.45525 10.3912 5.09857 10.7042 5.82915 10.7042C6.55457 10.7042 7.19789 10.3912 7.56556 9.91775C7.93323 10.3912 8.5718 10.7042 9.30237 10.7042C10.0326 10.7042 10.6759 10.3912 11.0439 9.91775C11.4069 10.3912 12.0502 10.7042 12.7804 10.7042C13.5105 10.7042 14.1543 10.3912 14.5223 9.90944C14.8848 10.3912 15.5329 10.7042 16.2587 10.7042C16.9893 10.7042 17.6326 10.3912 17.9999 9.91775C18.1935 10.1715 18.4648 10.3742 18.7836 10.5098V18.2206H9.41343Z" fill="#636363"/>
<defs>
<filter id="filter0_b_4261_26063" x="4.68359" y="11.7295" width="4.83398" height="4.02588" filterUnits="userSpaceOnUse" color-interpolation-filters="sRGB">
<feFlood flood-opacity="0" result="BackgroundImageFix"/>
<feGaussianBlur in="BackgroundImageFix" stdDeviation="0.25"/>
<feComposite in2="SourceAlpha" operator="in" result="effect1_backgroundBlur_4261_26063"/>
<feBlend mode="normal" in="SourceGraphic" in2="effect1_backgroundBlur_4261_26063" result="shape"/>
</filter>
</defs>
</svg>
