<svg width="80" height="71" viewBox="0 0 80 71" fill="none" xmlns="http://www.w3.org/2000/svg">
<path d="M61.4711 19.3412C61.1441 19.5771 60.2661 20.0516 58.837 20.7647L57.959 18.8909C58.46 18.6442 58.9583 18.3976 59.454 18.151C60.0815 17.8186 60.543 17.5103 60.8383 17.2261C59.9312 17.0867 59.309 16.9232 58.9715 16.7355C58.3545 16.3924 58.046 15.816 58.046 15.0064C58.046 14.4167 58.4283 13.7089 59.193 12.8833C59.9629 12.0522 60.6221 11.6367 61.1705 11.6367C61.7242 11.6367 62.1751 11.886 62.5231 12.3847C62.8343 12.835 62.9898 13.3578 62.9898 13.9529V16.8883C62.9898 17.7998 62.4836 18.6174 61.4711 19.3412ZM61.1547 14.1057C61.1547 13.9502 61.1494 13.8725 61.1389 13.8725C60.5746 14.1942 60.1686 14.5561 59.9207 14.9582C60.0842 15.0815 60.4955 15.1914 61.1547 15.2879V14.1057Z" fill="#FF7A00"/>
<path d="M53.6742 17.1268H52.377V14.9072C52.7145 14.9661 52.9992 14.9956 53.2312 14.9956C53.785 14.9956 54.0618 14.8348 54.0618 14.5131C54.0618 14.3415 53.9616 13.8295 53.7612 12.977L55.6438 12.5508C55.9444 13.5909 56.0947 14.3871 56.0947 14.9393C56.0947 15.6631 55.839 16.2234 55.3274 16.6202C54.8897 16.958 54.3387 17.1268 53.6742 17.1268ZM56.5693 20.5046H54.8054L54.8212 18.5503H56.5931L56.5693 20.5046ZM54.5839 20.5046H52.812L52.8278 18.5503H54.5997L54.5839 20.5046Z" fill="#FF7A00"/>
<path d="M49.25 17.1233V14.9277H52.509V17.1233H49.25Z" fill="#FF7A00"/>
<path d="M46.408 11.7387V9.80859H48.2036V11.7387H46.408ZM44.4067 11.7387V9.80859H46.1944V11.7387H44.4067ZM48.6387 17.1271C47.9848 17.1271 47.4416 16.9528 47.0092 16.6043C46.5346 16.9528 45.8701 17.1271 45.0158 17.1271H44.209V14.9235C45.2215 14.9557 45.7277 14.8457 45.7277 14.5938C45.7277 14.4919 45.6486 14.0576 45.4904 13.2909L47.4442 12.7842C47.4601 12.8754 47.526 13.2695 47.642 13.9665C47.6894 14.2506 47.7448 14.449 47.8081 14.5616C47.9558 14.8082 48.462 14.9315 49.3268 14.9315V17.1271H48.6387Z" fill="#FF7A00"/>
<path d="M41.0566 17.1233V14.9277H44.3156V17.1233H41.0566Z" fill="#FF7A00"/>
<path d="M40.7363 17.129C40.4568 17.1344 40.2353 17.0861 40.0719 16.9843V17.0486C40.0824 17.9708 39.5867 18.7991 38.5848 19.5337C38.3211 19.732 37.4483 20.2226 35.9665 21.0054L35.041 19.0994C36.2697 18.4667 36.8999 18.1423 36.9315 18.1263C37.7278 17.6116 38.126 17.0781 38.126 16.5259C38.126 16.1881 38.0469 15.7967 37.8887 15.3517C37.741 14.9817 37.5934 14.6091 37.4457 14.2338L39.36 13.502C39.4391 13.7111 39.5182 13.9228 39.5973 14.1373C39.7185 14.4375 39.8293 14.6332 39.9295 14.7244C40.0824 14.8691 40.4911 14.9388 41.1556 14.9335V17.129H40.7363Z" fill="#FF7A00"/>
<path d="M30.8715 17.1268H29.5742V14.9072C29.9117 14.9661 30.1965 14.9956 30.4285 14.9956C30.9822 14.9956 31.2591 14.8348 31.2591 14.5131C31.2591 14.3415 31.1589 13.8295 30.9585 12.977L32.8411 12.5508C33.1417 13.5909 33.292 14.3871 33.292 14.9393C33.292 15.6631 33.0362 16.2234 32.5247 16.6202C32.087 16.958 31.5359 17.1268 30.8715 17.1268ZM33.7666 20.5046H32.0026L32.0185 18.5503H33.7903L33.7666 20.5046ZM31.7811 20.5046H30.0093L30.0251 18.5503H31.797L31.7811 20.5046Z" fill="#FF7A00"/>
<path d="M26.4453 17.1233V14.9277H29.7043V17.1233H26.4453Z" fill="#FF7A00"/>
<path d="M19.9333 14.9381V12.9355H21.8238V14.9381H19.9333ZM25.4071 16.9969L25.858 19.2407C24.8349 19.6374 23.8145 20.0342 22.7968 20.4309C21.4784 20.8974 20.4395 21.1306 19.6802 21.1306C18.7099 21.1306 17.9109 20.8197 17.2834 20.1977C16.64 19.5597 16.3184 18.734 16.3184 17.7207C16.3184 17.0666 16.437 16.3133 16.6743 15.4608C16.9011 14.737 17.1305 14.0105 17.3625 13.2814L19.3796 13.8202C19.195 14.426 19.0104 15.0319 18.8259 15.6378C18.6255 16.3508 18.5253 16.9755 18.5253 17.5116C18.5253 17.9244 18.6703 18.2569 18.9603 18.5088C19.2293 18.7448 19.5747 18.8627 19.9966 18.8627C20.5134 18.8627 21.1145 18.7448 21.8001 18.5088C22.3802 18.2783 22.9576 18.0478 23.5324 17.8172L22.5199 13.5146L24.5054 13.0642C24.5686 13.343 24.6319 13.6191 24.6952 13.8926C24.8007 14.2947 24.9061 14.552 25.0116 14.6646C25.1804 14.8523 25.6945 14.9408 26.5541 14.93V17.1256C26.0531 17.1363 25.6708 17.0934 25.4071 16.9969Z" fill="#FF7A00"/>
<path fill-rule="evenodd" clip-rule="evenodd" d="M41.3359 48.5312H64.9763V65.0543H41.3359V48.5312ZM42.811 49.8227V63.7628H63.5013V49.8227H42.811Z" fill="#A6A6A6"/>
<path d="M59.9477 61.3554L59.3049 61.5237C59.3914 60.9572 59.419 60.3757 59.3877 59.7793C59.3675 59.4072 59.3537 59.167 59.3463 59.0585C59.3187 58.7183 59.2801 58.4462 59.2305 58.2424L59.8704 58.0293C59.9403 58.3696 59.9955 58.9006 60.0359 59.6222C60.0745 60.3178 60.0451 60.8955 59.9477 61.3554Z" fill="#636363"/>
<path d="M58.1978 60.6307C58.1978 60.5596 58.1491 60.483 58.0516 60.4007C57.9634 60.3278 57.8733 60.2773 57.7813 60.2492L57.6158 60.6896C57.7353 60.7625 57.8567 60.7989 57.9799 60.7989C58.1252 60.7989 58.1978 60.7428 58.1978 60.6307ZM58.8157 60.8999C58.7513 61.371 58.4994 61.6066 58.0599 61.6066C57.9827 61.6066 57.9027 61.5973 57.8199 61.5786C57.6415 61.5412 57.5211 61.4879 57.4586 61.4187C57.4144 61.3682 57.3786 61.2729 57.351 61.1327C57.1027 61.3963 56.8453 61.5281 56.5786 61.5281H56.4297V60.7344H56.5869C56.837 60.7344 57.0044 60.6522 57.0889 60.4876C57.1312 60.4035 57.1837 60.253 57.2462 60.0361C57.3032 59.8454 57.3574 59.7127 57.4089 59.6379C57.4862 59.5238 57.5928 59.4668 57.7289 59.4668C57.9293 59.4668 58.1565 59.6005 58.4102 59.8678C58.6879 60.1614 58.8267 60.4643 58.8267 60.7765C58.8267 60.8176 58.8231 60.8588 58.8157 60.8999Z" fill="#636363"/>
<path d="M56.5318 61.5237H56.2394C55.9893 61.5237 55.8109 61.4031 55.7043 61.1619C55.5277 61.4031 55.2795 61.5237 54.9595 61.5237H54.0327V60.73H54.1706C54.1982 60.7076 54.212 60.6478 54.212 60.5505C54.212 60.1897 54.0235 59.5101 53.6465 58.5117L54.3195 58.2985C54.6653 59.0707 54.8409 59.8111 54.8464 60.5197L54.2589 60.73H54.9319C55.1048 60.73 55.2151 60.7095 55.2629 60.6683C55.3641 60.5804 55.4146 60.371 55.4146 60.0401C55.4146 59.6494 55.3466 59.0501 55.2105 58.2424L55.8477 58.0293C55.9507 58.5883 56.0022 59.1502 56.0022 59.7148C56.0022 59.7728 56.0012 59.8485 55.9994 59.942C55.9994 60.0354 55.9994 60.1009 55.9994 60.1383C55.9994 60.372 56.0233 60.5253 56.0711 60.5982C56.13 60.6861 56.2578 60.73 56.4545 60.73H56.5318V61.5237Z" fill="#636363"/>
<path d="M51.8898 60.4974C51.8898 60.2899 51.6397 59.8393 51.1395 59.1457L51.556 58.4053L53.2303 57.9902V58.7362L51.9339 59.0896C52.0313 59.2205 52.1343 59.3943 52.2428 59.6112C52.3936 59.9122 52.469 60.1516 52.469 60.3292C52.469 61.1257 52.149 61.5239 51.5091 61.5239H50.8691V60.7302H51.5725C51.6534 60.7302 51.7261 60.7087 51.7904 60.6657C51.8567 60.6208 51.8898 60.5648 51.8898 60.4974Z" fill="#636363"/>
<path d="M51.0208 61.5222H49.2168V60.7285H51.0208V61.5222Z" fill="#636363"/>
<path d="M49.3958 61.5222H47.5918V60.7285H49.3958V61.5222Z" fill="#636363"/>
<path d="M47.7884 61.5222H45.9844V60.7285H47.7884V61.5222Z" fill="#636363"/>
<path d="M60.5939 51.0738C60.4688 51.7917 60.1111 52.1507 59.5208 52.1507C59.4877 52.1507 59.4381 52.1479 59.3719 52.1423C59.3057 52.1367 59.256 52.1339 59.2229 52.1339C58.9986 52.1339 58.8174 52.2115 58.6795 52.3666C58.5784 52.4807 58.5103 52.6228 58.4754 52.7929L57.8906 52.6162C57.9531 52.3003 58.0846 52.0413 58.2851 51.8394C58.4855 51.6356 58.7191 51.5337 58.9857 51.5337C59.0243 51.5337 59.0832 51.5374 59.1623 51.5449C59.2413 51.5524 59.3011 51.5561 59.3415 51.5561C59.5291 51.5561 59.6707 51.5085 59.7663 51.4131C59.8638 51.3178 59.9484 51.1429 60.0201 50.8887L60.5939 51.0738ZM59.5484 55.6142L58.9057 55.7825C58.9921 55.216 59.0197 54.6345 58.9885 54.0381C58.9682 53.666 58.9535 53.4258 58.9443 53.3174C58.9168 52.9771 58.8781 52.705 58.8285 52.5013L59.4684 52.2881C59.5402 52.6284 59.5962 53.1594 59.6367 53.8811C59.6735 54.5766 59.6441 55.1543 59.5484 55.6142Z" fill="#636363"/>
<path d="M57.4118 55.6924C57.4118 56.2215 57.2628 56.6795 56.9649 57.0666C56.6817 57.433 56.3048 57.6892 55.834 57.835V57.0441C56.5346 56.8048 56.8849 56.4084 56.8849 55.855C56.8849 55.6755 56.8362 55.4708 56.7387 55.2408C56.645 55.0202 56.5337 54.837 56.405 54.6912L57.0367 54.3462C57.0973 54.3873 57.1737 54.5565 57.2656 54.8538C57.3631 55.1735 57.4118 55.453 57.4118 55.6924ZM57.0532 52.7869H56.347V52.0605H57.0532V52.7869ZM57.5139 53.7292H56.8049V53.0029H57.5139V53.7292ZM56.5953 53.7292H55.8864V53.0029H56.5953V53.7292Z" fill="#636363"/>
<path d="M55.3227 55.6113L54.6799 55.7795C54.7664 55.213 54.794 54.6316 54.7627 54.0352C54.7425 53.6631 54.7287 53.4228 54.7213 53.3144C54.6937 52.9741 54.6551 52.7021 54.6055 52.4983L55.2454 52.2852C55.3153 52.6254 55.3705 53.1564 55.4109 53.8781C55.4495 54.5736 55.4201 55.1513 55.3227 55.6113Z" fill="#636363"/>
<path d="M53.1394 55.7816H52.6953V54.9879H53.2167C53.3472 54.9879 53.4355 54.9795 53.4815 54.9626C53.5808 54.9234 53.6304 54.8383 53.6304 54.7074C53.6304 54.513 53.5706 54.2942 53.4511 54.0512L54.1214 53.7791C54.1692 53.9699 54.1931 54.1606 54.1931 54.3513C54.1931 54.7645 54.1113 55.0982 53.9476 55.3525C53.7601 55.6385 53.4907 55.7816 53.1394 55.7816ZM53.2139 53.4959V52.7695H53.9228V53.4959H53.2139Z" fill="#636363"/>
<path d="M52.439 55.7785C52.2974 55.7785 52.1834 55.7318 52.0969 55.6383C52.0767 55.6159 52.0353 55.5476 51.9728 55.4336C51.8202 55.6636 51.6436 55.7785 51.4432 55.7785C51.3181 55.7785 51.1968 55.7355 51.0791 55.6495C50.989 55.5841 50.9219 55.5121 50.8777 55.4336C50.7159 55.6636 50.5605 55.7785 50.4115 55.7785H50.2157C50.1366 55.7785 50.0723 55.7608 50.0226 55.7253C49.9343 56.1983 49.6732 56.5947 49.2392 56.9144C48.8181 57.221 48.3519 57.3743 47.8407 57.3743C47.3313 57.3743 46.9231 57.2425 46.616 56.9789C46.3199 56.7246 46.1719 56.3965 46.1719 55.9945C46.1719 55.5944 46.3622 55.1999 46.7429 54.811C47.0647 54.4801 47.4968 54.1772 48.0393 53.9023V54.6736C47.7377 54.7932 47.4518 54.9615 47.1815 55.1784C46.8541 55.4364 46.6905 55.6692 46.6905 55.8767C46.6905 56.0786 46.8146 56.2413 47.0628 56.3647C47.3019 56.4843 47.6007 56.5442 47.9593 56.5442C48.4154 56.5442 48.7896 56.4451 49.082 56.2469C49.3983 56.0319 49.5564 55.7355 49.5564 55.3579C49.5564 55.0326 49.4608 54.7007 49.2696 54.3623L49.9399 54.1435C50.0024 54.2875 50.0539 54.4875 50.0943 54.7437C50.1201 54.9045 50.1651 54.9849 50.2295 54.9849H50.3674C50.4649 54.9849 50.5862 54.868 50.7315 54.6343C50.8584 54.4268 50.9329 54.2632 50.955 54.1435L51.5094 54.3511C51.5076 54.3585 51.4202 54.5315 51.2473 54.8699C51.2418 54.8792 51.2391 54.8895 51.2391 54.9007C51.2391 54.9568 51.2777 54.9849 51.3549 54.9849H51.4791C51.5765 54.9849 51.697 54.868 51.8404 54.6343C51.9673 54.4268 52.0418 54.2632 52.0638 54.1435L52.621 54.3511C52.6192 54.3585 52.5318 54.5315 52.359 54.8699C52.3535 54.8792 52.3507 54.8895 52.3507 54.9007C52.3507 54.9568 52.3893 54.9849 52.4666 54.9849H52.7948V55.7785H52.439Z" fill="#636363"/>
<g filter="url(#filter0_b_4261_41135)">
<rect x="18.2109" y="46.0684" width="14.2574" height="11.2743" fill="#4C8CED" fill-opacity="0.1"/>
</g>
<path d="M78.7964 68.3885H71.2221V40.3185C71.582 40.3507 71.9404 40.383 72.318 40.383C76.5661 40.383 80 37.547 80 34.0187V33.9877C79.9823 33.8611 79.9661 33.7359 79.91 33.6403C79.91 33.6093 79.8908 33.577 79.8908 33.577C79.8392 33.515 79.8009 33.4504 79.7478 33.3885L71.2206 23.6224V7.93497H73.3255C74.0099 7.93497 74.5497 7.46229 74.5497 6.86305V1.57192C74.5497 0.972676 74.0099 0.5 73.3255 0.5H6.67453C6.00929 0.5 5.45173 0.972676 5.45173 1.57192V6.86434C5.45173 7.46358 6.00929 7.93626 6.67453 7.93626H8.79711V23.6237L0.252231 33.3897C0.197655 33.453 0.162254 33.5163 0.126853 33.5783C0.107677 33.6093 0.107677 33.6093 0.0899769 33.6416C0.0368757 33.7359 0.0177004 33.8624 0 33.989V34.02C0 37.547 3.45306 40.3843 7.68198 40.3843C8.05959 40.3843 8.4195 40.3533 8.79711 40.3197V68.3885H1.22428C0.541338 68.3885 0.00147493 68.8611 0.00147493 69.4604C0.00147493 70.026 0.541338 70.5 1.22428 70.5H78.7964C79.4601 70.5 80 70.0273 80 69.4604C80.0015 68.8611 79.4616 68.3885 78.7964 68.3885ZM72.3195 38.2715C69.8754 38.2715 67.8221 36.9167 67.2483 35.0893H77.4128C76.8183 36.918 74.7666 38.2715 72.3195 38.2715ZM11.2088 22.9302V7.93497H68.7942V22.9302H60.3216H50.1217H40.0103H29.9004H19.7006H11.2088ZM20.4558 25.0727H28.3531L26.8058 30.555L26.1229 32.9494H16.0838L20.4558 25.0727ZM30.1689 27.4671L30.8533 25.0727H38.786V32.9481H28.6216L30.1689 27.4671ZM41.2346 25.0727H49.1688L51.3991 32.9481H41.2346V25.0727ZM53.8993 32.9481L51.6675 25.0727H59.5649L63.9369 32.9481H53.8993ZM25.6907 35.0906C25.1139 36.918 23.0459 38.2728 20.618 38.2728C18.171 38.2728 16.1015 36.918 15.5262 35.0906H25.6907ZM38.6253 35.0906C38.0308 36.918 35.9805 38.2728 33.5349 38.2728C31.107 38.2728 29.0375 36.918 28.4623 35.0906H38.6253ZM51.5613 35.0906C50.9669 36.918 48.9166 38.2728 46.4695 38.2728C44.0224 38.2728 41.9721 36.918 41.3777 35.0906H51.5613ZM64.4959 35.0906C63.9177 36.918 61.8512 38.2728 59.4041 38.2728C56.9747 38.2728 54.9067 36.918 54.33 35.0906H64.4959ZM66.6347 32.9481L62.2627 25.0727H66.9223H69.4048L76.3316 32.9481H66.6347ZM7.87964 5.79242V2.64383H72.1218V5.79242H7.87964ZM10.5967 25.0727H14.8241H17.7565L13.3859 32.9481H3.66989L10.5967 25.0727ZM2.59164 35.0906H12.7561C12.1794 36.918 10.1114 38.2728 7.68346 38.2728C5.2349 38.2715 3.1846 36.918 2.59164 35.0906ZM31.5185 68.3885H19.3938V58.749H31.5185V68.3885ZM31.5185 56.6374H19.3938V46.9966H31.5185V56.6374ZM33.9479 68.3885V45.9273C33.9479 45.3603 33.4081 44.8864 32.7428 44.8864H18.1887C17.5234 44.8864 16.9836 45.359 16.9836 45.9273V68.3885H11.2088V39.6585C12.4139 39.1536 13.4213 38.3671 14.1412 37.4527C15.5085 39.2168 17.901 40.383 20.618 40.383C23.3159 40.383 25.7084 39.2168 27.0757 37.4527C28.4431 39.2168 30.8179 40.383 33.5349 40.383C36.2505 40.383 38.643 39.2168 40.0118 37.4527C41.3615 39.2168 43.754 40.383 46.4695 40.383C49.185 40.383 51.579 39.2168 52.9479 37.4217C54.296 39.2168 56.7062 40.383 59.4056 40.383C62.1226 40.383 64.5151 39.2168 65.881 37.4527C66.6008 38.398 67.6097 39.1536 68.7956 39.6585V68.3885H33.9479Z" fill="#A6A6A6"/>
<defs>
<filter id="filter0_b_4261_41135" x="17.7109" y="45.5684" width="15.2578" height="12.2744" filterUnits="userSpaceOnUse" color-interpolation-filters="sRGB">
<feFlood flood-opacity="0" result="BackgroundImageFix"/>
<feGaussianBlur in="BackgroundImageFix" stdDeviation="0.25"/>
<feComposite in2="SourceAlpha" operator="in" result="effect1_backgroundBlur_4261_41135"/>
<feBlend mode="normal" in="SourceGraphic" in2="effect1_backgroundBlur_4261_41135" result="shape"/>
</filter>
</defs>
</svg>
