<svg width="27" height="23" viewBox="0 0 27 23" fill="none" xmlns="http://www.w3.org/2000/svg">
<path d="M26.5938 22.3052H24.0374V13.0822C24.1589 13.0928 24.2799 13.1034 24.4073 13.1034C25.8411 13.1034 27 12.1716 27 11.0123V11.0021C26.994 10.9605 26.9885 10.9194 26.9696 10.888C26.9696 10.8778 26.9632 10.8672 26.9632 10.8672C26.9457 10.8468 26.9328 10.8256 26.9149 10.8052L24.0369 7.59638V2.44194H24.7473C24.9783 2.44194 25.1605 2.28663 25.1605 2.08974V0.351224C25.1605 0.154331 24.9783 -0.000976562 24.7473 -0.000976562H2.25266C2.02814 -0.000976562 1.83996 0.154331 1.83996 0.351224V2.09016C1.83996 2.28706 2.02814 2.44237 2.25266 2.44237H2.96902V7.59681L0.085128 10.8057C0.0667085 10.8264 0.0547607 10.8472 0.0428129 10.8676C0.0363412 10.8778 0.0363411 10.8778 0.0303672 10.8884C0.0124455 10.9194 0.00597389 10.961 0 11.0025V11.0127C0 12.1716 1.16541 13.1039 2.59267 13.1039C2.72011 13.1039 2.84158 13.0937 2.96902 13.0827V22.3052H0.413194C0.182701 22.3052 0.000497788 22.4605 0.000497788 22.6574C0.000497788 22.8433 0.182701 22.999 0.413194 22.999H26.5938C26.8178 22.999 27 22.8437 27 22.6574C27.0005 22.4605 26.8183 22.3052 26.5938 22.3052ZM24.4078 12.4097C23.5829 12.4097 22.89 11.9645 22.6963 11.3641H26.1268C25.9262 11.9649 25.2337 12.4097 24.4078 12.4097ZM3.78297 7.36894V2.44194H23.218V7.36894H20.3585H16.9161H13.5035H10.0914H6.64894H3.78297ZM6.90383 8.07291H9.56918L9.04696 9.87423L8.81647 10.661H5.42828L6.90383 8.07291ZM10.182 8.85964L10.413 8.07291H13.0903V10.6605H9.65978L10.182 8.85964ZM13.9167 8.07291H16.5945L17.3472 10.6605H13.9167V8.07291ZM18.191 10.6605L17.4378 8.07291H20.1031L21.5787 10.6605H18.191ZM8.67061 11.3645C8.47596 11.9649 7.77801 12.4101 6.95859 12.4101C6.1327 12.4101 5.43425 11.9649 5.2401 11.3645H8.67061ZM13.036 11.3645C12.8354 11.9649 12.1434 12.4101 11.318 12.4101C10.4986 12.4101 9.80017 11.9649 9.60602 11.3645H13.036ZM17.4019 11.3645C17.2013 11.9649 16.5093 12.4101 15.6835 12.4101C14.8576 12.4101 14.1656 11.9649 13.965 11.3645H17.4019ZM21.7674 11.3645C21.5722 11.9649 20.8748 12.4101 20.0489 12.4101C19.229 12.4101 18.531 11.9649 18.3364 11.3645H21.7674ZM22.4892 10.6605L21.0137 8.07291H22.5863H23.4241L25.7619 10.6605H22.4892ZM2.65938 1.73796V0.703425H24.3411V1.73796H2.65938ZM3.57637 8.07291H5.00313H5.99281L4.51776 10.6605H1.23859L3.57637 8.07291ZM0.874677 11.3645H4.30518C4.11054 11.9649 3.41259 12.4101 2.59317 12.4101C1.76678 12.4097 1.0748 11.9649 0.874677 11.3645ZM10.6375 22.3052H6.54539V19.138H10.6375V22.3052ZM10.6375 18.4442H6.54539V15.2765H10.6375V18.4442ZM11.4574 22.3052V14.9251C11.4574 14.7388 11.2752 14.5831 11.0507 14.5831H6.13867C5.91415 14.5831 5.73195 14.7384 5.73195 14.9251V22.3052H3.78297V12.8654C4.18969 12.6995 4.5297 12.4411 4.77264 12.1406C5.23412 12.7203 6.0416 13.1034 6.95859 13.1034C7.86911 13.1034 8.67658 12.7203 9.13806 12.1406C9.59955 12.7203 10.401 13.1034 11.318 13.1034C12.2345 13.1034 13.042 12.7203 13.504 12.1406C13.9595 12.7203 14.767 13.1034 15.6835 13.1034C16.6 13.1034 17.4079 12.7203 17.8699 12.1304C18.3249 12.7203 19.1384 13.1034 20.0494 13.1034C20.9664 13.1034 21.7738 12.7203 22.2348 12.1406C22.4778 12.4512 22.8183 12.6995 23.2185 12.8654V22.3052H11.4574Z" fill="url(#paint0_linear_4756_9292)"/>
<path d="M8.35605 5.95366V3.86252C8.35605 3.66605 8.17384 3.51074 7.94932 3.51074H5.72704C5.50252 3.51074 5.32031 3.66605 5.32031 3.86252V5.95366C5.32031 6.15013 5.50252 6.30544 5.72704 6.30544H7.94932C8.17384 6.30501 8.35605 6.15013 8.35605 5.95366ZM7.5421 5.61207H6.13973V4.20454H7.5421V5.61207Z" fill="url(#paint1_linear_4756_9292)"/>
<path d="M10.1684 6.30013H12.3907C12.6152 6.30013 12.797 6.14482 12.797 5.94835V3.85764C12.797 3.66117 12.6147 3.50586 12.3907 3.50586H10.1684C9.94342 3.50586 9.76172 3.66117 9.76172 3.85764V5.94878C9.76172 6.14525 9.94392 6.30013 10.1684 6.30013ZM10.5752 4.19923H11.978V5.60676H10.5752V4.19923Z" fill="url(#paint2_linear_4756_9292)"/>
<path d="M14.628 6.30013H16.8444C17.0743 6.30013 17.257 6.14482 17.257 5.94835V3.85764C17.257 3.66117 17.0743 3.50586 16.8444 3.50586H14.628C14.397 3.50586 14.2148 3.66117 14.2148 3.85764V5.94878C14.2148 6.14525 14.397 6.30013 14.628 6.30013ZM15.0348 4.19923H16.4371V5.60676H15.0348V4.19923Z" fill="url(#paint3_linear_4756_9292)"/>
<path d="M19.0592 6.30013H21.2815C21.5065 6.30013 21.6887 6.14482 21.6887 5.94835V3.85764C21.6887 3.66117 21.5065 3.50586 21.2815 3.50586H19.0592C18.8352 3.50586 18.6465 3.66117 18.6465 3.85764V5.94878C18.6465 6.14525 18.8352 6.30013 19.0592 6.30013ZM19.4719 4.19923H20.8688V5.60676H19.4719V4.19923Z" fill="url(#paint4_linear_4756_9292)"/>
<path fill-rule="evenodd" clip-rule="evenodd" d="M13.957 15.7754H21.9357V21.2044H13.957V15.7754ZM14.4549 16.1997V20.78H21.4378V16.1997H14.4549Z" fill="url(#paint5_linear_4756_9292)"/>
<path fill-rule="evenodd" clip-rule="evenodd" d="M18.4922 17.8441L21.5344 15.8213L21.8406 16.1559L18.7984 18.1787L18.4922 17.8441Z" fill="url(#paint6_linear_4756_9292)"/>
<path fill-rule="evenodd" clip-rule="evenodd" d="M18.3926 20.7835V18.0146H18.8904V20.7835H18.3926Z" fill="url(#paint7_linear_4756_9292)"/>
<path fill-rule="evenodd" clip-rule="evenodd" d="M16.7701 17.9168L14.0391 16.16L14.3389 15.8213L17.07 17.5781L16.7701 17.9168Z" fill="url(#paint8_linear_4756_9292)"/>
<path fill-rule="evenodd" clip-rule="evenodd" d="M16.6758 20.994V17.7461H17.1736V20.994H16.6758Z" fill="url(#paint9_linear_4756_9292)"/>
<defs>
<linearGradient id="paint0_linear_4756_9292" x1="13.5" y1="-0.000976563" x2="13.5" y2="22.999" gradientUnits="userSpaceOnUse">
<stop stop-color="#FF9900"/>
<stop offset="1" stop-color="#636363"/>
</linearGradient>
<linearGradient id="paint1_linear_4756_9292" x1="6.83818" y1="3.51074" x2="6.83818" y2="6.30544" gradientUnits="userSpaceOnUse">
<stop stop-color="#FF9900"/>
<stop offset="1" stop-color="#636363"/>
</linearGradient>
<linearGradient id="paint2_linear_4756_9292" x1="11.2793" y1="3.50586" x2="11.2793" y2="6.30013" gradientUnits="userSpaceOnUse">
<stop stop-color="#FF9900"/>
<stop offset="1" stop-color="#636363"/>
</linearGradient>
<linearGradient id="paint3_linear_4756_9292" x1="15.7359" y1="3.50586" x2="15.7359" y2="6.30013" gradientUnits="userSpaceOnUse">
<stop stop-color="#FF9900"/>
<stop offset="1" stop-color="#636363"/>
</linearGradient>
<linearGradient id="paint4_linear_4756_9292" x1="20.1676" y1="3.50586" x2="20.1676" y2="6.30013" gradientUnits="userSpaceOnUse">
<stop stop-color="#FF9900"/>
<stop offset="1" stop-color="#636363"/>
</linearGradient>
<linearGradient id="paint5_linear_4756_9292" x1="17.9463" y1="15.7754" x2="17.9463" y2="21.2044" gradientUnits="userSpaceOnUse">
<stop stop-color="#FF9900"/>
<stop offset="1" stop-color="#636363"/>
</linearGradient>
<linearGradient id="paint6_linear_4756_9292" x1="20.1664" y1="15.8213" x2="20.1664" y2="18.1787" gradientUnits="userSpaceOnUse">
<stop stop-color="#FF9900"/>
<stop offset="1" stop-color="#636363"/>
</linearGradient>
<linearGradient id="paint7_linear_4756_9292" x1="18.6415" y1="18.0146" x2="18.6415" y2="20.7835" gradientUnits="userSpaceOnUse">
<stop stop-color="#FF9900"/>
<stop offset="1" stop-color="#636363"/>
</linearGradient>
<linearGradient id="paint8_linear_4756_9292" x1="15.5545" y1="15.8213" x2="15.5545" y2="17.9168" gradientUnits="userSpaceOnUse">
<stop stop-color="#FF9900"/>
<stop offset="1" stop-color="#636363"/>
</linearGradient>
<linearGradient id="paint9_linear_4756_9292" x1="16.9247" y1="17.7461" x2="16.9247" y2="20.994" gradientUnits="userSpaceOnUse">
<stop stop-color="#FF9900"/>
<stop offset="1" stop-color="#636363"/>
</linearGradient>
</defs>
</svg>
