<svg width="25" height="25" viewBox="0 0 25 25" fill="none" xmlns="http://www.w3.org/2000/svg">
<path d="M24.6239 24.2459H22.2569V14.2209C22.3694 14.2324 22.4814 14.2439 22.5994 14.2439C23.9269 14.2439 25 13.2311 25 11.971V11.9599C24.9945 11.9147 24.9894 11.8699 24.9719 11.8358C24.9719 11.8247 24.9659 11.8132 24.9659 11.8132C24.9498 11.7911 24.9378 11.768 24.9212 11.7459L22.2564 8.258V2.65534H22.9142C23.1281 2.65534 23.2968 2.48653 23.2968 2.27252V0.382827C23.2968 0.168813 23.1281 0 22.9142 0H2.08579C1.8779 0 1.70367 0.168813 1.70367 0.382827V2.27298C1.70367 2.48699 1.8779 2.65581 2.08579 2.65581H2.7491V8.25846L0.0788222 11.7463C0.0617671 11.7689 0.0507043 11.7915 0.0396415 11.8137C0.0336492 11.8247 0.0336492 11.8247 0.0281178 11.8363C0.0115237 11.87 0.00553138 11.9152 0 11.9604V11.9714C0 13.2311 1.07908 14.2444 2.40062 14.2444C2.51862 14.2444 2.63109 14.2333 2.7491 14.2213V24.2459H0.382587C0.169168 24.2459 0.000460915 24.4147 0.000460915 24.6287C0.000460915 24.8307 0.169168 25 0.382587 25H24.6239C24.8313 25 25 24.8312 25 24.6287C25.0005 24.4147 24.8318 24.2459 24.6239 24.2459ZM22.5998 13.4898C21.836 13.4898 21.1944 13.006 21.0151 12.3533H24.1915C24.0057 13.0064 23.3646 13.4898 22.5998 13.4898ZM3.50275 8.01077V2.65534H21.4982V8.01077H18.8505H15.663H12.5032H9.34389H6.15643H3.50275ZM6.39243 8.77597H8.86035L8.37682 10.7339L8.1634 11.5891H5.02618L6.39243 8.77597ZM9.42778 9.6311L9.64166 8.77597H12.1206V11.5886H8.94424L9.42778 9.6311ZM12.8858 8.77597H15.3653L16.0622 11.5886H12.8858V8.77597ZM16.8435 11.5886L16.1461 8.77597H18.614L19.9803 11.5886H16.8435ZM8.02834 12.3538C7.84811 13.0064 7.20186 13.4903 6.44314 13.4903C5.67842 13.4903 5.03171 13.0064 4.85194 12.3538H8.02834ZM12.0704 12.3538C11.8846 13.0064 11.2439 13.4903 10.4797 13.4903C9.72094 13.4903 9.07423 13.0064 8.89446 12.3538H12.0704ZM16.1129 12.3538C15.9271 13.0064 15.2864 13.4903 14.5217 13.4903C13.757 13.4903 13.1163 13.0064 12.9305 12.3538H16.1129ZM20.155 12.3538C19.9743 13.0064 19.3285 13.4903 18.5638 13.4903C17.8046 13.4903 17.1583 13.0064 16.9781 12.3538H20.155ZM20.8233 11.5886L19.4571 8.77597H20.9132H21.689L23.8536 11.5886H20.8233ZM2.46239 1.89015V0.765654H22.5381V1.89015H2.46239ZM3.31145 8.77597H4.63253H5.5489L4.18311 11.5886H1.14684L3.31145 8.77597ZM0.809886 12.3538H3.98628C3.80605 13.0064 3.1598 13.4903 2.40108 13.4903C1.63591 13.4898 0.995188 13.0064 0.809886 12.3538ZM9.84955 24.2459H6.06055V20.8032H9.84955V24.2459ZM9.84955 20.0491H6.06055V16.6059H9.84955V20.0491ZM10.6087 24.2459V16.224C10.6087 16.0215 10.44 15.8523 10.2321 15.8523H5.68396C5.47607 15.8523 5.30736 16.0211 5.30736 16.224V24.2459H3.50275V13.9852C3.87934 13.8048 4.19417 13.5239 4.41911 13.1974C4.84641 13.8274 5.59407 14.2439 6.44314 14.2439C7.28621 14.2439 8.03387 13.8274 8.46117 13.1974C8.88847 13.8274 9.6306 14.2439 10.4797 14.2439C11.3283 14.2439 12.0759 13.8274 12.5037 13.1974C12.9255 13.8274 13.6731 14.2439 14.5217 14.2439C15.3703 14.2439 16.1184 13.8274 16.5462 13.1863C16.9675 13.8274 17.7207 14.2439 18.5642 14.2439C19.4133 14.2439 20.161 13.8274 20.5878 13.1974C20.8127 13.535 21.128 13.8048 21.4986 13.9852V24.2459H10.6087Z" fill="#636363"/>
<path d="M7.73664 6.47029V4.19731C7.73664 3.98375 7.56794 3.81494 7.36005 3.81494H5.30238C5.09449 3.81494 4.92578 3.98375 4.92578 4.19731V6.47029C4.92578 6.68384 5.09449 6.85265 5.30238 6.85265H7.36005C7.56794 6.85219 7.73664 6.68384 7.73664 6.47029ZM6.98299 6.09899H5.6845V4.56906H6.98299V6.09899Z" fill="#636363"/>
<path d="M9.41566 6.85121H11.4733C11.6812 6.85121 11.8495 6.6824 11.8495 6.46885V4.19633C11.8495 3.98278 11.6808 3.81396 11.4733 3.81396H9.41566C9.20731 3.81396 9.03906 3.98278 9.03906 4.19633V6.46931C9.03906 6.68286 9.20777 6.85121 9.41566 6.85121ZM9.79225 4.56763H11.0912V6.09755H9.79225V4.56763Z" fill="#636363"/>
<path d="M13.532 6.85121H15.5841C15.7971 6.85121 15.9663 6.6824 15.9663 6.46885V4.19633C15.9663 3.98278 15.7971 3.81396 15.5841 3.81396H13.532C13.3181 3.81396 13.1494 3.98278 13.1494 4.19633V6.46931C13.1494 6.68286 13.3181 6.85121 13.532 6.85121ZM13.9086 4.56763H15.2071V6.09755H13.9086V4.56763Z" fill="#636363"/>
<path d="M17.6409 6.85121H19.6986C19.9069 6.85121 20.0756 6.6824 20.0756 6.46885V4.19633C20.0756 3.98278 19.9069 3.81396 19.6986 3.81396H17.6409C17.4335 3.81396 17.2588 3.98278 17.2588 4.19633V6.46931C17.2588 6.68286 17.4335 6.85121 17.6409 6.85121ZM18.023 4.56763H19.3165V6.09755H18.023V4.56763Z" fill="#636363"/>
<path fill-rule="evenodd" clip-rule="evenodd" d="M12.9189 17.1538H20.3066V23.0549H12.9189V17.1538ZM13.3799 17.615V22.5936H19.8456V17.615H13.3799Z" fill="#636363"/>
<path fill-rule="evenodd" clip-rule="evenodd" d="M17.1172 19.4014L19.934 17.2026L20.2176 17.5663L17.4007 19.765L17.1172 19.4014Z" fill="#636363"/>
<path fill-rule="evenodd" clip-rule="evenodd" d="M17.0283 22.5931V19.5835H17.4893V22.5931H17.0283Z" fill="#636363"/>
<path fill-rule="evenodd" clip-rule="evenodd" d="M15.5385 19.4779L13.0098 17.5684L13.2874 17.2002L15.8162 19.1097L15.5385 19.4779Z" fill="#636363"/>
<path fill-rule="evenodd" clip-rule="evenodd" d="M15.4473 22.8243V19.2939H15.9082V22.8243H15.4473Z" fill="#636363"/>
</svg>
