<svg width="24" height="25" viewBox="0 0 24 25" fill="none" xmlns="http://www.w3.org/2000/svg">
<path d="M11.998 22.499C17.5209 22.499 21.998 18.0219 21.998 12.499C21.998 6.97618 17.5209 2.49902 11.998 2.49902C6.4752 2.49902 1.99805 6.97618 1.99805 12.499C1.99805 18.0219 6.4752 22.499 11.998 22.499Z" stroke="url(#paint0_linear_5172_11142)" stroke-width="1.5" stroke-linecap="round" stroke-linejoin="round"/>
<path d="M7.99961 3.5H8.99961C7.04961 9.34 7.04961 15.66 8.99961 21.5H7.99961" stroke="url(#paint1_linear_5172_11142)" stroke-width="1.5" stroke-linecap="round" stroke-linejoin="round"/>
<path d="M15 3.5C16.95 9.34 16.95 15.66 15 21.5" stroke="url(#paint2_linear_5172_11142)" stroke-width="1.5" stroke-linecap="round" stroke-linejoin="round"/>
<path d="M3 16.5V15.5C8.84 17.45 15.16 17.45 21 15.5V16.5" stroke="url(#paint3_linear_5172_11142)" stroke-width="1.5" stroke-linecap="round" stroke-linejoin="round"/>
<path d="M3 9.50059C8.84 7.55059 15.16 7.55059 21 9.50059" stroke="url(#paint4_linear_5172_11142)" stroke-width="1.5" stroke-linecap="round" stroke-linejoin="round"/>
<defs>
<linearGradient id="paint0_linear_5172_11142" x1="11.998" y1="2.49902" x2="11.998" y2="22.499" gradientUnits="userSpaceOnUse">
<stop stop-color="#FF9900"/>
<stop offset="1" stop-color="#636363"/>
</linearGradient>
<linearGradient id="paint1_linear_5172_11142" x1="8.26836" y1="3.5" x2="8.26836" y2="21.5" gradientUnits="userSpaceOnUse">
<stop stop-color="#FF9900"/>
<stop offset="1" stop-color="#636363"/>
</linearGradient>
<linearGradient id="paint2_linear_5172_11142" x1="15.7313" y1="3.5" x2="15.7313" y2="21.5" gradientUnits="userSpaceOnUse">
<stop stop-color="#FF9900"/>
<stop offset="1" stop-color="#636363"/>
</linearGradient>
<linearGradient id="paint3_linear_5172_11142" x1="12" y1="15.5" x2="12" y2="16.9625" gradientUnits="userSpaceOnUse">
<stop stop-color="#FF9900"/>
<stop offset="1" stop-color="#636363"/>
</linearGradient>
<linearGradient id="paint4_linear_5172_11142" x1="12" y1="8.03809" x2="12" y2="9.50059" gradientUnits="userSpaceOnUse">
<stop stop-color="#FF9900"/>
<stop offset="1" stop-color="#636363"/>
</linearGradient>
</defs>
</svg>
